<svg width="234" height="96" viewBox="0 0 234 96" fill="none" xmlns="http://www.w3.org/2000/svg">
<path d="M82.9411 60.0697C85.9791 60.0697 87.9941 59.4497 89.4821 58.0547C90.5981 57.0007 91.2491 55.4817 91.2491 53.5907C91.2491 45.3137 80.4301 48.1657 80.4301 44.0117C80.4301 42.6787 81.2671 41.7487 83.8711 41.7487C85.3591 41.7487 87.2191 42.0277 88.9551 42.4927L89.6991 38.8967C88.0561 38.3387 85.8241 38.0287 83.7781 38.0287C79.2521 38.0287 75.8731 39.9197 75.8731 44.2287C75.8731 52.5677 86.6921 49.6847 86.6921 53.6527C86.6921 55.6057 85.3591 56.3497 82.5071 56.3497C80.9571 56.3497 78.5081 55.9467 76.6481 55.2957L75.9041 58.9847C78.0431 59.7287 80.2441 60.0697 82.9411 60.0697ZM94.4062 59.6357H99.2422V38.4317H94.4062V59.6357ZM103.26 59.6357H107.507V46.7707L117.241 59.6357H121.116V38.4317H116.869V52.0097L106.825 38.4317H103.26V59.6357ZM140.778 60.0697C142.514 60.0697 144.839 59.7907 146.11 59.4187L145.614 55.8847C144.374 56.1327 142.731 56.3187 141.708 56.3187C139.321 56.3187 137.988 55.8537 137.058 54.7997C136.004 53.6217 135.539 51.5137 135.539 49.0027C135.539 44.7867 136.593 41.7797 141.15 41.7797C142.483 41.7797 144.064 42.0587 145.707 42.5237L146.327 38.9897C144.963 38.4317 142.607 38.0287 140.778 38.0287C133.524 38.0287 130.517 42.4927 130.517 49.1267C130.517 52.8157 131.292 55.5747 133.09 57.4967C134.671 59.1707 137.027 60.0697 140.778 60.0697ZM157.545 60.0697C164.024 60.0697 166.938 56.2257 166.938 49.0647C166.938 41.9037 164.024 38.0287 157.545 38.0287C151.066 38.0287 148.152 41.9037 148.152 49.0647C148.152 56.2257 151.066 60.0697 157.545 60.0697ZM157.545 56.2877C154.414 56.2877 153.174 54.1797 153.174 49.0647C153.174 43.9497 154.414 41.8107 157.545 41.8107C160.676 41.8107 161.916 43.9497 161.916 49.0647C161.916 54.1797 160.676 56.2877 157.545 56.2877ZM176.278 60.0697C179.316 60.0697 181.331 59.4497 182.819 58.0547C183.935 57.0007 184.586 55.4817 184.586 53.5907C184.586 45.3137 173.767 48.1657 173.767 44.0117C173.767 42.6787 174.604 41.7487 177.208 41.7487C178.696 41.7487 180.556 42.0277 182.292 42.4927L183.036 38.8967C181.393 38.3387 179.161 38.0287 177.115 38.0287C172.589 38.0287 169.21 39.9197 169.21 44.2287C169.21 52.5677 180.029 49.6847 180.029 53.6527C180.029 55.6057 178.696 56.3497 175.844 56.3497C174.294 56.3497 171.845 55.9467 169.985 55.2957L169.241 58.9847C171.38 59.7287 173.581 60.0697 176.278 60.0697ZM191.908 59.6357H196.744V41.9347H203.161L203.533 38.4317H185.336V41.9347H191.908V59.6357ZM213.931 60.0697C220.41 60.0697 223.324 56.2257 223.324 49.0647C223.324 41.9037 220.41 38.0287 213.931 38.0287C207.452 38.0287 204.538 41.9037 204.538 49.0647C204.538 56.2257 207.452 60.0697 213.931 60.0697ZM213.931 56.2877C210.8 56.2877 209.56 54.1797 209.56 49.0647C209.56 43.9497 210.8 41.8107 213.931 41.8107C217.062 41.8107 218.302 43.9497 218.302 49.0647C218.302 54.1797 217.062 56.2877 213.931 56.2877ZM226.898 53.0017H230.184L230.866 38.4317H226.216L226.898 53.0017ZM228.51 60.0697H228.727C230.215 60.0697 230.99 59.4807 230.99 57.9307V57.5587C230.99 56.0087 230.215 55.4197 228.727 55.4197H228.51C227.022 55.4197 226.247 56.0087 226.247 57.5587V57.9307C226.247 59.4807 227.022 60.0697 228.51 60.0697Z" fill="white"/>
<path d="M4.57601 38.243H4.35958C2.87547 38.243 2.10249 38.8305 2.10249 40.3764V40.7474C2.10249 42.2934 2.87547 42.8808 4.35958 42.8808H4.57601C6.06012 42.8808 6.8331 42.2934 6.8331 40.7474V40.3764C6.8331 38.8305 6.06012 38.243 4.57601 38.243ZM6.1838 45.2925H2.90639L2.22617 59.8245H6.86402L6.1838 45.2925Z" fill="white"/>
<path d="M20.2411 44.7559H16.0067V35.8356H9.28278V59.8146H16.0067V50.5107H20.2411V59.8146H26.7642V35.8356H20.2411V44.7559Z" fill="white"/>
<path d="M56.6597 35.4348C49.9391 35.4294 46.5054 40.3696 45.6572 42.3629C45.6648 39.3697 42.7113 35.8378 39.2549 35.8335H28.1207V59.8136L38.5017 59.8158C42.6864 59.8158 45.6648 56.1944 45.6702 53.0902C46.6252 55.0448 49.9391 59.9365 56.6597 59.9332C63.388 59.9311 68.8633 54.3487 68.8612 47.6296C68.8601 40.7694 63.388 35.4402 56.6597 35.4348ZM37.6319 54.2291H34.3299V50.1767H37.6319C38.5923 50.1767 39.3488 51.1238 39.3488 52.2035C39.3488 53.282 38.5923 54.2291 37.6319 54.2291ZM37.6438 45.2258H34.3418V41.1723H37.6438C38.6042 41.1723 39.3607 42.1194 39.3607 43.198C39.3607 44.2776 38.6042 45.2258 37.6438 45.2258ZM42.039 47.635C42.7954 47.5391 44.0558 46.6761 44.5004 46.1244C44.344 46.8075 44.3321 48.7857 44.5144 49.4699C44.0073 48.6898 42.8073 47.7309 42.039 47.635ZM56.6641 53.7389C53.2876 53.7389 50.5509 51.0064 50.5509 47.635C50.5509 44.2647 53.2876 41.5311 56.6641 41.5311C60.0406 41.5311 62.7772 44.2636 62.7772 47.635C62.7772 51.0064 60.0395 53.7389 56.6641 53.7389Z" fill="white"/>
<path d="M56.664 42.837C54.0094 42.837 51.8588 44.9855 51.8588 47.635C51.8588 50.2856 54.0105 52.4341 56.664 52.4341C59.3175 52.4341 61.4692 50.2856 61.4692 47.635C61.4692 44.9855 59.3175 42.837 56.664 42.837Z" fill="white"/>
<path d="M41.705 75.8434C42.199 75.8434 42.771 75.7784 43.148 75.6874L43.083 75.0634C42.784 75.1284 42.251 75.1934 41.874 75.1934C40.093 75.1934 39.43 74.3744 39.43 72.5154C39.43 70.6434 40.015 69.7594 41.731 69.7594C42.134 69.7594 42.615 69.8374 43.057 69.9544L43.109 69.3304C42.654 69.1744 42.121 69.1094 41.627 69.1094C39.69 69.1094 38.65 70.2534 38.65 72.5414C38.65 74.8034 39.703 75.8434 41.705 75.8434ZM46.9789 75.8434C48.8769 75.8434 49.7219 74.6214 49.7219 72.4764C49.7219 70.3314 48.8769 69.1094 46.9789 69.1094C45.0809 69.1094 44.2359 70.3314 44.2359 72.4764C44.2359 74.6214 45.0809 75.8434 46.9789 75.8434ZM46.9789 75.1934C45.5229 75.1934 45.0159 74.2314 45.0159 72.4764C45.0159 70.7214 45.5229 69.7594 46.9789 69.7594C48.4349 69.7594 48.9419 70.7214 48.9419 72.4764C48.9419 74.2314 48.4349 75.1934 46.9789 75.1934ZM51.3399 75.6614H52.0939V70.3054C52.7439 69.9804 53.4849 69.7984 54.1089 69.7984C54.6159 69.7984 54.9929 69.9284 55.2399 70.1754C55.4999 70.4354 55.6039 70.7864 55.6039 71.4494V75.6614H56.3579V71.2544C56.3579 70.4744 56.1889 70.0064 55.8249 69.6424C55.4739 69.2914 54.9019 69.1094 54.2259 69.1094C53.4589 69.1094 52.6789 69.3564 51.9899 69.7724L51.9379 69.2914H51.3399V75.6614ZM60.3522 75.8434C60.7292 75.8434 61.1842 75.7784 61.4962 75.6744L61.4442 75.0634C61.1582 75.1284 60.7682 75.1804 60.4692 75.1804C60.0532 75.1804 59.7932 75.0764 59.6242 74.8944C59.4162 74.6604 59.3902 74.3224 59.3902 73.7244V69.8894H61.0802V69.2914H59.3902V67.6664C59.1562 67.6924 58.8572 67.7574 58.6362 67.8224V69.2914L57.4662 69.4344V69.8894H58.6362V73.9584C58.6362 74.6864 58.7662 75.1414 59.0652 75.4404C59.3382 75.7134 59.7932 75.8434 60.3522 75.8434ZM62.7149 75.6614H63.4689V70.3444C63.9369 70.0194 64.4829 69.8114 65.1329 69.8114C65.2369 69.8114 65.3669 69.8114 65.5749 69.8244V69.1224C65.4449 69.1094 65.3539 69.1094 65.2629 69.1094C64.6649 69.1094 63.9629 69.3564 63.3779 69.8374L63.3129 69.2914H62.7149V75.6614ZM68.2534 75.8434C68.9424 75.8434 69.6834 75.6094 70.3074 75.2324L70.3464 75.6614H70.9574V71.3194C70.9574 70.5394 70.7754 70.0194 70.4374 69.6684C70.0604 69.2784 69.4494 69.1094 68.6044 69.1094C67.9934 69.1094 67.3044 69.2004 66.7064 69.3564L66.7584 69.9804C67.3304 69.8504 67.9674 69.7724 68.5394 69.7724C69.1244 69.7724 69.5664 69.8764 69.8264 70.1494C70.0734 70.3964 70.2034 70.7994 70.2034 71.4234V71.9434H68.6694C67.6944 71.9434 67.0574 72.1124 66.6154 72.5284C66.3034 72.8274 66.1214 73.2954 66.1214 73.8674C66.1214 75.1804 67.0054 75.8434 68.2534 75.8434ZM68.3834 75.1804C67.4474 75.1804 66.8754 74.7774 66.8754 73.8544C66.8754 73.4384 66.9924 73.1264 67.2394 72.9184C67.5254 72.6714 67.9804 72.5544 68.7864 72.5544H70.2034V74.7124C69.7224 74.9854 68.9684 75.1804 68.3834 75.1804ZM74.9518 75.8434C75.3288 75.8434 75.7838 75.7784 76.0958 75.6744L76.0438 75.0634C75.7578 75.1284 75.3678 75.1804 75.0688 75.1804C74.6528 75.1804 74.3928 75.0764 74.2238 74.8944C74.0158 74.6604 73.9898 74.3224 73.9898 73.7244V69.8894H75.6798V69.2914H73.9898V67.6664C73.7558 67.6924 73.4568 67.7574 73.2358 67.8224V69.2914L72.0658 69.4344V69.8894H73.2358V73.9584C73.2358 74.6864 73.3658 75.1414 73.6648 75.4404C73.9378 75.7134 74.3928 75.8434 74.9518 75.8434ZM79.0825 75.8434C79.7715 75.8434 80.5125 75.6094 81.1365 75.2324L81.1755 75.6614H81.7865V71.3194C81.7865 70.5394 81.6045 70.0194 81.2665 69.6684C80.8895 69.2784 80.2785 69.1094 79.4335 69.1094C78.8225 69.1094 78.1335 69.2004 77.5355 69.3564L77.5875 69.9804C78.1595 69.8504 78.7965 69.7724 79.3685 69.7724C79.9535 69.7724 80.3955 69.8764 80.6555 70.1494C80.9025 70.3964 81.0325 70.7994 81.0325 71.4234V71.9434H79.4985C78.5235 71.9434 77.8865 72.1124 77.4445 72.5284C77.1325 72.8274 76.9505 73.2954 76.9505 73.8674C76.9505 75.1804 77.8345 75.8434 79.0825 75.8434ZM79.2125 75.1804C78.2765 75.1804 77.7045 74.7774 77.7045 73.8544C77.7045 73.4384 77.8215 73.1264 78.0685 72.9184C78.3545 72.6714 78.8095 72.5544 79.6155 72.5544H81.0325V74.7124C80.5515 74.9854 79.7975 75.1804 79.2125 75.1804ZM83.6749 75.6614H84.4289V70.3054C85.0789 69.9804 85.8199 69.7984 86.4439 69.7984C86.9509 69.7984 87.3279 69.9284 87.5749 70.1754C87.8349 70.4354 87.9389 70.7864 87.9389 71.4494V75.6614H88.6929V71.2544C88.6929 70.4744 88.5239 70.0064 88.1599 69.6424C87.8089 69.2914 87.2369 69.1094 86.5609 69.1094C85.7939 69.1094 85.0139 69.3564 84.3249 69.7724L84.2729 69.2914H83.6749V75.6614ZM92.8691 75.8434C93.5191 75.8434 94.2731 75.5834 94.7541 75.2714L94.7931 75.6614H95.3911V66.3664H94.6371V69.5514C94.0651 69.2654 93.4281 69.1094 92.8691 69.1094C91.0881 69.1094 90.2691 70.4484 90.2691 72.5024C90.2691 74.7384 91.1401 75.8434 92.8691 75.8434ZM92.9081 75.1804C91.5951 75.1804 91.0491 74.3094 91.0491 72.4894C91.0491 70.7474 91.5561 69.7724 93.0121 69.7724C93.5321 69.7724 94.0651 69.9154 94.6371 70.1754V74.7514C94.1171 75.0114 93.4541 75.1804 92.9081 75.1804ZM99.7407 75.8434C101.639 75.8434 102.484 74.6214 102.484 72.4764C102.484 70.3314 101.639 69.1094 99.7407 69.1094C97.8427 69.1094 96.9977 70.3314 96.9977 72.4764C96.9977 74.6214 97.8427 75.8434 99.7407 75.8434ZM99.7407 75.1934C98.2847 75.1934 97.7777 74.2314 97.7777 72.4764C97.7777 70.7214 98.2847 69.7594 99.7407 69.7594C101.197 69.7594 101.704 70.7214 101.704 72.4764C101.704 74.2314 101.197 75.1934 99.7407 75.1934ZM106.912 75.6614H107.692V66.7694H106.912V75.6614ZM109.827 75.6614H110.581V70.3054C111.231 69.9804 111.972 69.7984 112.596 69.7984C113.103 69.7984 113.48 69.9284 113.727 70.1754C113.987 70.4354 114.091 70.7864 114.091 71.4494V75.6614H114.845V71.2544C114.845 70.4744 114.676 70.0064 114.312 69.6424C113.961 69.2914 113.389 69.1094 112.713 69.1094C111.946 69.1094 111.166 69.3564 110.477 69.7724L110.425 69.2914H109.827V75.6614ZM118.839 75.8434C119.216 75.8434 119.671 75.7784 119.983 75.6744L119.931 75.0634C119.645 75.1284 119.255 75.1804 118.956 75.1804C118.54 75.1804 118.28 75.0764 118.111 74.8944C117.903 74.6604 117.877 74.3224 117.877 73.7244V69.8894H119.567V69.2914H117.877V67.6664C117.643 67.6924 117.344 67.7574 117.123 67.8224V69.2914L115.953 69.4344V69.8894H117.123V73.9584C117.123 74.6864 117.253 75.1414 117.552 75.4404C117.825 75.7134 118.28 75.8434 118.839 75.8434ZM123.919 75.8564C124.478 75.8564 125.219 75.7524 125.648 75.6224L125.583 75.0114C125.063 75.1284 124.504 75.2064 123.971 75.2064C122.281 75.2064 121.722 74.2834 121.683 72.7884H125.843C125.96 72.7884 125.999 72.7494 125.999 72.6454V72.5284C125.999 70.2794 125.18 69.1224 123.49 69.1224C121.722 69.1224 120.89 70.4744 120.89 72.4894C120.89 74.5954 121.761 75.8564 123.919 75.8564ZM121.67 72.1774C121.683 70.7084 122.255 69.7464 123.49 69.7464C124.738 69.7464 125.258 70.7214 125.258 72.1774H121.67ZM127.639 75.6614H128.393V70.3444C128.861 70.0194 129.407 69.8114 130.057 69.8114C130.161 69.8114 130.291 69.8114 130.499 69.8244V69.1224C130.369 69.1094 130.278 69.1094 130.187 69.1094C129.589 69.1094 128.887 69.3564 128.302 69.8374L128.237 69.2914H127.639V75.6614ZM131.727 75.6614H132.481V70.3054C133.131 69.9804 133.872 69.7984 134.496 69.7984C135.003 69.7984 135.38 69.9284 135.627 70.1754C135.887 70.4354 135.991 70.7864 135.991 71.4494V75.6614H136.745V71.2544C136.745 70.4744 136.576 70.0064 136.212 69.6424C135.861 69.2914 135.289 69.1094 134.613 69.1094C133.846 69.1094 133.066 69.3564 132.377 69.7724L132.325 69.2914H131.727V75.6614ZM141.35 75.8564C141.909 75.8564 142.65 75.7524 143.079 75.6224L143.014 75.0114C142.494 75.1284 141.935 75.2064 141.402 75.2064C139.712 75.2064 139.153 74.2834 139.114 72.7884H143.274C143.391 72.7884 143.43 72.7494 143.43 72.6454V72.5284C143.43 70.2794 142.611 69.1224 140.921 69.1224C139.153 69.1224 138.321 70.4744 138.321 72.4894C138.321 74.5954 139.192 75.8564 141.35 75.8564ZM139.101 72.1774C139.114 70.7084 139.686 69.7464 140.921 69.7464C142.169 69.7464 142.689 70.7214 142.689 72.1774H139.101ZM147.175 75.8434C147.552 75.8434 148.007 75.7784 148.319 75.6744L148.267 75.0634C147.981 75.1284 147.591 75.1804 147.292 75.1804C146.876 75.1804 146.616 75.0764 146.447 74.8944C146.239 74.6604 146.213 74.3224 146.213 73.7244V69.8894H147.903V69.2914H146.213V67.6664C145.979 67.6924 145.68 67.7574 145.459 67.8224V69.2914L144.289 69.4344V69.8894H145.459V73.9584C145.459 74.6864 145.589 75.1414 145.888 75.4404C146.161 75.7134 146.616 75.8434 147.175 75.8434ZM152.323 75.6614H153.025V68.2644L155.872 73.7374H156.561L159.486 68.3034V75.6614H160.214V66.7694H159.564L156.249 72.9574L153.025 66.7694H152.323V75.6614ZM164.753 75.8434C166.651 75.8434 167.496 74.6214 167.496 72.4764C167.496 70.3314 166.651 69.1094 164.753 69.1094C162.855 69.1094 162.01 70.3314 162.01 72.4764C162.01 74.6214 162.855 75.8434 164.753 75.8434ZM164.753 75.1934C163.297 75.1934 162.79 74.2314 162.79 72.4764C162.79 70.7214 163.297 69.7594 164.753 69.7594C166.209 69.7594 166.716 70.7214 166.716 72.4764C166.716 74.2314 166.209 75.1934 164.753 75.1934ZM170.496 75.6614H171.302L173.512 69.2914H172.745L170.912 74.8684L169.04 69.2914H168.247L170.496 75.6614ZM175.103 68.0044H175.155C175.454 68.0044 175.623 67.8614 175.623 67.4974V67.4584C175.623 67.0944 175.454 66.9514 175.155 66.9514H175.103C174.804 66.9514 174.635 67.0944 174.635 67.4584V67.4974C174.635 67.8614 174.804 68.0044 175.103 68.0044ZM174.752 75.6614H175.506V69.2914H174.752V75.6614ZM178.95 75.8434C180.523 75.8434 181.381 75.1934 181.381 74.0104C181.381 71.6964 177.806 72.5154 177.806 70.8514C177.806 70.0714 178.365 69.7334 179.405 69.7334C179.86 69.7334 180.38 69.7984 180.926 69.9154L180.965 69.3304C180.536 69.2004 179.899 69.1094 179.392 69.1094C177.975 69.1094 177.091 69.6944 177.091 70.8904C177.091 73.1784 180.666 72.2814 180.666 74.0494C180.666 74.8034 180.068 75.2194 178.911 75.2194C178.391 75.2194 177.78 75.1414 177.286 75.0114L177.221 75.6094C177.663 75.7524 178.326 75.8434 178.95 75.8434ZM184.969 75.8434C185.346 75.8434 185.801 75.7784 186.113 75.6744L186.061 75.0634C185.775 75.1284 185.385 75.1804 185.086 75.1804C184.67 75.1804 184.41 75.0764 184.241 74.8944C184.033 74.6604 184.007 74.3224 184.007 73.7244V69.8894H185.697V69.2914H184.007V67.6664C183.773 67.6924 183.474 67.7574 183.253 67.8224V69.2914L182.083 69.4344V69.8894H183.253V73.9584C183.253 74.6864 183.383 75.1414 183.682 75.4404C183.955 75.7134 184.41 75.8434 184.969 75.8434ZM189.1 75.8434C189.789 75.8434 190.53 75.6094 191.154 75.2324L191.193 75.6614H191.804V71.3194C191.804 70.5394 191.622 70.0194 191.284 69.6684C190.907 69.2784 190.296 69.1094 189.451 69.1094C188.84 69.1094 188.151 69.2004 187.553 69.3564L187.605 69.9804C188.177 69.8504 188.814 69.7724 189.386 69.7724C189.971 69.7724 190.413 69.8764 190.673 70.1494C190.92 70.3964 191.05 70.7994 191.05 71.4234V71.9434H189.516C188.541 71.9434 187.904 72.1124 187.462 72.5284C187.15 72.8274 186.968 73.2954 186.968 73.8674C186.968 75.1804 187.852 75.8434 189.1 75.8434ZM189.23 75.1804C188.294 75.1804 187.722 74.7774 187.722 73.8544C187.722 73.4384 187.839 73.1264 188.086 72.9184C188.372 72.6714 188.827 72.5544 189.633 72.5544H191.05V74.7124C190.569 74.9854 189.815 75.1804 189.23 75.1804ZM193.692 75.6614H194.446V70.3444C194.914 70.0194 195.46 69.8114 196.11 69.8114C196.214 69.8114 196.344 69.8114 196.552 69.8244V69.1224C196.422 69.1094 196.331 69.1094 196.24 69.1094C195.642 69.1094 194.94 69.3564 194.355 69.8374L194.29 69.2914H193.692V75.6614Z" fill="white"/>
<path d="M63.4651 92.2976H64.3051V82.7216H63.4651V92.2976ZM66.6044 92.2976H67.4164V86.5296C68.1164 86.1796 68.9144 85.9836 69.5864 85.9836C70.1324 85.9836 70.5384 86.1236 70.8044 86.3896C71.0844 86.6696 71.1964 87.0476 71.1964 87.7616V92.2976H72.0084V87.5516C72.0084 86.7116 71.8264 86.2076 71.4344 85.8156C71.0564 85.4376 70.4404 85.2416 69.7124 85.2416C68.8864 85.2416 68.0464 85.5076 67.3044 85.9556L67.2484 85.4376H66.6044V92.2976ZM76.9959 92.4936C77.5279 92.4936 78.1439 92.4236 78.5499 92.3256L78.4799 91.6536C78.1579 91.7236 77.5839 91.7936 77.1779 91.7936C75.2599 91.7936 74.5459 90.9116 74.5459 88.9096C74.5459 86.8936 75.1759 85.9416 77.0239 85.9416C77.4579 85.9416 77.9759 86.0256 78.4519 86.1516L78.5079 85.4796C78.0179 85.3116 77.4439 85.2416 76.9119 85.2416C74.8259 85.2416 73.7059 86.4736 73.7059 88.9376C73.7059 91.3736 74.8399 92.4936 76.9959 92.4936ZM80.1675 92.2976H80.9795V82.2876H80.1675V92.2976ZM85.333 92.4936C86.159 92.4936 86.971 92.2276 87.713 91.7796L87.769 92.2976H88.413V85.4376H87.601V91.2056C86.901 91.5556 86.131 91.7516 85.459 91.7516C84.913 91.7516 84.507 91.6116 84.241 91.3456C83.961 91.0656 83.849 90.6876 83.849 89.9736V85.4376H83.037V90.1836C83.037 91.0236 83.219 91.5276 83.611 91.9196C83.989 92.2976 84.605 92.4936 85.333 92.4936ZM93.2191 95.6436C94.1571 95.6436 94.8431 95.4336 95.2631 94.9996C95.6691 94.5796 95.8231 93.9916 95.8231 93.0676V85.4376H95.0111V91.2056C94.3111 91.5556 93.5411 91.7516 92.8691 91.7516C92.3231 91.7516 91.9171 91.6116 91.6511 91.3456C91.3711 91.0656 91.2591 90.6876 91.2591 89.9736V85.4376H90.4471V90.1836C90.4471 91.0236 90.6291 91.5276 91.0211 91.9196C91.3991 92.2976 92.0151 92.4936 92.7431 92.4936C93.5271 92.4936 94.2971 92.2556 95.0111 91.8496V93.0396C95.0111 93.9076 94.8851 94.2856 94.5911 94.5516C94.2831 94.8176 93.8211 94.9296 93.0791 94.9296C92.7991 94.9296 92.3511 94.9016 92.0991 94.8596L92.1971 95.5456C92.4911 95.6156 92.9391 95.6436 93.2191 95.6436ZM100.825 92.5076C101.427 92.5076 102.225 92.3956 102.687 92.2556L102.617 91.5976C102.057 91.7236 101.455 91.8076 100.881 91.8076C99.0613 91.8076 98.4593 90.8136 98.4173 89.2036H102.897C103.023 89.2036 103.065 89.1616 103.065 89.0496V88.9236C103.065 86.5016 102.183 85.2556 100.363 85.2556C98.4593 85.2556 97.5633 86.7116 97.5633 88.8816C97.5633 91.1496 98.5013 92.5076 100.825 92.5076ZM98.4033 88.5456C98.4173 86.9636 99.0333 85.9276 100.363 85.9276C101.707 85.9276 102.267 86.9776 102.267 88.5456H98.4033Z" fill="white"/>
<path d="M150.29 86.0648C150.291 86.072 150.29 92.741 150.29 92.741C150.29 92.8306 150.23 92.9215 150.142 92.9215H149.234C148.703 92.9225 148.262 92.4705 148.261 91.9333V86.0887C148.221 84.8242 147.332 84.156 146.241 84.1579C145.15 84.1593 144.263 84.8566 144.226 86.121V92.7491C144.226 92.8387 144.163 92.9211 144.075 92.9211H143.167C142.636 92.922 142.196 92.4486 142.195 91.9119V86.0972C142.154 84.8328 141.265 84.1646 140.174 84.1665C139.084 84.1679 138.196 84.8385 138.159 86.1029V92.7577C138.159 92.8472 138.096 92.9211 138.008 92.9211H137.1C136.57 92.922 136.131 92.4872 136.13 91.95C136.13 91.95 136.13 86.0944 136.13 86.0887C136.183 83.5221 137.971 82.16 140.172 82.1571C141.379 82.1552 142.464 82.5634 143.207 83.3559C143.947 82.561 145.031 82.1505 146.238 82.1486C148.437 82.1462 150.228 83.5016 150.29 86.0648Z" fill="white"/>
<path d="M171.202 92.7935C171.238 92.8468 171.199 92.9178 171.133 92.9178L169.512 92.922C169.132 92.923 168.761 92.8768 168.432 92.4163L166.773 89.9721C166.644 89.7806 166.455 89.5539 166.188 89.5539C165.92 89.5539 165.732 89.7806 165.602 89.9721L163.943 92.4163C163.614 92.8768 163.244 92.923 162.864 92.922H161.242C161.177 92.922 161.137 92.8468 161.173 92.7935L164.372 88.078C164.465 87.9404 164.511 87.7808 164.509 87.6213C164.511 87.4617 164.465 87.3022 164.372 87.1646L161.173 82.4491C161.137 82.3958 161.177 82.3234 161.242 82.3234H162.864C163.244 82.3224 163.614 82.3658 163.943 82.8263L165.602 85.2705C165.732 85.4619 165.921 85.6886 166.188 85.6886C166.455 85.6886 166.644 85.4619 166.773 85.2705L168.432 82.8263C168.761 82.3658 169.132 82.3224 169.512 82.3234H171.133C171.199 82.3234 171.238 82.3958 171.202 82.4491L168.003 87.1646C167.91 87.3022 167.865 87.4617 167.867 87.6213C167.865 87.7808 167.91 87.9404 168.003 88.078L171.202 92.7935Z" fill="white"/>
<path d="M160.536 82.3233H159.897C159.547 82.3237 159.223 82.5095 159.048 82.8114L158.812 83.2229C157.894 82.4504 156.703 82.1499 155.718 82.1499C152.742 82.1499 150.761 84.2497 150.761 87.575C150.761 90.9269 152.776 93 155.695 93C156.812 93 157.92 92.6309 158.629 92.058C158.669 92.5609 159.091 92.9224 159.606 92.9224H160.532C160.622 92.9224 160.696 92.8834 160.696 92.7938L160.7 82.4866C160.7 82.3957 160.627 82.3233 160.536 82.3233ZM155.675 90.9802C153.983 90.9802 152.743 89.7224 152.743 87.5745C152.743 85.4266 153.983 84.1688 155.675 84.1688C157.367 84.1688 158.608 85.4266 158.608 87.5745C158.608 89.7224 157.367 90.9802 155.675 90.9802Z" fill="white"/>
<path d="M113.813 86.2657H111.941V82.3228H108.969V92.9219H111.941V88.8094H113.813V92.9219H116.696V82.3228H113.813V86.2657Z" fill="white"/>
<path d="M129.91 82.1456C126.94 82.1433 125.422 84.3269 125.047 85.208C125.05 83.8849 123.745 82.3238 122.217 82.3218H117.296V92.9215L121.884 92.9224C123.734 92.9224 125.05 91.3217 125.053 89.9496C125.475 90.8135 126.94 92.9758 129.91 92.9743C132.884 92.9734 135.304 90.5059 135.303 87.5359C135.303 84.5036 132.884 82.148 129.91 82.1456ZM121.5 90.453H120.04V88.6618H121.5C121.924 88.6618 122.259 89.0804 122.259 89.5577C122.259 90.0344 121.924 90.453 121.5 90.453ZM121.505 86.4734H120.045V84.6817H121.505C121.929 84.6817 122.264 85.1003 122.264 85.5771C122.264 86.0543 121.929 86.4734 121.505 86.4734ZM123.448 87.5383C123.782 87.4959 124.339 87.1144 124.536 86.8706C124.466 87.1725 124.461 88.047 124.542 88.3494C124.318 88.0046 123.787 87.5807 123.448 87.5383ZM129.912 90.2363C128.42 90.2363 127.21 89.0285 127.21 87.5383C127.21 86.0486 128.42 84.8403 129.912 84.8403C131.405 84.8403 132.614 86.0481 132.614 87.5383C132.614 89.0285 131.404 90.2363 129.912 90.2363Z" fill="white"/>
<path d="M129.912 85.4176C128.739 85.4176 127.788 86.3673 127.788 87.5384C127.788 88.71 128.739 89.6596 129.912 89.6596C131.085 89.6596 132.036 88.71 132.036 87.5384C132.036 86.3673 131.085 85.4176 129.912 85.4176Z" fill="white"/>
<path d="M171.474 82.421H171.62V82.842H171.739V82.421H171.89V82.3229H171.474V82.421Z" fill="white"/>
<path d="M172.363 82.3229L172.222 82.5539L172.081 82.3229H171.963V82.842H172.081V82.5405L172.216 82.7606H172.229L172.363 82.5405V82.842H172.482V82.3229H172.363Z" fill="white"/>
<path d="M128.542 0.499268C126.358 0.499268 124.432 1.58555 123.256 3.24297C124.007 4.29565 124.443 5.58351 124.443 6.98335C124.443 8.372 123.995 9.65986 123.256 10.7237C124.432 12.3812 126.358 13.4674 128.542 13.4674C132.115 13.4674 135.015 10.567 135.015 6.99455C135.026 3.39975 132.126 0.499268 128.542 0.499268ZM125.933 5.38193C125.933 4.71 126.482 4.16126 127.154 4.16126C127.825 4.16126 128.374 4.71 128.374 5.38193C128.374 6.05386 127.825 6.60259 127.154 6.60259C126.482 6.60259 125.933 6.05386 125.933 5.38193ZM127.344 9.01033C127.266 9.08872 127.165 9.13352 127.053 9.13352C126.952 9.13352 126.84 9.08872 126.762 9.01033C126.605 8.85355 126.605 8.59597 126.762 8.43919L130.2 5.00117C130.356 4.84439 130.614 4.84439 130.771 5.00117C130.927 5.15795 130.927 5.41552 130.771 5.57231L127.344 9.01033ZM130.401 9.83904C129.729 9.83904 129.18 9.2903 129.18 8.61837C129.18 7.94645 129.729 7.39771 130.401 7.39771C131.073 7.39771 131.622 7.94645 131.622 8.61837C131.611 9.3015 131.073 9.83904 130.401 9.83904Z" fill="white"/>
<path d="M104.532 5.5723C104.353 5.6059 104.23 5.77388 104.263 5.95306C104.297 6.13224 104.465 6.25543 104.644 6.22183C104.823 6.18824 104.946 6.02025 104.913 5.84107C104.879 5.66189 104.711 5.53871 104.532 5.5723Z" fill="white"/>
<path d="M111.475 3.2542C110.299 1.59678 108.373 0.510498 106.201 0.510498C102.628 0.510498 99.7277 3.41098 99.7277 6.98338C99.7277 10.5558 102.628 13.4563 106.201 13.4563C108.384 13.4563 110.311 12.37 111.475 10.7126C110.736 9.65989 110.288 8.37203 110.288 6.98338C110.288 5.58354 110.736 4.30688 111.475 3.2542ZM108.149 10.0406L104.801 10.5782C104.263 10.6678 103.77 10.2982 103.681 9.77188L102.964 5.33716L104.073 5.15799L104.028 4.91161C103.894 4.0717 104.465 3.27659 105.316 3.13101C106.156 2.99662 106.951 3.56776 107.085 4.41887L107.13 4.66524L108.239 4.48606L108.956 8.92077C109.045 9.45831 108.676 9.96225 108.149 10.0406Z" fill="white"/>
<path d="M105.428 3.83653C104.969 3.91492 104.666 4.34048 104.734 4.78843L104.767 5.0348L106.413 4.76603L106.369 4.51966C106.313 4.08291 105.887 3.76934 105.428 3.83653Z" fill="white"/>
<path d="M106.828 5.20267C106.649 5.23627 106.525 5.40425 106.559 5.58343C106.593 5.76261 106.761 5.8858 106.94 5.8522C107.119 5.8186 107.242 5.66182 107.209 5.47144C107.175 5.29226 107.007 5.16908 106.828 5.20267Z" fill="white"/>
<path d="M122.652 3.24297C121.476 1.58555 119.55 0.499268 117.366 0.499268C115.182 0.499268 113.245 1.58555 112.08 3.24297C111.341 4.29565 110.893 5.58351 110.893 6.97215C110.893 8.3608 111.33 9.64866 112.08 10.7013C113.256 12.3588 115.182 13.445 117.366 13.445C119.55 13.445 121.476 12.3588 122.652 10.7013C123.402 9.64866 123.839 8.3608 123.839 6.96095C123.85 5.58351 123.402 4.29565 122.652 3.24297ZM113.939 6.07625C113.939 5.50511 114.253 5.04597 114.645 5.04597C115.036 5.04597 115.35 5.50511 115.35 6.07625C115.35 6.64739 115.036 7.10654 114.645 7.10654C114.253 7.10654 113.939 6.64739 113.939 6.07625ZM119.65 8.48399C119.46 9.12232 118.822 10.7237 117.254 10.7349C115.686 10.7461 115.048 9.15591 114.846 8.52878C114.813 8.40559 114.88 8.27121 114.969 8.27121L119.527 8.23762C119.628 8.22642 119.695 8.3608 119.65 8.48399ZM119.818 7.10654C119.426 7.10654 119.113 6.64739 119.113 6.07625C119.113 5.50511 119.426 5.04597 119.818 5.04597C120.21 5.04597 120.524 5.50511 120.524 6.07625C120.524 6.64739 120.21 7.10654 119.818 7.10654Z" fill="white"/>
<path d="M89.6936 25.7077C88.9433 26.4468 87.9802 26.7828 86.9387 26.7828C84.2398 26.7828 83.0975 24.9238 83.0975 23.0424C83.0864 21.1498 84.3182 19.2124 86.9387 19.2124C87.9242 19.2124 88.8537 19.582 89.604 20.3211L88.6969 21.2058C88.2154 20.7354 87.5771 20.5227 86.9499 20.5227C85.2029 20.5227 84.4414 21.8329 84.4526 23.0424C84.4638 24.2406 85.1581 25.4949 86.9499 25.4949C87.5771 25.4949 88.2938 25.2373 88.7753 24.7558L89.6936 25.7077Z" fill="white"/>
<path d="M95.517 21.5082L92.3926 28.7538H91.0039L91.9558 26.5364L89.9177 21.5082H91.3959L92.1686 23.7143L92.6502 25.159L93.1877 23.7479L94.1172 21.5082H95.517Z" fill="white"/>
<path d="M97.4431 19.3691V22.2024C97.7455 21.6761 98.5854 21.3849 99.1229 21.3849C100.612 21.3849 101.721 22.292 101.721 24.0614C101.721 25.7412 100.59 26.7379 99.0894 26.7379C98.4622 26.7379 97.8351 26.5252 97.4431 25.9204L97.3647 26.6259H96.1777V19.3803H97.4431V19.3691ZM97.5327 24.0614C97.5327 24.9797 98.2158 25.5621 99.011 25.5621C99.8173 25.5621 100.467 24.9461 100.467 24.0614C100.467 23.1431 99.8285 22.572 99.011 22.572C98.2158 22.5608 97.5327 23.1655 97.5327 24.0614Z" fill="white"/>
<path d="M103.737 24.5095C103.815 25.1366 104.364 25.5957 105.26 25.5957C105.73 25.5957 106.335 25.4166 106.626 25.1142L107.432 25.9093C106.895 26.4692 106.01 26.738 105.238 26.738C103.479 26.738 102.427 25.6517 102.427 24.0167C102.427 22.4601 103.491 21.3402 105.148 21.3402C106.861 21.3402 107.925 22.3929 107.735 24.4983H103.737V24.5095ZM106.514 23.468C106.436 22.8072 105.909 22.4713 105.193 22.4713C104.51 22.4713 103.95 22.8072 103.759 23.468H106.514Z" fill="white"/>
<path d="M109.874 21.5081L109.963 22.1016C110.355 21.4745 110.882 21.3737 111.408 21.3737C111.934 21.3737 112.449 21.5865 112.729 21.8665L112.158 22.9639C111.901 22.7512 111.666 22.628 111.24 22.628C110.579 22.628 109.963 22.9751 109.963 23.927V26.6259H108.698V21.5193H109.874V21.5081Z" fill="white"/>
<path d="M119.538 22.908C119.583 24.7558 118.396 26.6148 115.854 26.6148H113.401V19.358H115.854C118.318 19.358 119.494 21.1274 119.538 22.908ZM113.961 19.8844V26.0773H115.854C118.015 26.0773 119.001 24.4647 118.978 22.908C118.945 21.3962 117.948 19.8956 115.854 19.8956H113.961V19.8844Z" fill="white"/>
<path d="M125.742 21.4969V26.6147H125.239V25.5285C124.746 26.3236 123.973 26.7043 123.144 26.7043C121.711 26.7043 120.546 25.6293 120.546 24.0614C120.546 22.4936 121.722 21.4409 123.144 21.4409C123.973 21.4409 124.813 21.8217 125.239 22.628V21.5081H125.742V21.4969ZM121.039 24.0614C121.039 25.3493 121.969 26.2116 123.133 26.2116C125.989 26.2116 125.989 21.9337 123.133 21.9337C121.98 21.9225 121.039 22.7736 121.039 24.0614Z" fill="white"/>
<path d="M131.275 21.4969L128.15 28.7537H127.613L128.565 26.5587L126.504 21.4969H127.053L128.251 24.5206L128.845 26.01L129.438 24.5094L130.726 21.4969H131.275Z" fill="white"/>
<path d="M135.777 22.4264C135.261 21.9672 134.746 21.8888 134.175 21.8888C133.38 21.8776 132.607 22.18 132.63 22.8295C132.652 23.5126 133.548 23.647 134.186 23.759C135.105 23.9158 136.359 24.0726 136.303 25.2597C136.269 26.3907 135.105 26.6931 134.198 26.6931C133.29 26.6931 132.406 26.3459 131.958 25.6628L132.327 25.3268C132.753 25.9428 133.526 26.2004 134.209 26.2004C134.836 26.2004 135.777 26.0324 135.81 25.2261C135.833 24.4869 134.981 24.3414 134.142 24.207C133.145 24.039 132.159 23.8598 132.148 22.8295C132.137 21.8216 133.145 21.3849 134.175 21.3961C134.925 21.3961 135.575 21.5977 136.079 22.0792L135.777 22.4264Z" fill="white"/>
<path d="M138.554 26.5252C138.554 27.074 137.725 27.074 137.725 26.5252C137.725 25.9877 138.554 25.9877 138.554 26.5252Z" fill="white"/>
<path d="M140.245 29V21.676H140.749V22.8967C141.152 22.1128 141.981 21.5977 142.989 21.5977C144.388 21.6537 145.497 22.5943 145.497 24.2518C145.497 25.9876 144.321 26.9283 142.877 26.9283C142.003 26.9283 141.186 26.5027 140.738 25.6404V28.9888H140.245V29ZM144.993 24.263C144.993 22.8071 144.052 22.1016 142.877 22.1016C141.678 22.1016 140.782 23.0087 140.782 24.2742C140.782 25.5396 141.69 26.4467 142.877 26.4467C144.041 26.4467 144.993 25.7076 144.993 24.263Z" fill="white"/>
<path d="M146.46 24.263C146.46 22.7175 147.636 21.5977 149.092 21.5977C150.548 21.5977 151.847 22.4824 151.645 24.5093H146.986C147.087 25.7188 148.028 26.4243 149.092 26.4243C149.775 26.4243 150.57 26.1556 150.951 25.6404L151.32 25.9316C150.816 26.5923 149.921 26.9283 149.092 26.9283C147.636 26.9171 146.46 25.898 146.46 24.263ZM151.186 24.0502C151.175 22.7735 150.335 22.0568 149.092 22.0568C148.028 22.0568 147.098 22.7735 146.986 24.0502H151.186Z" fill="white"/>
</svg>
