<svg width="415" height="74" viewBox="0 0 415 74" fill="none" xmlns="http://www.w3.org/2000/svg">
<path d="M286.856 74L149.856 74L149.856 -1.46219e-05L286.856 0L286.856 74Z" fill="#5CB615"/>
<path d="M150 74L7 74C3.134 74 2.24422e-07 70.866 5.01261e-07 67L4.79778e-06 6.99998C5.07462e-06 3.13399 3.13401 -1.56749e-05 7.00001 -1.52623e-05L150 0L150 74Z" fill="#BDE4A4"/>
<path d="M286.856 0H407.856C411.722 0 414.856 3.13401 414.856 7V68C414.856 71.3137 412.17 74 408.856 74H286.856V0Z" fill="#3C7521"/>
<path d="M337.459 26.7434H339.643V23.4394H341.183C342.443 23.4394 343.311 23.1454 343.871 22.5154C344.347 21.9834 344.585 21.2134 344.585 20.1914C344.585 19.1694 344.333 18.4274 343.815 17.9514C343.199 17.3774 342.247 17.1674 340.749 17.1674H337.459V26.7434ZM339.643 21.8014V18.7494H340.665C341.337 18.7494 341.743 18.8474 342.009 19.0854C342.261 19.3234 342.373 19.7014 342.373 20.2194C342.373 20.7794 342.247 21.1854 341.995 21.4374C341.715 21.7034 341.421 21.8014 340.721 21.8014H339.643ZM346.113 26.7434H348.115V16.7334H346.113V26.7434ZM351.959 26.9394C352.687 26.9394 353.429 26.7014 354.017 26.3234L354.185 26.7434H355.767V22.2914C355.767 21.4654 355.585 20.8774 355.235 20.4714C354.759 19.9114 353.821 19.6874 352.771 19.6874C351.945 19.6874 351.035 19.7994 350.335 19.9394L350.433 21.4094C350.909 21.3114 351.707 21.2274 352.351 21.2274C352.897 21.2274 353.275 21.2974 353.513 21.5074C353.681 21.6614 353.765 21.8994 353.765 22.2774V22.5014H352.673C351.399 22.5014 350.643 22.6694 350.153 23.1314C349.761 23.5094 349.551 24.0694 349.551 24.6854C349.551 26.0154 350.391 26.9394 351.959 26.9394ZM352.533 25.4134C351.805 25.4134 351.553 25.1054 351.553 24.6014C351.553 24.3494 351.623 24.1534 351.749 24.0274C351.931 23.8454 352.225 23.7894 352.701 23.7894H353.765V25.2034C353.443 25.3014 352.911 25.4134 352.533 25.4134ZM357.548 26.7434H359.55V21.5774C359.872 21.4514 360.474 21.3534 360.852 21.3534C361.258 21.3534 361.538 21.4094 361.72 21.5774C361.86 21.7174 361.93 21.9134 361.93 22.2634V26.7434H363.932V22.0254C363.932 21.2274 363.764 20.6254 363.344 20.2194C362.966 19.8414 362.294 19.6874 361.692 19.6874C360.964 19.6874 360.082 19.8834 359.326 20.3734L359.284 19.8834H357.548V26.7434Z" fill="#BDE4A4"/>
<path d="M166.423 46.4293H176.823V44.7133H168.789L173.053 39.6953C175.731 36.5493 176.511 35.1193 176.511 32.9873C176.511 31.5053 176.017 30.3613 175.159 29.6073C174.145 28.6973 172.585 28.3073 170.739 28.3073C169.361 28.3073 167.931 28.4893 166.683 28.8013V30.4913C167.931 30.2313 169.361 30.1013 170.427 30.1013C172.845 30.1013 174.249 30.8813 174.249 33.0913C174.249 34.7293 173.495 36.1073 171.441 38.6293L167.359 43.6213C166.501 44.6613 166.319 45.1293 166.319 45.8313C166.319 46.0133 166.371 46.2733 166.423 46.4293ZM186.072 46.7933C190.492 46.7933 192.182 43.3613 192.182 37.5633C192.182 31.7653 190.492 28.3073 186.072 28.3073C181.652 28.3073 179.962 31.7653 179.962 37.5633C179.962 43.3613 181.652 46.7933 186.072 46.7933ZM186.072 44.9473C183.186 44.9473 182.224 42.5293 182.224 37.5633C182.224 32.5973 183.186 30.1533 186.072 30.1533C188.958 30.1533 189.92 32.5973 189.92 37.5633C189.92 42.5293 188.958 44.9473 186.072 44.9473ZM200.418 46.7933C204.838 46.7933 206.528 43.3613 206.528 37.5633C206.528 31.7653 204.838 28.3073 200.418 28.3073C195.998 28.3073 194.308 31.7653 194.308 37.5633C194.308 43.3613 195.998 46.7933 200.418 46.7933ZM200.418 44.9473C197.532 44.9473 196.57 42.5293 196.57 37.5633C196.57 32.5973 197.532 30.1533 200.418 30.1533C203.304 30.1533 204.266 32.5973 204.266 37.5633C204.266 42.5293 203.304 44.9473 200.418 44.9473ZM215.053 46.4293H217.107V33.0913L222.229 42.6593H224.153L229.327 33.1953V46.4293H231.511V28.6453H229.535L223.269 40.3453L217.081 28.6453H215.053V46.4293ZM241.282 46.7933C244.454 46.7933 246.248 44.6353 246.248 40.0073C246.248 35.4313 244.402 33.3253 241.308 33.3253C240.06 33.3253 238.682 33.7673 237.642 34.3393V27.8393H235.484V46.4293H237.226L237.33 45.5713C238.344 46.2733 239.904 46.7933 241.282 46.7933ZM240.788 44.9993C239.748 44.9993 238.5 44.6093 237.642 44.0893V35.8993C238.5 35.4833 239.748 35.1713 240.736 35.1713C242.998 35.1713 243.986 36.5753 243.986 40.0073C243.986 43.6993 242.946 44.9993 240.788 44.9993ZM249.22 52.2793H251.378V45.8313C252.314 46.4293 253.692 46.7933 255.018 46.7933C258.06 46.7933 259.984 44.7913 259.984 40.0073C259.984 35.9513 258.398 33.3253 255.096 33.3253C253.926 33.3253 252.444 33.7413 251.118 34.6253L251.014 33.6893H249.22V52.2793ZM254.472 44.9993C253.38 44.9993 252.132 44.6613 251.378 44.2193V36.0293C252.366 35.5093 253.64 35.1713 254.628 35.1713C256.76 35.1713 257.722 36.7313 257.722 39.9813C257.722 43.6213 256.786 44.9993 254.472 44.9993ZM266.311 46.7933C269.379 46.7933 271.459 45.5973 271.459 42.8933C271.459 38.3433 264.361 39.6953 264.361 36.8353C264.361 35.6393 265.323 35.0413 267.143 35.0413C268.183 35.0413 269.353 35.1973 270.497 35.4573L270.679 33.8713C269.665 33.5593 268.235 33.3253 266.961 33.3253C264.257 33.3253 262.333 34.5213 262.333 36.9913C262.333 41.6713 269.431 40.1893 269.431 43.0493C269.431 44.3493 268.313 45.0513 266.233 45.0513C265.115 45.0513 263.711 44.8693 262.671 44.5833L262.567 46.2473C263.529 46.5593 265.089 46.7933 266.311 46.7933Z" fill="white"/>
<path d="M306.826 52.8006C309.29 52.8006 311.11 52.2126 312.258 51.0366C313.266 50.0286 313.798 48.6006 313.798 46.8086C313.798 45.0726 313.294 43.7286 312.342 42.7486C311.194 41.5726 309.514 41.0686 306.63 41.0686H305.174L305.426 35.1046H312.622V33.2566H303.466L303.102 41.3206C303.074 41.9366 303.074 42.1326 303.074 42.3566C303.074 42.5526 303.102 42.8046 303.158 42.9446H306.294C308.394 42.9446 309.654 43.2246 310.41 43.9806C311.054 44.6246 311.362 45.6606 311.362 46.8646C311.362 48.2366 310.97 49.2166 310.214 49.8606C309.402 50.5326 308.282 50.8406 306.378 50.8406C305.51 50.8406 303.83 50.7006 302.822 50.5326V52.3526C303.83 52.6046 305.51 52.8006 306.826 52.8006ZM323.564 52.8006C328.324 52.8006 330.144 49.1046 330.144 42.8606C330.144 36.6166 328.324 32.8926 323.564 32.8926C318.804 32.8926 316.984 36.6166 316.984 42.8606C316.984 49.1046 318.804 52.8006 323.564 52.8006ZM323.564 50.8126C320.456 50.8126 319.42 48.2086 319.42 42.8606C319.42 37.5126 320.456 34.8806 323.564 34.8806C326.672 34.8806 327.708 37.5126 327.708 42.8606C327.708 48.2086 326.672 50.8126 323.564 50.8126ZM339.324 52.4086H341.536V38.0446L347.052 48.3486H349.124L354.696 38.1566V52.4086H357.048V33.2566H354.92L348.172 45.8566L341.508 33.2566H339.324V52.4086ZM367.571 52.8006C370.987 52.8006 372.919 50.4766 372.919 45.4926C372.919 40.5646 370.931 38.2966 367.599 38.2966C366.255 38.2966 364.771 38.7726 363.651 39.3886V32.3886H361.327V52.4086H363.203L363.315 51.4846C364.407 52.2406 366.087 52.8006 367.571 52.8006ZM367.039 50.8686C365.919 50.8686 364.575 50.4486 363.651 49.8886V41.0686C364.575 40.6206 365.919 40.2846 366.983 40.2846C369.419 40.2846 370.483 41.7966 370.483 45.4926C370.483 49.4686 369.363 50.8686 367.039 50.8686ZM376.12 58.7086H378.444V51.7646C379.452 52.4086 380.936 52.8006 382.364 52.8006C385.64 52.8006 387.712 50.6446 387.712 45.4926C387.712 41.1246 386.004 38.2966 382.448 38.2966C381.188 38.2966 379.592 38.7446 378.164 39.6966L378.052 38.6886H376.12V58.7086ZM381.776 50.8686C380.6 50.8686 379.256 50.5046 378.444 50.0286V41.2086C379.508 40.6486 380.88 40.2846 381.944 40.2846C384.24 40.2846 385.276 41.9646 385.276 45.4646C385.276 49.3846 384.268 50.8686 381.776 50.8686ZM394.525 52.8006C397.829 52.8006 400.069 51.5126 400.069 48.6006C400.069 43.7006 392.425 45.1566 392.425 42.0766C392.425 40.7886 393.461 40.1446 395.421 40.1446C396.541 40.1446 397.801 40.3126 399.033 40.5926L399.229 38.8846C398.137 38.5486 396.597 38.2966 395.225 38.2966C392.313 38.2966 390.241 39.5846 390.241 42.2446C390.241 47.2846 397.885 45.6886 397.885 48.7686C397.885 50.1686 396.681 50.9246 394.441 50.9246C393.237 50.9246 391.725 50.7286 390.605 50.4206L390.493 52.2126C391.529 52.5486 393.209 52.8006 394.525 52.8006Z" fill="#BDE4A4"/>
<path d="M192 63.6545H193.196L194.626 61.2495L196.225 63.6545H197.447L195.315 60.4695L197.421 57.2845H196.238L194.808 59.7155L193.183 57.2845H191.974L194.119 60.5085L192 63.6545ZM203.246 63.8365C204.338 63.8365 205.118 63.6025 205.677 63.1475C206.21 62.7055 206.509 62.0555 206.509 61.2105C206.509 60.0925 205.885 59.3515 204.91 59.0135C205.69 58.7145 206.249 58.0515 206.249 56.9985C206.249 56.2705 206.015 55.6985 205.599 55.2955C205.118 54.8275 204.351 54.5935 203.311 54.5935C202.752 54.5935 202.05 54.6585 201.478 54.7885V55.6335C202.024 55.5425 202.609 55.4905 203.103 55.4905C203.883 55.4905 204.377 55.6075 204.715 55.8935C205.001 56.1405 205.157 56.5435 205.157 57.0505C205.157 58.2205 204.403 58.7145 203.116 58.7145H202.895V59.5205H203.129C203.974 59.5205 204.559 59.6505 204.936 60.0015C205.222 60.2745 205.378 60.7165 205.378 61.1975C205.378 61.7825 205.196 62.2375 204.806 62.5235C204.442 62.7965 203.935 62.9265 203.103 62.9265C202.531 62.9265 201.829 62.8615 201.335 62.7575V63.6155C201.855 63.7455 202.57 63.8365 203.246 63.8365ZM211.096 63.6545H212.175V58.4675C212.695 58.2205 213.293 58.0515 213.839 58.0515C214.281 58.0515 214.619 58.1555 214.84 58.3765C215.061 58.5975 215.152 58.9095 215.152 59.4555V63.6545H216.231V59.3255C216.231 59.0005 216.192 58.7145 216.14 58.4805C216.699 58.2075 217.336 58.0515 217.856 58.0515C218.298 58.0515 218.636 58.1555 218.857 58.3765C219.078 58.5975 219.169 58.9095 219.169 59.4555V63.6545H220.248V59.3255C220.248 58.5325 220.066 58.0125 219.715 57.6615C219.351 57.2845 218.805 57.1025 218.116 57.1025C217.401 57.1025 216.621 57.3365 215.828 57.8175C215.464 57.3365 214.905 57.1025 214.099 57.1025C213.397 57.1025 212.708 57.3365 212.045 57.7525L211.993 57.2845H211.096V63.6545ZM224.808 63.8365C225.393 63.8365 226.147 63.7455 226.693 63.5895L226.589 62.7835C226.095 62.8875 225.471 62.9525 225.016 62.9525C224.21 62.9525 223.729 62.7835 223.391 62.4715C223.014 62.1205 222.832 61.5485 222.832 60.8465H226.94C227.044 60.8465 227.096 60.8075 227.096 60.7035V60.4565C227.096 58.3635 226.238 57.1025 224.457 57.1025C222.832 57.1025 221.701 58.2075 221.701 60.4825C221.701 61.6265 221.961 62.4975 222.533 63.0695C223.053 63.5895 223.82 63.8365 224.808 63.8365ZM222.832 60.0535C222.845 58.7665 223.378 57.9735 224.457 57.9735C225.523 57.9735 225.991 58.8315 226.03 60.0535H222.832ZM230.292 63.8365C231.826 63.8365 232.866 63.2385 232.866 61.8865C232.866 59.6115 229.317 60.2875 229.317 58.8575C229.317 58.2595 229.798 57.9605 230.708 57.9605C231.228 57.9605 231.813 58.0385 232.385 58.1685L232.476 57.3755C231.969 57.2195 231.254 57.1025 230.617 57.1025C229.265 57.1025 228.303 57.7005 228.303 58.9355C228.303 61.2755 231.852 60.5345 231.852 61.9645C231.852 62.6145 231.293 62.9655 230.253 62.9655C229.694 62.9655 228.992 62.8745 228.472 62.7315L228.42 63.5635C228.901 63.7195 229.681 63.8365 230.292 63.8365ZM237.161 63.8365C237.746 63.8365 238.5 63.7455 239.046 63.5895L238.942 62.7835C238.448 62.8875 237.824 62.9525 237.369 62.9525C236.563 62.9525 236.082 62.7835 235.744 62.4715C235.367 62.1205 235.185 61.5485 235.185 60.8465H239.293C239.397 60.8465 239.449 60.8075 239.449 60.7035V60.4565C239.449 58.3635 238.591 57.1025 236.81 57.1025C235.185 57.1025 234.054 58.2075 234.054 60.4825C234.054 61.6265 234.314 62.4975 234.886 63.0695C235.406 63.5895 236.173 63.8365 237.161 63.8365ZM235.185 60.0535C235.198 58.7665 235.731 57.9735 236.81 57.9735C237.876 57.9735 238.344 58.8315 238.383 60.0535H235.185ZM242.645 63.8365C244.179 63.8365 245.219 63.2385 245.219 61.8865C245.219 59.6115 241.67 60.2875 241.67 58.8575C241.67 58.2595 242.151 57.9605 243.061 57.9605C243.581 57.9605 244.166 58.0385 244.738 58.1685L244.829 57.3755C244.322 57.2195 243.607 57.1025 242.97 57.1025C241.618 57.1025 240.656 57.7005 240.656 58.9355C240.656 61.2755 244.205 60.5345 244.205 61.9645C244.205 62.6145 243.646 62.9655 242.606 62.9655C242.047 62.9655 241.345 62.8745 240.825 62.7315L240.773 63.5635C241.254 63.7195 242.034 63.8365 242.645 63.8365Z" fill="white"/>
<path d="M211.457 20.5982H214.616C215.994 20.5982 216.865 20.3772 217.437 19.8702C217.918 19.4412 218.178 18.8172 218.178 17.9592C218.178 16.7892 217.398 15.9832 216.293 15.8272C217.112 15.4112 217.541 14.8002 217.541 13.8902C217.541 13.2402 217.32 12.7202 216.917 12.3692C216.397 11.9142 215.617 11.7062 214.356 11.7062H211.457V20.5982ZM213.485 15.2422V13.1752H214.226C214.772 13.1752 215.084 13.2402 215.279 13.4352C215.448 13.6042 215.526 13.8512 215.526 14.1762C215.526 14.5402 215.435 14.8002 215.266 14.9692C215.045 15.1772 214.733 15.2422 214.174 15.2422H213.485ZM213.485 19.1292V16.7112H214.317C215.045 16.7112 215.461 16.7762 215.734 17.0102C215.968 17.2052 216.072 17.5172 216.072 17.9982C216.072 18.3622 215.968 18.6222 215.786 18.8042C215.539 19.0512 215.071 19.1292 214.317 19.1292H213.485ZM222.388 20.7802C224.598 20.7802 225.625 19.4542 225.625 17.4132C225.625 15.3722 224.598 14.0462 222.388 14.0462C220.178 14.0462 219.151 15.3722 219.151 17.4132C219.151 19.4542 220.178 20.7802 222.388 20.7802ZM222.388 19.3632C221.452 19.3632 221.088 18.7262 221.088 17.4132C221.088 16.1002 221.452 15.4632 222.388 15.4632C223.324 15.4632 223.688 16.1002 223.688 17.4132C223.688 18.7262 223.324 19.3632 222.388 19.3632ZM226.865 20.5982H228.724V15.8012C229.023 15.6842 229.582 15.5932 229.933 15.5932C230.31 15.5932 230.57 15.6452 230.739 15.8012C230.869 15.9312 230.934 16.1132 230.934 16.4382V20.5982H232.793V16.2172C232.793 15.4762 232.637 14.9172 232.247 14.5402C231.896 14.1892 231.272 14.0462 230.713 14.0462C230.037 14.0462 229.218 14.2282 228.516 14.6832L228.477 14.2282H226.865V20.5982ZM237.229 20.7802C239.439 20.7802 240.466 19.4542 240.466 17.4132C240.466 15.3722 239.439 14.0462 237.229 14.0462C235.019 14.0462 233.992 15.3722 233.992 17.4132C233.992 19.4542 235.019 20.7802 237.229 20.7802ZM237.229 19.3632C236.293 19.3632 235.929 18.7262 235.929 17.4132C235.929 16.1002 236.293 15.4632 237.229 15.4632C238.165 15.4632 238.529 16.1002 238.529 17.4132C238.529 18.7262 238.165 19.3632 237.229 19.3632Z" fill="white"/>
<path d="M200.863 20.2593H203.213V16.7593H206.713V14.4093H203.213V10.9093H200.863V14.4093H197.363V16.7593H200.863V20.2593Z" fill="white"/>
<path d="M36.3727 18.8995C38.6717 18.8995 39.7057 17.5355 39.7057 14.9945C39.7057 12.4535 38.6717 11.0785 36.3727 11.0785C34.0737 11.0785 33.0397 12.4535 33.0397 14.9945C33.0397 17.5355 34.0737 18.8995 36.3727 18.8995ZM36.3727 17.5575C35.2617 17.5575 34.8217 16.8095 34.8217 14.9945C34.8217 13.1795 35.2617 12.4205 36.3727 12.4205C37.4837 12.4205 37.9237 13.1795 37.9237 14.9945C37.9237 16.8095 37.4837 17.5575 36.3727 17.5575ZM41.2819 18.7455H42.8549V14.3785H44.1309V13.3555H42.8549V12.7065C42.8549 12.3215 42.9099 12.1675 43.0089 12.0685C43.1519 11.9255 43.3719 11.8705 43.7459 11.8705C43.9769 11.8705 44.2629 11.9035 44.4829 11.9365V10.8145C44.1089 10.7375 43.7459 10.6935 43.3389 10.6935C42.5909 10.6935 42.0299 10.8805 41.7329 11.1885C41.4139 11.5185 41.2819 11.9585 41.2819 12.6185V13.3665L40.3579 13.5315V14.3785H41.2819V18.7455ZM47.501 18.8995C48.172 18.8995 48.799 18.8115 49.316 18.7125L49.195 17.5685C48.788 17.6455 48.238 17.7005 47.853 17.7005C46.797 17.7005 46.236 17.4475 46.192 16.5345H49.503C49.591 16.5345 49.635 16.5015 49.635 16.4135V15.9185C49.635 14.0485 48.777 13.2015 47.16 13.2015C45.51 13.2015 44.542 14.1695 44.542 16.0615C44.542 16.9195 44.729 17.6895 45.268 18.2065C45.73 18.6465 46.489 18.8995 47.501 18.8995ZM46.192 15.5115C46.225 14.8185 46.511 14.3895 47.149 14.3895C47.776 14.3895 48.095 14.8295 48.095 15.5115H46.192ZM50.6286 18.7455H52.2016V14.6975C52.5426 14.6205 52.8616 14.5655 53.2796 14.5655C53.5326 14.5655 53.7966 14.5875 53.9726 14.6095V13.2345C53.9066 13.2235 53.7856 13.2125 53.6976 13.2125C53.1806 13.2125 52.4656 13.4105 52.0476 13.7955L51.9926 13.3555H50.6286V18.7455ZM57.1663 18.8995C57.6393 18.8995 58.1893 18.8445 58.5413 18.7675L58.4863 17.6565C58.2993 17.6785 57.9473 17.7225 57.7273 17.7225C57.0893 17.7225 56.9683 17.5025 56.9683 16.8975V14.3785H58.3653V13.3555H56.9683V11.9255C56.4623 11.9255 55.8683 12.0135 55.3953 12.1565V13.3555L54.4823 13.5205V14.3785H55.3953V17.1175C55.3953 18.3055 55.8243 18.8995 57.1663 18.8995ZM61.0314 18.8995C61.6034 18.8995 62.1864 18.7125 62.6484 18.4155L62.7804 18.7455H64.0234V15.2475C64.0234 14.5985 63.8804 14.1365 63.6054 13.8175C63.2314 13.3775 62.4944 13.2015 61.6694 13.2015C61.0204 13.2015 60.3054 13.2895 59.7554 13.3995L59.8324 14.5545C60.2064 14.4775 60.8334 14.4115 61.3394 14.4115C61.7684 14.4115 62.0654 14.4665 62.2524 14.6315C62.3844 14.7525 62.4504 14.9395 62.4504 15.2365V15.4125H61.5924C60.5914 15.4125 59.9974 15.5445 59.6124 15.9075C59.3044 16.2045 59.1394 16.6445 59.1394 17.1285C59.1394 18.1735 59.7994 18.8995 61.0314 18.8995ZM61.4824 17.7005C60.9104 17.7005 60.7124 17.4585 60.7124 17.0625C60.7124 16.8645 60.7674 16.7105 60.8664 16.6115C61.0094 16.4685 61.2404 16.4245 61.6144 16.4245H62.4504V17.5355C62.1974 17.6125 61.7794 17.7005 61.4824 17.7005ZM67.2668 18.7455H69.0158L69.9068 17.1285L71.0288 18.7455H72.8658L70.9298 16.0175L72.7888 13.3555H71.0728L70.1928 14.9835L69.0268 13.3555H67.2338L69.1808 16.0945L67.2668 18.7455ZM78.232 18.8995C79.376 18.8995 80.179 18.6355 80.674 18.1185C81.026 17.7555 81.202 17.2495 81.202 16.6665C81.202 15.6875 80.729 15.0935 79.937 14.8075C80.597 14.4775 80.938 13.9275 80.938 13.1465C80.938 12.5195 80.74 12.0795 80.421 11.7605C79.959 11.2985 79.156 11.0785 78.21 11.0785C77.627 11.0785 76.989 11.1335 76.483 11.2435V12.4095C76.923 12.3435 77.473 12.2995 77.957 12.2995C78.551 12.2995 78.925 12.3875 79.145 12.5855C79.321 12.7395 79.398 12.9815 79.398 13.2675C79.398 13.6305 79.277 13.8835 79.101 14.0375C78.837 14.2685 78.485 14.3565 77.792 14.3565H77.528V15.4565H77.737C78.507 15.4565 78.925 15.5225 79.2 15.7205C79.431 15.8855 79.574 16.1495 79.574 16.5455C79.574 16.9525 79.431 17.2385 79.167 17.4145C78.903 17.5905 78.54 17.6675 77.924 17.6675C77.374 17.6675 76.857 17.6125 76.417 17.5355V18.7235C76.923 18.8335 77.583 18.8995 78.232 18.8995ZM85.1754 18.7455H86.7484V14.6865C87.0124 14.5875 87.4084 14.5105 87.6834 14.5105C87.9694 14.5105 88.2004 14.5545 88.3434 14.6865C88.4534 14.7965 88.5084 14.9505 88.5084 15.2255V18.7455H90.0814V15.0385C90.0814 14.9065 90.0704 14.7745 90.0594 14.6535C90.3234 14.5765 90.7084 14.5105 90.9724 14.5105C91.2914 14.5105 91.5114 14.5545 91.6544 14.6865C91.7644 14.7965 91.8194 14.9505 91.8194 15.2255V18.7455H93.3924V15.0385C93.3924 14.4115 93.2604 13.9385 92.9304 13.6195C92.6334 13.3225 92.1054 13.2015 91.6324 13.2015C91.0494 13.2015 90.3564 13.3665 89.7514 13.7735C89.4764 13.3885 88.9814 13.2015 88.3214 13.2015C87.7604 13.2015 87.1554 13.3555 86.5724 13.7405L86.5394 13.3555H85.1754V18.7455ZM97.3663 18.8995C98.0373 18.8995 98.6643 18.8115 99.1813 18.7125L99.0603 17.5685C98.6533 17.6455 98.1033 17.7005 97.7183 17.7005C96.6623 17.7005 96.1013 17.4475 96.0573 16.5345H99.3683C99.4563 16.5345 99.5003 16.5015 99.5003 16.4135V15.9185C99.5003 14.0485 98.6423 13.2015 97.0253 13.2015C95.3753 13.2015 94.4073 14.1695 94.4073 16.0615C94.4073 16.9195 94.5943 17.6895 95.1333 18.2065C95.5953 18.6465 96.3543 18.8995 97.3663 18.8995ZM96.0573 15.5115C96.0903 14.8185 96.3763 14.3895 97.0143 14.3895C97.6413 14.3895 97.9603 14.8295 97.9603 15.5115H96.0573ZM102.243 18.8995C103.86 18.8995 104.674 18.2505 104.674 17.1285C104.674 14.8955 101.726 15.7645 101.726 14.8515C101.726 14.5435 102.034 14.4115 102.595 14.4115C103.035 14.4115 103.695 14.4995 104.256 14.6535L104.377 13.4985C103.794 13.3005 103.123 13.2015 102.584 13.2015C100.967 13.2015 100.241 13.9385 100.241 14.9395C100.241 17.1725 103.178 16.2375 103.178 17.1945C103.178 17.5795 102.804 17.6895 102.21 17.6895C101.627 17.6895 100.879 17.5685 100.472 17.4365L100.351 18.6025C100.78 18.7565 101.605 18.8995 102.243 18.8995ZM108.399 18.8995C109.07 18.8995 109.697 18.8115 110.214 18.7125L110.093 17.5685C109.686 17.6455 109.136 17.7005 108.751 17.7005C107.695 17.7005 107.134 17.4475 107.09 16.5345H110.401C110.489 16.5345 110.533 16.5015 110.533 16.4135V15.9185C110.533 14.0485 109.675 13.2015 108.058 13.2015C106.408 13.2015 105.44 14.1695 105.44 16.0615C105.44 16.9195 105.627 17.6895 106.166 18.2065C106.628 18.6465 107.387 18.8995 108.399 18.8995ZM107.09 15.5115C107.123 14.8185 107.409 14.3895 108.047 14.3895C108.674 14.3895 108.993 14.8295 108.993 15.5115H107.09ZM113.275 18.8995C114.892 18.8995 115.706 18.2505 115.706 17.1285C115.706 14.8955 112.758 15.7645 112.758 14.8515C112.758 14.5435 113.066 14.4115 113.627 14.4115C114.067 14.4115 114.727 14.4995 115.288 14.6535L115.409 13.4985C114.826 13.3005 114.155 13.2015 113.616 13.2015C111.999 13.2015 111.273 13.9385 111.273 14.9395C111.273 17.1725 114.21 16.2375 114.21 17.1945C114.21 17.5795 113.836 17.6895 113.242 17.6895C112.659 17.6895 111.911 17.5685 111.504 17.4365L111.383 18.6025C111.812 18.7565 112.637 18.8995 113.275 18.8995Z" fill="#3C7521"/>
<path d="M21.3414 49.2706C24.6734 49.2706 26.8834 48.5906 28.5154 47.0606C29.7394 45.9046 30.4534 44.2386 30.4534 42.1646C30.4534 33.0866 18.5874 36.2146 18.5874 31.6586C18.5874 30.1966 19.5054 29.1766 22.3614 29.1766C23.9934 29.1766 26.0334 29.4826 27.9374 29.9926L28.7534 26.0486C26.9514 25.4366 24.5034 25.0966 22.2594 25.0966C17.2954 25.0966 13.5894 27.1706 13.5894 31.8966C13.5894 41.0426 25.4554 37.8806 25.4554 42.2326C25.4554 44.3746 23.9934 45.1906 20.8654 45.1906C19.1654 45.1906 16.4794 44.7486 14.4394 44.0346L13.6234 48.0806C15.9694 48.8966 18.3834 49.2706 21.3414 49.2706ZM32.216 49.2706H36.534L46.768 25.0966H42.45L32.216 49.2706ZM57.562 49.2706C62.968 49.2706 65.79 46.3126 65.79 41.1446C65.79 36.4866 63.376 33.9026 59.228 33.9026C57.63 33.9026 55.726 34.2766 54.196 35.0926C54.264 32.7466 54.638 31.1486 55.658 30.1286C56.576 29.2106 57.97 28.9046 60.214 28.9046C61.438 28.9046 62.696 29.0406 63.886 29.2446V25.5386C62.322 25.2666 60.758 25.0966 59.092 25.0966C55.998 25.0966 53.822 25.7766 52.258 27.3406C50.218 29.3806 49.096 32.8486 49.096 38.2546C49.096 45.2926 51.34 49.2706 57.562 49.2706ZM57.664 45.5646C55.012 45.5646 54.128 43.6606 54.128 39.2066V37.9146C55.08 37.7106 56.542 37.5746 57.528 37.5746C60.01 37.5746 60.962 38.3566 60.962 41.3146C60.962 44.1366 59.84 45.5646 57.664 45.5646ZM75.6707 49.2706C82.1647 49.2706 84.7147 46.4146 84.7147 41.5186C84.7147 36.5886 81.9267 34.2426 75.8407 34.2426H74.6167L74.8207 29.0066H83.3547V25.5386H70.6387L70.2307 35.3986C70.1967 36.4526 70.2307 37.3366 70.4007 38.0166H75.1267C78.8667 38.0166 79.6827 39.3086 79.6827 41.7226C79.6827 44.0346 78.4927 45.4626 74.4807 45.4626C72.9507 45.4626 71.4207 45.3266 70.1967 45.0886V48.7266C71.7267 49.0666 73.6307 49.2706 75.6707 49.2706ZM90.3454 49.2706H90.5834C92.2154 49.2706 93.0654 48.6246 93.0654 46.9246V46.5166C93.0654 44.8166 92.2154 44.1706 90.5834 44.1706H90.3454C88.7134 44.1706 87.8634 44.8166 87.8634 46.5166V46.9246C87.8634 48.6246 88.7134 49.2706 90.3454 49.2706ZM102.152 49.2706C105.246 49.2706 107.422 48.5906 108.986 47.0266C111.026 44.9866 112.148 41.5186 112.148 36.1126C112.148 29.0746 109.904 25.0966 103.682 25.0966C98.2762 25.0966 95.4542 28.0546 95.4542 33.2226C95.4542 37.8806 97.8682 40.4646 102.016 40.4646C103.614 40.4646 105.518 40.0906 107.048 39.2746C106.98 41.6206 106.606 43.2186 105.586 44.2386C104.668 45.1566 103.274 45.4626 101.03 45.4626C99.8062 45.4626 98.5482 45.3266 97.3582 45.1226V48.8286C98.9222 49.1006 100.486 49.2706 102.152 49.2706ZM103.716 36.7926C101.234 36.7926 100.282 36.0106 100.282 33.0526C100.282 30.2306 101.404 28.8026 103.58 28.8026C106.232 28.8026 107.116 30.7066 107.116 35.1606V36.4526C106.164 36.6566 104.702 36.7926 103.716 36.7926ZM123.763 49.2706C130.223 49.2706 132.671 45.1566 132.671 37.2006C132.671 29.2446 130.223 25.0966 123.763 25.0966C117.303 25.0966 114.855 29.2446 114.855 37.2006C114.855 45.1566 117.303 49.2706 123.763 49.2706ZM123.763 45.3606C121.009 45.3606 119.921 43.6266 119.921 37.2006C119.921 30.7746 121.009 28.6666 123.763 28.6666C126.517 28.6666 127.605 30.7746 127.605 37.2006C127.605 43.6266 126.517 45.3606 123.763 45.3606Z" fill="#3C7521"/>
<path d="M8.58677 63.0682H9.56577V60.2632H10.9628C11.8648 60.2632 12.4808 60.0432 12.8878 59.6472C13.3058 59.2292 13.5038 58.6242 13.5038 57.8212C13.5038 57.1282 13.3278 56.5562 12.9538 56.1822C12.5248 55.7422 11.8208 55.5442 10.7428 55.5442H8.58677V63.0682ZM9.56577 59.4712V56.3142H10.6658C11.3918 56.3142 11.8538 56.4352 12.1398 56.7212C12.3818 56.9632 12.4918 57.3262 12.4918 57.8432C12.4918 58.4372 12.3488 58.8442 12.0848 59.0972C11.7878 59.3722 11.3148 59.4712 10.6328 59.4712H9.56577ZM14.5668 63.0682H15.4798V58.7122C15.8648 58.4702 16.3158 58.3492 16.7888 58.3492C16.9428 58.3492 17.1408 58.3602 17.2618 58.3712V57.5572C17.1408 57.5352 17.0088 57.5242 16.9098 57.5242C16.4368 57.5242 15.8978 57.7112 15.3808 58.1402L15.3258 57.6782H14.5668V63.0682ZM20.3473 63.2222C20.8423 63.2222 21.4803 63.1452 21.9423 63.0132L21.8543 62.3312C21.4363 62.4192 20.9083 62.4742 20.5233 62.4742C19.8413 62.4742 19.4343 62.3312 19.1483 62.0672C18.8293 61.7702 18.6753 61.2862 18.6753 60.6922H22.1513C22.2393 60.6922 22.2833 60.6592 22.2833 60.5712V60.3622C22.2833 58.5912 21.5573 57.5242 20.0503 57.5242C18.6753 57.5242 17.7183 58.4592 17.7183 60.3842C17.7183 61.3522 17.9383 62.0892 18.4223 62.5732C18.8623 63.0132 19.5113 63.2222 20.3473 63.2222ZM18.6753 60.0212C18.6863 58.9322 19.1373 58.2612 20.0503 58.2612C20.9523 58.2612 21.3483 58.9872 21.3813 60.0212H18.6753ZM25.9558 63.2222C26.3518 63.2222 26.9568 63.1452 27.3088 63.0462L27.2428 62.3642C26.9678 62.4192 26.4838 62.4742 26.1208 62.4742C25.4608 62.4742 24.9988 62.3202 24.6908 61.9682C24.3938 61.6272 24.2398 61.1102 24.2398 60.4282C24.2398 58.9982 24.8118 58.2612 26.0768 58.2612C26.4178 58.2612 26.8578 58.3272 27.1988 58.3932L27.2538 57.6892C26.8798 57.5902 26.3848 57.5242 25.9668 57.5242C25.1418 57.5242 24.4488 57.7662 23.9868 58.2612C23.5248 58.7562 23.2828 59.4932 23.2828 60.4392C23.2828 61.3852 23.5468 62.0892 23.9978 62.5512C24.4378 63.0022 25.0758 63.2222 25.9558 63.2222ZM28.9719 56.6552H29.0269C29.3569 56.6552 29.5659 56.4902 29.5659 56.0722V56.0502C29.5659 55.6322 29.3569 55.4672 29.0269 55.4672H28.9719C28.6419 55.4672 28.4329 55.6322 28.4329 56.0502V56.0722C28.4329 56.4902 28.6419 56.6552 28.9719 56.6552ZM28.5429 63.0682H29.4559V57.6782H28.5429V63.0682ZM33.1801 63.2222C34.8521 63.2222 35.6331 62.1662 35.6331 60.3732C35.6331 58.5802 34.8521 57.5242 33.1801 57.5242C31.5081 57.5242 30.7271 58.5802 30.7271 60.3732C30.7271 62.1662 31.5081 63.2222 33.1801 63.2222ZM33.1801 62.4742C32.0801 62.4742 31.6841 61.7482 31.6841 60.3732C31.6841 58.9982 32.0801 58.2722 33.1801 58.2722C34.2801 58.2722 34.6761 58.9982 34.6761 60.3732C34.6761 61.7482 34.2801 62.4742 33.1801 62.4742ZM39.1342 63.0682H40.0472V58.7122C40.4322 58.4702 40.8832 58.3492 41.3562 58.3492C41.5102 58.3492 41.7082 58.3602 41.8292 58.3712V57.5572C41.7082 57.5352 41.5762 57.5242 41.4772 57.5242C41.0042 57.5242 40.4652 57.7112 39.9482 58.1402L39.8932 57.6782H39.1342V63.0682ZM44.9147 63.2222C45.4097 63.2222 46.0477 63.1452 46.5097 63.0132L46.4217 62.3312C46.0037 62.4192 45.4757 62.4742 45.0907 62.4742C44.4087 62.4742 44.0017 62.3312 43.7157 62.0672C43.3967 61.7702 43.2427 61.2862 43.2427 60.6922H46.7187C46.8067 60.6922 46.8507 60.6592 46.8507 60.5712V60.3622C46.8507 58.5912 46.1247 57.5242 44.6177 57.5242C43.2427 57.5242 42.2857 58.4592 42.2857 60.3842C42.2857 61.3522 42.5057 62.0892 42.9897 62.5732C43.4297 63.0132 44.0787 63.2222 44.9147 63.2222ZM43.2427 60.0212C43.2537 58.9322 43.7047 58.2612 44.6177 58.2612C45.5197 58.2612 45.9157 58.9872 45.9487 60.0212H43.2427ZM50.2151 65.6972C52.0412 65.6972 52.7672 65.0922 52.7672 64.0032C52.7672 63.5632 52.6462 63.1892 52.3712 62.9142C52.0191 62.5622 51.4912 62.4082 50.5451 62.4082H49.5111C49.2142 62.4082 49.0711 62.3092 49.0711 62.0782C49.0711 61.8912 49.2032 61.6052 49.3682 61.4182C49.6212 61.4952 49.8961 61.5282 50.2151 61.5282C51.6891 61.5282 52.3822 60.6922 52.3822 59.5262C52.3822 58.7562 52.0742 58.1182 51.4252 57.7882L52.1731 56.5122C51.9972 56.3692 51.6672 56.2152 51.4142 56.1602L50.7652 57.5682C50.6001 57.5462 50.4132 57.5242 50.2151 57.5242C48.7411 57.5242 48.0481 58.3602 48.0481 59.5262C48.0481 60.2302 48.3011 60.8022 48.8072 61.1542C48.4221 61.5282 48.1691 61.9682 48.1691 62.3972C48.1691 62.6392 48.2461 62.8372 48.4221 62.9802C48.0481 63.2442 47.8061 63.7062 47.8061 64.1792C47.8061 65.1362 48.5541 65.6972 50.2151 65.6972ZM50.2151 60.8022C49.3241 60.8022 48.9171 60.3512 48.9171 59.5262C48.9171 58.7012 49.3241 58.2502 50.2151 58.2502C51.1061 58.2502 51.5131 58.7012 51.5131 59.5262C51.5131 60.3512 51.1061 60.8022 50.2151 60.8022ZM50.3032 64.9272C49.1041 64.9272 48.6641 64.5972 48.6641 64.0142C48.6641 63.7282 48.7851 63.4312 48.9831 63.1892C49.0931 63.2112 49.2252 63.2222 49.3792 63.2222H50.5451C51.0842 63.2222 51.4361 63.2882 51.6452 63.4422C51.8212 63.5742 51.9092 63.7722 51.9092 64.0362C51.9092 64.5972 51.4472 64.9272 50.3032 64.9272ZM55.5363 63.2222C56.1633 63.2222 56.8123 63.0132 57.3733 62.6722L57.4173 63.0682H58.1763V57.6782H57.2633V62.0672C56.8233 62.2762 56.2623 62.4192 55.7783 62.4192C55.3823 62.4192 55.0963 62.3312 54.9093 62.1442C54.7223 61.9572 54.6453 61.6932 54.6453 61.2312V57.6782H53.7323V61.3412C53.7323 62.0122 53.8863 62.4522 54.1833 62.7492C54.4913 63.0682 54.9533 63.2222 55.5363 63.2222ZM59.7272 63.0682H60.6402V55.2032H59.7272V63.0682ZM63.7379 63.2222C64.3869 63.2222 64.9589 63.0132 65.4319 62.7052L65.4869 63.0682H66.2239V59.4822C66.2239 58.7782 66.0919 58.3492 65.7509 58.0192C65.4099 57.7002 64.8709 57.5242 64.0679 57.5242C63.5509 57.5242 62.9349 57.5902 62.4289 57.7112L62.4619 58.4152C62.9899 58.3272 63.5069 58.2832 63.9139 58.2832C64.4529 58.2832 64.8049 58.3822 65.0359 58.6022C65.2339 58.8002 65.3109 59.0752 65.3109 59.5152V59.8562H64.1889C63.4079 59.8562 62.7699 59.9992 62.3629 60.3732C62.0769 60.6372 61.9009 61.0332 61.9009 61.5392C61.9009 62.0452 62.0659 62.4302 62.3299 62.7052C62.6599 63.0462 63.1549 63.2222 63.7379 63.2222ZM63.9359 62.4852C63.2319 62.4852 62.8249 62.1662 62.8249 61.5172C62.8249 61.1872 62.9349 60.9562 63.1219 60.8022C63.3749 60.6042 63.7599 60.5272 64.3209 60.5272H65.3109V62.1332C64.9149 62.3312 64.3759 62.4852 63.9359 62.4852ZM67.7406 63.0682H68.6536V58.7122C69.0386 58.4702 69.4896 58.3492 69.9626 58.3492C70.1166 58.3492 70.3146 58.3602 70.4356 58.3712V57.5572C70.3146 57.5352 70.1826 57.5242 70.0836 57.5242C69.6106 57.5242 69.0716 57.7112 68.5546 58.1402L68.4996 57.6782H67.7406V63.0682ZM75.5513 63.2222C76.0573 63.2222 76.7063 63.0242 77.1463 62.7382L77.2123 63.0682H77.9603V55.2032H77.0473V57.9092C76.6183 57.6672 76.0793 57.5242 75.6173 57.5242C74.2093 57.5242 73.3843 58.6242 73.3843 60.4062C73.3843 62.2762 74.1763 63.2222 75.5513 63.2222ZM75.8043 62.4742C74.8363 62.4742 74.3413 61.8362 74.3413 60.4172C74.3413 59.1522 74.7043 58.2942 75.8043 58.2942C76.1673 58.2942 76.6513 58.4042 77.0473 58.5582V62.1552C76.6623 62.3422 76.1893 62.4742 75.8043 62.4742ZM81.8463 63.2222C82.3413 63.2222 82.9793 63.1452 83.4413 63.0132L83.3533 62.3312C82.9353 62.4192 82.4073 62.4742 82.0223 62.4742C81.3403 62.4742 80.9333 62.3312 80.6473 62.0672C80.3283 61.7702 80.1743 61.2862 80.1743 60.6922H83.6503C83.7383 60.6922 83.7823 60.6592 83.7823 60.5712V60.3622C83.7823 58.5912 83.0563 57.5242 81.5493 57.5242C80.1743 57.5242 79.2173 58.4592 79.2173 60.3842C79.2173 61.3522 79.4373 62.0892 79.9213 62.5732C80.3613 63.0132 81.0103 63.2222 81.8463 63.2222ZM80.1743 60.0212C80.1853 58.9322 80.6363 58.2612 81.5493 58.2612C82.4513 58.2612 82.8473 58.9872 82.8803 60.0212H80.1743ZM86.4868 63.2222C87.7848 63.2222 88.6648 62.7162 88.6648 61.5722C88.6648 59.6472 85.6618 60.2192 85.6618 59.0092C85.6618 58.5032 86.0688 58.2502 86.8388 58.2502C87.2788 58.2502 87.7738 58.3162 88.2578 58.4262L88.3348 57.7552C87.9058 57.6232 87.3008 57.5242 86.7618 57.5242C85.6178 57.5242 84.8038 58.0302 84.8038 59.0752C84.8038 61.0552 87.8068 60.4282 87.8068 61.6382C87.8068 62.1882 87.3338 62.4852 86.4538 62.4852C85.9808 62.4852 85.3868 62.4082 84.9468 62.2872L84.9028 62.9912C85.3098 63.1232 85.9698 63.2222 86.4868 63.2222ZM91.8365 63.2222C92.3425 63.2222 92.9915 63.0242 93.4315 62.7382L93.4975 63.0682H94.2455V55.2032H93.3325V57.9092C92.9035 57.6672 92.3645 57.5242 91.9025 57.5242C90.4945 57.5242 89.6695 58.6242 89.6695 60.4062C89.6695 62.2762 90.4615 63.2222 91.8365 63.2222ZM92.0895 62.4742C91.1215 62.4742 90.6265 61.8362 90.6265 60.4172C90.6265 59.1522 90.9895 58.2942 92.0895 58.2942C92.4525 58.2942 92.9365 58.4042 93.3325 58.5582V62.1552C92.9475 62.3422 92.4745 62.4742 92.0895 62.4742ZM98.1315 63.2222C98.6265 63.2222 99.2645 63.1452 99.7265 63.0132L99.6385 62.3312C99.2205 62.4192 98.6925 62.4742 98.3075 62.4742C97.6255 62.4742 97.2185 62.3312 96.9325 62.0672C96.6135 61.7702 96.4595 61.2862 96.4595 60.6922H99.9355C100.023 60.6922 100.067 60.6592 100.067 60.5712V60.3622C100.067 58.5912 99.3415 57.5242 97.8345 57.5242C96.4595 57.5242 95.5025 58.4592 95.5025 60.3842C95.5025 61.3522 95.7225 62.0892 96.2065 62.5732C96.6465 63.0132 97.2955 63.2222 98.1315 63.2222ZM96.4595 60.0212C96.4705 58.9322 96.9215 58.2612 97.8345 58.2612C98.7365 58.2612 99.1325 58.9872 99.1655 60.0212H96.4595ZM105.622 63.2222C106.491 63.2222 107.162 63.0132 107.613 62.5842C107.987 62.2322 108.207 61.7152 108.207 61.0552C108.207 58.4812 104.335 59.0642 104.335 57.3482C104.335 56.5452 104.962 56.2152 105.985 56.2152C106.48 56.2152 107.063 56.2922 107.613 56.4352L107.756 55.6872C107.239 55.5112 106.557 55.4012 105.908 55.4012C104.412 55.4012 103.411 56.0832 103.411 57.4142C103.411 59.9992 107.272 59.2622 107.272 61.1542C107.272 61.5612 107.129 61.8582 106.865 62.0672C106.568 62.2982 106.15 62.4082 105.534 62.4082C104.929 62.4082 104.225 62.2762 103.653 62.1112L103.488 62.8592C104.06 63.0902 104.929 63.2222 105.622 63.2222ZM109.219 63.2222H110.11L113.355 55.4012H112.464L109.219 63.2222ZM115.743 63.0682H116.744L118.999 56.4462C119.098 56.1602 119.12 55.9952 119.12 55.7862C119.12 55.6982 119.109 55.5992 119.087 55.5442H114.566V56.2702H118.196L115.743 63.0682ZM122.374 63.2222C123.342 63.2222 124.057 62.9912 124.508 62.5292C124.904 62.1332 125.113 61.5722 125.113 60.8682C125.113 60.1862 124.915 59.6582 124.541 59.2732C124.09 58.8112 123.43 58.6132 122.297 58.6132H121.725L121.824 56.2702H124.651V55.5442H121.054L120.911 58.7122C120.9 58.9542 120.9 59.0312 120.9 59.1192C120.9 59.1962 120.911 59.2952 120.933 59.3502H122.165C122.99 59.3502 123.485 59.4602 123.782 59.7572C124.035 60.0102 124.156 60.4172 124.156 60.8902C124.156 61.4292 124.002 61.8142 123.705 62.0672C123.386 62.3312 122.946 62.4522 122.198 62.4522C121.857 62.4522 121.197 62.3972 120.801 62.3312V63.0462C121.197 63.1452 121.857 63.2222 122.374 63.2222ZM127.123 63.2222H127.2C127.53 63.2222 127.75 63.0572 127.75 62.6282V62.5842C127.75 62.1552 127.53 61.9902 127.2 61.9902H127.123C126.793 61.9902 126.573 62.1552 126.573 62.5842V62.6282C126.573 63.0572 126.793 63.2222 127.123 63.2222ZM130.88 63.2222C131.76 63.2222 132.453 62.9582 132.915 62.4082C133.509 61.7042 133.795 60.5492 133.795 58.9212C133.795 56.7652 133.146 55.4012 131.309 55.4012C129.747 55.4012 128.922 56.4682 128.922 57.9202C128.922 59.4052 129.736 60.1752 131.034 60.1752C131.661 60.1752 132.321 59.9882 132.849 59.7682C132.772 61.5392 132.288 62.4742 130.803 62.4742C130.451 62.4742 129.978 62.4302 129.648 62.3862V63.0902C130.011 63.1672 130.495 63.2222 130.88 63.2222ZM131.221 59.4382C130.22 59.4382 129.846 58.8882 129.846 57.8652C129.846 56.8202 130.341 56.1492 131.287 56.1492C132.486 56.1492 132.86 57.1392 132.86 58.7122V59.1522C132.354 59.3172 131.705 59.4382 131.221 59.4382ZM137.511 63.2222C139.381 63.2222 140.096 61.7702 140.096 59.3172C140.096 56.8642 139.381 55.4012 137.511 55.4012C135.641 55.4012 134.926 56.8642 134.926 59.3172C134.926 61.7702 135.641 63.2222 137.511 63.2222ZM137.511 62.4412C136.29 62.4412 135.883 61.4182 135.883 59.3172C135.883 57.2162 136.29 56.1822 137.511 56.1822C138.732 56.1822 139.139 57.2162 139.139 59.3172C139.139 61.4182 138.732 62.4412 137.511 62.4412Z" fill="#3C7521"/>
</svg>
