<svg width="101" height="108" viewBox="0 0 101 108" fill="none" xmlns="http://www.w3.org/2000/svg">
<path d="M0 42L-1.41051e-06 4.0671C-1.49403e-06 1.8209 1.8209 3.72113e-06 4.0671 3.60571e-06L96.9329 -1.16611e-06C99.1791 -1.28153e-06 101 1.8209 101 4.0671L101 42L0 42Z" fill="#BDE4A4"/>
<path d="M21.7451 28.0472C23.5091 28.0472 24.6791 27.6872 25.5431 26.8772C26.1911 26.2652 26.5691 25.3832 26.5691 24.2852C26.5691 19.4792 20.2871 21.1352 20.2871 18.7232C20.2871 17.9492 20.7731 17.4092 22.2851 17.4092C23.1491 17.4092 24.2291 17.5712 25.2371 17.8412L25.6691 15.7532C24.7151 15.4292 23.4191 15.2492 22.2311 15.2492C19.6031 15.2492 17.6411 16.3472 17.6411 18.8492C17.6411 23.6912 23.9231 22.0172 23.9231 24.3212C23.9231 25.4552 23.1491 25.8872 21.4931 25.8872C20.5931 25.8872 19.1711 25.6532 18.0911 25.2752L17.6591 27.4172C18.9011 27.8492 20.1791 28.0472 21.7451 28.0472ZM27.8623 28.0472H30.1483L35.5663 15.2492H33.2803L27.8623 28.0472ZM41.6407 28.0472C44.5027 28.0472 45.9967 26.4812 45.9967 23.7452C45.9967 21.2792 44.7187 19.9112 42.5227 19.9112C41.6767 19.9112 40.6687 20.1092 39.8587 20.5412C39.8947 19.2992 40.0927 18.4532 40.6327 17.9132C41.1187 17.4272 41.8567 17.2652 43.0447 17.2652C43.6927 17.2652 44.3587 17.3372 44.9887 17.4452V15.4832C44.1607 15.3392 43.3327 15.2492 42.4507 15.2492C40.8127 15.2492 39.6607 15.6092 38.8327 16.4372C37.7527 17.5172 37.1587 19.3532 37.1587 22.2152C37.1587 25.9412 38.3467 28.0472 41.6407 28.0472ZM41.6947 26.0852C40.2907 26.0852 39.8227 25.0772 39.8227 22.7192V22.0352C40.3267 21.9272 41.1007 21.8552 41.6227 21.8552C42.9367 21.8552 43.4407 22.2692 43.4407 23.8352C43.4407 25.3292 42.8467 26.0852 41.6947 26.0852ZM51.5877 28.0472C55.0257 28.0472 56.3757 26.5352 56.3757 23.9432C56.3757 21.3332 54.8997 20.0912 51.6777 20.0912H51.0297L51.1377 17.3192H55.6557V15.4832H48.9237L48.7077 20.7032C48.6897 21.2612 48.7077 21.7292 48.7977 22.0892H51.2997C53.2797 22.0892 53.7117 22.7732 53.7117 24.0512C53.7117 25.2752 53.0817 26.0312 50.9577 26.0312C50.1477 26.0312 49.3377 25.9592 48.6897 25.8332V27.7592C49.4997 27.9392 50.5077 28.0472 51.5877 28.0472ZM59.7167 28.0472H59.8427C60.7067 28.0472 61.1567 27.7052 61.1567 26.8052V26.5892C61.1567 25.6892 60.7067 25.3472 59.8427 25.3472H59.7167C58.8527 25.3472 58.4027 25.6892 58.4027 26.5892V26.8052C58.4027 27.7052 58.8527 28.0472 59.7167 28.0472ZM66.3273 28.0472C67.9653 28.0472 69.1173 27.6872 69.9453 26.8592C71.0253 25.7792 71.6193 23.9432 71.6193 21.0812C71.6193 17.3552 70.4313 15.2492 67.1373 15.2492C64.2753 15.2492 62.7813 16.8152 62.7813 19.5512C62.7813 22.0172 64.0593 23.3852 66.2553 23.3852C67.1013 23.3852 68.1093 23.1872 68.9193 22.7552C68.8833 23.9972 68.6853 24.8432 68.1453 25.3832C67.6593 25.8692 66.9213 26.0312 65.7333 26.0312C65.0853 26.0312 64.4193 25.9592 63.7893 25.8512V27.8132C64.6173 27.9572 65.4453 28.0472 66.3273 28.0472ZM67.1553 21.4412C65.8413 21.4412 65.3373 21.0272 65.3373 19.4612C65.3373 17.9672 65.9313 17.2112 67.0833 17.2112C68.4873 17.2112 68.9553 18.2192 68.9553 20.5772V21.2612C68.4513 21.3692 67.6773 21.4412 67.1553 21.4412ZM78.1283 28.0472C81.5483 28.0472 82.8443 25.8692 82.8443 21.6572C82.8443 17.4452 81.5483 15.2492 78.1283 15.2492C74.7083 15.2492 73.4123 17.4452 73.4123 21.6572C73.4123 25.8692 74.7083 28.0472 78.1283 28.0472ZM78.1283 25.9772C76.6703 25.9772 76.0943 25.0592 76.0943 21.6572C76.0943 18.2552 76.6703 17.1392 78.1283 17.1392C79.5863 17.1392 80.1623 18.2552 80.1623 21.6572C80.1623 25.0592 79.5863 25.9772 78.1283 25.9772Z" fill="#3C7521"/>
<path d="M9.78425 36.4597H10.4072V34.6747H11.2962C11.8702 34.6747 12.2622 34.5347 12.5212 34.2827C12.7872 34.0167 12.9132 33.6317 12.9132 33.1207C12.9132 32.6797 12.8012 32.3157 12.5632 32.0777C12.2902 31.7977 11.8422 31.6717 11.1562 31.6717H9.78425V36.4597ZM10.4072 34.1707V32.1617H11.1072C11.5692 32.1617 11.8632 32.2387 12.0452 32.4207C12.1992 32.5747 12.2692 32.8057 12.2692 33.1347C12.2692 33.5127 12.1782 33.7717 12.0102 33.9327C11.8212 34.1077 11.5202 34.1707 11.0862 34.1707H10.4072ZM13.5897 36.4597H14.1707V33.6877C14.4157 33.5337 14.7027 33.4567 15.0037 33.4567C15.1017 33.4567 15.2277 33.4637 15.3047 33.4707V32.9527C15.2277 32.9387 15.1437 32.9317 15.0807 32.9317C14.7797 32.9317 14.4367 33.0507 14.1077 33.3237L14.0727 33.0297H13.5897V36.4597ZM17.2682 36.5577C17.5832 36.5577 17.9892 36.5087 18.2832 36.4247L18.2272 35.9907C17.9612 36.0467 17.6252 36.0817 17.3802 36.0817C16.9462 36.0817 16.6872 35.9907 16.5052 35.8227C16.3022 35.6337 16.2042 35.3257 16.2042 34.9477H18.4162C18.4722 34.9477 18.5002 34.9267 18.5002 34.8707V34.7377C18.5002 33.6107 18.0382 32.9317 17.0792 32.9317C16.2042 32.9317 15.5952 33.5267 15.5952 34.7517C15.5952 35.3677 15.7352 35.8367 16.0432 36.1447C16.3232 36.4247 16.7362 36.5577 17.2682 36.5577ZM16.2042 34.5207C16.2112 33.8277 16.4982 33.4007 17.0792 33.4007C17.6532 33.4007 17.9052 33.8627 17.9262 34.5207H16.2042ZM20.8372 36.5577C21.0892 36.5577 21.4742 36.5087 21.6982 36.4457L21.6562 36.0117C21.4812 36.0467 21.1732 36.0817 20.9422 36.0817C20.5222 36.0817 20.2282 35.9837 20.0322 35.7597C19.8432 35.5427 19.7452 35.2137 19.7452 34.7797C19.7452 33.8697 20.1092 33.4007 20.9142 33.4007C21.1312 33.4007 21.4112 33.4427 21.6282 33.4847L21.6632 33.0367C21.4252 32.9737 21.1102 32.9317 20.8442 32.9317C20.3192 32.9317 19.8782 33.0857 19.5842 33.4007C19.2902 33.7157 19.1362 34.1847 19.1362 34.7867C19.1362 35.3887 19.3042 35.8367 19.5912 36.1307C19.8712 36.4177 20.2772 36.5577 20.8372 36.5577ZM22.7566 32.3787H22.7916C23.0016 32.3787 23.1346 32.2737 23.1346 32.0077V31.9937C23.1346 31.7277 23.0016 31.6227 22.7916 31.6227H22.7566C22.5466 31.6227 22.4136 31.7277 22.4136 31.9937V32.0077C22.4136 32.2737 22.5466 32.3787 22.7566 32.3787ZM22.4836 36.4597H23.0646V33.0297H22.4836V36.4597ZM25.4346 36.5577C26.4986 36.5577 26.9956 35.8857 26.9956 34.7447C26.9956 33.6037 26.4986 32.9317 25.4346 32.9317C24.3706 32.9317 23.8736 33.6037 23.8736 34.7447C23.8736 35.8857 24.3706 36.5577 25.4346 36.5577ZM25.4346 36.0817C24.7346 36.0817 24.4826 35.6197 24.4826 34.7447C24.4826 33.8697 24.7346 33.4077 25.4346 33.4077C26.1346 33.4077 26.3866 33.8697 26.3866 34.7447C26.3866 35.6197 26.1346 36.0817 25.4346 36.0817ZM29.2235 36.4597H29.8045V33.6877C30.0495 33.5337 30.3365 33.4567 30.6375 33.4567C30.7355 33.4567 30.8615 33.4637 30.9385 33.4707V32.9527C30.8615 32.9387 30.7775 32.9317 30.7145 32.9317C30.4135 32.9317 30.0705 33.0507 29.7415 33.3237L29.7065 33.0297H29.2235V36.4597ZM32.902 36.5577C33.217 36.5577 33.623 36.5087 33.917 36.4247L33.861 35.9907C33.595 36.0467 33.259 36.0817 33.014 36.0817C32.58 36.0817 32.321 35.9907 32.139 35.8227C31.936 35.6337 31.838 35.3257 31.838 34.9477H34.05C34.106 34.9477 34.134 34.9267 34.134 34.8707V34.7377C34.134 33.6107 33.672 32.9317 32.713 32.9317C31.838 32.9317 31.229 33.5267 31.229 34.7517C31.229 35.3677 31.369 35.8367 31.677 36.1447C31.957 36.4247 32.37 36.5577 32.902 36.5577ZM31.838 34.5207C31.845 33.8277 32.132 33.4007 32.713 33.4007C33.287 33.4007 33.539 33.8627 33.56 34.5207H31.838ZM36.275 38.1327C37.437 38.1327 37.899 37.7477 37.899 37.0547C37.899 36.7747 37.822 36.5367 37.647 36.3617C37.423 36.1377 37.087 36.0397 36.485 36.0397H35.827C35.638 36.0397 35.547 35.9767 35.547 35.8297C35.547 35.7107 35.631 35.5287 35.736 35.4097C35.897 35.4587 36.072 35.4797 36.275 35.4797C37.213 35.4797 37.654 34.9477 37.654 34.2057C37.654 33.7157 37.458 33.3097 37.045 33.0997L37.521 32.2877C37.409 32.1967 37.199 32.0987 37.038 32.0637L36.625 32.9597C36.52 32.9457 36.401 32.9317 36.275 32.9317C35.337 32.9317 34.896 33.4637 34.896 34.2057C34.896 34.6537 35.057 35.0177 35.379 35.2417C35.134 35.4797 34.973 35.7597 34.973 36.0327C34.973 36.1867 35.022 36.3127 35.134 36.4037C34.896 36.5717 34.742 36.8657 34.742 37.1667C34.742 37.7757 35.218 38.1327 36.275 38.1327ZM36.275 35.0177C35.708 35.0177 35.449 34.7307 35.449 34.2057C35.449 33.6807 35.708 33.3937 36.275 33.3937C36.842 33.3937 37.101 33.6807 37.101 34.2057C37.101 34.7307 36.842 35.0177 36.275 35.0177ZM36.331 37.6427C35.568 37.6427 35.288 37.4327 35.288 37.0617C35.288 36.8797 35.365 36.6907 35.491 36.5367C35.561 36.5507 35.645 36.5577 35.743 36.5577H36.485C36.828 36.5577 37.052 36.5997 37.185 36.6977C37.297 36.7817 37.353 36.9077 37.353 37.0757C37.353 37.4327 37.059 37.6427 36.331 37.6427ZM39.6612 36.5577C40.0602 36.5577 40.4732 36.4247 40.8302 36.2077L40.8582 36.4597H41.3412V33.0297H40.7602V35.8227C40.4802 35.9557 40.1232 36.0467 39.8152 36.0467C39.5632 36.0467 39.3812 35.9907 39.2622 35.8717C39.1432 35.7527 39.0942 35.5847 39.0942 35.2907V33.0297H38.5132V35.3607C38.5132 35.7877 38.6112 36.0677 38.8002 36.2567C38.9962 36.4597 39.2902 36.5577 39.6612 36.5577ZM42.3282 36.4597H42.9092V31.4547H42.3282V36.4597ZM44.8804 36.5577C45.2934 36.5577 45.6574 36.4247 45.9584 36.2287L45.9934 36.4597H46.4624V34.1777C46.4624 33.7297 46.3784 33.4567 46.1614 33.2467C45.9444 33.0437 45.6014 32.9317 45.0904 32.9317C44.7614 32.9317 44.3694 32.9737 44.0474 33.0507L44.0684 33.4987C44.4044 33.4427 44.7334 33.4147 44.9924 33.4147C45.3354 33.4147 45.5594 33.4777 45.7064 33.6177C45.8324 33.7437 45.8814 33.9187 45.8814 34.1987V34.4157H45.1674C44.6704 34.4157 44.2644 34.5067 44.0054 34.7447C43.8234 34.9127 43.7114 35.1647 43.7114 35.4867C43.7114 35.8087 43.8164 36.0537 43.9844 36.2287C44.1944 36.4457 44.5094 36.5577 44.8804 36.5577ZM45.0064 36.0887C44.5584 36.0887 44.2994 35.8857 44.2994 35.4727C44.2994 35.2627 44.3694 35.1157 44.4884 35.0177C44.6494 34.8917 44.8944 34.8427 45.2514 34.8427H45.8814V35.8647C45.6294 35.9907 45.2864 36.0887 45.0064 36.0887ZM47.4276 36.4597H48.0086V33.6877C48.2536 33.5337 48.5406 33.4567 48.8416 33.4567C48.9396 33.4567 49.0656 33.4637 49.1426 33.4707V32.9527C49.0656 32.9387 48.9816 32.9317 48.9186 32.9317C48.6176 32.9317 48.2746 33.0507 47.9456 33.3237L47.9106 33.0297H47.4276V36.4597ZM52.3981 36.5577C52.7201 36.5577 53.1331 36.4317 53.4131 36.2497L53.4551 36.4597H53.9311V31.4547H53.3501V33.1767C53.0771 33.0227 52.7341 32.9317 52.4401 32.9317C51.5441 32.9317 51.0191 33.6317 51.0191 34.7657C51.0191 35.9557 51.5231 36.5577 52.3981 36.5577ZM52.5591 36.0817C51.9431 36.0817 51.6281 35.6757 51.6281 34.7727C51.6281 33.9677 51.8591 33.4217 52.5591 33.4217C52.7901 33.4217 53.0981 33.4917 53.3501 33.5897V35.8787C53.1051 35.9977 52.8041 36.0817 52.5591 36.0817ZM56.404 36.5577C56.719 36.5577 57.125 36.5087 57.419 36.4247L57.363 35.9907C57.097 36.0467 56.761 36.0817 56.516 36.0817C56.082 36.0817 55.823 35.9907 55.641 35.8227C55.438 35.6337 55.34 35.3257 55.34 34.9477H57.552C57.608 34.9477 57.636 34.9267 57.636 34.8707V34.7377C57.636 33.6107 57.174 32.9317 56.215 32.9317C55.34 32.9317 54.731 33.5267 54.731 34.7517C54.731 35.3677 54.871 35.8367 55.179 36.1447C55.459 36.4247 55.872 36.5577 56.404 36.5577ZM55.34 34.5207C55.347 33.8277 55.634 33.4007 56.215 33.4007C56.789 33.4007 57.041 33.8627 57.062 34.5207H55.34ZM59.357 36.5577C60.183 36.5577 60.743 36.2357 60.743 35.5077C60.743 34.2827 58.832 34.6467 58.832 33.8767C58.832 33.5547 59.091 33.3937 59.581 33.3937C59.861 33.3937 60.176 33.4357 60.484 33.5057L60.533 33.0787C60.26 32.9947 59.875 32.9317 59.532 32.9317C58.804 32.9317 58.286 33.2537 58.286 33.9187C58.286 35.1787 60.197 34.7797 60.197 35.5497C60.197 35.8997 59.896 36.0887 59.336 36.0887C59.035 36.0887 58.657 36.0397 58.377 35.9627L58.349 36.4107C58.608 36.4947 59.028 36.5577 59.357 36.5577ZM62.7613 36.5577C63.0833 36.5577 63.4963 36.4317 63.7763 36.2497L63.8183 36.4597H64.2943V31.4547H63.7133V33.1767C63.4403 33.0227 63.0973 32.9317 62.8033 32.9317C61.9073 32.9317 61.3823 33.6317 61.3823 34.7657C61.3823 35.9557 61.8863 36.5577 62.7613 36.5577ZM62.9223 36.0817C62.3063 36.0817 61.9913 35.6757 61.9913 34.7727C61.9913 33.9677 62.2223 33.4217 62.9223 33.4217C63.1533 33.4217 63.4613 33.4917 63.7133 33.5897V35.8787C63.4683 35.9977 63.1673 36.0817 62.9223 36.0817ZM66.7673 36.5577C67.0823 36.5577 67.4883 36.5087 67.7823 36.4247L67.7263 35.9907C67.4603 36.0467 67.1243 36.0817 66.8793 36.0817C66.4453 36.0817 66.1863 35.9907 66.0043 35.8227C65.8013 35.6337 65.7033 35.3257 65.7033 34.9477H67.9153C67.9713 34.9477 67.9993 34.9267 67.9993 34.8707V34.7377C67.9993 33.6107 67.5373 32.9317 66.5783 32.9317C65.7033 32.9317 65.0943 33.5267 65.0943 34.7517C65.0943 35.3677 65.2343 35.8367 65.5423 36.1447C65.8223 36.4247 66.2353 36.5577 66.7673 36.5577ZM65.7033 34.5207C65.7103 33.8277 65.9973 33.4007 66.5783 33.4007C67.1523 33.4007 67.4043 33.8627 67.4253 34.5207H65.7033ZM71.534 36.5577C72.087 36.5577 72.514 36.4247 72.801 36.1517C73.039 35.9277 73.179 35.5987 73.179 35.1787C73.179 33.5407 70.715 33.9117 70.715 32.8197C70.715 32.3087 71.114 32.0987 71.765 32.0987C72.08 32.0987 72.451 32.1477 72.801 32.2387L72.892 31.7627C72.563 31.6507 72.129 31.5807 71.716 31.5807C70.764 31.5807 70.127 32.0147 70.127 32.8617C70.127 34.5067 72.584 34.0377 72.584 35.2417C72.584 35.5007 72.493 35.6897 72.325 35.8227C72.136 35.9697 71.87 36.0397 71.478 36.0397C71.093 36.0397 70.645 35.9557 70.281 35.8507L70.176 36.3267C70.54 36.4737 71.093 36.5577 71.534 36.5577ZM73.8228 36.5577H74.3898L76.4548 31.5807H75.8878L73.8228 36.5577ZM77.9748 36.4597H78.6118L80.0468 32.2457C80.1098 32.0637 80.1238 31.9587 80.1238 31.8257C80.1238 31.7697 80.1168 31.7067 80.1028 31.6717H77.2258V32.1337H79.5358L77.9748 36.4597ZM82.1941 36.5577C82.8101 36.5577 83.2651 36.4107 83.5521 36.1167C83.8041 35.8647 83.9371 35.5077 83.9371 35.0597C83.9371 34.6257 83.8111 34.2897 83.5731 34.0447C83.2861 33.7507 82.8661 33.6247 82.1451 33.6247H81.7811L81.8441 32.1337H83.6431V31.6717H81.3541L81.2631 33.6877C81.2561 33.8417 81.2561 33.8907 81.2561 33.9467C81.2561 33.9957 81.2631 34.0587 81.2771 34.0937H82.0611C82.5861 34.0937 82.9011 34.1637 83.0901 34.3527C83.2511 34.5137 83.3281 34.7727 83.3281 35.0737C83.3281 35.4167 83.2301 35.6617 83.0411 35.8227C82.8381 35.9907 82.5581 36.0677 82.0821 36.0677C81.8651 36.0677 81.4451 36.0327 81.1931 35.9907V36.4457C81.4451 36.5087 81.8651 36.5577 82.1941 36.5577ZM85.2164 36.5577H85.2654C85.4754 36.5577 85.6154 36.4527 85.6154 36.1797V36.1517C85.6154 35.8787 85.4754 35.7737 85.2654 35.7737H85.2164C85.0064 35.7737 84.8664 35.8787 84.8664 36.1517V36.1797C84.8664 36.4527 85.0064 36.5577 85.2164 36.5577ZM87.6073 36.5577C88.1673 36.5577 88.6083 36.3897 88.9023 36.0397C89.2803 35.5917 89.4623 34.8567 89.4623 33.8207C89.4623 32.4487 89.0493 31.5807 87.8803 31.5807C86.8863 31.5807 86.3613 32.2597 86.3613 33.1837C86.3613 34.1287 86.8793 34.6187 87.7053 34.6187C88.1043 34.6187 88.5243 34.4997 88.8603 34.3597C88.8113 35.4867 88.5033 36.0817 87.5583 36.0817C87.3343 36.0817 87.0333 36.0537 86.8233 36.0257V36.4737C87.0543 36.5227 87.3623 36.5577 87.6073 36.5577ZM87.8243 34.1497C87.1873 34.1497 86.9493 33.7997 86.9493 33.1487C86.9493 32.4837 87.2643 32.0567 87.8663 32.0567C88.6293 32.0567 88.8673 32.6867 88.8673 33.6877V33.9677C88.5453 34.0727 88.1323 34.1497 87.8243 34.1497ZM91.8267 36.5577C93.0167 36.5577 93.4717 35.6337 93.4717 34.0727C93.4717 32.5117 93.0167 31.5807 91.8267 31.5807C90.6367 31.5807 90.1817 32.5117 90.1817 34.0727C90.1817 35.6337 90.6367 36.5577 91.8267 36.5577ZM91.8267 36.0607C91.0497 36.0607 90.7907 35.4097 90.7907 34.0727C90.7907 32.7357 91.0497 32.0777 91.8267 32.0777C92.6037 32.0777 92.8627 32.7357 92.8627 34.0727C92.8627 35.4097 92.6037 36.0607 91.8267 36.0607Z" fill="#3C7521"/>
<path d="M24.0399 11.5357C25.7119 11.5357 26.4639 10.5437 26.4639 8.69571C26.4639 6.84771 25.7119 5.84771 24.0399 5.84771C22.3679 5.84771 21.6159 6.84771 21.6159 8.69571C21.6159 10.5437 22.3679 11.5357 24.0399 11.5357ZM24.0399 10.5597C23.2319 10.5597 22.9119 10.0157 22.9119 8.69571C22.9119 7.37571 23.2319 6.82371 24.0399 6.82371C24.8479 6.82371 25.1679 7.37571 25.1679 8.69571C25.1679 10.0157 24.8479 10.5597 24.0399 10.5597ZM27.6102 11.4237H28.7542V8.24771H29.6822V7.50371H28.7542V7.03171C28.7542 6.75171 28.7942 6.63971 28.8662 6.56771C28.9702 6.46371 29.1302 6.42371 29.4022 6.42371C29.5702 6.42371 29.7782 6.44771 29.9382 6.47171V5.65571C29.6662 5.59971 29.4022 5.56771 29.1062 5.56771C28.5622 5.56771 28.1542 5.70371 27.9382 5.92771C27.7062 6.16771 27.6102 6.48771 27.6102 6.96771V7.51171L26.9382 7.63171V8.24771H27.6102V11.4237ZM32.1332 11.5357C32.6212 11.5357 33.0772 11.4717 33.4532 11.3997L33.3652 10.5677C33.0692 10.6237 32.6692 10.6637 32.3892 10.6637C31.6212 10.6637 31.2132 10.4797 31.1812 9.81571H33.5892C33.6532 9.81571 33.6852 9.79171 33.6852 9.72771V9.36771C33.6852 8.00771 33.0612 7.39171 31.8852 7.39171C30.6852 7.39171 29.9812 8.09571 29.9812 9.47171C29.9812 10.0957 30.1172 10.6557 30.5092 11.0317C30.8452 11.3517 31.3972 11.5357 32.1332 11.5357ZM31.1812 9.07171C31.2052 8.56771 31.4132 8.25571 31.8772 8.25571C32.3332 8.25571 32.5652 8.57571 32.5652 9.07171H31.1812ZM34.4077 11.4237H35.5517V8.47971C35.7997 8.42371 36.0317 8.38371 36.3357 8.38371C36.5197 8.38371 36.7117 8.39971 36.8397 8.41571V7.41571C36.7917 7.40771 36.7037 7.39971 36.6397 7.39971C36.2637 7.39971 35.7437 7.54371 35.4397 7.82371L35.3997 7.50371H34.4077V11.4237ZM39.1625 11.5357C39.5065 11.5357 39.9065 11.4957 40.1625 11.4397L40.1225 10.6317C39.9865 10.6477 39.7305 10.6797 39.5705 10.6797C39.1065 10.6797 39.0185 10.5197 39.0185 10.0797V8.24771H40.0345V7.50371H39.0185V6.46371C38.6505 6.46371 38.2185 6.52771 37.8745 6.63171V7.50371L37.2105 7.62371V8.24771H37.8745V10.2397C37.8745 11.1037 38.1865 11.5357 39.1625 11.5357ZM41.9734 11.5357C42.3894 11.5357 42.8134 11.3997 43.1494 11.1837L43.2454 11.4237H44.1494V8.87971C44.1494 8.40771 44.0454 8.07171 43.8454 7.83971C43.5734 7.51971 43.0374 7.39171 42.4374 7.39171C41.9654 7.39171 41.4454 7.45571 41.0454 7.53571L41.1014 8.37571C41.3734 8.31971 41.8294 8.27171 42.1974 8.27171C42.5094 8.27171 42.7254 8.31171 42.8614 8.43171C42.9574 8.51971 43.0054 8.65571 43.0054 8.87171V8.99971H42.3814C41.6534 8.99971 41.2214 9.09571 40.9414 9.35971C40.7174 9.57571 40.5974 9.89571 40.5974 10.2477C40.5974 11.0077 41.0774 11.5357 41.9734 11.5357ZM42.3014 10.6637C41.8854 10.6637 41.7414 10.4877 41.7414 10.1997C41.7414 10.0557 41.7814 9.94371 41.8534 9.87171C41.9574 9.76771 42.1254 9.73571 42.3974 9.73571H43.0054V10.5437C42.8214 10.5997 42.5174 10.6637 42.3014 10.6637ZM46.5083 11.4237H47.7803L48.4283 10.2477L49.2443 11.4237H50.5803L49.1723 9.43971L50.5243 7.50371H49.2763L48.6363 8.68771L47.7883 7.50371H46.4843L47.9003 9.49571L46.5083 11.4237ZM54.483 11.5357C55.315 11.5357 55.899 11.3437 56.259 10.9677C56.515 10.7037 56.643 10.3357 56.643 9.91171C56.643 9.19971 56.299 8.76771 55.723 8.55971C56.203 8.31971 56.451 7.91971 56.451 7.35171C56.451 6.89571 56.307 6.57571 56.075 6.34371C55.739 6.00771 55.155 5.84771 54.467 5.84771C54.043 5.84771 53.579 5.88771 53.211 5.96771V6.81571C53.531 6.76771 53.931 6.73571 54.283 6.73571C54.715 6.73571 54.987 6.79971 55.147 6.94371C55.275 7.05571 55.331 7.23171 55.331 7.43971C55.331 7.70371 55.243 7.88771 55.115 7.99971C54.923 8.16771 54.667 8.23171 54.163 8.23171H53.971V9.03171H54.123C54.683 9.03171 54.987 9.07971 55.187 9.22371C55.355 9.34371 55.459 9.53571 55.459 9.82371C55.459 10.1197 55.355 10.3277 55.163 10.4557C54.971 10.5837 54.707 10.6397 54.259 10.6397C53.859 10.6397 53.483 10.5997 53.163 10.5437V11.4077C53.531 11.4877 54.011 11.5357 54.483 11.5357ZM59.5327 11.4237H60.6767V8.47171C60.8687 8.39971 61.1567 8.34371 61.3567 8.34371C61.5647 8.34371 61.7327 8.37571 61.8367 8.47171C61.9167 8.55171 61.9567 8.66371 61.9567 8.86371V11.4237H63.1007V8.72771C63.1007 8.63171 63.0927 8.53571 63.0847 8.44771C63.2767 8.39171 63.5567 8.34371 63.7487 8.34371C63.9807 8.34371 64.1407 8.37571 64.2447 8.47171C64.3247 8.55171 64.3647 8.66371 64.3647 8.86371V11.4237H65.5087V8.72771C65.5087 8.27171 65.4127 7.92771 65.1727 7.69571C64.9567 7.47971 64.5727 7.39171 64.2287 7.39171C63.8047 7.39171 63.3007 7.51171 62.8607 7.80771C62.6607 7.52771 62.3007 7.39171 61.8207 7.39171C61.4127 7.39171 60.9727 7.50371 60.5487 7.78371L60.5247 7.50371H59.5327V11.4237ZM68.3988 11.5357C68.8868 11.5357 69.3428 11.4717 69.7188 11.3997L69.6308 10.5677C69.3348 10.6237 68.9348 10.6637 68.6548 10.6637C67.8868 10.6637 67.4788 10.4797 67.4468 9.81571H69.8548C69.9188 9.81571 69.9508 9.79171 69.9508 9.72771V9.36771C69.9508 8.00771 69.3268 7.39171 68.1508 7.39171C66.9508 7.39171 66.2468 8.09571 66.2468 9.47171C66.2468 10.0957 66.3828 10.6557 66.7748 11.0317C67.1108 11.3517 67.6628 11.5357 68.3988 11.5357ZM67.4468 9.07171C67.4708 8.56771 67.6788 8.25571 68.1428 8.25571C68.5988 8.25571 68.8308 8.57571 68.8308 9.07171H67.4468ZM71.9454 11.5357C73.1214 11.5357 73.7134 11.0637 73.7134 10.2477C73.7134 8.62371 71.5694 9.25571 71.5694 8.59171C71.5694 8.36771 71.7934 8.27171 72.2014 8.27171C72.5214 8.27171 73.0014 8.33571 73.4094 8.44771L73.4974 7.60771C73.0734 7.46371 72.5854 7.39171 72.1934 7.39171C71.0174 7.39171 70.4894 7.92771 70.4894 8.65571C70.4894 10.2797 72.6254 9.59971 72.6254 10.2957C72.6254 10.5757 72.3534 10.6557 71.9214 10.6557C71.4974 10.6557 70.9534 10.5677 70.6574 10.4717L70.5694 11.3197C70.8814 11.4317 71.4814 11.5357 71.9454 11.5357ZM76.4222 11.5357C76.9102 11.5357 77.3662 11.4717 77.7422 11.3997L77.6542 10.5677C77.3582 10.6237 76.9582 10.6637 76.6782 10.6637C75.9102 10.6637 75.5022 10.4797 75.4702 9.81571H77.8782C77.9422 9.81571 77.9742 9.79171 77.9742 9.72771V9.36771C77.9742 8.00771 77.3502 7.39171 76.1742 7.39171C74.9742 7.39171 74.2702 8.09571 74.2702 9.47171C74.2702 10.0957 74.4062 10.6557 74.7982 11.0317C75.1342 11.3517 75.6862 11.5357 76.4222 11.5357ZM75.4702 9.07171C75.4942 8.56771 75.7022 8.25571 76.1662 8.25571C76.6222 8.25571 76.8542 8.57571 76.8542 9.07171H75.4702ZM79.9688 11.5357C81.1448 11.5357 81.7368 11.0637 81.7368 10.2477C81.7368 8.62371 79.5928 9.25571 79.5928 8.59171C79.5928 8.36771 79.8168 8.27171 80.2248 8.27171C80.5448 8.27171 81.0248 8.33571 81.4328 8.44771L81.5208 7.60771C81.0968 7.46371 80.6088 7.39171 80.2168 7.39171C79.0408 7.39171 78.5128 7.92771 78.5128 8.65571C78.5128 10.2797 80.6488 9.59971 80.6488 10.2957C80.6488 10.5757 80.3768 10.6557 79.9448 10.6557C79.5208 10.6557 78.9768 10.5677 78.6808 10.4717L78.5928 11.3197C78.9048 11.4317 79.5048 11.5357 79.9688 11.5357Z" fill="#3C7521"/>
<path d="M101 77L101 103.933C101 106.179 99.1791 108 96.9329 108L4.0671 108C1.8209 108 4.13711e-07 106.179 3.81863e-07 103.933L0 77L101 77Z" fill="#3C7521"/>
<path d="M27.933 101.343C29.165 101.343 30.075 101.049 30.649 100.461C31.153 99.9569 31.419 99.2429 31.419 98.3469C31.419 97.4789 31.167 96.8069 30.691 96.3169C30.117 95.7289 29.277 95.4769 27.835 95.4769H27.107L27.233 92.4949H30.831V91.5709H26.253L26.071 95.6029C26.057 95.9109 26.057 96.0089 26.057 96.1209C26.057 96.2189 26.071 96.3449 26.099 96.4149H27.667C28.717 96.4149 29.347 96.5549 29.725 96.9329C30.047 97.2549 30.201 97.7729 30.201 98.3749C30.201 99.0609 30.005 99.5509 29.627 99.8729C29.221 100.209 28.661 100.363 27.709 100.363C27.275 100.363 26.435 100.293 25.931 100.209V101.119C26.435 101.245 27.275 101.343 27.933 101.343ZM36.3016 101.343C38.6816 101.343 39.5916 99.4949 39.5916 96.3729C39.5916 93.2509 38.6816 91.3889 36.3016 91.3889C33.9216 91.3889 33.0116 93.2509 33.0116 96.3729C33.0116 99.4949 33.9216 101.343 36.3016 101.343ZM36.3016 100.349C34.7476 100.349 34.2296 99.0469 34.2296 96.3729C34.2296 93.6989 34.7476 92.3828 36.3016 92.3828C37.8556 92.3828 38.3736 93.6989 38.3736 96.3729C38.3736 99.0469 37.8556 100.349 36.3016 100.349ZM44.1817 101.147H45.2877V93.9649L48.0457 99.1169H49.0817L51.8677 94.0209V101.147H53.0437V91.5709H51.9797L48.6057 97.8709L45.2737 91.5709H44.1817V101.147ZM58.3052 101.343C60.0132 101.343 60.9792 100.181 60.9792 97.6889C60.9792 95.2249 59.9852 94.0909 58.3192 94.0909C57.6472 94.0909 56.9052 94.3289 56.3452 94.6369V91.1369H55.1832V101.147H56.1212L56.1772 100.685C56.7232 101.063 57.5632 101.343 58.3052 101.343ZM58.0392 100.377C57.4792 100.377 56.8072 100.167 56.3452 99.8869V95.4769C56.8072 95.2529 57.4792 95.0849 58.0112 95.0849C59.2292 95.0849 59.7612 95.8409 59.7612 97.6889C59.7612 99.6769 59.2012 100.377 58.0392 100.377ZM62.5797 104.297H63.7417V100.825C64.2457 101.147 64.9877 101.343 65.7017 101.343C67.3397 101.343 68.3757 100.265 68.3757 97.6889C68.3757 95.5049 67.5217 94.0909 65.7437 94.0909C65.1137 94.0909 64.3157 94.3149 63.6017 94.7909L63.5457 94.2869H62.5797V104.297ZM65.4077 100.377C64.8197 100.377 64.1477 100.195 63.7417 99.9569V95.5469C64.2737 95.2669 64.9597 95.0849 65.4917 95.0849C66.6397 95.0849 67.1577 95.9249 67.1577 97.6749C67.1577 99.6349 66.6537 100.377 65.4077 100.377ZM71.7822 101.343C73.4342 101.343 74.5542 100.699 74.5542 99.2429C74.5542 96.7929 70.7322 97.5209 70.7322 95.9809C70.7322 95.3369 71.2502 95.0149 72.2302 95.0149C72.7902 95.0149 73.4202 95.0989 74.0362 95.2389L74.1342 94.3849C73.5882 94.2169 72.8182 94.0909 72.1322 94.0909C70.6762 94.0909 69.6402 94.7349 69.6402 96.0649C69.6402 98.5849 73.4622 97.7869 73.4622 99.3269C73.4622 100.027 72.8602 100.405 71.7402 100.405C71.1382 100.405 70.3822 100.307 69.8222 100.153L69.7662 101.049C70.2842 101.217 71.1242 101.343 71.7822 101.343Z" fill="#BDE4A4"/>
<path d="M43.7073 88.0193H44.7993V86.3673H45.5693C46.1993 86.3673 46.6333 86.2203 46.9133 85.9053C47.1513 85.6393 47.2703 85.2543 47.2703 84.7433C47.2703 84.2323 47.1443 83.8613 46.8853 83.6233C46.5773 83.3363 46.1013 83.2313 45.3523 83.2313H43.7073V88.0193ZM44.7993 85.5483V84.0223H45.3103C45.6463 84.0223 45.8493 84.0713 45.9823 84.1903C46.1083 84.3093 46.1643 84.4983 46.1643 84.7573C46.1643 85.0373 46.1013 85.2403 45.9753 85.3663C45.8353 85.4993 45.6883 85.5483 45.3383 85.5483H44.7993ZM48.0343 88.0193H49.0353V83.0143H48.0343V88.0193ZM50.9572 88.1173C51.3212 88.1173 51.6922 87.9983 51.9862 87.8093L52.0702 88.0193H52.8612V85.7933C52.8612 85.3803 52.7702 85.0863 52.5952 84.8833C52.3572 84.6033 51.8882 84.4913 51.3632 84.4913C50.9502 84.4913 50.4952 84.5473 50.1452 84.6173L50.1942 85.3523C50.4322 85.3033 50.8312 85.2613 51.1532 85.2613C51.4262 85.2613 51.6152 85.2963 51.7342 85.4013C51.8182 85.4783 51.8602 85.5973 51.8602 85.7863V85.8983H51.3142C50.6772 85.8983 50.2992 85.9823 50.0542 86.2133C49.8582 86.4023 49.7532 86.6823 49.7532 86.9903C49.7532 87.6553 50.1732 88.1173 50.9572 88.1173ZM51.2442 87.3543C50.8802 87.3543 50.7542 87.2003 50.7542 86.9483C50.7542 86.8223 50.7892 86.7243 50.8522 86.6613C50.9432 86.5703 51.0902 86.5423 51.3282 86.5423H51.8602V87.2493C51.6992 87.2983 51.4332 87.3543 51.2442 87.3543ZM53.7519 88.0193H54.7529V85.4363C54.9139 85.3733 55.2149 85.3243 55.4039 85.3243C55.6069 85.3243 55.7469 85.3523 55.8379 85.4363C55.9079 85.5063 55.9429 85.6043 55.9429 85.7793V88.0193H56.9439V85.6603C56.9439 85.2613 56.8599 84.9603 56.6499 84.7573C56.4609 84.5683 56.1249 84.4913 55.8239 84.4913C55.4599 84.4913 55.0189 84.5893 54.6409 84.8343L54.6199 84.5893H53.7519V88.0193Z" fill="#BDE4A4"/>
<path d="M101 42L101 77L4.96241e-07 77L0 42L101 42Z" fill="#5CB615"/>
<path d="M18.8058 64.5892H24.8058V63.5992H20.1708L22.6308 60.7042C24.1758 58.8892 24.6258 58.0642 24.6258 56.8342C24.6258 55.9792 24.3408 55.3192 23.8458 54.8842C23.2608 54.3592 22.3608 54.1342 21.2958 54.1342C20.5008 54.1342 19.6758 54.2392 18.9558 54.4192V55.3942C19.6758 55.2442 20.5008 55.1692 21.1158 55.1692C22.5108 55.1692 23.3208 55.6192 23.3208 56.8942C23.3208 57.8392 22.8858 58.6342 21.7008 60.0892L19.3458 62.9692C18.8508 63.5692 18.7458 63.8392 18.7458 64.2442C18.7458 64.3492 18.7758 64.4992 18.8058 64.5892ZM30.1422 64.7992C32.6922 64.7992 33.6672 62.8192 33.6672 59.4742C33.6672 56.1292 32.6922 54.1342 30.1422 54.1342C27.5922 54.1342 26.6172 56.1292 26.6172 59.4742C26.6172 62.8192 27.5922 64.7992 30.1422 64.7992ZM30.1422 63.7342C28.4772 63.7342 27.9222 62.3392 27.9222 59.4742C27.9222 56.6092 28.4772 55.1992 30.1422 55.1992C31.8072 55.1992 32.3622 56.6092 32.3622 59.4742C32.3622 62.3392 31.8072 63.7342 30.1422 63.7342ZM38.4186 64.7992C40.9686 64.7992 41.9436 62.8192 41.9436 59.4742C41.9436 56.1292 40.9686 54.1342 38.4186 54.1342C35.8686 54.1342 34.8936 56.1292 34.8936 59.4742C34.8936 62.8192 35.8686 64.7992 38.4186 64.7992ZM38.4186 63.7342C36.7536 63.7342 36.1986 62.3392 36.1986 59.4742C36.1986 56.6092 36.7536 55.1992 38.4186 55.1992C40.0836 55.1992 40.6386 56.6092 40.6386 59.4742C40.6386 62.3392 40.0836 63.7342 38.4186 63.7342ZM46.8615 64.5892H48.0465V56.8942L51.0015 62.4142H52.1115L55.0965 56.9542V64.5892H56.3565V54.3292H55.2165L51.6015 61.0792L48.0315 54.3292H46.8615V64.5892ZM61.9939 64.7992C63.8239 64.7992 64.8589 63.5542 64.8589 60.8842C64.8589 58.2442 63.7939 57.0292 62.0089 57.0292C61.2889 57.0292 60.4939 57.2842 59.8939 57.6142V53.8642H58.6489V64.5892H59.6539L59.7139 64.0942C60.2989 64.4992 61.1989 64.7992 61.9939 64.7992ZM61.7089 63.7642C61.1089 63.7642 60.3889 63.5392 59.8939 63.2392V58.5142C60.3889 58.2742 61.1089 58.0942 61.6789 58.0942C62.9839 58.0942 63.5539 58.9042 63.5539 60.8842C63.5539 63.0142 62.9539 63.7642 61.7089 63.7642ZM66.5737 67.9642H67.8187V64.2442C68.3587 64.5892 69.1537 64.7992 69.9187 64.7992C71.6737 64.7992 72.7837 63.6442 72.7837 60.8842C72.7837 58.5442 71.8687 57.0292 69.9637 57.0292C69.2887 57.0292 68.4337 57.2692 67.6687 57.7792L67.6087 57.2392H66.5737V67.9642ZM69.6037 63.7642C68.9737 63.7642 68.2537 63.5692 67.8187 63.3142V58.5892C68.3887 58.2892 69.1237 58.0942 69.6937 58.0942C70.9237 58.0942 71.4787 58.9942 71.4787 60.8692C71.4787 62.9692 70.9387 63.7642 69.6037 63.7642ZM76.4335 64.7992C78.2035 64.7992 79.4035 64.1092 79.4035 62.5492C79.4035 59.9242 75.3085 60.7042 75.3085 59.0542C75.3085 58.3642 75.8635 58.0192 76.9135 58.0192C77.5135 58.0192 78.1885 58.1092 78.8485 58.2592L78.9535 57.3442C78.3685 57.1642 77.5435 57.0292 76.8085 57.0292C75.2485 57.0292 74.1385 57.7192 74.1385 59.1442C74.1385 61.8442 78.2335 60.9892 78.2335 62.6392C78.2335 63.3892 77.5885 63.7942 76.3885 63.7942C75.7435 63.7942 74.9335 63.6892 74.3335 63.5242L74.2735 64.4842C74.8285 64.6642 75.7285 64.7992 76.4335 64.7992Z" fill="white"/>
<path d="M32.7208 74H33.4568L34.3368 72.52L35.3208 74H36.0728L34.7608 72.04L36.0568 70.08H35.3288L34.4488 71.576L33.4488 70.08H32.7048L34.0248 72.064L32.7208 74ZM39.6411 74.112C40.3131 74.112 40.7931 73.968 41.1371 73.688C41.4651 73.416 41.6491 73.016 41.6491 72.496C41.6491 71.808 41.2651 71.352 40.6651 71.144C41.1451 70.96 41.4891 70.552 41.4891 69.904C41.4891 69.456 41.3451 69.104 41.0891 68.856C40.7931 68.568 40.3211 68.424 39.6811 68.424C39.3371 68.424 38.9051 68.464 38.5531 68.544V69.064C38.8891 69.008 39.2491 68.976 39.5531 68.976C40.0331 68.976 40.3371 69.048 40.5451 69.224C40.7211 69.376 40.8171 69.624 40.8171 69.936C40.8171 70.656 40.3531 70.96 39.5611 70.96H39.4251V71.456H39.5691C40.0891 71.456 40.4491 71.536 40.6811 71.752C40.8571 71.92 40.9531 72.192 40.9531 72.488C40.9531 72.848 40.8411 73.128 40.6011 73.304C40.3771 73.472 40.0651 73.552 39.5531 73.552C39.2011 73.552 38.7691 73.512 38.4651 73.448V73.976C38.7851 74.056 39.2251 74.112 39.6411 74.112ZM44.472 74H45.136V70.808C45.456 70.656 45.824 70.552 46.16 70.552C46.432 70.552 46.64 70.616 46.776 70.752C46.912 70.888 46.968 71.08 46.968 71.416V74H47.632V71.336C47.632 71.136 47.608 70.96 47.576 70.816C47.92 70.648 48.312 70.552 48.632 70.552C48.904 70.552 49.112 70.616 49.248 70.752C49.384 70.888 49.44 71.08 49.44 71.416V74H50.104V71.336C50.104 70.848 49.992 70.528 49.776 70.312C49.552 70.08 49.216 69.968 48.792 69.968C48.352 69.968 47.872 70.112 47.384 70.408C47.16 70.112 46.816 69.968 46.32 69.968C45.888 69.968 45.464 70.112 45.056 70.368L45.024 70.08H44.472V74ZM52.9104 74.112C53.2704 74.112 53.7344 74.056 54.0704 73.96L54.0064 73.464C53.7024 73.528 53.3184 73.568 53.0384 73.568C52.5424 73.568 52.2464 73.464 52.0384 73.272C51.8064 73.056 51.6944 72.704 51.6944 72.272H54.2224C54.2864 72.272 54.3184 72.248 54.3184 72.184V72.032C54.3184 70.744 53.7904 69.968 52.6944 69.968C51.6944 69.968 50.9984 70.648 50.9984 72.048C50.9984 72.752 51.1584 73.288 51.5104 73.64C51.8304 73.96 52.3024 74.112 52.9104 74.112ZM51.6944 71.784C51.7024 70.992 52.0304 70.504 52.6944 70.504C53.3504 70.504 53.6384 71.032 53.6624 71.784H51.6944ZM56.2852 74.112C57.2292 74.112 57.8692 73.744 57.8692 72.912C57.8692 71.512 55.6852 71.928 55.6852 71.048C55.6852 70.68 55.9812 70.496 56.5412 70.496C56.8612 70.496 57.2212 70.544 57.5732 70.624L57.6292 70.136C57.3172 70.04 56.8772 69.968 56.4852 69.968C55.6532 69.968 55.0612 70.336 55.0612 71.096C55.0612 72.536 57.2452 72.08 57.2452 72.96C57.2452 73.36 56.9012 73.576 56.2612 73.576C55.9172 73.576 55.4852 73.52 55.1652 73.432L55.1332 73.944C55.4292 74.04 55.9092 74.112 56.2852 74.112ZM60.5119 74.112C60.8719 74.112 61.3359 74.056 61.6719 73.96L61.6079 73.464C61.3039 73.528 60.9199 73.568 60.6399 73.568C60.1439 73.568 59.8479 73.464 59.6399 73.272C59.4079 73.056 59.2959 72.704 59.2959 72.272H61.8239C61.8879 72.272 61.9199 72.248 61.9199 72.184V72.032C61.9199 70.744 61.3919 69.968 60.2959 69.968C59.2959 69.968 58.5999 70.648 58.5999 72.048C58.5999 72.752 58.7599 73.288 59.1119 73.64C59.4319 73.96 59.9039 74.112 60.5119 74.112ZM59.2959 71.784C59.3039 70.992 59.6319 70.504 60.2959 70.504C60.9519 70.504 61.2399 71.032 61.2639 71.784H59.2959ZM63.8868 74.112C64.8308 74.112 65.4708 73.744 65.4708 72.912C65.4708 71.512 63.2868 71.928 63.2868 71.048C63.2868 70.68 63.5828 70.496 64.1428 70.496C64.4628 70.496 64.8228 70.544 65.1748 70.624L65.2308 70.136C64.9188 70.04 64.4788 69.968 64.0868 69.968C63.2548 69.968 62.6628 70.336 62.6628 71.096C62.6628 72.536 64.8468 72.08 64.8468 72.96C64.8468 73.36 64.5028 73.576 63.8628 73.576C63.5188 73.576 63.0868 73.52 62.7668 73.432L62.7348 73.944C63.0308 74.04 63.5108 74.112 63.8868 74.112Z" fill="white"/>
<path d="M45.7548 50.9999H47.6988C48.5468 50.9999 49.0828 50.8639 49.4348 50.5519C49.7308 50.2879 49.8908 49.9039 49.8908 49.3759C49.8908 48.6559 49.4108 48.1599 48.7308 48.0639C49.2348 47.8079 49.4988 47.4319 49.4988 46.8719C49.4988 46.4719 49.3628 46.1519 49.1148 45.9359C48.7948 45.6559 48.3148 45.5279 47.5388 45.5279H45.7548V50.9999ZM47.0028 47.7039V46.4319H47.4588C47.7948 46.4319 47.9868 46.4719 48.1068 46.5919C48.2108 46.6959 48.2588 46.8479 48.2588 47.0479C48.2588 47.2719 48.2028 47.4319 48.0988 47.5359C47.9628 47.6639 47.7708 47.7039 47.4268 47.7039H47.0028ZM47.0028 50.0959V48.6079H47.5148C47.9628 48.6079 48.2188 48.6479 48.3868 48.7919C48.5308 48.9119 48.5948 49.1039 48.5948 49.3999C48.5948 49.6239 48.5308 49.7839 48.4188 49.8959C48.2668 50.0479 47.9788 50.0959 47.5148 50.0959H47.0028ZM52.4817 51.1119C53.8417 51.1119 54.4737 50.2959 54.4737 49.0399C54.4737 47.7839 53.8417 46.9679 52.4817 46.9679C51.1217 46.9679 50.4897 47.7839 50.4897 49.0399C50.4897 50.2959 51.1217 51.1119 52.4817 51.1119ZM52.4817 50.2399C51.9057 50.2399 51.6817 49.8479 51.6817 49.0399C51.6817 48.2319 51.9057 47.8399 52.4817 47.8399C53.0577 47.8399 53.2817 48.2319 53.2817 49.0399C53.2817 49.8479 53.0577 50.2399 52.4817 50.2399ZM55.2365 50.9999H56.3805V48.0479C56.5645 47.9759 56.9085 47.9199 57.1245 47.9199C57.3565 47.9199 57.5165 47.9519 57.6205 48.0479C57.7005 48.1279 57.7405 48.2399 57.7405 48.4399V50.9999H58.8845V48.3039C58.8845 47.8479 58.7885 47.5039 58.5485 47.2719C58.3325 47.0559 57.9485 46.9679 57.6045 46.9679C57.1885 46.9679 56.6845 47.0799 56.2525 47.3599L56.2285 47.0799H55.2365V50.9999ZM61.6145 51.1119C62.9745 51.1119 63.6065 50.2959 63.6065 49.0399C63.6065 47.7839 62.9745 46.9679 61.6145 46.9679C60.2545 46.9679 59.6225 47.7839 59.6225 49.0399C59.6225 50.2959 60.2545 51.1119 61.6145 51.1119ZM61.6145 50.2399C61.0385 50.2399 60.8145 49.8479 60.8145 49.0399C60.8145 48.2319 61.0385 47.8399 61.6145 47.8399C62.1905 47.8399 62.4145 48.2319 62.4145 49.0399C62.4145 49.8479 62.1905 50.2399 61.6145 50.2399Z" fill="white"/>
<path d="M39.4954 51.0819H40.8114V49.1219H42.7714V47.8059H40.8114V45.8459H39.4954V47.8059H37.5354V49.1219H39.4954V51.0819Z" fill="white"/>
</svg>
