<svg width="471" height="124" viewBox="0 0 471 124" fill="none" xmlns="http://www.w3.org/2000/svg">
<path d="M171.217 51.1359C177.489 51.1359 181.649 49.8559 184.721 46.9759C187.025 44.7999 188.369 41.6639 188.369 37.7599C188.369 20.6719 166.033 26.5599 166.033 17.9839C166.033 15.2319 167.761 13.3119 173.137 13.3119C176.209 13.3119 180.049 13.8879 183.633 14.8479L185.169 7.42387C181.777 6.27187 177.169 5.63187 172.945 5.63187C163.601 5.63187 156.625 9.53587 156.625 18.4319C156.625 35.6479 178.961 29.6959 178.961 37.8879C178.961 41.9199 176.209 43.4559 170.321 43.4559C167.121 43.4559 162.065 42.6239 158.225 41.2799L156.689 48.8959C161.105 50.4319 165.649 51.1359 171.217 51.1359ZM193.607 50.2399H203.591V6.46387H193.607V50.2399ZM210.607 50.2399H219.375V23.6799L239.471 50.2399H247.471V6.46387H238.703V34.4959L217.967 6.46387H210.607V50.2399ZM285.502 51.1359C289.086 51.1359 293.886 50.5599 296.51 49.7919L295.486 42.4959C292.926 43.0079 289.534 43.3919 287.422 43.3919C282.494 43.3919 279.742 42.4319 277.822 40.2559C275.646 37.8239 274.686 33.4719 274.686 28.2879C274.686 19.5839 276.862 13.3759 286.27 13.3759C289.022 13.3759 292.286 13.9519 295.678 14.9119L296.958 7.61587C294.142 6.46387 289.278 5.63187 285.502 5.63187C270.526 5.63187 264.318 14.8479 264.318 28.5439C264.318 36.1599 265.918 41.8559 269.63 45.8239C272.894 49.2799 277.758 51.1359 285.502 51.1359ZM318.838 51.1359C332.214 51.1359 338.23 43.1999 338.23 28.4159C338.23 13.6319 332.214 5.63187 318.838 5.63187C305.462 5.63187 299.446 13.6319 299.446 28.4159C299.446 43.1999 305.462 51.1359 318.838 51.1359ZM318.838 43.3279C312.374 43.3279 309.814 38.9759 309.814 28.4159C309.814 17.8559 312.374 13.4399 318.838 13.4399C325.302 13.4399 327.862 17.8559 327.862 28.4159C327.862 38.9759 325.302 43.3279 318.838 43.3279ZM356.232 51.1359C362.504 51.1359 366.664 49.8559 369.736 46.9759C372.04 44.7999 373.384 41.6639 373.384 37.7599C373.384 20.6719 351.048 26.5599 351.048 17.9839C351.048 15.2319 352.776 13.3119 358.152 13.3119C361.224 13.3119 365.064 13.8879 368.648 14.8479L370.184 7.42387C366.792 6.27187 362.184 5.63187 357.96 5.63187C348.616 5.63187 341.64 9.53587 341.64 18.4319C341.64 35.6479 363.976 29.6959 363.976 37.8879C363.976 41.9199 361.224 43.4559 355.336 43.4559C352.136 43.4559 347.08 42.6239 343.24 41.2799L341.704 48.8959C346.12 50.4319 350.664 51.1359 356.232 51.1359ZM387.222 50.2399H397.206V13.6959H410.454L411.222 6.46387H373.654V13.6959H387.222V50.2399ZM431.408 51.1359C444.784 51.1359 450.8 43.1999 450.8 28.4159C450.8 13.6319 444.784 5.63187 431.408 5.63187C418.032 5.63187 412.016 13.6319 412.016 28.4159C412.016 43.1999 418.032 51.1359 431.408 51.1359ZM431.408 43.3279C424.944 43.3279 422.384 38.9759 422.384 28.4159C422.384 17.8559 424.944 13.4399 431.408 13.4399C437.872 13.4399 440.432 17.8559 440.432 28.4159C440.432 38.9759 437.872 43.3279 431.408 43.3279ZM456.898 36.5439H463.682L465.09 6.46387H455.49L456.898 36.5439ZM460.226 51.1359H460.674C463.746 51.1359 465.346 49.9199 465.346 46.7199V45.9519C465.346 42.7519 463.746 41.5359 460.674 41.5359H460.226C457.154 41.5359 455.554 42.7519 455.554 45.9519V46.7199C455.554 49.9199 457.154 51.1359 460.226 51.1359Z" fill="white"/>
<path d="M9.44628 7.83158H8.9995C5.93584 7.83158 4.34018 9.04428 4.34018 12.2356V13.0015C4.34018 16.1928 5.93584 17.4055 8.9995 17.4055H9.44628C12.5099 17.4055 14.1056 16.1928 14.1056 13.0015V12.2356C14.1056 9.04428 12.5099 7.83158 9.44628 7.83158ZM12.7652 22.384H5.99967L4.59549 52.3823H14.1694L12.7652 22.384Z" fill="white"/>
<path d="M41.7837 20.4981H33.0426V2.08374H19.1624V51.5839H33.0426V32.3777H41.7837V51.5839H55.2495V2.08374H41.7837V20.4981Z" fill="white"/>
<path d="M116.963 1.25666C103.09 1.24554 96.0014 11.4436 94.2505 15.5584C94.2661 9.37953 88.1691 2.08852 81.0341 2.07963H58.0498V51.582L79.4793 51.5864C88.1179 51.5864 94.2661 44.1108 94.2772 37.7028C96.2486 41.7376 103.09 51.8355 116.963 51.8289C130.852 51.8244 142.155 40.3007 142.15 26.4304C142.148 12.2688 130.852 1.26778 116.963 1.25666ZM77.6838 40.0538H70.8674V31.6885H77.6838C79.6664 31.6885 81.2279 33.6436 81.2279 35.8723C81.2279 38.0987 79.6664 40.0538 77.6838 40.0538ZM77.7083 21.4682H70.8919V13.1007H77.7083C79.6909 13.1007 81.2524 15.0558 81.2524 17.2822C81.2524 19.5109 79.6909 21.4682 77.7083 21.4682ZM86.7813 26.4416C88.3429 26.2436 90.9447 24.462 91.8625 23.3232C91.5395 24.7334 91.515 28.817 91.8914 30.2294C90.8445 28.6191 88.3674 26.6395 86.7813 26.4416ZM116.972 39.0418C110.002 39.0418 104.353 33.4012 104.353 26.4416C104.353 19.4842 110.002 13.8413 116.972 13.8413C123.942 13.8413 129.591 19.482 129.591 26.4416C129.591 33.4012 123.94 39.0418 116.972 39.0418Z" fill="white"/>
<path d="M116.972 16.5369C111.492 16.5369 107.052 20.972 107.052 26.4414C107.052 31.913 111.494 36.3481 116.972 36.3481C122.449 36.3481 126.891 31.913 126.891 26.4414C126.891 20.972 122.449 16.5369 116.972 16.5369Z" fill="white"/>
<path d="M9.11679 82.2269C10.1048 82.2269 11.2488 82.0969 12.0028 81.9149L11.8728 80.6669C11.2748 80.7969 10.2088 80.9269 9.45479 80.9269C5.89279 80.9269 4.56679 79.2889 4.56679 75.5709C4.56679 71.8269 5.73679 70.0589 9.16879 70.0589C9.97479 70.0589 10.9368 70.2149 11.8208 70.4489L11.9248 69.2009C11.0148 68.8889 9.94879 68.7589 8.96079 68.7589C5.08679 68.7589 3.00679 71.0469 3.00679 75.6229C3.00679 80.1469 5.11279 82.2269 9.11679 82.2269ZM19.6647 82.2269C23.4607 82.2269 25.1507 79.7829 25.1507 75.4929C25.1507 71.2029 23.4607 68.7589 19.6647 68.7589C15.8687 68.7589 14.1787 71.2029 14.1787 75.4929C14.1787 79.7829 15.8687 82.2269 19.6647 82.2269ZM19.6647 80.9269C16.7527 80.9269 15.7387 79.0029 15.7387 75.4929C15.7387 71.9829 16.7527 70.0589 19.6647 70.0589C22.5767 70.0589 23.5907 71.9829 23.5907 75.4929C23.5907 79.0029 22.5767 80.9269 19.6647 80.9269ZM28.3866 81.8629H29.8946V71.1509C31.1946 70.5009 32.6766 70.1369 33.9246 70.1369C34.9386 70.1369 35.6926 70.3969 36.1866 70.8909C36.7066 71.4109 36.9146 72.1129 36.9146 73.4389V81.8629H38.4226V73.0489C38.4226 71.4889 38.0846 70.5529 37.3566 69.8249C36.6546 69.1229 35.5106 68.7589 34.1586 68.7589C32.6246 68.7589 31.0646 69.2529 29.6866 70.0849L29.5826 69.1229H28.3866V81.8629ZM46.4111 82.2269C47.1651 82.2269 48.0751 82.0969 48.6991 81.8889L48.5951 80.6669C48.0231 80.7969 47.2431 80.9009 46.6451 80.9009C45.8131 80.9009 45.2931 80.6929 44.9551 80.3289C44.5391 79.8609 44.4871 79.1849 44.4871 77.9889V70.3189H47.8671V69.1229H44.4871V65.8729C44.0191 65.9249 43.4211 66.0549 42.9791 66.1849V69.1229L40.6391 69.4089V70.3189H42.9791V78.4569C42.9791 79.9129 43.2391 80.8229 43.8371 81.4209C44.3831 81.9669 45.2931 82.2269 46.4111 82.2269ZM51.1366 81.8629H52.6446V71.2289C53.5806 70.5789 54.6726 70.1629 55.9726 70.1629C56.1806 70.1629 56.4406 70.1629 56.8566 70.1889V68.7849C56.5966 68.7589 56.4146 68.7589 56.2326 68.7589C55.0366 68.7589 53.6326 69.2529 52.4626 70.2149L52.3326 69.1229H51.1366V81.8629ZM62.2137 82.2269C63.5917 82.2269 65.0737 81.7589 66.3217 81.0049L66.3997 81.8629H67.6217V73.1789C67.6217 71.6189 67.2577 70.5789 66.5817 69.8769C65.8277 69.0969 64.6057 68.7589 62.9157 68.7589C61.6937 68.7589 60.3157 68.9409 59.1197 69.2529L59.2237 70.5009C60.3677 70.2409 61.6417 70.0849 62.7857 70.0849C63.9557 70.0849 64.8397 70.2929 65.3597 70.8389C65.8537 71.3329 66.1137 72.1389 66.1137 73.3869V74.4269H63.0457C61.0957 74.4269 59.8217 74.7649 58.9377 75.5969C58.3137 76.1949 57.9497 77.1309 57.9497 78.2749C57.9497 80.9009 59.7177 82.2269 62.2137 82.2269ZM62.4737 80.9009C60.6017 80.9009 59.4577 80.0949 59.4577 78.2489C59.4577 77.4169 59.6917 76.7929 60.1857 76.3769C60.7577 75.8829 61.6677 75.6489 63.2797 75.6489H66.1137V79.9649C65.1517 80.5109 63.6437 80.9009 62.4737 80.9009ZM75.6104 82.2269C76.3644 82.2269 77.2744 82.0969 77.8984 81.8889L77.7944 80.6669C77.2224 80.7969 76.4424 80.9009 75.8444 80.9009C75.0124 80.9009 74.4924 80.6929 74.1544 80.3289C73.7384 79.8609 73.6864 79.1849 73.6864 77.9889V70.3189H77.0664V69.1229H73.6864V65.8729C73.2184 65.9249 72.6204 66.0549 72.1784 66.1849V69.1229L69.8384 69.4089V70.3189H72.1784V78.4569C72.1784 79.9129 72.4384 80.8229 73.0364 81.4209C73.5824 81.9669 74.4924 82.2269 75.6104 82.2269ZM83.8719 82.2269C85.2499 82.2269 86.7319 81.7589 87.9799 81.0049L88.0579 81.8629H89.2799V73.1789C89.2799 71.6189 88.9159 70.5789 88.2399 69.8769C87.4859 69.0969 86.2639 68.7589 84.5739 68.7589C83.3519 68.7589 81.9739 68.9409 80.7779 69.2529L80.8819 70.5009C82.0259 70.2409 83.2999 70.0849 84.4439 70.0849C85.6139 70.0849 86.4979 70.2929 87.0179 70.8389C87.5119 71.3329 87.7719 72.1389 87.7719 73.3869V74.4269H84.7039C82.7539 74.4269 81.4799 74.7649 80.5959 75.5969C79.9719 76.1949 79.6079 77.1309 79.6079 78.2749C79.6079 80.9009 81.3759 82.2269 83.8719 82.2269ZM84.1319 80.9009C82.2599 80.9009 81.1159 80.0949 81.1159 78.2489C81.1159 77.4169 81.3499 76.7929 81.8439 76.3769C82.4159 75.8829 83.3259 75.6489 84.9379 75.6489H87.7719V79.9649C86.8099 80.5109 85.3019 80.9009 84.1319 80.9009ZM93.0566 81.8629H94.5646V71.1509C95.8646 70.5009 97.3466 70.1369 98.5946 70.1369C99.6086 70.1369 100.363 70.3969 100.857 70.8909C101.377 71.4109 101.585 72.1129 101.585 73.4389V81.8629H103.093V73.0489C103.093 71.4889 102.755 70.5529 102.027 69.8249C101.325 69.1229 100.181 68.7589 98.8286 68.7589C97.2946 68.7589 95.7346 69.2529 94.3566 70.0849L94.2526 69.1229H93.0566V81.8629ZM111.445 82.2269C112.745 82.2269 114.253 81.7069 115.215 81.0829L115.293 81.8629H116.489V63.2729H114.981V69.6429C113.837 69.0709 112.563 68.7589 111.445 68.7589C107.883 68.7589 106.245 71.4369 106.245 75.5449C106.245 80.0169 107.987 82.2269 111.445 82.2269ZM111.523 80.9009C108.897 80.9009 107.805 79.1589 107.805 75.5189C107.805 72.0349 108.819 70.0849 111.731 70.0849C112.771 70.0849 113.837 70.3709 114.981 70.8909V80.0429C113.941 80.5629 112.615 80.9009 111.523 80.9009ZM125.188 82.2269C128.984 82.2269 130.674 79.7829 130.674 75.4929C130.674 71.2029 128.984 68.7589 125.188 68.7589C121.392 68.7589 119.702 71.2029 119.702 75.4929C119.702 79.7829 121.392 82.2269 125.188 82.2269ZM125.188 80.9269C122.276 80.9269 121.262 79.0029 121.262 75.4929C121.262 71.9829 122.276 70.0589 125.188 70.0589C128.1 70.0589 129.114 71.9829 129.114 75.4929C129.114 79.0029 128.1 80.9269 125.188 80.9269ZM139.531 81.8629H141.091V64.0789H139.531V81.8629ZM145.361 81.8629H146.869V71.1509C148.169 70.5009 149.651 70.1369 150.899 70.1369C151.913 70.1369 152.667 70.3969 153.161 70.8909C153.681 71.4109 153.889 72.1129 153.889 73.4389V81.8629H155.397V73.0489C155.397 71.4889 155.059 70.5529 154.331 69.8249C153.629 69.1229 152.485 68.7589 151.133 68.7589C149.599 68.7589 148.039 69.2529 146.661 70.0849L146.557 69.1229H145.361V81.8629ZM163.386 82.2269C164.14 82.2269 165.05 82.0969 165.674 81.8889L165.57 80.6669C164.998 80.7969 164.218 80.9009 163.62 80.9009C162.788 80.9009 162.268 80.6929 161.93 80.3289C161.514 79.8609 161.462 79.1849 161.462 77.9889V70.3189H164.842V69.1229H161.462V65.8729C160.994 65.9249 160.396 66.0549 159.954 66.1849V69.1229L157.614 69.4089V70.3189H159.954V78.4569C159.954 79.9129 160.214 80.8229 160.812 81.4209C161.358 81.9669 162.268 82.2269 163.386 82.2269ZM173.545 82.2529C174.663 82.2529 176.145 82.0449 177.003 81.7849L176.873 80.5629C175.833 80.7969 174.715 80.9529 173.649 80.9529C170.269 80.9529 169.151 79.1069 169.073 76.1169H177.393C177.627 76.1169 177.705 76.0389 177.705 75.8309V75.5969C177.705 71.0989 176.067 68.7849 172.687 68.7849C169.151 68.7849 167.487 71.4889 167.487 75.5189C167.487 79.7309 169.229 82.2529 173.545 82.2529ZM169.047 74.8949C169.073 71.9569 170.217 70.0329 172.687 70.0329C175.183 70.0329 176.223 71.9829 176.223 74.8949H169.047ZM180.984 81.8629H182.492V71.2289C183.428 70.5789 184.52 70.1629 185.82 70.1629C186.028 70.1629 186.288 70.1629 186.704 70.1889V68.7849C186.444 68.7589 186.262 68.7589 186.08 68.7589C184.884 68.7589 183.48 69.2529 182.31 70.2149L182.18 69.1229H180.984V81.8629ZM189.16 81.8629H190.668V71.1509C191.968 70.5009 193.45 70.1369 194.698 70.1369C195.712 70.1369 196.466 70.3969 196.96 70.8909C197.48 71.4109 197.688 72.1129 197.688 73.4389V81.8629H199.196V73.0489C199.196 71.4889 198.858 70.5529 198.13 69.8249C197.428 69.1229 196.284 68.7589 194.932 68.7589C193.398 68.7589 191.838 69.2529 190.46 70.0849L190.356 69.1229H189.16V81.8629ZM208.407 82.2529C209.525 82.2529 211.007 82.0449 211.865 81.7849L211.735 80.5629C210.695 80.7969 209.577 80.9529 208.511 80.9529C205.131 80.9529 204.013 79.1069 203.935 76.1169H212.255C212.489 76.1169 212.567 76.0389 212.567 75.8309V75.5969C212.567 71.0989 210.929 68.7849 207.549 68.7849C204.013 68.7849 202.349 71.4889 202.349 75.5189C202.349 79.7309 204.091 82.2529 208.407 82.2529ZM203.909 74.8949C203.935 71.9569 205.079 70.0329 207.549 70.0329C210.045 70.0329 211.085 71.9829 211.085 74.8949H203.909ZM220.058 82.2269C220.812 82.2269 221.722 82.0969 222.346 81.8889L222.242 80.6669C221.67 80.7969 220.89 80.9009 220.292 80.9009C219.46 80.9009 218.94 80.6929 218.602 80.3289C218.186 79.8609 218.134 79.1849 218.134 77.9889V70.3189H221.514V69.1229H218.134V65.8729C217.666 65.9249 217.068 66.0549 216.626 66.1849V69.1229L214.286 69.4089V70.3189H216.626V78.4569C216.626 79.9129 216.886 80.8229 217.484 81.4209C218.03 81.9669 218.94 82.2269 220.058 82.2269ZM230.352 81.8629H231.756V67.0689L237.45 78.0149H238.828L244.678 67.1469V81.8629H246.134V64.0789H244.834L238.204 76.4549L231.756 64.0789H230.352V81.8629ZM255.213 82.2269C259.009 82.2269 260.699 79.7829 260.699 75.4929C260.699 71.2029 259.009 68.7589 255.213 68.7589C251.417 68.7589 249.727 71.2029 249.727 75.4929C249.727 79.7829 251.417 82.2269 255.213 82.2269ZM255.213 80.9269C252.301 80.9269 251.287 79.0029 251.287 75.4929C251.287 71.9829 252.301 70.0589 255.213 70.0589C258.125 70.0589 259.139 71.9829 259.139 75.4929C259.139 79.0029 258.125 80.9269 255.213 80.9269ZM266.699 81.8629H268.311L272.731 69.1229H271.197L267.531 80.2769L263.787 69.1229H262.201L266.699 81.8629ZM275.912 66.5489H276.016C276.614 66.5489 276.952 66.2629 276.952 65.5349V65.4569C276.952 64.7289 276.614 64.4429 276.016 64.4429H275.912C275.314 64.4429 274.976 64.7289 274.976 65.4569V65.5349C274.976 66.2629 275.314 66.5489 275.912 66.5489ZM275.21 81.8629H276.718V69.1229H275.21V81.8629ZM283.607 82.2269C286.753 82.2269 288.469 80.9269 288.469 78.5609C288.469 73.9329 281.319 75.5709 281.319 72.2429C281.319 70.6829 282.437 70.0069 284.517 70.0069C285.427 70.0069 286.467 70.1369 287.559 70.3709L287.637 69.2009C286.779 68.9409 285.505 68.7589 284.491 68.7589C281.657 68.7589 279.889 69.9289 279.889 72.3209C279.889 76.8969 287.039 75.1029 287.039 78.6389C287.039 80.1469 285.843 80.9789 283.529 80.9789C282.489 80.9789 281.267 80.8229 280.279 80.5629L280.149 81.7589C281.033 82.0449 282.359 82.2269 283.607 82.2269ZM295.646 82.2269C296.4 82.2269 297.31 82.0969 297.934 81.8889L297.83 80.6669C297.258 80.7969 296.478 80.9009 295.88 80.9009C295.048 80.9009 294.528 80.6929 294.19 80.3289C293.774 79.8609 293.722 79.1849 293.722 77.9889V70.3189H297.102V69.1229H293.722V65.8729C293.254 65.9249 292.656 66.0549 292.214 66.1849V69.1229L289.874 69.4089V70.3189H292.214V78.4569C292.214 79.9129 292.474 80.8229 293.072 81.4209C293.618 81.9669 294.528 82.2269 295.646 82.2269ZM303.907 82.2269C305.285 82.2269 306.767 81.7589 308.015 81.0049L308.093 81.8629H309.315V73.1789C309.315 71.6189 308.951 70.5789 308.275 69.8769C307.521 69.0969 306.299 68.7589 304.609 68.7589C303.387 68.7589 302.009 68.9409 300.813 69.2529L300.917 70.5009C302.061 70.2409 303.335 70.0849 304.479 70.0849C305.649 70.0849 306.533 70.2929 307.053 70.8389C307.547 71.3329 307.807 72.1389 307.807 73.3869V74.4269H304.739C302.789 74.4269 301.515 74.7649 300.631 75.5969C300.007 76.1949 299.643 77.1309 299.643 78.2749C299.643 80.9009 301.411 82.2269 303.907 82.2269ZM304.167 80.9009C302.295 80.9009 301.151 80.0949 301.151 78.2489C301.151 77.4169 301.385 76.7929 301.879 76.3769C302.451 75.8829 303.361 75.6489 304.973 75.6489H307.807V79.9649C306.845 80.5109 305.337 80.9009 304.167 80.9009ZM313.092 81.8629H314.6V71.2289C315.536 70.5789 316.628 70.1629 317.928 70.1629C318.136 70.1629 318.396 70.1629 318.812 70.1889V68.7849C318.552 68.7589 318.37 68.7589 318.188 68.7589C316.992 68.7589 315.588 69.2529 314.418 70.2149L314.288 69.1229H313.092V81.8629Z" fill="white"/>
<path d="M4.74159 116.494H6.48159V96.658H4.74159V116.494ZM11.2444 116.494H12.9264V104.546C14.3764 103.821 16.0294 103.415 17.4214 103.415C18.5524 103.415 19.3934 103.705 19.9444 104.256C20.5244 104.836 20.7564 105.619 20.7564 107.098V116.494H22.4384V106.663C22.4384 104.923 22.0614 103.879 21.2494 103.067C20.4664 102.284 19.1904 101.878 17.6824 101.878C15.9714 101.878 14.2314 102.429 12.6944 103.357L12.5784 102.284H11.2444V116.494ZM32.7696 116.9C33.8716 116.9 35.1476 116.755 35.9886 116.552L35.8436 115.16C35.1766 115.305 33.9876 115.45 33.1466 115.45C29.1736 115.45 27.6946 113.623 27.6946 109.476C27.6946 105.3 28.9996 103.328 32.8276 103.328C33.7266 103.328 34.7996 103.502 35.7856 103.763L35.9016 102.371C34.8866 102.023 33.6976 101.878 32.5956 101.878C28.2746 101.878 25.9546 104.43 25.9546 109.534C25.9546 114.58 28.3036 116.9 32.7696 116.9ZM39.3395 116.494H41.0215V95.759H39.3395V116.494ZM50.0394 116.9C51.7504 116.9 53.4324 116.349 54.9694 115.421L55.0854 116.494H56.4194V102.284H54.7374V114.232C53.2874 114.957 51.6924 115.363 50.3004 115.363C49.1694 115.363 48.3284 115.073 47.7774 114.522C47.1974 113.942 46.9654 113.159 46.9654 111.68V102.284H45.2834V112.115C45.2834 113.855 45.6604 114.899 46.4724 115.711C47.2554 116.494 48.5314 116.9 50.0394 116.9ZM66.375 123.425C68.318 123.425 69.739 122.99 70.609 122.091C71.45 121.221 71.769 120.003 71.769 118.089V102.284H70.087V114.232C68.637 114.957 67.042 115.363 65.65 115.363C64.519 115.363 63.678 115.073 63.127 114.522C62.547 113.942 62.315 113.159 62.315 111.68V102.284H60.633V112.115C60.633 113.855 61.01 114.899 61.822 115.711C62.605 116.494 63.881 116.9 65.389 116.9C67.013 116.9 68.608 116.407 70.087 115.566V118.031C70.087 119.829 69.826 120.612 69.217 121.163C68.579 121.714 67.622 121.946 66.085 121.946C65.505 121.946 64.577 121.888 64.055 121.801L64.258 123.222C64.867 123.367 65.795 123.425 66.375 123.425ZM82.1306 116.929C83.3776 116.929 85.0306 116.697 85.9876 116.407L85.8426 115.044C84.6826 115.305 83.4356 115.479 82.2466 115.479C78.4766 115.479 77.2296 113.42 77.1426 110.085H86.4226C86.6836 110.085 86.7706 109.998 86.7706 109.766V109.505C86.7706 104.488 84.9436 101.907 81.1736 101.907C77.2296 101.907 75.3736 104.923 75.3736 109.418C75.3736 114.116 77.3166 116.929 82.1306 116.929ZM77.1136 108.722C77.1426 105.445 78.4186 103.299 81.1736 103.299C83.9576 103.299 85.1176 105.474 85.1176 108.722H77.1136Z" fill="white"/>
<path d="M183.87 104.442C183.872 104.457 183.87 118.375 183.87 118.375C183.87 118.562 183.744 118.751 183.559 118.751H181.665C180.557 118.753 179.638 117.81 179.636 116.689V104.492C179.551 101.853 177.696 100.459 175.419 100.463C173.144 100.466 171.291 101.921 171.214 104.56V118.392C171.214 118.578 171.083 118.75 170.899 118.75H169.005C167.897 118.752 166.977 117.764 166.975 116.644V104.51C166.891 101.871 165.035 100.477 162.759 100.481C160.483 100.484 158.631 101.883 158.554 104.522V118.41C158.554 118.596 158.423 118.75 158.239 118.75H156.344C155.236 118.752 154.322 117.845 154.32 116.724C154.32 116.724 154.319 104.504 154.32 104.492C154.429 99.136 158.161 96.2935 162.754 96.2875C165.274 96.2836 167.538 97.1353 169.087 98.7892C170.633 97.1304 172.894 96.2736 175.414 96.2697C180.002 96.2647 183.741 99.0933 183.87 104.442Z" fill="white"/>
<path d="M227.51 118.484C227.586 118.595 227.503 118.743 227.366 118.743L223.982 118.752C223.189 118.754 222.416 118.658 221.73 117.697L218.268 112.596C217.997 112.197 217.604 111.724 217.045 111.724C216.487 111.724 216.094 112.197 215.823 112.596L212.361 117.697C211.675 118.658 210.902 118.754 210.109 118.752H206.725C206.588 118.752 206.505 118.595 206.581 118.484L213.257 108.643C213.451 108.356 213.546 108.023 213.542 107.69C213.546 107.357 213.451 107.024 213.257 106.737L206.581 96.8967C206.505 96.7854 206.588 96.6343 206.725 96.6343H210.109C210.902 96.6323 211.675 96.7228 212.361 97.6839L215.823 102.784C216.094 103.184 216.488 103.657 217.045 103.657C217.603 103.657 217.997 103.184 218.268 102.784L221.73 97.6839C222.416 96.7228 223.189 96.6323 223.982 96.6343H227.366C227.503 96.6343 227.586 96.7854 227.51 96.8967L220.834 106.737C220.64 107.024 220.545 107.357 220.549 107.69C220.545 108.023 220.64 108.356 220.834 108.643L227.51 118.484Z" fill="white"/>
<path d="M205.251 96.6342H203.918C203.188 96.6352 202.512 97.0228 202.146 97.653L201.654 98.5117C199.737 96.8996 197.251 96.2725 195.198 96.2725C188.986 96.2725 184.852 100.655 184.852 107.594C184.852 114.589 189.056 118.915 195.148 118.915C197.48 118.915 199.792 118.145 201.271 116.949C201.355 117.999 202.235 118.753 203.31 118.753H205.243C205.431 118.753 205.584 118.672 205.584 118.485L205.592 96.9751C205.592 96.7853 205.44 96.6342 205.251 96.6342ZM195.107 114.7C191.575 114.7 188.987 112.075 188.987 107.593C188.987 103.11 191.575 100.486 195.107 100.486C198.639 100.486 201.227 103.11 201.227 107.593C201.227 112.075 198.639 114.7 195.107 114.7Z" fill="white"/>
<path d="M107.746 104.865H103.84V96.6362H97.6379V118.755H103.84V110.173H107.746V118.755H113.763V96.6362H107.746V104.865Z" fill="white"/>
<path d="M141.339 96.2634C135.14 96.2585 131.973 100.815 131.19 102.654C131.197 99.8931 128.473 96.6351 125.285 96.6312H115.014V118.751L124.59 118.753C128.45 118.753 131.197 115.413 131.202 112.549C132.083 114.352 135.14 118.864 141.339 118.861C147.546 118.859 152.596 113.71 152.594 107.512C152.593 101.184 147.546 96.2684 141.339 96.2634ZM123.788 113.6H120.742V109.862H123.788C124.674 109.862 125.371 110.735 125.371 111.731C125.371 112.726 124.674 113.6 123.788 113.6ZM123.799 105.295H120.753V101.556H123.799C124.684 101.556 125.382 102.43 125.382 103.424C125.382 104.42 124.684 105.295 123.799 105.295ZM127.853 107.517C128.551 107.429 129.713 106.633 130.123 106.124C129.979 106.754 129.968 108.579 130.136 109.21C129.668 108.49 128.562 107.606 127.853 107.517ZM141.343 113.148C138.229 113.148 135.704 110.627 135.704 107.517C135.704 104.408 138.229 101.887 141.343 101.887C144.458 101.887 146.982 104.407 146.982 107.517C146.982 110.627 144.457 113.148 141.343 113.148Z" fill="white"/>
<path d="M141.344 103.092C138.895 103.092 136.911 105.073 136.911 107.517C136.911 109.962 138.896 111.944 141.344 111.944C143.791 111.944 145.776 109.962 145.776 107.517C145.776 105.073 143.791 103.092 141.344 103.092Z" fill="white"/>
<path d="M228.078 96.8379H228.383V97.7165H228.631V96.8379H228.945V96.6332H228.078V96.8379Z" fill="white"/>
<path d="M229.933 96.6332L229.639 97.1152L229.344 96.6332H229.098V97.7165H229.344V97.0874L229.625 97.5466H229.653L229.933 97.0874V97.7165H230.181V96.6332H229.933Z" fill="white"/>
</svg>
