<svg width="143" height="60" viewBox="0 0 143 60" fill="none" xmlns="http://www.w3.org/2000/svg">
<path d="M94.9729 0.140625C90.4374 0.140625 86.4367 2.39678 83.9945 5.83916C85.5529 8.02554 86.46 10.7004 86.46 13.6078C86.46 16.4919 85.5296 19.1668 83.9945 21.3764C86.4367 24.8188 90.4374 27.0749 94.9729 27.0749C102.393 27.0749 108.417 21.0508 108.417 13.631C108.44 6.16479 102.416 0.140625 94.9729 0.140625ZM89.5535 10.2817C89.5535 8.88613 90.6932 7.74642 92.0888 7.74642C93.4843 7.74642 94.624 8.88613 94.624 10.2817C94.624 11.6773 93.4843 12.817 92.0888 12.817C90.6932 12.817 89.5535 11.6773 89.5535 10.2817ZM92.4842 17.8177C92.3213 17.9805 92.112 18.0736 91.8794 18.0736C91.6701 18.0736 91.4375 17.9805 91.2747 17.8177C90.9491 17.4921 90.9491 16.9571 91.2747 16.6315L98.4153 9.49087C98.7409 9.16524 99.2759 9.16524 99.6015 9.49087C99.9271 9.8165 99.9271 10.3515 99.6015 10.6771L92.4842 17.8177ZM98.834 19.5389C97.4384 19.5389 96.2987 18.3992 96.2987 17.0036C96.2987 15.6081 97.4384 14.4684 98.834 14.4684C100.23 14.4684 101.369 15.6081 101.369 17.0036C101.346 18.4225 100.23 19.5389 98.834 19.5389Z" fill="white"/>
<path d="M45.1049 10.6773C44.7328 10.747 44.4769 11.0959 44.5467 11.4681C44.6165 11.8402 44.9654 12.0961 45.3375 12.0263C45.7097 11.9565 45.9655 11.6076 45.8957 11.2355C45.826 10.8633 45.4771 10.6075 45.1049 10.6773Z" fill="white"/>
<path d="M59.5257 5.86235C57.0835 2.41997 53.0828 0.163818 48.5705 0.163818C41.1508 0.163818 35.1266 6.18798 35.1266 13.6077C35.1266 21.0274 41.1508 27.0516 48.5705 27.0516C53.1061 27.0516 57.1067 24.7954 59.5257 21.3531C57.9906 19.1667 57.0602 16.4919 57.0602 13.6077C57.0602 10.7003 57.9906 8.04873 59.5257 5.86235ZM52.6177 19.9575L45.6631 21.074C44.5467 21.26 43.5233 20.4925 43.3372 19.3993L41.8486 10.1886L44.1513 9.81644L44.0582 9.30473C43.7791 7.56028 44.9654 5.90887 46.7331 5.6065C48.4775 5.32739 50.1289 6.51361 50.408 8.28132L50.5011 8.79302L52.8037 8.42088L54.2923 17.6316C54.4784 18.748 53.7109 19.7947 52.6177 19.9575Z" fill="white"/>
<path d="M46.9657 7.07196C46.012 7.23477 45.384 8.11863 45.5236 9.049L45.5934 9.56071L49.0125 9.00248L48.9194 8.49078C48.8031 7.58366 47.9193 6.9324 46.9657 7.07196Z" fill="white"/>
<path d="M49.873 9.90968C49.5008 9.97946 49.245 10.3283 49.3148 10.7005C49.3845 11.0726 49.7334 11.3285 50.1056 11.2587C50.4777 11.1889 50.7336 10.8633 50.6638 10.4679C50.594 10.0958 50.2451 9.8399 49.873 9.90968Z" fill="white"/>
<path d="M82.7385 5.83916C80.2963 2.39678 76.2957 0.140625 71.7601 0.140625C67.2245 0.140625 63.2007 2.39678 60.7817 5.83916C59.2466 8.02554 58.3162 10.7004 58.3162 13.5845C58.3162 16.4687 59.2233 19.1435 60.7817 21.3299C63.2239 24.7723 67.2245 27.0284 71.7601 27.0284C76.2957 27.0284 80.2963 24.7723 82.7385 21.3299C84.2969 19.1435 85.204 16.4687 85.204 13.5613C85.2273 10.7004 84.2969 8.02554 82.7385 5.83916ZM64.6428 11.7238C64.6428 10.5375 65.294 9.58391 66.1081 9.58391C66.9222 9.58391 67.5734 10.5375 67.5734 11.7238C67.5734 12.91 66.9222 13.8636 66.1081 13.8636C65.294 13.8636 64.6428 12.91 64.6428 11.7238ZM76.505 16.7245C76.1096 18.0503 74.7838 21.3764 71.5275 21.3997C68.2712 21.4229 66.9454 18.1201 66.5268 16.8176C66.457 16.5617 66.5965 16.2826 66.7826 16.2826L76.2492 16.2128C76.4585 16.1896 76.5981 16.4687 76.505 16.7245ZM76.8539 13.8636C76.0398 13.8636 75.3886 12.91 75.3886 11.7238C75.3886 10.5375 76.0398 9.58391 76.8539 9.58391C77.668 9.58391 78.3192 10.5375 78.3192 11.7238C78.3192 12.91 77.668 13.8636 76.8539 13.8636Z" fill="white"/>
<path d="M14.2863 52.4974C12.728 54.0325 10.7276 54.7303 8.56453 54.7303C2.95903 54.7303 0.586583 50.8692 0.586583 46.9617C0.563324 43.0308 3.12185 39.007 8.56453 39.007C10.6114 39.007 12.5419 39.7745 14.1002 41.3096L12.2162 43.1471C11.2161 42.1702 9.89032 41.7283 8.5878 41.7283C4.95934 41.7283 3.3777 44.4496 3.40096 46.9617C3.42422 49.4504 4.8663 52.0554 8.5878 52.0554C9.89032 52.0554 11.3789 51.5205 12.3791 50.5203L14.2863 52.4974Z" fill="white"/>
<path d="M26.3811 43.7751L19.8917 58.8239H17.0075L18.9846 54.2186L14.7514 43.7751H17.8216L19.4265 48.3572L20.4267 51.3577L21.5431 48.427L23.4737 43.7751H26.3811Z" fill="white"/>
<path d="M30.3818 39.3326V45.2173C31.0098 44.1241 32.7542 43.5193 33.8707 43.5193C36.9642 43.5193 39.2668 45.4033 39.2668 49.0783C39.2668 52.5672 36.9177 54.6373 33.8009 54.6373C32.4984 54.6373 31.1959 54.1954 30.3818 52.9393L30.219 54.4047H27.7535V39.3559H30.3818V39.3326ZM30.5679 49.0783C30.5679 50.9856 31.9867 52.1951 33.6381 52.1951C35.3128 52.1951 36.6618 50.9158 36.6618 49.0783C36.6618 47.171 35.336 45.9848 33.6381 45.9848C31.9867 45.9616 30.5679 47.2176 30.5679 49.0783Z" fill="white"/>
<path d="M43.4535 50.0087C43.6163 51.3112 44.7561 52.2648 46.6168 52.2648C47.5937 52.2648 48.8497 51.8927 49.4544 51.2647L51.1291 52.9161C50.0127 54.079 48.1752 54.6373 46.5703 54.6373C42.9186 54.6373 40.7322 52.3811 40.7322 48.9852C40.7322 45.7522 42.9418 43.4263 46.3842 43.4263C49.9429 43.4263 52.1525 45.6126 51.7571 49.9854H43.4535V50.0087ZM49.2218 47.8455C49.059 46.4732 47.9658 45.7755 46.4772 45.7755C45.0584 45.7755 43.8955 46.4732 43.5 47.8455H49.2218Z" fill="white"/>
<path d="M56.1996 43.7752L56.3856 45.008C57.1997 43.7054 58.2929 43.4961 59.3861 43.4961C60.4793 43.4961 61.5492 43.938 62.1307 44.5195L60.9445 46.7989C60.4095 46.357 59.921 46.1011 59.0372 46.1011C57.6649 46.1011 56.3856 46.8222 56.3856 48.7992V54.4047H53.7573V43.7985H56.1996V43.7752Z" fill="white"/>
<path d="M76.2725 46.6827C76.3655 50.5205 73.9 54.3816 68.6202 54.3816H63.5264V39.3095H68.6202C73.7372 39.3095 76.1795 42.9845 76.2725 46.6827ZM64.6893 40.4027V53.2651H68.6202C73.1092 53.2651 75.156 49.9158 75.1095 46.6827C75.0397 43.5427 72.9697 40.426 68.6202 40.426H64.6893V40.4027Z" fill="white"/>
<path d="M89.1581 43.7519V54.3814H88.1114V52.1252C87.088 53.7766 85.4831 54.5674 83.7619 54.5674C80.7847 54.5674 78.3657 52.3346 78.3657 49.0782C78.3657 45.8219 80.8079 43.6356 83.7619 43.6356C85.4831 43.6356 87.2275 44.4264 88.1114 46.1011V43.7751H89.1581V43.7519ZM79.3891 49.0782C79.3891 51.7531 81.3197 53.544 83.7386 53.544C89.6697 53.544 89.6697 44.659 83.7386 44.659C81.3429 44.6357 79.3891 46.4034 79.3891 49.0782Z" fill="white"/>
<path d="M100.648 43.7519L94.1588 58.824H93.0423L95.0193 54.2651L90.7396 43.7519H91.8793L94.3681 50.0319L95.6008 53.1254L96.8336 50.0087L99.5084 43.7519H100.648Z" fill="white"/>
<path d="M109.999 45.6825C108.929 44.7288 107.859 44.566 106.672 44.566C105.021 44.5428 103.416 45.1708 103.463 46.5198C103.509 47.9386 105.37 48.2177 106.696 48.4503C108.603 48.776 111.208 49.1016 111.092 51.5671C111.022 53.9163 108.603 54.5443 106.719 54.5443C104.835 54.5443 102.998 53.8232 102.067 52.4044L102.835 51.7066C103.719 52.9859 105.323 53.5209 106.742 53.5209C108.045 53.5209 109.999 53.172 110.068 51.4973C110.115 49.9622 108.347 49.6598 106.603 49.3807C104.533 49.0318 102.486 48.6597 102.463 46.5198C102.439 44.4265 104.533 43.5194 106.672 43.5426C108.231 43.5426 109.58 43.9613 110.627 44.9614L109.999 45.6825Z" fill="white"/>
<path d="M115.767 54.1954C115.767 55.3351 114.046 55.3351 114.046 54.1954C114.046 53.0789 115.767 53.0789 115.767 54.1954Z" fill="white"/>
<path d="M119.279 59.3357V44.1241H120.326V46.6593C121.163 45.0312 122.884 43.9612 124.977 43.9612C127.885 44.0775 130.188 46.0313 130.188 49.4737C130.188 53.0789 127.745 55.0327 124.745 55.0327C122.931 55.0327 121.233 54.1488 120.302 52.3579V59.3124H119.279V59.3357ZM129.141 49.497C129.141 46.4732 127.187 45.0079 124.745 45.0079C122.256 45.0079 120.395 46.8919 120.395 49.5202C120.395 52.1485 122.279 54.0325 124.745 54.0325C127.164 54.0325 129.141 52.4974 129.141 49.497Z" fill="white"/>
<path d="M132.188 49.497C132.188 46.2872 134.63 43.9612 137.654 43.9612C140.678 43.9612 143.376 45.7987 142.957 50.0087H133.281C133.49 52.5207 135.444 53.986 137.654 53.986C139.073 53.986 140.724 53.4278 141.515 52.3579L142.282 52.9626C141.236 54.3349 139.375 55.0327 137.654 55.0327C134.63 55.0094 132.188 52.8928 132.188 49.497ZM142.003 49.055C141.98 46.4035 140.236 44.9149 137.654 44.9149C135.444 44.9149 133.514 46.4035 133.281 49.055H142.003Z" fill="white"/>
</svg>
