<svg width="221" height="131" viewBox="0 0 221 131" fill="none" xmlns="http://www.w3.org/2000/svg">
<path d="M219.614 122.61C219.421 123.653 219.009 124.32 218.462 124.913C217.831 125.597 217.097 126.161 216.317 126.656C215.083 127.437 213.83 128.188 212.585 128.951C212.488 129.011 212.385 129.064 212.292 129.129C212.198 129.194 212.141 129.173 212.074 129.088C211.67 128.568 211.251 128.058 210.856 127.531C210.183 126.635 209.509 125.738 208.864 124.823C208.363 124.111 207.946 123.348 207.685 122.511C207.482 121.86 207.407 121.197 207.563 120.526C207.872 119.195 208.706 118.358 210.025 118.041C211.454 117.697 212.987 118.334 213.818 119.565C213.927 119.727 213.929 119.728 214.091 119.616C215.407 118.709 217.182 118.739 218.391 119.711C219.394 120.518 219.767 121.578 219.614 122.61Z" stroke="white" stroke-width="0.91325"/>
<path d="M45.8719 57.9049C52.69 57.9049 57.4758 56.3315 60.426 53.2503C62.5238 51.0868 63.5728 48.0711 63.5728 44.5965C63.5728 38.7618 60.7537 35.2216 56.0335 33.5171C59.967 31.5504 61.9994 28.2724 61.9994 23.6178C61.9994 19.8809 60.8193 17.2586 58.9181 15.3574C56.1646 12.6039 51.3789 11.2927 45.7408 11.2927C42.2662 11.2927 38.4638 11.6205 35.4481 12.2761V19.2253C38.0704 18.832 41.3484 18.5697 44.233 18.5697C47.7731 18.5697 50.0021 19.0942 51.3133 20.2743C52.3622 21.1921 52.8211 22.6344 52.8211 24.3389C52.8211 26.5023 52.1 28.0102 51.0511 28.928C49.4777 30.3047 47.3798 30.8292 43.2496 30.8292H41.6762V37.3851H42.9218C47.5109 37.3851 50.0021 37.7784 51.6411 38.9585C53.0178 39.9419 53.8701 41.5153 53.8701 43.8754C53.8701 46.3011 53.0178 48.0056 51.4444 49.0545C49.871 50.1035 47.7076 50.5624 44.0363 50.5624C40.7584 50.5624 37.6771 50.2346 35.0547 49.7757V56.856C38.0704 57.5116 42.004 57.9049 45.8719 57.9049Z" stroke="url(#paint0_linear_102_501)" stroke-width="0.456625" stroke-linecap="round"/>
<path d="M85.3126 57.9049C97.7688 57.9049 102.489 49.9723 102.489 34.6316C102.489 19.2909 97.7688 11.2927 85.3126 11.2927C72.8565 11.2927 68.1363 19.2909 68.1363 34.6316C68.1363 49.9723 72.8565 57.9049 85.3126 57.9049ZM85.3126 50.3657C80.0024 50.3657 77.9045 47.0222 77.9045 34.6316C77.9045 22.241 80.0024 18.1764 85.3126 18.1764C90.6229 18.1764 92.7208 22.241 92.7208 34.6316C92.7208 47.0222 90.6229 50.3657 85.3126 50.3657Z" stroke="url(#paint1_linear_102_501)" stroke-width="0.456625" stroke-linecap="round"/>
<path d="M133.962 57.9049C138.879 57.9049 145.697 56.9216 149.959 55.6104V32.7304H133.504V40.073H139.797V49.5134C138.224 49.7757 135.995 49.9723 134.356 49.9723C130.029 49.9723 127.341 48.6612 125.702 46.3666C123.735 43.6132 123.08 39.483 123.08 34.4349C123.08 24.6667 126.817 19.2909 135.864 19.2909C139.404 19.2909 143.272 20.012 146.484 20.9299L147.795 13.4562C144.911 12.2105 139.6 11.2927 135.143 11.2927C119.867 11.2927 112.459 20.7987 112.459 34.8283C112.459 49.0545 117.901 57.9049 133.962 57.9049Z" stroke="url(#paint2_linear_102_501)" stroke-width="0.456625" stroke-linecap="round"/>
<path d="M155.393 56.9871H171.324C178.273 56.9871 182.666 55.8726 185.55 53.3158C187.976 51.1524 189.287 48.0056 189.287 43.6787C189.287 37.7784 185.354 33.7138 179.781 32.9271C183.911 30.8292 186.075 27.748 186.075 23.1588C186.075 19.8809 184.96 17.2586 182.928 15.4885C180.306 13.1939 176.372 12.145 170.013 12.145H155.393V56.9871ZM165.621 29.9769V19.5531H169.357C172.111 19.5531 173.684 19.8809 174.668 20.8643C175.52 21.7166 175.913 22.9622 175.913 24.6011C175.913 26.4368 175.454 27.748 174.602 28.6002C173.488 29.6492 171.914 29.9769 169.095 29.9769H165.621ZM165.621 49.579V37.3851H169.816C173.488 37.3851 175.586 37.7129 176.962 38.8929C178.142 39.8763 178.667 41.4497 178.667 43.8754C178.667 45.711 178.142 47.0222 177.224 47.94C175.979 49.1856 173.619 49.579 169.816 49.579H165.621Z" stroke="url(#paint3_linear_102_501)" stroke-width="0.456625" stroke-linecap="round"/>
<path d="M43.3866 53.221C50.2047 53.221 54.9905 51.6476 57.9406 48.5664C60.0385 46.4029 61.0874 43.3872 61.0874 39.9126C61.0874 34.0779 58.2684 30.5377 53.5482 28.8332C57.4817 26.8665 59.514 23.5885 59.514 18.9339C59.514 15.197 58.334 12.5747 56.4328 10.6735C53.6793 7.92 48.8935 6.60883 43.2555 6.60883C39.7809 6.60883 35.9784 6.93662 32.9627 7.5922V14.5414C35.5851 14.1481 38.863 13.8858 41.7476 13.8858C45.2878 13.8858 47.5168 14.4103 48.8279 15.5904C49.8769 16.5082 50.3358 17.9505 50.3358 19.655C50.3358 21.8184 49.6147 23.3263 48.5657 24.2441C46.9923 25.6208 44.8944 26.1453 40.7642 26.1453H39.1908V32.7012H40.4364C45.0255 32.7012 47.5168 33.0945 49.1557 34.2746C50.5325 35.258 51.3847 36.8314 51.3847 39.1915C51.3847 41.6172 50.5325 43.3217 48.9591 44.3706C47.3857 45.4196 45.2222 45.8785 41.5509 45.8785C38.273 45.8785 35.1917 45.5507 32.5694 45.0918V52.1721C35.5851 52.8277 39.5186 53.221 43.3866 53.221Z" fill="url(#paint4_linear_102_501)"/>
<path d="M82.8273 53.221C95.2834 53.221 100.004 45.2884 100.004 29.9477C100.004 14.607 95.2834 6.60883 82.8273 6.60883C70.3711 6.60883 65.6509 14.607 65.6509 29.9477C65.6509 45.2884 70.3711 53.221 82.8273 53.221ZM82.8273 45.6818C77.517 45.6818 75.4192 42.3383 75.4192 29.9477C75.4192 17.5571 77.517 13.4925 82.8273 13.4925C88.1375 13.4925 90.2354 17.5571 90.2354 29.9477C90.2354 42.3383 88.1375 45.6818 82.8273 45.6818Z" fill="url(#paint5_linear_102_501)"/>
<path d="M131.477 53.221C136.394 53.221 143.212 52.2377 147.473 50.9265V28.0465H131.018V35.3891H137.312V44.8295C135.738 45.0918 133.509 45.2884 131.87 45.2884C127.544 45.2884 124.856 43.9773 123.217 41.6827C121.25 38.9293 120.594 34.7991 120.594 29.751C120.594 19.9828 124.331 14.607 133.378 14.607C136.918 14.607 140.786 15.3281 143.999 16.246L145.31 8.77226C142.425 7.52665 137.115 6.60883 132.657 6.60883C117.382 6.60883 109.974 16.1148 109.974 30.1444C109.974 44.3706 115.415 53.221 131.477 53.221Z" fill="url(#paint6_linear_102_501)"/>
<path d="M152.908 52.3032H168.839C175.788 52.3032 180.181 51.1887 183.065 48.6319C185.491 46.4685 186.802 43.3217 186.802 38.9948C186.802 33.0945 182.868 29.0299 177.296 28.2432C181.426 26.1453 183.59 23.0641 183.59 18.4749C183.59 15.197 182.475 12.5747 180.443 10.8046C177.82 8.51002 173.887 7.46109 167.528 7.46109H152.908V52.3032ZM163.135 25.293V14.8692H166.872C169.626 14.8692 171.199 15.197 172.182 16.1804C173.035 17.0327 173.428 18.2783 173.428 19.9172C173.428 21.7529 172.969 23.0641 172.117 23.9163C171.002 24.9653 169.429 25.293 166.61 25.293H163.135ZM163.135 44.8951V32.7012H167.331C171.002 32.7012 173.1 33.029 174.477 34.209C175.657 35.1924 176.181 36.7658 176.181 39.1915C176.181 41.0271 175.657 42.3383 174.739 43.2561C173.494 44.5017 171.133 44.8951 167.331 44.8951H163.135Z" fill="url(#paint7_linear_102_501)"/>
<path d="M41.6121 46.8449C48.4302 46.8449 53.216 45.2715 56.1661 42.1902C58.264 40.0268 59.3129 37.0111 59.3129 33.5365C59.3129 27.7017 56.4939 24.1616 51.7737 22.4571C55.7072 20.4903 57.7395 17.2124 57.7395 12.5577C57.7395 8.82085 56.5595 6.19851 54.6583 4.2973C51.9048 1.54384 47.119 0.232666 41.481 0.232666C38.0064 0.232666 34.204 0.560459 31.1883 1.21604V8.16527C33.8106 7.77191 37.0886 7.50968 39.9731 7.50968C43.5133 7.50968 45.7423 8.03415 47.0535 9.21421C48.1024 10.132 48.5613 11.5743 48.5613 13.2788C48.5613 15.4423 47.8402 16.9501 46.7912 17.8679C45.2178 19.2447 43.12 19.7691 38.9898 19.7691H37.4163V26.325H38.662C43.2511 26.325 45.7423 26.7184 47.3813 27.8984C48.758 28.8818 49.6103 30.4552 49.6103 32.8153C49.6103 35.241 48.758 36.9455 47.1846 37.9945C45.6112 39.0434 43.4477 39.5023 39.7765 39.5023C36.4985 39.5023 33.4173 39.1745 30.7949 38.7156V45.7959C33.8106 46.4515 37.7441 46.8449 41.6121 46.8449Z" fill="white"/>
<path d="M81.0528 46.8449C93.509 46.8449 98.2292 38.9123 98.2292 23.5716C98.2292 8.23083 93.509 0.232666 81.0528 0.232666C68.5967 0.232666 63.8764 8.23083 63.8764 23.5716C63.8764 38.9123 68.5967 46.8449 81.0528 46.8449ZM81.0528 39.3056C75.7426 39.3056 73.6447 35.9621 73.6447 23.5716C73.6447 11.181 75.7426 7.11633 81.0528 7.11633C86.3631 7.11633 88.4609 11.181 88.4609 23.5716C88.4609 35.9621 86.3631 39.3056 81.0528 39.3056Z" fill="white"/>
<path d="M129.703 46.8449C134.62 46.8449 141.438 45.8615 145.699 44.5503V21.6704H129.244V29.0129H135.537V38.4534C133.964 38.7156 131.735 38.9123 130.096 38.9123C125.769 38.9123 123.081 37.6011 121.442 35.3066C119.475 32.5531 118.82 28.4229 118.82 23.3749C118.82 13.6066 122.557 8.23082 131.604 8.23082C135.144 8.23082 139.012 8.95197 142.224 9.86979L143.535 2.3961C140.651 1.15049 135.341 0.232666 130.883 0.232666C115.608 0.232666 108.199 9.73867 108.199 23.7682C108.199 37.9945 113.641 46.8449 129.703 46.8449Z" fill="white"/>
<path d="M151.134 45.9271H167.064C174.014 45.9271 178.406 44.8126 181.291 42.2558C183.716 40.0923 185.027 36.9455 185.027 32.6186C185.027 26.7184 181.094 22.6537 175.521 21.867C179.652 19.7691 181.815 16.6879 181.815 12.0988C181.815 8.82085 180.701 6.1985 178.668 4.42842C176.046 2.13387 172.112 1.08493 165.753 1.08493H151.134V45.9271ZM161.361 18.9169V8.49306H165.098C167.851 8.49306 169.425 8.82085 170.408 9.80423C171.26 10.6565 171.653 11.9021 171.653 13.5411C171.653 15.3767 171.195 16.6879 170.342 17.5402C169.228 18.5891 167.654 18.9169 164.835 18.9169H161.361ZM161.361 38.5189V26.325H165.557C169.228 26.325 171.326 26.6528 172.702 27.8329C173.882 28.8162 174.407 30.3897 174.407 32.8153C174.407 34.651 173.882 35.9621 172.965 36.88C171.719 38.1256 169.359 38.5189 165.557 38.5189H161.361Z" fill="white"/>
<path d="M50.1049 77.4659C49.3855 77.4659 48.8309 77.2623 48.4409 76.8549C48.1029 76.4996 47.9339 76.0403 47.9339 75.4769C47.9339 74.8963 48.1159 74.4369 48.4799 74.0989C48.9219 73.6916 49.6412 73.4879 50.6379 73.4879H51.9639V73.0849C51.9639 72.8249 51.9379 72.6083 51.8859 72.4349C51.8339 72.2616 51.7515 72.1186 51.6389 72.0059C51.3789 71.7546 50.9369 71.6289 50.3129 71.6289C49.7929 71.6289 49.2209 71.6809 48.5969 71.7849L48.5579 70.9529C49.1732 70.8056 49.8189 70.7319 50.4949 70.7319C51.4049 70.7319 52.0679 70.9269 52.4839 71.3169C52.6832 71.5076 52.8262 71.7416 52.9129 72.0189C52.9995 72.2876 53.0429 72.6299 53.0429 73.0459V77.2839H52.1719L52.1069 76.8549C51.4829 77.2623 50.8155 77.4659 50.1049 77.4659ZM50.3389 76.5949C50.5902 76.5949 50.8632 76.5559 51.1579 76.4779C51.4525 76.3999 51.7212 76.3003 51.9639 76.1789V74.2809H50.7939C50.1265 74.2809 49.6542 74.3893 49.3769 74.6059C49.1429 74.7966 49.0259 75.0783 49.0259 75.4509C49.0259 75.8323 49.1385 76.1183 49.3639 76.3089C49.5892 76.4996 49.9142 76.5949 50.3389 76.5949ZM54.8484 67.9889H55.9274V77.2839H54.8484V67.9889ZM60.4086 70.9139H61.3056L61.3576 71.3819C62.0509 70.9486 62.7356 70.7319 63.4116 70.7319C64.2003 70.7319 64.7766 70.9703 65.1406 71.4469C65.9293 70.9703 66.6919 70.7319 67.4286 70.7319C68.1306 70.7319 68.6636 70.9183 69.0276 71.2909C69.3829 71.6463 69.5606 72.2009 69.5606 72.9549V77.2839H68.4816V73.0849C68.4816 72.8163 68.4556 72.5996 68.4036 72.4349C68.3603 72.2616 68.2823 72.1186 68.1696 72.0059C67.9529 71.7893 67.6193 71.6809 67.1686 71.6809C66.9086 71.6809 66.6269 71.7199 66.3236 71.7979C66.0203 71.8673 65.7299 71.9713 65.4526 72.1099C65.5133 72.3786 65.5436 72.6603 65.5436 72.9549V77.2839H64.4646V73.0849C64.4646 72.8163 64.4386 72.5996 64.3866 72.4349C64.3433 72.2616 64.2653 72.1186 64.1526 72.0059C63.9359 71.7893 63.6023 71.6809 63.1516 71.6809C62.6229 71.6809 62.0683 71.8196 61.4876 72.0969V77.2839H60.4086V70.9139ZM74.121 77.4659C73.1156 77.4659 72.3573 77.2103 71.846 76.6989C71.2913 76.1443 71.014 75.2819 71.014 74.1119C71.014 73.0113 71.261 72.1749 71.755 71.6029C72.2576 71.0223 72.9293 70.7319 73.77 70.7319C74.6453 70.7319 75.304 71.0266 75.746 71.6159C76.188 72.1966 76.409 73.0199 76.409 74.0859V74.3329C76.409 74.4283 76.357 74.4759 76.253 74.4759H72.145C72.145 75.2126 72.3313 75.7543 72.704 76.1009C72.8773 76.2656 73.094 76.3869 73.354 76.4649C73.614 76.5429 73.939 76.5819 74.329 76.5819C74.8403 76.5819 75.3646 76.5256 75.902 76.4129L76.006 77.2189C75.7373 77.2969 75.4296 77.3576 75.083 77.4009C74.745 77.4443 74.4243 77.4659 74.121 77.4659ZM75.343 73.6829C75.3256 73.0416 75.187 72.5346 74.927 72.1619C74.667 71.7893 74.2813 71.6029 73.77 71.6029C73.2413 71.6029 72.8383 71.7849 72.561 72.1489C72.2923 72.5129 72.1536 73.0243 72.145 73.6829H75.343ZM79.6051 77.4659C79.3018 77.4659 78.9725 77.4399 78.6171 77.3879C78.2705 77.3359 77.9758 77.2709 77.7331 77.1929L77.7851 76.3609C78.0451 76.4303 78.3355 76.4866 78.6561 76.5299C78.9855 76.5733 79.2888 76.5949 79.5661 76.5949C80.0861 76.5949 80.4805 76.5126 80.7491 76.3479C81.0265 76.1746 81.1651 75.9233 81.1651 75.5939C81.1651 75.3166 81.0481 75.1086 80.8141 74.9699C80.5801 74.8313 80.2118 74.6839 79.7091 74.5279C79.2585 74.3806 78.8945 74.2463 78.6171 74.1249C78.3485 73.9949 78.1145 73.8043 77.9151 73.5529C77.7158 73.3016 77.6161 72.9723 77.6161 72.5649C77.6161 71.9669 77.8241 71.5119 78.2401 71.1999C78.6648 70.8879 79.2281 70.7319 79.9301 70.7319C80.2421 70.7319 80.5628 70.7579 80.8921 70.8099C81.2301 70.8619 81.5291 70.9269 81.7891 71.0049L81.6981 71.7979C81.0915 71.6593 80.5325 71.5899 80.0211 71.5899C79.0938 71.5899 78.6301 71.8889 78.6301 72.4869C78.6301 72.7729 78.7471 72.9896 78.9811 73.1369C79.2238 73.2843 79.5965 73.4359 80.0991 73.5919C80.5325 73.7219 80.8878 73.8519 81.1651 73.9819C81.4511 74.1119 81.6895 74.3026 81.8801 74.5539C82.0795 74.7966 82.1791 75.1173 82.1791 75.5159C82.1791 76.1659 81.9495 76.6556 81.4901 76.9849C81.0308 77.3056 80.4025 77.4659 79.6051 77.4659ZM87.8528 74.1379L85.7078 70.9139H86.9168L88.5418 73.3449L89.9718 70.9139H91.1548L89.0488 74.0989L91.1808 77.2839H89.9588L88.3598 74.8789L86.9298 77.2839H85.7338L87.8528 74.1379ZM96.9793 77.4659C96.2947 77.4659 95.6577 77.3923 95.0683 77.2449V76.3869C95.6057 76.4996 96.195 76.5559 96.8363 76.5559C97.2437 76.5559 97.5817 76.5256 97.8503 76.4649C98.1277 76.3956 98.3573 76.2916 98.5393 76.1529C98.9207 75.8756 99.1113 75.4336 99.1113 74.8269C99.1113 74.5843 99.0723 74.3589 98.9943 74.1509C98.9163 73.9429 98.808 73.7696 98.6693 73.6309C98.4873 73.4576 98.249 73.3363 97.9543 73.2669C97.6597 73.1889 97.2957 73.1499 96.8623 73.1499H96.6283V72.3439H96.8493C98.21 72.3439 98.8903 71.7893 98.8903 70.6799C98.8903 70.1599 98.743 69.7743 98.4483 69.5229C98.2837 69.3843 98.0713 69.2846 97.8113 69.2239C97.5513 69.1546 97.2263 69.1199 96.8363 69.1199C96.325 69.1199 95.7833 69.1676 95.2113 69.2629V68.4179C95.7833 68.2879 96.3943 68.2229 97.0443 68.2229C98.093 68.2229 98.8557 68.4569 99.3323 68.9249C99.7657 69.3409 99.9823 69.9086 99.9823 70.6279C99.9823 71.1306 99.861 71.5553 99.6183 71.9019C99.3757 72.2399 99.0507 72.4869 98.6433 72.6429C99.146 72.8163 99.536 73.0893 99.8133 73.4619C100.099 73.8346 100.242 74.2939 100.242 74.8399C100.242 75.6719 99.965 76.3176 99.4103 76.7769C98.847 77.2363 98.0367 77.4659 96.9793 77.4659ZM104.829 70.9139H105.726L105.778 71.3819C106.472 70.9486 107.156 70.7319 107.832 70.7319C108.621 70.7319 109.197 70.9703 109.561 71.4469C110.35 70.9703 111.113 70.7319 111.849 70.7319C112.551 70.7319 113.084 70.9183 113.448 71.2909C113.804 71.6463 113.981 72.2009 113.981 72.9549V77.2839H112.902V73.0849C112.902 72.8163 112.876 72.5996 112.824 72.4349C112.781 72.2616 112.703 72.1186 112.59 72.0059C112.374 71.7893 112.04 71.6809 111.589 71.6809C111.329 71.6809 111.048 71.7199 110.744 71.7979C110.441 71.8673 110.151 71.9713 109.873 72.1099C109.934 72.3786 109.964 72.6603 109.964 72.9549V77.2839H108.885V73.0849C108.885 72.8163 108.859 72.5996 108.807 72.4349C108.764 72.2616 108.686 72.1186 108.573 72.0059C108.357 71.7893 108.023 71.6809 107.572 71.6809C107.044 71.6809 106.489 71.8196 105.908 72.0969V77.2839H104.829V70.9139ZM118.542 77.4659C117.537 77.4659 116.778 77.2103 116.267 76.6989C115.712 76.1443 115.435 75.2819 115.435 74.1119C115.435 73.0113 115.682 72.1749 116.176 71.6029C116.679 71.0223 117.35 70.7319 118.191 70.7319C119.066 70.7319 119.725 71.0266 120.167 71.6159C120.609 72.1966 120.83 73.0199 120.83 74.0859V74.3329C120.83 74.4283 120.778 74.4759 120.674 74.4759H116.566C116.566 75.2126 116.752 75.7543 117.125 76.1009C117.298 76.2656 117.515 76.3869 117.775 76.4649C118.035 76.5429 118.36 76.5819 118.75 76.5819C119.261 76.5819 119.786 76.5256 120.323 76.4129L120.427 77.2189C120.158 77.2969 119.851 77.3576 119.504 77.4009C119.166 77.4443 118.845 77.4659 118.542 77.4659ZM119.764 73.6829C119.747 73.0416 119.608 72.5346 119.348 72.1619C119.088 71.7893 118.702 71.6029 118.191 71.6029C117.662 71.6029 117.259 71.7849 116.982 72.1489C116.713 72.5129 116.575 73.0243 116.566 73.6829H119.764ZM124.026 77.4659C123.723 77.4659 123.393 77.4399 123.038 77.3879C122.691 77.3359 122.397 77.2709 122.154 77.1929L122.206 76.3609C122.466 76.4303 122.756 76.4866 123.077 76.5299C123.406 76.5733 123.71 76.5949 123.987 76.5949C124.507 76.5949 124.901 76.5126 125.17 76.3479C125.447 76.1746 125.586 75.9233 125.586 75.5939C125.586 75.3166 125.469 75.1086 125.235 74.9699C125.001 74.8313 124.633 74.6839 124.13 74.5279C123.679 74.3806 123.315 74.2463 123.038 74.1249C122.769 73.9949 122.535 73.8043 122.336 73.5529C122.137 73.3016 122.037 72.9723 122.037 72.5649C122.037 71.9669 122.245 71.5119 122.661 71.1999C123.086 70.8879 123.649 70.7319 124.351 70.7319C124.663 70.7319 124.984 70.7579 125.313 70.8099C125.651 70.8619 125.95 70.9269 126.21 71.0049L126.119 71.7979C125.512 71.6593 124.953 71.5899 124.442 71.5899C123.515 71.5899 123.051 71.8889 123.051 72.4869C123.051 72.7729 123.168 72.9896 123.402 73.1369C123.645 73.2843 124.017 73.4359 124.52 73.5919C124.953 73.7219 125.309 73.8519 125.586 73.9819C125.872 74.1119 126.11 74.3026 126.301 74.5539C126.5 74.7966 126.6 75.1173 126.6 75.5159C126.6 76.1659 126.37 76.6556 125.911 76.9849C125.452 77.3056 124.823 77.4659 124.026 77.4659ZM130.894 77.4659C129.889 77.4659 129.131 77.2103 128.619 76.6989C128.065 76.1443 127.787 75.2819 127.787 74.1119C127.787 73.0113 128.034 72.1749 128.528 71.6029C129.031 71.0223 129.703 70.7319 130.543 70.7319C131.419 70.7319 132.077 71.0266 132.519 71.6159C132.961 72.1966 133.182 73.0199 133.182 74.0859V74.3329C133.182 74.4283 133.13 74.4759 133.026 74.4759H128.918C128.918 75.2126 129.105 75.7543 129.477 76.1009C129.651 76.2656 129.867 76.3869 130.127 76.4649C130.387 76.5429 130.712 76.5819 131.102 76.5819C131.614 76.5819 132.138 76.5256 132.675 76.4129L132.779 77.2189C132.511 77.2969 132.203 77.3576 131.856 77.4009C131.518 77.4443 131.198 77.4659 130.894 77.4659ZM132.116 73.6829C132.099 73.0416 131.96 72.5346 131.7 72.1619C131.44 71.7893 131.055 71.6029 130.543 71.6029C130.015 71.6029 129.612 71.7849 129.334 72.1489C129.066 72.5129 128.927 73.0243 128.918 73.6829H132.116ZM136.379 77.4659C136.075 77.4659 135.746 77.4399 135.391 77.3879C135.044 77.3359 134.749 77.2709 134.507 77.1929L134.559 76.3609C134.819 76.4303 135.109 76.4866 135.43 76.5299C135.759 76.5733 136.062 76.5949 136.34 76.5949C136.86 76.5949 137.254 76.5126 137.523 76.3479C137.8 76.1746 137.939 75.9233 137.939 75.5939C137.939 75.3166 137.822 75.1086 137.588 74.9699C137.354 74.8313 136.985 74.6839 136.483 74.5279C136.032 74.3806 135.668 74.2463 135.391 74.1249C135.122 73.9949 134.888 73.8043 134.689 73.5529C134.489 73.3016 134.39 72.9723 134.39 72.5649C134.39 71.9669 134.598 71.5119 135.014 71.1999C135.438 70.8879 136.002 70.7319 136.704 70.7319C137.016 70.7319 137.336 70.7579 137.666 70.8099C138.004 70.8619 138.303 70.9269 138.563 71.0049L138.472 71.7979C137.865 71.6593 137.306 71.5899 136.795 71.5899C135.867 71.5899 135.404 71.8889 135.404 72.4869C135.404 72.7729 135.521 72.9896 135.755 73.1369C135.997 73.2843 136.37 73.4359 136.873 73.5919C137.306 73.7219 137.661 73.8519 137.939 73.9819C138.225 74.1119 138.463 74.3026 138.654 74.5539C138.853 74.7966 138.953 75.1173 138.953 75.5159C138.953 76.1659 138.723 76.6556 138.264 76.9849C137.804 77.3056 137.176 77.4659 136.379 77.4659ZM143.131 70.9139H144.028L144.08 71.3819C144.401 71.1653 144.735 71.0049 145.081 70.9009C145.437 70.7883 145.766 70.7319 146.069 70.7319C146.875 70.7319 147.482 71.0309 147.889 71.6289C148.305 72.2183 148.513 73.0329 148.513 74.0729C148.513 75.2343 148.297 76.0923 147.863 76.6469C147.43 77.1929 146.819 77.4659 146.03 77.4659C145.701 77.4659 145.372 77.4226 145.042 77.3359C144.722 77.2493 144.444 77.1323 144.21 76.9849V80.2089H143.131V70.9139ZM145.757 76.5689C146.338 76.5689 146.754 76.3783 147.005 75.9969C147.257 75.6069 147.382 74.9613 147.382 74.0599C147.382 73.2453 147.257 72.6429 147.005 72.2529C146.754 71.8543 146.364 71.6549 145.835 71.6549C145.593 71.6549 145.324 71.6939 145.029 71.7719C144.735 71.8499 144.462 71.9539 144.21 72.0839V76.1789C144.401 76.2916 144.639 76.3869 144.925 76.4649C145.211 76.5343 145.489 76.5689 145.757 76.5689ZM151.832 77.4659C151.113 77.4659 150.558 77.2623 150.168 76.8549C149.83 76.4996 149.661 76.0403 149.661 75.4769C149.661 74.8963 149.843 74.4369 150.207 74.0989C150.649 73.6916 151.369 73.4879 152.365 73.4879H153.691V73.0849C153.691 72.8249 153.665 72.6083 153.613 72.4349C153.561 72.2616 153.479 72.1186 153.366 72.0059C153.106 71.7546 152.664 71.6289 152.04 71.6289C151.52 71.6289 150.948 71.6809 150.324 71.7849L150.285 70.9529C150.901 70.8056 151.546 70.7319 152.222 70.7319C153.132 70.7319 153.795 70.9269 154.211 71.3169C154.411 71.5076 154.554 71.7416 154.64 72.0189C154.727 72.2876 154.77 72.6299 154.77 73.0459V77.2839H153.899L153.834 76.8549C153.21 77.2623 152.543 77.4659 151.832 77.4659ZM152.066 76.5949C152.318 76.5949 152.591 76.5559 152.885 76.4779C153.18 76.3999 153.449 76.3003 153.691 76.1789V74.2809H152.521C151.854 74.2809 151.382 74.3893 151.104 74.6059C150.87 74.7966 150.753 75.0783 150.753 75.4509C150.753 75.8323 150.866 76.1183 151.091 76.3089C151.317 76.4996 151.642 76.5949 152.066 76.5949ZM156.563 70.9139H157.46L157.525 71.4599C158.106 70.9746 158.708 70.7319 159.332 70.7319C159.462 70.7319 159.601 70.7449 159.748 70.7709V71.7329C159.557 71.7156 159.371 71.7069 159.189 71.7069C158.617 71.7069 158.101 71.8499 157.642 72.1359V77.2839H156.563V70.9139ZM162.408 77.4659C161.688 77.4659 161.134 77.2623 160.744 76.8549C160.406 76.4996 160.237 76.0403 160.237 75.4769C160.237 74.8963 160.419 74.4369 160.783 74.0989C161.225 73.6916 161.944 73.4879 162.941 73.4879H164.267V73.0849C164.267 72.8249 164.241 72.6083 164.189 72.4349C164.137 72.2616 164.054 72.1186 163.942 72.0059C163.682 71.7546 163.24 71.6289 162.616 71.6289C162.096 71.6289 161.524 71.6809 160.9 71.7849L160.861 70.9529C161.476 70.8056 162.122 70.7319 162.798 70.7319C163.708 70.7319 164.371 70.9269 164.787 71.3169C164.986 71.5076 165.129 71.7416 165.216 72.0189C165.302 72.2876 165.346 72.6299 165.346 73.0459V77.2839H164.475L164.41 76.8549C163.786 77.2623 163.118 77.4659 162.408 77.4659ZM162.642 76.5949C162.893 76.5949 163.166 76.5559 163.461 76.4779C163.755 76.3999 164.024 76.3003 164.267 76.1789V74.2809H163.097C162.429 74.2809 161.957 74.3893 161.68 74.6059C161.446 74.7966 161.329 75.0783 161.329 75.4509C161.329 75.8323 161.441 76.1183 161.667 76.3089C161.892 76.4996 162.217 76.5949 162.642 76.5949Z" fill="white"/>
<path fill-rule="evenodd" clip-rule="evenodd" d="M71.8261 103.069C74.1918 104.76 77.0902 105.754 80.2202 105.754V99.7337C79.6278 99.7339 79.037 99.6721 78.4574 99.5493V104.288C75.3276 104.288 72.4296 103.294 70.0633 101.604V113.889C70.0633 120.035 65.0785 125.017 58.9297 125.017C56.6355 125.017 54.503 124.324 52.7316 123.135C54.7534 125.201 57.5728 126.483 60.6921 126.483C66.8413 126.483 71.8263 121.501 71.8263 115.355V103.069H71.8261ZM74.0007 96.9955C72.7917 95.6754 71.998 93.9692 71.8261 92.083V91.3087H70.1556C70.576 93.7059 72.0103 95.7541 74.0007 96.9955V96.9955ZM56.6206 118.419C55.9452 117.534 55.5801 116.451 55.5817 115.337C55.5817 112.526 57.8618 110.247 60.6748 110.247C61.199 110.247 61.72 110.327 62.2197 110.486V104.331C61.6359 104.251 61.0467 104.217 60.4575 104.23V109.02C59.9576 108.862 59.4363 108.781 58.912 108.782C56.099 108.782 53.8191 111.061 53.8191 113.872C53.8191 115.86 54.9587 117.581 56.6206 118.419V118.419Z" fill="#FE2C55"/>
<path fill-rule="evenodd" clip-rule="evenodd" d="M70.0622 101.604C72.4286 103.294 75.3265 104.288 78.4563 104.288V99.5493C76.7093 99.1775 75.1626 98.2649 73.9997 96.9955C72.0092 95.7541 70.575 93.7059 70.1545 91.3087H65.7666V115.355C65.7566 118.158 63.4804 120.428 60.6735 120.428C59.0194 120.428 57.5499 119.64 56.6193 118.419C54.9574 117.581 53.8178 115.86 53.8178 113.872C53.8178 111.061 56.0977 108.782 58.9107 108.782C59.4496 108.782 59.969 108.866 60.4562 109.02V104.23C54.4155 104.354 49.5572 109.288 49.5572 115.355C49.5572 118.384 50.7671 121.129 52.7305 123.135C54.502 124.324 56.6344 125.017 58.9286 125.017C65.0774 125.017 70.0622 120.035 70.0622 113.89V101.604Z" fill="white"/>
<path fill-rule="evenodd" clip-rule="evenodd" d="M78.4567 99.5491V98.2677C76.8811 98.27 75.3367 97.829 74 96.9951C75.1833 98.2899 76.7413 99.1828 78.4567 99.5491V99.5491ZM70.1549 91.3084C70.1147 91.0794 70.0839 90.8487 70.0625 90.6171V89.8428H64.0039V113.889C63.9941 116.692 61.7181 118.962 58.911 118.962C58.0868 118.962 57.3088 118.766 56.6197 118.419C57.5502 119.64 59.0197 120.427 60.6738 120.427C63.4805 120.427 65.757 118.158 65.7669 115.354V91.3084H70.1549ZM60.4568 104.229V102.865C59.9505 102.796 59.4401 102.761 58.9292 102.762C52.7797 102.762 47.7949 107.744 47.7949 113.889C47.7949 117.742 49.754 121.138 52.7311 123.135C50.7676 121.129 49.5578 118.383 49.5578 115.354C49.5578 109.287 54.4159 104.354 60.4568 104.229V104.229Z" fill="#25F4EE"/>
<path fill-rule="evenodd" clip-rule="evenodd" d="M148.723 117.758C153.081 117.758 156.614 114.254 156.614 109.932C156.614 105.61 153.081 102.105 148.723 102.105H147.534C151.892 102.105 155.425 105.61 155.425 109.932C155.425 114.254 151.892 117.758 147.534 117.758H148.723Z" fill="#EE1D51"/>
<path fill-rule="evenodd" clip-rule="evenodd" d="M147.426 102.105H146.237C141.879 102.105 138.346 105.61 138.346 109.932C138.346 114.254 141.879 117.758 146.237 117.758H147.426C143.067 117.758 139.535 114.254 139.535 109.932C139.535 105.61 143.067 102.105 147.426 102.105V102.105Z" fill="#66C8CF"/>
<path fill-rule="evenodd" clip-rule="evenodd" d="M87.4384 98.5678V102.535H92.0854V117.651H96.7341V102.642H100.517L101.814 98.5678H87.4384ZM125.485 98.5678V102.535H130.132V117.651H134.78V102.642H138.563L139.86 98.5678H125.485ZM102.679 100.819C102.679 99.576 103.694 98.5678 104.947 98.5678C106.202 98.5678 107.217 99.576 107.217 100.819C107.217 102.062 106.202 103.07 104.947 103.07C103.694 103.07 102.679 102.062 102.679 100.819ZM102.679 104.679H107.217V117.651H102.679V104.679ZM109.163 98.5678V117.651H113.703V112.72L115.108 111.432L119.54 117.759H124.403L118.025 108.538L123.754 102.963H118.242L113.703 107.465V98.5678H109.163ZM158.125 98.5678V117.651H162.666V112.72L164.071 111.432L168.503 117.759H173.367L166.989 108.538L172.718 102.963H167.206L162.666 107.465V98.5678H158.125Z" fill="white"/>
<path fill-rule="evenodd" clip-rule="evenodd" d="M147.533 117.758C151.891 117.758 155.424 114.254 155.424 109.932C155.424 105.61 151.891 102.105 147.533 102.105H147.425C143.068 102.105 139.535 105.61 139.535 109.932C139.535 114.254 143.068 117.758 147.425 117.758H147.533ZM143.642 109.932C143.642 107.83 145.361 106.127 147.48 106.127C149.598 106.127 151.317 107.83 151.317 109.932C151.317 112.034 149.598 113.739 147.48 113.739C145.361 113.738 143.642 112.034 143.642 109.932Z" fill="white"/>
<path d="M211.416 13.3488C211.417 14.0685 211.225 14.5643 210.934 15.0281C210.597 15.5625 210.178 16.0299 209.719 16.4569C208.993 17.1311 208.251 17.7875 207.515 18.4514C207.458 18.5034 207.396 18.5511 207.341 18.6063C207.287 18.6614 207.246 18.6545 207.191 18.6063C206.857 18.3093 206.514 18.0213 206.185 17.7189C205.625 17.2044 205.064 16.69 204.52 16.1595C204.098 15.7472 203.725 15.29 203.447 14.7637C203.231 14.3547 203.098 13.9218 203.119 13.4551C203.16 12.5286 203.612 11.8668 204.453 11.4916C205.363 11.0847 206.465 11.3193 207.172 12.0375C207.265 12.1319 207.266 12.1319 207.361 12.0375C208.126 11.2693 209.313 11.0686 210.241 11.567C211.01 11.9806 211.391 12.6416 211.416 13.3488Z" stroke="white" stroke-width="0.91325"/>
<path d="M11.416 33.3488C11.4172 34.0685 11.2252 34.5643 10.9338 35.0281C10.5974 35.5625 10.1782 36.0299 9.71923 36.4569C8.9934 37.1311 8.25086 37.7875 7.51523 38.4514C7.45752 38.5034 7.39563 38.5511 7.3413 38.6063C7.28696 38.6614 7.24629 38.6545 7.19131 38.6063C6.85677 38.3093 6.51419 38.0213 6.18496 37.7189C5.62488 37.2044 5.06384 36.69 4.51999 36.1595C4.09752 35.7472 3.72472 35.29 3.44693 34.7637C3.23088 34.3547 3.09841 33.9218 3.11883 33.4551C3.15966 32.5286 3.61219 31.8668 4.45312 31.4916C5.36317 31.0847 6.46468 31.3193 7.17202 32.0375C7.26494 32.1319 7.26606 32.1319 7.36075 32.0375C8.12563 31.2693 9.31331 31.0686 10.2406 31.567C11.0098 31.9806 11.3906 32.6416 11.416 33.3488Z" stroke="white" stroke-width="0.91325"/>
<path d="M12.8716 95.483C12.6624 96.4452 12.2607 97.0515 11.7353 97.586C11.1294 98.2016 10.4322 98.7036 9.69377 99.1398C8.52631 99.8283 7.34174 100.488 6.16419 101.16C6.07186 101.212 5.97516 101.258 5.8864 101.316C5.79763 101.374 5.7453 101.353 5.68595 101.272C5.32582 100.777 4.95235 100.292 4.60091 99.7913C4.00305 98.9398 3.4039 98.088 2.83245 97.2198C2.3886 96.545 2.02427 95.8248 1.80716 95.0401C1.63818 94.4302 1.58793 93.8129 1.75188 93.1952C2.07776 91.969 2.87636 91.217 4.11008 90.9618C5.44545 90.6846 6.84886 91.3206 7.58382 92.4877C7.68036 92.641 7.68187 92.6413 7.83605 92.5429C9.08325 91.7402 10.7293 91.8199 11.8225 92.7574C12.7294 93.5355 13.0448 94.5305 12.8716 95.483Z" stroke="white" stroke-width="0.91325"/>
<defs>
<linearGradient id="paint0_linear_102_501" x1="112.171" y1="11.2927" x2="112.171" y2="57.9049" gradientUnits="userSpaceOnUse">
<stop stop-color="#019DF4"/>
<stop offset="1" stop-color="#0B2739"/>
</linearGradient>
<linearGradient id="paint1_linear_102_501" x1="112.171" y1="11.2927" x2="112.171" y2="57.9049" gradientUnits="userSpaceOnUse">
<stop stop-color="#019DF4"/>
<stop offset="1" stop-color="#0B2739"/>
</linearGradient>
<linearGradient id="paint2_linear_102_501" x1="112.171" y1="11.2927" x2="112.171" y2="57.9049" gradientUnits="userSpaceOnUse">
<stop stop-color="#019DF4"/>
<stop offset="1" stop-color="#0B2739"/>
</linearGradient>
<linearGradient id="paint3_linear_102_501" x1="112.171" y1="11.2927" x2="112.171" y2="57.9049" gradientUnits="userSpaceOnUse">
<stop stop-color="#019DF4"/>
<stop offset="1" stop-color="#0B2739"/>
</linearGradient>
<linearGradient id="paint4_linear_102_501" x1="109.686" y1="6.60883" x2="109.686" y2="53.221" gradientUnits="userSpaceOnUse">
<stop stop-color="#019DF4"/>
<stop offset="1" stop-color="#0B2739"/>
</linearGradient>
<linearGradient id="paint5_linear_102_501" x1="109.686" y1="6.60883" x2="109.686" y2="53.221" gradientUnits="userSpaceOnUse">
<stop stop-color="#019DF4"/>
<stop offset="1" stop-color="#0B2739"/>
</linearGradient>
<linearGradient id="paint6_linear_102_501" x1="109.686" y1="6.60883" x2="109.686" y2="53.221" gradientUnits="userSpaceOnUse">
<stop stop-color="#019DF4"/>
<stop offset="1" stop-color="#0B2739"/>
</linearGradient>
<linearGradient id="paint7_linear_102_501" x1="109.686" y1="6.60883" x2="109.686" y2="53.221" gradientUnits="userSpaceOnUse">
<stop stop-color="#019DF4"/>
<stop offset="1" stop-color="#0B2739"/>
</linearGradient>
</defs>
</svg>
