<svg width="358" height="202" viewBox="0 0 358 202" fill="none" xmlns="http://www.w3.org/2000/svg">
<path d="M82.8619 89.2934C93.3861 89.2934 100.773 86.8648 105.327 82.1086C108.565 78.7692 110.184 74.1143 110.184 68.7509C110.184 59.7446 105.833 54.2801 98.547 51.6491C104.619 48.6132 107.756 43.5535 107.756 36.3687C107.756 30.6006 105.934 26.5528 103 23.6182C98.7494 19.368 91.3622 17.3441 82.6595 17.3441C77.2962 17.3441 71.4269 17.8501 66.772 18.862V29.5887C70.8197 28.9815 75.8795 28.5767 80.332 28.5767C85.7965 28.5767 89.2371 29.3863 91.261 31.2078C92.8802 32.6245 93.5885 34.8508 93.5885 37.4818C93.5885 40.8212 92.4754 43.1487 90.8563 44.5654C88.4276 46.6905 85.1894 47.5001 78.8141 47.5001H76.3854V57.6195H78.3081C85.3918 57.6195 89.2372 58.2267 91.767 60.0482C93.8921 61.5661 95.2076 63.9948 95.2076 67.6378C95.2076 71.382 93.8921 74.0131 91.4634 75.6322C89.0348 77.2513 85.6953 77.9596 80.0284 77.9596C74.9687 77.9596 70.2126 77.4537 66.1648 76.7453V87.6743C70.8197 88.6863 76.8914 89.2934 82.8619 89.2934Z" stroke="url(#paint0_linear_102_500)" stroke-width="0.386318" stroke-linecap="round"/>
<path d="M143.741 89.2934C162.968 89.2934 170.254 77.0489 170.254 53.3694C170.254 29.6899 162.968 17.3441 143.741 17.3441C124.515 17.3441 117.229 29.6899 117.229 53.3694C117.229 77.0489 124.515 89.2934 143.741 89.2934ZM143.741 77.6561C135.545 77.6561 132.306 72.4951 132.306 53.3694C132.306 34.2436 135.545 27.9695 143.741 27.9695C151.938 27.9695 155.176 34.2436 155.176 53.3694C155.176 72.4951 151.938 77.6561 143.741 77.6561Z" stroke="url(#paint1_linear_102_500)" stroke-width="0.386318" stroke-linecap="round"/>
<path d="M218.836 89.2934C226.426 89.2934 236.95 87.7755 243.527 85.7516V50.4347H218.128V61.7685H227.842V76.3405C225.414 76.7453 221.973 77.0489 219.443 77.0489C212.764 77.0489 208.615 75.025 206.085 71.4832C203.05 67.233 202.038 60.8578 202.038 53.0658C202.038 37.9878 207.806 29.6898 221.771 29.6898C227.235 29.6898 233.206 30.803 238.164 32.2197L240.188 20.6835C235.735 18.7608 227.539 17.3441 220.657 17.3441C197.079 17.3441 185.644 32.0173 185.644 53.673C185.644 75.6322 194.043 89.2934 218.836 89.2934Z" stroke="url(#paint2_linear_102_500)" stroke-width="0.386318" stroke-linecap="round"/>
<path d="M251.916 87.8767H276.507C287.233 87.8767 294.013 86.1564 298.466 82.2098C302.21 78.8704 304.234 74.0131 304.234 67.3342C304.234 58.2267 298.162 51.9526 289.561 50.7383C295.936 47.5001 299.275 42.7439 299.275 35.6603C299.275 30.6006 297.555 26.5528 294.418 23.8206C290.37 20.2788 284.299 18.6596 274.483 18.6596H251.916V87.8767ZM267.703 46.1846V30.0946H273.471C277.721 30.0946 280.15 30.6006 281.667 32.1185C282.983 33.434 283.59 35.3567 283.59 37.8866C283.59 40.7201 282.882 42.7439 281.566 44.0595C279.846 45.6786 277.417 46.1846 273.066 46.1846H267.703ZM267.703 76.4417V57.6195H274.179C279.846 57.6195 283.084 58.1255 285.209 59.947C287.031 61.4649 287.84 63.8936 287.84 67.6378C287.84 70.4712 287.031 72.4951 285.614 73.9119C283.691 75.8346 280.048 76.4417 274.179 76.4417H267.703Z" stroke="url(#paint3_linear_102_500)" stroke-width="0.386318" stroke-linecap="round"/>
<path d="M79.0259 82.0636C89.5501 82.0636 96.9373 79.6349 101.491 74.8788C104.729 71.5394 106.348 66.8844 106.348 61.5211C106.348 52.5148 101.997 47.0503 94.711 44.4192C100.783 41.3834 103.92 36.3237 103.92 29.1389C103.92 23.3708 102.098 19.323 99.1636 16.3883C94.9134 12.1382 87.5262 10.1143 78.8235 10.1143C73.4602 10.1143 67.5909 10.6203 62.936 11.6322V22.3588C66.9837 21.7517 72.0435 21.3469 76.496 21.3469C81.9605 21.3469 85.4012 22.1564 87.425 23.9779C89.0442 25.3947 89.7525 27.6209 89.7525 30.252C89.7525 33.5914 88.6394 35.9189 87.0203 37.3356C84.5916 39.4607 81.3534 40.2703 74.9781 40.2703H72.5494V50.3897H74.4721C81.5558 50.3897 85.4012 50.9969 87.931 52.8184C90.0561 54.3363 91.3716 56.765 91.3716 60.408C91.3716 64.1522 90.0561 66.7832 87.6274 68.4023C85.1988 70.0215 81.8593 70.7298 76.1924 70.7298C71.1327 70.7298 66.3766 70.2238 62.3288 69.5155V80.4445C66.9837 81.4564 73.0554 82.0636 79.0259 82.0636Z" fill="url(#paint4_linear_102_500)"/>
<path d="M139.905 82.0636C159.132 82.0636 166.418 69.8191 166.418 46.1395C166.418 22.46 159.132 10.1143 139.905 10.1143C120.679 10.1143 113.393 22.46 113.393 46.1395C113.393 69.8191 120.679 82.0636 139.905 82.0636ZM139.905 70.4262C131.709 70.4262 128.47 65.2653 128.47 46.1395C128.47 27.0138 131.709 20.7397 139.905 20.7397C148.102 20.7397 151.34 27.0138 151.34 46.1395C151.34 65.2653 148.102 70.4262 139.905 70.4262Z" fill="url(#paint5_linear_102_500)"/>
<path d="M215 82.0636C222.59 82.0636 233.114 80.5457 239.691 78.5218V43.2049H214.292V54.5387H224.006V69.1107C221.578 69.5155 218.137 69.8191 215.607 69.8191C208.928 69.8191 204.779 67.7952 202.249 64.2534C199.214 60.0032 198.202 53.6279 198.202 45.836C198.202 30.758 203.97 22.46 217.935 22.46C223.399 22.46 229.37 23.5732 234.328 24.9899L236.352 13.4537C231.899 11.531 223.703 10.1143 216.821 10.1143C193.243 10.1143 181.808 24.7875 181.808 46.4431C181.808 68.4023 190.207 82.0636 215 82.0636Z" fill="url(#paint6_linear_102_500)"/>
<path d="M248.08 80.6469H272.671C283.397 80.6469 290.177 78.9266 294.63 74.98C298.374 71.6406 300.398 66.7832 300.398 60.1044C300.398 50.9969 294.326 44.7228 285.725 43.5085C292.1 40.2703 295.439 35.5141 295.439 28.4305C295.439 23.3708 293.719 19.323 290.582 16.5907C286.534 13.0489 280.463 11.4298 270.647 11.4298H248.08V80.6469ZM263.867 38.9547V22.8648H269.635C273.885 22.8648 276.314 23.3708 277.831 24.8887C279.147 26.2042 279.754 28.1269 279.754 30.6568C279.754 33.4902 279.046 35.5141 277.73 36.8296C276.01 38.4488 273.581 38.9547 269.23 38.9547H263.867ZM263.867 69.2119V50.3897H270.343C276.01 50.3897 279.248 50.8957 281.373 52.7172C283.195 54.2351 284.004 56.6638 284.004 60.408C284.004 63.2414 283.195 65.2653 281.778 66.682C279.855 68.6047 276.212 69.2119 270.343 69.2119H263.867Z" fill="url(#paint7_linear_102_500)"/>
<path d="M76.2868 72.2215C86.8111 72.2215 94.1983 69.7929 98.752 65.0367C101.99 61.6973 103.609 57.0424 103.609 51.679C103.609 42.6727 99.258 37.2082 91.972 34.5772C98.0436 31.5413 101.181 26.4816 101.181 19.2968C101.181 13.5287 99.3592 9.48092 96.4245 6.54628C92.1744 2.29611 84.7872 0.272217 76.0844 0.272217C70.7211 0.272217 64.8518 0.778188 60.1969 1.79013V12.5168C64.2447 11.9096 69.3044 11.5048 73.757 11.5048C79.2215 11.5048 82.6621 12.3144 84.686 14.1359C86.3051 15.5526 87.0134 17.7789 87.0134 20.4099C87.0134 23.7493 85.9003 26.0768 84.2812 27.4935C81.8525 29.6186 78.6143 30.4282 72.239 30.4282H69.8104V40.5476H71.7331C78.8167 40.5476 82.6621 41.1548 85.1919 42.9763C87.317 44.4942 88.6326 46.9229 88.6326 50.5659C88.6326 54.3101 87.317 56.9412 84.8884 58.5603C82.4597 60.1794 79.1203 60.8877 73.4534 60.8877C68.3936 60.8877 63.6375 60.3818 59.5897 59.6734V70.6024C64.2447 71.6144 70.3163 72.2215 76.2868 72.2215Z" fill="white"/>
<path d="M137.166 72.2215C156.393 72.2215 163.679 59.977 163.679 36.2975C163.679 12.618 156.393 0.272217 137.166 0.272217C117.939 0.272217 110.653 12.618 110.653 36.2975C110.653 59.977 117.939 72.2215 137.166 72.2215ZM137.166 60.5842C128.97 60.5842 125.731 55.4232 125.731 36.2975C125.731 17.1717 128.97 10.8976 137.166 10.8976C145.363 10.8976 148.601 17.1717 148.601 36.2975C148.601 55.4232 145.363 60.5842 137.166 60.5842Z" fill="white"/>
<path d="M212.261 72.2215C219.85 72.2215 230.375 70.7036 236.952 68.6797V33.3628H211.553V44.6966H221.267V59.2686C218.839 59.6734 215.398 59.977 212.868 59.977C206.189 59.977 202.04 57.9531 199.51 54.4113C196.475 50.1611 195.463 43.7859 195.463 35.9939C195.463 20.9159 201.231 12.6179 215.196 12.6179C220.66 12.6179 226.631 13.7311 231.589 15.1478L233.613 3.61164C229.16 1.68894 220.964 0.272217 214.082 0.272217C190.504 0.272217 179.069 14.9454 179.069 36.6011C179.069 58.5603 187.468 72.2215 212.261 72.2215Z" fill="white"/>
<path d="M245.341 70.8048H269.931C280.658 70.8048 287.438 69.0845 291.891 65.1379C295.635 61.7985 297.659 56.9412 297.659 50.2623C297.659 41.1548 291.587 34.8807 282.986 33.6664C289.361 30.4282 292.7 25.672 292.7 18.5884C292.7 13.5287 290.98 9.48092 287.843 6.74867C283.795 3.20685 277.723 1.58775 267.908 1.58775H245.341V70.8048ZM261.128 29.1127V13.0227H266.896C271.146 13.0227 273.574 13.5287 275.092 15.0466C276.408 16.3621 277.015 18.2848 277.015 20.8147C277.015 23.6482 276.307 25.672 274.991 26.9876C273.271 28.6067 270.842 29.1127 266.491 29.1127H261.128ZM261.128 59.3698V40.5476H267.604C273.271 40.5476 276.509 41.0536 278.634 42.8751C280.456 44.393 281.265 46.8217 281.265 50.5659C281.265 53.3993 280.456 55.4232 279.039 56.84C277.116 58.7627 273.473 59.3698 267.604 59.3698H261.128Z" fill="white"/>
<path d="M76.7153 124.35C75.482 124.35 74.4903 124.025 73.7403 123.375C72.9903 122.725 72.6153 121.783 72.6153 120.55C72.6153 119.433 72.932 118.575 73.5653 117.975C73.982 117.575 74.507 117.292 75.1403 117.125C75.7737 116.942 76.5653 116.85 77.5153 116.85H80.4653V115.85C80.4653 114.7 80.2237 113.883 79.7403 113.4C79.2737 112.917 78.4487 112.675 77.2653 112.675C76.1487 112.675 75.007 112.808 73.8403 113.075L73.7403 111.875C74.957 111.558 76.1737 111.4 77.3903 111.4C79.0403 111.4 80.2153 111.758 80.9153 112.475C81.582 113.175 81.9153 114.233 81.9153 115.65V124H80.7403L80.6653 123.175C80.0487 123.542 79.3987 123.825 78.7153 124.025C78.032 124.242 77.3653 124.35 76.7153 124.35ZM76.9653 123.075C77.532 123.075 78.1403 122.992 78.7903 122.825C79.4403 122.658 79.9987 122.442 80.4653 122.175V118.025H77.7403C76.9737 118.025 76.357 118.083 75.8903 118.2C75.4237 118.317 75.0487 118.492 74.7653 118.725C74.2987 119.125 74.0653 119.725 74.0653 120.525C74.0653 121.392 74.3153 122.033 74.8153 122.45C75.3153 122.867 76.032 123.075 76.9653 123.075ZM85.5968 106.125H87.0468V124H85.5968V106.125ZM95.8007 111.75H96.9507L97.0507 112.65C97.6507 112.267 98.3007 111.967 99.0007 111.75C99.7174 111.517 100.409 111.4 101.076 111.4C101.792 111.4 102.442 111.517 103.026 111.75C103.626 111.967 104.084 112.292 104.401 112.725C105.101 112.308 105.842 111.983 106.626 111.75C107.409 111.517 108.167 111.4 108.901 111.4C109.534 111.4 110.117 111.492 110.651 111.675C111.201 111.842 111.642 112.092 111.976 112.425C112.326 112.775 112.576 113.192 112.726 113.675C112.892 114.158 112.976 114.775 112.976 115.525V124H111.526V115.9C111.526 115.25 111.476 114.742 111.376 114.375C111.276 114.008 111.101 113.7 110.851 113.45C110.367 112.967 109.634 112.725 108.651 112.725C107.417 112.725 106.167 113.033 104.901 113.65C105.067 114.133 105.151 114.758 105.151 115.525V124H103.701V115.9C103.701 115.25 103.651 114.742 103.551 114.375C103.451 114.008 103.276 113.7 103.026 113.45C102.542 112.967 101.826 112.725 100.876 112.725C100.342 112.725 99.759 112.808 99.1257 112.975C98.4924 113.142 97.8674 113.375 97.2507 113.675V124H95.8007V111.75ZM121.826 124.375C119.81 124.375 118.335 123.825 117.401 122.725C116.468 121.608 116.001 120 116.001 117.9C116.001 115.9 116.418 114.325 117.251 113.175C118.101 112.008 119.351 111.425 121.001 111.425C124.218 111.425 125.826 113.608 125.826 117.975V118.2C125.826 118.3 125.801 118.375 125.751 118.425C125.718 118.458 125.643 118.475 125.526 118.475H117.526C117.56 120.008 117.91 121.167 118.576 121.95C119.26 122.733 120.376 123.125 121.926 123.125C122.876 123.125 123.91 123 125.026 122.75L125.151 123.925C124.735 124.058 124.21 124.167 123.576 124.25C122.943 124.333 122.36 124.375 121.826 124.375ZM124.401 117.3C124.401 115.833 124.118 114.692 123.551 113.875C123.001 113.042 122.151 112.625 121.001 112.625C119.851 112.625 118.985 113.042 118.401 113.875C117.818 114.692 117.518 115.833 117.501 117.3H124.401ZM131.854 124.35C131.254 124.35 130.654 124.308 130.054 124.225C129.471 124.142 128.963 124.033 128.529 123.9L128.654 122.75C129.671 123.017 130.713 123.15 131.779 123.15C132.879 123.15 133.713 122.958 134.279 122.575C134.863 122.192 135.154 121.633 135.154 120.9C135.154 120.4 135.013 119.992 134.729 119.675C134.463 119.358 134.129 119.117 133.729 118.95C133.329 118.767 132.771 118.567 132.054 118.35C131.221 118.083 130.554 117.842 130.054 117.625C129.571 117.392 129.154 117.05 128.804 116.6C128.454 116.15 128.279 115.558 128.279 114.825C128.279 113.692 128.663 112.842 129.429 112.275C130.213 111.692 131.304 111.4 132.704 111.4C133.188 111.4 133.704 111.442 134.254 111.525C134.821 111.592 135.313 111.692 135.729 111.825L135.654 112.95C134.571 112.717 133.596 112.6 132.729 112.6C131.713 112.6 130.946 112.775 130.429 113.125C129.913 113.475 129.654 114.017 129.654 114.75C129.654 115.217 129.788 115.6 130.054 115.9C130.321 116.183 130.646 116.417 131.029 116.6C131.429 116.767 131.979 116.958 132.679 117.175C133.513 117.442 134.179 117.7 134.679 117.95C135.196 118.2 135.629 118.558 135.979 119.025C136.346 119.475 136.529 120.075 136.529 120.825C136.529 121.958 136.129 122.833 135.329 123.45C134.529 124.05 133.371 124.35 131.854 124.35ZM147.135 117.925L143.135 111.75H144.71L148.01 116.825L151.11 111.75H152.685L148.685 117.875L152.685 124H151.11L147.81 118.95L144.735 124H143.16L147.135 117.925ZM163.707 124.35C163.14 124.35 162.507 124.308 161.807 124.225C161.123 124.142 160.557 124.042 160.107 123.925V122.725C160.573 122.825 161.123 122.908 161.757 122.975C162.39 123.025 162.973 123.05 163.507 123.05C165.173 123.05 166.373 122.708 167.107 122.025C167.757 121.425 168.082 120.525 168.082 119.325C168.082 118.308 167.782 117.5 167.182 116.9C166.432 116.183 165.19 115.825 163.457 115.825H163.282V114.725H163.482C164.265 114.725 164.915 114.65 165.432 114.5C165.965 114.333 166.398 114.075 166.732 113.725C167.348 113.075 167.657 112.233 167.657 111.2C167.657 110.133 167.398 109.333 166.882 108.8C166.282 108.167 165.223 107.85 163.707 107.85C162.64 107.85 161.523 107.967 160.357 108.2V107.025C160.873 106.875 161.465 106.767 162.132 106.7C162.798 106.617 163.44 106.575 164.057 106.575C165.79 106.575 167.09 106.983 167.957 107.8C168.757 108.567 169.157 109.625 169.157 110.975C169.157 112.958 168.282 114.35 166.532 115.15C167.465 115.417 168.207 115.9 168.757 116.6C169.323 117.3 169.607 118.208 169.607 119.325C169.607 120.908 169.132 122.133 168.182 123C167.182 123.9 165.69 124.35 163.707 124.35ZM178.442 111.75H179.592L179.692 112.65C180.292 112.267 180.942 111.967 181.642 111.75C182.359 111.517 183.051 111.4 183.717 111.4C184.434 111.4 185.084 111.517 185.667 111.75C186.267 111.967 186.726 112.292 187.042 112.725C187.742 112.308 188.484 111.983 189.267 111.75C190.051 111.517 190.809 111.4 191.542 111.4C192.176 111.4 192.759 111.492 193.292 111.675C193.842 111.842 194.284 112.092 194.617 112.425C194.967 112.775 195.217 113.192 195.367 113.675C195.534 114.158 195.617 114.775 195.617 115.525V124H194.167V115.9C194.167 115.25 194.117 114.742 194.017 114.375C193.917 114.008 193.742 113.7 193.492 113.45C193.009 112.967 192.276 112.725 191.292 112.725C190.059 112.725 188.809 113.033 187.542 113.65C187.709 114.133 187.792 114.758 187.792 115.525V124H186.342V115.9C186.342 115.25 186.292 114.742 186.192 114.375C186.092 114.008 185.917 113.7 185.667 113.45C185.184 112.967 184.467 112.725 183.517 112.725C182.984 112.725 182.401 112.808 181.767 112.975C181.134 113.142 180.509 113.375 179.892 113.675V124H178.442V111.75ZM204.468 124.375C202.451 124.375 200.976 123.825 200.043 122.725C199.11 121.608 198.643 120 198.643 117.9C198.643 115.9 199.06 114.325 199.893 113.175C200.743 112.008 201.993 111.425 203.643 111.425C206.86 111.425 208.468 113.608 208.468 117.975V118.2C208.468 118.3 208.443 118.375 208.393 118.425C208.36 118.458 208.285 118.475 208.168 118.475H200.168C200.201 120.008 200.551 121.167 201.218 121.95C201.901 122.733 203.018 123.125 204.568 123.125C205.518 123.125 206.551 123 207.668 122.75L207.793 123.925C207.376 124.058 206.851 124.167 206.218 124.25C205.585 124.333 205.001 124.375 204.468 124.375ZM207.043 117.3C207.043 115.833 206.76 114.692 206.193 113.875C205.643 113.042 204.793 112.625 203.643 112.625C202.493 112.625 201.626 113.042 201.043 113.875C200.46 114.692 200.16 115.833 200.143 117.3H207.043ZM214.496 124.35C213.896 124.35 213.296 124.308 212.696 124.225C212.113 124.142 211.604 124.033 211.171 123.9L211.296 122.75C212.313 123.017 213.354 123.15 214.421 123.15C215.521 123.15 216.354 122.958 216.921 122.575C217.504 122.192 217.796 121.633 217.796 120.9C217.796 120.4 217.654 119.992 217.371 119.675C217.104 119.358 216.771 119.117 216.371 118.95C215.971 118.767 215.413 118.567 214.696 118.35C213.863 118.083 213.196 117.842 212.696 117.625C212.213 117.392 211.796 117.05 211.446 116.6C211.096 116.15 210.921 115.558 210.921 114.825C210.921 113.692 211.304 112.842 212.071 112.275C212.854 111.692 213.946 111.4 215.346 111.4C215.829 111.4 216.346 111.442 216.896 111.525C217.463 111.592 217.954 111.692 218.371 111.825L218.296 112.95C217.213 112.717 216.238 112.6 215.371 112.6C214.354 112.6 213.588 112.775 213.071 113.125C212.554 113.475 212.296 114.017 212.296 114.75C212.296 115.217 212.429 115.6 212.696 115.9C212.963 116.183 213.288 116.417 213.671 116.6C214.071 116.767 214.621 116.958 215.321 117.175C216.154 117.442 216.821 117.7 217.321 117.95C217.838 118.2 218.271 118.558 218.621 119.025C218.988 119.475 219.171 120.075 219.171 120.825C219.171 121.958 218.771 122.833 217.971 123.45C217.171 124.05 216.013 124.35 214.496 124.35ZM227.246 124.375C225.23 124.375 223.755 123.825 222.821 122.725C221.888 121.608 221.421 120 221.421 117.9C221.421 115.9 221.838 114.325 222.671 113.175C223.521 112.008 224.771 111.425 226.421 111.425C229.638 111.425 231.246 113.608 231.246 117.975V118.2C231.246 118.3 231.221 118.375 231.171 118.425C231.138 118.458 231.063 118.475 230.946 118.475H222.946C222.98 120.008 223.33 121.167 223.996 121.95C224.68 122.733 225.796 123.125 227.346 123.125C228.296 123.125 229.33 123 230.446 122.75L230.571 123.925C230.155 124.058 229.63 124.167 228.996 124.25C228.363 124.333 227.78 124.375 227.246 124.375ZM229.821 117.3C229.821 115.833 229.538 114.692 228.971 113.875C228.421 113.042 227.571 112.625 226.421 112.625C225.271 112.625 224.405 113.042 223.821 113.875C223.238 114.692 222.938 115.833 222.921 117.3H229.821ZM237.274 124.35C236.674 124.35 236.074 124.308 235.474 124.225C234.891 124.142 234.383 124.033 233.949 123.9L234.074 122.75C235.091 123.017 236.133 123.15 237.199 123.15C238.299 123.15 239.133 122.958 239.699 122.575C240.283 122.192 240.574 121.633 240.574 120.9C240.574 120.4 240.433 119.992 240.149 119.675C239.883 119.358 239.549 119.117 239.149 118.95C238.749 118.767 238.191 118.567 237.474 118.35C236.641 118.083 235.974 117.842 235.474 117.625C234.991 117.392 234.574 117.05 234.224 116.6C233.874 116.15 233.699 115.558 233.699 114.825C233.699 113.692 234.083 112.842 234.849 112.275C235.633 111.692 236.724 111.4 238.124 111.4C238.608 111.4 239.124 111.442 239.674 111.525C240.241 111.592 240.733 111.692 241.149 111.825L241.074 112.95C239.991 112.717 239.016 112.6 238.149 112.6C237.133 112.6 236.366 112.775 235.849 113.125C235.333 113.475 235.074 114.017 235.074 114.75C235.074 115.217 235.208 115.6 235.474 115.9C235.741 116.183 236.066 116.417 236.449 116.6C236.849 116.767 237.399 116.958 238.099 117.175C238.933 117.442 239.599 117.7 240.099 117.95C240.616 118.2 241.049 118.558 241.399 119.025C241.766 119.475 241.949 120.075 241.949 120.825C241.949 121.958 241.549 122.833 240.749 123.45C239.949 124.05 238.791 124.35 237.274 124.35ZM249.805 111.75H250.955L251.08 112.675C251.596 112.308 252.196 112.008 252.88 111.775C253.58 111.525 254.246 111.4 254.88 111.4C256.413 111.4 257.58 111.933 258.38 113C259.18 114.067 259.58 115.675 259.58 117.825C259.58 120.242 259.08 122 258.08 123.1C257.313 123.933 256.221 124.35 254.805 124.35C254.188 124.35 253.555 124.25 252.905 124.05C252.255 123.867 251.705 123.625 251.255 123.325V129.625H249.805V111.75ZM254.555 123.075C255.221 123.075 255.78 122.967 256.23 122.75C256.696 122.533 257.063 122.2 257.33 121.75C257.83 120.9 258.08 119.583 258.08 117.8C258.08 115.933 257.78 114.592 257.18 113.775C256.63 113.042 255.788 112.675 254.655 112.675C254.155 112.675 253.596 112.775 252.98 112.975C252.363 113.158 251.788 113.4 251.255 113.7V122.075C251.671 122.375 252.18 122.617 252.78 122.8C253.396 122.983 253.988 123.075 254.555 123.075ZM266.071 124.35C264.837 124.35 263.846 124.025 263.096 123.375C262.346 122.725 261.971 121.783 261.971 120.55C261.971 119.433 262.287 118.575 262.921 117.975C263.337 117.575 263.862 117.292 264.496 117.125C265.129 116.942 265.921 116.85 266.871 116.85H269.821V115.85C269.821 114.7 269.579 113.883 269.096 113.4C268.629 112.917 267.804 112.675 266.621 112.675C265.504 112.675 264.362 112.808 263.196 113.075L263.096 111.875C264.312 111.558 265.529 111.4 266.746 111.4C268.396 111.4 269.571 111.758 270.271 112.475C270.937 113.175 271.271 114.233 271.271 115.65V124H270.096L270.021 123.175C269.404 123.542 268.754 123.825 268.071 124.025C267.387 124.242 266.721 124.35 266.071 124.35ZM266.321 123.075C266.887 123.075 267.496 122.992 268.146 122.825C268.796 122.658 269.354 122.442 269.821 122.175V118.025H267.096C266.329 118.025 265.712 118.083 265.246 118.2C264.779 118.317 264.404 118.492 264.121 118.725C263.654 119.125 263.421 119.725 263.421 120.525C263.421 121.392 263.671 122.033 264.171 122.45C264.671 122.867 265.387 123.075 266.321 123.075ZM274.902 111.75H276.052L276.177 112.8C276.727 112.35 277.319 112.008 277.952 111.775C278.602 111.525 279.219 111.4 279.802 111.4C280.036 111.4 280.236 111.408 280.402 111.425V112.775C280.136 112.758 279.852 112.75 279.552 112.75C278.402 112.75 277.336 113.092 276.352 113.775V124H274.902V111.75ZM285.553 124.35C284.32 124.35 283.328 124.025 282.578 123.375C281.828 122.725 281.453 121.783 281.453 120.55C281.453 119.433 281.77 118.575 282.403 117.975C282.82 117.575 283.345 117.292 283.978 117.125C284.612 116.942 285.403 116.85 286.353 116.85H289.303V115.85C289.303 114.7 289.062 113.883 288.578 113.4C288.112 112.917 287.287 112.675 286.103 112.675C284.987 112.675 283.845 112.808 282.678 113.075L282.578 111.875C283.795 111.558 285.012 111.4 286.228 111.4C287.878 111.4 289.053 111.758 289.753 112.475C290.42 113.175 290.753 114.233 290.753 115.65V124H289.578L289.503 123.175C288.887 123.542 288.237 123.825 287.553 124.025C286.87 124.242 286.203 124.35 285.553 124.35ZM285.803 123.075C286.37 123.075 286.978 122.992 287.628 122.825C288.278 122.658 288.837 122.442 289.303 122.175V118.025H286.578C285.812 118.025 285.195 118.083 284.728 118.2C284.262 118.317 283.887 118.492 283.603 118.725C283.137 119.125 282.903 119.725 282.903 120.525C282.903 121.392 283.153 122.033 283.653 122.45C284.153 122.867 284.87 123.075 285.803 123.075Z" fill="white"/>
<path fill-rule="evenodd" clip-rule="evenodd" d="M99.5776 160.812C103.712 163.766 108.777 165.504 114.247 165.504V154.983C113.211 154.983 112.179 154.875 111.166 154.66V162.942C105.697 162.942 100.632 161.204 96.497 158.25V179.72C96.497 190.461 87.7858 199.167 77.0404 199.167C73.0312 199.167 69.3046 197.956 66.2089 195.878C69.7421 199.489 74.6692 201.729 80.1203 201.729C90.8664 201.729 99.578 193.022 99.578 182.282V160.812H99.5776ZM103.378 150.198C101.265 147.891 99.8779 144.909 99.5776 141.613V140.259H96.6583C97.393 144.449 99.8995 148.028 103.378 150.198ZM73.0052 187.636C71.8248 186.089 71.1868 184.197 71.1896 182.251C71.1896 177.339 75.1743 173.356 80.0901 173.356C81.0061 173.355 81.9167 173.496 82.7899 173.773V163.017C81.7696 162.877 80.74 162.818 79.7104 162.839V171.211C78.8368 170.935 77.9258 170.794 77.0094 170.795C72.0936 170.795 68.1094 174.777 68.1094 179.69C68.1094 183.164 70.1009 186.171 73.0052 187.636Z" fill="#FE2C55"/>
<path fill-rule="evenodd" clip-rule="evenodd" d="M96.4949 158.25C100.63 161.204 105.695 162.942 111.164 162.942V154.66C108.111 154.011 105.408 152.416 103.376 150.198C99.8974 148.028 97.3909 144.449 96.6562 140.259H88.988V182.281C88.9707 187.18 84.9928 191.146 80.0876 191.146C77.197 191.146 74.629 189.77 73.0027 187.636C70.0985 186.171 68.1069 183.164 68.1069 179.69C68.1069 174.777 72.0912 170.795 77.007 170.795C77.9487 170.795 78.8565 170.941 79.708 171.211V162.839C69.1514 163.057 60.6613 171.679 60.6613 182.282C60.6613 187.574 62.7756 192.373 66.2068 195.878C69.3025 197.956 73.0291 199.167 77.0383 199.167C87.7837 199.167 96.4949 190.461 96.4949 179.721V158.25Z" fill="white"/>
<path fill-rule="evenodd" clip-rule="evenodd" d="M111.164 154.66V152.421C108.411 152.425 105.712 151.654 103.376 150.197C105.444 152.46 108.167 154.02 111.164 154.66ZM96.6565 140.259C96.5863 139.859 96.5325 139.456 96.4952 139.051V137.698H85.9073V179.72C85.8903 184.618 81.9129 188.585 77.0073 188.585C75.5669 188.585 74.2073 188.243 73.003 187.636C74.6293 189.769 77.1973 191.146 80.0879 191.146C84.9928 191.146 88.971 187.18 88.9883 182.281V140.259H96.6565ZM79.7086 162.839V160.455C78.8239 160.334 77.932 160.274 77.039 160.274C66.2925 160.274 57.5813 168.981 57.5813 179.72C57.5813 186.453 61.0049 192.387 66.2075 195.878C62.7763 192.372 60.6619 187.574 60.6619 182.281C60.6619 171.678 69.1517 163.057 79.7086 162.839Z" fill="#25F4EE"/>
<path fill-rule="evenodd" clip-rule="evenodd" d="M233.959 186.482C241.574 186.482 247.748 180.358 247.748 172.805C247.748 165.251 241.574 159.127 233.959 159.127H231.881C239.497 159.127 245.67 165.251 245.67 172.805C245.67 180.358 239.497 186.482 231.881 186.482H233.959Z" fill="#EE1D51"/>
<path fill-rule="evenodd" clip-rule="evenodd" d="M231.692 159.127H229.615C222 159.127 215.825 165.251 215.825 172.805C215.825 180.358 222 186.482 229.615 186.482H231.692C224.076 186.482 217.902 180.358 217.902 172.805C217.902 165.251 224.076 159.127 231.692 159.127Z" fill="#66C8CF"/>
<path fill-rule="evenodd" clip-rule="evenodd" d="M126.86 152.945V159.877H134.981V186.294H143.105V160.065H149.715L151.982 152.945H126.86ZM193.348 152.945V159.877H201.469V186.294H209.593V160.065H216.203L218.47 152.945H193.348ZM153.494 156.879C153.494 154.707 155.267 152.945 157.458 152.945C159.65 152.945 161.425 154.707 161.425 156.879C161.425 159.052 159.651 160.813 157.458 160.813C155.267 160.812 153.494 159.052 153.494 156.879ZM153.494 163.625H161.425V186.294H153.494V163.625ZM164.826 152.945V186.294H172.759V177.677L175.215 175.427L182.959 186.482H191.458L180.313 170.369L190.324 160.625H180.691L172.759 168.494V152.945H164.826ZM250.39 152.945V186.294H258.324V177.677L260.779 175.427L268.525 186.482H277.025L265.88 170.369L275.891 160.625H266.258L258.324 168.494V152.945H250.39Z" fill="white"/>
<path fill-rule="evenodd" clip-rule="evenodd" d="M231.878 186.482C239.494 186.482 245.669 180.358 245.669 172.805C245.669 165.251 239.494 159.127 231.878 159.127H231.69C224.075 159.127 217.901 165.251 217.901 172.805C217.901 180.358 224.075 186.482 231.69 186.482H231.878ZM225.079 172.805C225.079 169.131 228.082 166.154 231.786 166.154C235.487 166.154 238.491 169.131 238.491 172.805C238.491 176.479 235.487 179.457 231.786 179.457C228.082 179.456 225.079 176.479 225.079 172.805Z" fill="white"/>
<path d="M357.412 18.748C357.486 20.4604 357.079 21.6594 356.432 22.7922C355.685 24.0974 354.735 25.2518 353.685 26.3138C352.026 27.9908 350.325 29.627 348.641 31.2805C348.508 31.4099 348.366 31.5297 348.242 31.6663C348.118 31.803 348.021 31.7906 347.885 31.6814C347.059 31.0083 346.215 30.3572 345.402 29.6706C344.017 28.5026 342.631 27.3347 341.284 26.1268C340.237 25.1879 339.304 24.1374 338.591 22.9128C338.035 21.9613 337.677 20.9444 337.679 19.8319C337.683 17.6232 338.694 16.003 340.657 15.026C342.782 13.9667 345.426 14.4145 347.181 16.0528C347.412 16.268 347.415 16.2679 347.631 16.0338C349.374 14.1291 352.18 13.5328 354.436 14.6257C356.308 15.533 357.28 17.0678 357.412 18.748Z" stroke="white" stroke-width="0.772636"/>
<path d="M20.5423 52.7439C20.617 54.4563 20.2099 55.6553 19.5629 56.7881C18.8161 58.0933 17.8653 59.2477 16.816 60.3096C15.1564 61.9867 13.4552 63.6229 11.7712 65.2764C11.6391 65.4058 11.4966 65.5256 11.3728 65.6622C11.2491 65.7989 11.1516 65.7865 11.0159 65.6772C10.1902 65.0042 9.34613 64.353 8.53243 63.6665C7.14817 62.4985 5.76162 61.3306 4.41439 60.1227C3.3678 59.1838 2.43492 58.1332 1.7212 56.9087C1.16611 55.9571 0.807548 54.9403 0.809388 53.8277C0.813761 51.6191 1.82429 49.9989 3.78773 49.0219C5.91248 47.9625 8.55706 48.4103 10.3121 50.0486C10.5427 50.2639 10.5454 50.2638 10.7612 50.0297C12.5044 48.125 15.3104 47.5287 17.5667 48.6216C19.4386 49.5288 20.411 51.0637 20.5423 52.7439Z" stroke="white" stroke-width="0.772636"/>
<path d="M59.1741 129.235C59.2489 130.947 58.8418 132.146 58.1947 133.279C57.448 134.584 56.4971 135.739 55.4478 136.801C53.7882 138.478 52.087 140.114 50.4031 141.767C50.2709 141.897 50.1285 142.017 50.0047 142.153C49.8809 142.29 49.7834 142.278 49.6478 142.168C48.822 141.495 47.978 140.844 47.1643 140.158C45.78 138.99 44.3935 137.822 43.0462 136.614C41.9996 135.675 41.0668 134.624 40.353 133.4C39.798 132.448 39.4394 131.431 39.4412 130.319C39.4456 128.11 40.4561 126.49 42.4196 125.513C44.5443 124.454 47.1889 124.901 48.944 126.54C49.1745 126.755 49.1772 126.755 49.3931 126.521C51.1362 124.616 53.9422 124.02 56.1986 125.113C58.0704 126.02 59.0428 127.555 59.1741 129.235Z" stroke="white" stroke-width="0.772636"/>
<path d="M337.323 125.372C337.398 127.084 336.991 128.283 336.344 129.416C335.597 130.721 334.646 131.875 333.597 132.937C331.937 134.614 330.236 136.251 328.552 137.904C328.42 138.034 328.277 138.153 328.154 138.29C328.03 138.427 327.932 138.414 327.797 138.305C326.971 137.632 326.127 136.981 325.313 136.294C323.929 135.126 322.542 133.958 321.195 132.751C320.149 131.812 319.216 130.761 318.502 129.536C317.947 128.585 317.588 127.568 317.59 126.456C317.595 124.247 318.605 122.627 320.568 121.65C322.693 120.59 325.338 121.038 327.093 122.676C327.323 122.892 327.326 122.892 327.542 122.658C329.285 120.753 332.091 120.156 334.347 121.249C336.219 122.157 337.192 123.691 337.323 125.372Z" stroke="white" stroke-width="0.772636"/>
<defs>
<linearGradient id="paint0_linear_102_500" x1="185.199" y1="17.3441" x2="185.199" y2="89.2934" gradientUnits="userSpaceOnUse">
<stop stop-color="#019DF4"/>
<stop offset="1" stop-color="#0B2739"/>
</linearGradient>
<linearGradient id="paint1_linear_102_500" x1="185.199" y1="17.3441" x2="185.199" y2="89.2934" gradientUnits="userSpaceOnUse">
<stop stop-color="#019DF4"/>
<stop offset="1" stop-color="#0B2739"/>
</linearGradient>
<linearGradient id="paint2_linear_102_500" x1="185.199" y1="17.3441" x2="185.199" y2="89.2934" gradientUnits="userSpaceOnUse">
<stop stop-color="#019DF4"/>
<stop offset="1" stop-color="#0B2739"/>
</linearGradient>
<linearGradient id="paint3_linear_102_500" x1="185.199" y1="17.3441" x2="185.199" y2="89.2934" gradientUnits="userSpaceOnUse">
<stop stop-color="#019DF4"/>
<stop offset="1" stop-color="#0B2739"/>
</linearGradient>
<linearGradient id="paint4_linear_102_500" x1="181.363" y1="10.1143" x2="181.363" y2="82.0636" gradientUnits="userSpaceOnUse">
<stop stop-color="#019DF4"/>
<stop offset="1" stop-color="#0B2739"/>
</linearGradient>
<linearGradient id="paint5_linear_102_500" x1="181.363" y1="10.1143" x2="181.363" y2="82.0636" gradientUnits="userSpaceOnUse">
<stop stop-color="#019DF4"/>
<stop offset="1" stop-color="#0B2739"/>
</linearGradient>
<linearGradient id="paint6_linear_102_500" x1="181.363" y1="10.1143" x2="181.363" y2="82.0636" gradientUnits="userSpaceOnUse">
<stop stop-color="#019DF4"/>
<stop offset="1" stop-color="#0B2739"/>
</linearGradient>
<linearGradient id="paint7_linear_102_500" x1="181.363" y1="10.1143" x2="181.363" y2="82.0636" gradientUnits="userSpaceOnUse">
<stop stop-color="#019DF4"/>
<stop offset="1" stop-color="#0B2739"/>
</linearGradient>
</defs>
</svg>
