<svg width="304" height="190" viewBox="0 0 304 190" fill="none" xmlns="http://www.w3.org/2000/svg">
<path d="M47.4271 148.339H47.3171C46.6131 148.339 46.2171 148.647 46.2171 149.417V149.593C46.2171 150.363 46.6131 150.671 47.3171 150.671H47.4271C48.1311 150.671 48.5271 150.363 48.5271 149.593V149.417C48.5271 148.647 48.1311 148.339 47.4271 148.339ZM48.0651 152.673H46.7231L46.4151 163.695H48.3731L48.0651 152.673ZM52.2108 159.427H60.7248V157.887H54.1688V144.379H52.2108V159.427ZM63.0327 159.427H64.8587V143.697H63.0327V159.427ZM70.4601 146.909L74.6621 143.895L73.6281 142.509L69.7561 145.941L70.4601 146.909ZM72.6381 159.735C73.6281 159.735 74.9041 159.581 75.8281 159.317L75.6521 157.953C74.8161 158.129 73.7601 158.239 72.9901 158.239C71.6261 158.239 70.8121 157.953 70.2401 157.425C69.6021 156.831 69.2941 155.863 69.2941 154.675H76.2461C76.4221 154.675 76.5101 154.609 76.5101 154.433V154.015C76.5101 150.473 75.0581 148.339 72.0441 148.339C69.2941 148.339 67.3801 150.209 67.3801 154.059C67.3801 155.995 67.8201 157.469 68.7881 158.437C69.6681 159.317 70.9661 159.735 72.6381 159.735ZM69.2941 153.333C69.3161 151.155 70.2181 149.813 72.0441 149.813C73.8481 149.813 74.6401 151.265 74.7061 153.333H69.2941ZM81.6141 159.427H83.6161L87.4001 148.647H85.5521L82.6701 157.557L79.6781 148.647H77.7641L81.6141 159.427ZM92.1733 159.735C93.4713 159.735 94.6153 159.317 95.5613 158.701L95.6713 159.427H97.1453V152.255C97.1453 150.847 96.8813 149.989 96.1993 149.329C95.5173 148.691 94.4393 148.339 92.8333 148.339C91.7993 148.339 90.5673 148.471 89.5553 148.713L89.6213 150.121C90.6773 149.945 91.7113 149.857 92.5253 149.857C93.6033 149.857 94.3073 150.055 94.7693 150.495C95.1653 150.891 95.3193 151.441 95.3193 152.321V153.003H93.0753C91.5133 153.003 90.2373 153.289 89.4233 154.037C88.8513 154.565 88.4993 155.357 88.4993 156.369C88.4993 157.381 88.8293 158.151 89.3573 158.701C90.0173 159.383 91.0073 159.735 92.1733 159.735ZM92.5693 158.261C91.1613 158.261 90.3473 157.623 90.3473 156.325C90.3473 155.665 90.5673 155.203 90.9413 154.895C91.4473 154.499 92.2173 154.345 93.3392 154.345H95.3193V157.557C94.5273 157.953 93.4493 158.261 92.5693 158.261ZM103.919 159.735C104.711 159.735 105.569 159.603 106.141 159.449L106.053 158.107C105.525 158.217 104.799 158.283 104.425 158.283C103.655 158.283 103.281 158.129 103.039 157.865C102.731 157.535 102.665 157.007 102.665 155.973V149.989H105.503V148.647H102.665V145.787C102.093 145.787 101.367 145.941 100.839 146.117V148.669L98.8807 148.955V149.989H100.839V156.215C100.839 157.557 100.993 158.283 101.521 158.899C102.005 159.449 102.863 159.735 103.919 159.735ZM112.9 159.735C113.89 159.735 115.166 159.581 116.09 159.317L115.914 157.953C115.078 158.129 114.022 158.239 113.252 158.239C111.888 158.239 111.074 157.953 110.502 157.425C109.864 156.831 109.556 155.863 109.556 154.675H116.508C116.684 154.675 116.772 154.609 116.772 154.433V154.015C116.772 150.473 115.32 148.339 112.306 148.339C109.556 148.339 107.642 150.209 107.642 154.059C107.642 155.995 108.082 157.469 109.05 158.437C109.93 159.317 111.228 159.735 112.9 159.735ZM109.556 153.333C109.578 151.155 110.48 149.813 112.306 149.813C114.11 149.813 114.902 151.265 114.968 153.333H109.556ZM119.365 159.427H121.191V143.697H119.365V159.427ZM128.618 159.735C131.962 159.735 133.524 157.623 133.524 154.037C133.524 150.451 131.962 148.339 128.618 148.339C125.274 148.339 123.712 150.451 123.712 154.037C123.712 157.623 125.274 159.735 128.618 159.735ZM128.618 158.239C126.418 158.239 125.626 156.787 125.626 154.037C125.626 151.287 126.418 149.835 128.618 149.835C130.818 149.835 131.61 151.287 131.61 154.037C131.61 156.787 130.818 158.239 128.618 158.239ZM145.3 159.735C146.092 159.735 147.302 159.581 148.006 159.383L147.874 158.019C147.324 158.129 146.356 158.239 145.63 158.239C144.31 158.239 143.386 157.931 142.77 157.227C142.176 156.545 141.868 155.511 141.868 154.147C141.868 151.287 143.012 149.813 145.542 149.813C146.224 149.813 147.104 149.945 147.786 150.077L147.896 148.669C147.148 148.471 146.158 148.339 145.322 148.339C143.672 148.339 142.286 148.823 141.362 149.813C140.438 150.803 139.954 152.277 139.954 154.169C139.954 156.061 140.482 157.469 141.384 158.393C142.264 159.295 143.54 159.735 145.3 159.735ZM154.636 159.735C157.98 159.735 159.542 157.623 159.542 154.037C159.542 150.451 157.98 148.339 154.636 148.339C151.292 148.339 149.73 150.451 149.73 154.037C149.73 157.623 151.292 159.735 154.636 159.735ZM154.636 158.239C152.436 158.239 151.644 156.787 151.644 154.037C151.644 151.287 152.436 149.835 154.636 149.835C156.836 149.835 157.628 151.287 157.628 154.037C157.628 156.787 156.836 158.239 154.636 158.239ZM162.054 159.427H163.88V150.649C164.76 150.231 165.926 149.945 166.894 149.945C167.686 149.945 168.258 150.121 168.632 150.495C169.006 150.869 169.16 151.397 169.16 152.321V159.427H170.986V152.101C170.986 150.759 170.678 149.879 170.084 149.285C169.468 148.647 168.544 148.339 167.378 148.339C166.124 148.339 164.782 148.757 163.66 149.439L163.572 148.647H162.054V159.427ZM183.197 159.735C184.187 159.735 185.463 159.581 186.387 159.317L186.211 157.953C185.375 158.129 184.319 158.239 183.549 158.239C182.185 158.239 181.371 157.953 180.799 157.425C180.161 156.831 179.853 155.863 179.853 154.675H186.805C186.981 154.675 187.069 154.609 187.069 154.433V154.015C187.069 150.473 185.617 148.339 182.603 148.339C179.853 148.339 177.939 150.209 177.939 154.059C177.939 155.995 178.379 157.469 179.347 158.437C180.227 159.317 181.525 159.735 183.197 159.735ZM179.853 153.333C179.875 151.155 180.777 149.813 182.603 149.813C184.407 149.813 185.199 151.265 185.265 153.333H179.853ZM189.662 159.427H191.488V143.697H189.662V159.427ZM203.757 159.735C204.747 159.735 206.023 159.581 206.947 159.317L206.771 157.953C205.935 158.129 204.879 158.239 204.109 158.239C202.745 158.239 201.931 157.953 201.359 157.425C200.721 156.831 200.413 155.863 200.413 154.675H207.365C207.541 154.675 207.629 154.609 207.629 154.433V154.015C207.629 150.473 206.177 148.339 203.163 148.339C200.413 148.339 198.499 150.209 198.499 154.059C198.499 155.995 198.939 157.469 199.907 158.437C200.787 159.317 202.085 159.735 203.757 159.735ZM200.413 153.333C200.435 151.155 201.337 149.813 203.163 149.813C204.967 149.813 205.759 151.265 205.825 153.333H200.413ZM216.976 164.575L218.802 164.245V148.647H217.284L217.174 149.373C216.272 148.713 215.194 148.339 214.16 148.339C211.366 148.339 209.628 150.495 209.628 154.103C209.628 157.777 211.256 159.735 213.962 159.735C214.93 159.735 216.14 159.405 216.976 158.921V164.575ZM214.468 158.239C212.554 158.239 211.542 156.919 211.542 154.059C211.542 151.265 212.554 149.879 214.38 149.879C215.282 149.879 216.184 150.165 216.976 150.627V157.601C216.228 157.975 215.26 158.239 214.468 158.239ZM225.452 159.735C226.706 159.735 228.004 159.317 229.126 158.635L229.214 159.427H230.732V148.647H228.906V157.425C228.026 157.843 226.904 158.129 225.936 158.129C225.144 158.129 224.572 157.953 224.198 157.579C223.824 157.205 223.67 156.677 223.67 155.753V148.647H221.844V155.973C221.844 157.315 222.152 158.195 222.746 158.789C223.362 159.427 224.286 159.735 225.452 159.735ZM234.713 146.601H234.823C235.483 146.601 235.901 146.271 235.901 145.435V145.391C235.901 144.555 235.483 144.225 234.823 144.225H234.713C234.053 144.225 233.635 144.555 233.635 145.391V145.435C233.635 146.271 234.053 146.601 234.713 146.601ZM233.855 159.427H235.681V148.647H233.855V159.427ZM238.796 164.377H240.622V158.921C241.414 159.427 242.58 159.735 243.702 159.735C246.276 159.735 247.904 158.041 247.904 153.993C247.904 150.561 246.562 148.339 243.768 148.339C242.778 148.339 241.524 148.691 240.402 149.439L240.314 148.647H238.796V164.377ZM243.24 158.217C242.316 158.217 241.26 157.931 240.622 157.557V150.627C241.458 150.187 242.536 149.901 243.372 149.901C245.176 149.901 245.99 151.221 245.99 153.971C245.99 157.051 245.198 158.217 243.24 158.217ZM254.753 159.735C258.097 159.735 259.659 157.623 259.659 154.037C259.659 150.451 258.097 148.339 254.753 148.339C251.409 148.339 249.847 150.451 249.847 154.037C249.847 157.623 251.409 159.735 254.753 159.735ZM254.753 158.239C252.553 158.239 251.761 156.787 251.761 154.037C251.761 151.287 252.553 149.835 254.753 149.835C256.953 149.835 257.745 151.287 257.745 154.037C257.745 156.787 256.953 158.239 254.753 158.239Z" fill="#0B2739"/>
<path d="M73.0742 189.575L76.2202 189.179V173.647H73.6242L73.4702 174.329C72.5682 173.735 71.4902 173.339 70.3682 173.339C69.1362 173.339 68.0582 173.801 67.3322 174.593C66.4522 175.561 65.9682 177.145 65.9682 179.081C65.9682 183.327 67.6842 184.735 70.1262 184.735C71.1602 184.735 72.3262 184.427 73.0742 184.009V189.575ZM71.2482 182.271C69.9282 182.271 69.2682 181.655 69.2682 179.081C69.2682 176.947 69.7742 175.847 71.4022 175.847C71.8202 175.847 72.5682 175.979 73.0742 176.155V181.919C72.5682 182.117 71.9302 182.271 71.2482 182.271ZM82.3043 184.713C83.4043 184.713 84.7463 184.427 85.9123 183.701L86.0003 184.427H88.7283V173.647H85.5823V181.787C85.0543 181.963 84.1743 182.095 83.6243 182.095C82.9863 182.095 82.5463 182.007 82.2603 181.743C82.0403 181.523 81.9303 181.149 81.9303 180.599V173.647H78.7843V181.039C78.7843 182.293 79.0483 183.239 79.7083 183.877C80.3023 184.471 81.3583 184.713 82.3043 184.713ZM96.7437 184.735C98.0857 184.735 99.3397 184.559 100.374 184.361L100.132 182.073C99.3177 182.227 98.2177 182.337 97.4477 182.337C95.3357 182.337 94.2137 181.831 94.1257 180.005H100.748C100.924 180.005 101.012 179.939 101.012 179.763V178.773C101.012 175.033 99.2957 173.339 96.0617 173.339C92.7617 173.339 90.8257 175.275 90.8257 179.059C90.8257 180.775 91.1997 182.315 92.2777 183.349C93.2017 184.229 94.7197 184.735 96.7437 184.735ZM94.1257 177.959C94.1917 176.573 94.7637 175.715 96.0397 175.715C97.2937 175.715 97.9317 176.595 97.9317 177.959H94.1257ZM107.94 184.427H111.086V176.309C111.614 176.111 112.406 175.957 112.956 175.957C113.528 175.957 113.99 176.045 114.276 176.309C114.496 176.529 114.606 176.837 114.606 177.387V184.427H117.752V177.013C117.752 176.749 117.73 176.485 117.708 176.243C118.236 176.089 119.006 175.957 119.534 175.957C120.172 175.957 120.612 176.045 120.898 176.309C121.118 176.529 121.228 176.837 121.228 177.387V184.427H124.374V177.013C124.374 175.759 124.11 174.813 123.45 174.175C122.856 173.581 121.8 173.339 120.854 173.339C119.688 173.339 118.302 173.669 117.092 174.483C116.542 173.713 115.552 173.339 114.232 173.339C113.11 173.339 111.9 173.647 110.734 174.417L110.668 173.647H107.94V184.427ZM129.968 172.129L134.434 169.115L132.894 167.025L128.868 170.765L129.968 172.129ZM130.078 184.735C131.222 184.735 132.388 184.361 133.312 183.767L133.576 184.427H136.062V177.431C136.062 176.133 135.776 175.209 135.226 174.571C134.478 173.691 133.004 173.339 131.354 173.339C130.056 173.339 128.626 173.515 127.526 173.735L127.68 176.045C128.428 175.891 129.682 175.759 130.694 175.759C131.552 175.759 132.146 175.869 132.52 176.199C132.784 176.441 132.916 176.815 132.916 177.409V177.761H131.2C129.198 177.761 128.01 178.025 127.24 178.751C126.624 179.345 126.294 180.225 126.294 181.193C126.294 183.283 127.614 184.735 130.078 184.735ZM130.98 182.337C129.836 182.337 129.44 181.853 129.44 181.061C129.44 180.665 129.55 180.357 129.748 180.159C130.034 179.873 130.496 179.785 131.244 179.785H132.916V182.007C132.41 182.161 131.574 182.337 130.98 182.337ZM142.139 184.735C145.373 184.735 147.001 183.437 147.001 181.193C147.001 176.727 141.105 178.465 141.105 176.639C141.105 176.023 141.721 175.759 142.843 175.759C143.723 175.759 145.043 175.935 146.165 176.243L146.407 173.933C145.241 173.537 143.899 173.339 142.821 173.339C139.587 173.339 138.135 174.813 138.135 176.815C138.135 181.281 144.009 179.411 144.009 181.325C144.009 182.095 143.261 182.315 142.073 182.315C140.907 182.315 139.411 182.073 138.597 181.809L138.355 184.141C139.213 184.449 140.863 184.735 142.139 184.735ZM158.248 184.735C159.194 184.735 160.294 184.625 160.998 184.471L160.888 182.249C160.514 182.293 159.81 182.381 159.37 182.381C158.094 182.381 157.852 181.941 157.852 180.731V175.693H160.646V173.647H157.852V170.787C156.84 170.787 155.652 170.963 154.706 171.249V173.647L152.88 173.977V175.693H154.706V181.171C154.706 183.547 155.564 184.735 158.248 184.735ZM168.222 184.735C169.564 184.735 170.818 184.559 171.852 184.361L171.61 182.073C170.796 182.227 169.696 182.337 168.926 182.337C166.814 182.337 165.692 181.831 165.604 180.005H172.226C172.402 180.005 172.49 179.939 172.49 179.763V178.773C172.49 175.033 170.774 173.339 167.54 173.339C164.24 173.339 162.304 175.275 162.304 179.059C162.304 180.775 162.678 182.315 163.756 183.349C164.68 184.229 166.198 184.735 168.222 184.735ZM165.604 177.959C165.67 176.573 166.242 175.715 167.518 175.715C168.772 175.715 169.41 176.595 169.41 177.959H165.604ZM183.995 189.685H184.171C188.043 189.685 189.649 188.365 189.649 186.121C189.649 185.087 189.385 184.383 188.857 183.833C188.087 183.041 186.855 182.689 184.787 182.689H182.675C182.455 182.689 182.367 182.601 182.367 182.403C182.367 182.249 182.455 181.897 182.653 181.545C183.093 181.611 183.555 181.633 184.061 181.633C187.097 181.633 188.901 180.357 188.901 177.475C188.901 175.759 188.197 174.637 187.053 173.999L188.615 171.821C187.977 171.337 187.009 170.919 186.173 170.721L185.117 173.405C184.765 173.361 184.413 173.339 184.061 173.339C181.025 173.339 179.199 174.615 179.199 177.475C179.199 179.103 179.837 180.203 180.849 180.863C179.947 181.611 179.419 182.579 179.419 183.481C179.419 184.097 179.595 184.581 179.969 184.889C179.199 185.285 178.693 185.967 178.693 186.847C178.693 188.783 180.277 189.685 183.995 189.685ZM184.061 179.389C182.609 179.389 182.037 178.729 182.037 177.475C182.037 176.243 182.609 175.583 184.061 175.583C185.491 175.583 186.063 176.243 186.063 177.475C186.063 178.729 185.491 179.389 184.061 179.389ZM184.083 187.309C182.081 187.309 181.487 186.913 181.487 186.121C181.487 185.857 181.553 185.571 181.795 185.307H184.941C186.393 185.307 186.833 185.549 186.833 186.253C186.833 186.935 185.997 187.309 184.413 187.309H184.083ZM194.775 184.713C195.875 184.713 197.217 184.427 198.383 183.701L198.471 184.427H201.199V173.647H198.053V181.787C197.525 181.963 196.645 182.095 196.095 182.095C195.457 182.095 195.017 182.007 194.731 181.743C194.511 181.523 194.401 181.149 194.401 180.599V173.647H191.255V181.039C191.255 182.293 191.519 183.239 192.179 183.877C192.773 184.471 193.829 184.713 194.775 184.713ZM207.344 184.735C210.578 184.735 212.206 183.437 212.206 181.193C212.206 176.727 206.31 178.465 206.31 176.639C206.31 176.023 206.926 175.759 208.048 175.759C208.928 175.759 210.248 175.935 211.37 176.243L211.612 173.933C210.446 173.537 209.104 173.339 208.026 173.339C204.792 173.339 203.34 174.813 203.34 176.815C203.34 181.281 209.214 179.411 209.214 181.325C209.214 182.095 208.466 182.315 207.278 182.315C206.112 182.315 204.616 182.073 203.802 181.809L203.56 184.141C204.418 184.449 206.068 184.735 207.344 184.735ZM218.512 184.735C219.458 184.735 220.558 184.625 221.262 184.471L221.152 182.249C220.778 182.293 220.074 182.381 219.634 182.381C218.358 182.381 218.116 181.941 218.116 180.731V175.693H220.91V173.647H218.116V170.787C217.104 170.787 215.916 170.963 214.97 171.249V173.647L213.144 173.977V175.693H214.97V181.171C214.97 183.547 215.828 184.735 218.512 184.735ZM228.486 184.735C229.828 184.735 231.082 184.559 232.116 184.361L231.874 182.073C231.06 182.227 229.96 182.337 229.19 182.337C227.078 182.337 225.956 181.831 225.868 180.005H232.49C232.666 180.005 232.754 179.939 232.754 179.763V178.773C232.754 175.033 231.038 173.339 227.804 173.339C224.504 173.339 222.568 175.275 222.568 179.059C222.568 180.775 222.942 182.315 224.02 183.349C224.944 184.229 226.462 184.735 228.486 184.735ZM225.868 177.959C225.934 176.573 226.506 175.715 227.782 175.715C229.036 175.715 229.674 176.595 229.674 177.959H225.868ZM235.401 179.719H237.733L238.217 169.379H234.917L235.401 179.719ZM236.545 184.735H236.699C237.755 184.735 238.305 184.317 238.305 183.217V182.953C238.305 181.853 237.755 181.435 236.699 181.435H236.545C235.489 181.435 234.939 181.853 234.939 182.953V183.217C234.939 184.317 235.489 184.735 236.545 184.735Z" fill="#019DF4"/>
<path d="M51.9884 100.876C60.8084 100.876 66.6584 99.0761 70.9784 95.0261C74.2184 91.9661 76.1084 87.5561 76.1084 82.0661C76.1084 58.0361 44.6984 66.3161 44.6984 54.2561C44.6984 50.3861 47.1284 47.6861 54.6884 47.6861C59.0084 47.6861 64.4084 48.4961 69.4484 49.8461L71.6084 39.4061C66.8384 37.7861 60.3584 36.8861 54.4184 36.8861C41.2784 36.8861 31.4684 42.3761 31.4684 54.8861C31.4684 79.0961 62.8784 70.7261 62.8784 82.2461C62.8784 87.9161 59.0084 90.0761 50.7284 90.0761C46.2284 90.0761 39.1184 88.9061 33.7184 87.0161L31.5584 97.7261C37.7684 99.8861 44.1584 100.876 51.9884 100.876ZM73.5744 100.876H85.0044L112.094 36.8861H100.664L73.5744 100.876ZM112.317 99.6161H151.557V90.4361H126.717L137.427 78.7361C147.147 68.1161 150.567 62.2661 150.567 54.6161C150.567 49.4861 149.037 45.5261 146.157 42.6461C142.377 38.8661 136.527 36.8861 127.707 36.8861C122.667 36.8861 116.997 37.6961 113.397 38.5961V48.1361C117.267 47.4161 121.947 46.9661 125.457 46.9661C129.867 46.9661 132.927 47.6861 134.817 49.3061C136.437 50.6561 137.247 52.6361 137.247 55.2461C137.247 60.3761 134.367 64.4261 127.527 72.7061L115.557 87.2861C112.947 90.4361 111.957 92.9561 111.957 96.7361C111.957 97.7261 112.047 98.8961 112.317 99.6161ZM166.191 99.6161H179.961L197.241 50.5661C198.321 47.5961 198.681 44.6261 198.681 41.7461C198.681 40.3961 198.501 38.7761 198.051 38.0561H157.911V47.2361H186.621L166.191 99.6161Z" fill="#019DF4"/>
<path d="M71.4843 96.4779L72.0872 97.121L72.0895 97.1188L71.4843 96.4779ZM69.9543 51.2979L69.7262 52.1494L70.6283 52.391L70.8175 51.4765L69.9543 51.2979ZM72.1143 40.8579L72.9775 41.0365L73.1353 40.2738L72.3978 40.0233L72.1143 40.8579ZM34.2243 88.4679L34.5155 87.6359L33.5603 87.3016L33.3602 88.2937L34.2243 88.4679ZM32.0643 99.1779L31.2002 99.0037L31.0481 99.7578L31.7747 100.01L32.0643 99.1779ZM52.4943 103.209C61.4303 103.209 67.5392 101.385 72.0872 97.121L70.8814 95.8349C66.7894 99.6711 61.1983 101.446 52.4943 101.446V103.209ZM72.0895 97.1188C75.5266 93.8727 77.4958 89.2204 77.4958 83.5179H75.7328C75.7328 88.7955 73.922 92.9632 70.8791 95.8371L72.0895 97.1188ZM77.4958 83.5179C77.4958 77.2911 75.4489 73.064 72.3129 70.0912C69.2152 67.1547 65.1256 65.5119 61.171 64.2824C59.1961 63.6685 57.2005 63.1425 55.3849 62.6234C53.5489 62.0986 51.8806 61.5767 50.467 60.955C49.05 60.3317 47.954 59.6354 47.2153 58.7971C46.4977 57.9827 46.0858 56.9999 46.0858 55.7079H44.3228C44.3228 57.4309 44.8925 58.8276 45.8926 59.9626C46.8717 61.0737 48.2296 61.8968 49.7572 62.5687C51.2883 63.2421 53.0555 63.7911 54.9003 64.3185C56.7656 64.8517 58.6963 65.3593 60.6476 65.9659C64.5455 67.1777 68.3084 68.7243 71.1001 71.3706C73.8534 73.9806 75.7328 77.7298 75.7328 83.5179H77.4958ZM46.0858 55.7079C46.0858 53.9742 46.6171 52.6293 47.8915 51.6781C49.2203 50.6863 51.4899 50.0194 55.1943 50.0194V48.2565C51.3387 48.2565 48.6133 48.9395 46.8371 50.2653C45.0065 51.6316 44.3228 53.5717 44.3228 55.7079H46.0858ZM55.1943 50.0194C59.4201 50.0194 64.7419 50.8143 69.7262 52.1494L70.1824 50.4465C65.0867 49.0816 59.6085 48.2565 55.1943 48.2565V50.0194ZM70.8175 51.4765L72.9775 41.0365L71.2511 40.6793L69.0911 51.1193L70.8175 51.4765ZM72.3978 40.0233C67.5151 38.365 60.9352 37.4565 54.9243 37.4565V39.2194C60.7934 39.2194 67.1735 40.1109 71.8308 41.6926L72.3978 40.0233ZM54.9243 37.4565C48.2507 37.4565 42.3073 38.8477 38.0081 41.9303C33.6665 45.0435 31.0928 49.8188 31.0928 56.3379H32.8558C32.8558 50.347 35.1871 46.1224 39.0354 43.363C42.9263 40.5732 48.4578 39.2194 54.9243 39.2194V37.4565ZM31.0928 56.3379C31.0928 62.6073 33.138 66.8629 36.2747 69.8453C39.3742 72.7924 43.4659 74.4239 47.4242 75.6204C49.4039 76.2189 51.3951 76.7206 53.2159 77.213C55.0543 77.71 56.7246 78.1988 58.1406 78.7824C59.5615 79.368 60.6555 80.0214 61.39 80.809C62.1 81.5703 62.5028 82.4859 62.5028 83.6979H64.2658C64.2658 82.0299 63.687 80.6871 62.6793 79.6066C61.6961 78.5523 60.3362 77.7805 58.8124 77.1525C57.2837 76.5225 55.5186 76.0093 53.6761 75.5111C51.816 75.0082 49.881 74.5214 47.9344 73.9329C44.0402 72.7558 40.2794 71.2204 37.4895 68.5677C34.7369 65.9505 32.8558 62.1736 32.8558 56.3379H31.0928ZM62.5028 83.6979C62.5028 86.2977 61.6386 87.9369 59.9479 88.9912C58.1642 90.1035 55.3373 90.6465 51.2343 90.6465V92.4094C55.4113 92.4094 58.6594 91.8723 60.8807 90.4871C63.1949 89.044 64.2658 86.7682 64.2658 83.6979H62.5028ZM51.2343 90.6465C46.8396 90.6465 39.8279 89.4953 34.5155 87.6359L33.9331 89.2999C39.4207 91.2206 46.629 92.4094 51.2343 92.4094V90.6465ZM33.3602 88.2937L31.2002 99.0037L32.9284 99.3522L35.0884 88.6422L33.3602 88.2937ZM31.7747 100.01C38.0932 102.208 44.5834 103.209 52.4943 103.209V101.446C44.7452 101.446 38.4554 100.468 32.3539 98.3454L31.7747 100.01ZM74.0802 102.328L73.2685 101.984L72.7499 103.209H74.0802V102.328ZM85.5102 102.328V103.209H86.0943L86.322 102.672L85.5102 102.328ZM112.6 38.3379L113.412 38.6816L113.931 37.4565H112.6V38.3379ZM101.17 38.3379V37.4565H100.586L100.359 37.9943L101.17 38.3379ZM74.0802 103.209H85.5102V101.446H74.0802V103.209ZM86.322 102.672L113.412 38.6816L111.789 37.9943L84.6985 101.984L86.322 102.672ZM112.6 37.4565H101.17V39.2194H112.6V37.4565ZM100.359 37.9943L73.2685 101.984L74.892 102.672L101.982 38.6816L100.359 37.9943ZM112.822 101.068L111.997 101.377L112.212 101.949H112.822V101.068ZM152.062 101.068V101.949H152.944V101.068H152.062ZM152.062 91.8879H152.944V91.0065H152.062V91.8879ZM127.222 91.8879L126.572 91.2928L125.221 92.7694H127.222V91.8879ZM137.932 80.1879L138.583 80.7831L138.583 80.7831L137.932 80.1879ZM113.902 40.0479L113.689 39.1928L113.021 39.3597V40.0479H113.902ZM113.902 49.5879H113.021V50.6485L114.064 50.4545L113.902 49.5879ZM135.322 50.7579L134.749 51.4273L134.758 51.4351L135.322 50.7579ZM128.032 74.1579L127.353 73.5965L127.351 73.5986L128.032 74.1579ZM116.062 88.7379L116.741 89.3003L116.744 89.2973L116.062 88.7379ZM112.822 101.949H152.062V100.186H112.822V101.949ZM152.944 101.068V91.8879H151.181V101.068H152.944ZM152.062 91.0065H127.222V92.7694H152.062V91.0065ZM127.873 92.4831L138.583 80.7831L137.282 79.5928L126.572 91.2928L127.873 92.4831ZM138.583 80.7831C148.318 70.1465 151.954 64.0778 151.954 56.0679H150.191C150.191 63.3581 146.987 68.9893 137.282 79.5928L138.583 80.7831ZM151.954 56.0679C151.954 50.7516 150.362 46.5507 147.286 43.4746L146.039 44.7212C148.723 47.4051 150.191 51.1242 150.191 56.0679H151.954ZM147.286 43.4746C143.272 39.4613 137.148 37.4565 128.212 37.4565V39.2194C136.917 39.2194 142.492 41.1746 146.039 44.7212L147.286 43.4746ZM128.212 37.4565C123.097 37.4565 117.355 38.2762 113.689 39.1928L114.116 40.9031C117.65 40.0197 123.248 39.2194 128.212 39.2194V37.4565ZM113.021 40.0479V49.5879H114.784V40.0479H113.021ZM114.064 50.4545C117.886 49.7434 122.512 49.2994 125.962 49.2994V47.5365C122.393 47.5365 117.659 47.9924 113.741 48.7213L114.064 50.4545ZM125.962 49.2994C130.325 49.2994 133.109 50.0219 134.749 51.4272L135.896 50.0887C133.756 48.254 130.42 47.5365 125.962 47.5365V49.2994ZM134.758 51.4351C136.13 52.5785 136.871 54.2816 136.871 56.6979H138.634C138.634 53.8942 137.755 51.6373 135.887 50.0808L134.758 51.4351ZM136.871 56.6979C136.871 61.4527 134.246 65.2522 127.353 73.5965L128.712 74.7193C135.499 66.5037 138.634 62.2031 138.634 56.6979H136.871ZM127.351 73.5986L115.381 88.1786L116.744 89.2973L128.714 74.7173L127.351 73.5986ZM115.384 88.1755C114.041 89.7965 113.08 91.2968 112.461 92.9111C111.84 94.5302 111.581 96.2166 111.581 98.1879H113.344C113.344 96.3793 113.58 94.9157 114.107 93.5423C114.635 92.1641 115.474 90.8293 116.741 89.3003L115.384 88.1755ZM111.581 98.1879C111.581 99.1861 111.667 100.496 111.997 101.377L113.648 100.758C113.438 100.2 113.344 99.1698 113.344 98.1879H111.581ZM166.697 101.068L165.876 100.748L165.407 101.949H166.697V101.068ZM180.467 101.068V101.949H181.091L181.299 101.361L180.467 101.068ZM197.747 52.0179L196.919 51.7167L196.916 51.725L197.747 52.0179ZM198.557 39.5079L199.305 39.0407L199.046 38.6265H198.557V39.5079ZM158.417 39.5079V38.6265H157.536V39.5079H158.417ZM158.417 48.6879H157.536V49.5694H158.417V48.6879ZM187.127 48.6879L187.948 49.0082L188.417 47.8065H187.127V48.6879ZM166.697 101.949H180.467V100.186H166.697V101.949ZM181.299 101.361L198.579 52.3108L196.916 51.725L179.636 100.775L181.299 101.361ZM198.576 52.3192C199.7 49.2286 200.069 46.1516 200.069 43.1979H198.306C198.306 46.0043 197.955 48.8672 196.919 51.7167L198.576 52.3192ZM200.069 43.1979C200.069 42.4884 200.022 41.7004 199.912 40.9838C199.808 40.2993 199.631 39.5621 199.305 39.0407L197.81 39.9751C197.934 40.1738 198.072 40.6065 198.17 41.2496C198.263 41.8605 198.306 42.5574 198.306 43.1979H200.069ZM198.557 38.6265H158.417V40.3894H198.557V38.6265ZM157.536 39.5079V48.6879H159.299V39.5079H157.536ZM158.417 49.5694H187.127V47.8065H158.417V49.5694ZM186.306 48.3676L165.876 100.748L167.518 101.388L187.948 49.0082L186.306 48.3676Z" fill="#019DF4"/>
<path d="M213.294 70.0746H213.574C215.494 70.0746 216.494 69.3146 216.494 67.3146V66.8346C216.494 64.8346 215.494 64.0746 213.574 64.0746H213.294C211.374 64.0746 210.374 64.8346 210.374 66.8346V67.3146C210.374 69.3146 211.374 70.0746 213.294 70.0746ZM225.985 70.0746C229.625 70.0746 232.185 69.2746 234.025 67.4346C236.425 65.0346 237.745 60.9546 237.745 54.5946C237.745 46.3146 235.105 41.6346 227.785 41.6346C221.425 41.6346 218.105 45.1146 218.105 51.1946C218.105 56.6746 220.945 59.7146 225.825 59.7146C227.705 59.7146 229.945 59.2746 231.745 58.3146C231.665 61.0746 231.225 62.9546 230.025 64.1546C228.945 65.2346 227.305 65.5946 224.665 65.5946C223.225 65.5946 221.745 65.4346 220.345 65.1946V69.5546C222.185 69.8746 224.025 70.0746 225.985 70.0746ZM227.825 55.3946C224.905 55.3946 223.785 54.4746 223.785 50.9946C223.785 47.6746 225.105 45.9946 227.665 45.9946C230.785 45.9946 231.825 48.2346 231.825 53.4746V54.9946C230.705 55.2346 228.985 55.3946 227.825 55.3946ZM248.769 70.0746C256.409 70.0746 259.409 66.7146 259.409 60.9546C259.409 55.1546 256.129 52.3946 248.969 52.3946H247.529L247.769 46.2346H257.809V42.1546H242.849L242.369 53.7546C242.329 54.9946 242.369 56.0346 242.569 56.8346H248.129C252.529 56.8346 253.489 58.3546 253.489 61.1946C253.489 63.9146 252.089 65.5946 247.369 65.5946C245.569 65.5946 243.769 65.4346 242.329 65.1546V69.4346C244.129 69.8346 246.369 70.0746 248.769 70.0746Z" fill="#019DF4"/>
<path d="M212.294 71.7266H212.574V70.3642H212.294V71.7266ZM212.574 71.7266C213.603 71.7266 214.536 71.5266 215.209 70.9223C215.898 70.3037 216.175 69.3899 216.175 68.2854H214.813C214.813 69.1809 214.59 69.6471 214.299 69.9086C213.992 70.1842 213.465 70.3642 212.574 70.3642V71.7266ZM216.175 68.2854V67.8054H214.813V68.2854H216.175ZM216.175 67.8054C216.175 66.7009 215.898 65.7872 215.209 65.1686C214.536 64.5642 213.603 64.3642 212.574 64.3642V65.7266C213.465 65.7266 213.992 65.9066 214.299 66.1823C214.59 66.4437 214.813 66.9099 214.813 67.8054H216.175ZM212.574 64.3642H212.294V65.7266H212.574V64.3642ZM212.294 64.3642C211.265 64.3642 210.332 64.5642 209.659 65.1686C208.97 65.7872 208.693 66.7009 208.693 67.8054H210.055C210.055 66.9099 210.278 66.4437 210.569 66.1823C210.876 65.9066 211.403 65.7266 212.294 65.7266V64.3642ZM208.693 67.8054V68.2854H210.055V67.8054H208.693ZM208.693 68.2854C208.693 69.3899 208.97 70.3037 209.659 70.9223C210.332 71.5266 211.265 71.7266 212.294 71.7266V70.3642C211.403 70.3642 210.876 70.1842 210.569 69.9086C210.278 69.6471 210.055 69.1809 210.055 68.2854H208.693ZM233.025 68.4054L233.506 68.8871L233.025 68.4054ZM230.745 59.2854L231.426 59.3051L231.46 58.1321L230.424 58.6844L230.745 59.2854ZM229.025 65.1254L229.506 65.6071L229.025 65.1254ZM219.345 66.1654L219.46 65.494L218.663 65.3575V66.1654H219.345ZM219.345 70.5254H218.663V71.0984L219.228 71.1965L219.345 70.5254ZM230.825 55.9654L230.967 56.6315L231.506 56.5161V55.9654H230.825ZM224.985 71.7266C228.72 71.7266 231.489 70.9044 233.506 68.8871L232.543 67.9237C230.88 69.5864 228.529 70.3642 224.985 70.3642V71.7266ZM233.506 68.8871C236.097 66.2967 237.426 61.9922 237.426 55.5654H236.063C236.063 61.8586 234.752 65.7142 232.543 67.9237L233.506 68.8871ZM237.426 55.5654C237.426 51.3789 236.764 47.9639 235.064 45.5845C233.329 43.156 230.604 41.9242 226.785 41.9242V43.2866C230.286 43.2866 232.54 44.3948 233.955 46.3764C235.406 48.4069 236.063 51.4719 236.063 55.5654H237.426ZM226.785 41.9242C223.484 41.9242 220.867 42.8291 219.077 44.6245C217.288 46.4193 216.423 49.0054 216.423 52.1654H217.786C217.786 49.2454 218.581 47.0515 220.042 45.5864C221.502 44.1217 223.725 43.2866 226.785 43.2866V41.9242ZM216.423 52.1654C216.423 55.0166 217.163 57.3317 218.632 58.9398C220.109 60.5569 222.239 61.3666 224.825 61.3666V60.0042C222.53 60.0042 220.8 59.2939 219.638 58.021C218.467 56.7391 217.786 54.7943 217.786 52.1654H216.423ZM224.825 61.3666C226.794 61.3666 229.148 60.9088 231.065 59.8865L230.424 58.6844C228.741 59.582 226.616 60.0042 224.825 60.0042V61.3666ZM230.064 59.2657C229.984 62.005 229.543 63.6436 228.543 64.6437L229.506 65.6071C230.906 64.2073 231.345 62.0859 231.426 59.3051L230.064 59.2657ZM228.543 64.6437C227.672 65.5149 226.286 65.8842 223.665 65.8842V67.2466C226.324 67.2466 228.218 66.8959 229.506 65.6071L228.543 64.6437ZM223.665 65.8842C222.273 65.8842 220.833 65.7294 219.46 65.494L219.23 66.8368C220.657 67.0815 222.176 67.2466 223.665 67.2466V65.8842ZM218.663 66.1654V70.5254H220.026V66.1654H218.663ZM219.228 71.1965C221.097 71.5216 222.977 71.7266 224.985 71.7266V70.3642C223.072 70.3642 221.272 70.1692 219.461 69.8543L219.228 71.1965ZM226.825 55.6842C225.396 55.6842 224.638 55.4492 224.199 54.9961C223.751 54.5344 223.466 53.6747 223.466 51.9654H222.103C222.103 53.7361 222.379 55.0764 223.221 55.9447C224.071 56.8216 225.333 57.0466 226.825 57.0466V55.6842ZM223.466 51.9654C223.466 50.3781 223.784 49.3041 224.302 48.6389C224.796 48.0048 225.546 47.6466 226.665 47.6466V46.2842C225.223 46.2842 224.033 46.7661 223.227 47.802C222.445 48.8067 222.103 50.2328 222.103 51.9654H223.466ZM226.665 47.6466C227.365 47.6466 227.895 47.7723 228.305 47.9956C228.709 48.2154 229.043 48.5546 229.314 49.0617C229.878 50.1158 230.143 51.8352 230.143 54.4454H231.506C231.506 51.8156 231.251 49.795 230.515 48.4191C230.137 47.7112 229.625 47.1629 228.957 46.799C228.294 46.4385 227.524 46.2842 226.665 46.2842V47.6466ZM230.143 54.4454V55.9654H231.506V54.4454H230.143ZM230.682 55.2993C229.616 55.5278 227.944 55.6842 226.825 55.6842V57.0466C228.025 57.0466 229.794 56.883 230.967 56.6315L230.682 55.2993ZM246.529 53.3654L245.848 53.3389L245.821 54.0466H246.529V53.3654ZM246.769 47.2054V46.5242H246.114L246.088 47.1789L246.769 47.2054ZM256.809 47.2054V47.8866H257.49V47.2054H256.809ZM256.809 43.1254H257.49V42.4442H256.809V43.1254ZM241.849 43.1254V42.4442H241.195L241.168 43.0972L241.849 43.1254ZM241.369 54.7254L240.688 54.6972L240.688 54.7034L241.369 54.7254ZM241.569 57.8054L240.908 57.9706L241.037 58.4866H241.569V57.8054ZM241.329 66.1254L241.459 65.4567L240.648 65.299V66.1254H241.329ZM241.329 70.4054H240.648V70.9519L241.181 71.0704L241.329 70.4054ZM247.769 71.7266C251.673 71.7266 254.532 70.8701 256.414 69.148C258.309 67.4143 259.09 64.9184 259.09 61.9254H257.728C257.728 64.6924 257.009 66.7566 255.494 68.1428C253.966 69.5407 251.505 70.3642 247.769 70.3642V71.7266ZM259.09 61.9254C259.09 58.8956 258.228 56.5298 256.308 54.945C254.415 53.3833 251.615 52.6842 247.969 52.6842V54.0466C251.483 54.0466 253.903 54.7276 255.44 55.9959C256.95 57.241 257.728 59.1552 257.728 61.9254H259.09ZM247.969 52.6842H246.529V54.0466H247.969V52.6842ZM247.21 53.3919L247.45 47.2319L246.088 47.1789L245.848 53.3389L247.21 53.3919ZM246.769 47.8866H256.809V46.5242H246.769V47.8866ZM257.49 47.2054V43.1254H256.128V47.2054H257.49ZM256.809 42.4442H241.849V43.8066H256.809V42.4442ZM241.168 43.0972L240.688 54.6972L242.05 54.7536L242.53 43.1536L241.168 43.0972ZM240.688 54.7034C240.648 55.9547 240.684 57.074 240.908 57.9706L242.23 57.6402C242.054 56.9368 242.01 55.9761 242.05 54.7474L240.688 54.7034ZM241.569 58.4866H247.129V57.1242H241.569V58.4866ZM247.129 58.4866C249.288 58.4866 250.402 58.8674 250.995 59.4191C251.569 59.9529 251.808 60.7924 251.808 62.1654H253.17C253.17 60.6984 252.929 59.3579 251.923 58.4217C250.936 57.5034 249.37 57.1242 247.129 57.1242V58.4866ZM251.808 62.1654C251.808 63.41 251.492 64.2727 250.771 64.8557C250.013 65.4686 248.675 65.8842 246.369 65.8842V67.2466C248.783 67.2466 250.505 66.8222 251.627 65.9151C252.786 64.9781 253.17 63.6409 253.17 62.1654H251.808ZM246.369 65.8842C244.604 65.8842 242.849 65.727 241.459 65.4567L241.199 66.7941C242.689 67.0838 244.533 67.2466 246.369 67.2466V65.8842ZM240.648 66.1254V70.4054H242.01V66.1254H240.648ZM241.181 71.0704C243.037 71.4828 245.327 71.7266 247.769 71.7266V70.3642C245.411 70.3642 243.221 70.1281 241.477 69.7404L241.181 71.0704Z" fill="#019DF4"/>
<path d="M62.2398 18.3884H64.5978V11.2244L67.2258 15.5804H69.3858L71.9418 11.2964V18.3884H74.5158V6.07637H72.3558L68.3418 12.9524L64.4538 6.07637H62.2398V18.3884ZM77.6672 8.09237H77.7932C78.6752 8.09237 79.1432 7.75037 79.1432 6.86837V6.63437C79.1432 5.75237 78.6752 5.39237 77.7932 5.39237H77.6672C76.7852 5.39237 76.3172 5.75237 76.3172 6.63437V6.86837C76.3172 7.75037 76.7852 8.09237 77.6672 8.09237ZM76.4432 18.3884H79.0172V9.56837H76.4432V18.3884ZM84.4272 22.6904H84.5712C87.7392 22.6904 89.0532 21.6104 89.0532 19.7744C89.0532 18.9284 88.8372 18.3524 88.4052 17.9024C87.7752 17.2544 86.7672 16.9664 85.0752 16.9664H83.3472C83.1672 16.9664 83.0952 16.8944 83.0952 16.7324C83.0952 16.6064 83.1672 16.3184 83.3292 16.0304C83.6892 16.0844 84.0672 16.1024 84.4812 16.1024C86.9652 16.1024 88.4412 15.0584 88.4412 12.7004C88.4412 11.2964 87.8652 10.3784 86.9292 9.85637L88.2072 8.07437C87.6852 7.67837 86.8932 7.33637 86.2092 7.17437L85.3452 9.37037C85.0572 9.33437 84.7692 9.31637 84.4812 9.31637C81.9972 9.31637 80.5032 10.3604 80.5032 12.7004C80.5032 14.0324 81.0252 14.9324 81.8532 15.4724C81.1152 16.0844 80.6832 16.8764 80.6832 17.6144C80.6832 18.1184 80.8272 18.5144 81.1332 18.7664C80.5032 19.0904 80.0892 19.6484 80.0892 20.3684C80.0892 21.9524 81.3852 22.6904 84.4272 22.6904ZM84.4812 14.2664C83.2932 14.2664 82.8252 13.7264 82.8252 12.7004C82.8252 11.6924 83.2932 11.1524 84.4812 11.1524C85.6512 11.1524 86.1192 11.6924 86.1192 12.7004C86.1192 13.7264 85.6512 14.2664 84.4812 14.2664ZM84.4992 20.7464C82.8612 20.7464 82.3752 20.4224 82.3752 19.7744C82.3752 19.5584 82.4292 19.3244 82.6272 19.1084H85.2012C86.3892 19.1084 86.7492 19.3064 86.7492 19.8824C86.7492 20.4404 86.0652 20.7464 84.7692 20.7464H84.4992ZM89.8814 18.3884H92.4554V11.7644C93.0134 11.6384 93.5354 11.5484 94.2194 11.5484C94.6334 11.5484 95.0654 11.5844 95.3534 11.6204V9.37037C95.2454 9.35237 95.0474 9.33437 94.9034 9.33437C94.0574 9.33437 92.8874 9.65837 92.2034 10.2884L92.1134 9.56837H89.8814V18.3884ZM98.5947 18.6404C99.5307 18.6404 100.485 18.3344 101.241 17.8484L101.457 18.3884H103.491V12.6644C103.491 11.6024 103.257 10.8464 102.807 10.3244C102.195 9.60437 100.989 9.31637 99.6387 9.31637C98.5767 9.31637 97.4067 9.46037 96.5067 9.64037L96.6327 11.5304C97.2447 11.4044 98.2707 11.2964 99.0987 11.2964C99.8007 11.2964 100.287 11.3864 100.593 11.6564C100.809 11.8544 100.917 12.1604 100.917 12.6464V12.9344H99.5127C97.8747 12.9344 96.9027 13.1504 96.2727 13.7444C95.7687 14.2304 95.4987 14.9504 95.4987 15.7424C95.4987 17.4524 96.5787 18.6404 98.5947 18.6404ZM99.3327 16.6784C98.3967 16.6784 98.0727 16.2824 98.0727 15.6344C98.0727 15.3104 98.1627 15.0584 98.3247 14.8964C98.5587 14.6624 98.9367 14.5904 99.5487 14.5904H100.917V16.4084C100.503 16.5344 99.8187 16.6784 99.3327 16.6784ZM111.12 18.6404C112.056 18.6404 113.01 18.3344 113.766 17.8484L113.982 18.3884H116.016V12.6644C116.016 11.6024 115.782 10.8464 115.332 10.3244C114.72 9.60437 113.514 9.31637 112.164 9.31637C111.102 9.31637 109.932 9.46037 109.032 9.64037L109.158 11.5304C109.77 11.4044 110.796 11.2964 111.624 11.2964C112.326 11.2964 112.812 11.3864 113.118 11.6564C113.334 11.8544 113.442 12.1604 113.442 12.6464V12.9344H112.038C110.4 12.9344 109.428 13.1504 108.798 13.7444C108.294 14.2304 108.024 14.9504 108.024 15.7424C108.024 17.4524 109.104 18.6404 111.12 18.6404ZM111.858 16.6784C110.922 16.6784 110.598 16.2824 110.598 15.6344C110.598 15.3104 110.688 15.0584 110.85 14.8964C111.084 14.6624 111.462 14.5904 112.074 14.5904H113.442V16.4084C113.028 16.5344 112.344 16.6784 111.858 16.6784ZM117.587 18.3884H120.161V11.7464C120.575 11.5844 121.349 11.4584 121.835 11.4584C122.357 11.4584 122.717 11.5304 122.951 11.7464C123.131 11.9264 123.221 12.1784 123.221 12.6284V18.3884H125.795V12.3224C125.795 11.2964 125.579 10.5224 125.039 10.0004C124.553 9.51437 123.689 9.31637 122.915 9.31637C122.069 9.31637 121.061 9.53237 120.161 10.0364V5.51837H117.587V18.3884ZM131.397 18.6404C134.457 18.6404 135.879 16.8044 135.879 13.9784C135.879 11.1524 134.457 9.31637 131.397 9.31637C128.337 9.31637 126.915 11.1524 126.915 13.9784C126.915 16.8044 128.337 18.6404 131.397 18.6404ZM131.397 16.6784C130.101 16.6784 129.597 15.7964 129.597 13.9784C129.597 12.1604 130.101 11.2784 131.397 11.2784C132.693 11.2784 133.197 12.1604 133.197 13.9784C133.197 15.7964 132.693 16.6784 131.397 16.6784ZM137.056 18.3884H139.63V11.7644C140.188 11.6384 140.71 11.5484 141.394 11.5484C141.808 11.5484 142.24 11.5844 142.528 11.6204V9.37037C142.42 9.35237 142.222 9.33437 142.078 9.33437C141.232 9.33437 140.062 9.65837 139.378 10.2884L139.288 9.56837H137.056V18.3884ZM145.769 18.6404C146.705 18.6404 147.659 18.3344 148.415 17.8484L148.631 18.3884H150.665V12.6644C150.665 11.6024 150.431 10.8464 149.981 10.3244C149.369 9.60437 148.163 9.31637 146.813 9.31637C145.751 9.31637 144.581 9.46037 143.681 9.64037L143.807 11.5304C144.419 11.4044 145.445 11.2964 146.273 11.2964C146.975 11.2964 147.461 11.3864 147.767 11.6564C147.983 11.8544 148.091 12.1604 148.091 12.6464V12.9344H146.687C145.049 12.9344 144.077 13.1504 143.447 13.7444C142.943 14.2304 142.673 14.9504 142.673 15.7424C142.673 17.4524 143.753 18.6404 145.769 18.6404ZM146.507 16.6784C145.571 16.6784 145.247 16.2824 145.247 15.6344C145.247 15.3104 145.337 15.0584 145.499 14.8964C145.733 14.6624 146.111 14.5904 146.723 14.5904H148.091V16.4084C147.677 16.5344 146.993 16.6784 146.507 16.6784ZM159.77 22.6904C162.974 22.6904 163.856 21.1244 163.856 18.0104V9.56837H161.282V16.1204C160.868 16.2824 160.112 16.4444 159.626 16.4444C159.086 16.4444 158.762 16.3724 158.528 16.1564C158.348 15.9764 158.258 15.7244 158.258 15.2744V9.56837H155.684V15.6344C155.684 16.6604 155.936 17.3444 156.458 17.8664C156.944 18.3524 157.736 18.5504 158.51 18.5504C159.392 18.5504 160.418 18.3164 161.282 17.8304V18.9104C161.282 19.5404 161.174 20.0264 160.85 20.3324C160.58 20.6024 159.986 20.7464 159.356 20.7464C158.492 20.7464 157.934 20.6564 157.34 20.5484L157.52 22.4564C158.186 22.6004 158.906 22.6904 159.77 22.6904ZM168.984 22.4384H171.558V17.9924C172.224 18.4064 173.124 18.6404 173.916 18.6404C175.914 18.6404 177.354 17.3984 177.354 13.9244C177.354 12.2864 176.994 10.8824 176.166 10.0724C175.662 9.58637 174.942 9.31637 174.06 9.31637C172.98 9.31637 172.044 9.71237 171.288 10.2164L171.216 9.56837H168.984V22.4384ZM173.16 16.6064C172.602 16.6064 171.972 16.5344 171.558 16.3544V11.6384C171.99 11.5124 172.674 11.4044 173.088 11.4044C174.258 11.4044 174.654 11.9984 174.654 13.8884C174.654 16.0124 174.24 16.6064 173.16 16.6064ZM181.073 18.6404C182.009 18.6404 182.963 18.3344 183.719 17.8484L183.935 18.3884H185.969V12.6644C185.969 11.6024 185.735 10.8464 185.285 10.3244C184.673 9.60437 183.467 9.31637 182.117 9.31637C181.055 9.31637 179.885 9.46037 178.985 9.64037L179.111 11.5304C179.723 11.4044 180.749 11.2964 181.577 11.2964C182.279 11.2964 182.765 11.3864 183.071 11.6564C183.287 11.8544 183.395 12.1604 183.395 12.6464V12.9344H181.991C180.353 12.9344 179.381 13.1504 178.751 13.7444C178.247 14.2304 177.977 14.9504 177.977 15.7424C177.977 17.4524 179.057 18.6404 181.073 18.6404ZM181.811 16.6784C180.875 16.6784 180.551 16.2824 180.551 15.6344C180.551 15.3104 180.641 15.0584 180.803 14.8964C181.037 14.6624 181.415 14.5904 182.027 14.5904H183.395V16.4084C182.981 16.5344 182.297 16.6784 181.811 16.6784ZM191.283 22.6904H191.427C194.595 22.6904 195.909 21.6104 195.909 19.7744C195.909 18.9284 195.693 18.3524 195.261 17.9024C194.631 17.2544 193.623 16.9664 191.931 16.9664H190.203C190.023 16.9664 189.951 16.8944 189.951 16.7324C189.951 16.6064 190.023 16.3184 190.185 16.0304C190.545 16.0844 190.923 16.1024 191.337 16.1024C193.821 16.1024 195.297 15.0584 195.297 12.7004C195.297 11.2964 194.721 10.3784 193.785 9.85637L195.063 8.07437C194.541 7.67837 193.749 7.33637 193.065 7.17437L192.201 9.37037C191.913 9.33437 191.625 9.31637 191.337 9.31637C188.853 9.31637 187.359 10.3604 187.359 12.7004C187.359 14.0324 187.881 14.9324 188.709 15.4724C187.971 16.0844 187.539 16.8764 187.539 17.6144C187.539 18.1184 187.683 18.5144 187.989 18.7664C187.359 19.0904 186.945 19.6484 186.945 20.3684C186.945 21.9524 188.241 22.6904 191.283 22.6904ZM191.337 14.2664C190.149 14.2664 189.681 13.7264 189.681 12.7004C189.681 11.6924 190.149 11.1524 191.337 11.1524C192.507 11.1524 192.975 11.6924 192.975 12.7004C192.975 13.7264 192.507 14.2664 191.337 14.2664ZM191.355 20.7464C189.717 20.7464 189.231 20.4224 189.231 19.7744C189.231 19.5584 189.285 19.3244 189.483 19.1084H192.057C193.245 19.1084 193.605 19.3064 193.605 19.8824C193.605 20.4404 192.921 20.7464 191.625 20.7464H191.355ZM199.293 18.6404C200.229 18.6404 201.183 18.3344 201.939 17.8484L202.155 18.3884H204.189V12.6644C204.189 11.6024 203.955 10.8464 203.505 10.3244C202.893 9.60437 201.687 9.31637 200.337 9.31637C199.275 9.31637 198.105 9.46037 197.205 9.64037L197.331 11.5304C197.943 11.4044 198.969 11.2964 199.797 11.2964C200.499 11.2964 200.985 11.3864 201.291 11.6564C201.507 11.8544 201.615 12.1604 201.615 12.6464V12.9344H200.211C198.573 12.9344 197.601 13.1504 196.971 13.7444C196.467 14.2304 196.197 14.9504 196.197 15.7424C196.197 17.4524 197.277 18.6404 199.293 18.6404ZM200.031 16.6784C199.095 16.6784 198.771 16.2824 198.771 15.6344C198.771 15.3104 198.861 15.0584 199.023 14.8964C199.257 14.6624 199.635 14.5904 200.247 14.5904H201.615V16.4084C201.201 16.5344 200.517 16.6784 200.031 16.6784ZM212.125 18.6404C214.771 18.6404 216.103 17.5784 216.103 15.7424C216.103 12.0884 211.279 13.5104 211.279 12.0164C211.279 11.5124 211.783 11.2964 212.701 11.2964C213.421 11.2964 214.501 11.4404 215.419 11.6924L215.617 9.80237C214.663 9.47837 213.565 9.31637 212.683 9.31637C210.037 9.31637 208.849 10.5224 208.849 12.1604C208.849 15.8144 213.655 14.2844 213.655 15.8504C213.655 16.4804 213.043 16.6604 212.071 16.6604C211.117 16.6604 209.893 16.4624 209.227 16.2464L209.029 18.1544C209.731 18.4064 211.081 18.6404 212.125 18.6404ZM221.298 18.6404C224.358 18.6404 225.78 16.8044 225.78 13.9784C225.78 11.1524 224.358 9.31637 221.298 9.31637C218.238 9.31637 216.816 11.1524 216.816 13.9784C216.816 16.8044 218.238 18.6404 221.298 18.6404ZM221.298 16.6784C220.002 16.6784 219.498 15.7964 219.498 13.9784C219.498 12.1604 220.002 11.2784 221.298 11.2784C222.594 11.2784 223.098 12.1604 223.098 13.9784C223.098 15.7964 222.594 16.6784 221.298 16.6784ZM227.01 18.3884H229.584V5.51837H227.01V18.3884ZM235.282 18.6404C238.342 18.6404 239.764 16.8044 239.764 13.9784C239.764 11.1524 238.342 9.31637 235.282 9.31637C232.222 9.31637 230.8 11.1524 230.8 13.9784C230.8 16.8044 232.222 18.6404 235.282 18.6404ZM235.282 16.6784C233.986 16.6784 233.482 15.7964 233.482 13.9784C233.482 12.1604 233.986 11.2784 235.282 11.2784C236.578 11.2784 237.082 12.1604 237.082 13.9784C237.082 15.7964 236.578 16.6784 235.282 16.6784Z" fill="#0B2739"/>
<mask id="mask0_110_992" style="mask-type:alpha" maskUnits="userSpaceOnUse" x="0" y="1" width="304" height="132">
<path d="M248.154 29.0659V5.59193L299.545 3.05958L303.626 132.427H4.8972L0 1.42719L51.6543 5.59193V28.7699H24.486L21.6293 115.287H283.221L280.773 32.0347L248.154 29.0659Z" fill="#C4C4C4"/>
</mask>
<g mask="url(#mask0_110_992)">
<path d="M284.272 16.8053H17.7809C14.3023 16.8053 11.4823 19.6253 11.4823 23.1039V119.308C11.4823 122.786 14.3023 125.606 17.7809 125.606H284.272C287.751 125.606 290.571 122.786 290.571 119.308V23.1039C290.571 19.6253 287.751 16.8053 284.272 16.8053Z" stroke="#019DF4" stroke-width="1.39969"/>
</g>
<path d="M201.906 105.427H204.948L207.162 101.251L209.61 105.427H212.724L208.8 99.1452L212.832 93.1152H209.844L207.612 97.1832L205.164 93.1152H202.23L205.992 99.2892L201.906 105.427ZM220.921 105.679C223.783 105.679 225.277 104.113 225.277 101.377C225.277 98.9112 223.999 97.5432 221.803 97.5432C220.957 97.5432 219.949 97.7412 219.139 98.1732C219.175 96.9312 219.373 96.0852 219.913 95.5452C220.399 95.0592 221.137 94.8972 222.325 94.8972C222.973 94.8972 223.639 94.9692 224.269 95.0772V93.1152C223.441 92.9712 222.613 92.8812 221.731 92.8812C220.093 92.8812 218.941 93.2412 218.113 94.0692C217.033 95.1492 216.439 96.9852 216.439 99.8472C216.439 103.573 217.627 105.679 220.921 105.679ZM220.975 103.717C219.571 103.717 219.103 102.709 219.103 100.351V99.6672C219.607 99.5592 220.381 99.4872 220.903 99.4872C222.217 99.4872 222.721 99.9012 222.721 101.467C222.721 102.961 222.127 103.717 220.975 103.717ZM229.439 105.427H232.013V98.7852C232.445 98.6232 233.093 98.4972 233.543 98.4972C234.011 98.4972 234.389 98.5692 234.623 98.7852C234.803 98.9652 234.893 99.2172 234.893 99.6672V105.427H237.467V99.3612C237.467 99.1452 237.449 98.9292 237.431 98.7312C237.863 98.6052 238.493 98.4972 238.925 98.4972C239.447 98.4972 239.807 98.5692 240.041 98.7852C240.221 98.9652 240.311 99.2172 240.311 99.6672V105.427H242.885V99.3612C242.885 98.3352 242.669 97.5612 242.129 97.0392C241.643 96.5532 240.779 96.3552 240.005 96.3552C239.051 96.3552 237.917 96.6252 236.927 97.2912C236.477 96.6612 235.667 96.3552 234.587 96.3552C233.669 96.3552 232.679 96.6072 231.725 97.2372L231.671 96.6072H229.439V105.427ZM248.488 105.679C249.586 105.679 250.612 105.535 251.458 105.373L251.26 103.501C250.594 103.627 249.694 103.717 249.064 103.717C247.336 103.717 246.418 103.303 246.346 101.809H251.764C251.908 101.809 251.98 101.755 251.98 101.611V100.801C251.98 97.7412 250.576 96.3552 247.93 96.3552C245.23 96.3552 243.646 97.9392 243.646 101.035C243.646 102.439 243.952 103.699 244.834 104.545C245.59 105.265 246.832 105.679 248.488 105.679ZM246.346 100.135C246.4 99.0012 246.868 98.2992 247.912 98.2992C248.938 98.2992 249.46 99.0192 249.46 100.135H246.346ZM255.567 105.679C258.213 105.679 259.545 104.617 259.545 102.781C259.545 99.1272 254.721 100.549 254.721 99.0552C254.721 98.5512 255.225 98.3352 256.143 98.3352C256.863 98.3352 257.943 98.4792 258.861 98.7312L259.059 96.8412C258.105 96.5172 257.007 96.3552 256.125 96.3552C253.479 96.3552 252.291 97.5612 252.291 99.1992C252.291 102.853 257.097 101.323 257.097 102.889C257.097 103.519 256.485 103.699 255.513 103.699C254.559 103.699 253.335 103.501 252.669 103.285L252.471 105.193C253.173 105.445 254.523 105.679 255.567 105.679ZM264.74 105.679C265.838 105.679 266.864 105.535 267.71 105.373L267.512 103.501C266.846 103.627 265.946 103.717 265.316 103.717C263.588 103.717 262.67 103.303 262.598 101.809H268.016C268.16 101.809 268.232 101.755 268.232 101.611V100.801C268.232 97.7412 266.828 96.3552 264.182 96.3552C261.482 96.3552 259.898 97.9392 259.898 101.035C259.898 102.439 260.204 103.699 261.086 104.545C261.842 105.265 263.084 105.679 264.74 105.679ZM262.598 100.135C262.652 99.0012 263.12 98.2992 264.164 98.2992C265.19 98.2992 265.712 99.0192 265.712 100.135H262.598ZM271.82 105.679C274.466 105.679 275.798 104.617 275.798 102.781C275.798 99.1272 270.974 100.549 270.974 99.0552C270.974 98.5512 271.478 98.3352 272.396 98.3352C273.116 98.3352 274.196 98.4792 275.114 98.7312L275.312 96.8412C274.358 96.5172 273.26 96.3552 272.378 96.3552C269.732 96.3552 268.544 97.5612 268.544 99.1992C268.544 102.853 273.35 101.323 273.35 102.889C273.35 103.519 272.738 103.699 271.766 103.699C270.812 103.699 269.588 103.501 268.922 103.285L268.724 105.193C269.426 105.445 270.776 105.679 271.82 105.679Z" fill="#0B2739"/>
</svg>
