<svg width="464" height="262" viewBox="0 0 464 262" fill="none" xmlns="http://www.w3.org/2000/svg">
<path d="M107.485 115.638C121.106 115.638 130.667 112.494 136.561 106.339C140.752 102.016 142.848 95.9917 142.848 89.0501C142.848 77.3935 137.216 70.3209 127.786 66.9156C135.644 62.9864 139.704 56.4378 139.704 47.1387C139.704 39.6732 137.347 34.4343 133.548 30.6361C128.048 25.1352 118.487 22.5157 107.223 22.5157C100.281 22.5157 92.6849 23.1706 86.6601 24.4803V38.3635C91.899 37.5777 98.4477 37.0538 104.211 37.0538C111.283 37.0538 115.736 38.1015 118.356 40.4591C120.451 42.2927 121.368 45.1741 121.368 48.5794C121.368 52.9015 119.927 55.9139 117.832 57.7475C114.688 60.4979 110.497 61.5457 102.246 61.5457H99.1026V74.643H101.591C110.759 74.643 115.736 75.4289 119.01 77.7864C121.761 79.751 123.464 82.8943 123.464 87.6094C123.464 92.4554 121.761 95.8607 118.618 97.9563C115.474 100.052 111.152 100.969 103.818 100.969C97.2689 100.969 91.1132 100.314 85.8743 99.397V113.542C91.899 114.852 99.7574 115.638 107.485 115.638Z" stroke="url(#paint0_linear_102_499)" stroke-width="0.5" stroke-linecap="round"/>
<path d="M186.279 115.638C211.164 115.638 220.594 99.7899 220.594 69.1422C220.594 38.4945 211.164 22.5157 186.279 22.5157C161.395 22.5157 151.965 38.4945 151.965 69.1422C151.965 99.7899 161.395 115.638 186.279 115.638ZM186.279 100.576C175.671 100.576 171.48 93.8961 171.48 69.1422C171.48 44.3883 175.671 36.2679 186.279 36.2679C196.888 36.2679 201.079 44.3883 201.079 69.1422C201.079 93.8961 196.888 100.576 186.279 100.576Z" stroke="url(#paint1_linear_102_499)" stroke-width="0.5" stroke-linecap="round"/>
<path d="M283.472 115.638C293.295 115.638 306.916 113.673 315.429 111.054V65.344H282.555V80.0129H295.129V98.8731C291.985 99.397 287.532 99.7899 284.258 99.7899C275.614 99.7899 270.244 97.1704 266.969 92.5864C263.04 87.0855 261.731 78.8342 261.731 68.7493C261.731 49.2343 269.196 38.4945 287.27 38.4945C294.343 38.4945 302.07 39.9352 308.488 41.7688L311.107 26.8379C305.345 24.3494 294.736 22.5157 285.83 22.5157C255.313 22.5157 240.513 41.5068 240.513 69.5351C240.513 97.9563 251.384 115.638 283.472 115.638Z" stroke="url(#paint2_linear_102_499)" stroke-width="0.5" stroke-linecap="round"/>
<path d="M326.287 113.804H358.113C371.997 113.804 380.772 111.577 386.535 106.47C391.381 102.147 394 95.8607 394 87.2165C394 75.4289 386.142 67.3085 375.009 65.7369C383.26 61.5457 387.582 55.39 387.582 46.2219C387.582 39.6732 385.356 34.4343 381.296 30.898C376.057 26.314 368.198 24.2184 355.494 24.2184H326.287V113.804ZM346.719 59.8431V39.0184H354.184C359.685 39.0184 362.828 39.6732 364.793 41.6378C366.496 43.3405 367.281 45.829 367.281 49.1033C367.281 52.7705 366.365 55.39 364.662 57.0926C362.435 59.1882 359.292 59.8431 353.66 59.8431H346.719ZM346.719 99.004V74.643H355.101C362.435 74.643 366.627 75.2979 369.377 77.6554C371.735 79.62 372.782 82.7634 372.782 87.6094C372.782 91.2766 371.735 93.8961 369.901 95.7297C367.412 98.2182 362.697 99.004 355.101 99.004H346.719Z" stroke="url(#paint3_linear_102_499)" stroke-width="0.5" stroke-linecap="round"/>
<path d="M102.52 106.28C116.141 106.28 125.702 103.137 131.596 96.9811C135.787 92.659 137.883 86.6342 137.883 79.6927C137.883 68.0361 132.251 60.9635 122.821 57.5582C130.679 53.629 134.739 47.0804 134.739 37.7813C134.739 30.3158 132.382 25.0769 128.584 21.2787C123.083 15.7778 113.522 13.1583 102.258 13.1583C95.3165 13.1583 87.72 13.8132 81.6953 15.1229V29.0061C86.9342 28.2202 93.4828 27.6963 99.2457 27.6963C106.318 27.6963 110.771 28.7441 113.391 31.1016C115.486 32.9353 116.403 35.8167 116.403 39.222C116.403 43.5441 114.962 46.5565 112.867 48.3901C109.724 51.1405 105.532 52.1883 97.2811 52.1883H94.1377V65.2856H96.6262C105.794 65.2856 110.771 66.0715 114.046 68.429C116.796 70.3936 118.499 73.5369 118.499 78.252C118.499 83.098 116.796 86.5033 113.653 88.5988C110.509 90.6944 106.187 91.6112 98.8527 91.6112C92.3041 91.6112 86.1483 90.9564 80.9094 90.0395V104.185C86.9342 105.494 94.7926 106.28 102.52 106.28Z" fill="url(#paint4_linear_102_499)"/>
<path d="M181.315 106.28C206.2 106.28 215.63 90.4325 215.63 59.7848C215.63 29.137 206.2 13.1583 181.315 13.1583C156.43 13.1583 147 29.137 147 59.7848C147 90.4325 156.43 106.28 181.315 106.28ZM181.315 91.2183C170.706 91.2183 166.515 84.5387 166.515 59.7848C166.515 35.0308 170.706 26.9105 181.315 26.9105C191.923 26.9105 196.115 35.0308 196.115 59.7848C196.115 84.5387 191.923 91.2183 181.315 91.2183Z" fill="url(#paint5_linear_102_499)"/>
<path d="M278.507 106.28C288.33 106.28 301.951 104.316 310.465 101.696V55.9865H277.59V70.6555H290.164V89.5156C287.02 90.0395 282.567 90.4324 279.293 90.4324C270.649 90.4324 265.279 87.813 262.005 83.2289C258.075 77.7281 256.766 69.4768 256.766 59.3918C256.766 39.8768 264.231 29.137 282.305 29.137C289.378 29.137 297.105 30.5778 303.523 32.4114L306.143 17.4804C300.38 14.992 289.771 13.1583 280.865 13.1583C250.348 13.1583 235.548 32.1494 235.548 60.1777C235.548 88.5988 246.419 106.28 278.507 106.28Z" fill="url(#paint6_linear_102_499)"/>
<path d="M321.322 104.447H353.149C367.032 104.447 375.807 102.22 381.57 97.1121C386.416 92.79 389.035 86.5033 389.035 77.859C389.035 66.0715 381.177 57.9511 370.044 56.3794C378.295 52.1883 382.617 46.0326 382.617 36.8645C382.617 30.3158 380.391 25.0769 376.331 21.5406C371.092 16.9565 363.233 14.861 350.529 14.861H321.322V104.447ZM341.754 50.4857V29.6609H349.219C354.72 29.6609 357.864 30.3158 359.828 32.2804C361.531 33.983 362.317 36.4715 362.317 39.7459C362.317 43.4131 361.4 46.0326 359.697 47.7352C357.471 49.8308 354.327 50.4857 348.695 50.4857H341.754ZM341.754 89.6466V65.2856H350.136C357.471 65.2856 361.662 65.9405 364.412 68.298C366.77 70.2626 367.818 73.406 367.818 78.252C367.818 81.9192 366.77 84.5387 364.936 86.3723C362.448 88.8608 357.733 89.6466 350.136 89.6466H341.754Z" fill="url(#paint7_linear_102_499)"/>
<path d="M98.9748 93.5419C112.596 93.5419 122.157 90.3986 128.051 84.2428C132.242 79.9207 134.338 73.896 134.338 66.9544C134.338 55.2978 128.706 48.2252 119.276 44.8199C127.134 40.8907 131.194 34.3421 131.194 25.043C131.194 17.5775 128.837 12.3386 125.038 8.54037C119.538 3.0395 109.977 0.420044 98.7129 0.420044C91.7713 0.420044 84.1749 1.07491 78.1501 2.38464V16.2678C83.389 15.482 89.9377 14.9581 95.7005 14.9581C102.773 14.9581 107.226 16.0058 109.846 18.3634C111.941 20.197 112.858 23.0784 112.858 26.4837C112.858 30.8058 111.417 33.8182 109.322 35.6518C106.178 38.4022 101.987 39.45 93.7359 39.45H90.5925V52.5473H93.081C102.249 52.5473 107.226 53.3332 110.5 55.6907C113.251 57.6553 114.954 60.7986 114.954 65.5137C114.954 70.3597 113.251 73.765 110.108 75.8606C106.964 77.9561 102.642 78.8729 95.3076 78.8729C88.7589 78.8729 82.6032 78.2181 77.3643 77.3013V91.4464C83.389 92.7561 91.2474 93.5419 98.9748 93.5419Z" fill="white"/>
<path d="M177.769 93.5419C202.654 93.5419 212.084 77.6942 212.084 47.0465C212.084 16.3988 202.654 0.420044 177.769 0.420044C152.885 0.420044 143.455 16.3988 143.455 47.0465C143.455 77.6942 152.885 93.5419 177.769 93.5419ZM177.769 78.48C167.161 78.48 162.969 71.8004 162.969 47.0465C162.969 22.2926 167.161 14.1722 177.769 14.1722C188.378 14.1722 192.569 22.2926 192.569 47.0465C192.569 71.8004 188.378 78.48 177.769 78.48Z" fill="white"/>
<path d="M274.962 93.5419C284.785 93.5419 298.406 91.5773 306.919 88.9579V43.2483H274.045V57.9172H286.619V76.7774C283.475 77.3013 279.022 77.6942 275.748 77.6942C267.104 77.6942 261.734 75.0747 258.459 70.4907C254.53 64.9898 253.22 56.7385 253.22 46.6535C253.22 27.1386 260.686 16.3988 278.76 16.3988C285.833 16.3988 293.56 17.8395 299.978 19.6731L302.597 4.74216C296.835 2.25367 286.226 0.420044 277.32 0.420044C246.803 0.420044 232.003 19.4111 232.003 47.4394C232.003 75.8605 242.874 93.5419 274.962 93.5419Z" fill="white"/>
<path d="M317.777 91.7083H349.603C363.487 91.7083 372.262 89.4818 378.025 84.3738C382.871 80.0517 385.49 73.765 385.49 65.1208C385.49 53.3332 377.632 45.2128 366.499 43.6412C374.75 39.45 379.072 33.2943 379.072 24.1262C379.072 17.5775 376.846 12.3386 372.786 8.80232C367.547 4.21826 359.688 2.1227 346.984 2.1227H317.777V91.7083ZM338.209 37.7474V16.9227H345.674C351.175 16.9227 354.318 17.5775 356.283 19.5421C357.986 21.2448 358.771 23.7333 358.771 27.0076C358.771 30.6748 357.855 33.2943 356.152 34.9969C353.925 37.0925 350.782 37.7474 345.15 37.7474H338.209ZM338.209 76.9083V52.5473H346.591C353.925 52.5473 358.117 53.2022 360.867 55.5597C363.225 57.5243 364.272 60.6677 364.272 65.5137C364.272 69.1809 363.225 71.8004 361.391 73.634C358.902 76.1225 354.187 76.9083 346.591 76.9083H338.209Z" fill="white"/>
<path d="M100.918 160.01C99.3393 160.01 98.07 159.594 97.11 158.762C96.15 157.93 95.67 156.725 95.67 155.146C95.67 153.717 96.0753 152.618 96.886 151.85C97.4193 151.338 98.0913 150.975 98.902 150.762C99.7127 150.527 100.726 150.41 101.942 150.41H105.718V149.13C105.718 147.658 105.409 146.613 104.79 145.994C104.193 145.375 103.137 145.066 101.622 145.066C100.193 145.066 98.7313 145.237 97.238 145.578L97.11 144.042C98.6673 143.637 100.225 143.434 101.782 143.434C103.894 143.434 105.398 143.893 106.294 144.81C107.147 145.706 107.574 147.061 107.574 148.874V159.562H106.07L105.974 158.506C105.185 158.975 104.353 159.338 103.478 159.594C102.603 159.871 101.75 160.01 100.918 160.01ZM101.238 158.378C101.963 158.378 102.742 158.271 103.574 158.058C104.406 157.845 105.121 157.567 105.718 157.226V151.914H102.23C101.249 151.914 100.459 151.989 99.862 152.138C99.2647 152.287 98.7847 152.511 98.422 152.81C97.8247 153.322 97.526 154.09 97.526 155.114C97.526 156.223 97.846 157.045 98.486 157.578C99.126 158.111 100.043 158.378 101.238 158.378ZM112.286 136.682H114.142V159.562H112.286V136.682ZM125.347 143.882H126.819L126.947 145.034C127.715 144.543 128.547 144.159 129.443 143.882C130.361 143.583 131.246 143.434 132.099 143.434C133.017 143.434 133.849 143.583 134.595 143.882C135.363 144.159 135.95 144.575 136.355 145.13C137.251 144.597 138.201 144.181 139.203 143.882C140.206 143.583 141.177 143.434 142.115 143.434C142.926 143.434 143.673 143.551 144.355 143.786C145.059 143.999 145.625 144.319 146.051 144.746C146.499 145.194 146.819 145.727 147.011 146.346C147.225 146.965 147.331 147.754 147.331 148.714V159.562H145.475V149.194C145.475 148.362 145.411 147.711 145.283 147.242C145.155 146.773 144.931 146.378 144.611 146.058C143.993 145.439 143.054 145.13 141.795 145.13C140.217 145.13 138.617 145.525 136.995 146.314C137.209 146.933 137.315 147.733 137.315 148.714V159.562H135.459V149.194C135.459 148.362 135.395 147.711 135.267 147.242C135.139 146.773 134.915 146.378 134.595 146.058C133.977 145.439 133.059 145.13 131.843 145.13C131.161 145.13 130.414 145.237 129.603 145.45C128.793 145.663 127.993 145.962 127.203 146.346V159.562H125.347V143.882ZM158.66 160.042C156.079 160.042 154.191 159.338 152.996 157.93C151.802 156.501 151.204 154.442 151.204 151.754C151.204 149.194 151.738 147.178 152.804 145.706C153.892 144.213 155.492 143.466 157.604 143.466C161.722 143.466 163.78 146.261 163.78 151.85V152.138C163.78 152.266 163.748 152.362 163.684 152.426C163.642 152.469 163.546 152.49 163.396 152.49H153.156C153.199 154.453 153.647 155.935 154.5 156.938C155.375 157.941 156.804 158.442 158.788 158.442C160.004 158.442 161.327 158.282 162.756 157.962L162.916 159.466C162.383 159.637 161.711 159.775 160.9 159.882C160.09 159.989 159.343 160.042 158.66 160.042ZM161.956 150.986C161.956 149.109 161.594 147.647 160.868 146.602C160.164 145.535 159.076 145.002 157.604 145.002C156.132 145.002 155.023 145.535 154.276 146.602C153.53 147.647 153.146 149.109 153.124 150.986H161.956ZM171.496 160.01C170.728 160.01 169.96 159.957 169.192 159.85C168.445 159.743 167.795 159.605 167.24 159.434L167.4 157.962C168.701 158.303 170.035 158.474 171.4 158.474C172.808 158.474 173.875 158.229 174.6 157.738C175.347 157.247 175.72 156.533 175.72 155.594C175.72 154.954 175.539 154.431 175.176 154.026C174.835 153.621 174.408 153.311 173.896 153.098C173.384 152.863 172.669 152.607 171.752 152.33C170.685 151.989 169.832 151.679 169.192 151.402C168.573 151.103 168.04 150.666 167.592 150.09C167.144 149.514 166.92 148.757 166.92 147.818C166.92 146.367 167.411 145.279 168.392 144.554C169.395 143.807 170.792 143.434 172.584 143.434C173.203 143.434 173.864 143.487 174.568 143.594C175.293 143.679 175.923 143.807 176.456 143.978L176.36 145.418C174.973 145.119 173.725 144.97 172.616 144.97C171.315 144.97 170.333 145.194 169.672 145.642C169.011 146.09 168.68 146.783 168.68 147.722C168.68 148.319 168.851 148.81 169.192 149.194C169.533 149.557 169.949 149.855 170.44 150.09C170.952 150.303 171.656 150.549 172.552 150.826C173.619 151.167 174.472 151.498 175.112 151.818C175.773 152.138 176.328 152.597 176.776 153.194C177.245 153.77 177.48 154.538 177.48 155.498C177.48 156.949 176.968 158.069 175.944 158.858C174.92 159.626 173.437 160.01 171.496 160.01ZM191.055 151.786L185.935 143.882H187.951L192.175 150.378L196.143 143.882H198.159L193.039 151.722L198.159 159.562H196.143L191.919 153.098L187.983 159.562H185.967L191.055 151.786ZM212.267 160.01C211.542 160.01 210.731 159.957 209.835 159.85C208.96 159.743 208.235 159.615 207.659 159.466V157.93C208.256 158.058 208.96 158.165 209.771 158.25C210.582 158.314 211.328 158.346 212.011 158.346C214.144 158.346 215.68 157.909 216.619 157.034C217.451 156.266 217.867 155.114 217.867 153.578C217.867 152.277 217.483 151.242 216.715 150.474C215.755 149.557 214.166 149.098 211.947 149.098H211.723V147.69H211.979C212.982 147.69 213.814 147.594 214.475 147.402C215.158 147.189 215.712 146.858 216.139 146.41C216.928 145.578 217.323 144.501 217.323 143.178C217.323 141.813 216.992 140.789 216.331 140.106C215.563 139.295 214.208 138.89 212.267 138.89C210.902 138.89 209.472 139.039 207.979 139.338V137.834C208.64 137.642 209.398 137.503 210.251 137.418C211.104 137.311 211.926 137.258 212.715 137.258C214.934 137.258 216.598 137.781 217.707 138.826C218.731 139.807 219.243 141.162 219.243 142.89C219.243 145.429 218.123 147.21 215.883 148.234C217.078 148.575 218.027 149.194 218.731 150.09C219.456 150.986 219.819 152.149 219.819 153.578C219.819 155.605 219.211 157.173 217.995 158.282C216.715 159.434 214.806 160.01 212.267 160.01ZM231.128 143.882H232.6L232.728 145.034C233.496 144.543 234.328 144.159 235.224 143.882C236.142 143.583 237.027 143.434 237.88 143.434C238.798 143.434 239.63 143.583 240.376 143.882C241.144 144.159 241.731 144.575 242.136 145.13C243.032 144.597 243.982 144.181 244.984 143.882C245.987 143.583 246.958 143.434 247.896 143.434C248.707 143.434 249.454 143.551 250.136 143.786C250.84 143.999 251.406 144.319 251.832 144.746C252.28 145.194 252.6 145.727 252.792 146.346C253.006 146.965 253.112 147.754 253.112 148.714V159.562H251.256V149.194C251.256 148.362 251.192 147.711 251.064 147.242C250.936 146.773 250.712 146.378 250.392 146.058C249.774 145.439 248.835 145.13 247.576 145.13C245.998 145.13 244.398 145.525 242.776 146.314C242.99 146.933 243.096 147.733 243.096 148.714V159.562H241.24V149.194C241.24 148.362 241.176 147.711 241.048 147.242C240.92 146.773 240.696 146.378 240.376 146.058C239.758 145.439 238.84 145.13 237.624 145.13C236.942 145.13 236.195 145.237 235.384 145.45C234.574 145.663 233.774 145.962 232.984 146.346V159.562H231.128V143.882ZM264.441 160.042C261.86 160.042 259.972 159.338 258.777 157.93C257.583 156.501 256.985 154.442 256.985 151.754C256.985 149.194 257.519 147.178 258.585 145.706C259.673 144.213 261.273 143.466 263.385 143.466C267.503 143.466 269.561 146.261 269.561 151.85V152.138C269.561 152.266 269.529 152.362 269.465 152.426C269.423 152.469 269.327 152.49 269.177 152.49H258.937C258.98 154.453 259.428 155.935 260.281 156.938C261.156 157.941 262.585 158.442 264.569 158.442C265.785 158.442 267.108 158.282 268.537 157.962L268.697 159.466C268.164 159.637 267.492 159.775 266.681 159.882C265.871 159.989 265.124 160.042 264.441 160.042ZM267.737 150.986C267.737 149.109 267.375 147.647 266.649 146.602C265.945 145.535 264.857 145.002 263.385 145.002C261.913 145.002 260.804 145.535 260.057 146.602C259.311 147.647 258.927 149.109 258.905 150.986H267.737ZM277.277 160.01C276.509 160.01 275.741 159.957 274.973 159.85C274.227 159.743 273.576 159.605 273.021 159.434L273.181 157.962C274.483 158.303 275.816 158.474 277.181 158.474C278.589 158.474 279.656 158.229 280.381 157.738C281.128 157.247 281.501 156.533 281.501 155.594C281.501 154.954 281.32 154.431 280.957 154.026C280.616 153.621 280.189 153.311 279.677 153.098C279.165 152.863 278.451 152.607 277.533 152.33C276.467 151.989 275.613 151.679 274.973 151.402C274.355 151.103 273.821 150.666 273.373 150.09C272.925 149.514 272.701 148.757 272.701 147.818C272.701 146.367 273.192 145.279 274.173 144.554C275.176 143.807 276.573 143.434 278.365 143.434C278.984 143.434 279.645 143.487 280.349 143.594C281.075 143.679 281.704 143.807 282.237 143.978L282.141 145.418C280.755 145.119 279.507 144.97 278.397 144.97C277.096 144.97 276.115 145.194 275.453 145.642C274.792 146.09 274.461 146.783 274.461 147.722C274.461 148.319 274.632 148.81 274.973 149.194C275.315 149.557 275.731 149.855 276.221 150.09C276.733 150.303 277.437 150.549 278.333 150.826C279.4 151.167 280.253 151.498 280.893 151.818C281.555 152.138 282.109 152.597 282.557 153.194C283.027 153.77 283.261 154.538 283.261 155.498C283.261 156.949 282.749 158.069 281.725 158.858C280.701 159.626 279.219 160.01 277.277 160.01ZM293.598 160.042C291.016 160.042 289.128 159.338 287.934 157.93C286.739 156.501 286.142 154.442 286.142 151.754C286.142 149.194 286.675 147.178 287.742 145.706C288.83 144.213 290.43 143.466 292.542 143.466C296.659 143.466 298.718 146.261 298.718 151.85V152.138C298.718 152.266 298.686 152.362 298.622 152.426C298.579 152.469 298.483 152.49 298.334 152.49H288.094C288.136 154.453 288.584 155.935 289.438 156.938C290.312 157.941 291.742 158.442 293.726 158.442C294.942 158.442 296.264 158.282 297.694 157.962L297.854 159.466C297.32 159.637 296.648 159.775 295.838 159.882C295.027 159.989 294.28 160.042 293.598 160.042ZM296.894 150.986C296.894 149.109 296.531 147.647 295.806 146.602C295.102 145.535 294.014 145.002 292.542 145.002C291.07 145.002 289.96 145.535 289.214 146.602C288.467 147.647 288.083 149.109 288.062 150.986H296.894ZM306.433 160.01C305.665 160.01 304.897 159.957 304.129 159.85C303.383 159.743 302.732 159.605 302.177 159.434L302.337 157.962C303.639 158.303 304.972 158.474 306.337 158.474C307.745 158.474 308.812 158.229 309.537 157.738C310.284 157.247 310.657 156.533 310.657 155.594C310.657 154.954 310.476 154.431 310.113 154.026C309.772 153.621 309.345 153.311 308.833 153.098C308.321 152.863 307.607 152.607 306.689 152.33C305.623 151.989 304.769 151.679 304.129 151.402C303.511 151.103 302.977 150.666 302.529 150.09C302.081 149.514 301.857 148.757 301.857 147.818C301.857 146.367 302.348 145.279 303.329 144.554C304.332 143.807 305.729 143.434 307.521 143.434C308.14 143.434 308.801 143.487 309.505 143.594C310.231 143.679 310.86 143.807 311.393 143.978L311.297 145.418C309.911 145.119 308.663 144.97 307.553 144.97C306.252 144.97 305.271 145.194 304.609 145.642C303.948 146.09 303.617 146.783 303.617 147.722C303.617 148.319 303.788 148.81 304.129 149.194C304.471 149.557 304.887 149.855 305.377 150.09C305.889 150.303 306.593 150.549 307.489 150.826C308.556 151.167 309.409 151.498 310.049 151.818C310.711 152.138 311.265 152.597 311.713 153.194C312.183 153.77 312.417 154.538 312.417 155.498C312.417 156.949 311.905 158.069 310.881 158.858C309.857 159.626 308.375 160.01 306.433 160.01ZM322.472 143.882H323.944L324.104 145.066C324.766 144.597 325.534 144.213 326.408 143.914C327.304 143.594 328.158 143.434 328.968 143.434C330.931 143.434 332.424 144.117 333.448 145.482C334.472 146.847 334.984 148.906 334.984 151.658C334.984 154.751 334.344 157.002 333.064 158.41C332.083 159.477 330.686 160.01 328.872 160.01C328.083 160.01 327.272 159.882 326.44 159.626C325.608 159.391 324.904 159.082 324.328 158.698V166.762H322.472V143.882ZM328.552 158.378C329.406 158.378 330.12 158.239 330.696 157.962C331.294 157.685 331.763 157.258 332.104 156.682C332.744 155.594 333.064 153.909 333.064 151.626C333.064 149.237 332.68 147.519 331.912 146.474C331.208 145.535 330.131 145.066 328.68 145.066C328.04 145.066 327.326 145.194 326.536 145.45C325.747 145.685 325.011 145.994 324.328 146.378V157.098C324.862 157.482 325.512 157.791 326.28 158.026C327.07 158.261 327.827 158.378 328.552 158.378ZM343.293 160.01C341.714 160.01 340.445 159.594 339.485 158.762C338.525 157.93 338.045 156.725 338.045 155.146C338.045 153.717 338.45 152.618 339.261 151.85C339.794 151.338 340.466 150.975 341.277 150.762C342.088 150.527 343.101 150.41 344.317 150.41H348.093V149.13C348.093 147.658 347.784 146.613 347.165 145.994C346.568 145.375 345.512 145.066 343.997 145.066C342.568 145.066 341.106 145.237 339.613 145.578L339.485 144.042C341.042 143.637 342.6 143.434 344.157 143.434C346.269 143.434 347.773 143.893 348.669 144.81C349.522 145.706 349.949 147.061 349.949 148.874V159.562H348.445L348.349 158.506C347.56 158.975 346.728 159.338 345.853 159.594C344.978 159.871 344.125 160.01 343.293 160.01ZM343.613 158.378C344.338 158.378 345.117 158.271 345.949 158.058C346.781 157.845 347.496 157.567 348.093 157.226V151.914H344.605C343.624 151.914 342.834 151.989 342.237 152.138C341.64 152.287 341.16 152.511 340.797 152.81C340.2 153.322 339.901 154.09 339.901 155.114C339.901 156.223 340.221 157.045 340.861 157.578C341.501 158.111 342.418 158.378 343.613 158.378ZM354.597 143.882H356.069L356.229 145.226C356.933 144.65 357.691 144.213 358.501 143.914C359.333 143.594 360.123 143.434 360.869 143.434C361.168 143.434 361.424 143.445 361.637 143.466V145.194C361.296 145.173 360.933 145.162 360.549 145.162C359.077 145.162 357.712 145.599 356.453 146.474V159.562H354.597V143.882ZM368.23 160.01C366.652 160.01 365.382 159.594 364.422 158.762C363.462 157.93 362.982 156.725 362.982 155.146C362.982 153.717 363.388 152.618 364.198 151.85C364.732 151.338 365.404 150.975 366.214 150.762C367.025 150.527 368.038 150.41 369.254 150.41H373.03V149.13C373.03 147.658 372.721 146.613 372.102 145.994C371.505 145.375 370.449 145.066 368.934 145.066C367.505 145.066 366.044 145.237 364.55 145.578L364.422 144.042C365.98 143.637 367.537 143.434 369.094 143.434C371.206 143.434 372.71 143.893 373.606 144.81C374.46 145.706 374.886 147.061 374.886 148.874V159.562H373.382L373.286 158.506C372.497 158.975 371.665 159.338 370.79 159.594C369.916 159.871 369.062 160.01 368.23 160.01ZM368.55 158.378C369.276 158.378 370.054 158.271 370.886 158.058C371.718 157.845 372.433 157.567 373.03 157.226V151.914H369.542C368.561 151.914 367.772 151.989 367.174 152.138C366.577 152.287 366.097 152.511 365.734 152.81C365.137 153.322 364.838 154.09 364.838 155.114C364.838 156.223 365.158 157.045 365.798 157.578C366.438 158.111 367.356 158.378 368.55 158.378Z" fill="white"/>
<path fill-rule="evenodd" clip-rule="evenodd" d="M129.119 208.202C134.47 212.025 141.026 214.274 148.105 214.274V200.657C146.765 200.658 145.429 200.518 144.118 200.24V210.959C137.039 210.959 130.484 208.709 125.132 204.886V232.674C125.132 246.576 113.858 257.844 99.9502 257.844C94.7612 257.844 89.938 256.276 85.9312 253.587C90.5041 258.26 96.8812 261.159 103.936 261.159C117.845 261.159 129.12 249.891 129.12 235.989V208.202H129.119ZM134.038 194.464C131.303 191.478 129.508 187.619 129.119 183.353V181.601H125.341C126.292 187.024 129.536 191.656 134.038 194.464ZM94.7275 242.92C93.1998 240.918 92.374 238.468 92.3777 235.95C92.3777 229.592 97.5349 224.437 103.897 224.437C105.083 224.436 106.261 224.618 107.392 224.976V211.055C106.071 210.874 104.738 210.798 103.406 210.826V221.661C102.275 221.303 101.096 221.121 99.9101 221.122C93.5477 221.122 88.391 226.277 88.391 232.635C88.391 237.131 90.9686 241.024 94.7275 242.92Z" fill="#FE2C55"/>
<path fill-rule="evenodd" clip-rule="evenodd" d="M125.13 204.886C130.482 208.709 137.036 210.959 144.116 210.959V200.24C140.164 199.399 136.666 197.335 134.035 194.464C129.533 191.656 126.289 187.024 125.338 181.601H115.414V235.989C115.391 242.329 110.243 247.463 103.894 247.463C100.153 247.463 96.8291 245.681 94.7243 242.92C90.9655 241.024 88.3879 237.131 88.3879 232.635C88.3879 226.277 93.5446 221.122 99.9069 221.122C101.126 221.122 102.301 221.312 103.403 221.661V210.826C89.7397 211.108 78.7512 222.266 78.7512 235.989C78.7512 242.84 81.4877 249.05 85.9286 253.587C89.9353 256.276 94.7586 257.844 99.9475 257.844C113.855 257.844 125.13 246.576 125.13 232.675V204.886Z" fill="white"/>
<path fill-rule="evenodd" clip-rule="evenodd" d="M144.116 200.24V197.341C140.552 197.347 137.059 196.349 134.036 194.463C136.712 197.392 140.236 199.411 144.116 200.24ZM125.339 181.601C125.248 181.083 125.178 180.561 125.13 180.037V178.286H111.426V232.674C111.404 239.014 106.257 244.148 99.9074 244.148C98.0431 244.148 96.2834 243.706 94.7248 242.919C96.8296 245.68 100.153 247.463 103.895 247.463C110.243 247.463 115.392 242.329 115.414 235.988V181.601H125.339ZM103.404 210.825V207.74C102.259 207.583 101.104 207.505 99.9484 207.506C86.0395 207.506 74.7649 218.774 74.7649 232.674C74.7649 241.389 79.196 249.069 85.9295 253.586C81.4886 249.049 78.7521 242.839 78.7521 235.988C78.7521 222.266 89.7402 211.108 103.404 210.825Z" fill="#25F4EE"/>
<path fill-rule="evenodd" clip-rule="evenodd" d="M303.045 241.425C312.901 241.425 320.892 233.5 320.892 223.724C320.892 213.948 312.901 206.021 303.045 206.021H300.356C310.213 206.021 318.203 213.948 318.203 223.724C318.203 233.5 310.213 241.425 300.356 241.425H303.045Z" fill="#EE1D51"/>
<path fill-rule="evenodd" clip-rule="evenodd" d="M300.112 206.021H297.423C287.567 206.021 279.575 213.948 279.575 223.724C279.575 233.5 287.567 241.425 297.423 241.425H300.112C290.254 241.425 282.264 233.5 282.264 223.724C282.264 213.948 290.254 206.021 300.112 206.021Z" fill="#66C8CF"/>
<path fill-rule="evenodd" clip-rule="evenodd" d="M164.43 198.02V206.992H174.941V241.183H185.455V207.235H194.011L196.944 198.02H164.43ZM250.484 198.02V206.992H260.994V241.183H271.509V207.235H280.064L282.998 198.02H250.484ZM198.902 203.112C198.902 200.3 201.197 198.02 204.032 198.02C206.869 198.02 209.167 200.3 209.167 203.112C209.167 205.923 206.871 208.204 204.032 208.204C201.197 208.203 198.902 205.923 198.902 203.112ZM198.902 211.842H209.167V241.183H198.902V211.842ZM213.568 198.02V241.183H223.836V230.03L227.015 227.117L237.037 241.425H248.037L233.612 220.571L246.569 207.96H234.102L223.836 218.144V198.02H213.568ZM324.311 198.02V241.183H334.581V230.03L337.758 227.117L347.782 241.425H358.784L344.359 220.571L357.316 207.96H344.849L334.581 218.144V198.02H324.311Z" fill="white"/>
<path fill-rule="evenodd" clip-rule="evenodd" d="M300.353 241.425C310.209 241.425 318.201 233.5 318.201 223.724C318.201 213.948 310.209 206.021 300.353 206.021H300.109C290.253 206.021 282.262 213.948 282.262 223.724C282.262 233.5 290.253 241.425 300.109 241.425H300.353ZM291.552 223.724C291.552 218.968 295.439 215.116 300.233 215.116C305.023 215.116 308.911 218.968 308.911 223.724C308.911 228.479 305.023 232.333 300.233 232.333C295.439 232.332 291.552 228.479 291.552 223.724Z" fill="white"/>
<path d="M462.826 24.3326C462.923 26.549 462.396 28.1008 461.559 29.5669C460.592 31.2562 459.362 32.7503 458.003 34.1248C455.856 36.2953 453.654 38.413 451.474 40.5531C451.303 40.7205 451.119 40.8756 450.959 41.0525C450.798 41.2293 450.672 41.2133 450.497 41.0719C449.428 40.2008 448.336 39.358 447.282 38.4694C445.491 36.9577 443.696 35.4461 441.953 33.8828C440.598 32.6676 439.391 31.3079 438.467 29.723C437.748 28.4915 437.284 27.1753 437.287 25.7354C437.292 22.8769 438.6 20.7799 441.141 19.5153C443.891 18.1443 447.314 18.7238 449.586 20.8442C449.884 21.1228 449.888 21.1227 450.167 20.8198C452.423 18.3545 456.055 17.5827 458.975 18.9973C461.398 20.1715 462.656 22.1579 462.826 24.3326Z" stroke="white"/>
<path d="M26.8263 68.3325C26.9231 70.5489 26.3962 72.1006 25.5587 73.5668C24.5923 75.2561 23.3617 76.7502 22.0035 78.1246C19.8555 80.2952 17.6538 82.4129 15.4743 84.553C15.3033 84.7204 15.1188 84.8755 14.9586 85.0523C14.7985 85.2292 14.6723 85.2132 14.4967 85.0718C13.4279 84.2007 12.3355 83.3579 11.2824 82.4693C9.49078 80.9576 7.6962 79.446 5.95252 77.8827C4.59795 76.6675 3.39056 75.3078 2.4668 73.7229C1.74838 72.4913 1.2843 71.1752 1.28668 69.7353C1.29234 66.8768 2.60024 64.7798 5.14145 63.5152C7.89146 62.1442 11.3143 62.7237 13.5858 64.8441C13.8842 65.1227 13.8877 65.1225 14.167 64.8196C16.4231 62.3544 20.0549 61.5826 22.9752 62.9972C25.3979 64.1714 26.6565 66.1578 26.8263 68.3325Z" stroke="white"/>
<path d="M76.8263 167.333C76.9231 169.549 76.3962 171.101 75.5587 172.567C74.5923 174.256 73.3617 175.75 72.0035 177.125C69.8555 179.295 67.6538 181.413 65.4743 183.553C65.3033 183.721 65.1188 183.876 64.9586 184.052C64.7985 184.229 64.6723 184.213 64.4967 184.072C63.4279 183.201 62.3355 182.358 61.2824 181.469C59.4908 179.958 57.6962 178.446 55.9525 176.883C54.598 175.668 53.3906 174.308 52.4668 172.723C51.7484 171.491 51.2843 170.175 51.2867 168.735C51.2923 165.877 52.6002 163.78 55.1415 162.515C57.8915 161.144 61.3143 161.724 63.5858 163.844C63.8842 164.123 63.8877 164.123 64.167 163.82C66.4231 161.355 70.0549 160.583 72.9752 161.997C75.3979 163.171 76.6565 165.158 76.8263 167.333Z" stroke="white"/>
<path d="M436.826 162.333C436.923 164.549 436.396 166.101 435.559 167.567C434.592 169.256 433.362 170.75 432.003 172.125C429.856 174.295 427.654 176.413 425.474 178.553C425.303 178.721 425.119 178.876 424.959 179.052C424.798 179.229 424.672 179.213 424.497 179.072C423.428 178.201 422.336 177.358 421.282 176.469C419.491 174.958 417.696 173.446 415.953 171.883C414.598 170.668 413.391 169.308 412.467 167.723C411.748 166.491 411.284 165.175 411.287 163.735C411.292 160.877 412.6 158.78 415.141 157.515C417.891 156.144 421.314 156.724 423.586 158.844C423.884 159.123 423.888 159.123 424.167 158.82C426.423 156.355 430.055 155.583 432.975 156.997C435.398 158.171 436.656 160.158 436.826 162.333Z" stroke="white"/>
<defs>
<linearGradient id="paint0_linear_102_499" x1="239.937" y1="22.5157" x2="239.937" y2="115.638" gradientUnits="userSpaceOnUse">
<stop stop-color="#019DF4"/>
<stop offset="1" stop-color="#0B2739"/>
</linearGradient>
<linearGradient id="paint1_linear_102_499" x1="239.937" y1="22.5157" x2="239.937" y2="115.638" gradientUnits="userSpaceOnUse">
<stop stop-color="#019DF4"/>
<stop offset="1" stop-color="#0B2739"/>
</linearGradient>
<linearGradient id="paint2_linear_102_499" x1="239.937" y1="22.5157" x2="239.937" y2="115.638" gradientUnits="userSpaceOnUse">
<stop stop-color="#019DF4"/>
<stop offset="1" stop-color="#0B2739"/>
</linearGradient>
<linearGradient id="paint3_linear_102_499" x1="239.937" y1="22.5157" x2="239.937" y2="115.638" gradientUnits="userSpaceOnUse">
<stop stop-color="#019DF4"/>
<stop offset="1" stop-color="#0B2739"/>
</linearGradient>
<linearGradient id="paint4_linear_102_499" x1="234.972" y1="13.1583" x2="234.972" y2="106.28" gradientUnits="userSpaceOnUse">
<stop stop-color="#019DF4"/>
<stop offset="1" stop-color="#0B2739"/>
</linearGradient>
<linearGradient id="paint5_linear_102_499" x1="234.972" y1="13.1583" x2="234.972" y2="106.28" gradientUnits="userSpaceOnUse">
<stop stop-color="#019DF4"/>
<stop offset="1" stop-color="#0B2739"/>
</linearGradient>
<linearGradient id="paint6_linear_102_499" x1="234.972" y1="13.1583" x2="234.972" y2="106.28" gradientUnits="userSpaceOnUse">
<stop stop-color="#019DF4"/>
<stop offset="1" stop-color="#0B2739"/>
</linearGradient>
<linearGradient id="paint7_linear_102_499" x1="234.972" y1="13.1583" x2="234.972" y2="106.28" gradientUnits="userSpaceOnUse">
<stop stop-color="#019DF4"/>
<stop offset="1" stop-color="#0B2739"/>
</linearGradient>
</defs>
</svg>
