<svg width="297" height="37" viewBox="0 0 297 37" fill="none" xmlns="http://www.w3.org/2000/svg">
<path d="M33.9271 12.9741C34.4731 12.9741 34.7461 13.2471 34.7461 13.7931V13.8981C34.7461 14.4721 34.4731 14.7591 33.9271 14.7591H33.8431C33.2971 14.7591 33.0241 14.4721 33.0241 13.8981V13.7931C33.0241 13.2471 33.2971 12.9741 33.8431 12.9741H33.9271ZM34.5781 27.6321H33.1921L33.3811 16.8381H34.3891L34.5781 27.6321ZM38.5182 8.98414H46.0782L45.9312 10.0761H39.7782V15.5151H44.8392V16.6281H39.7782V22.2561H46.2462V23.3481H38.5182V8.98414ZM48.9293 13.0581H49.8953L49.9793 13.8351C51.1553 13.1211 52.3593 12.7641 53.5913 12.7641C54.1373 12.7641 54.6343 12.8411 55.0823 12.9951C55.5303 13.1351 55.8943 13.3451 56.1743 13.6251C56.4683 13.9191 56.6853 14.2761 56.8253 14.6961C56.9653 15.1021 57.0353 15.6131 57.0353 16.2291V23.3481H55.8173V16.5441C55.8173 16.0121 55.7683 15.5921 55.6703 15.2841C55.5863 14.9621 55.4393 14.6961 55.2293 14.4861C54.8233 14.0801 54.2143 13.8771 53.4023 13.8771C52.8983 13.8771 52.3593 13.9471 51.7853 14.0871C51.2113 14.2271 50.6653 14.4301 50.1473 14.6961V23.3481H48.9293V13.0581ZM64.5836 8.98414H65.7176L70.9256 18.9801L76.2806 8.98414H77.3306V23.3481H76.1546V11.4621L71.4296 20.2401H70.3166L65.7176 11.3991V23.3481H64.5836V8.98414ZM84.6639 23.6421C81.7099 23.6421 80.2329 21.8291 80.2329 18.2031C80.2329 14.5771 81.7099 12.7641 84.6639 12.7641C87.6179 12.7641 89.0949 14.5771 89.0949 18.2031C89.0949 21.8291 87.6179 23.6421 84.6639 23.6421ZM84.6639 22.5921C85.7979 22.5921 86.6099 22.2281 87.0999 21.5001C87.5899 20.7721 87.8349 19.6731 87.8349 18.2031C87.8349 16.7331 87.5899 15.6341 87.0999 14.9061C86.6099 14.1781 85.7979 13.8141 84.6639 13.8141C83.5299 13.8141 82.7179 14.1781 82.2279 14.9061C81.7379 15.6341 81.4929 16.7331 81.4929 18.2031C81.4929 19.6731 81.7379 20.7721 82.2279 21.5001C82.7179 22.2281 83.5299 22.5921 84.6639 22.5921ZM90.3075 13.0581H91.5885L94.6125 22.0671L97.5735 13.0581H98.8125L95.2425 23.3481H93.9405L90.3075 13.0581ZM101.382 10.9791C100.878 10.9791 100.626 10.7061 100.626 10.1601V10.0971C100.626 9.55114 100.878 9.27814 101.382 9.27814H101.466C101.97 9.27814 102.222 9.55114 102.222 10.0971V10.1601C102.222 10.7061 101.97 10.9791 101.466 10.9791H101.382ZM100.815 13.0581H102.033V23.3481H100.815V13.0581ZM107.597 23.6421C107.093 23.6421 106.589 23.6071 106.085 23.5371C105.595 23.4671 105.168 23.3761 104.804 23.2641L104.909 22.2981C105.763 22.5221 106.638 22.6341 107.534 22.6341C108.458 22.6341 109.158 22.4731 109.634 22.1511C110.124 21.8291 110.369 21.3601 110.369 20.7441C110.369 20.3241 110.25 19.9811 110.012 19.7151C109.788 19.4491 109.508 19.2461 109.172 19.1061C108.836 18.9521 108.367 18.7841 107.765 18.6021C107.065 18.3781 106.505 18.1751 106.085 17.9931C105.679 17.7971 105.329 17.5101 105.035 17.1321C104.741 16.7541 104.594 16.2571 104.594 15.6411C104.594 14.6891 104.916 13.9751 105.56 13.4991C106.218 13.0091 107.135 12.7641 108.311 12.7641C108.717 12.7641 109.151 12.7991 109.613 12.8691C110.089 12.9251 110.502 13.0091 110.852 13.1211L110.789 14.0661C109.879 13.8701 109.06 13.7721 108.332 13.7721C107.478 13.7721 106.834 13.9191 106.4 14.2131C105.966 14.5071 105.749 14.9621 105.749 15.5781C105.749 15.9701 105.861 16.2921 106.085 16.5441C106.309 16.7821 106.582 16.9781 106.904 17.1321C107.24 17.2721 107.702 17.4331 108.29 17.6151C108.99 17.8391 109.55 18.0561 109.97 18.2661C110.404 18.4761 110.768 18.7771 111.062 19.1691C111.37 19.5471 111.524 20.0511 111.524 20.6811C111.524 21.6331 111.188 22.3681 110.516 22.8861C109.844 23.3901 108.871 23.6421 107.597 23.6421ZM117.321 23.6421C116.369 23.6421 115.676 23.4251 115.242 22.9911C115.004 22.7531 114.829 22.4451 114.717 22.0671C114.605 21.6751 114.549 21.1851 114.549 20.5971V14.0241H112.659V13.2891L114.549 13.0581V10.6851C114.969 10.5591 115.375 10.4751 115.767 10.4331V13.0581H118.497V14.0241H115.767V20.2191C115.767 20.7511 115.788 21.1571 115.83 21.4371C115.886 21.7031 115.991 21.9271 116.145 22.1091C116.425 22.4171 116.88 22.5711 117.51 22.5711C118 22.5711 118.525 22.5081 119.085 22.3821L119.169 23.3691C118.623 23.5511 118.007 23.6421 117.321 23.6421ZM123.993 23.6421C122.957 23.6421 122.124 23.3691 121.494 22.8231C120.864 22.2771 120.549 21.4861 120.549 20.4501C120.549 19.5121 120.815 18.7911 121.347 18.2871C121.697 17.9511 122.138 17.7131 122.67 17.5731C123.202 17.4191 123.867 17.3421 124.665 17.3421H127.143V16.5021C127.143 15.5361 126.94 14.8501 126.534 14.4441C126.142 14.0381 125.449 13.8351 124.455 13.8351C123.517 13.8351 122.558 13.9471 121.578 14.1711L121.494 13.1631C122.516 12.8971 123.538 12.7641 124.56 12.7641C125.946 12.7641 126.933 13.0651 127.521 13.6671C128.081 14.2551 128.361 15.1441 128.361 16.3341V23.3481H127.374L127.311 22.6551C126.793 22.9631 126.247 23.2011 125.673 23.3691C125.099 23.5511 124.539 23.6421 123.993 23.6421ZM124.203 22.5711C124.679 22.5711 125.19 22.5011 125.736 22.3611C126.282 22.2211 126.751 22.0391 127.143 21.8151V18.3291H124.854C124.21 18.3291 123.692 18.3781 123.3 18.4761C122.908 18.5741 122.593 18.7211 122.355 18.9171C121.963 19.2531 121.767 19.7571 121.767 20.4291C121.767 21.1571 121.977 21.6961 122.397 22.0461C122.817 22.3961 123.419 22.5711 124.203 22.5711ZM131.412 13.0581H132.378L132.483 13.9401C132.945 13.5621 133.442 13.2751 133.974 13.0791C134.52 12.8691 135.038 12.7641 135.528 12.7641C135.724 12.7641 135.892 12.7711 136.032 12.7851V13.9191C135.808 13.9051 135.57 13.8981 135.318 13.8981C134.352 13.8981 133.456 14.1851 132.63 14.7591V23.3481H131.412V13.0581ZM145.621 23.6421C144.669 23.6421 143.976 23.4251 143.542 22.9911C143.304 22.7531 143.129 22.4451 143.017 22.0671C142.905 21.6751 142.849 21.1851 142.849 20.5971V14.0241H140.959V13.2891L142.849 13.0581V10.6851C143.269 10.5591 143.675 10.4751 144.067 10.4331V13.0581H146.797V14.0241H144.067V20.2191C144.067 20.7511 144.088 21.1571 144.13 21.4371C144.186 21.7031 144.291 21.9271 144.445 22.1091C144.725 22.4171 145.18 22.5711 145.81 22.5711C146.3 22.5711 146.825 22.5081 147.385 22.3821L147.469 23.3691C146.923 23.5511 146.307 23.6421 145.621 23.6421ZM153.827 23.6631C152.133 23.6631 150.894 23.2011 150.11 22.2771C149.326 21.3391 148.934 19.9881 148.934 18.2241C148.934 16.5441 149.284 15.2211 149.984 14.2551C150.698 13.2751 151.748 12.7851 153.134 12.7851C155.836 12.7851 157.187 14.6191 157.187 18.2871V18.4761C157.187 18.5601 157.166 18.6231 157.124 18.6651C157.096 18.6931 157.033 18.7071 156.935 18.7071H150.215C150.243 19.9951 150.537 20.9681 151.097 21.6261C151.671 22.2841 152.609 22.6131 153.911 22.6131C154.709 22.6131 155.577 22.5081 156.515 22.2981L156.62 23.2851C156.27 23.3971 155.829 23.4881 155.297 23.5581C154.765 23.6281 154.275 23.6631 153.827 23.6631ZM155.99 17.7201C155.99 16.4881 155.752 15.5291 155.276 14.8431C154.814 14.1431 154.1 13.7931 153.134 13.7931C152.168 13.7931 151.44 14.1431 150.95 14.8431C150.46 15.5291 150.208 16.4881 150.194 17.7201H155.99ZM167.736 23.6421C164.936 23.6421 163.536 21.8431 163.536 18.2451C163.536 16.5371 163.886 15.2001 164.586 14.2341C165.286 13.2541 166.336 12.7641 167.736 12.7641C168.688 12.7641 169.64 13.0021 170.592 13.4781V8.33314H171.81V23.3481H170.844L170.781 22.7181C170.375 22.9841 169.892 23.2011 169.332 23.3691C168.772 23.5511 168.24 23.6421 167.736 23.6421ZM167.799 22.5711C168.233 22.5711 168.702 22.5081 169.206 22.3821C169.71 22.2561 170.172 22.0881 170.592 21.8781V14.4861C169.64 14.0521 168.765 13.8351 167.967 13.8351C166.833 13.8351 166.021 14.1991 165.531 14.9271C165.041 15.6551 164.796 16.7541 164.796 18.2241C164.796 19.7081 165.034 20.8071 165.51 21.5211C165.986 22.2211 166.749 22.5711 167.799 22.5711ZM177.765 23.6421C176.729 23.6421 175.896 23.3691 175.266 22.8231C174.636 22.2771 174.321 21.4861 174.321 20.4501C174.321 19.5121 174.587 18.7911 175.119 18.2871C175.469 17.9511 175.91 17.7131 176.442 17.5731C176.974 17.4191 177.639 17.3421 178.437 17.3421H180.915V16.5021C180.915 15.5361 180.712 14.8501 180.306 14.4441C179.914 14.0381 179.221 13.8351 178.227 13.8351C177.289 13.8351 176.33 13.9471 175.35 14.1711L175.266 13.1631C176.288 12.8971 177.31 12.7641 178.332 12.7641C179.718 12.7641 180.705 13.0651 181.293 13.6671C181.853 14.2551 182.133 15.1441 182.133 16.3341V23.3481H181.146L181.083 22.6551C180.565 22.9631 180.019 23.2011 179.445 23.3691C178.871 23.5511 178.311 23.6421 177.765 23.6421ZM177.975 22.5711C178.451 22.5711 178.962 22.5011 179.508 22.3611C180.054 22.2211 180.523 22.0391 180.915 21.8151V18.3291H178.626C177.982 18.3291 177.464 18.3781 177.072 18.4761C176.68 18.5741 176.365 18.7211 176.127 18.9171C175.735 19.2531 175.539 19.7571 175.539 20.4291C175.539 21.1571 175.749 21.6961 176.169 22.0461C176.589 22.3961 177.191 22.5711 177.975 22.5711ZM185.183 13.0581H186.149L186.233 13.8141C186.737 13.4921 187.283 13.2401 187.871 13.0581C188.473 12.8621 189.054 12.7641 189.614 12.7641C190.216 12.7641 190.762 12.8621 191.252 13.0581C191.756 13.2401 192.141 13.5131 192.407 13.8771C192.995 13.5271 193.618 13.2541 194.276 13.0581C194.934 12.8621 195.571 12.7641 196.187 12.7641C196.719 12.7641 197.209 12.8411 197.657 12.9951C198.119 13.1351 198.49 13.3451 198.77 13.6251C199.064 13.9191 199.274 14.2691 199.4 14.6751C199.54 15.0811 199.61 15.5991 199.61 16.2291V23.3481H198.392V16.5441C198.392 15.9981 198.35 15.5711 198.266 15.2631C198.182 14.9551 198.035 14.6961 197.825 14.4861C197.419 14.0801 196.803 13.8771 195.977 13.8771C194.941 13.8771 193.891 14.1361 192.827 14.6541C192.967 15.0601 193.037 15.5851 193.037 16.2291V23.3481H191.819V16.5441C191.819 15.9981 191.777 15.5711 191.693 15.2631C191.609 14.9551 191.462 14.6961 191.252 14.4861C190.846 14.0801 190.244 13.8771 189.446 13.8771C188.998 13.8771 188.508 13.9471 187.976 14.0871C187.444 14.2271 186.919 14.4231 186.401 14.6751V23.3481H185.183V13.0581ZM206.583 23.6421C203.629 23.6421 202.152 21.8291 202.152 18.2031C202.152 14.5771 203.629 12.7641 206.583 12.7641C209.537 12.7641 211.014 14.5771 211.014 18.2031C211.014 21.8291 209.537 23.6421 206.583 23.6421ZM206.583 22.5921C207.717 22.5921 208.529 22.2281 209.019 21.5001C209.509 20.7721 209.754 19.6731 209.754 18.2031C209.754 16.7331 209.509 15.6341 209.019 14.9061C208.529 14.1781 207.717 13.8141 206.583 13.8141C205.449 13.8141 204.637 14.1781 204.147 14.9061C203.657 15.6341 203.412 16.7331 203.412 18.2031C203.412 19.6731 203.657 20.7721 204.147 21.5001C204.637 22.2281 205.449 22.5921 206.583 22.5921ZM216.043 23.6421C215.539 23.6421 215.035 23.6071 214.531 23.5371C214.041 23.4671 213.614 23.3761 213.25 23.2641L213.355 22.2981C214.209 22.5221 215.084 22.6341 215.98 22.6341C216.904 22.6341 217.604 22.4731 218.08 22.1511C218.57 21.8291 218.815 21.3601 218.815 20.7441C218.815 20.3241 218.696 19.9811 218.458 19.7151C218.234 19.4491 217.954 19.2461 217.618 19.1061C217.282 18.9521 216.813 18.7841 216.211 18.6021C215.511 18.3781 214.951 18.1751 214.531 17.9931C214.125 17.7971 213.775 17.5101 213.481 17.1321C213.187 16.7541 213.04 16.2571 213.04 15.6411C213.04 14.6891 213.362 13.9751 214.006 13.4991C214.664 13.0091 215.581 12.7641 216.757 12.7641C217.163 12.7641 217.597 12.7991 218.059 12.8691C218.535 12.9251 218.948 13.0091 219.298 13.1211L219.235 14.0661C218.325 13.8701 217.506 13.7721 216.778 13.7721C215.924 13.7721 215.28 13.9191 214.846 14.2131C214.412 14.5071 214.195 14.9621 214.195 15.5781C214.195 15.9701 214.307 16.2921 214.531 16.5441C214.755 16.7821 215.028 16.9781 215.35 17.1321C215.686 17.2721 216.148 17.4331 216.736 17.6151C217.436 17.8391 217.996 18.0561 218.416 18.2661C218.85 18.4761 219.214 18.7771 219.508 19.1691C219.816 19.5471 219.97 20.0511 219.97 20.6811C219.97 21.6331 219.634 22.3681 218.962 22.8861C218.29 23.3901 217.317 23.6421 216.043 23.6421ZM226.568 13.0581H227.534L227.618 13.8141C228.122 13.4921 228.668 13.2401 229.256 13.0581C229.858 12.8621 230.439 12.7641 230.999 12.7641C231.601 12.7641 232.147 12.8621 232.637 13.0581C233.141 13.2401 233.526 13.5131 233.792 13.8771C234.38 13.5271 235.003 13.2541 235.661 13.0581C236.319 12.8621 236.956 12.7641 237.572 12.7641C238.104 12.7641 238.594 12.8411 239.042 12.9951C239.504 13.1351 239.875 13.3451 240.155 13.6251C240.449 13.9191 240.659 14.2691 240.785 14.6751C240.925 15.0811 240.995 15.5991 240.995 16.2291V23.3481H239.777V16.5441C239.777 15.9981 239.735 15.5711 239.651 15.2631C239.567 14.9551 239.42 14.6961 239.21 14.4861C238.804 14.0801 238.188 13.8771 237.362 13.8771C236.326 13.8771 235.276 14.1361 234.212 14.6541C234.352 15.0601 234.422 15.5851 234.422 16.2291V23.3481H233.204V16.5441C233.204 15.9981 233.162 15.5711 233.078 15.2631C232.994 14.9551 232.847 14.6961 232.637 14.4861C232.231 14.0801 231.629 13.8771 230.831 13.8771C230.383 13.8771 229.893 13.9471 229.361 14.0871C228.829 14.2271 228.304 14.4231 227.786 14.6751V23.3481H226.568V13.0581ZM246.897 23.6421C245.861 23.6421 245.028 23.3691 244.398 22.8231C243.768 22.2771 243.453 21.4861 243.453 20.4501C243.453 19.5121 243.719 18.7911 244.251 18.2871C244.601 17.9511 245.042 17.7131 245.574 17.5731C246.106 17.4191 246.771 17.3421 247.569 17.3421H250.047V16.5021C250.047 15.5361 249.844 14.8501 249.438 14.4441C249.046 14.0381 248.353 13.8351 247.359 13.8351C246.421 13.8351 245.462 13.9471 244.482 14.1711L244.398 13.1631C245.42 12.8971 246.442 12.7641 247.464 12.7641C248.85 12.7641 249.837 13.0651 250.425 13.6671C250.985 14.2551 251.265 15.1441 251.265 16.3341V23.3481H250.278L250.215 22.6551C249.697 22.9631 249.151 23.2011 248.577 23.3691C248.003 23.5511 247.443 23.6421 246.897 23.6421ZM247.107 22.5711C247.583 22.5711 248.094 22.5011 248.64 22.3611C249.186 22.2211 249.655 22.0391 250.047 21.8151V18.3291H247.758C247.114 18.3291 246.596 18.3781 246.204 18.4761C245.812 18.5741 245.497 18.7211 245.259 18.9171C244.867 19.2531 244.671 19.7571 244.671 20.4291C244.671 21.1571 244.881 21.6961 245.301 22.0461C245.721 22.3961 246.323 22.5711 247.107 22.5711ZM245.469 10.6851L249.06 7.38814L249.858 8.43814L245.952 11.2941L245.469 10.6851ZM256.73 23.6421C256.226 23.6421 255.722 23.6071 255.218 23.5371C254.728 23.4671 254.301 23.3761 253.937 23.2641L254.042 22.2981C254.896 22.5221 255.771 22.6341 256.667 22.6341C257.591 22.6341 258.291 22.4731 258.767 22.1511C259.257 21.8291 259.502 21.3601 259.502 20.7441C259.502 20.3241 259.383 19.9811 259.145 19.7151C258.921 19.4491 258.641 19.2461 258.305 19.1061C257.969 18.9521 257.5 18.7841 256.898 18.6021C256.198 18.3781 255.638 18.1751 255.218 17.9931C254.812 17.7971 254.462 17.5101 254.168 17.1321C253.874 16.7541 253.727 16.2571 253.727 15.6411C253.727 14.6891 254.049 13.9751 254.693 13.4991C255.351 13.0091 256.268 12.7641 257.444 12.7641C257.85 12.7641 258.284 12.7991 258.746 12.8691C259.222 12.9251 259.635 13.0091 259.985 13.1211L259.922 14.0661C259.012 13.8701 258.193 13.7721 257.465 13.7721C256.611 13.7721 255.967 13.9191 255.533 14.2131C255.099 14.5071 254.882 14.9621 254.882 15.5781C254.882 15.9701 254.994 16.2921 255.218 16.5441C255.442 16.7821 255.715 16.9781 256.037 17.1321C256.373 17.2721 256.835 17.4331 257.423 17.6151C258.123 17.8391 258.683 18.0561 259.103 18.2661C259.537 18.4761 259.901 18.7771 260.195 19.1691C260.503 19.5471 260.657 20.0511 260.657 20.6811C260.657 21.6331 260.321 22.3681 259.649 22.8861C258.977 23.3901 258.004 23.6421 256.73 23.6421ZM263.597 8.98414H264.983L264.794 19.7781H263.786L263.597 8.98414ZM264.248 23.6421C263.702 23.6421 263.429 23.3691 263.429 22.8231V22.7181C263.429 22.1441 263.702 21.8571 264.248 21.8571H264.332C264.878 21.8571 265.151 22.1441 265.151 22.7181V22.8231C265.151 23.3691 264.878 23.6421 264.332 23.6421H264.248Z" fill="white"/>
<path d="M295.586 4.32025C295.384 5.01088 295.059 5.43209 294.648 5.79447C294.175 6.21184 293.64 6.54161 293.079 6.82128C292.192 7.26259 291.295 7.68206 290.401 8.11073C290.331 8.14421 290.258 8.17249 290.19 8.21001C290.123 8.24752 290.086 8.22938 290.047 8.16757C289.81 7.78813 289.563 7.4149 289.332 7.03172C288.941 6.37985 288.548 5.72771 288.177 5.06501C287.888 4.54999 287.66 4.006 287.542 3.42259C287.451 2.9692 287.446 2.51649 287.598 2.07465C287.899 1.19761 288.521 0.690847 289.433 0.568891C290.421 0.436117 291.411 0.97273 291.887 1.86177C291.949 1.97857 291.95 1.97889 292.068 1.91517C293.019 1.39471 294.215 1.53831 294.963 2.27864C295.584 2.89301 295.762 3.63479 295.586 4.32025Z" stroke="white" stroke-width="0.91325"/>
<path d="M12.5009 27.3889C12.6574 28.3476 12.5084 29.0495 12.2199 29.7302C11.8868 30.5147 11.4289 31.2278 10.9093 31.8955C10.0873 32.9502 9.23926 33.9846 8.40204 35.0277C8.33632 35.1093 8.26414 35.1862 8.20361 35.2714C8.14309 35.3566 8.0874 35.3561 8.00376 35.3037C7.49409 34.9801 6.9756 34.67 6.47181 34.338C5.61478 33.7731 4.75647 33.2085 3.91761 32.6188C3.26591 32.1603 2.67075 31.6314 2.18729 30.9899C1.81135 30.4915 1.54163 29.9432 1.46835 29.317C1.32328 28.0738 1.78375 27.0945 2.82343 26.4135C3.9484 25.6754 5.46659 25.7507 6.56372 26.5555C6.70784 26.6612 6.70934 26.661 6.81519 26.5148C7.66892 25.3265 9.20822 24.8034 10.551 25.2678C11.665 25.6533 12.3148 26.4521 12.5009 27.3889Z" stroke="white" stroke-width="0.91325"/>
</svg>
