<svg width="499" height="45" viewBox="0 0 499 45" fill="none" xmlns="http://www.w3.org/2000/svg">
<path d="M2.73564 12.77C3.90564 12.77 4.49064 13.355 4.49064 14.525V14.75C4.49064 15.98 3.90564 16.595 2.73564 16.595H2.55565C1.38564 16.595 0.800645 15.98 0.800645 14.75V14.525C0.800645 13.355 1.38564 12.77 2.55565 12.77H2.73564ZM4.13064 44.18H1.16064L1.56564 21.05H3.72564L4.13064 44.18ZM12.5738 4.22H28.7738L28.4588 6.56H15.2738V18.215H26.1188V20.6H15.2738V32.66H29.1338V35H12.5738V4.22ZM34.8832 12.95H36.9532L37.1332 14.615C39.6532 13.085 42.2332 12.32 44.8732 12.32C46.0432 12.32 47.1082 12.485 48.0682 12.815C49.0282 13.115 49.8082 13.565 50.4082 14.165C51.0382 14.795 51.5032 15.56 51.8032 16.46C52.1032 17.33 52.2532 18.425 52.2532 19.745V35H49.6432V20.42C49.6432 19.28 49.5382 18.38 49.3282 17.72C49.1482 17.03 48.8332 16.46 48.3832 16.01C47.5132 15.14 46.2082 14.705 44.4682 14.705C43.3882 14.705 42.2332 14.855 41.0032 15.155C39.7732 15.455 38.6032 15.89 37.4932 16.46V35H34.8832V12.95ZM68.4283 4.22H70.8583L82.0183 25.64L93.4933 4.22H95.7433V35H93.2233V9.53L83.0983 28.34H80.7133L70.8583 9.395V35H68.4283V4.22ZM111.457 35.63C105.127 35.63 101.962 31.745 101.962 23.975C101.962 16.205 105.127 12.32 111.457 12.32C117.787 12.32 120.952 16.205 120.952 23.975C120.952 31.745 117.787 35.63 111.457 35.63ZM111.457 33.38C113.887 33.38 115.627 32.6 116.677 31.04C117.727 29.48 118.252 27.125 118.252 23.975C118.252 20.825 117.727 18.47 116.677 16.91C115.627 15.35 113.887 14.57 111.457 14.57C109.027 14.57 107.287 15.35 106.237 16.91C105.187 18.47 104.662 20.825 104.662 23.975C104.662 27.125 105.187 29.48 106.237 31.04C107.287 32.6 109.027 33.38 111.457 33.38ZM123.551 12.95H126.296L132.776 32.255L139.121 12.95H141.776L134.126 35H131.336L123.551 12.95ZM147.282 8.495C146.202 8.495 145.662 7.91 145.662 6.74V6.605C145.662 5.435 146.202 4.85 147.282 4.85H147.462C148.542 4.85 149.082 5.435 149.082 6.605V6.74C149.082 7.91 148.542 8.495 147.462 8.495H147.282ZM146.067 12.95H148.677V35H146.067V12.95ZM160.6 35.63C159.52 35.63 158.44 35.555 157.36 35.405C156.31 35.255 155.395 35.06 154.615 34.82L154.84 32.75C156.67 33.23 158.545 33.47 160.465 33.47C162.445 33.47 163.945 33.125 164.965 32.435C166.015 31.745 166.54 30.74 166.54 29.42C166.54 28.52 166.285 27.785 165.775 27.215C165.295 26.645 164.695 26.21 163.975 25.91C163.255 25.58 162.25 25.22 160.96 24.83C159.46 24.35 158.26 23.915 157.36 23.525C156.49 23.105 155.74 22.49 155.11 21.68C154.48 20.87 154.165 19.805 154.165 18.485C154.165 16.445 154.855 14.915 156.235 13.895C157.645 12.845 159.61 12.32 162.13 12.32C163 12.32 163.93 12.395 164.92 12.545C165.94 12.665 166.825 12.845 167.575 13.085L167.44 15.11C165.49 14.69 163.735 14.48 162.175 14.48C160.345 14.48 158.965 14.795 158.035 15.425C157.105 16.055 156.64 17.03 156.64 18.35C156.64 19.19 156.88 19.88 157.36 20.42C157.84 20.93 158.425 21.35 159.115 21.68C159.835 21.98 160.825 22.325 162.085 22.715C163.585 23.195 164.785 23.66 165.685 24.11C166.615 24.56 167.395 25.205 168.025 26.045C168.685 26.855 169.015 27.935 169.015 29.285C169.015 31.325 168.295 32.9 166.855 34.01C165.415 35.09 163.33 35.63 160.6 35.63ZM181.436 35.63C179.396 35.63 177.911 35.165 176.981 34.235C176.471 33.725 176.096 33.065 175.856 32.255C175.616 31.415 175.496 30.365 175.496 29.105V15.02H171.446V13.445L175.496 12.95V7.865C176.396 7.595 177.266 7.415 178.106 7.325V12.95H183.956V15.02H178.106V28.295C178.106 29.435 178.151 30.305 178.241 30.905C178.361 31.475 178.586 31.955 178.916 32.345C179.516 33.005 180.491 33.335 181.841 33.335C182.891 33.335 184.016 33.2 185.216 32.93L185.396 35.045C184.226 35.435 182.906 35.63 181.436 35.63ZM195.735 35.63C193.515 35.63 191.73 35.045 190.38 33.875C189.03 32.705 188.355 31.01 188.355 28.79C188.355 26.78 188.925 25.235 190.065 24.155C190.815 23.435 191.76 22.925 192.9 22.625C194.04 22.295 195.465 22.13 197.175 22.13H202.485V20.33C202.485 18.26 202.05 16.79 201.18 15.92C200.34 15.05 198.855 14.615 196.725 14.615C194.715 14.615 192.66 14.855 190.56 15.335L190.38 13.175C192.57 12.605 194.76 12.32 196.95 12.32C199.92 12.32 202.035 12.965 203.295 14.255C204.495 15.515 205.095 17.42 205.095 19.97V35H202.98L202.845 33.515C201.735 34.175 200.565 34.685 199.335 35.045C198.105 35.435 196.905 35.63 195.735 35.63ZM196.185 33.335C197.205 33.335 198.3 33.185 199.47 32.885C200.64 32.585 201.645 32.195 202.485 31.715V24.245H197.58C196.2 24.245 195.09 24.35 194.25 24.56C193.41 24.77 192.735 25.085 192.225 25.505C191.385 26.225 190.965 27.305 190.965 28.745C190.965 30.305 191.415 31.46 192.315 32.21C193.215 32.96 194.505 33.335 196.185 33.335ZM211.631 12.95H213.701L213.926 14.84C214.916 14.03 215.981 13.415 217.121 12.995C218.291 12.545 219.401 12.32 220.451 12.32C220.871 12.32 221.231 12.335 221.531 12.365V14.795C221.051 14.765 220.541 14.75 220.001 14.75C217.931 14.75 216.011 15.365 214.241 16.595V35H211.631V12.95ZM242.08 35.63C240.04 35.63 238.555 35.165 237.625 34.235C237.115 33.725 236.74 33.065 236.5 32.255C236.26 31.415 236.14 30.365 236.14 29.105V15.02H232.09V13.445L236.14 12.95V7.865C237.04 7.595 237.91 7.415 238.75 7.325V12.95H244.6V15.02H238.75V28.295C238.75 29.435 238.795 30.305 238.885 30.905C239.005 31.475 239.23 31.955 239.56 32.345C240.16 33.005 241.135 33.335 242.485 33.335C243.535 33.335 244.66 33.2 245.86 32.93L246.04 35.045C244.87 35.435 243.55 35.63 242.08 35.63ZM259.664 35.675C256.034 35.675 253.379 34.685 251.699 32.705C250.019 30.695 249.179 27.8 249.179 24.02C249.179 20.42 249.929 17.585 251.429 15.515C252.959 13.415 255.209 12.365 258.179 12.365C263.969 12.365 266.864 16.295 266.864 24.155V24.56C266.864 24.74 266.819 24.875 266.729 24.965C266.669 25.025 266.534 25.055 266.324 25.055H251.924C251.984 27.815 252.614 29.9 253.814 31.31C255.044 32.72 257.054 33.425 259.844 33.425C261.554 33.425 263.414 33.2 265.424 32.75L265.649 34.865C264.899 35.105 263.954 35.3 262.814 35.45C261.674 35.6 260.624 35.675 259.664 35.675ZM264.299 22.94C264.299 20.3 263.789 18.245 262.769 16.775C261.779 15.275 260.249 14.525 258.179 14.525C256.109 14.525 254.549 15.275 253.499 16.775C252.449 18.245 251.909 20.3 251.879 22.94H264.299ZM289.468 35.63C283.468 35.63 280.468 31.775 280.468 24.065C280.468 20.405 281.218 17.54 282.718 15.47C284.218 13.37 286.468 12.32 289.468 12.32C291.508 12.32 293.548 12.83 295.588 13.85V2.825H298.198V35H296.128L295.993 33.65C295.123 34.22 294.088 34.685 292.888 35.045C291.688 35.435 290.548 35.63 289.468 35.63ZM289.603 33.335C290.533 33.335 291.538 33.2 292.618 32.93C293.698 32.66 294.688 32.3 295.588 31.85V16.01C293.548 15.08 291.673 14.615 289.963 14.615C287.533 14.615 285.793 15.395 284.743 16.955C283.693 18.515 283.168 20.87 283.168 24.02C283.168 27.2 283.678 29.555 284.698 31.085C285.718 32.585 287.353 33.335 289.603 33.335ZM310.959 35.63C308.739 35.63 306.954 35.045 305.604 33.875C304.254 32.705 303.579 31.01 303.579 28.79C303.579 26.78 304.149 25.235 305.289 24.155C306.039 23.435 306.984 22.925 308.124 22.625C309.264 22.295 310.689 22.13 312.399 22.13H317.709V20.33C317.709 18.26 317.274 16.79 316.404 15.92C315.564 15.05 314.079 14.615 311.949 14.615C309.939 14.615 307.884 14.855 305.784 15.335L305.604 13.175C307.794 12.605 309.984 12.32 312.174 12.32C315.144 12.32 317.259 12.965 318.519 14.255C319.719 15.515 320.319 17.42 320.319 19.97V35H318.204L318.069 33.515C316.959 34.175 315.789 34.685 314.559 35.045C313.329 35.435 312.129 35.63 310.959 35.63ZM311.409 33.335C312.429 33.335 313.524 33.185 314.694 32.885C315.864 32.585 316.869 32.195 317.709 31.715V24.245H312.804C311.424 24.245 310.314 24.35 309.474 24.56C308.634 24.77 307.959 25.085 307.449 25.505C306.609 26.225 306.189 27.305 306.189 28.745C306.189 30.305 306.639 31.46 307.539 32.21C308.439 32.96 309.729 33.335 311.409 33.335ZM326.856 12.95H328.926L329.106 14.57C330.186 13.88 331.356 13.34 332.616 12.95C333.906 12.53 335.151 12.32 336.351 12.32C337.641 12.32 338.811 12.53 339.861 12.95C340.941 13.34 341.766 13.925 342.336 14.705C343.596 13.955 344.931 13.37 346.341 12.95C347.751 12.53 349.116 12.32 350.436 12.32C351.576 12.32 352.626 12.485 353.586 12.815C354.576 13.115 355.371 13.565 355.971 14.165C356.601 14.795 357.051 15.545 357.321 16.415C357.621 17.285 357.771 18.395 357.771 19.745V35H355.161V20.42C355.161 19.25 355.071 18.335 354.891 17.675C354.711 17.015 354.396 16.46 353.946 16.01C353.076 15.14 351.756 14.705 349.986 14.705C347.766 14.705 345.516 15.26 343.236 16.37C343.536 17.24 343.686 18.365 343.686 19.745V35H341.076V20.42C341.076 19.25 340.986 18.335 340.806 17.675C340.626 17.015 340.311 16.46 339.861 16.01C338.991 15.14 337.701 14.705 335.991 14.705C335.031 14.705 333.981 14.855 332.841 15.155C331.701 15.455 330.576 15.875 329.466 16.415V35H326.856V12.95ZM372.712 35.63C366.382 35.63 363.217 31.745 363.217 23.975C363.217 16.205 366.382 12.32 372.712 12.32C379.042 12.32 382.207 16.205 382.207 23.975C382.207 31.745 379.042 35.63 372.712 35.63ZM372.712 33.38C375.142 33.38 376.882 32.6 377.932 31.04C378.982 29.48 379.507 27.125 379.507 23.975C379.507 20.825 378.982 18.47 377.932 16.91C376.882 15.35 375.142 14.57 372.712 14.57C370.282 14.57 368.542 15.35 367.492 16.91C366.442 18.47 365.917 20.825 365.917 23.975C365.917 27.125 366.442 29.48 367.492 31.04C368.542 32.6 370.282 33.38 372.712 33.38ZM392.983 35.63C391.903 35.63 390.823 35.555 389.743 35.405C388.693 35.255 387.778 35.06 386.998 34.82L387.223 32.75C389.053 33.23 390.928 33.47 392.848 33.47C394.828 33.47 396.328 33.125 397.348 32.435C398.398 31.745 398.923 30.74 398.923 29.42C398.923 28.52 398.668 27.785 398.158 27.215C397.678 26.645 397.078 26.21 396.358 25.91C395.638 25.58 394.633 25.22 393.343 24.83C391.843 24.35 390.643 23.915 389.743 23.525C388.873 23.105 388.123 22.49 387.493 21.68C386.863 20.87 386.548 19.805 386.548 18.485C386.548 16.445 387.238 14.915 388.618 13.895C390.028 12.845 391.993 12.32 394.513 12.32C395.383 12.32 396.313 12.395 397.303 12.545C398.323 12.665 399.208 12.845 399.958 13.085L399.823 15.11C397.873 14.69 396.118 14.48 394.558 14.48C392.728 14.48 391.348 14.795 390.418 15.425C389.488 16.055 389.023 17.03 389.023 18.35C389.023 19.19 389.263 19.88 389.743 20.42C390.223 20.93 390.808 21.35 391.498 21.68C392.218 21.98 393.208 22.325 394.468 22.715C395.968 23.195 397.168 23.66 398.068 24.11C398.998 24.56 399.778 25.205 400.408 26.045C401.068 26.855 401.398 27.935 401.398 29.285C401.398 31.325 400.678 32.9 399.238 34.01C397.798 35.09 395.713 35.63 392.983 35.63ZM415.538 12.95H417.608L417.788 14.57C418.868 13.88 420.038 13.34 421.298 12.95C422.588 12.53 423.833 12.32 425.033 12.32C426.323 12.32 427.493 12.53 428.543 12.95C429.623 13.34 430.448 13.925 431.018 14.705C432.278 13.955 433.613 13.37 435.023 12.95C436.433 12.53 437.798 12.32 439.118 12.32C440.258 12.32 441.308 12.485 442.268 12.815C443.258 13.115 444.053 13.565 444.653 14.165C445.283 14.795 445.733 15.545 446.003 16.415C446.303 17.285 446.453 18.395 446.453 19.745V35H443.843V20.42C443.843 19.25 443.753 18.335 443.573 17.675C443.393 17.015 443.078 16.46 442.628 16.01C441.758 15.14 440.438 14.705 438.668 14.705C436.448 14.705 434.198 15.26 431.918 16.37C432.218 17.24 432.368 18.365 432.368 19.745V35H429.758V20.42C429.758 19.25 429.668 18.335 429.488 17.675C429.308 17.015 428.993 16.46 428.543 16.01C427.673 15.14 426.383 14.705 424.673 14.705C423.713 14.705 422.663 14.855 421.523 15.155C420.383 15.455 419.258 15.875 418.148 16.415V35H415.538V12.95ZM459.099 35.63C456.879 35.63 455.094 35.045 453.744 33.875C452.394 32.705 451.719 31.01 451.719 28.79C451.719 26.78 452.289 25.235 453.429 24.155C454.179 23.435 455.124 22.925 456.264 22.625C457.404 22.295 458.829 22.13 460.539 22.13H465.849V20.33C465.849 18.26 465.414 16.79 464.544 15.92C463.704 15.05 462.219 14.615 460.089 14.615C458.079 14.615 456.024 14.855 453.924 15.335L453.744 13.175C455.934 12.605 458.124 12.32 460.314 12.32C463.284 12.32 465.399 12.965 466.659 14.255C467.859 15.515 468.459 17.42 468.459 19.97V35H466.344L466.209 33.515C465.099 34.175 463.929 34.685 462.699 35.045C461.469 35.435 460.269 35.63 459.099 35.63ZM459.549 33.335C460.569 33.335 461.664 33.185 462.834 32.885C464.004 32.585 465.009 32.195 465.849 31.715V24.245H460.944C459.564 24.245 458.454 24.35 457.614 24.56C456.774 24.77 456.099 25.085 455.589 25.505C454.749 26.225 454.329 27.305 454.329 28.745C454.329 30.305 454.779 31.46 455.679 32.21C456.579 32.96 457.869 33.335 459.549 33.335ZM456.039 7.865L463.734 0.799998L465.444 3.05L457.074 9.17L456.039 7.865ZM480.171 35.63C479.091 35.63 478.011 35.555 476.931 35.405C475.881 35.255 474.966 35.06 474.186 34.82L474.411 32.75C476.241 33.23 478.116 33.47 480.036 33.47C482.016 33.47 483.516 33.125 484.536 32.435C485.586 31.745 486.111 30.74 486.111 29.42C486.111 28.52 485.856 27.785 485.346 27.215C484.866 26.645 484.266 26.21 483.546 25.91C482.826 25.58 481.821 25.22 480.531 24.83C479.031 24.35 477.831 23.915 476.931 23.525C476.061 23.105 475.311 22.49 474.681 21.68C474.051 20.87 473.736 19.805 473.736 18.485C473.736 16.445 474.426 14.915 475.806 13.895C477.216 12.845 479.181 12.32 481.701 12.32C482.571 12.32 483.501 12.395 484.491 12.545C485.511 12.665 486.396 12.845 487.146 13.085L487.011 15.11C485.061 14.69 483.306 14.48 481.746 14.48C479.916 14.48 478.536 14.795 477.606 15.425C476.676 16.055 476.211 17.03 476.211 18.35C476.211 19.19 476.451 19.88 476.931 20.42C477.411 20.93 477.996 21.35 478.686 21.68C479.406 21.98 480.396 22.325 481.656 22.715C483.156 23.195 484.356 23.66 485.256 24.11C486.186 24.56 486.966 25.205 487.596 26.045C488.256 26.855 488.586 27.935 488.586 29.285C488.586 31.325 487.866 32.9 486.426 34.01C484.986 35.09 482.901 35.63 480.171 35.63ZM494.886 4.22H497.856L497.451 27.35H495.291L494.886 4.22ZM496.281 35.63C495.111 35.63 494.526 35.045 494.526 33.875V33.65C494.526 32.42 495.111 31.805 496.281 31.805H496.461C497.631 31.805 498.216 32.42 498.216 33.65V33.875C498.216 35.045 497.631 35.63 496.461 35.63H496.281Z" fill="white"/>
</svg>
