<svg width="198" height="166" viewBox="0 0 198 166" fill="none" xmlns="http://www.w3.org/2000/svg">
<path d="M15.586 134H16.573L17.2083 131.935H20.1464L20.8271 134H21.8821L19.2049 126.241H18.0478L15.586 134ZM17.4579 131.141L18.6263 127.307H18.6377L19.8855 131.141H17.4579ZM22.8784 136.552H23.8199V133.739C24.2283 134 24.8296 134.159 25.4081 134.159C26.7354 134.159 27.5749 133.285 27.5749 131.198C27.5749 129.428 26.8829 128.282 25.4422 128.282C24.9317 128.282 24.2851 128.464 23.7065 128.85L23.6611 128.441H22.8784V136.552ZM25.1699 133.376C24.6935 133.376 24.1489 133.229 23.8199 133.036V129.462C24.251 129.235 24.8069 129.088 25.238 129.088C26.1682 129.088 26.5879 129.769 26.5879 131.187C26.5879 132.775 26.1796 133.376 25.1699 133.376ZM28.8831 134H29.8247V125.889H28.8831V134ZM31.8849 127.386H31.9416C32.282 127.386 32.4975 127.216 32.4975 126.785V126.762C32.4975 126.331 32.282 126.161 31.9416 126.161H31.8849C31.5446 126.161 31.329 126.331 31.329 126.762V126.785C31.329 127.216 31.5446 127.386 31.8849 127.386ZM31.4425 134H32.3841V128.441H31.4425V134ZM36.4517 134.159C36.8601 134.159 37.484 134.079 37.847 133.977L37.779 133.274C37.4954 133.331 36.9962 133.387 36.6219 133.387C35.9412 133.387 35.4647 133.229 35.1471 132.866C34.8408 132.514 34.682 131.981 34.682 131.277C34.682 129.803 35.2719 129.043 36.5765 129.043C36.9282 129.043 37.3819 129.111 37.7336 129.179L37.7903 128.453C37.4046 128.351 36.8941 128.282 36.463 128.282C35.6122 128.282 34.8975 128.532 34.4211 129.043C33.9446 129.553 33.695 130.313 33.695 131.289C33.695 132.264 33.9673 132.99 34.4324 133.467C34.8862 133.932 35.5442 134.159 36.4517 134.159ZM40.6745 134.159C41.3438 134.159 41.9337 133.943 42.4215 133.626L42.4782 134H43.2383V130.302C43.2383 129.576 43.1022 129.133 42.7505 128.793C42.3988 128.464 41.843 128.282 41.0148 128.282C40.4817 128.282 39.8464 128.351 39.3245 128.475L39.3586 129.201C39.9031 129.111 40.4363 129.065 40.856 129.065C41.4119 129.065 41.7749 129.167 42.0131 129.394C42.2173 129.598 42.2967 129.882 42.2967 130.336V130.687H41.1396C40.3342 130.687 39.6762 130.835 39.2565 131.221C38.9615 131.493 38.78 131.901 38.78 132.423C38.78 132.945 38.9502 133.342 39.2224 133.626C39.5628 133.977 40.0733 134.159 40.6745 134.159ZM40.8787 133.399C40.1527 133.399 39.7329 133.07 39.7329 132.4C39.7329 132.06 39.8464 131.822 40.0392 131.663C40.3001 131.459 40.6972 131.379 41.2757 131.379H42.2967V133.036C41.8883 133.24 41.3325 133.399 40.8787 133.399ZM44.8025 134H45.7441V129.508C46.1411 129.258 46.6062 129.133 47.094 129.133C47.2528 129.133 47.457 129.145 47.5818 129.156V128.317C47.457 128.294 47.3209 128.282 47.2188 128.282C46.731 128.282 46.1751 128.475 45.642 128.918L45.5852 128.441H44.8025V134ZM49.5398 127.545L51.7065 125.991L51.1734 125.276L49.1768 127.046L49.5398 127.545ZM49.9028 134.159C50.5721 134.159 51.162 133.943 51.6498 133.626L51.7065 134H52.4666V130.302C52.4666 129.576 52.3305 129.133 51.9788 128.793C51.6271 128.464 51.0713 128.282 50.2431 128.282C49.7099 128.282 49.0747 128.351 48.5528 128.475L48.5869 129.201C49.1314 129.111 49.6646 129.065 50.0843 129.065C50.6402 129.065 51.0032 129.167 51.2414 129.394C51.4456 129.598 51.525 129.882 51.525 130.336V130.687H50.3679C49.5625 130.687 48.9045 130.835 48.4848 131.221C48.1898 131.493 48.0083 131.901 48.0083 132.423C48.0083 132.945 48.1785 133.342 48.4507 133.626C48.7911 133.977 49.3015 134.159 49.9028 134.159ZM50.107 133.399C49.381 133.399 48.9612 133.07 48.9612 132.4C48.9612 132.06 49.0747 131.822 49.2675 131.663C49.5284 131.459 49.9255 131.379 50.504 131.379H51.525V133.036C51.1166 133.24 50.5608 133.399 50.107 133.399ZM54.0308 134H54.9724V129.474C55.4261 129.258 56.0274 129.111 56.5265 129.111C56.9349 129.111 57.2299 129.201 57.4227 129.394C57.6156 129.587 57.695 129.859 57.695 130.336V134H58.6365V130.222C58.6365 129.53 58.4777 129.077 58.1714 128.77C57.8538 128.441 57.3773 128.282 56.7761 128.282C56.1295 128.282 55.4375 128.498 54.8589 128.85L54.8135 128.441H54.0308V134ZM62.5168 134H63.4584V129.508C63.8554 129.258 64.3206 129.133 64.8084 129.133C64.9672 129.133 65.1714 129.145 65.2962 129.156V128.317C65.1714 128.294 65.0352 128.282 64.9331 128.282C64.4453 128.282 63.8895 128.475 63.3563 128.918L63.2996 128.441H62.5168V134ZM68.4782 134.159C68.9887 134.159 69.6467 134.079 70.1231 133.943L70.0324 133.24C69.6013 133.331 69.0568 133.387 68.6597 133.387C67.9564 133.387 67.5367 133.24 67.2417 132.968C66.9127 132.661 66.7539 132.162 66.7539 131.55H70.3387C70.4294 131.55 70.4748 131.516 70.4748 131.425V131.209C70.4748 129.383 69.7261 128.282 68.1719 128.282C66.7539 128.282 65.7669 129.247 65.7669 131.232C65.7669 132.23 65.9938 132.99 66.493 133.49C66.9468 133.943 67.6161 134.159 68.4782 134.159ZM66.7539 130.858C66.7652 129.735 67.2304 129.043 68.1719 129.043C69.1022 129.043 69.5106 129.791 69.5446 130.858H66.7539ZM73.2639 134.159C74.6025 134.159 75.5101 133.637 75.5101 132.457C75.5101 130.472 72.4131 131.062 72.4131 129.814C72.4131 129.292 72.8328 129.031 73.6269 129.031C74.0807 129.031 74.5912 129.099 75.0903 129.213L75.1697 128.521C74.7273 128.385 74.1034 128.282 73.5475 128.282C72.3677 128.282 71.5282 128.804 71.5282 129.882C71.5282 131.924 74.6252 131.277 74.6252 132.525C74.6252 133.092 74.1374 133.399 73.2299 133.399C72.7421 133.399 72.1295 133.319 71.6757 133.195L71.6303 133.921C72.0501 134.057 72.7307 134.159 73.2639 134.159ZM78.7697 134.159C79.1781 134.159 79.6205 134.091 79.9155 134.011L79.8701 133.319C79.5978 133.376 79.2235 133.41 79.0306 133.41C78.6336 133.41 78.4407 133.331 78.3159 133.195C78.1571 133.024 78.1231 132.752 78.1231 132.219V129.133H79.5865V128.441H78.1231V126.967C77.8281 126.967 77.4538 127.046 77.1815 127.137V128.453L76.1719 128.6V129.133H77.1815V132.344C77.1815 133.036 77.2609 133.41 77.5332 133.728C77.7827 134.011 78.2252 134.159 78.7697 134.159ZM80.9845 134H81.926V129.508C82.3231 129.258 82.7882 129.133 83.276 129.133C83.4348 129.133 83.639 129.145 83.7638 129.156V128.317C83.639 128.294 83.5029 128.282 83.4008 128.282C82.913 128.282 82.3571 128.475 81.824 128.918L81.7672 128.441H80.9845V134ZM85.2495 127.386H85.3062C85.6465 127.386 85.8621 127.216 85.8621 126.785V126.762C85.8621 126.331 85.6465 126.161 85.3062 126.161H85.2495C84.9092 126.161 84.6936 126.331 84.6936 126.762V126.785C84.6936 127.216 84.9092 127.386 85.2495 127.386ZM84.8071 134H85.7486V128.441H84.8071V134ZM89.8163 134.159C90.2246 134.159 90.8486 134.079 91.2116 133.977L91.1435 133.274C90.8599 133.331 90.3608 133.387 89.9864 133.387C89.3058 133.387 88.8293 133.229 88.5117 132.866C88.2054 132.514 88.0465 131.981 88.0465 131.277C88.0465 129.803 88.6364 129.043 89.941 129.043C90.2927 129.043 90.7465 129.111 91.0982 129.179L91.1549 128.453C90.7692 128.351 90.2587 128.282 89.8276 128.282C88.9768 128.282 88.2621 128.532 87.7856 129.043C87.3092 129.553 87.0596 130.313 87.0596 131.289C87.0596 132.264 87.3319 132.99 87.797 133.467C88.2507 133.932 88.9087 134.159 89.8163 134.159ZM94.8569 134.159C95.2653 134.159 95.8892 134.079 96.2523 133.977L96.1842 133.274C95.9006 133.331 95.4014 133.387 95.0271 133.387C94.3464 133.387 93.87 133.229 93.5523 132.866C93.246 132.514 93.0872 131.981 93.0872 131.277C93.0872 129.803 93.6771 129.043 94.9817 129.043C95.3334 129.043 95.7871 129.111 96.1388 129.179L96.1955 128.453C95.8098 128.351 95.2993 128.282 94.8683 128.282C94.0174 128.282 93.3028 128.532 92.8263 129.043C92.3498 129.553 92.1003 130.313 92.1003 131.289C92.1003 132.264 92.3725 132.99 92.8376 133.467C93.2914 133.932 93.9494 134.159 94.8569 134.159ZM97.9675 127.386H98.0242C98.3645 127.386 98.58 127.216 98.58 126.785V126.762C98.58 126.331 98.3645 126.161 98.0242 126.161H97.9675C97.6271 126.161 97.4116 126.331 97.4116 126.762V126.785C97.4116 127.216 97.6271 127.386 97.9675 127.386ZM97.525 134H98.4666V128.441H97.525V134ZM102.307 134.159C104.032 134.159 104.837 133.07 104.837 131.221C104.837 129.372 104.032 128.282 102.307 128.282C100.583 128.282 99.7776 129.372 99.7776 131.221C99.7776 133.07 100.583 134.159 102.307 134.159ZM102.307 133.387C101.173 133.387 100.765 132.639 100.765 131.221C100.765 129.803 101.173 129.054 102.307 129.054C103.442 129.054 103.85 129.803 103.85 131.221C103.85 132.639 103.442 133.387 102.307 133.387ZM106.132 134H107.074V129.474C107.528 129.258 108.129 129.111 108.628 129.111C109.037 129.111 109.331 129.201 109.524 129.394C109.717 129.587 109.797 129.859 109.797 130.336V134H110.738V130.222C110.738 129.53 110.579 129.077 110.273 128.77C109.955 128.441 109.479 128.282 108.878 128.282C108.231 128.282 107.539 128.498 106.961 128.85L106.915 128.441H106.132V134ZM114.719 134.159C115.23 134.159 115.888 134.079 116.364 133.943L116.274 133.24C115.842 133.331 115.298 133.387 114.901 133.387C114.198 133.387 113.778 133.24 113.483 132.968C113.154 132.661 112.995 132.162 112.995 131.55H116.58C116.671 131.55 116.716 131.516 116.716 131.425V131.209C116.716 129.383 115.967 128.282 114.413 128.282C112.995 128.282 112.008 129.247 112.008 131.232C112.008 132.23 112.235 132.99 112.734 133.49C113.188 133.943 113.857 134.159 114.719 134.159ZM112.995 130.858C113.006 129.735 113.472 129.043 114.413 129.043C115.343 129.043 115.752 129.791 115.786 130.858H112.995ZM119.505 134.159C120.844 134.159 121.751 133.637 121.751 132.457C121.751 130.472 118.654 131.062 118.654 129.814C118.654 129.292 119.074 129.031 119.868 129.031C120.322 129.031 120.832 129.099 121.332 129.213L121.411 128.521C120.968 128.385 120.345 128.282 119.789 128.282C118.609 128.282 117.769 128.804 117.769 129.882C117.769 131.924 120.866 131.277 120.866 132.525C120.866 133.092 120.379 133.399 119.471 133.399C118.983 133.399 118.371 133.319 117.917 133.195L117.872 133.921C118.291 134.057 118.972 134.159 119.505 134.159ZM127.644 136.711C128.483 136.711 129.073 136.507 129.448 136.099C129.799 135.724 129.958 135.18 129.958 134.431V128.441H129.017V132.968C128.563 133.183 127.984 133.331 127.485 133.331C127.077 133.331 126.782 133.24 126.589 133.047C126.396 132.854 126.317 132.582 126.317 132.106V128.441H125.375V132.219C125.375 132.911 125.534 133.365 125.84 133.671C126.158 134 126.634 134.159 127.235 134.159C127.837 134.159 128.461 133.977 129.017 133.66V134.42C129.017 135.044 128.903 135.395 128.665 135.622C128.415 135.849 128.018 135.929 127.508 135.929C127.235 135.929 126.714 135.894 126.441 135.86L126.521 136.598C126.77 136.655 127.27 136.711 127.644 136.711ZM133.862 136.552H134.803V133.739C135.212 134 135.813 134.159 136.391 134.159C137.719 134.159 138.558 133.285 138.558 131.198C138.558 129.428 137.866 128.282 136.425 128.282C135.915 128.282 135.268 128.464 134.69 128.85L134.644 128.441H133.862V136.552ZM136.153 133.376C135.677 133.376 135.132 133.229 134.803 133.036V129.462C135.234 129.235 135.79 129.088 136.221 129.088C137.151 129.088 137.571 129.769 137.571 131.187C137.571 132.775 137.163 133.376 136.153 133.376ZM139.855 134H140.797V129.508C141.194 129.258 141.659 129.133 142.147 129.133C142.305 129.133 142.51 129.145 142.634 129.156V128.317C142.51 128.294 142.373 128.282 142.271 128.282C141.784 128.282 141.228 128.475 140.694 128.918L140.638 128.441H139.855V134ZM145.635 134.159C147.359 134.159 148.165 133.07 148.165 131.221C148.165 129.372 147.359 128.282 145.635 128.282C143.911 128.282 143.105 129.372 143.105 131.221C143.105 133.07 143.911 134.159 145.635 134.159ZM145.635 133.387C144.5 133.387 144.092 132.639 144.092 131.221C144.092 129.803 144.5 129.054 145.635 129.054C146.769 129.054 147.178 129.803 147.178 131.221C147.178 132.639 146.769 133.387 145.635 133.387ZM151.388 134.159C151.797 134.159 152.239 134.091 152.534 134.011L152.489 133.319C152.217 133.376 151.842 133.41 151.649 133.41C151.252 133.41 151.059 133.331 150.935 133.195C150.776 133.024 150.742 132.752 150.742 132.219V129.133H152.205V128.441H150.742V126.967C150.447 126.967 150.073 127.046 149.8 127.137V128.453L148.791 128.6V129.133H149.8V132.344C149.8 133.036 149.88 133.41 150.152 133.728C150.402 134.011 150.844 134.159 151.388 134.159ZM155.838 134.159C157.562 134.159 158.368 133.07 158.368 131.221C158.368 129.372 157.562 128.282 155.838 128.282C154.114 128.282 153.308 129.372 153.308 131.221C153.308 133.07 154.114 134.159 155.838 134.159ZM155.838 133.387C154.704 133.387 154.295 132.639 154.295 131.221C154.295 129.803 154.704 129.054 155.838 129.054C156.973 129.054 157.381 129.803 157.381 131.221C157.381 132.639 156.973 133.387 155.838 133.387ZM162.125 134.159C162.533 134.159 163.157 134.079 163.52 133.977L163.452 133.274C163.169 133.331 162.669 133.387 162.295 133.387C161.614 133.387 161.138 133.229 160.82 132.866C160.514 132.514 160.355 131.981 160.355 131.277C160.355 129.803 160.945 129.043 162.25 129.043C162.601 129.043 163.055 129.111 163.407 129.179L163.463 128.453C163.078 128.351 162.567 128.282 162.136 128.282C161.285 128.282 160.571 128.532 160.094 129.043C159.618 129.553 159.368 130.313 159.368 131.289C159.368 132.264 159.64 132.99 160.106 133.467C160.559 133.932 161.217 134.159 162.125 134.159ZM166.939 134.159C168.663 134.159 169.468 133.07 169.468 131.221C169.468 129.372 168.663 128.282 166.939 128.282C165.214 128.282 164.409 129.372 164.409 131.221C164.409 133.07 165.214 134.159 166.939 134.159ZM166.939 133.387C165.804 133.387 165.396 132.639 165.396 131.221C165.396 129.803 165.804 129.054 166.939 129.054C168.073 129.054 168.481 129.803 168.481 131.221C168.481 132.639 168.073 133.387 166.939 133.387ZM170.775 134H171.717V125.889H170.775V134ZM175.547 134.159C177.271 134.159 178.076 133.07 178.076 131.221C178.076 129.372 177.271 128.282 175.547 128.282C173.822 128.282 173.017 129.372 173.017 131.221C173.017 133.07 173.822 134.159 175.547 134.159ZM175.547 133.387C174.412 133.387 174.004 132.639 174.004 131.221C174.004 129.803 174.412 129.054 175.547 129.054C176.681 129.054 177.089 129.803 177.089 131.221C177.089 132.639 176.681 133.387 175.547 133.387ZM180.835 134.159C182.174 134.159 183.081 133.637 183.081 132.457C183.081 130.472 179.984 131.062 179.984 129.814C179.984 129.292 180.404 129.031 181.198 129.031C181.652 129.031 182.162 129.099 182.661 129.213L182.741 128.521C182.298 128.385 181.674 128.282 181.119 128.282C179.939 128.282 179.099 128.804 179.099 129.882C179.099 131.924 182.196 131.277 182.196 132.525C182.196 133.092 181.709 133.399 180.801 133.399C180.313 133.399 179.701 133.319 179.247 133.195L179.201 133.921C179.621 134.057 180.302 134.159 180.835 134.159ZM36.3785 150.159C36.9004 150.159 37.5697 149.955 38.0234 149.66L38.0915 150H38.8629V141.889H37.9213V144.68C37.4789 144.43 36.9231 144.282 36.4466 144.282C34.9945 144.282 34.1437 145.417 34.1437 147.255C34.1437 149.183 34.9605 150.159 36.3785 150.159ZM36.6394 149.387C35.6412 149.387 35.1307 148.729 35.1307 147.266C35.1307 145.961 35.505 145.077 36.6394 145.077C37.0138 145.077 37.513 145.19 37.9213 145.349V149.058C37.5243 149.251 37.0365 149.387 36.6394 149.387ZM42.8705 150.159C43.381 150.159 44.039 150.079 44.5155 149.943L44.4247 149.24C43.9936 149.331 43.4491 149.387 43.0521 149.387C42.3487 149.387 41.929 149.24 41.634 148.968C41.305 148.661 41.1462 148.162 41.1462 147.55H44.731C44.8218 147.55 44.8671 147.516 44.8671 147.425V147.209C44.8671 145.383 44.1184 144.282 42.5643 144.282C41.1462 144.282 40.1593 145.247 40.1593 147.232C40.1593 148.23 40.3862 148.99 40.8853 149.49C41.3391 149.943 42.0084 150.159 42.8705 150.159ZM41.1462 146.858C41.1576 145.735 41.6227 145.043 42.5643 145.043C43.4945 145.043 43.9029 145.791 43.9369 146.858H41.1462ZM49.9716 150.159C51.3102 150.159 52.2178 149.637 52.2178 148.457C52.2178 146.472 49.1208 147.062 49.1208 145.814C49.1208 145.292 49.5405 145.031 50.3346 145.031C50.7884 145.031 51.2989 145.099 51.798 145.213L51.8774 144.521C51.435 144.385 50.8111 144.282 50.2552 144.282C49.0754 144.282 48.2359 144.804 48.2359 145.882C48.2359 147.924 51.3329 147.277 51.3329 148.525C51.3329 149.092 50.8451 149.399 49.9376 149.399C49.4498 149.399 48.8372 149.319 48.3834 149.195L48.338 149.921C48.7578 150.057 49.4384 150.159 49.9716 150.159ZM55.9652 150.159C56.4757 150.159 57.1337 150.079 57.6101 149.943L57.5194 149.24C57.0883 149.331 56.5438 149.387 56.1467 149.387C55.4434 149.387 55.0236 149.24 54.7287 148.968C54.3997 148.661 54.2409 148.162 54.2409 147.55H57.8257C57.9164 147.55 57.9618 147.516 57.9618 147.425V147.209C57.9618 145.383 57.2131 144.282 55.6589 144.282C54.2409 144.282 53.2539 145.247 53.2539 147.232C53.2539 148.23 53.4808 148.99 53.9799 149.49C54.4337 149.943 55.103 150.159 55.9652 150.159ZM54.2409 146.858C54.2522 145.735 54.7173 145.043 55.6589 145.043C56.5891 145.043 56.9975 145.791 57.0316 146.858H54.2409ZM61.4315 152.711C63.3147 152.711 64.0634 152.087 64.0634 150.964C64.0634 150.51 63.9386 150.125 63.655 149.841C63.292 149.478 62.7475 149.319 61.7719 149.319H60.7055C60.3992 149.319 60.2517 149.217 60.2517 148.979C60.2517 148.786 60.3879 148.491 60.558 148.298C60.8189 148.378 61.1026 148.412 61.4315 148.412C62.9517 148.412 63.6664 147.55 63.6664 146.347C63.6664 145.553 63.3487 144.895 62.6794 144.555L63.4508 143.239C63.2693 143.091 62.929 142.933 62.6681 142.876L61.9987 144.328C61.8286 144.305 61.6357 144.282 61.4315 144.282C59.9114 144.282 59.1967 145.145 59.1967 146.347C59.1967 147.073 59.4576 147.663 59.9795 148.026C59.5824 148.412 59.3215 148.866 59.3215 149.308C59.3215 149.558 59.4009 149.762 59.5824 149.909C59.1967 150.182 58.9471 150.658 58.9471 151.146C58.9471 152.133 59.7186 152.711 61.4315 152.711ZM61.4315 147.663C60.5126 147.663 60.0929 147.198 60.0929 146.347C60.0929 145.496 60.5126 145.031 61.4315 145.031C62.3504 145.031 62.7702 145.496 62.7702 146.347C62.7702 147.198 62.3504 147.663 61.4315 147.663ZM61.5223 151.917C60.2858 151.917 59.832 151.577 59.832 150.976C59.832 150.681 59.9568 150.374 60.161 150.125C60.2744 150.147 60.4106 150.159 60.5694 150.159H61.7719C62.3277 150.159 62.6907 150.227 62.9063 150.386C63.0878 150.522 63.1786 150.726 63.1786 150.998C63.1786 151.577 62.7021 151.917 61.5223 151.917ZM66.9192 150.159C67.5659 150.159 68.2352 149.943 68.8137 149.592L68.8591 150H69.6419V144.441H68.7003V148.968C68.2465 149.183 67.668 149.331 67.1688 149.331C66.7604 149.331 66.4655 149.24 66.2726 149.047C66.0798 148.854 66.0003 148.582 66.0003 148.106V144.441H65.0588V148.219C65.0588 148.911 65.2176 149.365 65.5239 149.671C65.8415 150 66.318 150.159 66.9192 150.159ZM71.23 150H72.1715V145.508C72.5686 145.258 73.0337 145.133 73.5215 145.133C73.6803 145.133 73.8845 145.145 74.0093 145.156V144.317C73.8845 144.294 73.7484 144.282 73.6463 144.282C73.1585 144.282 72.6026 144.475 72.0694 144.918L72.0127 144.441H71.23V150ZM75.495 143.386H75.5517C75.892 143.386 76.1076 143.216 76.1076 142.785V142.762C76.1076 142.331 75.892 142.161 75.5517 142.161H75.495C75.1546 142.161 74.9391 142.331 74.9391 142.762V142.785C74.9391 143.216 75.1546 143.386 75.495 143.386ZM75.0525 150H75.9941V144.441H75.0525V150ZM79.5399 150.159C80.0617 150.159 80.731 149.955 81.1848 149.66L81.2529 150H82.0243V141.889H81.0827V144.68C80.6403 144.43 80.0844 144.282 79.608 144.282C78.1559 144.282 77.3051 145.417 77.3051 147.255C77.3051 149.183 78.1219 150.159 79.5399 150.159ZM79.8008 149.387C78.8025 149.387 78.292 148.729 78.292 147.266C78.292 145.961 78.6664 145.077 79.8008 145.077C80.1752 145.077 80.6743 145.19 81.0827 145.349V149.058C80.6857 149.251 80.1979 149.387 79.8008 149.387ZM85.2151 150.159C85.8844 150.159 86.4743 149.943 86.9622 149.626L87.0189 150H87.7789V146.302C87.7789 145.576 87.6428 145.133 87.2911 144.793C86.9395 144.464 86.3836 144.282 85.5555 144.282C85.0223 144.282 84.387 144.351 83.8652 144.475L83.8992 145.201C84.4437 145.111 84.9769 145.065 85.3966 145.065C85.9525 145.065 86.3155 145.167 86.5538 145.394C86.758 145.598 86.8374 145.882 86.8374 146.336V146.687H85.6802C84.8748 146.687 84.2168 146.835 83.7971 147.221C83.5022 147.493 83.3206 147.901 83.3206 148.423C83.3206 148.945 83.4908 149.342 83.7631 149.626C84.1034 149.977 84.6139 150.159 85.2151 150.159ZM85.4193 149.399C84.6933 149.399 84.2736 149.07 84.2736 148.4C84.2736 148.06 84.387 147.822 84.5799 147.663C84.8408 147.459 85.2378 147.379 85.8164 147.379H86.8374V149.036C86.429 149.24 85.8731 149.399 85.4193 149.399ZM91.283 150.159C91.8048 150.159 92.4741 149.955 92.9279 149.66L92.996 150H93.7674V141.889H92.8258V144.68C92.3834 144.43 91.8275 144.282 91.3511 144.282C89.899 144.282 89.0482 145.417 89.0482 147.255C89.0482 149.183 89.865 150.159 91.283 150.159ZM91.5439 149.387C90.5456 149.387 90.0351 148.729 90.0351 147.266C90.0351 145.961 90.4095 145.077 91.5439 145.077C91.9183 145.077 92.4174 145.19 92.8258 145.349V149.058C92.4288 149.251 91.941 149.387 91.5439 149.387ZM99.6139 150.159C100.136 150.159 100.805 149.955 101.259 149.66L101.327 150H102.098V141.889H101.157V144.68C100.714 144.43 100.158 144.282 99.682 144.282C98.2299 144.282 97.3791 145.417 97.3791 147.255C97.3791 149.183 98.1959 150.159 99.6139 150.159ZM99.8748 149.387C98.8765 149.387 98.3661 148.729 98.3661 147.266C98.3661 145.961 98.7404 145.077 99.8748 145.077C100.249 145.077 100.748 145.19 101.157 145.349V149.058C100.76 149.251 100.272 149.387 99.8748 149.387ZM106.106 150.159C106.616 150.159 107.274 150.079 107.751 149.943L107.66 149.24C107.229 149.331 106.685 149.387 106.287 149.387C105.584 149.387 105.164 149.24 104.869 148.968C104.54 148.661 104.382 148.162 104.382 147.55H107.966C108.057 147.55 108.103 147.516 108.103 147.425V147.209C108.103 145.383 107.354 144.282 105.8 144.282C104.382 144.282 103.395 145.247 103.395 147.232C103.395 148.23 103.622 148.99 104.121 149.49C104.574 149.943 105.244 150.159 106.106 150.159ZM104.382 146.858C104.393 145.735 104.858 145.043 105.8 145.043C106.73 145.043 107.138 145.791 107.172 146.858H104.382ZM112.209 143.386H112.265C112.606 143.386 112.821 143.216 112.821 142.785V142.762C112.821 142.331 112.606 142.161 112.265 142.161H112.209C111.868 142.161 111.653 142.331 111.653 142.762V142.785C111.653 143.216 111.868 143.386 112.209 143.386ZM111.766 150H112.708V144.441H111.766V150ZM114.314 150H115.255V145.474C115.709 145.258 116.31 145.111 116.81 145.111C117.218 145.111 117.513 145.201 117.706 145.394C117.899 145.587 117.978 145.859 117.978 146.336V150H118.92V146.222C118.92 145.53 118.761 145.077 118.454 144.77C118.137 144.441 117.66 144.282 117.059 144.282C116.412 144.282 115.72 144.498 115.142 144.85L115.097 144.441H114.314V150ZM121.948 150.159C123.286 150.159 124.194 149.637 124.194 148.457C124.194 146.472 121.097 147.062 121.097 145.814C121.097 145.292 121.517 145.031 122.311 145.031C122.765 145.031 123.275 145.099 123.774 145.213L123.854 144.521C123.411 144.385 122.787 144.282 122.231 144.282C121.052 144.282 120.212 144.804 120.212 145.882C120.212 147.924 123.309 147.277 123.309 148.525C123.309 149.092 122.821 149.399 121.914 149.399C121.426 149.399 120.813 149.319 120.36 149.195L120.314 149.921C120.734 150.057 121.415 150.159 121.948 150.159ZM127.454 150.159C127.862 150.159 128.304 150.091 128.599 150.011L128.554 149.319C128.282 149.376 127.907 149.41 127.715 149.41C127.318 149.41 127.125 149.331 127 149.195C126.841 149.024 126.807 148.752 126.807 148.219V145.133H128.27V144.441H126.807V142.967C126.512 142.967 126.138 143.046 125.865 143.137V144.453L124.856 144.6V145.133H125.865V148.344C125.865 149.036 125.945 149.41 126.217 149.728C126.467 150.011 126.909 150.159 127.454 150.159ZM131.268 150.159C131.937 150.159 132.527 149.943 133.015 149.626L133.072 150H133.832V146.302C133.832 145.576 133.696 145.133 133.344 144.793C132.992 144.464 132.436 144.282 131.608 144.282C131.075 144.282 130.44 144.351 129.918 144.475L129.952 145.201C130.497 145.111 131.03 145.065 131.449 145.065C132.005 145.065 132.368 145.167 132.607 145.394C132.811 145.598 132.89 145.882 132.89 146.336V146.687H131.733C130.928 146.687 130.27 146.835 129.85 147.221C129.555 147.493 129.373 147.901 129.373 148.423C129.373 148.945 129.544 149.342 129.816 149.626C130.156 149.977 130.667 150.159 131.268 150.159ZM131.472 149.399C130.746 149.399 130.326 149.07 130.326 148.4C130.326 148.06 130.44 147.822 130.633 147.663C130.894 147.459 131.291 147.379 131.869 147.379H132.89V149.036C132.482 149.24 131.926 149.399 131.472 149.399ZM135.407 150H136.349V141.889H135.407V150ZM139.544 150.159C140.213 150.159 140.803 149.943 141.291 149.626L141.347 150H142.107V146.302C142.107 145.576 141.971 145.133 141.62 144.793C141.268 144.464 140.712 144.282 139.884 144.282C139.351 144.282 138.715 144.351 138.194 144.475L138.228 145.201C138.772 145.111 139.305 145.065 139.725 145.065C140.281 145.065 140.644 145.167 140.882 145.394C141.086 145.598 141.166 145.882 141.166 146.336V146.687H140.009C139.203 146.687 138.545 146.835 138.125 147.221C137.831 147.493 137.649 147.901 137.649 148.423C137.649 148.945 137.819 149.342 138.091 149.626C138.432 149.977 138.942 150.159 139.544 150.159ZM139.748 149.399C139.022 149.399 138.602 149.07 138.602 148.4C138.602 148.06 138.715 147.822 138.908 147.663C139.169 147.459 139.566 147.379 140.145 147.379H141.166V149.036C140.757 149.24 140.201 149.399 139.748 149.399ZM146.133 150.159C146.542 150.159 147.166 150.079 147.529 149.977L147.46 149.274C147.177 149.331 146.678 149.387 146.303 149.387C145.623 149.387 145.146 149.229 144.829 148.866C144.522 148.514 144.363 147.981 144.363 147.277C144.363 145.803 144.953 145.043 146.258 145.043C146.61 145.043 147.063 145.111 147.415 145.179L147.472 144.453C147.086 144.351 146.576 144.282 146.145 144.282C145.294 144.282 144.579 144.532 144.103 145.043C143.626 145.553 143.377 146.313 143.377 147.289C143.377 148.264 143.649 148.99 144.114 149.467C144.568 149.932 145.226 150.159 146.133 150.159ZM149.244 143.386H149.3C149.641 143.386 149.856 143.216 149.856 142.785V142.762C149.856 142.331 149.641 142.161 149.3 142.161H149.244C148.903 142.161 148.688 142.331 148.688 142.762V142.785C148.688 143.216 148.903 143.386 149.244 143.386ZM148.801 150H149.743V144.441H148.801V150ZM152.676 143.545L154.843 141.991L154.31 141.276L152.313 143.046L152.676 143.545ZM153.584 150.159C155.308 150.159 156.113 149.07 156.113 147.221C156.113 145.372 155.308 144.282 153.584 144.282C151.859 144.282 151.054 145.372 151.054 147.221C151.054 149.07 151.859 150.159 153.584 150.159ZM153.584 149.387C152.449 149.387 152.041 148.639 152.041 147.221C152.041 145.803 152.449 145.054 153.584 145.054C154.718 145.054 155.126 145.803 155.126 147.221C155.126 148.639 154.718 149.387 153.584 149.387ZM157.409 150H158.35V145.474C158.804 145.258 159.405 145.111 159.904 145.111C160.313 145.111 160.608 145.201 160.801 145.394C160.993 145.587 161.073 145.859 161.073 146.336V150H162.014V146.222C162.014 145.53 161.856 145.077 161.549 144.77C161.232 144.441 160.755 144.282 160.154 144.282C159.507 144.282 158.815 144.498 158.237 144.85L158.191 144.441H157.409V150ZM164.033 150.159H164.113C164.453 150.159 164.68 149.989 164.68 149.546V149.501C164.68 149.058 164.453 148.888 164.113 148.888H164.033C163.693 148.888 163.466 149.058 163.466 149.501V149.546C163.466 149.989 163.693 150.159 164.033 150.159Z" fill="#00081D"/>
<path d="M0 8.17844C0 3.66161 3.66161 0 8.17844 0H189.822C194.338 0 198 3.66161 198 8.17844V90.824C198 95.3395 194.339 99 189.824 99H8.17604C3.66054 99 0 95.3395 0 90.824V8.17844Z" fill="#E63780"/>
<path d="M50.8035 72.2983C56.3713 72.2983 60.0641 71.162 62.7912 68.6054C64.8365 66.6738 66.0296 63.8899 66.0296 60.4243C66.0296 45.2551 46.2016 50.4819 46.2016 42.8689C46.2016 40.4259 47.7356 38.7215 52.5079 38.7215C55.235 38.7215 58.6438 39.2328 61.8254 40.085L63.1889 33.4946C60.1778 32.472 56.0872 31.9039 52.3375 31.9039C44.0427 31.9039 37.85 35.3695 37.85 43.2666C37.85 58.5494 57.678 53.2658 57.678 60.5379C57.678 64.1172 55.235 65.4807 50.0081 65.4807C47.1675 65.4807 42.6792 64.7421 39.2704 63.549L37.9069 70.3098C41.827 71.6734 45.8608 72.2983 50.8035 72.2983ZM69.5431 72.2983H76.7585L93.8593 31.9039H86.644L69.5431 72.2983ZM112.464 72.2983C121.497 72.2983 126.213 67.3555 126.213 58.7199C126.213 50.9364 122.179 46.6186 115.248 46.6186C112.578 46.6186 109.396 47.2435 106.839 48.6071C106.953 44.6869 107.578 42.0167 109.282 40.3123C110.816 38.7783 113.146 38.267 116.895 38.267C118.941 38.267 121.043 38.4942 123.031 38.8351V32.6424C120.418 32.1879 117.804 31.9039 115.021 31.9039C109.851 31.9039 106.215 33.0401 103.601 35.6536C100.192 39.0624 98.3174 44.8574 98.3174 53.8907C98.3174 65.6511 102.067 72.2983 112.464 72.2983ZM112.634 66.1056C108.203 66.1056 106.726 62.9241 106.726 55.4815V53.3226C108.317 52.9817 110.76 52.7544 112.407 52.7544C116.555 52.7544 118.145 54.0612 118.145 59.0039C118.145 63.7195 116.271 66.1056 112.634 66.1056ZM145.337 72.2983C156.131 72.2983 160.222 65.4239 160.222 52.1295C160.222 38.8351 156.131 31.9039 145.337 31.9039C134.542 31.9039 130.452 38.8351 130.452 52.1295C130.452 65.4239 134.542 72.2983 145.337 72.2983ZM145.337 65.7648C140.735 65.7648 138.917 62.8673 138.917 52.1295C138.917 41.3917 140.735 37.8693 145.337 37.8693C149.939 37.8693 151.757 41.3917 151.757 52.1295C151.757 62.8673 149.939 65.7648 145.337 65.7648Z" fill="white"/>
<path d="M56.5563 26.6619H58.014V22.4852H60.0942C61.4373 22.4852 62.3545 22.1576 62.9606 21.5679C63.583 20.9455 63.8778 20.0447 63.8778 18.849C63.8778 17.8171 63.6157 16.9654 63.0588 16.4085C62.4201 15.7533 61.3718 15.4585 59.7666 15.4585H56.5563V26.6619ZM58.014 21.3059V16.605H59.652C60.733 16.605 61.4209 16.7852 61.8468 17.2111C62.2071 17.5714 62.3709 18.1119 62.3709 18.8817C62.3709 19.7662 62.158 20.3722 61.7649 20.749C61.3226 21.1584 60.6183 21.3059 59.6028 21.3059H58.014ZM65.3095 26.6619H66.6689V14.9507H65.3095V26.6619ZM70.9539 26.8912C71.9203 26.8912 72.772 26.58 73.4763 26.1214L73.5582 26.6619H74.6556V21.3222C74.6556 20.274 74.459 19.6352 73.9513 19.1438C73.4435 18.6688 72.641 18.4067 71.4453 18.4067C70.6754 18.4067 69.7582 18.505 69.0048 18.6852L69.0539 19.7335C69.8401 19.6024 70.6099 19.5369 71.216 19.5369C72.0185 19.5369 72.5427 19.6843 72.8866 20.0119C73.1815 20.3067 73.2961 20.7162 73.2961 21.3714V21.8791H71.6254C70.4625 21.8791 69.5125 22.0921 68.9065 22.649C68.4806 23.0421 68.2186 23.6317 68.2186 24.3852C68.2186 25.1386 68.4642 25.7119 68.8573 26.1214C69.3487 26.6291 70.0858 26.8912 70.9539 26.8912ZM71.2487 25.7938C70.2004 25.7938 69.5944 25.3188 69.5944 24.3524C69.5944 23.861 69.7582 23.5171 70.0367 23.2877C70.4134 22.9929 70.9866 22.8783 71.822 22.8783H73.2961V25.2696C72.7065 25.5645 71.9039 25.7938 71.2487 25.7938ZM76.5864 26.6619H77.9459V20.1266C78.6011 19.8153 79.4692 19.6024 80.1899 19.6024C80.7795 19.6024 81.2054 19.7335 81.4838 20.0119C81.7623 20.2903 81.8769 20.6834 81.8769 21.3714V26.6619H83.2364V21.2076C83.2364 20.2085 83.0071 19.5533 82.5648 19.111C82.1062 18.636 81.4183 18.4067 80.5502 18.4067C79.6166 18.4067 78.6174 18.7179 77.7821 19.2257L77.7166 18.636H76.5864V26.6619ZM89.969 26.6619H91.4595L94.8173 16.8016C94.9647 16.3757 94.9974 16.13 94.9974 15.8188C94.9974 15.6878 94.9811 15.5404 94.9483 15.4585H88.2164V16.5395H93.6216L89.969 26.6619ZM100.268 26.8912C103.052 26.8912 104.117 24.7291 104.117 21.0765C104.117 17.424 103.052 15.2455 100.268 15.2455C97.4831 15.2455 96.4185 17.424 96.4185 21.0765C96.4185 24.7291 97.4831 26.8912 100.268 26.8912ZM100.268 25.7282C98.4495 25.7282 97.8435 24.205 97.8435 21.0765C97.8435 17.9481 98.4495 16.4085 100.268 16.4085C102.086 16.4085 102.692 17.9481 102.692 21.0765C102.692 24.205 102.086 25.7282 100.268 25.7282ZM108.832 26.6619H110.126V18.2593L113.352 24.2869H114.564L117.824 18.3248V26.6619H119.2V15.4585H117.955L114.007 22.8291L110.109 15.4585H108.832V26.6619ZM125.028 26.8912C127.026 26.8912 128.156 25.5317 128.156 22.6162C128.156 19.7335 126.993 18.4067 125.044 18.4067C124.258 18.4067 123.39 18.6852 122.735 19.0455V14.9507H121.375V26.6619H122.473L122.538 26.1214C123.177 26.5636 124.16 26.8912 125.028 26.8912ZM124.717 25.761C124.061 25.761 123.275 25.5153 122.735 25.1877V20.0283C123.275 19.7662 124.061 19.5697 124.684 19.5697C126.109 19.5697 126.731 20.4541 126.731 22.6162C126.731 24.942 126.076 25.761 124.717 25.761ZM129.701 30.3472H131.061V26.2851C131.65 26.6619 132.518 26.8912 133.354 26.8912C135.27 26.8912 136.482 25.63 136.482 22.6162C136.482 20.061 135.483 18.4067 133.403 18.4067C132.666 18.4067 131.732 18.6688 130.897 19.2257L130.831 18.636H129.701V30.3472ZM133.01 25.761C132.322 25.761 131.536 25.5481 131.061 25.2696V20.1102C131.683 19.7826 132.486 19.5697 133.108 19.5697C134.451 19.5697 135.057 20.5524 135.057 22.5998C135.057 24.8929 134.468 25.761 133.01 25.761ZM140.14 26.8912C142.073 26.8912 143.383 26.1377 143.383 24.4343C143.383 21.5679 138.912 22.4196 138.912 20.6179C138.912 19.8645 139.518 19.4878 140.664 19.4878C141.319 19.4878 142.056 19.586 142.777 19.7498L142.892 18.7507C142.253 18.5541 141.352 18.4067 140.549 18.4067C138.846 18.4067 137.634 19.1602 137.634 20.7162C137.634 23.6645 142.105 22.7309 142.105 24.5326C142.105 25.3515 141.401 25.7938 140.091 25.7938C139.387 25.7938 138.502 25.6791 137.847 25.4989L137.781 26.5472C138.387 26.7438 139.37 26.8912 140.14 26.8912Z" fill="white"/>
<path d="M35.7873 86.6399H37.1984V82.5969H39.212C40.5121 82.5969 41.4 82.2798 41.9866 81.709C42.5891 81.1065 42.8745 80.2345 42.8745 79.0771C42.8745 78.0782 42.6208 77.2538 42.0817 76.7147C41.4634 76.0805 40.4487 75.7951 38.8949 75.7951H35.7873V86.6399ZM37.1984 81.4553V76.905H38.7839C39.8303 76.905 40.4962 77.0794 40.9085 77.4916C41.2573 77.8404 41.4158 78.3636 41.4158 79.1088C41.4158 79.965 41.2097 80.5516 40.8292 80.9163C40.4011 81.3126 39.7193 81.4553 38.7363 81.4553H37.1984ZM44.0896 86.6399H45.4056V80.3613C45.9605 80.0125 46.6106 79.8381 47.2923 79.8381C47.5143 79.8381 47.7997 79.854 47.9741 79.8698V78.6966C47.7997 78.6649 47.6094 78.649 47.4667 78.649C46.785 78.649 46.0081 78.9185 45.2629 79.5369L45.1836 78.871H44.0896V86.6399ZM52.1043 86.8619C52.8178 86.8619 53.7374 86.7509 54.4033 86.5606L54.2764 85.5776C53.6739 85.7045 52.9129 85.7837 52.358 85.7837C51.375 85.7837 50.7883 85.5776 50.3761 85.1971C49.9163 84.769 49.6943 84.0714 49.6943 83.2152H54.7045C54.8313 83.2152 54.8948 83.1677 54.8948 83.0408V82.7396C54.8948 80.1869 53.8483 78.649 51.6762 78.649C49.6943 78.649 48.315 79.9967 48.315 82.7713C48.315 84.1665 48.6321 85.2288 49.3297 85.9264C49.9639 86.5606 50.8993 86.8619 52.1043 86.8619ZM49.6943 82.2481C49.7102 80.6784 50.3602 79.7113 51.6762 79.7113C52.9763 79.7113 53.5471 80.7577 53.5947 82.2481H49.6943ZM59.871 86.8619C60.4418 86.8619 61.3138 86.7509 61.8211 86.6082L61.726 85.6252C61.3296 85.7045 60.632 85.7837 60.1088 85.7837C59.1575 85.7837 58.4916 85.5618 58.0477 85.0544C57.6196 84.5629 57.3976 83.8177 57.3976 82.8347C57.3976 80.7736 58.2221 79.7113 60.0454 79.7113C60.5369 79.7113 61.1711 79.8064 61.6626 79.9015L61.7419 78.8868C61.2028 78.7441 60.4893 78.649 59.8868 78.649C58.6977 78.649 57.6989 78.9978 57.033 79.7113C56.367 80.4248 56.0182 81.487 56.0182 82.8506C56.0182 84.2141 56.3988 85.2288 57.0488 85.8947C57.683 86.5448 58.6026 86.8619 59.871 86.8619ZM63.9012 77.3965H63.9805C64.4562 77.3965 64.7574 77.1586 64.7574 76.5561V76.5244C64.7574 75.9219 64.4562 75.6841 63.9805 75.6841H63.9012C63.4256 75.6841 63.1244 75.9219 63.1244 76.5244V76.5561C63.1244 77.1586 63.4256 77.3965 63.9012 77.3965ZM63.2829 86.6399H64.5989V78.871H63.2829V86.6399ZM69.6497 86.8619C72.0596 86.8619 73.1853 85.3398 73.1853 82.7554C73.1853 80.1711 72.0596 78.649 69.6497 78.649C67.2397 78.649 66.114 80.1711 66.114 82.7554C66.114 85.3398 67.2397 86.8619 69.6497 86.8619ZM69.6497 85.7837C68.0642 85.7837 67.4934 84.7373 67.4934 82.7554C67.4934 80.7736 68.0642 79.7271 69.6497 79.7271C71.2352 79.7271 71.8059 80.7736 71.8059 82.7554C71.8059 84.7373 71.2352 85.7837 69.6497 85.7837ZM77.5974 86.6399H78.9134V80.3613C79.4683 80.0125 80.1184 79.8381 80.8001 79.8381C81.0221 79.8381 81.3075 79.854 81.4819 79.8698V78.6966C81.3075 78.6649 81.1172 78.649 80.9746 78.649C80.2928 78.649 79.5159 78.9185 78.7707 79.5369L78.6914 78.871H77.5974V86.6399ZM85.6121 86.8619C86.3256 86.8619 87.2452 86.7509 87.9111 86.5606L87.7843 85.5776C87.1818 85.7045 86.4207 85.7837 85.8658 85.7837C84.8828 85.7837 84.2962 85.5776 83.8839 85.1971C83.4241 84.769 83.2022 84.0714 83.2022 83.2152H88.2123C88.3392 83.2152 88.4026 83.1677 88.4026 83.0408V82.7396C88.4026 80.1869 87.3562 78.649 85.184 78.649C83.2022 78.649 81.8228 79.9967 81.8228 82.7713C81.8228 84.1665 82.1399 85.2288 82.8375 85.9264C83.4717 86.5606 84.4071 86.8619 85.6121 86.8619ZM83.2022 82.2481C83.218 80.6784 83.8681 79.7113 85.184 79.7113C86.4841 79.7113 87.0549 80.7577 87.1025 82.2481H83.2022ZM92.9349 90.4292C95.5668 90.4292 96.6132 89.5572 96.6132 87.9876C96.6132 87.3534 96.4388 86.8143 96.0425 86.4179C95.5351 85.9106 94.7741 85.6886 93.4105 85.6886H91.9202C91.4921 85.6886 91.286 85.5459 91.286 85.2129C91.286 84.9434 91.4762 84.5312 91.7141 84.2616C92.0787 84.3726 92.4751 84.4202 92.9349 84.4202C95.0594 84.4202 96.0583 83.2152 96.0583 81.5346C96.0583 80.4248 95.6144 79.5052 94.6789 79.0295L95.7571 77.1903C95.5034 76.9842 95.0277 76.7623 94.6631 76.683L93.7276 78.7124C93.4898 78.6807 93.2203 78.649 92.9349 78.649C90.8103 78.649 89.8115 79.854 89.8115 81.5346C89.8115 82.5493 90.1761 83.3738 90.9054 83.8811C90.3505 84.4202 89.9859 85.0544 89.9859 85.6727C89.9859 86.0215 90.0968 86.3069 90.3505 86.5131C89.8115 86.8936 89.4626 87.5595 89.4626 88.2412C89.4626 89.6206 90.5408 90.4292 92.9349 90.4292ZM92.9349 83.3738C91.6506 83.3738 91.064 82.7237 91.064 81.5346C91.064 80.3455 91.6506 79.6954 92.9349 79.6954C94.2191 79.6954 94.8058 80.3455 94.8058 81.5346C94.8058 82.7237 94.2191 83.3738 92.9349 83.3738ZM93.0617 89.3194C91.3335 89.3194 90.6993 88.8437 90.6993 88.0034C90.6993 87.5912 90.8737 87.1631 91.1591 86.8143C91.3177 86.846 91.5079 86.8619 91.7299 86.8619H93.4105C94.1874 86.8619 94.6948 86.957 94.996 87.179C95.2497 87.3692 95.3765 87.6546 95.3765 88.0351C95.3765 88.8437 94.7106 89.3194 93.0617 89.3194ZM100.287 86.8619C101.191 86.8619 102.127 86.5606 102.935 86.0691L102.999 86.6399H104.093V78.871H102.777V85.1971C102.143 85.4983 101.334 85.7045 100.636 85.7045C100.066 85.7045 99.6533 85.5776 99.3838 85.3081C99.1142 85.0385 99.0032 84.658 99.0032 83.9921V78.871H97.6873V84.1507C97.6873 85.1178 97.9093 85.752 98.3373 86.1801C98.7813 86.6399 99.4472 86.8619 100.287 86.8619ZM106.011 86.6399H107.327V75.3036H106.011V86.6399ZM111.475 86.8619C112.41 86.8619 113.235 86.5606 113.916 86.1167L113.996 86.6399H115.058V81.4712C115.058 80.4565 114.868 79.8381 114.376 79.3625C113.885 78.9027 113.108 78.649 111.95 78.649C111.205 78.649 110.317 78.7441 109.588 78.9185L109.636 79.9332C110.397 79.8064 111.142 79.743 111.728 79.743C112.505 79.743 113.013 79.8857 113.346 80.2028C113.631 80.4882 113.742 80.8845 113.742 81.5187V82.0102H112.125C110.999 82.0102 110.08 82.2164 109.493 82.7554C109.081 83.1359 108.827 83.7067 108.827 84.4361C108.827 85.1654 109.065 85.7203 109.445 86.1167C109.921 86.6082 110.634 86.8619 111.475 86.8619ZM111.76 85.7996C110.745 85.7996 110.159 85.3398 110.159 84.4043C110.159 83.9287 110.317 83.5957 110.587 83.3738C110.952 83.0884 111.506 82.9774 112.315 82.9774H113.742V85.2922C113.171 85.5776 112.394 85.7996 111.76 85.7996ZM116.927 86.6399H118.243V80.3613C118.798 80.0125 119.448 79.8381 120.13 79.8381C120.352 79.8381 120.637 79.854 120.811 79.8698V78.6966C120.637 78.6649 120.447 78.649 120.304 78.649C119.622 78.649 118.845 78.9185 118.1 79.5369L118.021 78.871H116.927V86.6399ZM122.555 81.931H122.666C123.142 81.931 123.459 81.6931 123.459 81.0748V81.0114C123.459 80.393 123.142 80.1552 122.666 80.1552H122.555C122.079 80.1552 121.762 80.393 121.762 81.0114V81.0748C121.762 81.6931 122.079 81.931 122.555 81.931ZM122.555 86.8619H122.666C123.142 86.8619 123.459 86.624 123.459 86.0057V85.9423C123.459 85.3239 123.142 85.0861 122.666 85.0861H122.555C122.079 85.0861 121.762 85.3239 121.762 85.9423V86.0057C121.762 86.624 122.079 86.8619 122.555 86.8619ZM131.032 86.8619C132.285 86.8619 133.252 86.5606 133.902 85.9423C134.441 85.4349 134.758 84.6897 134.758 83.7384C134.758 80.0284 129.177 80.8687 129.177 78.3953C129.177 77.2379 130.081 76.7623 131.555 76.7623C132.269 76.7623 133.109 76.8732 133.902 77.0794L134.108 76.0012C133.363 75.7475 132.38 75.589 131.444 75.589C129.288 75.589 127.845 76.572 127.845 78.4904C127.845 82.2164 133.41 81.1541 133.41 83.8811C133.41 84.4678 133.204 84.8958 132.824 85.1971C132.396 85.53 131.793 85.6886 130.905 85.6886C130.033 85.6886 129.018 85.4983 128.194 85.2605L127.956 86.3386C128.781 86.6716 130.033 86.8619 131.032 86.8619ZM135.899 86.8619H137.183L141.86 75.589H140.576L135.899 86.8619ZM149.395 86.8619C151.568 86.8619 153.01 85.6727 153.01 83.8336C153.01 82.3432 151.853 81.5663 150.6 80.9321C151.821 80.3455 152.566 79.3942 152.566 78.1892C152.566 76.794 151.361 75.589 149.459 75.589C147.604 75.589 146.304 76.7147 146.304 78.3478C146.304 79.6479 147.081 80.393 148.032 80.948C146.795 81.5663 145.876 82.6286 145.876 83.9763C145.876 85.6886 147.192 86.8619 149.395 86.8619ZM149.633 80.4565C148.508 79.9015 147.54 79.3308 147.54 78.2685C147.54 77.3013 148.317 76.6671 149.475 76.6671C150.6 76.6671 151.346 77.3647 151.346 78.2843C151.346 79.1722 150.727 79.9015 149.633 80.4565ZM149.411 85.7679C148.032 85.7679 147.176 85.102 147.176 83.8811C147.176 82.7871 147.969 81.9785 149.031 81.4553C150.363 82.0895 151.694 82.6286 151.694 83.9604C151.694 85.1178 150.791 85.7679 149.411 85.7679ZM157.874 86.8619C160.569 86.8619 161.6 84.769 161.6 81.2334C161.6 77.6977 160.569 75.589 157.874 75.589C155.179 75.589 154.148 77.6977 154.148 81.2334C154.148 84.769 155.179 86.8619 157.874 86.8619ZM157.874 85.7362C156.114 85.7362 155.528 84.2616 155.528 81.2334C155.528 78.2051 156.114 76.7147 157.874 76.7147C159.634 76.7147 160.221 78.2051 160.221 81.2334C160.221 84.2616 159.634 85.7362 157.874 85.7362Z" fill="white"/>
</svg>
