<svg width="122" height="102" viewBox="0 0 122 102" fill="none" xmlns="http://www.w3.org/2000/svg">
<path d="M3 4.79141C3 2.14519 5.14519 0 7.79141 0H114.209C116.855 0 119 2.14519 119 4.79141V53.21C119 55.8554 116.855 58 114.21 58H7.79C5.14455 58 3 55.8554 3 53.21V4.79141Z" fill="#E63780"/>
<path d="M32.7738 42.5788C36.0357 42.5788 38.1992 41.9131 39.7969 40.4153C40.9951 39.2836 41.6941 37.6526 41.6941 35.6223C41.6941 26.7353 30.0777 29.7974 30.0777 25.3373C30.0777 23.906 30.9764 22.9075 33.7723 22.9075C35.37 22.9075 37.3671 23.2071 39.231 23.7063L40.0299 19.8453C38.2658 19.2462 35.8693 18.9133 33.6725 18.9133C28.8129 18.9133 25.1849 20.9437 25.1849 25.5703C25.1849 34.5239 36.8013 31.4284 36.8013 35.6888C36.8013 37.7858 35.37 38.5846 32.3078 38.5846C30.6436 38.5846 28.0141 38.1519 26.017 37.4529L25.2182 41.4138C27.5148 42.2126 29.878 42.5788 32.7738 42.5788ZM43.7526 42.5788H47.9797L57.9984 18.9133H53.7713L43.7526 42.5788ZM68.8981 42.5788C74.1904 42.5788 76.953 39.683 76.953 34.6237C76.953 30.0637 74.5898 27.5341 70.5291 27.5341C68.9647 27.5341 67.1008 27.9002 65.6029 28.699C65.6695 26.4024 66.0356 24.838 67.0342 23.8395C67.9329 22.9408 69.2975 22.6412 71.4943 22.6412C72.6926 22.6412 73.9241 22.7744 75.0891 22.9741V19.346C73.558 19.0798 72.0269 18.9133 70.3959 18.9133C67.367 18.9133 65.2368 19.579 63.7057 21.1101C61.7086 23.1072 60.6102 26.5023 60.6102 31.7945C60.6102 38.6845 62.807 42.5788 68.8981 42.5788ZM68.998 38.9507C66.4018 38.9507 65.5364 37.0868 65.5364 32.7265V31.4617C66.4683 31.262 67.8996 31.1288 68.8648 31.1288C71.2946 31.1288 72.2266 31.8944 72.2266 34.7902C72.2266 37.5528 71.1282 38.9507 68.998 38.9507ZM88.157 42.5788C94.4811 42.5788 96.8776 38.5513 96.8776 30.7627C96.8776 22.9741 94.4811 18.9133 88.157 18.9133C81.8329 18.9133 79.4364 22.9741 79.4364 30.7627C79.4364 38.5513 81.8329 42.5788 88.157 42.5788ZM88.157 38.751C85.4609 38.751 84.3958 37.0535 84.3958 30.7627C84.3958 24.4719 85.4609 22.4082 88.157 22.4082C90.853 22.4082 91.9182 24.4719 91.9182 30.7627C91.9182 37.0535 90.853 38.751 88.157 38.751Z" fill="white"/>
<path d="M35.9774 16.2463H36.8315V13.7994H38.0501C38.837 13.7994 39.3744 13.6075 39.7294 13.262C40.0941 12.8974 40.2668 12.3696 40.2668 11.6691C40.2668 11.0645 40.1133 10.5656 39.787 10.2393C39.4128 9.85546 38.7986 9.68274 37.8582 9.68274H35.9774V16.2463ZM36.8315 13.1085V10.3544H37.7911C38.4244 10.3544 38.8274 10.46 39.0769 10.7095C39.288 10.9206 39.384 11.2373 39.384 11.6883C39.384 12.2065 39.2592 12.5615 39.0289 12.7822C38.7698 13.0221 38.3572 13.1085 37.7623 13.1085H36.8315ZM41.1055 16.2463H41.902V9.38526H41.1055V16.2463ZM44.4124 16.3807C44.9785 16.3807 45.4775 16.1984 45.8902 15.9297L45.9381 16.2463H46.5811V13.1181C46.5811 12.5039 46.4659 12.1297 46.1684 11.8418C45.871 11.5635 45.4008 11.41 44.7003 11.41C44.2492 11.41 43.7119 11.4676 43.2705 11.5731L43.2993 12.1873C43.7599 12.1105 44.2109 12.0721 44.5659 12.0721C45.0361 12.0721 45.3432 12.1585 45.5447 12.3504C45.7174 12.5231 45.7846 12.763 45.7846 13.1469V13.4443H44.8058C44.1245 13.4443 43.5679 13.5691 43.2129 13.8953C42.9634 14.1256 42.8099 14.4711 42.8099 14.9125C42.8099 15.3539 42.9538 15.6898 43.1841 15.9297C43.472 16.2271 43.9038 16.3807 44.4124 16.3807ZM44.5851 15.7378C43.971 15.7378 43.6159 15.4595 43.6159 14.8933C43.6159 14.6054 43.7119 14.4039 43.875 14.2696C44.0957 14.0969 44.4316 14.0297 44.921 14.0297H45.7846V15.4307C45.4391 15.6034 44.9689 15.7378 44.5851 15.7378ZM47.7122 16.2463H48.5087V12.4176C48.8925 12.2352 49.4011 12.1105 49.8233 12.1105C50.1688 12.1105 50.4183 12.1873 50.5814 12.3504C50.7446 12.5135 50.8117 12.7438 50.8117 13.1469V16.2463H51.6082V13.0509C51.6082 12.4655 51.4738 12.0817 51.2148 11.8226C50.9461 11.5443 50.543 11.41 50.0345 11.41C49.4875 11.41 48.9021 11.5923 48.4128 11.8898L48.3744 11.5443H47.7122V16.2463ZM55.5526 16.2463H56.4258L58.3929 10.4696C58.4793 10.2201 58.4985 10.0762 58.4985 9.89385C58.4985 9.81708 58.4889 9.73072 58.4697 9.68274H54.5258V10.3161H57.6924L55.5526 16.2463ZM61.5861 16.3807C63.2174 16.3807 63.8411 15.114 63.8411 12.9741C63.8411 10.8342 63.2174 9.55799 61.5861 9.55799C59.9548 9.55799 59.331 10.8342 59.331 12.9741C59.331 15.114 59.9548 16.3807 61.5861 16.3807ZM61.5861 15.6994C60.5209 15.6994 60.1659 14.807 60.1659 12.9741C60.1659 11.1413 60.5209 10.2393 61.5861 10.2393C62.6512 10.2393 63.0063 11.1413 63.0063 12.9741C63.0063 14.807 62.6512 15.6994 61.5861 15.6994ZM66.6034 16.2463H67.3614V11.3236L69.2518 14.8549H69.9619L71.8715 11.362V16.2463H72.6776V9.68274H71.9483L69.6357 14.0009L67.3519 9.68274H66.6034V16.2463ZM76.0921 16.3807C77.2628 16.3807 77.9249 15.5842 77.9249 13.8761C77.9249 12.1873 77.2436 11.41 76.1017 11.41C75.6411 11.41 75.1325 11.5731 74.7486 11.7842V9.38526H73.9522V16.2463H74.5951L74.6335 15.9297C75.0077 16.1888 75.5835 16.3807 76.0921 16.3807ZM75.9098 15.7186C75.5259 15.7186 75.0653 15.5746 74.7486 15.3827V12.36C75.0653 12.2065 75.5259 12.0913 75.8906 12.0913C76.7254 12.0913 77.09 12.6095 77.09 13.8761C77.09 15.2388 76.7062 15.7186 75.9098 15.7186ZM78.83 18.4054H79.6264V16.0256C79.9719 16.2463 80.4805 16.3807 80.9699 16.3807C82.0926 16.3807 82.8027 15.6418 82.8027 13.8761C82.8027 12.3792 82.2173 11.41 80.9987 11.41C80.5668 11.41 80.0199 11.5635 79.5305 11.8898L79.4921 11.5443H78.83V18.4054ZM80.7684 15.7186C80.3653 15.7186 79.9047 15.5938 79.6264 15.4307V12.408C79.9911 12.2161 80.4613 12.0913 80.8259 12.0913C81.6128 12.0913 81.9678 12.6671 81.9678 13.8666C81.9678 15.21 81.6224 15.7186 80.7684 15.7186ZM84.9457 16.3807C86.078 16.3807 86.8456 15.9393 86.8456 14.9413C86.8456 13.262 84.226 13.761 84.226 12.7054C84.226 12.264 84.581 12.0433 85.2527 12.0433C85.6366 12.0433 86.0684 12.1009 86.4906 12.1969L86.5578 11.6115C86.1835 11.4964 85.6557 11.41 85.1855 11.41C84.1876 11.41 83.4775 11.8514 83.4775 12.763C83.4775 14.4903 86.0972 13.9433 86.0972 14.9989C86.0972 15.4787 85.6845 15.7378 84.9169 15.7378C84.5042 15.7378 83.9861 15.6706 83.6022 15.565L83.5638 16.1792C83.9189 16.2943 84.4946 16.3807 84.9457 16.3807Z" fill="white"/>
<path d="M23.9714 50.385H24.7981V48.0164H25.9777C26.7394 48.0164 27.2596 47.8306 27.6033 47.4962C27.9563 47.1432 28.1235 46.6324 28.1235 45.9543C28.1235 45.3691 27.9748 44.8861 27.659 44.5702C27.2968 44.1987 26.7023 44.0315 25.792 44.0315H23.9714V50.385ZM24.7981 47.3476V44.6817H25.727C26.34 44.6817 26.7301 44.7839 26.9716 45.0254C27.176 45.2297 27.2689 45.5363 27.2689 45.9728C27.2689 46.4744 27.1481 46.8181 26.9252 47.0318C26.6744 47.264 26.275 47.3476 25.6991 47.3476H24.7981ZM28.8353 50.385H29.6063V46.7067C29.9314 46.5023 30.3123 46.4001 30.7117 46.4001C30.8417 46.4001 31.0089 46.4094 31.1111 46.4187V45.7313C31.0089 45.7128 30.8975 45.7035 30.8139 45.7035C30.4144 45.7035 29.9593 45.8614 29.5227 46.2236L29.4763 45.8335H28.8353V50.385ZM33.5308 50.5151C33.9488 50.5151 34.4876 50.45 34.8777 50.3386L34.8034 49.7627C34.4504 49.837 34.0045 49.8834 33.6794 49.8834C33.1035 49.8834 32.7598 49.7627 32.5183 49.5397C32.249 49.2889 32.1189 48.8802 32.1189 48.3786H35.0542C35.1285 48.3786 35.1656 48.3508 35.1656 48.2765V48.1C35.1656 46.6045 34.5526 45.7035 33.28 45.7035C32.1189 45.7035 31.3108 46.493 31.3108 48.1186C31.3108 48.936 31.4966 49.5583 31.9053 49.967C32.2768 50.3386 32.8249 50.5151 33.5308 50.5151ZM32.1189 47.812C32.1282 46.8924 32.5091 46.3258 33.28 46.3258C34.0417 46.3258 34.3761 46.9389 34.404 47.812H32.1189ZM38.081 50.5151C38.4154 50.5151 38.9263 50.45 39.2235 50.3664L39.1678 49.7905C38.9356 49.837 38.5269 49.8834 38.2203 49.8834C37.663 49.8834 37.2729 49.7534 37.0128 49.4561C36.762 49.1682 36.632 48.7316 36.632 48.1557C36.632 46.9482 37.115 46.3258 38.1832 46.3258C38.4711 46.3258 38.8427 46.3816 39.1306 46.4373L39.1771 45.8428C38.8613 45.7592 38.4433 45.7035 38.0903 45.7035C37.3936 45.7035 36.8084 45.9078 36.4183 46.3258C36.0282 46.7438 35.8238 47.3662 35.8238 48.165C35.8238 48.9638 36.0468 49.5583 36.4276 49.9484C36.7992 50.3293 37.3379 50.5151 38.081 50.5151ZM40.4422 44.9697H40.4886C40.7673 44.9697 40.9438 44.8303 40.9438 44.4774V44.4588C40.9438 44.1058 40.7673 43.9665 40.4886 43.9665H40.4422C40.1635 43.9665 39.987 44.1058 39.987 44.4588V44.4774C39.987 44.8303 40.1635 44.9697 40.4422 44.9697ZM40.0799 50.385H40.8509V45.8335H40.0799V50.385ZM43.8099 50.5151C45.2218 50.5151 45.8813 49.6233 45.8813 48.1093C45.8813 46.5952 45.2218 45.7035 43.8099 45.7035C42.398 45.7035 41.7385 46.5952 41.7385 48.1093C41.7385 49.6233 42.398 50.5151 43.8099 50.5151ZM43.8099 49.8834C42.881 49.8834 42.5466 49.2704 42.5466 48.1093C42.5466 46.9482 42.881 46.3351 43.8099 46.3351C44.7388 46.3351 45.0732 46.9482 45.0732 48.1093C45.0732 49.2704 44.7388 49.8834 43.8099 49.8834ZM48.4662 50.385H49.2372V46.7067C49.5623 46.5023 49.9431 46.4001 50.3425 46.4001C50.4726 46.4001 50.6398 46.4094 50.7419 46.4187V45.7313C50.6398 45.7128 50.5283 45.7035 50.4447 45.7035C50.0453 45.7035 49.5901 45.8614 49.1536 46.2236L49.1071 45.8335H48.4662V50.385ZM53.1617 50.5151C53.5797 50.5151 54.1184 50.45 54.5085 50.3386L54.4342 49.7627C54.0813 49.837 53.6354 49.8834 53.3103 49.8834C52.7344 49.8834 52.3907 49.7627 52.1492 49.5397C51.8798 49.2889 51.7498 48.8802 51.7498 48.3786H54.685C54.7593 48.3786 54.7965 48.3508 54.7965 48.2765V48.1C54.7965 46.6045 54.1834 45.7035 52.9109 45.7035C51.7498 45.7035 50.9417 46.493 50.9417 48.1186C50.9417 48.936 51.1274 49.5583 51.5361 49.967C51.9077 50.3386 52.4557 50.5151 53.1617 50.5151ZM51.7498 47.812C51.7591 46.8924 52.1399 46.3258 52.9109 46.3258C53.6726 46.3258 54.0069 46.9389 54.0348 47.812H51.7498ZM57.4518 52.605C58.9937 52.605 59.6068 52.0941 59.6068 51.1746C59.6068 50.803 59.5046 50.4872 59.2724 50.255C58.9751 49.9577 58.5293 49.8277 57.7304 49.8277H56.8573C56.6065 49.8277 56.4857 49.7441 56.4857 49.549C56.4857 49.3911 56.5972 49.1496 56.7365 48.9917C56.9502 49.0567 57.1824 49.0846 57.4518 49.0846C58.6965 49.0846 59.2817 48.3786 59.2817 47.394C59.2817 46.7438 59.0216 46.2051 58.4735 45.9264L59.1052 44.8489C58.9565 44.7282 58.6779 44.5981 58.4642 44.5517L57.9162 45.7406C57.7769 45.7221 57.619 45.7035 57.4518 45.7035C56.2071 45.7035 55.6219 46.4094 55.6219 47.394C55.6219 47.9885 55.8355 48.4715 56.2628 48.7688C55.9377 49.0846 55.7241 49.4561 55.7241 49.8184C55.7241 50.0227 55.7891 50.1899 55.9377 50.3107C55.6219 50.5336 55.4175 50.9238 55.4175 51.3232C55.4175 52.1313 56.0492 52.605 57.4518 52.605ZM57.4518 48.4715C56.6994 48.4715 56.3557 48.0907 56.3557 47.394C56.3557 46.6974 56.6994 46.3165 57.4518 46.3165C58.2042 46.3165 58.5478 46.6974 58.5478 47.394C58.5478 48.0907 58.2042 48.4715 57.4518 48.4715ZM57.5261 51.9548C56.5136 51.9548 56.1421 51.6761 56.1421 51.1838C56.1421 50.9423 56.2442 50.6915 56.4114 50.4872C56.5043 50.5058 56.6158 50.5151 56.7458 50.5151H57.7304C58.1856 50.5151 58.4828 50.5708 58.6593 50.7008C58.8079 50.8123 58.8822 50.9795 58.8822 51.2024C58.8822 51.6761 58.4921 51.9548 57.5261 51.9548ZM61.7594 50.5151C62.2888 50.5151 62.8369 50.3386 63.3106 50.0506L63.3477 50.385H63.9887V45.8335H63.2177V49.5397C62.8461 49.7162 62.3724 49.837 61.9637 49.837C61.6293 49.837 61.3878 49.7627 61.2299 49.6048C61.072 49.4468 61.007 49.2239 61.007 48.8338V45.8335H60.236V48.9267C60.236 49.4933 60.366 49.8648 60.6168 50.1156C60.8769 50.385 61.2671 50.5151 61.7594 50.5151ZM65.1125 50.385H65.8835V43.7435H65.1125V50.385ZM68.3135 50.5151C68.8616 50.5151 69.3446 50.3386 69.744 50.0785L69.7904 50.385H70.4128V47.3569C70.4128 46.7624 70.3013 46.4001 70.0134 46.1215C69.7254 45.8521 69.2703 45.7035 68.5922 45.7035C68.1556 45.7035 67.6354 45.7592 67.2082 45.8614L67.236 46.4559C67.6819 46.3816 68.1185 46.3444 68.4621 46.3444C68.9173 46.3444 69.2145 46.428 69.4096 46.6138C69.5768 46.781 69.6418 47.0132 69.6418 47.3847V47.6727H68.6944C68.0349 47.6727 67.4961 47.7934 67.1524 48.1093C66.9109 48.3322 66.7623 48.6666 66.7623 49.0939C66.7623 49.5212 66.9016 49.8463 67.1246 50.0785C67.4032 50.3664 67.8212 50.5151 68.3135 50.5151ZM68.4807 49.8927C67.8862 49.8927 67.5426 49.6233 67.5426 49.0753C67.5426 48.7966 67.6354 48.6016 67.7933 48.4715C68.007 48.3043 68.3321 48.2393 68.8058 48.2393H69.6418V49.5955C69.3074 49.7627 68.8523 49.8927 68.4807 49.8927ZM71.5078 50.385H72.2787V46.7067C72.6038 46.5023 72.9847 46.4001 73.3841 46.4001C73.5141 46.4001 73.6813 46.4094 73.7835 46.4187V45.7313C73.6813 45.7128 73.5699 45.7035 73.4863 45.7035C73.0869 45.7035 72.6317 45.8614 72.1951 46.2236L72.1487 45.8335H71.5078V50.385ZM74.8049 47.6262H74.8699C75.1486 47.6262 75.3344 47.4869 75.3344 47.1247V47.0875C75.3344 46.7252 75.1486 46.5859 74.8699 46.5859H74.8049C74.5263 46.5859 74.3405 46.7252 74.3405 47.0875V47.1247C74.3405 47.4869 74.5263 47.6262 74.8049 47.6262ZM74.8049 50.5151H74.8699C75.1486 50.5151 75.3344 50.3757 75.3344 50.0135V49.9763C75.3344 49.614 75.1486 49.4747 74.8699 49.4747H74.8049C74.5263 49.4747 74.3405 49.614 74.3405 49.9763V50.0135C74.3405 50.3757 74.5263 50.5151 74.8049 50.5151ZM79.7713 50.5151C80.5051 50.5151 81.0717 50.3386 81.4525 49.9763C81.7684 49.6791 81.9541 49.2425 81.9541 48.6852C81.9541 46.5116 78.6845 47.0039 78.6845 45.5549C78.6845 44.8768 79.214 44.5981 80.0778 44.5981C80.4958 44.5981 80.9881 44.6631 81.4525 44.7839L81.5733 44.1523C81.1367 44.0036 80.5608 43.9107 80.0128 43.9107C78.7495 43.9107 77.9042 44.4866 77.9042 45.6106C77.9042 47.7934 81.1646 47.1711 81.1646 48.7688C81.1646 49.1124 81.0438 49.3632 80.8209 49.5397C80.5701 49.7348 80.2171 49.8277 79.697 49.8277C79.1861 49.8277 78.5916 49.7162 78.1086 49.5769L77.9693 50.2085C78.4523 50.4036 79.1861 50.5151 79.7713 50.5151ZM82.6226 50.5151H83.375L86.1152 43.9107H85.3628L82.6226 50.5151ZM90.5297 50.5151C91.8023 50.5151 92.6475 49.8184 92.6475 48.7409C92.6475 47.8678 91.9695 47.4126 91.2356 47.0411C91.9509 46.6974 92.3874 46.14 92.3874 45.4341C92.3874 44.6167 91.6815 43.9107 90.5669 43.9107C89.4801 43.9107 88.7184 44.5702 88.7184 45.527C88.7184 46.2887 89.1735 46.7252 89.7309 47.0503C89.0063 47.4126 88.4676 48.035 88.4676 48.8245C88.4676 49.8277 89.2386 50.5151 90.5297 50.5151ZM90.669 46.7624C90.0095 46.4373 89.4429 46.1029 89.4429 45.4805C89.4429 44.9139 89.8981 44.5424 90.5761 44.5424C91.2356 44.5424 91.6722 44.9511 91.6722 45.4898C91.6722 46.01 91.31 46.4373 90.669 46.7624ZM90.539 49.8741C89.7309 49.8741 89.2293 49.484 89.2293 48.7688C89.2293 48.1278 89.6937 47.6541 90.3161 47.3476C91.0963 47.7191 91.8766 48.035 91.8766 48.8152C91.8766 49.4933 91.3471 49.8741 90.539 49.8741ZM95.4969 50.5151C97.076 50.5151 97.6798 49.2889 97.6798 47.2175C97.6798 45.1461 97.076 43.9107 95.4969 43.9107C93.9178 43.9107 93.3141 45.1461 93.3141 47.2175C93.3141 49.2889 93.9178 50.5151 95.4969 50.5151ZM95.4969 49.8556C94.4659 49.8556 94.1222 48.9917 94.1222 47.2175C94.1222 45.4434 94.4659 44.5702 95.4969 44.5702C96.528 44.5702 96.8717 45.4434 96.8717 47.2175C96.8717 48.9917 96.528 49.8556 95.4969 49.8556Z" fill="white"/>
<path d="M1.82369 80H2.51969L2.96769 78.544H5.03969L5.51969 80H6.26369L4.37569 74.528H3.55969L1.82369 80ZM3.14369 77.984L3.96769 75.28H3.97569L4.85569 77.984H3.14369ZM6.96625 81.8H7.63025V79.816C7.91825 80 8.34225 80.112 8.75025 80.112C9.68625 80.112 10.2783 79.496 10.2783 78.024C10.2783 76.776 9.79025 75.968 8.77425 75.968C8.41425 75.968 7.95825 76.096 7.55025 76.368L7.51825 76.08H6.96625V81.8ZM8.58225 79.56C8.24625 79.56 7.86225 79.456 7.63025 79.32V76.8C7.93425 76.64 8.32625 76.536 8.63025 76.536C9.28625 76.536 9.58225 77.016 9.58225 78.016C9.58225 79.136 9.29425 79.56 8.58225 79.56ZM11.2008 80H11.8648V74.28H11.2008V80ZM13.3177 75.336H13.3577C13.5977 75.336 13.7497 75.216 13.7497 74.912V74.896C13.7497 74.592 13.5977 74.472 13.3577 74.472H13.3177C13.0777 74.472 12.9257 74.592 12.9257 74.896V74.912C12.9257 75.216 13.0777 75.336 13.3177 75.336ZM13.0057 80H13.6697V76.08H13.0057V80ZM16.5382 80.112C16.8262 80.112 17.2662 80.056 17.5222 79.984L17.4742 79.488C17.2742 79.528 16.9222 79.568 16.6582 79.568C16.1782 79.568 15.8422 79.456 15.6182 79.2C15.4022 78.952 15.2902 78.576 15.2902 78.08C15.2902 77.04 15.7062 76.504 16.6262 76.504C16.8742 76.504 17.1942 76.552 17.4422 76.6L17.4822 76.088C17.2102 76.016 16.8502 75.968 16.5462 75.968C15.9462 75.968 15.4422 76.144 15.1062 76.504C14.7702 76.864 14.5942 77.4 14.5942 78.088C14.5942 78.776 14.7862 79.288 15.1142 79.624C15.4342 79.952 15.8982 80.112 16.5382 80.112ZM19.5161 80.112C19.9881 80.112 20.4041 79.96 20.7481 79.736L20.7881 80H21.3241V77.392C21.3241 76.88 21.2281 76.568 20.9801 76.328C20.7321 76.096 20.3401 75.968 19.7561 75.968C19.3801 75.968 18.9321 76.016 18.5641 76.104L18.5881 76.616C18.9721 76.552 19.3481 76.52 19.6441 76.52C20.0361 76.52 20.2921 76.592 20.4601 76.752C20.6041 76.896 20.6601 77.096 20.6601 77.416V77.664H19.8441C19.2761 77.664 18.8121 77.768 18.5161 78.04C18.3081 78.232 18.1801 78.52 18.1801 78.888C18.1801 79.256 18.3001 79.536 18.4921 79.736C18.7321 79.984 19.0921 80.112 19.5161 80.112ZM19.6601 79.576C19.1481 79.576 18.8521 79.344 18.8521 78.872C18.8521 78.632 18.9321 78.464 19.0681 78.352C19.2521 78.208 19.5321 78.152 19.9401 78.152H20.6601V79.32C20.3721 79.464 19.9801 79.576 19.6601 79.576ZM22.4272 80H23.0912V76.832C23.3712 76.656 23.6992 76.568 24.0432 76.568C24.1552 76.568 24.2992 76.576 24.3872 76.584V75.992C24.2992 75.976 24.2032 75.968 24.1312 75.968C23.7872 75.968 23.3952 76.104 23.0192 76.416L22.9792 76.08H22.4272V80ZM25.7679 75.448L27.2959 74.352L26.9199 73.848L25.5119 75.096L25.7679 75.448ZM26.0239 80.112C26.4959 80.112 26.9119 79.96 27.2559 79.736L27.2959 80H27.8319V77.392C27.8319 76.88 27.7359 76.568 27.4879 76.328C27.2399 76.096 26.8479 75.968 26.2639 75.968C25.8879 75.968 25.4399 76.016 25.0719 76.104L25.0959 76.616C25.4799 76.552 25.8559 76.52 26.1519 76.52C26.5439 76.52 26.7999 76.592 26.9679 76.752C27.1119 76.896 27.1679 77.096 27.1679 77.416V77.664H26.3519C25.7839 77.664 25.3199 77.768 25.0239 78.04C24.8159 78.232 24.6879 78.52 24.6879 78.888C24.6879 79.256 24.8079 79.536 24.9999 79.736C25.2399 79.984 25.5999 80.112 26.0239 80.112ZM26.1679 79.576C25.6559 79.576 25.3599 79.344 25.3599 78.872C25.3599 78.632 25.4399 78.464 25.5759 78.352C25.7599 78.208 26.0399 78.152 26.4479 78.152H27.1679V79.32C26.8799 79.464 26.4879 79.576 26.1679 79.576ZM28.935 80H29.599V76.808C29.919 76.656 30.343 76.552 30.695 76.552C30.983 76.552 31.191 76.616 31.327 76.752C31.463 76.888 31.519 77.08 31.519 77.416V80H32.183V77.336C32.183 76.848 32.071 76.528 31.855 76.312C31.631 76.08 31.295 75.968 30.871 75.968C30.415 75.968 29.927 76.12 29.519 76.368L29.487 76.08H28.935V80ZM34.9194 80H35.5834V76.832C35.8634 76.656 36.1914 76.568 36.5354 76.568C36.6474 76.568 36.7914 76.576 36.8794 76.584V75.992C36.7914 75.976 36.6954 75.968 36.6234 75.968C36.2794 75.968 35.8874 76.104 35.5114 76.416L35.4714 76.08H34.9194V80ZM39.1234 80.112C39.4834 80.112 39.9474 80.056 40.2834 79.96L40.2194 79.464C39.9154 79.528 39.5314 79.568 39.2514 79.568C38.7554 79.568 38.4594 79.464 38.2514 79.272C38.0194 79.056 37.9074 78.704 37.9074 78.272H40.4354C40.4994 78.272 40.5314 78.248 40.5314 78.184V78.032C40.5314 76.744 40.0034 75.968 38.9074 75.968C37.9074 75.968 37.2114 76.648 37.2114 78.048C37.2114 78.752 37.3714 79.288 37.7234 79.64C38.0434 79.96 38.5154 80.112 39.1234 80.112ZM37.9074 77.784C37.9154 76.992 38.2434 76.504 38.9074 76.504C39.5634 76.504 39.8514 77.032 39.8754 77.784H37.9074ZM42.4983 80.112C43.4423 80.112 44.0823 79.744 44.0823 78.912C44.0823 77.512 41.8983 77.928 41.8983 77.048C41.8983 76.68 42.1943 76.496 42.7543 76.496C43.0743 76.496 43.4343 76.544 43.7863 76.624L43.8423 76.136C43.5303 76.04 43.0903 75.968 42.6983 75.968C41.8663 75.968 41.2743 76.336 41.2743 77.096C41.2743 78.536 43.4583 78.08 43.4583 78.96C43.4583 79.36 43.1143 79.576 42.4743 79.576C42.1303 79.576 41.6983 79.52 41.3783 79.432L41.3463 79.944C41.6423 80.04 42.1223 80.112 42.4983 80.112ZM46.3809 80.112C46.6689 80.112 46.9809 80.064 47.1889 80.008L47.1569 79.52C46.9649 79.56 46.7009 79.584 46.5649 79.584C46.2849 79.584 46.1489 79.528 46.0609 79.432C45.9489 79.312 45.9249 79.12 45.9249 78.744V76.568H46.9569V76.08H45.9249V75.04C45.7169 75.04 45.4529 75.096 45.2609 75.16V76.088L44.5489 76.192V76.568H45.2609V78.832C45.2609 79.32 45.3169 79.584 45.5089 79.808C45.6849 80.008 45.9969 80.112 46.3809 80.112ZM47.9428 80H48.6068V76.832C48.8868 76.656 49.2148 76.568 49.5588 76.568C49.6708 76.568 49.8148 76.576 49.9028 76.584V75.992C49.8148 75.976 49.7188 75.968 49.6468 75.968C49.3028 75.968 48.9108 76.104 48.5348 76.416L48.4948 76.08H47.9428V80ZM50.9505 75.336H50.9905C51.2305 75.336 51.3825 75.216 51.3825 74.912V74.896C51.3825 74.592 51.2305 74.472 50.9905 74.472H50.9505C50.7105 74.472 50.5585 74.592 50.5585 74.896V74.912C50.5585 75.216 50.7105 75.336 50.9505 75.336ZM50.6385 80H51.3025V76.08H50.6385V80ZM54.171 80.112C54.459 80.112 54.899 80.056 55.155 79.984L55.107 79.488C54.907 79.528 54.555 79.568 54.291 79.568C53.811 79.568 53.475 79.456 53.251 79.2C53.035 78.952 52.923 78.576 52.923 78.08C52.923 77.04 53.339 76.504 54.259 76.504C54.507 76.504 54.827 76.552 55.075 76.6L55.115 76.088C54.843 76.016 54.483 75.968 54.179 75.968C53.579 75.968 53.075 76.144 52.739 76.504C52.403 76.864 52.227 77.4 52.227 78.088C52.227 78.776 52.419 79.288 52.747 79.624C53.067 79.952 53.531 80.112 54.171 80.112ZM57.7257 80.112C58.0137 80.112 58.4537 80.056 58.7097 79.984L58.6617 79.488C58.4617 79.528 58.1097 79.568 57.8457 79.568C57.3657 79.568 57.0297 79.456 56.8057 79.2C56.5897 78.952 56.4777 78.576 56.4777 78.08C56.4777 77.04 56.8937 76.504 57.8137 76.504C58.0617 76.504 58.3817 76.552 58.6297 76.6L58.6697 76.088C58.3977 76.016 58.0377 75.968 57.7337 75.968C57.1337 75.968 56.6297 76.144 56.2937 76.504C55.9577 76.864 55.7817 77.4 55.7817 78.088C55.7817 78.776 55.9737 79.288 56.3017 79.624C56.6217 79.952 57.0857 80.112 57.7257 80.112ZM59.9193 75.336H59.9593C60.1993 75.336 60.3513 75.216 60.3513 74.912V74.896C60.3513 74.592 60.1993 74.472 59.9593 74.472H59.9193C59.6793 74.472 59.5273 74.592 59.5273 74.896V74.912C59.5273 75.216 59.6793 75.336 59.9193 75.336ZM59.6073 80H60.2713V76.08H59.6073V80ZM62.9798 80.112C64.1958 80.112 64.7638 79.344 64.7638 78.04C64.7638 76.736 64.1958 75.968 62.9798 75.968C61.7638 75.968 61.1958 76.736 61.1958 78.04C61.1958 79.344 61.7638 80.112 62.9798 80.112ZM62.9798 79.568C62.1798 79.568 61.8918 79.04 61.8918 78.04C61.8918 77.04 62.1798 76.512 62.9798 76.512C63.7798 76.512 64.0678 77.04 64.0678 78.04C64.0678 79.04 63.7798 79.568 62.9798 79.568ZM65.6772 80H66.3412V76.808C66.6612 76.656 67.0852 76.552 67.4372 76.552C67.7252 76.552 67.9332 76.616 68.0692 76.752C68.2052 76.888 68.2612 77.08 68.2612 77.416V80H68.9252V77.336C68.9252 76.848 68.8132 76.528 68.5972 76.312C68.3732 76.08 68.0372 75.968 67.6132 75.968C67.1572 75.968 66.6692 76.12 66.2612 76.368L66.2292 76.08H65.6772V80ZM71.7328 80.112C72.0928 80.112 72.5568 80.056 72.8928 79.96L72.8288 79.464C72.5248 79.528 72.1408 79.568 71.8608 79.568C71.3648 79.568 71.0688 79.464 70.8608 79.272C70.6288 79.056 70.5168 78.704 70.5168 78.272H73.0448C73.1088 78.272 73.1408 78.248 73.1408 78.184V78.032C73.1408 76.744 72.6128 75.968 71.5168 75.968C70.5168 75.968 69.8208 76.648 69.8208 78.048C69.8208 78.752 69.9808 79.288 70.3328 79.64C70.6528 79.96 71.1248 80.112 71.7328 80.112ZM70.5168 77.784C70.5247 76.992 70.8528 76.504 71.5168 76.504C72.1728 76.504 72.4608 77.032 72.4848 77.784H70.5168ZM75.1076 80.112C76.0516 80.112 76.6916 79.744 76.6916 78.912C76.6916 77.512 74.5076 77.928 74.5076 77.048C74.5076 76.68 74.8036 76.496 75.3636 76.496C75.6836 76.496 76.0436 76.544 76.3956 76.624L76.4516 76.136C76.1396 76.04 75.6996 75.968 75.3076 75.968C74.4756 75.968 73.8836 76.336 73.8836 77.096C73.8836 78.536 76.0676 78.08 76.0676 78.96C76.0676 79.36 75.7236 79.576 75.0836 79.576C74.7396 79.576 74.3076 79.52 73.9876 79.432L73.9556 79.944C74.2516 80.04 74.7316 80.112 75.1076 80.112ZM80.8471 81.912C81.4391 81.912 81.8551 81.768 82.1191 81.48C82.3671 81.216 82.4791 80.832 82.4791 80.304V76.08H81.8151V79.272C81.4951 79.424 81.0871 79.528 80.7351 79.528C80.4471 79.528 80.2391 79.464 80.1031 79.328C79.9671 79.192 79.9111 79 79.9111 78.664V76.08H79.2471V78.744C79.2471 79.232 79.3591 79.552 79.5751 79.768C79.7991 80 80.1351 80.112 80.5591 80.112C80.9831 80.112 81.4231 79.984 81.8151 79.76V80.296C81.8151 80.736 81.7351 80.984 81.5671 81.144C81.3911 81.304 81.1111 81.36 80.7511 81.36C80.5591 81.36 80.1911 81.336 79.9991 81.312L80.0551 81.832C80.2311 81.872 80.5831 81.912 80.8471 81.912ZM85.2319 81.8H85.8959V79.816C86.1839 80 86.6079 80.112 87.0159 80.112C87.9519 80.112 88.5439 79.496 88.5439 78.024C88.5439 76.776 88.0559 75.968 87.0399 75.968C86.6799 75.968 86.2239 76.096 85.8159 76.368L85.7839 76.08H85.2319V81.8ZM86.8479 79.56C86.5119 79.56 86.1279 79.456 85.8959 79.32V76.8C86.1999 76.64 86.5919 76.536 86.8959 76.536C87.5519 76.536 87.8479 77.016 87.8479 78.016C87.8479 79.136 87.5599 79.56 86.8479 79.56ZM89.4584 80H90.1224V76.832C90.4024 76.656 90.7304 76.568 91.0744 76.568C91.1864 76.568 91.3304 76.576 91.4184 76.584V75.992C91.3304 75.976 91.2344 75.968 91.1624 75.968C90.8184 75.968 90.4264 76.104 90.0504 76.416L90.0104 76.08H89.4584V80ZM93.5344 80.112C94.7504 80.112 95.3184 79.344 95.3184 78.04C95.3184 76.736 94.7504 75.968 93.5344 75.968C92.3184 75.968 91.7504 76.736 91.7504 78.04C91.7504 79.344 92.3184 80.112 93.5344 80.112ZM93.5344 79.568C92.7344 79.568 92.4464 79.04 92.4464 78.04C92.4464 77.04 92.7344 76.512 93.5344 76.512C94.3344 76.512 94.6224 77.04 94.6224 78.04C94.6224 79.04 94.3344 79.568 93.5344 79.568ZM97.5919 80.112C97.8799 80.112 98.1919 80.064 98.3999 80.008L98.3679 79.52C98.1759 79.56 97.9119 79.584 97.7759 79.584C97.4959 79.584 97.3599 79.528 97.2719 79.432C97.1599 79.312 97.1359 79.12 97.1359 78.744V76.568H98.1679V76.08H97.1359V75.04C96.9279 75.04 96.6639 75.096 96.4719 75.16V76.088L95.7599 76.192V76.568H96.4719V78.832C96.4719 79.32 96.5279 79.584 96.7199 79.808C96.8959 80.008 97.2079 80.112 97.5919 80.112ZM100.73 80.112C101.946 80.112 102.514 79.344 102.514 78.04C102.514 76.736 101.946 75.968 100.73 75.968C99.5138 75.968 98.9458 76.736 98.9458 78.04C98.9458 79.344 99.5138 80.112 100.73 80.112ZM100.73 79.568C99.9298 79.568 99.6418 79.04 99.6418 78.04C99.6418 77.04 99.9298 76.512 100.73 76.512C101.53 76.512 101.818 77.04 101.818 78.04C101.818 79.04 101.53 79.568 100.73 79.568ZM105.163 80.112C105.451 80.112 105.891 80.056 106.147 79.984L106.099 79.488C105.899 79.528 105.547 79.568 105.283 79.568C104.803 79.568 104.467 79.456 104.243 79.2C104.027 78.952 103.915 78.576 103.915 78.08C103.915 77.04 104.331 76.504 105.251 76.504C105.499 76.504 105.819 76.552 106.067 76.6L106.107 76.088C105.835 76.016 105.475 75.968 105.171 75.968C104.571 75.968 104.067 76.144 103.731 76.504C103.395 76.864 103.219 77.4 103.219 78.088C103.219 78.776 103.411 79.288 103.739 79.624C104.059 79.952 104.523 80.112 105.163 80.112ZM108.558 80.112C109.774 80.112 110.342 79.344 110.342 78.04C110.342 76.736 109.774 75.968 108.558 75.968C107.342 75.968 106.774 76.736 106.774 78.04C106.774 79.344 107.342 80.112 108.558 80.112ZM108.558 79.568C107.758 79.568 107.47 79.04 107.47 78.04C107.47 77.04 107.758 76.512 108.558 76.512C109.358 76.512 109.646 77.04 109.646 78.04C109.646 79.04 109.358 79.568 108.558 79.568ZM111.263 80H111.927V74.28H111.263V80ZM114.628 80.112C115.844 80.112 116.412 79.344 116.412 78.04C116.412 76.736 115.844 75.968 114.628 75.968C113.412 75.968 112.844 76.736 112.844 78.04C112.844 79.344 113.412 80.112 114.628 80.112ZM114.628 79.568C113.828 79.568 113.54 79.04 113.54 78.04C113.54 77.04 113.828 76.512 114.628 76.512C115.428 76.512 115.716 77.04 115.716 78.04C115.716 79.04 115.428 79.568 114.628 79.568ZM118.358 80.112C119.302 80.112 119.942 79.744 119.942 78.912C119.942 77.512 117.758 77.928 117.758 77.048C117.758 76.68 118.054 76.496 118.614 76.496C118.934 76.496 119.294 76.544 119.646 76.624L119.702 76.136C119.39 76.04 118.95 75.968 118.558 75.968C117.726 75.968 117.134 76.336 117.134 77.096C117.134 78.536 119.318 78.08 119.318 78.96C119.318 79.36 118.974 79.576 118.334 79.576C117.99 79.576 117.558 79.52 117.238 79.432L117.206 79.944C117.502 80.04 117.982 80.112 118.358 80.112ZM16.4866 91.112C16.8546 91.112 17.3266 90.968 17.6466 90.76L17.6946 91H18.2386V85.28H17.5746V87.248C17.2626 87.072 16.8706 86.968 16.5346 86.968C15.5106 86.968 14.9106 87.768 14.9106 89.064C14.9106 90.424 15.4866 91.112 16.4866 91.112ZM16.6706 90.568C15.9666 90.568 15.6066 90.104 15.6066 89.072C15.6066 88.152 15.8706 87.528 16.6706 87.528C16.9346 87.528 17.2866 87.608 17.5746 87.72V90.336C17.2946 90.472 16.9506 90.568 16.6706 90.568ZM21.0648 91.112C21.4248 91.112 21.8888 91.056 22.2248 90.96L22.1608 90.464C21.8568 90.528 21.4728 90.568 21.1928 90.568C20.6968 90.568 20.4008 90.464 20.1928 90.272C19.9608 90.056 19.8488 89.704 19.8488 89.272H22.3768C22.4408 89.272 22.4728 89.248 22.4728 89.184V89.032C22.4728 87.744 21.9448 86.968 20.8488 86.968C19.8488 86.968 19.1528 87.648 19.1528 89.048C19.1528 89.752 19.3128 90.288 19.6648 90.64C19.9848 90.96 20.4568 91.112 21.0648 91.112ZM19.8488 88.784C19.8568 87.992 20.1848 87.504 20.8488 87.504C21.5048 87.504 21.7928 88.032 21.8168 88.784H19.8488ZM26.0725 91.112C27.0165 91.112 27.6565 90.744 27.6565 89.912C27.6565 88.512 25.4725 88.928 25.4725 88.048C25.4725 87.68 25.7685 87.496 26.3285 87.496C26.6485 87.496 27.0085 87.544 27.3605 87.624L27.4165 87.136C27.1045 87.04 26.6645 86.968 26.2725 86.968C25.4405 86.968 24.8485 87.336 24.8485 88.096C24.8485 89.536 27.0325 89.08 27.0325 89.96C27.0325 90.36 26.6885 90.576 26.0485 90.576C25.7045 90.576 25.2725 90.52 24.9525 90.432L24.9205 90.944C25.2165 91.04 25.6965 91.112 26.0725 91.112ZM30.2992 91.112C30.6592 91.112 31.1232 91.056 31.4592 90.96L31.3952 90.464C31.0912 90.528 30.7072 90.568 30.4272 90.568C29.9312 90.568 29.6352 90.464 29.4272 90.272C29.1952 90.056 29.0832 89.704 29.0832 89.272H31.6112C31.6752 89.272 31.7072 89.248 31.7072 89.184V89.032C31.7072 87.744 31.1792 86.968 30.0832 86.968C29.0832 86.968 28.3872 87.648 28.3872 89.048C28.3872 89.752 28.5472 90.288 28.8992 90.64C29.2192 90.96 29.6912 91.112 30.2992 91.112ZM29.0832 88.784C29.0912 87.992 29.4192 87.504 30.0832 87.504C30.7392 87.504 31.0272 88.032 31.0512 88.784H29.0832ZM34.154 92.912C35.482 92.912 36.01 92.472 36.01 91.68C36.01 91.36 35.922 91.088 35.722 90.888C35.466 90.632 35.082 90.52 34.394 90.52H33.642C33.426 90.52 33.322 90.448 33.322 90.28C33.322 90.144 33.418 89.936 33.538 89.8C33.722 89.856 33.922 89.88 34.154 89.88C35.226 89.88 35.73 89.272 35.73 88.424C35.73 87.864 35.506 87.4 35.034 87.16L35.578 86.232C35.45 86.128 35.21 86.016 35.026 85.976L34.554 87C34.434 86.984 34.298 86.968 34.154 86.968C33.082 86.968 32.578 87.576 32.578 88.424C32.578 88.936 32.762 89.352 33.13 89.608C32.85 89.88 32.666 90.2 32.666 90.512C32.666 90.688 32.722 90.832 32.85 90.936C32.578 91.128 32.402 91.464 32.402 91.808C32.402 92.504 32.946 92.912 34.154 92.912ZM34.154 89.352C33.506 89.352 33.21 89.024 33.21 88.424C33.21 87.824 33.506 87.496 34.154 87.496C34.802 87.496 35.098 87.824 35.098 88.424C35.098 89.024 34.802 89.352 34.154 89.352ZM34.218 92.352C33.346 92.352 33.026 92.112 33.026 91.688C33.026 91.48 33.114 91.264 33.258 91.088C33.338 91.104 33.434 91.112 33.546 91.112H34.394C34.786 91.112 35.042 91.16 35.194 91.272C35.322 91.368 35.386 91.512 35.386 91.704C35.386 92.112 35.05 92.352 34.218 92.352ZM38.024 91.112C38.48 91.112 38.952 90.96 39.36 90.712L39.392 91H39.944V87.08H39.28V90.272C38.96 90.424 38.552 90.528 38.2 90.528C37.912 90.528 37.704 90.464 37.568 90.328C37.432 90.192 37.376 90 37.376 89.664V87.08H36.712V89.744C36.712 90.232 36.824 90.552 37.04 90.768C37.264 91 37.6 91.112 38.024 91.112ZM41.0639 91H41.7279V87.832C42.0079 87.656 42.3359 87.568 42.6799 87.568C42.7919 87.568 42.9359 87.576 43.0239 87.584V86.992C42.9359 86.976 42.8399 86.968 42.7679 86.968C42.4239 86.968 42.0319 87.104 41.6559 87.416L41.6159 87.08H41.0639V91ZM44.0716 86.336H44.1116C44.3516 86.336 44.5036 86.216 44.5036 85.912V85.896C44.5036 85.592 44.3516 85.472 44.1116 85.472H44.0716C43.8316 85.472 43.6796 85.592 43.6796 85.896V85.912C43.6796 86.216 43.8316 86.336 44.0716 86.336ZM43.7596 91H44.4236V87.08H43.7596V91ZM46.9241 91.112C47.2921 91.112 47.7641 90.968 48.0841 90.76L48.1321 91H48.6761V85.28H48.0121V87.248C47.7001 87.072 47.3081 86.968 46.9721 86.968C45.9481 86.968 45.3481 87.768 45.3481 89.064C45.3481 90.424 45.9241 91.112 46.9241 91.112ZM47.1081 90.568C46.4041 90.568 46.0441 90.104 46.0441 89.072C46.0441 88.152 46.3081 87.528 47.1081 87.528C47.3721 87.528 47.7241 87.608 48.0121 87.72V90.336C47.7321 90.472 47.3881 90.568 47.1081 90.568ZM50.9263 91.112C51.3983 91.112 51.8143 90.96 52.1583 90.736L52.1983 91H52.7343V88.392C52.7343 87.88 52.6383 87.568 52.3903 87.328C52.1423 87.096 51.7503 86.968 51.1663 86.968C50.7903 86.968 50.3423 87.016 49.9743 87.104L49.9983 87.616C50.3823 87.552 50.7583 87.52 51.0543 87.52C51.4463 87.52 51.7023 87.592 51.8703 87.752C52.0143 87.896 52.0703 88.096 52.0703 88.416V88.664H51.2543C50.6863 88.664 50.2223 88.768 49.9263 89.04C49.7183 89.232 49.5903 89.52 49.5903 89.888C49.5903 90.256 49.7103 90.536 49.9023 90.736C50.1423 90.984 50.5023 91.112 50.9263 91.112ZM51.0703 90.576C50.5583 90.576 50.2623 90.344 50.2623 89.872C50.2623 89.632 50.3423 89.464 50.4783 89.352C50.6623 89.208 50.9423 89.152 51.3503 89.152H52.0703V90.32C51.7823 90.464 51.3903 90.576 51.0703 90.576ZM55.2053 91.112C55.5733 91.112 56.0453 90.968 56.3653 90.76L56.4133 91H56.9573V85.28H56.2933V87.248C55.9813 87.072 55.5893 86.968 55.2533 86.968C54.2293 86.968 53.6293 87.768 53.6293 89.064C53.6293 90.424 54.2053 91.112 55.2053 91.112ZM55.3893 90.568C54.6853 90.568 54.3253 90.104 54.3253 89.072C54.3253 88.152 54.5893 87.528 55.3893 87.528C55.6533 87.528 56.0053 87.608 56.2933 87.72V90.336C56.0133 90.472 55.6693 90.568 55.3893 90.568ZM61.0803 91.112C61.4483 91.112 61.9203 90.968 62.2403 90.76L62.2883 91H62.8323V85.28H62.1683V87.248C61.8563 87.072 61.4643 86.968 61.1283 86.968C60.1043 86.968 59.5043 87.768 59.5043 89.064C59.5043 90.424 60.0803 91.112 61.0803 91.112ZM61.2643 90.568C60.5603 90.568 60.2003 90.104 60.2003 89.072C60.2003 88.152 60.4643 87.528 61.2643 87.528C61.5283 87.528 61.8803 87.608 62.1683 87.72V90.336C61.8883 90.472 61.5443 90.568 61.2643 90.568ZM65.6585 91.112C66.0185 91.112 66.4825 91.056 66.8185 90.96L66.7545 90.464C66.4505 90.528 66.0665 90.568 65.7865 90.568C65.2905 90.568 64.9945 90.464 64.7865 90.272C64.5545 90.056 64.4425 89.704 64.4425 89.272H66.9705C67.0345 89.272 67.0665 89.248 67.0665 89.184V89.032C67.0665 87.744 66.5385 86.968 65.4425 86.968C64.4425 86.968 63.7465 87.648 63.7465 89.048C63.7465 89.752 63.9065 90.288 64.2585 90.64C64.5785 90.96 65.0505 91.112 65.6585 91.112ZM64.4425 88.784C64.4505 87.992 64.7785 87.504 65.4425 87.504C66.0985 87.504 66.3865 88.032 66.4105 88.784H64.4425ZM69.9622 86.336H70.0022C70.2422 86.336 70.3942 86.216 70.3942 85.912V85.896C70.3942 85.592 70.2422 85.472 70.0022 85.472H69.9622C69.7222 85.472 69.5702 85.592 69.5702 85.896V85.912C69.5702 86.216 69.7222 86.336 69.9622 86.336ZM69.6502 91H70.3142V87.08H69.6502V91ZM71.4467 91H72.1107V87.808C72.4307 87.656 72.8547 87.552 73.2067 87.552C73.4947 87.552 73.7027 87.616 73.8387 87.752C73.9747 87.888 74.0307 88.08 74.0307 88.416V91H74.6947V88.336C74.6947 87.848 74.5827 87.528 74.3667 87.312C74.1427 87.08 73.8067 86.968 73.3827 86.968C72.9267 86.968 72.4387 87.12 72.0307 87.368L71.9987 87.08H71.4467V91ZM76.8303 91.112C77.7743 91.112 78.4143 90.744 78.4143 89.912C78.4143 88.512 76.2303 88.928 76.2303 88.048C76.2303 87.68 76.5263 87.496 77.0863 87.496C77.4063 87.496 77.7663 87.544 78.1183 87.624L78.1743 87.136C77.8623 87.04 77.4223 86.968 77.0303 86.968C76.1983 86.968 75.6063 87.336 75.6063 88.096C75.6063 89.536 77.7903 89.08 77.7903 89.96C77.7903 90.36 77.4463 90.576 76.8063 90.576C76.4623 90.576 76.0303 90.52 75.7103 90.432L75.6783 90.944C75.9743 91.04 76.4543 91.112 76.8303 91.112ZM80.713 91.112C81.001 91.112 81.313 91.064 81.521 91.008L81.489 90.52C81.297 90.56 81.033 90.584 80.897 90.584C80.617 90.584 80.481 90.528 80.393 90.432C80.281 90.312 80.257 90.12 80.257 89.744V87.568H81.289V87.08H80.257V86.04C80.049 86.04 79.785 86.096 79.593 86.16V87.088L78.881 87.192V87.568H79.593V89.832C79.593 90.32 79.649 90.584 79.841 90.808C80.017 91.008 80.329 91.112 80.713 91.112ZM83.4028 91.112C83.8748 91.112 84.2908 90.96 84.6348 90.736L84.6748 91H85.2108V88.392C85.2108 87.88 85.1148 87.568 84.8668 87.328C84.6188 87.096 84.2268 86.968 83.6428 86.968C83.2668 86.968 82.8188 87.016 82.4508 87.104L82.4748 87.616C82.8588 87.552 83.2348 87.52 83.5308 87.52C83.9228 87.52 84.1788 87.592 84.3468 87.752C84.4908 87.896 84.5468 88.096 84.5468 88.416V88.664H83.7308C83.1628 88.664 82.6988 88.768 82.4028 89.04C82.1948 89.232 82.0668 89.52 82.0668 89.888C82.0668 90.256 82.1868 90.536 82.3788 90.736C82.6188 90.984 82.9788 91.112 83.4028 91.112ZM83.5468 90.576C83.0348 90.576 82.7388 90.344 82.7388 89.872C82.7388 89.632 82.8188 89.464 82.9548 89.352C83.1388 89.208 83.4188 89.152 83.8268 89.152H84.5468V90.32C84.2588 90.464 83.8668 90.576 83.5468 90.576ZM86.3219 91H86.9859V85.28H86.3219V91ZM89.2388 91.112C89.7108 91.112 90.1268 90.96 90.4708 90.736L90.5108 91H91.0468V88.392C91.0468 87.88 90.9508 87.568 90.7028 87.328C90.4548 87.096 90.0628 86.968 89.4788 86.968C89.1028 86.968 88.6548 87.016 88.2868 87.104L88.3108 87.616C88.6948 87.552 89.0708 87.52 89.3668 87.52C89.7588 87.52 90.0148 87.592 90.1828 87.752C90.3268 87.896 90.3828 88.096 90.3828 88.416V88.664H89.5668C88.9988 88.664 88.5348 88.768 88.2388 89.04C88.0308 89.232 87.9028 89.52 87.9028 89.888C87.9028 90.256 88.0228 90.536 88.2148 90.736C88.4548 90.984 88.8148 91.112 89.2388 91.112ZM89.3828 90.576C88.8708 90.576 88.5748 90.344 88.5748 89.872C88.5748 89.632 88.6548 89.464 88.7908 89.352C88.9748 89.208 89.2548 89.152 89.6628 89.152H90.3828V90.32C90.0948 90.464 89.7028 90.576 89.3828 90.576ZM93.8858 91.112C94.1738 91.112 94.6138 91.056 94.8698 90.984L94.8218 90.488C94.6218 90.528 94.2698 90.568 94.0058 90.568C93.5258 90.568 93.1898 90.456 92.9658 90.2C92.7498 89.952 92.6378 89.576 92.6378 89.08C92.6378 88.04 93.0538 87.504 93.9738 87.504C94.2218 87.504 94.5418 87.552 94.7898 87.6L94.8298 87.088C94.5578 87.016 94.1978 86.968 93.8938 86.968C93.2938 86.968 92.7898 87.144 92.4538 87.504C92.1178 87.864 91.9418 88.4 91.9418 89.088C91.9418 89.776 92.1338 90.288 92.4618 90.624C92.7818 90.952 93.2458 91.112 93.8858 91.112ZM96.0794 86.336H96.1194C96.3594 86.336 96.5114 86.216 96.5114 85.912V85.896C96.5114 85.592 96.3594 85.472 96.1194 85.472H96.0794C95.8394 85.472 95.6874 85.592 95.6874 85.896V85.912C95.6874 86.216 95.8394 86.336 96.0794 86.336ZM95.7674 91H96.4314V87.08H95.7674V91ZM98.4999 86.448L100.028 85.352L99.6519 84.848L98.2439 86.096L98.4999 86.448ZM99.1399 91.112C100.356 91.112 100.924 90.344 100.924 89.04C100.924 87.736 100.356 86.968 99.1399 86.968C97.9239 86.968 97.3559 87.736 97.3559 89.04C97.3559 90.344 97.9239 91.112 99.1399 91.112ZM99.1399 90.568C98.3399 90.568 98.0519 90.04 98.0519 89.04C98.0519 88.04 98.3399 87.512 99.1399 87.512C99.9399 87.512 100.228 88.04 100.228 89.04C100.228 90.04 99.9399 90.568 99.1399 90.568ZM101.837 91H102.501V87.808C102.821 87.656 103.245 87.552 103.597 87.552C103.885 87.552 104.093 87.616 104.229 87.752C104.365 87.888 104.421 88.08 104.421 88.416V91H105.085V88.336C105.085 87.848 104.973 87.528 104.757 87.312C104.533 87.08 104.197 86.968 103.773 86.968C103.317 86.968 102.829 87.12 102.421 87.368L102.389 87.08H101.837V91ZM106.509 91.112H106.565C106.805 91.112 106.965 90.992 106.965 90.68V90.648C106.965 90.336 106.805 90.216 106.565 90.216H106.509C106.269 90.216 106.109 90.336 106.109 90.648V90.68C106.109 90.992 106.269 91.112 106.509 91.112Z" fill="#00081D"/>
</svg>
