<svg width="341" height="295" viewBox="0 0 341 295" fill="none" xmlns="http://www.w3.org/2000/svg">
<path d="M20.0686 55.8504C23.6401 55.8504 27.7786 55.3401 30.4997 54.5465L30.7265 47.4601C28.1187 47.9703 24.7739 48.3105 22.1662 48.3105C18.4812 48.3105 15.8735 47.6302 14.2294 45.4759C12.8122 43.6618 12.4153 40.9973 12.4153 38.4462C12.4153 33.5141 13.8893 28.0718 16.2136 24.4436C18.9915 20.0784 22.6197 19.0579 26.3613 19.0579C29.536 19.0579 32.5406 19.7949 35.1484 20.5319L37.5861 13.6156C33.9579 12.4251 30.1029 11.518 25.5676 11.518C19.7285 11.518 14.1727 13.0487 9.80753 17.6974C4.64866 23.1964 2.32433 31.8134 2.32433 38.9565C2.32433 50.5214 8.44695 55.8504 20.0686 55.8504ZM55.9721 55.8504C64.5892 55.8504 70.7685 52.3922 74.6235 45.7594C77.5147 40.8273 79.102 34.1377 79.102 28.3553C79.102 16.3935 72.3558 11.518 62.3782 11.518C53.5911 11.518 47.6386 15.3163 43.897 21.6657C41.0624 26.4845 39.3617 33.0606 39.3617 39.0132C39.3617 50.9183 46.1079 55.8504 55.9721 55.8504ZM56.539 48.2538C52.2305 48.2538 49.4527 45.9294 49.4527 39.1265C49.4527 34.6479 50.6432 29.3757 52.6841 25.464C54.7249 21.5523 57.5595 19.1713 61.9247 19.1713C66.2332 19.1713 69.0677 21.439 69.0677 28.2986C69.0677 32.7205 67.8772 38.0494 65.8364 41.9611C63.7955 45.8161 60.9609 48.2538 56.539 48.2538ZM82.7971 55H91.3575L96.0061 28.4686L111.029 55H118.683L126.222 12.3684H117.662L112.73 40.2604L97.31 12.3684H90.2803L82.7971 55ZM142.367 55H171.506L172.64 47.9703H153.365L155.236 37.029H169.862L171.166 29.7158H156.54L158.297 19.3981H176.665L178.649 12.3684H149.85L142.367 55ZM179.515 55H208.144L209.334 47.9703H190.4L196.692 12.3684H186.998L179.515 55ZM1.70073 112H11.3949L18.8781 69.3684H9.12724L1.70073 112ZM21.8987 112H30.459L35.1076 85.4686L50.1307 112H57.784L65.3239 69.3684H56.7636L51.8315 97.2604L36.4115 69.3684H29.3819L21.8987 112ZM77.5435 112H87.2943L93.5303 76.3981H106.399L108.44 69.3684H71.8177L70.5705 76.3981H83.7795L77.5435 112ZM107.157 112H136.296L137.429 104.97H118.155L120.025 94.029H134.652L135.956 86.7158H121.329L123.087 76.3981H141.455L143.439 69.3684H114.64L107.157 112ZM144.305 112H154.055L156.72 96.5234H162.446L167.435 112H177.866L171.233 94.936C174.748 93.5754 177.469 91.4212 178.886 89.437C180.303 87.4528 181.21 84.5616 181.21 81.4436C181.21 77.7587 179.963 74.5273 177.582 72.4864C175.258 70.5022 171.63 69.3684 166.301 69.3684H151.788L144.305 112ZM157.967 89.4937L160.235 76.3981H165.11C167.945 76.3981 169.475 77.0784 170.326 77.9287C171.063 78.6657 171.573 79.9696 171.573 81.6137C171.573 83.7112 170.779 85.8088 169.249 87.2827C167.435 88.9835 164.997 89.4937 161.709 89.4937H157.967ZM185.771 112H194.331L198.98 85.4686L214.003 112H221.656L229.196 69.3684H220.636L215.704 97.2604L200.284 69.3684H193.254L185.771 112ZM231.722 112H260.861L261.995 104.97H242.72L244.59 94.029H259.217L260.521 86.7158H245.894L247.652 76.3981H266.02L268.004 69.3684H239.205L231.722 112ZM279.837 112H289.588L295.824 76.3981H308.693L310.734 69.3684H274.111L272.864 76.3981H286.073L279.837 112ZM1.30389 169H9.46739L14.0027 143.319L20.2387 159.249H27.7219L39.2301 144.113L34.9216 169H43.8221L51.3053 126.368H43.3119L25.3975 149.895L16.2703 126.368H8.7871L1.30389 169ZM71.5289 169.85C80.1459 169.85 86.3253 166.392 90.1802 159.759C93.0715 154.827 94.6588 148.138 94.6588 142.355C94.6588 130.393 87.9126 125.518 77.935 125.518C69.1479 125.518 63.1954 129.316 59.4537 135.666C56.6192 140.484 54.9185 147.061 54.9185 153.013C54.9185 164.918 61.6647 169.85 71.5289 169.85ZM72.0958 162.254C67.7873 162.254 65.0095 159.929 65.0095 153.127C65.0095 148.648 66.2 143.376 68.2408 139.464C70.2817 135.552 73.1163 133.171 77.4815 133.171C81.79 133.171 84.6245 135.439 84.6245 142.299C84.6245 146.72 83.434 152.049 81.3931 155.961C79.3523 159.816 76.5177 162.254 72.0958 162.254ZM108.249 169H118.793L140.449 126.368H130.472L115.619 157.775L110.97 126.368H100.879L108.249 169ZM139.497 169H149.192L156.675 126.368H146.924L139.497 169ZM173.131 169.85C178.573 169.85 183.222 168.717 186.51 166.336C190.025 163.784 191.442 160.213 191.442 156.131C191.442 150.519 188.778 147.061 182.769 144.566L179.084 143.036C174.435 141.108 172.791 139.691 172.791 137.593C172.791 134.419 176.362 133.001 180.898 133.001C183.902 133.001 187.304 133.625 190.705 134.645L193.143 127.786C188.891 126.368 184.753 125.518 180.558 125.518C175.682 125.518 171.657 126.652 168.709 128.693C165.251 131.074 163.494 134.589 163.494 138.727C163.494 144.283 166.668 147.684 172.848 150.179L176.533 151.653C180.501 153.24 181.975 154.827 181.975 157.152C181.975 161.347 177.156 162.367 173.074 162.367C169.106 162.367 164.231 161.403 160.772 160.1L158.845 167.299C163.607 169.057 168.539 169.85 173.131 169.85ZM206.095 169H215.845L222.081 133.398H234.95L236.991 126.368H200.369L199.122 133.398H212.331L206.095 169ZM229.132 169H238.883L244.042 158.285H257.874L259.575 169H269.553L261.616 126.368H250.901L229.132 169ZM247.5 151.256L254.53 136.403H254.643L256.74 151.256H247.5ZM275.679 169H285.43L288.095 153.523H293.82L298.809 169H309.24L302.607 151.936C306.122 150.575 308.843 148.421 310.261 146.437C311.678 144.453 312.585 141.562 312.585 138.444C312.585 134.759 311.338 131.527 308.957 129.486C306.632 127.502 303.004 126.368 297.675 126.368H283.162L275.679 169ZM289.342 146.494L291.609 133.398H296.485C299.319 133.398 300.85 134.078 301.7 134.929C302.437 135.666 302.948 136.97 302.948 138.614C302.948 140.711 302.154 142.809 300.623 144.283C298.809 145.983 296.371 146.494 293.083 146.494H289.342Z" fill="white"/>
<path d="M1.1744 279.843H2.28254L2.99583 277.525H6.29478L7.05901 279.843H8.24358L5.23759 271.131H3.93838L1.1744 279.843ZM3.27605 276.633L4.58799 272.328H4.60072L6.00182 276.633H3.27605ZM9.36217 282.709H10.4194V279.55C10.8779 279.843 11.553 280.021 12.2026 280.021C13.6928 280.021 14.6354 279.041 14.6354 276.697C14.6354 274.71 13.8584 273.423 12.2408 273.423C11.6676 273.423 10.9416 273.627 10.292 274.06L10.241 273.602H9.36217V282.709ZM11.9351 279.142C11.4001 279.142 10.7887 278.977 10.4194 278.76V274.748C10.9034 274.493 11.5275 274.328 12.0115 274.328C13.056 274.328 13.5273 275.092 13.5273 276.684C13.5273 278.467 13.0687 279.142 11.9351 279.142ZM16.1043 279.843H17.1614V270.736H16.1043V279.843ZM19.4747 272.417H19.5383C19.9205 272.417 20.1625 272.226 20.1625 271.742V271.717C20.1625 271.233 19.9205 271.042 19.5383 271.042H19.4747C19.0925 271.042 18.8505 271.233 18.8505 271.717V271.742C18.8505 272.226 19.0925 272.417 19.4747 272.417ZM18.9779 279.843H20.0351V273.602H18.9779V279.843ZM24.6022 280.021C25.0607 280.021 25.7613 279.932 26.1689 279.817L26.0925 279.028C25.774 279.091 25.2136 279.155 24.7933 279.155C24.029 279.155 23.4941 278.977 23.1374 278.569C22.7935 278.174 22.6152 277.576 22.6152 276.786C22.6152 275.13 23.2775 274.277 24.7423 274.277C25.1372 274.277 25.6467 274.353 26.0415 274.43L26.1052 273.614C25.6721 273.5 25.0989 273.423 24.6149 273.423C23.6596 273.423 22.8572 273.704 22.3222 274.277C21.7873 274.85 21.507 275.703 21.507 276.799C21.507 277.894 21.8127 278.709 22.335 279.244C22.8445 279.767 23.5832 280.021 24.6022 280.021ZM29.3435 280.021C30.095 280.021 30.7574 279.779 31.3051 279.423L31.3688 279.843H32.2222V275.691C32.2222 274.875 32.0693 274.379 31.6745 273.997C31.2796 273.627 30.6555 273.423 29.7257 273.423C29.127 273.423 28.4137 273.5 27.8278 273.64L27.866 274.455C28.4774 274.353 29.0761 274.302 29.5473 274.302C30.1715 274.302 30.5791 274.417 30.8465 274.672C31.0758 274.901 31.165 275.219 31.165 275.729V276.124H29.8658C28.9614 276.124 28.2227 276.289 27.7514 276.722C27.4202 277.028 27.2164 277.487 27.2164 278.072C27.2164 278.658 27.4075 279.104 27.7132 279.423C28.0953 279.817 28.6685 280.021 29.3435 280.021ZM29.5728 279.168C28.7576 279.168 28.2863 278.799 28.2863 278.047C28.2863 277.665 28.4137 277.397 28.6303 277.219C28.9232 276.99 29.369 276.901 30.0186 276.901H31.165V278.76C30.7064 278.99 30.0823 279.168 29.5728 279.168ZM33.9784 279.843H35.0356V274.799C35.4814 274.519 36.0036 274.379 36.5513 274.379C36.7297 274.379 36.9589 274.391 37.099 274.404V273.462C36.9589 273.436 36.8061 273.423 36.6914 273.423C36.1437 273.423 35.5196 273.64 34.921 274.137L34.8573 273.602H33.9784V279.843ZM39.2974 272.595L41.7302 270.85L41.1316 270.048L38.8898 272.035L39.2974 272.595ZM39.705 280.021C40.4565 280.021 41.1188 279.779 41.6665 279.423L41.7302 279.843H42.5836V275.691C42.5836 274.875 42.4308 274.379 42.0359 273.997C41.6411 273.627 41.0169 273.423 40.0871 273.423C39.4885 273.423 38.7752 273.5 38.1893 273.64L38.2275 274.455C38.8389 274.353 39.4375 274.302 39.9088 274.302C40.5329 274.302 40.9405 274.417 41.208 274.672C41.4373 274.901 41.5264 275.219 41.5264 275.729V276.124H40.2272C39.3229 276.124 38.5841 276.289 38.1128 276.722C37.7817 277.028 37.5779 277.487 37.5779 278.072C37.5779 278.658 37.7689 279.104 38.0746 279.423C38.4568 279.817 39.0299 280.021 39.705 280.021ZM39.9343 279.168C39.1191 279.168 38.6478 278.799 38.6478 278.047C38.6478 277.665 38.7752 277.397 38.9917 277.219C39.2847 276.99 39.7305 276.901 40.3801 276.901H41.5264V278.76C41.0679 278.99 40.4438 279.168 39.9343 279.168ZM44.3399 279.843H45.3971V274.761C45.9066 274.519 46.5816 274.353 47.1421 274.353C47.6006 274.353 47.9318 274.455 48.1483 274.672C48.3648 274.888 48.454 275.194 48.454 275.729V279.843H49.5112V275.601C49.5112 274.824 49.3329 274.315 48.989 273.971C48.6323 273.602 48.0974 273.423 47.4223 273.423C46.6963 273.423 45.9193 273.665 45.2697 274.06L45.2187 273.602H44.3399V279.843ZM53.8679 279.843H54.9251V274.799C55.3709 274.519 55.8932 274.379 56.4409 274.379C56.6192 274.379 56.8485 274.391 56.9886 274.404V273.462C56.8485 273.436 56.6956 273.423 56.581 273.423C56.0333 273.423 55.4091 273.64 54.8105 274.137L54.7468 273.602H53.8679V279.843ZM60.5614 280.021C61.1345 280.021 61.8733 279.932 62.4083 279.779L62.3064 278.99C61.8224 279.091 61.211 279.155 60.7652 279.155C59.9754 279.155 59.5042 278.99 59.173 278.684C58.8036 278.34 58.6253 277.78 58.6253 277.092H62.6503C62.7522 277.092 62.8031 277.053 62.8031 276.952V276.71C62.8031 274.659 61.9625 273.423 60.2175 273.423C58.6253 273.423 57.5172 274.506 57.5172 276.735C57.5172 277.856 57.7719 278.709 58.3323 279.27C58.8418 279.779 59.5933 280.021 60.5614 280.021ZM58.6253 276.315C58.638 275.054 59.1603 274.277 60.2175 274.277C61.2619 274.277 61.7205 275.117 61.7587 276.315H58.6253ZM65.9347 280.021C67.4377 280.021 68.4567 279.435 68.4567 278.111C68.4567 275.882 64.9794 276.544 64.9794 275.143C64.9794 274.557 65.4507 274.264 66.3423 274.264C66.8518 274.264 67.425 274.34 67.9854 274.468L68.0746 273.691C67.5778 273.538 66.8773 273.423 66.2531 273.423C64.9285 273.423 63.9859 274.009 63.9859 275.219C63.9859 277.512 67.4632 276.786 67.4632 278.187C67.4632 278.824 66.9155 279.168 65.8965 279.168C65.3488 279.168 64.661 279.079 64.1515 278.939L64.1005 279.754C64.5718 279.907 65.336 280.021 65.9347 280.021ZM72.1165 280.021C72.5751 280.021 73.0718 279.945 73.403 279.856L73.3521 279.079C73.0464 279.142 72.626 279.181 72.4095 279.181C71.9637 279.181 71.7472 279.091 71.6071 278.939C71.4287 278.748 71.3905 278.442 71.3905 277.843V274.379H73.0336V273.602H71.3905V271.946C71.0594 271.946 70.639 272.035 70.3333 272.137V273.614L69.1997 273.78V274.379H70.3333V277.983C70.3333 278.76 70.4225 279.181 70.7282 279.537C71.0084 279.856 71.5052 280.021 72.1165 280.021ZM74.6033 279.843H75.6605V274.799C76.1063 274.519 76.6285 274.379 77.1762 274.379C77.3545 274.379 77.5838 274.391 77.7239 274.404V273.462C77.5838 273.436 77.431 273.423 77.3163 273.423C76.7686 273.423 76.1445 273.64 75.5459 274.137L75.4822 273.602H74.6033V279.843ZM79.392 272.417H79.4557C79.8378 272.417 80.0798 272.226 80.0798 271.742V271.717C80.0798 271.233 79.8378 271.042 79.4557 271.042H79.392C79.0099 271.042 78.7679 271.233 78.7679 271.717V271.742C78.7679 272.226 79.0099 272.417 79.392 272.417ZM78.8953 279.843H79.9524V273.602H78.8953V279.843ZM84.5195 280.021C84.9781 280.021 85.6786 279.932 86.0862 279.817L86.0098 279.028C85.6914 279.091 85.1309 279.155 84.7106 279.155C83.9464 279.155 83.4114 278.977 83.0548 278.569C82.7109 278.174 82.5325 277.576 82.5325 276.786C82.5325 275.13 83.1949 274.277 84.6597 274.277C85.0545 274.277 85.564 274.353 85.9589 274.43L86.0225 273.614C85.5895 273.5 85.0163 273.423 84.5323 273.423C83.577 273.423 82.7745 273.704 82.2396 274.277C81.7046 274.85 81.4244 275.703 81.4244 276.799C81.4244 277.894 81.7301 278.709 82.2523 279.244C82.7618 279.767 83.5006 280.021 84.5195 280.021ZM90.1792 280.021C90.6377 280.021 91.3383 279.932 91.7459 279.817L91.6694 279.028C91.351 279.091 90.7906 279.155 90.3702 279.155C89.606 279.155 89.071 278.977 88.7144 278.569C88.3705 278.174 88.1922 277.576 88.1922 276.786C88.1922 275.13 88.8545 274.277 90.3193 274.277C90.7141 274.277 91.2236 274.353 91.6185 274.43L91.6822 273.614C91.2491 273.5 90.6759 273.423 90.1919 273.423C89.2366 273.423 88.4342 273.704 87.8992 274.277C87.3642 274.85 87.084 275.703 87.084 276.799C87.084 277.894 87.3897 278.709 87.9119 279.244C88.4214 279.767 89.1602 280.021 90.1792 280.021ZM93.6717 272.417H93.7353C94.1175 272.417 94.3595 272.226 94.3595 271.742V271.717C94.3595 271.233 94.1175 271.042 93.7353 271.042H93.6717C93.2895 271.042 93.0475 271.233 93.0475 271.717V271.742C93.0475 272.226 93.2895 272.417 93.6717 272.417ZM93.1749 279.843H94.2321V273.602H93.1749V279.843ZM98.5445 280.021C100.481 280.021 101.385 278.799 101.385 276.722C101.385 274.646 100.481 273.423 98.5445 273.423C96.6084 273.423 95.7041 274.646 95.7041 276.722C95.7041 278.799 96.6084 280.021 98.5445 280.021ZM98.5445 279.155C97.2707 279.155 96.8122 278.314 96.8122 276.722C96.8122 275.13 97.2707 274.29 98.5445 274.29C99.8182 274.29 100.277 275.13 100.277 276.722C100.277 278.314 99.8182 279.155 98.5445 279.155ZM102.839 279.843H103.896V274.761C104.406 274.519 105.081 274.353 105.641 274.353C106.1 274.353 106.431 274.455 106.648 274.672C106.864 274.888 106.953 275.194 106.953 275.729V279.843H108.011V275.601C108.011 274.824 107.832 274.315 107.488 273.971C107.132 273.602 106.597 273.423 105.922 273.423C105.196 273.423 104.419 273.665 103.769 274.06L103.718 273.602H102.839V279.843ZM112.481 280.021C113.054 280.021 113.793 279.932 114.328 279.779L114.226 278.99C113.742 279.091 113.13 279.155 112.684 279.155C111.895 279.155 111.423 278.99 111.092 278.684C110.723 278.34 110.545 277.78 110.545 277.092H114.57C114.671 277.092 114.722 277.053 114.722 276.952V276.71C114.722 274.659 113.882 273.423 112.137 273.423C110.545 273.423 109.436 274.506 109.436 276.735C109.436 277.856 109.691 278.709 110.252 279.27C110.761 279.779 111.513 280.021 112.481 280.021ZM110.545 276.315C110.557 275.054 111.08 274.277 112.137 274.277C113.181 274.277 113.64 275.117 113.678 276.315H110.545ZM117.854 280.021C119.357 280.021 120.376 279.435 120.376 278.111C120.376 275.882 116.899 276.544 116.899 275.143C116.899 274.557 117.37 274.264 118.262 274.264C118.771 274.264 119.344 274.34 119.905 274.468L119.994 273.691C119.497 273.538 118.797 273.423 118.172 273.423C116.848 273.423 115.905 274.009 115.905 275.219C115.905 277.512 119.382 276.786 119.382 278.187C119.382 278.824 118.835 279.168 117.816 279.168C117.268 279.168 116.58 279.079 116.071 278.939L116.02 279.754C116.491 279.907 117.255 280.021 117.854 280.021ZM126.992 282.887C127.935 282.887 128.597 282.658 129.017 282.199C129.412 281.779 129.591 281.168 129.591 280.327V273.602H128.533V278.684C128.024 278.926 127.374 279.091 126.814 279.091C126.355 279.091 126.024 278.99 125.808 278.773C125.591 278.556 125.502 278.251 125.502 277.716V273.602H124.445V277.843C124.445 278.62 124.623 279.13 124.967 279.474C125.324 279.843 125.859 280.021 126.534 280.021C127.209 280.021 127.909 279.817 128.533 279.461V280.314C128.533 281.015 128.406 281.41 128.138 281.664C127.858 281.919 127.412 282.008 126.839 282.008C126.534 282.008 125.948 281.97 125.642 281.932L125.731 282.76C126.011 282.823 126.572 282.887 126.992 282.887ZM133.973 282.709H135.031V279.55C135.489 279.843 136.164 280.021 136.814 280.021C138.304 280.021 139.247 279.041 139.247 276.697C139.247 274.71 138.47 273.423 136.852 273.423C136.279 273.423 135.553 273.627 134.903 274.06L134.852 273.602H133.973V282.709ZM136.546 279.142C136.011 279.142 135.4 278.977 135.031 278.76V274.748C135.515 274.493 136.139 274.328 136.623 274.328C137.667 274.328 138.138 275.092 138.138 276.684C138.138 278.467 137.68 279.142 136.546 279.142ZM140.703 279.843H141.76V274.799C142.206 274.519 142.728 274.379 143.276 274.379C143.454 274.379 143.683 274.391 143.823 274.404V273.462C143.683 273.436 143.53 273.423 143.416 273.423C142.868 273.423 142.244 273.64 141.645 274.137L141.582 273.602H140.703V279.843ZM147.192 280.021C149.128 280.021 150.033 278.799 150.033 276.722C150.033 274.646 149.128 273.423 147.192 273.423C145.256 273.423 144.352 274.646 144.352 276.722C144.352 278.799 145.256 280.021 147.192 280.021ZM147.192 279.155C145.919 279.155 145.46 278.314 145.46 276.722C145.46 275.13 145.919 274.29 147.192 274.29C148.466 274.29 148.925 275.13 148.925 276.722C148.925 278.314 148.466 279.155 147.192 279.155ZM153.652 280.021C154.111 280.021 154.608 279.945 154.939 279.856L154.888 279.079C154.582 279.142 154.162 279.181 153.945 279.181C153.5 279.181 153.283 279.091 153.143 278.939C152.965 278.748 152.926 278.442 152.926 277.843V274.379H154.569V273.602H152.926V271.946C152.595 271.946 152.175 272.035 151.869 272.137V273.614L150.736 273.78V274.379H151.869V277.983C151.869 278.76 151.958 279.181 152.264 279.537C152.544 279.856 153.041 280.021 153.652 280.021ZM158.648 280.021C160.584 280.021 161.489 278.799 161.489 276.722C161.489 274.646 160.584 273.423 158.648 273.423C156.712 273.423 155.808 274.646 155.808 276.722C155.808 278.799 156.712 280.021 158.648 280.021ZM158.648 279.155C157.375 279.155 156.916 278.314 156.916 276.722C156.916 275.13 157.375 274.29 158.648 274.29C159.922 274.29 160.381 275.13 160.381 276.722C160.381 278.314 159.922 279.155 158.648 279.155ZM165.707 280.021C166.166 280.021 166.866 279.932 167.274 279.817L167.197 279.028C166.879 279.091 166.319 279.155 165.898 279.155C165.134 279.155 164.599 278.977 164.242 278.569C163.898 278.174 163.72 277.576 163.72 276.786C163.72 275.13 164.382 274.277 165.847 274.277C166.242 274.277 166.752 274.353 167.146 274.43L167.21 273.614C166.777 273.5 166.204 273.423 165.72 273.423C164.765 273.423 163.962 273.704 163.427 274.277C162.892 274.85 162.612 275.703 162.612 276.799C162.612 277.894 162.918 278.709 163.44 279.244C163.949 279.767 164.688 280.021 165.707 280.021ZM171.112 280.021C173.048 280.021 173.952 278.799 173.952 276.722C173.952 274.646 173.048 273.423 171.112 273.423C169.176 273.423 168.272 274.646 168.272 276.722C168.272 278.799 169.176 280.021 171.112 280.021ZM171.112 279.155C169.838 279.155 169.38 278.314 169.38 276.722C169.38 275.13 169.838 274.29 171.112 274.29C172.386 274.29 172.844 275.13 172.844 276.722C172.844 278.314 172.386 279.155 171.112 279.155ZM175.419 279.843H176.477V270.736H175.419V279.843ZM180.777 280.021C182.713 280.021 183.617 278.799 183.617 276.722C183.617 274.646 182.713 273.423 180.777 273.423C178.841 273.423 177.936 274.646 177.936 276.722C177.936 278.799 178.841 280.021 180.777 280.021ZM180.777 279.155C179.503 279.155 179.045 278.314 179.045 276.722C179.045 275.13 179.503 274.29 180.777 274.29C182.051 274.29 182.509 275.13 182.509 276.722C182.509 278.314 182.051 279.155 180.777 279.155ZM186.715 280.021C188.218 280.021 189.237 279.435 189.237 278.111C189.237 275.882 185.759 276.544 185.759 275.143C185.759 274.557 186.231 274.264 187.122 274.264C187.632 274.264 188.205 274.34 188.765 274.468L188.855 273.691C188.358 273.538 187.657 273.423 187.033 273.423C185.708 273.423 184.766 274.009 184.766 275.219C184.766 277.512 188.243 276.786 188.243 278.187C188.243 278.824 187.696 279.168 186.677 279.168C186.129 279.168 185.441 279.079 184.932 278.939L184.881 279.754C185.352 279.907 186.116 280.021 186.715 280.021ZM195.509 280.021C196.095 280.021 196.846 279.792 197.356 279.461L197.432 279.843H198.298V270.736H197.241V273.869C196.745 273.589 196.12 273.423 195.585 273.423C193.955 273.423 193 274.697 193 276.761C193 278.926 193.917 280.021 195.509 280.021ZM195.802 279.155C194.681 279.155 194.108 278.416 194.108 276.773C194.108 275.308 194.528 274.315 195.802 274.315C196.222 274.315 196.783 274.442 197.241 274.621V278.786C196.795 279.002 196.248 279.155 195.802 279.155ZM202.798 280.021C203.371 280.021 204.11 279.932 204.645 279.779L204.543 278.99C204.059 279.091 203.448 279.155 203.002 279.155C202.212 279.155 201.741 278.99 201.41 278.684C201.04 278.34 200.862 277.78 200.862 277.092H204.887C204.989 277.092 205.04 277.053 205.04 276.952V276.71C205.04 274.659 204.199 273.423 202.454 273.423C200.862 273.423 199.754 274.506 199.754 276.735C199.754 277.856 200.009 278.709 200.569 279.27C201.079 279.779 201.83 280.021 202.798 280.021ZM200.862 276.315C200.875 275.054 201.397 274.277 202.454 274.277C203.499 274.277 203.957 275.117 203.996 276.315H200.862ZM210.771 280.021C212.274 280.021 213.293 279.435 213.293 278.111C213.293 275.882 209.816 276.544 209.816 275.143C209.816 274.557 210.287 274.264 211.179 274.264C211.688 274.264 212.261 274.34 212.822 274.468L212.911 273.691C212.414 273.538 211.714 273.423 211.09 273.423C209.765 273.423 208.822 274.009 208.822 275.219C208.822 277.512 212.3 276.786 212.3 278.187C212.3 278.824 211.752 279.168 210.733 279.168C210.185 279.168 209.498 279.079 208.988 278.939L208.937 279.754C209.408 279.907 210.173 280.021 210.771 280.021ZM217.501 280.021C218.074 280.021 218.813 279.932 219.348 279.779L219.246 278.99C218.762 279.091 218.15 279.155 217.705 279.155C216.915 279.155 216.444 278.99 216.112 278.684C215.743 278.34 215.565 277.78 215.565 277.092H219.59C219.692 277.092 219.743 277.053 219.743 276.952V276.71C219.743 274.659 218.902 273.423 217.157 273.423C215.565 273.423 214.457 274.506 214.457 276.735C214.457 277.856 214.711 278.709 215.272 279.27C215.781 279.779 216.533 280.021 217.501 280.021ZM215.565 276.315C215.577 275.054 216.1 274.277 217.157 274.277C218.201 274.277 218.66 275.117 218.698 276.315H215.565ZM223.638 282.887C225.753 282.887 226.593 282.187 226.593 280.926C226.593 280.416 226.453 279.983 226.135 279.665C225.727 279.257 225.116 279.079 224.02 279.079H222.823C222.479 279.079 222.314 278.964 222.314 278.697C222.314 278.48 222.467 278.149 222.658 277.932C222.951 278.022 223.269 278.06 223.638 278.06C225.345 278.06 226.148 277.092 226.148 275.742C226.148 274.85 225.791 274.111 225.039 273.729L225.906 272.252C225.702 272.086 225.32 271.908 225.027 271.844L224.275 273.474C224.084 273.449 223.868 273.423 223.638 273.423C221.932 273.423 221.129 274.391 221.129 275.742C221.129 276.557 221.422 277.219 222.008 277.627C221.562 278.06 221.269 278.569 221.269 279.066C221.269 279.346 221.358 279.575 221.562 279.741C221.129 280.047 220.849 280.582 220.849 281.129C220.849 282.238 221.715 282.887 223.638 282.887ZM223.638 277.219C222.607 277.219 222.135 276.697 222.135 275.742C222.135 274.786 222.607 274.264 223.638 274.264C224.67 274.264 225.141 274.786 225.141 275.742C225.141 276.697 224.67 277.219 223.638 277.219ZM223.74 281.996C222.352 281.996 221.842 281.613 221.842 280.938C221.842 280.607 221.983 280.263 222.212 279.983C222.339 280.009 222.492 280.021 222.67 280.021H224.02C224.645 280.021 225.052 280.098 225.294 280.276C225.498 280.429 225.6 280.658 225.6 280.964C225.6 281.613 225.065 281.996 223.74 281.996ZM229.8 280.021C230.526 280.021 231.277 279.779 231.927 279.384L231.978 279.843H232.857V273.602H231.8V278.684C231.29 278.926 230.641 279.091 230.08 279.091C229.622 279.091 229.29 278.99 229.074 278.773C228.857 278.556 228.768 278.251 228.768 277.716V273.602H227.711V277.843C227.711 278.62 227.889 279.13 228.233 279.474C228.59 279.843 229.125 280.021 229.8 280.021ZM234.64 279.843H235.697V274.799C236.143 274.519 236.665 274.379 237.213 274.379C237.391 274.379 237.62 274.391 237.761 274.404V273.462C237.62 273.436 237.468 273.423 237.353 273.423C236.805 273.423 236.181 273.64 235.583 274.137L235.519 273.602H234.64V279.843ZM239.429 272.417H239.492C239.874 272.417 240.116 272.226 240.116 271.742V271.717C240.116 271.233 239.874 271.042 239.492 271.042H239.429C239.047 271.042 238.805 271.233 238.805 271.717V271.742C238.805 272.226 239.047 272.417 239.429 272.417ZM238.932 279.843H239.989V273.602H238.932V279.843ZM243.97 280.021C244.556 280.021 245.308 279.792 245.817 279.461L245.894 279.843H246.76V270.736H245.703V273.869C245.206 273.589 244.582 273.423 244.047 273.423C242.416 273.423 241.461 274.697 241.461 276.761C241.461 278.926 242.378 280.021 243.97 280.021ZM244.263 279.155C243.142 279.155 242.569 278.416 242.569 276.773C242.569 275.308 242.99 274.315 244.263 274.315C244.684 274.315 245.244 274.442 245.703 274.621V278.786C245.257 279.002 244.709 279.155 244.263 279.155ZM250.342 280.021C251.094 280.021 251.756 279.779 252.304 279.423L252.368 279.843H253.221V275.691C253.221 274.875 253.068 274.379 252.673 273.997C252.278 273.627 251.654 273.423 250.725 273.423C250.126 273.423 249.413 273.5 248.827 273.64L248.865 274.455C249.476 274.353 250.075 274.302 250.546 274.302C251.17 274.302 251.578 274.417 251.845 274.672C252.075 274.901 252.164 275.219 252.164 275.729V276.124H250.865C249.96 276.124 249.222 276.289 248.75 276.722C248.419 277.028 248.215 277.487 248.215 278.072C248.215 278.658 248.406 279.104 248.712 279.423C249.094 279.817 249.667 280.021 250.342 280.021ZM250.572 279.168C249.757 279.168 249.285 278.799 249.285 278.047C249.285 277.665 249.413 277.397 249.629 277.219C249.922 276.99 250.368 276.901 251.017 276.901H252.164V278.76C251.705 278.99 251.081 279.168 250.572 279.168ZM257.155 280.021C257.741 280.021 258.493 279.792 259.002 279.461L259.079 279.843H259.945V270.736H258.888V273.869C258.391 273.589 257.767 273.423 257.232 273.423C255.601 273.423 254.646 274.697 254.646 276.761C254.646 278.926 255.563 280.021 257.155 280.021ZM257.448 279.155C256.327 279.155 255.754 278.416 255.754 276.773C255.754 275.308 256.175 274.315 257.448 274.315C257.869 274.315 258.429 274.442 258.888 274.621V278.786C258.442 279.002 257.894 279.155 257.448 279.155ZM266.509 280.021C267.095 280.021 267.847 279.792 268.356 279.461L268.433 279.843H269.299V270.736H268.242V273.869C267.745 273.589 267.121 273.423 266.586 273.423C264.955 273.423 264 274.697 264 276.761C264 278.926 264.917 280.021 266.509 280.021ZM266.802 279.155C265.681 279.155 265.108 278.416 265.108 276.773C265.108 275.308 265.529 274.315 266.802 274.315C267.223 274.315 267.783 274.442 268.242 274.621V278.786C267.796 279.002 267.248 279.155 266.802 279.155ZM273.798 280.021C274.372 280.021 275.11 279.932 275.645 279.779L275.543 278.99C275.059 279.091 274.448 279.155 274.002 279.155C273.213 279.155 272.741 278.99 272.41 278.684C272.041 278.34 271.862 277.78 271.862 277.092H275.887C275.989 277.092 276.04 277.053 276.04 276.952V276.71C276.04 274.659 275.2 273.423 273.455 273.423C271.862 273.423 270.754 274.506 270.754 276.735C270.754 277.856 271.009 278.709 271.569 279.27C272.079 279.779 272.83 280.021 273.798 280.021ZM271.862 276.315C271.875 275.054 272.397 274.277 273.455 274.277C274.499 274.277 274.958 275.117 274.996 276.315H271.862ZM280.651 272.417H280.714C281.096 272.417 281.338 272.226 281.338 271.742V271.717C281.338 271.233 281.096 271.042 280.714 271.042H280.651C280.269 271.042 280.026 271.233 280.026 271.717V271.742C280.026 272.226 280.269 272.417 280.651 272.417ZM280.154 279.843H281.211V273.602H280.154V279.843ZM283.014 279.843H284.071V274.761C284.581 274.519 285.256 274.353 285.816 274.353C286.275 274.353 286.606 274.455 286.823 274.672C287.039 274.888 287.128 275.194 287.128 275.729V279.843H288.185V275.601C288.185 274.824 288.007 274.315 287.663 273.971C287.307 273.602 286.772 273.423 286.097 273.423C285.371 273.423 284.594 273.665 283.944 274.06L283.893 273.602H283.014V279.843ZM291.586 280.021C293.089 280.021 294.108 279.435 294.108 278.111C294.108 275.882 290.63 276.544 290.63 275.143C290.63 274.557 291.102 274.264 291.993 274.264C292.503 274.264 293.076 274.34 293.636 274.468L293.726 273.691C293.229 273.538 292.528 273.423 291.904 273.423C290.579 273.423 289.637 274.009 289.637 275.219C289.637 277.512 293.114 276.786 293.114 278.187C293.114 278.824 292.566 279.168 291.547 279.168C291 279.168 290.312 279.079 289.802 278.939L289.751 279.754C290.223 279.907 290.987 280.021 291.586 280.021ZM297.768 280.021C298.226 280.021 298.723 279.945 299.054 279.856L299.003 279.079C298.697 279.142 298.277 279.181 298.06 279.181C297.615 279.181 297.398 279.091 297.258 278.939C297.08 278.748 297.041 278.442 297.041 277.843V274.379H298.685V273.602H297.041V271.946C296.71 271.946 296.29 272.035 295.984 272.137V273.614L294.851 273.78V274.379H295.984V277.983C295.984 278.76 296.073 279.181 296.379 279.537C296.659 279.856 297.156 280.021 297.768 280.021ZM302.05 280.021C302.802 280.021 303.464 279.779 304.012 279.423L304.075 279.843H304.929V275.691C304.929 274.875 304.776 274.379 304.381 273.997C303.986 273.627 303.362 273.423 302.432 273.423C301.834 273.423 301.12 273.5 300.534 273.64L300.573 274.455C301.184 274.353 301.783 274.302 302.254 274.302C302.878 274.302 303.286 274.417 303.553 274.672C303.782 274.901 303.872 275.219 303.872 275.729V276.124H302.572C301.668 276.124 300.929 276.289 300.458 276.722C300.127 277.028 299.923 277.487 299.923 278.072C299.923 278.658 300.114 279.104 300.42 279.423C300.802 279.817 301.375 280.021 302.05 280.021ZM302.279 279.168C301.464 279.168 300.993 278.799 300.993 278.047C300.993 277.665 301.12 277.397 301.337 277.219C301.63 276.99 302.076 276.901 302.725 276.901H303.872V278.76C303.413 278.99 302.789 279.168 302.279 279.168ZM306.698 279.843H307.755V270.736H306.698V279.843ZM311.342 280.021C312.093 280.021 312.756 279.779 313.303 279.423L313.367 279.843H314.221V275.691C314.221 274.875 314.068 274.379 313.673 273.997C313.278 273.627 312.654 273.423 311.724 273.423C311.125 273.423 310.412 273.5 309.826 273.64L309.864 274.455C310.476 274.353 311.074 274.302 311.546 274.302C312.17 274.302 312.577 274.417 312.845 274.672C313.074 274.901 313.163 275.219 313.163 275.729V276.124H311.864C310.96 276.124 310.221 276.289 309.75 276.722C309.419 277.028 309.215 277.487 309.215 278.072C309.215 278.658 309.406 279.104 309.712 279.423C310.094 279.817 310.667 280.021 311.342 280.021ZM311.571 279.168C310.756 279.168 310.285 278.799 310.285 278.047C310.285 277.665 310.412 277.397 310.629 277.219C310.922 276.99 311.367 276.901 312.017 276.901H313.163V278.76C312.705 278.99 312.081 279.168 311.571 279.168ZM318.741 280.021C319.199 280.021 319.9 279.932 320.307 279.817L320.231 279.028C319.913 279.091 319.352 279.155 318.932 279.155C318.168 279.155 317.633 278.977 317.276 278.569C316.932 278.174 316.754 277.576 316.754 276.786C316.754 275.13 317.416 274.277 318.881 274.277C319.276 274.277 319.785 274.353 320.18 274.43L320.244 273.614C319.811 273.5 319.238 273.423 318.754 273.423C317.798 273.423 316.996 273.704 316.461 274.277C315.926 274.85 315.646 275.703 315.646 276.799C315.646 277.894 315.951 278.709 316.474 279.244C316.983 279.767 317.722 280.021 318.741 280.021ZM322.233 272.417H322.297C322.679 272.417 322.921 272.226 322.921 271.742V271.717C322.921 271.233 322.679 271.042 322.297 271.042H322.233C321.851 271.042 321.609 271.233 321.609 271.717V271.742C321.609 272.226 321.851 272.417 322.233 272.417ZM321.737 279.843H322.794V273.602H321.737V279.843ZM326.087 272.595L328.52 270.85L327.921 270.048L325.68 272.035L326.087 272.595ZM327.106 280.021C329.042 280.021 329.946 278.799 329.946 276.722C329.946 274.646 329.042 273.423 327.106 273.423C325.17 273.423 324.266 274.646 324.266 276.722C324.266 278.799 325.17 280.021 327.106 280.021ZM327.106 279.155C325.832 279.155 325.374 278.314 325.374 276.722C325.374 275.13 325.832 274.29 327.106 274.29C328.38 274.29 328.838 275.13 328.838 276.722C328.838 278.314 328.38 279.155 327.106 279.155ZM331.401 279.843H332.458V274.761C332.968 274.519 333.643 274.353 334.203 274.353C334.662 274.353 334.993 274.455 335.209 274.672C335.426 274.888 335.515 275.194 335.515 275.729V279.843H336.572V275.601C336.572 274.824 336.394 274.315 336.05 273.971C335.693 273.602 335.158 273.423 334.483 273.423C333.757 273.423 332.98 273.665 332.331 274.06L332.28 273.602H331.401V279.843ZM338.839 280.021H338.928C339.31 280.021 339.565 279.83 339.565 279.333V279.283C339.565 278.786 339.31 278.595 338.928 278.595H338.839C338.457 278.595 338.202 278.786 338.202 279.283V279.333C338.202 279.83 338.457 280.021 338.839 280.021Z" fill="#00081D"/>
<path d="M0 187.349C0 183.29 3.29035 180 7.34921 180H185.007C189.068 180 192.36 183.292 192.36 187.353V252.647C192.36 256.708 189.068 260 185.007 260H7.34922C3.29036 260 0 256.71 0 252.651V187.349Z" fill="#E63780"/>
<path d="M57.6342 235.835C62.0361 235.835 64.9557 234.937 67.1118 232.916C68.7288 231.388 69.6721 229.187 69.6721 226.447C69.6721 214.454 53.9958 218.587 53.9958 212.568C53.9958 210.636 55.2086 209.289 58.9817 209.289C61.1377 209.289 63.8328 209.693 66.3482 210.367L67.4262 205.156C65.0456 204.348 61.8115 203.899 58.8469 203.899C52.289 203.899 47.393 206.639 47.393 212.882C47.393 224.965 63.0692 220.788 63.0692 226.537C63.0692 229.367 61.1377 230.445 57.0053 230.445C54.7594 230.445 51.2109 229.861 48.5159 228.918L47.4379 234.263C50.5372 235.341 53.7263 235.835 57.6342 235.835ZM72.0008 235.835H77.7053L91.2255 203.899H85.5209L72.0008 235.835ZM105.485 235.835C112.627 235.835 116.355 231.927 116.355 225.1C116.355 218.946 113.166 215.532 107.686 215.532C105.575 215.532 103.06 216.026 101.039 217.105C101.128 214.005 101.622 211.894 102.97 210.547C104.183 209.334 106.024 208.93 108.989 208.93C110.606 208.93 112.268 209.109 113.84 209.379V204.483C111.774 204.123 109.708 203.899 107.507 203.899C103.419 203.899 100.544 204.797 98.4783 206.863C95.7832 209.558 94.3009 214.14 94.3009 221.282C94.3009 230.58 97.2655 235.835 105.485 235.835ZM105.62 230.939C102.117 230.939 100.949 228.424 100.949 222.54V220.833C102.206 220.563 104.138 220.384 105.44 220.384C108.719 220.384 109.977 221.417 109.977 225.324C109.977 229.053 108.495 230.939 105.62 230.939ZM131.026 235.835C139.56 235.835 142.794 230.4 142.794 219.889C142.794 209.379 139.56 203.899 131.026 203.899C122.492 203.899 119.258 209.379 119.258 219.889C119.258 230.4 122.492 235.835 131.026 235.835ZM131.026 230.67C127.388 230.67 125.95 228.379 125.95 219.889C125.95 211.4 127.388 208.615 131.026 208.615C134.664 208.615 136.102 211.4 136.102 219.889C136.102 228.379 134.664 230.67 131.026 230.67Z" fill="white"/>
<path d="M60.9765 198.393H62.1187V195.121H63.7486C64.8009 195.121 65.5196 194.864 65.9945 194.402C66.4821 193.914 66.7131 193.208 66.7131 192.272C66.7131 191.463 66.5078 190.796 66.0715 190.359C65.5709 189.846 64.7496 189.615 63.4919 189.615H60.9765V198.393ZM62.1187 194.197V190.513H63.4021C64.2491 190.513 64.7881 190.655 65.1218 190.988C65.4041 191.271 65.5324 191.694 65.5324 192.297C65.5324 192.99 65.3656 193.465 65.0576 193.76C64.7111 194.081 64.1593 194.197 63.3636 194.197H62.1187ZM67.8349 198.393H68.9001V189.217H67.8349V198.393ZM72.2574 198.573C73.0146 198.573 73.682 198.329 74.2338 197.97L74.298 198.393H75.1578V194.209C75.1578 193.388 75.0038 192.888 74.606 192.503C74.2082 192.13 73.5793 191.925 72.6425 191.925C72.0393 191.925 71.3206 192.002 70.7303 192.143L70.7688 192.965C71.3848 192.862 71.9879 192.811 72.4628 192.811C73.0916 192.811 73.5023 192.926 73.7718 193.183C74.0028 193.414 74.0927 193.735 74.0927 194.248V194.646H72.7836C71.8724 194.646 71.1281 194.813 70.6533 195.249C70.3196 195.557 70.1142 196.019 70.1142 196.609C70.1142 197.2 70.3067 197.649 70.6147 197.97C70.9998 198.368 71.5773 198.573 72.2574 198.573ZM72.4885 197.713C71.6671 197.713 71.1923 197.341 71.1923 196.584C71.1923 196.199 71.3206 195.929 71.5388 195.75C71.8339 195.519 72.2831 195.429 72.9376 195.429H74.0927V197.302C73.6306 197.533 73.0018 197.713 72.4885 197.713ZM76.6707 198.393H77.7359V193.273C78.2492 193.029 78.9294 192.862 79.4941 192.862C79.9561 192.862 80.2898 192.965 80.5079 193.183C80.7261 193.401 80.816 193.709 80.816 194.248V198.393H81.8811V194.12C81.8811 193.337 81.7015 192.823 81.355 192.477C80.9956 192.105 80.4566 191.925 79.7764 191.925C79.0449 191.925 78.2621 192.169 77.6076 192.567L77.5562 192.105H76.6707V198.393ZM87.1563 198.393H88.3242L90.9551 190.667C91.0706 190.334 91.0963 190.141 91.0963 189.897C91.0963 189.795 91.0834 189.679 91.0578 189.615H85.7832V190.462H90.0182L87.1563 198.393ZM95.2256 198.573C97.4073 198.573 98.2415 196.879 98.2415 194.017C98.2415 191.155 97.4073 189.448 95.2256 189.448C93.0439 189.448 92.2097 191.155 92.2097 194.017C92.2097 196.879 93.0439 198.573 95.2256 198.573ZM95.2256 197.662C93.801 197.662 93.3262 196.468 93.3262 194.017C93.3262 191.566 93.801 190.359 95.2256 190.359C96.6501 190.359 97.1249 191.566 97.1249 194.017C97.1249 196.468 96.6501 197.662 95.2256 197.662ZM101.936 198.393H102.95V191.81L105.478 196.532H106.427L108.981 191.861V198.393H110.059V189.615H109.084L105.991 195.39L102.937 189.615H101.936V198.393ZM114.626 198.573C116.192 198.573 117.077 197.508 117.077 195.223C117.077 192.965 116.166 191.925 114.639 191.925C114.023 191.925 113.343 192.143 112.829 192.426V189.217H111.764V198.393H112.624L112.675 197.97C113.176 198.316 113.946 198.573 114.626 198.573ZM114.382 197.687C113.869 197.687 113.253 197.495 112.829 197.238V193.196C113.253 192.99 113.869 192.836 114.356 192.836C115.473 192.836 115.961 193.529 115.961 195.223C115.961 197.046 115.447 197.687 114.382 197.687ZM118.288 201.281H119.353V198.098C119.815 198.393 120.495 198.573 121.15 198.573C122.651 198.573 123.601 197.585 123.601 195.223C123.601 193.221 122.818 191.925 121.188 191.925C120.611 191.925 119.879 192.13 119.224 192.567L119.173 192.105H118.288V201.281ZM120.88 197.687C120.341 197.687 119.725 197.521 119.353 197.302V193.26C119.84 193.003 120.469 192.836 120.957 192.836C122.009 192.836 122.484 193.606 122.484 195.211C122.484 197.007 122.022 197.687 120.88 197.687ZM126.467 198.573C127.981 198.573 129.008 197.983 129.008 196.648C129.008 194.402 125.504 195.069 125.504 193.658C125.504 193.067 125.979 192.772 126.877 192.772C127.391 192.772 127.968 192.849 128.533 192.977L128.623 192.195C128.122 192.041 127.416 191.925 126.788 191.925C125.453 191.925 124.503 192.515 124.503 193.735C124.503 196.045 128.007 195.313 128.007 196.725C128.007 197.367 127.455 197.713 126.428 197.713C125.876 197.713 125.183 197.623 124.67 197.482L124.619 198.303C125.094 198.457 125.864 198.573 126.467 198.573Z" fill="white"/>
<path d="M45.0737 251.08H46.2159V247.807H47.8458C48.8981 247.807 49.6168 247.55 50.0916 247.088C50.5793 246.601 50.8103 245.895 50.8103 244.958C50.8103 244.15 50.605 243.482 50.1686 243.046C49.6681 242.532 48.8468 242.301 47.5891 242.301H45.0737V251.08ZM46.2159 246.883V243.2H47.4993C48.3463 243.2 48.8853 243.341 49.219 243.675C49.5013 243.957 49.6296 244.381 49.6296 244.984C49.6296 245.677 49.4628 246.152 49.1548 246.447C48.8083 246.768 48.2564 246.883 47.4608 246.883H46.2159ZM51.7939 251.08H52.8591V245.998C53.3083 245.715 53.8344 245.574 54.3863 245.574C54.566 245.574 54.797 245.587 54.9381 245.6V244.65C54.797 244.624 54.643 244.612 54.5275 244.612C53.9756 244.612 53.3468 244.83 52.7436 245.33L52.6794 244.791H51.7939V251.08ZM58.2813 251.259C58.8588 251.259 59.6031 251.169 60.1422 251.015L60.0395 250.22C59.5518 250.322 58.9358 250.387 58.4866 250.387C57.6909 250.387 57.2161 250.22 56.8824 249.912C56.5102 249.565 56.3306 249.001 56.3306 248.308H60.386C60.4887 248.308 60.54 248.269 60.54 248.166V247.923C60.54 245.856 59.693 244.612 57.9348 244.612C56.3306 244.612 55.2141 245.702 55.2141 247.948C55.2141 249.078 55.4707 249.937 56.0354 250.502C56.5487 251.015 57.3059 251.259 58.2813 251.259ZM56.3306 247.525C56.3434 246.254 56.8696 245.471 57.9348 245.471C58.9871 245.471 59.4491 246.318 59.4876 247.525H56.3306ZM64.5679 251.259C65.0299 251.259 65.7358 251.169 66.1465 251.054L66.0695 250.258C65.7486 250.322 65.1839 250.387 64.7604 250.387C63.9904 250.387 63.4514 250.207 63.0921 249.796C62.7456 249.398 62.5659 248.795 62.5659 248C62.5659 246.331 63.2332 245.471 64.7091 245.471C65.1069 245.471 65.6203 245.548 66.0181 245.625L66.0823 244.804C65.646 244.689 65.0684 244.612 64.5808 244.612C63.6182 244.612 62.8097 244.894 62.2707 245.471C61.7317 246.049 61.4494 246.909 61.4494 248.012C61.4494 249.116 61.7574 249.937 62.2836 250.476C62.7969 251.003 63.5412 251.259 64.5679 251.259ZM67.8302 243.598H67.8943C68.2793 243.598 68.5232 243.405 68.5232 242.917V242.892C68.5232 242.404 68.2793 242.212 67.8943 242.212H67.8302C67.4452 242.212 67.2013 242.404 67.2013 242.892V242.917C67.2013 243.405 67.4452 243.598 67.8302 243.598ZM67.3297 251.08H68.3949V244.791H67.3297V251.08ZM72.4832 251.259C74.4339 251.259 75.345 250.027 75.345 247.935C75.345 245.844 74.4339 244.612 72.4832 244.612C70.5324 244.612 69.6213 245.844 69.6213 247.935C69.6213 250.027 70.5324 251.259 72.4832 251.259ZM72.4832 250.387C71.1998 250.387 70.7378 249.54 70.7378 247.935C70.7378 246.331 71.1998 245.484 72.4832 245.484C73.7665 245.484 74.2285 246.331 74.2285 247.935C74.2285 249.54 73.7665 250.387 72.4832 250.387ZM78.9164 251.08H79.9816V245.998C80.4308 245.715 80.9569 245.574 81.5088 245.574C81.6884 245.574 81.9195 245.587 82.0606 245.6V244.65C81.9195 244.624 81.7654 244.612 81.6499 244.612C81.0981 244.612 80.4693 244.83 79.8661 245.33L79.8019 244.791H78.9164V251.08ZM85.4038 251.259C85.9813 251.259 86.7256 251.169 87.2646 251.015L87.162 250.22C86.6743 250.322 86.0583 250.387 85.6091 250.387C84.8134 250.387 84.3386 250.22 84.0049 249.912C83.6327 249.565 83.4531 249.001 83.4531 248.308H87.5085C87.6111 248.308 87.6625 248.269 87.6625 248.166V247.923C87.6625 245.856 86.8155 244.612 85.0573 244.612C83.4531 244.612 82.3365 245.702 82.3365 247.948C82.3365 249.078 82.5932 249.937 83.1579 250.502C83.6712 251.015 84.4284 251.259 85.4038 251.259ZM83.4531 247.525C83.4659 246.254 83.9921 245.471 85.0573 245.471C86.1096 245.471 86.5716 246.318 86.6101 247.525H83.4531ZM91.3311 254.147C93.4615 254.147 94.3085 253.441 94.3085 252.171C94.3085 251.657 94.1673 251.221 93.8465 250.9C93.4358 250.489 92.8198 250.31 91.7161 250.31H90.5097C90.1632 250.31 89.9964 250.194 89.9964 249.925C89.9964 249.706 90.1504 249.373 90.3429 249.155C90.6381 249.244 90.9589 249.283 91.3311 249.283C93.0508 249.283 93.8593 248.308 93.8593 246.947C93.8593 246.049 93.5 245.305 92.7428 244.92L93.6155 243.431C93.4101 243.264 93.0251 243.084 92.7299 243.02L91.9728 244.663C91.7803 244.637 91.5621 244.612 91.3311 244.612C89.6114 244.612 88.8029 245.587 88.8029 246.947C88.8029 247.769 89.098 248.436 89.6884 248.847C89.2392 249.283 88.944 249.796 88.944 250.297C88.944 250.579 89.0339 250.81 89.2392 250.977C88.8029 251.285 88.5205 251.824 88.5205 252.376C88.5205 253.492 89.3932 254.147 91.3311 254.147ZM91.3311 248.436C90.2916 248.436 89.8167 247.91 89.8167 246.947C89.8167 245.985 90.2916 245.459 91.3311 245.459C92.3706 245.459 92.8454 245.985 92.8454 246.947C92.8454 247.91 92.3706 248.436 91.3311 248.436ZM91.4338 253.249C90.0349 253.249 89.5215 252.864 89.5215 252.183C89.5215 251.85 89.6627 251.503 89.8937 251.221C90.0221 251.246 90.1761 251.259 90.3557 251.259H91.7161C92.3449 251.259 92.7556 251.336 92.9995 251.516C93.2048 251.67 93.3075 251.901 93.3075 252.209C93.3075 252.864 92.7684 253.249 91.4338 253.249ZM97.2826 251.259C98.0141 251.259 98.7713 251.015 99.4258 250.618L99.4771 251.08H100.363V244.791H99.2974V249.912C98.7841 250.156 98.1296 250.322 97.5649 250.322C97.1029 250.322 96.7692 250.22 96.551 250.002C96.3329 249.783 96.243 249.475 96.243 248.936V244.791H95.1779V249.065C95.1779 249.848 95.3575 250.361 95.704 250.707C96.0634 251.08 96.6024 251.259 97.2826 251.259ZM101.915 251.08H102.981V241.904H101.915V251.08ZM106.338 251.259C107.095 251.259 107.762 251.015 108.314 250.656L108.379 251.08H109.238V246.896C109.238 246.075 109.084 245.574 108.687 245.189C108.289 244.817 107.66 244.612 106.723 244.612C106.12 244.612 105.401 244.689 104.811 244.83L104.849 245.651C105.465 245.548 106.068 245.497 106.543 245.497C107.172 245.497 107.583 245.613 107.852 245.869C108.083 246.1 108.173 246.421 108.173 246.934V247.332H106.864C105.953 247.332 105.209 247.499 104.734 247.935C104.4 248.243 104.195 248.705 104.195 249.296C104.195 249.886 104.387 250.335 104.695 250.656C105.08 251.054 105.658 251.259 106.338 251.259ZM106.569 250.399C105.748 250.399 105.273 250.027 105.273 249.27C105.273 248.885 105.401 248.616 105.619 248.436C105.914 248.205 106.364 248.115 107.018 248.115H108.173V249.989C107.711 250.22 107.082 250.399 106.569 250.399ZM110.751 251.08H111.816V245.998C112.266 245.715 112.792 245.574 113.344 245.574C113.523 245.574 113.754 245.587 113.895 245.6V244.65C113.754 244.624 113.6 244.612 113.485 244.612C112.933 244.612 112.304 244.83 111.701 245.33L111.637 244.791H110.751V251.08ZM115.307 247.268H115.396C115.781 247.268 116.038 247.076 116.038 246.575V246.524C116.038 246.023 115.781 245.831 115.396 245.831H115.307C114.922 245.831 114.665 246.023 114.665 246.524V246.575C114.665 247.076 114.922 247.268 115.307 247.268ZM115.307 251.259H115.396C115.781 251.259 116.038 251.067 116.038 250.566V250.515C116.038 250.014 115.781 249.822 115.396 249.822H115.307C114.922 249.822 114.665 250.014 114.665 250.515V250.566C114.665 251.067 114.922 251.259 115.307 251.259ZM122.168 251.259C123.182 251.259 123.965 251.015 124.491 250.515C124.928 250.104 125.184 249.501 125.184 248.731C125.184 245.728 120.667 246.408 120.667 244.406C120.667 243.469 121.398 243.084 122.592 243.084C123.169 243.084 123.849 243.174 124.491 243.341L124.658 242.468C124.055 242.263 123.259 242.135 122.502 242.135C120.757 242.135 119.589 242.93 119.589 244.483C119.589 247.499 124.093 246.639 124.093 248.847C124.093 249.321 123.926 249.668 123.618 249.912C123.272 250.181 122.784 250.31 122.066 250.31C121.36 250.31 120.538 250.156 119.871 249.963L119.679 250.836C120.346 251.105 121.36 251.259 122.168 251.259ZM126.108 251.259H127.147L130.933 242.135H129.894L126.108 251.259ZM137.032 251.259C138.791 251.259 139.958 250.297 139.958 248.808C139.958 247.602 139.022 246.973 138.008 246.46C138.996 245.985 139.599 245.215 139.599 244.239C139.599 243.11 138.624 242.135 137.084 242.135C135.582 242.135 134.53 243.046 134.53 244.368C134.53 245.42 135.159 246.023 135.929 246.472C134.928 246.973 134.183 247.833 134.183 248.924C134.183 250.31 135.249 251.259 137.032 251.259ZM137.225 246.075C136.314 245.625 135.531 245.163 135.531 244.304C135.531 243.521 136.16 243.007 137.097 243.007C138.008 243.007 138.611 243.572 138.611 244.316C138.611 245.035 138.11 245.625 137.225 246.075ZM137.045 250.374C135.929 250.374 135.236 249.835 135.236 248.847C135.236 247.961 135.877 247.307 136.737 246.883C137.815 247.396 138.893 247.833 138.893 248.911C138.893 249.848 138.162 250.374 137.045 250.374ZM143.895 251.259C146.077 251.259 146.911 249.565 146.911 246.703C146.911 243.842 146.077 242.135 143.895 242.135C141.714 242.135 140.879 243.842 140.879 246.703C140.879 249.565 141.714 251.259 143.895 251.259ZM143.895 250.348C142.471 250.348 141.996 249.155 141.996 246.703C141.996 244.252 142.471 243.046 143.895 243.046C145.32 243.046 145.795 244.252 145.795 246.703C145.795 249.155 145.32 250.348 143.895 250.348Z" fill="white"/>
<path d="M120.483 249.662L149.213 242.167" stroke="white" stroke-width="1.24914" stroke-linecap="round"/>
</svg>
