<svg width="341" height="310" viewBox="0 0 341 310" fill="none" xmlns="http://www.w3.org/2000/svg">
<path d="M20.0686 55.8504C23.6401 55.8504 27.7786 55.3401 30.4997 54.5465L30.7265 47.4601C28.1187 47.9703 24.7739 48.3105 22.1662 48.3105C18.4812 48.3105 15.8735 47.6302 14.2294 45.4759C12.8122 43.6618 12.4153 40.9973 12.4153 38.4462C12.4153 33.5141 13.8893 28.0718 16.2136 24.4436C18.9915 20.0784 22.6197 19.0579 26.3613 19.0579C29.536 19.0579 32.5406 19.7949 35.1484 20.5319L37.5861 13.6156C33.9579 12.4251 30.1029 11.518 25.5676 11.518C19.7285 11.518 14.1727 13.0487 9.80753 17.6974C4.64866 23.1964 2.32433 31.8134 2.32433 38.9565C2.32433 50.5214 8.44695 55.8504 20.0686 55.8504ZM55.9721 55.8504C64.5892 55.8504 70.7685 52.3922 74.6235 45.7594C77.5147 40.8273 79.102 34.1377 79.102 28.3553C79.102 16.3935 72.3558 11.518 62.3782 11.518C53.5911 11.518 47.6386 15.3163 43.897 21.6657C41.0624 26.4845 39.3617 33.0606 39.3617 39.0132C39.3617 50.9183 46.1079 55.8504 55.9721 55.8504ZM56.539 48.2538C52.2305 48.2538 49.4527 45.9294 49.4527 39.1265C49.4527 34.6479 50.6432 29.3757 52.6841 25.464C54.7249 21.5523 57.5595 19.1713 61.9247 19.1713C66.2332 19.1713 69.0677 21.439 69.0677 28.2986C69.0677 32.7205 67.8772 38.0494 65.8364 41.9611C63.7955 45.8161 60.9609 48.2538 56.539 48.2538ZM82.7971 55H91.3575L96.0061 28.4686L111.029 55H118.683L126.222 12.3684H117.662L112.73 40.2604L97.31 12.3684H90.2803L82.7971 55ZM142.367 55H171.506L172.64 47.9703H153.365L155.236 37.029H169.862L171.166 29.7158H156.54L158.297 19.3981H176.665L178.649 12.3684H149.85L142.367 55ZM179.515 55H208.144L209.334 47.9703H190.4L196.692 12.3684H186.998L179.515 55ZM1.70073 112H11.3949L18.8781 69.3684H9.12724L1.70073 112ZM21.8987 112H30.459L35.1076 85.4686L50.1307 112H57.784L65.3239 69.3684H56.7636L51.8315 97.2604L36.4115 69.3684H29.3819L21.8987 112ZM77.5435 112H87.2943L93.5303 76.3981H106.399L108.44 69.3684H71.8177L70.5705 76.3981H83.7795L77.5435 112ZM107.157 112H136.296L137.429 104.97H118.155L120.025 94.029H134.652L135.956 86.7158H121.329L123.087 76.3981H141.455L143.439 69.3684H114.64L107.157 112ZM144.305 112H154.055L156.72 96.5234H162.446L167.435 112H177.866L171.233 94.936C174.748 93.5754 177.469 91.4212 178.886 89.437C180.303 87.4528 181.21 84.5616 181.21 81.4436C181.21 77.7587 179.963 74.5273 177.582 72.4864C175.258 70.5022 171.63 69.3684 166.301 69.3684H151.788L144.305 112ZM157.967 89.4937L160.235 76.3981H165.11C167.945 76.3981 169.475 77.0784 170.326 77.9287C171.063 78.6657 171.573 79.9696 171.573 81.6137C171.573 83.7112 170.779 85.8088 169.249 87.2827C167.435 88.9835 164.997 89.4937 161.709 89.4937H157.967ZM185.771 112H194.331L198.98 85.4686L214.003 112H221.656L229.196 69.3684H220.636L215.704 97.2604L200.284 69.3684H193.254L185.771 112ZM231.722 112H260.861L261.995 104.97H242.72L244.59 94.029H259.217L260.521 86.7158H245.894L247.652 76.3981H266.02L268.004 69.3684H239.205L231.722 112ZM279.837 112H289.588L295.824 76.3981H308.693L310.734 69.3684H274.111L272.864 76.3981H286.073L279.837 112ZM1.30389 169H9.46739L14.0027 143.319L20.2387 159.249H27.7219L39.2301 144.113L34.9216 169H43.8221L51.3053 126.368H43.3119L25.3975 149.895L16.2703 126.368H8.7871L1.30389 169ZM71.5289 169.85C80.1459 169.85 86.3253 166.392 90.1802 159.759C93.0715 154.827 94.6588 148.138 94.6588 142.355C94.6588 130.393 87.9126 125.518 77.935 125.518C69.1479 125.518 63.1954 129.316 59.4537 135.666C56.6192 140.484 54.9185 147.061 54.9185 153.013C54.9185 164.918 61.6647 169.85 71.5289 169.85ZM72.0958 162.254C67.7873 162.254 65.0095 159.929 65.0095 153.127C65.0095 148.648 66.2 143.376 68.2408 139.464C70.2817 135.552 73.1163 133.171 77.4815 133.171C81.79 133.171 84.6245 135.439 84.6245 142.299C84.6245 146.72 83.434 152.049 81.3931 155.961C79.3523 159.816 76.5177 162.254 72.0958 162.254ZM108.249 169H118.793L140.449 126.368H130.472L115.619 157.775L110.97 126.368H100.879L108.249 169ZM139.497 169H149.192L156.675 126.368H146.924L139.497 169ZM173.131 169.85C178.573 169.85 183.222 168.717 186.51 166.336C190.025 163.784 191.442 160.213 191.442 156.131C191.442 150.519 188.778 147.061 182.769 144.566L179.084 143.036C174.435 141.108 172.791 139.691 172.791 137.593C172.791 134.419 176.362 133.001 180.898 133.001C183.902 133.001 187.304 133.625 190.705 134.645L193.143 127.786C188.891 126.368 184.753 125.518 180.558 125.518C175.682 125.518 171.657 126.652 168.709 128.693C165.251 131.074 163.494 134.589 163.494 138.727C163.494 144.283 166.668 147.684 172.848 150.179L176.533 151.653C180.501 153.24 181.975 154.827 181.975 157.152C181.975 161.347 177.156 162.367 173.074 162.367C169.106 162.367 164.231 161.403 160.772 160.1L158.845 167.299C163.607 169.057 168.539 169.85 173.131 169.85ZM206.095 169H215.845L222.081 133.398H234.95L236.991 126.368H200.369L199.122 133.398H212.331L206.095 169ZM229.132 169H238.883L244.042 158.285H257.874L259.575 169H269.553L261.616 126.368H250.901L229.132 169ZM247.5 151.256L254.53 136.403H254.643L256.74 151.256H247.5ZM275.679 169H285.43L288.095 153.523H293.82L298.809 169H309.24L302.607 151.936C306.122 150.575 308.843 148.421 310.261 146.437C311.678 144.453 312.585 141.562 312.585 138.444C312.585 134.759 311.338 131.527 308.957 129.486C306.632 127.502 303.004 126.368 297.675 126.368H283.162L275.679 169ZM289.342 146.494L291.609 133.398H296.485C299.319 133.398 300.85 134.078 301.7 134.929C302.437 135.666 302.948 136.97 302.948 138.614C302.948 140.711 302.154 142.809 300.623 144.283C298.809 145.983 296.371 146.494 293.083 146.494H289.342Z" fill="white"/>
<path d="M1.1744 295H2.28254L2.99583 292.682H6.29478L7.05901 295H8.24358L5.23759 286.288H3.93838L1.1744 295ZM3.27605 291.79L4.58799 287.485H4.60072L6.00182 291.79H3.27605ZM9.36217 297.866H10.4194V294.707C10.8779 295 11.553 295.178 12.2026 295.178C13.6928 295.178 14.6354 294.198 14.6354 291.854C14.6354 289.867 13.8584 288.58 12.2408 288.58C11.6676 288.58 10.9416 288.784 10.292 289.217L10.241 288.759H9.36217V297.866ZM11.9351 294.299C11.4001 294.299 10.7887 294.134 10.4194 293.917V289.905C10.9034 289.65 11.5275 289.485 12.0115 289.485C13.056 289.485 13.5273 290.249 13.5273 291.841C13.5273 293.624 13.0687 294.299 11.9351 294.299ZM16.1043 295H17.1614V285.893H16.1043V295ZM19.4747 287.574H19.5383C19.9205 287.574 20.1625 287.383 20.1625 286.899V286.874C20.1625 286.39 19.9205 286.199 19.5383 286.199H19.4747C19.0925 286.199 18.8505 286.39 18.8505 286.874V286.899C18.8505 287.383 19.0925 287.574 19.4747 287.574ZM18.9779 295H20.0351V288.759H18.9779V295ZM24.6022 295.178C25.0607 295.178 25.7613 295.089 26.1689 294.975L26.0925 294.185C25.774 294.249 25.2136 294.312 24.7933 294.312C24.029 294.312 23.4941 294.134 23.1374 293.726C22.7935 293.331 22.6152 292.733 22.6152 291.943C22.6152 290.287 23.2775 289.434 24.7423 289.434C25.1372 289.434 25.6467 289.51 26.0415 289.587L26.1052 288.771C25.6721 288.657 25.0989 288.58 24.6149 288.58C23.6596 288.58 22.8572 288.861 22.3222 289.434C21.7873 290.007 21.507 290.86 21.507 291.956C21.507 293.051 21.8127 293.866 22.335 294.401C22.8445 294.924 23.5832 295.178 24.6022 295.178ZM29.3435 295.178C30.095 295.178 30.7574 294.936 31.3051 294.58L31.3688 295H32.2222V290.848C32.2222 290.032 32.0693 289.536 31.6745 289.154C31.2796 288.784 30.6555 288.58 29.7257 288.58C29.127 288.58 28.4137 288.657 27.8278 288.797L27.866 289.612C28.4774 289.51 29.0761 289.459 29.5473 289.459C30.1715 289.459 30.5791 289.574 30.8465 289.829C31.0758 290.058 31.165 290.376 31.165 290.886V291.281H29.8658C28.9614 291.281 28.2227 291.446 27.7514 291.879C27.4202 292.185 27.2164 292.644 27.2164 293.23C27.2164 293.815 27.4075 294.261 27.7132 294.58C28.0953 294.975 28.6685 295.178 29.3435 295.178ZM29.5728 294.325C28.7576 294.325 28.2863 293.956 28.2863 293.204C28.2863 292.822 28.4137 292.554 28.6303 292.376C28.9232 292.147 29.369 292.058 30.0186 292.058H31.165V293.917C30.7064 294.147 30.0823 294.325 29.5728 294.325ZM33.9784 295H35.0356V289.956C35.4814 289.676 36.0036 289.536 36.5513 289.536C36.7297 289.536 36.9589 289.548 37.099 289.561V288.619C36.9589 288.593 36.8061 288.58 36.6914 288.58C36.1437 288.58 35.5196 288.797 34.921 289.294L34.8573 288.759H33.9784V295ZM39.2974 287.753L41.7302 286.007L41.1316 285.205L38.8898 287.192L39.2974 287.753ZM39.705 295.178C40.4565 295.178 41.1188 294.936 41.6665 294.58L41.7302 295H42.5836V290.848C42.5836 290.032 42.4308 289.536 42.0359 289.154C41.6411 288.784 41.0169 288.58 40.0871 288.58C39.4885 288.58 38.7752 288.657 38.1893 288.797L38.2275 289.612C38.8389 289.51 39.4375 289.459 39.9088 289.459C40.5329 289.459 40.9405 289.574 41.208 289.829C41.4373 290.058 41.5264 290.376 41.5264 290.886V291.281H40.2272C39.3229 291.281 38.5841 291.446 38.1128 291.879C37.7817 292.185 37.5779 292.644 37.5779 293.23C37.5779 293.815 37.7689 294.261 38.0746 294.58C38.4568 294.975 39.0299 295.178 39.705 295.178ZM39.9343 294.325C39.1191 294.325 38.6478 293.956 38.6478 293.204C38.6478 292.822 38.7752 292.554 38.9917 292.376C39.2847 292.147 39.7305 292.058 40.3801 292.058H41.5264V293.917C41.0679 294.147 40.4438 294.325 39.9343 294.325ZM44.3399 295H45.3971V289.918C45.9066 289.676 46.5816 289.51 47.1421 289.51C47.6006 289.51 47.9318 289.612 48.1483 289.829C48.3648 290.045 48.454 290.351 48.454 290.886V295H49.5112V290.758C49.5112 289.982 49.3329 289.472 48.989 289.128C48.6323 288.759 48.0974 288.58 47.4223 288.58C46.6963 288.58 45.9193 288.822 45.2697 289.217L45.2187 288.759H44.3399V295ZM53.8679 295H54.9251V289.956C55.3709 289.676 55.8932 289.536 56.4409 289.536C56.6192 289.536 56.8485 289.548 56.9886 289.561V288.619C56.8485 288.593 56.6956 288.58 56.581 288.58C56.0333 288.58 55.4091 288.797 54.8105 289.294L54.7468 288.759H53.8679V295ZM60.5614 295.178C61.1345 295.178 61.8733 295.089 62.4083 294.936L62.3064 294.147C61.8224 294.249 61.211 294.312 60.7652 294.312C59.9754 294.312 59.5042 294.147 59.173 293.841C58.8036 293.497 58.6253 292.937 58.6253 292.249H62.6503C62.7522 292.249 62.8031 292.211 62.8031 292.109V291.867C62.8031 289.816 61.9625 288.58 60.2175 288.58C58.6253 288.58 57.5172 289.663 57.5172 291.892C57.5172 293.013 57.7719 293.866 58.3323 294.427C58.8418 294.936 59.5933 295.178 60.5614 295.178ZM58.6253 291.472C58.638 290.211 59.1603 289.434 60.2175 289.434C61.2619 289.434 61.7205 290.274 61.7587 291.472H58.6253ZM65.9347 295.178C67.4377 295.178 68.4567 294.592 68.4567 293.268C68.4567 291.039 64.9794 291.701 64.9794 290.3C64.9794 289.714 65.4507 289.421 66.3423 289.421C66.8518 289.421 67.425 289.498 67.9854 289.625L68.0746 288.848C67.5778 288.695 66.8773 288.58 66.2531 288.58C64.9285 288.58 63.9859 289.166 63.9859 290.376C63.9859 292.669 67.4632 291.943 67.4632 293.344C67.4632 293.981 66.9155 294.325 65.8965 294.325C65.3488 294.325 64.661 294.236 64.1515 294.096L64.1005 294.911C64.5718 295.064 65.336 295.178 65.9347 295.178ZM72.1165 295.178C72.5751 295.178 73.0718 295.102 73.403 295.013L73.3521 294.236C73.0464 294.299 72.626 294.338 72.4095 294.338C71.9637 294.338 71.7472 294.249 71.6071 294.096C71.4287 293.905 71.3905 293.599 71.3905 293V289.536H73.0336V288.759H71.3905V287.103C71.0594 287.103 70.639 287.192 70.3333 287.294V288.771L69.1997 288.937V289.536H70.3333V293.14C70.3333 293.917 70.4225 294.338 70.7282 294.694C71.0084 295.013 71.5052 295.178 72.1165 295.178ZM74.6033 295H75.6605V289.956C76.1063 289.676 76.6285 289.536 77.1762 289.536C77.3545 289.536 77.5838 289.548 77.7239 289.561V288.619C77.5838 288.593 77.431 288.58 77.3163 288.58C76.7686 288.58 76.1445 288.797 75.5459 289.294L75.4822 288.759H74.6033V295ZM79.392 287.574H79.4557C79.8378 287.574 80.0798 287.383 80.0798 286.899V286.874C80.0798 286.39 79.8378 286.199 79.4557 286.199H79.392C79.0099 286.199 78.7679 286.39 78.7679 286.874V286.899C78.7679 287.383 79.0099 287.574 79.392 287.574ZM78.8953 295H79.9524V288.759H78.8953V295ZM84.5195 295.178C84.9781 295.178 85.6786 295.089 86.0862 294.975L86.0098 294.185C85.6914 294.249 85.1309 294.312 84.7106 294.312C83.9464 294.312 83.4114 294.134 83.0548 293.726C82.7109 293.331 82.5325 292.733 82.5325 291.943C82.5325 290.287 83.1949 289.434 84.6597 289.434C85.0545 289.434 85.564 289.51 85.9589 289.587L86.0225 288.771C85.5895 288.657 85.0163 288.58 84.5323 288.58C83.577 288.58 82.7745 288.861 82.2396 289.434C81.7046 290.007 81.4244 290.86 81.4244 291.956C81.4244 293.051 81.7301 293.866 82.2523 294.401C82.7618 294.924 83.5006 295.178 84.5195 295.178ZM90.1792 295.178C90.6377 295.178 91.3383 295.089 91.7459 294.975L91.6694 294.185C91.351 294.249 90.7906 294.312 90.3702 294.312C89.606 294.312 89.071 294.134 88.7144 293.726C88.3705 293.331 88.1922 292.733 88.1922 291.943C88.1922 290.287 88.8545 289.434 90.3193 289.434C90.7141 289.434 91.2236 289.51 91.6185 289.587L91.6822 288.771C91.2491 288.657 90.6759 288.58 90.1919 288.58C89.2366 288.58 88.4342 288.861 87.8992 289.434C87.3642 290.007 87.084 290.86 87.084 291.956C87.084 293.051 87.3897 293.866 87.9119 294.401C88.4214 294.924 89.1602 295.178 90.1792 295.178ZM93.6717 287.574H93.7353C94.1175 287.574 94.3595 287.383 94.3595 286.899V286.874C94.3595 286.39 94.1175 286.199 93.7353 286.199H93.6717C93.2895 286.199 93.0475 286.39 93.0475 286.874V286.899C93.0475 287.383 93.2895 287.574 93.6717 287.574ZM93.1749 295H94.2321V288.759H93.1749V295ZM98.5445 295.178C100.481 295.178 101.385 293.956 101.385 291.879C101.385 289.803 100.481 288.58 98.5445 288.58C96.6084 288.58 95.7041 289.803 95.7041 291.879C95.7041 293.956 96.6084 295.178 98.5445 295.178ZM98.5445 294.312C97.2707 294.312 96.8122 293.472 96.8122 291.879C96.8122 290.287 97.2707 289.447 98.5445 289.447C99.8182 289.447 100.277 290.287 100.277 291.879C100.277 293.472 99.8182 294.312 98.5445 294.312ZM102.839 295H103.896V289.918C104.406 289.676 105.081 289.51 105.641 289.51C106.1 289.51 106.431 289.612 106.648 289.829C106.864 290.045 106.953 290.351 106.953 290.886V295H108.011V290.758C108.011 289.982 107.832 289.472 107.488 289.128C107.132 288.759 106.597 288.58 105.922 288.58C105.196 288.58 104.419 288.822 103.769 289.217L103.718 288.759H102.839V295ZM112.481 295.178C113.054 295.178 113.793 295.089 114.328 294.936L114.226 294.147C113.742 294.249 113.13 294.312 112.684 294.312C111.895 294.312 111.423 294.147 111.092 293.841C110.723 293.497 110.545 292.937 110.545 292.249H114.57C114.671 292.249 114.722 292.211 114.722 292.109V291.867C114.722 289.816 113.882 288.58 112.137 288.58C110.545 288.58 109.436 289.663 109.436 291.892C109.436 293.013 109.691 293.866 110.252 294.427C110.761 294.936 111.513 295.178 112.481 295.178ZM110.545 291.472C110.557 290.211 111.08 289.434 112.137 289.434C113.181 289.434 113.64 290.274 113.678 291.472H110.545ZM117.854 295.178C119.357 295.178 120.376 294.592 120.376 293.268C120.376 291.039 116.899 291.701 116.899 290.3C116.899 289.714 117.37 289.421 118.262 289.421C118.771 289.421 119.344 289.498 119.905 289.625L119.994 288.848C119.497 288.695 118.797 288.58 118.172 288.58C116.848 288.58 115.905 289.166 115.905 290.376C115.905 292.669 119.382 291.943 119.382 293.344C119.382 293.981 118.835 294.325 117.816 294.325C117.268 294.325 116.58 294.236 116.071 294.096L116.02 294.911C116.491 295.064 117.255 295.178 117.854 295.178ZM126.992 298.044C127.935 298.044 128.597 297.815 129.017 297.356C129.412 296.936 129.591 296.325 129.591 295.484V288.759H128.533V293.841C128.024 294.083 127.374 294.249 126.814 294.249C126.355 294.249 126.024 294.147 125.808 293.93C125.591 293.714 125.502 293.408 125.502 292.873V288.759H124.445V293C124.445 293.777 124.623 294.287 124.967 294.631C125.324 295 125.859 295.178 126.534 295.178C127.209 295.178 127.909 294.975 128.533 294.618V295.471C128.533 296.172 128.406 296.567 128.138 296.821C127.858 297.076 127.412 297.165 126.839 297.165C126.534 297.165 125.948 297.127 125.642 297.089L125.731 297.917C126.011 297.981 126.572 298.044 126.992 298.044ZM133.973 297.866H135.031V294.707C135.489 295 136.164 295.178 136.814 295.178C138.304 295.178 139.247 294.198 139.247 291.854C139.247 289.867 138.47 288.58 136.852 288.58C136.279 288.58 135.553 288.784 134.903 289.217L134.852 288.759H133.973V297.866ZM136.546 294.299C136.011 294.299 135.4 294.134 135.031 293.917V289.905C135.515 289.65 136.139 289.485 136.623 289.485C137.667 289.485 138.138 290.249 138.138 291.841C138.138 293.624 137.68 294.299 136.546 294.299ZM140.703 295H141.76V289.956C142.206 289.676 142.728 289.536 143.276 289.536C143.454 289.536 143.683 289.548 143.823 289.561V288.619C143.683 288.593 143.53 288.58 143.416 288.58C142.868 288.58 142.244 288.797 141.645 289.294L141.582 288.759H140.703V295ZM147.192 295.178C149.128 295.178 150.033 293.956 150.033 291.879C150.033 289.803 149.128 288.58 147.192 288.58C145.256 288.58 144.352 289.803 144.352 291.879C144.352 293.956 145.256 295.178 147.192 295.178ZM147.192 294.312C145.919 294.312 145.46 293.472 145.46 291.879C145.46 290.287 145.919 289.447 147.192 289.447C148.466 289.447 148.925 290.287 148.925 291.879C148.925 293.472 148.466 294.312 147.192 294.312ZM153.652 295.178C154.111 295.178 154.608 295.102 154.939 295.013L154.888 294.236C154.582 294.299 154.162 294.338 153.945 294.338C153.5 294.338 153.283 294.249 153.143 294.096C152.965 293.905 152.926 293.599 152.926 293V289.536H154.569V288.759H152.926V287.103C152.595 287.103 152.175 287.192 151.869 287.294V288.771L150.736 288.937V289.536H151.869V293.14C151.869 293.917 151.958 294.338 152.264 294.694C152.544 295.013 153.041 295.178 153.652 295.178ZM158.648 295.178C160.584 295.178 161.489 293.956 161.489 291.879C161.489 289.803 160.584 288.58 158.648 288.58C156.712 288.58 155.808 289.803 155.808 291.879C155.808 293.956 156.712 295.178 158.648 295.178ZM158.648 294.312C157.375 294.312 156.916 293.472 156.916 291.879C156.916 290.287 157.375 289.447 158.648 289.447C159.922 289.447 160.381 290.287 160.381 291.879C160.381 293.472 159.922 294.312 158.648 294.312ZM165.707 295.178C166.166 295.178 166.866 295.089 167.274 294.975L167.197 294.185C166.879 294.249 166.319 294.312 165.898 294.312C165.134 294.312 164.599 294.134 164.242 293.726C163.898 293.331 163.72 292.733 163.72 291.943C163.72 290.287 164.382 289.434 165.847 289.434C166.242 289.434 166.752 289.51 167.146 289.587L167.21 288.771C166.777 288.657 166.204 288.58 165.72 288.58C164.765 288.58 163.962 288.861 163.427 289.434C162.892 290.007 162.612 290.86 162.612 291.956C162.612 293.051 162.918 293.866 163.44 294.401C163.949 294.924 164.688 295.178 165.707 295.178ZM171.112 295.178C173.048 295.178 173.952 293.956 173.952 291.879C173.952 289.803 173.048 288.58 171.112 288.58C169.176 288.58 168.272 289.803 168.272 291.879C168.272 293.956 169.176 295.178 171.112 295.178ZM171.112 294.312C169.838 294.312 169.38 293.472 169.38 291.879C169.38 290.287 169.838 289.447 171.112 289.447C172.386 289.447 172.844 290.287 172.844 291.879C172.844 293.472 172.386 294.312 171.112 294.312ZM175.419 295H176.477V285.893H175.419V295ZM180.777 295.178C182.713 295.178 183.617 293.956 183.617 291.879C183.617 289.803 182.713 288.58 180.777 288.58C178.841 288.58 177.936 289.803 177.936 291.879C177.936 293.956 178.841 295.178 180.777 295.178ZM180.777 294.312C179.503 294.312 179.045 293.472 179.045 291.879C179.045 290.287 179.503 289.447 180.777 289.447C182.051 289.447 182.509 290.287 182.509 291.879C182.509 293.472 182.051 294.312 180.777 294.312ZM186.715 295.178C188.218 295.178 189.237 294.592 189.237 293.268C189.237 291.039 185.759 291.701 185.759 290.3C185.759 289.714 186.231 289.421 187.122 289.421C187.632 289.421 188.205 289.498 188.765 289.625L188.855 288.848C188.358 288.695 187.657 288.58 187.033 288.58C185.708 288.58 184.766 289.166 184.766 290.376C184.766 292.669 188.243 291.943 188.243 293.344C188.243 293.981 187.696 294.325 186.677 294.325C186.129 294.325 185.441 294.236 184.932 294.096L184.881 294.911C185.352 295.064 186.116 295.178 186.715 295.178ZM195.509 295.178C196.095 295.178 196.846 294.949 197.356 294.618L197.432 295H198.298V285.893H197.241V289.026C196.745 288.746 196.12 288.58 195.585 288.58C193.955 288.58 193 289.854 193 291.918C193 294.083 193.917 295.178 195.509 295.178ZM195.802 294.312C194.681 294.312 194.108 293.573 194.108 291.93C194.108 290.466 194.528 289.472 195.802 289.472C196.222 289.472 196.783 289.599 197.241 289.778V293.943C196.795 294.159 196.248 294.312 195.802 294.312ZM202.798 295.178C203.371 295.178 204.11 295.089 204.645 294.936L204.543 294.147C204.059 294.249 203.448 294.312 203.002 294.312C202.212 294.312 201.741 294.147 201.41 293.841C201.04 293.497 200.862 292.937 200.862 292.249H204.887C204.989 292.249 205.04 292.211 205.04 292.109V291.867C205.04 289.816 204.199 288.58 202.454 288.58C200.862 288.58 199.754 289.663 199.754 291.892C199.754 293.013 200.009 293.866 200.569 294.427C201.079 294.936 201.83 295.178 202.798 295.178ZM200.862 291.472C200.875 290.211 201.397 289.434 202.454 289.434C203.499 289.434 203.957 290.274 203.996 291.472H200.862ZM210.771 295.178C212.274 295.178 213.293 294.592 213.293 293.268C213.293 291.039 209.816 291.701 209.816 290.3C209.816 289.714 210.287 289.421 211.179 289.421C211.688 289.421 212.261 289.498 212.822 289.625L212.911 288.848C212.414 288.695 211.714 288.58 211.09 288.58C209.765 288.58 208.822 289.166 208.822 290.376C208.822 292.669 212.3 291.943 212.3 293.344C212.3 293.981 211.752 294.325 210.733 294.325C210.185 294.325 209.498 294.236 208.988 294.096L208.937 294.911C209.408 295.064 210.173 295.178 210.771 295.178ZM217.501 295.178C218.074 295.178 218.813 295.089 219.348 294.936L219.246 294.147C218.762 294.249 218.15 294.312 217.705 294.312C216.915 294.312 216.444 294.147 216.112 293.841C215.743 293.497 215.565 292.937 215.565 292.249H219.59C219.692 292.249 219.743 292.211 219.743 292.109V291.867C219.743 289.816 218.902 288.58 217.157 288.58C215.565 288.58 214.457 289.663 214.457 291.892C214.457 293.013 214.711 293.866 215.272 294.427C215.781 294.936 216.533 295.178 217.501 295.178ZM215.565 291.472C215.577 290.211 216.1 289.434 217.157 289.434C218.201 289.434 218.66 290.274 218.698 291.472H215.565ZM223.638 298.044C225.753 298.044 226.593 297.344 226.593 296.083C226.593 295.573 226.453 295.14 226.135 294.822C225.727 294.414 225.116 294.236 224.02 294.236H222.823C222.479 294.236 222.314 294.121 222.314 293.854C222.314 293.637 222.467 293.306 222.658 293.089C222.951 293.179 223.269 293.217 223.638 293.217C225.345 293.217 226.148 292.249 226.148 290.899C226.148 290.007 225.791 289.268 225.039 288.886L225.906 287.409C225.702 287.243 225.32 287.065 225.027 287.001L224.275 288.631C224.084 288.606 223.868 288.58 223.638 288.58C221.932 288.58 221.129 289.548 221.129 290.899C221.129 291.714 221.422 292.376 222.008 292.784C221.562 293.217 221.269 293.726 221.269 294.223C221.269 294.503 221.358 294.733 221.562 294.898C221.129 295.204 220.849 295.739 220.849 296.286C220.849 297.395 221.715 298.044 223.638 298.044ZM223.638 292.376C222.607 292.376 222.135 291.854 222.135 290.899C222.135 289.943 222.607 289.421 223.638 289.421C224.67 289.421 225.141 289.943 225.141 290.899C225.141 291.854 224.67 292.376 223.638 292.376ZM223.74 297.153C222.352 297.153 221.842 296.77 221.842 296.095C221.842 295.764 221.983 295.42 222.212 295.14C222.339 295.166 222.492 295.178 222.67 295.178H224.02C224.645 295.178 225.052 295.255 225.294 295.433C225.498 295.586 225.6 295.815 225.6 296.121C225.6 296.77 225.065 297.153 223.74 297.153ZM229.8 295.178C230.526 295.178 231.277 294.936 231.927 294.541L231.978 295H232.857V288.759H231.8V293.841C231.29 294.083 230.641 294.249 230.08 294.249C229.622 294.249 229.29 294.147 229.074 293.93C228.857 293.714 228.768 293.408 228.768 292.873V288.759H227.711V293C227.711 293.777 227.889 294.287 228.233 294.631C228.59 295 229.125 295.178 229.8 295.178ZM234.64 295H235.697V289.956C236.143 289.676 236.665 289.536 237.213 289.536C237.391 289.536 237.62 289.548 237.761 289.561V288.619C237.62 288.593 237.468 288.58 237.353 288.58C236.805 288.58 236.181 288.797 235.583 289.294L235.519 288.759H234.64V295ZM239.429 287.574H239.492C239.874 287.574 240.116 287.383 240.116 286.899V286.874C240.116 286.39 239.874 286.199 239.492 286.199H239.429C239.047 286.199 238.805 286.39 238.805 286.874V286.899C238.805 287.383 239.047 287.574 239.429 287.574ZM238.932 295H239.989V288.759H238.932V295ZM243.97 295.178C244.556 295.178 245.308 294.949 245.817 294.618L245.894 295H246.76V285.893H245.703V289.026C245.206 288.746 244.582 288.58 244.047 288.58C242.416 288.58 241.461 289.854 241.461 291.918C241.461 294.083 242.378 295.178 243.97 295.178ZM244.263 294.312C243.142 294.312 242.569 293.573 242.569 291.93C242.569 290.466 242.99 289.472 244.263 289.472C244.684 289.472 245.244 289.599 245.703 289.778V293.943C245.257 294.159 244.709 294.312 244.263 294.312ZM250.342 295.178C251.094 295.178 251.756 294.936 252.304 294.58L252.368 295H253.221V290.848C253.221 290.032 253.068 289.536 252.673 289.154C252.278 288.784 251.654 288.58 250.725 288.58C250.126 288.58 249.413 288.657 248.827 288.797L248.865 289.612C249.476 289.51 250.075 289.459 250.546 289.459C251.17 289.459 251.578 289.574 251.845 289.829C252.075 290.058 252.164 290.376 252.164 290.886V291.281H250.865C249.96 291.281 249.222 291.446 248.75 291.879C248.419 292.185 248.215 292.644 248.215 293.23C248.215 293.815 248.406 294.261 248.712 294.58C249.094 294.975 249.667 295.178 250.342 295.178ZM250.572 294.325C249.757 294.325 249.285 293.956 249.285 293.204C249.285 292.822 249.413 292.554 249.629 292.376C249.922 292.147 250.368 292.058 251.017 292.058H252.164V293.917C251.705 294.147 251.081 294.325 250.572 294.325ZM257.155 295.178C257.741 295.178 258.493 294.949 259.002 294.618L259.079 295H259.945V285.893H258.888V289.026C258.391 288.746 257.767 288.58 257.232 288.58C255.601 288.58 254.646 289.854 254.646 291.918C254.646 294.083 255.563 295.178 257.155 295.178ZM257.448 294.312C256.327 294.312 255.754 293.573 255.754 291.93C255.754 290.466 256.175 289.472 257.448 289.472C257.869 289.472 258.429 289.599 258.888 289.778V293.943C258.442 294.159 257.894 294.312 257.448 294.312ZM266.509 295.178C267.095 295.178 267.847 294.949 268.356 294.618L268.433 295H269.299V285.893H268.242V289.026C267.745 288.746 267.121 288.58 266.586 288.58C264.955 288.58 264 289.854 264 291.918C264 294.083 264.917 295.178 266.509 295.178ZM266.802 294.312C265.681 294.312 265.108 293.573 265.108 291.93C265.108 290.466 265.529 289.472 266.802 289.472C267.223 289.472 267.783 289.599 268.242 289.778V293.943C267.796 294.159 267.248 294.312 266.802 294.312ZM273.798 295.178C274.372 295.178 275.11 295.089 275.645 294.936L275.543 294.147C275.059 294.249 274.448 294.312 274.002 294.312C273.213 294.312 272.741 294.147 272.41 293.841C272.041 293.497 271.862 292.937 271.862 292.249H275.887C275.989 292.249 276.04 292.211 276.04 292.109V291.867C276.04 289.816 275.2 288.58 273.455 288.58C271.862 288.58 270.754 289.663 270.754 291.892C270.754 293.013 271.009 293.866 271.569 294.427C272.079 294.936 272.83 295.178 273.798 295.178ZM271.862 291.472C271.875 290.211 272.397 289.434 273.455 289.434C274.499 289.434 274.958 290.274 274.996 291.472H271.862ZM280.651 287.574H280.714C281.096 287.574 281.338 287.383 281.338 286.899V286.874C281.338 286.39 281.096 286.199 280.714 286.199H280.651C280.269 286.199 280.026 286.39 280.026 286.874V286.899C280.026 287.383 280.269 287.574 280.651 287.574ZM280.154 295H281.211V288.759H280.154V295ZM283.014 295H284.071V289.918C284.581 289.676 285.256 289.51 285.816 289.51C286.275 289.51 286.606 289.612 286.823 289.829C287.039 290.045 287.128 290.351 287.128 290.886V295H288.185V290.758C288.185 289.982 288.007 289.472 287.663 289.128C287.307 288.759 286.772 288.58 286.097 288.58C285.371 288.58 284.594 288.822 283.944 289.217L283.893 288.759H283.014V295ZM291.586 295.178C293.089 295.178 294.108 294.592 294.108 293.268C294.108 291.039 290.63 291.701 290.63 290.3C290.63 289.714 291.102 289.421 291.993 289.421C292.503 289.421 293.076 289.498 293.636 289.625L293.726 288.848C293.229 288.695 292.528 288.58 291.904 288.58C290.579 288.58 289.637 289.166 289.637 290.376C289.637 292.669 293.114 291.943 293.114 293.344C293.114 293.981 292.566 294.325 291.547 294.325C291 294.325 290.312 294.236 289.802 294.096L289.751 294.911C290.223 295.064 290.987 295.178 291.586 295.178ZM297.768 295.178C298.226 295.178 298.723 295.102 299.054 295.013L299.003 294.236C298.697 294.299 298.277 294.338 298.06 294.338C297.615 294.338 297.398 294.249 297.258 294.096C297.08 293.905 297.041 293.599 297.041 293V289.536H298.685V288.759H297.041V287.103C296.71 287.103 296.29 287.192 295.984 287.294V288.771L294.851 288.937V289.536H295.984V293.14C295.984 293.917 296.073 294.338 296.379 294.694C296.659 295.013 297.156 295.178 297.768 295.178ZM302.05 295.178C302.802 295.178 303.464 294.936 304.012 294.58L304.075 295H304.929V290.848C304.929 290.032 304.776 289.536 304.381 289.154C303.986 288.784 303.362 288.58 302.432 288.58C301.834 288.58 301.12 288.657 300.534 288.797L300.573 289.612C301.184 289.51 301.783 289.459 302.254 289.459C302.878 289.459 303.286 289.574 303.553 289.829C303.782 290.058 303.872 290.376 303.872 290.886V291.281H302.572C301.668 291.281 300.929 291.446 300.458 291.879C300.127 292.185 299.923 292.644 299.923 293.23C299.923 293.815 300.114 294.261 300.42 294.58C300.802 294.975 301.375 295.178 302.05 295.178ZM302.279 294.325C301.464 294.325 300.993 293.956 300.993 293.204C300.993 292.822 301.12 292.554 301.337 292.376C301.63 292.147 302.076 292.058 302.725 292.058H303.872V293.917C303.413 294.147 302.789 294.325 302.279 294.325ZM306.698 295H307.755V285.893H306.698V295ZM311.342 295.178C312.093 295.178 312.756 294.936 313.303 294.58L313.367 295H314.221V290.848C314.221 290.032 314.068 289.536 313.673 289.154C313.278 288.784 312.654 288.58 311.724 288.58C311.125 288.58 310.412 288.657 309.826 288.797L309.864 289.612C310.476 289.51 311.074 289.459 311.546 289.459C312.17 289.459 312.577 289.574 312.845 289.829C313.074 290.058 313.163 290.376 313.163 290.886V291.281H311.864C310.96 291.281 310.221 291.446 309.75 291.879C309.419 292.185 309.215 292.644 309.215 293.23C309.215 293.815 309.406 294.261 309.712 294.58C310.094 294.975 310.667 295.178 311.342 295.178ZM311.571 294.325C310.756 294.325 310.285 293.956 310.285 293.204C310.285 292.822 310.412 292.554 310.629 292.376C310.922 292.147 311.367 292.058 312.017 292.058H313.163V293.917C312.705 294.147 312.081 294.325 311.571 294.325ZM318.741 295.178C319.199 295.178 319.9 295.089 320.307 294.975L320.231 294.185C319.913 294.249 319.352 294.312 318.932 294.312C318.168 294.312 317.633 294.134 317.276 293.726C316.932 293.331 316.754 292.733 316.754 291.943C316.754 290.287 317.416 289.434 318.881 289.434C319.276 289.434 319.785 289.51 320.18 289.587L320.244 288.771C319.811 288.657 319.238 288.58 318.754 288.58C317.798 288.58 316.996 288.861 316.461 289.434C315.926 290.007 315.646 290.86 315.646 291.956C315.646 293.051 315.951 293.866 316.474 294.401C316.983 294.924 317.722 295.178 318.741 295.178ZM322.233 287.574H322.297C322.679 287.574 322.921 287.383 322.921 286.899V286.874C322.921 286.39 322.679 286.199 322.297 286.199H322.233C321.851 286.199 321.609 286.39 321.609 286.874V286.899C321.609 287.383 321.851 287.574 322.233 287.574ZM321.737 295H322.794V288.759H321.737V295ZM326.087 287.753L328.52 286.007L327.921 285.205L325.68 287.192L326.087 287.753ZM327.106 295.178C329.042 295.178 329.946 293.956 329.946 291.879C329.946 289.803 329.042 288.58 327.106 288.58C325.17 288.58 324.266 289.803 324.266 291.879C324.266 293.956 325.17 295.178 327.106 295.178ZM327.106 294.312C325.832 294.312 325.374 293.472 325.374 291.879C325.374 290.287 325.832 289.447 327.106 289.447C328.38 289.447 328.838 290.287 328.838 291.879C328.838 293.472 328.38 294.312 327.106 294.312ZM331.401 295H332.458V289.918C332.968 289.676 333.643 289.51 334.203 289.51C334.662 289.51 334.993 289.612 335.209 289.829C335.426 290.045 335.515 290.351 335.515 290.886V295H336.572V290.758C336.572 289.982 336.394 289.472 336.05 289.128C335.693 288.759 335.158 288.58 334.483 288.58C333.757 288.58 332.98 288.822 332.331 289.217L332.28 288.759H331.401V295ZM338.839 295.178H338.928C339.31 295.178 339.565 294.987 339.565 294.491V294.44C339.565 293.943 339.31 293.752 338.928 293.752H338.839C338.457 293.752 338.202 293.943 338.202 294.44V294.491C338.202 294.987 338.457 295.178 338.839 295.178Z" fill="#00081D"/>
<path d="M0 193.176C0 188.661 3.66052 185 8.176 185H205.82C210.338 185 214 188.662 214 193.18V265.82C214 270.338 210.338 274 205.82 274H8.17599C3.66051 274 0 270.339 0 265.824V193.176Z" fill="#E63780"/>
<path d="M65.1055 248.292C70.0027 248.292 73.2508 247.292 75.6494 245.044C77.4483 243.344 78.4977 240.896 78.4977 237.848C78.4977 224.506 61.0579 229.103 61.0579 222.407C61.0579 220.258 62.4071 218.759 66.6046 218.759C69.0032 218.759 72.0015 219.209 74.7999 219.958L75.9992 214.162C73.3507 213.262 69.7528 212.762 66.4547 212.762C59.159 212.762 53.7122 215.811 53.7122 222.757C53.7122 236.199 71.152 231.551 71.152 237.948C71.152 241.096 69.0032 242.295 64.4059 242.295C61.9074 242.295 57.9597 241.645 54.9614 240.596L53.7621 246.543C57.2101 247.742 60.7581 248.292 65.1055 248.292ZM81.0884 248.292H87.4347L102.476 212.762H96.1296L81.0884 248.292ZM118.34 248.292C126.285 248.292 130.433 243.944 130.433 236.349C130.433 229.503 126.885 225.705 120.789 225.705C118.44 225.705 115.642 226.254 113.393 227.454C113.493 224.006 114.043 221.657 115.542 220.158C116.891 218.809 118.94 218.359 122.238 218.359C124.037 218.359 125.886 218.559 127.635 218.859V213.412C125.336 213.012 123.037 212.762 120.589 212.762C116.041 212.762 112.843 213.762 110.545 216.06C107.546 219.059 105.897 224.156 105.897 232.101C105.897 242.445 109.195 248.292 118.34 248.292ZM118.49 242.845C114.592 242.845 113.293 240.046 113.293 233.5V231.601C114.692 231.302 116.841 231.102 118.29 231.102C121.938 231.102 123.337 232.251 123.337 236.598C123.337 240.746 121.688 242.845 118.49 242.845ZM146.754 248.292C156.248 248.292 159.846 242.245 159.846 230.552C159.846 218.859 156.248 212.762 146.754 212.762C137.259 212.762 133.662 218.859 133.662 230.552C133.662 242.245 137.259 248.292 146.754 248.292ZM146.754 242.545C142.706 242.545 141.107 239.996 141.107 230.552C141.107 221.107 142.706 218.009 146.754 218.009C150.802 218.009 152.401 221.107 152.401 230.552C152.401 239.996 150.802 242.545 146.754 242.545Z" fill="white"/>
<path d="M67.8989 205H69.1696V201.359H70.9828C72.1536 201.359 72.9531 201.074 73.4814 200.56C74.0239 200.017 74.2809 199.232 74.2809 198.19C74.2809 197.29 74.0524 196.548 73.567 196.062C73.0102 195.491 72.0964 195.234 70.6973 195.234H67.8989V205ZM69.1696 200.331V196.234H70.5973C71.5396 196.234 72.1393 196.391 72.5105 196.762C72.8246 197.076 72.9674 197.547 72.9674 198.218C72.9674 198.989 72.7818 199.517 72.4391 199.846C72.0536 200.203 71.4397 200.331 70.5545 200.331H69.1696ZM75.5288 205H76.7138V194.792H75.5288V205ZM80.4489 205.2C81.2913 205.2 82.0337 204.929 82.6476 204.529L82.719 205H83.6756V200.346C83.6756 199.432 83.5043 198.875 83.0617 198.447C82.6191 198.033 81.9195 197.804 80.8773 197.804C80.2062 197.804 79.4067 197.89 78.7499 198.047L78.7928 198.961C79.4781 198.846 80.1491 198.789 80.6774 198.789C81.377 198.789 81.8338 198.918 82.1337 199.203C82.3907 199.46 82.4906 199.817 82.4906 200.388V200.831H81.0343C80.0206 200.831 79.1925 201.017 78.6643 201.502C78.293 201.845 78.0646 202.359 78.0646 203.015C78.0646 203.672 78.2788 204.172 78.6214 204.529C79.0497 204.971 79.6922 205.2 80.4489 205.2ZM80.7059 204.243C79.7922 204.243 79.2639 203.829 79.2639 202.987C79.2639 202.559 79.4067 202.259 79.6494 202.059C79.9778 201.802 80.4775 201.702 81.2056 201.702H82.4906V203.786C81.9766 204.043 81.277 204.243 80.7059 204.243ZM85.3587 205H86.5437V199.303C87.1148 199.032 87.8715 198.846 88.4997 198.846C89.0137 198.846 89.3849 198.961 89.6276 199.203C89.8703 199.446 89.9703 199.789 89.9703 200.388V205H91.1553V200.246C91.1553 199.375 90.9554 198.804 90.5699 198.418C90.1701 198.004 89.5705 197.804 88.8138 197.804C88 197.804 87.1291 198.075 86.4009 198.518L86.3438 198.004H85.3587V205ZM97.024 205H98.3232L101.25 196.405C101.379 196.034 101.407 195.82 101.407 195.548C101.407 195.434 101.393 195.306 101.364 195.234H95.4963V196.177H100.208L97.024 205ZM106.001 205.2C108.428 205.2 109.356 203.315 109.356 200.131C109.356 196.948 108.428 195.049 106.001 195.049C103.574 195.049 102.646 196.948 102.646 200.131C102.646 203.315 103.574 205.2 106.001 205.2ZM106.001 204.186C104.416 204.186 103.888 202.858 103.888 200.131C103.888 197.404 104.416 196.062 106.001 196.062C107.586 196.062 108.114 197.404 108.114 200.131C108.114 202.858 107.586 204.186 106.001 204.186ZM113.466 205H114.594V197.676L117.407 202.93H118.463L121.304 197.733V205H122.504V195.234H121.419L117.978 201.659L114.58 195.234H113.466V205ZM127.584 205.2C129.326 205.2 130.311 204.015 130.311 201.473C130.311 198.961 129.297 197.804 127.598 197.804C126.913 197.804 126.156 198.047 125.585 198.361V194.792H124.4V205H125.357L125.414 204.529C125.971 204.914 126.827 205.2 127.584 205.2ZM127.313 204.215C126.742 204.215 126.056 204.001 125.585 203.715V199.218C126.056 198.989 126.742 198.818 127.284 198.818C128.526 198.818 129.069 199.589 129.069 201.473C129.069 203.501 128.498 204.215 127.313 204.215ZM131.657 208.212H132.843V204.672C133.357 205 134.113 205.2 134.841 205.2C136.512 205.2 137.568 204.101 137.568 201.473C137.568 199.246 136.697 197.804 134.884 197.804C134.242 197.804 133.428 198.033 132.7 198.518L132.643 198.004H131.657V208.212ZM134.542 204.215C133.942 204.215 133.257 204.029 132.843 203.786V199.289C133.385 199.004 134.085 198.818 134.627 198.818C135.798 198.818 136.326 199.675 136.326 201.459C136.326 203.458 135.812 204.215 134.542 204.215ZM140.757 205.2C142.441 205.2 143.584 204.543 143.584 203.058C143.584 200.56 139.686 201.302 139.686 199.732C139.686 199.075 140.214 198.747 141.214 198.747C141.785 198.747 142.427 198.832 143.055 198.975L143.155 198.104C142.599 197.933 141.813 197.804 141.114 197.804C139.629 197.804 138.572 198.461 138.572 199.817C138.572 202.387 142.47 201.573 142.47 203.144C142.47 203.858 141.856 204.243 140.714 204.243C140.1 204.243 139.329 204.143 138.758 203.986L138.701 204.9C139.229 205.071 140.086 205.2 140.757 205.2Z" fill="white"/>
<path d="M50.2945 263.614H51.5652V259.973H53.3784C54.5491 259.973 55.3487 259.687 55.8769 259.173C56.4195 258.631 56.6765 257.846 56.6765 256.803C56.6765 255.904 56.448 255.161 55.9626 254.676C55.4058 254.105 54.492 253.848 53.0929 253.848H50.2945V263.614ZM51.5652 258.945V254.847H52.9929C53.9352 254.847 54.5349 255.004 54.9061 255.376C55.2202 255.69 55.363 256.161 55.363 256.832C55.363 257.603 55.1774 258.131 54.8347 258.459C54.4492 258.816 53.8353 258.945 52.9501 258.945H51.5652ZM57.7707 263.614H58.9557V257.96C59.4554 257.646 60.0408 257.489 60.6547 257.489C60.8546 257.489 61.1116 257.503 61.2687 257.517V256.461C61.1116 256.432 60.9403 256.418 60.8118 256.418C60.1979 256.418 59.4983 256.661 58.8272 257.217L58.7558 256.618H57.7707V263.614ZM64.9879 263.813C65.6304 263.813 66.4585 263.714 67.0581 263.542L66.9439 262.657C66.4014 262.771 65.7161 262.843 65.2163 262.843C64.3312 262.843 63.8029 262.657 63.4317 262.314C63.0176 261.929 62.8178 261.301 62.8178 260.53H67.3294C67.4436 260.53 67.5007 260.487 67.5007 260.373V260.101C67.5007 257.803 66.5584 256.418 64.6024 256.418C62.8178 256.418 61.5756 257.631 61.5756 260.13C61.5756 261.386 61.8612 262.343 62.4894 262.971C63.0605 263.542 63.9028 263.813 64.9879 263.813ZM62.8178 259.659C62.832 258.245 63.4174 257.374 64.6024 257.374C65.7732 257.374 66.2872 258.317 66.33 259.659H62.8178ZM71.9818 263.813C72.4958 263.813 73.2811 263.714 73.7379 263.585L73.6523 262.7C73.2953 262.771 72.6671 262.843 72.196 262.843C71.3393 262.843 70.7397 262.643 70.3399 262.186C69.9544 261.743 69.7545 261.072 69.7545 260.187C69.7545 258.331 70.497 257.374 72.1389 257.374C72.5815 257.374 73.1526 257.46 73.5952 257.546L73.6665 256.632C73.1811 256.503 72.5386 256.418 71.9961 256.418C70.9253 256.418 70.0258 256.732 69.4262 257.374C68.8265 258.017 68.5124 258.973 68.5124 260.201C68.5124 261.429 68.8551 262.343 69.4404 262.943C70.0115 263.528 70.8396 263.813 71.9818 263.813ZM75.6111 255.29H75.6824C76.1108 255.29 76.382 255.076 76.382 254.533V254.505C76.382 253.962 76.1108 253.748 75.6824 253.748H75.6111C75.1827 253.748 74.9115 253.962 74.9115 254.505V254.533C74.9115 255.076 75.1827 255.29 75.6111 255.29ZM75.0542 263.614H76.2393V256.618H75.0542V263.614ZM80.7875 263.813C82.9577 263.813 83.9713 262.443 83.9713 260.116C83.9713 257.788 82.9577 256.418 80.7875 256.418C78.6173 256.418 77.6036 257.788 77.6036 260.116C77.6036 262.443 78.6173 263.813 80.7875 263.813ZM80.7875 262.843C79.3598 262.843 78.8458 261.9 78.8458 260.116C78.8458 258.331 79.3598 257.389 80.7875 257.389C82.2152 257.389 82.7292 258.331 82.7292 260.116C82.7292 261.9 82.2152 262.843 80.7875 262.843ZM87.9445 263.614H89.1295V257.96C89.6292 257.646 90.2146 257.489 90.8285 257.489C91.0284 257.489 91.2854 257.503 91.4424 257.517V256.461C91.2854 256.432 91.114 256.418 90.9855 256.418C90.3716 256.418 89.672 256.661 89.001 257.217L88.9296 256.618H87.9445V263.614ZM95.1617 263.813C95.8042 263.813 96.6322 263.714 97.2319 263.542L97.1177 262.657C96.5751 262.771 95.8898 262.843 95.3901 262.843C94.5049 262.843 93.9767 262.657 93.6054 262.314C93.1914 261.929 92.9915 261.301 92.9915 260.53H97.5032C97.6174 260.53 97.6745 260.487 97.6745 260.373V260.101C97.6745 257.803 96.7322 256.418 94.7762 256.418C92.9915 256.418 91.7494 257.631 91.7494 260.13C91.7494 261.386 92.0349 262.343 92.6631 262.971C93.2342 263.542 94.0766 263.813 95.1617 263.813ZM92.9915 259.659C93.0058 258.245 93.5912 257.374 94.7762 257.374C95.9469 257.374 96.4609 258.317 96.5038 259.659H92.9915ZM101.756 267.026C104.126 267.026 105.068 266.241 105.068 264.827C105.068 264.256 104.911 263.771 104.554 263.414C104.097 262.957 103.412 262.757 102.184 262.757H100.842C100.457 262.757 100.271 262.628 100.271 262.329C100.271 262.086 100.442 261.715 100.656 261.472C100.985 261.572 101.342 261.615 101.756 261.615C103.669 261.615 104.568 260.53 104.568 259.016C104.568 258.017 104.169 257.189 103.326 256.76L104.297 255.104C104.069 254.919 103.64 254.719 103.312 254.647L102.47 256.475C102.256 256.446 102.013 256.418 101.756 256.418C99.8427 256.418 98.9432 257.503 98.9432 259.016C98.9432 259.93 99.2716 260.672 99.9283 261.129C99.4286 261.615 99.1002 262.186 99.1002 262.743C99.1002 263.057 99.2002 263.314 99.4286 263.499C98.9432 263.842 98.6291 264.442 98.6291 265.056C98.6291 266.298 99.5999 267.026 101.756 267.026ZM101.756 260.672C100.599 260.672 100.071 260.087 100.071 259.016C100.071 257.945 100.599 257.36 101.756 257.36C102.912 257.36 103.441 257.945 103.441 259.016C103.441 260.087 102.912 260.672 101.756 260.672ZM101.87 266.026C100.314 266.026 99.7427 265.598 99.7427 264.841C99.7427 264.47 99.8998 264.085 100.157 263.771C100.3 263.799 100.471 263.813 100.671 263.813H102.184C102.884 263.813 103.341 263.899 103.612 264.099C103.84 264.27 103.955 264.527 103.955 264.87C103.955 265.598 103.355 266.026 101.87 266.026ZM108.377 263.813C109.191 263.813 110.033 263.542 110.761 263.1L110.818 263.614H111.803V256.618H110.618V262.314C110.047 262.586 109.319 262.771 108.691 262.771C108.177 262.771 107.806 262.657 107.563 262.414C107.32 262.172 107.22 261.829 107.22 261.229V256.618H106.035V261.372C106.035 262.243 106.235 262.814 106.621 263.2C107.02 263.614 107.62 263.813 108.377 263.813ZM113.531 263.614H114.716V253.405H113.531V263.614ZM118.451 263.813C119.293 263.813 120.036 263.542 120.65 263.142L120.721 263.614H121.678V258.959C121.678 258.045 121.506 257.489 121.064 257.06C120.621 256.646 119.922 256.418 118.879 256.418C118.208 256.418 117.409 256.503 116.752 256.661L116.795 257.574C117.48 257.46 118.151 257.403 118.679 257.403C119.379 257.403 119.836 257.531 120.136 257.817C120.393 258.074 120.493 258.431 120.493 259.002V259.445H119.036C118.023 259.445 117.195 259.63 116.666 260.116C116.295 260.458 116.067 260.972 116.067 261.629C116.067 262.286 116.281 262.785 116.623 263.142C117.052 263.585 117.694 263.813 118.451 263.813ZM118.708 262.857C117.794 262.857 117.266 262.443 117.266 261.6C117.266 261.172 117.409 260.872 117.651 260.672C117.98 260.415 118.48 260.316 119.208 260.316H120.493V262.4C119.979 262.657 119.279 262.857 118.708 262.857ZM123.361 263.614H124.546V257.96C125.045 257.646 125.631 257.489 126.245 257.489C126.445 257.489 126.702 257.503 126.859 257.517V256.461C126.702 256.432 126.53 256.418 126.402 256.418C125.788 256.418 125.088 256.661 124.417 257.217L124.346 256.618H123.361V263.614ZM128.429 259.373H128.529C128.957 259.373 129.242 259.159 129.242 258.602V258.545C129.242 257.988 128.957 257.774 128.529 257.774H128.429C128 257.774 127.715 257.988 127.715 258.545V258.602C127.715 259.159 128 259.373 128.429 259.373ZM128.429 263.813H128.529C128.957 263.813 129.242 263.599 129.242 263.042V262.985C129.242 262.429 128.957 262.214 128.529 262.214H128.429C128 262.214 127.715 262.429 127.715 262.985V263.042C127.715 263.599 128 263.813 128.429 263.813ZM136.062 263.813C137.19 263.813 138.061 263.542 138.646 262.985C139.132 262.529 139.417 261.857 139.417 261.001C139.417 257.66 134.392 258.417 134.392 256.189C134.392 255.147 135.206 254.719 136.533 254.719C137.176 254.719 137.933 254.819 138.646 255.004L138.832 254.033C138.161 253.805 137.276 253.662 136.433 253.662C134.492 253.662 133.192 254.547 133.192 256.275C133.192 259.63 138.204 258.674 138.204 261.129C138.204 261.658 138.018 262.043 137.676 262.314C137.29 262.614 136.748 262.757 135.948 262.757C135.163 262.757 134.249 262.586 133.507 262.371L133.292 263.342C134.035 263.642 135.163 263.813 136.062 263.813ZM140.445 263.813H141.601L145.813 253.662H144.657L140.445 263.813ZM152.599 263.813C154.555 263.813 155.854 262.743 155.854 261.086C155.854 259.744 154.812 259.045 153.684 258.474C154.783 257.945 155.454 257.089 155.454 256.004C155.454 254.747 154.369 253.662 152.656 253.662C150.985 253.662 149.814 254.676 149.814 256.147C149.814 257.317 150.514 257.988 151.371 258.488C150.257 259.045 149.429 260.001 149.429 261.215C149.429 262.757 150.614 263.813 152.599 263.813ZM152.813 258.045C151.799 257.546 150.928 257.032 150.928 256.075C150.928 255.204 151.628 254.633 152.67 254.633C153.684 254.633 154.355 255.261 154.355 256.089C154.355 256.889 153.798 257.546 152.813 258.045ZM152.613 262.828C151.371 262.828 150.6 262.229 150.6 261.129C150.6 260.144 151.314 259.416 152.27 258.945C153.469 259.516 154.669 260.001 154.669 261.201C154.669 262.243 153.855 262.828 152.613 262.828ZM160.233 263.813C162.661 263.813 163.589 261.929 163.589 258.745C163.589 255.561 162.661 253.662 160.233 253.662C157.806 253.662 156.878 255.561 156.878 258.745C156.878 261.929 157.806 263.813 160.233 263.813ZM160.233 262.8C158.649 262.8 158.12 261.472 158.12 258.745C158.12 256.018 158.649 254.676 160.233 254.676C161.818 254.676 162.347 256.018 162.347 258.745C162.347 261.472 161.818 262.8 160.233 262.8Z" fill="white"/>
<path d="M134.038 262.499L166 254.161" stroke="white" stroke-width="1.38966" stroke-linecap="round"/>
</svg>
