<svg width="272" height="249" viewBox="0 0 272 249" fill="none" xmlns="http://www.w3.org/2000/svg">
<path d="M16.0038 44.6781C18.8519 44.6781 22.1522 44.2713 24.3222 43.6383L24.503 37.9873C22.4234 38.3941 19.7561 38.6654 17.6765 38.6654C14.738 38.6654 12.6584 38.1229 11.3473 36.405C10.2171 34.9583 9.90066 32.8335 9.90066 30.7991C9.90066 26.866 11.0761 22.526 12.9296 19.6326C15.1448 16.1516 18.0382 15.3378 21.022 15.3378C23.5536 15.3378 25.9497 15.9255 28.0293 16.5132L29.9732 10.9978C27.0799 10.0484 24.0057 9.32508 20.389 9.32508C15.7326 9.32508 11.3021 10.5457 7.82107 14.2528C3.7071 18.638 1.85355 25.5097 1.85355 31.206C1.85355 40.4285 6.73607 44.6781 16.0038 44.6781ZM44.6353 44.6781C51.507 44.6781 56.4347 41.9204 59.5089 36.631C61.8145 32.6979 63.0803 27.3633 63.0803 22.752C63.0803 13.213 57.7005 9.32508 49.7438 9.32508C42.7365 9.32508 37.9896 12.3541 35.0059 17.4174C32.7454 21.2601 31.3892 26.5043 31.3892 31.2512C31.3892 40.745 36.769 44.6781 44.6353 44.6781ZM45.0874 38.6202C41.6515 38.6202 39.4363 36.7666 39.4363 31.3416C39.4363 27.7701 40.3857 23.5658 42.0132 20.4464C43.6407 17.327 45.9011 15.4282 49.3822 15.4282C52.818 15.4282 55.0784 17.2366 55.0784 22.7068C55.0784 26.2331 54.1291 30.4827 52.5015 33.602C50.874 36.6762 48.6136 38.6202 45.0874 38.6202ZM66.027 44H72.8535L76.5606 22.8424L88.5408 44H94.644L100.657 10.0032H93.8302L89.8971 32.2458L77.6004 10.0032H71.9945L66.027 44ZM113.531 44H136.768L137.673 38.3941H122.302L123.794 29.6689H135.457L136.497 23.837H124.833L126.235 15.6091H140.882L142.465 10.0032H119.499L113.531 44ZM143.155 44H165.985L166.935 38.3941H151.835L156.853 10.0032H149.123L143.155 44ZM1.35625 89H9.08691L15.0544 55.0032H7.27857L1.35625 89ZM17.4632 89H24.2897L27.9968 67.8424L39.977 89H46.0802L52.0929 55.0032H45.2664L41.3333 77.2458L29.0366 55.0032H23.4307L17.4632 89ZM61.8374 89H69.6133L74.5862 60.6091H84.8486L86.4761 55.0032H57.2714L56.2768 60.6091H66.8104L61.8374 89ZM85.4525 89H108.69L109.594 83.3941H94.223L95.7149 74.6689H107.379L108.418 68.837H96.7547L98.1561 60.6091H112.804L114.386 55.0032H91.4201L85.4525 89ZM115.076 89H122.852L124.977 76.6581H129.543L133.522 89H141.84L136.55 75.3922C139.353 74.3072 141.523 72.5893 142.654 71.007C143.784 69.4247 144.507 67.1191 144.507 64.6326C144.507 61.6941 143.513 59.1172 141.614 57.4897C139.76 55.9074 136.867 55.0032 132.617 55.0032H121.044L115.076 89ZM125.972 71.0522L127.78 60.6091H131.668C133.928 60.6091 135.149 61.1516 135.827 61.8297C136.415 62.4174 136.822 63.4572 136.822 64.7682C136.822 66.441 136.189 68.1137 134.968 69.2891C133.522 70.6453 131.578 71.0522 128.955 71.0522H125.972ZM148.144 89H154.97L158.678 67.8424L170.658 89H176.761L182.774 55.0032H175.947L172.014 77.2458L159.717 55.0032H154.112L148.144 89ZM184.788 89H208.025L208.929 83.3941H193.558L195.05 74.6689H206.714L207.754 68.837H196.09L197.491 60.6091H212.139L213.721 55.0032H190.755L184.788 89ZM223.158 89H230.933L235.906 60.6091H246.169L247.796 55.0032H218.592L217.597 60.6091H228.131L223.158 89ZM1.0398 135H7.54982L11.1665 114.521L16.1394 127.224H22.107L31.2843 115.153L27.8484 135H34.9462L40.9137 101.003H34.5393L20.2534 119.765L12.9748 101.003H7.00732L1.0398 135ZM57.0411 135.678C63.9128 135.678 68.8405 132.92 71.9147 127.631C74.2203 123.698 75.4862 118.363 75.4862 113.752C75.4862 104.213 70.1064 100.325 62.1497 100.325C55.1424 100.325 50.3955 103.354 47.4117 108.417C45.1513 112.26 43.795 117.504 43.795 122.251C43.795 131.745 49.1748 135.678 57.0411 135.678ZM57.4932 129.62C54.0574 129.62 51.8421 127.767 51.8421 122.342C51.8421 118.77 52.7915 114.566 54.419 111.446C56.0465 108.327 58.307 106.428 61.788 106.428C65.2239 106.428 67.4843 108.237 67.4843 113.707C67.4843 117.233 66.5349 121.483 64.9074 124.602C63.2799 127.676 61.0195 129.62 57.4932 129.62ZM86.3235 135H94.7323L112.002 101.003H104.045L92.2006 126.049L88.4935 101.003H80.4464L86.3235 135ZM111.243 135H118.974L124.941 101.003H117.165L111.243 135ZM138.064 135.678C142.404 135.678 146.111 134.774 148.733 132.875C151.536 130.841 152.667 127.993 152.667 124.738C152.667 120.262 150.542 117.504 145.75 115.515L142.811 114.295C139.104 112.757 137.793 111.627 137.793 109.954C137.793 107.423 140.641 106.293 144.258 106.293C146.654 106.293 149.366 106.79 152.079 107.604L154.023 102.133C150.632 101.003 147.332 100.325 143.987 100.325C140.099 100.325 136.889 101.229 134.538 102.857C131.78 104.756 130.379 107.558 130.379 110.859C130.379 115.289 132.911 118.002 137.838 119.991L140.777 121.166C143.941 122.432 145.117 123.698 145.117 125.551C145.117 128.897 141.274 129.711 138.019 129.711C134.854 129.711 130.967 128.942 128.209 127.902L126.672 133.644C130.469 135.045 134.402 135.678 138.064 135.678ZM164.351 135H172.127L177.1 106.609H187.362L188.99 101.003H159.785L158.791 106.609H169.324L164.351 135ZM182.723 135H190.498L194.612 126.456H205.643L206.999 135H214.956L208.627 101.003H200.083L182.723 135ZM197.37 120.85L202.976 109.005H203.066L204.739 120.85H197.37ZM219.842 135H227.618L229.743 122.658H234.309L238.287 135H246.605L241.316 121.392C244.119 120.307 246.289 118.589 247.419 117.007C248.549 115.425 249.273 113.119 249.273 110.633C249.273 107.694 248.278 105.117 246.379 103.49C244.526 101.907 241.632 101.003 237.383 101.003H225.809L219.842 135ZM230.737 117.052L232.545 106.609H236.433C238.694 106.609 239.914 107.152 240.593 107.83C241.18 108.417 241.587 109.457 241.587 110.768C241.587 112.441 240.954 114.114 239.734 115.289C238.287 116.645 236.343 117.052 233.721 117.052H230.737Z" fill="white"/>
<path d="M0.936236 237H1.81993L2.38874 235.151H5.01951L5.62895 237H6.57359L4.17644 230.052H3.14039L0.936236 237ZM2.61221 234.44L3.65842 231.007H3.66857L4.78589 234.44H2.61221ZM7.46561 239.285H8.30868V236.766C8.67434 237 9.21269 237.142 9.73071 237.142C10.9191 237.142 11.6708 236.36 11.6708 234.491C11.6708 232.907 11.0512 231.881 9.76118 231.881C9.3041 231.881 8.72513 232.043 8.2071 232.389L8.16647 232.023H7.46561V239.285ZM9.51741 236.441C9.0908 236.441 8.60324 236.309 8.30868 236.137V232.937C8.69466 232.734 9.19237 232.602 9.57835 232.602C10.4113 232.602 10.7871 233.211 10.7871 234.481C10.7871 235.903 10.4214 236.441 9.51741 236.441ZM12.8421 237H13.6852V229.737H12.8421V237ZM15.5299 231.078H15.5807C15.8854 231.078 16.0784 230.926 16.0784 230.54V230.52C16.0784 230.134 15.8854 229.981 15.5807 229.981H15.5299C15.2251 229.981 15.0322 230.134 15.0322 230.52V230.54C15.0322 230.926 15.2251 231.078 15.5299 231.078ZM15.1337 237H15.9768V232.023H15.1337V237ZM19.6189 237.142C19.9845 237.142 20.5432 237.071 20.8682 236.98L20.8073 236.35C20.5533 236.401 20.1064 236.452 19.7712 236.452C19.1618 236.452 18.7352 236.309 18.4508 235.984C18.1765 235.669 18.0343 235.192 18.0343 234.562C18.0343 233.242 18.5625 232.561 19.7306 232.561C20.0455 232.561 20.4518 232.622 20.7666 232.683L20.8174 232.033C20.4721 231.942 20.015 231.881 19.629 231.881C18.8672 231.881 18.2273 232.104 17.8007 232.561C17.3741 233.018 17.1506 233.699 17.1506 234.572C17.1506 235.446 17.3944 236.096 17.8108 236.523C18.2171 236.939 18.8063 237.142 19.6189 237.142ZM23.3999 237.142C23.9992 237.142 24.5273 236.949 24.9641 236.665L25.0149 237H25.6954V233.689C25.6954 233.039 25.5735 232.642 25.2587 232.338C24.9438 232.043 24.4461 231.881 23.7046 231.881C23.2272 231.881 22.6584 231.942 22.1911 232.053L22.2216 232.703C22.7092 232.622 23.1866 232.582 23.5624 232.582C24.0601 232.582 24.3851 232.673 24.5984 232.876C24.7813 233.059 24.8524 233.313 24.8524 233.719V234.034H23.8163C23.0951 234.034 22.506 234.166 22.1302 234.511C21.8661 234.755 21.7036 235.121 21.7036 235.588C21.7036 236.055 21.8559 236.411 22.0997 236.665C22.4044 236.98 22.8615 237.142 23.3999 237.142ZM23.5827 236.462C22.9326 236.462 22.5568 236.167 22.5568 235.568C22.5568 235.263 22.6584 235.05 22.8311 234.908C23.0647 234.725 23.4202 234.654 23.9382 234.654H24.8524V236.137C24.4867 236.319 23.989 236.462 23.5827 236.462ZM27.096 237H27.939V232.978C28.2945 232.754 28.711 232.642 29.1478 232.642C29.29 232.642 29.4728 232.653 29.5845 232.663V231.911C29.4728 231.891 29.3509 231.881 29.2595 231.881C28.8227 231.881 28.325 232.053 27.8476 232.449L27.7968 232.023H27.096V237ZM31.3376 231.22L33.2777 229.829L32.8003 229.189L31.0126 230.774L31.3376 231.22ZM31.6627 237.142C32.262 237.142 32.7901 236.949 33.2269 236.665L33.2777 237H33.9582V233.689C33.9582 233.039 33.8363 232.642 33.5215 232.338C33.2066 232.043 32.7089 231.881 31.9674 231.881C31.49 231.881 30.9212 231.942 30.4539 232.053L30.4844 232.703C30.972 232.622 31.4494 232.582 31.8252 232.582C32.3229 232.582 32.6479 232.673 32.8612 232.876C33.0441 233.059 33.1152 233.313 33.1152 233.719V234.034H32.0791C31.3579 234.034 30.7688 234.166 30.393 234.511C30.1289 234.755 29.9664 235.121 29.9664 235.588C29.9664 236.055 30.1187 236.411 30.3625 236.665C30.6672 236.98 31.1243 237.142 31.6627 237.142ZM31.8455 236.462C31.1954 236.462 30.8196 236.167 30.8196 235.568C30.8196 235.263 30.9212 235.05 31.0939 234.908C31.3275 234.725 31.683 234.654 32.201 234.654H33.1152V236.137C32.7495 236.319 32.2518 236.462 31.8455 236.462ZM35.3588 237H36.2018V232.947C36.6081 232.754 37.1465 232.622 37.5934 232.622C37.9591 232.622 38.2232 232.703 38.3958 232.876C38.5685 233.049 38.6396 233.293 38.6396 233.719V237H39.4827V233.618C39.4827 232.998 39.3405 232.592 39.0662 232.317C38.7818 232.023 38.3552 231.881 37.8169 231.881C37.2379 231.881 36.6183 232.074 36.1003 232.389L36.0596 232.023H35.3588V237ZM42.957 237H43.8V232.978C44.1555 232.754 44.572 232.642 45.0088 232.642C45.151 232.642 45.3338 232.653 45.4455 232.663V231.911C45.3338 231.891 45.2119 231.881 45.1205 231.881C44.6837 231.881 44.186 232.053 43.7086 232.449L43.6578 232.023H42.957V237ZM48.2947 237.142C48.7518 237.142 49.3409 237.071 49.7675 236.949L49.6862 236.319C49.3003 236.401 48.8127 236.452 48.4572 236.452C47.8274 236.452 47.4516 236.319 47.1875 236.076C46.893 235.801 46.7508 235.355 46.7508 234.806H49.9605C50.0418 234.806 50.0824 234.776 50.0824 234.694V234.501C50.0824 232.866 49.412 231.881 48.0204 231.881C46.7508 231.881 45.8671 232.744 45.8671 234.522C45.8671 235.415 46.0702 236.096 46.5171 236.543C46.9234 236.949 47.5227 237.142 48.2947 237.142ZM46.7508 234.186C46.7609 233.181 47.1774 232.561 48.0204 232.561C48.8533 232.561 49.219 233.232 49.2495 234.186H46.7508ZM52.5797 237.142C53.7782 237.142 54.5908 236.675 54.5908 235.619C54.5908 233.841 51.8179 234.369 51.8179 233.252C51.8179 232.785 52.1937 232.551 52.9047 232.551C53.311 232.551 53.7681 232.612 54.215 232.714L54.2861 232.094C53.89 231.972 53.3313 231.881 52.8336 231.881C51.7772 231.881 51.0256 232.348 51.0256 233.313C51.0256 235.141 53.7986 234.562 53.7986 235.68C53.7986 236.187 53.3618 236.462 52.5492 236.462C52.1124 236.462 51.5639 236.391 51.1576 236.279L51.117 236.929C51.4928 237.051 52.1023 237.142 52.5797 237.142ZM57.5094 237.142C57.8751 237.142 58.2712 237.081 58.5353 237.01L58.4947 236.391C58.2509 236.441 57.9157 236.472 57.743 236.472C57.3875 236.472 57.2149 236.401 57.1031 236.279C56.9609 236.126 56.9305 235.883 56.9305 235.405V232.642H58.2408V232.023H56.9305V230.702C56.6664 230.702 56.3312 230.774 56.0874 230.855V232.033L55.1834 232.165V232.642H56.0874V235.517C56.0874 236.137 56.1585 236.472 56.4023 236.756C56.6257 237.01 57.0219 237.142 57.5094 237.142ZM59.4925 237H60.3356V232.978C60.6911 232.754 61.1075 232.642 61.5443 232.642C61.6865 232.642 61.8693 232.653 61.9811 232.663V231.911C61.8693 231.891 61.7474 231.881 61.656 231.881C61.2192 231.881 60.7215 232.053 60.2441 232.449L60.1934 232.023H59.4925V237ZM63.3113 231.078H63.3621C63.6668 231.078 63.8598 230.926 63.8598 230.54V230.52C63.8598 230.134 63.6668 229.981 63.3621 229.981H63.3113C63.0066 229.981 62.8136 230.134 62.8136 230.52V230.54C62.8136 230.926 63.0066 231.078 63.3113 231.078ZM62.9151 237H63.7582V232.023H62.9151V237ZM67.4003 237.142C67.7659 237.142 68.3246 237.071 68.6496 236.98L68.5887 236.35C68.3347 236.401 67.8878 236.452 67.5526 236.452C66.9432 236.452 66.5166 236.309 66.2322 235.984C65.9579 235.669 65.8157 235.192 65.8157 234.562C65.8157 233.242 66.3439 232.561 67.512 232.561C67.8269 232.561 68.2332 232.622 68.548 232.683L68.5988 232.033C68.2535 231.942 67.7964 231.881 67.4104 231.881C66.6486 231.881 66.0087 232.104 65.5821 232.561C65.1555 233.018 64.932 233.699 64.932 234.572C64.932 235.446 65.1758 236.096 65.5922 236.523C65.9985 236.939 66.5877 237.142 67.4003 237.142ZM71.9136 237.142C72.2792 237.142 72.8379 237.071 73.1629 236.98L73.102 236.35C72.848 236.401 72.4011 236.452 72.0659 236.452C71.4565 236.452 71.0299 236.309 70.7455 235.984C70.4712 235.669 70.329 235.192 70.329 234.562C70.329 233.242 70.8572 232.561 72.0253 232.561C72.3402 232.561 72.7465 232.622 73.0613 232.683L73.1121 232.033C72.7668 231.942 72.3097 231.881 71.9237 231.881C71.1619 231.881 70.522 232.104 70.0954 232.561C69.6688 233.018 69.4453 233.699 69.4453 234.572C69.4453 235.446 69.6891 236.096 70.1055 236.523C70.5118 236.939 71.101 237.142 71.9136 237.142ZM74.6987 231.078H74.7495C75.0542 231.078 75.2472 230.926 75.2472 230.54V230.52C75.2472 230.134 75.0542 229.981 74.7495 229.981H74.6987C74.3939 229.981 74.201 230.134 74.201 230.52V230.54C74.201 230.926 74.3939 231.078 74.6987 231.078ZM74.3025 237H75.1456V232.023H74.3025V237ZM78.5845 237.142C80.1284 237.142 80.8496 236.167 80.8496 234.511C80.8496 232.856 80.1284 231.881 78.5845 231.881C77.0406 231.881 76.3194 232.856 76.3194 234.511C76.3194 236.167 77.0406 237.142 78.5845 237.142ZM78.5845 236.452C77.5688 236.452 77.2031 235.781 77.2031 234.511C77.2031 233.242 77.5688 232.571 78.5845 232.571C79.6002 232.571 79.9659 233.242 79.9659 234.511C79.9659 235.781 79.6002 236.452 78.5845 236.452ZM82.0094 237H82.8524V232.947C83.2587 232.754 83.7971 232.622 84.244 232.622C84.6097 232.622 84.8738 232.703 85.0464 232.876C85.2191 233.049 85.2902 233.293 85.2902 233.719V237H86.1333V233.618C86.1333 232.998 85.9911 232.592 85.7168 232.317C85.4324 232.023 85.0058 231.881 84.4675 231.881C83.8885 231.881 83.2689 232.074 82.7509 232.389L82.7102 232.023H82.0094V237ZM89.698 237.142C90.155 237.142 90.7442 237.071 91.1708 236.949L91.0895 236.319C90.7035 236.401 90.216 236.452 89.8605 236.452C89.2307 236.452 88.8549 236.319 88.5908 236.076C88.2962 235.801 88.154 235.355 88.154 234.806H91.3638C91.445 234.806 91.4857 234.776 91.4857 234.694V234.501C91.4857 232.866 90.8153 231.881 89.4237 231.881C88.154 231.881 87.2703 232.744 87.2703 234.522C87.2703 235.415 87.4735 236.096 87.9204 236.543C88.3267 236.949 88.926 237.142 89.698 237.142ZM88.154 234.186C88.1642 233.181 88.5806 232.561 89.4237 232.561C90.2566 232.561 90.6223 233.232 90.6528 234.186H88.154ZM93.983 237.142C95.1815 237.142 95.9941 236.675 95.9941 235.619C95.9941 233.841 93.2211 234.369 93.2211 233.252C93.2211 232.785 93.597 232.551 94.308 232.551C94.7143 232.551 95.1714 232.612 95.6183 232.714L95.6894 232.094C95.2933 231.972 94.7346 231.881 94.2369 231.881C93.1805 231.881 92.4289 232.348 92.4289 233.313C92.4289 235.141 95.2018 234.562 95.2018 235.68C95.2018 236.187 94.7651 236.462 93.9525 236.462C93.5157 236.462 92.9672 236.391 92.5609 236.279L92.5203 236.929C92.8961 237.051 93.5056 237.142 93.983 237.142ZM101.27 239.428C102.022 239.428 102.55 239.245 102.885 238.879C103.2 238.544 103.342 238.056 103.342 237.386V232.023H102.499V236.076C102.093 236.269 101.575 236.401 101.128 236.401C100.762 236.401 100.498 236.319 100.326 236.147C100.153 235.974 100.082 235.73 100.082 235.304V232.023H99.2388V235.405C99.2388 236.025 99.381 236.431 99.6552 236.705C99.9396 237 100.366 237.142 100.905 237.142C101.443 237.142 102.002 236.98 102.499 236.695V237.376C102.499 237.934 102.398 238.249 102.184 238.453C101.961 238.656 101.605 238.727 101.148 238.727C100.905 238.727 100.437 238.696 100.194 238.666L100.265 239.326C100.488 239.377 100.935 239.428 101.27 239.428ZM106.837 239.285H107.681V236.766C108.046 237 108.585 237.142 109.103 237.142C110.291 237.142 111.043 236.36 111.043 234.491C111.043 232.907 110.423 231.881 109.133 231.881C108.676 231.881 108.097 232.043 107.579 232.389L107.538 232.023H106.837V239.285ZM108.889 236.441C108.463 236.441 107.975 236.309 107.681 236.137V232.937C108.066 232.734 108.564 232.602 108.95 232.602C109.783 232.602 110.159 233.211 110.159 234.481C110.159 235.903 109.793 236.441 108.889 236.441ZM112.204 237H113.047V232.978C113.402 232.754 113.819 232.642 114.256 232.642C114.398 232.642 114.581 232.653 114.692 232.663V231.911C114.581 231.891 114.459 231.881 114.367 231.881C113.931 231.881 113.433 232.053 112.955 232.449L112.905 232.023H112.204V237ZM117.379 237.142C118.923 237.142 119.644 236.167 119.644 234.511C119.644 232.856 118.923 231.881 117.379 231.881C115.835 231.881 115.114 232.856 115.114 234.511C115.114 236.167 115.835 237.142 117.379 237.142ZM117.379 236.452C116.363 236.452 115.998 235.781 115.998 234.511C115.998 233.242 116.363 232.571 117.379 232.571C118.395 232.571 118.76 233.242 118.76 234.511C118.76 235.781 118.395 236.452 117.379 236.452ZM122.531 237.142C122.896 237.142 123.292 237.081 123.557 237.01L123.516 236.391C123.272 236.441 122.937 236.472 122.764 236.472C122.409 236.472 122.236 236.401 122.124 236.279C121.982 236.126 121.952 235.883 121.952 235.405V232.642H123.262V232.023H121.952V230.702C121.688 230.702 121.352 230.774 121.109 230.855V232.033L120.205 232.165V232.642H121.109V235.517C121.109 236.137 121.18 236.472 121.423 236.756C121.647 237.01 122.043 237.142 122.531 237.142ZM126.515 237.142C128.059 237.142 128.78 236.167 128.78 234.511C128.78 232.856 128.059 231.881 126.515 231.881C124.971 231.881 124.25 232.856 124.25 234.511C124.25 236.167 124.971 237.142 126.515 237.142ZM126.515 236.452C125.499 236.452 125.133 235.781 125.133 234.511C125.133 233.242 125.499 232.571 126.515 232.571C127.53 232.571 127.896 233.242 127.896 234.511C127.896 235.781 127.53 236.452 126.515 236.452ZM132.144 237.142C132.509 237.142 133.068 237.071 133.393 236.98L133.332 236.35C133.078 236.401 132.631 236.452 132.296 236.452C131.687 236.452 131.26 236.309 130.976 235.984C130.701 235.669 130.559 235.192 130.559 234.562C130.559 233.242 131.087 232.561 132.255 232.561C132.57 232.561 132.977 232.622 133.292 232.683L133.342 232.033C132.997 231.942 132.54 231.881 132.154 231.881C131.392 231.881 130.752 232.104 130.326 232.561C129.899 233.018 129.675 233.699 129.675 234.572C129.675 235.446 129.919 236.096 130.336 236.523C130.742 236.939 131.331 237.142 132.144 237.142ZM136.454 237.142C137.998 237.142 138.719 236.167 138.719 234.511C138.719 232.856 137.998 231.881 136.454 231.881C134.91 231.881 134.189 232.856 134.189 234.511C134.189 236.167 134.91 237.142 136.454 237.142ZM136.454 236.452C135.438 236.452 135.072 235.781 135.072 234.511C135.072 233.242 135.438 232.571 136.454 232.571C137.47 232.571 137.835 233.242 137.835 234.511C137.835 235.781 137.47 236.452 136.454 236.452ZM139.889 237H140.732V229.737H139.889V237ZM144.161 237.142C145.705 237.142 146.426 236.167 146.426 234.511C146.426 232.856 145.705 231.881 144.161 231.881C142.617 231.881 141.896 232.856 141.896 234.511C141.896 236.167 142.617 237.142 144.161 237.142ZM144.161 236.452C143.145 236.452 142.78 235.781 142.78 234.511C142.78 233.242 143.145 232.571 144.161 232.571C145.177 232.571 145.543 233.242 145.543 234.511C145.543 235.781 145.177 236.452 144.161 236.452ZM148.896 237.142C150.095 237.142 150.908 236.675 150.908 235.619C150.908 233.841 148.135 234.369 148.135 233.252C148.135 232.785 148.51 232.551 149.221 232.551C149.628 232.551 150.085 232.612 150.532 232.714L150.603 232.094C150.207 231.972 149.648 231.881 149.15 231.881C148.094 231.881 147.342 232.348 147.342 233.313C147.342 235.141 150.115 234.562 150.115 235.68C150.115 236.187 149.678 236.462 148.866 236.462C148.429 236.462 147.881 236.391 147.474 236.279L147.434 236.929C147.81 237.051 148.419 237.142 148.896 237.142ZM155.909 237.142C156.377 237.142 156.976 236.959 157.382 236.695L157.443 237H158.134V229.737H157.291V232.236C156.895 232.013 156.397 231.881 155.97 231.881C154.67 231.881 153.908 232.896 153.908 234.542C153.908 236.269 154.64 237.142 155.909 237.142ZM156.143 236.452C155.249 236.452 154.792 235.862 154.792 234.552C154.792 233.384 155.127 232.592 156.143 232.592C156.478 232.592 156.925 232.693 157.291 232.835V236.157C156.935 236.33 156.499 236.452 156.143 236.452ZM161.722 237.142C162.179 237.142 162.768 237.071 163.195 236.949L163.114 236.319C162.728 236.401 162.24 236.452 161.885 236.452C161.255 236.452 160.879 236.319 160.615 236.076C160.32 235.801 160.178 235.355 160.178 234.806H163.388C163.469 234.806 163.51 234.776 163.51 234.694V234.501C163.51 232.866 162.84 231.881 161.448 231.881C160.178 231.881 159.295 232.744 159.295 234.522C159.295 235.415 159.498 236.096 159.945 236.543C160.351 236.949 160.95 237.142 161.722 237.142ZM160.178 234.186C160.188 233.181 160.605 232.561 161.448 232.561C162.281 232.561 162.647 233.232 162.677 234.186H160.178ZM168.08 237.142C169.279 237.142 170.092 236.675 170.092 235.619C170.092 233.841 167.319 234.369 167.319 233.252C167.319 232.785 167.694 232.551 168.405 232.551C168.812 232.551 169.269 232.612 169.716 232.714L169.787 232.094C169.391 231.972 168.832 231.881 168.334 231.881C167.278 231.881 166.526 232.348 166.526 233.313C166.526 235.141 169.299 234.562 169.299 235.68C169.299 236.187 168.862 236.462 168.05 236.462C167.613 236.462 167.065 236.391 166.658 236.279L166.618 236.929C166.994 237.051 167.603 237.142 168.08 237.142ZM173.447 237.142C173.904 237.142 174.493 237.071 174.92 236.949L174.838 236.319C174.452 236.401 173.965 236.452 173.609 236.452C172.98 236.452 172.604 236.319 172.34 236.076C172.045 235.801 171.903 235.355 171.903 234.806H175.113C175.194 234.806 175.235 234.776 175.235 234.694V234.501C175.235 232.866 174.564 231.881 173.173 231.881C171.903 231.881 171.019 232.744 171.019 234.522C171.019 235.415 171.222 236.096 171.669 236.543C172.076 236.949 172.675 237.142 173.447 237.142ZM171.903 234.186C171.913 233.181 172.33 232.561 173.173 232.561C174.006 232.561 174.371 233.232 174.402 234.186H171.903ZM178.341 239.428C180.027 239.428 180.698 238.869 180.698 237.863C180.698 237.457 180.586 237.112 180.332 236.858C180.007 236.533 179.52 236.391 178.646 236.391H177.691C177.417 236.391 177.285 236.299 177.285 236.086C177.285 235.913 177.407 235.649 177.559 235.476C177.793 235.547 178.047 235.578 178.341 235.578C179.702 235.578 180.342 234.806 180.342 233.729C180.342 233.018 180.058 232.429 179.459 232.124L180.149 230.946C179.987 230.814 179.682 230.672 179.448 230.621L178.849 231.921C178.697 231.901 178.524 231.881 178.341 231.881C176.98 231.881 176.34 232.653 176.34 233.729C176.34 234.379 176.574 234.908 177.041 235.233C176.686 235.578 176.452 235.984 176.452 236.38C176.452 236.604 176.523 236.787 176.686 236.919C176.34 237.163 176.117 237.589 176.117 238.026C176.117 238.91 176.808 239.428 178.341 239.428ZM178.341 234.908C177.519 234.908 177.143 234.491 177.143 233.729C177.143 232.968 177.519 232.551 178.341 232.551C179.164 232.551 179.54 232.968 179.54 233.729C179.54 234.491 179.164 234.908 178.341 234.908ZM178.423 238.717C177.315 238.717 176.909 238.412 176.909 237.874C176.909 237.609 177.021 237.335 177.204 237.112C177.305 237.132 177.427 237.142 177.569 237.142H178.646C179.144 237.142 179.469 237.203 179.662 237.345C179.824 237.467 179.906 237.65 179.906 237.894C179.906 238.412 179.479 238.717 178.423 238.717ZM183.255 237.142C183.834 237.142 184.433 236.949 184.951 236.634L184.992 237H185.693V232.023H184.85V236.076C184.443 236.269 183.925 236.401 183.478 236.401C183.113 236.401 182.849 236.319 182.676 236.147C182.503 235.974 182.432 235.73 182.432 235.304V232.023H181.589V235.405C181.589 236.025 181.731 236.431 182.005 236.705C182.29 237 182.717 237.142 183.255 237.142ZM187.115 237H187.958V232.978C188.313 232.754 188.73 232.642 189.166 232.642C189.309 232.642 189.491 232.653 189.603 232.663V231.911C189.491 231.891 189.37 231.881 189.278 231.881C188.841 231.881 188.344 232.053 187.866 232.449L187.815 232.023H187.115V237ZM190.933 231.078H190.984C191.289 231.078 191.482 230.926 191.482 230.54V230.52C191.482 230.134 191.289 229.981 190.984 229.981H190.933C190.629 229.981 190.436 230.134 190.436 230.52V230.54C190.436 230.926 190.629 231.078 190.933 231.078ZM190.537 237H191.38V232.023H190.537V237ZM194.555 237.142C195.022 237.142 195.622 236.959 196.028 236.695L196.089 237H196.78V229.737H195.937V232.236C195.54 232.013 195.043 231.881 194.616 231.881C193.316 231.881 192.554 232.896 192.554 234.542C192.554 236.269 193.285 237.142 194.555 237.142ZM194.789 236.452C193.895 236.452 193.438 235.862 193.438 234.552C193.438 233.384 193.773 232.592 194.789 232.592C195.124 232.592 195.571 232.693 195.937 232.835V236.157C195.581 236.33 195.144 236.452 194.789 236.452ZM199.637 237.142C200.236 237.142 200.764 236.949 201.201 236.665L201.252 237H201.932V233.689C201.932 233.039 201.81 232.642 201.495 232.338C201.18 232.043 200.683 231.881 199.941 231.881C199.464 231.881 198.895 231.942 198.428 232.053L198.458 232.703C198.946 232.622 199.423 232.582 199.799 232.582C200.297 232.582 200.622 232.673 200.835 232.876C201.018 233.059 201.089 233.313 201.089 233.719V234.034H200.053C199.332 234.034 198.743 234.166 198.367 234.511C198.103 234.755 197.94 235.121 197.94 235.588C197.94 236.055 198.093 236.411 198.336 236.665C198.641 236.98 199.098 237.142 199.637 237.142ZM199.819 236.462C199.169 236.462 198.794 236.167 198.794 235.568C198.794 235.263 198.895 235.05 199.068 234.908C199.301 234.725 199.657 234.654 200.175 234.654H201.089V236.137C200.723 236.319 200.226 236.462 199.819 236.462ZM205.07 237.142C205.537 237.142 206.136 236.959 206.542 236.695L206.603 237H207.294V229.737H206.451V232.236C206.055 232.013 205.557 231.881 205.131 231.881C203.83 231.881 203.069 232.896 203.069 234.542C203.069 236.269 203.8 237.142 205.07 237.142ZM205.303 236.452C204.409 236.452 203.952 235.862 203.952 234.552C203.952 233.384 204.287 232.592 205.303 232.592C205.638 232.592 206.085 232.693 206.451 232.835V236.157C206.095 236.33 205.659 236.452 205.303 236.452ZM212.529 237.142C212.996 237.142 213.595 236.959 214.002 236.695L214.063 237H214.753V229.737H213.91V232.236C213.514 232.013 213.016 231.881 212.59 231.881C211.29 231.881 210.528 232.896 210.528 234.542C210.528 236.269 211.259 237.142 212.529 237.142ZM212.763 236.452C211.869 236.452 211.412 235.862 211.412 234.552C211.412 233.384 211.747 232.592 212.763 232.592C213.098 232.592 213.545 232.693 213.91 232.835V236.157C213.555 236.33 213.118 236.452 212.763 236.452ZM218.342 237.142C218.799 237.142 219.388 237.071 219.815 236.949L219.733 236.319C219.347 236.401 218.86 236.452 218.504 236.452C217.874 236.452 217.499 236.319 217.235 236.076C216.94 235.801 216.798 235.355 216.798 234.806H220.008C220.089 234.806 220.129 234.776 220.129 234.694V234.501C220.129 232.866 219.459 231.881 218.067 231.881C216.798 231.881 215.914 232.744 215.914 234.522C215.914 235.415 216.117 236.096 216.564 236.543C216.97 236.949 217.57 237.142 218.342 237.142ZM216.798 234.186C216.808 233.181 217.224 232.561 218.067 232.561C218.9 232.561 219.266 233.232 219.297 234.186H216.798ZM223.806 231.078H223.857C224.162 231.078 224.355 230.926 224.355 230.54V230.52C224.355 230.134 224.162 229.981 223.857 229.981H223.806C223.501 229.981 223.308 230.134 223.308 230.52V230.54C223.308 230.926 223.501 231.078 223.806 231.078ZM223.41 237H224.253V232.023H223.41V237ZM225.691 237H226.534V232.947C226.94 232.754 227.479 232.622 227.925 232.622C228.291 232.622 228.555 232.703 228.728 232.876C228.901 233.049 228.972 233.293 228.972 233.719V237H229.815V233.618C229.815 232.998 229.673 232.592 229.398 232.317C229.114 232.023 228.687 231.881 228.149 231.881C227.57 231.881 226.95 232.074 226.432 232.389L226.392 232.023H225.691V237ZM232.526 237.142C233.725 237.142 234.537 236.675 234.537 235.619C234.537 233.841 231.764 234.369 231.764 233.252C231.764 232.785 232.14 232.551 232.851 232.551C233.258 232.551 233.715 232.612 234.162 232.714L234.233 232.094C233.837 231.972 233.278 231.881 232.78 231.881C231.724 231.881 230.972 232.348 230.972 233.313C230.972 235.141 233.745 234.562 233.745 235.68C233.745 236.187 233.308 236.462 232.496 236.462C232.059 236.462 231.51 236.391 231.104 236.279L231.064 236.929C231.439 237.051 232.049 237.142 232.526 237.142ZM237.456 237.142C237.822 237.142 238.218 237.081 238.482 237.01L238.441 236.391C238.197 236.441 237.862 236.472 237.69 236.472C237.334 236.472 237.161 236.401 237.05 236.279C236.907 236.126 236.877 235.883 236.877 235.405V232.642H238.187V232.023H236.877V230.702C236.613 230.702 236.278 230.774 236.034 230.855V232.033L235.13 232.165V232.642H236.034V235.517C236.034 236.137 236.105 236.472 236.349 236.756C236.572 237.01 236.968 237.142 237.456 237.142ZM240.871 237.142C241.471 237.142 241.999 236.949 242.435 236.665L242.486 237H243.167V233.689C243.167 233.039 243.045 232.642 242.73 232.338C242.415 232.043 241.917 231.881 241.176 231.881C240.699 231.881 240.13 231.942 239.662 232.053L239.693 232.703C240.181 232.622 240.658 232.582 241.034 232.582C241.531 232.582 241.856 232.673 242.07 232.876C242.253 233.059 242.324 233.313 242.324 233.719V234.034H241.288C240.567 234.034 239.977 234.166 239.602 234.511C239.337 234.755 239.175 235.121 239.175 235.588C239.175 236.055 239.327 236.411 239.571 236.665C239.876 236.98 240.333 237.142 240.871 237.142ZM241.054 236.462C240.404 236.462 240.028 236.167 240.028 235.568C240.028 235.263 240.13 235.05 240.302 234.908C240.536 234.725 240.892 234.654 241.41 234.654H242.324V236.137C241.958 236.319 241.46 236.462 241.054 236.462ZM244.577 237H245.421V229.737H244.577V237ZM248.281 237.142C248.88 237.142 249.408 236.949 249.845 236.665L249.896 237H250.577V233.689C250.577 233.039 250.455 232.642 250.14 232.338C249.825 232.043 249.327 231.881 248.586 231.881C248.108 231.881 247.539 231.942 247.072 232.053L247.103 232.703C247.59 232.622 248.068 232.582 248.443 232.582C248.941 232.582 249.266 232.673 249.48 232.876C249.662 233.059 249.733 233.313 249.733 233.719V234.034H248.697C247.976 234.034 247.387 234.166 247.011 234.511C246.747 234.755 246.585 235.121 246.585 235.588C246.585 236.055 246.737 236.411 246.981 236.665C247.286 236.98 247.743 237.142 248.281 237.142ZM248.464 236.462C247.814 236.462 247.438 236.167 247.438 235.568C247.438 235.263 247.539 235.05 247.712 234.908C247.946 234.725 248.301 234.654 248.819 234.654H249.733V236.137C249.368 236.319 248.87 236.462 248.464 236.462ZM254.181 237.142C254.547 237.142 255.106 237.071 255.431 236.98L255.37 236.35C255.116 236.401 254.669 236.452 254.334 236.452C253.724 236.452 253.298 236.309 253.013 235.984C252.739 235.669 252.597 235.192 252.597 234.562C252.597 233.242 253.125 232.561 254.293 232.561C254.608 232.561 255.014 232.622 255.329 232.683L255.38 232.033C255.034 231.942 254.577 231.881 254.191 231.881C253.43 231.881 252.79 232.104 252.363 232.561C251.936 233.018 251.713 233.699 251.713 234.572C251.713 235.446 251.957 236.096 252.373 236.523C252.78 236.939 253.369 237.142 254.181 237.142ZM256.966 231.078H257.017C257.322 231.078 257.515 230.926 257.515 230.54V230.52C257.515 230.134 257.322 229.981 257.017 229.981H256.966C256.662 229.981 256.469 230.134 256.469 230.52V230.54C256.469 230.926 256.662 231.078 256.966 231.078ZM256.57 237H257.413V232.023H256.57V237ZM260.04 231.22L261.98 229.829L261.502 229.189L259.715 230.774L260.04 231.22ZM260.852 237.142C262.396 237.142 263.117 236.167 263.117 234.511C263.117 232.856 262.396 231.881 260.852 231.881C259.308 231.881 258.587 232.856 258.587 234.511C258.587 236.167 259.308 237.142 260.852 237.142ZM260.852 236.452C259.836 236.452 259.471 235.781 259.471 234.511C259.471 233.242 259.836 232.571 260.852 232.571C261.868 232.571 262.234 233.242 262.234 234.511C262.234 235.781 261.868 236.452 260.852 236.452ZM264.277 237H265.12V232.947C265.526 232.754 266.065 232.622 266.512 232.622C266.877 232.622 267.141 232.703 267.314 232.876C267.487 233.049 267.558 233.293 267.558 233.719V237H268.401V233.618C268.401 232.998 268.259 232.592 267.985 232.317C267.7 232.023 267.273 231.881 266.735 231.881C266.156 231.881 265.537 232.074 265.019 232.389L264.978 232.023H264.277V237ZM270.208 237.142H270.279C270.584 237.142 270.787 236.99 270.787 236.594V236.553C270.787 236.157 270.584 236.005 270.279 236.005H270.208C269.904 236.005 269.701 236.157 269.701 236.553V236.594C269.701 236.99 269.904 237.142 270.208 237.142Z" fill="#00081D"/>
<path d="M0 154.167C0 150.761 2.76086 148 6.16656 148H155.235C158.642 148 161.404 150.762 161.404 154.17V208.957C161.404 212.364 158.642 215.126 155.235 215.126H6.16656C2.76086 215.126 0 212.365 0 208.96V154.167Z" fill="#E63780"/>
<path d="M48.2448 195.321C51.9383 195.321 54.3881 194.568 56.1972 192.872C57.554 191.59 58.3455 189.743 58.3455 187.444C58.3455 177.381 45.1919 180.849 45.1919 175.798C45.1919 174.178 46.2095 173.047 49.3754 173.047C51.1845 173.047 53.4459 173.386 55.5565 173.952L56.461 169.58C54.4635 168.901 51.7499 168.524 49.2624 168.524C43.7597 168.524 39.6516 170.823 39.6516 176.062C39.6516 186.201 52.8052 182.695 52.8052 187.52C52.8052 189.894 51.1845 190.799 47.7171 190.799C45.8326 190.799 42.8552 190.309 40.5938 189.517L39.6893 194.002C42.2898 194.907 44.9658 195.321 48.2448 195.321ZM60.2994 195.321H65.086L76.4305 168.524H71.6439L60.2994 195.321ZM88.3956 195.321C94.3882 195.321 97.5164 192.042 97.5164 186.314C97.5164 181.15 94.8405 178.286 90.2424 178.286C88.471 178.286 86.3604 178.7 84.6644 179.605C84.7398 177.004 85.1544 175.233 86.285 174.102C87.3026 173.085 88.8479 172.745 91.3354 172.745C92.6922 172.745 94.0867 172.896 95.4058 173.122V169.014C93.6721 168.713 91.9384 168.524 90.0917 168.524C86.6619 168.524 84.2498 169.278 82.5161 171.012C80.2547 173.273 79.011 177.117 79.011 183.11C79.011 190.912 81.4985 195.321 88.3956 195.321ZM88.5087 191.213C85.5689 191.213 84.589 189.103 84.589 184.165V182.733C85.6443 182.507 87.265 182.356 88.3579 182.356C91.1093 182.356 92.1646 183.223 92.1646 186.502C92.1646 189.63 90.9208 191.213 88.5087 191.213ZM109.826 195.321C116.987 195.321 119.701 190.761 119.701 181.942C119.701 173.122 116.987 168.524 109.826 168.524C102.665 168.524 99.9515 173.122 99.9515 181.942C99.9515 190.761 102.665 195.321 109.826 195.321ZM109.826 190.987C106.773 190.987 105.567 189.065 105.567 181.942C105.567 174.818 106.773 172.482 109.826 172.482C112.879 172.482 114.085 174.818 114.085 181.942C114.085 189.065 112.879 190.987 109.826 190.987Z" fill="white"/>
<path d="M51.2963 163.525H52.2547V160.779H53.6222C54.5053 160.779 55.1083 160.564 55.5067 160.176C55.9159 159.767 56.1097 159.175 56.1097 158.389C56.1097 157.71 55.9374 157.151 55.5713 156.784C55.1514 156.354 54.4622 156.16 53.4069 156.16H51.2963V163.525ZM52.2547 160.004V156.914H53.3315C54.0422 156.914 54.4945 157.032 54.7745 157.312C55.0114 157.549 55.1191 157.904 55.1191 158.41C55.1191 158.992 54.9791 159.39 54.7206 159.638C54.4299 159.907 53.9668 160.004 53.2992 160.004H52.2547ZM57.051 163.525H57.9447V155.826H57.051V163.525ZM60.7618 163.676C61.3972 163.676 61.9571 163.472 62.4202 163.17L62.474 163.525H63.1955V160.015C63.1955 159.326 63.0663 158.906 62.7325 158.583C62.3986 158.27 61.871 158.098 61.0849 158.098C60.5788 158.098 59.9758 158.163 59.4804 158.281L59.5127 158.97C60.0296 158.884 60.5357 158.841 60.9341 158.841C61.4618 158.841 61.8064 158.938 62.0325 159.153C62.2263 159.347 62.3017 159.616 62.3017 160.047V160.381H61.2034C60.4388 160.381 59.8142 160.521 59.4158 160.887C59.1358 161.146 58.9635 161.533 58.9635 162.029C58.9635 162.524 59.1251 162.901 59.3835 163.17C59.7065 163.504 60.1911 163.676 60.7618 163.676ZM60.9557 162.955C60.2665 162.955 59.8681 162.642 59.8681 162.007C59.8681 161.684 59.9758 161.458 60.1588 161.307C60.4065 161.113 60.7834 161.038 61.3326 161.038H62.3017V162.61C61.9141 162.804 61.3864 162.955 60.9557 162.955ZM64.4649 163.525H65.3587V159.229C65.7894 159.024 66.3601 158.884 66.8339 158.884C67.2216 158.884 67.5016 158.97 67.6846 159.153C67.8677 159.336 67.9431 159.595 67.9431 160.047V163.525H68.8369V159.94C68.8369 159.283 68.6861 158.852 68.3954 158.561C68.0938 158.249 67.6416 158.098 67.0709 158.098C66.4571 158.098 65.8002 158.303 65.251 158.637L65.2079 158.249H64.4649V163.525ZM73.2632 163.525H74.2431L76.4506 157.043C76.5475 156.763 76.5691 156.601 76.5691 156.397C76.5691 156.311 76.5583 156.214 76.5368 156.16H72.111V156.871H75.6645L73.2632 163.525ZM80.0339 163.676C81.8645 163.676 82.5644 162.255 82.5644 159.853C82.5644 157.452 81.8645 156.02 80.0339 156.02C78.2032 156.02 77.5033 157.452 77.5033 159.853C77.5033 162.255 78.2032 163.676 80.0339 163.676ZM80.0339 162.912C78.8386 162.912 78.4401 161.91 78.4401 159.853C78.4401 157.797 78.8386 156.784 80.0339 156.784C81.2292 156.784 81.6276 157.797 81.6276 159.853C81.6276 161.91 81.2292 162.912 80.0339 162.912ZM85.6642 163.525H86.5149V158.001L88.6363 161.964H89.4331L91.5761 158.044V163.525H92.4806V156.16H91.6622L89.067 161.006L86.5041 156.16H85.6642V163.525ZM96.3123 163.676C97.626 163.676 98.369 162.782 98.369 160.866C98.369 158.97 97.6045 158.098 96.3231 158.098C95.8062 158.098 95.2354 158.281 94.8047 158.518V155.826H93.9109V163.525H94.6324L94.6755 163.17C95.0955 163.461 95.7416 163.676 96.3123 163.676ZM96.1077 162.933C95.6769 162.933 95.1601 162.772 94.8047 162.556V159.164C95.1601 158.992 95.6769 158.863 96.0861 158.863C97.023 158.863 97.4322 159.444 97.4322 160.866C97.4322 162.395 97.0015 162.933 96.1077 162.933ZM99.3847 165.948H100.278V163.278C100.666 163.525 101.237 163.676 101.786 163.676C103.046 163.676 103.843 162.847 103.843 160.866C103.843 159.186 103.186 158.098 101.818 158.098C101.334 158.098 100.72 158.27 100.171 158.637L100.128 158.249H99.3847V165.948ZM101.56 162.933C101.108 162.933 100.591 162.793 100.278 162.61V159.218C100.688 159.003 101.215 158.863 101.625 158.863C102.508 158.863 102.906 159.509 102.906 160.855C102.906 162.362 102.518 162.933 101.56 162.933ZM106.248 163.676C107.518 163.676 108.38 163.181 108.38 162.061C108.38 160.176 105.44 160.736 105.44 159.552C105.44 159.057 105.838 158.809 106.592 158.809C107.023 158.809 107.508 158.873 107.981 158.981L108.057 158.324C107.637 158.195 107.044 158.098 106.517 158.098C105.397 158.098 104.6 158.593 104.6 159.616C104.6 161.555 107.54 160.941 107.54 162.126C107.54 162.664 107.077 162.955 106.215 162.955C105.752 162.955 105.171 162.879 104.74 162.761L104.697 163.45C105.095 163.579 105.742 163.676 106.248 163.676Z" fill="white"/>
<path d="M37.6883 207.733H38.6466V204.987H40.0142C40.8972 204.987 41.5003 204.772 41.8987 204.384C42.3079 203.975 42.5017 203.383 42.5017 202.597C42.5017 201.918 42.3294 201.358 41.9633 200.992C41.5433 200.562 40.8542 200.368 39.7989 200.368H37.6883V207.733ZM38.6466 204.212V201.121H39.7235C40.4342 201.121 40.8865 201.24 41.1664 201.52C41.4033 201.757 41.511 202.112 41.511 202.618C41.511 203.2 41.371 203.598 41.1126 203.846C40.8219 204.115 40.3588 204.212 39.6912 204.212H38.6466ZM43.327 207.733H44.2208V203.469C44.5977 203.232 45.0392 203.114 45.5022 203.114C45.653 203.114 45.8468 203.124 45.9653 203.135V202.338C45.8468 202.317 45.7176 202.306 45.6207 202.306C45.1576 202.306 44.63 202.489 44.1239 202.909L44.07 202.457H43.327V207.733ZM48.7704 207.884C49.255 207.884 49.8796 207.809 50.3318 207.679L50.2457 207.012C49.8365 207.098 49.3196 207.152 48.9427 207.152C48.2751 207.152 47.8766 207.012 47.5967 206.753C47.2844 206.463 47.1336 205.989 47.1336 205.407H50.5364C50.6226 205.407 50.6657 205.375 50.6657 205.289V205.084C50.6657 203.351 49.9549 202.306 48.4797 202.306C47.1336 202.306 46.1968 203.221 46.1968 205.106C46.1968 206.053 46.4121 206.775 46.886 207.249C47.3167 207.679 47.952 207.884 48.7704 207.884ZM47.1336 204.75C47.1444 203.684 47.5859 203.027 48.4797 203.027C49.3627 203.027 49.7503 203.738 49.7826 204.75H47.1336ZM54.0454 207.884C54.4331 207.884 55.0253 207.809 55.3699 207.712L55.3053 207.044C55.0361 207.098 54.5623 207.152 54.2069 207.152C53.5608 207.152 53.1086 207.001 52.807 206.656C52.5163 206.323 52.3655 205.817 52.3655 205.149C52.3655 203.749 52.9255 203.027 54.1639 203.027C54.4977 203.027 54.9284 203.092 55.2622 203.157L55.3161 202.468C54.95 202.371 54.4654 202.306 54.0562 202.306C53.2486 202.306 52.5701 202.543 52.1179 203.027C51.6656 203.512 51.4287 204.234 51.4287 205.16C51.4287 206.086 51.6871 206.775 52.1286 207.227C52.5594 207.669 53.1839 207.884 54.0454 207.884ZM56.7827 201.455H56.8365C57.1596 201.455 57.3642 201.294 57.3642 200.885V200.863C57.3642 200.454 57.1596 200.292 56.8365 200.292H56.7827C56.4596 200.292 56.255 200.454 56.255 200.863V200.885C56.255 201.294 56.4596 201.455 56.7827 201.455ZM56.3627 207.733H57.2565V202.457H56.3627V207.733ZM60.6869 207.884C62.3237 207.884 63.0882 206.85 63.0882 205.095C63.0882 203.34 62.3237 202.306 60.6869 202.306C59.0501 202.306 58.2855 203.34 58.2855 205.095C58.2855 206.85 59.0501 207.884 60.6869 207.884ZM60.6869 207.152C59.6101 207.152 59.2224 206.441 59.2224 205.095C59.2224 203.749 59.6101 203.038 60.6869 203.038C61.7637 203.038 62.1514 203.749 62.1514 205.095C62.1514 206.441 61.7637 207.152 60.6869 207.152ZM66.0849 207.733H66.9786V203.469C67.3555 203.232 67.797 203.114 68.2601 203.114C68.4108 203.114 68.6047 203.124 68.7231 203.135V202.338C68.6047 202.317 68.4754 202.306 68.3785 202.306C67.9155 202.306 67.3878 202.489 66.8817 202.909L66.8279 202.457H66.0849V207.733ZM71.5283 207.884C72.0129 207.884 72.6374 207.809 73.0897 207.679L73.0035 207.012C72.5944 207.098 72.0775 207.152 71.7006 207.152C71.0329 207.152 70.6345 207.012 70.3545 206.753C70.0422 206.463 69.8915 205.989 69.8915 205.407H73.2943C73.3804 205.407 73.4235 205.375 73.4235 205.289V205.084C73.4235 203.351 72.7128 202.306 71.2375 202.306C69.8915 202.306 68.9546 203.221 68.9546 205.106C68.9546 206.053 69.17 206.775 69.6438 207.249C70.0746 207.679 70.7099 207.884 71.5283 207.884ZM69.8915 204.75C69.9023 203.684 70.3438 203.027 71.2375 203.027C72.1205 203.027 72.5082 203.738 72.5405 204.75H69.8915ZM76.5018 210.307C78.2893 210.307 79 209.715 79 208.649C79 208.218 78.8816 207.852 78.6124 207.583C78.2678 207.238 77.7509 207.087 76.8248 207.087H75.8126C75.5218 207.087 75.3818 206.99 75.3818 206.764C75.3818 206.581 75.5111 206.301 75.6726 206.118C75.9203 206.193 76.1895 206.226 76.5018 206.226C77.9447 206.226 78.6231 205.407 78.6231 204.266C78.6231 203.512 78.3216 202.888 77.6863 202.564L78.4185 201.315C78.2462 201.175 77.9232 201.025 77.6755 200.971L77.0402 202.349C76.8787 202.328 76.6956 202.306 76.5018 202.306C75.0588 202.306 74.3804 203.124 74.3804 204.266C74.3804 204.955 74.6281 205.515 75.1234 205.86C74.7465 206.226 74.4988 206.656 74.4988 207.076C74.4988 207.313 74.5742 207.507 74.7465 207.647C74.3804 207.906 74.1435 208.358 74.1435 208.821C74.1435 209.758 74.8757 210.307 76.5018 210.307ZM76.5018 205.515C75.6295 205.515 75.2311 205.073 75.2311 204.266C75.2311 203.458 75.6295 203.017 76.5018 203.017C77.374 203.017 77.7724 203.458 77.7724 204.266C77.7724 205.073 77.374 205.515 76.5018 205.515ZM76.5879 209.553C75.4142 209.553 74.9834 209.23 74.9834 208.659C74.9834 208.379 75.1019 208.089 75.2957 207.852C75.4034 207.873 75.5326 207.884 75.6834 207.884H76.8248C77.3525 207.884 77.697 207.949 77.9016 208.099C78.0739 208.229 78.1601 208.422 78.1601 208.681C78.1601 209.23 77.7078 209.553 76.5879 209.553ZM81.4955 207.884C82.1093 207.884 82.7446 207.679 83.2938 207.346L83.3369 207.733H84.0799V202.457H83.1861V206.753C82.7554 206.958 82.2062 207.098 81.7324 207.098C81.3447 207.098 81.0648 207.012 80.8817 206.829C80.6986 206.646 80.6233 206.387 80.6233 205.935V202.457H79.7295V206.043C79.7295 206.7 79.8802 207.13 80.171 207.421C80.4725 207.733 80.9248 207.884 81.4955 207.884ZM85.3828 207.733H86.2766V200.034H85.3828V207.733ZM89.0937 207.884C89.729 207.884 90.289 207.679 90.752 207.378L90.8059 207.733H91.5273V204.223C91.5273 203.534 91.3981 203.114 91.0643 202.791C90.7305 202.478 90.2028 202.306 89.4167 202.306C88.9106 202.306 88.3076 202.371 87.8122 202.489L87.8446 203.178C88.3614 203.092 88.8675 203.049 89.266 203.049C89.7936 203.049 90.1382 203.146 90.3644 203.361C90.5582 203.555 90.6336 203.824 90.6336 204.255V204.589H89.5352C88.7706 204.589 88.1461 204.729 87.7476 205.095C87.4677 205.353 87.2954 205.741 87.2954 206.236C87.2954 206.732 87.4569 207.109 87.7153 207.378C88.0384 207.712 88.523 207.884 89.0937 207.884ZM89.2875 207.163C88.5983 207.163 88.1999 206.85 88.1999 206.215C88.1999 205.892 88.3076 205.666 88.4907 205.515C88.7383 205.321 89.1152 205.246 89.6644 205.246H90.6336V206.818C90.2459 207.012 89.7182 207.163 89.2875 207.163ZM92.7967 207.733H93.6905V203.469C94.0674 203.232 94.5089 203.114 94.972 203.114C95.1227 203.114 95.3165 203.124 95.435 203.135V202.338C95.3165 202.317 95.1873 202.306 95.0904 202.306C94.6274 202.306 94.0997 202.489 93.5936 202.909L93.5398 202.457H92.7967V207.733ZM96.6191 204.535H96.6945C97.0175 204.535 97.2329 204.374 97.2329 203.954V203.911C97.2329 203.491 97.0175 203.329 96.6945 203.329H96.6191C96.296 203.329 96.0807 203.491 96.0807 203.911V203.954C96.0807 204.374 96.296 204.535 96.6191 204.535ZM96.6191 207.884H96.6945C97.0175 207.884 97.2329 207.723 97.2329 207.303V207.259C97.2329 206.84 97.0175 206.678 96.6945 206.678H96.6191C96.296 206.678 96.0807 206.84 96.0807 207.259V207.303C96.0807 207.723 96.296 207.884 96.6191 207.884ZM102.377 207.884C103.227 207.884 103.884 207.679 104.326 207.259C104.692 206.915 104.907 206.409 104.907 205.763C104.907 203.243 101.117 203.814 101.117 202.134C101.117 201.348 101.73 201.025 102.732 201.025C103.216 201.025 103.787 201.1 104.326 201.24L104.466 200.508C103.96 200.335 103.292 200.228 102.657 200.228C101.192 200.228 100.212 200.895 100.212 202.198C100.212 204.729 103.992 204.007 103.992 205.86C103.992 206.258 103.852 206.549 103.593 206.753C103.303 206.979 102.893 207.087 102.29 207.087C101.698 207.087 101.009 206.958 100.449 206.796L100.287 207.529C100.847 207.755 101.698 207.884 102.377 207.884ZM105.682 207.884H106.554L109.731 200.228H108.859L105.682 207.884ZM114.849 207.884C116.324 207.884 117.304 207.076 117.304 205.827C117.304 204.815 116.518 204.287 115.667 203.857C116.496 203.458 117.002 202.812 117.002 201.994C117.002 201.046 116.184 200.228 114.892 200.228C113.632 200.228 112.749 200.992 112.749 202.101C112.749 202.984 113.277 203.491 113.923 203.867C113.083 204.287 112.458 205.009 112.458 205.924C112.458 207.087 113.352 207.884 114.849 207.884ZM115.01 203.534C114.246 203.157 113.589 202.769 113.589 202.048C113.589 201.391 114.116 200.96 114.903 200.96C115.667 200.96 116.173 201.434 116.173 202.058C116.173 202.661 115.753 203.157 115.01 203.534ZM114.859 207.141C113.923 207.141 113.341 206.689 113.341 205.86C113.341 205.117 113.88 204.567 114.601 204.212C115.506 204.643 116.41 205.009 116.41 205.913C116.41 206.7 115.796 207.141 114.859 207.141ZM120.607 207.884C122.438 207.884 123.138 206.463 123.138 204.061C123.138 201.66 122.438 200.228 120.607 200.228C118.777 200.228 118.077 201.66 118.077 204.061C118.077 206.463 118.777 207.884 120.607 207.884ZM120.607 207.119C119.412 207.119 119.013 206.118 119.013 204.061C119.013 202.005 119.412 200.992 120.607 200.992C121.802 200.992 122.201 202.005 122.201 204.061C122.201 206.118 121.802 207.119 120.607 207.119Z" fill="white"/>
<path d="M101.095 206.452L125.202 200.163" stroke="white" stroke-width="1.04812" stroke-linecap="round"/>
</svg>
