<svg width="201" height="184" viewBox="0 0 201 184" fill="none" xmlns="http://www.w3.org/2000/svg">
<path d="M191 -4.37114e-07C196.523 -1.95702e-07 201 4.47715 201 10L201 108L-4.72083e-06 108L-4.37114e-07 9.99999C-1.95703e-07 4.47715 4.47714 -8.59029e-06 10 -8.34888e-06L191 -4.37114e-07Z" fill="#5CB615"/>
<path d="M191 184C196.523 184 201 179.523 201 174L201 108L9.06291e-07 108L1.19249e-07 174C5.33895e-08 179.523 4.47714 184 10 184L191 184Z" fill="#BDE4A4"/>
<path d="M19.329 24.0021H22.401C24.113 24.0021 25.329 23.6341 26.129 22.8181C27.009 21.9221 27.441 20.4821 27.441 18.4661C27.441 16.5781 27.057 15.2661 26.273 14.4021C25.409 13.4581 24.113 13.0581 22.097 13.0581H19.329V24.0021ZM20.753 22.8661V14.1941H22.017C23.665 14.1941 24.577 14.5141 25.169 15.2341C25.729 15.9221 25.969 16.9941 25.969 18.4821C25.969 20.1621 25.649 21.3621 24.913 22.0661C24.353 22.6101 23.585 22.8661 22.353 22.8661H20.753ZM32.4887 11.8581L35.5447 9.66607L34.7927 8.65807L31.9767 11.1541L32.4887 11.8581ZM33.5927 24.2261C34.8407 24.2261 35.8007 23.8901 36.4567 23.2661C37.1607 22.5941 37.5287 21.5541 37.5287 20.0661V13.0581H36.2327V19.9861C36.2327 21.1221 36.0087 21.8581 35.5127 22.3541C35.0967 22.7701 34.4407 23.0101 33.6247 23.0101C32.7287 23.0101 32.0887 22.7701 31.6567 22.3541C31.1607 21.8741 30.9687 21.1861 30.9687 19.9861V13.0581H29.5447V20.0661C29.5447 21.6021 29.8967 22.6261 30.6647 23.3141C31.3207 23.9061 32.3127 24.2261 33.5927 24.2261ZM43.9994 24.2261C47.2794 24.2261 48.3674 21.7461 48.3674 18.5461C48.3674 15.3461 47.2794 12.8501 43.9994 12.8501C40.7194 12.8501 39.6314 15.3461 39.6314 18.5461C39.6314 21.7461 40.7194 24.2261 43.9994 24.2261ZM43.9994 22.9941C41.7434 22.9941 41.1194 21.2341 41.1194 18.5461C41.1194 15.8581 41.7434 14.0821 43.9994 14.0821C46.2554 14.0821 46.8794 15.8581 46.8794 18.5461C46.8794 21.2341 46.2554 22.9941 43.9994 22.9941ZM53.8602 24.0021H55.1242V15.7941L58.2762 21.6821H59.4602L62.6442 15.8581V24.0021H63.9882V13.0581H62.7722L58.9162 20.2581L55.1082 13.0581H53.8602V24.0021ZM70.5775 24.2261C73.8575 24.2261 74.9455 21.7461 74.9455 18.5461C74.9455 15.3461 73.8575 12.8501 70.5775 12.8501C67.2975 12.8501 66.2095 15.3461 66.2095 18.5461C66.2095 21.7461 67.2975 24.2261 70.5775 24.2261ZM70.5775 22.9941C68.3215 22.9941 67.6975 21.2341 67.6975 18.5461C67.6975 15.8581 68.3215 14.0821 70.5775 14.0821C72.8335 14.0821 73.4575 15.8581 73.4575 18.5461C73.4575 21.2341 72.8335 22.9941 70.5775 22.9941ZM79.6885 24.0021H81.2725L84.7765 13.0581H83.3685L80.5365 22.4501H80.5045L77.4805 13.0581H76.0085L79.6885 24.0021ZM86.4707 24.0021H87.8947V13.0581H86.4707V24.0021ZM93.3306 24.2261C94.5946 24.2261 95.5706 23.9221 96.2266 23.2981C96.7706 22.7861 97.0906 22.0341 97.0906 21.0741C97.0906 17.3301 91.4586 18.1781 91.4586 15.6821C91.4586 14.5141 92.3706 14.0341 93.8586 14.0341C94.5786 14.0341 95.4266 14.1461 96.2266 14.3541L96.4346 13.2661C95.6826 13.0101 94.6906 12.8501 93.7466 12.8501C91.5706 12.8501 90.1146 13.8421 90.1146 15.7781C90.1146 19.5381 95.7306 18.4661 95.7306 21.2181C95.7306 21.8101 95.5226 22.2421 95.1386 22.5461C94.7066 22.8821 94.0986 23.0421 93.2026 23.0421C92.3226 23.0421 91.2986 22.8501 90.4666 22.6101L90.2266 23.6981C91.0586 24.0341 92.3226 24.2261 93.3306 24.2261ZM101.216 24.0021H102.64V14.1781H106.064L106.192 13.0581H97.728V14.1781H101.216V24.0021ZM105.68 24.0021H107.072L107.968 21.0901H112.112L113.072 24.0021H114.56L110.784 13.0581H109.152L105.68 24.0021ZM108.32 19.9701L109.968 14.5621H109.984L111.744 19.9701H108.32ZM116.173 24.0021H117.597V19.8261H119.261C119.485 19.8261 119.773 19.8101 119.965 19.7941C120.685 21.2021 121.389 22.6101 122.093 24.0021H123.677L121.325 19.5541C122.621 19.1061 123.373 18.0501 123.373 16.3701C123.373 15.2821 123.101 14.4661 122.557 13.9381C121.933 13.3141 120.877 13.0581 119.357 13.0581H116.173V24.0021ZM117.597 18.6741V14.1781H119.197C120.285 14.1781 120.989 14.3381 121.405 14.7541C121.741 15.0901 121.901 15.6181 121.901 16.3701C121.901 17.0741 121.757 17.6341 121.421 18.0181C121.037 18.4501 120.429 18.6741 119.293 18.6741H117.597ZM131.415 24.2261C132.823 24.2261 133.863 23.8901 134.519 23.2181C135.095 22.6421 135.399 21.8261 135.399 20.8021C135.399 19.8101 135.111 19.0421 134.567 18.4821C133.911 17.8101 132.951 17.5221 131.303 17.5221H130.471L130.615 14.1141H134.727V13.0581H129.495L129.287 17.6661C129.271 18.0181 129.271 18.1301 129.271 18.2581C129.271 18.3701 129.287 18.5141 129.319 18.5941H131.111C132.311 18.5941 133.031 18.7541 133.463 19.1861C133.831 19.5541 134.007 20.1461 134.007 20.8341C134.007 21.6181 133.783 22.1781 133.351 22.5461C132.887 22.9301 132.247 23.1061 131.159 23.1061C130.663 23.1061 129.703 23.0261 129.127 22.9301V23.9701C129.703 24.1141 130.663 24.2261 131.415 24.2261ZM140.979 24.2261C143.699 24.2261 144.739 22.1141 144.739 18.5461C144.739 14.9781 143.699 12.8501 140.979 12.8501C138.259 12.8501 137.219 14.9781 137.219 18.5461C137.219 22.1141 138.259 24.2261 140.979 24.2261ZM140.979 23.0901C139.203 23.0901 138.611 21.6021 138.611 18.5461C138.611 15.4901 139.203 13.9861 140.979 13.9861C142.755 13.9861 143.347 15.4901 143.347 18.5461C143.347 21.6021 142.755 23.0901 140.979 23.0901ZM146.72 24.0021H147.984V15.7941L151.136 21.6821H152.32L155.504 15.8581V24.0021H156.848V13.0581H155.632L151.776 20.2581L147.968 13.0581H146.72V24.0021ZM162.861 24.2261C164.813 24.2261 165.917 22.8981 165.917 20.0501C165.917 17.2341 164.781 15.9381 162.877 15.9381C162.109 15.9381 161.261 16.2101 160.621 16.5621V12.5621H159.293V24.0021H160.365L160.429 23.4741C161.053 23.9061 162.013 24.2261 162.861 24.2261ZM162.557 23.1221C161.917 23.1221 161.149 22.8821 160.621 22.5621V17.5221C161.149 17.2661 161.917 17.0741 162.525 17.0741C163.917 17.0741 164.525 17.9381 164.525 20.0501C164.525 22.3221 163.885 23.1221 162.557 23.1221ZM167.746 27.6021H169.074V23.6341C169.65 24.0021 170.498 24.2261 171.314 24.2261C173.186 24.2261 174.37 22.9941 174.37 20.0501C174.37 17.5541 173.394 15.9381 171.362 15.9381C170.642 15.9381 169.73 16.1941 168.914 16.7381L168.85 16.1621H167.746V27.6021ZM170.978 23.1221C170.306 23.1221 169.538 22.9141 169.074 22.6421V17.6021C169.682 17.2821 170.466 17.0741 171.074 17.0741C172.386 17.0741 172.978 18.0341 172.978 20.0341C172.978 22.2741 172.402 23.1221 170.978 23.1221ZM178.263 24.2261C180.151 24.2261 181.431 23.4901 181.431 21.8261C181.431 19.0261 177.063 19.8581 177.063 18.0981C177.063 17.3621 177.655 16.9941 178.775 16.9941C179.415 16.9941 180.135 17.0901 180.839 17.2501L180.951 16.2741C180.327 16.0821 179.447 15.9381 178.663 15.9381C176.999 15.9381 175.815 16.6741 175.815 18.1941C175.815 21.0741 180.183 20.1621 180.183 21.9221C180.183 22.7221 179.495 23.1541 178.215 23.1541C177.527 23.1541 176.663 23.0421 176.023 22.8661L175.959 23.8901C176.551 24.0821 177.511 24.2261 178.263 24.2261Z" fill="white"/>
<path d="M23.329 95.0021H24.753V90.9221H26.785C28.097 90.9221 28.993 90.6021 29.585 90.0261C30.193 89.4181 30.481 88.5381 30.481 87.3701C30.481 86.3621 30.225 85.5301 29.681 84.9861C29.057 84.3461 28.033 84.0581 26.465 84.0581H23.329V95.0021ZM24.753 89.7701V85.1781H26.353C27.409 85.1781 28.081 85.3541 28.497 85.7701C28.849 86.1221 29.009 86.6501 29.009 87.4021C29.009 88.2661 28.801 88.8581 28.417 89.2261C27.985 89.6261 27.297 89.7701 26.305 89.7701H24.753ZM32.0272 95.0021H33.3552V88.6661C33.9152 88.3141 34.5712 88.1381 35.2592 88.1381C35.4832 88.1381 35.7712 88.1541 35.9472 88.1701V86.9861C35.7712 86.9541 35.5792 86.9381 35.4352 86.9381C34.7472 86.9381 33.9632 87.2101 33.2112 87.8341L33.1312 87.1621H32.0272V95.0021ZM40.4352 95.2261C41.1552 95.2261 42.0832 95.1141 42.7552 94.9221L42.6272 93.9301C42.0192 94.0581 41.2512 94.1381 40.6912 94.1381C39.6992 94.1381 39.1072 93.9301 38.6912 93.5461C38.2272 93.1141 38.0032 92.4101 38.0032 91.5461H43.0592C43.1872 91.5461 43.2512 91.4981 43.2512 91.3701V91.0661C43.2512 88.4901 42.1952 86.9381 40.0032 86.9381C38.0032 86.9381 36.6112 88.2981 36.6112 91.0981C36.6112 92.5061 36.9312 93.5781 37.6352 94.2821C38.2752 94.9221 39.2192 95.2261 40.4352 95.2261ZM38.0032 90.5701C38.0192 88.9861 38.6752 88.0101 40.0032 88.0101C41.3152 88.0101 41.8912 89.0661 41.9392 90.5701H38.0032ZM48.593 95.2261C49.169 95.2261 50.049 95.1141 50.561 94.9701L50.465 93.9781C50.065 94.0581 49.361 94.1381 48.833 94.1381C47.873 94.1381 47.201 93.9141 46.753 93.4021C46.321 92.9061 46.097 92.1541 46.097 91.1621C46.097 89.0821 46.929 88.0101 48.769 88.0101C49.265 88.0101 49.905 88.1061 50.401 88.2021L50.481 87.1781C49.937 87.0341 49.217 86.9381 48.609 86.9381C47.409 86.9381 46.401 87.2901 45.729 88.0101C45.057 88.7301 44.705 89.8021 44.705 91.1781C44.705 92.5541 45.089 93.5781 45.745 94.2501C46.385 94.9061 47.313 95.2261 48.593 95.2261ZM52.9801 85.6741H53.0601C53.5401 85.6741 53.8441 85.4341 53.8441 84.8261V84.7941C53.8441 84.1861 53.5401 83.9461 53.0601 83.9461H52.9801C52.5001 83.9461 52.1961 84.1861 52.1961 84.7941V84.8261C52.1961 85.4341 52.5001 85.6741 52.9801 85.6741ZM52.3561 95.0021H53.6841V87.1621H52.3561V95.0021ZM59.1011 95.2261C61.5331 95.2261 62.6691 93.6901 62.6691 91.0821C62.6691 88.4741 61.5331 86.9381 59.1011 86.9381C56.6691 86.9381 55.5331 88.4741 55.5331 91.0821C55.5331 93.6901 56.6691 95.2261 59.1011 95.2261ZM59.1011 94.1381C57.5011 94.1381 56.9251 93.0821 56.9251 91.0821C56.9251 89.0821 57.5011 88.0261 59.1011 88.0261C60.7011 88.0261 61.2771 89.0821 61.2771 91.0821C61.2771 93.0821 60.7011 94.1381 59.1011 94.1381ZM67.7616 95.0021H69.0896V88.6661C69.6496 88.3141 70.3056 88.1381 70.9936 88.1381C71.2176 88.1381 71.5056 88.1541 71.6816 88.1701V86.9861C71.5056 86.9541 71.3136 86.9381 71.1696 86.9381C70.4816 86.9381 69.6976 87.2101 68.9456 87.8341L68.8656 87.1621H67.7616V95.0021ZM76.1696 95.2261C76.8896 95.2261 77.8176 95.1141 78.4896 94.9221L78.3616 93.9301C77.7536 94.0581 76.9856 94.1381 76.4256 94.1381C75.4336 94.1381 74.8416 93.9301 74.4256 93.5461C73.9616 93.1141 73.7376 92.4101 73.7376 91.5461H78.7936C78.9216 91.5461 78.9856 91.4981 78.9856 91.3701V91.0661C78.9856 88.4901 77.9296 86.9381 75.7376 86.9381C73.7376 86.9381 72.3456 88.2981 72.3456 91.0981C72.3456 92.5061 72.6656 93.5781 73.3696 94.2821C74.0096 94.9221 74.9536 95.2261 76.1696 95.2261ZM73.7376 90.5701C73.7536 88.9861 74.4096 88.0101 75.7376 88.0101C77.0496 88.0101 77.6256 89.0661 77.6736 90.5701H73.7376ZM83.8794 98.8261C86.5354 98.8261 87.5914 97.9461 87.5914 96.3621C87.5914 95.7221 87.4154 95.1781 87.0154 94.7781C86.5034 94.2661 85.7354 94.0421 84.3594 94.0421H82.8554C82.4234 94.0421 82.2154 93.8981 82.2154 93.5621C82.2154 93.2901 82.4074 92.8741 82.6474 92.6021C83.0154 92.7141 83.4154 92.7621 83.8794 92.7621C86.0234 92.7621 87.0314 91.5461 87.0314 89.8501C87.0314 88.7301 86.5834 87.8021 85.6394 87.3221L86.7274 85.4661C86.4714 85.2581 85.9914 85.0341 85.6234 84.9541L84.6794 87.0021C84.4394 86.9701 84.1674 86.9381 83.8794 86.9381C81.7354 86.9381 80.7274 88.1541 80.7274 89.8501C80.7274 90.8741 81.0954 91.7061 81.8314 92.2181C81.2714 92.7621 80.9034 93.4021 80.9034 94.0261C80.9034 94.3781 81.0154 94.6661 81.2714 94.8741C80.7274 95.2581 80.3754 95.9301 80.3754 96.6181C80.3754 98.0101 81.4634 98.8261 83.8794 98.8261ZM83.8794 91.7061C82.5834 91.7061 81.9914 91.0501 81.9914 89.8501C81.9914 88.6501 82.5834 87.9941 83.8794 87.9941C85.1754 87.9941 85.7674 88.6501 85.7674 89.8501C85.7674 91.0501 85.1754 91.7061 83.8794 91.7061ZM84.0074 97.7061C82.2634 97.7061 81.6234 97.2261 81.6234 96.3781C81.6234 95.9621 81.7994 95.5301 82.0874 95.1781C82.2474 95.2101 82.4394 95.2261 82.6634 95.2261H84.3594C85.1434 95.2261 85.6554 95.3221 85.9594 95.5461C86.2154 95.7381 86.3434 96.0261 86.3434 96.4101C86.3434 97.2261 85.6714 97.7061 84.0074 97.7061ZM91.6192 95.2261C92.5312 95.2261 93.4752 94.9221 94.2912 94.4261L94.3552 95.0021H95.4592V87.1621H94.1312V93.5461C93.4912 93.8501 92.6752 94.0581 91.9712 94.0581C91.3952 94.0581 90.9792 93.9301 90.7072 93.6581C90.4352 93.3861 90.3232 93.0021 90.3232 92.3301V87.1621H88.9952V92.4901C88.9952 93.4661 89.2192 94.1061 89.6512 94.5381C90.0992 95.0021 90.7712 95.2261 91.6192 95.2261ZM97.7151 95.0021H99.0431V83.5621H97.7151V95.0021ZM103.549 95.2261C104.493 95.2261 105.325 94.9221 106.013 94.4741L106.093 95.0021H107.165V89.7861C107.165 88.7621 106.973 88.1381 106.477 87.6581C105.981 87.1941 105.197 86.9381 104.029 86.9381C103.277 86.9381 102.381 87.0341 101.645 87.2101L101.693 88.2341C102.461 88.1061 103.213 88.0421 103.805 88.0421C104.589 88.0421 105.101 88.1861 105.437 88.5061C105.725 88.7941 105.837 89.1941 105.837 89.8341V90.3301H104.205C103.069 90.3301 102.141 90.5381 101.549 91.0821C101.133 91.4661 100.877 92.0421 100.877 92.7781C100.877 93.5141 101.117 94.0741 101.501 94.4741C101.981 94.9701 102.701 95.2261 103.549 95.2261ZM103.837 94.1541C102.813 94.1541 102.221 93.6901 102.221 92.7461C102.221 92.2661 102.381 91.9301 102.653 91.7061C103.021 91.4181 103.581 91.3061 104.397 91.3061H105.837V93.6421C105.261 93.9301 104.477 94.1541 103.837 94.1541ZM109.371 95.0021H110.699V88.6661C111.259 88.3141 111.915 88.1381 112.603 88.1381C112.827 88.1381 113.115 88.1541 113.291 88.1701V86.9861C113.115 86.9541 112.923 86.9381 112.779 86.9381C112.091 86.9381 111.307 87.2101 110.555 87.8341L110.475 87.1621H109.371V95.0021ZM120.94 95.2261C122.204 95.2261 123.18 94.9221 123.836 94.2981C124.38 93.7861 124.7 93.0341 124.7 92.0741C124.7 88.3301 119.068 89.1781 119.068 86.6821C119.068 85.5141 119.98 85.0341 121.468 85.0341C122.188 85.0341 123.036 85.1461 123.836 85.3541L124.044 84.2661C123.292 84.0101 122.3 83.8501 121.356 83.8501C119.18 83.8501 117.724 84.8421 117.724 86.7781C117.724 90.5381 123.34 89.4661 123.34 92.2181C123.34 92.8101 123.132 93.2421 122.748 93.5461C122.316 93.8821 121.708 94.0421 120.812 94.0421C119.932 94.0421 118.908 93.8501 118.076 93.6101L117.836 94.6981C118.668 95.0341 119.932 95.2261 120.94 95.2261ZM126.171 95.2261H127.467L132.187 83.8501H130.891L126.171 95.2261ZM134.846 95.0021H139.71V93.9781H138.046V84.6981C138.046 84.1221 137.822 83.9461 137.134 83.9461C136.558 83.9461 135.534 84.0261 134.878 84.1221V85.0181H136.734V93.9781H134.846V95.0021ZM147.258 95.0021H148.57V92.3301H149.898V91.2581H148.57V88.4901H147.258V91.2581H143.626L146.17 84.0581H144.874L142.57 90.6661C142.346 91.3061 142.282 91.5621 142.282 91.9141C142.282 92.0421 142.298 92.2181 142.314 92.3301H147.258V95.0021ZM153.318 95.0021H154.774L158.054 85.3701C158.198 84.9541 158.23 84.7141 158.23 84.4101C158.23 84.2821 158.214 84.1381 158.182 84.0581H151.606V85.1141H156.886L153.318 95.0021ZM161.042 95.2261H161.154C161.634 95.2261 161.954 94.9861 161.954 94.3621V94.2981C161.954 93.6741 161.634 93.4341 161.154 93.4341H161.042C160.562 93.4341 160.242 93.6741 160.242 94.2981V94.3621C160.242 94.9861 160.562 95.2261 161.042 95.2261ZM166.507 95.2261C167.787 95.2261 168.795 94.8421 169.467 94.0421C170.331 93.0181 170.747 91.3381 170.747 88.9701C170.747 85.8341 169.803 83.8501 167.131 83.8501C164.859 83.8501 163.659 85.4021 163.659 87.5141C163.659 89.6741 164.843 90.7941 166.731 90.7941C167.643 90.7941 168.603 90.5221 169.371 90.2021C169.259 92.7781 168.555 94.1381 166.395 94.1381C165.883 94.1381 165.195 94.0741 164.715 94.0101V95.0341C165.243 95.1461 165.947 95.2261 166.507 95.2261ZM167.003 89.7221C165.547 89.7221 165.003 88.9221 165.003 87.4341C165.003 85.9141 165.723 84.9381 167.099 84.9381C168.843 84.9381 169.387 86.3781 169.387 88.6661V89.3061C168.651 89.5461 167.707 89.7221 167.003 89.7221ZM176.151 95.2261C178.871 95.2261 179.911 93.1141 179.911 89.5461C179.911 85.9781 178.871 83.8501 176.151 83.8501C173.431 83.8501 172.391 85.9781 172.391 89.5461C172.391 93.1141 173.431 95.2261 176.151 95.2261ZM176.151 94.0901C174.375 94.0901 173.783 92.6021 173.783 89.5461C173.783 86.4901 174.375 84.9861 176.151 84.9861C177.927 84.9861 178.519 86.4901 178.519 89.5461C178.519 92.6021 177.927 94.0901 176.151 94.0901Z" fill="white"/>
<path d="M33.729 79.1031C31.377 79.1031 29.2583 78.7765 27.373 78.1231L28.045 74.7911C28.8663 75.0711 29.7716 75.3045 30.761 75.4911C31.7503 75.6591 32.609 75.7431 33.337 75.7431C34.6436 75.7431 35.5956 75.5565 36.193 75.1831C36.809 74.8098 37.117 74.1845 37.117 73.3071C37.117 72.6538 36.8276 72.1685 36.249 71.8511C35.689 71.5338 34.793 71.2165 33.561 70.8991C32.2916 70.5631 31.237 70.2085 30.397 69.8351C29.557 69.4618 28.8383 68.8738 28.241 68.0711C27.6436 67.2685 27.345 66.1765 27.345 64.7951C27.345 62.9285 27.9983 61.5285 29.305 60.5951C30.6116 59.6618 32.3383 59.1951 34.485 59.1951C35.4183 59.1951 36.361 59.2698 37.313 59.4191C38.265 59.5498 39.105 59.7365 39.833 59.9791L39.161 63.2271C37.481 62.7791 35.9503 62.5551 34.569 62.5551C33.449 62.5551 32.6463 62.7325 32.161 63.0871C31.6943 63.4418 31.461 63.9458 31.461 64.5991C31.461 65.0845 31.6103 65.4858 31.909 65.8031C32.2263 66.1018 32.6183 66.3445 33.085 66.5311C33.5516 66.7178 34.2236 66.9325 35.101 67.1751C36.3703 67.5111 37.4156 67.8751 38.237 68.2671C39.0583 68.6405 39.7583 69.2285 40.337 70.0311C40.9343 70.8338 41.233 71.9071 41.233 73.2511C41.233 74.9311 40.701 76.2751 39.637 77.2831C38.965 77.9178 38.153 78.3845 37.201 78.6831C36.2676 78.9631 35.1103 79.1031 33.729 79.1031ZM51.6726 59.1951H55.2286L46.8006 79.1031H43.2446L51.6726 59.1951Z" fill="white"/>
<path d="M77.148 79.952C71.1187 79.952 66.7893 78.116 64.16 74.444C61.5307 70.7267 60.216 65.2187 60.216 57.92C60.216 47.584 62.324 40.308 66.54 36.092C68.0813 34.5507 69.9627 33.4173 72.184 32.692C74.4053 31.9667 77.08 31.604 80.208 31.604C83.2 31.604 86.396 31.8987 89.796 32.488V39.9C87.1667 39.4467 84.7187 39.22 82.452 39.22C80.14 39.22 78.2587 39.4013 76.808 39.764C75.4027 40.1267 74.2467 40.7613 73.34 41.668C72.3427 42.6653 71.6173 43.9573 71.164 45.544C70.756 47.1307 70.5067 49.148 70.416 51.596C71.8667 50.8253 73.476 50.236 75.244 49.828C77.0573 49.42 78.8027 49.216 80.48 49.216C84.6507 49.216 87.8693 50.4853 90.136 53.024C92.448 55.5173 93.604 59.076 93.604 63.7C93.604 68.9133 92.1987 72.9253 89.388 75.736C86.5773 78.5467 82.4973 79.952 77.148 79.952ZM77.352 72.54C81.7493 72.54 83.948 69.7067 83.948 64.04C83.948 61.1387 83.4267 59.1667 82.384 58.124C81.3867 57.0813 79.6187 56.56 77.08 56.56C76.0827 56.56 74.9267 56.628 73.612 56.764C72.3427 56.9 71.232 57.0587 70.28 57.24V59.824C70.28 64.3573 70.8013 67.6213 71.844 69.616C72.8867 71.5653 74.7227 72.54 77.352 72.54ZM121.389 39.424H99.6974V32.488H130.025C130.343 32.9867 130.501 33.916 130.501 35.276C130.501 37.724 130.139 39.9453 129.413 41.94L116.357 79H105.953L121.389 39.424Z" fill="white"/>
<path d="M134.84 50.8023C134.199 50.8023 133.722 50.6636 133.41 50.3863C133.098 50.109 132.942 49.6496 132.942 49.0083V48.6963C132.942 48.055 133.098 47.5956 133.41 47.3183C133.722 47.041 134.199 46.9023 134.84 46.9023H135.022C135.664 46.9023 136.14 47.041 136.452 47.3183C136.764 47.5956 136.92 48.055 136.92 48.6963V49.0083C136.92 49.6496 136.764 50.109 136.452 50.3863C136.14 50.6636 135.664 50.8023 135.022 50.8023H134.84ZM144.389 50.8023C143.245 50.8023 142.023 50.6896 140.723 50.4643V47.6303C141.728 47.8036 142.664 47.8903 143.531 47.8903C144.415 47.8903 145.126 47.821 145.663 47.6823C146.218 47.5436 146.668 47.301 147.015 46.9543C147.396 46.573 147.665 46.079 147.821 45.4723C147.994 44.8656 148.098 44.0943 148.133 43.1583C147.578 43.453 146.954 43.6783 146.261 43.8343C145.585 43.9903 144.926 44.0683 144.285 44.0683C142.69 44.0683 141.451 43.5916 140.567 42.6383C139.7 41.6676 139.267 40.2983 139.267 38.5303C139.267 36.537 139.804 35.003 140.879 33.9283C141.954 32.8536 143.514 32.3163 145.559 32.3163C147.864 32.3163 149.52 33.027 150.525 34.4483C151.531 35.8523 152.033 37.9496 152.033 40.7403C152.033 44.6923 151.227 47.4743 149.615 49.0863C149.026 49.6756 148.306 50.109 147.457 50.3863C146.608 50.6636 145.585 50.8023 144.389 50.8023ZM145.585 41.2603C145.966 41.2603 146.4 41.2343 146.885 41.1823C147.388 41.1303 147.821 41.0696 148.185 41.0003V40.0123C148.185 38.279 147.986 37.0396 147.587 36.2943C147.188 35.5316 146.486 35.1503 145.481 35.1503C143.8 35.1503 142.959 36.2336 142.959 38.4003C142.959 39.5096 143.15 40.2636 143.531 40.6623C143.93 41.061 144.614 41.2603 145.585 41.2603ZM161.435 50.8023C159.026 50.8023 157.284 50.0483 156.209 48.5403C155.152 47.015 154.623 44.6923 154.623 41.5723C154.623 38.4523 155.152 36.1296 156.209 34.6043C157.284 33.079 159.026 32.3163 161.435 32.3163C163.844 32.3163 165.578 33.079 166.635 34.6043C167.71 36.1296 168.247 38.4523 168.247 41.5723C168.247 44.6923 167.71 47.015 166.635 48.5403C165.578 50.0483 163.844 50.8023 161.435 50.8023ZM161.435 47.8123C162.163 47.8123 162.735 47.6303 163.151 47.2663C163.567 46.9023 163.87 46.2696 164.061 45.3683C164.269 44.467 164.373 43.2016 164.373 41.5723C164.373 39.9256 164.269 38.6343 164.061 37.6983C163.87 36.745 163.558 36.069 163.125 35.6703C162.709 35.2543 162.146 35.0463 161.435 35.0463C160.724 35.0463 160.152 35.2543 159.719 35.6703C159.303 36.069 158.991 36.745 158.783 37.6983C158.592 38.6343 158.497 39.9256 158.497 41.5723C158.497 43.2016 158.592 44.467 158.783 45.3683C158.991 46.2696 159.303 46.9023 159.719 47.2663C160.135 47.6303 160.707 47.8123 161.435 47.8123Z" fill="white"/>
<path d="M66.4118 134.352H63.0518V132.096H66.4118V128.736H68.6678V132.096H72.0278V134.352H68.6678V137.712H66.4118V134.352ZM76.5065 124.584H81.8585C83.0105 124.584 83.9625 124.688 84.7145 124.896C85.4825 125.088 86.1065 125.392 86.5865 125.808C87.3545 126.48 87.7385 127.416 87.7385 128.616C87.7385 129.448 87.5465 130.16 87.1625 130.752C86.7785 131.328 86.2025 131.808 85.4345 132.192C86.4745 132.336 87.3145 132.768 87.9545 133.488C88.5945 134.192 88.9145 135.072 88.9145 136.128C88.9145 137.664 88.4585 138.84 87.5465 139.656C87.0185 140.12 86.3385 140.464 85.5065 140.688C84.6745 140.896 83.6185 141 82.3385 141H76.5065V124.584ZM81.5225 131.112C82.0505 131.112 82.4665 131.08 82.7705 131.016C83.0905 130.936 83.3465 130.8 83.5385 130.608C83.8585 130.288 84.0185 129.8 84.0185 129.144C84.0185 128.536 83.8665 128.08 83.5625 127.776C83.3865 127.6 83.1465 127.48 82.8425 127.416C82.5385 127.336 82.1305 127.296 81.6185 127.296H80.2505V131.112H81.5225ZM81.7865 138.288C82.5065 138.288 83.0825 138.248 83.5145 138.168C83.9465 138.072 84.2745 137.912 84.4985 137.688C84.8505 137.336 85.0265 136.84 85.0265 136.2C85.0265 135.336 84.8185 134.728 84.4025 134.376C84.1625 134.168 83.8425 134.024 83.4425 133.944C83.0425 133.864 82.4905 133.824 81.7865 133.824H80.2505V138.288H81.7865ZM98.2231 141.336C95.7431 141.336 93.9111 140.624 92.7271 139.2C91.5431 137.76 90.9511 135.632 90.9511 132.816C90.9511 130 91.5431 127.872 92.7271 126.432C93.9271 124.992 95.7591 124.272 98.2231 124.272C100.687 124.272 102.511 124.992 103.695 126.432C104.895 127.872 105.495 130 105.495 132.816C105.495 135.632 104.903 137.76 103.719 139.2C102.535 140.624 100.703 141.336 98.2231 141.336ZM98.2231 138.408C99.4391 138.408 100.303 137.976 100.815 137.112C101.343 136.232 101.607 134.8 101.607 132.816C101.607 130.832 101.343 129.4 100.815 128.52C100.287 127.64 99.4231 127.2 98.2231 127.2C97.0231 127.2 96.1591 127.64 95.6311 128.52C95.1031 129.4 94.8391 130.832 94.8391 132.816C94.8391 134.8 95.0951 136.232 95.6071 137.112C96.1351 137.976 97.0071 138.408 98.2231 138.408ZM108.358 124.584H111.118L118.894 135.096V124.584H122.182V141H119.182L111.646 131.04V141H108.358V124.584ZM132.301 141.336C129.821 141.336 127.989 140.624 126.805 139.2C125.621 137.76 125.029 135.632 125.029 132.816C125.029 130 125.621 127.872 126.805 126.432C128.005 124.992 129.837 124.272 132.301 124.272C134.765 124.272 136.589 124.992 137.773 126.432C138.973 127.872 139.573 130 139.573 132.816C139.573 135.632 138.981 137.76 137.797 139.2C136.613 140.624 134.781 141.336 132.301 141.336ZM132.301 138.408C133.517 138.408 134.381 137.976 134.893 137.112C135.421 136.232 135.685 134.8 135.685 132.816C135.685 130.832 135.421 129.4 134.893 128.52C134.365 127.64 133.501 127.2 132.301 127.2C131.101 127.2 130.237 127.64 129.709 128.52C129.181 129.4 128.917 130.832 128.917 132.816C128.917 134.8 129.173 136.232 129.685 137.112C130.213 137.976 131.085 138.408 132.301 138.408ZM48.9568 166C48.8928 165.824 48.8608 165.568 48.8608 165.232C48.8608 164.736 48.9328 164.296 49.0768 163.912C49.2208 163.528 49.4688 163.128 49.8208 162.712L53.0128 158.824C54.0048 157.624 54.6848 156.712 55.0528 156.088C55.4208 155.448 55.6048 154.808 55.6048 154.168C55.6048 153.464 55.3888 152.936 54.9568 152.584C54.4768 152.168 53.6448 151.96 52.4608 151.96C51.4368 151.96 50.3648 152.064 49.2448 152.272V149.728C49.7568 149.6 50.3568 149.496 51.0448 149.416C51.7488 149.32 52.4208 149.272 53.0608 149.272C55.3168 149.272 56.9568 149.784 57.9808 150.808C58.7648 151.592 59.1568 152.656 59.1568 154C59.1568 155.008 58.9008 155.976 58.3888 156.904C57.8768 157.816 56.9648 158.992 55.6528 160.432L52.7968 163.552H59.4208V166H48.9568ZM68.7234 166.336C66.4994 166.336 64.8914 165.64 63.8994 164.248C62.9234 162.84 62.4354 160.696 62.4354 157.816C62.4354 154.936 62.9234 152.792 63.8994 151.384C64.8914 149.976 66.4994 149.272 68.7234 149.272C70.9474 149.272 72.5474 149.976 73.5234 151.384C74.5154 152.792 75.0114 154.936 75.0114 157.816C75.0114 160.696 74.5154 162.84 73.5234 164.248C72.5474 165.64 70.9474 166.336 68.7234 166.336ZM68.7234 163.576C69.3954 163.576 69.9234 163.408 70.3074 163.072C70.6914 162.736 70.9714 162.152 71.1474 161.32C71.3394 160.488 71.4354 159.32 71.4354 157.816C71.4354 156.296 71.3394 155.104 71.1474 154.24C70.9714 153.36 70.6834 152.736 70.2834 152.368C69.8994 151.984 69.3794 151.792 68.7234 151.792C68.0674 151.792 67.5394 151.984 67.1394 152.368C66.7554 152.736 66.4674 153.36 66.2754 154.24C66.0994 155.104 66.0114 156.296 66.0114 157.816C66.0114 159.32 66.0994 160.488 66.2754 161.32C66.4674 162.152 66.7554 162.736 67.1394 163.072C67.5234 163.408 68.0514 163.576 68.7234 163.576ZM83.1141 166.336C80.8901 166.336 79.2821 165.64 78.2901 164.248C77.3141 162.84 76.8261 160.696 76.8261 157.816C76.8261 154.936 77.3141 152.792 78.2901 151.384C79.2821 149.976 80.8901 149.272 83.1141 149.272C85.3381 149.272 86.9381 149.976 87.9141 151.384C88.9061 152.792 89.4021 154.936 89.4021 157.816C89.4021 160.696 88.9061 162.84 87.9141 164.248C86.9381 165.64 85.3381 166.336 83.1141 166.336ZM83.1141 163.576C83.7861 163.576 84.3141 163.408 84.6981 163.072C85.0821 162.736 85.3621 162.152 85.5381 161.32C85.7301 160.488 85.8261 159.32 85.8261 157.816C85.8261 156.296 85.7301 155.104 85.5381 154.24C85.3621 153.36 85.0741 152.736 84.6741 152.368C84.2901 151.984 83.7701 151.792 83.1141 151.792C82.4581 151.792 81.9301 151.984 81.5301 152.368C81.1461 152.736 80.8581 153.36 80.6661 154.24C80.4901 155.104 80.4021 156.296 80.4021 157.816C80.4021 159.32 80.4901 160.488 80.6661 161.32C80.8581 162.152 81.1461 162.736 81.5301 163.072C81.9141 163.408 82.4421 163.576 83.1141 163.576ZM97.4713 149.584H100.423L105.607 158.752L110.959 149.584H113.839V166H110.407V156.544L106.999 162.256H104.119L100.615 156.448V166H97.4713V149.584ZM123.561 166.336C122.969 166.336 122.361 166.24 121.737 166.048C121.113 165.856 120.553 165.592 120.057 165.256L119.889 166H117.057V148.84H120.489V154.696C120.889 154.456 121.385 154.264 121.977 154.12C122.585 153.976 123.169 153.904 123.729 153.904C126.721 153.904 128.217 155.96 128.217 160.072C128.217 161.144 128.105 162.112 127.881 162.976C127.657 163.824 127.329 164.488 126.897 164.968C126.497 165.432 126.025 165.776 125.481 166C124.937 166.224 124.297 166.336 123.561 166.336ZM122.529 163.648C123.313 163.648 123.857 163.392 124.161 162.88C124.465 162.352 124.617 161.432 124.617 160.12C124.617 159.192 124.545 158.48 124.401 157.984C124.257 157.488 124.033 157.144 123.729 156.952C123.441 156.76 123.041 156.664 122.529 156.664C121.697 156.664 121.017 156.768 120.489 156.976V163.072C120.777 163.232 121.105 163.368 121.473 163.48C121.857 163.592 122.209 163.648 122.529 163.648ZM130.487 154.24H133.463L133.559 155.104C134.759 154.304 135.991 153.904 137.255 153.904C138.423 153.904 139.359 154.24 140.063 154.912C140.591 155.44 140.983 156.144 141.239 157.024C141.511 157.904 141.647 158.912 141.647 160.048C141.647 162.256 141.239 163.856 140.423 164.848C139.607 165.84 138.487 166.336 137.063 166.336C136.535 166.336 135.983 166.256 135.407 166.096C134.847 165.952 134.351 165.744 133.919 165.472V171.4H130.487V154.24ZM136.055 163.624C136.551 163.624 136.943 163.52 137.231 163.312C137.519 163.088 137.727 162.72 137.855 162.208C137.983 161.68 138.047 160.944 138.047 160C138.047 159.152 137.983 158.488 137.855 158.008C137.727 157.528 137.511 157.192 137.207 157C136.903 156.792 136.487 156.688 135.959 156.688C135.687 156.688 135.351 156.72 134.951 156.784C134.551 156.848 134.207 156.92 133.919 157V163.288C134.431 163.512 135.143 163.624 136.055 163.624ZM147.733 166.336C147.061 166.336 146.325 166.272 145.525 166.144C144.725 166.016 144.085 165.864 143.605 165.688L143.869 163.144C144.333 163.288 144.925 163.416 145.645 163.528C146.381 163.64 147.053 163.696 147.661 163.696C148.349 163.696 148.869 163.616 149.221 163.456C149.589 163.296 149.773 163.016 149.773 162.616C149.773 162.248 149.597 161.992 149.245 161.848C148.893 161.688 148.333 161.536 147.565 161.392C146.701 161.232 145.989 161.056 145.429 160.864C144.869 160.672 144.381 160.328 143.965 159.832C143.565 159.32 143.365 158.608 143.365 157.696C143.365 156.544 143.789 155.624 144.637 154.936C145.501 154.248 146.781 153.904 148.477 153.904C149.085 153.904 149.733 153.96 150.421 154.072C151.109 154.184 151.765 154.344 152.389 154.552L152.125 157.072C151.533 156.912 150.901 156.784 150.229 156.688C149.573 156.592 148.997 156.544 148.501 156.544C147.237 156.544 146.605 156.864 146.605 157.504C146.605 157.84 146.773 158.088 147.109 158.248C147.461 158.392 148.021 158.544 148.789 158.704C149.637 158.864 150.349 159.048 150.925 159.256C151.501 159.464 151.997 159.824 152.413 160.336C152.829 160.848 153.037 161.56 153.037 162.472C153.037 163.704 152.589 164.656 151.693 165.328C150.797 166 149.477 166.336 147.733 166.336Z" fill="#3C7521"/>
</svg>
