<svg width="473" height="267" viewBox="0 0 473 267" fill="none" xmlns="http://www.w3.org/2000/svg">
<path d="M57.4123 101.535H62.0923V84.405H68.3023L68.6623 81.015H51.0523V84.405H57.4123V101.535ZM74.1931 101.925C75.6931 101.925 77.5231 101.535 79.1131 100.545L79.2331 101.535H82.9531V86.835H78.6631V97.935C77.9431 98.175 76.7431 98.355 75.9931 98.355C75.1231 98.355 74.5231 98.235 74.1331 97.875C73.8331 97.575 73.6831 97.065 73.6831 96.315V86.835H69.3931V96.915C69.3931 98.625 69.7531 99.915 70.6531 100.785C71.4631 101.595 72.9031 101.925 74.1931 101.925ZM100.591 101.955C102.211 101.955 103.291 101.805 104.731 101.475L104.401 98.385C103.471 98.565 102.301 98.685 101.341 98.685C98.2514 98.685 97.0215 97.215 97.0215 94.185C97.0215 92.685 97.2914 91.545 98.0114 90.765C98.6414 90.105 99.6615 89.715 100.981 89.715C102.211 89.715 103.471 89.895 104.371 90.135L104.641 86.955C103.231 86.565 101.671 86.415 100.321 86.415C97.8915 86.415 95.7614 87.195 94.4414 88.605C93.1214 90.045 92.5514 92.055 92.5514 94.515C92.5514 96.135 92.9414 97.785 93.7514 99.015C95.2814 101.385 98.0714 101.955 100.591 101.955ZM114.508 101.955C116.338 101.955 118.048 101.715 119.458 101.445L119.128 98.325C118.018 98.535 116.518 98.685 115.468 98.685C112.588 98.685 111.058 97.995 110.938 95.505H119.968C120.208 95.505 120.328 95.415 120.328 95.175V93.825C120.328 88.725 117.988 86.415 113.578 86.415C109.078 86.415 106.438 89.055 106.438 94.215C106.438 96.555 106.948 98.655 108.418 100.065C109.678 101.265 111.748 101.955 114.508 101.955ZM110.938 92.715C111.028 90.825 111.808 89.655 113.548 89.655C115.258 89.655 116.128 90.855 116.128 92.715H110.938ZM123.128 101.535H127.418V80.085H123.128V101.535ZM135.804 101.925C137.304 101.925 139.134 101.535 140.724 100.545L140.844 101.535H144.564V86.835H140.274V97.935C139.554 98.175 138.354 98.355 137.604 98.355C136.734 98.355 136.134 98.235 135.744 97.875C135.444 97.575 135.294 97.065 135.294 96.315V86.835H131.004V96.915C131.004 98.625 131.364 99.915 132.264 100.785C133.074 101.595 134.514 101.925 135.804 101.925ZM148.264 101.535H152.554V80.085H148.264V101.535ZM160.491 101.955C162.051 101.955 163.641 101.445 164.901 100.635L165.261 101.535H168.651V91.995C168.651 90.225 168.261 88.965 167.511 88.095C166.491 86.895 164.481 86.415 162.231 86.415C160.461 86.415 158.511 86.655 157.011 86.955L157.221 90.105C158.241 89.895 159.951 89.715 161.331 89.715C162.501 89.715 163.311 89.865 163.821 90.315C164.181 90.645 164.361 91.155 164.361 91.965V92.445H162.021C159.291 92.445 157.671 92.805 156.621 93.795C155.781 94.605 155.331 95.805 155.331 97.125C155.331 99.975 157.131 101.955 160.491 101.955ZM161.721 98.685C160.161 98.685 159.621 98.025 159.621 96.945C159.621 96.405 159.771 95.985 160.041 95.715C160.431 95.325 161.061 95.205 162.081 95.205H164.361V98.235C163.671 98.445 162.531 98.685 161.721 98.685ZM172.169 101.535H176.459V90.495C177.389 90.285 178.259 90.135 179.399 90.135C180.089 90.135 180.809 90.195 181.289 90.255V86.505C181.109 86.475 180.779 86.445 180.539 86.445C179.129 86.445 177.179 86.985 176.039 88.035L175.889 86.835H172.169V101.535ZM195.073 101.955C199.483 101.955 201.703 100.185 201.703 97.125C201.703 91.035 193.663 93.405 193.663 90.915C193.663 90.075 194.503 89.715 196.033 89.715C197.233 89.715 199.033 89.955 200.563 90.375L200.893 87.225C199.303 86.685 197.473 86.415 196.003 86.415C191.593 86.415 189.613 88.425 189.613 91.155C189.613 97.245 197.623 94.695 197.623 97.305C197.623 98.355 196.603 98.655 194.983 98.655C193.393 98.655 191.353 98.325 190.243 97.965L189.913 101.145C191.083 101.565 193.333 101.955 195.073 101.955ZM206.672 84.375H206.882C208.352 84.375 209.132 83.805 209.132 82.335V81.945C209.132 80.475 208.352 79.875 206.882 79.875H206.672C205.202 79.875 204.422 80.475 204.422 81.945V82.335C204.422 83.805 205.202 84.375 206.672 84.375ZM204.632 101.535H208.922V86.835H204.632V101.535ZM212.598 101.535H216.888V90.465C217.578 90.195 218.868 89.985 219.678 89.985C220.548 89.985 221.148 90.105 221.538 90.465C221.838 90.765 221.988 91.185 221.988 91.935V101.535H226.278V91.425C226.278 89.715 225.918 88.425 225.018 87.555C224.208 86.745 222.768 86.415 221.478 86.415C219.918 86.415 218.028 86.835 216.408 87.885L216.318 86.835H212.598V101.535ZM236.534 108.285H240.824V100.875C241.934 101.565 243.434 101.955 244.754 101.955C248.084 101.955 250.484 99.885 250.484 94.095C250.484 91.365 249.884 89.025 248.504 87.675C247.664 86.865 246.464 86.415 244.994 86.415C243.194 86.415 241.634 87.075 240.374 87.915L240.254 86.835H236.534V108.285ZM243.494 98.565C242.564 98.565 241.514 98.445 240.824 98.145V90.285C241.544 90.075 242.684 89.895 243.374 89.895C245.324 89.895 245.984 90.885 245.984 94.035C245.984 97.575 245.294 98.565 243.494 98.565ZM253.411 101.535H257.701V80.085H253.411V101.535ZM265.638 101.955C267.198 101.955 268.788 101.445 270.048 100.635L270.408 101.535H273.798V91.995C273.798 90.225 273.408 88.965 272.658 88.095C271.638 86.895 269.628 86.415 267.378 86.415C265.608 86.415 263.658 86.655 262.158 86.955L262.368 90.105C263.388 89.895 265.098 89.715 266.478 89.715C267.648 89.715 268.458 89.865 268.968 90.315C269.328 90.645 269.508 91.155 269.508 91.965V92.445H267.168C264.438 92.445 262.818 92.805 261.768 93.795C260.928 94.605 260.478 95.805 260.478 97.125C260.478 99.975 262.278 101.955 265.638 101.955ZM266.868 98.685C265.308 98.685 264.768 98.025 264.768 96.945C264.768 96.405 264.918 95.985 265.188 95.715C265.578 95.325 266.208 95.205 267.228 95.205H269.508V98.235C268.818 98.445 267.678 98.685 266.868 98.685ZM277.315 101.535H281.605V90.465C282.295 90.195 283.585 89.985 284.395 89.985C285.265 89.985 285.865 90.105 286.255 90.465C286.555 90.765 286.705 91.185 286.705 91.935V101.535H290.995V91.425C290.995 89.715 290.635 88.425 289.735 87.555C288.925 86.745 287.485 86.415 286.195 86.415C284.635 86.415 282.745 86.835 281.125 87.885L281.035 86.835H277.315V101.535ZM308.061 101.955C309.141 101.955 310.791 101.745 311.751 101.475L311.571 99.615C310.821 99.765 309.501 99.915 308.511 99.915C306.711 99.915 305.451 99.495 304.611 98.535C303.801 97.605 303.381 96.195 303.381 94.335C303.381 90.435 304.941 88.425 308.391 88.425C309.321 88.425 310.521 88.605 311.451 88.785L311.601 86.865C310.581 86.595 309.231 86.415 308.091 86.415C305.841 86.415 303.951 87.075 302.691 88.425C301.431 89.775 300.771 91.785 300.771 94.365C300.771 96.945 301.491 98.865 302.721 100.125C303.921 101.355 305.661 101.955 308.061 101.955ZM320.791 101.955C325.351 101.955 327.481 99.075 327.481 94.185C327.481 89.295 325.351 86.415 320.791 86.415C316.231 86.415 314.101 89.295 314.101 94.185C314.101 99.075 316.231 101.955 320.791 101.955ZM320.791 99.915C317.791 99.915 316.711 97.935 316.711 94.185C316.711 90.435 317.791 88.455 320.791 88.455C323.791 88.455 324.871 90.435 324.871 94.185C324.871 97.935 323.791 99.915 320.791 99.915ZM330.906 101.535H333.396V89.565C334.596 88.995 336.186 88.605 337.506 88.605C338.586 88.605 339.366 88.845 339.876 89.355C340.386 89.865 340.596 90.585 340.596 91.845V101.535H343.086V91.545C343.086 89.715 342.666 88.515 341.856 87.705C341.016 86.835 339.756 86.415 338.166 86.415C336.456 86.415 334.626 86.985 333.096 87.915L332.976 86.835H330.906V101.535ZM353.348 101.535H355.838V89.565C357.038 88.995 358.628 88.605 359.948 88.605C361.028 88.605 361.808 88.845 362.318 89.355C362.828 89.865 363.038 90.585 363.038 91.845V101.535H365.528V91.545C365.528 89.715 365.108 88.515 364.298 87.705C363.458 86.835 362.198 86.415 360.608 86.415C358.988 86.415 357.308 86.955 355.838 87.765V80.085H353.348V101.535ZM373.896 101.955C375.666 101.955 377.226 101.385 378.516 100.545L378.666 101.535H380.676V91.755C380.676 89.835 380.316 88.665 379.386 87.765C378.456 86.895 376.986 86.415 374.796 86.415C373.386 86.415 371.706 86.595 370.326 86.925L370.416 88.845C371.856 88.605 373.266 88.485 374.376 88.485C375.846 88.485 376.806 88.755 377.436 89.355C377.976 89.895 378.186 90.645 378.186 91.845V92.775H375.126C372.996 92.775 371.256 93.165 370.146 94.185C369.366 94.905 368.886 95.985 368.886 97.365C368.886 98.745 369.336 99.795 370.056 100.545C370.956 101.475 372.306 101.955 373.896 101.955ZM374.436 99.945C372.516 99.945 371.406 99.075 371.406 97.305C371.406 96.405 371.706 95.775 372.216 95.355C372.906 94.815 373.956 94.605 375.486 94.605H378.186V98.985C377.106 99.525 375.636 99.945 374.436 99.945ZM388.682 101.955C392.222 101.955 394.622 100.575 394.622 97.455C394.622 92.205 386.432 93.765 386.432 90.465C386.432 89.085 387.542 88.395 389.642 88.395C390.842 88.395 392.192 88.575 393.512 88.875L393.722 87.045C392.552 86.685 390.902 86.415 389.432 86.415C386.312 86.415 384.092 87.795 384.092 90.645C384.092 96.045 392.282 94.335 392.282 97.635C392.282 99.135 390.992 99.945 388.592 99.945C387.302 99.945 385.682 99.735 384.482 99.405L384.362 101.325C385.472 101.685 387.272 101.955 388.682 101.955ZM403.242 101.955C404.322 101.955 405.492 101.775 406.272 101.565L406.152 99.735C405.432 99.885 404.442 99.975 403.932 99.975C402.882 99.975 402.372 99.765 402.042 99.405C401.622 98.955 401.532 98.235 401.532 96.825V88.665H405.402V86.835H401.532V82.935C400.752 82.935 399.762 83.145 399.042 83.385V86.865L396.372 87.255V88.665H399.042V97.155C399.042 98.985 399.252 99.975 399.972 100.815C400.632 101.565 401.802 101.955 403.242 101.955ZM413.33 101.955C415.1 101.955 416.66 101.385 417.95 100.545L418.1 101.535H420.11V91.755C420.11 89.835 419.75 88.665 418.82 87.765C417.89 86.895 416.42 86.415 414.23 86.415C412.82 86.415 411.14 86.595 409.76 86.925L409.85 88.845C411.29 88.605 412.7 88.485 413.81 88.485C415.28 88.485 416.24 88.755 416.87 89.355C417.41 89.895 417.62 90.645 417.62 91.845V92.775H414.56C412.43 92.775 410.69 93.165 409.58 94.185C408.8 94.905 408.32 95.985 408.32 97.365C408.32 98.745 408.77 99.795 409.49 100.545C410.39 101.475 411.74 101.955 413.33 101.955ZM413.87 99.945C411.95 99.945 410.84 99.075 410.84 97.305C410.84 96.405 411.14 95.775 411.65 95.355C412.34 94.815 413.39 94.605 414.92 94.605H417.62V98.985C416.54 99.525 415.07 99.945 413.87 99.945Z" fill="black"/>
<path d="M172.391 208.887C173.863 208.887 175.751 208.311 177.031 207.479L177.223 208.439H179.399V185.559H176.743V193.431C175.495 192.727 173.927 192.311 172.583 192.311C168.487 192.311 166.087 195.511 166.087 200.695C166.087 206.135 168.391 208.887 172.391 208.887ZM173.127 206.711C170.311 206.711 168.871 204.855 168.871 200.727C168.871 197.047 169.927 194.551 173.127 194.551C174.183 194.551 175.591 194.871 176.743 195.319V205.783C175.623 206.327 174.247 206.711 173.127 206.711ZM189.327 208.887C190.479 208.887 191.727 208.695 192.559 208.471L192.431 206.519C191.663 206.679 190.607 206.775 190.063 206.775C188.943 206.775 188.399 206.551 188.047 206.167C187.599 205.687 187.503 204.919 187.503 203.415V194.711H191.631V192.759H187.503V188.599C186.671 188.599 185.615 188.823 184.847 189.079V192.791L181.999 193.207V194.711H184.847V203.767C184.847 205.719 185.071 206.775 185.839 207.671C186.543 208.471 187.791 208.887 189.327 208.887ZM201.879 208.887C206.743 208.887 209.015 205.815 209.015 200.599C209.015 195.383 206.743 192.311 201.879 192.311C197.015 192.311 194.743 195.383 194.743 200.599C194.743 205.815 197.015 208.887 201.879 208.887ZM201.879 206.711C198.679 206.711 197.527 204.599 197.527 200.599C197.527 196.599 198.679 194.487 201.879 194.487C205.079 194.487 206.231 196.599 206.231 200.599C206.231 204.599 205.079 206.711 201.879 206.711ZM213.949 208.887H214.173C215.133 208.887 215.773 208.407 215.773 207.159V207.031C215.773 205.783 215.133 205.303 214.173 205.303H213.949C212.989 205.303 212.349 205.783 212.349 207.031V207.159C212.349 208.407 212.989 208.887 213.949 208.887Z" fill="#019DF4"/>
<path d="M175.588 160.768C181.108 160.768 183.868 157.318 183.868 151.154C183.868 145.036 181.108 141.586 175.588 141.586C170.068 141.586 167.4 145.036 167.4 151.154C167.4 157.318 170.068 160.768 175.588 160.768ZM176.83 174.292H182.488L199.278 141.586H193.62L176.83 174.292ZM175.588 156.398C173.334 156.398 172.736 154.512 172.736 151.154C172.736 147.842 173.334 145.956 175.588 145.956C177.842 145.956 178.486 147.842 178.486 151.154C178.486 154.512 177.842 156.398 175.588 156.398ZM200.52 174.292C206.04 174.292 208.754 170.842 208.754 164.724C208.754 158.56 206.04 155.11 200.52 155.11C195 155.11 192.286 158.56 192.286 164.724C192.286 170.842 195 174.292 200.52 174.292ZM200.52 169.922C198.22 169.922 197.668 168.036 197.668 164.724C197.668 161.366 198.22 159.48 200.52 159.48C202.774 159.48 203.418 161.366 203.418 164.724C203.418 168.036 202.774 169.922 200.52 169.922Z" fill="#019DF4"/>
<path d="M49.918 222.542C71.86 222.542 83.314 210.536 83.314 189.56C83.314 170.654 73.516 160.166 56.68 160.166C50.194 160.166 42.466 161.684 36.256 164.996C36.532 155.474 38.05 148.988 42.19 144.848C45.916 141.122 51.574 139.88 60.682 139.88C65.65 139.88 70.756 140.432 75.586 141.26V126.218C69.238 125.114 62.89 124.424 56.128 124.424C43.57 124.424 34.738 127.184 28.39 133.532C20.11 141.812 15.556 155.888 15.556 177.83C15.556 206.396 24.664 222.542 49.918 222.542ZM50.332 207.5C39.568 207.5 35.98 199.772 35.98 181.694V176.45C39.844 175.622 45.778 175.07 49.78 175.07C59.854 175.07 63.718 178.244 63.718 190.25C63.718 201.704 59.164 207.5 50.332 207.5ZM121.486 222.542C147.706 222.542 157.642 205.844 157.642 173.552C157.642 141.26 147.706 124.424 121.486 124.424C95.2661 124.424 85.3301 141.26 85.3301 173.552C85.3301 205.844 95.2661 222.542 121.486 222.542ZM121.486 206.672C110.308 206.672 105.892 199.634 105.892 173.552C105.892 147.47 110.308 138.914 121.486 138.914C132.664 138.914 137.08 147.47 137.08 173.552C137.08 199.634 132.664 206.672 121.486 206.672Z" fill="#019DF4"/>
<path d="M440.3 228.624H275.922C268.487 228.624 262.427 222.58 262.427 215.104V192.752C262.427 185.301 268.463 179.232 275.922 179.232H440.3C447.735 179.232 453.796 185.276 453.796 192.752V215.104C453.796 222.555 447.76 228.624 440.3 228.624Z" fill="white"/>
<path d="M450.625 200.63H266.249C258.814 200.63 252.753 194.931 252.753 187.899V138.704C252.753 131.673 258.789 125.974 266.249 125.974H450.625C458.06 125.974 464.121 131.673 464.121 138.704V187.875C464.096 194.906 458.06 200.63 450.625 200.63Z" fill="#019DF4"/>
<path d="M261.562 171.271H267.157C268.923 171.271 270.396 171.419 271.549 171.74C272.702 172.06 273.659 172.578 274.395 173.319C275.867 174.749 276.604 177.069 276.604 180.276C276.604 181.929 276.432 183.311 276.064 184.47C275.696 185.63 275.156 186.592 274.42 187.381C273.757 188.072 272.874 188.59 271.794 188.911C270.715 189.232 269.365 189.404 267.746 189.404H261.611L261.562 171.271ZM267.427 186.394C269.291 186.394 270.592 185.852 271.328 184.766C271.672 184.248 271.941 183.631 272.064 182.965C272.211 182.299 272.285 181.386 272.285 180.251C272.285 178.968 272.187 177.981 271.991 177.291C271.794 176.575 271.475 175.983 271.009 175.49C270.592 175.07 270.077 174.749 269.439 174.577C268.801 174.404 267.966 174.305 266.96 174.305H265.684V186.419L267.427 186.394Z" fill="white"/>
<path d="M282.517 189.355C281.61 189.059 280.873 188.664 280.309 188.122C279.131 187.011 278.567 185.284 278.567 182.941C278.567 180.671 279.107 178.968 280.211 177.784C281.315 176.625 282.861 176.033 284.873 176.033C286.861 176.033 288.333 176.575 289.339 177.636C290.345 178.697 290.836 180.35 290.836 182.595V183.779C290.836 183.977 290.738 184.075 290.517 184.075H282.542C282.591 185.136 282.935 185.876 283.573 186.271C284.211 186.666 285.192 186.888 286.542 186.888C287.572 186.888 288.652 186.789 289.781 186.567L290.075 189.33C288.505 189.627 287.032 189.775 285.707 189.775C284.48 189.799 283.425 189.651 282.517 189.355ZM287.106 181.608C287.106 180.745 286.91 180.103 286.517 179.61C286.125 179.141 285.56 178.894 284.824 178.894C283.376 178.894 282.616 179.807 282.517 181.608H287.106Z" fill="white"/>
<path d="M293.142 170.432H296.945V189.405H293.142V170.432Z" fill="white"/>
<path d="M300.455 173.812C300.136 173.516 299.964 173.072 299.964 172.43V172.085C299.964 171.444 300.136 170.975 300.455 170.679C300.774 170.383 301.289 170.235 301.951 170.235H302.148C302.81 170.235 303.326 170.383 303.645 170.679C303.964 170.975 304.135 171.444 304.135 172.085V172.43C304.135 173.072 303.964 173.541 303.645 173.812C303.326 174.108 302.81 174.231 302.148 174.231H301.951C301.289 174.231 300.774 174.108 300.455 173.812ZM300.136 176.403H303.939V189.404H300.136V176.403Z" fill="white"/>
<path d="M305.73 176.402H309.803L312.699 185.432L315.447 176.402H319.25L314.784 189.404H310.392L305.73 176.402Z" fill="white"/>
<path d="M323.986 189.355C323.078 189.059 322.342 188.664 321.778 188.122C320.6 187.011 320.035 185.284 320.035 182.941C320.035 180.671 320.575 178.968 321.679 177.784C322.784 176.625 324.329 176.033 326.342 176.033C328.329 176.033 329.801 176.575 330.807 177.636C331.813 178.697 332.304 180.35 332.304 182.595V183.779C332.304 183.977 332.206 184.075 331.985 184.075H324.011C324.06 185.136 324.403 185.876 325.041 186.271C325.679 186.666 326.661 186.888 328.01 186.888C329.041 186.888 330.12 186.789 331.249 186.567L331.544 189.33C329.973 189.627 328.501 189.775 327.176 189.775C325.949 189.799 324.918 189.651 323.986 189.355ZM328.599 181.608C328.599 180.745 328.403 180.103 328.01 179.61C327.618 179.141 327.053 178.894 326.317 178.894C324.869 178.894 324.109 179.807 324.011 181.608H328.599Z" fill="white"/>
<path d="M334.562 176.403H337.85L337.997 177.463C338.463 177.019 339.076 176.674 339.837 176.427C340.598 176.181 341.285 176.057 341.972 176.057C342.193 176.057 342.414 176.082 342.634 176.107V179.413C342.07 179.338 341.506 179.314 340.966 179.314C340.181 179.314 339.297 179.413 338.365 179.635V189.404H334.562V176.403Z" fill="white"/>
<path d="M347.1 195.424L346.83 192.612C347.91 192.809 348.891 192.908 349.799 192.908C350.266 192.908 350.707 192.858 351.1 192.76C351.492 192.661 351.787 192.513 351.983 192.316C352.4 191.921 352.621 191.205 352.621 190.219V188.64C352.008 188.985 351.345 189.256 350.609 189.429C349.897 189.602 349.21 189.7 348.523 189.7C347.91 189.7 347.346 189.626 346.806 189.454C346.266 189.281 345.824 189.034 345.505 188.689C345.113 188.294 344.818 187.825 344.646 187.307C344.45 186.789 344.376 186.148 344.376 185.408V176.452H348.18V184.865C348.18 185.457 348.327 185.901 348.572 186.172C348.744 186.32 348.965 186.444 349.21 186.493C349.456 186.542 349.775 186.592 350.192 186.592C350.535 186.592 350.953 186.542 351.443 186.444C351.91 186.345 352.327 186.222 352.621 186.123V176.452H356.424V188.886C356.424 190.49 356.253 191.797 355.909 192.784C355.566 193.771 354.928 194.536 354.069 195.029C353.185 195.523 351.983 195.794 350.437 195.794C349.259 195.77 348.155 195.646 347.1 195.424Z" fill="white"/>
<path d="M365.675 171.271H377.92L377.601 174.281H369.822V178.697H376.055V181.806H369.822V186.444H378.067V189.454H365.7V171.271H365.675Z" fill="white"/>
<path d="M383.833 183.014L379.147 176.403H383.465L386.263 180.325L388.373 176.403H392.495L388.029 182.817L392.692 189.404H388.275L385.576 185.506L383.441 189.404H379.22L383.833 183.014Z" fill="white"/>
<path d="M394.409 176.403H397.697L397.796 177.365C399.121 176.477 400.47 176.033 401.869 176.033C403.145 176.033 404.2 176.403 404.961 177.143C405.549 177.735 405.991 178.5 406.261 179.487C406.555 180.449 406.703 181.584 406.703 182.842C406.703 185.284 406.261 187.061 405.353 188.146C404.445 189.256 403.218 189.799 401.648 189.799C401.059 189.799 400.47 189.725 399.832 189.553C399.219 189.38 398.654 189.158 398.188 188.862V195.424H394.385L394.409 176.403ZM401.844 186.419C402.163 186.173 402.384 185.778 402.531 185.21C402.679 184.643 402.752 183.829 402.752 182.793C402.752 181.855 402.679 181.115 402.531 180.597C402.384 180.079 402.163 179.684 401.82 179.462C401.476 179.24 401.034 179.141 400.446 179.141C400.151 179.141 399.783 179.19 399.341 179.24C398.9 179.314 398.532 179.388 398.213 179.487V186.444C398.777 186.691 399.562 186.814 400.568 186.814C401.108 186.789 401.525 186.666 401.844 186.419Z" fill="white"/>
<path d="M409.107 176.403H412.395L412.542 177.463C413.008 177.019 413.622 176.674 414.383 176.427C415.143 176.18 415.83 176.057 416.517 176.057C416.738 176.057 416.959 176.082 417.18 176.106V179.412C416.615 179.338 416.051 179.314 415.511 179.314C414.726 179.314 413.843 179.412 412.91 179.634V189.404H409.107V176.403Z" fill="white"/>
<path d="M422.235 189.355C421.327 189.059 420.591 188.664 420.026 188.122C418.849 187.011 418.284 185.284 418.284 182.941C418.284 180.671 418.824 178.968 419.928 177.784C421.032 176.625 422.578 176.033 424.59 176.033C426.578 176.033 428.05 176.575 429.056 177.636C430.062 178.697 430.553 180.35 430.553 182.595V183.779C430.553 183.977 430.455 184.075 430.234 184.075H422.259C422.308 185.136 422.652 185.876 423.29 186.271C423.928 186.666 424.909 186.888 426.259 186.888C427.29 186.888 428.369 186.789 429.498 186.567L429.792 189.33C428.222 189.627 426.75 189.775 425.425 189.775C424.198 189.799 423.143 189.651 422.235 189.355ZM426.823 181.608C426.823 180.745 426.627 180.103 426.234 179.61C425.842 179.141 425.277 178.894 424.541 178.894C423.094 178.894 422.333 179.807 422.235 181.608H426.823Z" fill="white"/>
<path d="M434.578 189.577C433.694 189.429 432.983 189.256 432.467 189.084L432.762 186.271C433.277 186.419 433.94 186.567 434.725 186.691C435.534 186.814 436.271 186.888 436.933 186.888C437.694 186.888 438.283 186.789 438.675 186.617C439.068 186.444 439.264 186.123 439.264 185.679C439.264 185.284 439.068 184.988 438.675 184.816C438.283 184.643 437.669 184.495 436.81 184.322C435.854 184.149 435.068 183.952 434.455 183.73C433.841 183.508 433.302 183.138 432.86 182.57C432.418 182.003 432.173 181.238 432.173 180.227C432.173 178.944 432.639 177.932 433.596 177.167C434.528 176.403 435.952 176.033 437.817 176.033C438.479 176.033 439.191 176.082 439.951 176.23C440.712 176.353 441.424 176.526 442.135 176.748L441.841 179.536C441.178 179.363 440.491 179.215 439.755 179.116C439.019 179.018 438.381 178.968 437.841 178.968C436.442 178.968 435.755 179.314 435.755 180.029C435.755 180.399 435.952 180.671 436.32 180.843C436.688 181.016 437.301 181.189 438.16 181.362C439.092 181.534 439.878 181.756 440.516 181.978C441.154 182.2 441.693 182.595 442.16 183.163C442.626 183.73 442.847 184.52 442.847 185.531C442.847 186.888 442.356 187.949 441.374 188.689C440.393 189.429 438.921 189.799 437.007 189.799C436.271 189.799 435.436 189.725 434.578 189.577Z" fill="white"/>
<path d="M447.018 189.577C446.135 189.429 445.423 189.256 444.908 189.084L445.202 186.271C445.717 186.419 446.38 186.567 447.165 186.691C447.975 186.814 448.711 186.888 449.374 186.888C450.134 186.888 450.723 186.789 451.116 186.617C451.508 186.444 451.705 186.123 451.705 185.679C451.705 185.284 451.508 184.988 451.116 184.816C450.723 184.643 450.11 184.495 449.251 184.322C448.294 184.149 447.509 183.952 446.895 183.73C446.282 183.508 445.742 183.138 445.3 182.57C444.859 182.003 444.613 181.238 444.613 180.227C444.613 178.944 445.079 177.932 446.036 177.167C446.969 176.403 448.392 176.033 450.257 176.033C450.919 176.033 451.631 176.082 452.392 176.23C453.152 176.353 453.864 176.526 454.576 176.748L454.281 179.536C453.619 179.363 452.932 179.215 452.195 179.116C451.459 179.018 450.821 178.968 450.281 178.968C448.883 178.968 448.196 179.314 448.196 180.029C448.196 180.399 448.392 180.671 448.76 180.843C449.128 181.016 449.742 181.189 450.6 181.362C451.533 181.534 452.318 181.756 452.956 181.978C453.594 182.2 454.134 182.595 454.6 183.163C455.066 183.73 455.287 184.52 455.287 185.531C455.287 186.888 454.796 187.949 453.815 188.689C452.833 189.429 451.361 189.799 449.447 189.799C448.711 189.799 447.901 189.725 447.018 189.577Z" fill="white"/>
<path d="M386.508 134.954C387.244 134.88 387.956 134.658 388.618 134.239C389.796 133.523 390.606 132.314 390.876 130.958L392.029 124.913C392.495 122.545 391.146 120.176 388.888 119.337C385.845 118.252 381.895 117.61 378.018 117.61C372.963 117.61 368.792 119.041 365.823 121.533C365.136 119.658 363.344 118.276 361.234 118.276H353.726C353.284 118.276 352.867 118.35 352.45 118.474C352.032 118.35 351.615 118.276 351.174 118.276H322.955C320.943 118.276 319.226 119.485 318.465 121.237C317.68 119.461 315.987 118.276 314.024 118.276H305.754C303.595 118.276 301.706 119.683 301.068 121.755L297.78 132.364C297.362 127.405 295.399 124.346 293.706 122.594C289.952 118.795 284.726 118.276 279.646 118.276H268.334C266.838 118.276 265.488 118.967 264.58 120.053C264.433 119.954 264.261 119.855 264.089 119.781C261.292 118.474 256.753 117.61 252.728 117.61C239.454 117.61 231.184 126.665 231.184 141.27C231.184 160.514 242.423 164.56 251.87 164.56C255.918 164.56 261.39 163.697 265.022 162.537C265.905 163.327 267.034 163.845 268.31 163.845H275.818C278.444 163.845 280.579 161.772 280.726 159.182L281.585 161.007C282.394 162.734 284.112 163.845 286.026 163.845H294.492C294.541 163.845 294.565 163.82 294.59 163.82C294.639 163.82 294.663 163.845 294.712 163.845H301.877C304.061 163.845 306 162.389 306.589 160.267L308.11 154.889H311.472L313.14 160.366C313.778 162.438 315.668 163.845 317.827 163.845H325.851C327.249 163.845 328.55 163.228 329.458 162.192C330.366 163.203 331.642 163.845 333.089 163.845H340.598C343.297 163.845 345.505 161.624 345.505 158.91V134.042H348.769V158.886C348.769 161.6 350.977 163.82 353.676 163.82H361.234C362.485 163.82 363.639 163.327 364.498 162.537C368.252 163.894 372.129 164.535 376.717 164.535C382.754 164.535 387.097 163.006 390.36 159.675C393.084 156.887 394.507 153.113 394.507 148.721C394.532 140.974 390.606 137.125 386.508 134.954ZM366.142 144.996C367.54 146.106 369.037 146.945 370.534 147.561C369.896 147.389 369.282 147.191 368.694 146.969C367.859 146.649 367 146.599 366.142 146.747V144.996ZM328.231 134.042V150.374L322.784 134.017C322.833 134.017 322.882 134.042 322.931 134.042H328.231ZM263.402 134.535V134.658H263.181C263.255 134.634 263.329 134.584 263.402 134.535Z" fill="#019DF4"/>
<path d="M236.092 141.27C236.092 130.094 241.539 122.545 252.729 122.545C255.992 122.545 259.894 123.285 262.004 124.272L261.047 130.217C258.716 129.477 255.869 128.91 253.268 128.91C246.619 128.91 243.895 133.178 243.895 140.95C243.895 144.971 244.386 148.252 245.809 150.448C247.011 152.274 248.974 153.31 252.164 153.31C253.367 153.31 255.011 153.162 256.164 152.94V145.44H251.526V139.593H263.599V157.8C260.483 158.836 255.477 159.626 251.87 159.626C240.092 159.626 236.092 152.57 236.092 141.27Z" fill="white"/>
<path d="M268.31 123.211H279.622C284.922 123.211 288.039 123.877 290.198 126.073C291.891 127.8 292.946 130.513 292.946 134.264C292.946 139.124 291.081 142.973 287.376 144.848L294.492 158.861H286.027L279.966 145.933H275.819V158.861H268.31V123.211ZM279.131 140.061C281.634 140.061 282.984 139.691 283.941 138.803C284.898 137.915 285.339 136.361 285.339 134.362C285.339 132.537 284.947 131.229 284.186 130.39C283.229 129.403 281.634 129.083 279.18 129.083H275.819V140.061H279.131Z" fill="white"/>
<path d="M305.73 123.211H313.999L325.876 158.861H317.852L315.103 149.905H304.43L301.878 158.861H294.713L305.73 123.211ZM313.288 144.033L309.681 132.142H309.582L306.172 144.033H313.288Z" fill="white"/>
<path d="M333.139 129.107H322.956V123.211H351.198L350.61 129.107H340.647V158.886H333.139V129.107Z" fill="white"/>
<path d="M353.726 123.211H361.235V158.861H353.726V123.211Z" fill="white"/>
<path d="M365.798 157.8L366.952 151.608C369.847 152.693 373.651 153.384 376.055 153.384C380.472 153.384 382.558 152.126 382.558 148.844C382.558 142.158 365.774 147.019 365.774 133.005C365.774 125.752 371.025 122.569 378.043 122.569C381.208 122.569 384.692 123.087 387.244 124.025L386.091 130.069C383.392 129.28 380.521 128.811 378.19 128.811C374.141 128.811 372.841 130.365 372.841 132.611C372.841 139.593 389.625 134.806 389.625 148.721C389.625 151.904 388.619 154.445 386.876 156.221C384.57 158.565 381.429 159.601 376.718 159.601C372.546 159.626 369.111 159.034 365.798 157.8Z" fill="white"/>
<path d="M430.455 134.979C430.406 134.56 430.701 134.19 431.118 134.14L439.485 133.055C439.902 133.005 440.295 133.301 440.344 133.696L440.884 137.644C440.908 137.841 440.859 138.038 440.736 138.211L439.46 139.864L444.859 148.154C449.447 147.833 451.926 151.879 452.588 154.124C452.637 154.346 452.613 154.568 452.49 154.741C452.367 154.914 452.171 155.037 451.95 155.086L443.509 156.172L438.724 161.254C438.602 161.378 438.43 161.476 438.258 161.501L426.676 163.006C426.652 163.006 426.603 163.006 426.578 163.006C426.382 163.006 426.186 162.932 426.063 162.808L421.916 158.984L407.537 160.835C407.12 160.884 406.752 160.613 406.678 160.218C405.795 155.481 407.12 152.619 408.42 151.065C409.844 149.338 411.512 148.77 411.586 148.746C411.635 148.746 411.684 148.721 411.733 148.721L425.032 146.994C425.351 146.969 425.646 147.117 425.818 147.389L429.866 154.741L435.412 154.025C435.804 153.976 436.467 153.433 436.884 152.57C437.35 151.608 437.399 150.621 436.982 149.93C436.982 149.905 436.958 149.905 436.958 149.881L433.081 141.961C433.056 141.887 433.032 141.813 433.007 141.739L432.713 139.543L427.879 137.915C427.462 137.767 427.265 137.347 427.413 136.953C427.56 136.558 428.001 136.361 428.394 136.484L431.977 137.693L430.455 134.979Z" fill="white"/>
<path d="M411.806 150.226C411.413 150.226 411.095 149.955 411.045 149.56L410.358 144.354C410.309 143.935 410.604 143.565 411.021 143.515L424.517 141.764C424.713 141.739 424.934 141.788 425.081 141.912C425.228 142.035 425.351 142.208 425.375 142.405L426.062 147.611C426.112 148.03 425.817 148.4 425.4 148.45C424.983 148.499 424.59 148.203 424.541 147.808L423.928 143.343L411.929 144.897L412.542 149.363C412.591 149.782 412.297 150.152 411.88 150.201C411.855 150.226 411.831 150.226 411.806 150.226Z" fill="white"/>
<path d="M394.728 149.042C394.336 149.042 394.017 148.746 393.968 148.376C393.919 147.956 394.213 147.586 394.63 147.537L405.599 146.279C406.016 146.229 406.408 146.525 406.433 146.945C406.482 147.364 406.188 147.734 405.77 147.784L394.827 149.042C394.802 149.042 394.778 149.042 394.728 149.042Z" fill="white"/>
<path d="M393.206 153.581C392.814 153.581 392.495 153.285 392.446 152.915C392.397 152.496 392.691 152.126 393.108 152.076L404.077 150.818C404.494 150.769 404.886 151.065 404.911 151.484C404.96 151.904 404.666 152.274 404.248 152.323L393.28 153.581C393.256 153.581 393.231 153.581 393.206 153.581Z" fill="white"/>
<path d="M392.176 158.096C391.784 158.096 391.465 157.8 391.415 157.43C391.366 157.011 391.661 156.641 392.103 156.591L403.071 155.333C403.488 155.284 403.881 155.58 403.905 155.999C403.954 156.419 403.66 156.789 403.243 156.838L392.274 158.096C392.25 158.096 392.225 158.096 392.176 158.096Z" fill="white"/>
<path d="M416.052 169.05C414.628 169.05 413.23 168.606 412.101 167.718C410.702 166.682 409.843 165.152 409.598 163.45C409.549 163.031 409.844 162.66 410.261 162.611C410.678 162.562 411.07 162.858 411.119 163.253C411.291 164.56 411.978 165.72 413.033 166.509C414.089 167.299 415.414 167.669 416.739 167.471C418.064 167.299 419.241 166.633 420.051 165.596C420.861 164.56 421.229 163.253 421.033 161.945C420.984 161.526 421.278 161.155 421.695 161.106C422.112 161.057 422.505 161.353 422.554 161.748C422.775 163.45 422.333 165.152 421.254 166.509C420.198 167.866 418.653 168.73 416.935 168.976C416.64 169.026 416.346 169.05 416.052 169.05Z" fill="white"/>
<path d="M446.601 165.226C444.589 165.226 442.651 164.313 441.424 162.71C441.178 162.389 441.228 161.896 441.571 161.649C441.915 161.402 442.381 161.452 442.651 161.797C443.73 163.179 445.522 163.919 447.264 163.672C449.988 163.327 451.926 160.835 451.558 158.146C451.509 157.726 451.803 157.356 452.22 157.307C452.638 157.257 453.03 157.553 453.079 157.948C453.545 161.476 451.043 164.708 447.46 165.177C447.166 165.202 446.896 165.226 446.601 165.226Z" fill="white"/>
<path d="M275.604 219.509H278.1V215.733H279.86C281.3 215.733 282.292 215.397 282.932 214.677C283.476 214.069 283.748 213.189 283.748 212.021C283.748 210.853 283.46 210.005 282.868 209.461C282.164 208.805 281.076 208.565 279.364 208.565H275.604V219.509ZM278.1 213.861V210.373H279.268C280.036 210.373 280.5 210.485 280.804 210.757C281.092 211.029 281.22 211.461 281.22 212.053C281.22 212.693 281.076 213.157 280.788 213.445C280.468 213.749 280.132 213.861 279.332 213.861H278.1ZM285.094 210.565L288.342 208.373L287.222 206.853L284.294 209.573L285.094 210.565ZM285.174 219.509H287.462V211.669H285.174V219.509ZM291.823 219.733C292.783 219.733 293.631 219.397 294.303 218.949L294.351 219.509H296.335V208.069H294.047V212.021C293.439 211.653 292.655 211.445 291.967 211.445C290.095 211.445 288.863 212.997 288.863 215.605C288.863 217.141 289.215 218.341 289.951 219.061C290.399 219.493 291.055 219.733 291.823 219.733ZM292.687 217.941C291.647 217.941 291.263 217.413 291.263 215.669C291.263 213.781 291.887 213.253 292.959 213.253C293.247 213.253 293.695 213.317 294.047 213.429V217.669C293.647 217.829 293.055 217.941 292.687 217.941ZM301.991 219.733C302.967 219.733 303.879 219.605 304.631 219.461L304.455 217.797C303.863 217.909 303.063 217.989 302.503 217.989C300.967 217.989 300.151 217.621 300.087 216.293H304.903C305.031 216.293 305.095 216.245 305.095 216.117V215.397C305.095 212.677 303.847 211.445 301.495 211.445C299.095 211.445 297.687 212.853 297.687 215.605C297.687 216.853 297.959 217.973 298.743 218.725C299.415 219.365 300.519 219.733 301.991 219.733ZM300.087 214.805C300.135 213.797 300.551 213.173 301.479 213.173C302.391 213.173 302.855 213.813 302.855 214.805H300.087ZM306.429 219.509H308.717V208.069H306.429V219.509ZM314.101 219.733C316.821 219.733 318.085 218.101 318.085 215.589C318.085 213.077 316.821 211.445 314.101 211.445C311.381 211.445 310.117 213.077 310.117 215.589C310.117 218.101 311.381 219.733 314.101 219.733ZM314.101 217.989C312.949 217.989 312.501 217.205 312.501 215.589C312.501 213.973 312.949 213.189 314.101 213.189C315.253 213.189 315.701 213.973 315.701 215.589C315.701 217.205 315.253 217.989 314.101 217.989ZM322.885 219.509H325.173V213.605C325.541 213.461 326.229 213.349 326.661 213.349C327.125 213.349 327.445 213.413 327.653 213.605C327.813 213.765 327.893 213.989 327.893 214.389V219.509H330.181V214.117C330.181 213.205 329.989 212.517 329.509 212.053C329.077 211.621 328.309 211.445 327.621 211.445C326.869 211.445 325.973 211.637 325.173 212.085V208.069H322.885V219.509ZM335.481 219.733C338.201 219.733 339.465 218.101 339.465 215.589C339.465 213.077 338.201 211.445 335.481 211.445C332.761 211.445 331.497 213.077 331.497 215.589C331.497 218.101 332.761 219.733 335.481 219.733ZM335.481 217.989C334.329 217.989 333.881 217.205 333.881 215.589C333.881 213.973 334.329 213.189 335.481 213.189C336.633 213.189 337.081 213.973 337.081 215.589C337.081 217.205 336.633 217.989 335.481 217.989ZM344.415 223.333C347.263 223.333 348.047 221.941 348.047 219.173V211.669H345.759V217.493C345.391 217.637 344.719 217.781 344.287 217.781C343.807 217.781 343.519 217.717 343.311 217.525C343.151 217.365 343.071 217.141 343.071 216.741V211.669H340.783V217.061C340.783 217.973 341.007 218.581 341.471 219.045C341.903 219.477 342.607 219.653 343.295 219.653C344.079 219.653 344.991 219.445 345.759 219.013V219.973C345.759 220.533 345.663 220.965 345.375 221.237C345.135 221.477 344.607 221.605 344.047 221.605C343.279 221.605 342.783 221.525 342.255 221.429L342.415 223.125C343.007 223.253 343.647 223.333 344.415 223.333ZM350.467 222.053H351.619C351.795 221.509 351.971 220.053 351.971 218.965V218.533C351.971 217.765 351.571 217.333 350.803 217.333H350.691C349.923 217.333 349.523 217.765 349.523 218.533C349.523 219.221 349.763 219.541 350.467 219.781V222.053ZM356.913 219.509H359.201V213.621C359.697 213.509 360.161 213.429 360.769 213.429C361.137 213.429 361.521 213.461 361.777 213.493V211.493C361.681 211.477 361.505 211.461 361.377 211.461C360.625 211.461 359.585 211.749 358.977 212.309L358.897 211.669H356.913V219.509ZM366.673 219.733C367.649 219.733 368.561 219.605 369.313 219.461L369.137 217.797C368.545 217.909 367.745 217.989 367.185 217.989C365.649 217.989 364.833 217.621 364.769 216.293H369.585C369.713 216.293 369.777 216.245 369.777 216.117V215.397C369.777 212.677 368.529 211.445 366.177 211.445C363.777 211.445 362.369 212.853 362.369 215.605C362.369 216.853 362.641 217.973 363.425 218.725C364.097 219.365 365.201 219.733 366.673 219.733ZM364.769 214.805C364.817 213.797 365.233 213.173 366.161 213.173C367.073 213.173 367.537 213.813 367.537 214.805H364.769ZM374.95 219.733C375.814 219.733 376.39 219.653 377.158 219.477L376.982 217.829C376.486 217.925 375.862 217.989 375.35 217.989C373.702 217.989 373.046 217.205 373.046 215.589C373.046 214.789 373.19 214.181 373.574 213.765C373.91 213.413 374.454 213.205 375.158 213.205C375.814 213.205 376.486 213.301 376.966 213.429L377.11 211.733C376.358 211.525 375.526 211.445 374.806 211.445C373.51 211.445 372.374 211.861 371.67 212.613C370.966 213.381 370.662 214.453 370.662 215.765C370.662 216.629 370.87 217.509 371.302 218.165C372.118 219.429 373.606 219.733 374.95 219.733ZM378.276 210.565L381.524 208.373L380.404 206.853L377.476 209.573L378.276 210.565ZM378.356 219.509H380.644V211.669H378.356V219.509ZM386.781 219.733C387.757 219.733 388.461 219.445 389.005 218.821C389.581 218.165 389.885 216.965 389.885 215.557C389.885 212.517 388.669 211.445 386.893 211.445C386.141 211.445 385.277 211.653 384.733 211.973V208.069H382.445V219.509H384.333L384.445 219.013C385.101 219.445 385.965 219.733 386.781 219.733ZM386.093 217.941C385.645 217.941 385.101 217.765 384.733 217.557V213.493C385.101 213.349 385.597 213.285 386.093 213.285C387.053 213.285 387.485 213.717 387.485 215.589C387.485 217.349 387.133 217.941 386.093 217.941ZM395.142 219.733C396.118 219.733 397.03 219.605 397.782 219.461L397.606 217.797C397.014 217.909 396.214 217.989 395.654 217.989C394.118 217.989 393.302 217.621 393.238 216.293H398.054C398.182 216.293 398.246 216.245 398.246 216.117V215.397C398.246 212.677 396.998 211.445 394.646 211.445C392.246 211.445 390.838 212.853 390.838 215.605C390.838 216.853 391.11 217.973 391.894 218.725C392.566 219.365 393.67 219.733 395.142 219.733ZM393.238 214.805C393.286 213.797 393.702 213.173 394.63 213.173C395.542 213.173 396.006 213.813 396.006 214.805H393.238ZM399.579 219.509H401.867V208.069H399.579V219.509ZM407.252 219.733C409.972 219.733 411.236 218.101 411.236 215.589C411.236 213.077 409.972 211.445 407.252 211.445C404.532 211.445 403.268 213.077 403.268 215.589C403.268 218.101 404.532 219.733 407.252 219.733ZM407.252 217.989C406.1 217.989 405.652 217.205 405.652 215.589C405.652 213.973 406.1 213.189 407.252 213.189C408.404 213.189 408.852 213.973 408.852 215.589C408.852 217.205 408.404 217.989 407.252 217.989ZM416.036 219.509H418.324V213.605C418.692 213.461 419.38 213.349 419.812 213.349C420.276 213.349 420.596 213.413 420.804 213.605C420.964 213.765 421.044 213.989 421.044 214.389V219.509H423.332V214.117C423.332 213.205 423.14 212.517 422.66 212.053C422.228 211.621 421.46 211.445 420.772 211.445C420.02 211.445 419.124 211.637 418.324 212.085V208.069H416.036V219.509ZM428.631 219.733C431.351 219.733 432.615 218.101 432.615 215.589C432.615 213.077 431.351 211.445 428.631 211.445C425.911 211.445 424.647 213.077 424.647 215.589C424.647 218.101 425.911 219.733 428.631 219.733ZM428.631 217.989C427.479 217.989 427.031 217.205 427.031 215.589C427.031 213.973 427.479 213.189 428.631 213.189C429.783 213.189 430.231 213.973 430.231 215.589C430.231 217.205 429.783 217.989 428.631 217.989ZM437.565 223.333C440.413 223.333 441.197 221.941 441.197 219.173V211.669H438.909V217.493C438.541 217.637 437.869 217.781 437.437 217.781C436.957 217.781 436.669 217.717 436.461 217.525C436.301 217.365 436.221 217.141 436.221 216.741V211.669H433.933V217.061C433.933 217.973 434.157 218.581 434.621 219.045C435.053 219.477 435.757 219.653 436.445 219.653C437.229 219.653 438.141 219.445 438.909 219.013V219.973C438.909 220.533 438.813 220.965 438.525 221.237C438.285 221.477 437.757 221.605 437.197 221.605C436.429 221.605 435.933 221.525 435.405 221.429L435.565 223.125C436.157 223.253 436.797 223.333 437.565 223.333Z" fill="#0C273A"/>
<path d="M113.348 69.8229L112.917 69.9726L113.024 70.2786H113.348V69.8229ZM120.194 69.8229V70.2786H120.523L120.626 69.9664L120.194 69.8229ZM129.728 41.0949L130.16 41.2384L130.359 40.6392H129.728V41.0949ZM123.344 41.0949V40.6392H123.005L122.907 40.9638L123.344 41.0949ZM117.086 61.9269L116.652 62.0668L117.101 63.4593L117.522 62.058L117.086 61.9269ZM110.366 41.0949L110.799 40.955L110.697 40.6392H110.366V41.0949ZM103.352 41.0949V40.6392H102.711L102.921 41.2446L103.352 41.0949ZM113.348 70.2786H120.194V69.3672H113.348V70.2786ZM120.626 69.9664L130.16 41.2384L129.295 40.9513L119.761 69.6793L120.626 69.9664ZM129.728 40.6392H123.344V41.5506H129.728V40.6392ZM122.907 40.9638L116.649 61.7958L117.522 62.058L123.78 41.226L122.907 40.9638ZM117.519 61.787L110.799 40.955L109.932 41.2348L116.652 62.0668L117.519 61.787ZM110.366 40.6392H103.352V41.5506H110.366V40.6392ZM102.921 41.2446L112.917 69.9726L113.778 69.6731L103.782 40.9451L102.921 41.2446ZM132.892 69.8229H132.436V70.2786H132.892V69.8229ZM138.898 69.8229V70.2786H139.354V69.8229H138.898ZM138.898 49.2429H139.354V48.7872H138.898V49.2429ZM132.892 49.2429V48.7872H132.436V49.2429H132.892ZM135.748 46.2546H136.042V45.3432H135.748V46.2546ZM136.042 46.2546C137.116 46.2546 138.035 46.049 138.686 45.4879C139.352 44.9142 139.648 44.0495 139.648 42.9429H138.736C138.736 43.8942 138.486 44.4576 138.091 44.7973C137.682 45.1498 137.026 45.3432 136.042 45.3432V46.2546ZM139.648 42.9429V42.3969H138.736V42.9429H139.648ZM139.648 42.3969C139.648 41.2903 139.352 40.4179 138.69 39.8342C138.04 39.2612 137.12 39.0432 136.042 39.0432V39.9546C137.022 39.9546 137.677 40.1566 138.088 40.518C138.486 40.8689 138.736 41.4455 138.736 42.3969H139.648ZM136.042 39.0432H135.748V39.9546H136.042V39.0432ZM135.748 39.0432C134.67 39.0432 133.75 39.2612 133.1 39.8342C132.438 40.4179 132.142 41.2903 132.142 42.3969H133.054C133.054 41.4455 133.304 40.8689 133.703 40.518C134.113 40.1566 134.768 39.9546 135.748 39.9546V39.0432ZM132.142 42.3969V42.9429H133.054V42.3969H132.142ZM132.142 42.9429C132.142 44.0495 132.438 44.9142 133.104 45.4879C133.755 46.049 134.674 46.2546 135.748 46.2546V45.3432C134.764 45.3432 134.108 45.1498 133.699 44.7973C133.304 44.4576 133.054 43.8942 133.054 42.9429H132.142ZM132.892 70.2786H138.898V69.3672H132.892V70.2786ZM139.354 69.8229V49.2429H138.442V69.8229H139.354ZM138.898 48.7872H132.892V49.6986H138.898V48.7872ZM132.436 49.2429V69.8229H133.348V49.2429H132.436ZM149.295 69.8229L148.866 69.9762L148.974 70.2786H149.295V69.8229ZM156.267 69.8229V70.2786H156.592L156.698 69.9715L156.267 69.8229ZM163.365 49.2429L163.796 49.3915L164.005 48.7872H163.365V49.2429ZM157.359 49.2429V48.7872H157.022L156.924 49.1096L157.359 49.2429ZM152.991 63.5229L152.557 63.662L153.002 65.0475L153.427 63.6562L152.991 63.5229ZM148.413 49.2429L148.847 49.1038L148.746 48.7872H148.413V49.2429ZM141.945 49.2429V48.7872H141.299L141.516 49.3962L141.945 49.2429ZM149.295 70.2786H156.267V69.3672H149.295V70.2786ZM156.698 69.9715L163.796 49.3915L162.935 49.0943L155.837 69.6743L156.698 69.9715ZM163.365 48.7872H157.359V49.6986H163.365V48.7872ZM156.924 49.1096L152.556 63.3896L153.427 63.6562L157.795 49.3762L156.924 49.1096ZM153.425 63.3838L148.847 49.1038L147.979 49.382L152.557 63.662L153.425 63.3838ZM148.413 48.7872H141.945V49.6986H148.413V48.7872ZM141.516 49.3962L148.866 69.9762L149.725 69.6696L142.375 49.0896L141.516 49.3962ZM183.085 69.6969L183.17 70.1445L183.582 70.0657L183.538 69.6489L183.085 69.6969ZM182.623 65.3289L183.076 65.2809L183.024 64.7892L182.538 64.8811L182.623 65.3289ZM171.157 61.3809V60.9252H170.678L170.701 61.4028L171.157 61.3809ZM167.629 67.7649L167.313 68.0938L167.314 68.0949L167.629 67.7649ZM171.157 57.4749L170.701 57.4532L170.679 57.9306H171.157V57.4749ZM178.423 57.4749V57.9306H178.878V57.4749H178.423ZM176.155 70.8666C178.755 70.8666 181.18 70.5257 183.17 70.1445L182.999 69.2493C181.042 69.6241 178.678 69.9552 176.155 69.9552V70.8666ZM183.538 69.6489L183.076 65.2809L182.169 65.3768L182.632 69.7448L183.538 69.6489ZM182.538 64.8811C181.009 65.1704 178.937 65.3772 177.499 65.3772V66.2886C179 66.2886 181.129 66.0753 182.707 65.7767L182.538 64.8811ZM177.499 65.3772C175.497 65.3772 174.068 65.1328 173.124 64.53C172.223 63.955 171.691 63.0021 171.612 61.3589L170.701 61.4028C170.79 63.2457 171.413 64.5188 172.633 65.2982C173.811 66.05 175.468 66.2886 177.499 66.2886V65.3772ZM171.157 61.8366H183.799V60.9252H171.157V61.8366ZM183.799 61.8366C184.008 61.8366 184.269 61.8004 184.477 61.6188C184.698 61.4252 184.758 61.1568 184.758 60.9189H183.847C183.847 60.967 183.841 60.9833 183.842 60.9801C183.843 60.9778 183.845 60.9708 183.852 60.9611C183.858 60.9513 183.867 60.9415 183.877 60.9329C183.897 60.915 183.911 60.9132 183.9 60.9161C183.894 60.9176 183.884 60.92 183.866 60.9219C183.849 60.9238 183.827 60.9252 183.799 60.9252V61.8366ZM184.758 60.9189V59.0289H183.847V60.9189H184.758ZM184.758 59.0289C184.758 55.3981 183.926 52.6715 182.226 50.8531C180.52 49.0288 178.016 48.1992 174.853 48.1992V49.1106C177.864 49.1106 180.085 49.898 181.56 51.4757C183.041 53.0593 183.847 55.5197 183.847 59.0289H184.758ZM174.853 48.1992C171.613 48.1992 168.979 49.1516 167.16 51.0943C165.344 53.0325 164.401 55.8898 164.401 59.5749H165.312C165.312 56.0359 166.217 53.4333 167.825 51.7174C169.428 50.0061 171.792 49.1106 174.853 49.1106V48.1992ZM164.401 59.5749C164.401 62.9017 165.124 65.9937 167.313 68.0938L167.944 67.436C166.018 65.5881 165.312 62.8001 165.312 59.5749H164.401ZM167.314 68.0949C169.195 69.886 172.227 70.8666 176.155 70.8666V69.9552C172.355 69.9552 169.59 69.0038 167.943 67.4349L167.314 68.0949ZM171.612 57.4966C171.673 56.2207 171.965 55.26 172.473 54.6256C172.965 54.0117 173.706 53.6466 174.811 53.6466V52.7352C173.48 52.7352 172.456 53.1891 171.762 54.0556C171.084 54.9018 170.767 56.083 170.701 57.4532L171.612 57.4966ZM174.811 53.6466C175.892 53.6466 176.656 54.0202 177.16 54.6432C177.677 55.2806 177.967 56.2364 177.967 57.4749H178.878C178.878 56.1093 178.56 54.9231 177.869 54.0696C177.166 53.2016 176.124 52.7352 174.811 52.7352V53.6466ZM178.423 57.0192H171.157V57.9306H178.423V57.0192ZM214.708 69.6969L214.793 70.1445L215.205 70.0657L215.161 69.6489L214.708 69.6969ZM214.246 65.3289L214.699 65.2809L214.647 64.7892L214.161 64.8811L214.246 65.3289ZM202.78 61.3809V60.9252H202.302L202.325 61.4028L202.78 61.3809ZM199.252 67.7649L198.936 68.0938L198.937 68.0949L199.252 67.7649ZM202.78 57.4749L202.325 57.4532L202.302 57.9306H202.78V57.4749ZM210.046 57.4749V57.9306H210.501V57.4749H210.046ZM207.778 70.8666C210.378 70.8666 212.803 70.5257 214.793 70.1445L214.622 69.2493C212.665 69.6241 210.301 69.9552 207.778 69.9552V70.8666ZM215.161 69.6489L214.699 65.2809L213.793 65.3768L214.255 69.7448L215.161 69.6489ZM214.161 64.8811C212.632 65.1704 210.56 65.3772 209.122 65.3772V66.2886C210.623 66.2886 212.752 66.0753 214.33 65.7767L214.161 64.8811ZM209.122 65.3772C207.12 65.3772 205.691 65.1328 204.747 64.53C203.847 63.955 203.314 63.0021 203.235 61.3589L202.325 61.4028C202.413 63.2457 203.036 64.5188 204.256 65.2982C205.434 66.05 207.091 66.2886 209.122 66.2886V65.3772ZM202.78 61.8366H215.422V60.9252H202.78V61.8366ZM215.422 61.8366C215.631 61.8366 215.892 61.8004 216.1 61.6188C216.321 61.4252 216.381 61.1568 216.381 60.9189H215.47C215.47 60.967 215.464 60.9833 215.465 60.9801C215.466 60.9778 215.469 60.9708 215.475 60.9611C215.481 60.9513 215.49 60.9415 215.5 60.9329C215.52 60.915 215.534 60.9132 215.523 60.9161C215.517 60.9176 215.507 60.92 215.489 60.9219C215.472 60.9238 215.45 60.9252 215.422 60.9252V61.8366ZM216.381 60.9189V59.0289H215.47V60.9189H216.381ZM216.381 59.0289C216.381 55.3981 215.549 52.6715 213.849 50.8531C212.143 49.0288 209.639 48.1992 206.476 48.1992V49.1106C209.487 49.1106 211.708 49.898 213.183 51.4757C214.664 53.0593 215.47 55.5197 215.47 59.0289H216.381ZM206.476 48.1992C203.236 48.1992 200.603 49.1516 198.783 51.0943C196.967 53.0325 196.024 55.8898 196.024 59.5749H196.935C196.935 56.0359 197.84 53.4333 199.448 51.7174C201.051 50.0061 203.415 49.1106 206.476 49.1106V48.1992ZM196.024 59.5749C196.024 62.9017 196.747 65.9937 198.936 68.0938L199.567 67.436C197.641 65.5881 196.935 62.8001 196.935 59.5749H196.024ZM198.937 68.0949C200.818 69.886 203.85 70.8666 207.778 70.8666V69.9552C203.978 69.9552 201.213 69.0038 199.566 67.4349L198.937 68.0949ZM203.235 57.4966C203.296 56.2207 203.588 55.26 204.096 54.6256C204.588 54.0117 205.329 53.6466 206.434 53.6466V52.7352C205.103 52.7352 204.079 53.1891 203.385 54.0556C202.707 54.9018 202.39 56.083 202.325 57.4532L203.235 57.4966ZM206.434 53.6466C207.515 53.6466 208.279 54.0202 208.783 54.6432C209.3 55.2806 209.59 56.2364 209.59 57.4749H210.501C210.501 56.1093 210.183 54.9231 209.492 54.0696C208.789 53.2016 207.747 52.7352 206.434 52.7352V53.6466ZM210.046 57.0192H202.78V57.9306H210.046V57.0192ZM219.845 69.8229H219.389V70.2786H219.845V69.8229ZM225.851 69.8229V70.2786H226.307V69.8229H225.851ZM225.851 39.7929H226.307V39.3372H225.851V39.7929ZM219.845 39.7929V39.3372H219.389V39.7929H219.845ZM219.845 70.2786H225.851V69.3672H219.845V70.2786ZM226.307 69.8229V39.7929H225.395V69.8229H226.307ZM225.851 39.3372H219.845V40.2486H225.851V39.3372ZM219.389 39.7929V69.8229H220.301V39.7929H219.389ZM245.682 69.8229L245.253 69.9762L245.361 70.2786H245.682V69.8229ZM252.654 69.8229V70.2786H252.979L253.085 69.9715L252.654 69.8229ZM259.752 49.2429L260.183 49.3915L260.391 48.7872H259.752V49.2429ZM253.746 49.2429V48.7872H253.409L253.31 49.1096L253.746 49.2429ZM249.378 63.5229L248.944 63.662L249.388 65.0475L249.814 63.6562L249.378 63.5229ZM244.8 49.2429L245.234 49.1038L245.133 48.7872H244.8V49.2429ZM238.332 49.2429V48.7872H237.685L237.903 49.3962L238.332 49.2429ZM245.682 70.2786H252.654V69.3672H245.682V70.2786ZM253.085 69.9715L260.183 49.3915L259.321 49.0943L252.223 69.6743L253.085 69.9715ZM259.752 48.7872H253.746V49.6986H259.752V48.7872ZM253.31 49.1096L248.942 63.3896L249.814 63.6562L254.182 49.3762L253.31 49.1096ZM249.812 63.3838L245.234 49.1038L244.366 49.382L248.944 63.662L249.812 63.3838ZM244.8 48.7872H238.332V49.6986H244.8V48.7872ZM237.903 49.3962L245.253 69.9762L246.111 69.6696L238.761 49.0896L237.903 49.3962ZM279.471 69.6969L279.557 70.1445L279.969 70.0657L279.925 69.6489L279.471 69.6969ZM279.009 65.3289L279.463 65.2809L279.411 64.7892L278.925 64.8811L279.009 65.3289ZM267.543 61.3809V60.9252H267.065L267.088 61.4028L267.543 61.3809ZM264.015 67.7649L263.7 68.0938L263.701 68.0949L264.015 67.7649ZM267.543 57.4749L267.088 57.4532L267.065 57.9306H267.543V57.4749ZM274.809 57.4749V57.9306H275.265V57.4749H274.809ZM272.541 70.8666C275.142 70.8666 277.566 70.5257 279.557 70.1445L279.386 69.2493C277.428 69.6241 275.065 69.9552 272.541 69.9552V70.8666ZM279.925 69.6489L279.463 65.2809L278.556 65.3768L279.018 69.7448L279.925 69.6489ZM278.925 64.8811C277.396 65.1704 275.324 65.3772 273.885 65.3772V66.2886C275.387 66.2886 277.515 66.0753 279.094 65.7767L278.925 64.8811ZM273.885 65.3772C271.884 65.3772 270.454 65.1328 269.511 64.53C268.61 63.955 268.078 63.0021 267.999 61.3589L267.088 61.4028C267.177 63.2457 267.8 64.5188 269.02 65.2982C270.197 66.05 271.855 66.2886 273.885 66.2886V65.3772ZM267.543 61.8366H280.185V60.9252H267.543V61.8366ZM280.185 61.8366C280.394 61.8366 280.656 61.8004 280.863 61.6188C281.085 61.4252 281.145 61.1568 281.145 60.9189H280.234C280.234 60.967 280.227 60.9833 280.229 60.9801C280.229 60.9778 280.232 60.9708 280.239 60.9611C280.245 60.9513 280.253 60.9415 280.263 60.9329C280.284 60.915 280.297 60.9132 280.287 60.9161C280.281 60.9176 280.27 60.92 280.253 60.9219C280.236 60.9238 280.213 60.9252 280.185 60.9252V61.8366ZM281.145 60.9189V59.0289H280.234V60.9189H281.145ZM281.145 59.0289C281.145 55.3981 280.313 52.6715 278.613 50.8531C276.906 49.0288 274.402 48.1992 271.239 48.1992V49.1106C274.25 49.1106 276.471 49.898 277.947 51.4757C279.428 53.0593 280.234 55.5197 280.234 59.0289H281.145ZM271.239 48.1992C268 48.1992 265.366 49.1516 263.546 51.0943C261.731 53.0325 260.788 55.8898 260.788 59.5749H261.699C261.699 56.0359 262.604 53.4333 264.211 51.7174C265.815 50.0061 268.179 49.1106 271.239 49.1106V48.1992ZM260.788 59.5749C260.788 62.9017 261.51 65.9937 263.7 68.0938L264.331 67.436C262.404 65.5881 261.699 62.8001 261.699 59.5749H260.788ZM263.701 68.0949C265.582 69.886 268.613 70.8666 272.541 70.8666V69.9552C268.741 69.9552 265.977 69.0038 264.33 67.4349L263.701 68.0949ZM267.999 57.4966C268.059 56.2207 268.351 55.26 268.86 54.6256C269.352 54.0117 270.092 53.6466 271.197 53.6466V52.7352C269.867 52.7352 268.843 53.1891 268.149 54.0556C267.47 54.9018 267.153 56.083 267.088 57.4532L267.999 57.4966ZM271.197 53.6466C272.278 53.6466 273.042 54.0202 273.547 54.6432C274.063 55.2806 274.354 56.2364 274.354 57.4749H275.265C275.265 56.1093 274.947 54.9231 274.255 54.0696C273.552 53.2016 272.51 52.7352 271.197 52.7352V53.6466ZM274.809 57.0192H267.543V57.9306H274.809V57.0192ZM284.483 69.8229H284.027V70.2786H284.483V69.8229ZM290.489 69.8229V70.2786H290.945V69.8229H290.489ZM290.489 54.3669L290.388 53.9223L290.033 54.0026V54.3669H290.489ZM297.251 54.0309L297.194 54.4831L297.707 54.5471V54.0309H297.251ZM297.251 48.7809H297.707V48.3948L297.326 48.3314L297.251 48.7809ZM289.901 50.9229L289.449 50.9794L289.558 51.8578L290.21 51.2581L289.901 50.9229ZM289.691 49.2429L290.143 49.1864L290.093 48.7872H289.691V49.2429ZM284.483 49.2429V48.7872H284.027V49.2429H284.483ZM284.483 70.2786H290.489V69.3672H284.483V70.2786ZM290.945 69.8229V54.3669H290.033V69.8229H290.945ZM290.589 54.8114C291.873 54.5216 293.055 54.3186 294.605 54.3186V53.4072C292.963 53.4072 291.709 53.6242 290.388 53.9223L290.589 54.8114ZM294.605 54.3186C295.548 54.3186 296.537 54.4009 297.194 54.4831L297.307 53.5787C296.621 53.4929 295.594 53.4072 294.605 53.4072V54.3186ZM297.707 54.0309V48.7809H296.795V54.0309H297.707ZM297.326 48.3314C297.049 48.2853 296.562 48.2412 296.201 48.2412V49.1526C296.511 49.1526 296.948 49.1925 297.176 49.2304L297.326 48.3314ZM296.201 48.2412C294.15 48.2412 291.296 49.0183 289.592 50.5877L290.21 51.2581C291.698 49.8875 294.304 49.1526 296.201 49.1526V48.2412ZM290.353 50.8664L290.143 49.1864L289.239 49.2994L289.449 50.9794L290.353 50.8664ZM289.691 48.7872H284.483V49.6986H289.691V48.7872ZM284.027 49.2429V69.8229H284.939V49.2429H284.027ZM312.248 68.5629L312.671 68.3936L312.466 67.8809L312.001 68.1795L312.248 68.5629ZM312.752 69.8229L312.329 69.9921L312.443 70.2786H312.752V69.8229ZM317.498 69.8229V70.2786H317.954V69.8229H317.498ZM315.902 51.0069L315.555 51.302L315.557 51.3044L315.902 51.0069ZM301.202 49.4109L301.112 48.964L300.721 49.0424L300.747 49.4412L301.202 49.4109ZM301.496 53.8209L301.041 53.8512L301.076 54.3726L301.588 54.2672L301.496 53.8209ZM310.736 54.1149L311.044 53.7789L311.037 53.7732L310.736 54.1149ZM311.492 57.0969V57.5526H311.948V57.0969H311.492ZM300.656 58.9869L300.343 58.6553L300.339 58.6588L300.656 58.9869ZM305.444 61.6749L305.766 61.9971L305.444 61.6749ZM311.492 60.9609H311.948V60.5052H311.492V60.9609ZM311.492 65.2029L311.624 65.6389L311.948 65.5405V65.2029H311.492ZM306.074 70.8666C308.352 70.8666 310.662 70.1239 312.494 68.9462L312.001 68.1795C310.305 69.2699 308.164 69.9552 306.074 69.9552V70.8666ZM311.825 68.7321L312.329 69.9921L313.175 69.6536L312.671 68.3936L311.825 68.7321ZM312.752 70.2786H317.498V69.3672H312.752V70.2786ZM317.954 69.8229V56.4669H317.042V69.8229H317.954ZM317.954 56.4669C317.954 53.9273 317.394 52.0401 316.247 50.7093L315.557 51.3044C316.509 52.4096 317.042 54.0504 317.042 56.4669H317.954ZM316.249 50.7117C315.459 49.7823 314.309 49.1573 312.981 48.7639C311.651 48.3699 310.114 48.1992 308.51 48.1992V49.1106C310.056 49.1106 311.5 49.2758 312.722 49.6378C313.946 50.0004 314.917 50.5515 315.555 51.302L316.249 50.7117ZM308.51 48.1992C305.996 48.1992 303.236 48.5393 301.112 48.964L301.291 49.8577C303.368 49.4424 306.067 49.1106 308.51 49.1106V48.1992ZM300.747 49.4412L301.041 53.8512L301.951 53.7906L301.657 49.3806L300.747 49.4412ZM301.588 54.2672C302.983 53.9799 305.346 53.7306 307.25 53.7306V52.8192C305.289 52.8192 302.864 53.0738 301.404 53.3745L301.588 54.2672ZM307.25 53.7306C308.882 53.7306 309.858 53.9484 310.434 54.4566L311.037 53.7732C310.185 53.0214 308.893 52.8192 307.25 52.8192V53.7306ZM310.428 54.4508C310.797 54.7894 311.036 55.3507 311.036 56.4249H311.948C311.948 55.231 311.682 54.3644 311.044 53.7789L310.428 54.4508ZM311.036 56.4249V57.0969H311.948V56.4249H311.036ZM311.492 56.6412H308.216V57.5526H311.492V56.6412ZM308.216 56.6412C304.384 56.6412 301.952 57.1383 300.343 58.6553L300.968 59.3185C302.299 58.0634 304.404 57.5526 308.216 57.5526V56.6412ZM300.339 58.6588C299.058 59.8941 298.394 61.7012 298.394 63.6489H299.306C299.306 61.9005 299.901 60.3476 300.972 59.3149L300.339 58.6588ZM298.394 63.6489C298.394 65.7407 299.057 67.5579 300.379 68.8519C301.701 70.1455 303.632 70.8666 306.074 70.8666V69.9552C303.812 69.9552 302.13 69.2903 301.017 68.2004C299.903 67.1108 299.306 65.547 299.306 63.6489H298.394ZM307.796 65.3772C306.756 65.3772 306.155 65.1553 305.813 64.8447C305.482 64.5432 305.312 64.0816 305.312 63.3969H304.4C304.4 64.2241 304.608 64.9806 305.2 65.5191C305.783 66.0485 306.652 66.2886 307.796 66.2886V65.3772ZM305.312 63.3969C305.312 62.7194 305.499 62.2638 305.766 61.9971L305.122 61.3526C304.632 61.842 304.4 62.5624 304.4 63.3969H305.312ZM305.766 61.9971C306.167 61.5966 306.867 61.4166 308.3 61.4166V60.5052C306.877 60.5052 305.813 60.6611 305.122 61.3526L305.766 61.9971ZM308.3 61.4166H311.492V60.5052H308.3V61.4166ZM311.036 60.9609V65.2029H311.948V60.9609H311.036ZM311.359 64.7669C310.415 65.0543 308.867 65.3772 307.796 65.3772V66.2886C308.993 66.2886 310.637 65.9394 311.624 65.6389L311.359 64.7669ZM322.422 69.8229H321.967V70.2786H322.422V69.8229ZM328.428 69.8229V70.2786H328.884V69.8229H328.428ZM328.428 54.3249L328.262 53.9005L327.973 54.0138V54.3249H328.428ZM334.938 54.3249L335.261 54.0026L335.254 53.9962L335.247 53.99L334.938 54.3249ZM335.568 69.8229H335.113V70.2786H335.568V69.8229ZM341.574 69.8229V70.2786H342.03V69.8229H341.574ZM339.81 50.2509L339.488 50.5732L339.494 50.5785L339.81 50.2509ZM327.756 50.7129L327.302 50.7518L327.367 51.5082L328.004 51.0953L327.756 50.7129ZM327.63 49.2429L328.084 49.204L328.049 48.7872H327.63V49.2429ZM322.422 49.2429V48.7872H321.967V49.2429H322.422ZM322.422 70.2786H328.428V69.3672H322.422V70.2786ZM328.884 69.8229V54.3249H327.973V69.8229H328.884ZM328.594 54.7493C329.497 54.396 331.245 54.1086 332.334 54.1086V53.1972C331.156 53.1972 329.292 53.4977 328.262 53.9005L328.594 54.7493ZM332.334 54.1086C333.539 54.1086 334.22 54.2823 334.629 54.6597L335.247 53.99C334.564 53.3595 333.565 53.1972 332.334 53.1972V54.1086ZM334.616 54.6471C334.915 54.9461 335.113 55.3919 335.113 56.3829H336.024C336.024 55.2738 335.802 54.5436 335.261 54.0026L334.616 54.6471ZM335.113 56.3829V69.8229H336.024V56.3829H335.113ZM335.568 70.2786H341.574V69.3672H335.568V70.2786ZM342.03 69.8229V55.6689H341.119V69.8229H342.03ZM342.03 55.6689C342.03 53.2225 341.517 51.2664 340.127 49.9232L339.494 50.5785C340.624 51.6713 341.119 53.3272 341.119 55.6689H342.03ZM340.133 49.9286C338.87 48.6664 336.703 48.1992 334.854 48.1992V49.1106C336.618 49.1106 338.482 49.5674 339.488 50.5731L340.133 49.9286ZM334.854 48.1992C332.597 48.1992 329.862 48.8052 327.508 50.3305L328.004 51.0953C330.187 49.6806 332.744 49.1106 334.854 49.1106V48.1992ZM328.21 50.674L328.084 49.204L327.176 49.2818L327.302 50.7518L328.21 50.674ZM327.63 48.7872H322.422V49.6986H327.63V48.7872ZM321.967 49.2429V69.8229H322.878V49.2429H321.967ZM355.906 70.8666C359.57 70.8666 362.321 69.7647 364.15 67.7511C365.973 65.7449 366.82 62.9005 366.82 59.5329H365.909C365.909 62.7593 365.097 65.3538 363.476 67.1382C361.861 68.9151 359.383 69.9552 355.906 69.9552V70.8666ZM366.82 59.5329C366.82 56.1653 365.973 53.3208 364.15 51.3147C362.321 49.3011 359.57 48.1992 355.906 48.1992V49.1106C359.383 49.1106 361.861 50.1507 363.476 51.9276C365.097 53.7119 365.909 56.3065 365.909 59.5329H366.82ZM355.906 48.1992C352.243 48.1992 349.492 49.3011 347.663 51.3147C345.84 53.3208 344.993 56.1653 344.993 59.5329H345.904C345.904 56.3065 346.716 53.7119 348.337 51.9276C349.952 50.1507 352.43 49.1106 355.906 49.1106V48.1992ZM344.993 59.5329C344.993 62.9005 345.84 65.7449 347.663 67.7511C349.492 69.7647 352.243 70.8666 355.906 70.8666V69.9552C352.43 69.9552 349.952 68.9151 348.337 67.1382C346.716 65.3538 345.904 62.7593 345.904 59.5329H344.993ZM355.906 65.3772C354.514 65.3772 353.626 64.9143 353.056 64.0271C352.457 63.096 352.162 61.6312 352.162 59.5329H351.251C351.251 61.6766 351.544 63.3618 352.289 64.5202C353.063 65.7224 354.275 66.2886 355.906 66.2886V65.3772ZM352.162 59.5329C352.162 57.4346 352.457 55.9698 353.056 55.0387C353.626 54.1514 354.514 53.6886 355.906 53.6886V52.7772C354.275 52.7772 353.063 53.3433 352.289 54.5456C351.544 55.704 351.251 57.3892 351.251 59.5329H352.162ZM355.906 53.6886C357.299 53.6886 358.187 54.1514 358.757 55.0387C359.356 55.9698 359.651 57.4346 359.651 59.5329H360.562C360.562 57.3892 360.269 55.704 359.524 54.5456C358.75 53.3433 357.538 52.7772 355.906 52.7772V53.6886ZM359.651 59.5329C359.651 61.6312 359.356 63.096 358.757 64.0271C358.187 64.9143 357.299 65.3772 355.906 65.3772V66.2886C357.538 66.2886 358.75 65.7224 359.524 64.5202C360.269 63.3618 360.562 61.6766 360.562 59.5329H359.651Z" fill="white"/>
<path d="M115.171 68H122.017L131.551 39.272H125.167L118.909 60.104L112.189 39.272H105.175L115.171 68ZM137.571 43.976H137.865C139.923 43.976 141.015 43.178 141.015 41.12V40.574C141.015 38.516 139.923 37.676 137.865 37.676H137.571C135.513 37.676 134.421 38.516 134.421 40.574V41.12C134.421 43.178 135.513 43.976 137.571 43.976ZM134.715 68H140.721V47.42H134.715V68ZM151.118 68H158.09L165.188 47.42H159.182L154.814 61.7L150.236 47.42H143.768L151.118 68ZM177.978 68.588C180.54 68.588 182.934 68.252 184.908 67.874L184.446 63.506C182.892 63.8 180.792 64.01 179.322 64.01C175.29 64.01 173.148 63.044 172.98 59.558H185.622C185.958 59.558 186.126 59.432 186.126 59.096V57.206C186.126 50.066 182.85 46.832 176.676 46.832C170.376 46.832 166.68 50.528 166.68 57.752C166.68 61.028 167.394 63.968 169.452 65.942C171.216 67.622 174.114 68.588 177.978 68.588ZM172.98 55.652C173.106 53.006 174.198 51.368 176.634 51.368C179.028 51.368 180.246 53.048 180.246 55.652H172.98ZM209.601 68.588C212.163 68.588 214.557 68.252 216.531 67.874L216.069 63.506C214.515 63.8 212.415 64.01 210.945 64.01C206.913 64.01 204.771 63.044 204.603 59.558H217.245C217.581 59.558 217.749 59.432 217.749 59.096V57.206C217.749 50.066 214.473 46.832 208.299 46.832C201.999 46.832 198.303 50.528 198.303 57.752C198.303 61.028 199.017 63.968 201.075 65.942C202.839 67.622 205.737 68.588 209.601 68.588ZM204.603 55.652C204.729 53.006 205.821 51.368 208.257 51.368C210.651 51.368 211.869 53.048 211.869 55.652H204.603ZM221.668 68H227.674V37.97H221.668V68ZM247.505 68H254.477L261.575 47.42H255.569L251.201 61.7L246.623 47.42H240.155L247.505 68ZM274.364 68.588C276.926 68.588 279.32 68.252 281.294 67.874L280.832 63.506C279.278 63.8 277.178 64.01 275.708 64.01C271.676 64.01 269.534 63.044 269.366 59.558H282.008C282.344 59.558 282.512 59.432 282.512 59.096V57.206C282.512 50.066 279.236 46.832 273.062 46.832C266.762 46.832 263.066 50.528 263.066 57.752C263.066 61.028 263.78 63.968 265.838 65.942C267.602 67.622 270.5 68.588 274.364 68.588ZM269.366 55.652C269.492 53.006 270.584 51.368 273.02 51.368C275.414 51.368 276.632 53.048 276.632 55.652H269.366ZM286.306 68H292.312V52.544C293.614 52.25 294.832 52.04 296.428 52.04C297.394 52.04 298.402 52.124 299.074 52.208V46.958C298.822 46.916 298.36 46.874 298.024 46.874C296.05 46.874 293.32 47.63 291.724 49.1L291.514 47.42H286.306V68ZM307.897 68.588C310.081 68.588 312.307 67.874 314.071 66.74L314.575 68H319.321V54.644C319.321 52.166 318.775 50.402 317.725 49.184C316.297 47.504 313.483 46.832 310.333 46.832C307.855 46.832 305.125 47.168 303.025 47.588L303.319 51.998C304.747 51.704 307.141 51.452 309.073 51.452C310.711 51.452 311.845 51.662 312.559 52.292C313.063 52.754 313.315 53.468 313.315 54.602V55.274H310.039C306.217 55.274 303.949 55.778 302.479 57.164C301.303 58.298 300.673 59.978 300.673 61.826C300.673 65.816 303.193 68.588 307.897 68.588ZM309.619 64.01C307.435 64.01 306.679 63.086 306.679 61.574C306.679 60.818 306.889 60.23 307.267 59.852C307.813 59.306 308.695 59.138 310.123 59.138H313.315V63.38C312.349 63.674 310.753 64.01 309.619 64.01ZM324.245 68H330.251V52.502C331.217 52.124 333.023 51.83 334.157 51.83C335.375 51.83 336.215 51.998 336.761 52.502C337.181 52.922 337.391 53.51 337.391 54.56V68H343.397V53.846C343.397 51.452 342.893 49.646 341.633 48.428C340.499 47.294 338.483 46.832 336.677 46.832C334.493 46.832 331.847 47.42 329.579 48.89L329.453 47.42H324.245V68ZM357.729 68.588C364.869 68.588 368.187 64.304 368.187 57.71C368.187 51.116 364.869 46.832 357.729 46.832C350.589 46.832 347.271 51.116 347.271 57.71C347.271 64.304 350.589 68.588 357.729 68.588ZM357.729 64.01C354.705 64.01 353.529 61.952 353.529 57.71C353.529 53.468 354.705 51.41 357.729 51.41C360.753 51.41 361.929 53.468 361.929 57.71C361.929 61.952 360.753 64.01 357.729 64.01Z" fill="white"/>
<path d="M82.559 266.852C84.779 266.852 86.339 266.312 87.329 265.232C88.259 264.242 88.679 262.802 88.679 260.822V244.982H86.189V256.952C84.989 257.522 83.459 257.912 82.139 257.912C81.059 257.912 80.279 257.672 79.769 257.162C79.259 256.652 79.049 255.932 79.049 254.672V244.982H76.559V254.972C76.559 256.802 76.979 258.002 77.789 258.812C78.629 259.682 79.889 260.102 81.479 260.102C83.069 260.102 84.719 259.622 86.189 258.782V260.792C86.189 262.442 85.889 263.372 85.259 263.972C84.599 264.572 83.549 264.782 82.199 264.782C81.479 264.782 80.099 264.692 79.379 264.602L79.589 266.552C80.249 266.702 81.569 266.852 82.559 266.852ZM99.0019 266.432H101.492V258.992C102.572 259.682 104.162 260.102 105.692 260.102C109.202 260.102 111.422 257.792 111.422 252.272C111.422 247.592 109.592 244.562 105.782 244.562C104.432 244.562 102.722 245.042 101.192 246.062L101.072 244.982H99.0019V266.432ZM105.062 258.032C103.802 258.032 102.362 257.642 101.492 257.132V247.682C102.632 247.082 104.102 246.692 105.242 246.692C107.702 246.692 108.812 248.492 108.812 252.242C108.812 256.442 107.732 258.032 105.062 258.032ZM120.761 260.102C125.321 260.102 127.451 257.222 127.451 252.332C127.451 247.442 125.321 244.562 120.761 244.562C116.201 244.562 114.071 247.442 114.071 252.332C114.071 257.222 116.201 260.102 120.761 260.102ZM120.761 258.062C117.761 258.062 116.681 256.082 116.681 252.332C116.681 248.582 117.761 246.602 120.761 246.602C123.761 246.602 124.841 248.582 124.841 252.332C124.841 256.082 123.761 258.062 120.761 258.062ZM130.877 259.682H133.367V247.712C134.567 247.142 136.157 246.752 137.477 246.752C138.557 246.752 139.337 246.992 139.847 247.502C140.357 248.012 140.567 248.732 140.567 249.992V259.682H143.057V249.692C143.057 247.862 142.637 246.662 141.827 245.852C140.987 244.982 139.727 244.562 138.137 244.562C136.427 244.562 134.597 245.132 133.067 246.062L132.947 244.982H130.877V259.682ZM159.708 260.102C161.058 260.102 162.798 259.892 164.058 259.532L163.818 257.672C162.678 257.912 161.238 258.062 160.188 258.062C158.328 258.062 157.218 257.672 156.438 256.952C155.568 256.142 155.148 254.822 155.148 253.202H164.628C164.868 253.202 164.988 253.112 164.988 252.872V252.302C164.988 247.472 163.008 244.562 158.898 244.562C155.148 244.562 152.538 247.112 152.538 252.362C152.538 255.002 153.138 257.012 154.458 258.332C155.658 259.532 157.428 260.102 159.708 260.102ZM155.148 251.372C155.178 248.402 156.408 246.572 158.898 246.572C161.358 246.572 162.438 248.552 162.528 251.372H155.148ZM168.524 259.682H171.014V238.232H168.524V259.682ZM188.345 260.102C189.965 260.102 191.045 259.952 192.485 259.622L192.155 256.532C191.225 256.712 190.055 256.832 189.095 256.832C186.005 256.832 184.775 255.362 184.775 252.332C184.775 250.832 185.045 249.692 185.765 248.912C186.395 248.252 187.415 247.862 188.735 247.862C189.965 247.862 191.225 248.042 192.125 248.282L192.395 245.102C190.985 244.712 189.425 244.562 188.075 244.562C185.645 244.562 183.515 245.342 182.195 246.752C180.875 248.192 180.305 250.202 180.305 252.662C180.305 254.282 180.695 255.932 181.505 257.162C183.035 259.532 185.825 260.102 188.345 260.102ZM194.942 259.682H199.232V248.612C199.922 248.342 201.212 248.132 202.022 248.132C202.892 248.132 203.492 248.252 203.882 248.612C204.182 248.912 204.332 249.332 204.332 250.082V259.682H208.622V249.572C208.622 247.862 208.262 246.572 207.362 245.702C206.552 244.892 205.112 244.562 203.822 244.562C202.412 244.562 200.732 244.922 199.232 245.762V238.232H194.942V259.682ZM214.269 242.522H214.479C215.949 242.522 216.729 241.952 216.729 240.482V240.092C216.729 238.622 215.949 238.022 214.479 238.022H214.269C212.799 238.022 212.019 238.622 212.019 240.092V240.482C212.019 241.952 212.799 242.522 214.269 242.522ZM212.229 259.682H216.519V244.982H212.229V259.682ZM220.196 266.432H224.486V259.022C225.596 259.712 227.096 260.102 228.416 260.102C231.746 260.102 234.146 258.032 234.146 252.242C234.146 249.512 233.546 247.172 232.166 245.822C231.326 245.012 230.126 244.562 228.656 244.562C226.856 244.562 225.296 245.222 224.036 246.062L223.916 244.982H220.196V266.432ZM227.156 256.712C226.226 256.712 225.176 256.592 224.486 256.292V248.432C225.206 248.222 226.346 248.042 227.036 248.042C228.986 248.042 229.646 249.032 229.646 252.182C229.646 255.722 228.956 256.712 227.156 256.712ZM252.661 266.702L256.951 266.162V244.982H253.411L253.201 245.912C251.971 245.102 250.501 244.562 248.971 244.562C247.291 244.562 245.821 245.192 244.831 246.272C243.631 247.592 242.971 249.752 242.971 252.392C242.971 258.182 245.311 260.102 248.641 260.102C250.051 260.102 251.641 259.682 252.661 259.112V266.702ZM250.171 256.742C248.371 256.742 247.471 255.902 247.471 252.392C247.471 249.482 248.161 247.982 250.381 247.982C250.951 247.982 251.971 248.162 252.661 248.402V256.262C251.971 256.532 251.101 256.742 250.171 256.742ZM265.248 260.072C266.748 260.072 268.578 259.682 270.168 258.692L270.288 259.682H274.008V244.982H269.718V256.082C268.998 256.322 267.798 256.502 267.048 256.502C266.178 256.502 265.578 256.382 265.188 256.022C264.888 255.722 264.738 255.212 264.738 254.462V244.982H260.448V255.062C260.448 256.772 260.808 258.062 261.708 258.932C262.518 259.742 263.958 260.072 265.248 260.072ZM284.938 260.102C286.768 260.102 288.478 259.862 289.888 259.592L289.558 256.472C288.448 256.682 286.948 256.832 285.898 256.832C283.018 256.832 281.488 256.142 281.368 253.652H290.398C290.638 253.652 290.758 253.562 290.758 253.322V251.972C290.758 246.872 288.418 244.562 284.008 244.562C279.508 244.562 276.868 247.202 276.868 252.362C276.868 254.702 277.378 256.802 278.848 258.212C280.108 259.412 282.178 260.102 284.938 260.102ZM281.368 250.862C281.458 248.972 282.238 247.802 283.978 247.802C285.688 247.802 286.558 249.002 286.558 250.862H281.368ZM309.146 266.702L313.436 266.162V244.982H309.896L309.686 245.912C308.456 245.102 306.986 244.562 305.456 244.562C303.776 244.562 302.306 245.192 301.316 246.272C300.116 247.592 299.456 249.752 299.456 252.392C299.456 258.182 301.796 260.102 305.126 260.102C306.536 260.102 308.126 259.682 309.146 259.112V266.702ZM306.656 256.742C304.856 256.742 303.956 255.902 303.956 252.392C303.956 249.482 304.646 247.982 306.866 247.982C307.436 247.982 308.456 248.162 309.146 248.402V256.262C308.456 256.532 307.586 256.742 306.656 256.742ZM321.732 260.072C323.232 260.072 325.062 259.682 326.652 258.692L326.772 259.682H330.492V244.982H326.202V256.082C325.482 256.322 324.282 256.502 323.532 256.502C322.662 256.502 322.062 256.382 321.672 256.022C321.372 255.722 321.222 255.212 321.222 254.462V244.982H316.932V255.062C316.932 256.772 317.292 258.062 318.192 258.932C319.002 259.742 320.442 260.072 321.732 260.072ZM336.232 242.522H336.442C337.912 242.522 338.692 241.952 338.692 240.482V240.092C338.692 238.622 337.912 238.022 336.442 238.022H336.232C334.762 238.022 333.982 238.622 333.982 240.092V240.482C333.982 241.952 334.762 242.522 336.232 242.522ZM334.192 259.682H338.482V244.982H334.192V259.682ZM349.479 260.102C351.309 260.102 353.019 259.862 354.429 259.592L354.099 256.472C352.989 256.682 351.489 256.832 350.439 256.832C347.559 256.832 346.029 256.142 345.909 253.652H354.939C355.179 253.652 355.299 253.562 355.299 253.322V251.972C355.299 246.872 352.959 244.562 348.549 244.562C344.049 244.562 341.409 247.202 341.409 252.362C341.409 254.702 341.919 256.802 343.389 258.212C344.649 259.412 346.719 260.102 349.479 260.102ZM345.909 250.862C345.999 248.972 346.779 247.802 348.519 247.802C350.229 247.802 351.099 249.002 351.099 250.862H345.909ZM358.008 259.682H362.298V248.642C363.228 248.432 364.098 248.282 365.238 248.282C365.928 248.282 366.648 248.342 367.128 248.402V244.652C366.948 244.622 366.618 244.592 366.378 244.592C364.968 244.592 363.018 245.132 361.878 246.182L361.728 244.982H358.008V259.682ZM373.431 260.102C374.991 260.102 376.581 259.592 377.841 258.782L378.201 259.682H381.591V250.142C381.591 248.372 381.201 247.112 380.451 246.242C379.431 245.042 377.421 244.562 375.171 244.562C373.401 244.562 371.451 244.802 369.951 245.102L370.161 248.252C371.181 248.042 372.891 247.862 374.271 247.862C375.441 247.862 376.251 248.012 376.761 248.462C377.121 248.792 377.301 249.302 377.301 250.112V250.592H374.961C372.231 250.592 370.611 250.952 369.561 251.942C368.721 252.752 368.271 253.952 368.271 255.272C368.271 258.122 370.071 260.102 373.431 260.102ZM374.661 256.832C373.101 256.832 372.561 256.172 372.561 255.092C372.561 254.552 372.711 254.132 372.981 253.862C373.371 253.472 374.001 253.352 375.021 253.352H377.301V256.382C376.611 256.592 375.471 256.832 374.661 256.832ZM389.878 260.102C394.288 260.102 396.508 258.332 396.508 255.272C396.508 249.182 388.468 251.552 388.468 249.062C388.468 248.222 389.308 247.862 390.838 247.862C392.038 247.862 393.838 248.102 395.368 248.522L395.698 245.372C394.108 244.832 392.278 244.562 390.808 244.562C386.398 244.562 384.418 246.572 384.418 249.302C384.418 255.392 392.428 252.842 392.428 255.452C392.428 256.502 391.408 256.802 389.788 256.802C388.198 256.802 386.158 256.472 385.048 256.112L384.718 259.292C385.888 259.712 388.138 260.102 389.878 260.102Z" fill="#0B2739"/>
<rect x="153" y="4.55719" width="165.882" height="25.5203" fill="#DF357D"/>
<path d="M164.06 24H166.712V19.988H168.582C170.112 19.988 171.166 19.631 171.846 18.866C172.424 18.22 172.713 17.285 172.713 16.044C172.713 14.803 172.407 13.902 171.778 13.324C171.03 12.627 169.874 12.372 168.055 12.372H164.06V24ZM166.712 17.999V14.293H167.953C168.769 14.293 169.262 14.412 169.585 14.701C169.891 14.99 170.027 15.449 170.027 16.078C170.027 16.758 169.874 17.251 169.568 17.557C169.228 17.88 168.871 17.999 168.021 17.999H166.712ZM179.243 24.238C182.796 24.238 184.394 22.13 184.394 18.203C184.394 14.276 182.796 12.151 179.243 12.151C175.69 12.151 174.092 14.276 174.092 18.203C174.092 22.13 175.69 24.238 179.243 24.238ZM179.243 22.164C177.526 22.164 176.846 21.008 176.846 18.203C176.846 15.398 177.526 14.225 179.243 14.225C180.96 14.225 181.64 15.398 181.64 18.203C181.64 21.008 180.96 22.164 179.243 22.164ZM186.422 24H189.074V19.784H190.536L192.678 24H195.67L193.154 19.427C194.463 18.815 195.126 17.557 195.126 15.976C195.126 14.752 194.752 13.868 194.157 13.307C193.392 12.593 192.287 12.372 190.417 12.372H186.422V24ZM189.074 17.863V14.293H190.264C191.131 14.293 191.692 14.395 192.032 14.718C192.304 14.99 192.44 15.415 192.44 16.01C192.44 16.656 192.287 17.166 191.947 17.455C191.607 17.744 191.131 17.863 190.247 17.863H189.074ZM201.264 24H203.916V19.988H205.786C207.316 19.988 208.37 19.631 209.05 18.866C209.628 18.22 209.917 17.285 209.917 16.044C209.917 14.803 209.611 13.902 208.982 13.324C208.234 12.627 207.078 12.372 205.259 12.372H201.264V24ZM203.916 17.999V14.293H205.157C205.973 14.293 206.466 14.412 206.789 14.701C207.095 14.99 207.231 15.449 207.231 16.078C207.231 16.758 207.078 17.251 206.772 17.557C206.432 17.88 206.075 17.999 205.225 17.999H203.916ZM216.447 24.238C220 24.238 221.598 22.13 221.598 18.203C221.598 14.276 220 12.151 216.447 12.151C212.894 12.151 211.296 14.276 211.296 18.203C211.296 22.13 212.894 24.238 216.447 24.238ZM216.447 22.164C214.73 22.164 214.05 21.008 214.05 18.203C214.05 15.398 214.73 14.225 216.447 14.225C218.164 14.225 218.844 15.398 218.844 18.203C218.844 21.008 218.164 22.164 216.447 22.164ZM228.76 24.238C229.712 24.238 230.987 24.085 231.684 23.881L231.412 21.943C230.732 22.079 229.831 22.181 229.27 22.181C227.961 22.181 227.23 21.926 226.72 21.348C226.142 20.702 225.887 19.546 225.887 18.169C225.887 15.857 226.465 14.208 228.964 14.208C229.695 14.208 230.562 14.361 231.463 14.616L231.803 12.678C231.055 12.372 229.763 12.151 228.76 12.151C224.782 12.151 223.133 14.599 223.133 18.237C223.133 20.26 223.558 21.773 224.544 22.827C225.411 23.745 226.703 24.238 228.76 24.238ZM238.295 24.238C241.848 24.238 243.446 22.13 243.446 18.203C243.446 14.276 241.848 12.151 238.295 12.151C234.742 12.151 233.144 14.276 233.144 18.203C233.144 22.13 234.742 24.238 238.295 24.238ZM238.295 22.164C236.578 22.164 235.898 21.008 235.898 18.203C235.898 15.398 236.578 14.225 238.295 14.225C240.012 14.225 240.692 15.398 240.692 18.203C240.692 21.008 240.012 22.164 238.295 22.164ZM251.876 24H254.528V14.293H258.047L258.251 12.372H248.272V14.293H251.876V24ZM259.669 24H262.321V12.372H259.669V24ZM264.865 24H272.804V22.079H267.517V19.104H271.512V17.115H267.517V14.293H272.515L272.719 12.372H264.865V24ZM274.776 24H277.003V17.234L279.485 21.348H281.525L283.939 17.302V24H286.37V12.372H284.33L280.539 18.866L276.867 12.372H274.776V24ZM288.887 24H291.539V19.988H293.409C294.939 19.988 295.993 19.631 296.673 18.866C297.251 18.22 297.54 17.285 297.54 16.044C297.54 14.803 297.234 13.902 296.605 13.324C295.857 12.627 294.701 12.372 292.882 12.372H288.887V24ZM291.539 17.999V14.293H292.78C293.596 14.293 294.089 14.412 294.412 14.701C294.718 14.99 294.854 15.449 294.854 16.078C294.854 16.758 294.701 17.251 294.395 17.557C294.055 17.88 293.698 17.999 292.848 17.999H291.539ZM304.07 24.238C307.623 24.238 309.221 22.13 309.221 18.203C309.221 14.276 307.623 12.151 304.07 12.151C300.517 12.151 298.919 14.276 298.919 18.203C298.919 22.13 300.517 24.238 304.07 24.238ZM304.07 22.164C302.353 22.164 301.673 21.008 301.673 18.203C301.673 15.398 302.353 14.225 304.07 14.225C305.787 14.225 306.467 15.398 306.467 18.203C306.467 21.008 305.787 22.164 304.07 22.164Z" fill="white"/>
</svg>
