<svg width="203" height="137" viewBox="0 0 203 137" fill="none" xmlns="http://www.w3.org/2000/svg">
<path d="M27.9812 135.585C29.0912 135.585 29.8712 135.315 30.3662 134.775C30.8312 134.28 31.0412 133.56 31.0412 132.57V124.65H29.7962V130.635C29.1962 130.92 28.4312 131.115 27.7712 131.115C27.2312 131.115 26.8412 130.995 26.5862 130.74C26.3312 130.485 26.2262 130.125 26.2262 129.495V124.65H24.9812V129.645C24.9812 130.56 25.1912 131.16 25.5962 131.565C26.0162 132 26.6462 132.21 27.4412 132.21C28.2362 132.21 29.0612 131.97 29.7962 131.55V132.555C29.7962 133.38 29.6462 133.845 29.3312 134.145C29.0012 134.445 28.4762 134.55 27.8012 134.55C27.4412 134.55 26.7512 134.505 26.3912 134.46L26.4962 135.435C26.8262 135.51 27.4862 135.585 27.9812 135.585ZM36.2026 135.375H37.4476V131.655C37.9876 132 38.7826 132.21 39.5476 132.21C41.3026 132.21 42.4126 131.055 42.4126 128.295C42.4126 125.955 41.4976 124.44 39.5926 124.44C38.9176 124.44 38.0626 124.68 37.2976 125.19L37.2376 124.65H36.2026V135.375ZM39.2326 131.175C38.6026 131.175 37.8826 130.98 37.4476 130.725V126C38.0176 125.7 38.7526 125.505 39.3226 125.505C40.5526 125.505 41.1076 126.405 41.1076 128.28C41.1076 130.38 40.5676 131.175 39.2326 131.175ZM47.0824 132.21C49.3624 132.21 50.4274 130.77 50.4274 128.325C50.4274 125.88 49.3624 124.44 47.0824 124.44C44.8024 124.44 43.7374 125.88 43.7374 128.325C43.7374 130.77 44.8024 132.21 47.0824 132.21ZM47.0824 131.19C45.5824 131.19 45.0424 130.2 45.0424 128.325C45.0424 126.45 45.5824 125.46 47.0824 125.46C48.5824 125.46 49.1224 126.45 49.1224 128.325C49.1224 130.2 48.5824 131.19 47.0824 131.19ZM52.1401 132H53.3851V126.015C53.9851 125.73 54.7801 125.535 55.4401 125.535C55.9801 125.535 56.3701 125.655 56.6251 125.91C56.8801 126.165 56.9851 126.525 56.9851 127.155V132H58.2301V127.005C58.2301 126.09 58.0201 125.49 57.6151 125.085C57.1951 124.65 56.5651 124.44 55.7701 124.44C54.9151 124.44 54.0001 124.725 53.2351 125.19L53.1751 124.65H52.1401V132ZM66.5558 132.21C67.2308 132.21 68.1008 132.105 68.7308 131.925L68.6108 130.995C68.0408 131.115 67.3208 131.19 66.7958 131.19C65.8658 131.19 65.3108 130.995 64.9208 130.635C64.4858 130.23 64.2758 129.57 64.2758 128.76H69.0158C69.1358 128.76 69.1958 128.715 69.1958 128.595V128.31C69.1958 125.895 68.2058 124.44 66.1508 124.44C64.2758 124.44 62.9708 125.715 62.9708 128.34C62.9708 129.66 63.2708 130.665 63.9308 131.325C64.5308 131.925 65.4158 132.21 66.5558 132.21ZM64.2758 127.845C64.2908 126.36 64.9058 125.445 66.1508 125.445C67.3808 125.445 67.9208 126.435 67.9658 127.845H64.2758ZM70.9637 132H72.2087V121.275H70.9637V132ZM80.8743 132.21C81.6843 132.21 82.2243 132.135 82.9443 131.97L82.7793 130.425C82.3143 130.515 81.7293 130.575 81.2493 130.575C79.7043 130.575 79.0893 129.84 79.0893 128.325C79.0893 127.575 79.2243 127.005 79.5843 126.615C79.8993 126.285 80.4093 126.09 81.0693 126.09C81.6843 126.09 82.3143 126.18 82.7643 126.3L82.8993 124.71C82.1943 124.515 81.4143 124.44 80.7393 124.44C79.5243 124.44 78.4593 124.83 77.7993 125.535C77.1393 126.255 76.8543 127.26 76.8543 128.49C76.8543 129.3 77.0493 130.125 77.4543 130.74C78.2193 131.925 79.6143 132.21 80.8743 132.21ZM84.1727 132H86.3177V126.465C86.6627 126.33 87.3077 126.225 87.7127 126.225C88.1477 126.225 88.4477 126.285 88.6427 126.465C88.7927 126.615 88.8677 126.825 88.8677 127.2V132H91.0127V126.945C91.0127 126.09 90.8327 125.445 90.3827 125.01C89.9777 124.605 89.2577 124.44 88.6127 124.44C87.9077 124.44 87.0677 124.62 86.3177 125.04V121.275H84.1727V132ZM93.8363 123.42H93.9413C94.6763 123.42 95.0663 123.135 95.0663 122.4V122.205C95.0663 121.47 94.6763 121.17 93.9413 121.17H93.8363C93.1013 121.17 92.7113 121.47 92.7113 122.205V122.4C92.7113 123.135 93.1013 123.42 93.8363 123.42ZM92.8163 132H94.9613V124.65H92.8163V132ZM96.7996 135.375H98.9446V131.67C99.4996 132.015 100.25 132.21 100.91 132.21C102.575 132.21 103.775 131.175 103.775 128.28C103.775 126.915 103.475 125.745 102.785 125.07C102.365 124.665 101.765 124.44 101.03 124.44C100.13 124.44 99.3496 124.77 98.7196 125.19L98.6596 124.65H96.7996V135.375ZM100.28 130.515C99.8146 130.515 99.2896 130.455 98.9446 130.305V126.375C99.3046 126.27 99.8746 126.18 100.22 126.18C101.195 126.18 101.525 126.675 101.525 128.25C101.525 130.02 101.18 130.515 100.28 130.515ZM113.032 135.51L115.177 135.24V124.65H113.407L113.302 125.115C112.687 124.71 111.952 124.44 111.187 124.44C110.347 124.44 109.612 124.755 109.117 125.295C108.517 125.955 108.187 127.035 108.187 128.355C108.187 131.25 109.357 132.21 111.022 132.21C111.727 132.21 112.522 132 113.032 131.715V135.51ZM111.787 130.53C110.887 130.53 110.437 130.11 110.437 128.355C110.437 126.9 110.782 126.15 111.892 126.15C112.177 126.15 112.687 126.24 113.032 126.36V130.29C112.687 130.425 112.252 130.53 111.787 130.53ZM119.326 132.195C120.076 132.195 120.991 132 121.786 131.505L121.846 132H123.706V124.65H121.561V130.2C121.201 130.32 120.601 130.41 120.226 130.41C119.791 130.41 119.491 130.35 119.296 130.17C119.146 130.02 119.071 129.765 119.071 129.39V124.65H116.926V129.69C116.926 130.545 117.106 131.19 117.556 131.625C117.961 132.03 118.681 132.195 119.326 132.195ZM129.171 132.21C130.086 132.21 130.941 132.09 131.646 131.955L131.481 130.395C130.926 130.5 130.176 130.575 129.651 130.575C128.211 130.575 127.446 130.23 127.386 128.985H131.901C132.021 128.985 132.081 128.94 132.081 128.82V128.145C132.081 125.595 130.911 124.44 128.706 124.44C126.456 124.44 125.136 125.76 125.136 128.34C125.136 129.51 125.391 130.56 126.126 131.265C126.756 131.865 127.791 132.21 129.171 132.21ZM127.386 127.59C127.431 126.645 127.821 126.06 128.691 126.06C129.546 126.06 129.981 126.66 129.981 127.59H127.386ZM141.275 135.51L143.42 135.24V124.65H141.65L141.545 125.115C140.93 124.71 140.195 124.44 139.43 124.44C138.59 124.44 137.855 124.755 137.36 125.295C136.76 125.955 136.43 127.035 136.43 128.355C136.43 131.25 137.6 132.21 139.265 132.21C139.97 132.21 140.765 132 141.275 131.715V135.51ZM140.03 130.53C139.13 130.53 138.68 130.11 138.68 128.355C138.68 126.9 139.025 126.15 140.135 126.15C140.42 126.15 140.93 126.24 141.275 126.36V130.29C140.93 130.425 140.495 130.53 140.03 130.53ZM147.568 132.195C148.318 132.195 149.233 132 150.028 131.505L150.088 132H151.948V124.65H149.803V130.2C149.443 130.32 148.843 130.41 148.468 130.41C148.033 130.41 147.733 130.35 147.538 130.17C147.388 130.02 147.313 129.765 147.313 129.39V124.65H145.168V129.69C145.168 130.545 145.348 131.19 145.798 131.625C146.203 132.03 146.923 132.195 147.568 132.195ZM154.818 123.42H154.923C155.658 123.42 156.048 123.135 156.048 122.4V122.205C156.048 121.47 155.658 121.17 154.923 121.17H154.818C154.083 121.17 153.693 121.47 153.693 122.205V122.4C153.693 123.135 154.083 123.42 154.818 123.42ZM153.798 132H155.943V124.65H153.798V132ZM161.441 132.21C162.356 132.21 163.211 132.09 163.916 131.955L163.751 130.395C163.196 130.5 162.446 130.575 161.921 130.575C160.481 130.575 159.716 130.23 159.656 128.985H164.171C164.291 128.985 164.351 128.94 164.351 128.82V128.145C164.351 125.595 163.181 124.44 160.976 124.44C158.726 124.44 157.406 125.76 157.406 128.34C157.406 129.51 157.661 130.56 158.396 131.265C159.026 131.865 160.061 132.21 161.441 132.21ZM159.656 127.59C159.701 126.645 160.091 126.06 160.961 126.06C161.816 126.06 162.251 126.66 162.251 127.59H159.656ZM165.706 132H167.851V126.48C168.316 126.375 168.751 126.3 169.321 126.3C169.666 126.3 170.026 126.33 170.266 126.36V124.485C170.176 124.47 170.011 124.455 169.891 124.455C169.186 124.455 168.211 124.725 167.641 125.25L167.566 124.65H165.706V132ZM173.417 132.21C174.197 132.21 174.992 131.955 175.622 131.55L175.802 132H177.497V127.23C177.497 126.345 177.302 125.715 176.927 125.28C176.417 124.68 175.412 124.44 174.287 124.44C173.402 124.44 172.427 124.56 171.677 124.71L171.782 126.285C172.292 126.18 173.147 126.09 173.837 126.09C174.422 126.09 174.827 126.165 175.082 126.39C175.262 126.555 175.352 126.81 175.352 127.215V127.455H174.182C172.817 127.455 172.007 127.635 171.482 128.13C171.062 128.535 170.837 129.135 170.837 129.795C170.837 131.22 171.737 132.21 173.417 132.21ZM174.032 130.575C173.252 130.575 172.982 130.245 172.982 129.705C172.982 129.435 173.057 129.225 173.192 129.09C173.387 128.895 173.702 128.835 174.212 128.835H175.352V130.35C175.007 130.455 174.437 130.575 174.032 130.575ZM181.641 132.21C183.846 132.21 184.956 131.325 184.956 129.795C184.956 126.75 180.936 127.935 180.936 126.69C180.936 126.27 181.356 126.09 182.121 126.09C182.721 126.09 183.621 126.21 184.386 126.42L184.551 124.845C183.756 124.575 182.841 124.44 182.106 124.44C179.901 124.44 178.911 125.445 178.911 126.81C178.911 129.855 182.916 128.58 182.916 129.885C182.916 130.41 182.406 130.56 181.596 130.56C180.801 130.56 179.781 130.395 179.226 130.215L179.061 131.805C179.646 132.015 180.771 132.21 181.641 132.21Z" fill="black"/>
<path d="M83.1114 110.882C83.8934 110.882 84.8964 110.576 85.5764 110.134L85.6784 110.644H86.8344V98.4893H85.4234V102.671C84.7604 102.297 83.9274 102.076 83.2134 102.076C81.0374 102.076 79.7624 103.776 79.7624 106.53C79.7624 109.42 80.9864 110.882 83.1114 110.882ZM83.5024 109.726C82.0064 109.726 81.2414 108.74 81.2414 106.547C81.2414 104.592 81.8024 103.266 83.5024 103.266C84.0634 103.266 84.8114 103.436 85.4234 103.674V109.233C84.8284 109.522 84.0974 109.726 83.5024 109.726ZM92.1091 110.882C92.7211 110.882 93.3841 110.78 93.8261 110.661L93.7581 109.624C93.3501 109.709 92.7891 109.76 92.5001 109.76C91.9051 109.76 91.6161 109.641 91.4291 109.437C91.1911 109.182 91.1401 108.774 91.1401 107.975V103.351H93.3331V102.314H91.1401V100.104C90.6981 100.104 90.1371 100.223 89.7291 100.359V102.331L88.2161 102.552V103.351H89.7291V108.162C89.7291 109.199 89.8481 109.76 90.2561 110.236C90.6301 110.661 91.2931 110.882 92.1091 110.882ZM98.777 110.882C101.361 110.882 102.568 109.25 102.568 106.479C102.568 103.708 101.361 102.076 98.777 102.076C96.193 102.076 94.986 103.708 94.986 106.479C94.986 109.25 96.193 110.882 98.777 110.882ZM98.777 109.726C97.077 109.726 96.465 108.604 96.465 106.479C96.465 104.354 97.077 103.232 98.777 103.232C100.477 103.232 101.089 104.354 101.089 106.479C101.089 108.604 100.477 109.726 98.777 109.726ZM105.189 110.882H105.308C105.818 110.882 106.158 110.627 106.158 109.964V109.896C106.158 109.233 105.818 108.978 105.308 108.978H105.189C104.679 108.978 104.339 109.233 104.339 109.896V109.964C104.339 110.627 104.679 110.882 105.189 110.882Z" fill="#019DF4"/>
<path d="M82.82 85.9559C86.18 85.9559 87.86 83.8559 87.86 80.1039C87.86 76.3799 86.18 74.2799 82.82 74.2799C79.46 74.2799 77.836 76.3799 77.836 80.1039C77.836 83.8559 79.46 85.9559 82.82 85.9559ZM83.576 94.1879H87.02L97.24 74.2799H93.796L83.576 94.1879ZM82.82 83.2959C81.448 83.2959 81.084 82.1479 81.084 80.1039C81.084 78.0879 81.448 76.9399 82.82 76.9399C84.192 76.9399 84.584 78.0879 84.584 80.1039C84.584 82.1479 84.192 83.2959 82.82 83.2959ZM97.996 94.1879C101.356 94.1879 103.008 92.0879 103.008 88.3639C103.008 84.6119 101.356 82.5119 97.996 82.5119C94.636 82.5119 92.984 84.6119 92.984 88.3639C92.984 92.0879 94.636 94.1879 97.996 94.1879ZM97.996 91.5279C96.596 91.5279 96.26 90.3799 96.26 88.3639C96.26 86.3199 96.596 85.1719 97.996 85.1719C99.368 85.1719 99.76 86.3199 99.76 88.3639C99.76 90.3799 99.368 91.5279 97.996 91.5279Z" fill="#019DF4"/>
<path d="M21.5926 111.938C32.2456 111.938 37.8066 106.109 37.8066 95.925C37.8066 86.746 33.0496 81.654 24.8756 81.654C21.7266 81.654 17.9746 82.391 14.9596 83.999C15.0936 79.376 15.8306 76.227 17.8406 74.217C19.6496 72.408 22.3966 71.805 26.8186 71.805C29.2306 71.805 31.7096 72.073 34.0546 72.475V65.172C30.9726 64.636 27.8906 64.301 24.6076 64.301C18.5106 64.301 14.2226 65.641 11.1406 68.723C7.12062 72.743 4.90962 79.577 4.90962 90.23C4.90962 104.099 9.33162 111.938 21.5926 111.938ZM21.7936 104.635C16.5676 104.635 14.8256 100.883 14.8256 92.106V89.56C16.7016 89.158 19.5826 88.89 21.5256 88.89C26.4166 88.89 28.2926 90.431 28.2926 96.26C28.2926 101.821 26.0816 104.635 21.7936 104.635ZM56.3394 111.938C69.0694 111.938 73.8934 103.831 73.8934 88.153C73.8934 72.475 69.0694 64.301 56.3394 64.301C43.6094 64.301 38.7854 72.475 38.7854 88.153C38.7854 103.831 43.6094 111.938 56.3394 111.938ZM56.3394 104.233C50.9124 104.233 48.7684 100.816 48.7684 88.153C48.7684 75.49 50.9124 71.336 56.3394 71.336C61.7664 71.336 63.9104 75.49 63.9104 88.153C63.9104 100.816 61.7664 104.233 56.3394 104.233Z" fill="#019DF4"/>
<path d="M193.397 111.061H127.374C124.387 111.061 121.953 108.634 121.953 105.631V96.6531C121.953 93.6604 124.378 91.2227 127.374 91.2227H193.397C196.384 91.2227 198.818 93.6505 198.818 96.6531V105.631C198.818 108.624 196.394 111.061 193.397 111.061Z" fill="white"/>
<path d="M197.418 99.8172H123.362C120.376 99.8172 117.941 97.5281 117.941 94.7039V74.9444C117.941 72.1201 120.366 69.8311 123.362 69.8311H197.418C200.404 69.8311 202.839 72.1201 202.839 74.9444V94.694C202.829 97.5182 200.404 99.8172 197.418 99.8172Z" fill="#019DF4"/>
<path d="M121.479 88.0249H123.727C124.436 88.0249 125.028 88.0844 125.491 88.2132C125.954 88.342 126.338 88.5501 126.634 88.8474C127.225 89.4221 127.521 90.3536 127.521 91.6419C127.521 92.3058 127.452 92.8607 127.304 93.3265C127.156 93.7922 126.94 94.1787 126.644 94.4958C126.378 94.7733 126.023 94.9814 125.589 95.1102C125.156 95.239 124.614 95.3084 123.963 95.3084H121.499L121.479 88.0249ZM123.835 94.0994C124.584 94.0994 125.106 93.8814 125.402 93.4454C125.54 93.2373 125.648 92.9896 125.698 92.722C125.757 92.4544 125.786 92.0878 125.786 91.632C125.786 91.1167 125.747 90.7203 125.668 90.4428C125.589 90.1554 125.461 89.9176 125.274 89.7194C125.106 89.551 124.899 89.4221 124.643 89.3528C124.387 89.2834 124.052 89.2438 123.648 89.2438H123.135V94.1093L123.835 94.0994Z" fill="white"/>
<path d="M129.897 95.2884C129.532 95.1695 129.237 95.0109 129.01 94.7929C128.537 94.347 128.31 93.6533 128.31 92.7119C128.31 91.8002 128.527 91.1165 128.971 90.6408C129.414 90.1751 130.035 89.9373 130.843 89.9373C131.642 89.9373 132.233 90.1553 132.637 90.5814C133.041 91.0075 133.238 91.6714 133.238 92.5732V93.0488C133.238 93.1281 133.199 93.1677 133.11 93.1677H129.907C129.927 93.5939 130.065 93.8911 130.321 94.0497C130.577 94.2082 130.971 94.2974 131.513 94.2974C131.927 94.2974 132.361 94.2578 132.814 94.1686L132.933 95.2785C132.302 95.3974 131.711 95.4568 131.178 95.4568C130.686 95.4668 130.262 95.4073 129.897 95.2884ZM131.74 92.1768C131.74 91.83 131.661 91.5723 131.504 91.3741C131.346 91.1859 131.119 91.0868 130.824 91.0868C130.242 91.0868 129.937 91.4534 129.897 92.1768H131.74Z" fill="white"/>
<path d="M134.164 87.688H135.691V95.3084H134.164V87.688Z" fill="white"/>
<path d="M137.101 89.0455C136.973 88.9266 136.904 88.7482 136.904 88.4906V88.3519C136.904 88.0942 136.973 87.9059 137.101 87.787C137.229 87.6681 137.436 87.6086 137.702 87.6086H137.781C138.047 87.6086 138.254 87.6681 138.382 87.787C138.51 87.9059 138.579 88.0942 138.579 88.3519V88.4906C138.579 88.7482 138.51 88.9365 138.382 89.0455C138.254 89.1644 138.047 89.214 137.781 89.214H137.702C137.436 89.214 137.229 89.1644 137.101 89.0455ZM136.973 90.086H138.5V95.3083H136.973V90.086Z" fill="white"/>
<path d="M139.219 90.0859H140.856L142.019 93.7128L143.122 90.0859H144.65L142.856 95.3082H141.092L139.219 90.0859Z" fill="white"/>
<path d="M146.552 95.2884C146.188 95.1695 145.892 95.0109 145.665 94.7929C145.192 94.347 144.966 93.6533 144.966 92.7119C144.966 91.8002 145.182 91.1165 145.626 90.6408C146.069 90.1751 146.69 89.9373 147.499 89.9373C148.297 89.9373 148.888 90.1553 149.292 90.5814C149.696 91.0075 149.893 91.6714 149.893 92.5732V93.0488C149.893 93.1281 149.854 93.1677 149.765 93.1677H146.562C146.582 93.5939 146.72 93.8911 146.976 94.0497C147.232 94.2082 147.627 94.2974 148.169 94.2974C148.583 94.2974 149.016 94.2578 149.47 94.1686L149.588 95.2785C148.957 95.3974 148.366 95.4568 147.834 95.4568C147.341 95.4668 146.927 95.4073 146.552 95.2884ZM148.405 92.1768C148.405 91.83 148.326 91.5723 148.169 91.3741C148.011 91.1859 147.784 91.0868 147.489 91.0868C146.907 91.0868 146.602 91.4534 146.562 92.1768H148.405Z" fill="white"/>
<path d="M150.8 90.086H152.121L152.18 90.5121C152.367 90.3337 152.614 90.195 152.919 90.0959C153.225 89.9968 153.501 89.9473 153.776 89.9473C153.865 89.9473 153.954 89.9572 154.043 89.9671V91.295C153.816 91.2652 153.589 91.2553 153.372 91.2553C153.057 91.2553 152.702 91.295 152.328 91.3841V95.3083H150.8V90.086Z" fill="white"/>
<path d="M155.837 97.7261L155.728 96.5964C156.162 96.6757 156.556 96.7153 156.921 96.7153C157.108 96.7153 157.285 96.6955 157.443 96.6559C157.601 96.6162 157.719 96.5568 157.798 96.4775C157.966 96.319 158.054 96.0316 158.054 95.6352V95.001C157.808 95.1397 157.542 95.2487 157.246 95.3181C156.96 95.3875 156.684 95.4271 156.408 95.4271C156.162 95.4271 155.935 95.3974 155.718 95.328C155.502 95.2586 155.324 95.1595 155.196 95.0208C155.038 94.8623 154.92 94.674 154.851 94.4659C154.772 94.2578 154.743 94.0001 154.743 93.7029V90.1057H156.27V93.4848C156.27 93.7227 156.329 93.901 156.428 94.01C156.497 94.0695 156.586 94.1191 156.684 94.1389C156.783 94.1587 156.911 94.1785 157.078 94.1785C157.216 94.1785 157.384 94.1587 157.581 94.1191C157.768 94.0794 157.936 94.0299 158.054 93.9902V90.1057H159.582V95.1001C159.582 95.7442 159.513 96.2694 159.375 96.6658C159.237 97.0622 158.981 97.3694 158.636 97.5676C158.281 97.7657 157.798 97.8747 157.177 97.8747C156.704 97.8648 156.26 97.8153 155.837 97.7261Z" fill="white"/>
<path d="M163.297 88.0249H168.215L168.087 89.2339H164.962V91.0077H167.466V92.2563H164.962V94.1192H168.274V95.3282H163.307V88.0249H163.297Z" fill="white"/>
<path d="M170.59 92.7417L168.708 90.0859H170.443L171.566 91.6615L172.414 90.0859H174.07L172.276 92.6624L174.148 95.3082H172.374L171.29 93.7425L170.433 95.3082H168.738L170.59 92.7417Z" fill="white"/>
<path d="M174.838 90.0859H176.159L176.199 90.4724C176.731 90.1156 177.273 89.9373 177.835 89.9373C178.347 89.9373 178.771 90.0859 179.076 90.3832C179.313 90.621 179.49 90.9282 179.599 91.3246C179.717 91.7111 179.776 92.1669 179.776 92.6723C179.776 93.6533 179.599 94.3668 179.234 94.8028C178.869 95.2487 178.377 95.4668 177.746 95.4668C177.509 95.4668 177.273 95.437 177.017 95.3677C176.77 95.2983 176.544 95.2091 176.356 95.0902V97.7261H174.829L174.838 90.0859ZM177.825 94.1091C177.953 94.0101 178.042 93.8515 178.101 93.6236C178.16 93.3957 178.189 93.0687 178.189 92.6525C178.189 92.2759 178.16 91.9786 178.101 91.7705C178.042 91.5624 177.953 91.4039 177.815 91.3147C177.677 91.2255 177.5 91.1859 177.263 91.1859C177.145 91.1859 176.997 91.2057 176.819 91.2255C176.642 91.2552 176.494 91.2849 176.366 91.3246V94.1191C176.593 94.2182 176.908 94.2677 177.312 94.2677C177.529 94.2578 177.697 94.2082 177.825 94.1091Z" fill="white"/>
<path d="M180.742 90.086H182.063L182.122 90.5121C182.309 90.3337 182.555 90.195 182.861 90.0959C183.166 89.9968 183.442 89.9473 183.718 89.9473C183.807 89.9473 183.896 89.9572 183.984 89.9671V91.295C183.758 91.2652 183.531 91.2553 183.314 91.2553C182.999 91.2553 182.644 91.295 182.27 91.3841V95.3083H180.742V90.086Z" fill="white"/>
<path d="M186.015 95.2884C185.65 95.1695 185.354 95.0109 185.128 94.7929C184.655 94.347 184.428 93.6533 184.428 92.7119C184.428 91.8002 184.645 91.1165 185.088 90.6408C185.532 90.1751 186.153 89.9373 186.961 89.9373C187.759 89.9373 188.351 90.1553 188.755 90.5814C189.159 91.0075 189.356 91.6714 189.356 92.5732V93.0488C189.356 93.1281 189.316 93.1677 189.228 93.1677H186.025C186.044 93.5939 186.182 93.8911 186.439 94.0497C186.695 94.2082 187.089 94.2974 187.631 94.2974C188.045 94.2974 188.479 94.2578 188.932 94.1686L189.05 95.2785C188.42 95.3974 187.828 95.4568 187.296 95.4568C186.803 95.4668 186.379 95.4073 186.015 95.2884ZM187.858 92.1768C187.858 91.83 187.779 91.5723 187.621 91.3741C187.464 91.1859 187.237 91.0868 186.941 91.0868C186.36 91.0868 186.054 91.4534 186.015 92.1768H187.858Z" fill="white"/>
<path d="M190.973 95.3776C190.618 95.3181 190.332 95.2487 190.125 95.1794L190.243 94.0497C190.45 94.1092 190.716 94.1686 191.032 94.2182C191.357 94.2677 191.653 94.2974 191.919 94.2974C192.224 94.2974 192.461 94.2578 192.619 94.1884C192.776 94.1191 192.855 93.9902 192.855 93.8119C192.855 93.6533 192.776 93.5344 192.619 93.465C192.461 93.3957 192.215 93.3362 191.87 93.2668C191.485 93.1975 191.17 93.1182 190.923 93.029C190.677 92.9398 190.46 92.7912 190.283 92.5633C190.105 92.3354 190.007 92.0282 190.007 91.6219C190.007 91.1066 190.194 90.7003 190.578 90.3931C190.953 90.0859 191.525 89.9373 192.274 89.9373C192.54 89.9373 192.826 89.9571 193.131 90.0165C193.437 90.0661 193.722 90.1354 194.008 90.2246L193.89 91.3444C193.624 91.275 193.348 91.2156 193.052 91.1759C192.757 91.1363 192.5 91.1165 192.284 91.1165C191.722 91.1165 191.446 91.2552 191.446 91.5426C191.446 91.6912 191.525 91.8002 191.672 91.8696C191.82 91.939 192.067 92.0083 192.412 92.0777C192.786 92.1471 193.102 92.2363 193.358 92.3254C193.614 92.4146 193.831 92.5732 194.018 92.8011C194.205 93.029 194.294 93.3461 194.294 93.7524C194.294 94.2974 194.097 94.7235 193.703 95.0208C193.309 95.3181 192.717 95.4668 191.948 95.4668C191.653 95.4668 191.318 95.437 190.973 95.3776Z" fill="white"/>
<path d="M195.968 95.3776C195.613 95.3181 195.328 95.2487 195.121 95.1794L195.239 94.0497C195.446 94.1092 195.712 94.1686 196.027 94.2182C196.353 94.2677 196.648 94.2974 196.914 94.2974C197.22 94.2974 197.457 94.2578 197.614 94.1884C197.772 94.1191 197.851 93.9902 197.851 93.8119C197.851 93.6533 197.772 93.5344 197.614 93.465C197.457 93.3957 197.21 93.3362 196.865 93.2668C196.481 93.1975 196.165 93.1182 195.919 93.029C195.673 92.9398 195.456 92.7912 195.278 92.5633C195.101 92.3354 195.002 92.0282 195.002 91.6219C195.002 91.1066 195.19 90.7003 195.574 90.3931C195.949 90.0859 196.52 89.9373 197.269 89.9373C197.535 89.9373 197.821 89.9571 198.127 90.0165C198.432 90.0661 198.718 90.1354 199.004 90.2246L198.886 91.3444C198.619 91.275 198.344 91.2156 198.048 91.1759C197.752 91.1363 197.496 91.1165 197.279 91.1165C196.717 91.1165 196.441 91.2552 196.441 91.5426C196.441 91.6912 196.52 91.8002 196.668 91.8696C196.816 91.939 197.062 92.0083 197.407 92.0777C197.782 92.1471 198.097 92.2363 198.353 92.3254C198.61 92.4146 198.826 92.5732 199.014 92.8011C199.201 93.029 199.29 93.3461 199.29 93.7524C199.29 94.2974 199.093 94.7235 198.698 95.0208C198.304 95.3181 197.713 95.4668 196.944 95.4668C196.648 95.4668 196.323 95.437 195.968 95.3776Z" fill="white"/>
<path d="M171.665 73.4383C171.96 73.4086 172.246 73.3194 172.512 73.1509C172.985 72.8635 173.311 72.378 173.419 71.833L173.882 69.4051C174.07 68.4538 173.527 67.5025 172.621 67.1656C171.399 66.7296 169.812 66.4719 168.255 66.4719C166.224 66.4719 164.549 67.0467 163.356 68.0475C163.08 67.2944 162.361 66.7395 161.513 66.7395H158.497C158.32 66.7395 158.152 66.7692 157.985 66.8188C157.817 66.7692 157.65 66.7395 157.472 66.7395H146.138C145.33 66.7395 144.64 67.225 144.335 67.9286C144.019 67.2151 143.339 66.7395 142.551 66.7395H139.229C138.362 66.7395 137.603 67.3043 137.347 68.1367L136.026 72.3978C135.859 70.406 135.07 69.1772 134.39 68.4736C132.882 66.9476 130.783 66.7395 128.743 66.7395H124.199C123.598 66.7395 123.056 67.0169 122.692 67.453C122.632 67.4133 122.563 67.3737 122.494 67.344C121.371 66.8188 119.548 66.4719 117.931 66.4719C112.599 66.4719 109.278 70.1087 109.278 75.9751C109.278 83.7045 113.792 85.3297 117.586 85.3297C119.212 85.3297 121.41 84.9828 122.869 84.5171C123.224 84.8342 123.677 85.0423 124.19 85.0423H127.205C128.26 85.0423 129.117 84.2099 129.177 83.1694L129.522 83.9027C129.847 84.5964 130.537 85.0423 131.305 85.0423H134.706C134.725 85.0423 134.735 85.0324 134.745 85.0324C134.765 85.0324 134.775 85.0423 134.794 85.0423H137.672C138.549 85.0423 139.328 84.4576 139.565 83.6054L140.176 81.4452H141.526L142.196 83.6451C142.452 84.4775 143.211 85.0423 144.078 85.0423H147.301C147.863 85.0423 148.385 84.7946 148.75 84.3784C149.115 84.7847 149.627 85.0423 150.209 85.0423H153.225C154.309 85.0423 155.196 84.1505 155.196 83.0604V73.0716H156.507V83.0505C156.507 84.1405 157.394 85.0324 158.478 85.0324H161.513C162.016 85.0324 162.479 84.8342 162.824 84.5171C164.332 85.0621 165.889 85.3198 167.732 85.3198C170.157 85.3198 171.901 84.7054 173.212 83.3676C174.306 82.2478 174.878 80.7317 174.878 78.9678C174.888 75.8562 173.311 74.3103 171.665 73.4383ZM163.484 77.4715C164.046 77.9174 164.647 78.2543 165.249 78.502C164.992 78.4327 164.746 78.3534 164.509 78.2642C164.174 78.1354 163.829 78.1156 163.484 78.175V77.4715ZM148.257 73.0716V79.6317L146.069 73.0617C146.089 73.0617 146.109 73.0716 146.128 73.0716H148.257ZM122.218 73.2698V73.3194H122.13C122.159 73.3095 122.189 73.2897 122.218 73.2698Z" fill="#019DF4"/>
<path d="M111.248 75.9749C111.248 71.4859 113.436 68.4536 117.93 68.4536C119.241 68.4536 120.808 68.7509 121.656 69.1473L121.272 71.5355C120.335 71.2382 119.192 71.0103 118.147 71.0103C115.476 71.0103 114.382 72.7246 114.382 75.8461C114.382 77.4613 114.58 78.7793 115.151 79.6612C115.634 80.3945 116.423 80.8107 117.704 80.8107C118.187 80.8107 118.847 80.7513 119.31 80.6621V77.6496H117.448V75.3011H122.297V82.6143C121.045 83.0305 119.034 83.3476 117.586 83.3476C112.855 83.3476 111.248 80.5135 111.248 75.9749Z" fill="white"/>
<path d="M124.189 68.7212H128.733C130.862 68.7212 132.113 68.9887 132.981 69.8707C133.661 70.5644 134.084 71.6544 134.084 73.1606C134.084 75.1128 133.335 76.6587 131.847 77.4118L134.705 83.0404H131.305L128.871 77.8478H127.205V83.0404H124.189V68.7212ZM128.536 75.4894C129.541 75.4894 130.083 75.3407 130.467 74.984C130.852 74.6272 131.029 74.0029 131.029 73.2003C131.029 72.467 130.871 71.9418 130.566 71.6049C130.182 71.2085 129.541 71.0796 128.555 71.0796H127.205V75.4894H128.536Z" fill="white"/>
<path d="M139.218 68.7212H142.54L147.31 83.0404H144.087L142.983 79.4433H138.696L137.671 83.0404H134.793L139.218 68.7212ZM142.254 77.0848L140.805 72.3084H140.766L139.396 77.0848H142.254Z" fill="white"/>
<path d="M150.228 71.0896H146.138V68.7212H157.482L157.245 71.0896H153.244V83.0503H150.228V71.0896Z" fill="white"/>
<path d="M158.497 68.7212H161.513V83.0404H158.497V68.7212Z" fill="white"/>
<path d="M163.346 82.6144L163.809 80.1271C164.972 80.5631 166.499 80.8406 167.465 80.8406C169.239 80.8406 170.077 80.3352 170.077 79.0172C170.077 76.3318 163.336 78.2839 163.336 72.6553C163.336 69.7419 165.445 68.4636 168.264 68.4636C169.535 68.4636 170.934 68.6717 171.959 69.0483L171.496 71.4761C170.412 71.159 169.259 70.9707 168.323 70.9707C166.697 70.9707 166.174 71.595 166.174 72.4968C166.174 75.3012 172.915 73.3787 172.915 78.9677C172.915 80.246 172.511 81.2667 171.812 81.9802C170.885 82.9216 169.624 83.3378 167.731 83.3378C166.056 83.3477 164.676 83.1098 163.346 82.6144Z" fill="white"/>
<path d="M189.317 73.448C189.297 73.2795 189.415 73.1308 189.583 73.111L192.944 72.675C193.111 72.6552 193.269 72.7741 193.289 72.9327L193.506 74.5182C193.515 74.5975 193.496 74.6767 193.446 74.7461L192.934 75.41L195.102 78.7396C196.945 78.6108 197.941 80.236 198.207 81.1377C198.226 81.2269 198.217 81.3161 198.167 81.3855C198.118 81.4548 198.039 81.5044 197.95 81.5242L194.56 81.9602L192.638 84.0016C192.589 84.0511 192.52 84.0907 192.451 84.1007L187.799 84.7051C187.789 84.7051 187.769 84.7051 187.76 84.7051C187.681 84.7051 187.602 84.6754 187.553 84.6259L185.887 83.0899L180.112 83.8331C179.944 83.8529 179.796 83.7439 179.767 83.5854C179.412 81.6827 179.944 80.5332 180.466 79.9089C181.038 79.2153 181.708 78.9874 181.738 78.9774C181.757 78.9774 181.777 78.9675 181.797 78.9675L187.139 78.2739C187.267 78.264 187.385 78.3234 187.454 78.4324L189.08 81.3855L191.308 81.0981C191.465 81.0783 191.731 80.8602 191.899 80.5134C192.086 80.1269 192.106 79.7306 191.938 79.4531C191.938 79.4432 191.929 79.4432 191.929 79.4333L190.371 76.2523C190.362 76.2226 190.352 76.1929 190.342 76.1632L190.224 75.2812L188.282 74.6272C188.114 74.5677 188.036 74.3993 188.095 74.2407C188.154 74.0822 188.331 74.0029 188.489 74.0524L189.928 74.538L189.317 73.448Z" fill="white"/>
<path d="M181.827 79.5721C181.669 79.5721 181.541 79.4631 181.521 79.3045L181.245 77.2136C181.225 77.0452 181.344 76.8965 181.511 76.8767L186.932 76.1731C187.011 76.1632 187.099 76.183 187.159 76.2326C187.218 76.2821 187.267 76.3515 187.277 76.4308L187.553 78.5217C187.572 78.6901 187.454 78.8388 187.287 78.8586C187.119 78.8784 186.961 78.7595 186.942 78.601L186.695 76.8073L181.876 77.4316L182.122 79.2253C182.142 79.3937 182.024 79.5424 181.856 79.5622C181.846 79.5721 181.836 79.5721 181.827 79.5721Z" fill="white"/>
<path d="M174.967 79.0964C174.81 79.0964 174.682 78.9775 174.662 78.8288C174.642 78.6604 174.76 78.5117 174.928 78.4919L179.333 77.9865C179.501 77.9667 179.659 78.0856 179.669 78.2541C179.688 78.4226 179.57 78.5712 179.402 78.591L175.007 79.0964C174.997 79.0964 174.987 79.0964 174.967 79.0964Z" fill="white"/>
<path d="M174.356 80.9199C174.199 80.9199 174.07 80.801 174.051 80.6523C174.031 80.4839 174.149 80.3352 174.317 80.3154L178.722 79.81C178.89 79.7902 179.048 79.9091 179.057 80.0776C179.077 80.246 178.959 80.3947 178.791 80.4145L174.386 80.9199C174.376 80.9199 174.366 80.9199 174.356 80.9199Z" fill="white"/>
<path d="M173.942 82.7334C173.784 82.7334 173.656 82.6144 173.637 82.4658C173.617 82.2973 173.735 82.1487 173.913 82.1289L178.318 81.6235C178.486 81.6037 178.643 81.7226 178.653 81.8911C178.673 82.0595 178.555 82.2082 178.387 82.228L173.982 82.7334C173.972 82.7334 173.962 82.7334 173.942 82.7334Z" fill="white"/>
<path d="M183.531 87.1332C182.96 87.1332 182.398 86.9548 181.945 86.5981C181.383 86.1819 181.038 85.5675 180.939 84.8837C180.92 84.7153 181.038 84.5666 181.206 84.5468C181.373 84.527 181.531 84.6459 181.55 84.8045C181.619 85.3297 181.895 85.7954 182.319 86.1125C182.743 86.4296 183.275 86.5783 183.807 86.499C184.34 86.4296 184.813 86.1621 185.138 85.7459C185.463 85.3297 185.611 84.8045 185.532 84.2793C185.512 84.1108 185.631 83.9622 185.798 83.9423C185.966 83.9225 186.124 84.0414 186.143 84.2C186.232 84.8837 186.055 85.5675 185.621 86.1125C185.197 86.6575 184.576 87.0044 183.886 87.1035C183.768 87.1233 183.65 87.1332 183.531 87.1332Z" fill="white"/>
<path d="M195.802 85.5972C194.993 85.5972 194.215 85.2305 193.722 84.5864C193.623 84.4576 193.643 84.2594 193.781 84.1603C193.919 84.0612 194.106 84.081 194.215 84.2197C194.648 84.7747 195.368 85.072 196.068 84.9729C197.162 84.8341 197.94 83.8333 197.792 82.7531C197.773 82.5847 197.891 82.436 198.059 82.4162C198.226 82.3964 198.384 82.5153 198.403 82.6739C198.591 84.0909 197.585 85.3891 196.147 85.5773C196.028 85.5873 195.92 85.5972 195.802 85.5972Z" fill="white"/>
<path d="M126.167 107.038H127.162V105.531H127.865C128.439 105.531 128.835 105.397 129.09 105.11C129.307 104.867 129.416 104.516 129.416 104.05C129.416 103.584 129.301 103.246 129.065 103.029C128.784 102.767 128.35 102.671 127.667 102.671H126.167V107.038ZM127.162 104.784V103.393H127.628C127.935 103.393 128.12 103.437 128.241 103.546C128.356 103.655 128.407 103.827 128.407 104.063C128.407 104.318 128.35 104.504 128.235 104.618C128.107 104.74 127.973 104.784 127.654 104.784H127.162ZM130.017 103.469L131.313 102.595L130.866 101.988L129.698 103.074L130.017 103.469ZM130.049 107.038H130.962V103.91H130.049V107.038ZM132.765 107.127C133.148 107.127 133.487 106.993 133.755 106.814L133.774 107.038H134.565V102.474H133.653V104.05C133.41 103.903 133.097 103.82 132.823 103.82C132.076 103.82 131.584 104.44 131.584 105.48C131.584 106.093 131.725 106.572 132.018 106.859C132.197 107.031 132.459 107.127 132.765 107.127ZM133.11 106.412C132.695 106.412 132.542 106.202 132.542 105.506C132.542 104.752 132.791 104.542 133.219 104.542C133.333 104.542 133.512 104.567 133.653 104.612V106.304C133.493 106.368 133.257 106.412 133.11 106.412ZM136.886 107.127C137.275 107.127 137.639 107.076 137.939 107.019L137.869 106.355C137.633 106.399 137.314 106.431 137.09 106.431C136.478 106.431 136.152 106.285 136.126 105.755H138.048C138.099 105.755 138.124 105.736 138.124 105.685V105.397C138.124 104.312 137.627 103.82 136.688 103.82C135.731 103.82 135.169 104.382 135.169 105.48C135.169 105.978 135.277 106.425 135.59 106.725C135.858 106.98 136.299 107.127 136.886 107.127ZM136.126 105.161C136.146 104.759 136.312 104.51 136.682 104.51C137.046 104.51 137.231 104.765 137.231 105.161H136.126ZM138.72 107.038H139.633V102.474H138.72V107.038ZM141.845 107.127C142.931 107.127 143.435 106.476 143.435 105.474C143.435 104.472 142.931 103.82 141.845 103.82C140.76 103.82 140.256 104.472 140.256 105.474C140.256 106.476 140.76 107.127 141.845 107.127ZM141.845 106.431C141.386 106.431 141.207 106.119 141.207 105.474C141.207 104.829 141.386 104.516 141.845 104.516C142.305 104.516 142.484 104.829 142.484 105.474C142.484 106.119 142.305 106.431 141.845 106.431ZM145.477 107.038H146.39V104.682C146.537 104.625 146.812 104.58 146.984 104.58C147.169 104.58 147.297 104.606 147.38 104.682C147.444 104.746 147.476 104.835 147.476 104.995V107.038H148.388V104.887C148.388 104.523 148.312 104.248 148.12 104.063C147.948 103.891 147.642 103.82 147.367 103.82C147.067 103.82 146.709 103.897 146.39 104.076V102.474H145.477V107.038ZM150.567 107.127C151.652 107.127 152.156 106.476 152.156 105.474C152.156 104.472 151.652 103.82 150.567 103.82C149.482 103.82 148.977 104.472 148.977 105.474C148.977 106.476 149.482 107.127 150.567 107.127ZM150.567 106.431C150.107 106.431 149.928 106.119 149.928 105.474C149.928 104.829 150.107 104.516 150.567 104.516C151.026 104.516 151.205 104.829 151.205 105.474C151.205 106.119 151.026 106.431 150.567 106.431ZM154.195 108.564C155.331 108.564 155.644 108.008 155.644 106.904V103.91H154.731V106.234C154.584 106.291 154.316 106.348 154.144 106.348C153.952 106.348 153.837 106.323 153.755 106.246C153.691 106.182 153.659 106.093 153.659 105.933V103.91H152.746V106.061C152.746 106.425 152.835 106.668 153.02 106.853C153.193 107.025 153.474 107.095 153.748 107.095C154.061 107.095 154.425 107.012 154.731 106.84V107.223C154.731 107.446 154.693 107.619 154.578 107.727C154.482 107.823 154.272 107.874 154.048 107.874C153.742 107.874 153.544 107.842 153.333 107.804L153.397 108.481C153.633 108.532 153.889 108.564 154.195 108.564ZM156.674 108.053H157.133C157.204 107.836 157.274 107.255 157.274 106.821V106.648C157.274 106.342 157.114 106.17 156.808 106.17H156.763C156.457 106.17 156.297 106.342 156.297 106.648C156.297 106.923 156.393 107.051 156.674 107.146V108.053ZM159.373 107.038H160.286V104.689C160.484 104.644 160.669 104.612 160.912 104.612C161.058 104.612 161.212 104.625 161.314 104.638V103.84C161.275 103.833 161.205 103.827 161.154 103.827C160.854 103.827 160.439 103.942 160.197 104.165L160.165 103.91H159.373V107.038ZM163.331 107.127C163.72 107.127 164.084 107.076 164.384 107.019L164.314 106.355C164.078 106.399 163.759 106.431 163.535 106.431C162.922 106.431 162.597 106.285 162.571 105.755H164.493C164.544 105.755 164.569 105.736 164.569 105.685V105.397C164.569 104.312 164.071 103.82 163.133 103.82C162.175 103.82 161.614 104.382 161.614 105.48C161.614 105.978 161.722 106.425 162.035 106.725C162.303 106.98 162.744 107.127 163.331 107.127ZM162.571 105.161C162.59 104.759 162.756 104.51 163.127 104.51C163.49 104.51 163.676 104.765 163.676 105.161H162.571ZM166.697 107.127C167.042 107.127 167.272 107.095 167.578 107.025L167.508 106.368C167.31 106.406 167.061 106.431 166.857 106.431C166.199 106.431 165.937 106.119 165.937 105.474C165.937 105.155 165.995 104.912 166.148 104.746C166.282 104.606 166.499 104.523 166.78 104.523C167.042 104.523 167.31 104.561 167.501 104.612L167.559 103.935C167.259 103.852 166.927 103.82 166.64 103.82C166.123 103.82 165.669 103.986 165.388 104.286C165.108 104.593 164.986 105.021 164.986 105.544C164.986 105.889 165.069 106.24 165.242 106.502C165.567 107.006 166.161 107.127 166.697 107.127ZM168.088 103.469L169.384 102.595L168.937 101.988L167.769 103.074L168.088 103.469ZM168.12 107.038H169.033V103.91H168.12V107.038ZM171.545 107.127C171.934 107.127 172.215 107.012 172.432 106.763C172.662 106.502 172.784 106.023 172.784 105.461C172.784 104.248 172.298 103.82 171.59 103.82C171.29 103.82 170.945 103.903 170.728 104.031V102.474H169.815V107.038H170.568L170.613 106.84C170.875 107.012 171.22 107.127 171.545 107.127ZM171.271 106.412C171.092 106.412 170.875 106.342 170.728 106.259V104.638C170.875 104.58 171.073 104.555 171.271 104.555C171.654 104.555 171.826 104.727 171.826 105.474C171.826 106.176 171.686 106.412 171.271 106.412ZM174.945 107.127C175.334 107.127 175.698 107.076 175.998 107.019L175.928 106.355C175.692 106.399 175.373 106.431 175.149 106.431C174.536 106.431 174.211 106.285 174.185 105.755H176.107C176.158 105.755 176.183 105.736 176.183 105.685V105.397C176.183 104.312 175.685 103.82 174.747 103.82C173.789 103.82 173.228 104.382 173.228 105.48C173.228 105.978 173.336 106.425 173.649 106.725C173.917 106.98 174.358 107.127 174.945 107.127ZM174.185 105.161C174.204 104.759 174.37 104.51 174.741 104.51C175.104 104.51 175.29 104.765 175.29 105.161H174.185ZM176.779 107.038H177.692V102.474H176.779V107.038ZM179.904 107.127C180.989 107.127 181.494 106.476 181.494 105.474C181.494 104.472 180.989 103.82 179.904 103.82C178.819 103.82 178.315 104.472 178.315 105.474C178.315 106.476 178.819 107.127 179.904 107.127ZM179.904 106.431C179.444 106.431 179.266 106.119 179.266 105.474C179.266 104.829 179.444 104.516 179.904 104.516C180.364 104.516 180.542 104.829 180.542 105.474C180.542 106.119 180.364 106.431 179.904 106.431ZM183.536 107.038H184.449V104.682C184.596 104.625 184.87 104.58 185.043 104.58C185.228 104.58 185.356 104.606 185.439 104.682C185.502 104.746 185.534 104.835 185.534 104.995V107.038H186.447V104.887C186.447 104.523 186.371 104.248 186.179 104.063C186.007 103.891 185.7 103.82 185.426 103.82C185.126 103.82 184.768 103.897 184.449 104.076V102.474H183.536V107.038ZM188.626 107.127C189.711 107.127 190.215 106.476 190.215 105.474C190.215 104.472 189.711 103.82 188.626 103.82C187.54 103.82 187.036 104.472 187.036 105.474C187.036 106.476 187.54 107.127 188.626 107.127ZM188.626 106.431C188.166 106.431 187.987 106.119 187.987 105.474C187.987 104.829 188.166 104.516 188.626 104.516C189.085 104.516 189.264 104.829 189.264 105.474C189.264 106.119 189.085 106.431 188.626 106.431ZM192.254 108.564C193.39 108.564 193.703 108.008 193.703 106.904V103.91H192.79V106.234C192.643 106.291 192.375 106.348 192.203 106.348C192.011 106.348 191.896 106.323 191.813 106.246C191.749 106.182 191.718 106.093 191.718 105.933V103.91H190.805V106.061C190.805 106.425 190.894 106.668 191.079 106.853C191.252 107.025 191.532 107.095 191.807 107.095C192.12 107.095 192.484 107.012 192.79 106.84V107.223C192.79 107.446 192.752 107.619 192.637 107.727C192.541 107.823 192.33 107.874 192.107 107.874C191.8 107.874 191.603 107.842 191.392 107.804L191.456 108.481C191.692 108.532 191.947 108.564 192.254 108.564Z" fill="#0C273A"/>
<path d="M15.6855 57H18.0255V48.435H21.1305L21.3105 46.74H12.5055V48.435H15.6855V57ZM24.0759 57.195C24.8259 57.195 25.7409 57 26.5359 56.505L26.5959 57H28.4559V49.65H26.3109V55.2C25.9509 55.32 25.3509 55.41 24.9759 55.41C24.5409 55.41 24.2409 55.35 24.0459 55.17C23.8959 55.02 23.8209 54.765 23.8209 54.39V49.65H21.6759V54.69C21.6759 55.545 21.8559 56.19 22.3059 56.625C22.7109 57.03 23.4309 57.195 24.0759 57.195ZM37.2751 57.21C38.0851 57.21 38.6251 57.135 39.3451 56.97L39.1801 55.425C38.7151 55.515 38.1301 55.575 37.6501 55.575C36.1051 55.575 35.4901 54.84 35.4901 53.325C35.4901 52.575 35.6251 52.005 35.9851 51.615C36.3001 51.285 36.8101 51.09 37.4701 51.09C38.0851 51.09 38.7151 51.18 39.1651 51.3L39.3001 49.71C38.5951 49.515 37.8151 49.44 37.1401 49.44C35.9251 49.44 34.8601 49.83 34.2001 50.535C33.5401 51.255 33.2551 52.26 33.2551 53.49C33.2551 54.3 33.4501 55.125 33.8551 55.74C34.6201 56.925 36.0151 57.21 37.2751 57.21ZM44.2334 57.21C45.1484 57.21 46.0034 57.09 46.7084 56.955L46.5434 55.395C45.9884 55.5 45.2384 55.575 44.7134 55.575C43.2734 55.575 42.5084 55.23 42.4484 53.985H46.9634C47.0834 53.985 47.1434 53.94 47.1434 53.82V53.145C47.1434 50.595 45.9734 49.44 43.7684 49.44C41.5184 49.44 40.1984 50.76 40.1984 53.34C40.1984 54.51 40.4534 55.56 41.1884 56.265C41.8184 56.865 42.8534 57.21 44.2334 57.21ZM42.4484 52.59C42.4934 51.645 42.8834 51.06 43.7534 51.06C44.6084 51.06 45.0434 51.66 45.0434 52.59H42.4484ZM48.5432 57H50.6882V46.275H48.5432V57ZM54.8815 57.195C55.6315 57.195 56.5465 57 57.3415 56.505L57.4015 57H59.2615V49.65H57.1165V55.2C56.7565 55.32 56.1565 55.41 55.7815 55.41C55.3465 55.41 55.0465 55.35 54.8515 55.17C54.7015 55.02 54.6265 54.765 54.6265 54.39V49.65H52.4815V54.69C52.4815 55.545 52.6615 56.19 53.1115 56.625C53.5165 57.03 54.2365 57.195 54.8815 57.195ZM61.1116 57H63.2566V46.275H61.1116V57ZM67.2249 57.21C68.0049 57.21 68.7999 56.955 69.4299 56.55L69.6099 57H71.3049V52.23C71.3049 51.345 71.1099 50.715 70.7349 50.28C70.2249 49.68 69.2199 49.44 68.0949 49.44C67.2099 49.44 66.2349 49.56 65.4849 49.71L65.5899 51.285C66.0999 51.18 66.9549 51.09 67.6449 51.09C68.2299 51.09 68.6349 51.165 68.8899 51.39C69.0699 51.555 69.1599 51.81 69.1599 52.215V52.455H67.9899C66.6249 52.455 65.8149 52.635 65.2899 53.13C64.8699 53.535 64.6449 54.135 64.6449 54.795C64.6449 56.22 65.5449 57.21 67.2249 57.21ZM67.8399 55.575C67.0599 55.575 66.7899 55.245 66.7899 54.705C66.7899 54.435 66.8649 54.225 66.9999 54.09C67.1949 53.895 67.5099 53.835 68.0199 53.835H69.1599V55.35C68.8149 55.455 68.2449 55.575 67.8399 55.575ZM73.0637 57H75.2087V51.48C75.6737 51.375 76.1087 51.3 76.6787 51.3C77.0237 51.3 77.3837 51.33 77.6237 51.36V49.485C77.5337 49.47 77.3687 49.455 77.2487 49.455C76.5437 49.455 75.5687 49.725 74.9987 50.25L74.9237 49.65H73.0637V57ZM84.516 57.21C86.721 57.21 87.831 56.325 87.831 54.795C87.831 51.75 83.811 52.935 83.811 51.69C83.811 51.27 84.231 51.09 84.996 51.09C85.596 51.09 86.496 51.21 87.261 51.42L87.426 49.845C86.631 49.575 85.716 49.44 84.981 49.44C82.776 49.44 81.786 50.445 81.786 51.81C81.786 54.855 85.791 53.58 85.791 54.885C85.791 55.41 85.281 55.56 84.471 55.56C83.676 55.56 82.656 55.395 82.101 55.215L81.936 56.805C82.521 57.015 83.646 57.21 84.516 57.21ZM90.3152 48.42H90.4202C91.1552 48.42 91.5452 48.135 91.5452 47.4V47.205C91.5452 46.47 91.1552 46.17 90.4202 46.17H90.3152C89.5802 46.17 89.1902 46.47 89.1902 47.205V47.4C89.1902 48.135 89.5802 48.42 90.3152 48.42ZM89.2952 57H91.4402V49.65H89.2952V57ZM93.2785 57H95.4235V51.465C95.7685 51.33 96.4135 51.225 96.8185 51.225C97.2535 51.225 97.5535 51.285 97.7485 51.465C97.8985 51.615 97.9735 51.825 97.9735 52.2V57H100.119V51.945C100.119 51.09 99.9385 50.445 99.4885 50.01C99.0835 49.605 98.3635 49.44 97.7185 49.44C96.9385 49.44 95.9935 49.65 95.1835 50.175L95.1385 49.65H93.2785V57ZM105.246 60.375H107.391V56.67C107.946 57.015 108.696 57.21 109.356 57.21C111.021 57.21 112.221 56.175 112.221 53.28C112.221 51.915 111.921 50.745 111.231 50.07C110.811 49.665 110.211 49.44 109.476 49.44C108.576 49.44 107.796 49.77 107.166 50.19L107.106 49.65H105.246V60.375ZM108.726 55.515C108.261 55.515 107.736 55.455 107.391 55.305V51.375C107.751 51.27 108.321 51.18 108.666 51.18C109.641 51.18 109.971 51.675 109.971 53.25C109.971 55.02 109.626 55.515 108.726 55.515ZM113.685 57H115.83V46.275H113.685V57ZM119.798 57.21C120.578 57.21 121.373 56.955 122.003 56.55L122.183 57H123.878V52.23C123.878 51.345 123.683 50.715 123.308 50.28C122.798 49.68 121.793 49.44 120.668 49.44C119.783 49.44 118.808 49.56 118.058 49.71L118.163 51.285C118.673 51.18 119.528 51.09 120.218 51.09C120.803 51.09 121.208 51.165 121.463 51.39C121.643 51.555 121.733 51.81 121.733 52.215V52.455H120.563C119.198 52.455 118.388 52.635 117.863 53.13C117.443 53.535 117.218 54.135 117.218 54.795C117.218 56.22 118.118 57.21 119.798 57.21ZM120.413 55.575C119.633 55.575 119.363 55.245 119.363 54.705C119.363 54.435 119.438 54.225 119.573 54.09C119.768 53.895 120.083 53.835 120.593 53.835H121.733V55.35C121.388 55.455 120.818 55.575 120.413 55.575ZM125.637 57H127.782V51.465C128.127 51.33 128.772 51.225 129.177 51.225C129.612 51.225 129.912 51.285 130.107 51.465C130.257 51.615 130.332 51.825 130.332 52.2V57H132.477V51.945C132.477 51.09 132.297 50.445 131.847 50.01C131.442 49.605 130.722 49.44 130.077 49.44C129.297 49.44 128.352 49.65 127.542 50.175L127.497 49.65H125.637V57ZM141.01 57.21C141.55 57.21 142.375 57.105 142.855 56.97L142.765 56.04C142.39 56.115 141.73 56.19 141.235 56.19C140.335 56.19 139.705 55.98 139.285 55.5C138.88 55.035 138.67 54.33 138.67 53.4C138.67 51.45 139.45 50.445 141.175 50.445C141.64 50.445 142.24 50.535 142.705 50.625L142.78 49.665C142.27 49.53 141.595 49.44 141.025 49.44C139.9 49.44 138.955 49.77 138.325 50.445C137.695 51.12 137.365 52.125 137.365 53.415C137.365 54.705 137.725 55.665 138.34 56.295C138.94 56.91 139.81 57.21 141.01 57.21ZM147.375 57.21C149.655 57.21 150.72 55.77 150.72 53.325C150.72 50.88 149.655 49.44 147.375 49.44C145.095 49.44 144.03 50.88 144.03 53.325C144.03 55.77 145.095 57.21 147.375 57.21ZM147.375 56.19C145.875 56.19 145.335 55.2 145.335 53.325C145.335 51.45 145.875 50.46 147.375 50.46C148.875 50.46 149.415 51.45 149.415 53.325C149.415 55.2 148.875 56.19 147.375 56.19ZM152.432 57H153.677V51.015C154.277 50.73 155.072 50.535 155.732 50.535C156.272 50.535 156.662 50.655 156.917 50.91C157.172 51.165 157.277 51.525 157.277 52.155V57H158.522V52.005C158.522 51.09 158.312 50.49 157.907 50.085C157.487 49.65 156.857 49.44 156.062 49.44C155.207 49.44 154.292 49.725 153.527 50.19L153.467 49.65H152.432V57ZM163.653 57H164.898V51.015C165.498 50.73 166.293 50.535 166.953 50.535C167.493 50.535 167.883 50.655 168.138 50.91C168.393 51.165 168.498 51.525 168.498 52.155V57H169.743V52.005C169.743 51.09 169.533 50.49 169.128 50.085C168.708 49.65 168.078 49.44 167.283 49.44C166.473 49.44 165.633 49.71 164.898 50.115V46.275H163.653V57ZM173.927 57.21C174.812 57.21 175.592 56.925 176.237 56.505L176.312 57H177.317V52.11C177.317 51.15 177.137 50.565 176.672 50.115C176.207 49.68 175.472 49.44 174.377 49.44C173.672 49.44 172.832 49.53 172.142 49.695L172.187 50.655C172.907 50.535 173.612 50.475 174.167 50.475C174.902 50.475 175.382 50.61 175.697 50.91C175.967 51.18 176.072 51.555 176.072 52.155V52.62H174.542C173.477 52.62 172.607 52.815 172.052 53.325C171.662 53.685 171.422 54.225 171.422 54.915C171.422 55.605 171.647 56.13 172.007 56.505C172.457 56.97 173.132 57.21 173.927 57.21ZM174.197 56.205C173.237 56.205 172.682 55.77 172.682 54.885C172.682 54.435 172.832 54.12 173.087 53.91C173.432 53.64 173.957 53.535 174.722 53.535H176.072V55.725C175.532 55.995 174.797 56.205 174.197 56.205ZM181.321 57.21C183.091 57.21 184.291 56.52 184.291 54.96C184.291 52.335 180.196 53.115 180.196 51.465C180.196 50.775 180.751 50.43 181.801 50.43C182.401 50.43 183.076 50.52 183.736 50.67L183.841 49.755C183.256 49.575 182.431 49.44 181.696 49.44C180.136 49.44 179.026 50.13 179.026 51.555C179.026 54.255 183.121 53.4 183.121 55.05C183.121 55.8 182.476 56.205 181.276 56.205C180.631 56.205 179.821 56.1 179.221 55.935L179.161 56.895C179.716 57.075 180.616 57.21 181.321 57.21ZM188.601 57.21C189.141 57.21 189.726 57.12 190.116 57.015L190.056 56.1C189.696 56.175 189.201 56.22 188.946 56.22C188.421 56.22 188.166 56.115 188.001 55.935C187.791 55.71 187.746 55.35 187.746 54.645V50.565H189.681V49.65H187.746V47.7C187.356 47.7 186.861 47.805 186.501 47.925V49.665L185.166 49.86V50.565H186.501V54.81C186.501 55.725 186.606 56.22 186.966 56.64C187.296 57.015 187.881 57.21 188.601 57.21ZM193.644 57.21C194.529 57.21 195.309 56.925 195.954 56.505L196.029 57H197.034V52.11C197.034 51.15 196.854 50.565 196.389 50.115C195.924 49.68 195.189 49.44 194.094 49.44C193.389 49.44 192.549 49.53 191.859 49.695L191.904 50.655C192.624 50.535 193.329 50.475 193.884 50.475C194.619 50.475 195.099 50.61 195.414 50.91C195.684 51.18 195.789 51.555 195.789 52.155V52.62H194.259C193.194 52.62 192.324 52.815 191.769 53.325C191.379 53.685 191.139 54.225 191.139 54.915C191.139 55.605 191.364 56.13 191.724 56.505C192.174 56.97 192.849 57.21 193.644 57.21ZM193.914 56.205C192.954 56.205 192.399 55.77 192.399 54.885C192.399 54.435 192.549 54.12 192.804 53.91C193.149 53.64 193.674 53.535 194.439 53.535H195.789V55.725C195.249 55.995 194.514 56.205 193.914 56.205Z" fill="black"/>
<path d="M38.364 39.9749L38.1204 40.0596L38.1807 40.2327H38.364V39.9749ZM42.113 39.9749V40.2327H42.2991L42.3577 40.0561L42.113 39.9749ZM47.334 24.2429L47.5787 24.3241L47.6912 23.985H47.334V24.2429ZM43.838 24.2429V23.985H43.6462L43.591 24.1687L43.838 24.2429ZM40.411 35.6509L40.1656 35.73L40.4197 36.5179L40.6579 35.725L40.411 35.6509ZM36.731 24.2429L36.9764 24.1637L36.9187 23.985H36.731V24.2429ZM32.89 24.2429V23.985H32.5272L32.6464 24.3276L32.89 24.2429ZM38.364 40.2327H42.113V39.717H38.364V40.2327ZM42.3577 40.0561L47.5787 24.3241L47.0892 24.1616L41.8682 39.8936L42.3577 40.0561ZM47.334 23.985H43.838V24.5007H47.334V23.985ZM43.591 24.1687L40.164 35.5767L40.6579 35.725L44.0849 24.317L43.591 24.1687ZM40.6564 35.5717L36.9764 24.1637L36.4856 24.322L40.1656 35.73L40.6564 35.5717ZM36.731 23.985H32.89V24.5007H36.731V23.985ZM32.6464 24.3276L38.1204 40.0596L38.6075 39.8901L33.1335 24.1581L32.6464 24.3276ZM49.0669 39.9749H48.809V40.2327H49.0669V39.9749ZM52.3559 39.9749V40.2327H52.6137V39.9749H52.3559ZM52.3559 28.7049H52.6137V28.447H52.3559V28.7049ZM49.0669 28.7049V28.447H48.809V28.7049H49.0669ZM50.6309 27.0767H50.7919V26.561H50.6309V27.0767ZM50.7919 27.0767C51.3806 27.0767 51.8864 26.964 52.2453 26.6548C52.6125 26.3385 52.7747 25.8623 52.7747 25.2549H52.259C52.259 25.7744 52.1223 26.0802 51.9087 26.2641C51.6869 26.4552 51.3301 26.561 50.7919 26.561V27.0767ZM52.7747 25.2549V24.9559H52.259V25.2549H52.7747ZM52.7747 24.9559C52.7747 24.3484 52.6126 23.868 52.2475 23.5463C51.8892 23.2305 51.3833 23.111 50.7919 23.111V23.6267C51.3274 23.6267 51.6841 23.7372 51.9065 23.9332C52.1222 24.1232 52.259 24.4363 52.259 24.9559H52.7747ZM50.7919 23.111H50.6309V23.6267H50.7919V23.111ZM50.6309 23.111C50.0394 23.111 49.5336 23.2305 49.1753 23.5463C48.8102 23.868 48.648 24.3484 48.648 24.9559H49.1637C49.1637 24.4363 49.3006 24.1232 49.5162 23.9332C49.7387 23.7372 50.0953 23.6267 50.6309 23.6267V23.111ZM48.648 24.9559V25.2549H49.1637V24.9559H48.648ZM48.648 25.2549C48.648 25.8623 48.8103 26.3385 49.1775 26.6548C49.5364 26.964 50.0421 27.0767 50.6309 27.0767V26.561C50.0926 26.561 49.7359 26.4552 49.514 26.2641C49.3005 26.0802 49.1637 25.7744 49.1637 25.2549H48.648ZM49.0669 40.2327H52.3559V39.717H49.0669V40.2327ZM52.6137 39.9749V28.7049H52.098V39.9749H52.6137ZM52.3559 28.447H49.0669V28.9627H52.3559V28.447ZM48.809 28.7049V39.9749H49.3247V28.7049H48.809ZM58.0496 39.9749L57.8068 40.0616L57.8679 40.2327H58.0496V39.9749ZM61.8676 39.9749V40.2327H62.0514L62.1114 40.0589L61.8676 39.9749ZM65.7546 28.7049L65.9984 28.7889L66.1163 28.447H65.7546V28.7049ZM62.4656 28.7049V28.447H62.2749L62.219 28.6294L62.4656 28.7049ZM60.0736 36.5249L59.8281 36.6036L60.0794 37.3875L60.3202 36.6003L60.0736 36.5249ZM57.5666 28.7049L57.8122 28.6261L57.7547 28.447H57.5666V28.7049ZM54.0246 28.7049V28.447H53.6587L53.7818 28.7916L54.0246 28.7049ZM58.0496 40.2327H61.8676V39.717H58.0496V40.2327ZM62.1114 40.0589L65.9984 28.7889L65.5109 28.6208L61.6239 39.8908L62.1114 40.0589ZM65.7546 28.447H62.4656V28.9627H65.7546V28.447ZM62.219 28.6294L59.827 36.4494L60.3202 36.6003L62.7122 28.7803L62.219 28.6294ZM60.3192 36.4461L57.8122 28.6261L57.3211 28.7836L59.8281 36.6036L60.3192 36.4461ZM57.5666 28.447H54.0246V28.9627H57.5666V28.447ZM53.7818 28.7916L57.8068 40.0616L58.2925 39.8881L54.2675 28.6181L53.7818 28.7916ZM76.5533 39.9059L76.6018 40.1591L76.8347 40.1145L76.8097 39.8787L76.5533 39.9059ZM76.3003 37.5139L76.5567 37.4867L76.5273 37.2085L76.2524 37.2605L76.3003 37.5139ZM70.0213 35.3519V35.094H69.7507L69.7638 35.3643L70.0213 35.3519ZM68.0893 38.8479L67.9108 39.0339L67.9115 39.0346L68.0893 38.8479ZM70.0213 33.2129L69.7637 33.2006L69.7509 33.4707H70.0213V33.2129ZM74.0003 33.2129V33.4707H74.2582V33.2129H74.0003ZM72.7583 40.5547C74.1831 40.5547 75.5113 40.3679 76.6018 40.1591L76.5048 39.6526C75.4333 39.8578 74.1395 40.039 72.7583 40.039V40.5547ZM76.8097 39.8787L76.5567 37.4867L76.0439 37.541L76.2969 39.933L76.8097 39.8787ZM76.2524 37.2605C75.4154 37.4188 74.2815 37.532 73.4943 37.532V38.0477C74.3171 38.0477 75.4832 37.9309 76.3482 37.7672L76.2524 37.2605ZM73.4943 37.532C72.3985 37.532 71.6178 37.3981 71.1031 37.0694C70.6129 36.7564 70.3221 36.2374 70.2789 35.3394L69.7638 35.3643C69.8125 36.3753 70.1542 37.0754 70.8255 37.504C71.4723 37.9171 72.3821 38.0477 73.4943 38.0477V37.532ZM70.0213 35.6097H76.9443V35.094H70.0213V35.6097ZM76.9443 35.6097C77.0596 35.6097 77.2052 35.5898 77.3211 35.4884C77.4448 35.3802 77.4782 35.2304 77.4782 35.0989H76.9625C76.9625 35.1113 76.9617 35.1197 76.9609 35.1249C76.9601 35.1301 76.9595 35.1313 76.9601 35.1296C76.9608 35.1278 76.9626 35.1233 76.9665 35.1174C76.9705 35.1114 76.9756 35.1055 76.9815 35.1003C76.9938 35.0895 77.0025 35.088 76.9976 35.0893C76.995 35.09 76.9895 35.0912 76.9804 35.0923C76.9713 35.0933 76.9594 35.094 76.9443 35.094V35.6097ZM77.4782 35.0989V34.0639H76.9625V35.0989H77.4782ZM77.4782 34.0639C77.4782 32.0744 77.0222 30.5789 76.089 29.581C75.1526 28.5797 73.7788 28.125 72.0453 28.125V28.6407C73.6928 28.6407 74.9065 29.0715 75.7123 29.9332C76.5214 30.7983 76.9625 32.1433 76.9625 34.0639H77.4782ZM72.0453 28.125C70.2697 28.125 68.8249 28.6471 67.8264 29.7131C66.8302 30.7765 66.3134 32.3435 66.3134 34.3629H66.8292C66.8292 32.4262 67.3244 31.0032 68.2027 30.0656C69.0787 29.1306 70.3709 28.6407 72.0453 28.6407V28.125ZM66.3134 34.3629C66.3134 36.1856 66.7094 37.8816 67.9108 39.0339L68.2678 38.6618C67.2152 37.6521 66.8292 36.1281 66.8292 34.3629H66.3134ZM67.9115 39.0346C68.9435 40.0174 70.6061 40.5547 72.7583 40.5547V40.039C70.6785 40.039 69.1671 39.5183 68.2671 38.6611L67.9115 39.0346ZM70.2789 33.2251C70.3121 32.5273 70.4718 32.0032 70.7486 31.6577C71.0162 31.3238 71.4192 31.1247 72.0223 31.1247V30.609C71.2914 30.609 70.7284 30.8584 70.3462 31.3352C69.9733 31.8005 69.7995 32.4494 69.7637 33.2006L70.2789 33.2251ZM72.0223 31.1247C72.6122 31.1247 73.028 31.3284 73.3025 31.6674C73.5837 32.0145 73.7425 32.5358 73.7425 33.2129H74.2582C74.2582 32.4639 74.0834 31.8122 73.7033 31.3428C73.3166 30.8653 72.7435 30.609 72.0223 30.609V31.1247ZM74.0003 32.955H70.0213V33.4707H74.0003V32.955ZM93.8707 39.9059L93.9192 40.1591L94.152 40.1145L94.1271 39.8787L93.8707 39.9059ZM93.6177 37.5139L93.8741 37.4867L93.8447 37.2085L93.5698 37.2605L93.6177 37.5139ZM87.3387 35.3519V35.094H87.0681L87.0811 35.3643L87.3387 35.3519ZM85.4067 38.8479L85.2282 39.0339L85.2289 39.0346L85.4067 38.8479ZM87.3387 33.2129L87.0811 33.2006L87.0683 33.4707H87.3387V33.2129ZM91.3177 33.2129V33.4707H91.5755V33.2129H91.3177ZM90.0757 40.5547C91.5005 40.5547 92.8287 40.3679 93.9192 40.1591L93.8222 39.6526C92.7507 39.8578 91.4569 40.039 90.0757 40.039V40.5547ZM94.1271 39.8787L93.8741 37.4867L93.3613 37.541L93.6143 39.933L94.1271 39.8787ZM93.5698 37.2605C92.7328 37.4188 91.5989 37.532 90.8117 37.532V38.0477C91.6345 38.0477 92.8006 37.9309 93.6656 37.7672L93.5698 37.2605ZM90.8117 37.532C89.7159 37.532 88.9352 37.3981 88.4205 37.0694C87.9303 36.7564 87.6395 36.2374 87.5962 35.3394L87.0811 35.3643C87.1299 36.3753 87.4716 37.0754 88.1429 37.504C88.7897 37.9171 89.6995 38.0477 90.8117 38.0477V37.532ZM87.3387 35.6097H94.2617V35.094H87.3387V35.6097ZM94.2617 35.6097C94.3769 35.6097 94.5226 35.5898 94.6385 35.4884C94.7622 35.3802 94.7955 35.2304 94.7955 35.0989H94.2798C94.2798 35.1113 94.2791 35.1197 94.2783 35.1249C94.2775 35.1301 94.2769 35.1313 94.2775 35.1296C94.2781 35.1278 94.28 35.1233 94.2839 35.1174C94.2878 35.1114 94.2929 35.1055 94.2989 35.1003C94.3112 35.0895 94.3199 35.088 94.315 35.0893C94.3124 35.09 94.3069 35.0912 94.2978 35.0923C94.2887 35.0933 94.2768 35.094 94.2617 35.094V35.6097ZM94.7955 35.0989V34.0639H94.2798V35.0989H94.7955ZM94.7955 34.0639C94.7955 32.0744 94.3396 30.5789 93.4064 29.581C92.47 28.5797 91.0962 28.125 89.3627 28.125V28.6407C91.0102 28.6407 92.2239 29.0715 93.0297 29.9332C93.8388 30.7983 94.2798 32.1433 94.2798 34.0639H94.7955ZM89.3627 28.125C87.5871 28.125 86.1423 28.6471 85.1438 29.7131C84.1476 30.7765 83.6308 32.3435 83.6308 34.3629H84.1465C84.1465 32.4262 84.6418 31.0032 85.5201 30.0656C86.396 29.1306 87.6883 28.6407 89.3627 28.6407V28.125ZM83.6308 34.3629C83.6308 36.1856 84.0268 37.8816 85.2282 39.0339L85.5852 38.6618C84.5326 37.6521 84.1465 36.1281 84.1465 34.3629H83.6308ZM85.2289 39.0346C86.2609 40.0174 87.9235 40.5547 90.0757 40.5547V40.039C87.9959 40.039 86.4845 39.5183 85.5845 38.6611L85.2289 39.0346ZM87.5962 33.2251C87.6295 32.5273 87.7892 32.0032 88.066 31.6577C88.3336 31.3238 88.7366 31.1247 89.3397 31.1247V30.609C88.6088 30.609 88.0458 30.8584 87.6636 31.3352C87.2907 31.8005 87.1169 32.4494 87.0811 33.2006L87.5962 33.2251ZM89.3397 31.1247C89.9295 31.1247 90.3454 31.3284 90.6199 31.6674C90.901 32.0145 91.0598 32.5358 91.0598 33.2129H91.5755C91.5755 32.4639 91.4008 31.8122 91.0207 31.3428C90.6339 30.8653 90.0608 30.609 89.3397 30.609V31.1247ZM91.3177 32.955H87.3387V33.4707H91.3177V32.955ZM96.6841 39.9749H96.4262V40.2327H96.6841V39.9749ZM99.9731 39.9749V40.2327H100.231V39.9749H99.9731ZM99.9731 23.5299H100.231V23.272H99.9731V23.5299ZM96.6841 23.5299V23.272H96.4262V23.5299H96.6841ZM96.6841 40.2327H99.9731V39.717H96.6841V40.2327ZM100.231 39.9749V23.5299H99.7152V39.9749H100.231ZM99.9731 23.272H96.6841V23.7877H99.9731V23.272ZM96.4262 23.5299V39.9749H96.9419V23.5299H96.4262ZM110.833 39.9749L110.59 40.0616L110.651 40.2327H110.833V39.9749ZM114.651 39.9749V40.2327H114.835L114.895 40.0589L114.651 39.9749ZM118.538 28.7049L118.782 28.7889L118.9 28.447H118.538V28.7049ZM115.249 28.7049V28.447H115.058L115.002 28.6294L115.249 28.7049ZM112.857 36.5249L112.611 36.6036L112.863 37.3875L113.103 36.6003L112.857 36.5249ZM110.35 28.7049L110.595 28.6261L110.538 28.447H110.35V28.7049ZM106.808 28.7049V28.447H106.442L106.565 28.7916L106.808 28.7049ZM110.833 40.2327H114.651V39.717H110.833V40.2327ZM114.895 40.0589L118.782 28.7889L118.294 28.6208L114.407 39.8908L114.895 40.0589ZM118.538 28.447H115.249V28.9627H118.538V28.447ZM115.002 28.6294L112.61 36.4494L113.103 36.6003L115.495 28.7803L115.002 28.6294ZM113.102 36.4461L110.595 28.6261L110.104 28.7836L112.611 36.6036L113.102 36.4461ZM110.35 28.447H106.808V28.9627H110.35V28.447ZM106.565 28.7916L110.59 40.0616L111.076 39.8881L107.051 28.6181L106.565 28.7916ZM129.337 39.9059L129.385 40.1591L129.618 40.1145L129.593 39.8787L129.337 39.9059ZM129.084 37.5139L129.34 37.4867L129.311 37.2085L129.036 37.2605L129.084 37.5139ZM122.805 35.3519V35.094H122.534L122.547 35.3643L122.805 35.3519ZM120.873 38.8479L120.694 39.0339L120.695 39.0346L120.873 38.8479ZM122.805 33.2129L122.547 33.2006L122.534 33.4707H122.805V33.2129ZM126.784 33.2129V33.4707H127.041V33.2129H126.784ZM125.542 40.5547C126.966 40.5547 128.295 40.3679 129.385 40.1591L129.288 39.6526C128.216 39.8578 126.923 40.039 125.542 40.039V40.5547ZM129.593 39.8787L129.34 37.4867L128.827 37.541L129.08 39.933L129.593 39.8787ZM129.036 37.2605C128.199 37.4188 127.065 37.532 126.278 37.532V38.0477C127.1 38.0477 128.266 37.9309 129.131 37.7672L129.036 37.2605ZM126.278 37.532C125.182 37.532 124.401 37.3981 123.886 37.0694C123.396 36.7564 123.105 36.2374 123.062 35.3394L122.547 35.3643C122.596 36.3753 122.937 37.0754 123.609 37.504C124.256 37.9171 125.165 38.0477 126.278 38.0477V37.532ZM122.805 35.6097H129.728V35.094H122.805V35.6097ZM129.728 35.6097C129.843 35.6097 129.988 35.5898 130.104 35.4884C130.228 35.3802 130.261 35.2304 130.261 35.0989H129.746C129.746 35.1113 129.745 35.1197 129.744 35.1249C129.743 35.1301 129.743 35.1313 129.743 35.1296C129.744 35.1278 129.746 35.1233 129.75 35.1174C129.754 35.1114 129.759 35.1055 129.765 35.1003C129.777 35.0895 129.786 35.088 129.781 35.0893C129.778 35.09 129.773 35.0912 129.764 35.0923C129.754 35.0933 129.743 35.094 129.728 35.094V35.6097ZM130.261 35.0989V34.0639H129.746V35.0989H130.261ZM130.261 34.0639C130.261 32.0744 129.805 30.5789 128.872 29.581C127.936 28.5797 126.562 28.125 124.829 28.125V28.6407C126.476 28.6407 127.69 29.0715 128.496 29.9332C129.305 30.7983 129.746 32.1433 129.746 34.0639H130.261ZM124.829 28.125C123.053 28.125 121.608 28.6471 120.61 29.7131C119.613 30.7765 119.097 32.3435 119.097 34.3629H119.612C119.612 32.4262 120.108 31.0032 120.986 30.0656C121.862 29.1306 123.154 28.6407 124.829 28.6407V28.125ZM119.097 34.3629C119.097 36.1856 119.493 37.8816 120.694 39.0339L121.051 38.6618C119.998 37.6521 119.612 36.1281 119.612 34.3629H119.097ZM120.695 39.0346C121.727 40.0174 123.389 40.5547 125.542 40.5547V40.039C123.462 40.039 121.95 39.5183 121.05 38.6611L120.695 39.0346ZM123.062 33.2251C123.095 32.5273 123.255 32.0032 123.532 31.6577C123.799 31.3238 124.202 31.1247 124.806 31.1247V30.609C124.075 30.609 123.512 30.8584 123.129 31.3352C122.757 31.8005 122.583 32.4494 122.547 33.2006L123.062 33.2251ZM124.806 31.1247C125.395 31.1247 125.811 31.3284 126.086 31.6674C126.367 32.0145 126.526 32.5358 126.526 33.2129H127.041C127.041 32.4639 126.867 31.8122 126.487 31.3428C126.1 30.8653 125.527 30.609 124.806 30.609V31.1247ZM126.784 32.955H122.805V33.4707H126.784V32.955ZM132.081 39.9749H131.823V40.2327H132.081V39.9749ZM135.37 39.9749V40.2327H135.628V39.9749H135.37ZM135.37 31.5109L135.313 31.2593L135.112 31.3047V31.5109H135.37ZM139.073 31.3269L139.041 31.5827L139.331 31.6189V31.3269H139.073ZM139.073 28.4519H139.331V28.2334L139.115 28.1975L139.073 28.4519ZM135.048 29.6249L134.792 29.6568L134.854 30.1539L135.223 29.8145L135.048 29.6249ZM134.933 28.7049L135.189 28.6729L135.16 28.447H134.933V28.7049ZM132.081 28.7049V28.447H131.823V28.7049H132.081ZM132.081 40.2327H135.37V39.717H132.081V40.2327ZM135.628 39.9749V31.5109H135.112V39.9749H135.628ZM135.427 31.7624C136.129 31.6037 136.776 31.4927 137.624 31.4927V30.977C136.724 30.977 136.037 31.096 135.313 31.2593L135.427 31.7624ZM137.624 31.4927C138.14 31.4927 138.681 31.5377 139.041 31.5827L139.105 31.071C138.729 31.024 138.166 30.977 137.624 30.977V31.4927ZM139.331 31.3269V28.4519H138.815V31.3269H139.331ZM139.115 28.1975C138.963 28.1722 138.696 28.148 138.498 28.148V28.6637C138.667 28.6637 138.906 28.6855 139.03 28.7062L139.115 28.1975ZM138.498 28.148C137.373 28.148 135.808 28.574 134.873 29.4352L135.223 29.8145C136.036 29.0658 137.461 28.6637 138.498 28.6637V28.148ZM135.304 29.5929L135.189 28.6729L134.677 28.7368L134.792 29.6568L135.304 29.5929ZM134.933 28.447H132.081V28.9627H134.933V28.447ZM131.823 28.7049V39.9749H132.339V28.7049H131.823ZM147.285 39.2849L147.525 39.1891L147.409 38.899L147.146 39.068L147.285 39.2849ZM147.561 39.9749L147.322 40.0706L147.387 40.2327H147.561V39.9749ZM150.16 39.9749V40.2327H150.418V39.9749H150.16ZM149.286 29.6709L149.09 29.8379L149.091 29.8392L149.286 29.6709ZM141.236 28.7969L141.186 28.544L140.964 28.5884L140.979 28.814L141.236 28.7969ZM141.397 31.2119L141.14 31.229L141.16 31.524L141.449 31.4644L141.397 31.2119ZM146.457 31.3729L146.632 31.1827L146.628 31.1795L146.457 31.3729ZM146.871 33.0059V33.2637H147.129V33.0059H146.871ZM140.937 34.0409L140.761 33.8532L140.759 33.8552L140.937 34.0409ZM143.559 35.5129L143.742 35.6952L143.559 35.5129ZM146.871 35.1219H147.129V34.864H146.871V35.1219ZM146.871 37.4449L146.947 37.6915L147.129 37.6359V37.4449H146.871ZM143.904 40.5547C145.154 40.5547 146.421 40.1474 147.425 39.5018L147.146 39.068C146.218 39.6643 145.047 40.039 143.904 40.039V40.5547ZM147.046 39.3806L147.322 40.0706L147.801 39.8791L147.525 39.1891L147.046 39.3806ZM147.561 40.2327H150.16V39.717H147.561V40.2327ZM150.418 39.9749V32.6609H149.903V39.9749H150.418ZM150.418 32.6609C150.418 31.269 150.112 30.2333 149.482 29.5025L149.091 29.8392C149.611 30.4424 149.903 31.3387 149.903 32.6609H150.418ZM149.483 29.5039C149.049 28.9932 148.417 28.6503 147.689 28.4346C146.96 28.2186 146.117 28.125 145.238 28.125V28.6407C146.085 28.6407 146.875 28.7312 147.543 28.9291C148.212 29.1274 148.742 29.4285 149.09 29.8379L149.483 29.5039ZM145.238 28.125C143.861 28.125 142.349 28.3114 141.186 28.544L141.287 29.0497C142.424 28.8223 143.902 28.6407 145.238 28.6407V28.125ZM140.979 28.814L141.14 31.229L141.655 31.1947L141.494 28.7797L140.979 28.814ZM141.449 31.4644C142.213 31.3072 143.507 31.1707 144.548 31.1707V30.655C143.474 30.655 142.146 30.7945 141.345 30.9593L141.449 31.4644ZM144.548 31.1707C145.442 31.1707 145.974 31.2901 146.287 31.5662L146.628 31.1795C146.159 30.7656 145.449 30.655 144.548 30.655V31.1707ZM146.283 31.5629C146.483 31.7461 146.614 32.0507 146.614 32.6379H147.129C147.129 31.983 146.984 31.5056 146.632 31.1828L146.283 31.5629ZM146.614 32.6379V33.0059H147.129V32.6379H146.614ZM146.871 32.748H145.077V33.2637H146.871V32.748ZM145.077 32.748C142.979 32.748 141.644 33.0201 140.761 33.8532L141.114 34.2285C141.841 33.5436 142.99 33.2637 145.077 33.2637V32.748ZM140.759 33.8552C140.055 34.5336 139.691 35.5255 139.691 36.5939H140.206C140.206 35.6382 140.532 34.7902 141.116 34.2265L140.759 33.8552ZM139.691 36.5939C139.691 37.7412 140.054 38.7386 140.78 39.449C141.506 40.1593 142.566 40.5547 143.904 40.5547V40.039C142.667 40.039 141.749 39.6754 141.141 39.0804C140.533 38.4856 140.206 37.6315 140.206 36.5939H139.691ZM144.847 37.532C144.279 37.532 143.952 37.4107 143.767 37.2426C143.588 37.0796 143.495 36.8295 143.495 36.4559H142.98C142.98 36.9102 143.094 37.3271 143.421 37.6241C143.742 37.9161 144.22 38.0477 144.847 38.0477V37.532ZM143.495 36.4559C143.495 36.0863 143.598 35.8392 143.742 35.6952L143.377 35.3305C143.107 35.6005 142.98 35.9974 142.98 36.4559H143.495ZM143.742 35.6952C143.959 35.4785 144.339 35.3797 145.123 35.3797V34.864C144.344 34.864 143.758 34.9492 143.377 35.3305L143.742 35.6952ZM145.123 35.3797H146.871V34.864H145.123V35.3797ZM146.614 35.1219V37.4449H147.129V35.1219H146.614ZM146.796 37.1982C146.28 37.3555 145.433 37.532 144.847 37.532V38.0477C145.504 38.0477 146.405 37.8563 146.947 37.6915L146.796 37.1982ZM152.857 39.9749H152.599V40.2327H152.857V39.9749ZM156.146 39.9749V40.2327H156.404V39.9749H156.146ZM156.146 31.4879L156.052 31.2477L155.888 31.3119V31.4879H156.146ZM159.711 31.4879L159.894 31.3054L159.886 31.2984L159.711 31.4879ZM160.056 39.9749H159.798V40.2327H160.056V39.9749ZM163.345 39.9749V40.2327H163.603V39.9749H163.345ZM162.379 29.2569L162.197 29.4392L162.2 29.4422L162.379 29.2569ZM155.778 29.5099L155.521 29.5319L155.558 29.9599L155.918 29.7262L155.778 29.5099ZM155.709 28.7049L155.966 28.6828L155.946 28.447H155.709V28.7049ZM152.857 28.7049V28.447H152.599V28.7049H152.857ZM152.857 40.2327H156.146V39.717H152.857V40.2327ZM156.404 39.9749V31.4879H155.888V39.9749H156.404ZM156.24 31.728C156.733 31.535 157.689 31.3777 158.285 31.3777V30.862C157.639 30.862 156.617 31.0267 156.052 31.2477L156.24 31.728ZM158.285 31.3777C158.945 31.3777 159.315 31.4729 159.536 31.6773L159.886 31.2984C159.51 30.9508 158.96 30.862 158.285 30.862V31.3777ZM159.529 31.6702C159.69 31.8317 159.798 32.0733 159.798 32.6149H160.314C160.314 32.0064 160.192 31.604 159.894 31.3055L159.529 31.6702ZM159.798 32.6149V39.9749H160.314V32.6149H159.798ZM160.056 40.2327H163.345V39.717H160.056V40.2327ZM163.603 39.9749V32.2239H163.087V39.9749H163.603ZM163.603 32.2239C163.603 30.8832 163.322 29.8093 162.558 29.0715L162.2 29.4422C162.817 30.0384 163.087 30.9425 163.087 32.2239H163.603ZM162.562 29.0745C161.868 28.381 160.678 28.125 159.665 28.125V28.6407C160.63 28.6407 161.648 28.8907 162.197 29.4392L162.562 29.0745ZM159.665 28.125C158.428 28.125 156.928 28.4572 155.638 29.2935L155.918 29.7262C157.112 28.9525 158.511 28.6407 159.665 28.6407V28.125ZM156.035 29.4878L155.966 28.6828L155.452 28.7269L155.521 29.5319L156.035 29.4878ZM155.709 28.447H152.857V28.9627H155.709V28.447ZM152.599 28.7049V39.9749H153.115V28.7049H152.599ZM171.194 40.5547C173.202 40.5547 174.711 39.9507 175.714 38.8459C176.714 37.7453 177.179 36.1853 177.179 34.3399H176.663C176.663 36.1054 176.219 37.5239 175.333 38.4991C174.451 39.47 173.096 40.039 171.194 40.039V40.5547ZM177.179 34.3399C177.179 32.4944 176.714 30.9344 175.714 29.8338C174.711 28.729 173.202 28.125 171.194 28.125V28.6407C173.096 28.6407 174.451 29.2097 175.333 30.1806C176.219 31.1558 176.663 32.5743 176.663 34.3399H177.179ZM171.194 28.125C169.186 28.125 167.677 28.729 166.673 29.8338C165.673 30.9344 165.209 32.4944 165.209 34.3399H165.725C165.725 32.5743 166.169 31.1558 167.055 30.1806C167.937 29.2097 169.292 28.6407 171.194 28.6407V28.125ZM165.209 34.3399C165.209 36.1853 165.673 37.7453 166.673 38.8459C167.677 39.9507 169.186 40.5547 171.194 40.5547V40.039C169.292 40.039 167.937 39.47 167.055 38.4991C166.169 37.5239 165.725 36.1054 165.725 34.3399H165.209ZM171.194 37.532C170.434 37.532 169.95 37.2795 169.64 36.7965C169.313 36.2887 169.152 35.4885 169.152 34.3399H168.636C168.636 35.5142 168.797 36.439 169.206 37.0755C169.631 37.7367 170.298 38.0477 171.194 38.0477V37.532ZM169.152 34.3399C169.152 33.1912 169.313 32.391 169.64 31.8832C169.95 31.4002 170.434 31.1477 171.194 31.1477V30.632C170.298 30.632 169.631 30.943 169.206 31.6042C168.797 32.2407 168.636 33.1655 168.636 34.3399H169.152ZM171.194 31.1477C171.954 31.1477 172.437 31.4002 172.748 31.8832C173.075 32.391 173.236 33.1912 173.236 34.3399H173.752C173.752 33.1655 173.591 32.2407 173.182 31.6042C172.756 30.943 172.09 30.632 171.194 30.632V31.1477ZM173.236 34.3399C173.236 35.4885 173.075 36.2887 172.748 36.7965C172.437 37.2795 171.954 37.532 171.194 37.532V38.0477C172.09 38.0477 172.756 37.7367 173.182 37.0755C173.591 36.439 173.752 35.5142 173.752 34.3399H173.236Z" fill="white"/>
<path d="M37.4519 38.9749H41.2009L46.4219 23.2429H42.9259L39.4989 34.6509L35.8189 23.2429H31.9779L37.4519 38.9749ZM49.7188 25.8189H49.8798C51.0068 25.8189 51.6048 25.3819 51.6048 24.2549V23.9559C51.6048 22.8289 51.0068 22.3689 49.8798 22.3689H49.7188C48.5918 22.3689 47.9938 22.8289 47.9938 23.9559V24.2549C47.9938 25.3819 48.5918 25.8189 49.7188 25.8189ZM48.1548 38.9749H51.4438V27.7049H48.1548V38.9749ZM57.1376 38.9749H60.9556L64.8426 27.7049H61.5536L59.1616 35.5249L56.6546 27.7049H53.1126L57.1376 38.9749ZM71.8463 39.2969C73.2493 39.2969 74.5603 39.1129 75.6413 38.9059L75.3883 36.5139C74.5373 36.6749 73.3873 36.7899 72.5823 36.7899C70.3743 36.7899 69.2013 36.2609 69.1093 34.3519H76.0323C76.2163 34.3519 76.3083 34.2829 76.3083 34.0989V33.0639C76.3083 29.1539 74.5143 27.3829 71.1333 27.3829C67.6833 27.3829 65.6593 29.4069 65.6593 33.3629C65.6593 35.1569 66.0503 36.7669 67.1773 37.8479C68.1433 38.7679 69.7303 39.2969 71.8463 39.2969ZM69.1093 32.2129C69.1783 30.7639 69.7763 29.8669 71.1103 29.8669C72.4213 29.8669 73.0883 30.7869 73.0883 32.2129H69.1093ZM89.1636 39.2969C90.5666 39.2969 91.8776 39.1129 92.9586 38.9059L92.7056 36.5139C91.8546 36.6749 90.7046 36.7899 89.8996 36.7899C87.6916 36.7899 86.5186 36.2609 86.4266 34.3519H93.3496C93.5336 34.3519 93.6256 34.2829 93.6256 34.0989V33.0639C93.6256 29.1539 91.8316 27.3829 88.4506 27.3829C85.0006 27.3829 82.9766 29.4069 82.9766 33.3629C82.9766 35.1569 83.3676 36.7669 84.4946 37.8479C85.4606 38.7679 87.0476 39.2969 89.1636 39.2969ZM86.4266 32.2129C86.4956 30.7639 87.0936 29.8669 88.4276 29.8669C89.7386 29.8669 90.4056 30.7869 90.4056 32.2129H86.4266ZM95.772 38.9749H99.061V22.5299H95.772V38.9749ZM109.921 38.9749H113.739L117.626 27.7049H114.337L111.945 35.5249L109.438 27.7049H105.896L109.921 38.9749ZM124.629 39.2969C126.032 39.2969 127.343 39.1129 128.424 38.9059L128.171 36.5139C127.32 36.6749 126.17 36.7899 125.365 36.7899C123.157 36.7899 121.984 36.2609 121.892 34.3519H128.815C128.999 34.3519 129.091 34.2829 129.091 34.0989V33.0639C129.091 29.1539 127.297 27.3829 123.916 27.3829C120.466 27.3829 118.442 29.4069 118.442 33.3629C118.442 35.1569 118.833 36.7669 119.96 37.8479C120.926 38.7679 122.513 39.2969 124.629 39.2969ZM121.892 32.2129C121.961 30.7639 122.559 29.8669 123.893 29.8669C125.204 29.8669 125.871 30.7869 125.871 32.2129H121.892ZM131.169 38.9749H134.458V30.5109C135.171 30.3499 135.838 30.2349 136.712 30.2349C137.241 30.2349 137.793 30.2809 138.161 30.3269V27.4519C138.023 27.4289 137.77 27.4059 137.586 27.4059C136.505 27.4059 135.01 27.8199 134.136 28.6249L134.021 27.7049H131.169V38.9749ZM142.992 39.2969C144.188 39.2969 145.407 38.9059 146.373 38.2849L146.649 38.9749H149.248V31.6609C149.248 30.3039 148.949 29.3379 148.374 28.6709C147.592 27.7509 146.051 27.3829 144.326 27.3829C142.969 27.3829 141.474 27.5669 140.324 27.7969L140.485 30.2119C141.267 30.0509 142.578 29.9129 143.636 29.9129C144.533 29.9129 145.154 30.0279 145.545 30.3729C145.821 30.6259 145.959 31.0169 145.959 31.6379V32.0059H144.165C142.072 32.0059 140.83 32.2819 140.025 33.0409C139.381 33.6619 139.036 34.5819 139.036 35.5939C139.036 37.7789 140.416 39.2969 142.992 39.2969ZM143.935 36.7899C142.739 36.7899 142.325 36.2839 142.325 35.4559C142.325 35.0419 142.44 34.7199 142.647 34.5129C142.946 34.2139 143.429 34.1219 144.211 34.1219H145.959V36.4449C145.43 36.6059 144.556 36.7899 143.935 36.7899ZM151.945 38.9749H155.234V30.4879C155.763 30.2809 156.752 30.1199 157.373 30.1199C158.04 30.1199 158.5 30.2119 158.799 30.4879C159.029 30.7179 159.144 31.0399 159.144 31.6149V38.9749H162.433V31.2239C162.433 29.9129 162.157 28.9239 161.467 28.2569C160.846 27.6359 159.742 27.3829 158.753 27.3829C157.557 27.3829 156.108 27.7049 154.866 28.5099L154.797 27.7049H151.945V38.9749ZM170.282 39.2969C174.192 39.2969 176.009 36.9509 176.009 33.3399C176.009 29.7289 174.192 27.3829 170.282 27.3829C166.372 27.3829 164.555 29.7289 164.555 33.3399C164.555 36.9509 166.372 39.2969 170.282 39.2969ZM170.282 36.7899C168.626 36.7899 167.982 35.6629 167.982 33.3399C167.982 31.0169 168.626 29.8899 170.282 29.8899C171.938 29.8899 172.582 31.0169 172.582 33.3399C172.582 35.6629 171.938 36.7899 170.282 36.7899Z" fill="white"/>
<rect x="58.2085" y="2.55542" width="93.0189" height="14.3106" fill="#DF357D"/>
<path d="M66.6776 13H68.0816V10.876H69.0716C69.8816 10.876 70.4396 10.687 70.7996 10.282C71.1056 9.94 71.2586 9.445 71.2586 8.788C71.2586 8.131 71.0966 7.654 70.7636 7.348C70.3676 6.979 69.7556 6.844 68.7926 6.844H66.6776V13ZM68.0816 9.823V7.861H68.7386C69.1706 7.861 69.4316 7.924 69.6026 8.077C69.7646 8.23 69.8366 8.473 69.8366 8.806C69.8366 9.166 69.7556 9.427 69.5936 9.589C69.4136 9.76 69.2246 9.823 68.7746 9.823H68.0816ZM74.7158 13.126C76.5968 13.126 77.4428 12.01 77.4428 9.931C77.4428 7.852 76.5968 6.727 74.7158 6.727C72.8348 6.727 71.9888 7.852 71.9888 9.931C71.9888 12.01 72.8348 13.126 74.7158 13.126ZM74.7158 12.028C73.8068 12.028 73.4468 11.416 73.4468 9.931C73.4468 8.446 73.8068 7.825 74.7158 7.825C75.6248 7.825 75.9848 8.446 75.9848 9.931C75.9848 11.416 75.6248 12.028 74.7158 12.028ZM78.5164 13H79.9204V10.768H80.6944L81.8284 13H83.4124L82.0804 10.579C82.7734 10.255 83.1244 9.589 83.1244 8.752C83.1244 8.104 82.9264 7.636 82.6114 7.339C82.2064 6.961 81.6214 6.844 80.6314 6.844H78.5164V13ZM79.9204 9.751V7.861H80.5504C81.0094 7.861 81.3064 7.915 81.4864 8.086C81.6304 8.23 81.7024 8.455 81.7024 8.77C81.7024 9.112 81.6214 9.382 81.4414 9.535C81.2614 9.688 81.0094 9.751 80.5414 9.751H79.9204ZM86.3739 13H87.7779V10.876H88.7679C89.5779 10.876 90.1359 10.687 90.4959 10.282C90.8019 9.94 90.9549 9.445 90.9549 8.788C90.9549 8.131 90.7929 7.654 90.4599 7.348C90.0639 6.979 89.4519 6.844 88.4889 6.844H86.3739V13ZM87.7779 9.823V7.861H88.4349C88.8669 7.861 89.1279 7.924 89.2989 8.077C89.4609 8.23 89.5329 8.473 89.5329 8.806C89.5329 9.166 89.4519 9.427 89.2899 9.589C89.1099 9.76 88.9209 9.823 88.4709 9.823H87.7779ZM94.4121 13.126C96.2931 13.126 97.1391 12.01 97.1391 9.931C97.1391 7.852 96.2931 6.727 94.4121 6.727C92.5311 6.727 91.6851 7.852 91.6851 9.931C91.6851 12.01 92.5311 13.126 94.4121 13.126ZM94.4121 12.028C93.5031 12.028 93.1431 11.416 93.1431 9.931C93.1431 8.446 93.5031 7.825 94.4121 7.825C95.3211 7.825 95.6811 8.446 95.6811 9.931C95.6811 11.416 95.3211 12.028 94.4121 12.028ZM100.931 13.126C101.435 13.126 102.11 13.045 102.479 12.937L102.335 11.911C101.975 11.983 101.498 12.037 101.201 12.037C100.508 12.037 100.121 11.902 99.8507 11.596C99.5447 11.254 99.4097 10.642 99.4097 9.913C99.4097 8.689 99.7157 7.816 101.039 7.816C101.426 7.816 101.885 7.897 102.362 8.032L102.542 7.006C102.146 6.844 101.462 6.727 100.931 6.727C98.8247 6.727 97.9517 8.023 97.9517 9.949C97.9517 11.02 98.1767 11.821 98.6987 12.379C99.1577 12.865 99.8417 13.126 100.931 13.126ZM105.979 13.126C107.86 13.126 108.706 12.01 108.706 9.931C108.706 7.852 107.86 6.727 105.979 6.727C104.098 6.727 103.252 7.852 103.252 9.931C103.252 12.01 104.098 13.126 105.979 13.126ZM105.979 12.028C105.07 12.028 104.71 11.416 104.71 9.931C104.71 8.446 105.07 7.825 105.979 7.825C106.888 7.825 107.248 8.446 107.248 9.931C107.248 11.416 106.888 12.028 105.979 12.028ZM113.169 13H114.573V7.861H116.436L116.544 6.844H111.261V7.861H113.169V13ZM117.294 13H118.698V6.844H117.294V13ZM120.045 13H124.248V11.983H121.449V10.408H123.564V9.355H121.449V7.861H124.095L124.203 6.844H120.045V13ZM125.292 13H126.471V9.418L127.785 11.596H128.865L130.143 9.454V13H131.43V6.844H130.35L128.343 10.282L126.399 6.844H125.292V13ZM132.763 13H134.167V10.876H135.157C135.967 10.876 136.525 10.687 136.885 10.282C137.191 9.94 137.344 9.445 137.344 8.788C137.344 8.131 137.182 7.654 136.849 7.348C136.453 6.979 135.841 6.844 134.878 6.844H132.763V13ZM134.167 9.823V7.861H134.824C135.256 7.861 135.517 7.924 135.688 8.077C135.85 8.23 135.922 8.473 135.922 8.806C135.922 9.166 135.841 9.427 135.679 9.589C135.499 9.76 135.31 9.823 134.86 9.823H134.167ZM140.801 13.126C142.682 13.126 143.528 12.01 143.528 9.931C143.528 7.852 142.682 6.727 140.801 6.727C138.92 6.727 138.074 7.852 138.074 9.931C138.074 12.01 138.92 13.126 140.801 13.126ZM140.801 12.028C139.892 12.028 139.532 11.416 139.532 9.931C139.532 8.446 139.892 7.825 140.801 7.825C141.71 7.825 142.07 8.446 142.07 9.931C142.07 11.416 141.71 12.028 140.801 12.028Z" fill="white"/>
</svg>
