<svg width="247" height="143" viewBox="0 0 247 143" fill="none" xmlns="http://www.w3.org/2000/svg">
<path d="M31.9158 142.302C31.6278 142.302 31.3098 142.284 30.9618 142.248C30.6138 142.212 30.3378 142.17 30.1338 142.122L30.0078 140.952C30.5838 141.024 31.1478 141.06 31.6998 141.06C32.5638 141.06 33.1758 140.898 33.5358 140.574C33.7278 140.394 33.8658 140.154 33.9498 139.854C34.0458 139.554 34.0938 139.158 34.0938 138.666V137.46C33.1698 137.988 32.2278 138.252 31.2678 138.252C30.2958 138.252 29.5578 137.994 29.0538 137.478C28.5618 136.986 28.3158 136.218 28.3158 135.174V129.18H29.8098V134.994C29.8098 135.366 29.8398 135.672 29.8998 135.912C29.9718 136.14 30.0858 136.332 30.2418 136.488C30.5418 136.788 31.0158 136.938 31.6638 136.938C32.0478 136.938 32.4558 136.89 32.8878 136.794C33.3198 136.686 33.7218 136.542 34.0938 136.362V129.18H35.5878V138.684C35.5878 139.872 35.3178 140.754 34.7778 141.33C34.1778 141.978 33.2238 142.302 31.9158 142.302ZM41.7815 129.18H43.0235L43.0955 129.828C43.5395 129.528 44.0015 129.306 44.4815 129.162C44.9735 129.006 45.4295 128.928 45.8495 128.928C46.9655 128.928 47.8055 129.342 48.3695 130.17C48.9455 130.986 49.2335 132.114 49.2335 133.554C49.2335 135.162 48.9335 136.35 48.3335 137.118C47.7335 137.874 46.8875 138.252 45.7955 138.252C45.3395 138.252 44.8835 138.192 44.4275 138.072C43.9835 137.952 43.5995 137.79 43.2755 137.586V142.05H41.7815V129.18ZM45.4175 137.01C46.2215 137.01 46.7975 136.746 47.1455 136.218C47.4935 135.678 47.6675 134.784 47.6675 133.536C47.6675 132.408 47.4935 131.574 47.1455 131.034C46.7975 130.482 46.2575 130.206 45.5255 130.206C45.1895 130.206 44.8175 130.26 44.4095 130.368C44.0015 130.476 43.6235 130.62 43.2755 130.8V136.47C43.5395 136.626 43.8695 136.758 44.2655 136.866C44.6615 136.962 45.0455 137.01 45.4175 137.01ZM54.8373 138.252C53.4933 138.252 52.4853 137.85 51.8133 137.046C51.1533 136.242 50.8233 135.09 50.8233 133.59C50.8233 132.09 51.1533 130.938 51.8133 130.134C52.4853 129.33 53.4933 128.928 54.8373 128.928C56.1813 128.928 57.1833 129.33 57.8433 130.134C58.5153 130.938 58.8513 132.09 58.8513 133.59C58.8513 135.09 58.5153 136.242 57.8433 137.046C57.1833 137.85 56.1813 138.252 54.8373 138.252ZM54.8373 137.028C55.7133 137.028 56.3373 136.746 56.7093 136.182C57.0933 135.618 57.2853 134.754 57.2853 133.59C57.2853 132.426 57.0933 131.562 56.7093 130.998C56.3373 130.434 55.7133 130.152 54.8373 130.152C53.9613 130.152 53.3313 130.434 52.9473 130.998C52.5753 131.562 52.3893 132.426 52.3893 133.59C52.3893 134.754 52.5753 135.618 52.9473 136.182C53.3313 136.746 53.9613 137.028 54.8373 137.028ZM60.9065 129.18H62.1485L62.2205 129.828C62.6885 129.54 63.1865 129.318 63.7145 129.162C64.2425 129.006 64.7585 128.928 65.2625 128.928C66.2345 128.928 66.9725 129.186 67.4765 129.702C67.9685 130.194 68.2145 130.962 68.2145 132.006V138H66.7205V132.186C66.7205 131.814 66.6845 131.514 66.6125 131.286C66.5525 131.046 66.4445 130.848 66.2885 130.692C65.9885 130.392 65.5145 130.242 64.8665 130.242C64.4705 130.242 64.0505 130.296 63.6065 130.404C63.1625 130.512 62.7605 130.65 62.4005 130.818V138H60.9065V129.18ZM78.2053 138.252C76.8133 138.252 75.7633 137.898 75.0553 137.19C74.2873 136.422 73.9033 135.228 73.9033 133.608C73.9033 132.084 74.2453 130.926 74.9293 130.134C75.6253 129.33 76.5553 128.928 77.7193 128.928C78.9313 128.928 79.8433 129.336 80.4553 130.152C81.0673 130.956 81.3733 132.096 81.3733 133.572V133.914C81.3733 134.046 81.3013 134.112 81.1573 134.112H75.4693C75.4693 135.132 75.7273 135.882 76.2433 136.362C76.4833 136.59 76.7833 136.758 77.1433 136.866C77.5033 136.974 77.9533 137.028 78.4933 137.028C79.2013 137.028 79.9273 136.95 80.6713 136.794L80.8153 137.91C80.4433 138.018 80.0173 138.102 79.5373 138.162C79.0693 138.222 78.6253 138.252 78.2053 138.252ZM79.8973 133.014C79.8733 132.126 79.6813 131.424 79.3213 130.908C78.9613 130.392 78.4273 130.134 77.7193 130.134C76.9873 130.134 76.4293 130.386 76.0453 130.89C75.6733 131.394 75.4813 132.102 75.4693 133.014H79.8973ZM83.4948 125.13H84.9888V138H83.4948V125.13ZM95.3876 138.252C96.3596 138.252 97.0076 138.162 97.8716 137.964L97.6736 136.11C97.1156 136.218 96.4136 136.29 95.8376 136.29C93.9836 136.29 93.2456 135.408 93.2456 133.59C93.2456 132.69 93.4076 132.006 93.8396 131.538C94.2176 131.142 94.8296 130.908 95.6216 130.908C96.3596 130.908 97.1156 131.016 97.6556 131.16L97.8176 129.252C96.9716 129.018 96.0356 128.928 95.2256 128.928C93.7676 128.928 92.4896 129.396 91.6976 130.242C90.9056 131.106 90.5636 132.312 90.5636 133.788C90.5636 134.76 90.7976 135.75 91.2836 136.488C92.2016 137.91 93.8756 138.252 95.3876 138.252ZM99.3456 138H101.92V131.358C102.334 131.196 103.108 131.07 103.594 131.07C104.116 131.07 104.476 131.142 104.71 131.358C104.89 131.538 104.98 131.79 104.98 132.24V138H107.554V131.934C107.554 130.908 107.338 130.134 106.798 129.612C106.312 129.126 105.448 128.928 104.674 128.928C103.828 128.928 102.82 129.144 101.92 129.648V125.13H99.3456V138ZM110.942 127.704H111.068C111.95 127.704 112.418 127.362 112.418 126.48V126.246C112.418 125.364 111.95 125.004 111.068 125.004H110.942C110.06 125.004 109.592 125.364 109.592 126.246V126.48C109.592 127.362 110.06 127.704 110.942 127.704ZM109.718 138H112.292V129.18H109.718V138ZM114.498 142.05H117.072V137.604C117.738 138.018 118.638 138.252 119.43 138.252C121.428 138.252 122.868 137.01 122.868 133.536C122.868 131.898 122.508 130.494 121.68 129.684C121.176 129.198 120.456 128.928 119.574 128.928C118.494 128.928 117.558 129.324 116.802 129.828L116.73 129.18H114.498V142.05ZM118.674 136.218C118.116 136.218 117.486 136.146 117.072 135.966V131.25C117.504 131.124 118.188 131.016 118.602 131.016C119.772 131.016 120.168 131.61 120.168 133.5C120.168 135.624 119.754 136.218 118.674 136.218ZM133.977 142.212L136.551 141.888V129.18H134.427L134.301 129.738C133.563 129.252 132.681 128.928 131.763 128.928C130.755 128.928 129.873 129.306 129.279 129.954C128.559 130.746 128.163 132.042 128.163 133.626C128.163 137.1 129.567 138.252 131.565 138.252C132.411 138.252 133.365 138 133.977 137.658V142.212ZM132.483 136.236C131.403 136.236 130.863 135.732 130.863 133.626C130.863 131.88 131.277 130.98 132.609 130.98C132.951 130.98 133.563 131.088 133.977 131.232V135.948C133.563 136.11 133.041 136.236 132.483 136.236ZM141.529 138.234C142.429 138.234 143.527 138 144.481 137.406L144.553 138H146.785V129.18H144.211V135.84C143.779 135.984 143.059 136.092 142.609 136.092C142.087 136.092 141.727 136.02 141.493 135.804C141.313 135.624 141.223 135.318 141.223 134.868V129.18H138.649V135.228C138.649 136.254 138.865 137.028 139.405 137.55C139.891 138.036 140.755 138.234 141.529 138.234ZM153.343 138.252C154.441 138.252 155.467 138.108 156.313 137.946L156.115 136.074C155.449 136.2 154.549 136.29 153.919 136.29C152.191 136.29 151.273 135.876 151.201 134.382H156.619C156.763 134.382 156.835 134.328 156.835 134.184V133.374C156.835 130.314 155.431 128.928 152.785 128.928C150.085 128.928 148.501 130.512 148.501 133.608C148.501 135.012 148.807 136.272 149.689 137.118C150.445 137.838 151.687 138.252 153.343 138.252ZM151.201 132.708C151.255 131.574 151.723 130.872 152.767 130.872C153.793 130.872 154.315 131.592 154.315 132.708H151.201ZM167.868 142.212L170.442 141.888V129.18H168.318L168.192 129.738C167.454 129.252 166.572 128.928 165.654 128.928C164.646 128.928 163.764 129.306 163.17 129.954C162.45 130.746 162.054 132.042 162.054 133.626C162.054 137.1 163.458 138.252 165.456 138.252C166.302 138.252 167.256 138 167.868 137.658V142.212ZM166.374 136.236C165.294 136.236 164.754 135.732 164.754 133.626C164.754 131.88 165.168 130.98 166.5 130.98C166.842 130.98 167.454 131.088 167.868 131.232V135.948C167.454 136.11 166.932 136.236 166.374 136.236ZM175.42 138.234C176.32 138.234 177.418 138 178.372 137.406L178.444 138H180.676V129.18H178.102V135.84C177.67 135.984 176.95 136.092 176.5 136.092C175.978 136.092 175.618 136.02 175.384 135.804C175.204 135.624 175.114 135.318 175.114 134.868V129.18H172.54V135.228C172.54 136.254 172.756 137.028 173.296 137.55C173.782 138.036 174.646 138.234 175.42 138.234ZM184.12 127.704H184.246C185.128 127.704 185.596 127.362 185.596 126.48V126.246C185.596 125.364 185.128 125.004 184.246 125.004H184.12C183.238 125.004 182.77 125.364 182.77 126.246V126.48C182.77 127.362 183.238 127.704 184.12 127.704ZM182.896 138H185.47V129.18H182.896V138ZM192.068 138.252C193.166 138.252 194.192 138.108 195.038 137.946L194.84 136.074C194.174 136.2 193.274 136.29 192.644 136.29C190.916 136.29 189.998 135.876 189.926 134.382H195.344C195.488 134.382 195.56 134.328 195.56 134.184V133.374C195.56 130.314 194.156 128.928 191.51 128.928C188.81 128.928 187.226 130.512 187.226 133.608C187.226 135.012 187.532 136.272 188.414 137.118C189.17 137.838 190.412 138.252 192.068 138.252ZM189.926 132.708C189.98 131.574 190.448 130.872 191.492 130.872C192.518 130.872 193.04 131.592 193.04 132.708H189.926ZM197.185 138H199.759V131.376C200.317 131.25 200.839 131.16 201.523 131.16C201.937 131.16 202.369 131.196 202.657 131.232V128.982C202.549 128.964 202.351 128.946 202.207 128.946C201.361 128.946 200.191 129.27 199.507 129.9L199.417 129.18H197.185V138ZM206.439 138.252C207.375 138.252 208.329 137.946 209.085 137.46L209.301 138H211.335V132.276C211.335 131.214 211.101 130.458 210.651 129.936C210.039 129.216 208.833 128.928 207.483 128.928C206.421 128.928 205.251 129.072 204.351 129.252L204.477 131.142C205.089 131.016 206.115 130.908 206.943 130.908C207.645 130.908 208.131 130.998 208.437 131.268C208.653 131.466 208.761 131.772 208.761 132.258V132.546H207.357C205.719 132.546 204.747 132.762 204.117 133.356C203.613 133.842 203.343 134.562 203.343 135.354C203.343 137.064 204.423 138.252 206.439 138.252ZM207.177 136.29C206.241 136.29 205.917 135.894 205.917 135.246C205.917 134.922 206.007 134.67 206.169 134.508C206.403 134.274 206.781 134.202 207.393 134.202H208.761V136.02C208.347 136.146 207.663 136.29 207.177 136.29ZM216.307 138.252C218.953 138.252 220.285 137.19 220.285 135.354C220.285 131.7 215.461 133.122 215.461 131.628C215.461 131.124 215.965 130.908 216.883 130.908C217.603 130.908 218.683 131.052 219.601 131.304L219.799 129.414C218.845 129.09 217.747 128.928 216.865 128.928C214.219 128.928 213.031 130.134 213.031 131.772C213.031 135.426 217.837 133.896 217.837 135.462C217.837 136.092 217.225 136.272 216.253 136.272C215.299 136.272 214.075 136.074 213.409 135.858L213.211 137.766C213.913 138.018 215.263 138.252 216.307 138.252Z" fill="black"/>
<path d="M16.1139 64H18.9219V53.722H22.6479L22.8639 51.688H12.2979V53.722H16.1139V64ZM26.1824 64.234C27.0824 64.234 28.1804 64 29.1344 63.406L29.2064 64H31.4384V55.18H28.8644V61.84C28.4324 61.984 27.7124 62.092 27.2624 62.092C26.7404 62.092 26.3804 62.02 26.1464 61.804C25.9664 61.624 25.8764 61.318 25.8764 60.868V55.18H23.3024V61.228C23.3024 62.254 23.5184 63.028 24.0584 63.55C24.5444 64.036 25.4084 64.234 26.1824 64.234ZM42.0214 64.252C42.9934 64.252 43.6414 64.162 44.5054 63.964L44.3074 62.11C43.7494 62.218 43.0474 62.29 42.4714 62.29C40.6174 62.29 39.8794 61.408 39.8794 59.59C39.8794 58.69 40.0414 58.006 40.4734 57.538C40.8514 57.142 41.4634 56.908 42.2554 56.908C42.9934 56.908 43.7494 57.016 44.2894 57.16L44.4514 55.252C43.6054 55.018 42.6694 54.928 41.8594 54.928C40.4014 54.928 39.1234 55.396 38.3314 56.242C37.5394 57.106 37.1974 58.312 37.1974 59.788C37.1974 60.76 37.4314 61.75 37.9174 62.488C38.8354 63.91 40.5094 64.252 42.0214 64.252ZM50.3714 64.252C51.4694 64.252 52.4954 64.108 53.3414 63.946L53.1434 62.074C52.4774 62.2 51.5774 62.29 50.9474 62.29C49.2194 62.29 48.3014 61.876 48.2294 60.382H53.6474C53.7914 60.382 53.8634 60.328 53.8634 60.184V59.374C53.8634 56.314 52.4594 54.928 49.8134 54.928C47.1134 54.928 45.5294 56.512 45.5294 59.608C45.5294 61.012 45.8354 62.272 46.7174 63.118C47.4734 63.838 48.7154 64.252 50.3714 64.252ZM48.2294 58.708C48.2834 57.574 48.7514 56.872 49.7954 56.872C50.8214 56.872 51.3434 57.592 51.3434 58.708H48.2294ZM55.5432 64H58.1172V51.13H55.5432V64ZM63.1492 64.234C64.0492 64.234 65.1472 64 66.1012 63.406L66.1732 64H68.4052V55.18H65.8312V61.84C65.3992 61.984 64.6792 62.092 64.2292 62.092C63.7072 62.092 63.3472 62.02 63.1132 61.804C62.9332 61.624 62.8432 61.318 62.8432 60.868V55.18H60.2692V61.228C60.2692 62.254 60.4852 63.028 61.0252 63.55C61.5112 64.036 62.3752 64.234 63.1492 64.234ZM70.6252 64H73.1992V51.13H70.6252V64ZM77.9612 64.252C78.8972 64.252 79.8512 63.946 80.6072 63.46L80.8232 64H82.8572V58.276C82.8572 57.214 82.6232 56.458 82.1732 55.936C81.5612 55.216 80.3552 54.928 79.0052 54.928C77.9432 54.928 76.7732 55.072 75.8732 55.252L75.9992 57.142C76.6112 57.016 77.6372 56.908 78.4652 56.908C79.1672 56.908 79.6532 56.998 79.9592 57.268C80.1752 57.466 80.2832 57.772 80.2832 58.258V58.546H78.8792C77.2412 58.546 76.2692 58.762 75.6392 59.356C75.1352 59.842 74.8652 60.562 74.8652 61.354C74.8652 63.064 75.9452 64.252 77.9612 64.252ZM78.6992 62.29C77.7632 62.29 77.4392 61.894 77.4392 61.246C77.4392 60.922 77.5292 60.67 77.6912 60.508C77.9252 60.274 78.3032 60.202 78.9152 60.202H80.2832V62.02C79.8692 62.146 79.1852 62.29 78.6992 62.29ZM84.9677 64H87.5417V57.376C88.0997 57.25 88.6217 57.16 89.3057 57.16C89.7197 57.16 90.1517 57.196 90.4397 57.232V54.982C90.3317 54.964 90.1337 54.946 89.9897 54.946C89.1437 54.946 87.9737 55.27 87.2897 55.9L87.1997 55.18H84.9677V64ZM98.7106 64.252C101.357 64.252 102.689 63.19 102.689 61.354C102.689 57.7 97.8646 59.122 97.8646 57.628C97.8646 57.124 98.3686 56.908 99.2866 56.908C100.007 56.908 101.087 57.052 102.005 57.304L102.203 55.414C101.249 55.09 100.151 54.928 99.2686 54.928C96.6226 54.928 95.4346 56.134 95.4346 57.772C95.4346 61.426 100.241 59.896 100.241 61.462C100.241 62.092 99.6286 62.272 98.6566 62.272C97.7026 62.272 96.4786 62.074 95.8126 61.858L95.6146 63.766C96.3166 64.018 97.6666 64.252 98.7106 64.252ZM105.67 53.704H105.796C106.678 53.704 107.146 53.362 107.146 52.48V52.246C107.146 51.364 106.678 51.004 105.796 51.004H105.67C104.788 51.004 104.32 51.364 104.32 52.246V52.48C104.32 53.362 104.788 53.704 105.67 53.704ZM104.446 64H107.02V55.18H104.446V64ZM109.226 64H111.8V57.358C112.214 57.196 112.988 57.07 113.474 57.07C113.996 57.07 114.356 57.142 114.59 57.358C114.77 57.538 114.86 57.79 114.86 58.24V64H117.434V57.934C117.434 56.908 117.218 56.134 116.678 55.612C116.192 55.126 115.328 54.928 114.554 54.928C113.618 54.928 112.484 55.18 111.512 55.81L111.458 55.18H109.226V64ZM123.587 68.05H126.161V63.604C126.827 64.018 127.727 64.252 128.519 64.252C130.517 64.252 131.957 63.01 131.957 59.536C131.957 57.898 131.597 56.494 130.769 55.684C130.265 55.198 129.545 54.928 128.663 54.928C127.583 54.928 126.647 55.324 125.891 55.828L125.819 55.18H123.587V68.05ZM127.763 62.218C127.205 62.218 126.575 62.146 126.161 61.966V57.25C126.593 57.124 127.277 57.016 127.691 57.016C128.861 57.016 129.257 57.61 129.257 59.5C129.257 61.624 128.843 62.218 127.763 62.218ZM133.713 64H136.287V51.13H133.713V64ZM141.049 64.252C141.985 64.252 142.939 63.946 143.695 63.46L143.911 64H145.945V58.276C145.945 57.214 145.711 56.458 145.261 55.936C144.649 55.216 143.443 54.928 142.093 54.928C141.031 54.928 139.861 55.072 138.961 55.252L139.087 57.142C139.699 57.016 140.725 56.908 141.553 56.908C142.255 56.908 142.741 56.998 143.047 57.268C143.263 57.466 143.371 57.772 143.371 58.258V58.546H141.967C140.329 58.546 139.357 58.762 138.727 59.356C138.223 59.842 137.953 60.562 137.953 61.354C137.953 63.064 139.033 64.252 141.049 64.252ZM141.787 62.29C140.851 62.29 140.527 61.894 140.527 61.246C140.527 60.922 140.617 60.67 140.779 60.508C141.013 60.274 141.391 60.202 142.003 60.202H143.371V62.02C142.957 62.146 142.273 62.29 141.787 62.29ZM148.056 64H150.63V57.358C151.044 57.196 151.818 57.07 152.304 57.07C152.826 57.07 153.186 57.142 153.42 57.358C153.6 57.538 153.69 57.79 153.69 58.24V64H156.264V57.934C156.264 56.908 156.048 56.134 155.508 55.612C155.022 55.126 154.158 54.928 153.384 54.928C152.448 54.928 151.314 55.18 150.342 55.81L150.288 55.18H148.056V64ZM166.503 64.252C165.087 64.252 164.019 63.886 163.299 63.154C162.519 62.35 162.129 61.198 162.129 59.698C162.129 58.15 162.513 56.962 163.281 56.134C164.037 55.33 165.117 54.928 166.521 54.928C167.241 54.928 167.943 55.018 168.627 55.198L168.537 56.35C167.793 56.206 167.181 56.134 166.701 56.134C165.681 56.134 164.925 56.428 164.433 57.016C163.941 57.604 163.695 58.492 163.695 59.68C163.695 60.796 163.941 61.636 164.433 62.2C164.913 62.752 165.693 63.028 166.773 63.028C167.061 63.028 167.379 63.01 167.727 62.974C168.075 62.938 168.369 62.896 168.609 62.848L168.717 63.964C168.429 64.048 168.069 64.114 167.637 64.162C167.205 64.222 166.827 64.252 166.503 64.252ZM174.141 64.252C172.797 64.252 171.789 63.85 171.117 63.046C170.457 62.242 170.127 61.09 170.127 59.59C170.127 58.09 170.457 56.938 171.117 56.134C171.789 55.33 172.797 54.928 174.141 54.928C175.485 54.928 176.487 55.33 177.147 56.134C177.819 56.938 178.155 58.09 178.155 59.59C178.155 61.09 177.819 62.242 177.147 63.046C176.487 63.85 175.485 64.252 174.141 64.252ZM174.141 63.028C175.017 63.028 175.641 62.746 176.013 62.182C176.397 61.618 176.589 60.754 176.589 59.59C176.589 58.426 176.397 57.562 176.013 56.998C175.641 56.434 175.017 56.152 174.141 56.152C173.265 56.152 172.635 56.434 172.251 56.998C171.879 57.562 171.693 58.426 171.693 59.59C171.693 60.754 171.879 61.618 172.251 62.182C172.635 62.746 173.265 63.028 174.141 63.028ZM180.21 55.18H181.452L181.524 55.828C181.992 55.54 182.49 55.318 183.018 55.162C183.546 55.006 184.062 54.928 184.566 54.928C185.538 54.928 186.276 55.186 186.78 55.702C187.272 56.194 187.518 56.962 187.518 58.006V64H186.024V58.186C186.024 57.814 185.988 57.514 185.916 57.286C185.856 57.046 185.748 56.848 185.592 56.692C185.292 56.392 184.818 56.242 184.17 56.242C183.774 56.242 183.354 56.296 182.91 56.404C182.466 56.512 182.064 56.65 181.704 56.818V64H180.21V55.18ZM193.675 51.13H195.169V55.738C196.153 55.198 197.107 54.928 198.031 54.928C199.003 54.928 199.741 55.186 200.245 55.702C200.737 56.194 200.983 56.962 200.983 58.006V64H199.489V58.186C199.489 57.814 199.453 57.514 199.381 57.286C199.321 57.046 199.213 56.848 199.057 56.692C198.757 56.392 198.283 56.242 197.635 56.242C197.239 56.242 196.819 56.296 196.375 56.404C195.931 56.512 195.529 56.65 195.169 56.818V64H193.675V51.13ZM206.004 64.252C205.008 64.252 204.24 63.97 203.7 63.406C203.232 62.914 202.998 62.278 202.998 61.498C202.998 60.694 203.25 60.058 203.754 59.59C204.366 59.026 205.362 58.744 206.742 58.744H208.578V58.186C208.578 57.826 208.542 57.526 208.47 57.286C208.398 57.046 208.284 56.848 208.128 56.692C207.768 56.344 207.156 56.17 206.292 56.17C205.572 56.17 204.78 56.242 203.916 56.386L203.862 55.234C204.714 55.03 205.608 54.928 206.544 54.928C207.804 54.928 208.722 55.198 209.298 55.738C209.574 56.002 209.772 56.326 209.892 56.71C210.012 57.082 210.072 57.556 210.072 58.132V64H208.866L208.776 63.406C207.912 63.97 206.988 64.252 206.004 64.252ZM206.328 63.046C206.676 63.046 207.054 62.992 207.462 62.884C207.87 62.776 208.242 62.638 208.578 62.47V59.842H206.958C206.034 59.842 205.38 59.992 204.996 60.292C204.672 60.556 204.51 60.946 204.51 61.462C204.51 61.99 204.666 62.386 204.978 62.65C205.29 62.914 205.74 63.046 206.328 63.046ZM214.876 64.252C214.456 64.252 214 64.216 213.508 64.144C213.028 64.072 212.62 63.982 212.284 63.874L212.356 62.722C212.716 62.818 213.118 62.896 213.562 62.956C214.018 63.016 214.438 63.046 214.822 63.046C215.542 63.046 216.088 62.932 216.46 62.704C216.844 62.464 217.036 62.116 217.036 61.66C217.036 61.276 216.874 60.988 216.55 60.796C216.226 60.604 215.716 60.4 215.02 60.184C214.396 59.98 213.892 59.794 213.508 59.626C213.136 59.446 212.812 59.182 212.536 58.834C212.26 58.486 212.122 58.03 212.122 57.466C212.122 56.638 212.41 56.008 212.986 55.576C213.574 55.144 214.354 54.928 215.326 54.928C215.758 54.928 216.202 54.964 216.658 55.036C217.126 55.108 217.54 55.198 217.9 55.306L217.774 56.404C216.934 56.212 216.16 56.116 215.452 56.116C214.168 56.116 213.526 56.53 213.526 57.358C213.526 57.754 213.688 58.054 214.012 58.258C214.348 58.462 214.864 58.672 215.56 58.888C216.16 59.068 216.652 59.248 217.036 59.428C217.432 59.608 217.762 59.872 218.026 60.22C218.302 60.556 218.44 61 218.44 61.552C218.44 62.452 218.122 63.13 217.486 63.586C216.85 64.03 215.98 64.252 214.876 64.252ZM223.612 64.252C223.18 64.252 222.79 64.192 222.442 64.072C222.106 63.964 221.842 63.796 221.65 63.568C221.434 63.316 221.284 63.028 221.2 62.704C221.128 62.38 221.092 61.936 221.092 61.372V56.278H219.49V55.432L221.092 55.198V53.11C221.632 52.93 222.13 52.84 222.586 52.84V55.18H224.908V56.278H222.586V61.174C222.586 61.618 222.604 61.954 222.64 62.182C222.688 62.41 222.772 62.59 222.892 62.722C223.096 62.95 223.474 63.064 224.026 63.064C224.458 63.064 224.902 63.016 225.358 62.92L225.43 64.018C224.854 64.174 224.248 64.252 223.612 64.252ZM229.664 64.252C228.668 64.252 227.9 63.97 227.36 63.406C226.892 62.914 226.658 62.278 226.658 61.498C226.658 60.694 226.91 60.058 227.414 59.59C228.026 59.026 229.022 58.744 230.402 58.744H232.238V58.186C232.238 57.826 232.202 57.526 232.13 57.286C232.058 57.046 231.944 56.848 231.788 56.692C231.428 56.344 230.816 56.17 229.952 56.17C229.232 56.17 228.44 56.242 227.576 56.386L227.522 55.234C228.374 55.03 229.268 54.928 230.204 54.928C231.464 54.928 232.382 55.198 232.958 55.738C233.234 56.002 233.432 56.326 233.552 56.71C233.672 57.082 233.732 57.556 233.732 58.132V64H232.526L232.436 63.406C231.572 63.97 230.648 64.252 229.664 64.252ZM229.988 63.046C230.336 63.046 230.714 62.992 231.122 62.884C231.53 62.776 231.902 62.638 232.238 62.47V59.842H230.618C229.694 59.842 229.04 59.992 228.656 60.292C228.332 60.556 228.17 60.946 228.17 61.462C228.17 61.99 228.326 62.386 228.638 62.65C228.95 62.914 229.4 63.046 229.988 63.046Z" fill="black"/>
<rect x="72" y="2.80225" width="102" height="15.6923" fill="#DF357D"/>
<path d="M80.7292 14H82.2892V11.64H83.3892C84.2892 11.64 84.9092 11.43 85.3092 10.98C85.6492 10.6 85.8192 10.05 85.8192 9.32C85.8192 8.59 85.6392 8.06 85.2692 7.72C84.8292 7.31 84.1492 7.16 83.0792 7.16H80.7292V14ZM82.2892 10.47V8.29H83.0192C83.4992 8.29 83.7892 8.36 83.9792 8.53C84.1592 8.7 84.2392 8.97 84.2392 9.34C84.2392 9.74 84.1492 10.03 83.9692 10.21C83.7692 10.4 83.5592 10.47 83.0592 10.47H82.2892ZM89.6606 14.14C91.7506 14.14 92.6906 12.9 92.6906 10.59C92.6906 8.28 91.7506 7.03 89.6606 7.03C87.5706 7.03 86.6306 8.28 86.6306 10.59C86.6306 12.9 87.5706 14.14 89.6606 14.14ZM89.6606 12.92C88.6506 12.92 88.2506 12.24 88.2506 10.59C88.2506 8.94 88.6506 8.25 89.6606 8.25C90.6706 8.25 91.0706 8.94 91.0706 10.59C91.0706 12.24 90.6706 12.92 89.6606 12.92ZM93.8835 14H95.4435V11.52H96.3035L97.5635 14H99.3235L97.8435 11.31C98.6135 10.95 99.0035 10.21 99.0035 9.28C99.0035 8.56 98.7835 8.04 98.4335 7.71C97.9835 7.29 97.3335 7.16 96.2335 7.16H93.8835V14ZM95.4435 10.39V8.29H96.1435C96.6535 8.29 96.9835 8.35 97.1835 8.54C97.3435 8.7 97.4235 8.95 97.4235 9.3C97.4235 9.68 97.3335 9.98 97.1335 10.15C96.9335 10.32 96.6535 10.39 96.1335 10.39H95.4435ZM102.614 14H104.174V11.64H105.274C106.174 11.64 106.794 11.43 107.194 10.98C107.534 10.6 107.704 10.05 107.704 9.32C107.704 8.59 107.524 8.06 107.154 7.72C106.714 7.31 106.034 7.16 104.964 7.16H102.614V14ZM104.174 10.47V8.29H104.904C105.384 8.29 105.674 8.36 105.864 8.53C106.044 8.7 106.124 8.97 106.124 9.34C106.124 9.74 106.034 10.03 105.854 10.21C105.654 10.4 105.444 10.47 104.944 10.47H104.174ZM111.545 14.14C113.635 14.14 114.575 12.9 114.575 10.59C114.575 8.28 113.635 7.03 111.545 7.03C109.455 7.03 108.515 8.28 108.515 10.59C108.515 12.9 109.455 14.14 111.545 14.14ZM111.545 12.92C110.535 12.92 110.135 12.24 110.135 10.59C110.135 8.94 110.535 8.25 111.545 8.25C112.555 8.25 112.955 8.94 112.955 10.59C112.955 12.24 112.555 12.92 111.545 12.92ZM118.788 14.14C119.348 14.14 120.098 14.05 120.508 13.93L120.348 12.79C119.948 12.87 119.418 12.93 119.088 12.93C118.318 12.93 117.888 12.78 117.588 12.44C117.248 12.06 117.098 11.38 117.098 10.57C117.098 9.21 117.438 8.24 118.908 8.24C119.338 8.24 119.848 8.33 120.378 8.48L120.578 7.34C120.138 7.16 119.378 7.03 118.788 7.03C116.448 7.03 115.478 8.47 115.478 10.61C115.478 11.8 115.728 12.69 116.308 13.31C116.818 13.85 117.578 14.14 118.788 14.14ZM124.397 14.14C126.487 14.14 127.427 12.9 127.427 10.59C127.427 8.28 126.487 7.03 124.397 7.03C122.307 7.03 121.367 8.28 121.367 10.59C121.367 12.9 122.307 14.14 124.397 14.14ZM124.397 12.92C123.387 12.92 122.987 12.24 122.987 10.59C122.987 8.94 123.387 8.25 124.397 8.25C125.407 8.25 125.807 8.94 125.807 10.59C125.807 12.24 125.407 12.92 124.397 12.92ZM132.386 14H133.946V8.29H136.016L136.136 7.16H130.266V8.29H132.386V14ZM136.97 14H138.53V7.16H136.97V14ZM140.026 14H144.696V12.87H141.586V11.12H143.936V9.95H141.586V8.29H144.526L144.646 7.16H140.026V14ZM145.856 14H147.166V10.02L148.626 12.44H149.826L151.246 10.06V14H152.676V7.16H151.476L149.246 10.98L147.086 7.16H145.856V14ZM154.157 14H155.717V11.64H156.817C157.717 11.64 158.337 11.43 158.737 10.98C159.077 10.6 159.247 10.05 159.247 9.32C159.247 8.59 159.067 8.06 158.697 7.72C158.257 7.31 157.577 7.16 156.507 7.16H154.157V14ZM155.717 10.47V8.29H156.447C156.927 8.29 157.217 8.36 157.407 8.53C157.587 8.7 157.667 8.97 157.667 9.34C157.667 9.74 157.577 10.03 157.397 10.21C157.197 10.4 156.987 10.47 156.487 10.47H155.717ZM163.088 14.14C165.178 14.14 166.118 12.9 166.118 10.59C166.118 8.28 165.178 7.03 163.088 7.03C160.998 7.03 160.058 8.28 160.058 10.59C160.058 12.9 160.998 14.14 163.088 14.14ZM163.088 12.92C162.078 12.92 161.678 12.24 161.678 10.59C161.678 8.94 162.078 8.25 163.088 8.25C164.098 8.25 164.498 8.94 164.498 10.59C164.498 12.24 164.098 12.92 163.088 12.92Z" fill="white"/>
<path d="M104.75 117.614C105.541 117.614 106.555 117.305 107.242 116.858L107.345 117.373H108.513V105.087H107.087V109.314C106.417 108.936 105.575 108.713 104.853 108.713C102.654 108.713 101.365 110.431 101.365 113.215C101.365 116.136 102.602 117.614 104.75 117.614ZM105.145 116.445C103.633 116.445 102.86 115.449 102.86 113.232C102.86 111.256 103.427 109.916 105.145 109.916C105.713 109.916 106.469 110.088 107.087 110.328V115.947C106.486 116.239 105.747 116.445 105.145 116.445ZM113.845 117.614C114.463 117.614 115.134 117.511 115.58 117.39L115.512 116.342C115.099 116.428 114.532 116.48 114.24 116.48C113.639 116.48 113.347 116.359 113.158 116.153C112.917 115.896 112.865 115.483 112.865 114.676V110.002H115.082V108.954H112.865V106.72C112.419 106.72 111.852 106.84 111.439 106.977V108.971L109.91 109.194V110.002H111.439V114.865C111.439 115.913 111.56 116.48 111.972 116.961C112.35 117.39 113.02 117.614 113.845 117.614ZM120.585 117.614C123.197 117.614 124.417 115.964 124.417 113.163C124.417 110.363 123.197 108.713 120.585 108.713C117.973 108.713 116.753 110.363 116.753 113.163C116.753 115.964 117.973 117.614 120.585 117.614ZM120.585 116.445C118.866 116.445 118.248 115.311 118.248 113.163C118.248 111.016 118.866 109.881 120.585 109.881C122.303 109.881 122.922 111.016 122.922 113.163C122.922 115.311 122.303 116.445 120.585 116.445ZM127.066 117.614H127.186C127.702 117.614 128.045 117.356 128.045 116.686V116.617C128.045 115.947 127.702 115.689 127.186 115.689H127.066C126.55 115.689 126.207 115.947 126.207 116.617V116.686C126.207 117.356 126.55 117.614 127.066 117.614Z" fill="#019DF4"/>
<path d="M104.444 92.9061C107.808 92.9061 109.491 90.8034 109.491 87.0466C109.491 83.3179 107.808 81.2152 104.444 81.2152C101.08 81.2152 99.4538 83.3179 99.4538 87.0466C99.4538 90.8034 101.08 92.9061 104.444 92.9061ZM105.201 101.149H108.649L118.883 81.2152H115.434L105.201 101.149ZM104.444 90.2427C103.07 90.2427 102.706 89.0933 102.706 87.0466C102.706 85.0281 103.07 83.8786 104.444 83.8786C105.818 83.8786 106.21 85.0281 106.21 87.0466C106.21 89.0933 105.818 90.2427 104.444 90.2427ZM119.639 101.149C123.004 101.149 124.658 99.0459 124.658 95.3172C124.658 91.5604 123.004 89.4577 119.639 89.4577C116.275 89.4577 114.621 91.5604 114.621 95.3172C114.621 99.0459 116.275 101.149 119.639 101.149ZM119.639 98.4852C118.238 98.4852 117.901 97.3357 117.901 95.3172C117.901 93.2706 118.238 92.1211 119.639 92.1211C121.013 92.1211 121.406 93.2706 121.406 95.3172C121.406 97.3357 121.013 98.4852 119.639 98.4852Z" fill="#019DF4"/>
<path d="M43.8133 118.937C54.4542 118.937 60.0089 113.115 60.0089 102.942C60.0089 93.7735 55.2573 88.6873 47.0926 88.6873C43.9472 88.6873 40.1994 89.4235 37.1879 91.0297C37.3217 86.4119 38.0579 83.2665 40.0656 81.2588C41.8725 79.4518 44.6164 78.8495 49.0334 78.8495C51.4427 78.8495 53.9189 79.1172 56.2612 79.5187V72.224C53.1827 71.6886 50.1042 71.354 46.8249 71.354C40.7348 71.354 36.4517 72.6925 33.3732 75.771C29.3578 79.7864 27.1493 86.6127 27.1493 97.2536C27.1493 111.107 31.5663 118.937 43.8133 118.937ZM44.0141 111.642C38.794 111.642 37.054 107.894 37.054 99.1275V96.5843C38.9279 96.1828 41.8056 95.9151 43.7464 95.9151C48.6319 95.9151 50.5057 97.4544 50.5057 103.277C50.5057 108.831 48.2972 111.642 44.0141 111.642ZM78.5207 118.937C91.2363 118.937 96.0548 110.839 96.0548 95.1789C96.0548 79.5187 91.2363 71.354 78.5207 71.354C65.8052 71.354 60.9866 79.5187 60.9866 95.1789C60.9866 110.839 65.8052 118.937 78.5207 118.937ZM78.5207 111.241C73.0999 111.241 70.9583 107.828 70.9583 95.1789C70.9583 82.5303 73.0999 78.381 78.5207 78.381C83.9415 78.381 86.0831 82.5303 86.0831 95.1789C86.0831 107.828 83.9415 111.241 78.5207 111.241Z" fill="#019DF4"/>
<path d="M214.042 117.646H148.567C145.605 117.646 143.191 115.238 143.191 112.26V103.357C143.191 100.389 145.595 97.9717 148.567 97.9717H214.042C217.003 97.9717 219.418 100.379 219.418 103.357V112.26C219.418 115.228 217.013 117.646 214.042 117.646Z" fill="white"/>
<path d="M218.029 106.495H144.588C141.627 106.495 139.213 104.225 139.213 101.424V81.8284C139.213 79.0277 141.617 76.7576 144.588 76.7576H218.029C220.991 76.7576 223.405 79.0277 223.405 81.8284V101.414C223.395 104.215 220.991 106.495 218.029 106.495Z" fill="#019DF4"/>
<path d="M142.721 94.8005H144.95C145.653 94.8005 146.24 94.8595 146.699 94.9873C147.159 95.115 147.54 95.3214 147.833 95.6162C148.419 96.1862 148.713 97.1099 148.713 98.3875C148.713 99.0459 148.644 99.5962 148.498 100.058C148.351 100.52 148.136 100.903 147.843 101.218C147.579 101.493 147.227 101.699 146.797 101.827C146.367 101.955 145.829 102.024 145.184 102.024H142.741L142.721 94.8005ZM145.057 100.825C145.8 100.825 146.318 100.608 146.611 100.176C146.748 99.9696 146.856 99.724 146.904 99.4586C146.963 99.1933 146.992 98.8297 146.992 98.3776C146.992 97.8666 146.953 97.4735 146.875 97.1984C146.797 96.9134 146.67 96.6775 146.484 96.481C146.318 96.3139 146.113 96.1862 145.859 96.1174C145.604 96.0486 145.272 96.0093 144.871 96.0093H144.363V100.834L145.057 100.825Z" fill="white"/>
<path d="M151.069 102.004C150.707 101.886 150.414 101.729 150.189 101.512C149.72 101.07 149.495 100.382 149.495 99.4486C149.495 98.5445 149.71 97.8665 150.15 97.3948C150.59 96.9329 151.206 96.697 152.007 96.697C152.799 96.697 153.385 96.9132 153.786 97.3358C154.187 97.7584 154.382 98.4168 154.382 99.3111V99.7828C154.382 99.8614 154.343 99.9007 154.255 99.9007H151.078C151.098 100.323 151.235 100.618 151.489 100.775C151.743 100.933 152.134 101.021 152.672 101.021C153.082 101.021 153.512 100.982 153.962 100.893L154.079 101.994C153.454 102.112 152.867 102.171 152.339 102.171C151.851 102.181 151.43 102.122 151.069 102.004ZM152.896 98.918C152.896 98.574 152.818 98.3185 152.662 98.122C152.505 97.9352 152.281 97.837 151.987 97.837C151.411 97.837 151.108 98.2006 151.069 98.918H152.896Z" fill="white"/>
<path d="M155.3 94.4663H156.815V102.023H155.3V94.4663Z" fill="white"/>
<path d="M158.213 95.8126C158.086 95.6947 158.017 95.5178 158.017 95.2623V95.1247C158.017 94.8692 158.086 94.6825 158.213 94.5646C158.34 94.4467 158.545 94.3877 158.809 94.3877H158.887C159.151 94.3877 159.356 94.4467 159.483 94.5646C159.61 94.6825 159.679 94.8692 159.679 95.1247V95.2623C159.679 95.5178 159.61 95.7045 159.483 95.8126C159.356 95.9306 159.151 95.9797 158.887 95.9797H158.809C158.545 95.9797 158.34 95.9306 158.213 95.8126ZM158.086 96.8445H159.601V102.023H158.086V96.8445Z" fill="white"/>
<path d="M160.314 96.8445H161.936L163.09 100.441L164.184 96.8445H165.699L163.921 102.023H162.171L160.314 96.8445Z" fill="white"/>
<path d="M167.586 102.004C167.224 101.886 166.931 101.729 166.706 101.512C166.237 101.07 166.012 100.382 166.012 99.4486C166.012 98.5445 166.227 97.8665 166.667 97.3948C167.107 96.9329 167.723 96.697 168.524 96.697C169.316 96.697 169.902 96.9132 170.303 97.3358C170.704 97.7584 170.899 98.4168 170.899 99.3111V99.7828C170.899 99.8614 170.86 99.9007 170.772 99.9007H167.596C167.615 100.323 167.752 100.618 168.006 100.775C168.26 100.933 168.651 101.021 169.189 101.021C169.599 101.021 170.029 100.982 170.479 100.893L170.596 101.994C169.971 102.112 169.384 102.171 168.856 102.171C168.368 102.181 167.957 102.122 167.586 102.004ZM169.423 98.918C169.423 98.574 169.345 98.3185 169.189 98.122C169.032 97.9352 168.808 97.837 168.514 97.837C167.938 97.837 167.635 98.2006 167.596 98.918H169.423Z" fill="white"/>
<path d="M171.798 96.8446H173.108L173.167 97.2672C173.352 97.0903 173.597 96.9527 173.9 96.8544C174.203 96.7562 174.476 96.707 174.75 96.707C174.838 96.707 174.926 96.7169 175.014 96.7267V98.0435C174.789 98.014 174.564 98.0042 174.349 98.0042C174.037 98.0042 173.685 98.0435 173.313 98.132V102.024H171.798V96.8446Z" fill="white"/>
<path d="M176.793 104.421L176.686 103.301C177.116 103.38 177.507 103.419 177.868 103.419C178.054 103.419 178.23 103.399 178.386 103.36C178.543 103.321 178.66 103.262 178.738 103.183C178.904 103.026 178.992 102.741 178.992 102.348V101.719C178.748 101.856 178.484 101.965 178.191 102.033C177.907 102.102 177.634 102.141 177.36 102.141C177.116 102.141 176.891 102.112 176.676 102.043C176.461 101.974 176.285 101.876 176.158 101.739C176.001 101.581 175.884 101.395 175.816 101.188C175.738 100.982 175.708 100.726 175.708 100.432V96.8643H177.223V100.215C177.223 100.451 177.282 100.628 177.38 100.736C177.448 100.795 177.536 100.844 177.634 100.864C177.731 100.884 177.859 100.903 178.025 100.903C178.162 100.903 178.328 100.884 178.523 100.844C178.709 100.805 178.875 100.756 178.992 100.717V96.8643H180.507V101.817C180.507 102.456 180.439 102.977 180.302 103.37C180.165 103.763 179.911 104.068 179.569 104.264C179.217 104.461 178.738 104.569 178.122 104.569C177.653 104.559 177.213 104.51 176.793 104.421Z" fill="white"/>
<path d="M184.191 94.8005H189.069L188.942 95.9995H185.843V97.7585H188.326V98.9968H185.843V100.844H189.127V102.043H184.201V94.8005H184.191Z" fill="white"/>
<path d="M191.424 99.4782L189.558 96.8445H191.278L192.392 98.407L193.233 96.8445H194.875L193.096 99.3996L194.953 102.023H193.194L192.118 100.471L191.268 102.023H189.587L191.424 99.4782Z" fill="white"/>
<path d="M195.637 96.8444H196.947L196.986 97.2277C197.514 96.8739 198.051 96.697 198.608 96.697C199.116 96.697 199.537 96.8444 199.84 97.1392C200.074 97.3751 200.25 97.6797 200.358 98.0728C200.475 98.4561 200.534 98.9081 200.534 99.4093C200.534 100.382 200.358 101.09 199.996 101.522C199.635 101.964 199.146 102.181 198.52 102.181C198.286 102.181 198.051 102.151 197.797 102.082C197.553 102.014 197.328 101.925 197.142 101.807V104.421H195.627L195.637 96.8444ZM198.598 100.834C198.726 100.736 198.813 100.579 198.872 100.353C198.931 100.127 198.96 99.8024 198.96 99.3897C198.96 99.0162 198.931 98.7214 198.872 98.5151C198.813 98.3087 198.726 98.1514 198.589 98.063C198.452 97.9746 198.276 97.9352 198.041 97.9352C197.924 97.9352 197.777 97.9549 197.602 97.9746C197.426 98.004 197.279 98.0335 197.152 98.0728V100.844C197.377 100.942 197.689 100.992 198.09 100.992C198.305 100.982 198.471 100.933 198.598 100.834Z" fill="white"/>
<path d="M201.491 96.8446H202.801L202.86 97.2672C203.046 97.0903 203.29 96.9527 203.593 96.8544C203.896 96.7562 204.17 96.707 204.443 96.707C204.531 96.707 204.619 96.7169 204.707 96.7267V98.0435C204.482 98.014 204.257 98.0042 204.042 98.0042C203.73 98.0042 203.378 98.0435 203.006 98.132V102.024H201.491V96.8446Z" fill="white"/>
<path d="M206.721 102.004C206.359 101.886 206.066 101.729 205.841 101.512C205.372 101.07 205.147 100.382 205.147 99.4486C205.147 98.5445 205.362 97.8665 205.802 97.3948C206.242 96.9329 206.857 96.697 207.659 96.697C208.451 96.697 209.037 96.9132 209.438 97.3358C209.838 97.7584 210.034 98.4168 210.034 99.3111V99.7828C210.034 99.8614 209.995 99.9007 209.907 99.9007H206.73C206.75 100.323 206.887 100.618 207.141 100.775C207.395 100.933 207.786 101.021 208.323 101.021C208.734 101.021 209.164 100.982 209.614 100.893L209.731 101.994C209.105 102.112 208.519 102.171 207.991 102.171C207.502 102.181 207.082 102.122 206.721 102.004ZM208.548 98.918C208.548 98.574 208.47 98.3185 208.314 98.122C208.157 97.9352 207.933 97.837 207.639 97.837C207.063 97.837 206.76 98.2006 206.721 98.918H208.548Z" fill="white"/>
<path d="M211.637 102.092C211.285 102.033 211.002 101.964 210.797 101.896L210.914 100.775C211.119 100.834 211.383 100.893 211.696 100.942C212.018 100.992 212.312 101.021 212.576 101.021C212.879 101.021 213.113 100.982 213.27 100.913C213.426 100.844 213.504 100.716 213.504 100.539C213.504 100.382 213.426 100.264 213.27 100.196C213.113 100.127 212.869 100.068 212.527 99.999C212.146 99.9302 211.833 99.8516 211.588 99.7631C211.344 99.6747 211.129 99.5273 210.953 99.3012C210.777 99.0752 210.679 98.7706 210.679 98.3676C210.679 97.8566 210.865 97.4537 211.246 97.1491C211.618 96.8444 212.185 96.697 212.927 96.697C213.191 96.697 213.475 96.7167 213.778 96.7756C214.081 96.8248 214.364 96.8936 214.648 96.982L214.53 98.0925C214.266 98.0237 213.993 97.9647 213.7 97.9254C213.406 97.8861 213.152 97.8665 212.937 97.8665C212.38 97.8665 212.106 98.004 212.106 98.289C212.106 98.4364 212.185 98.5445 212.331 98.6133C212.478 98.6821 212.722 98.7509 213.064 98.8197C213.436 98.8885 213.748 98.9769 214.003 99.0654C214.257 99.1538 214.472 99.3111 214.657 99.5371C214.843 99.7631 214.931 100.078 214.931 100.48C214.931 101.021 214.736 101.444 214.345 101.738C213.954 102.033 213.367 102.181 212.605 102.181C212.312 102.181 211.979 102.151 211.637 102.092Z" fill="white"/>
<path d="M216.592 102.092C216.24 102.033 215.956 101.964 215.751 101.896L215.868 100.775C216.074 100.834 216.338 100.893 216.65 100.942C216.973 100.992 217.266 101.021 217.53 101.021C217.833 101.021 218.067 100.982 218.224 100.913C218.38 100.844 218.458 100.716 218.458 100.539C218.458 100.382 218.38 100.264 218.224 100.196C218.067 100.127 217.823 100.068 217.481 99.999C217.1 99.9302 216.787 99.8516 216.543 99.7631C216.298 99.6747 216.083 99.5273 215.907 99.3012C215.732 99.0752 215.634 98.7706 215.634 98.3676C215.634 97.8566 215.819 97.4537 216.201 97.1491C216.572 96.8444 217.139 96.697 217.882 96.697C218.146 96.697 218.429 96.7167 218.732 96.7756C219.035 96.8248 219.319 96.8936 219.602 96.982L219.485 98.0925C219.221 98.0237 218.947 97.9647 218.654 97.9254C218.361 97.8861 218.107 97.8665 217.892 97.8665C217.334 97.8665 217.061 98.004 217.061 98.289C217.061 98.4364 217.139 98.5445 217.286 98.6133C217.432 98.6821 217.677 98.7509 218.019 98.8197C218.39 98.8885 218.703 98.9769 218.957 99.0654C219.211 99.1538 219.426 99.3111 219.612 99.5371C219.797 99.7631 219.885 100.078 219.885 100.48C219.885 101.021 219.69 101.444 219.299 101.738C218.908 102.033 218.322 102.181 217.559 102.181C217.266 102.181 216.943 102.151 216.592 102.092Z" fill="white"/>
<path d="M192.49 80.3348C192.783 80.3053 193.066 80.2169 193.33 80.0498C193.799 79.7648 194.122 79.2833 194.229 78.7428L194.689 76.3351C194.875 75.3917 194.337 74.4483 193.438 74.1142C192.226 73.6818 190.652 73.4263 189.108 73.4263C187.094 73.4263 185.433 73.9962 184.25 74.9888C183.977 74.2419 183.263 73.6916 182.423 73.6916H179.432C179.256 73.6916 179.09 73.7211 178.924 73.7702C178.757 73.7211 178.591 73.6916 178.415 73.6916H167.175C166.374 73.6916 165.69 74.1731 165.387 74.8709C165.074 74.1633 164.399 73.6916 163.618 73.6916H160.324C159.464 73.6916 158.711 74.2518 158.457 75.0772L157.147 79.3029C156.981 77.3277 156.199 76.1091 155.525 75.4114C154.029 73.898 151.948 73.6916 149.924 73.6916H145.419C144.822 73.6916 144.285 73.9668 143.923 74.3992C143.864 74.3599 143.796 74.3205 143.728 74.2911C142.613 73.7702 140.805 73.4263 139.202 73.4263C133.915 73.4263 130.621 77.0329 130.621 82.8506C130.621 90.5158 135.097 92.1274 138.86 92.1274C140.473 92.1274 142.653 91.7835 144.099 91.3216C144.451 91.6361 144.901 91.8425 145.409 91.8425H148.4C149.445 91.8425 150.296 91.017 150.354 89.9851L150.696 90.7123C151.019 91.4002 151.703 91.8425 152.466 91.8425H155.838C155.857 91.8425 155.867 91.8326 155.877 91.8326C155.896 91.8326 155.906 91.8425 155.925 91.8425H158.779C159.649 91.8425 160.421 91.2626 160.656 90.4175L161.262 88.2752H162.601L163.266 90.4568C163.52 91.2823 164.272 91.8425 165.133 91.8425H168.329C168.886 91.8425 169.404 91.5968 169.765 91.184C170.127 91.5869 170.635 91.8425 171.212 91.8425H174.203C175.278 91.8425 176.157 90.958 176.157 89.877V79.9712H177.457V89.8672C177.457 90.9482 178.337 91.8326 179.412 91.8326H182.423C182.921 91.8326 183.38 91.6361 183.722 91.3216C185.218 91.8621 186.762 92.1176 188.59 92.1176C190.994 92.1176 192.724 91.5083 194.024 90.1817C195.109 89.0712 195.676 87.5676 195.676 85.8184C195.686 82.7326 194.122 81.1996 192.49 80.3348ZM184.377 84.3345C184.934 84.7767 185.531 85.1108 186.127 85.3565C185.873 85.2877 185.628 85.2091 185.394 85.1206C185.062 84.9929 184.719 84.9732 184.377 85.0322V84.3345ZM169.277 79.9712V86.4768L167.107 79.9614C167.126 79.9614 167.146 79.9712 167.165 79.9712H169.277ZM143.454 80.1677V80.2169H143.366C143.395 80.207 143.425 80.1874 143.454 80.1677Z" fill="#019DF4"/>
<path d="M132.575 82.8505C132.575 78.3987 134.745 75.3916 139.202 75.3916C140.502 75.3916 142.056 75.6864 142.896 76.0795L142.515 78.4479C141.587 78.153 140.453 77.927 139.417 77.927C136.768 77.927 135.683 79.6271 135.683 82.7227C135.683 84.3245 135.879 85.6316 136.446 86.5062C136.925 87.2334 137.706 87.6461 138.977 87.6461C139.456 87.6461 140.111 87.5872 140.57 87.4987V84.5112H138.723V82.1822H143.532V89.4347C142.29 89.8474 140.297 90.1619 138.86 90.1619C134.168 90.1619 132.575 87.3513 132.575 82.8505Z" fill="white"/>
<path d="M145.408 75.657H149.914C152.025 75.657 153.267 75.9223 154.127 76.7969C154.801 77.4848 155.221 78.5658 155.221 80.0596C155.221 81.9955 154.479 83.5286 153.003 84.2754L155.837 89.8573H152.465L150.051 84.7078H148.399V89.8573H145.408V75.657ZM149.719 82.369C150.716 82.369 151.253 82.2216 151.634 81.8678C152.016 81.514 152.192 80.8949 152.192 80.0989C152.192 79.3717 152.035 78.8508 151.732 78.5167C151.351 78.1236 150.716 77.9959 149.738 77.9959H148.399V82.369H149.719Z" fill="white"/>
<path d="M160.313 75.657H163.607L168.337 89.8573H165.141L164.046 86.29H159.795L158.778 89.8573H155.924L160.313 75.657ZM163.323 83.9511L161.886 79.2144H161.847L160.489 83.9511H163.323Z" fill="white"/>
<path d="M171.231 78.0057H167.175V75.657H178.424L178.19 78.0057H174.222V89.8671H171.231V78.0057Z" fill="white"/>
<path d="M179.431 75.657H182.422V89.8573H179.431V75.657Z" fill="white"/>
<path d="M184.24 89.4349L184.699 86.9682C185.852 87.4006 187.367 87.6758 188.325 87.6758C190.085 87.6758 190.915 87.1746 190.915 85.8676C190.915 83.2044 184.23 85.1404 184.23 79.5585C184.23 76.6693 186.322 75.4016 189.117 75.4016C190.378 75.4016 191.766 75.608 192.782 75.9814L192.323 78.3891C191.248 78.0746 190.104 77.8879 189.176 77.8879C187.563 77.8879 187.045 78.507 187.045 79.4013C187.045 82.1824 193.73 80.2759 193.73 85.8184C193.73 87.0862 193.329 88.0984 192.636 88.8059C191.717 89.7395 190.466 90.1522 188.589 90.1522C186.928 90.1621 185.559 89.9262 184.24 89.4349Z" fill="white"/>
<path d="M209.996 80.3446C209.976 80.1775 210.093 80.0301 210.26 80.0105L213.592 79.5781C213.759 79.5584 213.915 79.6763 213.934 79.8336L214.15 81.4059C214.159 81.4845 214.14 81.5632 214.091 81.632L213.583 82.2904L215.733 85.5923C217.561 85.4646 218.548 87.0762 218.812 87.9705C218.831 88.0589 218.821 88.1474 218.773 88.2162C218.724 88.285 218.646 88.3341 218.558 88.3538L215.195 88.7862L213.289 90.8106C213.241 90.8597 213.172 90.899 213.104 90.9088L208.49 91.5083C208.481 91.5083 208.461 91.5083 208.451 91.5083C208.373 91.5083 208.295 91.4788 208.246 91.4297L206.594 89.9065L200.867 90.6435C200.701 90.6632 200.554 90.5551 200.525 90.3978C200.173 88.511 200.701 87.371 201.219 86.7519C201.786 86.064 202.45 85.838 202.479 85.8282C202.499 85.8282 202.519 85.8183 202.538 85.8183L207.836 85.1304C207.963 85.1206 208.08 85.1796 208.148 85.2877L209.761 88.2162L211.97 87.9312C212.126 87.9115 212.39 87.6953 212.556 87.3514C212.742 86.9681 212.762 86.575 212.595 86.2999C212.595 86.2901 212.586 86.2901 212.586 86.2802L211.041 83.1257C211.032 83.0962 211.022 83.0667 211.012 83.0372L210.895 82.1626L208.969 81.514C208.803 81.4551 208.725 81.288 208.784 81.1308C208.842 80.9735 209.018 80.8949 209.175 80.9441L210.602 81.4256L209.996 80.3446Z" fill="white"/>
<path d="M202.567 86.4179C202.411 86.4179 202.284 86.3098 202.264 86.1525L201.991 84.079C201.971 83.9119 202.088 83.7645 202.255 83.7449L207.63 83.0471C207.708 83.0373 207.796 83.057 207.855 83.1061C207.914 83.1552 207.963 83.224 207.972 83.3026L208.246 85.3762C208.266 85.5432 208.148 85.6907 207.982 85.7103C207.816 85.73 207.66 85.612 207.64 85.4548L207.396 83.6761L202.616 84.2952L202.861 86.0739C202.88 86.241 202.763 86.3884 202.597 86.408C202.587 86.4179 202.577 86.4179 202.567 86.4179Z" fill="white"/>
<path d="M195.765 85.946C195.609 85.946 195.482 85.8281 195.462 85.6807C195.443 85.5137 195.56 85.3662 195.726 85.3466L200.095 84.8454C200.261 84.8257 200.417 84.9437 200.427 85.1107C200.447 85.2778 200.33 85.4252 200.163 85.4449L195.804 85.946C195.794 85.946 195.785 85.946 195.765 85.946Z" fill="white"/>
<path d="M195.159 87.7544C195.003 87.7544 194.876 87.6365 194.856 87.4891C194.837 87.322 194.954 87.1746 195.12 87.1549L199.489 86.6538C199.655 86.6341 199.812 86.752 199.821 86.9191C199.841 87.0861 199.724 87.2336 199.557 87.2532L195.188 87.7544C195.179 87.7544 195.169 87.7544 195.159 87.7544Z" fill="white"/>
<path d="M194.748 89.5527C194.592 89.5527 194.465 89.4348 194.445 89.2874C194.426 89.1203 194.543 88.9729 194.719 88.9533L199.088 88.4521C199.254 88.4324 199.411 88.5504 199.42 88.7174C199.44 88.8845 199.323 89.0319 199.157 89.0515L194.788 89.5527C194.778 89.5527 194.768 89.5527 194.748 89.5527Z" fill="white"/>
<path d="M204.258 93.9163C203.691 93.9163 203.134 93.7394 202.684 93.3856C202.127 92.9728 201.785 92.3636 201.687 91.6855C201.668 91.5184 201.785 91.371 201.951 91.3514C202.117 91.3317 202.274 91.4496 202.293 91.6069C202.362 92.1277 202.636 92.5896 203.056 92.9041C203.476 93.2185 204.004 93.3659 204.532 93.2873C205.059 93.2185 205.529 92.9532 205.851 92.5405C206.174 92.1277 206.32 91.6069 206.242 91.086C206.223 90.919 206.34 90.7716 206.506 90.7519C206.672 90.7322 206.829 90.8502 206.848 91.0074C206.936 91.6855 206.76 92.3636 206.33 92.9041C205.91 93.4446 205.294 93.7885 204.61 93.8868C204.493 93.9064 204.375 93.9163 204.258 93.9163Z" fill="white"/>
<path d="M216.426 92.3928C215.625 92.3928 214.853 92.0292 214.364 91.3904C214.266 91.2626 214.286 91.0661 214.423 90.9678C214.56 90.8695 214.745 90.8892 214.853 91.0268C215.283 91.5771 215.996 91.8719 216.69 91.7736C217.775 91.6361 218.547 90.6435 218.401 89.5724C218.381 89.4053 218.498 89.2579 218.665 89.2382C218.831 89.2186 218.987 89.3365 219.007 89.4937C219.192 90.899 218.195 92.1864 216.768 92.3731C216.651 92.3829 216.544 92.3928 216.426 92.3928Z" fill="white"/>
<path d="M147.37 113.697H148.357V112.203H149.054C149.623 112.203 150.016 112.07 150.269 111.785C150.484 111.545 150.592 111.196 150.592 110.734C150.592 110.272 150.478 109.937 150.244 109.721C149.965 109.462 149.535 109.367 148.857 109.367H147.37V113.697ZM148.357 111.462V110.082H148.819C149.123 110.082 149.307 110.127 149.427 110.234C149.541 110.342 149.592 110.513 149.592 110.747C149.592 111 149.535 111.184 149.421 111.298C149.294 111.418 149.161 111.462 148.845 111.462H148.357ZM151.188 110.158L152.473 109.291L152.03 108.689L150.871 109.766L151.188 110.158ZM151.22 113.697H152.125V110.595H151.22V113.697ZM153.914 113.786C154.293 113.786 154.629 113.653 154.895 113.475L154.914 113.697H155.699V109.171H154.794V110.734C154.553 110.589 154.243 110.506 153.971 110.506C153.23 110.506 152.742 111.12 152.742 112.152C152.742 112.76 152.882 113.235 153.173 113.52C153.35 113.691 153.61 113.786 153.914 113.786ZM154.255 113.077C153.844 113.077 153.692 112.868 153.692 112.178C153.692 111.431 153.939 111.222 154.363 111.222C154.477 111.222 154.654 111.247 154.794 111.291V112.969C154.635 113.032 154.401 113.077 154.255 113.077ZM158 113.786C158.386 113.786 158.747 113.735 159.045 113.678L158.975 113.02C158.741 113.064 158.424 113.096 158.203 113.096C157.595 113.096 157.272 112.95 157.247 112.425H159.152C159.203 112.425 159.228 112.406 159.228 112.355V112.07C159.228 110.994 158.734 110.506 157.804 110.506C156.854 110.506 156.297 111.063 156.297 112.152C156.297 112.646 156.405 113.089 156.715 113.387C156.981 113.64 157.418 113.786 158 113.786ZM157.247 111.836C157.266 111.437 157.43 111.19 157.798 111.19C158.158 111.19 158.342 111.443 158.342 111.836H157.247ZM159.819 113.697H160.724V109.171H159.819V113.697ZM162.918 113.786C163.994 113.786 164.495 113.14 164.495 112.146C164.495 111.152 163.994 110.506 162.918 110.506C161.842 110.506 161.342 111.152 161.342 112.146C161.342 113.14 161.842 113.786 162.918 113.786ZM162.918 113.096C162.462 113.096 162.285 112.785 162.285 112.146C162.285 111.507 162.462 111.196 162.918 111.196C163.374 111.196 163.551 111.507 163.551 112.146C163.551 112.785 163.374 113.096 162.918 113.096ZM166.52 113.697H167.425V111.361C167.571 111.304 167.843 111.26 168.014 111.26C168.198 111.26 168.324 111.285 168.407 111.361C168.47 111.424 168.502 111.513 168.502 111.671V113.697H169.407V111.564C169.407 111.203 169.331 110.931 169.141 110.747C168.97 110.576 168.666 110.506 168.394 110.506C168.097 110.506 167.742 110.582 167.425 110.76V109.171H166.52V113.697ZM171.567 113.786C172.643 113.786 173.144 113.14 173.144 112.146C173.144 111.152 172.643 110.506 171.567 110.506C170.491 110.506 169.991 111.152 169.991 112.146C169.991 113.14 170.491 113.786 171.567 113.786ZM171.567 113.096C171.111 113.096 170.934 112.785 170.934 112.146C170.934 111.507 171.111 111.196 171.567 111.196C172.023 111.196 172.2 111.507 172.2 112.146C172.2 112.785 172.023 113.096 171.567 113.096ZM175.165 115.21C176.292 115.21 176.602 114.659 176.602 113.564V110.595H175.697V112.899C175.552 112.956 175.286 113.013 175.115 113.013C174.925 113.013 174.811 112.988 174.729 112.912C174.665 112.849 174.634 112.76 174.634 112.602V110.595H173.728V112.728C173.728 113.089 173.817 113.33 174 113.513C174.171 113.684 174.45 113.754 174.722 113.754C175.032 113.754 175.393 113.672 175.697 113.501V113.881C175.697 114.102 175.659 114.273 175.545 114.381C175.45 114.476 175.241 114.526 175.02 114.526C174.716 114.526 174.52 114.495 174.311 114.457L174.374 115.128C174.608 115.178 174.861 115.21 175.165 115.21ZM177.623 114.704H178.079C178.149 114.488 178.219 113.912 178.219 113.482V113.311C178.219 113.007 178.06 112.836 177.756 112.836H177.712C177.408 112.836 177.25 113.007 177.25 113.311C177.25 113.583 177.345 113.71 177.623 113.805V114.704ZM180.3 113.697H181.206V111.367C181.402 111.323 181.586 111.291 181.826 111.291C181.972 111.291 182.124 111.304 182.225 111.317V110.525C182.187 110.519 182.117 110.513 182.067 110.513C181.769 110.513 181.358 110.627 181.117 110.848L181.085 110.595H180.3V113.697ZM184.225 113.786C184.611 113.786 184.972 113.735 185.27 113.678L185.2 113.02C184.966 113.064 184.649 113.096 184.428 113.096C183.82 113.096 183.497 112.95 183.472 112.425H185.377C185.428 112.425 185.453 112.406 185.453 112.355V112.07C185.453 110.994 184.96 110.506 184.029 110.506C183.079 110.506 182.522 111.063 182.522 112.152C182.522 112.646 182.63 113.089 182.94 113.387C183.206 113.64 183.643 113.786 184.225 113.786ZM183.472 111.836C183.491 111.437 183.656 111.19 184.023 111.19C184.384 111.19 184.567 111.443 184.567 111.836H183.472ZM187.564 113.786C187.905 113.786 188.133 113.754 188.437 113.684L188.368 113.032C188.171 113.07 187.924 113.096 187.722 113.096C187.07 113.096 186.81 112.785 186.81 112.146C186.81 111.829 186.867 111.589 187.019 111.424C187.152 111.285 187.367 111.203 187.646 111.203C187.905 111.203 188.171 111.241 188.361 111.291L188.418 110.62C188.121 110.538 187.791 110.506 187.507 110.506C186.994 110.506 186.544 110.671 186.266 110.969C185.987 111.272 185.867 111.697 185.867 112.216C185.867 112.558 185.949 112.906 186.12 113.165C186.443 113.665 187.032 113.786 187.564 113.786ZM188.943 110.158L190.228 109.291L189.785 108.689L188.626 109.766L188.943 110.158ZM188.975 113.697H189.88V110.595H188.975V113.697ZM192.371 113.786C192.758 113.786 193.036 113.672 193.251 113.425C193.479 113.165 193.6 112.69 193.6 112.133C193.6 110.931 193.118 110.506 192.416 110.506C192.118 110.506 191.776 110.589 191.561 110.715V109.171H190.656V113.697H191.403L191.447 113.501C191.707 113.672 192.049 113.786 192.371 113.786ZM192.099 113.077C191.922 113.077 191.707 113.007 191.561 112.925V111.317C191.707 111.26 191.903 111.234 192.099 111.234C192.479 111.234 192.65 111.405 192.65 112.146C192.65 112.842 192.511 113.077 192.099 113.077ZM195.743 113.786C196.129 113.786 196.49 113.735 196.787 113.678L196.718 113.02C196.484 113.064 196.167 113.096 195.945 113.096C195.338 113.096 195.015 112.95 194.99 112.425H196.895C196.946 112.425 196.971 112.406 196.971 112.355V112.07C196.971 110.994 196.477 110.506 195.547 110.506C194.597 110.506 194.04 111.063 194.04 112.152C194.04 112.646 194.148 113.089 194.458 113.387C194.724 113.64 195.16 113.786 195.743 113.786ZM194.99 111.836C195.009 111.437 195.173 111.19 195.54 111.19C195.901 111.19 196.085 111.443 196.085 111.836H194.99ZM197.562 113.697H198.467V109.171H197.562V113.697ZM200.661 113.786C201.737 113.786 202.237 113.14 202.237 112.146C202.237 111.152 201.737 110.506 200.661 110.506C199.585 110.506 199.085 111.152 199.085 112.146C199.085 113.14 199.585 113.786 200.661 113.786ZM200.661 113.096C200.205 113.096 200.028 112.785 200.028 112.146C200.028 111.507 200.205 111.196 200.661 111.196C201.117 111.196 201.294 111.507 201.294 112.146C201.294 112.785 201.117 113.096 200.661 113.096ZM204.263 113.697H205.168V111.361C205.314 111.304 205.586 111.26 205.757 111.26C205.941 111.26 206.067 111.285 206.149 111.361C206.213 111.424 206.244 111.513 206.244 111.671V113.697H207.15V111.564C207.15 111.203 207.074 110.931 206.884 110.747C206.713 110.576 206.409 110.506 206.137 110.506C205.839 110.506 205.485 110.582 205.168 110.76V109.171H204.263V113.697ZM209.31 113.786C210.386 113.786 210.886 113.14 210.886 112.146C210.886 111.152 210.386 110.506 209.31 110.506C208.234 110.506 207.734 111.152 207.734 112.146C207.734 113.14 208.234 113.786 209.31 113.786ZM209.31 113.096C208.854 113.096 208.677 112.785 208.677 112.146C208.677 111.507 208.854 111.196 209.31 111.196C209.766 111.196 209.943 111.507 209.943 112.146C209.943 112.785 209.766 113.096 209.31 113.096ZM212.908 115.21C214.035 115.21 214.345 114.659 214.345 113.564V110.595H213.44V112.899C213.294 112.956 213.028 113.013 212.857 113.013C212.668 113.013 212.554 112.988 212.471 112.912C212.408 112.849 212.376 112.76 212.376 112.602V110.595H211.471V112.728C211.471 113.089 211.56 113.33 211.743 113.513C211.914 113.684 212.193 113.754 212.465 113.754C212.775 113.754 213.136 113.672 213.44 113.501V113.881C213.44 114.102 213.402 114.273 213.288 114.381C213.193 114.476 212.984 114.526 212.762 114.526C212.459 114.526 212.262 114.495 212.053 114.457L212.117 115.128C212.351 115.178 212.604 115.21 212.908 115.21Z" fill="#0C273A"/>
<path d="M44.5708 45L44.2921 45.097L44.361 45.2951H44.5708V45ZM48.9718 45V45.2951H49.1848L49.2519 45.093L48.9718 45ZM55.1008 26.532L55.3809 26.625L55.5097 26.2369H55.1008V26.532ZM50.9968 26.532V26.2369H50.7773L50.7141 26.4471L50.9968 26.532ZM46.9738 39.924L46.6929 40.0146L46.9838 40.9164L47.2565 40.0089L46.9738 39.924ZM42.6538 26.532L42.9347 26.4414L42.8687 26.2369H42.6538V26.532ZM38.1448 26.532V26.2369H37.7296L37.8661 26.629L38.1448 26.532ZM44.5708 45.2951H48.9718V44.7049H44.5708V45.2951ZM49.2519 45.093L55.3809 26.625L54.8207 26.439L48.6917 44.907L49.2519 45.093ZM55.1008 26.2369H50.9968V26.8271H55.1008V26.2369ZM50.7141 26.4471L46.6911 39.8391L47.2565 40.0089L51.2795 26.6169L50.7141 26.4471ZM47.2547 39.8334L42.9347 26.4414L42.3729 26.6226L46.6929 40.0146L47.2547 39.8334ZM42.6538 26.2369H38.1448V26.8271H42.6538V26.2369ZM37.8661 26.629L44.2921 45.097L44.8495 44.903L38.4235 26.435L37.8661 26.629ZM57.1351 45H56.8399V45.2951H57.1351V45ZM60.9961 45V45.2951H61.2912V45H60.9961ZM60.9961 31.77H61.2912V31.4749H60.9961V31.77ZM57.1351 31.77V31.4749H56.8399V31.77H57.1351ZM58.9711 29.8511H59.1601V29.2609H58.9711V29.8511ZM59.1601 29.8511C59.8505 29.8511 60.442 29.7189 60.8613 29.3577C61.2901 28.9884 61.4802 28.4318 61.4802 27.72H60.8899C60.8899 28.3312 60.729 28.6926 60.4761 28.9105C60.2137 29.1366 59.7927 29.2609 59.1601 29.2609V29.8511ZM61.4802 27.72V27.369H60.8899V27.72H61.4802ZM61.4802 27.369C61.4802 26.6572 61.2902 26.0957 60.8638 25.7199C60.4452 25.3511 59.8535 25.2109 59.1601 25.2109V25.8011C59.7896 25.8011 60.2105 25.9309 60.4736 26.1628C60.7289 26.3878 60.8899 26.7578 60.8899 27.369H61.4802ZM59.1601 25.2109H58.9711V25.8011H59.1601V25.2109ZM58.9711 25.2109C58.2776 25.2109 57.686 25.3511 57.2673 25.7199C56.8409 26.0957 56.6509 26.6572 56.6509 27.369H57.2412C57.2412 26.7578 57.4022 26.3878 57.6576 26.1628C57.9207 25.9309 58.3415 25.8011 58.9711 25.8011V25.2109ZM56.6509 27.369V27.72H57.2412V27.369H56.6509ZM56.6509 27.72C56.6509 28.4318 56.841 28.9884 57.2698 29.3577C57.6892 29.7189 58.2807 29.8511 58.9711 29.8511V29.2609C58.3385 29.2609 57.9175 29.1366 57.6551 28.9105C57.4021 28.6926 57.2412 28.3312 57.2412 27.72H56.6509ZM57.1351 45.2951H60.9961V44.7049H57.1351V45.2951ZM61.2912 45V31.77H60.701V45H61.2912ZM60.9961 31.4749H57.1351V32.0651H60.9961V31.4749ZM56.8399 31.77V45H57.4302V31.77H56.8399ZM67.6801 45L67.4021 45.0993L67.4721 45.2951H67.6801V45ZM72.1621 45V45.2951H72.3725L72.4411 45.0962L72.1621 45ZM76.7251 31.77L77.0041 31.8662L77.139 31.4749H76.7251V31.77ZM72.8641 31.77V31.4749H72.6457L72.5818 31.6837L72.8641 31.77ZM70.0561 40.95L69.775 41.0401L70.0627 41.9374L70.3383 41.0363L70.0561 40.95ZM67.1131 31.77L67.3941 31.6799L67.3284 31.4749H67.1131V31.77ZM62.9551 31.77V31.4749H62.5363L62.6771 31.8693L62.9551 31.77ZM67.6801 45.2951H72.1621V44.7049H67.6801V45.2951ZM72.4411 45.0962L77.0041 31.8662L76.4461 31.6738L71.8831 44.9038L72.4411 45.0962ZM76.7251 31.4749H72.8641V32.0651H76.7251V31.4749ZM72.5818 31.6837L69.7738 40.8637L70.3383 41.0363L73.1463 31.8563L72.5818 31.6837ZM70.3371 40.8599L67.3941 31.6799L66.832 31.8601L69.775 41.0401L70.3371 40.8599ZM67.1131 31.4749H62.9551V32.0651H67.1131V31.4749ZM62.6771 31.8693L67.4021 45.0993L67.958 44.9007L63.233 31.6707L62.6771 31.8693ZM89.4018 44.919L89.4573 45.2089L89.7238 45.1578L89.6953 44.888L89.4018 44.919ZM89.1048 42.111L89.3983 42.08L89.3646 41.7615L89.0499 41.821L89.1048 42.111ZM81.7338 39.573V39.2779H81.4241L81.439 39.5872L81.7338 39.573ZM79.4658 43.677L79.2615 43.89L79.2622 43.8907L79.4658 43.677ZM81.7338 37.062L81.439 37.048L81.4242 37.3571H81.7338V37.062ZM86.4048 37.062V37.3571H86.6999V37.062H86.4048ZM84.9468 45.6731C86.6187 45.6731 88.1774 45.4539 89.4573 45.2089L89.3463 44.6291C88.0881 44.8701 86.5688 45.0829 84.9468 45.0829V45.6731ZM89.6953 44.888L89.3983 42.08L88.8113 42.142L89.1083 44.95L89.6953 44.888ZM89.0499 41.821C88.067 42.007 86.7354 42.1399 85.8108 42.1399V42.7301C86.7761 42.7301 88.1446 42.593 89.1596 42.401L89.0499 41.821ZM85.8108 42.1399C84.5242 42.1399 83.6058 41.9827 82.9996 41.5956C82.4215 41.2264 82.0794 40.6146 82.0286 39.5588L81.439 39.5872C81.4961 40.7724 81.8965 41.5916 82.6819 42.0931C83.4393 42.5768 84.5054 42.7301 85.8108 42.7301V42.1399ZM81.7338 39.8681H89.8608V39.2779H81.7338V39.8681ZM89.8608 39.8681C89.9954 39.8681 90.1641 39.8449 90.2981 39.7276C90.441 39.6026 90.4799 39.4293 90.4799 39.276H89.8896C89.8896 39.3067 89.8856 39.317 89.8864 39.3147C89.887 39.313 89.8889 39.3083 89.8931 39.302C89.8974 39.2955 89.903 39.289 89.9094 39.2834C89.9229 39.2716 89.932 39.2703 89.9254 39.2721C89.9219 39.273 89.915 39.2746 89.904 39.2758C89.8929 39.277 89.8787 39.2779 89.8608 39.2779V39.8681ZM90.4799 39.276V38.061H89.8896V39.276H90.4799ZM90.4799 38.061C90.4799 35.7266 89.9449 33.9732 88.8512 32.8037C87.7539 31.6303 86.1434 31.0969 84.1098 31.0969V31.6871C86.0451 31.6871 87.4722 32.1932 88.4201 33.2068C89.3716 34.2243 89.8896 35.8054 89.8896 38.061H90.4799ZM84.1098 31.0969C82.0269 31.0969 80.3331 31.7093 79.1626 32.9587C77.9949 34.2052 77.3886 36.0427 77.3886 38.412H77.9789C77.9789 36.1373 78.5606 34.4648 79.5934 33.3623C80.6235 32.2627 82.1426 31.6871 84.1098 31.6871V31.0969ZM77.3886 38.412C77.3886 40.5509 77.8533 42.5393 79.2615 43.89L79.6701 43.464C78.4322 42.2767 77.9789 40.4851 77.9789 38.412H77.3886ZM79.2622 43.8907C80.4718 45.0427 82.4214 45.6731 84.9468 45.6731V45.0829C82.5042 45.0829 80.7278 44.4713 79.6693 43.4633L79.2622 43.8907ZM82.0286 37.076C82.0676 36.2561 82.2553 35.639 82.5817 35.2317C82.8975 34.8376 83.3729 34.6031 84.0828 34.6031V34.0129C83.2267 34.0129 82.568 34.3049 82.1211 34.8626C81.6847 35.407 81.4809 36.1669 81.439 37.048L82.0286 37.076ZM84.0828 34.6031C84.7771 34.6031 85.2676 34.8431 85.5915 35.243C85.923 35.6523 86.1096 36.2662 86.1096 37.062H86.6999C86.6999 36.1838 86.495 35.4207 86.0502 34.8715C85.5979 34.3129 84.9274 34.0129 84.0828 34.0129V34.6031ZM86.4048 36.7669H81.7338V37.3571H86.4048V36.7669ZM109.731 44.919L109.786 45.2089L110.053 45.1578L110.024 44.888L109.731 44.919ZM109.434 42.111L109.727 42.08L109.694 41.7615L109.379 41.821L109.434 42.111ZM102.063 39.573V39.2779H101.753L101.768 39.5872L102.063 39.573ZM99.7949 43.677L99.5906 43.89L99.5913 43.8907L99.7949 43.677ZM102.063 37.062L101.768 37.048L101.753 37.3571H102.063V37.062ZM106.734 37.062V37.3571H107.029V37.062H106.734ZM105.276 45.6731C106.948 45.6731 108.507 45.4539 109.786 45.2089L109.675 44.6291C108.417 44.8701 106.898 45.0829 105.276 45.0829V45.6731ZM110.024 44.888L109.727 42.08L109.14 42.142L109.437 44.95L110.024 44.888ZM109.379 41.821C108.396 42.007 107.065 42.1399 106.14 42.1399V42.7301C107.105 42.7301 108.474 42.593 109.489 42.401L109.379 41.821ZM106.14 42.1399C104.853 42.1399 103.935 41.9827 103.329 41.5956C102.751 41.2264 102.409 40.6146 102.358 39.5588L101.768 39.5872C101.825 40.7724 102.226 41.5916 103.011 42.0931C103.768 42.5768 104.834 42.7301 106.14 42.7301V42.1399ZM102.063 39.8681H110.19V39.2779H102.063V39.8681ZM110.19 39.8681C110.324 39.8681 110.493 39.8449 110.627 39.7276C110.77 39.6026 110.809 39.4293 110.809 39.276H110.219C110.219 39.3067 110.215 39.317 110.216 39.3147C110.216 39.313 110.218 39.3083 110.222 39.302C110.227 39.2955 110.232 39.289 110.239 39.2834C110.252 39.2716 110.261 39.2703 110.254 39.2721C110.251 39.273 110.244 39.2746 110.233 39.2758C110.222 39.277 110.208 39.2779 110.19 39.2779V39.8681ZM110.809 39.276V38.061H110.219V39.276H110.809ZM110.809 38.061C110.809 35.7266 110.274 33.9732 109.18 32.8037C108.083 31.6303 106.473 31.0969 104.439 31.0969V31.6871C106.374 31.6871 107.801 32.1932 108.749 33.2068C109.701 34.2243 110.219 35.8054 110.219 38.061H110.809ZM104.439 31.0969C102.356 31.0969 100.662 31.7093 99.4917 32.9587C98.324 34.2052 97.7177 36.0427 97.7177 38.412H98.308C98.308 36.1373 98.8897 34.4648 99.9225 33.3623C100.953 32.2627 102.472 31.6871 104.439 31.6871V31.0969ZM97.7177 38.412C97.7177 40.5509 98.1824 42.5393 99.5906 43.89L99.9992 43.464C98.7613 42.2767 98.308 40.4851 98.308 38.412H97.7177ZM99.5913 43.8907C100.801 45.0427 102.75 45.6731 105.276 45.6731V45.0829C102.833 45.0829 101.057 44.4713 99.9984 43.4633L99.5913 43.8907ZM102.358 37.076C102.397 36.2561 102.584 35.639 102.911 35.2317C103.227 34.8376 103.702 34.6031 104.412 34.6031V34.0129C103.556 34.0129 102.897 34.3049 102.45 34.8626C102.014 35.407 101.81 36.1669 101.768 37.048L102.358 37.076ZM104.412 34.6031C105.106 34.6031 105.597 34.8431 105.921 35.243C106.252 35.6523 106.439 36.2662 106.439 37.062H107.029C107.029 36.1838 106.824 35.4207 106.379 34.8715C105.927 34.3129 105.257 34.0129 104.412 34.0129V34.6031ZM106.734 36.7669H102.063V37.3571H106.734V36.7669ZM113.034 45H112.738V45.2951H113.034V45ZM116.895 45V45.2951H117.19V45H116.895ZM116.895 25.695H117.19V25.3999H116.895V25.695ZM113.034 25.695V25.3999H112.738V25.695H113.034ZM113.034 45.2951H116.895V44.7049H113.034V45.2951ZM117.19 45V25.695H116.599V45H117.19ZM116.895 25.3999H113.034V25.9901H116.895V25.3999ZM112.738 25.695V45H113.329V25.695H112.738ZM129.643 45L129.365 45.0993L129.435 45.2951H129.643V45ZM134.125 45V45.2951H134.335L134.404 45.0962L134.125 45ZM138.688 31.77L138.967 31.8662L139.102 31.4749H138.688V31.77ZM134.827 31.77V31.4749H134.609L134.545 31.6837L134.827 31.77ZM132.019 40.95L131.738 41.0401L132.026 41.9374L132.301 41.0363L132.019 40.95ZM129.076 31.77L129.357 31.6799L129.291 31.4749H129.076V31.77ZM124.918 31.77V31.4749H124.499L124.64 31.8693L124.918 31.77ZM129.643 45.2951H134.125V44.7049H129.643V45.2951ZM134.404 45.0962L138.967 31.8662L138.409 31.6738L133.846 44.9038L134.404 45.0962ZM138.688 31.4749H134.827V32.0651H138.688V31.4749ZM134.545 31.6837L131.737 40.8637L132.301 41.0363L135.109 31.8563L134.545 31.6837ZM132.3 40.8599L129.357 31.6799L128.795 31.8601L131.738 41.0401L132.3 40.8599ZM129.076 31.4749H124.918V32.0651H129.076V31.4749ZM124.64 31.8693L129.365 45.0993L129.921 44.9007L125.196 31.6707L124.64 31.8693ZM151.365 44.919L151.42 45.2089L151.687 45.1578L151.658 44.888L151.365 44.919ZM151.068 42.111L151.361 42.08L151.327 41.7615L151.013 41.821L151.068 42.111ZM143.697 39.573V39.2779H143.387L143.402 39.5872L143.697 39.573ZM141.429 43.677L141.224 43.89L141.225 43.8907L141.429 43.677ZM143.697 37.062L143.402 37.048L143.387 37.3571H143.697V37.062ZM148.368 37.062V37.3571H148.663V37.062H148.368ZM146.91 45.6731C148.582 45.6731 150.14 45.4539 151.42 45.2089L151.309 44.6291C150.051 44.8701 148.532 45.0829 146.91 45.0829V45.6731ZM151.658 44.888L151.361 42.08L150.774 42.142L151.071 44.95L151.658 44.888ZM151.013 41.821C150.03 42.007 148.698 42.1399 147.774 42.1399V42.7301C148.739 42.7301 150.107 42.593 151.123 42.401L151.013 41.821ZM147.774 42.1399C146.487 42.1399 145.569 41.9827 144.963 41.5956C144.384 41.2264 144.042 40.6146 143.991 39.5588L143.402 39.5872C143.459 40.7724 143.859 41.5916 144.645 42.0931C145.402 42.5768 146.468 42.7301 147.774 42.7301V42.1399ZM143.697 39.8681H151.824V39.2779H143.697V39.8681ZM151.824 39.8681C151.958 39.8681 152.127 39.8449 152.261 39.7276C152.404 39.6026 152.443 39.4293 152.443 39.276H151.853C151.853 39.3067 151.849 39.317 151.849 39.3147C151.85 39.313 151.852 39.3083 151.856 39.302C151.86 39.2955 151.866 39.289 151.872 39.2834C151.886 39.2716 151.895 39.2703 151.888 39.2721C151.885 39.273 151.878 39.2746 151.867 39.2758C151.856 39.277 151.842 39.2779 151.824 39.2779V39.8681ZM152.443 39.276V38.061H151.853V39.276H152.443ZM152.443 38.061C152.443 35.7266 151.908 33.9732 150.814 32.8037C149.717 31.6303 148.106 31.0969 146.073 31.0969V31.6871C148.008 31.6871 149.435 32.1932 150.383 33.2068C151.335 34.2243 151.853 35.8054 151.853 38.061H152.443ZM146.073 31.0969C143.99 31.0969 142.296 31.7093 141.126 32.9587C139.958 34.2052 139.352 36.0427 139.352 38.412H139.942C139.942 36.1373 140.523 34.4648 141.556 33.3623C142.586 32.2627 144.106 31.6871 146.073 31.6871V31.0969ZM139.352 38.412C139.352 40.5509 139.816 42.5393 141.224 43.89L141.633 43.464C140.395 42.2767 139.942 40.4851 139.942 38.412H139.352ZM141.225 43.8907C142.435 45.0427 144.384 45.6731 146.91 45.6731V45.0829C144.467 45.0829 142.691 44.4713 141.632 43.4633L141.225 43.8907ZM143.991 37.076C144.031 36.2561 144.218 35.639 144.545 35.2317C144.86 34.8376 145.336 34.6031 146.046 34.6031V34.0129C145.19 34.0129 144.531 34.3049 144.084 34.8626C143.648 35.407 143.444 36.1669 143.402 37.048L143.991 37.076ZM146.046 34.6031C146.74 34.6031 147.231 34.8431 147.554 35.243C147.886 35.6523 148.073 36.2662 148.073 37.062H148.663C148.663 36.1838 148.458 35.4207 148.013 34.8715C147.561 34.3129 146.89 34.0129 146.046 34.0129V34.6031ZM148.368 36.7669H143.697V37.3571H148.368V36.7669ZM154.586 45H154.291V45.2951H154.586V45ZM158.447 45V45.2951H158.742V45H158.447ZM158.447 35.064L158.382 34.7761L158.152 34.8281V35.064H158.447ZM162.794 34.848L162.758 35.1409L163.089 35.1823V34.848H162.794ZM162.794 31.473H163.089V31.223L162.843 31.1819L162.794 31.473ZM158.069 32.85L157.776 32.8866L157.848 33.4555L158.269 33.0671L158.069 32.85ZM157.934 31.77L158.227 31.7334L158.195 31.4749H157.934V31.77ZM154.586 31.77V31.4749H154.291V31.77H154.586ZM154.586 45.2951H158.447V44.7049H154.586V45.2951ZM158.742 45V35.064H158.152V45H158.742ZM158.512 35.3519C159.337 35.1656 160.097 35.0351 161.093 35.0351V34.4449C160.038 34.4449 159.231 34.5844 158.382 34.7761L158.512 35.3519ZM161.093 35.0351C161.7 35.0351 162.335 35.088 162.758 35.1409L162.831 34.5551C162.39 34.5 161.729 34.4449 161.093 34.4449V35.0351ZM163.089 34.848V31.473H162.499V34.848H163.089ZM162.843 31.1819C162.665 31.1522 162.352 31.1239 162.119 31.1239V31.7141C162.319 31.7141 162.6 31.7398 162.746 31.7641L162.843 31.1819ZM162.119 31.1239C160.8 31.1239 158.965 31.6235 157.869 32.6329L158.269 33.0671C159.225 32.1865 160.9 31.7141 162.119 31.7141V31.1239ZM158.362 32.8134L158.227 31.7334L157.641 31.8066L157.776 32.8866L158.362 32.8134ZM157.934 31.4749H154.586V32.0651H157.934V31.4749ZM154.291 31.77V45H154.881V31.77H154.291ZM172.435 44.19L172.709 44.0804L172.576 43.7484L172.276 43.9417L172.435 44.19ZM172.759 45L172.485 45.1096L172.559 45.2951H172.759V45ZM175.81 45V45.2951H176.105V45H175.81ZM174.784 32.904L174.559 33.0951L174.561 33.0967L174.784 32.904ZM165.334 31.878L165.276 31.5886L165.023 31.6394L165.04 31.8976L165.334 31.878ZM165.523 34.713L165.229 34.7326L165.251 35.0703L165.583 35.0021L165.523 34.713ZM171.463 34.902L171.663 34.6844L171.658 34.6807L171.463 34.902ZM171.949 36.819V37.1141H172.244V36.819H171.949ZM164.983 38.034L164.781 37.8193L164.778 37.8215L164.983 38.034ZM168.061 39.762L168.27 39.9707L168.061 39.762ZM171.949 39.303H172.244V39.0079H171.949V39.303ZM171.949 42.03L172.035 42.3123L172.244 42.2487V42.03H171.949ZM168.466 45.6731C169.931 45.6731 171.417 45.1955 172.595 44.4383L172.276 43.9417C171.186 44.6425 169.809 45.0829 168.466 45.0829V45.6731ZM172.161 44.2996L172.485 45.1096L173.033 44.8904L172.709 44.0804L172.161 44.2996ZM172.759 45.2951H175.81V44.7049H172.759V45.2951ZM176.105 45V36.414H175.515V45H176.105ZM176.105 36.414C176.105 34.7811 175.746 33.5674 175.008 32.7113L174.561 33.0967C175.173 33.8066 175.515 34.8609 175.515 36.414H176.105ZM175.009 32.7129C174.501 32.1149 173.761 31.713 172.907 31.46C172.052 31.2066 171.064 31.0969 170.032 31.0969V31.6871C171.026 31.6871 171.954 31.7934 172.739 32.026C173.526 32.259 174.15 32.6131 174.559 33.0951L175.009 32.7129ZM170.032 31.0969C168.416 31.0969 166.641 31.3156 165.276 31.5886L165.392 32.1674C166.727 31.9004 168.462 31.6871 170.032 31.6871V31.0969ZM165.04 31.8976L165.229 34.7326L165.818 34.6934L165.629 31.8584L165.04 31.8976ZM165.583 35.0021C166.48 34.8174 167.999 34.6571 169.222 34.6571V34.0669C167.962 34.0669 166.403 34.2306 165.464 34.4239L165.583 35.0021ZM169.222 34.6571C170.272 34.6571 170.898 34.7972 171.268 35.1233L171.658 34.6807C171.11 34.1968 170.279 34.0669 169.222 34.0669V34.6571ZM171.264 35.1196C171.501 35.3366 171.654 35.6967 171.654 36.387H172.244C172.244 35.6192 172.074 35.0614 171.663 34.6844L171.264 35.1196ZM171.654 36.387V36.819H172.244V36.387H171.654ZM171.949 36.5239H169.843V37.1141H171.949V36.5239ZM169.843 36.5239C167.38 36.5239 165.816 36.8434 164.781 37.8193L165.186 38.2487C166.041 37.4426 167.393 37.1141 169.843 37.1141V36.5239ZM164.778 37.8215C163.954 38.6161 163.527 39.7785 163.527 41.031H164.117C164.117 39.9075 164.5 38.9099 165.188 38.2464L164.778 37.8215ZM163.527 41.031C163.527 42.3762 163.953 43.545 164.804 44.3773C165.654 45.2094 166.896 45.6731 168.466 45.6731V45.0829C167.012 45.0829 165.932 44.6556 165.217 43.9554C164.501 43.2555 164.117 42.2508 164.117 41.031H163.527ZM169.573 42.1399C168.905 42.1399 168.519 41.9973 168.3 41.7981C168.088 41.6049 167.978 41.3089 167.978 40.869H167.388C167.388 41.4011 167.522 41.8881 167.903 42.2349C168.278 42.5757 168.838 42.7301 169.573 42.7301V42.1399ZM167.978 40.869C167.978 40.4338 168.099 40.1416 168.27 39.9707L167.853 39.5533C167.537 39.8684 167.388 40.3322 167.388 40.869H167.978ZM168.27 39.9707C168.527 39.7139 168.976 39.5981 169.897 39.5981V39.0079C168.982 39.0079 168.298 39.1081 167.853 39.5533L168.27 39.9707ZM169.897 39.5981H171.949V39.0079H169.897V39.5981ZM171.654 39.303V42.03H172.244V39.303H171.654ZM171.863 41.7477C171.256 41.9324 170.261 42.1399 169.573 42.1399V42.7301C170.343 42.7301 171.4 42.5056 172.035 42.3123L171.863 41.7477ZM178.976 45H178.681V45.2951H178.976V45ZM182.837 45V45.2951H183.132V45H182.837ZM182.837 35.037L182.729 34.7622L182.542 34.8356V35.037H182.837ZM187.022 35.037L187.231 34.8281L187.222 34.8201L187.022 35.037ZM187.427 45H187.132V45.2951H187.427V45ZM191.288 45V45.2951H191.583V45H191.288ZM190.154 32.418L189.945 32.6267L189.949 32.6302L190.154 32.418ZM182.405 32.715L182.111 32.7402L182.153 33.2301L182.565 32.9627L182.405 32.715ZM182.324 31.77L182.618 31.7448L182.595 31.4749H182.324V31.77ZM178.976 31.77V31.4749H178.681V31.77H178.976ZM178.976 45.2951H182.837V44.7049H178.976V45.2951ZM183.132 45V35.037H182.542V45H183.132ZM182.945 35.3118C183.525 35.0849 184.648 34.9001 185.348 34.9001V34.3099C184.59 34.3099 183.391 34.5031 182.729 34.7622L182.945 35.3118ZM185.348 34.9001C186.123 34.9001 186.56 35.0118 186.822 35.2539L187.222 34.8201C186.782 34.4142 186.139 34.3099 185.348 34.3099V34.9001ZM186.813 35.2457C187.005 35.4373 187.132 35.7232 187.132 36.36H187.722C187.722 35.6468 187.579 35.1767 187.231 34.8283L186.813 35.2457ZM187.132 36.36V45H187.722V36.36H187.132ZM187.427 45.2951H191.288V44.7049H187.427V45.2951ZM191.583 45V35.901H190.993V45H191.583ZM191.583 35.901C191.583 34.3281 191.253 33.0699 190.359 32.2058L189.949 32.6302C190.675 33.3321 190.993 34.3959 190.993 35.901H191.583ZM190.363 32.2093C189.551 31.3972 188.157 31.0969 186.968 31.0969V31.6871C188.101 31.6871 189.299 31.9807 189.945 32.6267L190.363 32.2093ZM186.968 31.0969C185.517 31.0969 183.758 31.4865 182.244 32.4673L182.565 32.9627C183.968 32.0535 185.611 31.6871 186.968 31.6871V31.0969ZM182.699 32.6898L182.618 31.7448L182.03 31.7952L182.111 32.7402L182.699 32.6898ZM182.324 31.4749H178.976V32.0651H182.324V31.4749ZM178.681 31.77V45H179.271V31.77H178.681ZM200.501 45.6731C202.857 45.6731 204.626 44.9646 205.803 43.6696C206.975 42.3794 207.52 40.5502 207.52 38.385H206.929C206.929 40.4588 206.408 42.1261 205.366 43.2727C204.328 44.4144 202.736 45.0829 200.501 45.0829V45.6731ZM207.52 38.385C207.52 36.2198 206.975 34.3906 205.803 33.1004C204.626 31.8054 202.857 31.0969 200.501 31.0969V31.6871C202.736 31.6871 204.328 32.3556 205.366 33.4973C206.408 34.6439 206.929 36.3112 206.929 38.385H207.52ZM200.501 31.0969C198.146 31.0969 196.377 31.8054 195.2 33.1004C194.028 34.3906 193.483 36.2198 193.483 38.385H194.074C194.074 36.3112 194.595 34.6439 195.637 33.4973C196.675 32.3556 198.267 31.6871 200.501 31.6871V31.0969ZM193.483 38.385C193.483 40.5502 194.028 42.3794 195.2 43.6696C196.377 44.9646 198.146 45.6731 200.501 45.6731V45.0829C198.267 45.0829 196.675 44.4144 195.637 43.2727C194.595 42.1261 194.074 40.4588 194.074 38.385H193.483ZM200.501 42.1399C199.607 42.1399 199.037 41.8426 198.671 41.273C198.286 40.6749 198.097 39.7338 198.097 38.385H197.506C197.506 39.7632 197.695 40.8471 198.174 41.5923C198.672 42.3659 199.452 42.7301 200.501 42.7301V42.1399ZM198.097 38.385C198.097 37.0362 198.286 36.0951 198.671 35.497C199.037 34.9274 199.607 34.6301 200.501 34.6301V34.0399C199.452 34.0399 198.672 34.4041 198.174 35.1777C197.695 35.9229 197.506 37.0068 197.506 38.385H198.097ZM200.501 34.6301C201.396 34.6301 201.966 34.9274 202.332 35.497C202.717 36.0951 202.906 37.0362 202.906 38.385H203.497C203.497 37.0068 203.308 35.9229 202.829 35.1777C202.331 34.4041 201.551 34.0399 200.501 34.0399V34.6301ZM202.906 38.385C202.906 39.7338 202.717 40.6749 202.332 41.273C201.966 41.8426 201.396 42.1399 200.501 42.1399V42.7301C201.551 42.7301 202.331 42.3659 202.829 41.5923C203.308 40.8471 203.497 39.7632 203.497 38.385H202.906Z" fill="white"/>
<path d="M45.5708 44H49.9718L56.1008 25.532H51.9968L47.9738 38.924L43.6538 25.532H39.1448L45.5708 44ZM59.9711 28.556H60.1601C61.4831 28.556 62.1851 28.043 62.1851 26.72V26.369C62.1851 25.046 61.4831 24.506 60.1601 24.506H59.9711C58.6481 24.506 57.9461 25.046 57.9461 26.369V26.72C57.9461 28.043 58.6481 28.556 59.9711 28.556ZM58.1351 44H61.9961V30.77H58.1351V44ZM68.6801 44H73.1621L77.7251 30.77H73.8641L71.0561 39.95L68.1131 30.77H63.9551L68.6801 44ZM85.9468 44.378C87.5938 44.378 89.1328 44.162 90.4018 43.919L90.1048 41.111C89.1058 41.3 87.7558 41.435 86.8108 41.435C84.2188 41.435 82.8418 40.814 82.7338 38.573H90.8608C91.0768 38.573 91.1848 38.492 91.1848 38.276V37.061C91.1848 32.471 89.0788 30.392 85.1098 30.392C81.0598 30.392 78.6838 32.768 78.6838 37.412C78.6838 39.518 79.1428 41.408 80.4658 42.677C81.5998 43.757 83.4628 44.378 85.9468 44.378ZM82.7338 36.062C82.8148 34.361 83.5168 33.308 85.0828 33.308C86.6218 33.308 87.4048 34.388 87.4048 36.062H82.7338ZM106.276 44.378C107.923 44.378 109.462 44.162 110.731 43.919L110.434 41.111C109.435 41.3 108.085 41.435 107.14 41.435C104.548 41.435 103.171 40.814 103.063 38.573H111.19C111.406 38.573 111.514 38.492 111.514 38.276V37.061C111.514 32.471 109.408 30.392 105.439 30.392C101.389 30.392 99.0129 32.768 99.0129 37.412C99.0129 39.518 99.4719 41.408 100.795 42.677C101.929 43.757 103.792 44.378 106.276 44.378ZM103.063 36.062C103.144 34.361 103.846 33.308 105.412 33.308C106.951 33.308 107.734 34.388 107.734 36.062H103.063ZM114.034 44H117.895V24.695H114.034V44ZM130.643 44H135.125L139.688 30.77H135.827L133.019 39.95L130.076 30.77H125.918L130.643 44ZM147.91 44.378C149.557 44.378 151.096 44.162 152.365 43.919L152.068 41.111C151.069 41.3 149.719 41.435 148.774 41.435C146.182 41.435 144.805 40.814 144.697 38.573H152.824C153.04 38.573 153.148 38.492 153.148 38.276V37.061C153.148 32.471 151.042 30.392 147.073 30.392C143.023 30.392 140.647 32.768 140.647 37.412C140.647 39.518 141.106 41.408 142.429 42.677C143.563 43.757 145.426 44.378 147.91 44.378ZM144.697 36.062C144.778 34.361 145.48 33.308 147.046 33.308C148.585 33.308 149.368 34.388 149.368 36.062H144.697ZM155.586 44H159.447V34.064C160.284 33.875 161.067 33.74 162.093 33.74C162.714 33.74 163.362 33.794 163.794 33.848V30.473C163.632 30.446 163.335 30.419 163.119 30.419C161.85 30.419 160.095 30.905 159.069 31.85L158.934 30.77H155.586V44ZM169.466 44.378C170.87 44.378 172.301 43.919 173.435 43.19L173.759 44H176.81V35.414C176.81 33.821 176.459 32.687 175.784 31.904C174.866 30.824 173.057 30.392 171.032 30.392C169.439 30.392 167.684 30.608 166.334 30.878L166.523 33.713C167.441 33.524 168.98 33.362 170.222 33.362C171.275 33.362 172.004 33.497 172.463 33.902C172.787 34.199 172.949 34.658 172.949 35.387V35.819H170.843C168.386 35.819 166.928 36.143 165.983 37.034C165.227 37.763 164.822 38.843 164.822 40.031C164.822 42.596 166.442 44.378 169.466 44.378ZM170.573 41.435C169.169 41.435 168.683 40.841 168.683 39.869C168.683 39.383 168.818 39.005 169.061 38.762C169.412 38.411 169.979 38.303 170.897 38.303H172.949V41.03C172.328 41.219 171.302 41.435 170.573 41.435ZM179.976 44H183.837V34.037C184.458 33.794 185.619 33.605 186.348 33.605C187.131 33.605 187.671 33.713 188.022 34.037C188.292 34.307 188.427 34.685 188.427 35.36V44H192.288V34.901C192.288 33.362 191.964 32.201 191.154 31.418C190.425 30.689 189.129 30.392 187.968 30.392C186.564 30.392 184.863 30.77 183.405 31.715L183.324 30.77H179.976V44ZM201.501 44.378C206.091 44.378 208.224 41.624 208.224 37.385C208.224 33.146 206.091 30.392 201.501 30.392C196.911 30.392 194.778 33.146 194.778 37.385C194.778 41.624 196.911 44.378 201.501 44.378ZM201.501 41.435C199.557 41.435 198.801 40.112 198.801 37.385C198.801 34.658 199.557 33.335 201.501 33.335C203.445 33.335 204.201 34.658 204.201 37.385C204.201 40.112 203.445 41.435 201.501 41.435Z" fill="white"/>
</svg>
