<svg width="206" height="120" viewBox="0 0 206 120" fill="none" xmlns="http://www.w3.org/2000/svg">
<path d="M17.0892 67.2687C10.9831 67.5811 6.67151 65.9835 4.15456 62.4762C3.35763 61.4039 2.73721 60.1555 2.29331 58.7312C1.84941 57.3069 1.5877 55.8176 1.50818 54.2633C1.26585 49.5264 2.24508 45.8216 4.44586 43.1488C5.60082 41.7911 7.10399 40.7124 8.95537 39.9128C10.8067 39.1131 12.8612 38.6555 15.1186 38.54C18.0421 38.3904 20.7236 38.5872 23.1631 39.1302L22.9646 45.0399C20.9767 44.6221 18.8726 44.47 16.6522 44.5836C14.2097 44.7086 12.411 45.4499 11.256 46.8076C10.103 48.2024 9.60027 50.343 9.74795 53.2295C9.89372 56.079 10.6308 58.1562 11.959 59.4611C13.2854 60.729 15.3549 61.291 18.1674 61.1471C20.0178 61.0525 21.8956 60.771 23.801 60.3024L24.7042 65.9887C23.3149 66.3937 22.0496 66.681 20.908 66.8507C19.8054 67.0557 18.5324 67.1949 17.0892 67.2687Z" fill="#019DF4"/>
<path d="M35.0648 64.5927C31.7307 65.1942 29.0518 64.7334 27.028 63.2107C25.0263 61.6562 23.7295 59.2387 23.1378 55.9584C22.546 52.6781 22.9187 49.9734 24.2559 47.8443C25.6152 45.6834 27.9619 44.3022 31.296 43.7008C34.6302 43.0993 37.2981 43.5758 39.2998 45.1304C41.3235 46.6532 42.6313 49.0548 43.2231 52.3351C43.8148 55.6154 43.4311 58.336 42.0718 60.4968C40.7347 62.6258 38.399 63.9912 35.0648 64.5927ZM34.2718 60.1965C35.6968 59.9395 36.6314 59.2711 37.0751 58.1916C37.5409 57.0803 37.5871 55.4895 37.2136 53.4192C36.8401 51.3488 36.2434 49.8878 35.4235 49.0363C34.6257 48.153 33.514 47.8399 32.0891 48.097C30.6641 48.354 29.7185 49.0382 29.2527 50.1495C28.8089 51.229 28.7737 52.804 29.1472 54.8743C29.5207 56.9447 30.1064 58.4215 30.9043 59.3048C31.7242 60.1564 32.8468 60.4536 34.2718 60.1965Z" fill="#019DF4"/>
<path d="M43.3759 38.4094L50.175 38.0615L50.4377 39.9722C51.7802 38.9873 53.2442 38.2344 54.83 37.7134C56.4525 37.1906 58.0314 36.89 59.5667 36.8114C60.8463 36.7459 62.0801 36.8661 63.2684 37.1718C64.4552 37.4409 65.4135 37.905 66.1434 38.564C67.7553 39.9842 68.6436 42.3026 68.8082 45.5194L69.7535 63.9976L61.9126 64.3987L61.015 46.8527C60.9514 45.6098 60.6314 44.7283 60.055 44.208C59.4038 43.6549 58.2556 43.4205 56.6106 43.5046C55.843 43.5439 54.9522 43.6811 53.9379 43.9162C52.9584 44.113 52.1648 44.3551 51.5562 44.6428L52.5913 64.8756L44.7504 65.2767L43.3759 38.4094Z" fill="#019DF4"/>
<path d="M83.3682 62.8914C80.5976 63.0332 78.6208 62.5257 77.438 61.3689C76.2552 60.2122 75.5969 58.3263 75.4632 55.7113L74.8683 44.0841L70.9926 44.2824L70.8062 40.6401L74.6462 39.7414L74.3858 34.6516C76.5003 33.888 78.7095 33.4472 81.0131 33.3294L81.3236 39.3998L87.254 39.0964L87.4762 43.4391L81.5458 43.7425L82.0929 54.4358C82.1613 55.7744 82.4109 56.6824 82.8409 57.1598C83.3024 57.6357 84.1866 57.8401 85.494 57.7732C86.0544 57.7445 87.1236 57.5962 88.7017 57.3282L89.1765 62.0325C87.4836 62.4936 85.5474 62.7799 83.3682 62.8914Z" fill="#019DF4"/>
<path d="M99.499 61.1831C97.5885 61.1812 95.9029 60.9549 94.4421 60.5039C93.0097 60.025 91.8442 59.3635 90.946 58.5197C89.0932 56.7478 88.1687 54.0075 88.1722 50.2987C88.1756 46.7023 89.0493 43.9777 90.793 42.1249C92.5367 40.2722 95.0102 39.3473 98.2133 39.3504C101.36 39.3534 103.72 40.2126 105.291 41.928C106.891 43.6154 107.689 46.2292 107.686 49.7694L107.684 51.666C107.684 51.975 107.515 52.1294 107.178 52.1291L94.4923 52.117C94.575 53.8029 95.1218 54.9694 96.1326 55.6166C97.1435 56.2638 98.7166 56.5884 100.852 56.5905C102.51 56.5921 104.224 56.4251 105.994 56.0896L106.454 60.4732C103.953 60.9484 101.634 61.1851 99.499 61.1831ZM101.787 48.2044C101.789 46.8557 101.481 45.8018 100.863 45.0426C100.246 44.2834 99.3469 43.9032 98.1668 43.9021C95.8628 43.8999 94.6392 45.3317 94.496 48.1974L101.787 48.2044Z" fill="#019DF4"/>
<path d="M110.674 35.6072L116.462 35.942L116.507 37.5838C117.735 36.8742 119.044 36.3723 120.435 36.0781C121.857 35.7856 123.221 35.6772 124.528 35.7528C125.618 35.8158 126.651 36.0316 127.629 36.4004C128.609 36.7381 129.377 37.2196 129.934 37.8451C131.167 39.1966 131.705 41.2415 131.546 43.98L130.636 59.7108L123.961 59.3247L124.825 44.3875C124.886 43.3295 124.697 42.5536 124.257 42.0598C123.757 41.5313 122.807 41.2266 121.406 41.1456C120.753 41.1078 119.986 41.1415 119.106 41.2467C118.258 41.3226 117.564 41.4541 117.022 41.6414L116.026 58.8658L109.351 58.4798L110.674 35.6072Z" fill="#019DF4"/>
<path d="M137.154 33.3888C136.053 33.4452 135.214 33.2555 134.64 32.8197C134.094 32.3825 133.794 31.6419 133.741 30.598L133.712 30.0325C133.659 28.9886 133.881 28.2213 134.379 27.7306C134.905 27.2095 135.719 26.9207 136.821 26.8644L137.125 26.8488C138.227 26.7924 139.052 26.9974 139.599 27.4636C140.174 27.8994 140.487 28.6392 140.541 29.6832L140.57 30.2486C140.623 31.2925 140.386 32.0605 139.859 32.5527C139.361 33.0434 138.561 33.3169 137.459 33.3733L137.154 33.3888ZM134.379 37.1069L140.599 36.7887L141.69 58.1019L135.469 58.4201L134.379 37.1069Z" fill="#019DF4"/>
<path d="M152.964 60.1553C150.257 60.0612 148.114 59.2069 146.537 57.5926C144.101 55.02 142.98 50.971 143.172 45.4453C143.275 42.4784 143.81 39.9164 144.776 37.7593C145.742 35.6023 147.061 33.9772 148.733 32.8844C150.404 31.7914 152.316 31.2824 154.467 31.3572C155.691 31.3998 156.927 31.6284 158.175 32.0432C159.461 32.4221 160.612 32.9448 161.629 33.6114L162.107 19.8712L170.062 20.1479L168.678 59.9222L161.78 59.6823L161.681 57.7295C158.911 59.4526 156.005 60.2611 152.964 60.1553ZM156.185 54.0295C156.852 54.0527 157.634 53.9869 158.531 53.8326C159.464 53.6794 160.269 53.4846 160.946 53.2482L161.459 38.5067C160.175 38.0536 158.921 37.8058 157.697 37.7632C155.731 37.6948 154.226 38.2737 153.181 39.4998C152.174 40.6901 151.617 42.8428 151.508 45.958C151.437 47.9977 151.53 49.5975 151.787 50.7575C152.082 51.8817 152.573 52.6971 153.261 53.2037C153.986 53.7117 154.961 53.9869 156.185 54.0295Z" fill="#019DF4"/>
<path d="M183.441 58.768C179.581 58.9654 176.616 58.0558 174.546 56.0394C172.506 53.9901 171.389 51.0665 171.195 47.2686C171.001 43.4707 171.814 40.4639 173.636 38.2483C175.487 36 178.343 34.7771 182.203 34.5796C186.064 34.3821 189.014 35.308 191.054 37.3573C193.123 39.3738 194.255 42.281 194.449 46.079C194.644 49.8769 193.815 52.9 191.964 55.1483C190.142 57.3638 187.301 58.5705 183.441 58.768ZM183.18 53.6781C184.831 53.5937 185.985 52.9729 186.643 51.8155C187.332 50.6255 187.614 48.8319 187.492 46.4349C187.369 44.0379 186.906 42.2981 186.101 41.2156C185.326 40.1004 184.114 39.585 182.464 39.6694C180.814 39.7538 179.645 40.3911 178.957 41.5811C178.298 42.7384 178.03 44.5156 178.153 46.9127C178.275 49.3097 178.724 51.0658 179.499 52.181C180.303 53.2635 181.531 53.7625 183.18 53.6781Z" fill="#019DF4"/>
<path d="M23.0603 94.731C21.1292 95.2427 19.3652 95.4671 17.7681 95.404C16.1919 95.3051 14.8365 94.9499 13.702 94.3388C11.3537 93.0464 9.68285 90.5259 8.68953 86.7774C7.72634 83.1426 7.87673 80.1546 9.14073 77.8138C10.4047 75.473 12.6554 73.8737 15.8928 73.0158C19.0733 72.173 21.6882 72.4069 23.7376 73.7179C25.8077 74.9928 27.317 77.4193 28.2651 80.9975L28.7731 82.9143C28.8558 83.2266 28.7268 83.428 28.386 83.5183L15.5644 86.9159C16.1011 88.5972 16.9672 89.6291 18.1626 90.0112C19.3579 90.3934 21.0348 90.2987 23.193 89.7267C24.8685 89.2828 26.5556 88.6533 28.2543 87.8385L29.8968 92.1444C27.4973 93.2968 25.2185 94.1591 23.0603 94.731ZM21.8839 81.0017C21.5227 79.6386 20.9281 78.6564 20.1002 78.0552C19.2722 77.4541 18.2619 77.3115 17.0692 77.6275C14.7406 78.2446 13.8891 80.0202 14.5147 82.9544L21.8839 81.0017Z" fill="#019DF4"/>
<path d="M35.8761 84.0015L23.9305 68.8851L34.197 68.3632L41.3472 77.3454L45.9121 67.7676L55.7376 67.268L45.8682 83.0514L55.1415 94.025L44.6231 94.5598L40.3341 89.7107L32.1241 104.149L22.1096 104.658L35.8761 84.0015Z" fill="#019DF4"/>
<path d="M66.6147 93.492C61.4781 93.7532 57.8516 92.4081 55.7353 89.4571C55.065 88.5548 54.5434 87.5046 54.1706 86.3063C53.7974 85.108 53.5778 83.8551 53.5113 82.5476C53.3087 78.5629 54.1334 75.4466 55.9855 73.1988C56.9574 72.0571 58.2222 71.1501 59.7798 70.4778C61.3374 69.8055 63.0656 69.4212 64.9647 69.3247C67.4238 69.1997 69.6795 69.3659 71.7317 69.8233L71.5631 74.7945C69.8908 74.4427 68.121 74.3141 66.2531 74.4091C64.1985 74.5135 62.6852 75.1367 61.7133 76.2785C60.743 77.4514 60.3195 79.252 60.443 81.6802C60.5648 84.0772 61.1842 85.8247 62.3013 86.9229C63.4165 87.9898 65.1573 88.4631 67.5234 88.3428C69.0798 88.2637 70.6596 88.0274 72.2627 87.6337L73.0209 92.4173C71.8519 92.7576 70.7874 92.999 69.8273 93.1415C68.8997 93.3136 67.8288 93.4303 66.6147 93.492Z" fill="#019DF4"/>
<path d="M73.9241 63.2686L80.6017 62.9291L82.2992 96.317L75.6216 96.6565L73.9241 63.2686Z" fill="#019DF4"/>
<path d="M91.0049 90.9255C89.9143 90.9011 88.8736 90.722 87.8835 90.3879C86.8926 90.0851 86.1077 89.6311 85.5288 89.0256C84.2486 87.7187 83.6392 85.694 83.7006 82.9516L84.0526 67.2452L90.7371 67.395L90.4061 82.1664C90.3803 83.3196 90.5958 84.135 91.0528 84.6129C91.5713 85.1235 92.5319 85.3943 93.9342 85.4257C94.5264 85.439 95.229 85.3925 96.042 85.2859C96.8549 85.1793 97.5441 85.0389 98.1092 84.8645L98.4967 67.5689L105.181 67.7187L104.668 90.6237L98.8717 90.4938L98.7193 88.9471C97.5191 89.6372 96.2451 90.1389 94.8973 90.4515C93.5488 90.7955 92.2515 90.9535 91.0049 90.9255Z" fill="#019DF4"/>
<path d="M117.197 91.1348C115.653 91.2133 113.954 91.1521 112.101 90.9516C110.248 90.751 108.759 90.4763 107.636 90.1281L107.945 84.2514C109.028 84.5281 110.404 84.753 112.071 84.9263C113.775 85.0978 115.326 85.1479 116.723 85.0768C118.304 84.9965 119.49 84.752 120.28 84.3431C121.107 83.9323 121.497 83.2676 121.45 82.3484C121.407 81.5029 120.973 80.9351 120.147 80.6453C119.32 80.3186 118.015 80.0349 116.234 79.7937C114.23 79.5269 112.573 79.2058 111.264 78.83C109.954 78.4542 108.793 77.7209 107.779 76.6296C106.8 75.5 106.257 73.8871 106.151 71.7914C106.016 69.1443 106.883 66.9808 108.751 65.3007C110.656 63.6187 113.557 62.6788 117.454 62.4807C118.851 62.4096 120.347 62.4625 121.941 62.6396C123.535 62.8167 125.061 63.1075 126.519 63.5126L126.207 69.3342C124.828 69.0355 123.361 68.8154 121.806 68.6733C120.287 68.5293 118.958 68.4863 117.818 68.5443C114.913 68.6919 113.499 69.501 113.573 70.9717C113.613 71.7438 114.028 72.2939 114.818 72.6225C115.644 72.9123 116.949 73.196 118.732 73.474C120.699 73.7427 122.357 74.0821 123.705 74.4929C125.053 74.9037 126.234 75.673 127.25 76.8008C128.266 77.9286 128.827 79.5405 128.934 81.6362C129.078 84.467 128.159 86.7071 126.179 88.3559C124.198 90.0048 121.204 90.9311 117.197 91.1348Z" fill="#019DF4"/>
<path d="M133.751 69.8567C132.628 69.9138 131.773 69.7203 131.188 69.2758C130.632 68.8299 130.327 68.075 130.272 67.011L130.243 66.4346C130.189 65.3706 130.416 64.5887 130.924 64.0886C131.46 63.5577 132.29 63.2635 133.413 63.2064L133.723 63.1907C134.846 63.1335 135.687 63.3428 136.244 63.8181C136.83 64.2626 137.15 65.0167 137.204 66.0807L137.233 66.6571C137.287 67.7211 137.046 68.5038 136.508 69.0054C136 69.5054 135.185 69.7838 134.061 69.841L133.751 69.8567ZM130.921 73.6455L137.261 73.3232L138.365 95.0475L132.025 95.3698L130.921 73.6455Z" fill="#019DF4"/>
<path d="M138.046 61.5555L147.308 61.8565L153.2 82.5191L160.119 62.2728L168.72 62.5523L157.598 91.6934L147.614 91.369L138.046 61.5555Z" fill="#019DF4"/>
<path d="M20.5772 108.259C20.5046 103.549 24.2313 99.6566 28.9393 99.524L156.949 95.9193C162.947 95.7504 167.742 100.865 167.188 106.84L167.035 108.485C166.555 113.653 162.202 117.594 157.013 117.561L29.1257 116.731C24.4467 116.701 20.6493 112.937 20.5772 108.259Z" fill="#0B2739"/>
<path d="M28.3987 103.726L34.9831 103.625L34.8369 105.238L30.6468 105.302L30.6833 107.668L34.0325 107.617L34.0582 109.284L30.709 109.336L30.7475 111.83L35.1798 111.761L35.2046 113.372L28.549 113.475L28.3987 103.726Z" fill="white"/>
<path d="M39.7399 113.502C38.5427 113.52 37.4618 113.37 36.497 113.053L36.8129 111.351C37.2332 111.487 37.6958 111.599 38.2009 111.686C38.7057 111.764 39.1434 111.8 39.514 111.794C40.1791 111.784 40.6622 111.682 40.9633 111.487C41.2739 111.292 41.4258 110.971 41.4189 110.525C41.4137 110.192 41.2627 109.948 40.9656 109.791C40.6781 109.633 40.2196 109.479 39.59 109.327C38.9413 109.166 38.4017 108.994 37.9712 108.81C37.5407 108.627 37.1703 108.333 36.86 107.929C36.5496 107.526 36.389 106.972 36.3782 106.269C36.3635 105.319 36.6851 104.601 37.3429 104.116C38.0006 103.63 38.8758 103.379 39.9685 103.363C40.4435 103.355 40.9239 103.386 41.4096 103.454C41.8952 103.513 42.3243 103.602 42.6967 103.72L42.3802 105.378C41.5215 105.163 40.7407 105.061 40.0376 105.072C39.4675 105.081 39.0603 105.177 38.8161 105.362C38.5814 105.546 38.4665 105.804 38.4717 106.137C38.4755 106.384 38.5546 106.587 38.7091 106.746C38.873 106.896 39.0744 107.016 39.3134 107.108C39.5524 107.199 39.8962 107.303 40.3446 107.419C40.9933 107.581 41.5283 107.758 41.9494 107.951C42.3704 108.134 42.7313 108.428 43.0321 108.832C43.3425 109.236 43.5029 109.78 43.5135 110.464C43.5266 111.319 43.2664 112.007 42.7327 112.529C42.3957 112.857 41.986 113.101 41.5038 113.261C41.031 113.41 40.443 113.491 39.7399 113.502Z" fill="white"/>
<path d="M47.0824 105.049L44.061 105.096L44.0362 103.485L52.402 103.356L52.2558 104.969L49.3057 105.015L49.4312 113.153L47.2079 113.187L47.0824 105.049Z" fill="white"/>
<path d="M55.2439 103.312L57.6952 103.275L61.3658 112.969L58.9857 113.005L58.1355 110.566L54.9716 110.615L54.2541 113.078L52.1306 113.111L55.2439 103.312ZM57.5691 108.964L56.4502 105.731L56.4217 105.732L55.4599 108.997L57.5691 108.964ZM54.658 101.368L57.2287 98.9054L58.2472 100.244L55.3842 102.241L54.658 101.368Z" fill="white"/>
<path d="M65.5453 103.154L72.1297 103.052L71.9835 104.665L67.7934 104.73L67.8299 107.096L71.1791 107.044L71.2048 108.711L67.8556 108.763L67.8941 111.257L72.3264 111.189L72.3512 112.799L65.6956 112.902L65.5453 103.154Z" fill="white"/>
<path d="M73.8543 103.025L75.4932 103L80.2071 109.171L80.1108 102.929L82.0633 102.899L82.2136 112.647L80.4321 112.675L75.8659 106.829L75.9571 112.744L74.0046 112.774L73.8543 103.025Z" fill="white"/>
<path d="M87.3684 102.817L89.1214 102.79L92.2838 108.187L95.378 102.694L97.0882 102.667L97.2385 112.415L95.2005 112.447L95.1139 106.832L93.1424 110.255L91.4322 110.281L89.2983 106.864L89.3857 112.537L87.5188 112.565L87.3684 102.817Z" fill="white"/>
<path d="M103.257 112.522C101.784 112.545 100.69 112.139 99.9737 111.304C99.2575 110.46 98.8864 109.202 98.8607 107.529C98.8349 105.857 99.1669 104.588 99.8568 103.722C100.556 102.856 101.638 102.412 103.101 102.389C104.564 102.367 105.654 102.777 106.37 103.622C107.096 104.466 107.471 105.724 107.497 107.396C107.523 109.068 107.191 110.338 106.501 111.203C105.811 112.06 104.73 112.5 103.257 112.522ZM103.23 110.783C103.952 110.772 104.461 110.508 104.757 109.99C105.063 109.463 105.207 108.61 105.188 107.432C105.17 106.254 105 105.406 104.679 104.888C104.357 104.37 103.84 104.117 103.128 104.128C102.415 104.139 101.906 104.408 101.6 104.935C101.295 105.463 101.151 106.316 101.169 107.494C101.188 108.672 101.353 109.52 101.665 110.038C101.986 110.546 102.508 110.795 103.23 110.783Z" fill="white"/>
<path d="M108.099 102.497L110.479 102.461L112.869 109.494L114.883 102.393L117.049 102.359L113.964 112.158L111.641 112.193L108.099 102.497Z" fill="white"/>
<path d="M118.308 102.34L120.532 102.306L120.682 112.054L118.459 112.088L118.308 102.34Z" fill="white"/>
<path d="M125.696 112.176C124.499 112.195 123.418 112.045 122.453 111.727L122.769 110.026C123.19 110.162 123.652 110.274 124.157 110.361C124.662 110.439 125.1 110.475 125.47 110.469C126.135 110.459 126.619 110.356 126.92 110.162C127.23 109.967 127.382 109.646 127.375 109.2C127.37 108.867 127.219 108.622 126.922 108.465C126.634 108.308 126.176 108.154 125.546 108.002C124.898 107.841 124.358 107.668 123.928 107.485C123.497 107.302 123.127 107.008 122.816 106.604C122.506 106.2 122.345 105.647 122.335 104.944C122.32 103.994 122.641 103.276 123.299 102.79C123.957 102.305 124.832 102.054 125.925 102.037C126.4 102.03 126.88 102.061 127.366 102.129C127.852 102.188 128.281 102.277 128.653 102.394L128.337 104.053C127.478 103.838 126.697 103.736 125.994 103.747C125.424 103.756 125.017 103.852 124.772 104.036C124.538 104.221 124.423 104.479 124.428 104.812C124.432 105.059 124.511 105.262 124.666 105.421C124.829 105.57 125.031 105.691 125.27 105.782C125.509 105.874 125.853 105.978 126.301 106.094C126.95 106.255 127.485 106.432 127.906 106.625C128.327 106.809 128.688 107.103 128.988 107.507C129.299 107.911 129.459 108.455 129.47 109.139C129.483 109.994 129.223 110.682 128.689 111.204C128.352 111.532 127.942 111.776 127.46 111.935C126.987 112.085 126.399 112.165 125.696 112.176Z" fill="white"/>
<path d="M133.039 103.724L130.017 103.77L129.993 102.16L138.358 102.031L138.212 103.644L135.262 103.689L135.388 111.827L133.164 111.862L133.039 103.724Z" fill="white"/>
<path d="M141.2 101.987L143.652 101.949L147.322 111.643L144.942 111.68L144.092 109.241L140.928 109.29L140.21 111.753L138.087 111.786L141.2 101.987ZM143.526 107.639L142.407 104.406L142.378 104.407L141.416 107.672L143.526 107.639Z" fill="white"/>
<path d="M148.301 101.878L151.65 101.826C152.457 101.813 153.104 101.861 153.591 101.967C154.077 102.074 154.479 102.272 154.797 102.561C155.347 103.066 155.629 103.808 155.644 104.786C155.655 105.461 155.521 106.052 155.244 106.56C154.976 107.059 154.573 107.44 154.036 107.705L156.204 111.506L153.696 111.545L151.845 108.038L150.62 108.057L150.674 111.592L148.451 111.626L148.301 101.878ZM151.578 106.431C151.949 106.426 152.243 106.397 152.461 106.347C152.678 106.286 152.858 106.193 152.998 106.067C153.27 105.826 153.402 105.42 153.393 104.85C153.385 104.356 153.266 103.996 153.034 103.772C152.899 103.641 152.712 103.553 152.474 103.51C152.236 103.456 151.926 103.433 151.546 103.438L150.549 103.454L150.595 106.447L151.578 106.431Z" fill="white"/>
<path d="M157.457 101.736L159.594 101.703L159.384 108.407L157.873 108.43L157.457 101.736ZM158.665 111.668C158.313 111.673 158.051 111.601 157.877 111.452C157.704 111.303 157.614 111.052 157.609 110.701L157.606 110.53C157.601 110.178 157.683 109.925 157.851 109.77C158.02 109.616 158.28 109.536 158.632 109.53L158.731 109.529C159.083 109.523 159.345 109.595 159.519 109.745C159.692 109.894 159.781 110.144 159.787 110.496L159.79 110.667C159.795 111.019 159.713 111.272 159.545 111.426C159.376 111.581 159.116 111.661 158.764 111.666L158.665 111.668Z" fill="white"/>
<path d="M185.808 60.6631C174.656 60.6631 165.615 69.7035 165.615 80.8553C166.679 107.64 204.94 107.632 206 80.8552C206 69.7035 196.959 60.6631 185.808 60.6631ZM187.07 66.8248L191.238 64.0495C194.804 65.2131 197.91 67.4785 200.107 70.5194L198.762 75.316L192.179 77.4261L187.07 73.6711V66.8248ZM180.377 64.0495L184.546 66.8253V73.6706L179.436 77.4261L172.853 75.3156L171.509 70.5192C173.706 67.4782 176.811 65.2129 180.377 64.0495ZM171.56 91.2606C169.334 88.2395 168.135 84.5838 168.141 80.831L172.077 77.7172L178.656 79.826L180.618 85.9364L176.546 91.4645L171.56 91.2606ZM191.293 97.6407C187.869 98.8079 183.745 98.8077 180.321 97.6406L178.584 92.9544L182.662 87.4185H188.954L193.031 92.9546L191.293 97.6407ZM200.055 91.2607L195.069 91.4646L190.997 85.9365L192.96 79.8259L199.538 77.7176L203.475 80.8312C203.48 84.5841 202.281 88.2397 200.055 91.2607H200.055Z" fill="#0B2739"/>
<path d="M27.6409 10.9306C28.4636 10.8316 29.0965 10.9359 29.5395 11.2434C29.9826 11.551 30.2536 12.1162 30.3527 12.9389L30.4009 13.3391C30.4999 14.1618 30.3707 14.7751 30.0133 15.179C29.6559 15.583 29.0659 15.8345 28.2432 15.9335L28.0097 15.9616C27.187 16.0606 26.5541 15.9564 26.1111 15.6488C25.668 15.3412 25.397 14.7761 25.2979 13.9534L25.2498 13.5531C25.1507 12.7305 25.2799 12.1171 25.6373 11.7132C25.9947 11.3093 26.5848 11.0578 27.4075 10.9587L27.6409 10.9306ZM32.9114 33.9135L27.9086 34.5157L26.7553 18.7518L30.2907 18.3262L32.9114 33.9135Z" fill="#0B2739"/>
<path d="M34.4413 5.34949L49.86 3.57792L49.8928 7.39516L40.0809 8.52251L40.7175 14.0625L48.5603 13.1614L49.0089 17.0661L41.1661 17.9672L41.8372 23.8076L52.2164 22.6151L52.6497 26.3863L37.0642 28.177L34.4413 5.34949Z" fill="#0B2739"/>
<path d="M52.7303 2.22327L57.5028 1.67493L60.2445 25.5371L55.4721 26.0854L52.7303 2.22327Z" fill="#0B2739"/>
<path d="M69.3141 8.04989H73.4796L73.5804 9.22565C75.2377 8.12828 77.0181 7.57959 78.9217 7.57959C81.0045 7.57959 82.4602 8.16187 83.2889 9.32643C84.1623 8.74415 85.1029 8.30744 86.1107 8.0163C87.1185 7.72516 88.0927 7.57959 89.0333 7.57959C89.8171 7.57959 90.5674 7.69157 91.284 7.91552C92.0007 8.11708 92.5718 8.43062 92.9973 8.85613C93.9379 9.77434 94.4082 11.2189 94.4082 13.1897V24.5106H89.6044V13.7607C89.6044 12.9993 89.4364 12.4506 89.1005 12.1147C88.7198 11.7563 88.0255 11.5772 87.0177 11.5772C86.637 11.5772 86.1779 11.622 85.6404 11.7115C85.1253 11.8011 84.655 11.9019 84.2295 12.0139C84.2743 12.5066 84.2966 12.8985 84.2966 13.1897V24.5106H79.4928V13.7607C79.4928 12.9993 79.3249 12.4506 78.9889 12.1147C78.6082 11.7563 77.9363 11.5772 76.9733 11.5772C76.5478 11.5772 76.0663 11.6332 75.5288 11.7451C74.9913 11.8347 74.521 11.9579 74.1179 12.1147V24.5106H69.3141V8.04989Z" fill="#0B2739"/>
<path d="M107.035 24.7209C105.527 24.9329 104.172 24.9425 102.969 24.7498C101.785 24.5318 100.791 24.14 99.9877 23.5745C98.3276 22.3831 97.2918 20.3237 96.8802 17.3962C96.4812 14.5575 96.8662 12.3097 98.0355 10.6527C99.2047 8.99567 101.053 7.98945 103.582 7.63403C106.065 7.28483 108.023 7.69935 109.456 8.87758C110.907 10.0305 111.829 12.0041 112.222 14.7985L112.432 16.2955C112.466 16.5394 112.35 16.6801 112.084 16.7175L102.071 18.1252C102.325 19.4465 102.887 20.306 103.757 20.7039C104.627 21.1017 105.905 21.1822 107.59 20.9452C108.899 20.7613 110.233 20.438 111.592 19.9755L112.445 23.3837C110.524 24.0382 108.721 24.4839 107.035 24.7209ZM107.391 14.2224C107.242 13.1579 106.881 12.3605 106.309 11.8303C105.737 11.3001 104.985 11.1005 104.053 11.2314C102.235 11.4871 101.429 12.7538 101.636 15.0314L107.391 14.2224Z" fill="#0B2739"/>
<path d="M117.712 5.43052C116.862 5.38459 116.235 5.17124 115.829 4.79047C115.446 4.4109 115.276 3.81859 115.32 3.01353L115.343 2.57745C115.387 1.77239 115.619 1.20184 116.041 0.865791C116.487 0.508589 117.134 0.352954 117.984 0.398886L118.219 0.411578C119.069 0.457511 119.685 0.68144 120.067 1.08337C120.472 1.46414 120.653 2.05705 120.61 2.86211L120.586 3.29819C120.542 4.10325 120.299 4.6732 119.854 5.00804C119.432 5.34409 118.797 5.48914 117.947 5.44321L117.712 5.43052ZM111.147 32.2922C110.699 32.268 110.097 32.213 109.339 32.1272L109.063 28.5126C109.642 28.5887 110.155 28.6389 110.603 28.6631C111.206 28.6957 111.758 28.6582 112.257 28.5507C112.779 28.4443 113.169 28.2747 113.428 28.0421C113.734 27.7894 113.954 27.4425 114.09 27.0013C114.225 26.5824 114.309 26.0599 114.343 25.4338L115.282 8.05786L120.079 8.31713L119.232 23.9823C119.122 26.0173 118.81 27.6489 118.295 28.877C117.78 30.1052 116.947 31.0021 115.795 31.5678C114.641 32.1559 113.092 32.3974 111.147 32.2922Z" fill="#0B2739"/>
<path d="M130.614 24.9809C127.837 24.9809 125.743 24.2194 124.332 22.6965C122.943 21.1512 122.249 19.0125 122.249 16.2802C122.249 13.548 122.943 11.4204 124.332 9.89752C125.743 8.35223 127.837 7.57959 130.614 7.57959C133.391 7.57959 135.473 8.35223 136.862 9.89752C138.273 11.4204 138.978 13.548 138.978 16.2802C138.978 19.0125 138.273 21.1512 136.862 22.6965C135.473 24.2194 133.391 24.9809 130.614 24.9809ZM130.614 21.3192C131.801 21.3192 132.652 20.9161 133.167 20.1098C133.704 19.2812 133.973 18.0047 133.973 16.2802C133.973 14.5558 133.704 13.2904 133.167 12.4842C132.652 11.6556 131.801 11.2412 130.614 11.2412C129.427 11.2412 128.564 11.6556 128.027 12.4842C127.512 13.2904 127.254 14.5558 127.254 16.2802C127.254 18.0047 127.512 19.2812 128.027 20.1098C128.564 20.9161 129.427 21.3192 130.614 21.3192Z" fill="#0B2739"/>
<path d="M141.07 8.24952L145.199 7.69825L145.543 9.00793C146.069 8.37295 146.777 7.83782 147.668 7.40256C148.581 6.96434 149.459 6.68892 150.303 6.57629C150.591 6.53776 150.872 6.52291 151.144 6.53174L151.7 10.694C150.977 10.7 150.272 10.749 149.584 10.8408C148.585 10.9742 147.515 11.2526 146.374 11.6761L148.01 23.9297L143.249 24.5654L141.07 8.24952Z" fill="#0B2739"/>
</svg>
