<svg width="407" height="295" viewBox="0 0 407 295" fill="none" xmlns="http://www.w3.org/2000/svg">
<path d="M76.1804 67.0128C78.3084 67.0128 81.1584 66.6708 82.7164 66.2148L82.1084 61.8828C80.5884 62.1868 78.5744 62.4148 77.3204 62.4148C74.3944 62.4148 72.7604 61.8448 71.6204 60.5528C70.3284 59.1088 69.7584 56.5248 69.7584 53.4468C69.7584 48.2788 71.0504 44.5928 76.6364 44.5928C78.2704 44.5928 80.2084 44.9348 82.2224 45.5048L82.9824 41.1728C81.3104 40.4888 78.4224 39.9948 76.1804 39.9948C67.2884 39.9948 63.6024 45.4668 63.6024 53.5988C63.6024 58.1208 64.5524 61.5028 66.7564 63.8588C68.6944 65.9108 71.5824 67.0128 76.1804 67.0128ZM94.4676 67.0128C100.928 67.0128 103.93 63.1368 103.93 57.1708C103.93 51.2048 100.928 47.3288 94.4676 47.3288C88.0076 47.3288 85.0056 51.2048 85.0056 57.1708C85.0056 63.1368 88.0076 67.0128 94.4676 67.0128ZM94.4676 62.8708C91.7316 62.8708 90.6676 61.0088 90.6676 57.1708C90.6676 53.3328 91.7316 51.4708 94.4676 51.4708C97.2036 51.4708 98.2676 53.3328 98.2676 57.1708C98.2676 61.0088 97.2036 62.8708 94.4676 62.8708ZM113.595 67.0128C119.181 67.0128 121.993 64.7708 121.993 60.8948C121.993 53.1808 111.809 56.1828 111.809 53.0288C111.809 51.9648 112.873 51.5088 114.811 51.5088C116.331 51.5088 118.611 51.8128 120.549 52.3448L120.967 48.3548C118.953 47.6708 116.635 47.3288 114.773 47.3288C109.187 47.3288 106.679 49.8748 106.679 53.3328C106.679 61.0468 116.825 57.8168 116.825 61.1228C116.825 62.4528 115.533 62.8328 113.481 62.8328C111.467 62.8328 108.883 62.4148 107.477 61.9588L107.059 65.9868C108.541 66.5188 111.391 67.0128 113.595 67.0128ZM132.884 67.0128C134.518 67.0128 136.418 66.8228 137.634 66.5568L137.444 62.7188C136.798 62.7948 135.582 62.9468 134.822 62.9468C132.618 62.9468 132.2 62.1868 132.2 60.0968V51.3948H137.026V47.8608H132.2V42.9208C130.452 42.9208 128.4 43.2248 126.766 43.7188V47.8608L123.612 48.4308V51.3948H126.766V60.8568C126.766 64.9608 128.248 67.0128 132.884 67.0128ZM149.352 67.0128C155.812 67.0128 158.814 63.1368 158.814 57.1708C158.814 51.2048 155.812 47.3288 149.352 47.3288C142.892 47.3288 139.89 51.2048 139.89 57.1708C139.89 63.1368 142.892 67.0128 149.352 67.0128ZM149.352 62.8708C146.616 62.8708 145.552 61.0088 145.552 57.1708C145.552 53.3328 146.616 51.4708 149.352 51.4708C152.088 51.4708 153.152 53.3328 153.152 57.1708C153.152 61.0088 152.088 62.8708 149.352 62.8708ZM177.053 67.0128C179.333 67.0128 181.347 66.2148 182.943 65.1508L183.057 66.4808H187.769V39.3108H182.335V48.6968C180.891 47.8228 179.029 47.3288 177.395 47.3288C172.949 47.3288 170.023 51.0148 170.023 57.2088C170.023 60.8568 170.859 63.7068 172.607 65.4168C173.671 66.4428 175.229 67.0128 177.053 67.0128ZM179.105 62.7568C176.635 62.7568 175.723 61.5028 175.723 57.3608C175.723 52.8768 177.205 51.6228 179.751 51.6228C180.435 51.6228 181.499 51.7748 182.335 52.0408V62.1108C181.385 62.4908 179.979 62.7568 179.105 62.7568ZM201.583 67.0128C203.901 67.0128 206.067 66.7088 207.853 66.3668L207.435 62.4148C206.029 62.6808 204.129 62.8708 202.799 62.8708C199.151 62.8708 197.213 61.9968 197.061 58.8428H208.499C208.803 58.8428 208.955 58.7288 208.955 58.4248V56.7148C208.955 50.2548 205.991 47.3288 200.405 47.3288C194.705 47.3288 191.361 50.6728 191.361 57.2088C191.361 60.1728 192.007 62.8328 193.869 64.6188C195.465 66.1388 198.087 67.0128 201.583 67.0128ZM197.061 55.3088C197.175 52.9148 198.163 51.4328 200.367 51.4328C202.533 51.4328 203.635 52.9528 203.635 55.3088H197.061ZM223.62 44.7448H223.886C225.748 44.7448 226.736 44.0228 226.736 42.1608V41.6668C226.736 39.8048 225.748 39.0448 223.886 39.0448H223.62C221.758 39.0448 220.77 39.8048 220.77 41.6668V42.1608C220.77 44.0228 221.758 44.7448 223.62 44.7448ZM221.036 66.4808H226.47V47.8608H221.036V66.4808ZM231.127 66.4808H236.561V52.4588C237.435 52.1168 239.069 51.8508 240.095 51.8508C241.197 51.8508 241.957 52.0028 242.451 52.4588C242.831 52.8388 243.021 53.3708 243.021 54.3208V66.4808H248.455V53.6748C248.455 51.5088 247.999 49.8748 246.859 48.7728C245.833 47.7468 244.009 47.3288 242.375 47.3288C240.399 47.3288 238.005 47.8608 235.953 49.1908L235.839 47.8608H231.127V66.4808ZM258.953 67.0128C264.539 67.0128 267.351 64.7708 267.351 60.8948C267.351 53.1808 257.167 56.1828 257.167 53.0288C257.167 51.9648 258.231 51.5088 260.169 51.5088C261.689 51.5088 263.969 51.8128 265.907 52.3448L266.325 48.3548C264.311 47.6708 261.993 47.3288 260.131 47.3288C254.545 47.3288 252.037 49.8748 252.037 53.3328C252.037 61.0468 262.183 57.8168 262.183 61.1228C262.183 62.4528 260.891 62.8328 258.839 62.8328C256.825 62.8328 254.241 62.4148 252.835 61.9588L252.417 65.9868C253.899 66.5188 256.749 67.0128 258.953 67.0128ZM278.242 67.0128C279.876 67.0128 281.776 66.8228 282.992 66.5568L282.802 62.7188C282.156 62.7948 280.94 62.9468 280.18 62.9468C277.976 62.9468 277.558 62.1868 277.558 60.0968V51.3948H282.384V47.8608H277.558V42.9208C275.81 42.9208 273.758 43.2248 272.124 43.7188V47.8608L268.97 48.4308V51.3948H272.124V60.8568C272.124 64.9608 273.606 67.0128 278.242 67.0128ZM291.594 67.0128C293.57 67.0128 295.584 66.3668 297.18 65.3408L297.636 66.4808H301.93V54.3968C301.93 52.1548 301.436 50.5588 300.486 49.4568C299.194 47.9368 296.648 47.3288 293.798 47.3288C291.556 47.3288 289.086 47.6328 287.186 48.0128L287.452 52.0028C288.744 51.7368 290.91 51.5088 292.658 51.5088C294.14 51.5088 295.166 51.6988 295.812 52.2688C296.268 52.6868 296.496 53.3328 296.496 54.3588V54.9668H293.532C290.074 54.9668 288.022 55.4228 286.692 56.6768C285.628 57.7028 285.058 59.2228 285.058 60.8948C285.058 64.5048 287.338 67.0128 291.594 67.0128ZM293.152 62.8708C291.176 62.8708 290.492 62.0348 290.492 60.6668C290.492 59.9828 290.682 59.4508 291.024 59.1088C291.518 58.6148 292.316 58.4628 293.608 58.4628H296.496V62.3008C295.622 62.5668 294.178 62.8708 293.152 62.8708ZM306.499 66.4808H311.933V39.3108H306.499V66.4808ZM321.986 67.0128C323.962 67.0128 325.976 66.3668 327.572 65.3408L328.028 66.4808H332.322V54.3968C332.322 52.1548 331.828 50.5588 330.878 49.4568C329.586 47.9368 327.04 47.3288 324.19 47.3288C321.948 47.3288 319.478 47.6328 317.578 48.0128L317.844 52.0028C319.136 51.7368 321.302 51.5088 323.05 51.5088C324.532 51.5088 325.558 51.6988 326.204 52.2688C326.66 52.6868 326.888 53.3328 326.888 54.3588V54.9668H323.924C320.466 54.9668 318.414 55.4228 317.084 56.6768C316.02 57.7028 315.45 59.2228 315.45 60.8948C315.45 64.5048 317.73 67.0128 321.986 67.0128ZM323.544 62.8708C321.568 62.8708 320.884 62.0348 320.884 60.6668C320.884 59.9828 321.074 59.4508 321.416 59.1088C321.91 58.6148 322.708 58.4628 324 58.4628H326.888V62.3008C326.014 62.5668 324.57 62.8708 323.544 62.8708ZM346.012 67.0128C348.064 67.0128 349.432 66.8228 351.256 66.4048L350.838 62.4908C349.66 62.7188 348.178 62.8708 346.962 62.8708C343.048 62.8708 341.49 61.0088 341.49 57.1708C341.49 55.2708 341.832 53.8268 342.744 52.8388C343.542 52.0028 344.834 51.5088 346.506 51.5088C348.064 51.5088 349.66 51.7368 350.8 52.0408L351.142 48.0128C349.356 47.5188 347.38 47.3288 345.67 47.3288C342.592 47.3288 339.894 48.3168 338.222 50.1028C336.55 51.9268 335.828 54.4728 335.828 57.5888C335.828 59.6408 336.322 61.7308 337.348 63.2888C339.286 66.2908 342.82 67.0128 346.012 67.0128ZM357.066 44.7448H357.332C359.194 44.7448 360.182 44.0228 360.182 42.1608V41.6668C360.182 39.8048 359.194 39.0448 357.332 39.0448H357.066C355.204 39.0448 354.216 39.8048 354.216 41.6668V42.1608C354.216 44.0228 355.204 44.7448 357.066 44.7448ZM354.482 66.4808H359.916V47.8608H354.482V66.4808ZM370.159 45.2388L377.873 40.0328L375.213 36.4228L368.259 42.8828L370.159 45.2388ZM373.085 67.0128C379.545 67.0128 382.547 63.1368 382.547 57.1708C382.547 51.2048 379.545 47.3288 373.085 47.3288C366.625 47.3288 363.623 51.2048 363.623 57.1708C363.623 63.1368 366.625 67.0128 373.085 67.0128ZM373.085 62.8708C370.349 62.8708 369.285 61.0088 369.285 57.1708C369.285 53.3328 370.349 51.4708 373.085 51.4708C375.821 51.4708 376.885 53.3328 376.885 57.1708C376.885 61.0088 375.821 62.8708 373.085 62.8708ZM386.17 66.4808H391.604V52.4588C392.478 52.1168 394.112 51.8508 395.138 51.8508C396.24 51.8508 397 52.0028 397.494 52.4588C397.874 52.8388 398.064 53.3708 398.064 54.3208V66.4808H403.498V53.6748C403.498 51.5088 403.042 49.8748 401.902 48.7728C400.876 47.7468 399.052 47.3288 397.418 47.3288C395.442 47.3288 393.048 47.8608 390.996 49.1908L390.882 47.8608H386.17V66.4808Z" fill="white"/>
<path d="M123.839 157.289L124.131 158.237L124.831 158.022V157.289H123.839ZM123.839 122.389H124.831V121.396H123.839V122.389ZM98.7386 122.389V121.396H97.7462V122.389H98.7386ZM98.7386 133.589H97.7462V134.581H98.7386V133.589ZM108.339 133.589H109.331V132.596H108.339V133.589ZM108.339 147.989L108.502 148.968L109.331 148.829V147.989H108.339ZM86.8386 143.189L86.0311 143.766L86.8386 143.189ZM118.539 104.389L118.266 105.343L119.326 105.646L119.516 104.56L118.539 104.389ZM120.539 92.9887L121.516 93.1602L121.652 92.3883L120.932 92.0776L120.539 92.9887ZM99.4386 161.781C107.029 161.781 117.528 160.269 124.131 158.237L123.547 156.34C117.15 158.309 106.849 159.796 99.4386 159.796V161.781ZM124.831 157.289V122.389H122.846V157.289H124.831ZM123.839 121.396H98.7386V123.381H123.839V121.396ZM97.7462 122.389V133.589H99.7311V122.389H97.7462ZM98.7386 134.581H108.339V132.596H98.7386V134.581ZM107.346 133.589V147.989H109.331V133.589H107.346ZM108.175 147.01C105.826 147.401 102.48 147.696 100.039 147.696V149.681C102.597 149.681 106.051 149.376 108.502 148.968L108.175 147.01ZM100.039 147.696C93.6544 147.696 89.9064 145.776 87.6462 142.612L86.0311 143.766C88.7709 147.601 93.2229 149.681 100.039 149.681V147.696ZM87.6462 142.612C84.8393 138.682 83.8311 132.658 83.8311 124.989H81.8462C81.8462 132.719 82.838 139.295 86.0311 143.766L87.6462 142.612ZM83.8311 124.989C83.8311 117.635 85.2429 112.13 88.1867 108.474C91.095 104.861 95.6423 102.881 102.339 102.881V100.896C95.2349 100.896 90.0323 103.016 86.6406 107.229C83.2844 111.397 81.8462 117.442 81.8462 124.989H83.8311ZM102.339 102.881C107.619 102.881 113.424 103.959 118.266 105.343L118.811 103.434C113.854 102.018 107.858 100.896 102.339 100.896V102.881ZM119.516 104.56L121.516 93.1602L119.561 92.8172L117.561 104.217L119.516 104.56ZM120.932 92.0776C116.369 90.1073 108.124 88.6963 101.239 88.6963V90.6812C107.953 90.6812 115.908 92.0702 120.145 93.8999L120.932 92.0776ZM101.239 88.6963C89.3756 88.6963 80.4334 92.3946 74.4674 98.9455C68.5152 105.481 65.6462 114.724 65.6462 125.589H67.6311C67.6311 115.053 70.4121 106.346 75.9349 100.282C81.4439 94.2328 89.8017 90.6812 101.239 90.6812V88.6963ZM65.6462 125.589C65.6462 136.535 67.734 145.617 73.0927 151.966C78.4811 158.351 87.0091 161.781 99.4386 161.781V159.796C87.3682 159.796 79.4962 156.476 74.6096 150.686C69.6933 144.861 67.6311 136.343 67.6311 125.589H65.6462ZM136.628 159.389H135.636V160.381H136.628V159.389ZM152.228 159.389V160.381H153.221V159.389H152.228ZM152.228 134.589V133.596H151.236V134.589H152.228ZM160.828 134.589L161.713 134.139L161.437 133.596H160.828V134.589ZM173.428 159.389L172.544 159.838L172.82 160.381H173.428V159.389ZM191.028 159.389V160.381H192.707L191.898 158.91L191.028 159.389ZM176.228 132.489L175.808 131.59L174.848 132.039L175.359 132.967L176.228 132.489ZM182.128 96.4887L182.809 95.7666L182.806 95.7632L182.128 96.4887ZM136.628 90.9887V89.9963H135.636V90.9887H136.628ZM152.228 123.289H151.236V124.281H152.228V123.289ZM152.228 102.289V101.296H151.236V102.289H152.228ZM169.628 104.789L170.33 104.087L170.321 104.078L170.312 104.069L169.628 104.789ZM136.628 160.381H152.228V158.396H136.628V160.381ZM153.221 159.389V134.589H151.236V159.389H153.221ZM152.228 135.581H160.828V133.596H152.228V135.581ZM159.944 135.038L172.544 159.838L174.313 158.939L161.713 134.139L159.944 135.038ZM173.428 160.381H191.028V158.396H173.428V160.381ZM191.898 158.91L177.098 132.01L175.359 132.967L190.159 159.867L191.898 158.91ZM176.649 133.388C184.775 129.589 188.821 121.781 188.821 112.189H186.836C186.836 121.196 183.082 128.189 175.808 131.59L176.649 133.388ZM188.821 112.189C188.821 104.785 186.554 99.2972 182.809 95.7666L181.448 97.2108C184.703 100.28 186.836 105.192 186.836 112.189H188.821ZM182.806 95.7632C178.002 91.2796 171.144 89.9963 160.128 89.9963V91.9812C171.113 91.9812 177.255 93.2979 181.451 97.2143L182.806 95.7632ZM160.128 89.9963H136.628V91.9812H160.128V89.9963ZM135.636 90.9887V159.389H137.621V90.9887H135.636ZM153.221 123.289V102.289H151.236V123.289H153.221ZM152.228 103.281H159.228V101.296H152.228V103.281ZM159.228 103.281C164.341 103.281 167.259 103.907 168.945 105.508L170.312 104.069C167.998 101.871 164.316 101.296 159.228 101.296V103.281ZM168.927 105.49C170.263 106.827 171.036 109.016 171.036 112.389H173.021C173.021 108.761 172.194 105.951 170.33 104.087L168.927 105.49ZM171.036 112.389C171.036 116.084 170.153 118.715 168.486 120.133L169.771 121.645C172.104 119.662 173.021 116.294 173.021 112.389H171.036ZM168.486 120.133C166.769 121.592 164.279 122.296 159.128 122.296V124.281C164.378 124.281 167.488 123.586 169.771 121.645L168.486 120.133ZM159.128 122.296H152.228V124.281H159.128V122.296ZM194.572 159.389L193.631 159.074L193.193 160.381H194.572V159.389ZM209.472 159.389V160.381H210.205L210.421 159.681L209.472 159.389ZM214.772 142.189V141.196H214.04L213.824 141.896L214.772 142.189ZM236.972 142.189L237.914 141.877L237.689 141.196H236.972V142.189ZM242.672 159.389L241.73 159.701L241.956 160.381H242.672V159.389ZM259.372 159.389V160.381H260.786L260.306 159.052L259.372 159.389ZM234.672 90.9887L235.606 90.6517L235.369 89.9963H234.672V90.9887ZM217.472 90.9887V89.9963H216.758L216.531 90.6737L217.472 90.9887ZM218.372 130.889L217.425 130.594L217.024 131.881H218.372V130.889ZM225.472 108.089V107.096H224.742L224.525 107.794L225.472 108.089ZM225.672 108.089L226.615 107.779L226.391 107.096H225.672V108.089ZM233.172 130.889V131.881H234.543L234.115 130.579L233.172 130.889ZM194.572 160.381H209.472V158.396H194.572V160.381ZM210.421 159.681L215.721 142.481L213.824 141.896L208.524 159.096L210.421 159.681ZM214.772 143.181H236.972V141.196H214.772V143.181ZM236.03 142.501L241.73 159.701L243.614 159.077L237.914 141.877L236.03 142.501ZM242.672 160.381H259.372V158.396H242.672V160.381ZM260.306 159.052L235.606 90.6517L233.739 91.3258L258.439 159.726L260.306 159.052ZM234.672 89.9963H217.472V91.9812H234.672V89.9963ZM216.531 90.6737L193.631 159.074L195.513 159.704L218.413 91.3038L216.531 90.6737ZM219.32 131.184L226.42 108.384L224.525 107.794L217.425 130.594L219.32 131.184ZM225.472 109.081H225.672V107.096H225.472V109.081ZM224.729 108.399L232.229 131.199L234.115 130.579L226.615 107.779L224.729 108.399ZM233.172 129.896H218.372V131.881H233.172V129.896ZM277.512 159.389H276.52V160.381H277.512V159.389ZM293.112 159.389V160.381H294.105V159.389H293.112ZM293.112 102.289V101.296H292.12V102.289H293.112ZM313.812 102.289V103.281H314.705L314.799 102.394L313.812 102.289ZM315.012 90.9887L315.999 91.0935L316.115 89.9963H315.012V90.9887ZM256.312 90.9887V89.9963H255.32V90.9887H256.312ZM256.312 102.289H255.32V103.281H256.312V102.289ZM277.512 102.289H278.505V101.296H277.512V102.289ZM277.512 160.381H293.112V158.396H277.512V160.381ZM294.105 159.389V102.289H292.12V159.389H294.105ZM293.112 103.281H313.812V101.296H293.112V103.281ZM314.799 102.394L315.999 91.0935L314.025 90.8839L312.825 102.184L314.799 102.394ZM315.012 89.9963H256.312V91.9812H315.012V89.9963ZM255.32 90.9887V102.289H257.305V90.9887H255.32ZM256.312 103.281H277.512V101.296H256.312V103.281ZM276.52 102.289V159.389H278.505V102.289H276.52ZM323.352 159.389H322.359V160.381H323.352V159.389ZM338.952 159.389V160.381H339.944V159.389H338.952ZM338.952 90.9887H339.944V89.9963H338.952V90.9887ZM323.352 90.9887V89.9963H322.359V90.9887H323.352ZM323.352 160.381H338.952V158.396H323.352V160.381ZM339.944 159.389V90.9887H337.959V159.389H339.944ZM338.952 89.9963H323.352V91.9812H338.952V89.9963ZM322.359 90.9887V159.389H324.344V90.9887H322.359ZM395.214 154.289L395.892 155.013L395.895 155.01L395.214 154.289ZM393.514 104.089L393.257 105.047L394.272 105.319L394.486 104.29L393.514 104.089ZM395.914 92.4887L396.885 92.6898L397.063 91.831L396.233 91.549L395.914 92.4887ZM353.814 145.389L354.142 144.452L353.066 144.076L352.841 145.193L353.814 145.389ZM351.414 157.289L350.441 157.093L350.27 157.942L351.088 158.226L351.414 157.289ZM374.114 161.781C384.044 161.781 390.836 159.753 395.892 155.013L394.535 153.565C389.992 157.824 383.783 159.796 374.114 159.796V161.781ZM395.895 155.01C399.717 151.401 401.906 146.228 401.906 139.889H399.921C399.921 145.75 397.91 150.377 394.532 153.567L395.895 155.01ZM401.906 139.889C401.906 132.967 399.631 128.266 396.143 124.961C392.699 121.696 388.153 119.87 383.758 118.504C381.564 117.821 379.346 117.237 377.329 116.66C375.289 116.077 373.436 115.497 371.866 114.807C370.293 114.115 369.077 113.342 368.258 112.412C367.463 111.51 367.006 110.421 367.006 108.989H365.021C365.021 110.906 365.655 112.461 366.769 113.725C367.858 114.961 369.369 115.877 371.067 116.624C372.769 117.372 374.734 117.983 376.783 118.569C378.856 119.161 381.001 119.725 383.169 120.399C387.5 121.745 391.678 123.463 394.778 126.401C397.834 129.299 399.921 133.461 399.921 139.889H401.906ZM367.006 108.989C367.006 107.065 367.595 105.575 369.007 104.522C370.48 103.422 372.999 102.681 377.114 102.681V100.696C372.828 100.696 369.797 101.455 367.82 102.931C365.782 104.452 365.021 106.612 365.021 108.989H367.006ZM377.114 102.681C381.808 102.681 387.72 103.564 393.257 105.047L393.77 103.13C388.108 101.613 382.02 100.696 377.114 100.696V102.681ZM394.486 104.29L396.885 92.6898L394.942 92.2877L392.542 103.888L394.486 104.29ZM396.233 91.549C390.806 89.7059 383.493 88.6963 376.814 88.6963V90.6812C383.334 90.6812 390.421 91.6715 395.594 93.4285L396.233 91.549ZM376.814 88.6963C369.397 88.6963 362.79 90.2424 358.01 93.6697C353.183 97.1313 350.321 102.441 350.321 109.689H352.306C352.306 103.036 354.895 98.3461 359.167 95.2828C363.487 92.1851 369.63 90.6812 376.814 90.6812V88.6963ZM350.321 109.689C350.321 116.658 352.595 121.39 356.083 124.706C359.529 127.983 364.078 129.797 368.476 131.126C370.676 131.791 372.889 132.349 374.912 132.896C376.955 133.448 378.81 133.991 380.382 134.639C381.96 135.289 383.174 136.015 383.988 136.888C384.775 137.731 385.221 138.745 385.221 140.089H387.206C387.206 138.232 386.562 136.737 385.44 135.534C384.346 134.361 382.833 133.502 381.139 132.804C379.439 132.104 377.477 131.533 375.43 130.98C373.363 130.421 371.213 129.88 369.051 129.226C364.724 127.918 360.548 126.213 357.451 123.268C354.395 120.363 352.306 116.17 352.306 109.689H350.321ZM385.221 140.089C385.221 142.974 384.263 144.79 382.388 145.959C380.41 147.193 377.272 147.796 372.714 147.796V149.781C377.355 149.781 380.967 149.184 383.439 147.643C386.015 146.037 387.206 143.504 387.206 140.089H385.221ZM372.714 147.796C367.832 147.796 360.043 146.517 354.142 144.452L353.486 146.325C359.584 148.46 367.595 149.781 372.714 149.781V147.796ZM352.841 145.193L350.441 157.093L352.387 157.485L354.786 145.585L352.841 145.193ZM351.088 158.226C358.11 160.669 365.323 161.781 374.114 161.781V159.796C365.505 159.796 358.518 158.709 351.74 156.351L351.088 158.226Z" fill="#019DF4"/>
<path d="M99.4386 152.849C106.939 152.849 117.339 151.349 123.839 149.349V114.449H98.7386V125.649H108.339V140.049C105.939 140.449 102.539 140.749 100.039 140.749C93.4386 140.749 89.3386 138.749 86.8386 135.249C83.8386 131.049 82.8386 124.749 82.8386 117.049C82.8386 102.149 88.5386 93.9492 102.339 93.9492C107.739 93.9492 113.639 95.0492 118.539 96.4492L120.539 85.0492C116.139 83.1492 108.039 81.7492 101.239 81.7492C77.9386 81.7492 66.6386 96.2492 66.6386 117.649C66.6386 139.349 74.9386 152.849 99.4386 152.849ZM136.628 151.449H152.228V126.649H160.828L173.428 151.449H191.028L176.228 124.549C183.928 120.949 187.828 113.549 187.828 104.249C187.828 97.0492 185.628 91.8492 182.128 88.5492C177.628 84.3492 171.128 83.0492 160.128 83.0492H136.628V151.449ZM152.228 115.349V94.3492H159.228C164.328 94.3492 167.628 94.9492 169.628 96.8492C171.228 98.4492 172.028 100.949 172.028 104.449C172.028 108.249 171.128 111.249 169.128 112.949C167.128 114.649 164.328 115.349 159.128 115.349H152.228ZM194.572 151.449H209.472L214.772 134.249H236.972L242.672 151.449H259.372L234.672 83.0492H217.472L194.572 151.449ZM218.372 122.949L225.472 100.149H225.672L233.172 122.949H218.372ZM277.512 151.449H293.112V94.3492H313.812L315.012 83.0492H256.312V94.3492H277.512V151.449ZM323.352 151.449H338.952V83.0492H323.352V151.449ZM374.114 152.849C383.914 152.849 390.414 150.849 395.214 146.349C398.814 142.949 400.914 138.049 400.914 131.949C400.914 105.249 366.014 114.449 366.014 101.049C366.014 96.7492 368.714 93.7492 377.114 93.7492C381.914 93.7492 387.914 94.6492 393.514 96.1492L395.914 84.5492C390.614 82.7492 383.414 81.7492 376.814 81.7492C362.214 81.7492 351.314 87.8492 351.314 101.749C351.314 128.649 386.214 119.349 386.214 132.149C386.214 138.449 381.914 140.849 372.714 140.849C367.714 140.849 359.814 139.549 353.814 137.449L351.414 149.349C358.314 151.749 365.414 152.849 374.114 152.849Z" fill="#019DF4"/>
<path d="M66.4353 196.129H68.9273V188.989H72.4833C74.7793 188.989 76.3473 188.429 77.3833 187.421C78.4473 186.357 78.9513 184.817 78.9513 182.773C78.9513 181.009 78.5033 179.553 77.5513 178.601C76.4593 177.481 74.6673 176.977 71.9233 176.977H66.4353V196.129ZM68.9273 186.973V178.937H71.7273C73.5753 178.937 74.7513 179.245 75.4793 179.973C76.0953 180.589 76.3753 181.513 76.3753 182.829C76.3753 184.341 76.0113 185.377 75.3393 186.021C74.5833 186.721 73.3793 186.973 71.6433 186.973H68.9273ZM84.9217 196.521C86.5737 196.521 88.0297 195.989 89.2337 195.205L89.3737 196.129H91.2497V187.001C91.2497 185.209 90.9137 184.117 90.0457 183.277C89.1777 182.465 87.8057 182.017 85.7617 182.017C84.4457 182.017 82.8777 182.185 81.5897 182.493L81.6737 184.285C83.0177 184.061 84.3337 183.949 85.3697 183.949C86.7417 183.949 87.6377 184.201 88.2257 184.761C88.7297 185.265 88.9257 185.965 88.9257 187.085V187.953H86.0697C84.0817 187.953 82.4577 188.317 81.4217 189.269C80.6937 189.941 80.2457 190.949 80.2457 192.237C80.2457 193.525 80.6657 194.505 81.3377 195.205C82.1777 196.073 83.4377 196.521 84.9217 196.521ZM85.4257 194.645C83.6337 194.645 82.5977 193.833 82.5977 192.181C82.5977 191.341 82.8777 190.753 83.3537 190.361C83.9977 189.857 84.9777 189.661 86.4057 189.661H88.9257V193.749C87.9177 194.253 86.5457 194.645 85.4257 194.645ZM95.1104 196.129H97.4344V185.041C98.4144 184.425 99.5624 184.117 100.766 184.117C101.158 184.117 101.662 184.145 101.97 184.173V182.101C101.662 182.045 101.326 182.017 101.074 182.017C99.8704 182.017 98.4984 182.493 97.1824 183.585L97.0424 182.409H95.1104V196.129ZM107.699 196.521C109.351 196.521 110.807 195.989 112.011 195.205L112.151 196.129H114.027V187.001C114.027 185.209 113.691 184.117 112.823 183.277C111.955 182.465 110.583 182.017 108.539 182.017C107.223 182.017 105.655 182.185 104.367 182.493L104.451 184.285C105.795 184.061 107.111 183.949 108.147 183.949C109.519 183.949 110.415 184.201 111.003 184.761C111.507 185.265 111.703 185.965 111.703 187.085V187.953H108.847C106.859 187.953 105.235 188.317 104.199 189.269C103.471 189.941 103.023 190.949 103.023 192.237C103.023 193.525 103.443 194.505 104.115 195.205C104.955 196.073 106.215 196.521 107.699 196.521ZM108.203 194.645C106.411 194.645 105.375 193.833 105.375 192.181C105.375 191.341 105.655 190.753 106.131 190.361C106.775 189.857 107.755 189.661 109.183 189.661H111.703V193.749C110.695 194.253 109.323 194.645 108.203 194.645ZM128.363 196.521C129.371 196.521 130.463 196.353 131.191 196.157L131.079 194.449C130.407 194.589 129.483 194.673 129.007 194.673C128.027 194.673 127.551 194.477 127.243 194.141C126.851 193.721 126.767 193.049 126.767 191.733V184.117H130.379V182.409H126.767V178.769C126.039 178.769 125.115 178.965 124.443 179.189V182.437L121.951 182.801V184.117H124.443V192.041C124.443 193.749 124.639 194.673 125.311 195.457C125.927 196.157 127.019 196.521 128.363 196.521ZM138.365 196.521C139.961 196.521 141.613 195.989 143.041 195.121L143.153 196.129H145.085V182.409H142.761V193.581C141.641 194.113 140.213 194.477 138.981 194.477C137.973 194.477 137.245 194.253 136.769 193.777C136.293 193.301 136.097 192.629 136.097 191.453V182.409H133.773V191.733C133.773 193.441 134.165 194.561 134.921 195.317C135.705 196.129 136.881 196.521 138.365 196.521ZM154.72 202.429H157.044V195.485C158.052 196.129 159.536 196.521 160.964 196.521C164.24 196.521 166.312 194.365 166.312 189.213C166.312 184.845 164.604 182.017 161.048 182.017C159.788 182.017 158.192 182.465 156.764 183.417L156.652 182.409H154.72V202.429ZM160.376 194.589C159.2 194.589 157.856 194.225 157.044 193.749V184.929C158.108 184.369 159.48 184.005 160.544 184.005C162.84 184.005 163.876 185.685 163.876 189.185C163.876 193.105 162.868 194.589 160.376 194.589ZM169.541 196.129H171.865V176.109H169.541V196.129ZM179.75 196.521C181.402 196.521 182.858 195.989 184.062 195.205L184.202 196.129H186.078V187.001C186.078 185.209 185.742 184.117 184.874 183.277C184.006 182.465 182.634 182.017 180.59 182.017C179.274 182.017 177.706 182.185 176.418 182.493L176.502 184.285C177.846 184.061 179.162 183.949 180.198 183.949C181.57 183.949 182.466 184.201 183.054 184.761C183.558 185.265 183.754 185.965 183.754 187.085V187.953H180.898C178.91 187.953 177.286 188.317 176.25 189.269C175.522 189.941 175.074 190.949 175.074 192.237C175.074 193.525 175.494 194.505 176.166 195.205C177.006 196.073 178.266 196.521 179.75 196.521ZM180.254 194.645C178.462 194.645 177.426 193.833 177.426 192.181C177.426 191.341 177.706 190.753 178.182 190.361C178.826 189.857 179.806 189.661 181.234 189.661H183.754V193.749C182.746 194.253 181.374 194.645 180.254 194.645ZM189.939 196.129H192.263V184.957C193.383 184.425 194.867 184.061 196.099 184.061C197.107 184.061 197.835 184.285 198.311 184.761C198.787 185.237 198.983 185.909 198.983 187.085V196.129H201.307V186.805C201.307 185.097 200.915 183.977 200.159 183.221C199.375 182.409 198.199 182.017 196.715 182.017C195.119 182.017 193.411 182.549 191.983 183.417L191.871 182.409H189.939V196.129ZM211.332 196.129H213.824V176.977H211.332V196.129ZM222.973 196.521C224.261 196.521 225.913 196.017 227.033 195.289L227.201 196.129H229.105V176.109H226.781V182.997C225.689 182.381 224.317 182.017 223.141 182.017C219.557 182.017 217.457 184.817 217.457 189.353C217.457 194.113 219.473 196.521 222.973 196.521ZM223.617 194.617C221.153 194.617 219.893 192.993 219.893 189.381C219.893 186.161 220.817 183.977 223.617 183.977C224.541 183.977 225.773 184.257 226.781 184.649V193.805C225.801 194.281 224.597 194.617 223.617 194.617ZM238.996 196.521C240.256 196.521 241.88 196.325 243.056 195.989L242.832 194.253C241.768 194.477 240.424 194.617 239.444 194.617C237.708 194.617 236.672 194.253 235.944 193.581C235.132 192.825 234.74 191.593 234.74 190.081H243.588C243.812 190.081 243.924 189.997 243.924 189.773V189.241C243.924 184.733 242.076 182.017 238.24 182.017C234.74 182.017 232.304 184.397 232.304 189.297C232.304 191.761 232.864 193.637 234.096 194.869C235.216 195.989 236.868 196.521 238.996 196.521ZM234.74 188.373C234.768 185.601 235.916 183.893 238.24 183.893C240.536 183.893 241.544 185.741 241.628 188.373H234.74ZM251.144 196.521C252.796 196.521 254.252 195.989 255.456 195.205L255.596 196.129H257.472V187.001C257.472 185.209 257.136 184.117 256.268 183.277C255.4 182.465 254.028 182.017 251.984 182.017C250.668 182.017 249.1 182.185 247.812 182.493L247.896 184.285C249.24 184.061 250.556 183.949 251.592 183.949C252.964 183.949 253.86 184.201 254.448 184.761C254.952 185.265 255.148 185.965 255.148 187.085V187.953H252.292C250.304 187.953 248.68 188.317 247.644 189.269C246.916 189.941 246.468 190.949 246.468 192.237C246.468 193.525 246.888 194.505 247.56 195.205C248.4 196.073 249.66 196.521 251.144 196.521ZM251.648 194.645C249.856 194.645 248.82 193.833 248.82 192.181C248.82 191.341 249.1 190.753 249.576 190.361C250.22 189.857 251.2 189.661 252.628 189.661H255.148V193.749C254.14 194.253 252.768 194.645 251.648 194.645ZM261.361 196.129H263.685V176.109H261.361V196.129ZM278.125 196.521C279.413 196.521 281.065 196.017 282.185 195.289L282.353 196.129H284.257V176.109H281.933V182.997C280.841 182.381 279.469 182.017 278.293 182.017C274.709 182.017 272.609 184.817 272.609 189.353C272.609 194.113 274.625 196.521 278.125 196.521ZM278.769 194.617C276.305 194.617 275.045 192.993 275.045 189.381C275.045 186.161 275.969 183.977 278.769 183.977C279.693 183.977 280.925 184.257 281.933 184.649V193.805C280.953 194.281 279.749 194.617 278.769 194.617ZM294.149 196.521C295.409 196.521 297.033 196.325 298.209 195.989L297.985 194.253C296.921 194.477 295.577 194.617 294.597 194.617C292.861 194.617 291.825 194.253 291.097 193.581C290.285 192.825 289.893 191.593 289.893 190.081H298.741C298.965 190.081 299.077 189.997 299.077 189.773V189.241C299.077 184.733 297.229 182.017 293.393 182.017C289.893 182.017 287.457 184.397 287.457 189.297C287.457 191.761 288.017 193.637 289.249 194.869C290.369 195.989 292.021 196.521 294.149 196.521ZM289.893 188.373C289.921 185.601 291.069 183.893 293.393 183.893C295.689 183.893 296.697 185.741 296.781 188.373H289.893ZM308.512 196.129H311.004V176.977H308.512V196.129ZM315.364 196.129H317.688V184.957C318.808 184.425 320.292 184.061 321.524 184.061C322.532 184.061 323.26 184.285 323.736 184.761C324.212 185.237 324.408 185.909 324.408 187.085V196.129H326.732V186.805C326.732 185.097 326.34 183.977 325.584 183.221C324.8 182.409 323.624 182.017 322.14 182.017C320.544 182.017 318.836 182.549 317.408 183.417L317.296 182.409H315.364V196.129ZM335.355 196.521C336.363 196.521 337.455 196.353 338.183 196.157L338.071 194.449C337.399 194.589 336.475 194.673 335.999 194.673C335.019 194.673 334.543 194.477 334.235 194.141C333.843 193.721 333.759 193.049 333.759 191.733V184.117H337.371V182.409H333.759V178.769C333.031 178.769 332.107 178.965 331.435 179.189V182.437L328.943 182.801V184.117H331.435V192.041C331.435 193.749 331.631 194.673 332.303 195.457C332.919 196.157 334.011 196.521 335.355 196.521ZM346.785 196.521C348.045 196.521 349.669 196.325 350.845 195.989L350.621 194.253C349.557 194.477 348.213 194.617 347.233 194.617C345.497 194.617 344.461 194.253 343.733 193.581C342.921 192.825 342.529 191.593 342.529 190.081H351.377C351.601 190.081 351.713 189.997 351.713 189.773V189.241C351.713 184.733 349.865 182.017 346.029 182.017C342.529 182.017 340.093 184.397 340.093 189.297C340.093 191.761 340.653 193.637 341.885 194.869C343.005 195.989 344.657 196.521 346.785 196.521ZM342.529 188.373C342.557 185.601 343.705 183.893 346.029 183.893C348.325 183.893 349.333 185.741 349.417 188.373H342.529ZM354.985 196.129H357.309V185.041C358.289 184.425 359.437 184.117 360.641 184.117C361.033 184.117 361.537 184.145 361.845 184.173V182.101C361.537 182.045 361.201 182.017 360.949 182.017C359.745 182.017 358.373 182.493 357.057 183.585L356.917 182.409H354.985V196.129ZM364.364 196.129H366.688V184.957C367.808 184.425 369.292 184.061 370.524 184.061C371.532 184.061 372.26 184.285 372.736 184.761C373.212 185.237 373.408 185.909 373.408 187.085V196.129H375.732V186.805C375.732 185.097 375.34 183.977 374.584 183.221C373.8 182.409 372.624 182.017 371.14 182.017C369.544 182.017 367.836 182.549 366.408 183.417L366.296 182.409H364.364V196.129ZM385.559 196.521C386.819 196.521 388.443 196.325 389.619 195.989L389.395 194.253C388.331 194.477 386.987 194.617 386.007 194.617C384.271 194.617 383.235 194.253 382.507 193.581C381.695 192.825 381.303 191.593 381.303 190.081H390.151C390.375 190.081 390.487 189.997 390.487 189.773V189.241C390.487 184.733 388.639 182.017 384.803 182.017C381.303 182.017 378.867 184.397 378.867 189.297C378.867 191.761 379.427 193.637 380.659 194.869C381.779 195.989 383.431 196.521 385.559 196.521ZM381.303 188.373C381.331 185.601 382.479 183.893 384.803 183.893C387.099 183.893 388.107 185.741 388.191 188.373H381.303ZM398.519 196.521C399.527 196.521 400.619 196.353 401.347 196.157L401.235 194.449C400.563 194.589 399.639 194.673 399.163 194.673C398.183 194.673 397.707 194.477 397.399 194.141C397.007 193.721 396.923 193.049 396.923 191.733V184.117H400.535V182.409H396.923V178.769C396.195 178.769 395.271 178.965 394.599 179.189V182.437L392.107 182.801V184.117H394.599V192.041C394.599 193.749 394.795 194.673 395.467 195.457C396.083 196.157 397.175 196.521 398.519 196.521Z" fill="white"/>
<path d="M33.3675 72.33C33.9661 71.7992 34.722 71.1645 35.5088 70.645L35.7083 70.4681C36.4529 70.0217 37.1245 69.533 37.827 69.1596C38.6446 68.7553 39.5045 68.278 40.28 67.9468C41.0133 67.6885 41.9461 67.2534 42.7946 66.9643L43.4128 66.7369C44.0309 66.5096 44.7642 66.2513 45.3824 66.024C48.6921 65.0137 52.1675 64.3911 55.7355 64.1141C56.6457 64.0554 57.556 63.9967 58.351 63.9689C58.9579 63.9298 59.5225 63.9636 60.0872 63.9975C60.2024 63.9667 60.2754 64.0088 60.3906 63.978L56.4988 66.5023C53.3095 68.6533 50.7075 70.4617 48.3667 72.3235C47.9677 72.6774 47.4534 73.0621 47.0544 73.416L46.6553 73.7698L46.2563 74.1237C45.8151 74.5505 45.416 74.9044 44.9018 75.2891L44.8596 75.3621C44.618 75.6121 44.3763 75.862 44.0616 76.0698C43.8199 76.3198 43.5782 76.5698 43.2213 76.8506L43.1791 76.9236L43.137 76.9966C42.6114 77.5696 42.1702 77.9965 41.656 78.3812L41.2991 78.662C40.9001 79.0158 40.6162 79.3388 40.2594 79.6196L40.0598 79.7966C39.6608 80.1504 39.2196 80.5773 38.8627 80.8581L38.8205 80.9312L38.7784 81.0042C38.3793 81.358 37.9803 81.7119 37.393 82.0545L37.3509 82.1275L37.3087 82.2005C36.7945 82.5852 36.4376 82.866 36.0077 83.1047L34.6449 83.7785C33.6699 84.2867 32.4562 84.365 31.4225 83.9629C31.1613 83.9094 30.9422 83.7829 30.7231 83.6564C29.0434 82.6867 28.2996 80.6019 28.9042 78.7114C29.1798 77.8968 29.5706 77.0513 30.0344 76.248C30.6134 75.4138 31.1502 74.6526 31.6027 74.0375C32.2013 73.5067 32.769 72.8607 33.3675 72.33Z" fill="#E63780"/>
<path d="M57.3057 28.5063C58.2769 31.2092 59.5289 34.269 61.1347 37.7278L63.114 41.8891C63.0409 41.847 62.8949 41.7627 62.8219 41.7205C62.3107 41.4254 61.8725 41.1724 61.3613 40.8772C60.6731 40.3826 59.8698 39.9187 59.1817 39.4241C56.2831 37.3611 53.5953 34.9329 51.4105 32.3083C50.9527 31.7519 50.495 31.1955 50.1102 30.6813L49.7255 30.167C49.2369 29.4954 48.7483 28.8238 48.1558 27.9949C47.6363 27.2081 47.1168 26.4213 46.6704 25.6767C46.297 24.9742 45.9235 24.2718 45.5192 23.4541L45.4575 23.2237C45.0954 22.333 44.7754 21.3693 44.5172 20.636C44.3012 19.8296 44.0851 19.0233 43.9225 17.9557C43.8216 17.1185 43.7208 16.2812 43.7464 15.2249C43.8029 14.2838 43.9324 13.3849 44.0928 12.6011C44.3488 11.4831 45.0121 10.5028 46.0293 9.92159C47.319 9.20561 48.9091 9.14994 50.2237 9.90889C50.8079 10.2462 51.3078 10.7296 51.7234 11.359L52.5124 12.6909C52.751 13.1208 52.9897 13.5507 53.144 14.1267L53.1749 14.2419L53.2058 14.3571C53.4753 14.9022 53.6296 15.4781 53.8261 15.9811L53.857 16.0963L53.8878 16.2115C54.0843 16.7144 54.2078 17.1752 54.3621 17.7511L54.4239 17.9815C54.5473 18.4423 54.6708 18.9031 54.7943 19.3638L54.9177 19.8246C55.0721 20.4006 55.2264 20.9766 55.4424 21.7829L55.4733 21.8981L55.5042 22.0133C55.5968 22.3589 55.6894 22.7045 55.782 23.05C55.8746 23.3956 55.9672 23.7412 56.0598 24.0868L56.0906 24.202C56.245 24.7779 56.4415 25.2809 56.5958 25.8569L56.7192 26.3176L56.9466 26.9358C56.924 27.3122 57.1205 27.8151 57.3057 28.5063Z" fill="#E63780"/>
<path d="M28.1429 40.3942C31.4692 40.3671 34.6547 41.4273 37.0255 42.2119C40.0537 43.3759 43.0283 44.8012 46.003 46.2265C48.4973 47.4718 51.0955 48.8745 53.7976 50.4346L54.747 50.9827C55.7694 51.573 56.7918 52.1633 57.699 52.7845C56.5275 52.7897 55.356 52.795 54.2997 52.7694C50.6392 52.7008 47.5432 52.6661 44.4165 52.5162C43.5484 52.5018 42.6073 52.4453 41.7392 52.431C39.4383 52.3685 37.0645 52.2638 34.8058 52.1282C31.9516 51.8435 28.9934 51.4015 26.1535 50.2488C26.0075 50.1644 25.7884 50.0379 25.6423 49.9536C24.1087 49.0682 23.1541 47.3485 23.1097 45.5702C23.0909 42.7356 25.3813 40.4551 28.1429 40.3942Z" fill="#E63780"/>
<path d="M382.084 286.999C382.084 291.26 378.629 294.715 374.368 294.715L236.136 294.715L236.136 226L374.368 226C378.629 226 382.084 229.455 382.084 233.716L382.084 286.999Z" fill="#FBC7DE"/>
<path d="M255.59 272.713H266.926V270.061H259.75L262.844 266.681C265.652 263.613 266.64 261.923 266.64 259.713C266.64 258.231 266.198 257.087 265.366 256.255C264.274 255.163 262.584 254.591 260.036 254.591C258.58 254.591 256.942 254.825 255.902 255.085V257.841C257.02 257.633 258.372 257.503 259.386 257.503C260.66 257.503 261.544 257.711 262.09 258.179C262.558 258.569 262.792 259.141 262.792 259.895C262.792 261.377 261.96 262.547 259.984 264.939L256.526 269.151C255.772 270.061 255.486 270.789 255.486 271.881C255.486 272.167 255.512 272.505 255.59 272.713ZM277.003 273.077C281.943 273.077 283.815 269.931 283.815 263.847C283.815 257.763 281.943 254.591 277.003 254.591C272.063 254.591 270.191 257.763 270.191 263.847C270.191 269.931 272.063 273.077 277.003 273.077ZM277.003 270.087C274.897 270.087 274.065 268.761 274.065 263.847C274.065 258.933 274.897 257.321 277.003 257.321C279.109 257.321 279.941 258.933 279.941 263.847C279.941 268.761 279.109 270.087 277.003 270.087ZM292.593 273.077C297.533 273.077 299.405 269.931 299.405 263.847C299.405 257.763 297.533 254.591 292.593 254.591C287.653 254.591 285.781 257.763 285.781 263.847C285.781 269.931 287.653 273.077 292.593 273.077ZM292.593 270.087C290.487 270.087 289.655 268.761 289.655 263.847C289.655 258.933 290.487 257.321 292.593 257.321C294.699 257.321 295.531 258.933 295.531 263.847C295.531 268.761 294.699 270.087 292.593 270.087ZM302.307 272.713H305.713V262.365L309.509 268.657H312.629L316.321 262.469V272.713H320.039V254.929H316.919L311.121 264.861L305.505 254.929H302.307V272.713ZM330.571 273.077C332.157 273.077 333.301 272.609 334.185 271.595C335.121 270.529 335.615 268.579 335.615 266.291C335.615 261.351 333.639 259.609 330.753 259.609C329.531 259.609 328.127 259.947 327.243 260.467V254.123H323.525V272.713H326.593L326.775 271.907C327.841 272.609 329.245 273.077 330.571 273.077ZM329.453 270.165C328.725 270.165 327.841 269.879 327.243 269.541V262.937C327.841 262.703 328.647 262.599 329.453 262.599C331.013 262.599 331.715 263.301 331.715 266.343C331.715 269.203 331.143 270.165 329.453 270.165ZM338.074 278.563H341.792V272.141C342.754 272.739 344.054 273.077 345.198 273.077C348.084 273.077 350.164 271.283 350.164 266.265C350.164 263.899 349.644 261.871 348.448 260.701C347.72 259.999 346.68 259.609 345.406 259.609C343.846 259.609 342.494 260.181 341.402 260.909L341.298 259.973H338.074V278.563ZM344.106 270.139C343.3 270.139 342.39 270.035 341.792 269.775V262.963C342.416 262.781 343.404 262.625 344.002 262.625C345.692 262.625 346.264 263.483 346.264 266.213C346.264 269.281 345.666 270.139 344.106 270.139ZM356.757 273.077C360.579 273.077 362.503 271.543 362.503 268.891C362.503 263.613 355.535 265.667 355.535 263.509C355.535 262.781 356.263 262.469 357.589 262.469C358.629 262.469 360.189 262.677 361.515 263.041L361.801 260.311C360.423 259.843 358.837 259.609 357.563 259.609C353.741 259.609 352.025 261.351 352.025 263.717C352.025 268.995 358.967 266.785 358.967 269.047C358.967 269.957 358.083 270.217 356.679 270.217C355.301 270.217 353.533 269.931 352.571 269.619L352.285 272.375C353.299 272.739 355.249 273.077 356.757 273.077Z" fill="#922859"/>
<path d="M284.088 284.27H285.192L286.512 282.05L287.988 284.27H289.116L287.148 281.33L289.092 278.39H288L286.68 280.634L285.18 278.39H284.064L286.044 281.366L284.088 284.27ZM294.469 284.438C295.477 284.438 296.197 284.222 296.713 283.802C297.205 283.394 297.481 282.794 297.481 282.014C297.481 280.982 296.905 280.298 296.005 279.986C296.725 279.71 297.241 279.098 297.241 278.126C297.241 277.454 297.025 276.926 296.641 276.554C296.197 276.122 295.489 275.906 294.529 275.906C294.013 275.906 293.365 275.966 292.837 276.086V276.866C293.341 276.782 293.881 276.734 294.337 276.734C295.057 276.734 295.513 276.842 295.825 277.106C296.089 277.334 296.233 277.706 296.233 278.174C296.233 279.254 295.537 279.71 294.349 279.71H294.145V280.454H294.361C295.141 280.454 295.681 280.574 296.029 280.898C296.293 281.15 296.437 281.558 296.437 282.002C296.437 282.542 296.269 282.962 295.909 283.226C295.573 283.478 295.105 283.598 294.337 283.598C293.809 283.598 293.161 283.538 292.705 283.442V284.234C293.185 284.354 293.845 284.438 294.469 284.438ZM301.715 284.27H302.711V279.482C303.191 279.254 303.743 279.098 304.247 279.098C304.655 279.098 304.967 279.194 305.171 279.398C305.375 279.602 305.459 279.89 305.459 280.394V284.27H306.455V280.274C306.455 279.974 306.419 279.71 306.371 279.494C306.887 279.242 307.475 279.098 307.955 279.098C308.363 279.098 308.675 279.194 308.879 279.398C309.083 279.602 309.167 279.89 309.167 280.394V284.27H310.163V280.274C310.163 279.542 309.995 279.062 309.671 278.738C309.335 278.39 308.831 278.222 308.195 278.222C307.535 278.222 306.815 278.438 306.083 278.882C305.747 278.438 305.231 278.222 304.487 278.222C303.839 278.222 303.203 278.438 302.591 278.822L302.543 278.39H301.715V284.27ZM314.372 284.438C314.912 284.438 315.608 284.354 316.112 284.21L316.016 283.466C315.56 283.562 314.984 283.622 314.564 283.622C313.82 283.622 313.376 283.466 313.064 283.178C312.716 282.854 312.548 282.326 312.548 281.678H316.34C316.436 281.678 316.484 281.642 316.484 281.546V281.318C316.484 279.386 315.692 278.222 314.048 278.222C312.548 278.222 311.504 279.242 311.504 281.342C311.504 282.398 311.744 283.202 312.272 283.73C312.752 284.21 313.46 284.438 314.372 284.438ZM312.548 280.946C312.56 279.758 313.052 279.026 314.048 279.026C315.032 279.026 315.464 279.818 315.5 280.946H312.548ZM319.435 284.438C320.851 284.438 321.811 283.886 321.811 282.638C321.811 280.538 318.535 281.162 318.535 279.842C318.535 279.29 318.979 279.014 319.819 279.014C320.299 279.014 320.839 279.086 321.367 279.206L321.451 278.474C320.983 278.33 320.323 278.222 319.735 278.222C318.487 278.222 317.599 278.774 317.599 279.914C317.599 282.074 320.875 281.39 320.875 282.71C320.875 283.31 320.359 283.634 319.399 283.634C318.883 283.634 318.235 283.55 317.755 283.418L317.707 284.186C318.151 284.33 318.871 284.438 319.435 284.438ZM325.775 284.438C326.315 284.438 327.011 284.354 327.515 284.21L327.419 283.466C326.963 283.562 326.387 283.622 325.967 283.622C325.223 283.622 324.779 283.466 324.467 283.178C324.119 282.854 323.951 282.326 323.951 281.678H327.743C327.839 281.678 327.887 281.642 327.887 281.546V281.318C327.887 279.386 327.095 278.222 325.451 278.222C323.951 278.222 322.907 279.242 322.907 281.342C322.907 282.398 323.147 283.202 323.675 283.73C324.155 284.21 324.863 284.438 325.775 284.438ZM323.951 280.946C323.963 279.758 324.455 279.026 325.451 279.026C326.435 279.026 326.867 279.818 326.903 280.946H323.951ZM330.837 284.438C332.253 284.438 333.213 283.886 333.213 282.638C333.213 280.538 329.937 281.162 329.937 279.842C329.937 279.29 330.381 279.014 331.221 279.014C331.701 279.014 332.241 279.086 332.769 279.206L332.853 278.474C332.385 278.33 331.725 278.222 331.137 278.222C329.889 278.222 329.001 278.774 329.001 279.914C329.001 282.074 332.277 281.39 332.277 282.71C332.277 283.31 331.761 283.634 330.801 283.634C330.285 283.634 329.637 283.55 329.157 283.418L329.109 284.186C329.553 284.33 330.273 284.438 330.837 284.438Z" fill="#922859"/>
<path d="M301.442 247.585H305.816C307.724 247.585 308.93 247.279 309.722 246.577C310.388 245.983 310.748 245.119 310.748 243.931C310.748 242.311 309.668 241.195 308.138 240.979C309.272 240.403 309.866 239.557 309.866 238.297C309.866 237.397 309.56 236.677 309.002 236.191C308.282 235.561 307.202 235.273 305.456 235.273H301.442V247.585ZM304.25 240.169V237.307H305.276C306.032 237.307 306.464 237.397 306.734 237.667C306.968 237.901 307.076 238.243 307.076 238.693C307.076 239.197 306.95 239.557 306.716 239.791C306.41 240.079 305.978 240.169 305.204 240.169H304.25ZM304.25 245.551V242.203H305.402C306.41 242.203 306.986 242.293 307.364 242.617C307.688 242.887 307.832 243.319 307.832 243.985C307.832 244.489 307.688 244.849 307.436 245.101C307.094 245.443 306.446 245.551 305.402 245.551H304.25ZM316.577 247.837C319.637 247.837 321.059 246.001 321.059 243.175C321.059 240.349 319.637 238.513 316.577 238.513C313.517 238.513 312.095 240.349 312.095 243.175C312.095 246.001 313.517 247.837 316.577 247.837ZM316.577 245.875C315.281 245.875 314.777 244.993 314.777 243.175C314.777 241.357 315.281 240.475 316.577 240.475C317.873 240.475 318.377 241.357 318.377 243.175C318.377 244.993 317.873 245.875 316.577 245.875ZM322.775 247.585H325.349V240.943C325.763 240.781 326.537 240.655 327.023 240.655C327.545 240.655 327.905 240.727 328.139 240.943C328.319 241.123 328.409 241.375 328.409 241.825V247.585H330.983V241.519C330.983 240.493 330.767 239.719 330.227 239.197C329.741 238.711 328.877 238.513 328.103 238.513C327.167 238.513 326.033 238.765 325.061 239.395L325.007 238.765H322.775V247.585ZM337.126 247.837C340.186 247.837 341.608 246.001 341.608 243.175C341.608 240.349 340.186 238.513 337.126 238.513C334.066 238.513 332.644 240.349 332.644 243.175C332.644 246.001 334.066 247.837 337.126 247.837ZM337.126 245.875C335.83 245.875 335.326 244.993 335.326 243.175C335.326 241.357 335.83 240.475 337.126 240.475C338.422 240.475 338.926 241.357 338.926 243.175C338.926 244.993 338.422 245.875 337.126 245.875Z" fill="#922859"/>
<path d="M280.154 245.025H272.889V240.532H280.154V233.84H285.032V240.532H292.296V245.025H285.032V251.717H280.154V245.025Z" fill="#922859"/>
<path d="M61 233.716C61 229.455 64.4545 226 68.7159 226H236.137V294.708H68.7159C64.4545 294.708 61 291.253 61 286.992V233.716Z" fill="#E63780"/>
<path d="M103.288 281.963C105.694 281.963 107.29 281.472 108.469 280.367C109.353 279.532 109.869 278.329 109.869 276.831C109.869 270.275 101.299 272.534 101.299 269.244C101.299 268.188 101.962 267.451 104.025 267.451C105.203 267.451 106.676 267.672 108.052 268.041L108.641 265.192C107.339 264.75 105.571 264.505 103.951 264.505C100.366 264.505 97.6893 266.002 97.6893 269.416C97.6893 276.021 106.259 273.737 106.259 276.88C106.259 278.427 105.203 279.017 102.944 279.017C101.716 279.017 99.7765 278.697 98.3032 278.182L97.7139 281.104C99.4082 281.693 101.152 281.963 103.288 281.963ZM111.09 281.963H114.208L121.599 264.505H118.481L111.09 281.963Z" fill="white"/>
<path d="M129.577 281.794H135.959L143.967 259.062C144.468 257.685 144.635 256.309 144.635 254.974C144.635 254.349 144.551 253.598 144.343 253.264H125.74V257.518H139.045L129.577 281.794ZM157.377 282.377C165.343 282.377 168.472 278.874 168.472 272.868C168.472 266.82 165.051 263.942 157.585 263.942H156.084L156.334 257.518H166.803V253.264H151.204L150.703 265.36C150.662 266.653 150.703 267.737 150.912 268.572H156.709C161.298 268.572 162.299 270.157 162.299 273.118C162.299 275.954 160.839 277.706 155.917 277.706C154.04 277.706 152.163 277.539 150.662 277.247V281.71C152.539 282.127 154.874 282.377 157.377 282.377Z" fill="white"/>
<path d="M173.88 280.634H174.037C175.114 280.634 175.675 280.207 175.675 279.085V278.816C175.675 277.694 175.114 277.268 174.037 277.268H173.88C172.803 277.268 172.242 277.694 172.242 278.816V279.085C172.242 280.207 172.803 280.634 173.88 280.634ZM181.624 280.634C183.666 280.634 185.102 280.185 186.134 279.153C187.48 277.807 188.221 275.518 188.221 271.951C188.221 267.306 186.74 264.681 182.634 264.681C179.066 264.681 177.204 266.633 177.204 270.043C177.204 273.117 178.797 274.822 181.534 274.822C182.589 274.822 183.845 274.576 184.855 274.037C184.81 275.585 184.563 276.64 183.89 277.313C183.284 277.919 182.365 278.121 180.884 278.121C180.076 278.121 179.246 278.031 178.46 277.896V280.342C179.493 280.521 180.525 280.634 181.624 280.634ZM182.656 272.399C181.018 272.399 180.39 271.883 180.39 269.931C180.39 268.069 181.13 267.127 182.566 267.127C184.317 267.127 184.9 268.383 184.9 271.322V272.175C184.272 272.31 183.307 272.399 182.656 272.399ZM195.838 280.634C200.101 280.634 201.716 277.919 201.716 272.669C201.716 267.418 200.101 264.681 195.838 264.681C191.575 264.681 189.959 267.418 189.959 272.669C189.959 277.919 191.575 280.634 195.838 280.634ZM195.838 278.053C194.021 278.053 193.303 276.909 193.303 272.669C193.303 268.428 194.021 267.037 195.838 267.037C197.655 267.037 198.373 268.428 198.373 272.669C198.373 276.909 197.655 278.053 195.838 278.053Z" fill="white"/>
<path d="M117.67 241.41H118.738V238.35H120.262C121.246 238.35 121.918 238.11 122.362 237.678C122.818 237.222 123.034 236.562 123.034 235.686C123.034 234.93 122.842 234.306 122.434 233.898C121.966 233.418 121.198 233.202 120.022 233.202H117.67V241.41ZM118.738 237.486V234.042H119.938C120.73 234.042 121.234 234.174 121.546 234.486C121.81 234.75 121.93 235.146 121.93 235.71C121.93 236.358 121.774 236.802 121.486 237.078C121.162 237.378 120.646 237.486 119.902 237.486H118.738ZM123.948 241.41H124.944V232.83H123.948V241.41ZM127.947 241.578C128.655 241.578 129.279 241.35 129.795 241.014L129.855 241.41H130.659V237.498C130.659 236.73 130.515 236.262 130.143 235.902C129.771 235.554 129.183 235.362 128.307 235.362C127.743 235.362 127.071 235.434 126.519 235.566L126.555 236.334C127.131 236.238 127.695 236.19 128.139 236.19C128.727 236.19 129.111 236.298 129.363 236.538C129.579 236.754 129.663 237.054 129.663 237.534V237.906H128.439C127.587 237.906 126.891 238.062 126.447 238.47C126.135 238.758 125.943 239.19 125.943 239.742C125.943 240.294 126.123 240.714 126.411 241.014C126.771 241.386 127.311 241.578 127.947 241.578ZM128.163 240.774C127.395 240.774 126.951 240.426 126.951 239.718C126.951 239.358 127.071 239.106 127.275 238.938C127.551 238.722 127.971 238.638 128.583 238.638H129.663V240.39C129.231 240.606 128.643 240.774 128.163 240.774ZM131.938 241.41H132.934V236.622C133.414 236.394 134.05 236.238 134.578 236.238C135.01 236.238 135.322 236.334 135.526 236.538C135.73 236.742 135.814 237.03 135.814 237.534V241.41H136.81V237.414C136.81 236.682 136.642 236.202 136.318 235.878C135.982 235.53 135.478 235.362 134.842 235.362C134.158 235.362 133.426 235.59 132.814 235.962L132.766 235.53H131.938V241.41ZM142.084 241.578C143.14 241.578 143.92 241.326 144.412 240.822C144.844 240.39 145.072 239.778 145.072 239.01C145.072 238.266 144.856 237.69 144.448 237.27C143.956 236.766 143.236 236.55 142 236.55H141.376L141.484 233.994H144.568V233.202H140.644L140.488 236.658C140.476 236.922 140.476 237.006 140.476 237.102C140.476 237.186 140.488 237.294 140.512 237.354H141.856C142.756 237.354 143.296 237.474 143.62 237.798C143.896 238.074 144.028 238.518 144.028 239.034C144.028 239.622 143.86 240.042 143.536 240.318C143.188 240.606 142.708 240.738 141.892 240.738C141.52 240.738 140.8 240.678 140.368 240.606V241.386C140.8 241.494 141.52 241.578 142.084 241.578ZM148.881 241.578C150.921 241.578 151.701 239.994 151.701 237.318C151.701 234.642 150.921 233.046 148.881 233.046C146.841 233.046 146.061 234.642 146.061 237.318C146.061 239.994 146.841 241.578 148.881 241.578ZM148.881 240.726C147.549 240.726 147.105 239.61 147.105 237.318C147.105 235.026 147.549 233.898 148.881 233.898C150.213 233.898 150.657 235.026 150.657 237.318C150.657 239.61 150.213 240.726 148.881 240.726ZM154.884 241.41H155.832V235.254L158.196 239.67H159.084L161.472 235.302V241.41H162.48V233.202H161.568L158.676 238.602L155.82 233.202H154.884V241.41ZM166.615 241.578C168.079 241.578 168.907 240.582 168.907 238.446C168.907 236.334 168.055 235.362 166.627 235.362C166.051 235.362 165.415 235.566 164.935 235.83V232.83H163.939V241.41H164.743L164.791 241.014C165.259 241.338 165.979 241.578 166.615 241.578ZM166.387 240.75C165.907 240.75 165.331 240.57 164.935 240.33V236.55C165.331 236.358 165.907 236.214 166.363 236.214C167.407 236.214 167.863 236.862 167.863 238.446C167.863 240.15 167.383 240.75 166.387 240.75ZM169.903 244.11H170.899V241.134C171.331 241.41 171.967 241.578 172.579 241.578C173.983 241.578 174.871 240.654 174.871 238.446C174.871 236.574 174.139 235.362 172.615 235.362C172.075 235.362 171.391 235.554 170.779 235.962L170.731 235.53H169.903V244.11ZM172.327 240.75C171.823 240.75 171.247 240.594 170.899 240.39V236.61C171.355 236.37 171.943 236.214 172.399 236.214C173.383 236.214 173.827 236.934 173.827 238.434C173.827 240.114 173.395 240.75 172.327 240.75ZM177.415 241.578C178.831 241.578 179.791 241.026 179.791 239.778C179.791 237.678 176.515 238.302 176.515 236.982C176.515 236.43 176.959 236.154 177.799 236.154C178.279 236.154 178.819 236.226 179.347 236.346L179.431 235.614C178.963 235.47 178.303 235.362 177.715 235.362C176.467 235.362 175.579 235.914 175.579 237.054C175.579 239.214 178.855 238.53 178.855 239.85C178.855 240.45 178.339 240.774 177.379 240.774C176.863 240.774 176.215 240.69 175.735 240.558L175.687 241.326C176.131 241.47 176.851 241.578 177.415 241.578Z" fill="white"/>
</svg>
