<svg width="337" height="245" viewBox="0 0 337 245" fill="none" xmlns="http://www.w3.org/2000/svg">
<path d="M63.0783 55.0229C64.8403 55.0229 67.2001 54.7397 68.4902 54.3621L67.9867 50.7752C66.7282 51.0269 65.0606 51.2157 64.0222 51.2157C61.5995 51.2157 60.2465 50.7437 59.3026 49.674C58.2328 48.4783 57.7608 46.3387 57.7608 43.7901C57.7608 39.511 58.8306 36.4589 63.4559 36.4589C64.8088 36.4589 66.4135 36.7421 68.0811 37.2141L68.7104 33.6271C67.326 33.0608 64.9347 32.6517 63.0783 32.6517C55.7156 32.6517 52.6636 37.1826 52.6636 43.916C52.6636 47.6602 53.4502 50.4606 55.2751 52.4114C56.8798 54.1104 59.2711 55.0229 63.0783 55.0229ZM78.2203 55.0229C83.5692 55.0229 86.0549 51.8135 86.0549 46.8736C86.0549 41.9337 83.5692 38.7244 78.2203 38.7244C72.8713 38.7244 70.3857 41.9337 70.3857 46.8736C70.3857 51.8135 72.8713 55.0229 78.2203 55.0229ZM78.2203 51.5933C75.9548 51.5933 75.0738 50.0515 75.0738 46.8736C75.0738 43.6957 75.9548 42.154 78.2203 42.154C80.4857 42.154 81.3667 43.6957 81.3667 46.8736C81.3667 50.0515 80.4857 51.5933 78.2203 51.5933ZM94.0582 55.0229C98.6834 55.0229 101.012 53.1665 101.012 49.9571C101.012 43.5699 92.5793 46.0556 92.5793 43.444C92.5793 42.563 93.4603 42.1854 95.065 42.1854C96.3236 42.1854 98.2115 42.4371 99.8162 42.8777L100.162 39.5739C98.4946 39.0075 96.5753 38.7244 95.0336 38.7244C90.4083 38.7244 88.3317 40.8325 88.3317 43.6957C88.3317 50.083 96.7326 47.4085 96.7326 50.1459C96.7326 51.2472 95.6629 51.5618 93.9638 51.5618C92.2962 51.5618 90.1566 51.2157 88.9924 50.8381L88.6463 54.1734C89.8734 54.6139 92.2332 55.0229 94.0582 55.0229ZM110.03 55.0229C111.383 55.0229 112.956 54.8656 113.963 54.6453L113.806 51.4674C113.271 51.5304 112.264 51.6562 111.634 51.6562C109.81 51.6562 109.463 51.0269 109.463 49.2964V42.091H113.459V39.1649H109.463V35.0745C108.016 35.0745 106.317 35.3262 104.964 35.7352V39.1649L102.352 39.6368V42.091H104.964V49.9257C104.964 53.3238 106.191 55.0229 110.03 55.0229ZM123.665 55.0229C129.014 55.0229 131.5 51.8135 131.5 46.8736C131.5 41.9337 129.014 38.7244 123.665 38.7244C118.316 38.7244 115.831 41.9337 115.831 46.8736C115.831 51.8135 118.316 55.0229 123.665 55.0229ZM123.665 51.5933C121.4 51.5933 120.519 50.0515 120.519 46.8736C120.519 43.6957 121.4 42.154 123.665 42.154C125.931 42.154 126.812 43.6957 126.812 46.8736C126.812 50.0515 125.931 51.5933 123.665 51.5933ZM146.602 55.0229C148.49 55.0229 150.157 54.3621 151.479 53.4811L151.573 54.5824H155.475V32.0854H150.976V39.8571C149.78 39.1334 148.238 38.7244 146.885 38.7244C143.204 38.7244 140.781 41.7764 140.781 46.9051C140.781 49.9257 141.473 52.2855 142.921 53.7014C143.802 54.5509 145.092 55.0229 146.602 55.0229ZM148.301 51.4989C146.256 51.4989 145.501 50.4606 145.501 47.0309C145.501 43.3182 146.728 42.2798 148.836 42.2798C149.402 42.2798 150.283 42.4057 150.976 42.6259V50.964C150.189 51.2786 149.025 51.4989 148.301 51.4989ZM166.913 55.0229C168.832 55.0229 170.626 54.7712 172.105 54.488L171.758 51.2157C170.594 51.436 169.021 51.5933 167.92 51.5933C164.899 51.5933 163.295 50.8696 163.169 48.2581H172.639C172.891 48.2581 173.017 48.1637 173.017 47.912V46.4961C173.017 41.1471 170.563 38.7244 165.938 38.7244C161.218 38.7244 158.449 41.4932 158.449 46.9051C158.449 49.3593 158.984 51.5618 160.526 53.0406C161.847 54.2992 164.018 55.0229 166.913 55.0229ZM163.169 45.3319C163.263 43.3496 164.081 42.1225 165.906 42.1225C167.7 42.1225 168.612 43.3811 168.612 45.3319H163.169ZM185.16 36.5848H185.38C186.922 36.5848 187.74 35.987 187.74 34.4452V34.0362C187.74 32.4944 186.922 31.8651 185.38 31.8651H185.16C183.618 31.8651 182.8 32.4944 182.8 34.0362V34.4452C182.8 35.987 183.618 36.5848 185.16 36.5848ZM183.02 54.5824H187.52V39.1649H183.02V54.5824ZM191.376 54.5824H195.875V42.972C196.599 42.6889 197.952 42.4686 198.802 42.4686C199.714 42.4686 200.343 42.5945 200.752 42.972C201.067 43.2867 201.224 43.7272 201.224 44.5138V54.5824H205.724V43.9789C205.724 42.1854 205.346 40.8325 204.402 39.92C203.553 39.0705 202.042 38.7244 200.689 38.7244C199.053 38.7244 197.071 39.1649 195.372 40.2661L195.278 39.1649H191.376V54.5824ZM214.416 55.0229C219.041 55.0229 221.369 53.1665 221.369 49.9571C221.369 43.5699 212.937 46.0556 212.937 43.444C212.937 42.563 213.818 42.1854 215.422 42.1854C216.681 42.1854 218.569 42.4371 220.174 42.8777L220.52 39.5739C218.852 39.0075 216.933 38.7244 215.391 38.7244C210.766 38.7244 208.689 40.8325 208.689 43.6957C208.689 50.083 217.09 47.4085 217.09 50.1459C217.09 51.2472 216.02 51.5618 214.321 51.5618C212.654 51.5618 210.514 51.2157 209.35 50.8381L209.004 54.1734C210.231 54.6139 212.591 55.0229 214.416 55.0229ZM230.387 55.0229C231.74 55.0229 233.313 54.8656 234.32 54.6453L234.163 51.4674C233.628 51.5304 232.621 51.6562 231.992 51.6562C230.167 51.6562 229.821 51.0269 229.821 49.2964V42.091H233.817V39.1649H229.821V35.0745C228.373 35.0745 226.674 35.3262 225.321 35.7352V39.1649L222.71 39.6368V42.091H225.321V49.9257C225.321 53.3238 226.548 55.0229 230.387 55.0229ZM241.443 55.0229C243.079 55.0229 244.746 54.488 246.068 53.6385L246.446 54.5824H250.001V44.5767C250.001 42.7203 249.592 41.3988 248.805 40.4864C247.736 39.2278 245.627 38.7244 243.268 38.7244C241.411 38.7244 239.366 38.9761 237.793 39.2907L238.013 42.5945C239.083 42.3742 240.876 42.1854 242.324 42.1854C243.551 42.1854 244.4 42.3428 244.935 42.8147C245.313 43.1608 245.502 43.6957 245.502 44.5453V45.0487H243.047C240.184 45.0487 238.485 45.4263 237.384 46.4646C236.503 47.3141 236.031 48.5727 236.031 49.9571C236.031 52.9463 237.919 55.0229 241.443 55.0229ZM242.733 51.5933C241.097 51.5933 240.53 50.9011 240.53 49.7683C240.53 49.202 240.688 48.7615 240.971 48.4783C241.38 48.0693 242.041 47.9434 243.11 47.9434H245.502V51.1213C244.778 51.3416 243.582 51.5933 242.733 51.5933ZM253.785 54.5824H258.284V32.0854H253.785V54.5824ZM266.608 55.0229C268.244 55.0229 269.912 54.488 271.233 53.6385L271.611 54.5824H275.166V44.5767C275.166 42.7203 274.757 41.3988 273.971 40.4864C272.901 39.2278 270.793 38.7244 268.433 38.7244C266.577 38.7244 264.531 38.9761 262.958 39.2907L263.178 42.5945C264.248 42.3742 266.042 42.1854 267.489 42.1854C268.716 42.1854 269.566 42.3428 270.101 42.8147C270.478 43.1608 270.667 43.6957 270.667 44.5453V45.0487H268.213C265.349 45.0487 263.65 45.4263 262.549 46.4646C261.668 47.3141 261.196 48.5727 261.196 49.9571C261.196 52.9463 263.084 55.0229 266.608 55.0229ZM267.898 51.5933C266.262 51.5933 265.696 50.9011 265.696 49.7683C265.696 49.202 265.853 48.7615 266.136 48.4783C266.545 48.0693 267.206 47.9434 268.276 47.9434H270.667V51.1213C269.943 51.3416 268.748 51.5933 267.898 51.5933ZM286.501 55.0229C288.2 55.0229 289.333 54.8656 290.843 54.5195L290.497 51.2786C289.522 51.4674 288.295 51.5933 287.288 51.5933C284.047 51.5933 282.757 50.0515 282.757 46.8736C282.757 45.3004 283.04 44.1048 283.795 43.2867C284.456 42.5945 285.526 42.1854 286.91 42.1854C288.2 42.1854 289.522 42.3742 290.466 42.6259L290.749 39.2907C289.27 38.8817 287.634 38.7244 286.218 38.7244C283.67 38.7244 281.436 39.5424 280.051 41.0213C278.667 42.5315 278.069 44.6397 278.069 47.2197C278.069 48.9188 278.478 50.6494 279.328 51.9394C280.932 54.4251 283.858 55.0229 286.501 55.0229ZM295.654 36.5848H295.874C297.416 36.5848 298.234 35.987 298.234 34.4452V34.0362C298.234 32.4944 297.416 31.8651 295.874 31.8651H295.654C294.112 31.8651 293.294 32.4944 293.294 34.0362V34.4452C293.294 35.987 294.112 36.5848 295.654 36.5848ZM293.515 54.5824H298.014V39.1649H293.515V54.5824ZM306.495 36.9938L312.883 32.6832L310.68 29.6941L304.922 35.043L306.495 36.9938ZM308.918 55.0229C314.267 55.0229 316.753 51.8135 316.753 46.8736C316.753 41.9337 314.267 38.7244 308.918 38.7244C303.569 38.7244 301.083 41.9337 301.083 46.8736C301.083 51.8135 303.569 55.0229 308.918 55.0229ZM308.918 51.5933C306.653 51.5933 305.772 50.0515 305.772 46.8736C305.772 43.6957 306.653 42.154 308.918 42.154C311.183 42.154 312.064 43.6957 312.064 46.8736C312.064 50.0515 311.183 51.5933 308.918 51.5933ZM319.753 54.5824H324.253V42.972C324.976 42.6889 326.329 42.4686 327.179 42.4686C328.091 42.4686 328.72 42.5945 329.129 42.972C329.444 43.2867 329.601 43.7272 329.601 44.5138V54.5824H334.101V43.9789C334.101 42.1854 333.723 40.8325 332.779 39.92C331.93 39.0705 330.42 38.7244 329.067 38.7244C327.43 38.7244 325.448 39.1649 323.749 40.2661L323.655 39.1649H319.753V54.5824Z" fill="white"/>
<path d="M102.54 130.436L102.781 131.221L103.362 131.043V130.436H102.54ZM102.54 101.538H103.362V100.716H102.54V101.538ZM81.7568 101.538V100.716H80.935V101.538H81.7568ZM81.7568 110.812H80.935V111.634H81.7568V110.812ZM89.7057 110.812H90.5274V109.99H89.7057V110.812ZM89.7057 122.735L89.8408 123.546L90.5274 123.431V122.735H89.7057ZM71.9035 118.761L71.2348 119.238L71.2348 119.238L71.9035 118.761ZM98.1514 86.6339L97.9256 87.424L98.8031 87.6747L98.9608 86.7759L98.1514 86.6339ZM99.8074 77.1946L100.617 77.3366L100.729 76.6974L100.133 76.4402L99.8074 77.1946ZM82.3364 134.155C88.621 134.155 97.3143 132.903 102.781 131.221L102.298 129.65C97.0012 131.28 88.472 132.512 82.3364 132.512V134.155ZM103.362 130.436V101.538H101.718V130.436H103.362ZM102.54 100.716H81.7568V102.36H102.54V100.716ZM80.935 101.538V110.812H82.5785V101.538H80.935ZM81.7568 111.634H89.7057V109.99H81.7568V111.634ZM88.8839 110.812V122.735H90.5274V110.812H88.8839ZM89.5706 121.925C87.625 122.249 84.855 122.493 82.8332 122.493V124.136C84.9514 124.136 87.8119 123.884 89.8408 123.546L89.5706 121.925ZM82.8332 122.493C77.5469 122.493 74.4436 120.903 72.5721 118.283L71.2348 119.238C73.5034 122.414 77.1897 124.136 82.8332 124.136V122.493ZM72.5721 118.283C70.2479 115.029 69.4132 110.041 69.4132 103.691H67.7697C67.7697 110.092 68.5909 115.537 71.2348 119.238L72.5721 118.283ZM69.4132 103.691C69.4132 97.6023 70.5822 93.0437 73.0196 90.0162C75.4278 87.0252 79.193 85.3856 84.7376 85.3856V83.7421C78.8557 83.7421 74.5478 85.4974 71.7395 88.9855C68.9605 92.4372 67.7697 97.4421 67.7697 103.691H69.4132ZM84.7376 85.3856C89.1098 85.3856 93.9161 86.2785 97.9256 87.424L98.3771 85.8438C94.2721 84.6709 89.308 83.7421 84.7376 83.7421V85.3856ZM98.9608 86.7759L100.617 77.3366L98.998 77.0526L97.342 86.4919L98.9608 86.7759ZM100.133 76.4402C96.3551 74.8087 89.5282 73.6404 83.8268 73.6404V75.2839C89.3863 75.2839 95.9732 76.434 99.4816 77.949L100.133 76.4402ZM83.8268 73.6404C74.0041 73.6404 66.5998 76.7027 61.6599 82.1268C56.7314 87.5385 54.3559 95.1917 54.3559 104.188H55.9994C55.9994 95.4643 58.3021 88.2547 62.8751 83.2335C67.4366 78.2247 74.3569 75.2839 83.8268 75.2839V73.6404ZM54.3559 104.188C54.3559 113.251 56.0846 120.771 60.5217 126.029C64.9833 131.315 72.0446 134.155 82.3364 134.155V132.512C72.342 132.512 65.8239 129.763 61.7777 124.969C57.7069 120.145 55.9994 113.092 55.9994 104.188H54.3559ZM113.13 132.174H112.308V132.996H113.13V132.174ZM126.047 132.174V132.996H126.869V132.174H126.047ZM126.047 111.64V110.818H125.225V111.64H126.047ZM133.168 111.64L133.9 111.268L133.672 110.818H133.168V111.64ZM143.601 132.174L142.868 132.547L143.096 132.996H143.601V132.174ZM158.174 132.174V132.996H159.564L158.894 131.778L158.174 132.174ZM145.919 109.901L145.571 109.157L144.776 109.528L145.199 110.297L145.919 109.901ZM150.804 80.0926L151.368 79.4947L151.365 79.4919L150.804 80.0926ZM113.13 75.5386V74.7168H112.308V75.5386H113.13ZM126.047 102.283H125.225V103.105H126.047V102.283ZM126.047 84.8951V84.0733H125.225V84.8951H126.047ZM140.454 86.9651L141.035 86.384L141.028 86.3766L141.02 86.3693L140.454 86.9651ZM113.13 132.996H126.047V131.353H113.13V132.996ZM126.869 132.174V111.64H125.225V132.174H126.869ZM126.047 112.462H133.168V110.818H126.047V112.462ZM132.435 112.012L142.868 132.547L144.333 131.802L133.9 111.268L132.435 112.012ZM143.601 132.996H158.174V131.353H143.601V132.996ZM158.894 131.778L146.639 109.505L145.199 110.297L157.454 132.571L158.894 131.778ZM146.267 110.645C152.995 107.5 156.346 101.035 156.346 93.0924H154.702C154.702 100.551 151.594 106.341 145.571 109.157L146.267 110.645ZM156.346 93.0924C156.346 86.9622 154.469 82.4181 151.368 79.4947L150.241 80.6905C152.936 83.232 154.702 87.2992 154.702 93.0924H156.346ZM151.365 79.4919C147.387 75.7794 141.709 74.7168 132.588 74.7168V76.3603C141.684 76.3603 146.769 77.4506 150.244 80.6934L151.365 79.4919ZM132.588 74.7168H113.13V76.3603H132.588V74.7168ZM112.308 75.5386V132.174H113.952V75.5386H112.308ZM126.869 102.283V84.8951H125.225V102.283H126.869ZM126.047 85.7168H131.843V84.0733H126.047V85.7168ZM131.843 85.7168C136.077 85.7168 138.493 86.2349 139.888 87.5609L141.02 86.3693C139.104 84.5488 136.055 84.0733 131.843 84.0733V85.7168ZM139.873 87.5462C140.979 88.6524 141.62 90.4656 141.62 93.258H143.263C143.263 90.2543 142.579 87.9274 141.035 86.384L139.873 87.5462ZM141.62 93.258C141.62 96.3176 140.889 98.4964 139.508 99.6699L140.572 100.922C142.504 99.2805 143.263 96.4912 143.263 93.258H141.62ZM139.508 99.6699C138.086 100.878 136.025 101.462 131.76 101.462V103.105C136.106 103.105 138.682 102.529 140.572 100.922L139.508 99.6699ZM131.76 101.462H126.047V103.105H131.76V101.462ZM161.108 132.174L160.329 131.914L159.966 132.996H161.108V132.174ZM173.445 132.174V132.996H174.052L174.231 132.416L173.445 132.174ZM177.834 117.933V117.111H177.227L177.048 117.691L177.834 117.933ZM196.216 117.933L196.996 117.674L196.809 117.111H196.216V117.933ZM200.935 132.174L200.155 132.433L200.342 132.996H200.935V132.174ZM214.763 132.174V132.996H215.933L215.536 131.895L214.763 132.174ZM194.311 75.5386L195.084 75.2595L194.888 74.7168H194.311V75.5386ZM180.069 75.5386V74.7168H179.478L179.29 75.2777L180.069 75.5386ZM180.815 108.576L180.03 108.332L179.698 109.398H180.815V108.576ZM186.693 89.6975V88.8758H186.089L185.909 89.4532L186.693 89.6975ZM186.859 89.6975L187.64 89.4408L187.454 88.8758H186.859V89.6975ZM193.069 108.576V109.398H194.204L193.85 108.319L193.069 108.576ZM161.108 132.996H173.445V131.353H161.108V132.996ZM174.231 132.416L178.619 118.175L177.048 117.691L172.66 131.932L174.231 132.416ZM177.834 118.754H196.216V117.111H177.834V118.754ZM195.436 118.191L200.155 132.433L201.715 131.916L196.996 117.674L195.436 118.191ZM200.935 132.996H214.763V131.353H200.935V132.996ZM215.536 131.895L195.084 75.2595L193.538 75.8177L213.99 132.454L215.536 131.895ZM194.311 74.7168H180.069V76.3603H194.311V74.7168ZM179.29 75.2777L160.329 131.914L161.887 132.435L180.849 75.7995L179.29 75.2777ZM181.599 108.82L187.478 89.9419L185.909 89.4532L180.03 108.332L181.599 108.82ZM186.693 90.5193H186.859V88.8758H186.693V90.5193ZM186.078 89.9543L192.289 108.833L193.85 108.319L187.64 89.4408L186.078 89.9543ZM193.069 107.754H180.815V109.398H193.069V107.754ZM229.783 132.174H228.961V132.996H229.783V132.174ZM242.7 132.174V132.996H243.522V132.174H242.7ZM242.7 84.8951V84.0733H241.878V84.8951H242.7ZM259.84 84.8951V85.7168H260.579L260.657 84.9819L259.84 84.8951ZM260.833 75.5386L261.65 75.6253L261.747 74.7168H260.833V75.5386ZM212.229 75.5386V74.7168H211.407V75.5386H212.229ZM212.229 84.8951H211.407V85.7168H212.229V84.8951ZM229.783 84.8951H230.605V84.0733H229.783V84.8951ZM229.783 132.996H242.7V131.353H229.783V132.996ZM243.522 132.174V84.8951H241.878V132.174H243.522ZM242.7 85.7168H259.84V84.0733H242.7V85.7168ZM260.657 84.9819L261.65 75.6253L260.016 75.4518L259.023 84.8083L260.657 84.9819ZM260.833 74.7168H212.229V76.3603H260.833V74.7168ZM211.407 75.5386V84.8951H213.051V75.5386H211.407ZM212.229 85.7168H229.783V84.0733H212.229V85.7168ZM228.961 84.8951V132.174H230.605V84.8951H228.961ZM267.739 132.174H266.917V132.996H267.739V132.174ZM280.656 132.174V132.996H281.477V132.174H280.656ZM280.656 75.5386H281.477V74.7168H280.656V75.5386ZM267.739 75.5386V74.7168H266.917V75.5386H267.739ZM267.739 132.996H280.656V131.353H267.739V132.996ZM281.477 132.174V75.5386H279.834V132.174H281.477ZM280.656 74.7168H267.739V76.3603H280.656V74.7168ZM266.917 75.5386V132.174H268.561V75.5386H266.917ZM327.241 127.952L327.803 128.551L327.805 128.549L327.241 127.952ZM325.833 86.3855L325.621 87.1793L326.462 87.4045L326.638 86.552L325.833 86.3855ZM327.821 76.7806L328.625 76.9471L328.772 76.236L328.085 76.0025L327.821 76.7806ZM292.961 120.582L293.233 119.807L292.342 119.495L292.156 120.42L292.961 120.582ZM290.974 130.436L290.169 130.273L290.027 130.976L290.704 131.212L290.974 130.436ZM309.77 134.155C317.993 134.155 323.616 132.476 327.803 128.551L326.679 127.352C322.917 130.879 317.776 132.512 309.77 132.512V134.155ZM327.805 128.549C330.97 125.56 332.782 121.277 332.782 116.028H331.139C331.139 120.881 329.474 124.712 326.677 127.354L327.805 128.549ZM332.782 116.028C332.782 110.297 330.898 106.405 328.011 103.668C325.159 100.964 321.394 99.4523 317.756 98.3211C315.939 97.7562 314.102 97.2721 312.432 96.7947C310.743 96.3119 309.209 95.8319 307.909 95.2602C306.606 94.6871 305.599 94.0472 304.921 93.2777C304.263 92.5303 303.885 91.6288 303.885 90.4427H302.241C302.241 92.0306 302.766 93.318 303.688 94.3642C304.59 95.3881 305.841 96.1462 307.247 96.7646C308.657 97.3845 310.283 97.8897 311.981 98.3749C313.697 98.8656 315.473 99.3324 317.268 99.8905C320.854 101.005 324.314 102.428 326.88 104.86C329.411 107.259 331.139 110.706 331.139 116.028H332.782ZM303.885 90.4427C303.885 88.8502 304.373 87.6164 305.542 86.7439C306.762 85.8335 308.847 85.22 312.254 85.22V83.5765C308.706 83.5765 306.196 84.205 304.559 85.4268C302.871 86.6864 302.241 88.4749 302.241 90.4427H303.885ZM312.254 85.22C316.141 85.22 321.036 85.9512 325.621 87.1793L326.046 85.5917C321.357 84.3358 316.316 83.5765 312.254 83.5765V85.22ZM326.638 86.552L328.625 76.9471L327.016 76.6141L325.029 86.219L326.638 86.552ZM328.085 76.0025C323.591 74.4764 317.537 73.6404 312.006 73.6404V75.2839C317.404 75.2839 323.273 76.1039 327.556 77.5587L328.085 76.0025ZM312.006 73.6404C305.865 73.6404 300.394 74.9206 296.436 77.7584C292.439 80.6247 290.07 85.0215 290.07 91.0224H291.713C291.713 85.5139 293.856 81.6306 297.394 79.0941C300.971 76.5292 306.058 75.2839 312.006 75.2839V73.6404ZM290.07 91.0224C290.07 96.7929 291.952 100.711 294.84 103.457C297.694 106.17 301.46 107.672 305.102 108.773C306.924 109.323 308.756 109.785 310.431 110.238C312.122 110.695 313.658 111.145 314.961 111.682C316.267 112.22 317.272 112.82 317.946 113.543C318.598 114.242 318.967 115.082 318.967 116.194H320.611C320.611 114.656 320.077 113.418 319.148 112.422C318.242 111.451 316.989 110.74 315.587 110.162C314.18 109.582 312.555 109.11 310.86 108.651C309.149 108.189 307.369 107.741 305.578 107.2C301.996 106.117 298.538 104.705 295.973 102.266C293.443 99.8604 291.713 96.3885 291.713 91.0224H290.07ZM318.967 116.194C318.967 118.583 318.173 120.087 316.622 121.055C314.983 122.076 312.385 122.576 308.611 122.576V124.219C312.454 124.219 315.445 123.725 317.491 122.449C319.624 121.119 320.611 119.021 320.611 116.194H318.967ZM308.611 122.576C304.569 122.576 298.119 121.517 293.233 119.807L292.69 121.358C297.74 123.125 304.373 124.219 308.611 124.219V122.576ZM292.156 120.42L290.169 130.273L291.78 130.598L293.767 120.745L292.156 120.42ZM290.704 131.212C296.519 133.234 302.491 134.155 309.77 134.155V132.512C302.642 132.512 296.856 131.612 291.244 129.659L290.704 131.212Z" fill="#019DF4"/>
<path d="M82.3364 126.76C88.5465 126.76 97.1578 125.518 102.54 123.862V94.964H81.7568V104.238H89.7057V116.161C87.7184 116.492 84.9032 116.741 82.8332 116.741C77.3683 116.741 73.9735 115.085 71.9035 112.187C69.4194 108.709 68.5914 103.493 68.5914 97.1169C68.5914 84.7795 73.3111 77.9898 84.7376 77.9898C89.2089 77.9898 94.0941 78.9006 98.1514 80.0599L99.8074 70.6205C96.1641 69.0473 89.4573 67.8881 83.8268 67.8881C64.5342 67.8881 55.1777 79.8943 55.1777 97.6137C55.1777 115.581 62.0501 126.76 82.3364 126.76ZM113.13 125.6H126.047V105.066H133.168L143.601 125.6H158.174L145.919 103.327C152.295 100.346 155.524 94.2188 155.524 86.5183C155.524 80.5567 153.702 76.251 150.804 73.5186C147.078 70.0409 141.696 68.9645 132.588 68.9645H113.13V125.6ZM126.047 95.7092V78.321H131.843C136.066 78.321 138.798 78.8178 140.454 80.3911C141.779 81.7159 142.441 83.7859 142.441 86.6839C142.441 89.8304 141.696 92.3144 140.04 93.722C138.384 95.1296 136.066 95.7092 131.76 95.7092H126.047ZM161.108 125.6H173.445L177.834 111.359H196.216L200.935 125.6H214.763L194.311 68.9645H180.069L161.108 125.6ZM180.815 102.002L186.693 83.1235H186.859L193.069 102.002H180.815ZM229.783 125.6H242.7V78.321H259.84L260.833 68.9645H212.229V78.321H229.783V125.6ZM267.739 125.6H280.656V68.9645H267.739V125.6ZM309.77 126.76C317.884 126.76 323.267 125.104 327.241 121.378C330.222 118.562 331.961 114.505 331.961 109.454C331.961 87.3463 303.063 94.964 303.063 83.8687C303.063 80.3083 305.299 77.8242 312.254 77.8242C316.228 77.8242 321.197 78.5694 325.833 79.8115L327.821 70.2065C323.432 68.7161 317.47 67.8881 312.006 67.8881C299.917 67.8881 290.891 72.939 290.891 84.4483C290.891 106.722 319.789 99.0213 319.789 109.62C319.789 114.836 316.228 116.823 308.611 116.823C304.471 116.823 297.929 115.747 292.961 114.008L290.974 123.862C296.687 125.849 302.566 126.76 309.77 126.76Z" fill="#019DF4"/>
<path d="M54.0751 162.212H56.1385V156.3H59.0829C60.984 156.3 62.2823 155.836 63.1401 155.002C64.0211 154.121 64.4384 152.846 64.4384 151.153C64.4384 149.693 64.0675 148.487 63.2792 147.699C62.375 146.771 60.8912 146.354 58.6192 146.354H54.0751V162.212ZM56.1385 154.631V147.977H58.4569C59.987 147.977 60.9608 148.232 61.5636 148.835C62.0736 149.345 62.3055 150.11 62.3055 151.2C62.3055 152.452 62.0041 153.309 61.4477 153.843C60.8217 154.422 59.8248 154.631 58.3873 154.631H56.1385ZM69.3819 162.537C70.7498 162.537 71.9554 162.096 72.9523 161.447L73.0682 162.212H74.6216V154.654C74.6216 153.17 74.3434 152.266 73.6246 151.571C72.9059 150.898 71.7699 150.527 70.0775 150.527C68.9878 150.527 67.6895 150.666 66.623 150.921L66.6925 152.405C67.8054 152.22 68.8951 152.127 69.7529 152.127C70.8889 152.127 71.6308 152.336 72.1177 152.799C72.535 153.217 72.6973 153.796 72.6973 154.724V155.442H70.3325C68.6864 155.442 67.3417 155.744 66.4839 156.532C65.8811 157.088 65.5102 157.923 65.5102 158.989C65.5102 160.056 65.8579 160.867 66.4143 161.447C67.1099 162.166 68.1532 162.537 69.3819 162.537ZM69.7992 160.983C68.3154 160.983 67.4576 160.311 67.4576 158.943C67.4576 158.248 67.6895 157.761 68.0836 157.436C68.6168 157.019 69.4283 156.857 70.6107 156.857H72.6973V160.241C71.8626 160.659 70.7266 160.983 69.7992 160.983ZM77.8183 162.212H79.7426V153.031C80.554 152.521 81.5046 152.266 82.5015 152.266C82.8261 152.266 83.2434 152.289 83.4984 152.312V150.597C83.2434 150.55 82.9652 150.527 82.7565 150.527C81.7596 150.527 80.6236 150.921 79.5339 151.826L79.418 150.852H77.8183V162.212ZM88.2418 162.537C89.6097 162.537 90.8152 162.096 91.8122 161.447L91.9281 162.212H93.4814V154.654C93.4814 153.17 93.2032 152.266 92.4845 151.571C91.7658 150.898 90.6298 150.527 88.9373 150.527C87.8477 150.527 86.5493 150.666 85.4829 150.921L85.5524 152.405C86.6653 152.22 87.7549 152.127 88.6127 152.127C89.7488 152.127 90.4907 152.336 90.9775 152.799C91.3949 153.217 91.5571 153.796 91.5571 154.724V155.442H89.1923C87.5463 155.442 86.2016 155.744 85.3438 156.532C84.741 157.088 84.37 157.923 84.37 158.989C84.37 160.056 84.7178 160.867 85.2742 161.447C85.9697 162.166 87.013 162.537 88.2418 162.537ZM88.6591 160.983C87.1753 160.983 86.3175 160.311 86.3175 158.943C86.3175 158.248 86.5493 157.761 86.9435 157.436C87.4767 157.019 88.2882 156.857 89.4706 156.857H91.5571V160.241C90.7225 160.659 89.5865 160.983 88.6591 160.983ZM105.351 162.537C106.186 162.537 107.09 162.398 107.693 162.235L107.6 160.821C107.044 160.937 106.279 161.007 105.885 161.007C105.073 161.007 104.679 160.844 104.424 160.566C104.099 160.218 104.03 159.662 104.03 158.572V152.266H107.021V150.852H104.03V147.838C103.427 147.838 102.662 148 102.106 148.186V150.875L100.042 151.176V152.266H102.106V158.827C102.106 160.241 102.268 161.007 102.824 161.656C103.334 162.235 104.239 162.537 105.351 162.537ZM113.634 162.537C114.955 162.537 116.323 162.096 117.505 161.377L117.598 162.212H119.198V150.852H117.274V160.102C116.346 160.543 115.164 160.844 114.144 160.844C113.309 160.844 112.706 160.659 112.312 160.265C111.918 159.87 111.756 159.314 111.756 158.34V150.852H109.831V158.572C109.831 159.986 110.156 160.914 110.782 161.54C111.431 162.212 112.405 162.537 113.634 162.537ZM127.175 167.429H129.1V161.679C129.934 162.212 131.163 162.537 132.346 162.537C135.058 162.537 136.774 160.751 136.774 156.486C136.774 152.869 135.359 150.527 132.415 150.527C131.372 150.527 130.05 150.898 128.868 151.686L128.775 150.852H127.175V167.429ZM131.859 160.937C130.885 160.937 129.772 160.636 129.1 160.241V152.938C129.981 152.475 131.117 152.173 131.998 152.173C133.899 152.173 134.757 153.564 134.757 156.462C134.757 159.708 133.922 160.937 131.859 160.937ZM139.447 162.212H141.372V145.635H139.447V162.212ZM147.901 162.537C149.268 162.537 150.474 162.096 151.471 161.447L151.587 162.212H153.14V154.654C153.14 153.17 152.862 152.266 152.143 151.571C151.425 150.898 150.289 150.527 148.596 150.527C147.506 150.527 146.208 150.666 145.142 150.921L145.211 152.405C146.324 152.22 147.414 152.127 148.271 152.127C149.408 152.127 150.149 152.336 150.636 152.799C151.054 153.217 151.216 153.796 151.216 154.724V155.442H148.851C147.205 155.442 145.86 155.744 145.003 156.532C144.4 157.088 144.029 157.923 144.029 158.989C144.029 160.056 144.377 160.867 144.933 161.447C145.628 162.166 146.672 162.537 147.901 162.537ZM148.318 160.983C146.834 160.983 145.976 160.311 145.976 158.943C145.976 158.248 146.208 157.761 146.602 157.436C147.135 157.019 147.947 156.857 149.129 156.857H151.216V160.241C150.381 160.659 149.245 160.983 148.318 160.983ZM156.337 162.212H158.261V152.962C159.189 152.521 160.417 152.22 161.437 152.22C162.272 152.22 162.875 152.405 163.269 152.799C163.663 153.193 163.825 153.75 163.825 154.724V162.212H165.75V154.492C165.75 153.077 165.425 152.15 164.799 151.524C164.15 150.852 163.176 150.527 161.947 150.527C160.626 150.527 159.212 150.968 158.029 151.686L157.937 150.852H156.337V162.212ZM174.051 162.212H176.114V146.354H174.051V162.212ZM183.689 162.537C184.756 162.537 186.124 162.119 187.051 161.517L187.19 162.212H188.767V145.635H186.843V151.339C185.938 150.829 184.802 150.527 183.829 150.527C180.861 150.527 179.122 152.846 179.122 156.602C179.122 160.543 180.791 162.537 183.689 162.537ZM184.223 160.96C182.182 160.96 181.139 159.615 181.139 156.625C181.139 153.958 181.904 152.15 184.223 152.15C184.988 152.15 186.008 152.382 186.843 152.707V160.288C186.031 160.682 185.034 160.96 184.223 160.96ZM196.957 162.537C198 162.537 199.345 162.374 200.319 162.096L200.133 160.659C199.252 160.844 198.14 160.96 197.328 160.96C195.891 160.96 195.033 160.659 194.43 160.102C193.758 159.476 193.433 158.456 193.433 157.204H200.759C200.945 157.204 201.038 157.135 201.038 156.949V156.509C201.038 152.776 199.507 150.527 196.331 150.527C193.433 150.527 191.416 152.498 191.416 156.555C191.416 158.595 191.88 160.149 192.9 161.169C193.827 162.096 195.195 162.537 196.957 162.537ZM193.433 155.79C193.456 153.495 194.407 152.081 196.331 152.081C198.232 152.081 199.067 153.611 199.137 155.79H193.433ZM207.016 162.537C208.384 162.537 209.589 162.096 210.586 161.447L210.702 162.212H212.256V154.654C212.256 153.17 211.977 152.266 211.259 151.571C210.54 150.898 209.404 150.527 207.711 150.527C206.622 150.527 205.323 150.666 204.257 150.921L204.327 152.405C205.439 152.22 206.529 152.127 207.387 152.127C208.523 152.127 209.265 152.336 209.752 152.799C210.169 153.217 210.331 153.796 210.331 154.724V155.442H207.966C206.32 155.442 204.976 155.744 204.118 156.532C203.515 157.088 203.144 157.923 203.144 158.989C203.144 160.056 203.492 160.867 204.048 161.447C204.744 162.166 205.787 162.537 207.016 162.537ZM207.433 160.983C205.949 160.983 205.092 160.311 205.092 158.943C205.092 158.248 205.323 157.761 205.718 157.436C206.251 157.019 207.062 156.857 208.245 156.857H210.331V160.241C209.497 160.659 208.361 160.983 207.433 160.983ZM215.475 162.212H217.4V145.635H215.475V162.212ZM229.356 162.537C230.423 162.537 231.79 162.119 232.718 161.517L232.857 162.212H234.433V145.635H232.509V151.339C231.605 150.829 230.469 150.527 229.495 150.527C226.528 150.527 224.789 152.846 224.789 156.602C224.789 160.543 226.458 162.537 229.356 162.537ZM229.889 160.96C227.849 160.96 226.806 159.615 226.806 156.625C226.806 153.958 227.571 152.15 229.889 152.15C230.654 152.15 231.675 152.382 232.509 152.707V160.288C231.698 160.682 230.701 160.96 229.889 160.96ZM242.624 162.537C243.667 162.537 245.012 162.374 245.986 162.096L245.8 160.659C244.919 160.844 243.806 160.96 242.995 160.96C241.557 160.96 240.7 160.659 240.097 160.102C239.424 159.476 239.1 158.456 239.1 157.204H246.426C246.612 157.204 246.704 157.135 246.704 156.949V156.509C246.704 152.776 245.174 150.527 241.998 150.527C239.1 150.527 237.083 152.498 237.083 156.555C237.083 158.595 237.547 160.149 238.567 161.169C239.494 162.096 240.862 162.537 242.624 162.537ZM239.1 155.79C239.123 153.495 240.074 152.081 241.998 152.081C243.899 152.081 244.734 153.611 244.803 155.79H239.1ZM254.517 162.212H256.58V146.354H254.517V162.212ZM260.191 162.212H262.115V152.962C263.042 152.521 264.271 152.22 265.291 152.22C266.126 152.22 266.729 152.405 267.123 152.799C267.517 153.193 267.679 153.75 267.679 154.724V162.212H269.603V154.492C269.603 153.077 269.279 152.15 268.653 151.524C268.004 150.852 267.03 150.527 265.801 150.527C264.48 150.527 263.066 150.968 261.883 151.686L261.79 150.852H260.191V162.212ZM276.743 162.537C277.578 162.537 278.482 162.398 279.085 162.235L278.992 160.821C278.435 160.937 277.67 161.007 277.276 161.007C276.465 161.007 276.071 160.844 275.816 160.566C275.491 160.218 275.421 159.662 275.421 158.572V152.266H278.412V150.852H275.421V147.838C274.819 147.838 274.054 148 273.497 148.186V150.875L271.434 151.176V152.266H273.497V158.827C273.497 160.241 273.659 161.007 274.216 161.656C274.726 162.235 275.63 162.537 276.743 162.537ZM286.208 162.537C287.251 162.537 288.596 162.374 289.569 162.096L289.384 160.659C288.503 160.844 287.39 160.96 286.579 160.96C285.141 160.96 284.283 160.659 283.681 160.102C283.008 159.476 282.684 158.456 282.684 157.204H290.01C290.195 157.204 290.288 157.135 290.288 156.949V156.509C290.288 152.776 288.758 150.527 285.582 150.527C282.684 150.527 280.667 152.498 280.667 156.555C280.667 158.595 281.13 160.149 282.15 161.169C283.078 162.096 284.446 162.537 286.208 162.537ZM282.684 155.79C282.707 153.495 283.657 152.081 285.582 152.081C287.483 152.081 288.317 153.611 288.387 155.79H282.684ZM292.997 162.212H294.922V153.031C295.733 152.521 296.684 152.266 297.681 152.266C298.005 152.266 298.422 152.289 298.677 152.312V150.597C298.422 150.55 298.144 150.527 297.936 150.527C296.939 150.527 295.803 150.921 294.713 151.826L294.597 150.852H292.997V162.212ZM300.763 162.212H302.687V152.962C303.615 152.521 304.844 152.22 305.864 152.22C306.698 152.22 307.301 152.405 307.695 152.799C308.089 153.193 308.252 153.75 308.252 154.724V162.212H310.176V154.492C310.176 153.077 309.851 152.15 309.225 151.524C308.576 150.852 307.603 150.527 306.374 150.527C305.052 150.527 303.638 150.968 302.456 151.686L302.363 150.852H300.763V162.212ZM318.312 162.537C319.356 162.537 320.7 162.374 321.674 162.096L321.489 160.659C320.608 160.844 319.495 160.96 318.683 160.96C317.246 160.96 316.388 160.659 315.785 160.102C315.113 159.476 314.788 158.456 314.788 157.204H322.115C322.3 157.204 322.393 157.135 322.393 156.949V156.509C322.393 152.776 320.863 150.527 317.686 150.527C314.788 150.527 312.771 152.498 312.771 156.555C312.771 158.595 313.235 160.149 314.255 161.169C315.182 162.096 316.55 162.537 318.312 162.537ZM314.788 155.79C314.812 153.495 315.762 152.081 317.686 152.081C319.588 152.081 320.422 153.611 320.492 155.79H314.788ZM329.043 162.537C329.878 162.537 330.782 162.398 331.385 162.235L331.292 160.821C330.736 160.937 329.971 161.007 329.577 161.007C328.765 161.007 328.371 160.844 328.116 160.566C327.791 160.218 327.722 159.662 327.722 158.572V152.266H330.713V150.852H327.722V147.838C327.119 147.838 326.354 148 325.798 148.186V150.875L323.734 151.176V152.266H325.798V158.827C325.798 160.241 325.96 161.007 326.516 161.656C327.026 162.235 327.931 162.537 329.043 162.537Z" fill="white"/>
<path d="M27.6285 59.89C28.1241 59.4505 28.75 58.925 29.4015 58.4948L29.5667 58.3483C30.1833 57.9787 30.7393 57.5741 31.321 57.2649C31.998 56.9301 32.71 56.5349 33.3521 56.2606C33.9593 56.0468 34.7317 55.6865 35.4343 55.4471L35.9461 55.2589C36.4579 55.0706 37.0651 54.8568 37.5769 54.6686C40.3174 53.832 43.1951 53.3165 46.1494 53.0872C46.9031 53.0386 47.6568 52.99 48.3151 52.9669C48.8176 52.9345 49.2851 52.9626 49.7527 52.9906C49.848 52.9651 49.9085 53 50.0039 52.9744L46.7815 55.0646C44.1407 56.8456 41.9862 58.343 40.048 59.8846C39.7176 60.1776 39.2918 60.4962 38.9614 60.7892L38.6309 61.0822L38.3005 61.3752C37.9352 61.7286 37.6048 62.0216 37.179 62.3402L37.1441 62.4006C36.944 62.6076 36.7439 62.8146 36.4833 62.9866C36.2832 63.1936 36.083 63.4005 35.7875 63.6331L35.7526 63.6935L35.7177 63.754C35.2826 64.2284 34.9173 64.5819 34.4915 64.9004L34.196 65.1329C33.8656 65.4259 33.6305 65.6934 33.335 65.9259L33.1698 66.0724C32.8394 66.3654 32.4741 66.7188 32.1786 66.9514L32.1437 67.0118L32.1088 67.0723C31.7783 67.3653 31.4479 67.6583 30.9617 67.9419L30.9268 68.0024L30.8919 68.0629C30.4661 68.3814 30.1706 68.6139 29.8146 68.8116L28.6862 69.3695C27.8789 69.7903 26.874 69.8551 26.018 69.5222C25.8017 69.4779 25.6203 69.3731 25.4389 69.2684C24.0481 68.4654 23.4322 66.7392 23.9328 65.1738C24.161 64.4993 24.4846 63.7993 24.8686 63.1341C25.348 62.4434 25.7925 61.8131 26.1672 61.3038C26.6628 60.8643 27.1329 60.3294 27.6285 59.89Z" fill="#E63780"/>
<path d="M47.4495 23.6035C48.2536 25.8416 49.2903 28.3751 50.62 31.2391L52.2588 34.6846C52.1983 34.6497 52.0774 34.5799 52.0169 34.545C51.5936 34.3006 51.2308 34.0911 50.8075 33.8468C50.2378 33.4372 49.5726 33.0531 49.0028 32.6435C46.6027 30.9354 44.3772 28.9248 42.5682 26.7516C42.1892 26.2909 41.8101 25.8302 41.4916 25.4044L41.173 24.9786C40.7685 24.4225 40.3639 23.8664 39.8733 23.1801C39.4431 22.5286 39.013 21.8771 38.6433 21.2606C38.3341 20.6789 38.025 20.0973 37.6902 19.4203L37.6391 19.2295C37.3392 18.492 37.0743 17.694 36.8605 17.0868C36.6816 16.4192 36.5027 15.7515 36.3681 14.8675C36.2845 14.1743 36.201 13.481 36.2222 12.6064C36.269 11.8272 36.3763 11.0828 36.5091 10.4339C36.721 9.50811 37.2703 8.69644 38.1125 8.21519C39.1804 7.62236 40.497 7.57626 41.5855 8.20468C42.0692 8.48397 42.4832 8.8842 42.8273 9.40538L43.4806 10.5082C43.6782 10.8642 43.8758 11.2201 44.0036 11.697L44.0292 11.7924L44.0547 11.8878C44.2779 12.3392 44.4057 12.8161 44.5684 13.2325L44.5939 13.3279L44.6195 13.4233C44.7822 13.8397 44.8844 14.2212 45.0122 14.6981L45.0633 14.8889C45.1655 15.2704 45.2678 15.652 45.37 16.0335L45.4722 16.415C45.6 16.8919 45.7278 17.3688 45.9067 18.0365L45.9323 18.1319L45.9578 18.2272C46.0345 18.5134 46.1112 18.7995 46.1878 19.0857C46.2645 19.3718 46.3412 19.658 46.4178 19.9441L46.4434 20.0395C46.5712 20.5164 46.7339 20.9328 46.8617 21.4097L46.9639 21.7913L47.1522 22.3031C47.1335 22.6148 47.2962 23.0312 47.4495 23.6035Z" fill="#E63780"/>
<path d="M23.3029 33.4468C26.0571 33.4244 28.6947 34.3022 30.6578 34.9519C33.1651 35.9157 35.6281 37.0959 38.0912 38.276C40.1565 39.3072 42.3078 40.4686 44.5452 41.7604L45.3313 42.2142C46.1779 42.703 47.0244 43.1918 47.7756 43.7061C46.8056 43.7104 45.8356 43.7148 44.961 43.6936C41.93 43.6368 39.3665 43.608 36.7775 43.4839C36.0587 43.4721 35.2795 43.4253 34.5607 43.4134C32.6556 43.3616 30.69 43.2749 28.8198 43.1627C26.4565 42.927 24.0071 42.561 21.6557 41.6065C21.5347 41.5367 21.3533 41.4319 21.2324 41.3621C19.9625 40.629 19.1721 39.2051 19.1353 37.7326C19.1198 35.3855 21.0162 33.4972 23.3029 33.4468Z" fill="#E63780"/>
<path d="M316.37 237.638C316.37 241.166 313.51 244.027 309.981 244.027L195.524 244.027L195.524 187.13L309.981 187.13C313.51 187.13 316.37 189.991 316.37 193.519L316.37 237.638Z" fill="#FBC7DE"/>
<path d="M211.631 226.593H221.017V224.397H215.075L217.637 221.598C219.962 219.058 220.78 217.658 220.78 215.829C220.78 214.601 220.414 213.654 219.725 212.965C218.821 212.061 217.422 211.588 215.312 211.588C214.106 211.588 212.75 211.781 211.889 211.997V214.279C212.815 214.106 213.934 213.999 214.774 213.999C215.829 213.999 216.56 214.171 217.013 214.558C217.4 214.881 217.594 215.355 217.594 215.979C217.594 217.206 216.905 218.175 215.269 220.156L212.406 223.643C211.781 224.397 211.544 225 211.544 225.904C211.544 226.141 211.566 226.42 211.631 226.593ZM229.361 226.894C233.452 226.894 235.002 224.289 235.002 219.252C235.002 214.214 233.452 211.588 229.361 211.588C225.271 211.588 223.721 214.214 223.721 219.252C223.721 224.289 225.271 226.894 229.361 226.894ZM229.361 224.418C227.618 224.418 226.929 223.32 226.929 219.252C226.929 215.183 227.618 213.848 229.361 213.848C231.105 213.848 231.794 215.183 231.794 219.252C231.794 223.32 231.105 224.418 229.361 224.418ZM242.27 226.894C246.36 226.894 247.91 224.289 247.91 219.252C247.91 214.214 246.36 211.588 242.27 211.588C238.18 211.588 236.63 214.214 236.63 219.252C236.63 224.289 238.18 226.894 242.27 226.894ZM242.27 224.418C240.526 224.418 239.837 223.32 239.837 219.252C239.837 215.183 240.526 213.848 242.27 213.848C244.014 213.848 244.703 215.183 244.703 219.252C244.703 223.32 244.014 224.418 242.27 224.418ZM250.313 226.593H253.133V218.024L256.276 223.234H258.86L261.917 218.111V226.593H264.995V211.867H262.412L257.611 220.091L252.961 211.867H250.313V226.593ZM273.716 226.894C275.029 226.894 275.976 226.507 276.708 225.667C277.483 224.784 277.892 223.17 277.892 221.275C277.892 217.185 276.256 215.742 273.867 215.742C272.855 215.742 271.692 216.022 270.96 216.453V211.2H267.882V226.593H270.422L270.573 225.925C271.456 226.507 272.618 226.894 273.716 226.894ZM272.79 224.483C272.187 224.483 271.456 224.246 270.96 223.966V218.498C271.456 218.304 272.123 218.218 272.79 218.218C274.082 218.218 274.663 218.799 274.663 221.318C274.663 223.686 274.19 224.483 272.79 224.483ZM279.928 231.437H283.007V226.119C283.803 226.614 284.88 226.894 285.827 226.894C288.217 226.894 289.939 225.409 289.939 221.254C289.939 219.295 289.508 217.615 288.518 216.647C287.915 216.065 287.054 215.742 285.999 215.742C284.708 215.742 283.588 216.216 282.684 216.819L282.598 216.044H279.928V231.437ZM284.923 224.461C284.256 224.461 283.502 224.375 283.007 224.16V218.52C283.524 218.369 284.342 218.24 284.837 218.24C286.236 218.24 286.71 218.95 286.71 221.211C286.71 223.751 286.215 224.461 284.923 224.461ZM295.398 226.894C298.563 226.894 300.156 225.624 300.156 223.428C300.156 219.058 294.386 220.759 294.386 218.972C294.386 218.369 294.989 218.111 296.087 218.111C296.948 218.111 298.24 218.283 299.338 218.584L299.574 216.324C298.433 215.936 297.12 215.742 296.065 215.742C292.901 215.742 291.48 217.185 291.48 219.144C291.48 223.514 297.228 221.684 297.228 223.557C297.228 224.311 296.496 224.526 295.333 224.526C294.192 224.526 292.728 224.289 291.932 224.031L291.695 226.313C292.535 226.614 294.149 226.894 295.398 226.894Z" fill="#922859"/>
<path d="M235.227 235.098H236.141L237.234 233.26L238.456 235.098H239.39L237.761 232.664L239.371 230.23H238.466L237.373 232.088L236.131 230.23H235.207L236.847 232.694L235.227 235.098ZM243.822 235.238C244.657 235.238 245.253 235.059 245.68 234.711C246.088 234.373 246.316 233.876 246.316 233.23C246.316 232.376 245.839 231.81 245.094 231.551C245.69 231.323 246.118 230.816 246.118 230.011C246.118 229.455 245.939 229.018 245.621 228.71C245.253 228.352 244.667 228.173 243.872 228.173C243.445 228.173 242.908 228.223 242.471 228.322V228.968C242.888 228.898 243.335 228.859 243.713 228.859C244.309 228.859 244.687 228.948 244.945 229.167C245.164 229.355 245.283 229.663 245.283 230.051C245.283 230.945 244.707 231.323 243.723 231.323H243.554V231.939H243.733C244.379 231.939 244.826 232.038 245.114 232.306C245.333 232.515 245.452 232.853 245.452 233.221C245.452 233.668 245.313 234.015 245.015 234.234C244.736 234.443 244.349 234.542 243.713 234.542C243.276 234.542 242.739 234.492 242.362 234.413V235.069C242.759 235.168 243.306 235.238 243.822 235.238ZM249.822 235.098H250.647V231.134C251.044 230.945 251.502 230.816 251.919 230.816C252.257 230.816 252.515 230.895 252.684 231.064C252.853 231.233 252.922 231.472 252.922 231.889V235.098H253.747V231.79C253.747 231.541 253.717 231.323 253.678 231.144C254.105 230.935 254.592 230.816 254.989 230.816C255.327 230.816 255.585 230.895 255.754 231.064C255.923 231.233 255.993 231.472 255.993 231.889V235.098H256.817V231.79C256.817 231.184 256.678 230.786 256.41 230.518C256.132 230.23 255.714 230.091 255.188 230.091C254.641 230.091 254.045 230.269 253.439 230.637C253.161 230.269 252.734 230.091 252.118 230.091C251.581 230.091 251.054 230.269 250.548 230.587L250.508 230.23H249.822V235.098ZM260.303 235.238C260.75 235.238 261.326 235.168 261.744 235.049L261.664 234.433C261.287 234.512 260.81 234.562 260.462 234.562C259.846 234.562 259.478 234.433 259.22 234.194C258.932 233.926 258.793 233.489 258.793 232.952H261.932C262.012 232.952 262.052 232.922 262.052 232.843V232.654C262.052 231.054 261.396 230.091 260.035 230.091C258.793 230.091 257.928 230.935 257.928 232.674C257.928 233.548 258.127 234.214 258.564 234.651C258.962 235.049 259.548 235.238 260.303 235.238ZM258.793 232.346C258.803 231.362 259.21 230.756 260.035 230.756C260.849 230.756 261.207 231.412 261.237 232.346H258.793ZM264.495 235.238C265.667 235.238 266.462 234.78 266.462 233.747C266.462 232.008 263.749 232.525 263.749 231.432C263.749 230.975 264.117 230.746 264.813 230.746C265.21 230.746 265.657 230.806 266.094 230.905L266.164 230.299C265.776 230.18 265.23 230.091 264.743 230.091C263.71 230.091 262.974 230.548 262.974 231.492C262.974 233.28 265.687 232.714 265.687 233.807C265.687 234.304 265.26 234.572 264.465 234.572C264.037 234.572 263.501 234.502 263.104 234.393L263.064 235.029C263.431 235.148 264.028 235.238 264.495 235.238ZM269.744 235.238C270.191 235.238 270.768 235.168 271.185 235.049L271.105 234.433C270.728 234.512 270.251 234.562 269.903 234.562C269.287 234.562 268.919 234.433 268.661 234.194C268.373 233.926 268.234 233.489 268.234 232.952H271.374C271.453 232.952 271.493 232.922 271.493 232.843V232.654C271.493 231.054 270.837 230.091 269.476 230.091C268.234 230.091 267.369 230.935 267.369 232.674C267.369 233.548 267.568 234.214 268.005 234.651C268.403 235.049 268.989 235.238 269.744 235.238ZM268.234 232.346C268.244 231.362 268.651 230.756 269.476 230.756C270.291 230.756 270.648 231.412 270.678 232.346H268.234ZM273.936 235.238C275.108 235.238 275.903 234.78 275.903 233.747C275.903 232.008 273.191 232.525 273.191 231.432C273.191 230.975 273.558 230.746 274.254 230.746C274.651 230.746 275.098 230.806 275.536 230.905L275.605 230.299C275.218 230.18 274.671 230.091 274.184 230.091C273.151 230.091 272.416 230.548 272.416 231.492C272.416 233.28 275.128 232.714 275.128 233.807C275.128 234.304 274.701 234.572 273.906 234.572C273.479 234.572 272.942 234.502 272.545 234.393L272.505 235.029C272.873 235.148 273.469 235.238 273.936 235.238Z" fill="#922859"/>
<path d="M249.597 205.099H253.219C254.798 205.099 255.797 204.846 256.453 204.264C257.004 203.772 257.302 203.057 257.302 202.073C257.302 200.732 256.408 199.808 255.141 199.629C256.08 199.152 256.572 198.452 256.572 197.408C256.572 196.663 256.319 196.067 255.857 195.665C255.26 195.143 254.366 194.904 252.92 194.904H249.597V205.099ZM251.922 198.958V196.589H252.771C253.397 196.589 253.755 196.663 253.979 196.887C254.172 197.08 254.262 197.364 254.262 197.736C254.262 198.154 254.157 198.452 253.964 198.645C253.71 198.884 253.353 198.958 252.712 198.958H251.922ZM251.922 203.415V200.643H252.876C253.71 200.643 254.187 200.717 254.5 200.985C254.769 201.209 254.888 201.567 254.888 202.118C254.888 202.535 254.769 202.833 254.56 203.042C254.277 203.325 253.74 203.415 252.876 203.415H251.922ZM262.129 205.308C264.663 205.308 265.84 203.787 265.84 201.447C265.84 199.107 264.663 197.587 262.129 197.587C259.595 197.587 258.418 199.107 258.418 201.447C258.418 203.787 259.595 205.308 262.129 205.308ZM262.129 203.683C261.056 203.683 260.639 202.953 260.639 201.447C260.639 199.942 261.056 199.212 262.129 199.212C263.202 199.212 263.62 199.942 263.62 201.447C263.62 202.953 263.202 203.683 262.129 203.683ZM267.262 205.099H269.393V199.599C269.736 199.465 270.376 199.361 270.779 199.361C271.211 199.361 271.509 199.42 271.703 199.599C271.852 199.748 271.927 199.957 271.927 200.33V205.099H274.058V200.076C274.058 199.227 273.879 198.586 273.432 198.154C273.029 197.751 272.314 197.587 271.673 197.587C270.898 197.587 269.959 197.796 269.154 198.317L269.11 197.796H267.262V205.099ZM279.144 205.308C281.677 205.308 282.855 203.787 282.855 201.447C282.855 199.107 281.677 197.587 279.144 197.587C276.61 197.587 275.433 199.107 275.433 201.447C275.433 203.787 276.61 205.308 279.144 205.308ZM279.144 203.683C278.071 203.683 277.653 202.953 277.653 201.447C277.653 199.942 278.071 199.212 279.144 199.212C280.217 199.212 280.634 199.942 280.634 201.447C280.634 202.953 280.217 203.683 279.144 203.683Z" fill="#922859"/>
<path d="M231.971 202.883H225.955V199.163H231.971V193.622H236.009V199.163H242.025V202.883H236.009V208.424H231.971V202.883Z" fill="#922859"/>
<path d="M50.5088 193.519C50.5088 189.991 53.3692 187.13 56.8976 187.13H195.524V244.021H56.8976C53.3692 244.021 50.5088 241.16 50.5088 237.632V193.519Z" fill="#E63780"/>
<path d="M85.5236 232.768C87.5161 232.768 88.8376 232.362 89.8136 231.447C90.5455 230.755 90.9725 229.759 90.9725 228.519C90.9725 223.09 83.8767 224.961 83.8767 222.236C83.8767 221.362 84.4257 220.752 86.1335 220.752C87.1094 220.752 88.3293 220.935 89.4679 221.24L89.9559 218.882C88.8783 218.516 87.4144 218.312 86.0725 218.312C83.1041 218.312 80.8879 219.553 80.8879 222.379C80.8879 227.848 87.9837 225.957 87.9837 228.56C87.9837 229.84 87.1094 230.328 85.2389 230.328C84.2223 230.328 82.6161 230.064 81.3962 229.637L80.9083 232.057C82.3112 232.545 83.7547 232.768 85.5236 232.768ZM91.9837 232.768H94.5658L100.686 218.312H98.1035L91.9837 232.768Z" fill="white"/>
<path d="M106.719 232.552H112.003L118.634 213.729C119.049 212.59 119.187 211.45 119.187 210.345C119.187 209.827 119.118 209.205 118.945 208.929H103.542V212.452H114.559L106.719 232.552ZM129.738 233.035C136.334 233.035 138.924 230.134 138.924 225.161C138.924 220.153 136.092 217.77 129.91 217.77H128.667L128.874 212.452H137.543V208.929H124.626L124.212 218.944C124.177 220.015 124.212 220.913 124.384 221.604H129.185C132.984 221.604 133.813 222.916 133.813 225.368C133.813 227.716 132.604 229.167 128.529 229.167C126.975 229.167 125.42 229.029 124.177 228.787V232.482C125.731 232.828 127.665 233.035 129.738 233.035Z" fill="white"/>
<path d="M143.974 232.151H144.104C144.996 232.151 145.461 231.798 145.461 230.869V230.647C145.461 229.718 144.996 229.365 144.104 229.365H143.974C143.083 229.365 142.618 229.718 142.618 230.647V230.869C142.618 231.798 143.083 232.151 143.974 232.151ZM150.387 232.151C152.077 232.151 153.266 231.78 154.121 230.925C155.235 229.81 155.848 227.916 155.848 224.962C155.848 221.116 154.622 218.942 151.223 218.942C148.269 218.942 146.727 220.559 146.727 223.383C146.727 225.928 148.046 227.34 150.312 227.34C151.185 227.34 152.226 227.135 153.062 226.689C153.025 227.971 152.82 228.844 152.263 229.402C151.761 229.903 151 230.071 149.773 230.071C149.105 230.071 148.417 229.996 147.767 229.885V231.91C148.622 232.058 149.476 232.151 150.387 232.151ZM151.241 225.333C149.885 225.333 149.365 224.906 149.365 223.29C149.365 221.748 149.978 220.967 151.167 220.967C152.616 220.967 153.099 222.008 153.099 224.441V225.147C152.579 225.259 151.78 225.333 151.241 225.333ZM162.156 232.151C165.686 232.151 167.023 229.903 167.023 225.556C167.023 221.209 165.686 218.942 162.156 218.942C158.626 218.942 157.288 221.209 157.288 225.556C157.288 229.903 158.626 232.151 162.156 232.151ZM162.156 230.015C160.651 230.015 160.056 229.067 160.056 225.556C160.056 222.045 160.651 220.893 162.156 220.893C163.661 220.893 164.255 222.045 164.255 225.556C164.255 229.067 163.661 230.015 162.156 230.015Z" fill="white"/>
<path d="M97.4323 199.954H98.3166V197.42H99.5785C100.393 197.42 100.95 197.221 101.317 196.863C101.695 196.486 101.874 195.939 101.874 195.214C101.874 194.588 101.715 194.071 101.377 193.734C100.989 193.336 100.353 193.157 99.3797 193.157H97.4323V199.954ZM98.3166 196.704V193.853H99.3102C99.966 193.853 100.383 193.962 100.642 194.22C100.86 194.439 100.96 194.767 100.96 195.234C100.96 195.77 100.83 196.138 100.592 196.367C100.324 196.615 99.8964 196.704 99.2804 196.704H98.3166ZM102.63 199.954H103.455V192.849H102.63V199.954ZM105.942 200.093C106.528 200.093 107.045 199.904 107.472 199.626L107.522 199.954H108.187V196.714C108.187 196.078 108.068 195.691 107.76 195.393C107.452 195.105 106.965 194.946 106.24 194.946C105.773 194.946 105.216 195.005 104.759 195.115L104.789 195.751C105.266 195.671 105.733 195.631 106.101 195.631C106.588 195.631 106.906 195.721 107.114 195.919C107.293 196.098 107.363 196.347 107.363 196.744V197.052H106.349C105.644 197.052 105.067 197.181 104.7 197.519C104.441 197.758 104.282 198.115 104.282 198.572C104.282 199.029 104.431 199.377 104.67 199.626C104.968 199.934 105.415 200.093 105.942 200.093ZM106.121 199.427C105.485 199.427 105.117 199.139 105.117 198.553C105.117 198.254 105.216 198.046 105.385 197.907C105.614 197.728 105.962 197.658 106.468 197.658H107.363V199.109C107.005 199.288 106.518 199.427 106.121 199.427ZM109.246 199.954H110.071V195.989C110.469 195.8 110.995 195.671 111.432 195.671C111.79 195.671 112.048 195.751 112.217 195.919C112.386 196.088 112.456 196.327 112.456 196.744V199.954H113.28V196.645C113.28 196.039 113.141 195.641 112.873 195.373C112.595 195.085 112.178 194.946 111.651 194.946C111.085 194.946 110.478 195.135 109.972 195.443L109.932 195.085H109.246V199.954ZM117.647 200.093C118.521 200.093 119.167 199.884 119.575 199.467C119.932 199.109 120.121 198.602 120.121 197.966C120.121 197.35 119.942 196.873 119.604 196.526C119.197 196.108 118.601 195.929 117.577 195.929H117.061L117.15 193.813H119.704V193.157H116.455L116.325 196.019C116.315 196.237 116.315 196.307 116.315 196.386C116.315 196.456 116.325 196.545 116.345 196.595H117.458C118.203 196.595 118.65 196.695 118.919 196.963C119.147 197.191 119.257 197.559 119.257 197.986C119.257 198.473 119.117 198.821 118.849 199.049C118.561 199.288 118.164 199.397 117.488 199.397C117.18 199.397 116.584 199.347 116.226 199.288V199.934C116.584 200.023 117.18 200.093 117.647 200.093ZM123.275 200.093C124.964 200.093 125.61 198.781 125.61 196.565C125.61 194.35 124.964 193.028 123.275 193.028C121.586 193.028 120.94 194.35 120.94 196.565C120.94 198.781 121.586 200.093 123.275 200.093ZM123.275 199.387C122.172 199.387 121.805 198.463 121.805 196.565C121.805 194.668 122.172 193.734 123.275 193.734C124.378 193.734 124.746 194.668 124.746 196.565C124.746 198.463 124.378 199.387 123.275 199.387ZM128.246 199.954H129.031V194.856L130.988 198.513H131.724L133.701 194.896V199.954H134.536V193.157H133.78L131.386 197.629L129.021 193.157H128.246V199.954ZM137.959 200.093C139.171 200.093 139.857 199.268 139.857 197.499C139.857 195.751 139.151 194.946 137.969 194.946C137.492 194.946 136.965 195.115 136.568 195.333V192.849H135.743V199.954H136.409L136.449 199.626C136.836 199.894 137.432 200.093 137.959 200.093ZM137.77 199.407C137.373 199.407 136.896 199.258 136.568 199.059V195.929C136.896 195.77 137.373 195.651 137.75 195.651C138.615 195.651 138.992 196.188 138.992 197.499C138.992 198.91 138.595 199.407 137.77 199.407ZM140.682 202.189H141.506V199.725C141.864 199.954 142.391 200.093 142.897 200.093C144.06 200.093 144.795 199.328 144.795 197.499C144.795 195.949 144.189 194.946 142.927 194.946C142.48 194.946 141.914 195.105 141.407 195.443L141.367 195.085H140.682V202.189ZM142.689 199.407C142.271 199.407 141.794 199.278 141.506 199.109V195.979C141.884 195.78 142.371 195.651 142.748 195.651C143.563 195.651 143.931 196.247 143.931 197.489C143.931 198.88 143.573 199.407 142.689 199.407ZM146.902 200.093C148.074 200.093 148.869 199.636 148.869 198.602C148.869 196.863 146.157 197.38 146.157 196.287C146.157 195.83 146.524 195.602 147.22 195.602C147.617 195.602 148.064 195.661 148.502 195.761L148.571 195.154C148.184 195.035 147.637 194.946 147.15 194.946C146.117 194.946 145.382 195.403 145.382 196.347C145.382 198.135 148.094 197.569 148.094 198.662C148.094 199.159 147.667 199.427 146.872 199.427C146.445 199.427 145.908 199.357 145.511 199.248L145.471 199.884C145.839 200.003 146.435 200.093 146.902 200.093Z" fill="white"/>
</svg>
