<svg width="371" height="269" viewBox="0 0 371 269" fill="none" xmlns="http://www.w3.org/2000/svg">
<path d="M69.4422 60.4465C71.382 60.4465 73.9799 60.1348 75.4001 59.7191L74.8459 55.7703C73.4603 56.0474 71.6245 56.2552 70.4814 56.2552C67.8142 56.2552 66.3247 55.7357 65.2856 54.5579C64.1078 53.2417 63.5883 50.8862 63.5883 48.0805C63.5883 43.3696 64.766 40.0096 69.8579 40.0096C71.3473 40.0096 73.1139 40.3214 74.9498 40.841L75.6426 36.8921C74.1185 36.2686 71.4859 35.8183 69.4422 35.8183C61.3367 35.8183 57.9768 40.8063 57.9768 48.219C57.9768 52.3411 58.8427 55.4239 60.8518 57.5715C62.6184 59.442 65.2509 60.4465 69.4422 60.4465ZM86.1119 60.4465C92.0005 60.4465 94.7369 56.9134 94.7369 51.4751C94.7369 46.0368 92.0005 42.5036 86.1119 42.5036C80.2233 42.5036 77.4868 46.0368 77.4868 51.4751C77.4868 56.9134 80.2233 60.4465 86.1119 60.4465ZM86.1119 56.6709C83.6179 56.6709 82.648 54.9736 82.648 51.4751C82.648 47.9766 83.6179 46.2793 86.1119 46.2793C88.6059 46.2793 89.5758 47.9766 89.5758 51.4751C89.5758 54.9736 88.6059 56.6709 86.1119 56.6709ZM103.548 60.4465C108.64 60.4465 111.203 58.4028 111.203 54.8697C111.203 47.838 101.92 50.5745 101.92 47.6995C101.92 46.7296 102.89 46.3139 104.656 46.3139C106.042 46.3139 108.12 46.591 109.887 47.076L110.268 43.4389C108.432 42.8154 106.319 42.5036 104.621 42.5036C99.5295 42.5036 97.2434 44.8244 97.2434 47.9766C97.2434 55.0082 106.492 52.0639 106.492 55.0775C106.492 56.2899 105.314 56.6363 103.444 56.6363C101.608 56.6363 99.2524 56.2552 97.9708 55.8396L97.5898 59.5113C98.9407 59.9962 101.539 60.4465 103.548 60.4465ZM121.131 60.4465C122.62 60.4465 124.352 60.2733 125.46 60.0309L125.287 56.5324C124.698 56.6016 123.59 56.7402 122.897 56.7402C120.888 56.7402 120.507 56.0474 120.507 54.1423V46.21H124.906V42.9886H120.507V38.4855C118.914 38.4855 117.043 38.7626 115.554 39.2129V42.9886L112.679 43.5082V46.21H115.554V54.835C115.554 58.576 116.905 60.4465 121.131 60.4465ZM136.142 60.4465C142.031 60.4465 144.767 56.9134 144.767 51.4751C144.767 46.0368 142.031 42.5036 136.142 42.5036C130.253 42.5036 127.517 46.0368 127.517 51.4751C127.517 56.9134 130.253 60.4465 136.142 60.4465ZM136.142 56.6709C133.648 56.6709 132.678 54.9736 132.678 51.4751C132.678 47.9766 133.648 46.2793 136.142 46.2793C138.636 46.2793 139.606 47.9766 139.606 51.4751C139.606 54.9736 138.636 56.6709 136.142 56.6709ZM161.393 60.4465C163.471 60.4465 165.307 59.7191 166.762 58.7492L166.866 59.9616H171.161V35.1948H166.207V43.7506C164.891 42.9539 163.194 42.5036 161.704 42.5036C157.652 42.5036 154.984 45.8636 154.984 51.5097C154.984 54.835 155.746 57.433 157.34 58.9917C158.31 59.927 159.73 60.4465 161.393 60.4465ZM163.263 56.567C161.012 56.567 160.18 55.4239 160.18 51.6483C160.18 47.5609 161.531 46.4178 163.852 46.4178C164.475 46.4178 165.445 46.5564 166.207 46.7988V55.9781C165.341 56.3245 164.06 56.567 163.263 56.567ZM183.753 60.4465C185.866 60.4465 187.84 60.1694 189.468 59.8577L189.087 56.2552C187.805 56.4977 186.074 56.6709 184.861 56.6709C181.536 56.6709 179.769 55.8742 179.631 52.9992H190.057C190.334 52.9992 190.473 52.8953 190.473 52.6182V51.0594C190.473 45.1708 187.771 42.5036 182.679 42.5036C177.483 42.5036 174.435 45.5518 174.435 51.5097C174.435 54.2115 175.024 56.6363 176.721 58.2643C178.176 59.6498 180.566 60.4465 183.753 60.4465ZM179.631 49.7778C179.735 47.5955 180.635 46.2446 182.644 46.2446C184.619 46.2446 185.623 47.6302 185.623 49.7778H179.631ZM203.841 40.1482H204.083C205.781 40.1482 206.681 39.49 206.681 37.7927V37.3424C206.681 35.6451 205.781 34.9524 204.083 34.9524H203.841C202.144 34.9524 201.243 35.6451 201.243 37.3424V37.7927C201.243 39.49 202.144 40.1482 203.841 40.1482ZM201.485 59.9616H206.439V42.9886H201.485V59.9616ZM210.684 59.9616H215.637V47.1799C216.434 46.8681 217.923 46.6256 218.859 46.6256C219.863 46.6256 220.556 46.7642 221.006 47.1799C221.353 47.5263 221.526 48.0112 221.526 48.8772V59.9616H226.479V48.2883C226.479 46.3139 226.064 44.8244 225.024 43.8199C224.089 42.8847 222.426 42.5036 220.937 42.5036C219.136 42.5036 216.954 42.9886 215.083 44.2009L214.979 42.9886H210.684V59.9616ZM236.048 60.4465C241.14 60.4465 243.703 58.4028 243.703 54.8697C243.703 47.838 234.42 50.5745 234.42 47.6995C234.42 46.7296 235.39 46.3139 237.156 46.3139C238.542 46.3139 240.62 46.591 242.387 47.076L242.768 43.4389C240.932 42.8154 238.819 42.5036 237.122 42.5036C232.03 42.5036 229.744 44.8244 229.744 47.9766C229.744 55.0082 238.992 52.0639 238.992 55.0775C238.992 56.2899 237.814 56.6363 235.944 56.6363C234.108 56.6363 231.753 56.2552 230.471 55.8396L230.09 59.5113C231.441 59.9962 234.039 60.4465 236.048 60.4465ZM253.631 60.4465C255.12 60.4465 256.852 60.2733 257.961 60.0309L257.788 56.5324C257.199 56.6016 256.09 56.7402 255.397 56.7402C253.388 56.7402 253.007 56.0474 253.007 54.1423V46.21H257.407V42.9886H253.007V38.4855C251.414 38.4855 249.544 38.7626 248.054 39.2129V42.9886L245.179 43.5082V46.21H248.054V54.835C248.054 58.576 249.405 60.4465 253.631 60.4465ZM265.802 60.4465C267.603 60.4465 269.439 59.8577 270.894 58.9224L271.309 59.9616H275.224V48.9464C275.224 46.9028 274.773 45.4479 273.907 44.4434C272.73 43.0578 270.409 42.5036 267.811 42.5036C265.767 42.5036 263.516 42.7807 261.784 43.1271L262.026 46.7642C263.204 46.5217 265.178 46.3139 266.772 46.3139C268.123 46.3139 269.058 46.4871 269.647 47.0067C270.062 47.3877 270.27 47.9766 270.27 48.9118V49.466H267.568C264.416 49.466 262.546 49.8817 261.333 51.0248C260.364 51.96 259.844 53.3456 259.844 54.8697C259.844 58.1604 261.922 60.4465 265.802 60.4465ZM267.222 56.6709C265.421 56.6709 264.797 55.9089 264.797 54.6619C264.797 54.0384 264.971 53.5534 265.282 53.2417C265.733 52.7914 266.46 52.6528 267.638 52.6528H270.27V56.1513C269.474 56.3938 268.157 56.6709 267.222 56.6709ZM279.389 59.9616H284.342V35.1948H279.389V59.9616ZM293.506 60.4465C295.307 60.4465 297.143 59.8577 298.598 58.9224L299.014 59.9616H302.928V48.9464C302.928 46.9028 302.478 45.4479 301.612 44.4434C300.434 43.0578 298.113 42.5036 295.515 42.5036C293.471 42.5036 291.22 42.7807 289.488 43.1271L289.73 46.7642C290.908 46.5217 292.883 46.3139 294.476 46.3139C295.827 46.3139 296.762 46.4871 297.351 47.0067C297.767 47.3877 297.975 47.9766 297.975 48.9118V49.466H295.273C292.121 49.466 290.25 49.8817 289.038 51.0248C288.068 51.96 287.548 53.3456 287.548 54.8697C287.548 58.1604 289.627 60.4465 293.506 60.4465ZM294.926 56.6709C293.125 56.6709 292.502 55.9089 292.502 54.6619C292.502 54.0384 292.675 53.5534 292.987 53.2417C293.437 52.7914 294.164 52.6528 295.342 52.6528H297.975V56.1513C297.178 56.3938 295.862 56.6709 294.926 56.6709ZM315.407 60.4465C317.277 60.4465 318.524 60.2733 320.187 59.8923L319.806 56.3245C318.732 56.5324 317.381 56.6709 316.272 56.6709C312.705 56.6709 311.285 54.9736 311.285 51.4751C311.285 49.7431 311.596 48.4269 312.428 47.5263C313.155 46.7642 314.333 46.3139 315.857 46.3139C317.277 46.3139 318.732 46.5217 319.771 46.7988L320.083 43.1271C318.455 42.6768 316.654 42.5036 315.095 42.5036C312.289 42.5036 309.83 43.4042 308.306 45.0323C306.781 46.6949 306.123 49.0157 306.123 51.8561C306.123 53.7266 306.574 55.6317 307.509 57.0519C309.275 59.7884 312.497 60.4465 315.407 60.4465ZM325.483 40.1482H325.725C327.422 40.1482 328.323 39.49 328.323 37.7927V37.3424C328.323 35.6451 327.422 34.9524 325.725 34.9524H325.483C323.785 34.9524 322.885 35.6451 322.885 37.3424V37.7927C322.885 39.49 323.785 40.1482 325.483 40.1482ZM323.127 59.9616H328.081V42.9886H323.127V59.9616ZM337.418 40.5985L344.449 35.853L342.025 32.5623L335.686 38.4509L337.418 40.5985ZM340.085 60.4465C345.973 60.4465 348.71 56.9134 348.71 51.4751C348.71 46.0368 345.973 42.5036 340.085 42.5036C334.196 42.5036 331.46 46.0368 331.46 51.4751C331.46 56.9134 334.196 60.4465 340.085 60.4465ZM340.085 56.6709C337.591 56.6709 336.621 54.9736 336.621 51.4751C336.621 47.9766 337.591 46.2793 340.085 46.2793C342.579 46.2793 343.549 47.9766 343.549 51.4751C343.549 54.9736 342.579 56.6709 340.085 56.6709ZM352.013 59.9616H356.966V47.1799C357.763 46.8681 359.252 46.6256 360.188 46.6256C361.192 46.6256 361.885 46.7642 362.335 47.1799C362.682 47.5263 362.855 48.0112 362.855 48.8772V59.9616H367.808V48.2883C367.808 46.3139 367.393 44.8244 366.353 43.8199C365.418 42.8847 363.756 42.5036 362.266 42.5036C360.465 42.5036 358.283 42.9886 356.412 44.2009L356.308 42.9886H352.013V59.9616Z" fill="white"/>
<path d="M112.885 143.221L113.151 144.086L113.79 143.89V143.221H112.885ZM112.885 111.408H113.79V110.504H112.885V111.408ZM90.0052 111.408V110.504H89.1005V111.408H90.0052ZM90.0052 121.618H89.1005V122.522H90.0052V121.618ZM98.756 121.618H99.6607V120.713H98.756V121.618ZM98.756 134.744L98.9047 135.636L99.6607 135.51V134.744H98.756ZM79.1577 130.369L78.4216 130.894L78.4216 130.894L79.1577 130.369ZM108.054 95.0006L107.805 95.8704L108.771 96.1464L108.945 95.1569L108.054 95.0006ZM109.877 84.6089L110.768 84.7653L110.891 84.0616L110.236 83.7784L109.877 84.6089ZM90.6432 147.317C97.5619 147.317 107.132 145.938 113.151 144.086L112.619 142.357C106.788 144.151 97.3978 145.507 90.6432 145.507V147.317ZM113.79 143.221V111.408H111.98V143.221H113.79ZM112.885 110.504H90.0052V112.313H112.885V110.504ZM89.1005 111.408V121.618H90.9098V111.408H89.1005ZM90.0052 122.522H98.756V120.713H90.0052V122.522ZM97.8514 121.618V134.744H99.6607V121.618H97.8514ZM98.6073 133.852C96.4655 134.209 93.416 134.477 91.1902 134.477V136.287C93.5221 136.287 96.6711 136.009 98.9047 135.636L98.6073 133.852ZM91.1902 134.477C85.3706 134.477 81.9541 132.727 79.8939 129.843L78.4216 130.894C80.9191 134.391 84.9773 136.287 91.1902 136.287V134.477ZM79.8939 129.843C77.3352 126.261 76.4162 120.77 76.4162 113.778H74.6069C74.6069 120.825 75.511 126.82 78.4216 130.894L79.8939 129.843ZM76.4162 113.778C76.4162 107.076 77.7031 102.057 80.3865 98.7241C83.0376 95.4313 87.1827 93.6264 93.2867 93.6264V91.817C86.8114 91.817 82.0689 93.7494 78.9772 97.5895C75.9179 101.389 74.6069 106.899 74.6069 113.778H76.4162ZM93.2867 93.6264C98.1 93.6264 103.391 94.6093 107.805 95.8704L108.302 94.1307C103.783 92.8395 98.3182 91.817 93.2867 91.817V93.6264ZM108.945 95.1569L110.768 84.7653L108.986 84.4526L107.163 94.8442L108.945 95.1569ZM110.236 83.7784C106.076 81.9823 98.5607 80.6962 92.284 80.6962V82.5055C98.4044 82.5055 105.656 83.7716 109.518 85.4395L110.236 83.7784ZM92.284 80.6962C81.4703 80.6962 73.319 84.0674 67.8807 90.0388C62.455 95.9965 59.8398 104.422 59.8398 114.325H61.6491C61.6491 104.722 64.1842 96.7849 69.2185 91.2571C74.2402 85.743 81.8587 82.5055 92.284 82.5055V80.6962ZM59.8398 114.325C59.8398 124.303 61.7429 132.582 66.6276 138.37C71.5394 144.19 79.3131 147.317 90.6432 147.317V145.507C79.6405 145.507 72.4648 142.481 68.0104 137.203C63.5289 131.893 61.6491 124.128 61.6491 114.325H59.8398ZM124.544 145.136H123.639V146.04H124.544V145.136ZM138.764 145.136V146.04H139.668V145.136H138.764ZM138.764 122.529V121.625H137.859V122.529H138.764ZM146.603 122.529L147.41 122.12L147.158 121.625H146.603V122.529ZM158.089 145.136L157.282 145.545L157.533 146.04H158.089V145.136ZM174.132 145.136V146.04H175.662L174.924 144.7L174.132 145.136ZM160.641 120.615L160.258 119.796L159.383 120.205L159.848 121.051L160.641 120.615ZM166.019 87.7993L166.64 87.1411L166.636 87.138L166.019 87.7993ZM124.544 82.7858V81.8812H123.639V82.7858H124.544ZM138.764 112.229H137.859V113.133H138.764V112.229ZM138.764 93.0863V92.1817H137.859V93.0863H138.764ZM154.625 95.3652L155.264 94.7255L155.256 94.7173L155.248 94.7093L154.625 95.3652ZM124.544 146.04H138.764V144.231H124.544V146.04ZM139.668 145.136V122.529H137.859V145.136H139.668ZM138.764 123.434H146.603V121.625H138.764V123.434ZM145.796 122.939L157.282 145.545L158.895 144.726L147.41 122.12L145.796 122.939ZM158.089 146.04H174.132V144.231H158.089V146.04ZM174.924 144.7L161.433 120.179L159.848 121.051L173.339 145.572L174.924 144.7ZM161.024 121.435C168.431 117.972 172.119 110.855 172.119 102.111H170.31C170.31 110.321 166.888 116.695 160.258 119.796L161.024 121.435ZM172.119 102.111C172.119 95.362 170.053 90.3594 166.64 87.1411L165.398 88.4576C168.366 91.2555 170.31 95.733 170.31 102.111H172.119ZM166.636 87.138C162.257 83.051 156.006 81.8812 145.965 81.8812V83.6905C155.978 83.6905 161.577 84.8907 165.402 88.4607L166.636 87.138ZM145.965 81.8812H124.544V83.6905H145.965V81.8812ZM123.639 82.7858V145.136H125.448V82.7858H123.639ZM139.668 112.229V93.0863H137.859V112.229H139.668ZM138.764 93.991H145.145V92.1817H138.764V93.991ZM145.145 93.991C149.805 93.991 152.465 94.5614 154.002 96.0211L155.248 94.7093C153.138 92.7052 149.782 92.1817 145.145 92.1817V93.991ZM153.985 96.0049C155.203 97.2227 155.908 99.2189 155.908 102.293H157.717C157.717 98.9862 156.963 96.4246 155.264 94.7255L153.985 96.0049ZM155.908 102.293C155.908 105.661 155.103 108.06 153.583 109.352L154.755 110.73C156.881 108.923 157.717 105.852 157.717 102.293H155.908ZM153.583 109.352C152.018 110.682 149.749 111.324 145.053 111.324V113.133C149.838 113.133 152.674 112.499 154.755 110.73L153.583 109.352ZM145.053 111.324H138.764V113.133H145.053V111.324ZM177.362 145.136L176.504 144.849L176.105 146.04H177.362V145.136ZM190.944 145.136V146.04H191.612L191.809 145.402L190.944 145.136ZM195.775 129.457V128.552H195.107L194.911 129.191L195.775 129.457ZM216.012 129.457L216.87 129.173L216.665 128.552H216.012V129.457ZM221.208 145.136L220.349 145.42L220.554 146.04H221.208V145.136ZM236.43 145.136V146.04H237.719L237.281 144.828L236.43 145.136ZM213.915 82.7858L214.766 82.4786L214.55 81.8812H213.915V82.7858ZM198.237 82.7858V81.8812H197.585L197.379 82.4986L198.237 82.7858ZM199.057 119.157L198.193 118.888L197.828 120.061H199.057V119.157ZM205.529 98.3733V97.4686H204.863L204.665 98.1043L205.529 98.3733ZM205.711 98.3733L206.571 98.0906L206.366 97.4686H205.711V98.3733ZM212.548 119.157V120.061H213.798L213.407 118.874L212.548 119.157ZM177.362 146.04H190.944V144.231H177.362V146.04ZM191.809 145.402L196.64 129.723L194.911 129.191L190.08 144.869L191.809 145.402ZM195.775 130.362H216.012V128.552H195.775V130.362ZM215.153 129.742L220.349 145.42L222.066 144.851L216.87 129.173L215.153 129.742ZM221.208 146.04H236.43V144.231H221.208V146.04ZM237.281 144.828L214.766 82.4786L213.064 83.0931L235.579 145.443L237.281 144.828ZM213.915 81.8812H198.237V83.6905H213.915V81.8812ZM197.379 82.4986L176.504 144.849L178.22 145.423L199.094 83.073L197.379 82.4986ZM199.921 119.426L206.393 98.6423L204.665 98.1043L198.193 118.888L199.921 119.426ZM205.529 99.278H205.711V97.4686H205.529V99.278ZM204.852 98.656L211.688 119.439L213.407 118.874L206.571 98.0906L204.852 98.656ZM212.548 118.252H199.057V120.061H212.548V118.252ZM252.966 145.136H252.061V146.04H252.966V145.136ZM267.186 145.136V146.04H268.091V145.136H267.186ZM267.186 93.0863V92.1817H266.281V93.0863H267.186ZM286.055 93.0863V93.991H286.869L286.955 93.1819L286.055 93.0863ZM287.149 82.7858L288.048 82.8814L288.155 81.8812H287.149V82.7858ZM233.641 82.7858V81.8812H232.736V82.7858H233.641ZM233.641 93.0863H232.736V93.991H233.641V93.0863ZM252.966 93.0863H253.87V92.1817H252.966V93.0863ZM252.966 146.04H267.186V144.231H252.966V146.04ZM268.091 145.136V93.0863H266.281V145.136H268.091ZM267.186 93.991H286.055V92.1817H267.186V93.991ZM286.955 93.1819L288.048 82.8814L286.249 82.6903L285.155 92.9908L286.955 93.1819ZM287.149 81.8812H233.641V83.6905H287.149V81.8812ZM232.736 82.7858V93.0863H234.546V82.7858H232.736ZM233.641 93.991H252.966V92.1817H233.641V93.991ZM252.061 93.0863V145.136H253.87V93.0863H252.061ZM294.751 145.136H293.846V146.04H294.751V145.136ZM308.971 145.136V146.04H309.876V145.136H308.971ZM308.971 82.7858H309.876V81.8812H308.971V82.7858ZM294.751 82.7858V81.8812H293.846V82.7858H294.751ZM294.751 146.04H308.971V144.231H294.751V146.04ZM309.876 145.136V82.7858H308.066V145.136H309.876ZM308.971 81.8812H294.751V83.6905H308.971V81.8812ZM293.846 82.7858V145.136H295.656V82.7858H293.846ZM360.256 140.487L360.875 141.147L360.878 141.145L360.256 140.487ZM358.707 94.7271L358.473 95.601L359.398 95.8489L359.593 94.9104L358.707 94.7271ZM360.894 84.1532L361.78 84.3364L361.942 83.5536L361.185 83.2965L360.894 84.1532ZM322.518 132.374L322.817 131.52L321.837 131.177L321.631 132.195L322.518 132.374ZM320.331 143.221L319.444 143.043L319.288 143.817L320.033 144.076L320.331 143.221ZM341.023 147.317C350.075 147.317 356.266 145.468 360.875 141.147L359.638 139.827C355.496 143.709 349.837 145.507 341.023 145.507V147.317ZM360.878 141.145C364.361 137.854 366.357 133.139 366.357 127.361H364.548C364.548 132.703 362.715 136.921 359.635 139.829L360.878 141.145ZM366.357 127.361C366.357 121.051 364.283 116.766 361.104 113.753C357.964 110.777 353.82 109.112 349.814 107.867C347.814 107.245 345.792 106.712 343.954 106.187C342.094 105.655 340.405 105.127 338.974 104.497C337.54 103.866 336.431 103.162 335.685 102.315C334.96 101.492 334.544 100.499 334.544 99.1937H332.734C332.734 100.942 333.313 102.359 334.327 103.511C335.321 104.638 336.698 105.473 338.246 106.153C339.797 106.836 341.588 107.392 343.456 107.926C345.346 108.466 347.301 108.98 349.277 109.595C353.225 110.822 357.034 112.388 359.859 115.066C362.645 117.707 364.548 121.501 364.548 127.361H366.357ZM334.544 99.1937C334.544 97.4404 335.081 96.0823 336.368 95.1217C337.711 94.1194 340.006 93.4441 343.757 93.4441V91.6347C339.851 91.6347 337.088 92.3267 335.286 93.6717C333.428 95.0583 332.734 97.0273 332.734 99.1937H334.544ZM343.757 93.4441C348.036 93.4441 353.425 94.249 358.473 95.601L358.941 93.8533C353.779 92.4706 348.229 91.6347 343.757 91.6347V93.4441ZM359.593 94.9104L361.78 84.3364L360.009 83.9699L357.821 94.5438L359.593 94.9104ZM361.185 83.2965C356.238 81.6165 349.573 80.6962 343.484 80.6962V82.5055C349.427 82.5055 355.888 83.4083 360.603 85.0098L361.185 83.2965ZM343.484 80.6962C336.723 80.6962 330.701 82.1055 326.344 85.2297C321.943 88.3851 319.335 93.2255 319.335 99.8318H321.144C321.144 93.7676 323.504 89.4924 327.398 86.7001C331.336 83.8764 336.936 82.5055 343.484 82.5055V80.6962ZM319.335 99.8318C319.335 106.185 321.407 110.498 324.587 113.521C327.728 116.508 331.875 118.161 335.884 119.373C337.889 119.979 339.907 120.488 341.75 120.986C343.612 121.49 345.303 121.984 346.737 122.575C348.175 123.168 349.282 123.829 350.024 124.625C350.741 125.394 351.148 126.318 351.148 127.543H352.957C352.957 125.85 352.37 124.487 351.347 123.391C350.35 122.321 348.97 121.539 347.426 120.902C345.877 120.264 344.089 119.744 342.223 119.24C340.339 118.73 338.379 118.237 336.408 117.641C332.464 116.449 328.657 114.895 325.834 112.21C323.048 109.562 321.144 105.739 321.144 99.8318H319.335ZM351.148 127.543C351.148 130.173 350.274 131.829 348.566 132.894C346.762 134.019 343.902 134.569 339.747 134.569V136.378C343.978 136.378 347.27 135.834 349.523 134.429C351.871 132.965 352.957 130.656 352.957 127.543H351.148ZM339.747 134.569C335.297 134.569 328.197 133.403 322.817 131.52L322.219 133.228C327.779 135.174 335.081 136.378 339.747 136.378V134.569ZM321.631 132.195L319.444 143.043L321.217 143.4L323.405 132.553L321.631 132.195ZM320.033 144.076C326.434 146.302 333.009 147.317 341.023 147.317V145.507C333.175 145.507 326.806 144.516 320.628 142.367L320.033 144.076Z" fill="#019DF4"/>
<path d="M90.6432 139.175C97.4799 139.175 106.96 137.807 112.885 135.984V104.171H90.0052V114.38H98.756V127.507C96.5683 127.871 93.469 128.145 91.1902 128.145C85.174 128.145 81.4366 126.322 79.1577 123.131C76.4231 119.303 75.5115 113.56 75.5115 106.541C75.5115 92.9591 80.7074 85.4844 93.2867 85.4844C98.2091 85.4844 103.587 86.4871 108.054 87.7633L109.877 77.3716C105.866 75.6397 98.4826 74.3635 92.284 74.3635C71.045 74.3635 60.7445 87.581 60.7445 107.088C60.7445 126.869 68.3103 139.175 90.6432 139.175ZM124.544 137.898H138.764V115.292H146.603L158.089 137.898H174.132L160.641 113.378C167.66 110.096 171.215 103.351 171.215 94.8733C171.215 88.3102 169.209 83.5701 166.019 80.562C161.917 76.7335 155.992 75.5485 145.965 75.5485H124.544V137.898ZM138.764 104.992V85.849H145.145C149.793 85.849 152.802 86.3959 154.625 88.1279C156.083 89.5864 156.812 91.8652 156.812 95.0557C156.812 98.5195 155.992 101.254 154.169 102.804C152.346 104.353 149.793 104.992 145.053 104.992H138.764ZM177.362 137.898H190.944L195.775 122.22H216.012L221.208 137.898H236.43L213.915 75.5485H198.237L177.362 137.898ZM199.057 111.919L205.529 91.136H205.711L212.548 111.919H199.057ZM252.966 137.898H267.186V85.849H286.055L287.149 75.5485H233.641V85.849H252.966V137.898ZM294.751 137.898H308.971V75.5485H294.751V137.898ZM341.023 139.175C349.956 139.175 355.881 137.351 360.256 133.25C363.538 130.15 365.452 125.684 365.452 120.123C365.452 95.7849 333.639 104.171 333.639 91.9564C333.639 88.0367 336.1 85.3021 343.757 85.3021C348.133 85.3021 353.602 86.1225 358.707 87.4898L360.894 76.9158C356.063 75.2751 349.5 74.3635 343.484 74.3635C330.175 74.3635 320.239 79.924 320.239 92.5945C320.239 117.115 352.052 108.638 352.052 120.306C352.052 126.048 348.133 128.236 339.747 128.236C335.189 128.236 327.988 127.051 322.518 125.137L320.331 135.984C326.62 138.172 333.092 139.175 341.023 139.175Z" fill="#019DF4"/>
<path d="M61.0074 179.257H63.2789V172.749H66.5204C68.6133 172.749 70.0426 172.238 70.987 171.319C71.9569 170.35 72.4163 168.946 72.4163 167.083C72.4163 165.475 72.0079 164.147 71.1401 163.28C70.1447 162.259 68.5112 161.799 66.0099 161.799H61.0074V179.257ZM63.2789 170.911V163.586H65.8313C67.5158 163.586 68.5878 163.867 69.2514 164.53C69.8129 165.092 70.0682 165.934 70.0682 167.134C70.0682 168.512 69.7364 169.456 69.1238 170.043C68.4347 170.681 67.3372 170.911 65.7547 170.911H63.2789ZM77.8586 179.615C79.3644 179.615 80.6916 179.13 81.7892 178.415L81.9168 179.257H83.6268V170.937C83.6268 169.303 83.3206 168.308 82.5293 167.542C81.7381 166.802 80.4875 166.393 78.6243 166.393C77.4247 166.393 75.9954 166.547 74.8213 166.827L74.8978 168.461C76.123 168.257 77.3226 168.155 78.2669 168.155C79.5176 168.155 80.3343 168.384 80.8703 168.895C81.3297 169.354 81.5084 169.992 81.5084 171.013V171.804H78.905C77.0929 171.804 75.6125 172.136 74.6681 173.004C74.0045 173.617 73.5962 174.535 73.5962 175.709C73.5962 176.884 73.979 177.777 74.5916 178.415C75.3573 179.206 76.5058 179.615 77.8586 179.615ZM78.318 177.904C76.6845 177.904 75.7401 177.164 75.7401 175.658C75.7401 174.893 75.9954 174.357 76.4293 173.999C77.0163 173.54 77.9096 173.361 79.2113 173.361H81.5084V177.088C80.5896 177.547 79.3389 177.904 78.318 177.904ZM87.1461 179.257H89.2645V169.15C90.1578 168.588 91.2043 168.308 92.3018 168.308C92.6591 168.308 93.1185 168.333 93.3993 168.359V166.47C93.1185 166.419 92.8122 166.393 92.5825 166.393C91.485 166.393 90.2344 166.827 89.0348 167.823L88.9072 166.751H87.1461V179.257ZM98.6212 179.615C100.127 179.615 101.454 179.13 102.552 178.415L102.679 179.257H104.389V170.937C104.389 169.303 104.083 168.308 103.292 167.542C102.501 166.802 101.25 166.393 99.3869 166.393C98.1873 166.393 96.758 166.547 95.5839 166.827L95.6605 168.461C96.8856 168.257 98.0852 168.155 99.0296 168.155C100.28 168.155 101.097 168.384 101.633 168.895C102.092 169.354 102.271 169.992 102.271 171.013V171.804H99.6677C97.8555 171.804 96.3751 172.136 95.4308 173.004C94.7672 173.617 94.3588 174.535 94.3588 175.709C94.3588 176.884 94.7416 177.777 95.3542 178.415C96.1199 179.206 97.2685 179.615 98.6212 179.615ZM99.0806 177.904C97.4471 177.904 96.5028 177.164 96.5028 175.658C96.5028 174.893 96.758 174.357 97.1919 173.999C97.7789 173.54 98.6722 173.361 99.9739 173.361H102.271V177.088C101.352 177.547 100.102 177.904 99.0806 177.904ZM117.457 179.615C118.376 179.615 119.371 179.461 120.035 179.283L119.933 177.726C119.32 177.853 118.478 177.93 118.044 177.93C117.151 177.93 116.717 177.751 116.436 177.445C116.079 177.062 116.002 176.45 116.002 175.25V168.308H119.295V166.751H116.002V163.433C115.339 163.433 114.496 163.611 113.884 163.816V166.776L111.612 167.108V168.308H113.884V175.531C113.884 177.088 114.062 177.93 114.675 178.645C115.236 179.283 116.232 179.615 117.457 179.615ZM126.575 179.615C128.03 179.615 129.536 179.13 130.837 178.338L130.939 179.257H132.7V166.751H130.582V176.935C129.561 177.42 128.259 177.751 127.136 177.751C126.218 177.751 125.554 177.547 125.12 177.113C124.686 176.679 124.507 176.067 124.507 174.995V166.751H122.389V175.25C122.389 176.807 122.746 177.828 123.435 178.517C124.15 179.257 125.222 179.615 126.575 179.615ZM141.483 185H143.601V178.67C144.52 179.257 145.873 179.615 147.175 179.615C150.161 179.615 152.05 177.649 152.05 172.953C152.05 168.971 150.493 166.393 147.251 166.393C146.103 166.393 144.648 166.802 143.346 167.67L143.244 166.751H141.483V185ZM146.639 177.853C145.567 177.853 144.341 177.522 143.601 177.088V169.048C144.571 168.537 145.822 168.206 146.792 168.206C148.885 168.206 149.829 169.737 149.829 172.927C149.829 176.501 148.91 177.853 146.639 177.853ZM154.993 179.257H157.111V161.008H154.993V179.257ZM164.299 179.615C165.805 179.615 167.132 179.13 168.23 178.415L168.357 179.257H170.067V170.937C170.067 169.303 169.761 168.308 168.97 167.542C168.178 166.802 166.928 166.393 165.065 166.393C163.865 166.393 162.436 166.547 161.262 166.827L161.338 168.461C162.563 168.257 163.763 168.155 164.707 168.155C165.958 168.155 166.775 168.384 167.311 168.895C167.77 169.354 167.949 169.992 167.949 171.013V171.804H165.345C163.533 171.804 162.053 172.136 161.109 173.004C160.445 173.617 160.037 174.535 160.037 175.709C160.037 176.884 160.419 177.777 161.032 178.415C161.798 179.206 162.946 179.615 164.299 179.615ZM164.758 177.904C163.125 177.904 162.181 177.164 162.181 175.658C162.181 174.893 162.436 174.357 162.87 173.999C163.457 173.54 164.35 173.361 165.652 173.361H167.949V177.088C167.03 177.547 165.779 177.904 164.758 177.904ZM173.586 179.257H175.705V169.073C176.726 168.588 178.079 168.257 179.202 168.257C180.12 168.257 180.784 168.461 181.218 168.895C181.652 169.329 181.83 169.941 181.83 171.013V179.257H183.949V170.758C183.949 169.201 183.592 168.18 182.902 167.491C182.188 166.751 181.116 166.393 179.763 166.393C178.308 166.393 176.751 166.878 175.45 167.67L175.348 166.751H173.586V179.257ZM193.087 179.257H195.359V161.799H193.087V179.257ZM203.699 179.615C204.873 179.615 206.379 179.155 207.399 178.492L207.553 179.257H209.288V161.008H207.17V167.287C206.174 166.725 204.924 166.393 203.852 166.393C200.585 166.393 198.671 168.946 198.671 173.081C198.671 177.42 200.508 179.615 203.699 179.615ZM204.286 177.879C202.04 177.879 200.891 176.399 200.891 173.106C200.891 170.171 201.733 168.18 204.286 168.18C205.128 168.18 206.251 168.435 207.17 168.793V177.139C206.276 177.573 205.179 177.879 204.286 177.879ZM218.305 179.615C219.453 179.615 220.934 179.436 222.006 179.13L221.802 177.547C220.832 177.751 219.607 177.879 218.713 177.879C217.131 177.879 216.187 177.547 215.523 176.935C214.783 176.245 214.425 175.122 214.425 173.744H222.491C222.695 173.744 222.797 173.668 222.797 173.463V172.978C222.797 168.869 221.113 166.393 217.616 166.393C214.425 166.393 212.205 168.563 212.205 173.03C212.205 175.276 212.715 176.986 213.838 178.109C214.859 179.13 216.365 179.615 218.305 179.615ZM214.425 172.187C214.451 169.66 215.497 168.104 217.616 168.104C219.709 168.104 220.628 169.788 220.704 172.187H214.425ZM229.378 179.615C230.884 179.615 232.212 179.13 233.309 178.415L233.437 179.257H235.147V170.937C235.147 169.303 234.84 168.308 234.049 167.542C233.258 166.802 232.007 166.393 230.144 166.393C228.945 166.393 227.515 166.547 226.341 166.827L226.418 168.461C227.643 168.257 228.842 168.155 229.787 168.155C231.038 168.155 231.854 168.384 232.39 168.895C232.85 169.354 233.028 169.992 233.028 171.013V171.804H230.425C228.613 171.804 227.132 172.136 226.188 173.004C225.524 173.617 225.116 174.535 225.116 175.709C225.116 176.884 225.499 177.777 226.111 178.415C226.877 179.206 228.026 179.615 229.378 179.615ZM229.838 177.904C228.204 177.904 227.26 177.164 227.26 175.658C227.26 174.893 227.515 174.357 227.949 173.999C228.536 173.54 229.43 173.361 230.731 173.361H233.028V177.088C232.109 177.547 230.859 177.904 229.838 177.904ZM238.692 179.257H240.81V161.008H238.692V179.257ZM253.973 179.615C255.147 179.615 256.653 179.155 257.673 178.492L257.827 179.257H259.562V161.008H257.444V167.287C256.448 166.725 255.198 166.393 254.126 166.393C250.859 166.393 248.945 168.946 248.945 173.081C248.945 177.42 250.782 179.615 253.973 179.615ZM254.56 177.879C252.314 177.879 251.165 176.399 251.165 173.106C251.165 170.171 252.007 168.18 254.56 168.18C255.402 168.18 256.525 168.435 257.444 168.793V177.139C256.55 177.573 255.453 177.879 254.56 177.879ZM268.579 179.615C269.727 179.615 271.208 179.436 272.28 179.13L272.076 177.547C271.106 177.751 269.881 177.879 268.987 177.879C267.405 177.879 266.461 177.547 265.797 176.935C265.057 176.245 264.699 175.122 264.699 173.744H272.765C272.969 173.744 273.071 173.668 273.071 173.463V172.978C273.071 168.869 271.387 166.393 267.89 166.393C264.699 166.393 262.479 168.563 262.479 173.03C262.479 175.276 262.989 176.986 264.112 178.109C265.133 179.13 266.639 179.615 268.579 179.615ZM264.699 172.187C264.725 169.66 265.771 168.104 267.89 168.104C269.983 168.104 270.902 169.788 270.978 172.187H264.699ZM281.671 179.257H283.943V161.799H281.671V179.257ZM287.918 179.257H290.036V169.073C291.057 168.588 292.41 168.257 293.533 168.257C294.452 168.257 295.116 168.461 295.55 168.895C295.983 169.329 296.162 169.941 296.162 171.013V179.257H298.281V170.758C298.281 169.201 297.923 168.18 297.234 167.491C296.519 166.751 295.447 166.393 294.095 166.393C292.64 166.393 291.083 166.878 289.781 167.67L289.679 166.751H287.918V179.257ZM306.14 179.615C307.059 179.615 308.055 179.461 308.718 179.283L308.616 177.726C308.004 177.853 307.161 177.93 306.727 177.93C305.834 177.93 305.4 177.751 305.119 177.445C304.762 177.062 304.685 176.45 304.685 175.25V168.308H307.978V166.751H304.685V163.433C304.022 163.433 303.18 163.611 302.567 163.816V166.776L300.295 167.108V168.308H302.567V175.531C302.567 177.088 302.746 177.93 303.358 178.645C303.92 179.283 304.915 179.615 306.14 179.615ZM316.56 179.615C317.708 179.615 319.189 179.436 320.261 179.13L320.057 177.547C319.087 177.751 317.862 177.879 316.968 177.879C315.386 177.879 314.441 177.547 313.778 176.935C313.038 176.245 312.68 175.122 312.68 173.744H320.746C320.95 173.744 321.052 173.668 321.052 173.463V172.978C321.052 168.869 319.367 166.393 315.871 166.393C312.68 166.393 310.46 168.563 310.46 173.03C310.46 175.276 310.97 176.986 312.093 178.109C313.114 179.13 314.62 179.615 316.56 179.615ZM312.68 172.187C312.706 169.66 313.752 168.104 315.871 168.104C317.964 168.104 318.882 169.788 318.959 172.187H312.68ZM324.035 179.257H326.153V169.15C327.046 168.588 328.093 168.308 329.19 168.308C329.548 168.308 330.007 168.333 330.288 168.359V166.47C330.007 166.419 329.701 166.393 329.471 166.393C328.374 166.393 327.123 166.827 325.923 167.823L325.796 166.751H324.035V179.257ZM332.584 179.257H334.702V169.073C335.723 168.588 337.076 168.257 338.199 168.257C339.118 168.257 339.781 168.461 340.215 168.895C340.649 169.329 340.828 169.941 340.828 171.013V179.257H342.946V170.758C342.946 169.201 342.589 168.18 341.9 167.491C341.185 166.751 340.113 166.393 338.761 166.393C337.306 166.393 335.749 166.878 334.447 167.67L334.345 166.751H332.584V179.257ZM351.904 179.615C353.052 179.615 354.533 179.436 355.605 179.13L355.4 177.547C354.431 177.751 353.205 177.879 352.312 177.879C350.73 177.879 349.785 177.547 349.122 176.935C348.381 176.245 348.024 175.122 348.024 173.744H356.09C356.294 173.744 356.396 173.668 356.396 173.463V172.978C356.396 168.869 354.711 166.393 351.215 166.393C348.024 166.393 345.804 168.563 345.804 173.03C345.804 175.276 346.314 176.986 347.437 178.109C348.458 179.13 349.964 179.615 351.904 179.615ZM348.024 172.187C348.05 169.66 349.096 168.104 351.215 168.104C353.307 168.104 354.226 169.788 354.303 172.187H348.024ZM363.717 179.615C364.636 179.615 365.632 179.461 366.295 179.283L366.193 177.726C365.581 177.853 364.738 177.93 364.304 177.93C363.411 177.93 362.977 177.751 362.696 177.445C362.339 177.062 362.263 176.45 362.263 175.25V168.308H365.555V166.751H362.263V163.433C361.599 163.433 360.757 163.611 360.144 163.816V166.776L357.873 167.108V168.308H360.144V175.531C360.144 177.088 360.323 177.93 360.935 178.645C361.497 179.283 362.492 179.615 363.717 179.615Z" fill="white"/>
<path d="M30.416 65.9322C30.9616 65.4484 31.6507 64.8698 32.3678 64.3963L32.5497 64.235C33.2285 63.8281 33.8407 63.3827 34.481 63.0423C35.2263 62.6738 36.0101 62.2387 36.717 61.9367C37.3854 61.7013 38.2358 61.3047 39.0093 61.0411L39.5727 60.8339C40.1362 60.6267 40.8046 60.3913 41.3681 60.184C44.3851 59.2631 47.5531 58.6956 50.8054 58.4431C51.6352 58.3896 52.4649 58.3361 53.1896 58.3107C53.7428 58.275 54.2575 58.3059 54.7722 58.3368C54.8772 58.3087 54.9438 58.3471 55.0488 58.319L51.5013 60.6201C48.5941 62.5807 46.2222 64.2292 44.0884 65.9264C43.7247 66.2489 43.2559 66.5996 42.8922 66.9221L42.5284 67.2447L42.1647 67.5672C41.7625 67.9564 41.3988 68.2789 40.93 68.6296L40.8916 68.6962C40.6713 68.924 40.451 69.1519 40.1641 69.3413C39.9438 69.5691 39.7235 69.797 39.3982 70.053L39.3597 70.1195L39.3213 70.1861C38.8423 70.7084 38.4401 71.0975 37.9713 71.4482L37.646 71.7042C37.2823 72.0267 37.0235 72.3211 36.6982 72.5771L36.5163 72.7384C36.1526 73.0609 35.7504 73.4501 35.4251 73.706L35.3867 73.7726L35.3482 73.8392C34.9845 74.1617 34.6207 74.4843 34.0854 74.7966L34.047 74.8631L34.0086 74.9297C33.5398 75.2804 33.2145 75.5364 32.8226 75.7539L31.5804 76.3681C30.6916 76.8313 29.5853 76.9027 28.643 76.5362C28.4049 76.4875 28.2052 76.3722 28.0055 76.2568C26.4743 75.3729 25.7963 73.4725 26.3475 71.7492C26.5987 71.0066 26.9549 70.2359 27.3777 69.5037C27.9054 68.7432 28.3948 68.0494 28.8072 67.4887C29.3529 67.0049 29.8704 66.416 30.416 65.9322Z" fill="#E63780"/>
<path d="M52.2368 25.9849C53.1221 28.4487 54.2633 31.2379 55.7272 34.3907L57.5313 38.184C57.4648 38.1455 57.3316 38.0687 57.2651 38.0302C56.7991 37.7612 56.3997 37.5306 55.9337 37.2616C55.3064 36.8106 54.5741 36.3879 53.9469 35.9369C51.3046 34.0564 48.8546 31.843 46.863 29.4506C46.4458 28.9434 46.0285 28.4362 45.6778 27.9674L45.3271 27.4987C44.8817 26.8865 44.4363 26.2743 43.8962 25.5187C43.4227 24.8015 42.9492 24.0843 42.5422 23.4055C42.2018 22.7652 41.8614 22.1249 41.4929 21.3796L41.4366 21.1695C41.1066 20.3576 40.8149 19.4792 40.5795 18.8107C40.3826 18.0757 40.1856 17.3406 40.0374 16.3675C39.9454 15.6043 39.8535 14.8411 39.8768 13.8783C39.9283 13.0204 40.0464 12.2009 40.1926 11.4865C40.426 10.4674 41.0306 9.57381 41.9578 9.04401C43.1335 8.39136 44.5829 8.34061 45.7812 9.03243C46.3138 9.3399 46.7694 9.78052 47.1483 10.3543L47.8675 11.5684C48.085 11.9602 48.3026 12.3521 48.4433 12.8771L48.4714 12.9821L48.4995 13.0871C48.7452 13.584 48.8859 14.1091 49.065 14.5675L49.0931 14.6725L49.1213 14.7775C49.3004 15.236 49.4129 15.656 49.5536 16.181L49.6099 16.391C49.7224 16.811 49.835 17.2311 49.9475 17.6511L50.0601 18.0711C50.2007 18.5961 50.3414 19.1211 50.5384 19.8562L50.5665 19.9612L50.5947 20.0662C50.6791 20.3812 50.7635 20.6962 50.8479 21.0112C50.9323 21.3262 51.0167 21.6412 51.1011 21.9563L51.1292 22.0613C51.2699 22.5863 51.449 23.0447 51.5897 23.5698L51.7022 23.9898L51.9095 24.5532C51.8889 24.8964 52.068 25.3548 52.2368 25.9849Z" fill="#E63780"/>
<path d="M25.6535 36.8212C28.6856 36.7966 31.5893 37.763 33.7505 38.4781C36.5107 39.5392 39.2223 40.8384 41.9338 42.1377C44.2075 43.2729 46.5759 44.5515 49.039 45.9736L49.9044 46.4732C50.8364 47.0113 51.7684 47.5494 52.5954 48.1156C51.5275 48.1204 50.4596 48.1251 49.4967 48.1018C46.1599 48.0393 43.3379 48.0076 40.4877 47.871C39.6963 47.8579 38.8385 47.8064 38.0472 47.7934C35.9498 47.7364 33.7859 47.6409 31.727 47.5173C29.1253 47.2578 26.4288 46.8549 23.8401 45.8042C23.707 45.7273 23.5073 45.612 23.3741 45.5351C21.9762 44.728 21.106 43.1605 21.0655 41.5394C21.0484 38.9555 23.1362 36.8767 25.6535 36.8212Z" fill="#E63780"/>
<path d="M348.288 261.613C348.288 265.498 345.139 268.647 341.255 268.647L215.25 268.647L215.25 206.01L341.255 206.01C345.139 206.01 348.288 209.159 348.288 213.043L348.288 261.613Z" fill="#FBC7DE"/>
<path d="M232.982 248.537H243.316V246.119H236.774L239.595 243.038C242.154 240.242 243.055 238.701 243.055 236.687C243.055 235.336 242.652 234.293 241.894 233.534C240.898 232.539 239.358 232.018 237.035 232.018C235.708 232.018 234.215 232.231 233.267 232.468V234.98C234.286 234.791 235.518 234.672 236.443 234.672C237.604 234.672 238.41 234.862 238.907 235.288C239.334 235.644 239.547 236.165 239.547 236.852C239.547 238.203 238.789 239.27 236.988 241.45L233.836 245.29C233.148 246.119 232.888 246.783 232.888 247.778C232.888 248.039 232.911 248.347 232.982 248.537ZM252.502 248.868C257.005 248.868 258.712 246.001 258.712 240.455C258.712 234.909 257.005 232.018 252.502 232.018C247.999 232.018 246.293 234.909 246.293 240.455C246.293 246.001 247.999 248.868 252.502 248.868ZM252.502 246.143C250.582 246.143 249.824 244.934 249.824 240.455C249.824 235.976 250.582 234.506 252.502 234.506C254.422 234.506 255.18 235.976 255.18 240.455C255.18 244.934 254.422 246.143 252.502 246.143ZM266.713 248.868C271.216 248.868 272.922 246.001 272.922 240.455C272.922 234.909 271.216 232.018 266.713 232.018C262.21 232.018 260.504 234.909 260.504 240.455C260.504 246.001 262.21 248.868 266.713 248.868ZM266.713 246.143C264.793 246.143 264.035 244.934 264.035 240.455C264.035 235.976 264.793 234.506 266.713 234.506C268.633 234.506 269.391 235.976 269.391 240.455C269.391 244.934 268.633 246.143 266.713 246.143ZM275.568 248.537H278.672V239.104L282.133 244.839H284.977L288.342 239.199V248.537H291.731V232.326H288.887L283.602 241.379L278.483 232.326H275.568V248.537ZM301.332 248.868C302.777 248.868 303.82 248.442 304.626 247.518C305.479 246.546 305.929 244.768 305.929 242.683C305.929 238.18 304.128 236.592 301.498 236.592C300.384 236.592 299.104 236.9 298.298 237.374V231.591H294.909V248.537H297.705L297.871 247.802C298.843 248.442 300.123 248.868 301.332 248.868ZM300.313 246.214C299.649 246.214 298.843 245.953 298.298 245.645V239.625C298.843 239.412 299.578 239.317 300.313 239.317C301.735 239.317 302.374 239.957 302.374 242.73C302.374 245.337 301.853 246.214 300.313 246.214ZM308.171 253.869H311.56V248.015C312.437 248.56 313.622 248.868 314.665 248.868C317.295 248.868 319.191 247.233 319.191 242.659C319.191 240.502 318.717 238.654 317.627 237.587C316.964 236.947 316.016 236.592 314.854 236.592C313.432 236.592 312.2 237.113 311.204 237.777L311.11 236.924H308.171V253.869ZM313.669 246.19C312.935 246.19 312.105 246.096 311.56 245.859V239.649C312.129 239.483 313.029 239.341 313.574 239.341C315.115 239.341 315.636 240.123 315.636 242.612C315.636 245.408 315.091 246.19 313.669 246.19ZM325.201 248.868C328.685 248.868 330.439 247.47 330.439 245.053C330.439 240.242 324.087 242.114 324.087 240.147C324.087 239.483 324.751 239.199 325.96 239.199C326.908 239.199 328.33 239.388 329.538 239.72L329.799 237.232C328.543 236.805 327.097 236.592 325.936 236.592C322.452 236.592 320.888 238.18 320.888 240.336C320.888 245.148 327.216 243.133 327.216 245.195C327.216 246.024 326.41 246.261 325.13 246.261C323.874 246.261 322.262 246.001 321.385 245.716L321.125 248.229C322.049 248.56 323.826 248.868 325.201 248.868Z" fill="#922859"/>
<path d="M258.96 259.01H259.966L261.169 256.987L262.515 259.01H263.543L261.749 256.33L263.521 253.65H262.526L261.322 255.696L259.955 253.65H258.938L260.743 256.363L258.96 259.01ZM268.422 259.163C269.341 259.163 269.997 258.967 270.468 258.584C270.916 258.212 271.168 257.665 271.168 256.954C271.168 256.013 270.643 255.39 269.822 255.105C270.478 254.854 270.949 254.296 270.949 253.41C270.949 252.797 270.752 252.316 270.402 251.977C269.997 251.583 269.352 251.386 268.477 251.386C268.006 251.386 267.416 251.441 266.934 251.55V252.261C267.394 252.185 267.886 252.141 268.302 252.141C268.958 252.141 269.374 252.239 269.658 252.48C269.899 252.688 270.03 253.027 270.03 253.454C270.03 254.438 269.396 254.854 268.313 254.854H268.127V255.532H268.324C269.035 255.532 269.527 255.641 269.844 255.937C270.085 256.166 270.216 256.538 270.216 256.943C270.216 257.435 270.063 257.818 269.735 258.059C269.428 258.288 269.002 258.398 268.302 258.398C267.82 258.398 267.23 258.343 266.814 258.256V258.978C267.252 259.087 267.853 259.163 268.422 259.163ZM275.027 259.01H275.935V254.646C276.373 254.438 276.876 254.296 277.335 254.296C277.707 254.296 277.992 254.383 278.178 254.569C278.364 254.755 278.44 255.018 278.44 255.477V259.01H279.348V255.368C279.348 255.094 279.315 254.854 279.272 254.657C279.742 254.427 280.278 254.296 280.715 254.296C281.087 254.296 281.372 254.383 281.558 254.569C281.744 254.755 281.82 255.018 281.82 255.477V259.01H282.728V255.368C282.728 254.701 282.575 254.263 282.28 253.968C281.973 253.65 281.514 253.497 280.934 253.497C280.333 253.497 279.676 253.694 279.009 254.099C278.703 253.694 278.232 253.497 277.554 253.497C276.964 253.497 276.384 253.694 275.826 254.044L275.782 253.65H275.027V259.01ZM286.565 259.163C287.058 259.163 287.692 259.087 288.151 258.956L288.064 258.277C287.648 258.365 287.123 258.42 286.74 258.42C286.062 258.42 285.657 258.277 285.373 258.015C285.056 257.72 284.903 257.238 284.903 256.648H288.359C288.447 256.648 288.491 256.615 288.491 256.527V256.319C288.491 254.558 287.769 253.497 286.27 253.497C284.903 253.497 283.951 254.427 283.951 256.341C283.951 257.304 284.17 258.037 284.651 258.518C285.089 258.956 285.734 259.163 286.565 259.163ZM284.903 255.98C284.914 254.897 285.362 254.23 286.27 254.23C287.167 254.23 287.561 254.952 287.594 255.98H284.903ZM291.18 259.163C292.471 259.163 293.346 258.66 293.346 257.523C293.346 255.608 290.36 256.177 290.36 254.974C290.36 254.471 290.764 254.219 291.53 254.219C291.967 254.219 292.46 254.285 292.941 254.394L293.018 253.727C292.591 253.596 291.989 253.497 291.453 253.497C290.316 253.497 289.506 254 289.506 255.04C289.506 257.009 292.493 256.385 292.493 257.588C292.493 258.135 292.022 258.431 291.147 258.431C290.677 258.431 290.086 258.354 289.649 258.234L289.605 258.934C290.009 259.065 290.666 259.163 291.18 259.163ZM296.959 259.163C297.451 259.163 298.086 259.087 298.545 258.956L298.458 258.277C298.042 258.365 297.517 258.42 297.134 258.42C296.456 258.42 296.051 258.277 295.767 258.015C295.45 257.72 295.296 257.238 295.296 256.648H298.753C298.841 256.648 298.884 256.615 298.884 256.527V256.319C298.884 254.558 298.162 253.497 296.664 253.497C295.296 253.497 294.345 254.427 294.345 256.341C294.345 257.304 294.564 258.037 295.045 258.518C295.482 258.956 296.128 259.163 296.959 259.163ZM295.296 255.98C295.307 254.897 295.756 254.23 296.664 254.23C297.561 254.23 297.955 254.952 297.987 255.98H295.296ZM301.574 259.163C302.864 259.163 303.74 258.66 303.74 257.523C303.74 255.608 300.753 256.177 300.753 254.974C300.753 254.471 301.158 254.219 301.924 254.219C302.361 254.219 302.854 254.285 303.335 254.394L303.411 253.727C302.985 253.596 302.383 253.497 301.847 253.497C300.71 253.497 299.9 254 299.9 255.04C299.9 257.009 302.886 256.385 302.886 257.588C302.886 258.135 302.416 258.431 301.541 258.431C301.071 258.431 300.48 258.354 300.042 258.234L299.999 258.934C300.403 259.065 301.06 259.163 301.574 259.163Z" fill="#922859"/>
<path d="M274.779 226.278H278.766C280.505 226.278 281.604 225.999 282.326 225.359C282.933 224.818 283.261 224.03 283.261 222.947C283.261 221.47 282.277 220.453 280.882 220.256C281.916 219.731 282.457 218.96 282.457 217.811C282.457 216.991 282.178 216.335 281.67 215.892C281.014 215.317 280.029 215.055 278.437 215.055H274.779V226.278ZM277.338 219.518V216.909H278.273C278.963 216.909 279.356 216.991 279.602 217.237C279.816 217.45 279.914 217.762 279.914 218.172C279.914 218.632 279.799 218.96 279.586 219.173C279.307 219.436 278.913 219.518 278.208 219.518H277.338ZM277.338 224.424V221.372H278.388C279.307 221.372 279.832 221.454 280.177 221.749C280.472 221.995 280.603 222.389 280.603 222.996C280.603 223.456 280.472 223.784 280.242 224.014C279.931 224.325 279.34 224.424 278.388 224.424H277.338ZM288.575 226.508C291.365 226.508 292.661 224.834 292.661 222.258C292.661 219.682 291.365 218.008 288.575 218.008C285.786 218.008 284.49 219.682 284.49 222.258C284.49 224.834 285.786 226.508 288.575 226.508ZM288.575 224.719C287.394 224.719 286.934 223.915 286.934 222.258C286.934 220.601 287.394 219.797 288.575 219.797C289.757 219.797 290.216 220.601 290.216 222.258C290.216 223.915 289.757 224.719 288.575 224.719ZM294.225 226.278H296.572V220.223C296.949 220.076 297.655 219.961 298.098 219.961C298.574 219.961 298.902 220.026 299.115 220.223C299.279 220.387 299.361 220.617 299.361 221.027V226.278H301.707V220.748C301.707 219.813 301.511 219.108 301.018 218.632C300.575 218.189 299.788 218.008 299.082 218.008C298.229 218.008 297.195 218.238 296.309 218.812L296.26 218.238H294.225V226.278ZM307.306 226.508C310.096 226.508 311.392 224.834 311.392 222.258C311.392 219.682 310.096 218.008 307.306 218.008C304.517 218.008 303.221 219.682 303.221 222.258C303.221 224.834 304.517 226.508 307.306 226.508ZM307.306 224.719C306.125 224.719 305.666 223.915 305.666 222.258C305.666 220.601 306.125 219.797 307.306 219.797C308.488 219.797 308.947 220.601 308.947 222.258C308.947 223.915 308.488 224.719 307.306 224.719Z" fill="#922859"/>
<path d="M255.373 223.352H248.751V219.256H255.373V213.156H259.82V219.256H266.442V223.352H259.82V229.452H255.373V223.352Z" fill="#922859"/>
<path d="M55.6045 213.043C55.6045 209.159 58.7535 206.01 62.6379 206.01H215.25V268.64H62.6379C58.7535 268.64 55.6045 265.491 55.6045 261.607V213.043Z" fill="#E63780"/>
<path d="M94.1523 256.234C96.3459 256.234 97.8008 255.787 98.8751 254.779C99.6809 254.018 100.151 252.922 100.151 251.556C100.151 245.58 92.3393 247.639 92.3393 244.64C92.3393 243.677 92.9437 243.006 94.8238 243.006C95.8982 243.006 97.2412 243.207 98.4946 243.543L99.0318 240.947C97.8455 240.544 96.2339 240.32 94.7567 240.32C91.4888 240.32 89.049 241.685 89.049 244.797C89.049 250.818 96.8607 248.736 96.8607 251.601C96.8607 253.011 95.8982 253.548 93.839 253.548C92.7198 253.548 90.9516 253.257 89.6086 252.787L89.0714 255.451C90.6158 255.988 92.205 256.234 94.1523 256.234ZM101.264 256.234H104.107L110.844 240.32H108.001L101.264 256.234Z" fill="white"/>
<path d="M118.451 256.583H124.268L131.568 235.862C132.024 234.608 132.177 233.353 132.177 232.136C132.177 231.566 132.1 230.882 131.91 230.577H114.953V234.455H127.082L118.451 256.583ZM143.792 257.116C151.054 257.116 153.905 253.922 153.905 248.447C153.905 242.934 150.788 240.311 143.982 240.311H142.613L142.841 234.455H152.384V230.577H138.165L137.708 241.603C137.67 242.782 137.708 243.77 137.899 244.531H143.183C147.366 244.531 148.278 245.976 148.278 248.675C148.278 251.26 146.947 252.857 142.461 252.857C140.75 252.857 139.039 252.705 137.67 252.439V256.507C139.381 256.887 141.511 257.116 143.792 257.116Z" fill="white"/>
<path d="M158.5 256.757H158.643C159.625 256.757 160.136 256.368 160.136 255.346V255.1C160.136 254.078 159.625 253.689 158.643 253.689H158.5C157.518 253.689 157.007 254.078 157.007 255.1V255.346C157.007 256.368 157.518 256.757 158.5 256.757ZM165.559 256.757C167.42 256.757 168.729 256.348 169.67 255.407C170.897 254.18 171.572 252.094 171.572 248.842C171.572 244.608 170.222 242.215 166.48 242.215C163.228 242.215 161.53 243.995 161.53 247.103C161.53 249.905 162.982 251.46 165.477 251.46C166.439 251.46 167.584 251.235 168.504 250.744C168.464 252.155 168.239 253.116 167.625 253.73C167.073 254.282 166.234 254.466 164.884 254.466C164.148 254.466 163.391 254.385 162.676 254.262V256.491C163.616 256.655 164.557 256.757 165.559 256.757ZM166.5 249.251C165.007 249.251 164.434 248.781 164.434 247.001C164.434 245.304 165.109 244.445 166.418 244.445C168.014 244.445 168.545 245.59 168.545 248.269V249.046C167.973 249.169 167.093 249.251 166.5 249.251ZM178.516 256.757C182.402 256.757 183.874 254.282 183.874 249.496C183.874 244.711 182.402 242.215 178.516 242.215C174.63 242.215 173.157 244.711 173.157 249.496C173.157 254.282 174.63 256.757 178.516 256.757ZM178.516 254.405C176.859 254.405 176.205 253.362 176.205 249.496C176.205 245.631 176.859 244.363 178.516 244.363C180.173 244.363 180.827 245.631 180.827 249.496C180.827 253.362 180.173 254.405 178.516 254.405Z" fill="white"/>
<path d="M107.262 220.118H108.236V217.329H109.625C110.522 217.329 111.134 217.11 111.539 216.716C111.955 216.3 112.152 215.699 112.152 214.9C112.152 214.211 111.977 213.642 111.605 213.27C111.178 212.833 110.478 212.636 109.406 212.636H107.262V220.118ZM108.236 216.541V213.402H109.329C110.051 213.402 110.511 213.522 110.795 213.806C111.036 214.047 111.145 214.408 111.145 214.922C111.145 215.513 111.003 215.918 110.741 216.169C110.445 216.443 109.975 216.541 109.297 216.541H108.236ZM112.984 220.118H113.892V212.297H112.984V220.118ZM116.63 220.271C117.275 220.271 117.844 220.063 118.315 219.757L118.369 220.118H119.102V216.552C119.102 215.852 118.971 215.425 118.632 215.097C118.293 214.78 117.757 214.605 116.958 214.605C116.444 214.605 115.832 214.671 115.328 214.791L115.361 215.491C115.886 215.403 116.4 215.36 116.805 215.36C117.341 215.36 117.691 215.458 117.921 215.677C118.118 215.874 118.194 216.147 118.194 216.585V216.924H117.079C116.302 216.924 115.668 217.066 115.263 217.438C114.978 217.701 114.803 218.094 114.803 218.598C114.803 219.101 114.967 219.484 115.23 219.757C115.558 220.096 116.05 220.271 116.63 220.271ZM116.827 219.538C116.127 219.538 115.722 219.221 115.722 218.576C115.722 218.247 115.832 218.018 116.018 217.865C116.269 217.668 116.652 217.591 117.21 217.591H118.194V219.188C117.801 219.385 117.265 219.538 116.827 219.538ZM120.268 220.118H121.176V215.753C121.614 215.546 122.193 215.403 122.675 215.403C123.068 215.403 123.353 215.491 123.539 215.677C123.725 215.863 123.801 216.125 123.801 216.585V220.118H124.709V216.475C124.709 215.808 124.556 215.371 124.261 215.075C123.954 214.758 123.495 214.605 122.915 214.605C122.292 214.605 121.625 214.813 121.067 215.152L121.023 214.758H120.268V220.118ZM129.516 220.271C130.479 220.271 131.19 220.041 131.638 219.582C132.032 219.188 132.24 218.63 132.24 217.93C132.24 217.252 132.043 216.727 131.671 216.344C131.223 215.885 130.566 215.688 129.44 215.688H128.871L128.969 213.358H131.78V212.636H128.204L128.061 215.786C128.05 216.027 128.05 216.104 128.05 216.191C128.05 216.268 128.061 216.366 128.083 216.421H129.308C130.129 216.421 130.621 216.53 130.916 216.825C131.168 217.077 131.288 217.482 131.288 217.952C131.288 218.488 131.135 218.871 130.84 219.123C130.523 219.385 130.085 219.505 129.341 219.505C129.002 219.505 128.346 219.451 127.952 219.385V220.096C128.346 220.195 129.002 220.271 129.516 220.271ZM135.712 220.271C137.572 220.271 138.283 218.827 138.283 216.388C138.283 213.949 137.572 212.494 135.712 212.494C133.853 212.494 133.142 213.949 133.142 216.388C133.142 218.827 133.853 220.271 135.712 220.271ZM135.712 219.494C134.498 219.494 134.094 218.477 134.094 216.388C134.094 214.299 134.498 213.27 135.712 213.27C136.927 213.27 137.331 214.299 137.331 216.388C137.331 218.477 136.927 219.494 135.712 219.494ZM141.185 220.118H142.049V214.506L144.204 218.532H145.013L147.19 214.55V220.118H148.109V212.636H147.277L144.641 217.558L142.038 212.636H141.185V220.118ZM151.877 220.271C153.212 220.271 153.967 219.363 153.967 217.416C153.967 215.491 153.19 214.605 151.888 214.605C151.363 214.605 150.784 214.791 150.346 215.032V212.297H149.438V220.118H150.171L150.215 219.757C150.641 220.052 151.298 220.271 151.877 220.271ZM151.67 219.516C151.232 219.516 150.707 219.352 150.346 219.134V215.688C150.707 215.513 151.232 215.382 151.648 215.382C152.599 215.382 153.015 215.972 153.015 217.416C153.015 218.969 152.578 219.516 151.67 219.516ZM154.875 222.579H155.783V219.866C156.177 220.118 156.756 220.271 157.314 220.271C158.594 220.271 159.403 219.429 159.403 217.416C159.403 215.71 158.736 214.605 157.347 214.605C156.855 214.605 156.231 214.78 155.673 215.152L155.63 214.758H154.875V222.579ZM157.084 219.516C156.625 219.516 156.1 219.374 155.783 219.188V215.743C156.198 215.524 156.734 215.382 157.15 215.382C158.047 215.382 158.452 216.038 158.452 217.405C158.452 218.937 158.058 219.516 157.084 219.516ZM161.723 220.271C163.013 220.271 163.889 219.768 163.889 218.63C163.889 216.716 160.902 217.285 160.902 216.082C160.902 215.578 161.307 215.327 162.073 215.327C162.51 215.327 163.003 215.393 163.484 215.502L163.56 214.835C163.134 214.703 162.532 214.605 161.996 214.605C160.859 214.605 160.049 215.108 160.049 216.147C160.049 218.116 163.035 217.493 163.035 218.696C163.035 219.243 162.565 219.538 161.69 219.538C161.22 219.538 160.629 219.462 160.191 219.341L160.148 220.041C160.552 220.173 161.209 220.271 161.723 220.271Z" fill="white"/>
</svg>
