<svg width="231" height="168" viewBox="0 0 231 168" fill="none" xmlns="http://www.w3.org/2000/svg">
<path d="M41.1714 38.4728C42.4034 38.4728 44.0534 38.2748 44.9554 38.0108L44.6034 35.5028C43.7234 35.6788 42.5574 35.8108 41.8314 35.8108C40.1374 35.8108 39.1914 35.4808 38.5314 34.7328C37.7834 33.8968 37.4534 32.4008 37.4534 30.6188C37.4534 27.6268 38.2014 25.4928 41.4354 25.4928C42.3814 25.4928 43.5034 25.6908 44.6694 26.0208L45.1094 23.5128C44.1414 23.1168 42.4694 22.8308 41.1714 22.8308C36.0234 22.8308 33.8894 25.9988 33.8894 30.7068C33.8894 33.3248 34.4394 35.2828 35.7154 36.6468C36.8374 37.8348 38.5094 38.4728 41.1714 38.4728ZM51.7587 38.4728C55.4987 38.4728 57.2367 36.2288 57.2367 32.7748C57.2367 29.3208 55.4987 27.0768 51.7587 27.0768C48.0187 27.0768 46.2807 29.3208 46.2807 32.7748C46.2807 36.2288 48.0187 38.4728 51.7587 38.4728ZM51.7587 36.0748C50.1747 36.0748 49.5587 34.9968 49.5587 32.7748C49.5587 30.5528 50.1747 29.4748 51.7587 29.4748C53.3427 29.4748 53.9587 30.5528 53.9587 32.7748C53.9587 34.9968 53.3427 36.0748 51.7587 36.0748ZM62.8326 38.4728C66.0666 38.4728 67.6946 37.1748 67.6946 34.9308C67.6946 30.4648 61.7986 32.2028 61.7986 30.3768C61.7986 29.7608 62.4146 29.4968 63.5366 29.4968C64.4166 29.4968 65.7366 29.6728 66.8586 29.9808L67.1006 27.6708C65.9346 27.2748 64.5926 27.0768 63.5146 27.0768C60.2806 27.0768 58.8286 28.5508 58.8286 30.5528C58.8286 35.0188 64.7026 33.1488 64.7026 35.0628C64.7026 35.8328 63.9546 36.0528 62.7666 36.0528C61.6006 36.0528 60.1046 35.8108 59.2906 35.5468L59.0486 37.8788C59.9066 38.1868 61.5566 38.4728 62.8326 38.4728ZM74.0001 38.4728C74.9461 38.4728 76.0461 38.3628 76.7501 38.2088L76.6401 35.9868C76.2661 36.0308 75.5621 36.1188 75.1221 36.1188C73.8461 36.1188 73.6041 35.6788 73.6041 34.4688V29.4308H76.3981V27.3848H73.6041V24.5248C72.5921 24.5248 71.4041 24.7008 70.4581 24.9868V27.3848L68.6321 27.7148V29.4308H70.4581V34.9088C70.4581 37.2848 71.3161 38.4728 74.0001 38.4728ZM83.5341 38.4728C87.2741 38.4728 89.0121 36.2288 89.0121 32.7748C89.0121 29.3208 87.2741 27.0768 83.5341 27.0768C79.7941 27.0768 78.0561 29.3208 78.0561 32.7748C78.0561 36.2288 79.7941 38.4728 83.5341 38.4728ZM83.5341 36.0748C81.9501 36.0748 81.3341 34.9968 81.3341 32.7748C81.3341 30.5528 81.9501 29.4748 83.5341 29.4748C85.1181 29.4748 85.7341 30.5528 85.7341 32.7748C85.7341 34.9968 85.1181 36.0748 83.5341 36.0748ZM99.5714 38.4728C100.891 38.4728 102.057 38.0108 102.981 37.3948L103.047 38.1648H105.775V22.4348H102.629V27.8688C101.793 27.3628 100.715 27.0768 99.7694 27.0768C97.1954 27.0768 95.5014 29.2108 95.5014 32.7968C95.5014 34.9088 95.9854 36.5588 96.9974 37.5488C97.6134 38.1428 98.5154 38.4728 99.5714 38.4728ZM100.759 36.0088C99.3294 36.0088 98.8014 35.2828 98.8014 32.8848C98.8014 30.2888 99.6594 29.5628 101.133 29.5628C101.529 29.5628 102.145 29.6508 102.629 29.8048V35.6348C102.079 35.8548 101.265 36.0088 100.759 36.0088ZM113.773 38.4728C115.115 38.4728 116.369 38.2968 117.403 38.0988L117.161 35.8108C116.347 35.9648 115.247 36.0748 114.477 36.0748C112.365 36.0748 111.243 35.5688 111.155 33.7428H117.777C117.953 33.7428 118.041 33.6768 118.041 33.5008V32.5108C118.041 28.7708 116.325 27.0768 113.091 27.0768C109.791 27.0768 107.855 29.0128 107.855 32.7968C107.855 34.5128 108.229 36.0528 109.307 37.0868C110.231 37.9668 111.749 38.4728 113.773 38.4728ZM111.155 31.6968C111.221 30.3108 111.793 29.4528 113.069 29.4528C114.323 29.4528 114.961 30.3328 114.961 31.6968H111.155ZM126.531 25.5808H126.685C127.763 25.5808 128.335 25.1628 128.335 24.0848V23.7988C128.335 22.7208 127.763 22.2808 126.685 22.2808H126.531C125.453 22.2808 124.881 22.7208 124.881 23.7988V24.0848C124.881 25.1628 125.453 25.5808 126.531 25.5808ZM125.035 38.1648H128.181V27.3848H125.035V38.1648ZM130.878 38.1648H134.024V30.0468C134.53 29.8488 135.476 29.6948 136.07 29.6948C136.708 29.6948 137.148 29.7828 137.434 30.0468C137.654 30.2668 137.764 30.5748 137.764 31.1248V38.1648H140.91V30.7508C140.91 29.4968 140.646 28.5508 139.986 27.9128C139.392 27.3188 138.336 27.0768 137.39 27.0768C136.246 27.0768 134.86 27.3848 133.672 28.1548L133.606 27.3848H130.878V38.1648ZM146.987 38.4728C150.221 38.4728 151.849 37.1748 151.849 34.9308C151.849 30.4648 145.953 32.2028 145.953 30.3768C145.953 29.7608 146.569 29.4968 147.691 29.4968C148.571 29.4968 149.891 29.6728 151.013 29.9808L151.255 27.6708C150.089 27.2748 148.747 27.0768 147.669 27.0768C144.435 27.0768 142.983 28.5508 142.983 30.5528C142.983 35.0188 148.857 33.1488 148.857 35.0628C148.857 35.8328 148.109 36.0528 146.921 36.0528C145.755 36.0528 144.259 35.8108 143.445 35.5468L143.203 37.8788C144.061 38.1868 145.711 38.4728 146.987 38.4728ZM158.154 38.4728C159.1 38.4728 160.2 38.3628 160.904 38.2088L160.794 35.9868C160.42 36.0308 159.716 36.1188 159.276 36.1188C158 36.1188 157.758 35.6788 157.758 34.4688V29.4308H160.552V27.3848H157.758V24.5248C156.746 24.5248 155.558 24.7008 154.612 24.9868V27.3848L152.786 27.7148V29.4308H154.612V34.9088C154.612 37.2848 155.47 38.4728 158.154 38.4728ZM165.884 38.4728C167.028 38.4728 168.194 38.0988 169.118 37.5048L169.382 38.1648H171.868V31.1688C171.868 29.8708 171.582 28.9468 171.032 28.3088C170.284 27.4288 168.81 27.0768 167.16 27.0768C165.862 27.0768 164.432 27.2528 163.332 27.4728L163.486 29.7828C164.234 29.6288 165.488 29.4968 166.5 29.4968C167.358 29.4968 167.952 29.6068 168.326 29.9368C168.59 30.1788 168.722 30.5528 168.722 31.1468V31.4988H167.006C165.004 31.4988 163.816 31.7628 163.046 32.4888C162.43 33.0828 162.1 33.9628 162.1 34.9308C162.1 37.0208 163.42 38.4728 165.884 38.4728ZM166.786 36.0748C165.642 36.0748 165.246 35.5908 165.246 34.7988C165.246 34.4028 165.356 34.0948 165.554 33.8968C165.84 33.6108 166.302 33.5228 167.05 33.5228H168.722V35.7448C168.216 35.8988 167.38 36.0748 166.786 36.0748ZM174.514 38.1648H177.66V22.4348H174.514V38.1648ZM183.48 38.4728C184.624 38.4728 185.79 38.0988 186.714 37.5048L186.978 38.1648H189.464V31.1688C189.464 29.8708 189.178 28.9468 188.628 28.3088C187.88 27.4288 186.406 27.0768 184.756 27.0768C183.458 27.0768 182.028 27.2528 180.928 27.4728L181.082 29.7828C181.83 29.6288 183.084 29.4968 184.096 29.4968C184.954 29.4968 185.548 29.6068 185.922 29.9368C186.186 30.1788 186.318 30.5528 186.318 31.1468V31.4988H184.602C182.6 31.4988 181.412 31.7628 180.642 32.4888C180.026 33.0828 179.696 33.9628 179.696 34.9308C179.696 37.0208 181.016 38.4728 183.48 38.4728ZM184.382 36.0748C183.238 36.0748 182.842 35.5908 182.842 34.7988C182.842 34.4028 182.952 34.0948 183.15 33.8968C183.436 33.6108 183.898 33.5228 184.646 33.5228H186.318V35.7448C185.812 35.8988 184.976 36.0748 184.382 36.0748ZM197.39 38.4728C198.578 38.4728 199.37 38.3628 200.426 38.1208L200.184 35.8548C199.502 35.9868 198.644 36.0748 197.94 36.0748C195.674 36.0748 194.772 34.9968 194.772 32.7748C194.772 31.6748 194.97 30.8388 195.498 30.2668C195.96 29.7828 196.708 29.4968 197.676 29.4968C198.578 29.4968 199.502 29.6288 200.162 29.8048L200.36 27.4728C199.326 27.1868 198.182 27.0768 197.192 27.0768C195.41 27.0768 193.848 27.6488 192.88 28.6828C191.912 29.7388 191.494 31.2128 191.494 33.0168C191.494 34.2048 191.78 35.4148 192.374 36.3168C193.496 38.0548 195.542 38.4728 197.39 38.4728ZM203.789 25.5808H203.943C205.021 25.5808 205.593 25.1628 205.593 24.0848V23.7988C205.593 22.7208 205.021 22.2808 203.943 22.2808H203.789C202.711 22.2808 202.139 22.7208 202.139 23.7988V24.0848C202.139 25.1628 202.711 25.5808 203.789 25.5808ZM202.293 38.1648H205.439V27.3848H202.293V38.1648ZM211.369 25.8668L215.835 22.8528L214.295 20.7628L210.269 24.5028L211.369 25.8668ZM213.063 38.4728C216.803 38.4728 218.541 36.2288 218.541 32.7748C218.541 29.3208 216.803 27.0768 213.063 27.0768C209.323 27.0768 207.585 29.3208 207.585 32.7748C207.585 36.2288 209.323 38.4728 213.063 38.4728ZM213.063 36.0748C211.479 36.0748 210.863 34.9968 210.863 32.7748C210.863 30.5528 211.479 29.4748 213.063 29.4748C214.647 29.4748 215.263 30.5528 215.263 32.7748C215.263 34.9968 214.647 36.0748 213.063 36.0748ZM220.639 38.1648H223.785V30.0468C224.291 29.8488 225.237 29.6948 225.831 29.6948C226.469 29.6948 226.909 29.7828 227.195 30.0468C227.415 30.2668 227.525 30.5748 227.525 31.1248V38.1648H230.671V30.7508C230.671 29.4968 230.407 28.5508 229.747 27.9128C229.153 27.3188 228.097 27.0768 227.151 27.0768C226.007 27.0768 224.621 27.3848 223.433 28.1548L223.367 27.3848H220.639V38.1648Z" fill="white"/>
<path d="M70.2864 89.5153L70.4521 90.0536L70.8497 89.9313V89.5153H70.2864ZM70.2864 69.7072H70.8497V69.1439H70.2864V69.7072ZM56.0405 69.7072V69.1439H55.4772V69.7072H56.0405ZM56.0405 76.0639H55.4772V76.6272H56.0405V76.0639ZM61.4891 76.0639H62.0524V75.5006H61.4891V76.0639ZM61.4891 84.2369L61.5817 84.7925L62.0524 84.7141V84.2369H61.4891ZM49.2864 81.5126L48.828 81.84L48.828 81.84L49.2864 81.5126ZM67.2783 59.4909L67.1235 60.0325L67.725 60.2044L67.8331 59.5883L67.2783 59.4909ZM68.4134 53.0207L68.9682 53.118L69.0451 52.6799L68.6367 52.5035L68.4134 53.0207ZM56.4378 92.065C60.7456 92.065 66.7045 91.2067 70.4521 90.0536L70.1207 88.9769C66.4899 90.0941 60.6434 90.9385 56.4378 90.9385V92.065ZM70.8497 89.5153V69.7072H69.7231V89.5153H70.8497ZM70.2864 69.1439H56.0405V70.2704H70.2864V69.1439ZM55.4772 69.7072V76.0639H56.6037V69.7072H55.4772ZM56.0405 76.6272H61.4891V75.5006H56.0405V76.6272ZM60.9258 76.0639V84.2369H62.0524V76.0639H60.9258ZM61.3965 83.6813C60.0629 83.9035 58.1642 84.0709 56.7783 84.0709V85.1975C58.2302 85.1975 60.191 85.0243 61.5817 84.7925L61.3965 83.6813ZM56.7783 84.0709C53.1548 84.0709 51.0276 82.9811 49.7448 81.1852L48.828 81.84C50.3831 84.017 52.9099 85.1975 56.7783 85.1975V84.0709ZM49.7448 81.1852C48.1516 78.9548 47.5794 75.5359 47.5794 71.1828H46.4528C46.4528 75.5703 47.0158 79.3028 48.828 81.84L49.7448 81.1852ZM47.5794 71.1828C47.5794 67.0093 48.3807 63.8846 50.0515 61.8094C51.7022 59.7591 54.2831 58.6353 58.0837 58.6353V57.5087C54.0519 57.5087 51.099 58.7119 49.174 61.1029C47.2691 63.4689 46.4528 66.8996 46.4528 71.1828H47.5794ZM58.0837 58.6353C61.0806 58.6353 64.3752 59.2473 67.1235 60.0325L67.433 58.9493C64.6192 58.1454 61.2165 57.5087 58.0837 57.5087V58.6353ZM67.8331 59.5883L68.9682 53.118L67.8586 52.9233L66.7235 59.3936L67.8331 59.5883ZM68.6367 52.5035C66.047 51.3852 61.3675 50.5844 57.4594 50.5844V51.711C61.2702 51.711 65.7853 52.4993 68.1901 53.5378L68.6367 52.5035ZM57.4594 50.5844C50.7263 50.5844 45.651 52.6835 42.2649 56.4015C38.8866 60.111 37.2583 65.3569 37.2583 71.5234H38.3848C38.3848 65.5438 39.9632 60.6019 43.0978 57.1601C46.2245 53.7268 50.9681 51.711 57.4594 51.711V50.5844ZM37.2583 71.5234C37.2583 77.7359 38.4432 82.8906 41.4846 86.4944C44.5429 90.1182 49.3831 92.065 56.4378 92.065V90.9385C49.587 90.9385 45.1191 89.0542 42.3456 85.7678C39.5553 82.4615 38.3848 77.627 38.3848 71.5234H37.2583ZM77.5455 90.7072H76.9822V91.2704H77.5455V90.7072ZM86.3996 90.7072V91.2704H86.9628V90.7072H86.3996ZM86.3996 76.6315V76.0682H85.8363V76.6315H86.3996ZM91.2806 76.6315L91.7828 76.3763L91.6263 76.0682H91.2806V76.6315ZM98.432 90.7072L97.9298 90.9623L98.0864 91.2704H98.432V90.7072ZM108.421 90.7072V91.2704H109.374L108.915 90.4356L108.421 90.7072ZM100.021 75.4396L99.7826 74.9293L99.2377 75.1841L99.5277 75.7111L100.021 75.4396ZM103.37 55.0072L103.756 54.5973L103.754 54.5954L103.37 55.0072ZM77.5455 51.8855V51.3222H76.9822V51.8855H77.5455ZM86.3996 70.218H85.8363V70.7812H86.3996V70.218ZM86.3996 58.299V57.7358H85.8363V58.299H86.3996ZM96.2752 59.718L96.6735 59.3197L96.6684 59.3146L96.6632 59.3096L96.2752 59.718ZM77.5455 91.2704H86.3996V90.1439H77.5455V91.2704ZM86.9628 90.7072V76.6315H85.8363V90.7072H86.9628ZM86.3996 77.1948H91.2806V76.0682H86.3996V77.1948ZM90.7785 76.8866L97.9298 90.9623L98.9342 90.452L91.7828 76.3763L90.7785 76.8866ZM98.432 91.2704H108.421V90.1439H98.432V91.2704ZM108.915 90.4356L100.515 75.1681L99.5277 75.7111L107.928 90.9787L108.915 90.4356ZM100.26 75.9498C104.872 73.7936 107.168 69.3625 107.168 63.918H106.042C106.042 69.0302 103.911 72.9991 99.7826 74.9293L100.26 75.9498ZM107.168 63.918C107.168 59.716 105.882 56.6011 103.756 54.5973L102.983 55.417C104.831 57.1591 106.042 59.947 106.042 63.918H107.168ZM103.754 54.5954C101.028 52.0506 97.1352 51.3222 90.8833 51.3222V52.4488C97.118 52.4488 100.604 53.1961 102.985 55.4189L103.754 54.5954ZM90.8833 51.3222H77.5455V52.4488H90.8833V51.3222ZM76.9822 51.8855V90.7072H78.1088V51.8855H76.9822ZM86.9628 70.218V58.299H85.8363V70.218H86.9628ZM86.3996 58.8623H90.3725V57.7358H86.3996V58.8623ZM90.3725 58.8623C93.2745 58.8623 94.9306 59.2175 95.8873 60.1263L96.6632 59.3096C95.3496 58.0617 93.2598 57.7358 90.3725 57.7358V58.8623ZM95.8769 60.1163C96.6352 60.8745 97.0741 62.1174 97.0741 64.0315H98.2007C98.2007 61.9726 97.7315 60.3776 96.6735 59.3197L95.8769 60.1163ZM97.0741 64.0315C97.0741 66.1287 96.573 67.6222 95.6266 68.4266L96.3563 69.285C97.6802 68.1597 98.2007 66.2477 98.2007 64.0315H97.0741ZM95.6266 68.4266C94.6522 69.2549 93.2393 69.6547 90.3158 69.6547V70.7812C93.295 70.7812 95.0604 70.3864 96.3563 69.285L95.6266 68.4266ZM90.3158 69.6547H86.3996V70.7812H90.3158V69.6547ZM110.432 90.7072L109.898 90.5283L109.65 91.2704H110.432V90.7072ZM118.889 90.7072V91.2704H119.305L119.428 90.873L118.889 90.7072ZM121.897 80.945V80.3817H121.482L121.359 80.7791L121.897 80.945ZM134.497 80.945L135.032 80.7678L134.904 80.3817H134.497V80.945ZM137.732 90.7072L137.198 90.8843L137.326 91.2704H137.732V90.7072ZM147.211 90.7072V91.2704H148.013L147.741 90.5158L147.211 90.7072ZM133.192 51.8855L133.722 51.6942L133.587 51.3222H133.192V51.8855ZM123.43 51.8855V51.3222H123.024L122.896 51.7067L123.43 51.8855ZM123.941 74.5315L123.403 74.364L123.175 75.0948H123.941V74.5315ZM127.97 61.5909V61.0277H127.556L127.433 61.4235L127.97 61.5909ZM128.084 61.5909L128.619 61.4149L128.492 61.0277H128.084V61.5909ZM132.341 74.5315V75.0948H133.119L132.876 74.3555L132.341 74.5315ZM110.432 91.2704H118.889V90.1439H110.432V91.2704ZM119.428 90.873L122.436 81.1109L121.359 80.7791L118.351 90.5413L119.428 90.873ZM121.897 81.5083H134.497V80.3817H121.897V81.5083ZM133.963 81.1222L137.198 90.8843L138.267 90.53L135.032 80.7678L133.963 81.1222ZM137.732 91.2704H147.211V90.1439H137.732V91.2704ZM147.741 90.5158L133.722 51.6942L132.662 52.0768L146.681 90.8985L147.741 90.5158ZM133.192 51.3222H123.43V52.4488H133.192V51.3222ZM122.896 51.7067L109.898 90.5283L110.967 90.886L123.964 52.0644L122.896 51.7067ZM124.478 74.699L128.508 61.7584L127.433 61.4235L123.403 74.364L124.478 74.699ZM127.97 62.1542H128.084V61.0277H127.97V62.1542ZM127.549 61.7669L131.806 74.7075L132.876 74.3555L128.619 61.4149L127.549 61.7669ZM132.341 73.9682H123.941V75.0948H132.341V73.9682ZM157.506 90.7072H156.943V91.2704H157.506V90.7072ZM166.361 90.7072V91.2704H166.924V90.7072H166.361ZM166.361 58.299V57.7358H165.797V58.299H166.361ZM178.109 58.299V58.8623H178.616L178.669 58.3585L178.109 58.299ZM178.79 51.8855L179.35 51.945L179.417 51.3222H178.79V51.8855ZM145.474 51.8855V51.3222H144.911V51.8855H145.474ZM145.474 58.299H144.911V58.8623H145.474V58.299ZM157.506 58.299H158.07V57.7358H157.506V58.299ZM157.506 91.2704H166.361V90.1439H157.506V91.2704ZM166.924 90.7072V58.299H165.797V90.7072H166.924ZM166.361 58.8623H178.109V57.7358H166.361V58.8623ZM178.669 58.3585L179.35 51.945L178.23 51.826L177.549 58.2396L178.669 58.3585ZM178.79 51.3222H145.474V52.4488H178.79V51.3222ZM144.911 51.8855V58.299H146.037V51.8855H144.911ZM145.474 58.8623H157.506V57.7358H145.474V58.8623ZM156.943 58.299V90.7072H158.07V58.299H156.943ZM183.524 90.7072H182.96V91.2704H183.524V90.7072ZM192.378 90.7072V91.2704H192.941V90.7072H192.378ZM192.378 51.8855H192.941V51.3222H192.378V51.8855ZM183.524 51.8855V51.3222H182.96V51.8855H183.524ZM183.524 91.2704H192.378V90.1439H183.524V91.2704ZM192.941 90.7072V51.8855H191.814V90.7072H192.941ZM192.378 51.3222H183.524V52.4488H192.378V51.3222ZM182.96 51.8855V90.7072H184.087V51.8855H182.96ZM224.31 87.8126L224.695 88.2235L224.697 88.2221L224.31 87.8126ZM223.345 59.3207L223.199 59.8648L223.776 60.0192L223.897 59.4348L223.345 59.3207ZM224.707 52.7369L225.259 52.851L225.36 52.3636L224.889 52.2035L224.707 52.7369ZM200.813 82.7612L200.999 82.2296L200.388 82.0159L200.261 82.6498L200.813 82.7612ZM199.451 89.5153L198.898 89.4039L198.801 89.8858L199.266 90.0473L199.451 89.5153ZM212.334 92.065C217.971 92.065 221.825 90.9141 224.695 88.2235L223.925 87.4016C221.346 89.8191 217.822 90.9385 212.334 90.9385V92.065ZM224.697 88.2221C226.866 86.1734 228.108 83.2375 228.108 79.6396H226.982C226.982 82.966 225.841 85.5922 223.923 87.403L224.697 88.2221ZM228.108 79.6396C228.108 75.7109 226.817 73.0431 224.838 71.1669C222.883 69.3138 220.303 68.2774 217.808 67.502C216.563 67.1148 215.304 66.783 214.159 66.4558C213.002 66.1248 211.95 65.7958 211.059 65.4039C210.166 65.0111 209.476 64.5725 209.011 64.045C208.559 63.5327 208.3 62.9147 208.3 62.1017H207.174C207.174 63.1901 207.534 64.0726 208.166 64.7897C208.784 65.4916 209.641 66.0112 210.605 66.4351C211.571 66.86 212.686 67.2063 213.85 67.5389C215.026 67.8753 216.243 68.1953 217.474 68.5778C219.932 69.3419 222.303 70.3169 224.063 71.9845C225.797 73.6289 226.982 75.9912 226.982 79.6396H228.108ZM208.3 62.1017C208.3 61.0101 208.635 60.1644 209.436 59.5663C210.272 58.9423 211.702 58.5218 214.037 58.5218V57.3952C211.605 57.3952 209.884 57.8261 208.762 58.6635C207.606 59.5269 207.174 60.7529 207.174 62.1017H208.3ZM214.037 58.5218C216.701 58.5218 220.057 59.0229 223.199 59.8648L223.491 58.7766C220.277 57.9157 216.822 57.3952 214.037 57.3952V58.5218ZM223.897 59.4348L225.259 52.851L224.156 52.6228L222.794 59.2065L223.897 59.4348ZM224.889 52.2035C221.808 51.1574 217.658 50.5844 213.867 50.5844V51.711C217.567 51.711 221.59 52.2731 224.526 53.2702L224.889 52.2035ZM213.867 50.5844C209.657 50.5844 205.908 51.4619 203.195 53.4072C200.455 55.3719 198.831 58.3857 198.831 62.499H199.957C199.957 58.7232 201.426 56.0613 203.851 54.3227C206.303 52.5645 209.79 51.711 213.867 51.711V50.5844ZM198.831 62.499C198.831 66.4545 200.121 69.1402 202.101 71.0226C204.057 72.8823 206.638 73.9116 209.135 74.6663C210.383 75.0437 211.639 75.3602 212.788 75.6706C213.947 75.9841 215 76.2922 215.892 76.6601C216.788 77.0292 217.477 77.4407 217.939 77.9363C218.385 78.4151 218.639 78.9907 218.639 79.7531H219.765C219.765 78.6993 219.4 77.8507 218.763 77.1679C218.142 76.502 217.283 76.0147 216.322 75.6185C215.357 75.221 214.244 74.8973 213.082 74.5831C211.908 74.2659 210.688 73.9589 209.461 73.5879C207.005 72.8456 204.635 71.8778 202.877 70.2062C201.143 68.5572 199.957 66.1773 199.957 62.499H198.831ZM218.639 79.7531C218.639 81.3906 218.095 82.4217 217.031 83.0849C215.908 83.7852 214.127 84.1277 211.54 84.1277V85.2542C214.174 85.2542 216.224 84.9156 217.627 84.0409C219.089 83.1291 219.765 81.6913 219.765 79.7531H218.639ZM211.54 84.1277C208.769 84.1277 204.348 83.4019 200.999 82.2296L200.627 83.2929C204.088 84.5043 208.635 85.2542 211.54 85.2542V84.1277ZM200.261 82.6498L198.898 89.4039L200.003 89.6266L201.365 82.8726L200.261 82.6498ZM199.266 90.0473C203.251 91.4335 207.345 92.065 212.334 92.065V90.9385C207.448 90.9385 203.483 90.3213 199.636 88.9832L199.266 90.0473Z" fill="#019DF4"/>
<path d="M56.4378 86.9955C60.6945 86.9955 66.5972 86.1442 70.2864 85.009V65.2009H56.0405V71.5577H61.4891V79.7307C60.1269 79.9577 58.1972 80.128 56.7783 80.128C53.0323 80.128 50.7053 78.9928 49.2864 77.0063C47.5837 74.6225 47.0161 71.0469 47.0161 66.6766C47.0161 58.2198 50.2513 53.5658 58.0837 53.5658C61.1486 53.5658 64.4972 54.1901 67.2783 54.9847L68.4134 48.5144C65.9161 47.4361 61.3188 46.6415 57.4594 46.6415C44.235 46.6415 37.8215 54.8712 37.8215 67.0171C37.8215 79.3334 42.5323 86.9955 56.4378 86.9955ZM77.5455 86.2009H86.3996V72.1253H91.2806L98.432 86.2009H108.421L100.021 70.9334C104.391 68.8901 106.605 64.6901 106.605 59.4117C106.605 55.3252 105.356 52.3739 103.37 50.5009C100.816 48.1171 97.1266 47.3793 90.8833 47.3793H77.5455V86.2009ZM86.3996 65.7117V53.7928H90.3725C93.2671 53.7928 95.1401 54.1334 96.2752 55.2117C97.1833 56.1198 97.6374 57.5388 97.6374 59.5252C97.6374 61.682 97.1266 63.3847 95.9914 64.3496C94.8563 65.3144 93.2671 65.7117 90.3158 65.7117H86.3996ZM110.432 86.2009H118.889L121.897 76.4388H134.497L137.732 86.2009H147.211L133.192 47.3793H123.43L110.432 86.2009ZM123.941 70.0252L127.97 57.0847H128.084L132.341 70.0252H123.941ZM157.506 86.2009H166.361V53.7928H178.109L178.79 47.3793H145.474V53.7928H157.506V86.2009ZM183.524 86.2009H192.378V47.3793H183.524V86.2009ZM212.334 86.9955C217.897 86.9955 221.586 85.8604 224.31 83.3063C226.353 81.3766 227.545 78.5955 227.545 75.1334C227.545 59.9793 207.737 65.2009 207.737 57.5955C207.737 55.155 209.27 53.4523 214.037 53.4523C216.761 53.4523 220.167 53.9631 223.345 54.8144L224.707 48.2307C221.699 47.209 217.613 46.6415 213.867 46.6415C205.58 46.6415 199.394 50.1036 199.394 57.9928C199.394 73.2604 219.202 67.982 219.202 75.2469C219.202 78.8225 216.761 80.1847 211.54 80.1847C208.702 80.1847 204.218 79.4469 200.813 78.255L199.451 85.009C203.367 86.3712 207.397 86.9955 212.334 86.9955Z" fill="#019DF4"/>
<path d="M36.1444 111.424H37.5684V107.344H39.6004C40.9124 107.344 41.8084 107.024 42.4004 106.448C43.0084 105.84 43.2964 104.96 43.2964 103.792C43.2964 102.784 43.0404 101.952 42.4964 101.408C41.8724 100.768 40.8484 100.48 39.2804 100.48H36.1444V111.424ZM37.5684 106.192V101.6H39.1684C40.2244 101.6 40.8964 101.776 41.3124 102.192C41.6644 102.544 41.8244 103.072 41.8244 103.824C41.8244 104.688 41.6164 105.28 41.2324 105.648C40.8004 106.048 40.1124 106.192 39.1204 106.192H37.5684ZM46.708 111.648C47.652 111.648 48.484 111.344 49.172 110.896L49.252 111.424H50.324V106.208C50.324 105.184 50.132 104.56 49.636 104.08C49.14 103.616 48.356 103.36 47.188 103.36C46.436 103.36 45.54 103.456 44.804 103.632L44.852 104.656C45.62 104.528 46.372 104.464 46.964 104.464C47.748 104.464 48.26 104.608 48.596 104.928C48.884 105.216 48.996 105.616 48.996 106.256V106.752H47.364C46.228 106.752 45.3 106.96 44.708 107.504C44.292 107.888 44.036 108.464 44.036 109.2C44.036 109.936 44.276 110.496 44.66 110.896C45.14 111.392 45.86 111.648 46.708 111.648ZM46.996 110.576C45.972 110.576 45.38 110.112 45.38 109.168C45.38 108.688 45.54 108.352 45.812 108.128C46.18 107.84 46.74 107.728 47.556 107.728H48.996V110.064C48.42 110.352 47.636 110.576 46.996 110.576ZM52.5302 111.424H53.8582V105.088C54.4182 104.736 55.0742 104.56 55.7622 104.56C55.9862 104.56 56.2742 104.576 56.4502 104.592V103.408C56.2742 103.376 56.0822 103.36 55.9382 103.36C55.2502 103.36 54.4662 103.632 53.7142 104.256L53.6342 103.584H52.5302V111.424ZM59.7237 111.648C60.6677 111.648 61.4997 111.344 62.1877 110.896L62.2677 111.424H63.3397V106.208C63.3397 105.184 63.1477 104.56 62.6517 104.08C62.1557 103.616 61.3717 103.36 60.2037 103.36C59.4517 103.36 58.5557 103.456 57.8197 103.632L57.8677 104.656C58.6357 104.528 59.3877 104.464 59.9797 104.464C60.7637 104.464 61.2757 104.608 61.6117 104.928C61.8997 105.216 62.0117 105.616 62.0117 106.256V106.752H60.3797C59.2437 106.752 58.3157 106.96 57.7237 107.504C57.3077 107.888 57.0517 108.464 57.0517 109.2C57.0517 109.936 57.2917 110.496 57.6757 110.896C58.1557 111.392 58.8757 111.648 59.7237 111.648ZM60.0117 110.576C58.9877 110.576 58.3957 110.112 58.3957 109.168C58.3957 108.688 58.5557 108.352 58.8277 108.128C59.1957 107.84 59.7557 107.728 60.5717 107.728H62.0117V110.064C61.4357 110.352 60.6517 110.576 60.0117 110.576ZM71.5314 111.648C72.1074 111.648 72.7314 111.552 73.1474 111.44L73.0834 110.464C72.6994 110.544 72.1714 110.592 71.8994 110.592C71.3394 110.592 71.0674 110.48 70.8914 110.288C70.6674 110.048 70.6194 109.664 70.6194 108.912V104.56H72.6834V103.584H70.6194V101.504C70.2034 101.504 69.6754 101.616 69.2914 101.744V103.6L67.8674 103.808V104.56H69.2914V109.088C69.2914 110.064 69.4034 110.592 69.7874 111.04C70.1394 111.44 70.7634 111.648 71.5314 111.648ZM77.2472 111.648C78.1592 111.648 79.1032 111.344 79.9192 110.848L79.9832 111.424H81.0872V103.584H79.7592V109.968C79.1192 110.272 78.3032 110.48 77.5992 110.48C77.0232 110.48 76.6072 110.352 76.3352 110.08C76.0632 109.808 75.9512 109.424 75.9512 108.752V103.584H74.6232V108.912C74.6232 109.888 74.8472 110.528 75.2792 110.96C75.7272 111.424 76.3992 111.648 77.2472 111.648ZM86.5927 115.024H87.9207V111.056C88.4967 111.424 89.3447 111.648 90.1607 111.648C92.0327 111.648 93.2167 110.416 93.2167 107.472C93.2167 104.976 92.2407 103.36 90.2087 103.36C89.4887 103.36 88.5767 103.616 87.7607 104.16L87.6967 103.584H86.5927V115.024ZM89.8247 110.544C89.1527 110.544 88.3847 110.336 87.9207 110.064V105.024C88.5287 104.704 89.3127 104.496 89.9207 104.496C91.2327 104.496 91.8247 105.456 91.8247 107.456C91.8247 109.696 91.2487 110.544 89.8247 110.544ZM95.0618 111.424H96.3898V99.9843H95.0618V111.424ZM100.896 111.648C101.84 111.648 102.672 111.344 103.36 110.896L103.44 111.424H104.512V106.208C104.512 105.184 104.32 104.56 103.824 104.08C103.328 103.616 102.544 103.36 101.376 103.36C100.624 103.36 99.7275 103.456 98.9915 103.632L99.0395 104.656C99.8075 104.528 100.56 104.464 101.152 104.464C101.936 104.464 102.448 104.608 102.784 104.928C103.072 105.216 103.184 105.616 103.184 106.256V106.752H101.552C100.416 106.752 99.4875 106.96 98.8955 107.504C98.4795 107.888 98.2235 108.464 98.2235 109.2C98.2235 109.936 98.4635 110.496 98.8475 110.896C99.3275 111.392 100.048 111.648 100.896 111.648ZM101.184 110.576C100.16 110.576 99.5675 110.112 99.5675 109.168C99.5675 108.688 99.7275 108.352 99.9995 108.128C100.368 107.84 100.928 107.728 101.744 107.728H103.184V110.064C102.608 110.352 101.824 110.576 101.184 110.576ZM106.718 111.424H108.046V105.04C108.686 104.736 109.534 104.528 110.238 104.528C110.814 104.528 111.23 104.656 111.502 104.928C111.774 105.2 111.886 105.584 111.886 106.256V111.424H113.214V106.096C113.214 105.12 112.99 104.48 112.558 104.048C112.11 103.584 111.438 103.36 110.59 103.36C109.678 103.36 108.702 103.664 107.886 104.16L107.822 103.584H106.718V111.424ZM118.942 111.424H120.366V100.48H118.942V111.424ZM125.594 111.648C126.33 111.648 127.274 111.36 127.914 110.944L128.01 111.424H129.098V99.9843H127.77V103.92C127.146 103.568 126.362 103.36 125.69 103.36C123.642 103.36 122.442 104.96 122.442 107.552C122.442 110.272 123.594 111.648 125.594 111.648ZM125.962 110.56C124.554 110.56 123.834 109.632 123.834 107.568C123.834 105.728 124.362 104.48 125.962 104.48C126.49 104.48 127.194 104.64 127.77 104.864V110.096C127.21 110.368 126.522 110.56 125.962 110.56ZM134.751 111.648C135.471 111.648 136.399 111.536 137.071 111.344L136.943 110.352C136.335 110.48 135.567 110.56 135.007 110.56C134.015 110.56 133.423 110.352 133.007 109.968C132.543 109.536 132.319 108.832 132.319 107.968H137.375C137.503 107.968 137.567 107.92 137.567 107.792V107.488C137.567 104.912 136.511 103.36 134.319 103.36C132.319 103.36 130.927 104.72 130.927 107.52C130.927 108.928 131.247 110 131.951 110.704C132.591 111.344 133.535 111.648 134.751 111.648ZM132.319 106.992C132.335 105.408 132.991 104.432 134.319 104.432C135.631 104.432 136.207 105.488 136.255 106.992H132.319ZM141.692 111.648C142.636 111.648 143.468 111.344 144.156 110.896L144.236 111.424H145.308V106.208C145.308 105.184 145.116 104.56 144.62 104.08C144.124 103.616 143.34 103.36 142.172 103.36C141.42 103.36 140.524 103.456 139.788 103.632L139.836 104.656C140.604 104.528 141.356 104.464 141.948 104.464C142.732 104.464 143.244 104.608 143.58 104.928C143.868 105.216 143.98 105.616 143.98 106.256V106.752H142.348C141.212 106.752 140.284 106.96 139.692 107.504C139.276 107.888 139.02 108.464 139.02 109.2C139.02 109.936 139.26 110.496 139.644 110.896C140.124 111.392 140.844 111.648 141.692 111.648ZM141.98 110.576C140.956 110.576 140.364 110.112 140.364 109.168C140.364 108.688 140.524 108.352 140.796 108.128C141.164 107.84 141.724 107.728 142.54 107.728H143.98V110.064C143.404 110.352 142.62 110.576 141.98 110.576ZM147.531 111.424H148.859V99.9843H147.531V111.424ZM157.11 111.648C157.846 111.648 158.79 111.36 159.43 110.944L159.526 111.424H160.614V99.9843H159.286V103.92C158.662 103.568 157.878 103.36 157.206 103.36C155.158 103.36 153.958 104.96 153.958 107.552C153.958 110.272 155.11 111.648 157.11 111.648ZM157.478 110.56C156.07 110.56 155.35 109.632 155.35 107.568C155.35 105.728 155.878 104.48 157.478 104.48C158.006 104.48 158.71 104.64 159.286 104.864V110.096C158.726 110.368 158.038 110.56 157.478 110.56ZM166.266 111.648C166.986 111.648 167.914 111.536 168.586 111.344L168.458 110.352C167.85 110.48 167.082 110.56 166.522 110.56C165.53 110.56 164.938 110.352 164.522 109.968C164.058 109.536 163.834 108.832 163.834 107.968H168.89C169.018 107.968 169.082 107.92 169.082 107.792V107.488C169.082 104.912 168.026 103.36 165.834 103.36C163.834 103.36 162.442 104.72 162.442 107.52C162.442 108.928 162.762 110 163.466 110.704C164.106 111.344 165.05 111.648 166.266 111.648ZM163.834 106.992C163.85 105.408 164.506 104.432 165.834 104.432C167.146 104.432 167.722 105.488 167.77 106.992H163.834ZM174.474 111.424H175.898V100.48H174.474V111.424ZM178.39 111.424H179.718V105.04C180.358 104.736 181.206 104.528 181.91 104.528C182.486 104.528 182.902 104.656 183.174 104.928C183.446 105.2 183.558 105.584 183.558 106.256V111.424H184.886V106.096C184.886 105.12 184.662 104.48 184.23 104.048C183.782 103.584 183.11 103.36 182.262 103.36C181.35 103.36 180.374 103.664 179.558 104.16L179.494 103.584H178.39V111.424ZM189.813 111.648C190.389 111.648 191.013 111.552 191.429 111.44L191.365 110.464C190.981 110.544 190.453 110.592 190.181 110.592C189.621 110.592 189.349 110.48 189.173 110.288C188.949 110.048 188.901 109.664 188.901 108.912V104.56H190.965V103.584H188.901V101.504C188.485 101.504 187.957 101.616 187.573 101.744V103.6L186.149 103.808V104.56H187.573V109.088C187.573 110.064 187.685 110.592 188.069 111.04C188.421 111.44 189.045 111.648 189.813 111.648ZM196.344 111.648C197.064 111.648 197.992 111.536 198.664 111.344L198.536 110.352C197.928 110.48 197.16 110.56 196.6 110.56C195.608 110.56 195.016 110.352 194.6 109.968C194.136 109.536 193.912 108.832 193.912 107.968H198.968C199.096 107.968 199.16 107.92 199.16 107.792V107.488C199.16 104.912 198.104 103.36 195.912 103.36C193.912 103.36 192.52 104.72 192.52 107.52C192.52 108.928 192.84 110 193.544 110.704C194.184 111.344 195.128 111.648 196.344 111.648ZM193.912 106.992C193.928 105.408 194.584 104.432 195.912 104.432C197.224 104.432 197.8 105.488 197.848 106.992H193.912ZM201.03 111.424H202.358V105.088C202.918 104.736 203.574 104.56 204.262 104.56C204.486 104.56 204.774 104.576 204.95 104.592V103.408C204.774 103.376 204.582 103.36 204.438 103.36C203.75 103.36 202.966 103.632 202.214 104.256L202.134 103.584H201.03V111.424ZM206.39 111.424H207.718V105.04C208.358 104.736 209.206 104.528 209.91 104.528C210.486 104.528 210.902 104.656 211.174 104.928C211.446 105.2 211.558 105.584 211.558 106.256V111.424H212.886V106.096C212.886 105.12 212.662 104.48 212.23 104.048C211.782 103.584 211.11 103.36 210.262 103.36C209.35 103.36 208.374 103.664 207.558 104.16L207.494 103.584H206.39V111.424ZM218.501 111.648C219.221 111.648 220.149 111.536 220.821 111.344L220.693 110.352C220.085 110.48 219.317 110.56 218.757 110.56C217.765 110.56 217.173 110.352 216.757 109.968C216.293 109.536 216.069 108.832 216.069 107.968H221.125C221.253 107.968 221.317 107.92 221.317 107.792V107.488C221.317 104.912 220.261 103.36 218.069 103.36C216.069 103.36 214.677 104.72 214.677 107.52C214.677 108.928 214.997 110 215.701 110.704C216.341 111.344 217.285 111.648 218.501 111.648ZM216.069 106.992C216.085 105.408 216.741 104.432 218.069 104.432C219.381 104.432 219.957 105.488 220.005 106.992H216.069ZM225.906 111.648C226.482 111.648 227.106 111.552 227.522 111.44L227.458 110.464C227.074 110.544 226.546 110.592 226.274 110.592C225.714 110.592 225.442 110.48 225.266 110.288C225.042 110.048 224.994 109.664 224.994 108.912V104.56H227.058V103.584H224.994V101.504C224.578 101.504 224.05 101.616 223.666 101.744V103.6L222.242 103.808V104.56H223.666V109.088C223.666 110.064 223.778 110.592 224.162 111.04C224.514 111.44 225.138 111.648 225.906 111.648Z" fill="white"/>
<path d="M18.938 41.0522C19.2777 40.751 19.7067 40.3907 20.1533 40.0959L20.2665 39.9955C20.6891 39.7421 21.0703 39.4648 21.469 39.2528C21.9331 39.0234 22.4211 38.7525 22.8612 38.5644C23.2774 38.4179 23.8069 38.1709 24.2885 38.0068L24.6393 37.8778C24.9901 37.7488 25.4064 37.6022 25.7572 37.4731C27.6357 36.8997 29.6082 36.5464 31.6333 36.3892C32.1499 36.3559 32.6665 36.3225 33.1178 36.3067C33.4622 36.2845 33.7827 36.3038 34.1032 36.323C34.1686 36.3055 34.21 36.3294 34.2754 36.3119L32.0665 37.7446C30.2564 38.9654 28.7796 39.9918 27.451 41.0486C27.2245 41.2494 26.9326 41.4677 26.7062 41.6686L26.4797 41.8694L26.2532 42.0703C26.0028 42.3125 25.7763 42.5134 25.4844 42.7317L25.4605 42.7732C25.3233 42.915 25.1862 43.0569 25.0075 43.1748C24.8704 43.3167 24.7332 43.4586 24.5306 43.618L24.5067 43.6594L24.4828 43.7009C24.1845 44.026 23.9341 44.2683 23.6422 44.4867L23.4397 44.6461C23.2132 44.8469 23.0521 45.0302 22.8495 45.1896L22.7363 45.29C22.5098 45.4909 22.2594 45.7331 22.0568 45.8925L22.0329 45.934L22.009 45.9754C21.7825 46.1763 21.556 46.3771 21.2227 46.5715L21.1988 46.613L21.1748 46.6544C20.883 46.8728 20.6804 47.0322 20.4364 47.1676L19.663 47.55C19.1096 47.8385 18.4207 47.8829 17.834 47.6547C17.6858 47.6243 17.5614 47.5526 17.4371 47.4808C16.4837 46.9304 16.0616 45.7471 16.4047 44.6741C16.5611 44.2117 16.7829 43.7319 17.0462 43.2759C17.3748 42.8025 17.6795 42.3705 17.9363 42.0213C18.276 41.7201 18.5982 41.3535 18.938 41.0522Z" fill="#E63780"/>
<path d="M32.5244 16.1793C33.0756 17.7134 33.7862 19.45 34.6976 21.4131L35.821 23.775C35.7795 23.751 35.6967 23.7032 35.6552 23.6792C35.3651 23.5117 35.1164 23.3681 34.8262 23.2006C34.4357 22.9199 33.9797 22.6566 33.5891 22.3759C31.944 21.205 30.4185 19.8268 29.1785 18.3372C28.9187 18.0214 28.6588 17.7056 28.4405 17.4137L28.2221 17.1219C27.9448 16.7407 27.6675 16.3595 27.3312 15.889C27.0364 15.4425 26.7415 14.9959 26.4881 14.5733C26.2762 14.1746 26.0643 13.7759 25.8348 13.3118L25.7998 13.1811C25.5942 12.6755 25.4126 12.1286 25.2661 11.7124C25.1434 11.2547 25.0208 10.797 24.9285 10.1911C24.8713 9.71592 24.814 9.24073 24.8286 8.64121C24.8606 8.10706 24.9341 7.59684 25.0252 7.15201C25.1705 6.51744 25.547 5.96108 26.1243 5.6312C26.8563 5.22484 27.7588 5.19324 28.5049 5.62399C28.8365 5.81544 29.1202 6.08978 29.3561 6.44703L29.8039 7.20297C29.9393 7.44697 30.0748 7.69097 30.1624 8.01787L30.1799 8.08325L30.1974 8.14863C30.3504 8.45801 30.438 8.78492 30.5495 9.07037L30.567 9.13574L30.5845 9.20113C30.6961 9.48658 30.7661 9.7481 30.8537 10.075L30.8888 10.2058C30.9589 10.4673 31.0289 10.7288 31.099 10.9903L31.1691 11.2518C31.2567 11.5787 31.3443 11.9056 31.4669 12.3633L31.4844 12.4287L31.5019 12.4941C31.5545 12.6902 31.607 12.8863 31.6596 13.0825C31.7121 13.2786 31.7647 13.4748 31.8173 13.6709L31.8348 13.7363C31.9224 14.0632 32.0339 14.3486 32.1215 14.6755L32.1916 14.9371L32.3206 15.2879C32.3078 15.5016 32.4193 15.787 32.5244 16.1793Z" fill="#E63780"/>
<path d="M15.9725 22.9263C17.8603 22.911 19.6683 23.5127 21.0139 23.958C22.7326 24.6187 24.4209 25.4276 26.1092 26.2366C27.5249 26.9434 28.9996 27.7395 30.5332 28.625L31.0721 28.9361C31.6523 29.2711 32.2326 29.6061 32.7476 29.9587C32.0826 29.9617 31.4177 29.9646 30.8182 29.9501C28.7406 29.9112 26.9834 29.8915 25.2088 29.8064C24.7161 29.7983 24.1819 29.7662 23.6892 29.7581C22.3834 29.7226 21.036 29.6631 19.7541 29.5862C18.1341 29.4246 16.4552 29.1738 14.8433 28.5195C14.7605 28.4716 14.6361 28.3998 14.5532 28.352C13.6828 27.8494 13.141 26.8734 13.1158 25.8641C13.1051 24.2552 14.405 22.9609 15.9725 22.9263Z" fill="#E63780"/>
<path d="M224.237 162.891C224.237 165.31 222.277 167.271 219.858 167.271L141.402 167.271L141.402 128.27L219.858 128.27C222.277 128.27 224.237 130.231 224.237 132.65L224.237 162.891Z" fill="#FBC7DE"/>
<path d="M152.443 155.297H158.877V153.791H154.804L156.56 151.873C158.154 150.132 158.715 149.172 158.715 147.918C158.715 147.077 158.464 146.428 157.992 145.955C157.372 145.336 156.413 145.011 154.966 145.011C154.14 145.011 153.21 145.144 152.62 145.291V146.856C153.255 146.738 154.022 146.664 154.598 146.664C155.321 146.664 155.822 146.782 156.132 147.047C156.398 147.269 156.531 147.593 156.531 148.021C156.531 148.863 156.058 149.527 154.937 150.884L152.974 153.275C152.546 153.791 152.384 154.205 152.384 154.824C152.384 154.987 152.399 155.178 152.443 155.297ZM164.597 155.503C167.401 155.503 168.463 153.718 168.463 150.264C168.463 146.811 167.401 145.011 164.597 145.011C161.793 145.011 160.731 146.811 160.731 150.264C160.731 153.718 161.793 155.503 164.597 155.503ZM164.597 153.806C163.402 153.806 162.929 153.053 162.929 150.264C162.929 147.475 163.402 146.561 164.597 146.561C165.792 146.561 166.264 147.475 166.264 150.264C166.264 153.053 165.792 153.806 164.597 153.806ZM173.445 155.503C176.249 155.503 177.311 153.718 177.311 150.264C177.311 146.811 176.249 145.011 173.445 145.011C170.641 145.011 169.579 146.811 169.579 150.264C169.579 153.718 170.641 155.503 173.445 155.503ZM173.445 153.806C172.25 153.806 171.778 153.053 171.778 150.264C171.778 147.475 172.25 146.561 173.445 146.561C174.64 146.561 175.113 147.475 175.113 150.264C175.113 153.053 174.64 153.806 173.445 153.806ZM178.958 155.297H180.892V149.423L183.046 152.994H184.817L186.912 149.482V155.297H189.023V145.203H187.252L183.961 150.84L180.773 145.203H178.958V155.297ZM195 155.503C195.9 155.503 196.55 155.237 197.051 154.662C197.583 154.057 197.863 152.95 197.863 151.652C197.863 148.848 196.741 147.859 195.103 147.859C194.41 147.859 193.613 148.051 193.111 148.346V144.745H191.001V155.297H192.742L192.846 154.839C193.451 155.237 194.248 155.503 195 155.503ZM194.366 153.85C193.952 153.85 193.451 153.688 193.111 153.496V149.748C193.451 149.615 193.908 149.556 194.366 149.556C195.251 149.556 195.649 149.955 195.649 151.681C195.649 153.304 195.325 153.85 194.366 153.85ZM199.259 158.617H201.369V154.972C201.915 155.311 202.653 155.503 203.302 155.503C204.94 155.503 206.12 154.485 206.12 151.637C206.12 150.294 205.825 149.143 205.146 148.479C204.733 148.08 204.143 147.859 203.42 147.859C202.535 147.859 201.767 148.184 201.147 148.597L201.088 148.066H199.259V158.617ZM202.682 153.836C202.225 153.836 201.708 153.777 201.369 153.629V149.763C201.723 149.659 202.284 149.571 202.623 149.571C203.582 149.571 203.907 150.058 203.907 151.607C203.907 153.349 203.567 153.836 202.682 153.836ZM209.862 155.503C212.032 155.503 213.124 154.632 213.124 153.127C213.124 150.132 209.169 151.297 209.169 150.073C209.169 149.659 209.582 149.482 210.334 149.482C210.925 149.482 211.81 149.6 212.563 149.807L212.725 148.258C211.943 147.992 211.043 147.859 210.32 147.859C208.15 147.859 207.177 148.848 207.177 150.191C207.177 153.186 211.117 151.932 211.117 153.216C211.117 153.732 210.615 153.88 209.818 153.88C209.036 153.88 208.032 153.718 207.486 153.54L207.324 155.105C207.9 155.311 209.006 155.503 209.862 155.503Z" fill="#922859"/>
<path d="M165.648 162.667H166.384L167.264 161.187L168.248 162.667H169L167.688 160.707L168.984 158.747H168.256L167.376 160.243L166.376 158.747H165.632L166.952 160.731L165.648 162.667ZM172.568 162.779C173.24 162.779 173.72 162.635 174.064 162.355C174.392 162.083 174.576 161.683 174.576 161.163C174.576 160.475 174.192 160.019 173.592 159.811C174.072 159.627 174.416 159.219 174.416 158.571C174.416 158.123 174.272 157.771 174.016 157.523C173.72 157.235 173.248 157.091 172.608 157.091C172.264 157.091 171.832 157.131 171.48 157.211V157.731C171.816 157.675 172.176 157.643 172.48 157.643C172.96 157.643 173.264 157.715 173.472 157.891C173.648 158.043 173.744 158.291 173.744 158.603C173.744 159.323 173.28 159.627 172.488 159.627H172.352V160.123H172.496C173.016 160.123 173.376 160.203 173.608 160.419C173.784 160.587 173.88 160.859 173.88 161.155C173.88 161.515 173.768 161.795 173.528 161.971C173.304 162.139 172.992 162.219 172.48 162.219C172.128 162.219 171.696 162.179 171.392 162.115V162.643C171.712 162.723 172.152 162.779 172.568 162.779ZM177.399 162.667H178.063V159.475C178.383 159.323 178.751 159.219 179.087 159.219C179.359 159.219 179.567 159.283 179.703 159.419C179.839 159.555 179.895 159.747 179.895 160.083V162.667H180.559V160.003C180.559 159.803 180.535 159.627 180.503 159.483C180.847 159.315 181.239 159.219 181.559 159.219C181.831 159.219 182.039 159.283 182.175 159.419C182.311 159.555 182.367 159.747 182.367 160.083V162.667H183.031V160.003C183.031 159.515 182.919 159.195 182.703 158.979C182.479 158.747 182.143 158.635 181.719 158.635C181.279 158.635 180.799 158.779 180.311 159.075C180.087 158.779 179.743 158.635 179.247 158.635C178.815 158.635 178.391 158.779 177.983 159.035L177.951 158.747H177.399V162.667ZM185.837 162.779C186.197 162.779 186.661 162.723 186.997 162.627L186.933 162.131C186.629 162.195 186.245 162.235 185.965 162.235C185.469 162.235 185.173 162.131 184.965 161.939C184.733 161.723 184.621 161.371 184.621 160.939H187.149C187.213 160.939 187.245 160.915 187.245 160.851V160.699C187.245 159.411 186.717 158.635 185.621 158.635C184.621 158.635 183.925 159.315 183.925 160.715C183.925 161.419 184.085 161.955 184.437 162.307C184.757 162.627 185.229 162.779 185.837 162.779ZM184.621 160.451C184.629 159.659 184.957 159.171 185.621 159.171C186.277 159.171 186.565 159.699 186.589 160.451H184.621ZM189.212 162.779C190.156 162.779 190.796 162.411 190.796 161.579C190.796 160.179 188.612 160.595 188.612 159.715C188.612 159.347 188.908 159.163 189.468 159.163C189.788 159.163 190.148 159.211 190.5 159.291L190.556 158.803C190.244 158.707 189.804 158.635 189.412 158.635C188.58 158.635 187.988 159.003 187.988 159.763C187.988 161.203 190.172 160.747 190.172 161.627C190.172 162.027 189.828 162.243 189.188 162.243C188.844 162.243 188.412 162.187 188.092 162.099L188.06 162.611C188.356 162.707 188.836 162.779 189.212 162.779ZM193.439 162.779C193.799 162.779 194.263 162.723 194.599 162.627L194.535 162.131C194.231 162.195 193.847 162.235 193.567 162.235C193.071 162.235 192.775 162.131 192.567 161.939C192.335 161.723 192.223 161.371 192.223 160.939H194.751C194.815 160.939 194.847 160.915 194.847 160.851V160.699C194.847 159.411 194.319 158.635 193.223 158.635C192.223 158.635 191.527 159.315 191.527 160.715C191.527 161.419 191.687 161.955 192.039 162.307C192.359 162.627 192.831 162.779 193.439 162.779ZM192.223 160.451C192.231 159.659 192.559 159.171 193.223 159.171C193.879 159.171 194.167 159.699 194.191 160.451H192.223ZM196.814 162.779C197.758 162.779 198.398 162.411 198.398 161.579C198.398 160.179 196.214 160.595 196.214 159.715C196.214 159.347 196.51 159.163 197.07 159.163C197.39 159.163 197.75 159.211 198.102 159.291L198.158 158.803C197.846 158.707 197.406 158.635 197.014 158.635C196.182 158.635 195.59 159.003 195.59 159.763C195.59 161.203 197.774 160.747 197.774 161.627C197.774 162.027 197.43 162.243 196.79 162.243C196.446 162.243 196.014 162.187 195.694 162.099L195.662 162.611C195.958 162.707 196.438 162.779 196.814 162.779Z" fill="#922859"/>
<path d="M178.467 140.305H180.95C182.032 140.305 182.717 140.132 183.166 139.733C183.544 139.396 183.749 138.906 183.749 138.231C183.749 137.312 183.136 136.678 182.267 136.556C182.911 136.229 183.248 135.749 183.248 135.034C183.248 134.523 183.075 134.114 182.758 133.838C182.349 133.481 181.736 133.317 180.745 133.317H178.467V140.305ZM180.061 136.096V134.472H180.643C181.072 134.472 181.317 134.523 181.471 134.676C181.603 134.809 181.665 135.003 181.665 135.258C181.665 135.544 181.593 135.749 181.46 135.882C181.287 136.045 181.041 136.096 180.602 136.096H180.061ZM180.061 139.151V137.251H180.715C181.287 137.251 181.614 137.302 181.828 137.486C182.012 137.639 182.094 137.884 182.094 138.262C182.094 138.548 182.012 138.752 181.869 138.895C181.675 139.089 181.307 139.151 180.715 139.151H180.061ZM187.057 140.448C188.794 140.448 189.601 139.406 189.601 137.802C189.601 136.198 188.794 135.156 187.057 135.156C185.321 135.156 184.514 136.198 184.514 137.802C184.514 139.406 185.321 140.448 187.057 140.448ZM187.057 139.335C186.322 139.335 186.036 138.834 186.036 137.802C186.036 136.77 186.322 136.27 187.057 136.27C187.793 136.27 188.079 136.77 188.079 137.802C188.079 138.834 187.793 139.335 187.057 139.335ZM190.575 140.305H192.036V136.535C192.271 136.443 192.711 136.372 192.986 136.372C193.283 136.372 193.487 136.413 193.62 136.535C193.722 136.638 193.773 136.781 193.773 137.036V140.305H195.234V136.862C195.234 136.28 195.111 135.841 194.805 135.544C194.529 135.269 194.039 135.156 193.599 135.156C193.068 135.156 192.425 135.299 191.873 135.657L191.842 135.299H190.575V140.305ZM198.72 140.448C200.457 140.448 201.264 139.406 201.264 137.802C201.264 136.198 200.457 135.156 198.72 135.156C196.983 135.156 196.176 136.198 196.176 137.802C196.176 139.406 196.983 140.448 198.72 140.448ZM198.72 139.335C197.985 139.335 197.699 138.834 197.699 137.802C197.699 136.77 197.985 136.27 198.72 136.27C199.456 136.27 199.742 136.77 199.742 137.802C199.742 138.834 199.456 139.335 198.72 139.335Z" fill="#922859"/>
<path d="M166.384 139.068H162.261V136.518H166.384V132.72H169.153V136.518H173.276V139.068H169.153V142.867H166.384V139.068Z" fill="#922859"/>
<path d="M42 132.65C42 130.231 43.9607 128.27 46.3793 128.27H141.402V167.267H46.3793C43.9607 167.267 42 165.306 42 162.887V132.65Z" fill="#E63780"/>
<path d="M66.0017 159.844C67.3675 159.844 68.2733 159.565 68.9423 158.938C69.444 158.464 69.7367 157.781 69.7367 156.931C69.7367 153.21 64.8728 154.492 64.8728 152.625C64.8728 152.025 65.2491 151.607 66.4198 151.607C67.0887 151.607 67.9249 151.733 68.7054 151.942L69.0398 150.325C68.3012 150.074 67.2978 149.935 66.378 149.935C64.3432 149.935 62.8241 150.785 62.8241 152.722C62.8241 156.471 67.688 155.175 67.688 156.959C67.688 157.837 67.0887 158.172 65.8066 158.172C65.1097 158.172 64.0087 157.99 63.1725 157.698L62.8381 159.356C63.7997 159.691 64.7892 159.844 66.0017 159.844ZM70.4298 159.844H72.1997L76.3947 149.935H74.6247L70.4298 159.844Z" fill="white"/>
<path d="M81.1119 160.099H84.7339L89.2792 147.197C89.5632 146.416 89.6579 145.635 89.6579 144.877C89.6579 144.522 89.6106 144.096 89.4922 143.907H78.934V146.321H86.4857L81.1119 160.099ZM96.8901 160.43C101.412 160.43 103.187 158.442 103.187 155.033C103.187 151.6 101.246 149.967 97.0084 149.967H96.1562L96.2982 146.321H102.24V143.907H93.3864L93.1024 150.772C93.0787 151.506 93.1024 152.121 93.2207 152.595H96.5113C99.1153 152.595 99.6835 153.494 99.6835 155.175C99.6835 156.785 98.8549 157.779 96.0615 157.779C94.9962 157.779 93.9309 157.684 93.0787 157.519V160.052C94.144 160.288 95.4697 160.43 96.8901 160.43Z" fill="white"/>
<path d="M106.068 159.792H106.157C106.768 159.792 107.087 159.55 107.087 158.913V158.761C107.087 158.124 106.768 157.882 106.157 157.882H106.068C105.457 157.882 105.138 158.124 105.138 158.761V158.913C105.138 159.55 105.457 159.792 106.068 159.792ZM110.463 159.792C111.622 159.792 112.437 159.537 113.023 158.952C113.787 158.188 114.207 156.889 114.207 154.864C114.207 152.228 113.367 150.738 111.036 150.738C109.011 150.738 107.954 151.846 107.954 153.781C107.954 155.526 108.859 156.494 110.412 156.494C111.011 156.494 111.724 156.354 112.297 156.048C112.271 156.927 112.131 157.525 111.749 157.907C111.405 158.251 110.883 158.366 110.043 158.366C109.584 158.366 109.113 158.315 108.668 158.238V159.627C109.253 159.728 109.839 159.792 110.463 159.792ZM111.049 155.118C110.119 155.118 109.763 154.826 109.763 153.718C109.763 152.661 110.183 152.126 110.998 152.126C111.991 152.126 112.322 152.839 112.322 154.507V154.991C111.966 155.068 111.418 155.118 111.049 155.118ZM118.53 159.792C120.95 159.792 121.867 158.251 121.867 155.271C121.867 152.291 120.95 150.738 118.53 150.738C116.111 150.738 115.194 152.291 115.194 155.271C115.194 158.251 116.111 159.792 118.53 159.792ZM118.53 158.328C117.499 158.328 117.091 157.678 117.091 155.271C117.091 152.864 117.499 152.075 118.53 152.075C119.562 152.075 119.969 152.864 119.969 155.271C119.969 157.678 119.562 158.328 118.53 158.328Z" fill="white"/>
<path d="M70.9026 138.206H71.6146V136.166H72.6306C73.2866 136.166 73.7346 136.006 74.0306 135.718C74.3346 135.414 74.4786 134.974 74.4786 134.39C74.4786 133.886 74.3506 133.47 74.0786 133.198C73.7666 132.878 73.2546 132.734 72.4706 132.734H70.9026V138.206ZM71.6146 135.59V133.294H72.4146C72.9426 133.294 73.2786 133.382 73.4866 133.59C73.6626 133.766 73.7426 134.03 73.7426 134.406C73.7426 134.838 73.6386 135.134 73.4466 135.318C73.2306 135.518 72.8866 135.59 72.3906 135.59H71.6146ZM75.1247 138.206H75.7887V132.486H75.1247V138.206ZM77.8284 138.318C78.3004 138.318 78.7164 138.166 79.0604 137.942L79.1004 138.206H79.6364V135.598C79.6364 135.086 79.5404 134.774 79.2924 134.534C79.0444 134.302 78.6524 134.174 78.0684 134.174C77.6924 134.174 77.2444 134.222 76.8764 134.31L76.9004 134.822C77.2844 134.758 77.6604 134.726 77.9564 134.726C78.3484 134.726 78.6044 134.798 78.7724 134.958C78.9164 135.102 78.9724 135.302 78.9724 135.622V135.87H78.1564C77.5884 135.87 77.1244 135.974 76.8284 136.246C76.6204 136.438 76.4924 136.726 76.4924 137.094C76.4924 137.462 76.6124 137.742 76.8044 137.942C77.0444 138.19 77.4044 138.318 77.8284 138.318ZM77.9724 137.782C77.4604 137.782 77.1644 137.55 77.1644 137.078C77.1644 136.838 77.2444 136.67 77.3804 136.558C77.5644 136.414 77.8444 136.358 78.2524 136.358H78.9724V137.526C78.6844 137.67 78.2924 137.782 77.9724 137.782ZM80.5263 138.206H81.1903V135.014C81.5103 134.862 81.9343 134.758 82.2863 134.758C82.5743 134.758 82.7823 134.822 82.9183 134.958C83.0543 135.094 83.1103 135.286 83.1103 135.622V138.206H83.7743V135.542C83.7743 135.054 83.6623 134.734 83.4463 134.518C83.2223 134.286 82.8863 134.174 82.4623 134.174C82.0063 134.174 81.5183 134.326 81.1103 134.574L81.0783 134.286H80.5263V138.206ZM87.3644 138.318C88.0684 138.318 88.5884 138.15 88.9164 137.814C89.2044 137.526 89.3564 137.118 89.3564 136.606C89.3564 136.11 89.2124 135.726 88.9404 135.446C88.6124 135.11 88.1324 134.966 87.3084 134.966H86.8924L86.9644 133.262H89.0204V132.734H86.4044L86.3004 135.038C86.2924 135.214 86.2924 135.27 86.2924 135.334C86.2924 135.39 86.3004 135.462 86.3164 135.502H87.2124C87.8124 135.502 88.1724 135.582 88.3884 135.798C88.5724 135.982 88.6604 136.278 88.6604 136.622C88.6604 137.014 88.5484 137.294 88.3324 137.478C88.1004 137.67 87.7804 137.758 87.2364 137.758C86.9884 137.758 86.5084 137.718 86.2204 137.67V138.19C86.5084 138.262 86.9884 138.318 87.3644 138.318ZM91.9333 138.318C93.2933 138.318 93.8133 137.262 93.8133 135.478C93.8133 133.694 93.2933 132.63 91.9333 132.63C90.5733 132.63 90.0533 133.694 90.0533 135.478C90.0533 137.262 90.5733 138.318 91.9333 138.318ZM91.9333 137.75C91.0453 137.75 90.7493 137.006 90.7493 135.478C90.7493 133.95 91.0453 133.198 91.9333 133.198C92.8213 133.198 93.1173 133.95 93.1173 135.478C93.1173 137.006 92.8213 137.75 91.9333 137.75ZM96.0098 138.206H96.6418V134.102L98.2178 137.046H98.8098L100.402 134.134V138.206H101.074V132.734H100.466L98.5378 136.334L96.6338 132.734H96.0098V138.206ZM103.867 138.318C104.843 138.318 105.395 137.654 105.395 136.23C105.395 134.822 104.827 134.174 103.875 134.174C103.491 134.174 103.067 134.31 102.747 134.486V132.486H102.083V138.206H102.619L102.651 137.942C102.963 138.158 103.443 138.318 103.867 138.318ZM103.715 137.766C103.395 137.766 103.011 137.646 102.747 137.486V134.966C103.011 134.838 103.395 134.742 103.699 134.742C104.395 134.742 104.699 135.174 104.699 136.23C104.699 137.366 104.379 137.766 103.715 137.766ZM106.097 140.006H106.761V138.022C107.049 138.206 107.473 138.318 107.881 138.318C108.817 138.318 109.409 137.702 109.409 136.23C109.409 134.982 108.921 134.174 107.905 134.174C107.545 134.174 107.089 134.302 106.681 134.574L106.649 134.286H106.097V140.006ZM107.713 137.766C107.377 137.766 106.993 137.662 106.761 137.526V135.006C107.065 134.846 107.457 134.742 107.761 134.742C108.417 134.742 108.713 135.222 108.713 136.222C108.713 137.342 108.425 137.766 107.713 137.766ZM111.142 138.318C112.086 138.318 112.726 137.95 112.726 137.118C112.726 135.718 110.542 136.134 110.542 135.254C110.542 134.886 110.838 134.702 111.398 134.702C111.718 134.702 112.078 134.75 112.43 134.83L112.486 134.342C112.174 134.246 111.734 134.174 111.342 134.174C110.51 134.174 109.918 134.542 109.918 135.302C109.918 136.742 112.102 136.286 112.102 137.166C112.102 137.566 111.758 137.782 111.118 137.782C110.774 137.782 110.342 137.726 110.022 137.638L109.99 138.15C110.286 138.246 110.766 138.318 111.142 138.318Z" fill="white"/>
</svg>
