<svg width="444" height="145" viewBox="0 0 444 145" fill="none" xmlns="http://www.w3.org/2000/svg">
<path d="M42.7997 45.0446C44.224 45.0446 46.1316 44.8157 47.1745 44.5104L46.7675 41.6109C45.7501 41.8143 44.4021 41.9669 43.5627 41.9669C41.6042 41.9669 40.5105 41.5854 39.7475 40.7206C38.8827 39.7541 38.5012 38.0245 38.5012 35.9643C38.5012 32.5052 39.366 30.038 43.1049 30.038C44.1986 30.038 45.4958 30.2669 46.8438 30.6484L47.3525 27.7489C46.2334 27.291 44.3003 26.9604 42.7997 26.9604C36.8479 26.9604 34.3807 30.623 34.3807 36.0661C34.3807 39.0928 35.0166 41.3565 36.4918 42.9335C37.789 44.307 39.722 45.0446 42.7997 45.0446ZM55.04 45.0446C59.3639 45.0446 61.3733 42.4502 61.3733 38.4569C61.3733 34.4637 59.3639 31.8693 55.04 31.8693C50.7161 31.8693 48.7067 34.4637 48.7067 38.4569C48.7067 42.4502 50.7161 45.0446 55.04 45.0446ZM55.04 42.2722C53.2087 42.2722 52.4965 41.0259 52.4965 38.4569C52.4965 35.888 53.2087 34.6417 55.04 34.6417C56.8713 34.6417 57.5835 35.888 57.5835 38.4569C57.5835 41.0259 56.8713 42.2722 55.04 42.2722ZM67.8428 45.0446C71.5818 45.0446 73.4639 43.5439 73.4639 40.9496C73.4639 35.7863 66.6474 37.7956 66.6474 35.6845C66.6474 34.9724 67.3596 34.6671 68.6568 34.6671C69.6742 34.6671 71.2002 34.8706 72.4974 35.2267L72.7772 32.5561C71.4292 32.0982 69.8776 31.8693 68.6313 31.8693C64.8924 31.8693 63.2137 33.5735 63.2137 35.888C63.2137 41.0513 70.0048 38.8893 70.0048 41.1022C70.0048 41.9924 69.14 42.2467 67.7665 42.2467C66.4185 42.2467 64.6889 41.9669 63.7478 41.6617L63.4681 44.3578C64.46 44.7139 66.3676 45.0446 67.8428 45.0446ZM80.7538 45.0446C81.8475 45.0446 83.1192 44.9174 83.9332 44.7393L83.806 42.1704C83.3736 42.2213 82.5597 42.323 82.051 42.323C80.5758 42.323 80.296 41.8143 80.296 40.4154V34.5908H83.5262V32.2254H80.296V28.9189C79.126 28.9189 77.7525 29.1224 76.6588 29.453V32.2254L74.5477 32.6069V34.5908H76.6588V40.9241C76.6588 43.6711 77.6508 45.0446 80.7538 45.0446ZM91.7764 45.0446C96.1004 45.0446 98.1097 42.4502 98.1097 38.4569C98.1097 34.4637 96.1004 31.8693 91.7764 31.8693C87.4525 31.8693 85.4432 34.4637 85.4432 38.4569C85.4432 42.4502 87.4525 45.0446 91.7764 45.0446ZM91.7764 42.2722C89.9451 42.2722 89.2329 41.0259 89.2329 38.4569C89.2329 35.888 89.9451 34.6417 91.7764 34.6417C93.6077 34.6417 94.3199 35.888 94.3199 38.4569C94.3199 41.0259 93.6077 42.2722 91.7764 42.2722ZM110.318 45.0446C111.844 45.0446 113.192 44.5104 114.26 43.7983L114.336 44.6885H117.49V26.5026H113.853V32.785C112.887 32.2 111.64 31.8693 110.547 31.8693C107.571 31.8693 105.612 34.3365 105.612 38.4824C105.612 40.9241 106.172 42.8317 107.342 43.9763C108.054 44.663 109.097 45.0446 110.318 45.0446ZM111.691 42.1959C110.038 42.1959 109.427 41.3565 109.427 38.5841C109.427 35.5828 110.419 34.7435 112.124 34.7435C112.581 34.7435 113.294 34.8452 113.853 35.0232V41.7635C113.217 42.0178 112.276 42.1959 111.691 42.1959ZM126.736 45.0446C128.288 45.0446 129.738 44.8411 130.933 44.6122L130.653 41.9669C129.712 42.145 128.441 42.2722 127.55 42.2722C125.109 42.2722 123.811 41.6872 123.71 39.5761H131.366C131.569 39.5761 131.671 39.4998 131.671 39.2963V38.1517C131.671 33.8278 129.687 31.8693 125.948 31.8693C122.133 31.8693 119.894 34.1076 119.894 38.4824C119.894 40.4663 120.327 42.2467 121.573 43.4422C122.641 44.4596 124.396 45.0446 126.736 45.0446ZM123.71 37.2106C123.786 35.6082 124.447 34.6163 125.923 34.6163C127.372 34.6163 128.11 35.6337 128.11 37.2106H123.71ZM141.487 30.1397H141.665C142.911 30.1397 143.572 29.6565 143.572 28.4102V28.0795C143.572 26.8332 142.911 26.3245 141.665 26.3245H141.487C140.241 26.3245 139.579 26.8332 139.579 28.0795V28.4102C139.579 29.6565 140.241 30.1397 141.487 30.1397ZM139.757 44.6885H143.394V32.2254H139.757V44.6885ZM146.512 44.6885H150.149V35.303C150.734 35.0741 151.827 34.8961 152.514 34.8961C153.252 34.8961 153.761 34.9978 154.091 35.303C154.346 35.5574 154.473 35.9135 154.473 36.5493V44.6885H158.11V36.1169C158.11 34.6671 157.805 33.5735 157.042 32.8358C156.355 32.1491 155.134 31.8693 154.04 31.8693C152.718 31.8693 151.115 32.2254 149.742 33.1156L149.666 32.2254H146.512V44.6885ZM165.136 45.0446C168.875 45.0446 170.757 43.5439 170.757 40.9496C170.757 35.7863 163.941 37.7956 163.941 35.6845C163.941 34.9724 164.653 34.6671 165.95 34.6671C166.967 34.6671 168.493 34.8706 169.791 35.2267L170.07 32.5561C168.722 32.0982 167.171 31.8693 165.925 31.8693C162.186 31.8693 160.507 33.5735 160.507 35.888C160.507 41.0513 167.298 38.8893 167.298 41.1022C167.298 41.9924 166.433 42.2467 165.06 42.2467C163.712 42.2467 161.982 41.9669 161.041 41.6617L160.761 44.3578C161.753 44.7139 163.661 45.0446 165.136 45.0446ZM178.047 45.0446C179.141 45.0446 180.412 44.9174 181.226 44.7393L181.099 42.1704C180.667 42.2213 179.853 42.323 179.344 42.323C177.869 42.323 177.589 41.8143 177.589 40.4154V34.5908H180.819V32.2254H177.589V28.9189C176.419 28.9189 175.046 29.1224 173.952 29.453V32.2254L171.841 32.6069V34.5908H173.952V40.9241C173.952 43.6711 174.944 45.0446 178.047 45.0446ZM186.984 45.0446C188.307 45.0446 189.655 44.6122 190.723 43.9254L191.028 44.6885H193.902V36.6002C193.902 35.0995 193.572 34.0313 192.936 33.2937C192.071 32.2763 190.367 31.8693 188.459 31.8693C186.959 31.8693 185.305 32.0728 184.034 32.3271L184.212 34.9978C185.076 34.8198 186.526 34.6671 187.696 34.6671C188.688 34.6671 189.375 34.7943 189.807 35.1758C190.112 35.4556 190.265 35.888 190.265 36.5748V36.9817H188.281C185.967 36.9817 184.593 37.2869 183.703 38.1263C182.991 38.813 182.609 39.8304 182.609 40.9496C182.609 43.3659 184.135 45.0446 186.984 45.0446ZM188.027 42.2722C186.704 42.2722 186.246 41.7126 186.246 40.7969C186.246 40.3391 186.374 39.983 186.602 39.7541C186.933 39.4235 187.467 39.3217 188.332 39.3217H190.265V41.8906C189.68 42.0687 188.714 42.2722 188.027 42.2722ZM196.961 44.6885H200.598V26.5026H196.961V44.6885ZM207.327 45.0446C208.65 45.0446 209.998 44.6122 211.066 43.9254L211.371 44.6885H214.245V36.6002C214.245 35.0995 213.915 34.0313 213.279 33.2937C212.414 32.2763 210.71 31.8693 208.802 31.8693C207.301 31.8693 205.648 32.0728 204.376 32.3271L204.555 34.9978C205.419 34.8198 206.869 34.6671 208.039 34.6671C209.031 34.6671 209.718 34.7943 210.15 35.1758C210.455 35.4556 210.608 35.888 210.608 36.5748V36.9817H208.624C206.31 36.9817 204.936 37.2869 204.046 38.1263C203.334 38.813 202.952 39.8304 202.952 40.9496C202.952 43.3659 204.478 45.0446 207.327 45.0446ZM208.37 42.2722C207.047 42.2722 206.589 41.7126 206.589 40.7969C206.589 40.3391 206.716 39.983 206.945 39.7541C207.276 39.4235 207.81 39.3217 208.675 39.3217H210.608V41.8906C210.023 42.0687 209.056 42.2722 208.37 42.2722ZM223.408 45.0446C224.782 45.0446 225.697 44.9174 226.918 44.6376L226.638 42.0178C225.85 42.1704 224.858 42.2722 224.044 42.2722C221.424 42.2722 220.381 41.0259 220.381 38.4569C220.381 37.1852 220.61 36.2187 221.221 35.5574C221.755 34.9978 222.62 34.6671 223.739 34.6671C224.782 34.6671 225.85 34.8198 226.613 35.0232L226.842 32.3271C225.646 31.9965 224.324 31.8693 223.179 31.8693C221.119 31.8693 219.313 32.5306 218.194 33.7261C217.075 34.9469 216.592 36.6511 216.592 38.7367C216.592 40.1102 216.922 41.5091 217.609 42.5519C218.906 44.5613 221.272 45.0446 223.408 45.0446ZM230.807 30.1397H230.985C232.231 30.1397 232.892 29.6565 232.892 28.4102V28.0795C232.892 26.8332 232.231 26.3245 230.985 26.3245H230.807C229.561 26.3245 228.899 26.8332 228.899 28.0795V28.4102C228.899 29.6565 229.561 30.1397 230.807 30.1397ZM229.077 44.6885H232.714V32.2254H229.077V44.6885ZM239.571 30.4704L244.734 26.9858L242.953 24.5695L238.299 28.8934L239.571 30.4704ZM241.529 45.0446C245.853 45.0446 247.862 42.4502 247.862 38.4569C247.862 34.4637 245.853 31.8693 241.529 31.8693C237.205 31.8693 235.196 34.4637 235.196 38.4569C235.196 42.4502 237.205 45.0446 241.529 45.0446ZM241.529 42.2722C239.698 42.2722 238.986 41.0259 238.986 38.4569C238.986 35.888 239.698 34.6417 241.529 34.6417C243.36 34.6417 244.073 35.888 244.073 38.4569C244.073 41.0259 243.36 42.2722 241.529 42.2722ZM250.288 44.6885H253.925V35.303C254.51 35.0741 255.604 34.8961 256.29 34.8961C257.028 34.8961 257.537 34.9978 257.867 35.303C258.122 35.5574 258.249 35.9135 258.249 36.5493V44.6885H261.886V36.1169C261.886 34.6671 261.581 33.5735 260.818 32.8358C260.131 32.1491 258.91 31.8693 257.816 31.8693C256.494 31.8693 254.891 32.2254 253.518 33.1156L253.442 32.2254H250.288V44.6885Z" fill="white"/>
<path d="M76.261 103.592L76.4525 104.214L76.9122 104.073V103.592H76.261ZM76.261 80.691H76.9122V80.0398H76.261V80.691ZM59.7908 80.691V80.0398H59.1396V80.691H59.7908ZM59.7908 88.0402H59.1396V88.6915H59.7908V88.0402ZM66.0902 88.0402H66.7414V87.389H66.0902V88.0402ZM66.0902 97.4893L66.1972 98.1316L66.7414 98.0409V97.4893H66.0902ZM51.9823 94.3396L51.4524 94.7181L51.4524 94.7181L51.9823 94.3396ZM72.7832 68.8797L72.6043 69.5059L73.2997 69.7046L73.4247 68.9923L72.7832 68.8797ZM74.0956 61.3993L74.737 61.5118L74.8259 61.0053L74.3538 60.8014L74.0956 61.3993ZM60.2502 106.54C65.2306 106.54 72.1199 105.547 76.4525 104.214L76.0695 102.969C71.8717 104.261 65.1125 105.237 60.2502 105.237V106.54ZM76.9122 103.592V80.691H75.6098V103.592H76.9122ZM76.261 80.0398H59.7908V81.3422H76.261V80.0398ZM59.1396 80.691V88.0402H60.4421V80.691H59.1396ZM59.7908 88.6915H66.0902V87.389H59.7908V88.6915ZM65.439 88.0402V97.4893H66.7414V88.0402H65.439ZM65.9831 96.8469C64.4413 97.1039 62.2462 97.2974 60.6439 97.2974V98.5998C62.3225 98.5998 64.5894 98.3996 66.1972 98.1316L65.9831 96.8469ZM60.6439 97.2974C56.4546 97.2974 53.9953 96.0374 52.5122 93.9611L51.4524 94.7181C53.2502 97.2351 56.1715 98.5998 60.6439 98.5998V97.2974ZM52.5122 93.9611C50.6703 91.3824 50.0088 87.4298 50.0088 82.3971H48.7063C48.7063 87.4696 49.3571 91.7848 51.4524 94.7181L52.5122 93.9611ZM50.0088 82.3971C50.0088 77.572 50.9352 73.9594 52.8668 71.5602C54.7752 69.1898 57.7591 67.8905 62.1531 67.8905V66.5881C57.4918 66.5881 54.0779 67.9791 51.8523 70.7434C49.65 73.4788 48.7063 77.4451 48.7063 82.3971H50.0088ZM62.1531 67.8905C65.6179 67.8905 69.4269 68.5981 72.6043 69.5059L72.9621 68.2536C69.709 67.3241 65.775 66.5881 62.1531 66.5881V67.8905ZM73.4247 68.9923L74.737 61.5118L73.4542 61.2867L72.1418 68.7672L73.4247 68.9923ZM74.3538 60.8014C71.3597 59.5085 65.9496 58.5827 61.4313 58.5827V59.8851C65.8371 59.8851 71.0571 60.7965 73.8374 61.9971L74.3538 60.8014ZM61.4313 58.5827C53.647 58.5827 47.7792 61.0094 43.8645 65.308C39.9588 69.5966 38.0762 75.6616 38.0762 82.7908H39.3786C39.3786 75.8777 41.2035 70.1642 44.8274 66.185C48.4424 62.2156 53.9266 59.8851 61.4313 59.8851V58.5827ZM38.0762 82.7908C38.0762 89.9733 39.4462 95.9328 42.9624 100.099C46.4982 104.289 52.0941 106.54 60.2502 106.54V105.237C52.3298 105.237 47.1643 103.059 43.9578 99.2593C40.7318 95.4367 39.3786 89.8474 39.3786 82.7908H38.0762ZM84.6534 104.97H84.0022V105.621H84.6534V104.97ZM94.8899 104.97V105.621H95.5411V104.97H94.8899ZM94.8899 88.6964V88.0452H94.2387V88.6964H94.8899ZM100.533 88.6964L101.114 88.4015L100.933 88.0452H100.533V88.6964ZM108.801 104.97L108.22 105.265L108.401 105.621H108.801V104.97ZM120.35 104.97V105.621H121.451L120.92 104.656L120.35 104.97ZM110.638 87.3184L110.362 86.7285L109.732 87.0231L110.068 87.6324L110.638 87.3184ZM114.51 63.6959L114.956 63.2221L114.954 63.2198L114.51 63.6959ZM84.6534 60.0869V59.4357H84.0022V60.0869H84.6534ZM94.8899 81.2816H94.2387V81.9328H94.8899V81.2816ZM94.8899 67.5018V66.8505H94.2387V67.5018H94.8899ZM106.307 69.1422L106.768 68.6817L106.762 68.6758L106.756 68.6701L106.307 69.1422ZM84.6534 105.621H94.8899V104.319H84.6534V105.621ZM95.5411 104.97V88.6964H94.2387V104.97H95.5411ZM94.8899 89.3477H100.533V88.0452H94.8899V89.3477ZM99.9525 88.9914L108.22 105.265L109.382 104.675L101.114 88.4015L99.9525 88.9914ZM108.801 105.621H120.35V104.319H108.801V105.621ZM120.92 104.656L111.209 87.0045L110.068 87.6324L119.779 105.284L120.92 104.656ZM110.914 87.9084C116.246 85.4155 118.901 80.2925 118.901 73.998H117.599C117.599 79.9084 115.136 84.4969 110.362 86.7285L110.914 87.9084ZM118.901 73.998C118.901 69.1399 117.414 65.5388 114.956 63.2221L114.063 64.1697C116.199 66.1838 117.599 69.407 117.599 73.998H118.901ZM114.954 63.2198C111.802 60.2778 107.302 59.4357 100.074 59.4357V60.7381C107.282 60.7381 111.312 61.6021 114.065 64.172L114.954 63.2198ZM100.074 59.4357H84.6534V60.7381H100.074V59.4357ZM84.0022 60.0869V104.97H85.3047V60.0869H84.0022ZM95.5411 81.2816V67.5018H94.2387V81.2816H95.5411ZM94.8899 68.153H99.4831V66.8505H94.8899V68.153ZM99.4831 68.153C102.838 68.153 104.753 68.5636 105.859 69.6144L106.756 68.6701C105.237 67.2274 102.821 66.8505 99.4831 66.8505V68.153ZM105.847 69.6027C106.724 70.4794 107.231 71.9163 107.231 74.1292H108.533C108.533 71.7488 107.991 69.9048 106.768 68.6817L105.847 69.6027ZM107.231 74.1292C107.231 76.5539 106.652 78.2806 105.558 79.2105L106.401 80.2029C107.932 78.9019 108.533 76.6915 108.533 74.1292H107.231ZM105.558 79.2105C104.431 80.1681 102.797 80.6304 99.4175 80.6304V81.9328C102.862 81.9328 104.903 81.4764 106.401 80.2029L105.558 79.2105ZM99.4175 80.6304H94.8899V81.9328H99.4175V80.6304ZM122.675 104.97L122.058 104.763L121.77 105.621H122.675V104.97ZM132.452 104.97V105.621H132.933L133.075 105.161L132.452 104.97ZM135.93 93.6834V93.0322H135.449L135.308 93.4916L135.93 93.6834ZM150.497 93.6834L151.115 93.4785L150.967 93.0322H150.497V93.6834ZM154.237 104.97L153.619 105.175L153.767 105.621H154.237V104.97ZM165.196 104.97V105.621H166.123L165.808 104.749L165.196 104.97ZM148.988 60.0869L149.6 59.8657L149.445 59.4357H148.988V60.0869ZM137.702 60.0869V59.4357H137.233L137.084 59.8802L137.702 60.0869ZM138.292 86.2686L137.67 86.0749L137.407 86.9198H138.292V86.2686ZM142.951 71.3076V70.6564H142.472L142.329 71.114L142.951 71.3076ZM143.082 71.3076L143.701 71.1041L143.554 70.6564H143.082V71.3076ZM148.004 86.2686V86.9198H148.903L148.622 86.0651L148.004 86.2686ZM122.675 105.621H132.452V104.319H122.675V105.621ZM133.075 105.161L136.552 93.8752L135.308 93.4916L131.83 104.778L133.075 105.161ZM135.93 94.3346H150.497V93.0322H135.93V94.3346ZM149.879 93.8883L153.619 105.175L154.856 104.765L151.115 93.4785L149.879 93.8883ZM154.237 105.621H165.196V104.319H154.237V105.621ZM165.808 104.749L149.6 59.8657L148.375 60.3081L164.583 105.191L165.808 104.749ZM148.988 59.4357H137.702V60.7381H148.988V59.4357ZM137.084 59.8802L122.058 104.763L123.293 105.176L138.319 60.2937L137.084 59.8802ZM138.914 86.4622L143.573 71.5012L142.329 71.114L137.67 86.0749L138.914 86.4622ZM142.951 71.9588H143.082V70.6564H142.951V71.9588ZM142.464 71.5111L147.385 86.472L148.622 86.0651L143.701 71.1041L142.464 71.5111ZM148.004 85.6173H138.292V86.9198H148.004V85.6173ZM177.099 104.97H176.447V105.621H177.099V104.97ZM187.335 104.97V105.621H187.986V104.97H187.335ZM187.335 67.5018V66.8505H186.684V67.5018H187.335ZM200.918 67.5018V68.153H201.504L201.566 67.5705L200.918 67.5018ZM201.705 60.0869L202.353 60.1557L202.429 59.4357H201.705V60.0869ZM163.188 60.0869V59.4357H162.536V60.0869H163.188ZM163.188 67.5018H162.536V68.153H163.188V67.5018ZM177.099 67.5018H177.75V66.8505H177.099V67.5018ZM177.099 105.621H187.335V104.319H177.099V105.621ZM187.986 104.97V67.5018H186.684V104.97H187.986ZM187.335 68.153H200.918V66.8505H187.335V68.153ZM201.566 67.5705L202.353 60.1557L201.058 60.0181L200.27 67.433L201.566 67.5705ZM201.705 59.4357H163.188V60.7381H201.705V59.4357ZM162.536 60.0869V67.5018H163.839V60.0869H162.536ZM163.188 68.153H177.099V66.8505H163.188V68.153ZM176.447 67.5018V104.97H177.75V67.5018H176.447ZM207.178 104.97H206.527V105.621H207.178V104.97ZM217.414 104.97V105.621H218.066V104.97H217.414ZM217.414 60.0869H218.066V59.4357H217.414V60.0869ZM207.178 60.0869V59.4357H206.527V60.0869H207.178ZM207.178 105.621H217.414V104.319H207.178V105.621ZM218.066 104.97V60.0869H216.763V104.97H218.066ZM217.414 59.4357H207.178V60.7381H217.414V59.4357ZM206.527 60.0869V104.97H207.829V60.0869H206.527ZM254.332 101.623L254.778 102.098L254.779 102.097L254.332 101.623ZM253.217 68.6829L253.048 69.3119L253.715 69.4904L253.854 68.8148L253.217 68.6829ZM254.792 61.0712L255.429 61.2031L255.546 60.6396L255.001 60.4546L254.792 61.0712ZM227.166 95.7832L227.381 95.1685L226.676 94.9215L226.528 95.6544L227.166 95.7832ZM225.591 103.592L224.953 103.463L224.841 104.02L225.378 104.207L225.591 103.592ZM240.487 106.54C247.003 106.54 251.46 105.209 254.778 102.098L253.887 101.148C250.906 103.943 246.832 105.237 240.487 105.237V106.54ZM254.779 102.097C257.287 99.7281 258.724 96.3338 258.724 92.1742H257.421C257.421 96.02 256.102 99.0562 253.885 101.15L254.779 102.097ZM258.724 92.1742C258.724 87.6321 257.231 84.5479 254.942 82.3787C252.682 80.2363 249.699 79.0381 246.815 78.1416C245.375 77.6939 243.92 77.3103 242.597 76.932C241.258 76.5493 240.042 76.169 239.012 75.7159C237.98 75.2617 237.182 74.7547 236.644 74.1448C236.123 73.5526 235.823 72.8381 235.823 71.8982H234.521C234.521 73.1565 234.937 74.1768 235.667 75.0059C236.382 75.8173 237.373 76.418 238.488 76.9081C239.605 77.3994 240.894 77.7998 242.239 78.1843C243.599 78.5731 245.006 78.9431 246.429 79.3853C249.27 80.2688 252.012 81.3959 254.046 83.3239C256.052 85.2251 257.421 87.9562 257.421 92.1742H258.724ZM235.823 71.8982C235.823 70.6361 236.21 69.6584 237.136 68.9669C238.103 68.2455 239.755 67.7593 242.455 67.7593V66.4568C239.644 66.4568 237.654 66.9549 236.357 67.9231C235.02 68.9213 234.521 70.3387 234.521 71.8982H235.823ZM242.455 67.7593C245.535 67.7593 249.415 68.3387 253.048 69.3119L253.385 68.0538C249.669 67.0585 245.675 66.4568 242.455 66.4568V67.7593ZM253.854 68.8148L255.429 61.2031L254.154 60.9392L252.579 68.551L253.854 68.8148ZM255.001 60.4546C251.44 59.2452 246.642 58.5827 242.258 58.5827V59.8851C246.537 59.8851 251.188 60.535 254.582 61.6878L255.001 60.4546ZM242.258 58.5827C237.392 58.5827 233.057 59.5972 229.92 61.8461C226.752 64.1176 224.875 67.6019 224.875 72.3575H226.177C226.177 67.9922 227.876 64.9147 230.679 62.9046C233.514 60.8719 237.545 59.8851 242.258 59.8851V58.5827ZM224.875 72.3575C224.875 76.9306 226.367 80.0356 228.655 82.2118C230.917 84.3619 233.901 85.5519 236.788 86.4244C238.231 86.8608 239.683 87.2267 241.011 87.5856C242.351 87.948 243.568 88.3042 244.6 88.7295C245.636 89.1562 246.432 89.632 246.966 90.205C247.483 90.7585 247.775 91.424 247.775 92.3054H249.078C249.078 91.0871 248.655 90.106 247.919 89.3166C247.201 88.5467 246.208 87.9834 245.096 87.5253C243.981 87.0658 242.694 86.6915 241.351 86.3283C239.994 85.9615 238.584 85.6066 237.165 85.1777C234.326 84.3195 231.585 83.2005 229.553 81.2679C227.548 79.3615 226.177 76.6101 226.177 72.3575H224.875ZM247.775 92.3054C247.775 94.1986 247.146 95.3906 245.917 96.1575C244.618 96.9671 242.559 97.363 239.568 97.363V98.6654C242.614 98.6654 244.984 98.2739 246.606 97.2626C248.296 96.2086 249.078 94.5462 249.078 92.3054H247.775ZM239.568 97.363C236.365 97.363 231.254 96.5239 227.381 95.1685L226.951 96.3978C230.953 97.7985 236.209 98.6654 239.568 98.6654V97.363ZM226.528 95.6544L224.953 103.463L226.23 103.72L227.805 95.9119L226.528 95.6544ZM225.378 104.207C229.985 105.81 234.718 106.54 240.487 106.54V105.237C234.838 105.237 230.253 104.524 225.805 102.977L225.378 104.207Z" fill="#019DF4"/>
<path d="M60.2502 100.679C65.1715 100.679 71.9958 99.6944 76.261 98.382V75.4813H59.7908V82.8305H66.0902V92.2795C64.5153 92.542 62.2843 92.7389 60.6439 92.7389C56.3131 92.7389 53.6227 91.4265 51.9823 89.1299C50.0137 86.3739 49.3576 82.24 49.3576 77.1874C49.3576 67.4103 53.0978 62.0296 62.1531 62.0296C65.6965 62.0296 69.5679 62.7514 72.7832 63.67L74.0956 56.1896C71.2084 54.9428 65.8933 54.0242 61.4313 54.0242C46.1423 54.0242 38.7274 63.5388 38.7274 77.5811C38.7274 91.8202 44.1737 100.679 60.2502 100.679ZM84.6534 99.76H94.8899V83.4867H100.533L108.801 99.76H120.35L110.638 82.1087C115.691 79.7465 118.25 74.8907 118.25 68.7882C118.25 64.0637 116.806 60.6516 114.51 58.4862C111.557 55.7302 107.292 54.8772 100.074 54.8772H84.6534V99.76ZM94.8899 76.0719V62.292H99.4831C102.83 62.292 104.995 62.6858 106.307 63.9325C107.357 64.9824 107.882 66.6228 107.882 68.9195C107.882 71.413 107.292 73.3815 105.979 74.497C104.667 75.6125 102.83 76.0719 99.4175 76.0719H94.8899ZM122.675 99.76H132.452L135.93 88.4737H150.497L154.237 99.76H165.196L148.988 54.8772H137.702L122.675 99.76ZM138.292 81.0588L142.951 66.0979H143.082L148.004 81.0588H138.292ZM177.099 99.76H187.335V62.292H200.918L201.705 54.8772H163.188V62.292H177.099V99.76ZM207.178 99.76H217.414V54.8772H207.178V99.76ZM240.487 100.679C246.917 100.679 251.183 99.3663 254.332 96.4135C256.694 94.1825 258.072 90.9672 258.072 86.9645C258.072 69.4444 235.172 75.4813 235.172 66.6885C235.172 63.8669 236.943 61.8983 242.455 61.8983C245.605 61.8983 249.542 62.4889 253.217 63.4732L254.792 55.8615C251.314 54.6803 246.589 54.0242 242.258 54.0242C232.678 54.0242 225.526 58.0269 225.526 67.1478C225.526 84.7991 248.427 78.6966 248.427 87.0957C248.427 91.2297 245.605 92.8045 239.568 92.8045C236.287 92.8045 231.103 91.9515 227.166 90.5735L225.591 98.382C230.119 99.9569 234.778 100.679 240.487 100.679Z" fill="#019DF4"/>
<path d="M36.9547 128.323H38.6011V123.606H40.9503C42.4672 123.606 43.503 123.236 44.1875 122.57C44.8904 121.867 45.2234 120.85 45.2234 119.499C45.2234 118.334 44.9274 117.372 44.2985 116.743C43.577 116.003 42.3932 115.67 40.5803 115.67H36.9547V128.323ZM38.6011 122.274V116.965H40.4509C41.6717 116.965 42.4487 117.169 42.9296 117.649C43.3366 118.056 43.5215 118.667 43.5215 119.536C43.5215 120.535 43.2811 121.22 42.8371 121.645C42.3377 122.108 41.5422 122.274 40.3954 122.274H38.6011ZM49.1676 128.582C50.259 128.582 51.2209 128.23 52.0163 127.712L52.1088 128.323H53.3482V122.293C53.3482 121.109 53.1262 120.387 52.5528 119.832C51.9793 119.296 51.0729 119 49.7226 119C48.8532 119 47.8173 119.111 46.9664 119.314L47.0219 120.498C47.9098 120.35 48.7792 120.276 49.4636 120.276C50.37 120.276 50.962 120.443 51.3504 120.813C51.6834 121.146 51.8129 121.608 51.8129 122.348V122.921H49.9261C48.6127 122.921 47.5398 123.162 46.8554 123.791C46.3744 124.235 46.0785 124.901 46.0785 125.752C46.0785 126.603 46.3559 127.25 46.7999 127.712C47.3548 128.286 48.1872 128.582 49.1676 128.582ZM49.5006 127.342C48.3167 127.342 47.6323 126.806 47.6323 125.715C47.6323 125.16 47.8173 124.771 48.1318 124.512C48.5572 124.179 49.2046 124.05 50.148 124.05H51.8129V126.751C51.1469 127.084 50.2405 127.342 49.5006 127.342ZM55.8988 128.323H57.4341V120.998C58.0815 120.591 58.84 120.387 59.6354 120.387C59.8944 120.387 60.2273 120.406 60.4308 120.424V119.055C60.2273 119.018 60.0053 119 59.8389 119C59.0434 119 58.137 119.314 57.2676 120.036L57.1751 119.259H55.8988V128.323ZM64.2154 128.582C65.3068 128.582 66.2687 128.23 67.0641 127.712L67.1566 128.323H68.3959V122.293C68.3959 121.109 68.174 120.387 67.6005 119.832C67.0271 119.296 66.1207 119 64.7703 119C63.9009 119 62.865 119.111 62.0141 119.314L62.0696 120.498C62.9575 120.35 63.8269 120.276 64.5114 120.276C65.4178 120.276 66.0097 120.443 66.3982 120.813C66.7311 121.146 66.8606 121.608 66.8606 122.348V122.921H64.9738C63.6604 122.921 62.5876 123.162 61.9031 123.791C61.4222 124.235 61.1262 124.901 61.1262 125.752C61.1262 126.603 61.4037 127.25 61.8476 127.712C62.4026 128.286 63.235 128.582 64.2154 128.582ZM64.5484 127.342C63.3645 127.342 62.68 126.806 62.68 125.715C62.68 125.16 62.865 124.771 63.1795 124.512C63.6049 124.179 64.2524 124.05 65.1958 124.05H66.8606V126.751C66.1947 127.084 65.2883 127.342 64.5484 127.342ZM77.8667 128.582C78.5326 128.582 79.254 128.471 79.735 128.341L79.661 127.213C79.217 127.305 78.6066 127.361 78.2921 127.361C77.6447 127.361 77.3302 127.231 77.1267 127.01C76.8678 126.732 76.8123 126.288 76.8123 125.419V120.387H79.1985V119.259H76.8123V116.854C76.3313 116.854 75.7209 116.984 75.2769 117.132V119.277L73.6306 119.518V120.387H75.2769V125.622C75.2769 126.751 75.4064 127.361 75.8504 127.879C76.2573 128.341 76.9788 128.582 77.8667 128.582ZM84.4748 128.582C85.5292 128.582 86.6206 128.23 87.564 127.657L87.638 128.323H88.9143V119.259H87.379V126.64C86.6391 126.991 85.6957 127.231 84.8818 127.231C84.2158 127.231 83.7349 127.084 83.4204 126.769C83.106 126.455 82.9765 126.011 82.9765 125.234V119.259H81.4411V125.419C81.4411 126.547 81.7001 127.287 82.1996 127.786C82.7175 128.323 83.4944 128.582 84.4748 128.582ZM95.2794 132.485H96.8148V127.897C97.4807 128.323 98.4611 128.582 99.4045 128.582C101.569 128.582 102.938 127.157 102.938 123.754C102.938 120.868 101.809 119 99.46 119C98.6276 119 97.5732 119.296 96.6298 119.925L96.5558 119.259H95.2794V132.485ZM99.016 127.305C98.2391 127.305 97.3512 127.065 96.8148 126.751V120.924C97.5177 120.554 98.4241 120.313 99.127 120.313C100.644 120.313 101.328 121.423 101.328 123.735C101.328 126.325 100.662 127.305 99.016 127.305ZM105.071 128.323H106.606V115.097H105.071V128.323ZM111.815 128.582C112.907 128.582 113.869 128.23 114.664 127.712L114.757 128.323H115.996V122.293C115.996 121.109 115.774 120.387 115.201 119.832C114.627 119.296 113.721 119 112.37 119C111.501 119 110.465 119.111 109.614 119.314L109.67 120.498C110.558 120.35 111.427 120.276 112.111 120.276C113.018 120.276 113.61 120.443 113.998 120.813C114.331 121.146 114.461 121.608 114.461 122.348V122.921H112.574C111.26 122.921 110.188 123.162 109.503 123.791C109.022 124.235 108.726 124.901 108.726 125.752C108.726 126.603 109.004 127.25 109.448 127.712C110.003 128.286 110.835 128.582 111.815 128.582ZM112.148 127.342C110.964 127.342 110.28 126.806 110.28 125.715C110.28 125.16 110.465 124.771 110.78 124.512C111.205 124.179 111.852 124.05 112.796 124.05H114.461V126.751C113.795 127.084 112.888 127.342 112.148 127.342ZM118.547 128.323H120.082V120.942C120.822 120.591 121.802 120.35 122.616 120.35C123.282 120.35 123.763 120.498 124.077 120.813C124.392 121.127 124.521 121.571 124.521 122.348V128.323H126.057V122.163C126.057 121.035 125.798 120.295 125.298 119.795C124.78 119.259 124.003 119 123.023 119C121.969 119 120.84 119.351 119.897 119.925L119.823 119.259H118.547V128.323ZM132.68 128.323H134.326V115.67H132.68V128.323ZM140.37 128.582C141.221 128.582 142.313 128.249 143.053 127.768L143.164 128.323H144.421V115.097H142.886V119.647C142.165 119.24 141.258 119 140.481 119C138.114 119 136.726 120.85 136.726 123.846C136.726 126.991 138.058 128.582 140.37 128.582ZM140.796 127.324C139.168 127.324 138.336 126.251 138.336 123.865C138.336 121.738 138.946 120.295 140.796 120.295C141.406 120.295 142.22 120.48 142.886 120.739V126.788C142.239 127.102 141.443 127.324 140.796 127.324ZM150.956 128.582C151.789 128.582 152.862 128.452 153.639 128.23L153.491 127.084C152.788 127.231 151.9 127.324 151.252 127.324C150.105 127.324 149.421 127.084 148.94 126.64C148.404 126.14 148.145 125.326 148.145 124.327H153.99C154.138 124.327 154.212 124.272 154.212 124.124V123.772C154.212 120.794 152.991 119 150.457 119C148.145 119 146.535 120.572 146.535 123.809C146.535 125.437 146.905 126.677 147.719 127.49C148.459 128.23 149.55 128.582 150.956 128.582ZM148.145 123.199C148.163 121.368 148.921 120.239 150.457 120.239C151.974 120.239 152.64 121.46 152.695 123.199H148.145ZM158.982 128.582C160.073 128.582 161.035 128.23 161.831 127.712L161.923 128.323H163.162V122.293C163.162 121.109 162.94 120.387 162.367 119.832C161.794 119.296 160.887 119 159.537 119C158.667 119 157.631 119.111 156.781 119.314L156.836 120.498C157.724 120.35 158.593 120.276 159.278 120.276C160.184 120.276 160.776 120.443 161.165 120.813C161.498 121.146 161.627 121.608 161.627 122.348V122.921H159.74C158.427 122.921 157.354 123.162 156.67 123.791C156.189 124.235 155.893 124.901 155.893 125.752C155.893 126.603 156.17 127.25 156.614 127.712C157.169 128.286 158.001 128.582 158.982 128.582ZM159.315 127.342C158.131 127.342 157.447 126.806 157.447 125.715C157.447 125.16 157.631 124.771 157.946 124.512C158.371 124.179 159.019 124.05 159.962 124.05H161.627V126.751C160.961 127.084 160.055 127.342 159.315 127.342ZM165.731 128.323H167.267V115.097H165.731V128.323ZM176.806 128.582C177.657 128.582 178.749 128.249 179.489 127.768L179.6 128.323H180.858V115.097H179.322V119.647C178.601 119.24 177.694 119 176.917 119C174.55 119 173.162 120.85 173.162 123.846C173.162 126.991 174.494 128.582 176.806 128.582ZM177.232 127.324C175.604 127.324 174.772 126.251 174.772 123.865C174.772 121.738 175.382 120.295 177.232 120.295C177.842 120.295 178.656 120.48 179.322 120.739V126.788C178.675 127.102 177.879 127.324 177.232 127.324ZM187.392 128.582C188.225 128.582 189.298 128.452 190.075 128.23L189.927 127.084C189.224 127.231 188.336 127.324 187.688 127.324C186.542 127.324 185.857 127.084 185.376 126.64C184.84 126.14 184.581 125.326 184.581 124.327H190.426C190.574 124.327 190.648 124.272 190.648 124.124V123.772C190.648 120.794 189.427 119 186.893 119C184.581 119 182.971 120.572 182.971 123.809C182.971 125.437 183.341 126.677 184.155 127.49C184.895 128.23 185.987 128.582 187.392 128.582ZM184.581 123.199C184.599 121.368 185.358 120.239 186.893 120.239C188.41 120.239 189.076 121.46 189.131 123.199H184.581ZM196.881 128.323H198.528V115.67H196.881V128.323ZM201.408 128.323H202.944V120.942C203.684 120.591 204.664 120.35 205.478 120.35C206.144 120.35 206.625 120.498 206.939 120.813C207.254 121.127 207.383 121.571 207.383 122.348V128.323H208.919V122.163C208.919 121.035 208.66 120.295 208.16 119.795C207.642 119.259 206.865 119 205.885 119C204.831 119 203.702 119.351 202.759 119.925L202.685 119.259H201.408V128.323ZM214.615 128.582C215.281 128.582 216.002 128.471 216.483 128.341L216.409 127.213C215.965 127.305 215.355 127.361 215.041 127.361C214.393 127.361 214.079 127.231 213.875 127.01C213.616 126.732 213.561 126.288 213.561 125.419V120.387H215.947V119.259H213.561V116.854C213.08 116.854 212.469 116.984 212.025 117.132V119.277L210.379 119.518V120.387H212.025V125.622C212.025 126.751 212.155 127.361 212.599 127.879C213.006 128.341 213.727 128.582 214.615 128.582ZM222.167 128.582C222.999 128.582 224.072 128.452 224.849 128.23L224.701 127.084C223.998 127.231 223.11 127.324 222.463 127.324C221.316 127.324 220.631 127.084 220.15 126.64C219.614 126.14 219.355 125.326 219.355 124.327H225.2C225.348 124.327 225.422 124.272 225.422 124.124V123.772C225.422 120.794 224.201 119 221.667 119C219.355 119 217.746 120.572 217.746 123.809C217.746 125.437 218.116 126.677 218.929 127.49C219.669 128.23 220.761 128.582 222.167 128.582ZM219.355 123.199C219.373 121.368 220.132 120.239 221.667 120.239C223.184 120.239 223.85 121.46 223.905 123.199H219.355ZM227.584 128.323H229.119V120.998C229.767 120.591 230.525 120.387 231.321 120.387C231.58 120.387 231.912 120.406 232.116 120.424V119.055C231.912 119.018 231.691 119 231.524 119C230.729 119 229.822 119.314 228.953 120.036L228.86 119.259H227.584V128.323ZM233.78 128.323H235.315V120.942C236.055 120.591 237.036 120.35 237.85 120.35C238.516 120.35 238.997 120.498 239.311 120.813C239.625 121.127 239.755 121.571 239.755 122.348V128.323H241.29V122.163C241.29 121.035 241.031 120.295 240.532 119.795C240.014 119.259 239.237 119 238.257 119C237.202 119 236.074 119.351 235.13 119.925L235.056 119.259H233.78V128.323ZM247.782 128.582C248.615 128.582 249.687 128.452 250.464 128.23L250.316 127.084C249.613 127.231 248.726 127.324 248.078 127.324C246.931 127.324 246.247 127.084 245.766 126.64C245.229 126.14 244.97 125.326 244.97 124.327H250.816C250.964 124.327 251.038 124.272 251.038 124.124V123.772C251.038 120.794 249.817 119 247.283 119C244.97 119 243.361 120.572 243.361 123.809C243.361 125.437 243.731 126.677 244.545 127.49C245.285 128.23 246.376 128.582 247.782 128.582ZM244.97 123.199C244.989 121.368 245.747 120.239 247.283 120.239C248.799 120.239 249.465 121.46 249.521 123.199H244.97ZM256.344 128.582C257.01 128.582 257.731 128.471 258.212 128.341L258.138 127.213C257.694 127.305 257.084 127.361 256.77 127.361C256.122 127.361 255.808 127.231 255.604 127.01C255.345 126.732 255.29 126.288 255.29 125.419V120.387H257.676V119.259H255.29V116.854C254.809 116.854 254.198 116.984 253.754 117.132V119.277L252.108 119.518V120.387H253.754V125.622C253.754 126.751 253.884 127.361 254.328 127.879C254.735 128.341 255.456 128.582 256.344 128.582Z" fill="white"/>
<path d="M16.8949 47.4616C17.2877 47.1133 17.7837 46.6969 18.3 46.356L18.4309 46.2399C18.9195 45.947 19.3602 45.6263 19.8211 45.3813C20.3576 45.116 20.9218 44.8028 21.4307 44.5855C21.9119 44.416 22.524 44.1305 23.0808 43.9408L23.4864 43.7916C23.892 43.6424 24.3732 43.473 24.7788 43.3238C26.9506 42.6608 29.2311 42.2523 31.5723 42.0706C32.1696 42.032 32.7669 41.9935 33.2886 41.9752C33.6868 41.9496 34.0573 41.9718 34.4279 41.994C34.5034 41.9738 34.5514 42.0015 34.627 41.9812L32.0732 43.6376C29.9805 45.0491 28.2731 46.2357 26.7371 47.4574C26.4752 47.6896 26.1378 47.942 25.876 48.1742L25.6141 48.4064L25.3523 48.6386C25.0628 48.9187 24.8009 49.1509 24.4635 49.4034L24.4358 49.4513C24.2772 49.6153 24.1186 49.7793 23.9121 49.9157C23.7535 50.0797 23.5949 50.2437 23.3608 50.428L23.3331 50.4759L23.3054 50.5238C22.9606 50.8998 22.6711 51.1799 22.3336 51.4323L22.0995 51.6166C21.8376 51.8488 21.6514 52.0607 21.4172 52.245L21.2863 52.3611C21.0244 52.5933 20.7349 52.8734 20.5007 53.0576L20.4731 53.1056L20.4454 53.1535C20.1836 53.3857 19.9217 53.6179 19.5364 53.8427L19.5087 53.8906L19.481 53.9385C19.1436 54.1909 18.9094 54.3752 18.6273 54.5318L17.7331 54.974C17.0933 55.3074 16.2969 55.3588 15.6186 55.0949C15.4472 55.0599 15.3034 54.9769 15.1597 54.8939C14.0575 54.2575 13.5694 52.8895 13.9662 51.649C14.147 51.1145 14.4034 50.5597 14.7077 50.0325C15.0877 49.4852 15.4399 48.9857 15.7368 48.5821C16.1296 48.2338 16.5021 47.8099 16.8949 47.4616Z" fill="#E63780"/>
<path d="M32.6024 18.7055C33.2396 20.4791 34.0612 22.4869 35.1149 24.7565L36.4136 27.4871C36.3657 27.4594 36.2699 27.4041 36.222 27.3764C35.8865 27.1827 35.599 27.0167 35.2635 26.8231C34.812 26.4985 34.2849 26.1941 33.8333 25.8695C31.9313 24.5158 30.1676 22.9225 28.734 21.2003C28.4336 20.8352 28.1333 20.4701 27.8808 20.1326L27.6284 19.7952C27.3078 19.3545 26.9871 18.9138 26.5983 18.3699C26.2575 17.8536 25.9166 17.3373 25.6236 16.8487C25.3786 16.3878 25.1336 15.9269 24.8683 15.3903L24.8278 15.2392C24.5902 14.6547 24.3802 14.0223 24.2108 13.5411C24.069 13.012 23.9272 12.4829 23.8205 11.7824C23.7543 11.233 23.6882 10.6836 23.705 9.99049C23.742 9.37295 23.827 8.78308 23.9323 8.26879C24.1003 7.53515 24.5355 6.89192 25.203 6.51054C26.0493 6.04073 27.0927 6.0042 27.9552 6.50221C28.3386 6.72354 28.6666 7.04072 28.9393 7.45374L29.4571 8.3277C29.6137 8.6098 29.7703 8.8919 29.8715 9.26984L29.8918 9.34543L29.912 9.42101C30.0889 9.7787 30.1902 10.1566 30.3191 10.4867L30.3394 10.5622L30.3596 10.6378C30.4886 10.9679 30.5696 11.2702 30.6708 11.6481L30.7113 11.7993C30.7924 12.1017 30.8734 12.404 30.9544 12.7064L31.0354 13.0087C31.1367 13.3867 31.2379 13.7646 31.3797 14.2937L31.4 14.3693L31.4202 14.4449C31.481 14.6717 31.5417 14.8984 31.6025 15.1252C31.6633 15.352 31.724 15.5787 31.7848 15.8055L31.805 15.8811C31.9063 16.259 32.0352 16.589 32.1365 16.967L32.2175 17.2693L32.3667 17.6749C32.3519 17.9219 32.4808 18.252 32.6024 18.7055Z" fill="#E63780"/>
<path d="M13.4668 26.506C15.6495 26.4883 17.7397 27.1839 19.2954 27.6987C21.2824 28.4626 23.2343 29.3978 25.1863 30.3331C26.823 31.1502 28.5279 32.0707 30.3009 33.0944L30.9239 33.454C31.5948 33.8414 32.2657 34.2287 32.861 34.6363C32.0923 34.6397 31.3236 34.6432 30.6304 34.6264C28.2284 34.5814 26.197 34.5586 24.1452 34.4602C23.5756 34.4508 22.9581 34.4138 22.3884 34.4044C20.8787 34.3633 19.321 34.2946 17.8389 34.2056C15.966 34.0189 14.0249 33.7288 12.1614 32.9724C12.0656 32.9171 11.9218 32.8341 11.826 32.7787C10.8197 32.1977 10.1932 31.0693 10.1641 29.9024C10.1518 28.0424 11.6547 26.546 13.4668 26.506Z" fill="#E63780"/>
<path d="M443.4 138.392C443.4 141.914 440.545 144.769 437.023 144.769L295.378 144.769C291.856 144.769 289 141.914 289 138.392L289 89.9092L443.4 89.9092L443.4 138.392Z" fill="#FBC7DE"/>
<path d="M322.625 128.059H332.066V125.85H326.09L328.666 123.035C331.005 120.48 331.828 119.072 331.828 117.232C331.828 115.997 331.46 115.044 330.767 114.352C329.857 113.442 328.45 112.966 326.328 112.966C325.115 112.966 323.751 113.161 322.885 113.377V115.672C323.816 115.499 324.942 115.391 325.786 115.391C326.847 115.391 327.584 115.564 328.038 115.954C328.428 116.279 328.623 116.755 328.623 117.383C328.623 118.617 327.93 119.592 326.284 121.584L323.404 125.092C322.777 125.85 322.538 126.456 322.538 127.366C322.538 127.604 322.56 127.885 322.625 128.059ZM340.46 128.362C344.574 128.362 346.133 125.742 346.133 120.675C346.133 115.607 344.574 112.966 340.46 112.966C336.345 112.966 334.786 115.607 334.786 120.675C334.786 125.742 336.345 128.362 340.46 128.362ZM340.46 125.872C338.706 125.872 338.013 124.767 338.013 120.675C338.013 116.582 338.706 115.239 340.46 115.239C342.213 115.239 342.906 116.582 342.906 120.675C342.906 124.767 342.213 125.872 340.46 125.872ZM353.444 128.362C357.558 128.362 359.117 125.742 359.117 120.675C359.117 115.607 357.558 112.966 353.444 112.966C349.329 112.966 347.77 115.607 347.77 120.675C347.77 125.742 349.329 128.362 353.444 128.362ZM353.444 125.872C351.69 125.872 350.997 124.767 350.997 120.675C350.997 116.582 351.69 115.239 353.444 115.239C355.198 115.239 355.89 116.582 355.89 120.675C355.89 124.767 355.198 125.872 353.444 125.872ZM361.534 128.059H364.37V119.44L367.532 124.681H370.13L373.205 119.527V128.059H376.302V113.247H373.703L368.875 121.519L364.197 113.247H361.534V128.059ZM385.074 128.362C386.394 128.362 387.347 127.972 388.083 127.127C388.863 126.24 389.274 124.616 389.274 122.71C389.274 118.596 387.629 117.145 385.225 117.145C384.207 117.145 383.038 117.426 382.302 117.859V112.576H379.205V128.059H381.76L381.912 127.387C382.8 127.972 383.969 128.362 385.074 128.362ZM384.142 125.936C383.536 125.936 382.8 125.698 382.302 125.417V119.917C382.8 119.722 383.471 119.635 384.142 119.635C385.442 119.635 386.026 120.22 386.026 122.753C386.026 125.135 385.55 125.936 384.142 125.936ZM391.322 132.931H394.419V127.582C395.22 128.08 396.303 128.362 397.256 128.362C399.659 128.362 401.391 126.868 401.391 122.688C401.391 120.718 400.958 119.029 399.962 118.054C399.356 117.47 398.49 117.145 397.429 117.145C396.13 117.145 395.004 117.621 394.094 118.228L394.007 117.448H391.322V132.931ZM396.346 125.915C395.675 125.915 394.917 125.828 394.419 125.612V119.938C394.939 119.787 395.761 119.657 396.259 119.657C397.667 119.657 398.143 120.371 398.143 122.645C398.143 125.2 397.645 125.915 396.346 125.915ZM406.882 128.362C410.066 128.362 411.668 127.084 411.668 124.875C411.668 120.48 405.865 122.19 405.865 120.393C405.865 119.787 406.471 119.527 407.575 119.527C408.441 119.527 409.741 119.7 410.845 120.003L411.083 117.73C409.936 117.34 408.615 117.145 407.554 117.145C404.37 117.145 402.941 118.596 402.941 120.566C402.941 124.962 408.723 123.121 408.723 125.005C408.723 125.763 407.987 125.98 406.817 125.98C405.67 125.98 404.197 125.742 403.396 125.482L403.158 127.777C404.002 128.08 405.626 128.362 406.882 128.362Z" fill="#922859"/>
<path d="M360.846 106.39H364.491C366.081 106.39 367.086 106.135 367.746 105.55C368.301 105.055 368.602 104.335 368.602 103.345C368.602 101.995 367.701 101.064 366.426 100.884C367.371 100.404 367.866 99.6994 367.866 98.6493C367.866 97.8993 367.611 97.2993 367.146 96.8942C366.546 96.3692 365.646 96.1292 364.191 96.1292H360.846V106.39ZM363.186 100.209V97.8243H364.041C364.671 97.8243 365.031 97.8993 365.256 98.1243C365.451 98.3193 365.541 98.6043 365.541 98.9794C365.541 99.3994 365.436 99.6994 365.241 99.8944C364.986 100.134 364.626 100.209 363.981 100.209H363.186ZM363.186 104.695V101.905H364.146C364.986 101.905 365.466 101.98 365.781 102.25C366.051 102.475 366.171 102.835 366.171 103.39C366.171 103.81 366.051 104.11 365.841 104.32C365.556 104.605 365.016 104.695 364.146 104.695H363.186ZM373.46 106.6C376.01 106.6 377.195 105.07 377.195 102.715C377.195 100.359 376.01 98.8293 373.46 98.8293C370.91 98.8293 369.724 100.359 369.724 102.715C369.724 105.07 370.91 106.6 373.46 106.6ZM373.46 104.965C372.38 104.965 371.96 104.23 371.96 102.715C371.96 101.199 372.38 100.464 373.46 100.464C374.54 100.464 374.96 101.199 374.96 102.715C374.96 104.23 374.54 104.965 373.46 104.965ZM378.625 106.39H380.77V100.854C381.115 100.719 381.761 100.614 382.166 100.614C382.601 100.614 382.901 100.674 383.096 100.854C383.246 101.004 383.321 101.214 383.321 101.59V106.39H385.466V101.334C385.466 100.479 385.286 99.8344 384.836 99.3994C384.431 98.9944 383.711 98.8293 383.066 98.8293C382.286 98.8293 381.341 99.0394 380.53 99.5644L380.485 99.0394H378.625V106.39ZM390.585 106.6C393.135 106.6 394.32 105.07 394.32 102.715C394.32 100.359 393.135 98.8293 390.585 98.8293C388.035 98.8293 386.849 100.359 386.849 102.715C386.849 105.07 388.035 106.6 390.585 106.6ZM390.585 104.965C389.505 104.965 389.085 104.23 389.085 102.715C389.085 101.199 389.505 100.464 390.585 100.464C391.665 100.464 392.085 101.199 392.085 102.715C392.085 104.23 391.665 104.965 390.585 104.965Z" fill="#922859"/>
<path d="M342.986 104.302H336.91V100.544H342.986V94.9478H347.065V100.544H353.141V104.302H347.065V109.899H342.986V104.302Z" fill="#922859"/>
<path d="M339.479 140.817H340.583L341.903 138.597L343.379 140.817H344.507L342.539 137.877L344.483 134.937H343.391L342.071 137.181L340.571 134.937H339.455L341.435 137.913L339.479 140.817ZM349.859 140.985C350.867 140.985 351.587 140.769 352.103 140.349C352.595 139.941 352.871 139.341 352.871 138.561C352.871 137.529 352.295 136.845 351.395 136.533C352.115 136.257 352.631 135.645 352.631 134.673C352.631 134.001 352.415 133.473 352.031 133.101C351.587 132.669 350.879 132.453 349.919 132.453C349.403 132.453 348.755 132.513 348.227 132.633V133.413C348.731 133.329 349.271 133.281 349.727 133.281C350.447 133.281 350.903 133.389 351.215 133.653C351.479 133.881 351.623 134.253 351.623 134.721C351.623 135.801 350.927 136.257 349.739 136.257H349.535V137.001H349.751C350.531 137.001 351.071 137.121 351.419 137.445C351.683 137.697 351.827 138.105 351.827 138.549C351.827 139.089 351.659 139.509 351.299 139.773C350.963 140.025 350.495 140.145 349.727 140.145C349.199 140.145 348.551 140.085 348.095 139.989V140.781C348.575 140.901 349.235 140.985 349.859 140.985ZM357.106 140.817H358.102V136.029C358.582 135.801 359.134 135.645 359.638 135.645C360.046 135.645 360.358 135.741 360.562 135.945C360.766 136.149 360.85 136.437 360.85 136.941V140.817H361.846V136.821C361.846 136.521 361.81 136.257 361.762 136.041C362.278 135.789 362.866 135.645 363.346 135.645C363.754 135.645 364.066 135.741 364.27 135.945C364.474 136.149 364.558 136.437 364.558 136.941V140.817H365.554V136.821C365.554 136.089 365.386 135.609 365.062 135.285C364.726 134.937 364.222 134.769 363.586 134.769C362.926 134.769 362.206 134.985 361.474 135.429C361.138 134.985 360.622 134.769 359.878 134.769C359.23 134.769 358.594 134.985 357.982 135.369L357.934 134.937H357.106V140.817ZM369.763 140.985C370.303 140.985 370.999 140.901 371.503 140.757L371.407 140.013C370.951 140.109 370.375 140.169 369.955 140.169C369.211 140.169 368.767 140.013 368.455 139.725C368.107 139.401 367.939 138.873 367.939 138.225H371.731C371.827 138.225 371.875 138.189 371.875 138.093V137.865C371.875 135.933 371.083 134.769 369.439 134.769C367.939 134.769 366.895 135.789 366.895 137.889C366.895 138.945 367.135 139.749 367.663 140.277C368.143 140.757 368.851 140.985 369.763 140.985ZM367.939 137.493C367.951 136.305 368.443 135.573 369.439 135.573C370.423 135.573 370.855 136.365 370.891 137.493H367.939ZM374.826 140.985C376.242 140.985 377.202 140.433 377.202 139.185C377.202 137.085 373.926 137.709 373.926 136.389C373.926 135.837 374.37 135.561 375.21 135.561C375.69 135.561 376.23 135.633 376.758 135.753L376.842 135.021C376.374 134.877 375.714 134.769 375.126 134.769C373.878 134.769 372.99 135.321 372.99 136.461C372.99 138.621 376.266 137.937 376.266 139.257C376.266 139.857 375.75 140.181 374.79 140.181C374.274 140.181 373.626 140.097 373.146 139.965L373.098 140.733C373.542 140.877 374.262 140.985 374.826 140.985ZM381.166 140.985C381.706 140.985 382.402 140.901 382.906 140.757L382.81 140.013C382.354 140.109 381.778 140.169 381.358 140.169C380.614 140.169 380.17 140.013 379.858 139.725C379.51 139.401 379.342 138.873 379.342 138.225H383.134C383.23 138.225 383.278 138.189 383.278 138.093V137.865C383.278 135.933 382.486 134.769 380.842 134.769C379.342 134.769 378.298 135.789 378.298 137.889C378.298 138.945 378.538 139.749 379.066 140.277C379.546 140.757 380.254 140.985 381.166 140.985ZM379.342 137.493C379.354 136.305 379.846 135.573 380.842 135.573C381.826 135.573 382.258 136.365 382.294 137.493H379.342ZM386.228 140.985C387.644 140.985 388.604 140.433 388.604 139.185C388.604 137.085 385.328 137.709 385.328 136.389C385.328 135.837 385.772 135.561 386.612 135.561C387.092 135.561 387.632 135.633 388.16 135.753L388.244 135.021C387.776 134.877 387.116 134.769 386.528 134.769C385.28 134.769 384.392 135.321 384.392 136.461C384.392 138.621 387.668 137.937 387.668 139.257C387.668 139.857 387.152 140.181 386.192 140.181C385.676 140.181 385.028 140.097 384.548 139.965L384.5 140.733C384.944 140.877 385.664 140.985 386.228 140.985Z" fill="#922859"/>
<path d="M289 32.3775C289 28.8553 291.855 26 295.378 26H437.022C440.545 26 443.4 28.8553 443.4 32.3775V89.9092H289V32.3775Z" fill="#E63780"/>
<path d="M316.872 81.081C319.539 81.081 321.308 80.5366 322.615 79.3118C323.594 78.3864 324.166 77.0527 324.166 75.3925C324.166 68.1253 314.667 70.6293 314.667 66.9821C314.667 65.8117 315.402 64.9952 317.688 64.9952C318.995 64.9952 320.628 65.2402 322.152 65.6484L322.805 62.4912C321.363 62.0012 319.403 61.7291 317.607 61.7291C313.633 61.7291 310.666 63.3894 310.666 67.1726C310.666 74.4943 320.165 71.963 320.165 75.4469C320.165 77.1616 318.995 77.8149 316.491 77.8149C315.13 77.8149 312.979 77.461 311.346 76.8894L310.693 80.1284C312.571 80.7816 314.504 81.081 316.872 81.081ZM325.52 81.081H328.976L337.169 61.7291H333.712L325.52 81.081Z" fill="white"/>
<path d="M346.014 81.0492H353.087L361.964 55.8521C362.519 54.3264 362.704 52.8007 362.704 51.3213C362.704 50.6278 362.611 49.7956 362.38 49.4257H341.76V54.1415H356.509L346.014 81.0492ZM376.828 81.6965C385.659 81.6965 389.126 77.8129 389.126 71.1553C389.126 64.4515 385.335 61.2614 377.059 61.2614H375.395L375.672 54.1415H387.277V49.4257H369.986L369.431 62.8333C369.385 64.2665 369.431 65.4686 369.662 66.3933H376.088C381.174 66.3933 382.284 68.1501 382.284 71.4327C382.284 74.5765 380.666 76.5183 375.21 76.5183C373.13 76.5183 371.049 76.3334 369.385 76.0098V80.9567C371.465 81.4191 374.054 81.6965 376.828 81.6965Z" fill="white"/>
<path d="M395.117 80.9327H395.291C396.485 80.9327 397.107 80.4601 397.107 79.2166V78.9182C397.107 77.6747 396.485 77.2021 395.291 77.2021H395.117C393.923 77.2021 393.302 77.6747 393.302 78.9182V79.2166C393.302 80.4601 393.923 80.9327 395.117 80.9327ZM403.701 80.9327C405.964 80.9327 407.556 80.4353 408.7 79.2912C410.192 77.799 411.013 75.2622 411.013 71.3079C411.013 66.1597 409.371 63.2499 404.82 63.2499C400.866 63.2499 398.802 65.4136 398.802 69.1939C398.802 72.6011 400.567 74.4913 403.602 74.4913C404.77 74.4913 406.163 74.2177 407.282 73.6208C407.233 75.3368 406.959 76.5057 406.213 77.2519C405.541 77.9234 404.522 78.1472 402.88 78.1472C401.985 78.1472 401.065 78.0477 400.194 77.8985V80.6093C401.338 80.8083 402.482 80.9327 403.701 80.9327ZM404.845 71.8053C403.03 71.8053 402.333 71.2333 402.333 69.0695C402.333 67.0053 403.154 65.9608 404.746 65.9608C406.685 65.9608 407.332 67.3535 407.332 70.6115V71.5566C406.636 71.7058 405.566 71.8053 404.845 71.8053ZM419.456 80.9327C424.182 80.9327 425.972 77.9234 425.972 72.1037C425.972 66.2841 424.182 63.2499 419.456 63.2499C414.731 63.2499 412.94 66.2841 412.94 72.1037C412.94 77.9234 414.731 80.9327 419.456 80.9327ZM419.456 78.0726C417.442 78.0726 416.646 76.8042 416.646 72.1037C416.646 67.4032 417.442 65.8613 419.456 65.8613C421.471 65.8613 422.267 67.4032 422.267 72.1037C422.267 76.8042 421.471 78.0726 419.456 78.0726Z" fill="white"/>
<path d="M327.391 43.0902H328.459V40.0302H329.983C330.967 40.0302 331.639 39.7902 332.083 39.3582C332.539 38.9022 332.755 38.2422 332.755 37.3662C332.755 36.6102 332.563 35.9862 332.155 35.5782C331.687 35.0982 330.919 34.8822 329.743 34.8822H327.391V43.0902ZM328.459 39.1662V35.7222H329.659C330.451 35.7222 330.955 35.8542 331.267 36.1662C331.531 36.4302 331.651 36.8262 331.651 37.3902C331.651 38.0382 331.495 38.4822 331.207 38.7582C330.883 39.0582 330.367 39.1662 329.623 39.1662H328.459ZM333.74 43.0902H334.736V34.5102H333.74V43.0902ZM337.811 43.2582C338.519 43.2582 339.143 43.0302 339.659 42.6942L339.719 43.0902H340.523V39.1782C340.523 38.4102 340.379 37.9422 340.007 37.5822C339.635 37.2342 339.047 37.0422 338.171 37.0422C337.607 37.0422 336.935 37.1142 336.383 37.2462L336.419 38.0142C336.995 37.9182 337.559 37.8702 338.003 37.8702C338.591 37.8702 338.975 37.9782 339.227 38.2182C339.443 38.4342 339.527 38.7342 339.527 39.2142V39.5862H338.303C337.451 39.5862 336.755 39.7422 336.311 40.1502C335.999 40.4382 335.807 40.8702 335.807 41.4222C335.807 41.9742 335.987 42.3942 336.275 42.6942C336.635 43.0662 337.175 43.2582 337.811 43.2582ZM338.027 42.4542C337.259 42.4542 336.815 42.1062 336.815 41.3982C336.815 41.0382 336.935 40.7862 337.139 40.6182C337.415 40.4022 337.835 40.3182 338.447 40.3182H339.527V42.0702C339.095 42.2862 338.507 42.4542 338.027 42.4542ZM341.873 43.0902H342.869V38.3022C343.349 38.0742 343.985 37.9182 344.513 37.9182C344.945 37.9182 345.257 38.0142 345.461 38.2182C345.665 38.4222 345.749 38.7102 345.749 39.2142V43.0902H346.745V39.0942C346.745 38.3622 346.577 37.8822 346.253 37.5582C345.917 37.2102 345.413 37.0422 344.777 37.0422C344.093 37.0422 343.361 37.2702 342.749 37.6422L342.701 37.2102H341.873V43.0902ZM352.292 43.2582C352.844 43.2582 353.552 43.0422 354.032 42.7302L354.104 43.0902H354.92V34.5102H353.924V37.4622C353.456 37.1982 352.868 37.0422 352.364 37.0422C350.828 37.0422 349.928 38.2422 349.928 40.1862C349.928 42.2262 350.792 43.2582 352.292 43.2582ZM352.568 42.4422C351.512 42.4422 350.972 41.7462 350.972 40.1982C350.972 38.8182 351.368 37.8822 352.568 37.8822C352.964 37.8822 353.492 38.0022 353.924 38.1702V42.0942C353.504 42.2982 352.988 42.4422 352.568 42.4422ZM358.855 43.2582C359.395 43.2582 360.091 43.1742 360.595 43.0302L360.499 42.2862C360.043 42.3822 359.467 42.4422 359.047 42.4422C358.303 42.4422 357.859 42.2862 357.547 41.9982C357.199 41.6742 357.031 41.1462 357.031 40.4982H360.823C360.919 40.4982 360.967 40.4622 360.967 40.3662V40.1382C360.967 38.2062 360.175 37.0422 358.531 37.0422C357.031 37.0422 355.987 38.0622 355.987 40.1622C355.987 41.2182 356.227 42.0222 356.755 42.5502C357.235 43.0302 357.943 43.2582 358.855 43.2582ZM357.031 39.7662C357.043 38.5782 357.535 37.8462 358.531 37.8462C359.515 37.8462 359.947 38.6382 359.983 39.7662H357.031ZM366.129 43.2582C367.185 43.2582 367.965 43.0062 368.457 42.5022C368.889 42.0702 369.117 41.4582 369.117 40.6902C369.117 39.9462 368.901 39.3702 368.493 38.9502C368.001 38.4462 367.281 38.2302 366.045 38.2302H365.421L365.529 35.6742H368.613V34.8822H364.689L364.533 38.3382C364.521 38.6022 364.521 38.6862 364.521 38.7822C364.521 38.8662 364.533 38.9742 364.557 39.0342H365.901C366.801 39.0342 367.341 39.1542 367.665 39.4782C367.941 39.7542 368.073 40.1982 368.073 40.7142C368.073 41.3022 367.905 41.7222 367.581 41.9982C367.233 42.2862 366.753 42.4182 365.937 42.4182C365.565 42.4182 364.845 42.3582 364.413 42.2862V43.0662C364.845 43.1742 365.565 43.2582 366.129 43.2582ZM372.998 43.2582C375.038 43.2582 375.818 41.6742 375.818 38.9982C375.818 36.3222 375.038 34.7262 372.998 34.7262C370.958 34.7262 370.178 36.3222 370.178 38.9982C370.178 41.6742 370.958 43.2582 372.998 43.2582ZM372.998 42.4062C371.666 42.4062 371.222 41.2902 371.222 38.9982C371.222 36.7062 371.666 35.5782 372.998 35.5782C374.33 35.5782 374.774 36.7062 374.774 38.9982C374.774 41.2902 374.33 42.4062 372.998 42.4062ZM379.143 43.0902H380.091V36.9342L382.455 41.3502H383.343L385.731 36.9822V43.0902H386.739V34.8822H385.827L382.935 40.2822L380.079 34.8822H379.143V43.0902ZM390.944 43.2582C392.408 43.2582 393.236 42.2622 393.236 40.1262C393.236 38.0142 392.384 37.0422 390.956 37.0422C390.38 37.0422 389.744 37.2462 389.264 37.5102V34.5102H388.268V43.0902H389.072L389.12 42.6942C389.588 43.0182 390.308 43.2582 390.944 43.2582ZM390.716 42.4302C390.236 42.4302 389.66 42.2502 389.264 42.0102V38.2302C389.66 38.0382 390.236 37.8942 390.692 37.8942C391.736 37.8942 392.192 38.5422 392.192 40.1262C392.192 41.8302 391.712 42.4302 390.716 42.4302ZM394.304 45.7902H395.3V42.8142C395.732 43.0902 396.368 43.2582 396.98 43.2582C398.384 43.2582 399.272 42.3342 399.272 40.1262C399.272 38.2542 398.54 37.0422 397.016 37.0422C396.476 37.0422 395.792 37.2342 395.18 37.6422L395.132 37.2102H394.304V45.7902ZM396.728 42.4302C396.224 42.4302 395.648 42.2742 395.3 42.0702V38.2902C395.756 38.0502 396.344 37.8942 396.8 37.8942C397.784 37.8942 398.228 38.6142 398.228 40.1142C398.228 41.7942 397.796 42.4302 396.728 42.4302ZM401.887 43.2582C403.303 43.2582 404.263 42.7062 404.263 41.4582C404.263 39.3582 400.987 39.9822 400.987 38.6622C400.987 38.1102 401.431 37.8342 402.271 37.8342C402.751 37.8342 403.291 37.9062 403.819 38.0262L403.903 37.2942C403.435 37.1502 402.775 37.0422 402.187 37.0422C400.939 37.0422 400.051 37.5942 400.051 38.7342C400.051 40.8942 403.327 40.2102 403.327 41.5302C403.327 42.1302 402.811 42.4542 401.851 42.4542C401.335 42.4542 400.687 42.3702 400.207 42.2382L400.159 43.0062C400.603 43.1502 401.323 43.2582 401.887 43.2582Z" fill="white"/>
</svg>
