<svg width="144" height="43" viewBox="0 0 144 43" fill="none" xmlns="http://www.w3.org/2000/svg">
<path d="M4.67713 34.1133C5.75135 34.1133 7.11854 33.625 8.75916 32.6484C10.7709 31.4375 11.767 30.3633 11.767 29.4062C11.767 29.0352 11.5912 28.6836 11.2396 28.3125C10.0873 27.2383 8.62244 26.4375 6.88416 25.9297C5.08729 25.4023 4.18885 24.5625 4.18885 23.4492C4.18885 22.7656 4.59901 21.5547 5.39979 19.8359C7.27479 16.1055 8.91541 13.5664 10.3217 12.1992C11.0053 11.5156 11.5131 11.1641 11.8842 11.1641C12.1185 11.1641 12.3334 11.2812 12.5092 11.5156C12.8021 11.8867 13.1146 12.082 13.4857 12.082C13.5443 12.082 13.6029 12.0625 13.681 12.043C13.7396 12.0234 13.8178 12.0234 13.8764 12.0039C14.6771 11.6328 15.0873 11.0859 15.0873 10.3242C15.0873 9.95312 14.7943 9.40625 14.2084 8.68359C13.6029 7.96094 12.8021 7.60938 11.767 7.60938C11.0053 7.60938 10.2045 7.88281 9.36463 8.44922C5.80994 11.0469 3.17323 14.3477 1.47401 18.3906C0.829475 19.9141 0.516975 21.2812 0.516975 22.4727C0.556038 25.1875 1.49354 26.8672 3.32948 27.5117C5.14588 28.1562 6.20057 28.5469 6.47401 28.6836C6.74744 28.8203 6.90369 29.0742 6.92323 29.4453C6.92323 29.9336 6.72791 30.3047 6.35682 30.5977C5.96619 30.8906 5.47791 31.1836 4.87244 31.5156C3.85682 32.0625 3.34901 32.5898 3.34901 33.1172C3.34901 33.7812 3.79823 34.1133 4.67713 34.1133ZM18.5248 42.3555C19.306 42.3164 19.6967 42.043 19.6967 41.5156C19.4037 40.4805 19.2474 39.3867 19.2474 38.2734C19.2474 33.4102 21.4154 24.4062 25.7709 11.2812C26.5521 8.95703 26.9428 7.57031 26.9428 7.12109C26.9428 5.8125 26.2982 5.16797 25.0092 5.16797C24.1693 5.22656 23.6029 5.71484 23.2904 6.63281C18.2709 21.2617 15.7318 32.4727 15.6928 40.2852C15.7318 40.9102 15.9662 41.3984 16.4154 41.75C16.8451 42.1016 17.2162 42.2969 17.5287 42.3164C17.8412 42.3359 18.0951 42.3555 18.2904 42.3555H18.5248ZM38.243 35.0552C39.2875 34.8867 39.7929 34.3813 39.7929 33.4717C39.7255 32.8652 39.557 32.2251 39.2875 31.5513C38.9506 30.9111 38.7484 29.833 38.681 28.3169C39.2538 20.8037 40.5341 13.1895 42.5219 5.5415C42.724 4.66553 42.8251 3.82324 42.8251 2.98096C42.6229 1.46484 41.2079 0.588867 38.5463 0.285645C37.5018 0.42041 36.8954 0.959473 36.6596 1.93652C36.0868 5.30566 35.4467 8.64111 34.6718 11.9429C33.661 16.6934 32.9198 22.3535 32.4481 28.9233C32.684 31.3491 33.8969 33.2021 36.1205 34.5161C36.828 34.8867 37.4345 35.0552 37.9061 35.0552H38.243ZM52.9325 33.2695H52.8988C51.4501 33.2695 50.7089 32.0229 50.7089 29.4961C50.7089 27.6431 51.0458 25.2173 51.7533 22.2524C53.7411 13.3916 55.493 8.97803 56.9418 8.97803C57.2787 8.97803 57.6493 9.11279 58.0873 9.41602C60.1762 10.8647 61.2206 12.7852 61.2206 15.2109C61.2206 16.8618 60.8163 19.1528 59.974 22.084C59.0643 25.0825 58.0199 27.6768 56.7733 29.833C55.5267 31.9893 54.2465 33.1348 52.9325 33.2695ZM53.4042 38.1211C55.0551 38.1211 56.6722 37.5483 58.1884 36.3691C61.288 33.9434 63.4442 30.7427 64.6234 26.8008C65.8026 22.8589 66.3754 19.5571 66.3754 16.8618C66.3754 13.0547 65.4657 10.4268 63.6801 8.97803C62.7704 8.23682 61.7597 7.59668 60.7152 7.05762C59.4013 6.45117 58.2894 5.67627 57.3461 4.69922C56.3353 3.78955 55.2909 3.31787 54.1791 3.31787C53.1683 3.41895 52.225 4.22754 51.349 5.74365C47.4408 12.7178 45.4867 20.1636 45.4867 28.1147L45.5541 30.5742C45.7562 33.9771 47.2723 36.2344 50.1024 37.4136C51.2142 37.8853 52.2924 38.1211 53.4042 38.1211ZM90.4635 36.0078C90.9908 36.0078 91.2838 35.6758 91.3815 35.0312C92.651 26.7891 93.2955 22.4141 93.2955 21.8867C93.2955 20.8125 92.7487 20.0508 91.6549 19.6406C91.401 19.5625 91.1471 19.5234 90.8932 19.5234C90.3658 19.5234 89.819 19.8945 89.2526 20.6367C89.2526 20.7539 87.9635 22.1992 85.3854 24.9531C85.0729 25.3242 84.858 25.5195 84.7408 25.5195C84.6823 25.5195 84.6627 25.4414 84.6627 25.2656C84.7213 24.9336 84.7408 24.6211 84.7408 24.2891C84.7408 23.3711 84.4088 22.6875 83.7448 22.2383C83.3932 22.0039 83.0221 21.8867 82.6119 21.8867C82.0846 21.8867 81.6354 22.1016 81.2252 22.5508C78.3151 25.6562 76.8112 27.1992 76.694 27.1992C76.5573 27.1797 76.4987 27.082 76.4987 26.8867C76.5182 26.3594 77.026 25.0117 77.983 22.8047C78.1588 22.4141 78.2565 22.0039 78.2565 21.5547C78.2565 20.7539 77.7096 20.168 76.6158 19.7578C76.401 19.6797 76.1862 19.6406 75.9323 19.6406C75.3268 19.6406 74.8776 20.0898 74.5455 21.0078L74.0182 22.6484C72.3971 27.5312 71.5768 30.2656 71.5768 30.8711C71.5768 32.1211 72.3385 33.0781 73.8619 33.7617C74.194 33.918 74.526 33.9961 74.8971 33.9961C75.7369 33.9961 76.4987 33.4492 77.2213 32.3555L77.944 31.1641C78.5299 30.207 78.9791 29.7188 79.2916 29.7188C79.5846 29.7188 79.7213 29.875 79.7408 30.168C79.9166 31.6914 80.6588 32.6289 81.9674 33C82.1432 33.0586 82.2994 33.0781 82.4166 33.0781C82.983 33.0781 83.4518 32.7266 83.8619 32.0039C83.9401 31.8477 85.3463 29.9727 88.0612 26.3594C88.3346 26.0078 88.5299 25.832 88.6471 25.832C88.8229 25.832 88.901 26.1641 88.901 26.8086C88.901 28.1172 88.6471 29.9531 88.1393 32.3164C88.0026 32.8633 87.944 33.2734 87.944 33.5664C87.944 34.7969 88.608 35.5977 89.9362 35.9688L90.4635 36.0078ZM97.1041 24.0352C97.0455 24.0352 97.0065 23.9961 97.0065 23.918C97.0065 23.8594 97.1432 23.4688 97.3971 22.7852C98.1783 20.0312 99.194 17.7852 100.424 16.0859C100.639 15.8125 100.893 15.6758 101.225 15.6758C101.674 15.6758 101.889 15.9102 101.889 16.3984C101.46 18 100.464 19.875 98.901 22.043C97.944 23.3711 97.3385 24.0352 97.1041 24.0352ZM98.7838 34.4453C100.21 34.4453 101.674 33.8984 103.139 32.8047C104.702 31.6328 105.678 30.2852 106.089 28.7617C106.147 28.5664 106.167 28.3711 106.167 28.1562C106.167 27.6289 105.971 27.2383 105.581 26.9648C105.366 26.8672 105.171 26.8086 105.014 26.8086C104.643 26.8086 104.272 27.082 103.901 27.6484C102.827 29.2891 101.421 30.6367 99.7018 31.6719C99.1354 32.0039 98.6276 32.1602 98.1783 32.1602C97.7682 32.1602 97.4166 31.8867 97.1041 31.3594C96.7526 30.832 96.5768 30.3242 96.5768 29.7969C96.5768 29.3086 96.8698 28.8203 97.4557 28.3125C100.776 25.6562 103.296 22.3945 105.014 18.5273C105.19 18 105.288 17.4922 105.288 17.0039C105.288 16.0859 104.956 15.2266 104.292 14.4453C103.296 13.293 102.378 12.6875 101.577 12.6484H100.327C98.7838 12.6484 97.3971 13.625 96.1666 15.5977C94.3698 18.9766 93.2565 22.8828 92.8073 27.3164C92.8658 31.7109 94.7604 34.0938 98.4908 34.4453H98.7838ZM119.389 36.3203C119.506 36.3203 119.799 36.2617 120.288 36.125C120.776 36.0078 121.03 35.8516 121.069 35.6367C121.069 35.1484 120.991 34.7188 120.835 34.3281C120.639 33.957 120.542 33.3125 120.542 32.3945C120.542 30.1875 120.991 26.4375 121.909 21.125C122.241 19.0547 122.417 17.5508 122.417 16.6328C122.417 15.2852 121.772 14.3281 120.464 13.8008C120.19 13.7031 119.76 13.6445 119.155 13.6445C117.475 13.8594 115.581 15.9102 113.471 19.7969C112.827 20.9492 112.417 21.5547 112.221 21.5938C112.085 21.5938 112.026 21.3594 112.026 20.8711C112.026 20.1094 112.143 18.7617 112.378 16.8086L112.417 16.3203C112.319 15.3242 111.616 14.8359 110.346 14.8359C109.428 14.8359 108.921 15.3438 108.862 16.3594C108.842 16.9258 108.491 19.0156 107.827 22.6484C106.733 28.8008 106.186 32.1992 106.186 32.8828C106.186 33.918 106.87 34.582 108.256 34.875H108.628C109.624 34.875 110.249 34.4258 110.464 33.5273C110.756 32.3555 111.87 29.6992 113.823 25.5586C116.225 20.5391 117.71 18.0195 118.315 17.9609C118.374 17.9609 118.393 18.1172 118.393 18.4492C118.393 18.8789 118.296 19.5234 118.1 20.3633C117.143 24.8555 116.674 28.5273 116.674 31.3594C116.694 34.6602 117.592 36.3203 119.389 36.3203ZM126.792 33.0391C126.635 33.0391 126.499 32.9805 126.362 32.8828C125.639 32.3359 125.268 31.3203 125.268 29.8359C125.268 27.9609 125.639 25.7539 126.362 23.2344C126.928 21.3008 127.397 19.9141 127.788 19.0742C128.393 17.8438 129.292 17.2383 130.444 17.2383C131.167 17.2383 131.557 17.4727 131.635 17.9609C131.753 18.6055 131.85 19.25 131.909 19.9141C131.909 24.0742 130.503 28.2539 127.671 32.4336C127.397 32.8047 127.104 33 126.792 33.0391ZM127.202 35.5977C128.921 35.5977 130.327 34.6602 131.44 32.7656C133.647 28.9766 134.76 24.7969 134.76 20.2461C134.76 18.7617 134.526 17.6094 134.038 16.8086C133.276 15.4609 131.674 14.7969 129.233 14.7969C127.436 14.7969 126.049 15.6367 125.073 17.3164C124.194 18.8203 123.471 20.6758 122.885 22.8828C122.26 25.0898 121.948 27.043 121.948 28.7617C121.948 29.2891 121.987 29.7969 122.046 30.3242C122.319 33.0195 123.608 34.7188 125.913 35.4023C126.362 35.5391 126.792 35.5977 127.202 35.5977ZM135.014 35.6758C136.01 35.6758 137.221 35.2852 138.647 34.5234C140.053 33.7617 141.46 32.375 142.866 30.3633C143.51 29.4648 143.823 28.6836 143.823 28C143.823 26.7695 142.221 25.4219 139.018 23.9961C138.256 23.5859 137.866 22.9609 137.866 22.1211C137.866 21.0469 138.276 19.8359 139.096 18.5273C139.741 17.5117 140.346 16.7695 140.932 16.3203C141.635 15.793 141.987 15.3242 141.987 14.875C141.987 14.6797 141.87 14.4453 141.616 14.1914C141.089 13.5859 140.542 13.2734 139.975 13.2734C139.624 13.2734 139.233 13.4297 138.784 13.7617C136.147 15.6758 134.819 17.8438 134.819 20.2461C134.819 22.7656 136.225 24.875 139.057 26.5938C139.663 26.9648 139.975 27.4336 139.975 28C139.975 28.293 139.878 28.625 139.702 28.9961C139.135 30.0117 138.335 30.9688 137.26 31.8477C136.186 32.7461 135.307 33.332 134.663 33.6055C133.725 33.9766 133.256 34.3672 133.256 34.7578C133.256 35.3438 133.549 35.6367 134.135 35.6367L135.014 35.6758Z" fill="white"/>
</svg>
