<svg width="263" height="59" viewBox="0 0 263 59" fill="none" xmlns="http://www.w3.org/2000/svg">
<rect width="129" height="59" rx="5" fill="#5CB615"/>
<rect x="134" width="129" height="59" rx="5" fill="#BDE4A4"/>
<path d="M22.7039 38.378C25.3499 38.378 27.1049 37.838 28.4009 36.623C29.3729 35.705 29.9399 34.382 29.9399 32.735C29.9399 25.526 20.5169 28.01 20.5169 24.392C20.5169 23.231 21.2459 22.421 23.5139 22.421C24.8099 22.421 26.4299 22.664 27.9419 23.069L28.5899 19.937C27.1589 19.451 25.2149 19.181 23.4329 19.181C19.4909 19.181 16.5479 20.828 16.5479 24.581C16.5479 31.844 25.9709 29.333 25.9709 32.789C25.9709 34.49 24.8099 35.138 22.3259 35.138C20.9759 35.138 18.8429 34.787 17.2229 34.22L16.5749 37.433C18.4379 38.081 20.3549 38.378 22.7039 38.378ZM31.6097 38.378H35.0387L43.1657 19.181H39.7367L31.6097 38.378ZM50.7383 38.378C55.8953 38.378 57.9203 36.11 57.9203 32.222C57.9203 28.307 55.7063 26.444 50.8733 26.444H49.9013L50.0633 22.286H56.8403V19.532H46.7423L46.4183 27.362C46.3913 28.199 46.4183 28.901 46.5533 29.441H50.3063C53.2763 29.441 53.9243 30.467 53.9243 32.384C53.9243 34.22 52.9793 35.354 49.7933 35.354C48.5783 35.354 47.3633 35.246 46.3913 35.057V37.946C47.6063 38.216 49.1183 38.378 50.7383 38.378ZM61.5818 38H73.3538V35.246H65.9018L69.1148 31.736C72.0308 28.55 73.0568 26.795 73.0568 24.5C73.0568 22.961 72.5978 21.773 71.7338 20.909C70.5998 19.775 68.8448 19.181 66.1988 19.181C64.6868 19.181 62.9858 19.424 61.9058 19.694V22.556C63.0668 22.34 64.4708 22.205 65.5238 22.205C66.8468 22.205 67.7648 22.421 68.3318 22.907C68.8178 23.312 69.0608 23.906 69.0608 24.689C69.0608 26.228 68.1968 27.443 66.1448 29.927L62.5538 34.301C61.7708 35.246 61.4738 36.002 61.4738 37.136C61.4738 37.433 61.5008 37.784 61.5818 38ZM78.5812 38.378H78.7702C80.0662 38.378 80.7412 37.865 80.7412 36.515V36.191C80.7412 34.841 80.0662 34.328 78.7702 34.328H78.5812C77.2852 34.328 76.6102 34.841 76.6102 36.191V36.515C76.6102 37.865 77.2852 38.378 78.5812 38.378ZM88.2272 38.378C90.6842 38.378 92.4122 37.838 93.6542 36.596C95.2742 34.976 96.1652 32.222 96.1652 27.929C96.1652 22.34 94.3832 19.181 89.4422 19.181C85.1492 19.181 82.9082 21.53 82.9082 25.634C82.9082 29.333 84.8252 31.385 88.1192 31.385C89.3882 31.385 90.9002 31.088 92.1152 30.44C92.0612 32.303 91.7642 33.572 90.9542 34.382C90.2252 35.111 89.1182 35.354 87.3362 35.354C86.3642 35.354 85.3652 35.246 84.4202 35.084V38.027C85.6622 38.243 86.9042 38.378 88.2272 38.378ZM89.4692 28.469C87.4982 28.469 86.7422 27.848 86.7422 25.499C86.7422 23.258 87.6332 22.124 89.3612 22.124C91.4672 22.124 92.1692 23.636 92.1692 27.173V28.199C91.4132 28.361 90.2522 28.469 89.4692 28.469ZM105.659 38.378C110.789 38.378 112.733 35.111 112.733 28.793C112.733 22.475 110.789 19.181 105.659 19.181C100.529 19.181 98.5847 22.475 98.5847 28.793C98.5847 35.111 100.529 38.378 105.659 38.378ZM105.659 35.273C103.472 35.273 102.608 33.896 102.608 28.793C102.608 23.69 103.472 22.016 105.659 22.016C107.846 22.016 108.71 23.69 108.71 28.793C108.71 33.896 107.846 35.273 105.659 35.273Z" fill="white"/>
<path d="M22.1147 50H22.9157V47.705H24.0587C24.7967 47.705 25.3007 47.525 25.6337 47.201C25.9757 46.859 26.1377 46.364 26.1377 45.707C26.1377 45.14 25.9937 44.672 25.6877 44.366C25.3367 44.006 24.7607 43.844 23.8787 43.844H22.1147V50ZM22.9157 47.057V44.474H23.8157C24.4097 44.474 24.7877 44.573 25.0217 44.807C25.2197 45.005 25.3097 45.302 25.3097 45.725C25.3097 46.211 25.1927 46.544 24.9767 46.751C24.7337 46.976 24.3467 47.057 23.7887 47.057H22.9157ZM27.0074 50H27.7544V46.436C28.0694 46.238 28.4384 46.139 28.8254 46.139C28.9514 46.139 29.1134 46.148 29.2124 46.157V45.491C29.1134 45.473 29.0054 45.464 28.9244 45.464C28.5374 45.464 28.0964 45.617 27.6734 45.968L27.6284 45.59H27.0074V50ZM31.7369 50.126C32.1419 50.126 32.6639 50.063 33.0419 49.955L32.9699 49.397C32.6279 49.469 32.1959 49.514 31.8809 49.514C31.3229 49.514 30.9899 49.397 30.7559 49.181C30.4949 48.938 30.3689 48.542 30.3689 48.056H33.2129C33.2849 48.056 33.3209 48.029 33.3209 47.957V47.786C33.3209 46.337 32.7269 45.464 31.4939 45.464C30.3689 45.464 29.5859 46.229 29.5859 47.804C29.5859 48.596 29.7659 49.199 30.1619 49.595C30.5219 49.955 31.0529 50.126 31.7369 50.126ZM30.3689 47.507C30.3779 46.616 30.7469 46.067 31.4939 46.067C32.2319 46.067 32.5559 46.661 32.5829 47.507H30.3689ZM36.3257 50.126C36.6497 50.126 37.1447 50.063 37.4327 49.982L37.3787 49.424C37.1537 49.469 36.7577 49.514 36.4607 49.514C35.9207 49.514 35.5427 49.388 35.2907 49.1C35.0477 48.821 34.9217 48.398 34.9217 47.84C34.9217 46.67 35.3897 46.067 36.4247 46.067C36.7037 46.067 37.0637 46.121 37.3427 46.175L37.3877 45.599C37.0817 45.518 36.6767 45.464 36.3347 45.464C35.6597 45.464 35.0927 45.662 34.7147 46.067C34.3367 46.472 34.1387 47.075 34.1387 47.849C34.1387 48.623 34.3547 49.199 34.7237 49.577C35.0837 49.946 35.6057 50.126 36.3257 50.126ZM38.7934 44.753H38.8384C39.1084 44.753 39.2794 44.618 39.2794 44.276V44.258C39.2794 43.916 39.1084 43.781 38.8384 43.781H38.7934C38.5234 43.781 38.3524 43.916 38.3524 44.258V44.276C38.3524 44.618 38.5234 44.753 38.7934 44.753ZM38.4424 50H39.1894V45.59H38.4424V50ZM42.2365 50.126C43.6045 50.126 44.2435 49.262 44.2435 47.795C44.2435 46.328 43.6045 45.464 42.2365 45.464C40.8685 45.464 40.2295 46.328 40.2295 47.795C40.2295 49.262 40.8685 50.126 42.2365 50.126ZM42.2365 49.514C41.3365 49.514 41.0125 48.92 41.0125 47.795C41.0125 46.67 41.3365 46.076 42.2365 46.076C43.1365 46.076 43.4605 46.67 43.4605 47.795C43.4605 48.92 43.1365 49.514 42.2365 49.514ZM47.108 50H47.855V46.436C48.17 46.238 48.539 46.139 48.926 46.139C49.052 46.139 49.214 46.148 49.313 46.157V45.491C49.214 45.473 49.106 45.464 49.025 45.464C48.638 45.464 48.197 45.617 47.774 45.968L47.729 45.59H47.108V50ZM51.8375 50.126C52.2425 50.126 52.7645 50.063 53.1425 49.955L53.0705 49.397C52.7285 49.469 52.2965 49.514 51.9815 49.514C51.4235 49.514 51.0905 49.397 50.8565 49.181C50.5955 48.938 50.4695 48.542 50.4695 48.056H53.3135C53.3855 48.056 53.4215 48.029 53.4215 47.957V47.786C53.4215 46.337 52.8275 45.464 51.5945 45.464C50.4695 45.464 49.6865 46.229 49.6865 47.804C49.6865 48.596 49.8665 49.199 50.2625 49.595C50.6225 49.955 51.1535 50.126 51.8375 50.126ZM50.4695 47.507C50.4785 46.616 50.8475 46.067 51.5945 46.067C52.3325 46.067 52.6565 46.661 52.6835 47.507H50.4695ZM56.1743 52.151C57.6683 52.151 58.2623 51.656 58.2623 50.765C58.2623 50.405 58.1633 50.099 57.9383 49.874C57.6503 49.586 57.2183 49.46 56.4443 49.46H55.5983C55.3553 49.46 55.2383 49.379 55.2383 49.19C55.2383 49.037 55.3463 48.803 55.4813 48.65C55.6883 48.713 55.9133 48.74 56.1743 48.74C57.3803 48.74 57.9473 48.056 57.9473 47.102C57.9473 46.472 57.6953 45.95 57.1643 45.68L57.7763 44.636C57.6323 44.519 57.3623 44.393 57.1553 44.348L56.6243 45.5C56.4893 45.482 56.3363 45.464 56.1743 45.464C54.9683 45.464 54.4013 46.148 54.4013 47.102C54.4013 47.678 54.6083 48.146 55.0223 48.434C54.7073 48.74 54.5003 49.1 54.5003 49.451C54.5003 49.649 54.5633 49.811 54.7073 49.928C54.4013 50.144 54.2033 50.522 54.2033 50.909C54.2033 51.692 54.8153 52.151 56.1743 52.151ZM56.1743 48.146C55.4453 48.146 55.1123 47.777 55.1123 47.102C55.1123 46.427 55.4453 46.058 56.1743 46.058C56.9033 46.058 57.2363 46.427 57.2363 47.102C57.2363 47.777 56.9033 48.146 56.1743 48.146ZM56.2463 51.521C55.2653 51.521 54.9053 51.251 54.9053 50.774C54.9053 50.54 55.0043 50.297 55.1663 50.099C55.2563 50.117 55.3643 50.126 55.4903 50.126H56.4443C56.8853 50.126 57.1733 50.18 57.3443 50.306C57.4883 50.414 57.5603 50.576 57.5603 50.792C57.5603 51.251 57.1823 51.521 56.2463 51.521ZM60.5279 50.126C61.0409 50.126 61.5719 49.955 62.0309 49.676L62.0669 50H62.6879V45.59H61.9409V49.181C61.5809 49.352 61.1219 49.469 60.7259 49.469C60.4019 49.469 60.1679 49.397 60.0149 49.244C59.8619 49.091 59.7989 48.875 59.7989 48.497V45.59H59.0519V48.587C59.0519 49.136 59.1779 49.496 59.4209 49.739C59.6729 50 60.0509 50.126 60.5279 50.126ZM63.9569 50H64.7039V43.565H63.9569V50ZM67.2384 50.126C67.7694 50.126 68.2374 49.955 68.6244 49.703L68.6694 50H69.2724V47.066C69.2724 46.49 69.1644 46.139 68.8854 45.869C68.6064 45.608 68.1654 45.464 67.5084 45.464C67.0854 45.464 66.5814 45.518 66.1674 45.617L66.1944 46.193C66.6264 46.121 67.0494 46.085 67.3824 46.085C67.8234 46.085 68.1114 46.166 68.3004 46.346C68.4624 46.508 68.5254 46.733 68.5254 47.093V47.372H67.6074C66.9684 47.372 66.4464 47.489 66.1134 47.795C65.8794 48.011 65.7354 48.335 65.7354 48.749C65.7354 49.163 65.8704 49.478 66.0864 49.703C66.3564 49.982 66.7614 50.126 67.2384 50.126ZM67.4004 49.523C66.8244 49.523 66.4914 49.262 66.4914 48.731C66.4914 48.461 66.5814 48.272 66.7344 48.146C66.9414 47.984 67.2564 47.921 67.7154 47.921H68.5254V49.235C68.2014 49.397 67.7604 49.523 67.4004 49.523ZM70.5133 50H71.2603V46.436C71.5753 46.238 71.9443 46.139 72.3313 46.139C72.4573 46.139 72.6193 46.148 72.7183 46.157V45.491C72.6193 45.473 72.5113 45.464 72.4303 45.464C72.0433 45.464 71.6023 45.617 71.1793 45.968L71.1343 45.59H70.5133V50ZM73.8879 47.327H73.9509C74.2209 47.327 74.4009 47.192 74.4009 46.841V46.805C74.4009 46.454 74.2209 46.319 73.9509 46.319H73.8879C73.6179 46.319 73.4379 46.454 73.4379 46.805V46.841C73.4379 47.192 73.6179 47.327 73.8879 47.327ZM73.8879 50.126H73.9509C74.2209 50.126 74.4009 49.991 74.4009 49.64V49.604C74.4009 49.253 74.2209 49.118 73.9509 49.118H73.8879C73.6179 49.118 73.4379 49.253 73.4379 49.604V49.64C73.4379 49.991 73.6179 50.126 73.8879 50.126ZM79.0599 50.126C79.7709 50.126 80.3199 49.955 80.6889 49.604C80.9949 49.316 81.1749 48.893 81.1749 48.353C81.1749 46.247 78.0069 46.724 78.0069 45.32C78.0069 44.663 78.5199 44.393 79.3569 44.393C79.7619 44.393 80.2389 44.456 80.6889 44.573L80.8059 43.961C80.3829 43.817 79.8249 43.727 79.2939 43.727C78.0699 43.727 77.2509 44.285 77.2509 45.374C77.2509 47.489 80.4099 46.886 80.4099 48.434C80.4099 48.767 80.2929 49.01 80.0769 49.181C79.8339 49.37 79.4919 49.46 78.9879 49.46C78.4929 49.46 77.9169 49.352 77.4489 49.217L77.3139 49.829C77.7819 50.018 78.4929 50.126 79.0599 50.126ZM82.0026 50.126H82.7316L85.3866 43.727H84.6576L82.0026 50.126ZM88.322 50.126C89.6 50.126 90.275 49.253 90.275 48.065C90.275 46.85 89.609 46.22 88.547 46.22C88.034 46.22 87.494 46.373 87.062 46.553C87.125 45.104 87.521 44.339 88.736 44.339C89.024 44.339 89.411 44.375 89.681 44.411V43.835C89.384 43.772 88.988 43.727 88.673 43.727C87.953 43.727 87.386 43.943 87.008 44.393C86.522 44.969 86.288 45.914 86.288 47.246C86.288 49.01 86.819 50.126 88.322 50.126ZM88.34 49.514C87.359 49.514 87.053 48.704 87.053 47.417V47.057C87.467 46.922 87.998 46.823 88.394 46.823C89.213 46.823 89.519 47.273 89.519 48.11C89.519 48.965 89.114 49.514 88.34 49.514ZM91.3438 50H94.9438V49.406H92.1628L93.6388 47.669C94.5658 46.58 94.8358 46.085 94.8358 45.347C94.8358 44.834 94.6648 44.438 94.3678 44.177C94.0168 43.862 93.4768 43.727 92.8378 43.727C92.3608 43.727 91.8658 43.79 91.4338 43.898V44.483C91.8658 44.393 92.3608 44.348 92.7298 44.348C93.5668 44.348 94.0528 44.618 94.0528 45.383C94.0528 45.95 93.7918 46.427 93.0808 47.3L91.6678 49.028C91.3708 49.388 91.3078 49.55 91.3078 49.793C91.3078 49.856 91.3258 49.946 91.3438 50ZM96.6516 50.126H96.7146C96.9846 50.126 97.1646 49.991 97.1646 49.64V49.604C97.1646 49.253 96.9846 49.118 96.7146 49.118H96.6516C96.3816 49.118 96.2016 49.253 96.2016 49.604V49.64C96.2016 49.991 96.3816 50.126 96.6516 50.126ZM99.7257 50.126C100.446 50.126 101.013 49.91 101.391 49.46C101.877 48.884 102.111 47.939 102.111 46.607C102.111 44.843 101.58 43.727 100.077 43.727C98.7987 43.727 98.1237 44.6 98.1237 45.788C98.1237 47.003 98.7897 47.633 99.8517 47.633C100.365 47.633 100.905 47.48 101.337 47.3C101.274 48.749 100.878 49.514 99.6627 49.514C99.3747 49.514 98.9877 49.478 98.7177 49.442V50.018C99.0147 50.081 99.4107 50.126 99.7257 50.126ZM100.005 47.03C99.1857 47.03 98.8797 46.58 98.8797 45.743C98.8797 44.888 99.2847 44.339 100.059 44.339C101.04 44.339 101.346 45.149 101.346 46.436V46.796C100.932 46.931 100.401 47.03 100.005 47.03ZM105.151 50.126C106.681 50.126 107.266 48.938 107.266 46.931C107.266 44.924 106.681 43.727 105.151 43.727C103.621 43.727 103.036 44.924 103.036 46.931C103.036 48.938 103.621 50.126 105.151 50.126ZM105.151 49.487C104.152 49.487 103.819 48.65 103.819 46.931C103.819 45.212 104.152 44.366 105.151 44.366C106.15 44.366 106.483 45.212 106.483 46.931C106.483 48.65 106.15 49.487 105.151 49.487Z" fill="white"/>
<path d="M81 50.1539L105.08 43" stroke="white" stroke-width="0.5"/>
<path d="M49.4625 15.126C50.3985 15.126 51.0555 14.91 51.4605 14.487C51.7485 14.19 51.8925 13.776 51.8925 13.299C51.8925 12.498 51.5055 12.012 50.8575 11.778C51.3975 11.508 51.6765 11.058 51.6765 10.419C51.6765 9.906 51.5145 9.546 51.2535 9.285C50.8755 8.907 50.2185 8.727 49.4445 8.727C48.9675 8.727 48.4455 8.772 48.0315 8.862V9.816C48.3915 9.762 48.8415 9.726 49.2375 9.726C49.7235 9.726 50.0295 9.798 50.2095 9.96C50.3535 10.086 50.4165 10.284 50.4165 10.518C50.4165 10.815 50.3175 11.022 50.1735 11.148C49.9575 11.337 49.6695 11.409 49.1025 11.409H48.8865V12.309H49.0575C49.6875 12.309 50.0295 12.363 50.2545 12.525C50.4435 12.66 50.5605 12.876 50.5605 13.2C50.5605 13.533 50.4435 13.767 50.2275 13.911C50.0115 14.055 49.7145 14.118 49.2105 14.118C48.7605 14.118 48.3375 14.073 47.9775 14.01V14.982C48.3915 15.072 48.9315 15.126 49.4625 15.126ZM55.282 15.126C56.992 15.126 57.64 14.037 57.64 11.931C57.64 9.825 56.992 8.727 55.282 8.727C53.572 8.727 52.924 9.825 52.924 11.931C52.924 14.037 53.572 15.126 55.282 15.126ZM55.282 14.091C54.553 14.091 54.265 13.632 54.265 11.931C54.265 10.23 54.553 9.672 55.282 9.672C56.011 9.672 56.299 10.23 56.299 11.931C56.299 13.632 56.011 14.091 55.282 14.091ZM60.666 15H61.845V11.418L63.159 13.596H64.239L65.517 11.454V15H66.804V8.844H65.724L63.717 12.282L61.773 8.844H60.666V15ZM70.4497 15.126C70.9987 15.126 71.3947 14.964 71.7007 14.613C72.0247 14.244 72.1957 13.569 72.1957 12.777C72.1957 11.067 71.5117 10.464 70.5127 10.464C70.0897 10.464 69.6037 10.581 69.2977 10.761V8.565H68.0107V15H69.0727L69.1357 14.721C69.5047 14.964 69.9907 15.126 70.4497 15.126ZM70.0627 14.118C69.8107 14.118 69.5047 14.019 69.2977 13.902V11.616C69.5047 11.535 69.7837 11.499 70.0627 11.499C70.6027 11.499 70.8457 11.742 70.8457 12.795C70.8457 13.785 70.6477 14.118 70.0627 14.118ZM73.0468 17.025H74.3338V14.802C74.6668 15.009 75.1168 15.126 75.5128 15.126C76.5118 15.126 77.2318 14.505 77.2318 12.768C77.2318 11.949 77.0518 11.247 76.6378 10.842C76.3858 10.599 76.0258 10.464 75.5848 10.464C75.0448 10.464 74.5768 10.662 74.1988 10.914L74.1628 10.59H73.0468V17.025ZM75.1348 14.109C74.8558 14.109 74.5408 14.073 74.3338 13.983V11.625C74.5498 11.562 74.8918 11.508 75.0988 11.508C75.6838 11.508 75.8818 11.805 75.8818 12.75C75.8818 13.812 75.6748 14.109 75.1348 14.109ZM79.514 15.126C80.837 15.126 81.503 14.595 81.503 13.677C81.503 11.85 79.091 12.561 79.091 11.814C79.091 11.562 79.343 11.454 79.802 11.454C80.162 11.454 80.702 11.526 81.161 11.652L81.26 10.707C80.783 10.545 80.234 10.464 79.793 10.464C78.47 10.464 77.876 11.067 77.876 11.886C77.876 13.713 80.279 12.948 80.279 13.731C80.279 14.046 79.973 14.136 79.487 14.136C79.01 14.136 78.398 14.037 78.065 13.929L77.966 14.883C78.317 15.009 78.992 15.126 79.514 15.126Z" fill="white"/>
<path d="M196.221 37.1338H194.814V26.4697H196.221V37.1338ZM199.708 29.209L199.752 30.2051C200.357 29.4434 201.148 29.0625 202.125 29.0625C203.8 29.0625 204.644 30.0073 204.659 31.897V37.1338H203.304V31.8896C203.299 31.3184 203.167 30.896 202.908 30.6226C202.655 30.3491 202.257 30.2124 201.715 30.2124C201.275 30.2124 200.889 30.3296 200.557 30.564C200.225 30.7983 199.967 31.106 199.781 31.4868V37.1338H198.426V29.209H199.708ZM208.38 27.29V29.209H209.86V30.2563H208.38V35.1709C208.38 35.4883 208.446 35.7275 208.578 35.8887C208.71 36.0449 208.935 36.123 209.252 36.123C209.408 36.123 209.623 36.0938 209.897 36.0352V37.1338C209.54 37.2314 209.193 37.2803 208.857 37.2803C208.251 37.2803 207.795 37.0972 207.487 36.731C207.179 36.3647 207.025 35.8447 207.025 35.1709V30.2563H205.583V29.209H207.025V27.29H208.38ZM214.578 37.2803C213.503 37.2803 212.629 36.9287 211.955 36.2256C211.282 35.5176 210.945 34.5728 210.945 33.3911V33.1421C210.945 32.356 211.094 31.6553 211.392 31.04C211.694 30.4199 212.114 29.9365 212.651 29.5898C213.193 29.2383 213.779 29.0625 214.409 29.0625C215.439 29.0625 216.24 29.4019 216.811 30.0806C217.383 30.7593 217.668 31.731 217.668 32.9956V33.5596H212.3C212.319 34.3408 212.546 34.9731 212.981 35.4565C213.42 35.9351 213.977 36.1743 214.651 36.1743C215.129 36.1743 215.535 36.0767 215.867 35.8813C216.199 35.686 216.489 35.4272 216.738 35.105L217.566 35.7495C216.902 36.77 215.906 37.2803 214.578 37.2803ZM214.409 30.1758C213.862 30.1758 213.403 30.376 213.032 30.7764C212.661 31.1719 212.432 31.7285 212.344 32.4463H216.313V32.3438C216.274 31.6553 216.089 31.123 215.757 30.7471C215.425 30.3662 214.975 30.1758 214.409 30.1758ZM222.913 30.4248C222.708 30.3906 222.486 30.3735 222.247 30.3735C221.358 30.3735 220.755 30.752 220.438 31.5088V37.1338H219.083V29.209H220.401L220.423 30.1245C220.867 29.4165 221.497 29.0625 222.313 29.0625C222.576 29.0625 222.777 29.0967 222.913 29.165V30.4248ZM225.287 29.209L225.331 30.2051C225.937 29.4434 226.728 29.0625 227.704 29.0625C229.379 29.0625 230.224 30.0073 230.238 31.897V37.1338H228.883V31.8896C228.878 31.3184 228.747 30.896 228.488 30.6226C228.234 30.3491 227.836 30.2124 227.294 30.2124C226.855 30.2124 226.469 30.3296 226.137 30.564C225.805 30.7983 225.546 31.106 225.36 31.4868V37.1338H224.005V29.209H225.287ZM235.41 37.2803C234.336 37.2803 233.462 36.9287 232.788 36.2256C232.114 35.5176 231.777 34.5728 231.777 33.3911V33.1421C231.777 32.356 231.926 31.6553 232.224 31.04C232.527 30.4199 232.947 29.9365 233.484 29.5898C234.026 29.2383 234.612 29.0625 235.242 29.0625C236.272 29.0625 237.073 29.4019 237.644 30.0806C238.215 30.7593 238.501 31.731 238.501 32.9956V33.5596H233.132C233.152 34.3408 233.379 34.9731 233.813 35.4565C234.253 35.9351 234.809 36.1743 235.483 36.1743C235.962 36.1743 236.367 36.0767 236.699 35.8813C237.031 35.686 237.322 35.4272 237.571 35.105L238.398 35.7495C237.734 36.77 236.738 37.2803 235.41 37.2803ZM235.242 30.1758C234.695 30.1758 234.236 30.376 233.865 30.7764C233.494 31.1719 233.264 31.7285 233.176 32.4463H237.146V32.3438C237.107 31.6553 236.921 31.123 236.589 30.7471C236.257 30.3662 235.808 30.1758 235.242 30.1758ZM241.754 27.29V29.209H243.233V30.2563H241.754V35.1709C241.754 35.4883 241.82 35.7275 241.951 35.8887C242.083 36.0449 242.308 36.123 242.625 36.123C242.781 36.123 242.996 36.0938 243.27 36.0352V37.1338C242.913 37.2314 242.567 37.2803 242.23 37.2803C241.624 37.2803 241.168 37.0972 240.86 36.731C240.552 36.3647 240.399 35.8447 240.399 35.1709V30.2563H238.956V29.209H240.399V27.29H241.754Z" fill="#417926"/>
<path d="M170.567 38.1582C169.171 38.1582 168.035 39.2889 168.035 40.6793C168.035 42.0697 169.171 43.2005 170.567 43.2005C171.963 43.2005 173.098 42.0697 173.098 40.6793C173.098 39.2889 171.963 38.1582 170.567 38.1582ZM170.567 42.1423C169.757 42.1423 169.098 41.486 169.098 40.6793C169.098 39.8727 169.757 39.2163 170.567 39.2163C171.377 39.2163 172.036 39.8727 172.036 40.6793C172.036 41.486 171.377 42.1423 170.567 42.1423Z" fill="#417926" stroke="#417926" stroke-width="0.526624"/>
<path d="M170.566 33.2266C167.884 33.2266 165.38 34.4227 163.696 36.5104C163.513 36.7373 163.549 37.0716 163.778 37.2546C164.006 37.4366 164.341 37.4029 164.525 37.1739C166.006 35.3387 168.208 34.2857 170.566 34.2857C172.926 34.2857 175.127 35.3387 176.607 37.1769C176.712 37.3068 176.866 37.3753 177.021 37.3753C177.138 37.3753 177.256 37.3375 177.353 37.2587C177.582 37.0757 177.619 36.7424 177.436 36.5145C175.754 34.4248 173.249 33.2266 170.566 33.2266Z" fill="#417926" stroke="#417926" stroke-width="0.526624"/>
<path d="M170.566 26.917C165.951 26.917 161.646 28.976 158.754 32.5655C158.57 32.7935 158.606 33.1268 158.836 33.3098C158.934 33.3875 159.051 33.4263 159.169 33.4263C159.325 33.4263 159.478 33.3589 159.582 33.228C162.271 29.89 166.274 27.9751 170.566 27.9751C174.854 27.9751 178.857 29.888 181.547 33.2229C181.732 33.4509 182.066 33.4866 182.294 33.3036C182.522 33.1206 182.559 32.7874 182.376 32.5594C179.482 28.974 175.179 26.917 170.566 26.917Z" fill="#417926" stroke="#417926" stroke-width="0.526624"/>
<path d="M187.015 28.866C182.989 23.8677 176.993 21 170.565 21C164.138 21 158.143 23.8667 154.117 28.865C153.933 29.093 153.969 29.4263 154.199 29.6093C154.426 29.7912 154.763 29.7565 154.946 29.5275C158.768 24.7807 164.462 22.0581 170.565 22.0581C176.669 22.0581 182.362 24.7807 186.186 29.5285C186.291 29.6583 186.445 29.7268 186.6 29.7268C186.717 29.7268 186.835 29.689 186.932 29.6103C187.161 29.4273 187.198 29.094 187.015 28.866Z" fill="#417926" stroke="#417926" stroke-width="0.526624"/>
</svg>
