<svg width="454" height="135" viewBox="0 0 454 135" fill="none" xmlns="http://www.w3.org/2000/svg">
<g filter="url(#filter0_f_103_2)">
<path fill-rule="evenodd" clip-rule="evenodd" d="M48.8518 78.7735H38V123.936H50.2575V106.041L55.4537 114.654H65.1208L70.0718 106.355V123.936H83.0434V78.7735H72.3906L60.4335 99.256L48.8518 78.7735ZM90.5771 118.659L90.581 118.664L90.5849 118.668C94.0765 122.868 99.3542 124.769 105.927 124.769C112.499 124.769 117.777 122.868 121.269 118.668L121.272 118.664L121.276 118.659C124.671 114.53 126.187 108.66 126.187 101.414C126.187 94.1662 124.65 88.2931 121.212 84.1637C117.726 79.9275 112.47 78 105.927 78C99.3784 78 94.1101 79.9298 90.5865 84.1581L90.5818 84.1637L90.5771 84.1694C87.1823 88.2983 85.6661 94.1687 85.6661 101.414C85.6661 108.66 87.1823 114.53 90.5771 118.659ZM106.047 122.537C106.034 122.537 106.022 122.537 106.009 122.538C106.022 122.537 106.034 122.537 106.047 122.537ZM110.44 110.917L110.437 110.922L110.433 110.928C109.656 112.24 108.348 113.047 105.927 113.047C103.519 113.047 102.176 112.247 101.357 110.922C100.405 109.269 99.7682 106.228 99.7682 101.414C99.7682 96.5857 100.43 93.5508 101.414 91.9113C102.245 90.526 103.579 89.722 105.927 89.722C108.275 89.722 109.608 90.526 110.44 91.9113C111.423 93.5508 112.085 96.5857 112.085 101.414C112.085 106.243 111.423 109.278 110.44 110.917ZM138.345 78.7735H123.645L139.359 123.936H152.255L167.177 78.973V123.936H180.922V78.7735H153.447L146.165 103.015L138.345 78.7735ZM185.848 110.442L183.533 121.925L185.375 122.563C189.654 124.046 194.409 124.769 199.612 124.769C202.682 124.769 205.374 124.46 207.632 123.782L207.645 123.778L207.659 123.774C209.978 123.046 212.006 121.891 213.7 120.292L213.702 120.29C216.475 117.663 217.79 114.186 217.79 110.102C217.79 106.935 217.088 104.142 215.455 101.94C214.027 99.9633 212.254 98.4551 210.135 97.4875C208.229 96.5797 205.875 95.7679 203.111 95.0357C201.28 94.5288 199.948 94.0995 199.073 93.7492C198.333 93.4536 197.766 93.0966 197.331 92.7012C197.151 92.4936 197.024 92.2129 197.024 91.7153C197.024 90.9452 197.255 90.5701 197.613 90.2923C198.062 89.974 199.165 89.603 201.398 89.603C204.096 89.603 207.152 90.0414 210.581 90.9557L212.863 91.5641L215.171 80.4076L213.29 79.7806C211.59 79.2139 209.672 78.7915 207.553 78.4997C205.427 78.1672 203.315 78 201.219 78C196.347 78 192.178 79.0593 188.914 81.3907C185.45 83.8653 183.815 87.5785 183.815 92.1318C183.815 95.3683 184.513 98.2127 186.16 100.426C187.637 102.411 189.459 103.919 191.625 104.881C193.554 105.738 195.917 106.528 198.684 107.26L198.692 107.262L198.699 107.264C201.274 107.927 202.943 108.544 203.868 109.068L203.881 109.075L203.895 109.083C204.22 109.261 204.363 109.428 204.435 109.548C204.506 109.668 204.581 109.865 204.581 110.221C204.581 111.503 204.18 112.003 203.692 112.299L203.679 112.307L203.666 112.315C202.942 112.767 201.442 113.166 198.779 113.166C197.399 113.166 195.712 113.006 193.699 112.665C191.692 112.286 189.879 111.816 188.253 111.262L185.848 110.442ZM215.959 89.96H228.573V123.936H242.318V89.96H254.411L255.599 78.7735H215.959V89.96ZM276.784 78.7735H263.377L248.257 123.936H261.87L265.024 113.701H274.975L278.367 123.936H306.141V109.179H307.658L315.155 123.936H330.771L321.199 106.538C322.882 105.38 324.245 103.897 325.253 102.092C326.66 99.6035 327.324 96.7546 327.324 93.6194C327.324 89.1211 326.069 85.3415 323.236 82.6576L323.229 82.6512C321.593 81.114 319.558 80.0983 317.214 79.5469C314.953 79.0148 312.062 78.7735 308.611 78.7735H292.396V122.007L276.784 78.7735ZM268.551 102.515L269.86 98.3118L271.242 102.515H268.551ZM308.075 89.96H306.141V97.9928H308.016C309.461 97.9928 310.497 97.9001 311.186 97.7559C311.807 97.5883 312.222 97.3552 312.505 97.1099L312.509 97.1061C312.946 96.7297 313.46 95.8352 313.46 93.7384C313.46 91.9589 313.043 91.1509 312.686 90.794C312.52 90.6285 312.188 90.4103 311.505 90.2737L311.464 90.2653L311.422 90.2554C310.668 90.0744 309.572 89.96 308.075 89.96ZM340.775 89.96H353.389V123.936H367.134V89.96H379.227L379.71 85.4076L393.116 123.936H406.012L421 78.7735H407.205L399.922 103.015L392.103 78.7735H340.775V89.96Z" fill="#00D1FF"/>
</g>
<path d="M38.44 78.96H45.82L58.78 101.88L72.16 78.96H79.36V120H70.78V96.36L62.26 110.64H55.06L46.3 96.12V120H38.44V78.96ZM104.685 120.84C98.4847 120.84 93.9047 119.06 90.9447 115.5C87.9847 111.9 86.5047 106.58 86.5047 99.54C86.5047 92.5 87.9847 87.18 90.9447 83.58C93.9447 79.98 98.5247 78.18 104.685 78.18C110.845 78.18 115.405 79.98 118.365 83.58C121.365 87.18 122.865 92.5 122.865 99.54C122.865 106.58 121.385 111.9 118.425 115.5C115.465 119.06 110.885 120.84 104.685 120.84ZM104.685 113.52C107.725 113.52 109.885 112.44 111.165 110.28C112.485 108.08 113.145 104.5 113.145 99.54C113.145 94.58 112.485 91 111.165 88.8C109.845 86.6 107.685 85.5 104.685 85.5C101.685 85.5 99.5247 86.6 98.2047 88.8C96.8847 91 96.2247 94.58 96.2247 99.54C96.2247 104.5 96.8647 108.08 98.1447 110.28C99.4647 112.44 101.645 113.52 104.685 113.52ZM125.716 78.96H135.736L145.336 108.72L154.276 78.96H163.396L149.776 120H139.996L125.716 78.96ZM168.697 78.96H178.057V120H168.697V78.96ZM199.154 120.84C194.114 120.84 189.574 120.14 185.534 118.74L186.974 111.6C188.734 112.2 190.674 112.7 192.794 113.1C194.914 113.46 196.754 113.64 198.314 113.64C201.114 113.64 203.154 113.24 204.434 112.44C205.754 111.64 206.414 110.3 206.414 108.42C206.414 107.02 205.794 105.98 204.554 105.3C203.354 104.62 201.434 103.94 198.794 103.26C196.074 102.54 193.814 101.78 192.014 100.98C190.214 100.18 188.674 98.92 187.394 97.2C186.114 95.48 185.474 93.14 185.474 90.18C185.474 86.18 186.874 83.18 189.674 81.18C192.474 79.18 196.174 78.18 200.774 78.18C202.774 78.18 204.794 78.34 206.834 78.66C208.874 78.94 210.674 79.34 212.234 79.86L210.794 86.82C207.194 85.86 203.914 85.38 200.954 85.38C198.554 85.38 196.834 85.76 195.794 86.52C194.794 87.28 194.294 88.36 194.294 89.76C194.294 90.8 194.614 91.66 195.254 92.34C195.934 92.98 196.774 93.5 197.774 93.9C198.774 94.3 200.214 94.76 202.094 95.28C204.814 96 207.054 96.78 208.814 97.62C210.574 98.42 212.074 99.68 213.314 101.4C214.594 103.12 215.234 105.42 215.234 108.3C215.234 111.9 214.094 114.78 211.814 116.94C210.374 118.3 208.634 119.3 206.594 119.94C204.594 120.54 202.114 120.84 199.154 120.84ZM230.607 85.74H217.887V78.96H253.107L252.387 85.74H239.967V120H230.607V85.74ZM265.071 78.96H275.391L290.211 120H280.191L276.771 109.68H263.451L260.271 120H251.331L265.071 78.96ZM274.491 102.9L269.991 89.22H269.871L265.611 102.9H274.491ZM294.963 78.96H309.063C312.463 78.96 315.183 79.2 317.223 79.68C319.263 80.16 320.943 81.02 322.263 82.26C324.543 84.42 325.683 87.56 325.683 91.68C325.683 94.52 325.083 97 323.883 99.12C322.723 101.2 321.003 102.78 318.723 103.86L327.603 120H317.043L309.483 105.12H304.323V120H294.963V78.96ZM308.463 98.34C310.023 98.34 311.263 98.24 312.183 98.04C313.103 97.8 313.863 97.42 314.463 96.9C315.623 95.9 316.203 94.2 316.203 91.8C316.203 89.72 315.723 88.2 314.763 87.24C314.203 86.68 313.423 86.3 312.423 86.1C311.423 85.86 310.123 85.74 308.523 85.74H304.323V98.34H308.463ZM356.466 85.74H343.746V78.96H378.966L378.246 85.74H365.826V120H356.466V85.74ZM381.595 78.96H391.615L401.215 108.72L410.155 78.96H419.275L405.655 120H395.875L381.595 78.96Z" fill="white"/>
<g filter="url(#filter1_f_103_2)">
<path fill-rule="evenodd" clip-rule="evenodd" d="M21.5806 27.9278H11.2253H9V25.7025V18.9968V16.7715H11.2253H46.0593H48.5336L48.2722 19.2318L47.5601 25.9375L47.3488 27.9278H45.3472H35.2887V59.587V61.8124H33.0634H23.8059H21.5806V59.587V27.9278ZM48.6644 16.7715H50.8897H78.306H80.7801L80.5188 19.2318L79.8067 25.9375L79.5954 27.9278H77.5938H62.3725V33.328H74.0926H76.318V35.5533V42.4964V44.7217H74.0926H62.3725V50.656H78.6027H80.828V52.8813V59.587V61.8124H78.6027H50.8897H48.6644V59.587V18.9968V16.7715ZM96.5902 16.7715H98.8155H112.761C116.204 16.7715 119.086 17.0121 121.341 17.5427C123.679 18.0926 125.708 19.1056 127.34 20.6387L127.347 20.6451L127.347 20.6455C130.172 23.322 131.424 27.0914 131.424 31.5774C131.424 34.7062 130.761 37.5492 129.355 40.0321L129.355 40.032C128.35 41.8298 126.993 43.3071 125.316 44.4608L133.048 58.5143L134.862 61.8124H131.098H120.654H119.288L118.67 60.595L111.811 47.0954H110.298V59.587V61.8124H108.073H98.8155H96.5902V59.587V18.9968V16.7715ZM113.176 44.8701V44.8703L113.176 44.8702L113.176 44.8701ZM122.315 43.6238L122.315 43.6239L122.315 43.6241L122.315 43.6239C122.315 43.6239 122.315 43.6238 122.315 43.6238ZM116.085 26.0586C116.084 26.0586 116.084 26.0586 116.084 26.0585L115.648 28.2406L115.606 28.2323L115.565 28.2225C114.813 28.0418 113.72 27.9278 112.227 27.9278H110.298V35.9391H112.168C113.608 35.9391 114.641 35.8466 115.328 35.7029C115.948 35.5358 116.362 35.3033 116.644 35.0585L116.649 35.0547C117.084 34.6794 117.597 33.7872 117.597 31.6961C117.597 29.9214 117.181 29.1155 116.825 28.7596C116.66 28.5945 116.329 28.3769 115.648 28.2406L116.085 26.0586ZM135.07 16.7715H137.295H164.712H167.186L166.924 19.2318L166.212 25.9375L166.002 27.9278H163.999H148.778V33.328H160.498H162.724V35.5533V42.4964V44.7217H160.498H148.778V50.656H165.008H167.234V52.8813V59.587V61.8124H165.008H137.295H135.07V59.587V18.9968V16.7715ZM175.394 23.9817C175.394 23.9817 175.394 23.9816 175.394 23.9816L175.356 23.9474L175.394 23.9817ZM173.753 22.478C177.773 18.0524 183.554 16 190.704 16C192.861 16 195.067 16.2108 197.318 16.6266C199.574 16.9969 201.499 17.487 203.027 18.135L204.655 18.8259L204.349 20.5682L203.163 27.3332L202.736 29.7637L200.362 29.0893C197.034 28.1438 194.037 27.6905 191.357 27.6905C187.78 27.6905 185.604 28.7034 184.303 30.308C182.898 32.042 182.011 34.872 182.011 39.1732C182.011 44.0287 182.801 47.0447 183.97 48.6801L183.974 48.6863C184.954 50.0678 186.738 51.012 189.992 51.012C190.883 51.012 191.783 50.9667 192.692 50.8755V46.502H189.221H186.995V44.2767V37.6303V35.405H189.221H204.116H206.341V37.6303V56.3702L219.09 18.2903L219.598 16.7715H221.2H231.407H232.969L233.5 18.241L248.157 58.8312L248.539 59.8886V59.587V18.9968V16.7715H250.765H260.022H262.248V18.9968V50.656H278.003H280.228V52.8813V55.3355L292.631 18.2903L293.139 16.7715H294.741H304.947H306.51L307.041 18.241L321.698 58.8312L322.08 59.8893V59.587V18.9968V16.7715H324.306H331.605H332.903L333.542 17.9015L344.453 37.199L355.734 17.8749L356.378 16.7715H357.656H364.777H367.003V18.9968V59.587V61.8124H364.777H356.291H354.066V59.587V44.2787L349.775 51.4698L349.128 52.5549H347.865H340.743H339.487L338.838 51.4791L334.305 43.9655V59.587V61.8124H332.079H324.306H322.775H322.08H319.605H309.695H308.088L307.583 60.287L304.706 51.6055H294.781L292.12 60.2423L291.636 61.8124H289.993H281.151H280.228H278.059H278.003H250.765H249.234H248.539H246.065H236.155H234.547L234.042 60.287L231.165 51.6055H221.241L218.58 60.2423L218.096 61.8124H216.453H207.611H204.519L204.992 60.3998L204.767 60.4687C202.687 61.1055 200.215 61.6206 197.373 62.0267C194.562 62.4341 191.98 62.6432 189.636 62.6432C182.347 62.6432 176.585 60.7804 172.982 56.5127C169.509 52.4013 167.946 46.6237 167.946 39.5293C167.946 32.5637 169.801 26.7896 173.753 22.4778L173.753 22.478ZM226.063 36.2571L224.758 40.4491H227.442L226.063 36.2571ZM299.604 36.257L298.299 40.4491H300.983L299.604 36.257ZM374.52 56.5544L374.516 56.5496C371.13 52.4319 369.618 46.5773 369.618 39.3512C369.618 32.1252 371.13 26.2705 374.516 22.1528L374.52 22.1472L374.525 22.1415C378.039 17.9246 383.293 16 389.824 16C396.348 16 401.587 17.9207 405.064 22.1417L405.064 22.1415C408.495 26.2601 410.03 32.1195 410.03 39.3512C410.03 46.5773 408.518 52.4319 405.132 56.5496L405.129 56.5544L405.125 56.5591C401.642 60.7472 396.379 62.6432 389.824 62.6432C383.269 62.6432 378.005 60.7472 374.523 56.5591L374.52 56.5544ZM394.319 48.8391L394.322 48.8338L394.324 48.8286C395.306 47.1936 395.966 44.1667 395.966 39.3512C395.966 34.5358 395.306 31.5089 394.324 29.8739C393.496 28.4923 392.166 27.6905 389.824 27.6905C387.482 27.6905 386.152 28.4923 385.323 29.8739C384.342 31.5089 383.682 34.5358 383.682 39.3512C383.682 44.1478 384.317 47.1805 385.265 48.8295C386.08 50.1529 387.42 50.9527 389.824 50.9527C392.239 50.9527 393.543 50.1474 394.319 48.8391ZM410.834 59.8069L411.219 57.9009L412.643 50.8391L413.144 48.3551L415.542 49.1728C417.164 49.7254 418.972 50.1936 420.972 50.572C422.98 50.9121 424.663 51.0714 426.04 51.0714C428.696 51.0714 430.192 50.6739 430.914 50.2228L430.926 50.2147L430.94 50.2068C431.427 49.9116 431.826 49.4127 431.826 48.1339C431.826 47.7791 431.751 47.5823 431.68 47.4635C431.609 47.3435 431.466 47.1773 431.142 46.9993L431.128 46.9919L431.115 46.9842C430.193 46.4617 428.528 45.8469 425.96 45.1855L425.953 45.1836L425.945 45.1817C423.185 44.451 420.828 43.6638 418.906 42.809C416.745 41.8489 414.928 40.3455 413.454 38.3654C411.812 36.1583 411.115 33.3215 411.115 30.0938C411.115 25.5528 412.746 21.8496 416.201 19.3816C419.457 17.0564 423.614 16 428.473 16C430.563 16 432.669 16.1667 434.79 16.4983C436.904 16.7894 438.815 17.2106 440.511 17.7758L442.387 18.4012L441.987 20.3378L440.563 27.2215L440.086 29.5276L437.81 28.9208C434.39 28.0091 431.343 27.5718 428.651 27.5718C426.422 27.5718 425.322 27.9427 424.875 28.2604C424.519 28.5374 424.289 28.9116 424.289 29.6784C424.289 30.1755 424.417 30.4556 424.596 30.6628C425.03 31.0566 425.596 31.4123 426.332 31.7069C427.205 32.0561 428.532 32.4841 430.358 32.9893C433.117 33.72 435.465 34.5303 437.367 35.4364C439.483 36.4026 441.251 37.9088 442.677 39.8831C444.301 42.0777 445 44.8607 445 48.0152C445 52.089 443.688 55.5566 440.922 58.1761L440.92 58.1784C439.231 59.7732 437.209 60.9252 434.895 61.6509L434.882 61.6552L434.869 61.6592C432.617 62.3348 429.932 62.6432 426.871 62.6432C421.681 62.6432 416.939 61.9224 412.672 60.4435L410.834 59.8069Z" fill="#00D1FF"/>
</g>
<path d="M20.56 25.74H7.84V18.96H43.06L42.34 25.74H29.92V60H20.56V25.74ZM47.9439 18.96H75.6639L74.9439 25.74H57.3039V35.7H71.4039V42.72H57.3039V53.22H75.9639V60H47.9439V18.96ZM96.4009 18.96H110.501C113.901 18.96 116.621 19.2 118.661 19.68C120.701 20.16 122.381 21.02 123.701 22.26C125.981 24.42 127.121 27.56 127.121 31.68C127.121 34.52 126.521 37 125.321 39.12C124.161 41.2 122.441 42.78 120.161 43.86L129.041 60H118.481L110.921 45.12H105.761V60H96.4009V18.96ZM109.901 38.34C111.461 38.34 112.701 38.24 113.621 38.04C114.541 37.8 115.301 37.42 115.901 36.9C117.061 35.9 117.641 34.2 117.641 31.8C117.641 29.72 117.161 28.2 116.201 27.24C115.641 26.68 114.861 26.3 113.861 26.1C112.861 25.86 111.561 25.74 109.961 25.74H105.761V38.34H109.901ZM135.307 18.96H163.027L162.307 25.74H144.667V35.7H158.767V42.72H144.667V53.22H163.327V60H135.307V18.96ZM188.228 60.84C181.188 60.84 176.148 59.04 173.108 55.44C170.068 51.84 168.548 46.6 168.548 39.72C168.548 33.08 170.308 27.84 173.828 24C177.348 20.12 182.508 18.18 189.308 18.18C191.348 18.18 193.448 18.38 195.608 18.78C197.808 19.14 199.568 19.6 200.888 20.16L199.688 27C196.168 26 192.928 25.5 189.968 25.5C185.928 25.5 182.968 26.66 181.088 28.98C179.208 31.3 178.268 34.76 178.268 39.36C178.268 44.4 179.068 48.04 180.668 50.28C182.228 52.48 184.868 53.58 188.588 53.58C190.228 53.58 191.888 53.44 193.568 53.16V44.52H187.808V37.8H202.868V58.74C200.908 59.34 198.528 59.84 195.728 60.24C192.968 60.64 190.468 60.84 188.228 60.84ZM220.142 18.96H230.462L245.282 60H235.262L231.842 49.68H218.522L215.342 60H206.402L220.142 18.96ZM229.562 42.9L225.062 29.22H224.942L220.682 42.9H229.562ZM250.034 18.96H259.394V53.22H277.574V60H250.034V18.96ZM294.497 18.96H304.817L319.637 60H309.617L306.197 49.68H292.877L289.697 60H280.757L294.497 18.96ZM303.917 42.9L299.417 29.22H299.297L295.037 42.9H303.917ZM324.389 18.96H331.769L344.729 41.88L358.109 18.96H365.309V60H356.729V36.36L348.209 50.64H341.009L332.249 36.12V60H324.389V18.96ZM390.634 60.84C384.434 60.84 379.854 59.06 376.894 55.5C373.934 51.9 372.454 46.58 372.454 39.54C372.454 32.5 373.934 27.18 376.894 23.58C379.894 19.98 384.474 18.18 390.634 18.18C396.794 18.18 401.354 19.98 404.314 23.58C407.314 27.18 408.814 32.5 408.814 39.54C408.814 46.58 407.334 51.9 404.374 55.5C401.414 59.06 396.834 60.84 390.634 60.84ZM390.634 53.52C393.674 53.52 395.834 52.44 397.114 50.28C398.434 48.08 399.094 44.5 399.094 39.54C399.094 34.58 398.434 31 397.114 28.8C395.794 26.6 393.634 25.5 390.634 25.5C387.634 25.5 385.474 26.6 384.154 28.8C382.834 31 382.174 34.58 382.174 39.54C382.174 44.5 382.814 48.08 384.094 50.28C385.414 52.44 387.594 53.52 390.634 53.52ZM428.091 60.84C423.051 60.84 418.511 60.14 414.471 58.74L415.911 51.6C417.671 52.2 419.611 52.7 421.731 53.1C423.851 53.46 425.691 53.64 427.251 53.64C430.051 53.64 432.091 53.24 433.371 52.44C434.691 51.64 435.351 50.3 435.351 48.42C435.351 47.02 434.731 45.98 433.491 45.3C432.291 44.62 430.371 43.94 427.731 43.26C425.011 42.54 422.751 41.78 420.951 40.98C419.151 40.18 417.611 38.92 416.331 37.2C415.051 35.48 414.411 33.14 414.411 30.18C414.411 26.18 415.811 23.18 418.611 21.18C421.411 19.18 425.111 18.18 429.711 18.18C431.711 18.18 433.731 18.34 435.771 18.66C437.811 18.94 439.611 19.34 441.171 19.86L439.731 26.82C436.131 25.86 432.851 25.38 429.891 25.38C427.491 25.38 425.771 25.76 424.731 26.52C423.731 27.28 423.231 28.36 423.231 29.76C423.231 30.8 423.551 31.66 424.191 32.34C424.871 32.98 425.711 33.5 426.711 33.9C427.711 34.3 429.151 34.76 431.031 35.28C433.751 36 435.991 36.78 437.751 37.62C439.511 38.42 441.011 39.68 442.251 41.4C443.531 43.12 444.171 45.42 444.171 48.3C444.171 51.9 443.031 54.78 440.751 56.94C439.311 58.3 437.571 59.3 435.531 59.94C433.531 60.54 431.051 60.84 428.091 60.84Z" fill="white"/>
<defs>
<filter id="filter0_f_103_2" x="30" y="70" width="399" height="62.769" filterUnits="userSpaceOnUse" color-interpolation-filters="sRGB">
<feFlood flood-opacity="0" result="BackgroundImageFix"/>
<feBlend mode="normal" in="SourceGraphic" in2="BackgroundImageFix" result="shape"/>
<feGaussianBlur stdDeviation="4" result="effect1_foregroundBlur_103_2"/>
</filter>
<filter id="filter1_f_103_2" x="0" y="7" width="454" height="64.6432" filterUnits="userSpaceOnUse" color-interpolation-filters="sRGB">
<feFlood flood-opacity="0" result="BackgroundImageFix"/>
<feBlend mode="normal" in="SourceGraphic" in2="BackgroundImageFix" result="shape"/>
<feGaussianBlur stdDeviation="4.5" result="effect1_foregroundBlur_103_2"/>
</filter>
</defs>
</svg>
