<svg width="201" height="184" viewBox="0 0 201 184" fill="none" xmlns="http://www.w3.org/2000/svg">
<path d="M191 -4.37114e-07C196.523 -1.95702e-07 201 4.47715 201 10L201 108L-4.72083e-06 108L-4.37114e-07 9.99999C-1.95703e-07 4.47715 4.47714 -8.59029e-06 10 -8.34888e-06L191 -4.37114e-07Z" fill="#5CB615"/>
<path d="M191 184C196.523 184 201 179.523 201 174L201 108L9.06291e-07 108L1.19249e-07 174C5.33895e-08 179.523 4.47714 184 10 184L191 184Z" fill="#BDE4A4"/>
<path d="M21.8409 24.0021H23.2649V14.1781H26.6889L26.8169 13.0581H18.3529V14.1781H21.8409V24.0021ZM28.4382 24.0021H29.8622V19.8261H31.5262C31.7502 19.8261 32.0382 19.8101 32.2302 19.7941C32.9502 21.2021 33.6542 22.6101 34.3582 24.0021H35.9422L33.5902 19.5541C34.8862 19.1061 35.6382 18.0501 35.6382 16.3701C35.6382 15.2821 35.3662 14.4661 34.8222 13.9381C34.1982 13.3141 33.1422 13.0581 31.6222 13.0581H28.4382V24.0021ZM29.8622 18.6741V14.1781H31.4622C32.5502 14.1781 33.2542 14.3381 33.6702 14.7541C34.0062 15.0901 34.1662 15.6181 34.1662 16.3701C34.1662 17.0741 34.0222 17.6341 33.6862 18.0181C33.3022 18.4501 32.6942 18.6741 31.5582 18.6741H29.8622ZM37.5512 11.8581L40.6072 9.66607L39.8552 8.65807L37.0392 11.1541L37.5512 11.8581ZM38.1112 24.0021H39.5352V13.0581H38.1112V24.0021ZM46.1711 24.2261C49.4511 24.2261 50.5391 21.7461 50.5391 18.5461C50.5391 15.3461 49.4511 12.8501 46.1711 12.8501C42.8911 12.8501 41.8031 15.3461 41.8031 18.5461C41.8031 21.7461 42.8911 24.2261 46.1711 24.2261ZM46.1711 22.9941C43.9151 22.9941 43.2911 21.2341 43.2911 18.5461C43.2911 15.8581 43.9151 14.0821 46.1711 14.0821C48.4271 14.0821 49.0511 15.8581 49.0511 18.5461C49.0511 21.2341 48.4271 22.9941 46.1711 22.9941ZM56.032 24.0021H57.296V15.7941L60.448 21.6821H61.632L64.816 15.8581V24.0021H66.16V13.0581H64.944L61.088 20.2581L57.28 13.0581H56.032V24.0021ZM72.7492 24.2261C76.0292 24.2261 77.1172 21.7461 77.1172 18.5461C77.1172 15.3461 76.0292 12.8501 72.7492 12.8501C69.4692 12.8501 68.3812 15.3461 68.3812 18.5461C68.3812 21.7461 69.4692 24.2261 72.7492 24.2261ZM72.7492 22.9941C70.4932 22.9941 69.8692 21.2341 69.8692 18.5461C69.8692 15.8581 70.4932 14.0821 72.7492 14.0821C75.0052 14.0821 75.6292 15.8581 75.6292 18.5461C75.6292 21.2341 75.0052 22.9941 72.7492 22.9941ZM81.8602 24.0021H83.4442L86.9482 13.0581H85.5402L82.7082 22.4501H82.6762L79.6522 13.0581H78.1802L81.8602 24.0021ZM88.6425 24.0021H90.0665V13.0581H88.6425V24.0021ZM95.5024 24.2261C96.7664 24.2261 97.7424 23.9221 98.3984 23.2981C98.9424 22.7861 99.2624 22.0341 99.2624 21.0741C99.2624 17.3301 93.6304 18.1781 93.6304 15.6821C93.6304 14.5141 94.5424 14.0341 96.0304 14.0341C96.7504 14.0341 97.5984 14.1461 98.3984 14.3541L98.6064 13.2661C97.8544 13.0101 96.8624 12.8501 95.9184 12.8501C93.7424 12.8501 92.2864 13.8421 92.2864 15.7781C92.2864 19.5381 97.9024 18.4661 97.9024 21.2181C97.9024 21.8101 97.6944 22.2421 97.3104 22.5461C96.8784 22.8821 96.2704 23.0421 95.3744 23.0421C94.4944 23.0421 93.4704 22.8501 92.6384 22.6101L92.3984 23.6981C93.2304 24.0341 94.4944 24.2261 95.5024 24.2261ZM103.388 24.0021H104.812V14.1781H108.236L108.364 13.0581H99.8997V14.1781H103.388V24.0021ZM107.851 24.0021H109.243L110.139 21.0901H114.283L115.243 24.0021H116.731L112.955 13.0581H111.323L107.851 24.0021ZM110.491 19.9701L112.139 14.5621H112.155L113.915 19.9701H110.491ZM118.344 24.0021H119.768V19.8261H121.432C121.656 19.8261 121.944 19.8101 122.136 19.7941C122.856 21.2021 123.56 22.6101 124.264 24.0021H125.848L123.496 19.5541C124.792 19.1061 125.544 18.0501 125.544 16.3701C125.544 15.2821 125.272 14.4661 124.728 13.9381C124.104 13.3141 123.048 13.0581 121.528 13.0581H118.344V24.0021ZM119.768 18.6741V14.1781H121.368C122.456 14.1781 123.16 14.3381 123.576 14.7541C123.912 15.0901 124.072 15.6181 124.072 16.3701C124.072 17.0741 123.928 17.6341 123.592 18.0181C123.208 18.4501 122.6 18.6741 121.464 18.6741H119.768ZM133.587 24.2261C134.995 24.2261 136.035 23.8901 136.691 23.2181C137.267 22.6421 137.571 21.8261 137.571 20.8021C137.571 19.8101 137.283 19.0421 136.739 18.4821C136.083 17.8101 135.123 17.5221 133.475 17.5221H132.643L132.787 14.1141H136.899V13.0581H131.667L131.459 17.6661C131.443 18.0181 131.443 18.1301 131.443 18.2581C131.443 18.3701 131.459 18.5141 131.491 18.5941H133.283C134.483 18.5941 135.203 18.7541 135.635 19.1861C136.003 19.5541 136.179 20.1461 136.179 20.8341C136.179 21.6181 135.955 22.1781 135.523 22.5461C135.059 22.9301 134.419 23.1061 133.331 23.1061C132.835 23.1061 131.875 23.0261 131.299 22.9301V23.9701C131.875 24.1141 132.835 24.2261 133.587 24.2261ZM143.151 24.2261C145.871 24.2261 146.911 22.1141 146.911 18.5461C146.911 14.9781 145.871 12.8501 143.151 12.8501C140.431 12.8501 139.391 14.9781 139.391 18.5461C139.391 22.1141 140.431 24.2261 143.151 24.2261ZM143.151 23.0901C141.375 23.0901 140.783 21.6021 140.783 18.5461C140.783 15.4901 141.375 13.9861 143.151 13.9861C144.927 13.9861 145.519 15.4901 145.519 18.5461C145.519 21.6021 144.927 23.0901 143.151 23.0901ZM148.891 24.0021H150.155V15.7941L153.307 21.6821H154.491L157.675 15.8581V24.0021H159.019V13.0581H157.803L153.947 20.2581L150.139 13.0581H148.891V24.0021ZM165.033 24.2261C166.985 24.2261 168.089 22.8981 168.089 20.0501C168.089 17.2341 166.953 15.9381 165.049 15.9381C164.281 15.9381 163.433 16.2101 162.793 16.5621V12.5621H161.465V24.0021H162.537L162.601 23.4741C163.225 23.9061 164.185 24.2261 165.033 24.2261ZM164.729 23.1221C164.089 23.1221 163.321 22.8821 162.793 22.5621V17.5221C163.321 17.2661 164.089 17.0741 164.697 17.0741C166.089 17.0741 166.697 17.9381 166.697 20.0501C166.697 22.3221 166.057 23.1221 164.729 23.1221ZM169.918 27.6021H171.246V23.6341C171.822 24.0021 172.67 24.2261 173.486 24.2261C175.358 24.2261 176.542 22.9941 176.542 20.0501C176.542 17.5541 175.566 15.9381 173.534 15.9381C172.814 15.9381 171.902 16.1941 171.086 16.7381L171.022 16.1621H169.918V27.6021ZM173.15 23.1221C172.478 23.1221 171.71 22.9141 171.246 22.6421V17.6021C171.854 17.2821 172.638 17.0741 173.246 17.0741C174.558 17.0741 175.15 18.0341 175.15 20.0341C175.15 22.2741 174.574 23.1221 173.15 23.1221ZM180.435 24.2261C182.323 24.2261 183.603 23.4901 183.603 21.8261C183.603 19.0261 179.235 19.8581 179.235 18.0981C179.235 17.3621 179.827 16.9941 180.947 16.9941C181.587 16.9941 182.307 17.0901 183.011 17.2501L183.123 16.2741C182.499 16.0821 181.619 15.9381 180.835 15.9381C179.171 15.9381 177.987 16.6741 177.987 18.1941C177.987 21.0741 182.355 20.1621 182.355 21.9221C182.355 22.7221 181.667 23.1541 180.387 23.1541C179.699 23.1541 178.835 23.0421 178.195 22.8661L178.131 23.8901C178.723 24.0821 179.683 24.2261 180.435 24.2261Z" fill="white"/>
<path d="M23.3289 95.0021H24.7529V90.9221H26.7849C28.0969 90.9221 28.9929 90.6021 29.5849 90.0261C30.1929 89.4181 30.4809 88.5381 30.4809 87.3701C30.4809 86.3621 30.2249 85.5301 29.6809 84.9861C29.0569 84.3461 28.0329 84.0581 26.4649 84.0581H23.3289V95.0021ZM24.7529 89.7701V85.1781H26.3529C27.4089 85.1781 28.0809 85.3541 28.4969 85.7701C28.8489 86.1221 29.0089 86.6501 29.0089 87.4021C29.0089 88.2661 28.8009 88.8581 28.4169 89.2261C27.9849 89.6261 27.2969 89.7701 26.3049 89.7701H24.7529ZM32.0271 95.0021H33.3551V88.6661C33.9151 88.3141 34.5711 88.1381 35.2591 88.1381C35.4831 88.1381 35.7711 88.1541 35.9471 88.1701V86.9861C35.7711 86.9541 35.5791 86.9381 35.4351 86.9381C34.7471 86.9381 33.9631 87.2101 33.2111 87.8341L33.1311 87.1621H32.0271V95.0021ZM40.4351 95.2261C41.1551 95.2261 42.0831 95.1141 42.7551 94.9221L42.6271 93.9301C42.0191 94.0581 41.2511 94.1381 40.6911 94.1381C39.6991 94.1381 39.1071 93.9301 38.6911 93.5461C38.2271 93.1141 38.0031 92.4101 38.0031 91.5461H43.0591C43.1871 91.5461 43.2511 91.4981 43.2511 91.3701V91.0661C43.2511 88.4901 42.1951 86.9381 40.0031 86.9381C38.0031 86.9381 36.6111 88.2981 36.6111 91.0981C36.6111 92.5061 36.9311 93.5781 37.6351 94.2821C38.2751 94.9221 39.2191 95.2261 40.4351 95.2261ZM38.0031 90.5701C38.0191 88.9861 38.6751 88.0101 40.0031 88.0101C41.3151 88.0101 41.8911 89.0661 41.9391 90.5701H38.0031ZM48.5929 95.2261C49.1689 95.2261 50.0489 95.1141 50.5609 94.9701L50.4649 93.9781C50.0649 94.0581 49.3609 94.1381 48.8329 94.1381C47.8729 94.1381 47.2009 93.9141 46.7529 93.4021C46.3209 92.9061 46.0969 92.1541 46.0969 91.1621C46.0969 89.0821 46.9289 88.0101 48.7689 88.0101C49.2649 88.0101 49.9049 88.1061 50.4009 88.2021L50.4809 87.1781C49.9369 87.0341 49.2169 86.9381 48.6089 86.9381C47.4089 86.9381 46.4009 87.2901 45.7289 88.0101C45.0569 88.7301 44.7049 89.8021 44.7049 91.1781C44.7049 92.5541 45.0889 93.5781 45.7449 94.2501C46.3849 94.9061 47.3129 95.2261 48.5929 95.2261ZM52.98 85.6741H53.06C53.54 85.6741 53.844 85.4341 53.844 84.8261V84.7941C53.844 84.1861 53.54 83.9461 53.06 83.9461H52.98C52.5 83.9461 52.196 84.1861 52.196 84.7941V84.8261C52.196 85.4341 52.5 85.6741 52.98 85.6741ZM52.356 95.0021H53.684V87.1621H52.356V95.0021ZM59.101 95.2261C61.533 95.2261 62.669 93.6901 62.669 91.0821C62.669 88.4741 61.533 86.9381 59.101 86.9381C56.669 86.9381 55.533 88.4741 55.533 91.0821C55.533 93.6901 56.669 95.2261 59.101 95.2261ZM59.101 94.1381C57.501 94.1381 56.925 93.0821 56.925 91.0821C56.925 89.0821 57.501 88.0261 59.101 88.0261C60.701 88.0261 61.277 89.0821 61.277 91.0821C61.277 93.0821 60.701 94.1381 59.101 94.1381ZM67.7615 95.0021H69.0895V88.6661C69.6495 88.3141 70.3055 88.1381 70.9935 88.1381C71.2175 88.1381 71.5055 88.1541 71.6815 88.1701V86.9861C71.5055 86.9541 71.3135 86.9381 71.1695 86.9381C70.4815 86.9381 69.6975 87.2101 68.9455 87.8341L68.8655 87.1621H67.7615V95.0021ZM76.1695 95.2261C76.8895 95.2261 77.8175 95.1141 78.4895 94.9221L78.3615 93.9301C77.7535 94.0581 76.9855 94.1381 76.4255 94.1381C75.4335 94.1381 74.8415 93.9301 74.4255 93.5461C73.9615 93.1141 73.7375 92.4101 73.7375 91.5461H78.7935C78.9215 91.5461 78.9855 91.4981 78.9855 91.3701V91.0661C78.9855 88.4901 77.9295 86.9381 75.7375 86.9381C73.7375 86.9381 72.3455 88.2981 72.3455 91.0981C72.3455 92.5061 72.6655 93.5781 73.3695 94.2821C74.0095 94.9221 74.9535 95.2261 76.1695 95.2261ZM73.7375 90.5701C73.7535 88.9861 74.4095 88.0101 75.7375 88.0101C77.0495 88.0101 77.6255 89.0661 77.6735 90.5701H73.7375ZM83.8792 98.8261C86.5352 98.8261 87.5912 97.9461 87.5912 96.3621C87.5912 95.7221 87.4152 95.1781 87.0152 94.7781C86.5032 94.2661 85.7352 94.0421 84.3592 94.0421H82.8552C82.4232 94.0421 82.2152 93.8981 82.2152 93.5621C82.2152 93.2901 82.4072 92.8741 82.6472 92.6021C83.0152 92.7141 83.4152 92.7621 83.8792 92.7621C86.0232 92.7621 87.0312 91.5461 87.0312 89.8501C87.0312 88.7301 86.5832 87.8021 85.6392 87.3221L86.7272 85.4661C86.4712 85.2581 85.9912 85.0341 85.6232 84.9541L84.6792 87.0021C84.4392 86.9701 84.1672 86.9381 83.8792 86.9381C81.7352 86.9381 80.7272 88.1541 80.7272 89.8501C80.7272 90.8741 81.0952 91.7061 81.8312 92.2181C81.2712 92.7621 80.9032 93.4021 80.9032 94.0261C80.9032 94.3781 81.0152 94.6661 81.2712 94.8741C80.7272 95.2581 80.3752 95.9301 80.3752 96.6181C80.3752 98.0101 81.4632 98.8261 83.8792 98.8261ZM83.8792 91.7061C82.5832 91.7061 81.9912 91.0501 81.9912 89.8501C81.9912 88.6501 82.5832 87.9941 83.8792 87.9941C85.1752 87.9941 85.7672 88.6501 85.7672 89.8501C85.7672 91.0501 85.1752 91.7061 83.8792 91.7061ZM84.0072 97.7061C82.2632 97.7061 81.6232 97.2261 81.6232 96.3781C81.6232 95.9621 81.7992 95.5301 82.0872 95.1781C82.2472 95.2101 82.4392 95.2261 82.6632 95.2261H84.3592C85.1432 95.2261 85.6552 95.3221 85.9592 95.5461C86.2152 95.7381 86.3432 96.0261 86.3432 96.4101C86.3432 97.2261 85.6712 97.7061 84.0072 97.7061ZM91.6191 95.2261C92.5311 95.2261 93.4751 94.9221 94.2911 94.4261L94.3551 95.0021H95.4591V87.1621H94.1311V93.5461C93.4911 93.8501 92.6751 94.0581 91.9711 94.0581C91.3951 94.0581 90.9791 93.9301 90.7071 93.6581C90.4351 93.3861 90.3231 93.0021 90.3231 92.3301V87.1621H88.9951V92.4901C88.9951 93.4661 89.2191 94.1061 89.6511 94.5381C90.0991 95.0021 90.7711 95.2261 91.6191 95.2261ZM97.715 95.0021H99.043V83.5621H97.715V95.0021ZM103.549 95.2261C104.493 95.2261 105.325 94.9221 106.013 94.4741L106.093 95.0021H107.165V89.7861C107.165 88.7621 106.973 88.1381 106.477 87.6581C105.981 87.1941 105.197 86.9381 104.029 86.9381C103.277 86.9381 102.381 87.0341 101.645 87.2101L101.693 88.2341C102.461 88.1061 103.213 88.0421 103.805 88.0421C104.589 88.0421 105.101 88.1861 105.437 88.5061C105.725 88.7941 105.837 89.1941 105.837 89.8341V90.3301H104.205C103.069 90.3301 102.141 90.5381 101.549 91.0821C101.133 91.4661 100.877 92.0421 100.877 92.7781C100.877 93.5141 101.117 94.0741 101.501 94.4741C101.981 94.9701 102.701 95.2261 103.549 95.2261ZM103.837 94.1541C102.813 94.1541 102.221 93.6901 102.221 92.7461C102.221 92.2661 102.381 91.9301 102.653 91.7061C103.021 91.4181 103.581 91.3061 104.397 91.3061H105.837V93.6421C105.261 93.9301 104.477 94.1541 103.837 94.1541ZM109.371 95.0021H110.699V88.6661C111.259 88.3141 111.915 88.1381 112.603 88.1381C112.827 88.1381 113.115 88.1541 113.291 88.1701V86.9861C113.115 86.9541 112.923 86.9381 112.779 86.9381C112.091 86.9381 111.307 87.2101 110.555 87.8341L110.475 87.1621H109.371V95.0021ZM120.94 95.2261C122.204 95.2261 123.18 94.9221 123.836 94.2981C124.38 93.7861 124.7 93.0341 124.7 92.0741C124.7 88.3301 119.068 89.1781 119.068 86.6821C119.068 85.5141 119.98 85.0341 121.468 85.0341C122.188 85.0341 123.036 85.1461 123.836 85.3541L124.044 84.2661C123.292 84.0101 122.3 83.8501 121.356 83.8501C119.18 83.8501 117.724 84.8421 117.724 86.7781C117.724 90.5381 123.34 89.4661 123.34 92.2181C123.34 92.8101 123.132 93.2421 122.748 93.5461C122.316 93.8821 121.708 94.0421 120.812 94.0421C119.932 94.0421 118.908 93.8501 118.076 93.6101L117.836 94.6981C118.668 95.0341 119.932 95.2261 120.94 95.2261ZM126.171 95.2261H127.467L132.187 83.8501H130.891L126.171 95.2261ZM134.846 95.0021H139.71V93.9781H138.046V84.6981C138.046 84.1221 137.822 83.9461 137.134 83.9461C136.558 83.9461 135.534 84.0261 134.878 84.1221V85.0181H136.734V93.9781H134.846V95.0021ZM145.306 95.2261C146.714 95.2261 147.754 94.8901 148.41 94.2181C148.986 93.6421 149.29 92.8261 149.29 91.8021C149.29 90.8101 149.002 90.0421 148.458 89.4821C147.802 88.8101 146.842 88.5221 145.194 88.5221H144.362L144.506 85.1141H148.618V84.0581H143.386L143.178 88.6661C143.162 89.0181 143.162 89.1301 143.162 89.2581C143.162 89.3701 143.178 89.5141 143.21 89.5941H145.002C146.202 89.5941 146.922 89.7541 147.354 90.1861C147.722 90.5541 147.898 91.1461 147.898 91.8341C147.898 92.6181 147.674 93.1781 147.242 93.5461C146.778 93.9301 146.138 94.1061 145.05 94.1061C144.554 94.1061 143.594 94.0261 143.018 93.9301V94.9701C143.594 95.1141 144.554 95.2261 145.306 95.2261ZM153.318 95.0021H154.774L158.054 85.3701C158.198 84.9541 158.23 84.7141 158.23 84.4101C158.23 84.2821 158.214 84.1381 158.182 84.0581H151.606V85.1141H156.886L153.318 95.0021ZM161.042 95.2261H161.154C161.634 95.2261 161.954 94.9861 161.954 94.3621V94.2981C161.954 93.6741 161.634 93.4341 161.154 93.4341H161.042C160.562 93.4341 160.242 93.6741 160.242 94.2981V94.3621C160.242 94.9861 160.562 95.2261 161.042 95.2261ZM166.507 95.2261C167.787 95.2261 168.795 94.8421 169.467 94.0421C170.331 93.0181 170.747 91.3381 170.747 88.9701C170.747 85.8341 169.803 83.8501 167.131 83.8501C164.859 83.8501 163.659 85.4021 163.659 87.5141C163.659 89.6741 164.843 90.7941 166.731 90.7941C167.643 90.7941 168.603 90.5221 169.371 90.2021C169.259 92.7781 168.555 94.1381 166.395 94.1381C165.883 94.1381 165.195 94.0741 164.715 94.0101V95.0341C165.243 95.1461 165.947 95.2261 166.507 95.2261ZM167.003 89.7221C165.547 89.7221 165.003 88.9221 165.003 87.4341C165.003 85.9141 165.723 84.9381 167.099 84.9381C168.843 84.9381 169.387 86.3781 169.387 88.6661V89.3061C168.651 89.5461 167.707 89.7221 167.003 89.7221ZM176.151 95.2261C178.871 95.2261 179.911 93.1141 179.911 89.5461C179.911 85.9781 178.871 83.8501 176.151 83.8501C173.431 83.8501 172.391 85.9781 172.391 89.5461C172.391 93.1141 173.431 95.2261 176.151 95.2261ZM176.151 94.0901C174.375 94.0901 173.783 92.6021 173.783 89.5461C173.783 86.4901 174.375 84.9861 176.151 84.9861C177.927 84.9861 178.519 86.4901 178.519 89.5461C178.519 92.6021 177.927 94.0901 176.151 94.0901Z" fill="white"/>
<path d="M33.7289 79.1031C31.3769 79.1031 29.2582 78.7765 27.3729 78.1231L28.0449 74.7911C28.8662 75.0711 29.7715 75.3045 30.7609 75.4911C31.7502 75.6591 32.6089 75.7431 33.3369 75.7431C34.6435 75.7431 35.5955 75.5565 36.1929 75.1831C36.8089 74.8098 37.1169 74.1845 37.1169 73.3071C37.1169 72.6538 36.8275 72.1685 36.2489 71.8511C35.6889 71.5338 34.7929 71.2165 33.5609 70.8991C32.2915 70.5631 31.2369 70.2085 30.3969 69.8351C29.5569 69.4618 28.8382 68.8738 28.2409 68.0711C27.6435 67.2685 27.3449 66.1765 27.3449 64.7951C27.3449 62.9285 27.9982 61.5285 29.3049 60.5951C30.6115 59.6618 32.3382 59.1951 34.4849 59.1951C35.4182 59.1951 36.3609 59.2698 37.3129 59.4191C38.2649 59.5498 39.1049 59.7365 39.8329 59.9791L39.1609 63.2271C37.4809 62.7791 35.9502 62.5551 34.5689 62.5551C33.4489 62.5551 32.6462 62.7325 32.1609 63.0871C31.6942 63.4418 31.4609 63.9458 31.4609 64.5991C31.4609 65.0845 31.6102 65.4858 31.9089 65.8031C32.2262 66.1018 32.6182 66.3445 33.0849 66.5311C33.5515 66.7178 34.2235 66.9325 35.1009 67.1751C36.3702 67.5111 37.4155 67.8751 38.2369 68.2671C39.0582 68.6405 39.7582 69.2285 40.3369 70.0311C40.9342 70.8338 41.2329 71.9071 41.2329 73.2511C41.2329 74.9311 40.7009 76.2751 39.6369 77.2831C38.9649 77.9178 38.1529 78.3845 37.2009 78.6831C36.2675 78.9631 35.1102 79.1031 33.7289 79.1031ZM51.6725 59.1951H55.2285L46.8005 79.1031H43.2445L51.6725 59.1951Z" fill="white"/>
<path d="M78.7399 39.4261H57.0479V32.4901H87.3759C87.6933 32.9887 87.8519 33.9181 87.8519 35.2781C87.8519 37.7261 87.4893 39.9474 86.7639 41.9421L73.7079 79.0021H63.3039L78.7399 39.4261ZM116.793 39.4261H95.1014V32.4901H125.429C125.747 32.9887 125.905 33.9181 125.905 35.2781C125.905 37.7261 125.543 39.9474 124.817 41.9421L111.761 79.0021H101.357L116.793 39.4261Z" fill="white"/>
<path d="M134.84 50.8023C134.199 50.8023 133.722 50.6636 133.41 50.3863C133.098 50.109 132.942 49.6496 132.942 49.0083V48.6963C132.942 48.055 133.098 47.5956 133.41 47.3183C133.722 47.041 134.199 46.9023 134.84 46.9023H135.022C135.664 46.9023 136.14 47.041 136.452 47.3183C136.764 47.5956 136.92 48.055 136.92 48.6963V49.0083C136.92 49.6496 136.764 50.109 136.452 50.3863C136.14 50.6636 135.664 50.8023 135.022 50.8023H134.84ZM144.389 50.8023C143.245 50.8023 142.023 50.6896 140.723 50.4643V47.6303C141.728 47.8036 142.664 47.8903 143.531 47.8903C144.415 47.8903 145.126 47.821 145.663 47.6823C146.218 47.5436 146.668 47.301 147.015 46.9543C147.396 46.573 147.665 46.079 147.821 45.4723C147.994 44.8656 148.098 44.0943 148.133 43.1583C147.578 43.453 146.954 43.6783 146.261 43.8343C145.585 43.9903 144.926 44.0683 144.285 44.0683C142.69 44.0683 141.451 43.5916 140.567 42.6383C139.7 41.6676 139.267 40.2983 139.267 38.5303C139.267 36.537 139.804 35.003 140.879 33.9283C141.954 32.8536 143.514 32.3163 145.559 32.3163C147.864 32.3163 149.52 33.027 150.525 34.4483C151.53 35.8523 152.033 37.9496 152.033 40.7403C152.033 44.6923 151.227 47.4743 149.615 49.0863C149.026 49.6756 148.306 50.109 147.457 50.3863C146.608 50.6636 145.585 50.8023 144.389 50.8023ZM145.585 41.2603C145.966 41.2603 146.4 41.2343 146.885 41.1823C147.388 41.1303 147.821 41.0696 148.185 41.0003V40.0123C148.185 38.279 147.986 37.0396 147.587 36.2943C147.188 35.5316 146.486 35.1503 145.481 35.1503C143.8 35.1503 142.959 36.2336 142.959 38.4003C142.959 39.5096 143.15 40.2636 143.531 40.6623C143.93 41.061 144.614 41.2603 145.585 41.2603ZM161.435 50.8023C159.026 50.8023 157.284 50.0483 156.209 48.5403C155.152 47.015 154.623 44.6923 154.623 41.5723C154.623 38.4523 155.152 36.1296 156.209 34.6043C157.284 33.079 159.026 32.3163 161.435 32.3163C163.844 32.3163 165.578 33.079 166.635 34.6043C167.71 36.1296 168.247 38.4523 168.247 41.5723C168.247 44.6923 167.71 47.015 166.635 48.5403C165.578 50.0483 163.844 50.8023 161.435 50.8023ZM161.435 47.8123C162.163 47.8123 162.735 47.6303 163.151 47.2663C163.567 46.9023 163.87 46.2696 164.061 45.3683C164.269 44.467 164.373 43.2016 164.373 41.5723C164.373 39.9256 164.269 38.6343 164.061 37.6983C163.87 36.745 163.558 36.069 163.125 35.6703C162.709 35.2543 162.146 35.0463 161.435 35.0463C160.724 35.0463 160.152 35.2543 159.719 35.6703C159.303 36.069 158.991 36.745 158.783 37.6983C158.592 38.6343 158.497 39.9256 158.497 41.5723C158.497 43.2016 158.592 44.467 158.783 45.3683C158.991 46.2696 159.303 46.9023 159.719 47.2663C160.135 47.6303 160.707 47.8123 161.435 47.8123Z" fill="white"/>
<path d="M66.4118 134.352H63.0518V132.096H66.4118V128.736H68.6678V132.096H72.0278V134.352H68.6678V137.712H66.4118V134.352ZM76.5065 124.584H81.8585C83.0105 124.584 83.9625 124.688 84.7145 124.896C85.4825 125.088 86.1065 125.392 86.5865 125.808C87.3545 126.48 87.7385 127.416 87.7385 128.616C87.7385 129.448 87.5465 130.16 87.1625 130.752C86.7785 131.328 86.2025 131.808 85.4345 132.192C86.4745 132.336 87.3145 132.768 87.9545 133.488C88.5945 134.192 88.9145 135.072 88.9145 136.128C88.9145 137.664 88.4585 138.84 87.5465 139.656C87.0185 140.12 86.3385 140.464 85.5065 140.688C84.6745 140.896 83.6185 141 82.3385 141H76.5065V124.584ZM81.5225 131.112C82.0505 131.112 82.4665 131.08 82.7705 131.016C83.0905 130.936 83.3465 130.8 83.5385 130.608C83.8585 130.288 84.0185 129.8 84.0185 129.144C84.0185 128.536 83.8665 128.08 83.5625 127.776C83.3865 127.6 83.1465 127.48 82.8425 127.416C82.5385 127.336 82.1305 127.296 81.6185 127.296H80.2505V131.112H81.5225ZM81.7865 138.288C82.5065 138.288 83.0825 138.248 83.5145 138.168C83.9465 138.072 84.2745 137.912 84.4985 137.688C84.8505 137.336 85.0265 136.84 85.0265 136.2C85.0265 135.336 84.8185 134.728 84.4025 134.376C84.1625 134.168 83.8425 134.024 83.4425 133.944C83.0425 133.864 82.4905 133.824 81.7865 133.824H80.2505V138.288H81.7865ZM98.2231 141.336C95.7431 141.336 93.9111 140.624 92.7271 139.2C91.5431 137.76 90.9511 135.632 90.9511 132.816C90.9511 130 91.5431 127.872 92.7271 126.432C93.9271 124.992 95.7591 124.272 98.2231 124.272C100.687 124.272 102.511 124.992 103.695 126.432C104.895 127.872 105.495 130 105.495 132.816C105.495 135.632 104.903 137.76 103.719 139.2C102.535 140.624 100.703 141.336 98.2231 141.336ZM98.2231 138.408C99.4391 138.408 100.303 137.976 100.815 137.112C101.343 136.232 101.607 134.8 101.607 132.816C101.607 130.832 101.343 129.4 100.815 128.52C100.287 127.64 99.4231 127.2 98.2231 127.2C97.0231 127.2 96.1591 127.64 95.6311 128.52C95.1031 129.4 94.8391 130.832 94.8391 132.816C94.8391 134.8 95.0951 136.232 95.6071 137.112C96.1351 137.976 97.0071 138.408 98.2231 138.408ZM108.358 124.584H111.118L118.894 135.096V124.584H122.182V141H119.182L111.646 131.04V141H108.358V124.584ZM132.301 141.336C129.821 141.336 127.989 140.624 126.805 139.2C125.621 137.76 125.029 135.632 125.029 132.816C125.029 130 125.621 127.872 126.805 126.432C128.005 124.992 129.837 124.272 132.301 124.272C134.765 124.272 136.589 124.992 137.773 126.432C138.973 127.872 139.573 130 139.573 132.816C139.573 135.632 138.981 137.76 137.797 139.2C136.613 140.624 134.781 141.336 132.301 141.336ZM132.301 138.408C133.517 138.408 134.381 137.976 134.893 137.112C135.421 136.232 135.685 134.8 135.685 132.816C135.685 130.832 135.421 129.4 134.893 128.52C134.365 127.64 133.501 127.2 132.301 127.2C131.101 127.2 130.237 127.64 129.709 128.52C129.181 129.4 128.917 130.832 128.917 132.816C128.917 134.8 129.173 136.232 129.685 137.112C130.213 137.976 131.085 138.408 132.301 138.408ZM48.9568 166C48.8928 165.824 48.8608 165.568 48.8608 165.232C48.8608 164.736 48.9328 164.296 49.0768 163.912C49.2208 163.528 49.4688 163.128 49.8208 162.712L53.0128 158.824C54.0048 157.624 54.6848 156.712 55.0528 156.088C55.4208 155.448 55.6048 154.808 55.6048 154.168C55.6048 153.464 55.3888 152.936 54.9568 152.584C54.4768 152.168 53.6448 151.96 52.4608 151.96C51.4368 151.96 50.3648 152.064 49.2448 152.272V149.728C49.7568 149.6 50.3568 149.496 51.0448 149.416C51.7488 149.32 52.4208 149.272 53.0608 149.272C55.3168 149.272 56.9568 149.784 57.9808 150.808C58.7648 151.592 59.1568 152.656 59.1568 154C59.1568 155.008 58.9008 155.976 58.3888 156.904C57.8768 157.816 56.9648 158.992 55.6528 160.432L52.7968 163.552H59.4208V166H48.9568ZM68.7234 166.336C66.4994 166.336 64.8914 165.64 63.8994 164.248C62.9234 162.84 62.4354 160.696 62.4354 157.816C62.4354 154.936 62.9234 152.792 63.8994 151.384C64.8914 149.976 66.4994 149.272 68.7234 149.272C70.9474 149.272 72.5474 149.976 73.5234 151.384C74.5154 152.792 75.0114 154.936 75.0114 157.816C75.0114 160.696 74.5154 162.84 73.5234 164.248C72.5474 165.64 70.9474 166.336 68.7234 166.336ZM68.7234 163.576C69.3954 163.576 69.9234 163.408 70.3074 163.072C70.6914 162.736 70.9714 162.152 71.1474 161.32C71.3394 160.488 71.4354 159.32 71.4354 157.816C71.4354 156.296 71.3394 155.104 71.1474 154.24C70.9714 153.36 70.6834 152.736 70.2834 152.368C69.8994 151.984 69.3794 151.792 68.7234 151.792C68.0674 151.792 67.5394 151.984 67.1394 152.368C66.7554 152.736 66.4674 153.36 66.2754 154.24C66.0994 155.104 66.0114 156.296 66.0114 157.816C66.0114 159.32 66.0994 160.488 66.2754 161.32C66.4674 162.152 66.7554 162.736 67.1394 163.072C67.5234 163.408 68.0514 163.576 68.7234 163.576ZM83.1141 166.336C80.8901 166.336 79.2821 165.64 78.2901 164.248C77.3141 162.84 76.8261 160.696 76.8261 157.816C76.8261 154.936 77.3141 152.792 78.2901 151.384C79.2821 149.976 80.8901 149.272 83.1141 149.272C85.3381 149.272 86.9381 149.976 87.9141 151.384C88.9061 152.792 89.4021 154.936 89.4021 157.816C89.4021 160.696 88.9061 162.84 87.9141 164.248C86.9381 165.64 85.3381 166.336 83.1141 166.336ZM83.1141 163.576C83.7861 163.576 84.3141 163.408 84.6981 163.072C85.0821 162.736 85.3621 162.152 85.5381 161.32C85.7301 160.488 85.8261 159.32 85.8261 157.816C85.8261 156.296 85.7301 155.104 85.5381 154.24C85.3621 153.36 85.0741 152.736 84.6741 152.368C84.2901 151.984 83.7701 151.792 83.1141 151.792C82.4581 151.792 81.9301 151.984 81.5301 152.368C81.1461 152.736 80.8581 153.36 80.6661 154.24C80.4901 155.104 80.4021 156.296 80.4021 157.816C80.4021 159.32 80.4901 160.488 80.6661 161.32C80.8581 162.152 81.1461 162.736 81.5301 163.072C81.9141 163.408 82.4421 163.576 83.1141 163.576ZM97.4713 149.584H100.423L105.607 158.752L110.959 149.584H113.839V166H110.407V156.544L106.999 162.256H104.119L100.615 156.448V166H97.4713V149.584ZM123.561 166.336C122.969 166.336 122.361 166.24 121.737 166.048C121.113 165.856 120.553 165.592 120.057 165.256L119.889 166H117.057V148.84H120.489V154.696C120.889 154.456 121.385 154.264 121.977 154.12C122.585 153.976 123.169 153.904 123.729 153.904C126.721 153.904 128.217 155.96 128.217 160.072C128.217 161.144 128.105 162.112 127.881 162.976C127.657 163.824 127.329 164.488 126.897 164.968C126.497 165.432 126.025 165.776 125.481 166C124.937 166.224 124.297 166.336 123.561 166.336ZM122.529 163.648C123.313 163.648 123.857 163.392 124.161 162.88C124.465 162.352 124.617 161.432 124.617 160.12C124.617 159.192 124.545 158.48 124.401 157.984C124.257 157.488 124.033 157.144 123.729 156.952C123.441 156.76 123.041 156.664 122.529 156.664C121.697 156.664 121.017 156.768 120.489 156.976V163.072C120.777 163.232 121.105 163.368 121.473 163.48C121.857 163.592 122.209 163.648 122.529 163.648ZM130.487 154.24H133.463L133.559 155.104C134.759 154.304 135.991 153.904 137.255 153.904C138.423 153.904 139.359 154.24 140.063 154.912C140.591 155.44 140.983 156.144 141.239 157.024C141.511 157.904 141.647 158.912 141.647 160.048C141.647 162.256 141.239 163.856 140.423 164.848C139.607 165.84 138.487 166.336 137.063 166.336C136.535 166.336 135.983 166.256 135.407 166.096C134.847 165.952 134.351 165.744 133.919 165.472V171.4H130.487V154.24ZM136.055 163.624C136.551 163.624 136.943 163.52 137.231 163.312C137.519 163.088 137.727 162.72 137.855 162.208C137.983 161.68 138.047 160.944 138.047 160C138.047 159.152 137.983 158.488 137.855 158.008C137.727 157.528 137.511 157.192 137.207 157C136.903 156.792 136.487 156.688 135.959 156.688C135.687 156.688 135.351 156.72 134.951 156.784C134.551 156.848 134.207 156.92 133.919 157V163.288C134.431 163.512 135.143 163.624 136.055 163.624ZM147.733 166.336C147.061 166.336 146.325 166.272 145.525 166.144C144.725 166.016 144.085 165.864 143.605 165.688L143.869 163.144C144.333 163.288 144.925 163.416 145.645 163.528C146.381 163.64 147.053 163.696 147.661 163.696C148.349 163.696 148.869 163.616 149.221 163.456C149.589 163.296 149.773 163.016 149.773 162.616C149.773 162.248 149.597 161.992 149.245 161.848C148.893 161.688 148.333 161.536 147.565 161.392C146.701 161.232 145.989 161.056 145.429 160.864C144.869 160.672 144.381 160.328 143.965 159.832C143.565 159.32 143.365 158.608 143.365 157.696C143.365 156.544 143.789 155.624 144.637 154.936C145.501 154.248 146.781 153.904 148.477 153.904C149.085 153.904 149.733 153.96 150.421 154.072C151.109 154.184 151.765 154.344 152.389 154.552L152.125 157.072C151.533 156.912 150.901 156.784 150.229 156.688C149.573 156.592 148.997 156.544 148.501 156.544C147.237 156.544 146.605 156.864 146.605 157.504C146.605 157.84 146.773 158.088 147.109 158.248C147.461 158.392 148.021 158.544 148.789 158.704C149.637 158.864 150.349 159.048 150.925 159.256C151.501 159.464 151.997 159.824 152.413 160.336C152.829 160.848 153.037 161.56 153.037 162.472C153.037 163.704 152.589 164.656 151.693 165.328C150.797 166 149.477 166.336 147.733 166.336Z" fill="#3C7521"/>
</svg>
