<svg width="392" height="129" viewBox="0 0 392 129" fill="none" xmlns="http://www.w3.org/2000/svg">
<path d="M0 15C0 6.71573 6.71573 0 15 0H242.017V128.678H15C6.71572 128.678 0 121.963 0 113.678V15Z" fill="#5CB615"/>
<path d="M392 15C392 6.71573 385.284 0 377 0H242.017V128.678H377C385.284 128.678 392 121.963 392 113.678V15Z" fill="#BDE4A4"/>
<path d="M31.32 25H32.922V13.948H36.774L36.918 12.688H27.396V13.948H31.32V25ZM38.742 25H40.344V20.302H42.216C42.468 20.302 42.792 20.284 43.008 20.266C43.818 21.85 44.61 23.434 45.402 25H47.184L44.538 19.996C45.996 19.492 46.842 18.304 46.842 16.414C46.842 15.19 46.536 14.272 45.924 13.678C45.222 12.976 44.034 12.688 42.324 12.688H38.742V25ZM40.344 19.006V13.948H42.144C43.368 13.948 44.16 14.128 44.628 14.596C45.006 14.974 45.186 15.568 45.186 16.414C45.186 17.206 45.024 17.836 44.646 18.268C44.214 18.754 43.53 19.006 42.252 19.006H40.344ZM48.9942 11.338L52.4322 8.872L51.5862 7.738L48.4182 10.546L48.9942 11.338ZM49.6242 25H51.2262V12.688H49.6242V25ZM58.6915 25.252C62.3815 25.252 63.6055 22.462 63.6055 18.862C63.6055 15.262 62.3815 12.454 58.6915 12.454C55.0015 12.454 53.7775 15.262 53.7775 18.862C53.7775 22.462 55.0015 25.252 58.6915 25.252ZM58.6915 23.866C56.1535 23.866 55.4515 21.886 55.4515 18.862C55.4515 15.838 56.1535 13.84 58.6915 13.84C61.2295 13.84 61.9315 15.838 61.9315 18.862C61.9315 21.886 61.2295 23.866 58.6915 23.866ZM69.785 25H71.207V15.766L74.753 22.39H76.085L79.667 15.838V25H81.179V12.688H79.811L75.473 20.788L71.189 12.688H69.785V25ZM88.5919 25.252C92.2819 25.252 93.5059 22.462 93.5059 18.862C93.5059 15.262 92.2819 12.454 88.5919 12.454C84.9019 12.454 83.6779 15.262 83.6779 18.862C83.6779 22.462 84.9019 25.252 88.5919 25.252ZM88.5919 23.866C86.0539 23.866 85.3519 21.886 85.3519 18.862C85.3519 15.838 86.0539 13.84 88.5919 13.84C91.1299 13.84 91.8319 15.838 91.8319 18.862C91.8319 21.886 91.1299 23.866 88.5919 23.866ZM98.8418 25H100.624L104.566 12.688H102.982L99.7958 23.254H99.7598L96.3578 12.688H94.7018L98.8418 25ZM106.472 25H108.074V12.688H106.472V25ZM114.189 25.252C115.611 25.252 116.709 24.91 117.447 24.208C118.059 23.632 118.419 22.786 118.419 21.706C118.419 17.494 112.083 18.448 112.083 15.64C112.083 14.326 113.109 13.786 114.783 13.786C115.593 13.786 116.547 13.912 117.447 14.146L117.681 12.922C116.835 12.634 115.719 12.454 114.657 12.454C112.209 12.454 110.571 13.57 110.571 15.748C110.571 19.978 116.889 18.772 116.889 21.868C116.889 22.534 116.655 23.02 116.223 23.362C115.737 23.74 115.053 23.92 114.045 23.92C113.055 23.92 111.903 23.704 110.967 23.434L110.697 24.658C111.633 25.036 113.055 25.252 114.189 25.252ZM123.06 25H124.662V13.948H128.514L128.658 12.688H119.136V13.948H123.06V25ZM128.082 25H129.648L130.656 21.724H135.318L136.398 25H138.072L133.824 12.688H131.988L128.082 25ZM131.052 20.464L132.906 14.38H132.924L134.904 20.464H131.052ZM139.887 25H141.489V20.302H143.361C143.613 20.302 143.937 20.284 144.153 20.266C144.963 21.85 145.755 23.434 146.547 25H148.329L145.683 19.996C147.141 19.492 147.987 18.304 147.987 16.414C147.987 15.19 147.681 14.272 147.069 13.678C146.367 12.976 145.179 12.688 143.469 12.688H139.887V25ZM141.489 19.006V13.948H143.289C144.513 13.948 145.305 14.128 145.773 14.596C146.151 14.974 146.331 15.568 146.331 16.414C146.331 17.206 146.169 17.836 145.791 18.268C145.359 18.754 144.675 19.006 143.397 19.006H141.489ZM157.035 25.252C158.619 25.252 159.789 24.874 160.527 24.118C161.175 23.47 161.517 22.552 161.517 21.4C161.517 20.284 161.193 19.42 160.581 18.79C159.843 18.034 158.763 17.71 156.909 17.71H155.973L156.135 13.876H160.761V12.688H154.875L154.641 17.872C154.623 18.268 154.623 18.394 154.623 18.538C154.623 18.664 154.641 18.826 154.677 18.916H156.693C158.043 18.916 158.853 19.096 159.339 19.582C159.753 19.996 159.951 20.662 159.951 21.436C159.951 22.318 159.699 22.948 159.213 23.362C158.691 23.794 157.971 23.992 156.747 23.992C156.189 23.992 155.109 23.902 154.461 23.794V24.964C155.109 25.126 156.189 25.252 157.035 25.252ZM167.794 25.252C170.854 25.252 172.024 22.876 172.024 18.862C172.024 14.848 170.854 12.454 167.794 12.454C164.734 12.454 163.564 14.848 163.564 18.862C163.564 22.876 164.734 25.252 167.794 25.252ZM167.794 23.974C165.796 23.974 165.13 22.3 165.13 18.862C165.13 15.424 165.796 13.732 167.794 13.732C169.792 13.732 170.458 15.424 170.458 18.862C170.458 22.3 169.792 23.974 167.794 23.974ZM174.252 25H175.674V15.766L179.22 22.39H180.552L184.134 15.838V25H185.646V12.688H184.278L179.94 20.788L175.656 12.688H174.252V25ZM192.411 25.252C194.607 25.252 195.849 23.758 195.849 20.554C195.849 17.386 194.571 15.928 192.429 15.928C191.565 15.928 190.611 16.234 189.891 16.63V12.13H188.397V25H189.603L189.675 24.406C190.377 24.892 191.457 25.252 192.411 25.252ZM192.069 24.01C191.349 24.01 190.485 23.74 189.891 23.38V17.71C190.485 17.422 191.349 17.206 192.033 17.206C193.599 17.206 194.283 18.178 194.283 20.554C194.283 23.11 193.563 24.01 192.069 24.01ZM197.906 29.05H199.4V24.586C200.048 25 201.002 25.252 201.92 25.252C204.026 25.252 205.358 23.866 205.358 20.554C205.358 17.746 204.26 15.928 201.974 15.928C201.164 15.928 200.138 16.216 199.22 16.828L199.148 16.18H197.906V29.05ZM201.542 24.01C200.786 24.01 199.922 23.776 199.4 23.47V17.8C200.084 17.44 200.966 17.206 201.65 17.206C203.126 17.206 203.792 18.286 203.792 20.536C203.792 23.056 203.144 24.01 201.542 24.01ZM209.738 25.252C211.862 25.252 213.302 24.424 213.302 22.552C213.302 19.402 208.388 20.338 208.388 18.358C208.388 17.53 209.054 17.116 210.314 17.116C211.034 17.116 211.844 17.224 212.636 17.404L212.762 16.306C212.06 16.09 211.07 15.928 210.188 15.928C208.316 15.928 206.984 16.756 206.984 18.466C206.984 21.706 211.898 20.68 211.898 22.66C211.898 23.56 211.124 24.046 209.684 24.046C208.91 24.046 207.938 23.92 207.218 23.722L207.146 24.874C207.812 25.09 208.892 25.252 209.738 25.252Z" fill="white"/>
<path d="M32.494 111.739H34.096V107.149H36.382C37.858 107.149 38.866 106.789 39.532 106.141C40.216 105.457 40.54 104.467 40.54 103.153C40.54 102.019 40.252 101.083 39.64 100.471C38.938 99.7511 37.786 99.4271 36.022 99.4271H32.494V111.739ZM34.096 105.853V100.687H35.896C37.084 100.687 37.84 100.885 38.308 101.353C38.704 101.749 38.884 102.343 38.884 103.189C38.884 104.161 38.65 104.827 38.218 105.241C37.732 105.691 36.958 105.853 35.842 105.853H34.096ZM42.2795 111.739H43.7735V104.611C44.4035 104.215 45.1415 104.017 45.9155 104.017C46.1675 104.017 46.4915 104.035 46.6895 104.053V102.721C46.4915 102.685 46.2755 102.667 46.1135 102.667C45.3395 102.667 44.4575 102.973 43.6115 103.675L43.5215 102.919H42.2795V111.739ZM51.7385 111.991C52.5485 111.991 53.5925 111.865 54.3485 111.649L54.2045 110.533C53.5205 110.677 52.6565 110.767 52.0265 110.767C50.9105 110.767 50.2445 110.533 49.7765 110.101C49.2545 109.615 49.0025 108.823 49.0025 107.851H54.6905C54.8345 107.851 54.9065 107.797 54.9065 107.653V107.311C54.9065 104.413 53.7185 102.667 51.2525 102.667C49.0025 102.667 47.4365 104.197 47.4365 107.347C47.4365 108.931 47.7965 110.137 48.5885 110.929C49.3085 111.649 50.3705 111.991 51.7385 111.991ZM49.0025 106.753C49.0205 104.971 49.7585 103.873 51.2525 103.873C52.7285 103.873 53.3765 105.061 53.4305 106.753H49.0025ZM60.916 111.991C61.564 111.991 62.554 111.865 63.13 111.703L63.022 110.587C62.572 110.677 61.78 110.767 61.186 110.767C60.106 110.767 59.35 110.515 58.846 109.939C58.36 109.381 58.108 108.535 58.108 107.419C58.108 105.079 59.044 103.873 61.114 103.873C61.672 103.873 62.392 103.981 62.95 104.089L63.04 102.937C62.428 102.775 61.618 102.667 60.934 102.667C59.584 102.667 58.45 103.063 57.694 103.873C56.938 104.683 56.542 105.889 56.542 107.437C56.542 108.985 56.974 110.137 57.712 110.893C58.432 111.631 59.476 111.991 60.916 111.991ZM65.8515 101.245H65.9415C66.4815 101.245 66.8235 100.975 66.8235 100.291V100.255C66.8235 99.5711 66.4815 99.3011 65.9415 99.3011H65.8515C65.3115 99.3011 64.9695 99.5711 64.9695 100.255V100.291C64.9695 100.975 65.3115 101.245 65.8515 101.245ZM65.1495 111.739H66.6435V102.919H65.1495V111.739ZM72.7376 111.991C75.4736 111.991 76.7516 110.263 76.7516 107.329C76.7516 104.395 75.4736 102.667 72.7376 102.667C70.0016 102.667 68.7236 104.395 68.7236 107.329C68.7236 110.263 70.0016 111.991 72.7376 111.991ZM72.7376 110.767C70.9376 110.767 70.2896 109.579 70.2896 107.329C70.2896 105.079 70.9376 103.891 72.7376 103.891C74.5376 103.891 75.1856 105.079 75.1856 107.329C75.1856 109.579 74.5376 110.767 72.7376 110.767ZM82.4807 111.739H83.9747V104.611C84.6047 104.215 85.3427 104.017 86.1167 104.017C86.3687 104.017 86.6927 104.035 86.8907 104.053V102.721C86.6927 102.685 86.4767 102.667 86.3147 102.667C85.5407 102.667 84.6587 102.973 83.8127 103.675L83.7227 102.919H82.4807V111.739ZM91.9397 111.991C92.7497 111.991 93.7937 111.865 94.5497 111.649L94.4057 110.533C93.7217 110.677 92.8577 110.767 92.2277 110.767C91.1117 110.767 90.4457 110.533 89.9777 110.101C89.4557 109.615 89.2037 108.823 89.2037 107.851H94.8917C95.0357 107.851 95.1077 107.797 95.1077 107.653V107.311C95.1077 104.413 93.9197 102.667 91.4537 102.667C89.2037 102.667 87.6377 104.197 87.6377 107.347C87.6377 108.931 87.9977 110.137 88.7897 110.929C89.5097 111.649 90.5717 111.991 91.9397 111.991ZM89.2037 106.753C89.2217 104.971 89.9597 103.873 91.4537 103.873C92.9297 103.873 93.5777 105.061 93.6317 106.753H89.2037ZM100.613 116.041C103.601 116.041 104.789 115.051 104.789 113.269C104.789 112.549 104.591 111.937 104.141 111.487C103.565 110.911 102.701 110.659 101.153 110.659H99.4612C98.9752 110.659 98.7412 110.497 98.7412 110.119C98.7412 109.813 98.9572 109.345 99.2272 109.039C99.6412 109.165 100.091 109.219 100.613 109.219C103.025 109.219 104.159 107.851 104.159 105.943C104.159 104.683 103.655 103.639 102.593 103.099L103.817 101.011C103.529 100.777 102.989 100.525 102.575 100.435L101.513 102.739C101.243 102.703 100.937 102.667 100.613 102.667C98.2012 102.667 97.0672 104.035 97.0672 105.943C97.0672 107.095 97.4812 108.031 98.3092 108.607C97.6792 109.219 97.2652 109.939 97.2652 110.641C97.2652 111.037 97.3912 111.361 97.6792 111.595C97.0672 112.027 96.6712 112.783 96.6712 113.557C96.6712 115.123 97.8952 116.041 100.613 116.041ZM100.613 108.031C99.1552 108.031 98.4892 107.293 98.4892 105.943C98.4892 104.593 99.1552 103.855 100.613 103.855C102.071 103.855 102.737 104.593 102.737 105.943C102.737 107.293 102.071 108.031 100.613 108.031ZM100.757 114.781C98.7952 114.781 98.0752 114.241 98.0752 113.287C98.0752 112.819 98.2732 112.333 98.5972 111.937C98.7772 111.973 98.9932 111.991 99.2452 111.991H101.153C102.035 111.991 102.611 112.099 102.953 112.351C103.241 112.567 103.385 112.891 103.385 113.323C103.385 114.241 102.629 114.781 100.757 114.781ZM109.321 111.991C110.347 111.991 111.409 111.649 112.327 111.091L112.399 111.739H113.641V102.919H112.147V110.101C111.427 110.443 110.509 110.677 109.717 110.677C109.069 110.677 108.601 110.533 108.295 110.227C107.989 109.921 107.863 109.489 107.863 108.733V102.919H106.369V108.913C106.369 110.011 106.621 110.731 107.107 111.217C107.611 111.739 108.367 111.991 109.321 111.991ZM116.178 111.739H117.672V98.8691H116.178V111.739ZM122.741 111.991C123.803 111.991 124.739 111.649 125.513 111.145L125.603 111.739H126.809V105.871C126.809 104.719 126.593 104.017 126.035 103.477C125.477 102.955 124.595 102.667 123.281 102.667C122.435 102.667 121.427 102.775 120.599 102.973L120.653 104.125C121.517 103.981 122.363 103.909 123.029 103.909C123.911 103.909 124.487 104.071 124.865 104.431C125.189 104.755 125.315 105.205 125.315 105.925V106.483H123.479C122.201 106.483 121.157 106.717 120.491 107.329C120.023 107.761 119.735 108.409 119.735 109.237C119.735 110.065 120.005 110.695 120.437 111.145C120.977 111.703 121.787 111.991 122.741 111.991ZM123.065 110.785C121.913 110.785 121.247 110.263 121.247 109.201C121.247 108.661 121.427 108.283 121.733 108.031C122.147 107.707 122.777 107.581 123.695 107.581H125.315V110.209C124.667 110.533 123.785 110.785 123.065 110.785ZM129.291 111.739H130.785V104.611C131.415 104.215 132.153 104.017 132.927 104.017C133.179 104.017 133.503 104.035 133.701 104.053V102.721C133.503 102.685 133.287 102.667 133.125 102.667C132.351 102.667 131.469 102.973 130.623 103.675L130.533 102.919H129.291V111.739ZM142.306 111.991C143.728 111.991 144.826 111.649 145.564 110.947C146.176 110.371 146.536 109.525 146.536 108.445C146.536 104.233 140.2 105.187 140.2 102.379C140.2 101.065 141.226 100.525 142.9 100.525C143.71 100.525 144.664 100.651 145.564 100.885L145.798 99.6611C144.952 99.3731 143.836 99.1931 142.774 99.1931C140.326 99.1931 138.688 100.309 138.688 102.487C138.688 106.717 145.006 105.511 145.006 108.607C145.006 109.273 144.772 109.759 144.34 110.101C143.854 110.479 143.17 110.659 142.162 110.659C141.172 110.659 140.02 110.443 139.084 110.173L138.814 111.397C139.75 111.775 141.172 111.991 142.306 111.991ZM148.192 111.991H149.65L154.96 99.1931H153.502L148.192 111.991ZM157.95 111.739H163.422V110.587H161.55V100.147C161.55 99.4991 161.298 99.3011 160.524 99.3011C159.876 99.3011 158.724 99.3911 157.986 99.4991V100.507H160.074V110.587H157.95V111.739ZM169.718 111.991C171.302 111.991 172.472 111.613 173.21 110.857C173.858 110.209 174.2 109.291 174.2 108.139C174.2 107.023 173.876 106.159 173.264 105.529C172.526 104.773 171.446 104.449 169.592 104.449H168.656L168.818 100.615H173.444V99.4271H167.558L167.324 104.611C167.306 105.007 167.306 105.133 167.306 105.277C167.306 105.403 167.324 105.565 167.36 105.655H169.376C170.726 105.655 171.536 105.835 172.022 106.321C172.436 106.735 172.634 107.401 172.634 108.175C172.634 109.057 172.382 109.687 171.896 110.101C171.374 110.533 170.654 110.731 169.43 110.731C168.872 110.731 167.792 110.641 167.144 110.533V111.703C167.792 111.865 168.872 111.991 169.718 111.991ZM178.732 111.739H180.37L184.06 100.903C184.222 100.435 184.258 100.165 184.258 99.8231C184.258 99.6791 184.24 99.5171 184.204 99.4271H176.806V100.615H182.746L178.732 111.739ZM187.421 111.991H187.547C188.087 111.991 188.447 111.721 188.447 111.019V110.947C188.447 110.245 188.087 109.975 187.547 109.975H187.421C186.881 109.975 186.521 110.245 186.521 110.947V111.019C186.521 111.721 186.881 111.991 187.421 111.991ZM193.57 111.991C195.01 111.991 196.144 111.559 196.9 110.659C197.872 109.507 198.34 107.617 198.34 104.953C198.34 101.425 197.278 99.1931 194.272 99.1931C191.716 99.1931 190.366 100.939 190.366 103.315C190.366 105.745 191.698 107.005 193.822 107.005C194.848 107.005 195.928 106.699 196.792 106.339C196.666 109.237 195.874 110.767 193.444 110.767C192.868 110.767 192.094 110.695 191.554 110.623V111.775C192.148 111.901 192.94 111.991 193.57 111.991ZM194.128 105.799C192.49 105.799 191.878 104.899 191.878 103.225C191.878 101.515 192.688 100.417 194.236 100.417C196.198 100.417 196.81 102.037 196.81 104.611V105.331C195.982 105.601 194.92 105.799 194.128 105.799ZM204.419 111.991C207.479 111.991 208.649 109.615 208.649 105.601C208.649 101.587 207.479 99.1931 204.419 99.1931C201.359 99.1931 200.189 101.587 200.189 105.601C200.189 109.615 201.359 111.991 204.419 111.991ZM204.419 110.713C202.421 110.713 201.755 109.039 201.755 105.601C201.755 102.163 202.421 100.471 204.419 100.471C206.417 100.471 207.083 102.163 207.083 105.601C207.083 109.039 206.417 110.713 204.419 110.713Z" fill="white"/>
<path d="M38.66 87.49C35.72 87.49 33.0717 87.0817 30.715 86.265L31.555 82.1C32.5817 82.45 33.7133 82.7417 34.95 82.975C36.1867 83.185 37.26 83.29 38.17 83.29C39.8033 83.29 40.9933 83.0567 41.74 82.59C42.51 82.1233 42.895 81.3417 42.895 80.245C42.895 79.4283 42.5333 78.8217 41.81 78.425C41.11 78.0283 39.99 77.6317 38.45 77.235C36.8633 76.815 35.545 76.3717 34.495 75.905C33.445 75.4383 32.5467 74.7033 31.8 73.7C31.0533 72.6967 30.68 71.3317 30.68 69.605C30.68 67.2717 31.4967 65.5217 33.13 64.355C34.7633 63.1883 36.9217 62.605 39.605 62.605C40.7717 62.605 41.95 62.6983 43.14 62.885C44.33 63.0483 45.38 63.2817 46.29 63.585L45.45 67.645C43.35 67.085 41.4367 66.805 39.71 66.805C38.31 66.805 37.3067 67.0267 36.7 67.47C36.1167 67.9133 35.825 68.5433 35.825 69.36C35.825 69.9667 36.0117 70.4683 36.385 70.865C36.7817 71.2383 37.2717 71.5417 37.855 71.775C38.4383 72.0083 39.2783 72.2767 40.375 72.58C41.9617 73 43.2683 73.455 44.295 73.945C45.3217 74.4117 46.1967 75.1467 46.92 76.15C47.6667 77.1533 48.04 78.495 48.04 80.175C48.04 82.275 47.375 83.955 46.045 85.215C45.205 86.0083 44.19 86.5917 43 86.965C41.8333 87.315 40.3867 87.49 38.66 87.49ZM61.0895 62.605H65.5345L54.9995 87.49H50.5545L61.0895 62.605Z" fill="white"/>
<path d="M94.16 43.44H68.64V35.28H104.32C104.693 35.8667 104.88 36.96 104.88 38.56C104.88 41.44 104.453 44.0533 103.6 46.4L88.24 90H76L94.16 43.44ZM138.929 43.44H113.409V35.28H149.089C149.462 35.8667 149.649 36.96 149.649 38.56C149.649 41.44 149.222 44.0533 148.369 46.4L133.009 90H120.769L138.929 43.44Z" fill="white"/>
<path d="M163.06 60.49C162.197 60.49 161.555 60.3033 161.135 59.93C160.715 59.5567 160.505 58.9383 160.505 58.075V57.655C160.505 56.7917 160.715 56.1733 161.135 55.8C161.555 55.4267 162.197 55.24 163.06 55.24H163.305C164.168 55.24 164.81 55.4267 165.23 55.8C165.65 56.1733 165.86 56.7917 165.86 57.655V58.075C165.86 58.9383 165.65 59.5567 165.23 59.93C164.81 60.3033 164.168 60.49 163.305 60.49H163.06ZM175.914 60.49C174.374 60.49 172.729 60.3383 170.979 60.035V56.22C172.332 56.4533 173.592 56.57 174.759 56.57C175.949 56.57 176.906 56.4767 177.629 56.29C178.376 56.1033 178.982 55.7767 179.449 55.31C179.962 54.7967 180.324 54.1317 180.534 53.315C180.767 52.4983 180.907 51.46 180.954 50.2C180.207 50.5967 179.367 50.9 178.434 51.11C177.524 51.32 176.637 51.425 175.774 51.425C173.627 51.425 171.959 50.7833 170.769 49.5C169.602 48.1933 169.019 46.35 169.019 43.97C169.019 41.2867 169.742 39.2217 171.189 37.775C172.636 36.3283 174.736 35.605 177.489 35.605C180.592 35.605 182.821 36.5617 184.174 38.475C185.527 40.365 186.204 43.1883 186.204 46.945C186.204 52.265 185.119 56.01 182.949 58.18C182.156 58.9733 181.187 59.5567 180.044 59.93C178.901 60.3033 177.524 60.49 175.914 60.49ZM177.524 47.645C178.037 47.645 178.621 47.61 179.274 47.54C179.951 47.47 180.534 47.3883 181.024 47.295V45.965C181.024 43.6317 180.756 41.9633 180.219 40.96C179.682 39.9333 178.737 39.42 177.384 39.42C175.121 39.42 173.989 40.8783 173.989 43.795C173.989 45.2883 174.246 46.3033 174.759 46.84C175.296 47.3767 176.217 47.645 177.524 47.645ZM198.86 60.49C195.617 60.49 193.272 59.475 191.825 57.445C190.402 55.3917 189.69 52.265 189.69 48.065C189.69 43.865 190.402 40.7383 191.825 38.685C193.272 36.6317 195.617 35.605 198.86 35.605C202.104 35.605 204.437 36.6317 205.86 38.685C207.307 40.7383 208.03 43.865 208.03 48.065C208.03 52.265 207.307 55.3917 205.86 57.445C204.437 59.475 202.104 60.49 198.86 60.49ZM198.86 56.465C199.84 56.465 200.61 56.22 201.17 55.73C201.73 55.24 202.139 54.3883 202.395 53.175C202.675 51.9617 202.815 50.2583 202.815 48.065C202.815 45.8483 202.675 44.11 202.395 42.85C202.139 41.5667 201.719 40.6567 201.135 40.12C200.575 39.56 199.817 39.28 198.86 39.28C197.904 39.28 197.134 39.56 196.55 40.12C195.99 40.6567 195.57 41.5667 195.29 42.85C195.034 44.11 194.905 45.8483 194.905 48.065C194.905 50.2583 195.034 51.9617 195.29 53.175C195.57 54.3883 195.99 55.24 196.55 55.73C197.11 56.22 197.88 56.465 198.86 56.465Z" fill="white"/>
<path d="M276.73 50.244H272.81V47.612H276.73V43.692H279.362V47.612H283.282V50.244H279.362V54.164H276.73V50.244ZM288.508 38.848H294.752C296.096 38.848 297.206 38.9693 298.084 39.212C298.98 39.436 299.708 39.7907 300.268 40.276C301.164 41.06 301.612 42.152 301.612 43.552C301.612 44.5227 301.388 45.3533 300.94 46.044C300.492 46.716 299.82 47.276 298.924 47.724C300.137 47.892 301.117 48.396 301.864 49.236C302.61 50.0573 302.984 51.084 302.984 52.316C302.984 54.108 302.452 55.48 301.388 56.432C300.772 56.9733 299.978 57.3747 299.008 57.636C298.037 57.8787 296.805 58 295.312 58H288.508V38.848ZM294.36 46.464C294.976 46.464 295.461 46.4267 295.816 46.352C296.189 46.2587 296.488 46.1 296.712 45.876C297.085 45.5027 297.272 44.9333 297.272 44.168C297.272 43.4587 297.094 42.9267 296.74 42.572C296.534 42.3667 296.254 42.2267 295.9 42.152C295.545 42.0587 295.069 42.012 294.472 42.012H292.876V46.464H294.36ZM294.668 54.836C295.508 54.836 296.18 54.7893 296.684 54.696C297.188 54.584 297.57 54.3973 297.832 54.136C298.242 53.7253 298.448 53.1467 298.448 52.4C298.448 51.392 298.205 50.6827 297.72 50.272C297.44 50.0293 297.066 49.8613 296.6 49.768C296.133 49.6747 295.489 49.628 294.668 49.628H292.876V54.836H294.668ZM313.844 58.392C310.95 58.392 308.813 57.5613 307.432 55.9C306.05 54.22 305.36 51.7373 305.36 48.452C305.36 45.1667 306.05 42.684 307.432 41.004C308.832 39.324 310.969 38.484 313.844 38.484C316.718 38.484 318.846 39.324 320.228 41.004C321.628 42.684 322.328 45.1667 322.328 48.452C322.328 51.7373 321.637 54.22 320.256 55.9C318.874 57.5613 316.737 58.392 313.844 58.392ZM313.844 54.976C315.262 54.976 316.27 54.472 316.868 53.464C317.484 52.4373 317.792 50.7667 317.792 48.452C317.792 46.1373 317.484 44.4667 316.868 43.44C316.252 42.4133 315.244 41.9 313.844 41.9C312.444 41.9 311.436 42.4133 310.82 43.44C310.204 44.4667 309.896 46.1373 309.896 48.452C309.896 50.7667 310.194 52.4373 310.792 53.464C311.408 54.472 312.425 54.976 313.844 54.976ZM325.668 38.848H328.888L337.96 51.112V38.848H341.796V58H338.296L329.504 46.38V58H325.668V38.848ZM353.601 58.392C350.708 58.392 348.571 57.5613 347.189 55.9C345.808 54.22 345.117 51.7373 345.117 48.452C345.117 45.1667 345.808 42.684 347.189 41.004C348.589 39.324 350.727 38.484 353.601 38.484C356.476 38.484 358.604 39.324 359.985 41.004C361.385 42.684 362.085 45.1667 362.085 48.452C362.085 51.7373 361.395 54.22 360.013 55.9C358.632 57.5613 356.495 58.392 353.601 58.392ZM353.601 54.976C355.02 54.976 356.028 54.472 356.625 53.464C357.241 52.4373 357.549 50.7667 357.549 48.452C357.549 46.1373 357.241 44.4667 356.625 43.44C356.009 42.4133 355.001 41.9 353.601 41.9C352.201 41.9 351.193 42.4133 350.577 43.44C349.961 44.4667 349.653 46.1373 349.653 48.452C349.653 50.7667 349.952 52.4373 350.549 53.464C351.165 54.472 352.183 54.976 353.601 54.976ZM256.366 90C256.292 89.7947 256.254 89.496 256.254 89.104C256.254 88.5253 256.338 88.012 256.506 87.564C256.674 87.116 256.964 86.6493 257.374 86.164L261.098 81.628C262.256 80.228 263.049 79.164 263.478 78.436C263.908 77.6893 264.122 76.9427 264.122 76.196C264.122 75.3747 263.87 74.7587 263.366 74.348C262.806 73.8627 261.836 73.62 260.454 73.62C259.26 73.62 258.009 73.7413 256.702 73.984V71.016C257.3 70.8667 258 70.7453 258.802 70.652C259.624 70.54 260.408 70.484 261.154 70.484C263.786 70.484 265.7 71.0813 266.894 72.276C267.809 73.1907 268.266 74.432 268.266 76C268.266 77.176 267.968 78.3053 267.37 79.388C266.773 80.452 265.709 81.824 264.178 83.504L260.846 87.144H268.574V90H256.366ZM279.427 90.392C276.833 90.392 274.957 89.58 273.799 87.956C272.661 86.3133 272.091 83.812 272.091 80.452C272.091 77.092 272.661 74.5907 273.799 72.948C274.957 71.3053 276.833 70.484 279.427 70.484C282.022 70.484 283.889 71.3053 285.027 72.948C286.185 74.5907 286.763 77.092 286.763 80.452C286.763 83.812 286.185 86.3133 285.027 87.956C283.889 89.58 282.022 90.392 279.427 90.392ZM279.427 87.172C280.211 87.172 280.827 86.976 281.275 86.584C281.723 86.192 282.05 85.5107 282.255 84.54C282.479 83.5693 282.591 82.2067 282.591 80.452C282.591 78.6787 282.479 77.288 282.255 76.28C282.05 75.2533 281.714 74.5253 281.247 74.096C280.799 73.648 280.193 73.424 279.427 73.424C278.662 73.424 278.046 73.648 277.579 74.096C277.131 74.5253 276.795 75.2533 276.571 76.28C276.366 77.288 276.263 78.6787 276.263 80.452C276.263 82.2067 276.366 83.5693 276.571 84.54C276.795 85.5107 277.131 86.192 277.579 86.584C278.027 86.976 278.643 87.172 279.427 87.172ZM296.216 90.392C293.622 90.392 291.746 89.58 290.588 87.956C289.45 86.3133 288.88 83.812 288.88 80.452C288.88 77.092 289.45 74.5907 290.588 72.948C291.746 71.3053 293.622 70.484 296.216 70.484C298.811 70.484 300.678 71.3053 301.816 72.948C302.974 74.5907 303.552 77.092 303.552 80.452C303.552 83.812 302.974 86.3133 301.816 87.956C300.678 89.58 298.811 90.392 296.216 90.392ZM296.216 87.172C297 87.172 297.616 86.976 298.064 86.584C298.512 86.192 298.839 85.5107 299.044 84.54C299.268 83.5693 299.38 82.2067 299.38 80.452C299.38 78.6787 299.268 77.288 299.044 76.28C298.839 75.2533 298.503 74.5253 298.036 74.096C297.588 73.648 296.982 73.424 296.216 73.424C295.451 73.424 294.835 73.648 294.368 74.096C293.92 74.5253 293.584 75.2533 293.36 76.28C293.155 77.288 293.052 78.6787 293.052 80.452C293.052 82.2067 293.155 83.5693 293.36 84.54C293.584 85.5107 293.92 86.192 294.368 86.584C294.816 86.976 295.432 87.172 296.216 87.172ZM312.967 70.848H316.411L322.459 81.544L328.703 70.848H332.063V90H328.059V78.968L324.083 85.632H320.723L316.635 78.856V90H312.967V70.848ZM343.405 90.392C342.714 90.392 342.005 90.28 341.277 90.056C340.549 89.832 339.895 89.524 339.317 89.132L339.121 90H335.817V69.98H339.821V76.812C340.287 76.532 340.866 76.308 341.557 76.14C342.266 75.972 342.947 75.888 343.601 75.888C347.091 75.888 348.837 78.2867 348.837 83.084C348.837 84.3347 348.706 85.464 348.445 86.472C348.183 87.4613 347.801 88.236 347.297 88.796C346.83 89.3373 346.279 89.7387 345.645 90C345.01 90.2613 344.263 90.392 343.405 90.392ZM342.201 87.256C343.115 87.256 343.75 86.9573 344.105 86.36C344.459 85.744 344.637 84.6707 344.637 83.14C344.637 82.0573 344.553 81.2267 344.385 80.648C344.217 80.0693 343.955 79.668 343.601 79.444C343.265 79.22 342.798 79.108 342.201 79.108C341.23 79.108 340.437 79.2293 339.821 79.472V86.584C340.157 86.7707 340.539 86.9293 340.969 87.06C341.417 87.1907 341.827 87.256 342.201 87.256ZM351.485 76.28H354.957L355.069 77.288C356.469 76.3547 357.906 75.888 359.381 75.888C360.743 75.888 361.835 76.28 362.657 77.064C363.273 77.68 363.73 78.5013 364.029 79.528C364.346 80.5547 364.505 81.7307 364.505 83.056C364.505 85.632 364.029 87.4987 363.077 88.656C362.125 89.8133 360.818 90.392 359.157 90.392C358.541 90.392 357.897 90.2987 357.225 90.112C356.571 89.944 355.993 89.7013 355.489 89.384V96.3H351.485V76.28ZM357.981 87.228C358.559 87.228 359.017 87.1067 359.353 86.864C359.689 86.6027 359.931 86.1733 360.081 85.576C360.23 84.96 360.305 84.1013 360.305 83C360.305 82.0107 360.23 81.236 360.081 80.676C359.931 80.116 359.679 79.724 359.325 79.5C358.97 79.2573 358.485 79.136 357.869 79.136C357.551 79.136 357.159 79.1733 356.693 79.248C356.226 79.3227 355.825 79.4067 355.489 79.5V86.836C356.086 87.0973 356.917 87.228 357.981 87.228ZM371.605 90.392C370.821 90.392 369.962 90.3173 369.029 90.168C368.095 90.0187 367.349 89.8413 366.789 89.636L367.097 86.668C367.638 86.836 368.329 86.9853 369.169 87.116C370.027 87.2467 370.811 87.312 371.521 87.312C372.323 87.312 372.93 87.2187 373.341 87.032C373.77 86.8453 373.985 86.5187 373.985 86.052C373.985 85.6227 373.779 85.324 373.369 85.156C372.958 84.9693 372.305 84.792 371.409 84.624C370.401 84.4373 369.57 84.232 368.917 84.008C368.263 83.784 367.694 83.3827 367.209 82.804C366.742 82.2067 366.509 81.376 366.509 80.312C366.509 78.968 367.003 77.8947 367.993 77.092C369.001 76.2893 370.494 75.888 372.473 75.888C373.182 75.888 373.938 75.9533 374.741 76.084C375.543 76.2147 376.309 76.4013 377.037 76.644L376.729 79.584C376.038 79.3973 375.301 79.248 374.517 79.136C373.751 79.024 373.079 78.968 372.501 78.968C371.026 78.968 370.289 79.3413 370.289 80.088C370.289 80.48 370.485 80.7693 370.877 80.956C371.287 81.124 371.941 81.3013 372.837 81.488C373.826 81.6747 374.657 81.8893 375.329 82.132C376.001 82.3747 376.579 82.7947 377.065 83.392C377.55 83.9893 377.793 84.82 377.793 85.884C377.793 87.3213 377.27 88.432 376.225 89.216C375.179 90 373.639 90.392 371.605 90.392Z" fill="#3C7521"/>
</svg>
