<svg width="127" height="46" viewBox="0 0 127 46" fill="none" xmlns="http://www.w3.org/2000/svg">
<path d="M0 2.82798C0 1.26613 1.26613 0 2.82798 0H123.639C125.201 0 126.467 1.26613 126.467 2.82798V42.8948C126.467 44.4567 125.201 45.7228 123.639 45.7228H2.82799C1.26613 45.7228 0 44.4567 0 42.8948V2.82798Z" fill="#E63780"/>
<path d="M4.60742 26.5652H6.50864L7.18491 24.3705H10.0176L10.7449 26.5652H12.8758L9.72412 17.8374H7.52943L4.60742 26.5652ZM7.64427 22.9286L8.55022 20.0194H8.57574L9.53273 22.9286H7.64427ZM16.8084 26.7438C17.4975 26.7438 17.9568 26.68 18.5693 26.5397L18.4289 25.2254C18.0334 25.302 17.5357 25.353 17.1274 25.353C15.8132 25.353 15.29 24.7278 15.29 23.439C15.29 22.801 15.4048 22.3162 15.7111 21.9844C15.979 21.7037 16.4129 21.5378 16.9743 21.5378C17.4975 21.5378 18.0334 21.6144 18.4162 21.7164L18.531 20.3639C17.9313 20.198 17.2678 20.1342 16.6936 20.1342C15.66 20.1342 14.7541 20.466 14.1927 21.0657C13.6312 21.6782 13.3888 22.5331 13.3888 23.5794C13.3888 24.2684 13.5547 24.9702 13.8992 25.4934C14.5499 26.5014 15.7366 26.7438 16.8084 26.7438ZM22.7148 26.7438C23.4039 26.7438 23.8632 26.68 24.4757 26.5397L24.3353 25.2254C23.9398 25.302 23.4422 25.353 23.0338 25.353C21.7196 25.353 21.1964 24.7278 21.1964 23.439C21.1964 22.801 21.3113 22.3162 21.6175 21.9844C21.8855 21.7037 22.3193 21.5378 22.8807 21.5378C23.4039 21.5378 23.9398 21.6144 24.3226 21.7164L24.4374 20.3639C23.8377 20.198 23.1742 20.1342 22.6 20.1342C21.5665 20.1342 20.6605 20.466 20.0991 21.0657C19.5376 21.6782 19.2952 22.5331 19.2952 23.5794C19.2952 24.2684 19.4611 24.9702 19.8056 25.4934C20.4564 26.5014 21.643 26.7438 22.7148 26.7438ZM28.634 26.7438C29.4124 26.7438 30.1397 26.6417 30.7394 26.5269L30.599 25.1999C30.1269 25.2892 29.4889 25.353 29.0423 25.353C27.8174 25.353 27.1666 25.0595 27.1156 24.0005H30.9563C31.0584 24.0005 31.1094 23.9622 31.1094 23.8601V23.2859C31.1094 21.1167 30.1142 20.1342 28.2385 20.1342C26.3245 20.1342 25.2016 21.2571 25.2016 23.4518C25.2016 24.4471 25.4185 25.3402 26.0438 25.94C26.5797 26.4503 27.4601 26.7438 28.634 26.7438ZM27.1156 22.8138C27.1539 22.0099 27.4856 21.5123 28.2257 21.5123C28.953 21.5123 29.323 22.0227 29.323 22.8138H27.1156ZM34.2907 26.7438C36.1664 26.7438 37.1106 25.991 37.1106 24.6895C37.1106 22.0992 33.691 23.1073 33.691 22.0482C33.691 21.6909 34.0483 21.5378 34.699 21.5378C35.2094 21.5378 35.975 21.6399 36.6258 21.8185L36.7661 20.4787C36.0899 20.2491 35.3115 20.1342 34.6863 20.1342C32.8106 20.1342 31.9684 20.9891 31.9684 22.1503C31.9684 24.7405 35.3753 23.6559 35.3753 24.766C35.3753 25.2126 34.9415 25.3402 34.2524 25.3402C33.5762 25.3402 32.7085 25.1999 32.2364 25.0468L32.096 26.3993C32.5937 26.5779 33.5506 26.7438 34.2907 26.7438ZM41.1761 26.7438C43.3452 26.7438 44.3533 25.4423 44.3533 23.439C44.3533 21.4357 43.3452 20.1342 41.1761 20.1342C39.0069 20.1342 37.9988 21.4357 37.9988 23.439C37.9988 25.4423 39.0069 26.7438 41.1761 26.7438ZM41.1761 25.353C40.2573 25.353 39.9001 24.7278 39.9001 23.439C39.9001 22.1503 40.2573 21.525 41.1761 21.525C42.0948 21.525 42.452 22.1503 42.452 23.439C42.452 24.7278 42.0948 25.353 41.1761 25.353ZM45.57 26.5652H47.3947V21.8696C47.7902 21.7802 48.1603 21.7164 48.6452 21.7164C48.9386 21.7164 49.2449 21.742 49.449 21.7675V20.1725C49.3725 20.1597 49.2321 20.147 49.13 20.147C48.5303 20.147 47.7009 20.3767 47.216 20.8233L47.1522 20.3129H45.57V26.5652ZM51.3232 19.2666H51.4125C52.0378 19.2666 52.3695 19.0241 52.3695 18.3989V18.233C52.3695 17.6078 52.0378 17.3526 51.4125 17.3526H51.3232C50.698 17.3526 50.3662 17.6078 50.3662 18.233V18.3989C50.3662 19.0241 50.698 19.2666 51.3232 19.2666ZM50.4556 26.5652H52.2802V20.3129H50.4556V26.5652ZM56.7022 26.7438C58.8714 26.7438 59.8794 25.4423 59.8794 23.439C59.8794 21.4357 58.8714 20.1342 56.7022 20.1342C54.533 20.1342 53.525 21.4357 53.525 23.439C53.525 25.4423 54.533 26.7438 56.7022 26.7438ZM56.7022 25.353C55.7835 25.353 55.4262 24.7278 55.4262 23.439C55.4262 22.1503 55.7835 21.525 56.7022 21.525C57.6209 21.525 57.9782 22.1503 57.9782 23.439C57.9782 24.7278 57.6209 25.353 56.7022 25.353ZM63.125 26.7438C65.0007 26.7438 65.9449 25.991 65.9449 24.6895C65.9449 22.0992 62.5253 23.1073 62.5253 22.0482C62.5253 21.6909 62.8825 21.5378 63.5333 21.5378C64.0437 21.5378 64.8093 21.6399 65.46 21.8185L65.6004 20.4787C64.9241 20.2491 64.1458 20.1342 63.5205 20.1342C61.6448 20.1342 60.8027 20.9891 60.8027 22.1503C60.8027 24.7405 64.2096 23.6559 64.2096 24.766C64.2096 25.2126 63.7757 25.3402 63.0867 25.3402C62.4104 25.3402 61.5428 25.1999 61.0706 25.0468L60.9303 26.3993C61.4279 26.5779 62.3849 26.7438 63.125 26.7438ZM72.0597 26.7438C72.8253 26.7438 73.5015 26.4759 74.0374 26.1186L74.0757 26.5652H75.6579V17.4419H73.8333V20.5936C73.3484 20.3001 72.7232 20.1342 72.1745 20.1342C70.6816 20.1342 69.6991 21.3719 69.6991 23.4518C69.6991 24.6767 69.9798 25.6337 70.5668 26.2079C70.924 26.5524 71.4472 26.7438 72.0597 26.7438ZM72.7487 25.3147C71.9193 25.3147 71.6131 24.8936 71.6131 23.5028C71.6131 21.9972 72.1107 21.5761 72.9656 21.5761C73.1953 21.5761 73.5526 21.6271 73.8333 21.7164V25.0978C73.5143 25.2254 73.0422 25.3147 72.7487 25.3147ZM80.2965 26.7438C81.0748 26.7438 81.8021 26.6417 82.4018 26.5269L82.2615 25.1999C81.7894 25.2892 81.1514 25.353 80.7048 25.353C79.4798 25.353 78.8291 25.0595 78.778 24.0005H82.6187C82.7208 24.0005 82.7719 23.9622 82.7719 23.8601V23.2859C82.7719 21.1167 81.7766 20.1342 79.9009 20.1342C77.9869 20.1342 76.8641 21.2571 76.8641 23.4518C76.8641 24.4471 77.081 25.3402 77.7062 25.94C78.2421 26.4503 79.1225 26.7438 80.2965 26.7438ZM78.778 22.8138C78.8163 22.0099 79.1481 21.5123 79.8881 21.5123C80.6154 21.5123 80.9855 22.0227 80.9855 22.8138H78.778ZM86.7903 26.5652H88.615V21.8696C89.0105 21.7802 89.3806 21.7164 89.8654 21.7164C90.1589 21.7164 90.4652 21.742 90.6693 21.7675V20.1725C90.5928 20.1597 90.4524 20.147 90.3503 20.147C89.7506 20.147 88.9212 20.3767 88.4363 20.8233L88.3725 20.3129H86.7903V26.5652ZM94.7011 26.7438C95.4795 26.7438 96.2068 26.6417 96.8065 26.5269L96.6661 25.1999C96.194 25.2892 95.556 25.353 95.1094 25.353C93.8845 25.353 93.2337 25.0595 93.1827 24.0005H97.0234C97.1255 24.0005 97.1765 23.9622 97.1765 23.8601V23.2859C97.1765 21.1167 96.1813 20.1342 94.3056 20.1342C92.3916 20.1342 91.2687 21.2571 91.2687 23.4518C91.2687 24.4471 91.4856 25.3402 92.1109 25.94C92.6468 26.4503 93.5272 26.7438 94.7011 26.7438ZM93.1827 22.8138C93.221 22.0099 93.5527 21.5123 94.2928 21.5123C95.0201 21.5123 95.3902 22.0227 95.3902 22.8138H93.1827ZM100.983 29.6148H101.085C103.331 29.6148 104.262 28.8492 104.262 27.5477C104.262 26.948 104.109 26.5397 103.803 26.2207C103.356 25.7613 102.642 25.5572 101.442 25.5572H100.217C100.09 25.5572 100.039 25.5061 100.039 25.3913C100.039 25.302 100.09 25.0978 100.205 24.8936C100.46 24.9319 100.728 24.9447 101.021 24.9447C102.782 24.9447 103.829 24.2046 103.829 22.5331C103.829 21.5378 103.42 20.8871 102.757 20.517L103.663 19.2538C103.293 18.9731 102.731 18.7306 102.246 18.6158L101.634 20.1725C101.43 20.147 101.225 20.1342 101.021 20.1342C99.2605 20.1342 98.2014 20.8743 98.2014 22.5331C98.2014 23.4773 98.5714 24.1153 99.1584 24.4981C98.6352 24.9319 98.329 25.4934 98.329 26.0165C98.329 26.3738 98.4311 26.6545 98.648 26.8331C98.2014 27.0628 97.9079 27.4584 97.9079 27.9688C97.9079 29.0916 98.8266 29.6148 100.983 29.6148ZM101.021 23.6432C100.179 23.6432 99.8474 23.2604 99.8474 22.5331C99.8474 21.8185 100.179 21.4357 101.021 21.4357C101.851 21.4357 102.182 21.8185 102.182 22.5331C102.182 23.2604 101.851 23.6432 101.021 23.6432ZM101.034 28.2367C99.8729 28.2367 99.5284 28.007 99.5284 27.5477C99.5284 27.3946 99.5667 27.2287 99.7071 27.0756H101.532C102.374 27.0756 102.629 27.2159 102.629 27.6243C102.629 28.0198 102.144 28.2367 101.225 28.2367H101.034ZM107.044 26.7438C107.708 26.7438 108.384 26.5269 108.92 26.1824L109.073 26.5652H110.515V22.5076C110.515 21.7547 110.349 21.2188 110.03 20.8488C109.596 20.3384 108.741 20.1342 107.784 20.1342C107.031 20.1342 106.202 20.2363 105.564 20.3639L105.653 21.7037C106.087 21.6144 106.815 21.5378 107.401 21.5378C107.899 21.5378 108.244 21.6016 108.461 21.793C108.614 21.9334 108.69 22.1503 108.69 22.4948V22.699H107.695C106.534 22.699 105.845 22.8521 105.398 23.2731C105.041 23.6177 104.849 24.1281 104.849 24.6895C104.849 25.9017 105.615 26.7438 107.044 26.7438ZM107.567 25.353C106.904 25.353 106.674 25.0723 106.674 24.6129C106.674 24.3833 106.738 24.2046 106.853 24.0898C107.019 23.9239 107.287 23.8729 107.72 23.8729H108.69V25.1616C108.397 25.2509 107.912 25.353 107.567 25.353ZM112.049 26.5652H113.874V17.4419H112.049V26.5652ZM118.296 26.7438C120.465 26.7438 121.473 25.4423 121.473 23.439C121.473 21.4357 120.465 20.1342 118.296 20.1342C116.127 20.1342 115.119 21.4357 115.119 23.439C115.119 25.4423 116.127 26.7438 118.296 26.7438ZM118.296 25.353C117.377 25.353 117.02 24.7278 117.02 23.439C117.02 22.1503 117.377 21.525 118.296 21.525C119.215 21.525 119.572 22.1503 119.572 23.439C119.572 24.7278 119.215 25.353 118.296 25.353Z" fill="white"/>
<path d="M38.0403 12.8279H42.5094V11.7465H39.5332V10.0718H41.7821V8.95214H39.5332V7.36354H42.3467L42.4616 6.28214H38.0403V12.8279ZM46.3374 15.0673L47.7059 14.895V8.1387H46.5767L46.5097 8.43536C46.1173 8.17698 45.6484 8.00472 45.1604 8.00472C44.6244 8.00472 44.1555 8.20569 43.8397 8.5502C43.4569 8.97128 43.2464 9.66031 43.2464 10.5025C43.2464 12.3494 43.9928 12.9619 45.0551 12.9619C45.5049 12.9619 46.0121 12.8279 46.3374 12.6461V15.0673ZM45.5431 11.8901C44.969 11.8901 44.6819 11.6221 44.6819 10.5025C44.6819 9.57418 44.902 9.09569 45.6101 9.09569C45.792 9.09569 46.1173 9.15311 46.3374 9.22966V11.737C46.1173 11.8231 45.8398 11.8901 45.5431 11.8901ZM50.3525 12.9524C50.831 12.9524 51.4147 12.8279 51.9219 12.5121L51.9602 12.8279H53.1469V8.1387H51.7784V11.6796C51.5487 11.7561 51.1659 11.8135 50.9267 11.8135C50.6491 11.8135 50.4577 11.7753 50.3333 11.6604C50.2376 11.5647 50.1898 11.402 50.1898 11.1628V8.1387H48.8213V11.3542C48.8213 11.8997 48.9361 12.3112 49.2232 12.5887C49.4816 12.8471 49.941 12.9524 50.3525 12.9524ZM54.9779 7.35397H55.0449C55.5138 7.35397 55.7627 7.17214 55.7627 6.70321V6.57881C55.7627 6.10988 55.5138 5.91848 55.0449 5.91848H54.9779C54.509 5.91848 54.2602 6.10988 54.2602 6.57881V6.70321C54.2602 7.17214 54.509 7.35397 54.9779 7.35397ZM54.3272 12.8279H55.6957V8.1387H54.3272V12.8279ZM56.8685 14.9812H58.237V12.6174C58.5911 12.8375 59.0696 12.9619 59.4907 12.9619C60.5529 12.9619 61.3185 12.3016 61.3185 10.4546C61.3185 9.58375 61.1271 8.8373 60.6869 8.40665C60.4189 8.14827 60.0361 8.00472 59.5672 8.00472C58.993 8.00472 58.4954 8.21526 58.0935 8.48321L58.0552 8.1387H56.8685V14.9812ZM59.0887 11.8805C58.7921 11.8805 58.4571 11.8422 58.237 11.7465V9.23923C58.4667 9.17225 58.8303 9.11483 59.0504 9.11483C59.6725 9.11483 59.883 9.43063 59.883 10.4355C59.883 11.5647 59.6629 11.8805 59.0887 11.8805ZM64.3672 12.9619C65.9941 12.9619 66.7501 11.9858 66.7501 10.4833C66.7501 8.98085 65.9941 8.00472 64.3672 8.00472C62.7403 8.00472 61.9843 8.98085 61.9843 10.4833C61.9843 11.9858 62.7403 12.9619 64.3672 12.9619ZM64.3672 11.9188C63.6782 11.9188 63.4102 11.4499 63.4102 10.4833C63.4102 9.51676 63.6782 9.04784 64.3672 9.04784C65.0562 9.04784 65.3242 9.51676 65.3242 10.4833C65.3242 11.4499 65.0562 11.9188 64.3672 11.9188ZM69.1843 12.9619C70.5911 12.9619 71.2992 12.3973 71.2992 11.4212C71.2992 9.47848 68.7345 10.2345 68.7345 9.4402C68.7345 9.17225 69.0025 9.05741 69.4905 9.05741C69.8733 9.05741 70.4475 9.13397 70.9356 9.26794L71.0408 8.26311C70.5336 8.09085 69.9499 8.00472 69.4809 8.00472C68.0742 8.00472 67.4426 8.6459 67.4426 9.51676C67.4426 11.4594 69.9977 10.646 69.9977 11.4786C69.9977 11.8135 69.6723 11.9092 69.1556 11.9092C68.6484 11.9092 67.9976 11.804 67.6435 11.6891L67.5383 12.7035C67.9115 12.8375 68.6292 12.9619 69.1843 12.9619ZM76.6796 12.9619C77.1964 12.9619 77.5409 12.9141 78.0002 12.8088L77.895 11.8231C77.5983 11.8805 77.2251 11.9188 76.9188 11.9188C75.9331 11.9188 75.5408 11.4499 75.5408 10.4833C75.5408 10.0048 75.6269 9.64117 75.8566 9.39235C76.0576 9.18182 76.3829 9.05741 76.804 9.05741C77.1964 9.05741 77.5983 9.11483 77.8854 9.19139L77.9715 8.17698C77.5217 8.05257 77.0241 8.00472 76.5935 8.00472C75.8183 8.00472 75.1388 8.25354 74.7178 8.70332C74.2967 9.16268 74.1149 9.80386 74.1149 10.5886C74.1149 11.1054 74.2393 11.6317 74.4977 12.0241C74.9857 12.7801 75.8757 12.9619 76.6796 12.9619ZM80.9276 12.9619C82.5545 12.9619 83.3105 11.9858 83.3105 10.4833C83.3105 8.98085 82.5545 8.00472 80.9276 8.00472C79.3007 8.00472 78.5447 8.98085 78.5447 10.4833C78.5447 11.9858 79.3007 12.9619 80.9276 12.9619ZM80.9276 11.9188C80.2385 11.9188 79.9706 11.4499 79.9706 10.4833C79.9706 9.51676 80.2385 9.04784 80.9276 9.04784C81.6166 9.04784 81.8846 9.51676 81.8846 10.4833C81.8846 11.4499 81.6166 11.9188 80.9276 11.9188ZM84.2231 12.8279H85.5915V9.29665C85.8117 9.21053 86.2232 9.14354 86.4815 9.14354C86.7591 9.14354 86.9505 9.18182 87.0749 9.29665C87.1706 9.39235 87.2184 9.52633 87.2184 9.76558V12.8279H88.5869V9.60289C88.5869 9.05741 88.4721 8.6459 88.185 8.36838C87.9266 8.10999 87.4672 8.00472 87.0557 8.00472C86.5581 8.00472 85.9552 8.1387 85.4384 8.47364L85.4097 8.1387H84.2231V12.8279Z" fill="white"/>
<path d="M33.6723 39.1661H36.6347V38.6451H34.3348V36.8587H36.1137V36.3228H34.3348V34.596H36.5305L36.5901 34.075H33.6723V39.1661ZM37.1725 39.1661H37.8945L38.9812 37.1118L40.12 39.1661H40.842L39.3683 36.5982L40.8569 34.075H40.1647L39.0705 36.1293L37.9392 34.075H37.2395L38.6909 36.628L37.1725 39.1661ZM43.6574 39.2703C44.0147 39.2703 44.4836 39.2108 44.7814 39.1215L44.7218 38.6153C44.4315 38.6749 44.037 38.7195 43.8212 38.7195C43.2183 38.7195 42.8163 38.5856 42.5409 38.3027C42.206 37.9603 42.072 37.4095 42.072 36.6354C42.072 35.839 42.206 35.2882 42.5186 34.9458C42.7642 34.6704 43.1364 34.5364 43.6574 34.5364C43.9775 34.5364 44.3422 34.5885 44.6772 34.6779L44.7665 34.1717C44.439 34.0526 44.0222 33.9782 43.583 33.9782C42.9503 33.9782 42.3995 34.1717 42.0423 34.5439C41.5957 34.9979 41.3798 35.7199 41.3798 36.6503C41.3798 38.3995 42.1241 39.2703 43.6574 39.2703ZM45.7094 39.1661H48.59V38.6451H46.3719V34.075H45.7094V39.1661ZM51.2837 39.2703C51.8643 39.2703 52.3109 39.114 52.6161 38.8237C52.9436 38.5111 53.1148 38.0273 53.1148 37.3351V34.075H52.5119V37.2979C52.5119 37.8264 52.4077 38.1687 52.1769 38.3995C51.9834 38.593 51.6782 38.7047 51.2986 38.7047C50.8818 38.7047 50.5841 38.593 50.3831 38.3995C50.1524 38.1762 50.063 37.8561 50.063 37.2979V34.075H49.4006V37.3351C49.4006 38.0497 49.5643 38.526 49.9216 38.8461C50.2268 39.1215 50.6883 39.2703 51.2837 39.2703ZM55.5667 39.2703C56.1547 39.2703 56.6087 39.1289 56.9139 38.8386C57.167 38.6005 57.3158 38.2506 57.3158 37.804C57.3158 36.0623 54.6958 36.4568 54.6958 35.2957C54.6958 34.7523 55.1201 34.529 55.8123 34.529C56.1473 34.529 56.5417 34.5811 56.9139 34.6779L57.0107 34.1717C56.6608 34.0526 56.1994 33.9782 55.7602 33.9782C54.7479 33.9782 54.0706 34.4397 54.0706 35.3403C54.0706 37.0895 56.6832 36.5908 56.6832 37.871C56.6832 38.1464 56.5864 38.3474 56.4078 38.4888C56.2068 38.6451 55.924 38.7195 55.5071 38.7195C55.0978 38.7195 54.6214 38.6302 54.2343 38.5186L54.1227 39.0247C54.5097 39.181 55.0978 39.2703 55.5667 39.2703ZM58.3577 39.1661H59.0201V34.075H58.3577V39.1661ZM61.5191 39.1661H62.256L63.8861 34.075H63.2311L61.9136 38.4441H61.8987L60.492 34.075H59.8072L61.5191 39.1661ZM66.4103 39.2703C67.9361 39.2703 68.4423 38.1166 68.4423 36.628C68.4423 35.1393 67.9361 33.9782 66.4103 33.9782C64.8844 33.9782 64.3783 35.1393 64.3783 36.628C64.3783 38.1166 64.8844 39.2703 66.4103 39.2703ZM66.4103 38.6972C65.3608 38.6972 65.0705 37.8785 65.0705 36.628C65.0705 35.3775 65.3608 34.5513 66.4103 34.5513C67.4598 34.5513 67.7501 35.3775 67.7501 36.628C67.7501 37.8785 67.4598 38.6972 66.4103 38.6972ZM72.8286 39.2703C74.3545 39.2703 74.8606 38.1166 74.8606 36.628C74.8606 35.1393 74.3545 33.9782 72.8286 33.9782C71.3027 33.9782 70.7966 35.1393 70.7966 36.628C70.7966 38.1166 71.3027 39.2703 72.8286 39.2703ZM72.8286 38.6972C71.7791 38.6972 71.4888 37.8785 71.4888 36.628C71.4888 35.3775 71.7791 34.5513 72.8286 34.5513C73.8781 34.5513 74.1684 35.3775 74.1684 36.628C74.1684 37.8785 73.8781 38.6972 72.8286 38.6972ZM75.8967 39.1661H76.4848V35.2882L79.2313 39.1661H79.7375V34.075H79.1494V38.0348L76.3582 34.075H75.8967V39.1661ZM80.9704 39.1661H83.8509V38.6451H81.6328V34.075H80.9704V39.1661ZM84.7434 39.1661H85.4058V34.075H84.7434V39.1661ZM86.6618 39.1661H87.2498V35.2882L89.9964 39.1661H90.5025V34.075H89.9145V38.0348L87.1233 34.075H86.6618V39.1661ZM91.7354 39.1661H94.6979V38.6451H92.3979V36.8587H94.1768V36.3228H92.3979V34.596H94.5936L94.6532 34.075H91.7354V39.1661Z" fill="white"/>
</svg>
