<svg width="215" height="36" viewBox="0 0 215 36" fill="none" xmlns="http://www.w3.org/2000/svg">
<path d="M2.56695 14.88C3.30695 14.88 3.85695 15.04 4.21695 15.36C4.57695 15.68 4.75695 16.21 4.75695 16.95V17.31C4.75695 18.05 4.57695 18.58 4.21695 18.9C3.85695 19.22 3.30695 19.38 2.56695 19.38H2.35695C1.61695 19.38 1.06695 19.22 0.706953 18.9C0.346953 18.58 0.166953 18.05 0.166953 17.31V16.95C0.166953 16.21 0.346953 15.68 0.706953 15.36C1.06695 15.04 1.61695 14.88 2.35695 14.88H2.56695ZM4.78695 35.82H0.286953L0.946953 21.72H4.12695L4.78695 35.82ZM17.2981 30.42C14.3381 30.42 12.1881 29.76 10.8481 28.44C10.1681 27.76 9.66813 26.96 9.34813 26.04C9.02813 25.1 8.86813 23.91 8.86813 22.47V9.48H13.5181V22.47C13.5181 23.27 13.5881 23.95 13.7281 24.51C13.8881 25.05 14.1481 25.5 14.5081 25.86C15.1481 26.52 16.1481 26.85 17.5081 26.85C18.8681 26.85 19.8581 26.53 20.4781 25.89C20.8381 25.53 21.0881 25.08 21.2281 24.54C21.3881 24 21.4681 23.32 21.4681 22.5V9.48H25.6081V22.26C25.6081 23.64 25.4481 24.84 25.1281 25.86C24.8281 26.86 24.3181 27.7 23.5981 28.38C22.9181 29.02 22.0281 29.52 20.9281 29.88C19.8281 30.24 18.6181 30.42 17.2981 30.42ZM13.6381 5.37L19.1281 0.269998L21.2281 3.12L15.1381 7.23L13.6381 5.37ZM29.8782 9.48H34.5582V26.61H43.6482V30H29.8782V9.48ZM49.4675 12.87H43.1075V9.48H60.7175L60.3575 12.87H54.1475V30H49.4675V12.87ZM63.2195 9.48H67.8995V30H63.2195V9.48ZM72.388 9.48H76.078L82.558 20.94L89.248 9.48H92.848V30H88.558V18.18L84.298 25.32H80.698L76.318 18.06V30H72.388V9.48ZM105.51 30.42C102.41 30.42 100.12 29.53 98.6403 27.75C97.1603 25.95 96.4203 23.29 96.4203 19.77C96.4203 16.25 97.1603 13.59 98.6403 11.79C100.14 9.99 102.43 9.09 105.51 9.09C108.59 9.09 110.87 9.99 112.35 11.79C113.85 13.59 114.6 16.25 114.6 19.77C114.6 23.29 113.86 25.95 112.38 27.75C110.9 29.53 108.61 30.42 105.51 30.42ZM105.51 26.76C107.03 26.76 108.11 26.22 108.75 25.14C109.41 24.04 109.74 22.25 109.74 19.77C109.74 17.29 109.41 15.5 108.75 14.4C108.09 13.3 107.01 12.75 105.51 12.75C104.01 12.75 102.93 13.3 102.27 14.4C101.61 15.5 101.28 17.29 101.28 19.77C101.28 22.25 101.6 24.04 102.24 25.14C102.9 26.22 103.99 26.76 105.51 26.76ZM124.239 30.42C121.719 30.42 119.449 30.07 117.429 29.37L118.149 25.8C119.029 26.1 119.999 26.35 121.059 26.55C122.119 26.73 123.039 26.82 123.819 26.82C125.219 26.82 126.239 26.62 126.879 26.22C127.539 25.82 127.869 25.15 127.869 24.21C127.869 23.51 127.559 22.99 126.939 22.65C126.339 22.31 125.379 21.97 124.059 21.63C122.699 21.27 121.569 20.89 120.669 20.49C119.769 20.09 118.999 19.46 118.359 18.6C117.719 17.74 117.399 16.57 117.399 15.09C117.399 13.09 118.099 11.59 119.499 10.59C120.899 9.59 122.749 9.09 125.049 9.09C126.049 9.09 127.059 9.17 128.079 9.33C129.099 9.47 129.999 9.67 130.779 9.93L130.059 13.41C128.259 12.93 126.619 12.69 125.139 12.69C123.939 12.69 123.079 12.88 122.559 13.26C122.059 13.64 121.809 14.18 121.809 14.88C121.809 15.4 121.969 15.83 122.289 16.17C122.629 16.49 123.049 16.75 123.549 16.95C124.049 17.15 124.769 17.38 125.709 17.64C127.069 18 128.189 18.39 129.069 18.81C129.949 19.21 130.699 19.84 131.319 20.7C131.959 21.56 132.279 22.71 132.279 24.15C132.279 25.95 131.709 27.39 130.569 28.47C129.849 29.15 128.979 29.65 127.959 29.97C126.959 30.27 125.719 30.42 124.239 30.42ZM142.613 9.48H148.943C150.943 9.48 152.593 9.66 153.893 10.02C155.213 10.36 156.293 10.95 157.133 11.79C158.793 13.41 159.623 16.03 159.623 19.65C159.623 21.51 159.413 23.1 158.993 24.42C158.593 25.72 157.973 26.81 157.133 27.69C156.373 28.47 155.373 29.05 154.133 29.43C152.913 29.81 151.393 30 149.573 30H142.613V9.48ZM149.273 26.58C151.393 26.58 152.863 25.97 153.683 24.75C154.083 24.15 154.363 23.47 154.523 22.71C154.683 21.95 154.763 20.93 154.763 19.65C154.763 18.21 154.653 17.09 154.433 16.29C154.213 15.49 153.843 14.81 153.323 14.25C152.863 13.77 152.273 13.43 151.553 13.23C150.833 13.01 149.893 12.9 148.733 12.9H147.293V26.58H149.273ZM163.239 9.48H167.919V30H163.239V9.48ZM161.769 5.37L167.259 0.269998L169.359 3.12L163.269 7.23L161.769 5.37ZM177.208 9.48H182.368L189.778 30H184.768L183.058 24.84H176.398L174.808 30H170.338L177.208 9.48ZM181.918 21.45L179.668 14.61H179.608L177.478 21.45H181.918ZM198.507 30.42C195.987 30.42 193.717 30.07 191.697 29.37L192.417 25.8C193.297 26.1 194.267 26.35 195.327 26.55C196.387 26.73 197.307 26.82 198.087 26.82C199.487 26.82 200.507 26.62 201.147 26.22C201.807 25.82 202.137 25.15 202.137 24.21C202.137 23.51 201.827 22.99 201.207 22.65C200.607 22.31 199.647 21.97 198.327 21.63C196.967 21.27 195.837 20.89 194.937 20.49C194.037 20.09 193.267 19.46 192.627 18.6C191.987 17.74 191.667 16.57 191.667 15.09C191.667 13.09 192.367 11.59 193.767 10.59C195.167 9.59 197.017 9.09 199.317 9.09C200.317 9.09 201.327 9.17 202.347 9.33C203.367 9.47 204.267 9.67 205.047 9.93L204.327 13.41C202.527 12.93 200.887 12.69 199.407 12.69C198.207 12.69 197.347 12.88 196.827 13.26C196.327 13.64 196.077 14.18 196.077 14.88C196.077 15.4 196.237 15.83 196.557 16.17C196.897 16.49 197.317 16.75 197.817 16.95C198.317 17.15 199.037 17.38 199.977 17.64C201.337 18 202.457 18.39 203.337 18.81C204.217 19.21 204.967 19.84 205.587 20.7C206.227 21.56 206.547 22.71 206.547 24.15C206.547 25.95 205.977 27.39 204.837 28.47C204.117 29.15 203.247 29.65 202.227 29.97C201.227 30.27 199.987 30.42 198.507 30.42ZM209.962 9.48H214.462L213.802 23.58H210.622L209.962 9.48ZM212.182 30.42C211.442 30.42 210.892 30.26 210.532 29.94C210.172 29.62 209.992 29.09 209.992 28.35V27.99C209.992 27.25 210.172 26.72 210.532 26.4C210.892 26.08 211.442 25.92 212.182 25.92H212.392C213.132 25.92 213.682 26.08 214.042 26.4C214.402 26.72 214.582 27.25 214.582 27.99V28.35C214.582 29.09 214.402 29.62 214.042 29.94C213.682 30.26 213.132 30.42 212.392 30.42H212.182Z" fill="white"/>
</svg>
