<svg width="290" height="106" viewBox="0 0 290 106" fill="none" xmlns="http://www.w3.org/2000/svg">
<g filter="url(#filter0_d_75_2011)">
<path d="M198.499 77.022C199.744 76.9973 200.42 76.1996 200.621 74.6732C203.232 55.1527 204.549 44.7925 204.525 43.5474C204.474 41.011 203.147 39.2381 200.546 38.3208C199.942 38.1483 199.341 38.0679 198.742 38.0798C197.496 38.1045 196.223 39.0063 194.92 40.7852C194.925 41.0619 191.949 44.5349 185.991 51.158C185.271 52.0488 184.772 52.52 184.496 52.5255C184.357 52.5283 184.308 52.3447 184.299 51.9297C184.422 51.1429 184.454 50.4042 184.438 49.6202C184.395 47.4527 183.579 45.8542 181.99 44.8246C181.149 44.2877 180.267 44.0284 179.299 44.0476C178.054 44.0723 177.003 44.6006 176.056 45.6804C169.33 53.1492 165.851 56.8628 165.574 56.8683C165.251 56.8285 165.108 56.6007 165.099 56.1395C165.12 54.8935 166.256 51.6877 168.412 46.4318C168.809 45.5012 169.021 44.5282 168.999 43.4675C168.962 41.5767 167.643 40.2189 165.042 39.3016C164.531 39.1272 164.022 39.0451 163.422 39.0569C161.992 39.0853 160.953 40.167 160.212 42.35L159.043 46.2485C155.444 57.8534 153.636 64.3481 153.664 65.7777C153.722 68.7291 155.566 70.9532 159.195 72.4959C159.986 72.8493 160.774 73.0182 161.65 73.0008C163.633 72.9615 165.406 71.6346 167.061 69.0182L168.712 66.1713C170.05 63.8842 171.088 62.7103 171.826 62.6956C172.518 62.6819 172.848 63.0444 172.908 63.7353C173.394 67.3241 175.19 69.5029 178.297 70.3179C178.715 70.448 179.085 70.4868 179.362 70.4813C180.699 70.4548 181.789 69.6028 182.724 67.8772C182.901 67.5047 186.134 63.0117 192.375 54.3531C193.004 53.5102 193.457 53.086 193.734 53.0805C194.149 53.0723 194.349 53.8526 194.379 55.3744C194.44 58.4642 193.926 62.811 192.838 68.4148C192.541 69.7125 192.422 70.6837 192.435 71.3754C192.493 74.2808 194.099 76.1404 197.252 76.9545L198.499 77.022ZM235.751 74.7609C237.775 74.4901 238.772 73.5476 238.74 71.9336C238.727 71.288 238.346 70.6958 237.644 70.2022C236.57 69.5315 235.956 68.8055 235.8 67.932C235.746 67.564 235.691 67.1038 235.68 66.5504C235.543 59.633 236.745 52.7812 239.239 45.95C239.676 44.6958 239.884 43.5844 239.864 42.5698C239.836 41.1402 238.983 40.0038 237.306 39.2066C236.42 38.7167 235.538 38.4574 234.662 38.4748C233.048 38.5068 231.589 39.3661 230.284 41.0528C221.016 52.9086 216.058 58.8198 215.367 58.8335C215.09 58.839 214.947 58.6112 214.938 58.15C214.932 57.8733 215.017 57.5026 215.193 57.0378C218.315 49.3175 222.09 41.9534 226.474 34.9925C227.321 33.5455 228.184 32.8364 229.06 32.8191C229.521 32.8099 229.811 33.45 229.882 34.6943C229.952 35.9385 230.288 36.5777 230.934 36.5649C231.21 36.5594 231.486 36.5078 231.76 36.364C233.545 35.6366 234.496 34.7412 234.659 33.6768L234.804 31.6902C234.78 30.4451 234.344 29.3926 233.495 28.4867C231.755 26.8143 229.986 26.0189 228.188 26.0546C225.467 26.1085 222.598 28.0108 219.674 31.7595C216.75 35.5544 213.188 42.0377 209.035 51.3008C206.076 57.9567 204.606 62.9222 204.671 66.1964C204.712 68.2717 205.388 69.7807 206.651 70.6783C207.917 71.6682 209.356 72.1471 210.97 72.1151C212.769 72.0795 214.233 71.4507 215.454 70.227C217.04 68.7654 218.891 66.7449 221.101 64.1637C224.797 59.7999 226.83 57.6374 227.199 57.6301C227.338 57.6273 227.386 57.7648 227.391 57.9954C227.396 58.2721 227.359 58.688 227.231 59.2442C227.064 60.124 226.994 61.2326 227.02 62.57C227.184 70.8248 229.986 74.8752 235.474 74.7664L235.751 74.7609ZM220.794 27.7698C221.763 27.7506 222.63 27.272 223.489 26.3785C231.075 18.1084 235.001 13.6939 235.266 13.0889C235.485 12.4848 235.615 12.067 235.609 11.7903C235.6 11.3292 235.406 10.8255 235.072 10.2786C234.405 9.23068 233.381 8.74352 231.951 8.77187C228.631 8.83771 225.043 11.723 221.144 17.4749C218.68 21.1684 217.486 23.7756 217.518 25.3896C217.53 26.0352 217.91 26.5813 218.612 27.0749C219.314 27.5685 220.01 27.7853 220.794 27.7698Z" fill="#E63780"/>
<path d="M198.499 77.022L198.372 79.3638L198.459 79.3685L198.545 79.3668L198.499 77.022ZM200.621 74.6732L198.296 74.3622L198.295 74.3679L200.621 74.6732ZM200.546 38.3208L201.325 36.109L201.259 36.0855L201.191 36.0661L200.546 38.3208ZM194.92 40.7852L193.028 39.3997L192.559 40.0392L192.575 40.8317L194.92 40.7852ZM185.991 51.158L184.247 49.5894L184.206 49.6353L184.168 49.6832L185.991 51.158ZM184.299 51.9297L181.982 51.568L181.95 51.7709L181.955 51.9762L184.299 51.9297ZM181.99 44.8246L183.265 42.8564L183.259 42.8521L183.252 42.8479L181.99 44.8246ZM176.056 45.6804L177.798 47.2498L177.809 47.2385L177.819 47.2271L176.056 45.6804ZM165.574 56.8683L165.289 59.196L165.454 59.2163L165.621 59.213L165.574 56.8683ZM165.099 56.1395L162.754 56.0992L162.753 56.1426L162.754 56.186L165.099 56.1395ZM168.412 46.4318L166.255 45.5119L166.249 45.5267L166.243 45.5416L168.412 46.4318ZM165.042 39.3016L165.821 37.0898L165.81 37.0859L165.799 37.0822L165.042 39.3016ZM160.212 42.35L157.991 41.5962L157.977 41.6362L157.965 41.6767L160.212 42.35ZM159.043 46.2485L161.283 46.9431L161.287 46.9324L161.29 46.9217L159.043 46.2485ZM159.195 72.4959L160.151 70.3545L160.132 70.3459L160.112 70.3376L159.195 72.4959ZM167.061 69.0182L169.043 70.272L169.067 70.2337L169.09 70.1945L167.061 69.0182ZM168.712 66.1713L166.687 64.9866L166.683 64.995L168.712 66.1713ZM172.908 63.7353L170.571 63.9376L170.576 63.9941L170.584 64.0502L172.908 63.7353ZM178.297 70.3179L178.995 68.0787L178.944 68.0629L178.892 68.0494L178.297 70.3179ZM182.724 67.8772L184.786 68.9942L184.816 68.94L184.842 68.8843L182.724 67.8772ZM192.375 54.3531L190.495 52.9502L190.484 52.9659L190.472 52.9818L192.375 54.3531ZM192.838 68.4149L195.124 68.9384L195.133 68.9003L195.14 68.862L192.838 68.4149ZM197.252 76.9545L196.666 79.2252L196.892 79.2836L197.125 79.2962L197.252 76.9545ZM198.545 79.3668C199.708 79.3437 200.85 78.9296 201.704 77.9692C202.488 77.0871 202.814 75.9828 202.946 74.9785L198.295 74.3679C198.263 74.6126 198.22 74.7621 198.19 74.8417C198.16 74.9183 198.153 74.9044 198.199 74.8523C198.252 74.7926 198.33 74.7347 198.415 74.699C198.491 74.6666 198.517 74.6759 198.452 74.6772L198.545 79.3668ZM202.945 74.9842C204.251 65.2231 205.234 57.7453 205.888 52.5499C206.215 49.9533 206.46 47.918 206.623 46.4493C206.776 45.072 206.879 44.0036 206.869 43.5009L202.18 43.5939C202.179 43.5763 202.18 43.6151 202.172 43.7475C202.165 43.8671 202.153 44.0283 202.135 44.2362C202.098 44.6515 202.041 45.2148 201.961 45.9328C201.802 47.3668 201.56 49.375 201.234 51.9642C200.583 57.1403 199.602 64.6028 198.296 74.3622L202.945 74.9842ZM206.869 43.5009C206.836 41.8195 206.37 40.2411 205.361 38.9102C204.36 37.5903 202.955 36.6836 201.325 36.109L199.766 40.5326C200.738 40.8753 201.297 41.3137 201.623 41.7436C201.94 42.1626 202.163 42.7388 202.18 43.5939L206.869 43.5009ZM201.191 36.0661C200.373 35.8322 199.539 35.7183 198.695 35.735L198.788 40.4246C199.143 40.4175 199.512 40.4643 199.9 40.5756L201.191 36.0661ZM198.695 35.735C196.309 35.7823 194.443 37.4675 193.028 39.3997L196.812 42.1708C198.003 40.5451 198.684 40.4266 198.788 40.4246L198.695 35.735ZM192.575 40.8317C192.566 40.385 192.693 40.0581 192.719 39.9882C192.765 39.8685 192.809 39.7851 192.825 39.7552C192.859 39.6926 192.877 39.6702 192.85 39.7091C192.803 39.7779 192.703 39.9134 192.528 40.1336C192.186 40.5649 191.652 41.2042 190.914 42.0627C189.443 43.7734 187.223 46.2821 184.247 49.5894L187.735 52.7265C190.717 49.4108 192.965 46.8714 194.47 45.1207C195.22 44.2485 195.802 43.5537 196.202 43.049C196.399 42.8013 196.576 42.5683 196.714 42.3684C196.78 42.2729 196.867 42.141 196.947 41.9939C196.986 41.9217 197.048 41.8023 197.104 41.6529C197.142 41.5532 197.274 41.2027 197.265 40.7387L192.575 40.8317ZM184.168 49.6832C184.006 49.8832 183.866 50.0473 183.748 50.1792C183.627 50.3132 183.542 50.3994 183.487 50.4499C183.424 50.5083 183.441 50.4831 183.527 50.4306C183.574 50.4022 183.668 50.3488 183.806 50.2986C183.941 50.2492 184.163 50.1864 184.449 50.1808L184.542 54.8703C185.215 54.8569 185.721 54.5861 185.963 54.439C186.243 54.2688 186.481 54.0691 186.667 53.8976C187.041 53.5525 187.43 53.1086 187.814 52.6328L184.168 49.6832ZM184.449 50.1808C185.006 50.1697 185.587 50.3725 186.033 50.8011C186.404 51.1582 186.541 51.5375 186.585 51.678C186.666 51.9328 186.648 52.0846 186.644 51.8832L181.955 51.9762C181.959 52.1898 181.97 52.6409 182.112 53.0905C182.187 53.3285 182.363 53.7791 182.783 54.1828C183.277 54.658 183.916 54.8827 184.542 54.8703L184.449 50.1808ZM186.616 52.2914C186.766 51.3357 186.8 50.455 186.783 49.5737L182.093 49.6667C182.107 50.3533 182.079 50.9502 181.982 51.568L186.616 52.2914ZM186.783 49.5737C186.727 46.7591 185.611 44.3761 183.265 42.8564L180.715 46.7928C181.548 47.3324 182.063 48.1464 182.093 49.6667L186.783 49.5737ZM183.252 42.8479C182.043 42.0763 180.71 41.6739 179.252 41.7028L179.345 46.3923C179.825 46.3828 180.255 46.4991 180.728 46.8014L183.252 42.8479ZM179.252 41.7028C177.246 41.7426 175.602 42.6412 174.293 44.1338L177.819 47.2271C178.404 46.56 178.862 46.4019 179.345 46.3923L179.252 41.7028ZM174.313 44.1111C170.953 47.8427 168.414 50.6244 166.685 52.4697C165.818 53.3954 165.171 54.0678 164.733 54.5018C164.509 54.7232 164.368 54.8544 164.293 54.9193C164.251 54.956 164.269 54.9369 164.328 54.8961C164.355 54.8771 164.44 54.8194 164.565 54.7572C164.625 54.7272 164.999 54.534 165.528 54.5235L165.621 59.213C166.167 59.2022 166.564 59.0014 166.655 58.9565C166.809 58.8795 166.93 58.7997 167 58.7514C167.143 58.6519 167.271 58.5453 167.363 58.4653C167.558 58.2969 167.787 58.0787 168.033 57.8344C168.535 57.3372 169.23 56.6134 170.108 55.6764C171.869 53.7964 174.433 50.9869 177.798 47.2498L174.313 44.1111ZM165.86 54.5405C166.027 54.561 166.273 54.6186 166.539 54.7722C166.815 54.9319 167.034 55.1505 167.188 55.3882C167.332 55.612 167.393 55.8104 167.418 55.9224C167.431 55.9803 167.437 56.0246 167.44 56.0513C167.443 56.0781 167.443 56.0929 167.443 56.093L162.754 56.186C162.762 56.5835 162.822 57.2755 163.249 57.9356C163.767 58.7367 164.562 59.1069 165.289 59.196L165.86 54.5405ZM167.444 56.1799C167.443 56.1822 167.445 56.1218 167.47 55.9774C167.494 55.8388 167.533 55.6549 167.594 55.4192C167.715 54.9453 167.905 54.3286 168.172 53.5534C168.706 52.0038 169.509 49.9377 170.582 47.3219L166.243 45.5416C165.159 48.1817 164.316 50.3466 163.738 52.0253C163.199 53.5875 162.772 55.0458 162.754 56.0992L167.444 56.1799ZM170.57 47.3516C171.086 46.1413 171.372 44.84 171.344 43.421L166.655 43.514C166.669 44.2163 166.533 44.8611 166.255 45.5119L170.57 47.3516ZM171.344 43.421C171.314 41.878 170.736 40.5072 169.678 39.3996C168.672 38.3467 167.318 37.6176 165.821 37.0898L164.262 41.5134C165.366 41.9029 165.973 42.3114 166.286 42.6394C166.547 42.9127 166.648 43.1662 166.655 43.514L171.344 43.421ZM165.799 37.0822C165.023 36.8172 164.241 36.695 163.376 36.7122L163.469 41.4017C163.802 41.3951 164.038 41.4372 164.284 41.5211L165.799 37.0822ZM163.376 36.7122C160.396 36.7713 158.819 39.1562 157.991 41.5962L162.433 43.1038C162.746 42.1816 163.048 41.7284 163.241 41.5296C163.373 41.394 163.414 41.4028 163.469 41.4017L163.376 36.7122ZM157.965 41.6767L156.797 45.5752L161.29 46.9217L162.458 43.0233L157.965 41.6767ZM156.803 45.5538C155.002 51.3628 153.641 55.9155 152.733 59.2044C152.279 60.8467 151.932 62.1973 151.698 63.2429C151.484 64.1962 151.306 65.1403 151.319 65.8242L156.009 65.7312C156.009 65.7658 156.007 65.6735 156.055 65.3736C156.099 65.1014 156.17 64.7362 156.275 64.2672C156.485 63.3304 156.809 62.064 157.254 60.4532C158.143 57.2361 159.486 52.739 161.283 46.9431L156.803 45.5538ZM151.319 65.8242C151.402 70.0274 154.148 72.8989 158.277 74.6542L160.112 70.3376C156.983 69.0074 156.042 67.4309 156.009 65.7312L151.319 65.8242ZM158.239 74.6373C159.331 75.1251 160.46 75.3701 161.696 75.3456L161.603 70.6561C161.088 70.6663 160.641 70.5734 160.151 70.3545L158.239 74.6373ZM161.696 75.3456C164.853 75.283 167.227 73.143 169.043 70.272L165.079 67.7645C163.585 70.1262 162.413 70.64 161.603 70.6561L161.696 75.3456ZM169.09 70.1945L170.74 67.3476L166.683 64.995L165.032 67.842L169.09 70.1945ZM170.736 67.356C171.374 66.2649 171.877 65.5539 172.243 65.1434C172.426 64.9386 172.518 64.8741 172.516 64.8751C172.511 64.8789 172.457 64.9146 172.356 64.9522C172.253 64.9907 172.087 65.0361 171.872 65.0404L171.779 60.3509C170.989 60.3665 170.35 60.6821 169.916 60.9714C169.471 61.2681 169.081 61.6428 168.745 62.0192C168.073 62.771 167.388 63.7907 166.687 64.9866L170.736 67.356ZM171.872 65.0404C171.804 65.0417 171.361 65.0225 170.951 64.6153C170.581 64.248 170.566 63.8842 170.571 63.9376L175.244 63.5329C175.189 62.8955 174.979 62.0051 174.256 61.2872C173.493 60.5294 172.54 60.3358 171.779 60.3509L171.872 65.0404ZM170.584 64.0502C170.869 66.1581 171.566 68.042 172.806 69.5541C174.061 71.0837 175.74 72.0717 177.702 72.5864L178.892 68.0494C177.748 67.7491 176.975 67.2402 176.433 66.5795C175.877 65.9012 175.432 64.9013 175.232 63.4203L170.584 64.0502ZM177.6 72.557C178.261 72.763 178.883 72.8365 179.408 72.8261L179.315 68.1365C179.288 68.1371 179.169 68.133 178.995 68.0787L177.6 72.557ZM179.408 72.8261C181.958 72.7755 183.663 71.0685 184.786 68.9942L180.662 66.7603C179.916 68.137 179.441 68.1341 179.315 68.1365L179.408 72.8261ZM184.842 68.8843C184.773 69.0292 184.726 69.0821 184.882 68.8497C184.987 68.6932 185.142 68.4679 185.351 68.1678C185.769 67.5699 186.379 66.7113 187.183 65.5865C188.79 63.3388 191.156 60.0549 194.277 55.7244L190.472 52.9818C187.353 57.3099 184.981 60.6018 183.368 62.8583C182.562 63.9857 181.94 64.8614 181.507 65.4812C181.291 65.79 181.115 66.0445 180.985 66.2389C180.906 66.3573 180.719 66.6321 180.606 66.8702L184.842 68.8843ZM194.254 55.7559C194.388 55.5762 194.502 55.4333 194.597 55.3224C194.693 55.2094 194.757 55.1449 194.789 55.1145C194.829 55.0772 194.792 55.1199 194.683 55.184C194.625 55.2183 194.524 55.2721 194.383 55.3202C194.243 55.3684 194.037 55.4202 193.78 55.4253L193.687 50.7357C193.057 50.7482 192.573 50.9834 192.303 51.1423C192.012 51.3137 191.77 51.5162 191.583 51.691C191.21 52.0405 190.844 52.4828 190.495 52.9502L194.254 55.7559ZM193.78 55.4253C193.445 55.4319 193.105 55.355 192.798 55.1952C192.502 55.0418 192.304 54.8474 192.183 54.6977C191.967 54.4313 191.924 54.2201 191.939 54.2754C191.964 54.3666 192.02 54.7011 192.034 55.4209L196.724 55.3279C196.708 54.5259 196.648 53.7093 196.462 53.0319C196.371 52.703 196.199 52.2032 195.828 51.7452C195.396 51.2124 194.662 50.7164 193.687 50.7357L193.78 55.4253ZM192.034 55.4209C192.09 58.2606 191.614 62.4144 190.536 67.9677L195.14 68.862C196.239 63.2076 196.79 58.6678 196.724 55.3279L192.034 55.4209ZM190.552 67.8913C190.235 69.2752 190.072 70.4572 190.091 71.4219L194.78 71.3289C194.772 70.9101 194.847 70.1498 195.124 68.9384L190.552 67.8913ZM190.091 71.4219C190.128 73.3166 190.685 75.0653 191.908 76.4817C193.109 77.8738 194.775 78.7372 196.666 79.2252L197.838 74.6837C196.575 74.3577 195.862 73.8843 195.458 73.4166C195.075 72.9734 194.8 72.3396 194.78 71.3289L190.091 71.4219ZM197.125 79.2962L198.372 79.3638L198.626 74.6802L197.379 74.6127L197.125 79.2962ZM235.751 74.7609L235.797 77.1057L235.93 77.103L236.062 77.0854L235.751 74.7609ZM237.644 70.2022L238.993 68.2839L238.941 68.2469L238.886 68.2128L237.644 70.2022ZM235.8 67.932L233.479 68.269L233.484 68.3064L233.491 68.3437L235.8 67.932ZM239.239 45.95L241.442 46.7544L241.448 46.7376L241.454 46.7208L239.239 45.95ZM237.306 39.2066L236.172 41.2591L236.235 41.2938L236.299 41.3246L237.306 39.2066ZM230.284 41.0528L232.132 42.4973L232.14 42.4876L230.284 41.0528ZM215.193 57.0378L213.018 56.1584L213.008 56.1841L212.998 56.2101L215.193 57.0378ZM226.474 34.9925L228.458 36.2422L228.478 36.2105L228.497 36.1782L226.474 34.9925ZM231.76 36.364L230.875 34.1922L230.77 34.2349L230.67 34.2876L231.76 36.364ZM234.659 33.6768L236.977 34.0328L236.992 33.9407L236.998 33.8477L234.659 33.6768ZM234.804 31.6902L237.143 31.8611L237.151 31.7525L237.149 31.6437L234.804 31.6902ZM233.495 28.4867L235.207 26.8836L235.165 26.8386L235.12 26.7959L233.495 28.4867ZM219.674 31.7595L217.825 30.317L217.82 30.3226L217.816 30.3283L219.674 31.7595ZM209.035 51.3008L206.895 50.3413L206.892 50.3481L209.035 51.3008ZM206.651 70.6783L208.096 68.8312L208.054 68.7979L208.01 68.7665L206.651 70.6783ZM215.454 70.227L213.865 68.5026L213.829 68.5357L213.794 68.5703L215.454 70.227ZM221.101 64.1637L222.882 65.6888L222.89 65.6795L221.101 64.1637ZM227.231 59.2442L224.945 58.7206L224.935 58.7634L224.927 58.8066L227.231 59.2442ZM223.489 26.3785L225.179 28.0036L225.198 27.9839L225.217 27.9638L223.489 26.3785ZM235.266 13.0889L237.415 14.0293L237.445 13.9592L237.471 13.8872L235.266 13.0889ZM235.072 10.2786L237.074 9.05693L237.062 9.0382L237.051 9.01968L235.072 10.2786ZM221.144 17.4749L219.203 16.1588L219.198 16.1661L219.193 16.1733L221.144 17.4749ZM236.062 77.0854C237.335 76.9151 238.636 76.4932 239.628 75.5547C240.692 74.5483 241.111 73.2268 241.084 71.8871L236.395 71.9801C236.398 72.1385 236.374 72.1959 236.376 72.1905C236.377 72.1884 236.381 72.1788 236.39 72.1664C236.393 72.1607 236.397 72.156 236.4 72.1523C236.403 72.1486 236.405 72.147 236.405 72.1473C236.401 72.1511 236.191 72.3359 235.44 72.4364L236.062 77.0854ZM241.084 71.8871C241.052 70.245 240.068 69.0399 238.993 68.2839L236.295 72.1205C236.455 72.2329 236.486 72.2931 236.471 72.2685C236.462 72.254 236.442 72.219 236.425 72.1641C236.407 72.1081 236.396 72.0449 236.395 71.9801L241.084 71.8871ZM238.886 68.2128C238.49 67.9658 238.288 67.7746 238.191 67.6555C238.145 67.5998 238.126 67.5645 238.119 67.5495C238.112 67.5359 238.11 67.5283 238.109 67.5204L233.491 68.3437C233.813 70.1492 235.061 71.3545 236.402 72.1916L238.886 68.2128ZM238.121 67.5951C238.075 67.28 238.033 66.9244 238.025 66.5039L233.335 66.5969C233.349 67.2832 233.418 67.8481 233.479 68.269L238.121 67.5951ZM238.025 66.5039C237.894 59.897 239.04 53.3332 241.442 46.7544L237.036 45.1457C234.45 52.2292 233.192 59.3689 233.335 66.5969L238.025 66.5039ZM241.454 46.7208C241.953 45.2876 242.236 43.8924 242.209 42.5233L237.52 42.6163C237.533 43.2764 237.399 44.104 237.024 45.1793L241.454 46.7208ZM242.209 42.5233C242.158 39.9462 240.528 38.1414 238.313 37.0886L236.299 41.3246C237.438 41.8662 237.514 42.3342 237.52 42.6163L242.209 42.5233ZM238.441 37.1541C237.288 36.5168 236 36.1025 234.616 36.13L234.709 40.8195C235.076 40.8122 235.552 40.9167 236.172 41.2591L238.441 37.1541ZM234.616 36.13C232.079 36.1803 230.018 37.5635 228.429 39.6181L232.14 42.4876C233.16 41.1687 234.017 40.8332 234.709 40.8195L234.616 36.13ZM228.437 39.6084C223.807 45.531 220.27 49.947 217.812 52.8767C216.58 54.3464 215.643 55.4117 214.989 56.0984C214.656 56.4473 214.436 56.6557 214.311 56.7618C214.245 56.8178 214.254 56.8035 214.32 56.7624C214.355 56.7411 214.444 56.6891 214.575 56.6367C214.691 56.5905 214.957 56.496 215.32 56.4888L215.413 61.1783C216.126 61.1642 216.647 60.838 216.772 60.7612C216.992 60.6263 217.188 60.472 217.341 60.3419C217.656 60.0758 218.009 59.7276 218.383 59.3351C219.142 58.5391 220.154 57.383 221.406 55.8912C223.917 52.8979 227.494 48.4304 232.132 42.4973L228.437 39.6084ZM215.32 56.4888C215.583 56.4836 215.928 56.534 216.282 56.7216C216.639 56.9109 216.885 57.1761 217.039 57.4205C217.182 57.6498 217.238 57.8476 217.26 57.9467C217.272 58.0005 217.277 58.0413 217.28 58.0655C217.282 58.0899 217.283 58.1033 217.283 58.1035L212.593 58.1965C212.601 58.585 212.659 59.2654 213.065 59.913C213.59 60.7492 214.48 61.1968 215.413 61.1783L215.32 56.4888ZM217.283 58.1035C217.284 58.1628 217.28 58.2001 217.278 58.2104C217.277 58.2213 217.277 58.2147 217.283 58.188C217.296 58.1316 217.326 58.0268 217.387 57.8654L212.998 56.2101C212.788 56.7679 212.579 57.4721 212.593 58.1965L217.283 58.1035ZM217.367 57.9171C220.437 50.3257 224.149 43.0856 228.458 36.2422L224.489 33.7429C220.032 40.8213 216.193 48.3093 213.018 56.1584L217.367 57.9171ZM228.497 36.1782C228.842 35.5886 229.109 35.2955 229.26 35.1692C229.391 35.0599 229.329 35.1594 229.107 35.1638L229.014 30.4743C226.818 30.5178 225.367 32.2423 224.45 33.8069L228.497 36.1782ZM229.107 35.1638C228.619 35.1735 228.178 34.9925 227.865 34.7293C227.595 34.5025 227.492 34.2792 227.472 34.2342C227.447 34.1789 227.461 34.1907 227.484 34.3098C227.505 34.4221 227.527 34.5912 227.54 34.8275L232.223 34.561C232.182 33.838 232.07 33.0361 231.762 32.3391C231.459 31.6524 230.632 30.4422 229.014 30.4743L229.107 35.1638ZM227.54 34.8275C227.582 35.5637 227.71 36.4579 228.14 37.2357C228.372 37.6555 228.727 38.104 229.258 38.4384C229.806 38.7829 230.407 38.921 230.98 38.9097L230.887 34.2202C231.137 34.2152 231.454 34.2783 231.755 34.4676C232.04 34.6469 232.186 34.8602 232.244 34.9662C232.299 35.0643 232.295 35.0981 232.276 35.0105C232.258 34.9289 232.236 34.7847 232.223 34.561L227.54 34.8275ZM230.98 38.9097C231.531 38.8988 232.183 38.7908 232.85 38.4404L230.67 34.2876C230.721 34.2605 230.775 34.2415 230.824 34.2303C230.87 34.2198 230.895 34.22 230.887 34.2202L230.98 38.9097ZM232.645 38.5358C234.616 37.7324 236.617 36.3813 236.977 34.0328L232.341 33.3209C232.355 33.2302 232.397 33.2652 232.22 33.4298C232.018 33.6179 231.613 33.8916 230.875 34.1922L232.645 38.5358ZM236.998 33.8477L237.143 31.8611L232.466 31.5193L232.32 33.506L236.998 33.8477ZM237.149 31.6437C237.113 29.8095 236.445 28.2052 235.207 26.8836L231.784 30.0899C232.243 30.58 232.447 31.0806 232.46 31.7367L237.149 31.6437ZM235.12 26.7959C233.075 24.83 230.735 23.6584 228.141 23.7098L228.234 28.3994C229.237 28.3795 230.435 28.7986 231.87 30.1776L235.12 26.7959ZM228.141 23.7098C224.339 23.7852 220.883 26.3969 217.825 30.317L221.523 33.202C224.314 29.6247 226.595 28.4319 228.234 28.3994L228.141 23.7098ZM217.816 30.3283C214.717 34.3507 211.064 41.0427 206.895 50.3414L211.175 52.2602C215.312 43.0327 218.783 36.7581 221.532 33.1908L217.816 30.3283ZM206.892 50.3481C203.928 57.0163 202.25 62.402 202.326 66.2429L207.016 66.15C206.962 63.4424 208.225 58.897 211.178 52.2535L206.892 50.3481ZM202.326 66.2429C202.377 68.8027 203.24 71.1317 205.293 72.5902L208.01 68.7665C207.536 68.4297 207.047 67.7406 207.016 66.15L202.326 66.2429ZM205.206 72.5255C206.899 73.8497 208.866 74.5025 211.017 74.4599L210.924 69.7704C209.846 69.7917 208.934 69.4867 208.096 68.8312L205.206 72.5255ZM211.017 74.4599C213.413 74.4124 215.457 73.5434 217.114 71.8837L213.794 68.5703C213.008 69.358 212.125 69.7465 210.924 69.7704L211.017 74.4599ZM217.044 71.9514C218.734 70.393 220.658 68.287 222.882 65.6887L219.319 62.6387C217.124 65.2028 215.345 67.1377 213.865 68.5026L217.044 71.9514ZM222.89 65.6795C224.73 63.5069 226.134 61.9098 227.111 60.865C227.604 60.3374 227.957 59.9854 228.185 59.7786C228.304 59.6708 228.344 59.6441 228.323 59.6583C228.314 59.6647 228.243 59.7144 228.125 59.7711C228.049 59.8077 227.719 59.9655 227.246 59.9749L227.153 55.2853C226.633 55.2956 226.244 55.4711 226.096 55.5424C225.906 55.6337 225.75 55.7349 225.642 55.8096C225.426 55.9605 225.217 56.138 225.036 56.3022C224.664 56.6392 224.208 57.102 223.685 57.6614C222.629 58.7906 221.167 60.4567 219.311 62.6478L222.89 65.6795ZM227.246 59.9749C226.87 59.9823 226.413 59.8898 225.984 59.6038C225.574 59.3297 225.347 58.9829 225.23 58.7378C225.117 58.5029 225.079 58.3079 225.064 58.2183C225.048 58.1206 225.046 58.0552 225.046 58.0419L229.736 57.9489C229.732 57.7648 229.718 57.2494 229.461 56.7126C229.313 56.4047 229.048 56.0097 228.589 55.7034C228.113 55.3851 227.598 55.2765 227.153 55.2853L227.246 59.9749ZM225.046 58.0419C225.047 58.081 225.041 58.3007 224.945 58.7206L229.517 59.7677C229.676 59.0754 229.746 58.4631 229.736 57.9489L225.046 58.0419ZM224.927 58.8066C224.719 59.9033 224.647 61.188 224.676 62.6165L229.365 62.5235C229.34 61.2773 229.409 60.3447 229.535 59.6817L224.927 58.8066ZM224.676 62.6165C224.761 66.9261 225.53 70.5518 227.323 73.1401C229.233 75.8976 232.095 77.1791 235.521 77.1112L235.428 72.4216C233.366 72.4625 232.082 71.7732 231.178 70.469C230.158 68.9956 229.443 66.4687 229.365 62.5235L224.676 62.6165ZM235.521 77.1112L235.797 77.1057L235.704 72.4161L235.428 72.4216L235.521 77.1112ZM220.841 30.1145C222.65 30.0787 224.07 29.1578 225.179 28.0036L221.798 24.7533C221.189 25.3863 220.875 25.4225 220.748 25.425L220.841 30.1145ZM225.217 27.9638C229.012 23.8267 231.901 20.6438 233.877 18.4155C234.864 17.3032 235.635 16.4153 236.182 15.7597C236.454 15.4336 236.685 15.1474 236.865 14.9104C236.985 14.752 237.252 14.401 237.415 14.0293L233.118 12.1485C233.214 11.9281 233.301 11.8473 233.126 12.0784C233.01 12.231 232.832 12.4536 232.58 12.7556C232.079 13.3563 231.345 14.2023 230.368 15.303C228.419 17.5008 225.552 20.6601 221.76 24.7931L225.217 27.9638ZM237.471 13.8872C237.584 13.5758 237.698 13.2484 237.783 12.9405C237.86 12.6595 237.964 12.225 237.954 11.7438L233.265 11.8368C233.262 11.7178 233.275 11.6429 233.277 11.6328C233.279 11.6199 233.277 11.6365 233.261 11.6932C233.228 11.8144 233.167 11.998 233.061 12.2906L237.471 13.8872ZM237.954 11.7438C237.933 10.6836 237.502 9.75883 237.074 9.05693L233.07 11.5002C233.179 11.6786 233.233 11.7989 233.258 11.8672C233.282 11.9344 233.266 11.9181 233.265 11.8368L237.954 11.7438ZM237.051 9.01968C235.864 7.15371 233.989 6.38577 231.905 6.4271L231.998 11.1166C232.772 11.1013 232.947 11.3077 233.093 11.5374L237.051 9.01968ZM231.905 6.4271C229.557 6.47364 227.344 7.51422 225.294 9.16431C223.246 10.8126 221.224 13.1771 219.203 16.1588L223.085 18.7909C224.963 16.0208 226.684 14.0667 228.235 12.8179C229.784 11.5709 231.024 11.1359 231.998 11.1166L231.905 6.4271ZM219.193 16.1733C217.924 18.0745 216.936 19.764 216.262 21.2353C215.611 22.6577 215.146 24.0994 215.173 25.4361L219.862 25.3431C219.857 25.0658 219.973 24.3968 220.527 23.1888C221.058 22.0295 221.899 20.5687 223.095 18.7765L219.193 16.1733ZM215.173 25.4361C215.206 27.1301 216.248 28.2793 217.263 28.9932L219.961 25.1566C219.869 25.0919 219.813 25.0429 219.781 25.0121C219.75 24.9818 219.749 24.9755 219.763 24.9964C219.778 25.019 219.805 25.0657 219.827 25.1347C219.85 25.205 219.861 25.2772 219.862 25.3431L215.173 25.4361ZM217.263 28.9932C218.345 29.7541 219.525 30.1406 220.841 30.1145L220.748 25.425C220.495 25.43 220.283 25.3828 219.961 25.1566L217.263 28.9932Z" fill="#E63780"/>
</g>
<g filter="url(#filter1_d_75_2011)">
<path d="M149.158 81.4556C151.182 81.1848 152.179 80.2424 152.147 78.6283C152.134 77.9827 151.753 77.3905 151.051 76.8969C149.977 76.2262 149.363 75.5002 149.207 74.6268C149.154 74.2587 149.098 73.7985 149.087 73.2451C148.95 66.3277 150.152 59.476 152.646 52.6447C153.083 51.3905 153.291 50.2791 153.271 49.2645C153.243 47.8349 152.39 46.6985 150.713 45.9013C149.827 45.4114 148.945 45.1521 148.069 45.1695C146.455 45.2015 144.996 46.0608 143.691 47.7475C134.423 59.6033 129.465 65.5145 128.774 65.5283C128.497 65.5337 128.354 65.3059 128.345 64.8447C128.339 64.568 128.424 64.1973 128.6 63.7325C131.722 56.0122 135.497 48.6482 139.881 41.6872C140.728 40.2403 141.591 39.5311 142.467 39.5138C142.928 39.5046 143.218 40.1448 143.289 41.389C143.359 42.6332 143.695 43.2724 144.341 43.2596C144.617 43.2541 144.893 43.2025 145.167 43.0587C146.952 42.3313 147.903 41.4359 148.066 40.3716L148.212 38.3849C148.187 37.1398 147.751 36.0873 146.902 35.1815C145.162 33.509 143.393 32.7136 141.595 32.7493C138.874 32.8033 136.005 34.7055 133.081 38.4543C130.157 42.2491 126.595 48.7324 122.442 57.9955C119.483 64.6514 118.013 69.6169 118.078 72.8912C118.119 74.9664 118.795 76.4754 120.058 77.3731C121.324 78.3629 122.763 78.8419 124.377 78.8098C126.176 78.7742 127.64 78.1454 128.861 76.9217C130.447 75.4601 132.298 73.4396 134.508 70.8584C138.204 66.4946 140.237 64.3321 140.606 64.3248C140.745 64.3221 140.793 64.4595 140.798 64.6901C140.804 64.9668 140.766 65.3827 140.638 65.9389C140.471 66.8187 140.401 67.9274 140.427 69.2647C140.591 77.5195 143.393 81.5699 148.881 81.4611L149.158 81.4556Z" fill="#E63780"/>
<path d="M149.158 81.4556L149.204 83.8004L149.337 83.7978L149.469 83.7801L149.158 81.4556ZM151.051 76.8969L152.4 74.9786L152.348 74.9416L152.293 74.9075L151.051 76.8969ZM149.207 74.6268L146.886 74.9637L146.892 75.0012L146.898 75.0384L149.207 74.6268ZM152.646 52.6447L154.849 53.4491L154.855 53.4324L154.861 53.4155L152.646 52.6447ZM150.713 45.9013L149.579 47.9538L149.642 47.9885L149.706 48.0193L150.713 45.9013ZM143.691 47.7475L145.539 49.192L145.547 49.1823L143.691 47.7475ZM128.6 63.7325L126.425 62.8531L126.415 62.8789L126.405 62.9048L128.6 63.7325ZM139.881 41.6872L141.865 42.9369L141.885 42.9052L141.904 42.8729L139.881 41.6872ZM145.167 43.0587L144.282 40.8869L144.177 40.9297L144.077 40.9823L145.167 43.0587ZM148.066 40.3716L150.384 40.7275L150.399 40.6354L150.405 40.5424L148.066 40.3716ZM148.212 38.3849L150.551 38.5558L150.558 38.4472L150.556 38.3384L148.212 38.3849ZM146.902 35.1815L148.614 33.5783L148.572 33.5333L148.528 33.4906L146.902 35.1815ZM133.081 38.4543L131.232 37.0117L131.227 37.0174L131.223 37.023L133.081 38.4543ZM122.442 57.9955L120.302 57.0361L120.299 57.0428L122.442 57.9955ZM120.058 77.3731L121.503 75.5259L121.461 75.4926L121.417 75.4612L120.058 77.3731ZM128.861 76.9217L127.272 75.1973L127.236 75.2304L127.201 75.265L128.861 76.9217ZM134.508 70.8584L136.289 72.3835L136.297 72.3743L134.508 70.8584ZM140.638 65.9389L138.352 65.4153L138.342 65.4581L138.334 65.5013L140.638 65.9389ZM149.469 83.7801C150.742 83.6098 152.043 83.188 153.035 82.2494C154.099 81.243 154.518 79.9215 154.491 78.5818L149.802 78.6748C149.805 78.8332 149.781 78.8906 149.784 78.8853C149.784 78.8831 149.788 78.8735 149.797 78.8611C149.8 78.8555 149.804 78.8507 149.807 78.847C149.81 78.8433 149.812 78.8417 149.812 78.842C149.808 78.8458 149.598 79.0307 148.847 79.1311L149.469 83.7801ZM154.491 78.5818C154.459 76.9397 153.475 75.7347 152.4 74.9786L149.702 78.8152C149.862 78.9276 149.893 78.9879 149.878 78.9632C149.869 78.9487 149.849 78.9137 149.832 78.8588C149.814 78.8028 149.803 78.7396 149.802 78.6748L154.491 78.5818ZM152.293 74.9075C151.898 74.6605 151.695 74.4693 151.598 74.3502C151.552 74.2945 151.533 74.2592 151.526 74.2442C151.519 74.2306 151.517 74.223 151.516 74.2151L146.898 75.0384C147.22 76.8439 148.468 78.0492 149.809 78.8863L152.293 74.9075ZM151.528 74.2898C151.482 73.9747 151.44 73.6191 151.432 73.1986L146.743 73.2916C146.756 73.9779 146.825 74.5428 146.886 74.9637L151.528 74.2898ZM151.432 73.1986C151.301 66.5917 152.447 60.028 154.849 53.4491L150.443 51.8404C147.857 58.9239 146.599 66.0636 146.743 73.2916L151.432 73.1986ZM154.861 53.4155C155.36 51.9823 155.643 50.5871 155.616 49.2181L150.927 49.311C150.94 49.9711 150.806 50.7987 150.431 51.874L154.861 53.4155ZM155.616 49.2181C155.565 46.6409 153.935 44.8361 151.72 43.7833L149.706 48.0193C150.845 48.5609 150.921 49.029 150.927 49.311L155.616 49.2181ZM151.848 43.8488C150.695 43.2115 149.407 42.7973 148.023 42.8247L148.116 47.5142C148.484 47.5069 148.959 47.6114 149.579 47.9538L151.848 43.8488ZM148.023 42.8247C145.486 42.875 143.425 44.2582 141.836 46.3128L145.547 49.1823C146.567 47.8634 147.424 47.528 148.116 47.5142L148.023 42.8247ZM141.844 46.3031C137.214 52.2257 133.677 56.6417 131.22 59.5714C129.987 61.0411 129.05 62.1064 128.396 62.7931C128.063 63.142 127.843 63.3504 127.718 63.4565C127.652 63.5125 127.661 63.4982 127.728 63.4572C127.762 63.4358 127.851 63.3838 127.982 63.3314C128.098 63.2852 128.364 63.1907 128.727 63.1835L128.82 67.873C129.533 67.8589 130.054 67.5327 130.179 67.456C130.399 67.321 130.595 67.1667 130.748 67.0366C131.063 66.7705 131.416 66.4223 131.79 66.0298C132.549 65.2338 133.561 64.0777 134.813 62.586C137.324 59.5926 140.901 55.1251 145.539 49.192L141.844 46.3031ZM128.727 63.1835C128.99 63.1783 129.335 63.2287 129.689 63.4164C130.046 63.6057 130.292 63.8708 130.446 64.1153C130.589 64.3446 130.645 64.5423 130.667 64.6414C130.679 64.6952 130.684 64.736 130.687 64.7602C130.689 64.7847 130.69 64.798 130.69 64.7982L126 64.8912C126.008 65.2798 126.066 65.9601 126.472 66.6077C126.997 67.444 127.887 67.8915 128.82 67.873L128.727 63.1835ZM130.69 64.7982C130.691 64.8575 130.687 64.8948 130.685 64.9052C130.684 64.9161 130.684 64.9094 130.69 64.8827C130.703 64.8264 130.733 64.7215 130.794 64.5601L126.405 62.9048C126.195 63.4627 125.986 64.1668 126 64.8912L130.69 64.7982ZM130.774 64.6118C133.844 57.0205 137.556 49.7803 141.865 42.9369L137.896 40.4376C133.439 47.516 129.6 55.004 126.425 62.8531L130.774 64.6118ZM141.904 42.8729C142.249 42.2833 142.516 41.9902 142.667 41.8639C142.798 41.7546 142.736 41.8541 142.514 41.8585L142.421 37.169C140.225 37.2125 138.774 38.937 137.857 40.5016L141.904 42.8729ZM142.514 41.8585C142.026 41.8682 141.586 41.6872 141.272 41.424C141.002 41.1973 140.899 40.9739 140.879 40.9289C140.855 40.8736 140.868 40.8854 140.891 41.0046C140.912 41.1168 140.934 41.2859 140.947 41.5222L145.63 41.2557C145.589 40.5327 145.477 39.7308 145.17 39.0338C144.866 38.3471 144.039 37.1369 142.421 37.169L142.514 41.8585ZM140.947 41.5222C140.989 42.2584 141.117 43.1527 141.547 43.9304C141.779 44.3502 142.134 44.7987 142.665 45.1331C143.213 45.4776 143.814 45.6158 144.387 45.6044L144.294 40.9149C144.544 40.9099 144.861 40.973 145.162 41.1624C145.447 41.3416 145.593 41.5549 145.651 41.6609C145.706 41.759 145.702 41.7928 145.683 41.7052C145.665 41.6236 145.643 41.4794 145.63 41.2557L140.947 41.5222ZM144.387 45.6044C144.938 45.5935 145.59 45.4855 146.257 45.1351L144.077 40.9823C144.128 40.9553 144.183 40.9362 144.231 40.9251C144.277 40.9145 144.302 40.9147 144.294 40.9149L144.387 45.6044ZM146.052 45.2305C148.023 44.4271 150.024 43.0761 150.384 40.7275L145.748 40.0156C145.762 39.9249 145.804 39.9599 145.627 40.1245C145.425 40.3126 145.02 40.5863 144.282 40.8869L146.052 45.2305ZM150.405 40.5424L150.551 38.5558L145.873 38.214L145.727 40.2007L150.405 40.5424ZM150.556 38.3384C150.52 36.5043 149.852 34.8999 148.614 33.5783L145.191 36.7846C145.65 37.2748 145.854 37.7753 145.867 38.4314L150.556 38.3384ZM148.528 33.4906C146.482 31.5247 144.143 30.3531 141.548 30.4045L141.641 35.0941C142.644 35.0742 143.842 35.4933 145.277 36.8723L148.528 33.4906ZM141.548 30.4045C137.746 30.4799 134.29 33.0916 131.232 37.0117L134.93 39.8968C137.721 36.3194 140.002 35.1266 141.641 35.0941L141.548 30.4045ZM131.223 37.023C128.124 41.0454 124.471 47.7374 120.302 57.0361L124.582 58.9549C128.719 49.7275 132.191 43.4528 134.939 39.8855L131.223 37.023ZM120.299 57.0428C117.335 63.711 115.657 69.0967 115.733 72.9377L120.423 72.8447C120.369 70.1371 121.632 65.5918 124.585 58.9482L120.299 57.0428ZM115.733 72.9377C115.784 75.4974 116.647 77.8264 118.7 79.2849L121.417 75.4612C120.943 75.1244 120.454 74.4353 120.423 72.8447L115.733 72.9377ZM118.613 79.2202C120.306 80.5444 122.273 81.1973 124.424 81.1546L124.331 76.4651C123.254 76.4864 122.341 76.1814 121.503 75.5259L118.613 79.2202ZM124.424 81.1546C126.82 81.1071 128.865 80.2381 130.521 78.5784L127.201 75.265C126.415 76.0527 125.532 76.4413 124.331 76.4651L124.424 81.1546ZM130.451 78.6461C132.141 77.0878 134.065 74.9817 136.289 72.3834L132.726 69.3334C130.531 71.8975 128.752 73.8324 127.272 75.1973L130.451 78.6461ZM136.297 72.3743C138.138 70.2016 139.541 68.6045 140.518 67.5597C141.011 67.0322 141.364 66.6802 141.592 66.4733C141.711 66.3656 141.751 66.3388 141.73 66.353C141.721 66.3594 141.65 66.4091 141.532 66.4658C141.456 66.5024 141.126 66.6602 140.653 66.6696L140.56 61.98C140.04 61.9903 139.651 62.1659 139.503 62.2371C139.313 62.3284 139.157 62.4296 139.049 62.5043C138.833 62.6552 138.624 62.8327 138.443 62.9969C138.071 63.334 137.615 63.7967 137.092 64.3561C136.036 65.4853 134.574 67.1514 132.718 69.3426L136.297 72.3743ZM140.653 66.6696C140.277 66.677 139.82 66.5845 139.391 66.2985C138.981 66.0244 138.754 65.6776 138.637 65.4325C138.524 65.1976 138.486 65.0026 138.471 64.913C138.455 64.8153 138.454 64.7499 138.453 64.7366L143.143 64.6436C143.139 64.4595 143.125 63.9441 142.868 63.4074C142.72 63.0994 142.455 62.7044 141.997 62.3981C141.52 62.0798 141.005 61.9712 140.56 61.98L140.653 66.6696ZM138.453 64.7366C138.454 64.7758 138.448 64.9954 138.352 65.4153L142.924 66.4625C143.083 65.7701 143.153 65.1578 143.143 64.6436L138.453 64.7366ZM138.334 65.5013C138.126 66.598 138.054 67.8827 138.083 69.3112L142.772 69.2182C142.747 67.972 142.816 67.0394 142.942 66.3764L138.334 65.5013ZM138.083 69.3112C138.168 73.6208 138.937 77.2466 140.73 79.8349C142.64 82.5923 145.502 83.8738 148.928 83.8059L148.835 79.1163C146.773 79.1572 145.489 78.4679 144.585 77.1637C143.565 75.6903 142.85 73.1634 142.772 69.2182L138.083 69.3112ZM148.928 83.8059L149.204 83.8004L149.111 79.1109L148.835 79.1163L148.928 83.8059Z" fill="#E63780"/>
</g>
<g filter="url(#filter2_d_75_2011)">
<path d="M110.273 89.8388C111.979 89.7588 112.785 88.5433 112.738 86.1914L112.62 84.902C111.753 80.721 111.254 76.4865 111.17 72.2438C110.934 60.3458 114.076 44.321 120.597 24.1694C121.068 22.3608 121.273 21.065 121.256 20.1888C121.192 19.2674 120.899 18.4889 120.472 17.8515C119.572 16.6699 118.36 16.048 116.745 16.0339C115.131 16.0659 113.711 16.6015 112.439 17.5956C111.031 18.6846 109.189 21.2124 106.823 25.1807C104.367 29.2892 101.778 33.6772 99.1495 38.3889C93.4054 48.8369 90.0952 54.0695 89.2651 54.086C89.2199 54.133 89.16 53.4422 89.1317 52.0126C89.1061 50.7213 89.1156 48.8758 89.1133 46.4307C89.2048 34.7569 89.2187 28.4824 89.2014 27.6062C88.9926 24.0579 86.7867 22.164 82.5828 21.8783L81.2436 21.8126C80.4588 21.782 79.9506 21.746 79.6278 21.7524C77.0923 21.8488 74.2625 28.0408 71.2296 40.2804C68.0584 52.5227 66.0081 63.1281 65.1239 72.0496C65.2075 73.9395 66.2404 74.8417 68.2234 74.8023C70.3909 74.7594 72.0651 73.1115 73.2915 69.8116L76.0417 59.6075C77.6542 52.517 78.7377 48.9893 79.3372 48.9774C79.7061 48.9701 79.9769 50.9946 80.1966 55.0962C80.4164 59.1978 80.7941 61.9584 81.4237 63.4684C82.0073 64.9792 82.8178 66.301 83.8109 67.527C84.8041 68.7529 86.3378 69.3222 88.5053 69.2793C92.0083 69.1175 94.3218 67.134 95.3997 63.3296C102.262 46.4468 105.923 37.9778 106.43 37.9677L106.524 38.0581C106.53 38.3348 106.359 39.0302 106.058 40.1434C102.955 51.1388 101.499 61.5017 101.69 71.14C101.85 79.1642 103.625 84.942 107.017 88.4732C108.143 89.4197 109.212 89.8598 110.273 89.8388Z" fill="#E63780"/>
<path d="M110.273 89.8388L110.32 92.1835L110.351 92.1829L110.383 92.1814L110.273 89.8388ZM112.738 86.1914L115.083 86.1449L115.081 86.0613L115.074 85.978L112.738 86.1914ZM112.62 84.902L114.956 84.6886L114.944 84.556L114.917 84.4257L112.62 84.902ZM120.597 24.1694L122.828 24.8914L122.849 24.8269L122.866 24.7612L120.597 24.1694ZM121.256 20.1888L123.601 20.1423L123.6 20.0837L123.596 20.0253L121.256 20.1888ZM120.472 17.8515L122.419 16.5444L122.38 16.4863L122.337 16.4305L120.472 17.8515ZM116.745 16.0339L116.765 13.6888L116.732 13.6885L116.698 13.6891L116.745 16.0339ZM112.439 17.5956L113.874 19.451L113.883 19.4435L112.439 17.5956ZM106.823 25.1807L108.836 26.384L108.837 26.3819L106.823 25.1807ZM99.1495 38.3889L97.1014 37.2463L97.0979 37.2526L97.0944 37.259L99.1495 38.3889ZM89.2651 54.086L89.2186 51.7412L88.2474 51.7605L87.5742 52.4609L89.2651 54.086ZM89.1133 46.4307L86.7681 46.4123L86.7681 46.4227L86.7681 46.433L89.1133 46.4307ZM89.2014 27.6062L91.5461 27.5597L91.5452 27.514L91.5425 27.4684L89.2014 27.6062ZM82.5828 21.8783L82.7419 19.5385L82.7198 19.537L82.6978 19.5359L82.5828 21.8783ZM81.2437 21.8126L81.3586 19.4702L81.3468 19.4696L81.3349 19.4692L81.2437 21.8126ZM79.6278 21.7524L79.5813 19.4076L79.5599 19.408L79.5386 19.4089L79.6278 21.7524ZM71.2296 40.2804L73.4999 40.8685L73.503 40.8565L73.506 40.8444L71.2296 40.2804ZM65.1239 72.0496L62.7901 71.8183L62.7736 71.9855L62.781 72.1533L65.1239 72.0496ZM73.2915 69.8116L75.4898 70.6286L75.5276 70.5268L75.5559 70.4219L73.2915 69.8116ZM76.0417 59.6075L78.3062 60.2178L78.3183 60.1729L78.3286 60.1276L76.0417 59.6075ZM81.4237 63.4684L83.6114 62.6234L83.6002 62.5944L83.5883 62.5657L81.4237 63.4684ZM88.5053 69.2793L88.5517 71.624L88.5826 71.6234L88.6134 71.622L88.5053 69.2793ZM95.3997 63.3296L93.2271 62.4466L93.1785 62.5661L93.1433 62.6903L95.3997 63.3296ZM106.43 37.9677L108.056 36.2768L107.355 35.6037L106.384 35.6229L106.43 37.9677ZM106.524 38.0581L108.869 38.0116L108.85 37.0404L108.15 36.3672L106.524 38.0581ZM106.058 40.1434L108.315 40.7805L108.319 40.7679L108.322 40.7553L106.058 40.1434ZM107.017 88.4732L105.325 90.0977L105.412 90.1879L105.508 90.2684L107.017 88.4732ZM110.383 92.1814C111.841 92.1131 113.215 91.5042 114.109 90.1761C114.907 88.9889 115.11 87.5289 115.083 86.1449L110.393 86.2379C110.402 86.6953 110.368 87.0245 110.319 87.2503C110.271 87.4748 110.219 87.5554 110.217 87.558C110.216 87.5586 110.219 87.555 110.224 87.5486C110.23 87.5422 110.238 87.5339 110.248 87.5248C110.27 87.5053 110.293 87.4902 110.311 87.4806C110.35 87.4605 110.321 87.4887 110.163 87.4961L110.383 92.1814ZM115.074 85.978L114.956 84.6886L110.285 85.1154L110.403 86.4048L115.074 85.978ZM114.917 84.4257C114.077 80.3776 113.596 76.2871 113.515 72.1973L108.825 72.2903C108.912 76.6859 109.429 81.0643 110.324 85.3783L114.917 84.4257ZM113.515 72.1973C113.286 60.6883 116.335 44.9568 122.828 24.8914L118.366 23.4474C111.817 43.6852 108.581 60.0034 108.825 72.2903L113.515 72.1973ZM122.866 24.7612C123.351 22.9029 123.625 21.352 123.601 20.1423L118.911 20.2353C118.922 20.778 118.786 21.8188 118.328 23.5777L122.866 24.7612ZM123.596 20.0253C123.502 18.6877 123.071 17.5161 122.419 16.5444L118.524 19.1586C118.728 19.4617 118.881 19.8471 118.917 20.3523L123.596 20.0253ZM122.337 16.4305C120.987 14.657 119.086 13.709 116.765 13.6888L116.724 18.379C117.634 18.387 118.157 18.6827 118.606 19.2725L122.337 16.4305ZM116.698 13.6891C114.546 13.7318 112.642 14.4609 110.995 15.7477L113.883 19.4435C114.781 18.7422 115.716 18.4 116.791 18.3787L116.698 13.6891ZM111.005 15.7402C110.043 16.484 109.077 17.5947 108.103 18.9165C107.108 20.2658 106.012 21.9612 104.808 23.9795L108.837 26.3819C110 24.4319 111.008 22.8792 111.878 21.7003C112.767 20.4938 113.427 19.7961 113.874 19.4509L111.005 15.7402ZM104.81 23.9774C102.349 28.0933 99.7468 32.5044 97.1014 37.2463L101.198 39.5314C103.809 34.8499 106.384 30.4851 108.836 26.384L104.81 23.9774ZM97.0944 37.259C94.2289 42.4711 91.992 46.3425 90.3806 48.8986C89.5699 50.1846 88.9502 51.0852 88.5096 51.6445C88.2839 51.931 88.1558 52.0628 88.1131 52.1017C88.0912 52.1217 88.1441 52.0688 88.2634 51.9988C88.3537 51.9458 88.699 51.7515 89.2186 51.7412L89.3116 56.4308C89.9349 56.4184 90.4034 56.1813 90.6361 56.0448C90.898 55.8913 91.1127 55.714 91.272 55.5689C91.5916 55.2777 91.9032 54.9164 92.1943 54.5468C92.7874 53.7938 93.5099 52.7301 94.3484 51.4C96.0357 48.7236 98.326 44.7546 101.205 39.5187L97.0944 37.259ZM87.5742 52.4609C87.823 52.202 88.3743 51.7601 89.2143 51.7435C90.0555 51.7268 90.6248 52.1475 90.8849 52.3985C91.1398 52.6444 91.2763 52.8895 91.3323 52.9969C91.3986 53.1244 91.4392 53.2318 91.4609 53.2938C91.504 53.4168 91.525 53.5123 91.5319 53.5447C91.5409 53.587 91.5456 53.6163 91.547 53.6256C91.5499 53.6445 91.5426 53.5967 91.5316 53.4395C91.5113 53.1493 91.4903 52.6627 91.4765 51.9661L86.7869 52.0591C86.8015 52.7921 86.8245 53.3657 86.8526 53.7666C86.8657 53.9549 86.8836 54.1603 86.9113 54.3402C86.9199 54.3957 86.9515 54.6082 87.0341 54.8443C87.0444 54.8737 87.1929 55.354 87.628 55.7739C87.891 56.0276 88.4632 56.4498 89.3073 56.433C90.1502 56.4163 90.7043 55.973 90.956 55.7111L87.5742 52.4609ZM91.4765 51.9661C91.4514 50.7043 91.4609 48.9016 91.4585 46.4285L86.7681 46.433C86.7704 48.85 86.7607 50.7384 86.7869 52.0591L91.4765 51.9661ZM91.4584 46.4491C91.5497 34.7966 91.5643 28.4775 91.5461 27.5597L86.8566 27.6526C86.8732 28.4872 86.8598 34.7172 86.7681 46.4123L91.4584 46.4491ZM91.5425 27.4684C91.4096 25.2088 90.6068 23.1981 88.9232 21.744C87.2962 20.3387 85.13 19.7008 82.7419 19.5385L82.4238 24.2182C84.2396 24.3416 85.2782 24.7935 85.8573 25.2937C86.3799 25.745 86.7844 26.4553 86.8602 27.7439L91.5425 27.4684ZM82.6978 19.5359L81.3586 19.4702L81.1287 24.155L82.4679 24.2207L82.6978 19.5359ZM81.3349 19.4692C80.6838 19.4438 79.9938 19.3994 79.5813 19.4076L79.6742 24.0971C79.9073 24.0925 80.2337 24.1203 81.1524 24.1561L81.3349 19.4692ZM79.5386 19.4089C77.9365 19.4698 76.7241 20.4638 75.8874 21.4457C75.0149 22.4695 74.2222 23.8586 73.4799 25.4928C71.987 28.7796 70.4807 33.5521 68.9532 39.7163L73.506 40.8444C75.0114 34.7691 76.4364 30.3258 77.7505 27.4325C78.4117 25.9768 78.9914 25.0348 79.4574 24.488C79.9591 23.8993 80.0513 24.0832 79.7169 24.0959L79.5386 19.4089ZM68.9593 39.6923C65.7698 52.0053 63.6902 62.7367 62.7901 71.8183L67.4577 72.2809C68.326 63.5196 70.347 53.0401 73.4999 40.8685L68.9593 39.6923ZM62.781 72.1533C62.8403 73.4934 63.2607 74.8917 64.4076 75.9061C65.5286 76.8975 66.9528 77.1732 68.2699 77.1471L68.1769 72.4576C67.511 72.4708 67.4273 72.315 67.5151 72.3927C67.5555 72.4284 67.5589 72.4535 67.5428 72.4133C67.5219 72.3609 67.479 72.2198 67.4669 71.946L62.781 72.1533ZM68.2699 77.1471C71.9325 77.0745 74.163 74.1988 75.4898 70.6286L71.0932 68.9946C69.9673 72.0241 68.8492 72.4442 68.1769 72.4576L68.2699 77.1471ZM75.5559 70.4219L78.3062 60.2178L73.7773 58.9972L71.0271 69.2013L75.5559 70.4219ZM78.3286 60.1276C79.1319 56.595 79.79 54.0118 80.3098 52.3309C80.5741 51.4767 80.7765 50.9423 80.9135 50.6547C80.9873 50.4996 80.9923 50.5236 80.913 50.6217C80.8713 50.6732 80.7517 50.8139 80.5431 50.9566C80.3304 51.1021 79.9319 51.3113 79.3837 51.3222L79.2907 46.6326C78.1045 46.6562 77.43 47.4693 77.2662 47.6718C77.0066 47.9928 76.8159 48.3498 76.6787 48.6379C76.3936 49.2366 76.112 50.0296 75.8288 50.945C75.254 52.8036 74.5641 55.5295 73.7549 59.0875L78.3286 60.1276ZM79.3837 51.3222C78.2341 51.345 77.6477 50.5573 77.5393 50.3998C77.3895 50.1823 77.3477 50.0219 77.362 50.0667C77.3799 50.1227 77.4338 50.342 77.4999 50.8184C77.6268 51.7329 77.7455 53.1819 77.8548 55.2217L82.5385 54.9708C82.4281 52.909 82.3015 51.295 82.1458 50.1736C82.0707 49.6321 81.9739 49.0903 81.8304 48.6405C81.764 48.4324 81.6388 48.083 81.4028 47.7402C81.2081 47.4573 80.5325 46.608 79.2907 46.6326L79.3837 51.3222ZM77.8548 55.2217C78.0718 59.2733 78.4508 62.4325 79.2592 64.371L83.5883 62.5657C83.1373 61.4843 82.7609 59.1224 82.5385 54.9708L77.8548 55.2217ZM79.236 64.3134C79.9204 66.0851 80.8653 67.6165 81.9886 69.0032L85.6332 66.0507C84.7703 64.9856 84.0943 63.8733 83.6114 62.6234L79.236 64.3134ZM81.9886 69.0032C83.5949 70.986 85.9545 71.6755 88.5517 71.624L88.4588 66.9345C86.7211 66.969 86.0133 66.5198 85.6332 66.0507L81.9886 69.0032ZM88.6134 71.622C90.8035 71.5209 92.7837 70.8334 94.3926 69.4472C95.981 68.0788 97.0284 66.1843 97.6561 63.969L93.1433 62.6903C92.6931 64.2794 92.0448 65.2788 91.3311 65.8937C90.638 66.4908 89.71 66.8759 88.3971 66.9365L88.6134 71.622ZM97.5723 64.2127C101.002 55.7743 103.624 49.4577 105.449 45.2556C106.364 43.1492 107.066 41.604 107.562 40.597C107.814 40.0851 107.988 39.7633 108.094 39.5897C108.153 39.4934 108.148 39.5127 108.09 39.5822C108.063 39.6134 107.965 39.7291 107.798 39.8564C107.687 39.941 107.212 40.2979 106.477 40.3125L106.384 35.6229C105.617 35.6381 105.104 36.0121 104.949 36.1305C104.739 36.2914 104.59 36.4573 104.507 36.5551C104.335 36.7581 104.194 36.9768 104.09 37.146C103.872 37.5035 103.624 37.9769 103.354 38.5242C102.807 39.6356 102.069 41.2646 101.147 43.3872C99.2989 47.6428 96.6594 54.0022 93.2271 62.4466L97.5723 64.2127ZM104.805 39.6586L104.899 39.749L108.15 36.3672L108.056 36.2768L104.805 39.6586ZM104.18 38.1046C104.177 37.9577 104.195 37.8856 104.182 37.9644C104.173 38.0187 104.154 38.114 104.12 38.2635C104.052 38.5629 103.944 38.9769 103.794 39.5315L108.322 40.7553C108.473 40.1966 108.602 39.7063 108.692 39.3106C108.762 39.0051 108.879 38.4845 108.869 38.0116L104.18 38.1046ZM103.801 39.5063C100.646 50.6852 99.1492 61.2802 99.3457 71.1865L104.035 71.0935C103.849 61.7232 105.264 51.5923 108.315 40.7805L103.801 39.5063ZM99.3457 71.1865C99.5094 79.4455 101.332 85.9406 105.325 90.0977L108.708 86.8486C105.918 83.9433 104.19 78.883 104.035 71.0935L99.3457 71.1865ZM105.508 90.2684C106.915 91.4516 108.519 92.2192 110.32 92.1835L110.227 87.494C109.906 87.5004 109.37 87.3877 108.526 86.6779L105.508 90.2684Z" fill="#E63780"/>
</g>
<path d="M198.668 75.6597C199.913 75.6351 200.589 74.8374 200.79 73.311C203.401 53.7905 204.718 43.4303 204.694 42.1851C204.643 39.6487 203.317 37.8758 200.715 36.9586C200.112 36.786 199.51 36.7057 198.911 36.7175C197.666 36.7422 196.392 37.644 195.089 39.423C195.095 39.6997 192.119 43.1726 186.16 49.7957C185.44 50.6866 184.942 51.1578 184.665 51.1633C184.527 51.166 184.477 50.9825 184.469 50.5674C184.591 49.7807 184.623 49.0419 184.607 48.2579C184.564 46.0905 183.748 44.492 182.159 43.4624C181.318 42.9254 180.437 42.6661 179.468 42.6853C178.223 42.71 177.172 43.2383 176.225 44.3182C169.499 51.7869 166.02 55.5005 165.744 55.506C165.42 55.4663 165.277 55.2384 165.268 54.7773C165.289 53.5312 166.425 50.3254 168.582 45.0695C168.978 44.1389 169.19 43.1659 169.169 42.1053C169.131 40.2145 167.813 38.8566 165.211 37.9394C164.7 37.765 164.191 37.6828 163.591 37.6947C162.162 37.723 161.122 38.8047 160.381 40.9877L159.213 44.8862C155.614 56.4911 153.805 62.9858 153.833 64.4154C153.892 67.3669 155.735 69.5909 159.364 71.1336C160.155 71.487 160.943 71.6559 161.819 71.6386C163.802 71.5992 165.575 70.2723 167.23 67.656L168.881 64.8091C170.219 62.5219 171.257 61.348 171.995 61.3334C172.687 61.3197 173.017 61.6822 173.077 62.373C173.563 65.9618 175.359 68.1407 178.467 68.9556C178.884 69.0857 179.254 69.1245 179.531 69.1191C180.868 69.0925 181.959 68.2405 182.893 66.515C183.07 66.1424 186.303 61.6494 192.544 52.9908C193.173 52.1479 193.626 51.7237 193.903 51.7182C194.318 51.71 194.518 52.4903 194.548 54.0122C194.609 57.1019 194.096 61.4488 193.007 67.0526C192.71 68.3502 192.591 69.3214 192.605 70.0132C192.662 72.9185 194.268 74.7782 197.421 75.5922L198.668 75.6597ZM235.92 73.3986C237.945 73.1278 238.941 72.1854 238.909 70.5713C238.896 69.9257 238.515 69.3335 237.813 68.8399C236.739 68.1692 236.125 67.4433 235.969 66.5698C235.916 66.2018 235.86 65.7415 235.849 65.1881C235.712 58.2707 236.914 51.419 239.409 44.5878C239.845 43.3335 240.054 42.2221 240.034 41.2076C240.005 39.778 239.152 38.6415 237.476 37.8444C236.589 37.3545 235.708 37.0951 234.831 37.1125C233.217 37.1445 231.758 38.0039 230.454 39.6906C221.185 51.5463 216.228 57.4576 215.536 57.4713C215.259 57.4768 215.116 57.2489 215.107 56.7878C215.102 56.5111 215.186 56.1403 215.362 55.6755C218.484 47.9553 222.26 40.5912 226.643 33.6303C227.491 32.1833 228.353 31.4742 229.229 31.4568C229.69 31.4476 229.98 32.0878 230.051 33.332C230.122 34.5762 230.457 35.2155 231.103 35.2027C231.38 35.1972 231.655 35.1456 231.929 35.0017C233.714 34.2743 234.665 33.3789 234.829 32.3146L234.974 30.3279C234.949 29.0828 234.513 28.0304 233.665 27.1245C231.924 25.452 230.156 24.6567 228.357 24.6923C225.636 24.7463 222.767 26.6485 219.843 30.3973C216.92 34.1921 213.357 40.6754 209.204 49.9385C206.245 56.5944 204.775 61.5599 204.84 64.8342C204.881 66.9094 205.557 68.4184 206.821 69.3161C208.086 70.306 209.525 70.7849 211.14 70.7529C212.938 70.7172 214.402 70.0884 215.623 68.8647C217.209 67.4031 219.06 65.3826 221.27 62.8014C224.966 58.4376 227 56.2752 227.368 56.2678C227.507 56.2651 227.556 56.4025 227.56 56.6331C227.566 56.9098 227.528 57.3258 227.4 57.8819C227.233 58.7618 227.163 59.8704 227.19 61.2078C227.353 69.4626 230.156 73.513 235.643 73.4041L235.92 73.3986ZM220.963 26.4075C221.932 26.3883 222.799 25.9098 223.658 25.0162C231.244 16.7461 235.17 12.3316 235.435 11.7266C235.654 11.1226 235.784 10.7048 235.779 10.4281C235.769 9.96691 235.575 9.46329 235.241 8.91629C234.575 7.86842 233.55 7.38126 232.12 7.40961C228.8 7.47545 225.213 10.3608 221.313 16.1126C218.849 19.8061 217.655 22.4133 217.687 24.0274C217.7 24.673 218.08 25.2191 218.781 25.7126C219.483 26.2062 220.179 26.4231 220.963 26.4075Z" fill="white"/>
<path d="M149.326 80.0933C151.351 79.8225 152.347 78.88 152.315 77.266C152.302 76.6203 151.921 76.0282 151.219 75.5346C150.145 74.8639 149.531 74.1379 149.375 73.2644C149.322 72.8964 149.267 72.4362 149.256 71.8828C149.118 64.9654 150.32 58.1136 152.815 51.2824C153.251 50.0281 153.46 48.9168 153.44 47.9022C153.411 46.4726 152.558 45.3362 150.882 44.539C149.995 44.0491 149.114 43.7898 148.238 43.8072C146.623 43.8392 145.164 44.6985 143.86 46.3852C134.591 58.241 129.634 64.1522 128.942 64.1659C128.665 64.1714 128.522 63.9436 128.513 63.4824C128.508 63.2057 128.593 62.835 128.768 62.3701C131.89 54.6499 135.666 47.2858 140.049 40.3249C140.897 38.8779 141.759 38.1688 142.635 38.1514C143.097 38.1423 143.386 38.7824 143.457 40.0267C143.528 41.2709 143.863 41.9101 144.509 41.8973C144.786 41.8918 145.061 41.8402 145.335 41.6964C147.12 40.969 148.071 40.0736 148.235 39.0092L148.38 37.0226C148.355 35.7774 147.919 34.725 147.071 33.8191C145.331 32.1467 143.562 31.3513 141.763 31.387C139.042 31.4409 136.174 33.3432 133.249 37.0919C130.326 40.8868 126.763 47.3701 122.61 56.6332C119.651 63.2891 118.181 68.2546 118.246 71.5288C118.287 73.6041 118.963 75.1131 120.227 76.0107C121.492 77.0006 122.932 77.4795 124.546 77.4475C126.344 77.4119 127.808 76.7831 129.029 75.5594C130.615 74.0978 132.467 72.0773 134.676 69.4961C138.372 65.1323 140.406 62.9698 140.775 62.9625C140.913 62.9597 140.962 63.0972 140.966 63.3278C140.972 63.6045 140.934 64.0204 140.807 64.5766C140.639 65.4564 140.569 66.565 140.596 67.9024C140.759 76.1572 143.562 80.2076 149.049 80.0988L149.326 80.0933Z" fill="white"/>
<path d="M110.441 88.4765C112.147 88.3966 112.953 87.1811 112.906 84.8292L112.789 83.5397C111.921 79.3587 111.422 75.1242 111.338 70.8815C111.102 58.9836 114.245 42.9588 120.765 22.8072C121.237 20.9986 121.442 19.7028 121.424 18.8265C121.36 17.9051 121.068 17.1266 120.64 16.4892C119.74 15.3076 118.528 14.6857 116.913 14.6716C115.299 14.7036 113.879 15.2393 112.607 16.2333C111.199 17.3223 109.357 19.8501 106.991 23.8184C104.535 27.927 101.946 32.3149 99.3178 37.0266C93.5736 47.4746 90.2634 52.7073 89.4333 52.7237C89.3881 52.7708 89.3283 52.0799 89.3 50.6503C89.2744 49.3591 89.2839 47.5135 89.2815 45.0685C89.373 33.3947 89.387 27.1201 89.3696 26.2439C89.1609 22.6957 86.955 20.8018 82.7511 20.5161L81.4119 20.4504C80.627 20.4198 80.1188 20.3837 79.796 20.3901C77.2605 20.4865 74.4307 26.6785 71.3979 38.9181C68.2267 51.1605 66.1764 61.7659 65.2922 70.6874C65.3758 72.5772 66.4087 73.4794 68.3917 73.4401C70.5591 73.3971 72.2334 71.7492 73.4597 68.4494L76.21 58.2453C77.8225 51.1547 78.9059 47.627 79.5054 47.6152C79.8744 47.6078 80.1452 49.6324 80.3649 53.734C80.5846 57.8356 80.9623 60.5962 81.592 62.1061C82.1756 63.617 82.9861 64.9388 83.9792 66.1647C84.9723 67.3907 86.5061 67.96 88.6735 67.917C92.1765 67.7553 94.49 65.7718 95.568 61.9674C102.43 45.0845 106.091 36.6155 106.599 36.6054L106.693 36.6958C106.698 36.9725 106.527 37.6679 106.227 38.7811C103.123 49.7765 101.668 60.1395 101.859 69.7777C102.018 77.802 103.793 83.5797 107.185 87.1109C108.311 88.0574 109.381 88.4975 110.441 88.4765Z" fill="white"/>
<path d="M129.06 12.4739L131.712 12.4739L131.712 17.2169L135.809 17.2169L135.809 12.4739L138.461 12.4739L138.461 24.1019L135.809 24.1019L135.809 19.2059L131.712 19.2059L131.712 24.1019L129.06 24.1019L129.06 12.4739ZM143.156 24.3399C142.227 24.3399 141.507 24.0905 140.997 23.5919C140.487 23.0932 140.232 22.4302 140.232 21.6029C140.232 21.2289 140.295 20.8775 140.419 20.5489C140.544 20.2202 140.725 19.9425 140.963 19.7159C141.258 19.4439 141.643 19.2512 142.119 19.1379C142.607 19.0132 143.241 18.9509 144.023 18.9509L145.349 18.9509L145.349 18.6789C145.349 18.2369 145.247 17.9252 145.043 17.7439C144.783 17.5172 144.312 17.4039 143.632 17.4039C143.258 17.4039 142.85 17.4265 142.408 17.4719C141.966 17.5172 141.598 17.5682 141.303 17.6249L141.184 15.8399C142.204 15.6359 143.19 15.5339 144.142 15.5339C144.811 15.5339 145.406 15.6132 145.927 15.7719C146.46 15.9192 146.862 16.1572 147.134 16.4859C147.565 16.9845 147.78 17.7212 147.78 18.6959L147.78 24.1019L145.859 24.1019L145.655 23.5919C145.293 23.8299 144.89 24.0112 144.448 24.1359C144.018 24.2719 143.587 24.3399 143.156 24.3399ZM143.853 22.4869C144.069 22.4869 144.318 22.4642 144.601 22.4189C144.885 22.3622 145.134 22.2999 145.349 22.2319L145.349 20.5149L144.057 20.5149C143.751 20.5149 143.508 20.5375 143.326 20.5829C143.145 20.6282 143.003 20.7019 142.901 20.8039C142.743 20.9625 142.663 21.1949 142.663 21.5009C142.663 21.8182 142.754 22.0619 142.935 22.2319C143.128 22.4019 143.434 22.4869 143.853 22.4869ZM149.059 22.7249L152.935 17.3189L149.161 17.3189L149.161 15.7719L155.791 15.7719L155.791 17.1829L151.932 22.5549L155.995 22.5549L155.995 24.1019L149.059 24.1019L149.059 22.7249ZM161.758 17.3529L160.33 17.3529L160.33 16.0439L161.758 15.7889L161.758 14.6329C161.758 14.1229 161.809 13.6922 161.911 13.3409C162.025 12.9782 162.206 12.6722 162.455 12.4229C162.693 12.1849 163.022 11.9979 163.441 11.8619C163.872 11.7259 164.371 11.6579 164.937 11.6579C165.515 11.6579 166.105 11.7202 166.705 11.8449L166.705 13.5789C166.252 13.5109 165.872 13.4769 165.566 13.4769C165.272 13.4769 165.034 13.4995 164.852 13.5449C164.682 13.5902 164.541 13.6695 164.427 13.7829C164.348 13.8622 164.286 13.9755 164.24 14.1229C164.206 14.2702 164.189 14.4855 164.189 14.7689L164.189 15.7719L166.161 15.7719L166.161 17.3529L164.189 17.3529L164.189 24.1019L161.758 24.1019L161.758 17.3529ZM171.37 24.3399C170.599 24.3399 169.919 24.2492 169.33 24.0679C168.752 23.8752 168.281 23.6089 167.919 23.2689C167.171 22.5549 166.797 21.4499 166.797 19.9539C166.797 18.5032 167.148 17.4039 167.851 16.6559C168.553 15.9079 169.551 15.5339 170.843 15.5339C172.112 15.5339 173.064 15.8795 173.699 16.5709C174.345 17.2509 174.668 18.3049 174.668 19.7329L174.668 20.4979C174.668 20.6225 174.6 20.6849 174.464 20.6849L169.347 20.6849C169.381 21.3649 169.602 21.8352 170.01 22.0959C170.418 22.3565 171.052 22.4869 171.914 22.4869C172.582 22.4869 173.274 22.4189 173.988 22.2829L174.175 24.0509C173.166 24.2435 172.231 24.3399 171.37 24.3399ZM172.288 19.1039C172.288 18.5599 172.163 18.1349 171.914 17.8289C171.664 17.5229 171.302 17.3699 170.826 17.3699C169.896 17.3699 169.403 17.9479 169.347 19.1039L172.288 19.1039ZM176.254 11.9469L178.685 11.9469L178.685 24.1019L176.254 24.1019L176.254 11.9469ZM181.976 14.3779C181.545 14.3779 181.222 14.2872 181.007 14.1059C180.803 13.9245 180.701 13.6299 180.701 13.2219L180.701 13.0009C180.701 12.5929 180.803 12.2982 181.007 12.1169C181.222 11.9242 181.545 11.8279 181.976 11.8279L182.095 11.8279C182.525 11.8279 182.843 11.9242 183.047 12.1169C183.262 12.2982 183.37 12.5929 183.37 13.0009L183.37 13.2219C183.37 13.6299 183.262 13.9245 183.047 14.1059C182.843 14.2872 182.525 14.3779 182.095 14.3779L181.976 14.3779ZM180.82 15.7719L183.251 15.7719L183.251 24.1019L180.82 24.1019L180.82 15.7719ZM184.62 22.7249L188.496 17.3189L184.722 17.3189L184.722 15.7719L191.352 15.7719L191.352 17.1829L187.493 22.5549L191.556 22.5549L191.556 24.1019L184.62 24.1019L184.62 22.7249ZM199.087 24.3399C198.157 24.3399 197.438 24.0905 196.928 23.5919C196.418 23.0932 196.163 22.4302 196.163 21.6029C196.163 21.2289 196.225 20.8775 196.35 20.5489C196.474 20.2202 196.656 19.9425 196.894 19.7159C197.188 19.4439 197.574 19.2512 198.05 19.1379C198.537 19.0132 199.172 18.9509 199.954 18.9509L201.28 18.9509L201.28 18.6789C201.28 18.2369 201.178 17.9252 200.974 17.7439C200.713 17.5172 200.243 17.4039 199.563 17.4039C199.189 17.4039 198.781 17.4265 198.339 17.4719C197.897 17.5172 197.528 17.5682 197.234 17.6249L197.115 15.8399C198.135 15.6359 199.121 15.5339 200.073 15.5339C200.741 15.5339 201.336 15.6132 201.858 15.7719C202.39 15.9192 202.793 16.1572 203.065 16.4859C203.495 16.9845 203.711 17.7212 203.711 18.6959L203.711 24.1019L201.79 24.1019L201.586 23.5919C201.223 23.8299 200.821 24.0112 200.379 24.1359C199.948 24.2719 199.517 24.3399 199.087 24.3399ZM199.784 22.4869C199.999 22.4869 200.248 22.4642 200.532 22.4189C200.815 22.3622 201.064 22.2999 201.28 22.2319L201.28 20.5149L199.988 20.5149C199.682 20.5149 199.438 20.5375 199.257 20.5829C199.075 20.6282 198.934 20.7019 198.832 20.8039C198.673 20.9625 198.594 21.1949 198.594 21.5009C198.594 21.8182 198.684 22.0619 198.866 22.2319C199.058 22.4019 199.364 22.4869 199.784 22.4869Z" fill="white"/>
<path d="M54.6236 105.733C54.0603 105.733 53.5186 105.676 52.9986 105.564L52.8686 104.186C53.3973 104.281 53.8826 104.329 54.3246 104.329C54.5586 104.329 54.771 104.303 54.9616 104.251C55.161 104.199 55.3083 104.125 55.4036 104.03C55.6116 103.83 55.7156 103.488 55.7156 103.003V102.223C55.4123 102.396 55.083 102.526 54.7276 102.613C54.381 102.699 54.043 102.743 53.7136 102.743C53.419 102.743 53.1373 102.704 52.8686 102.626C52.6086 102.539 52.3963 102.413 52.2316 102.249C52.041 102.058 51.898 101.833 51.8026 101.573C51.716 101.313 51.6726 101.001 51.6726 100.637V96.2555H53.5316V100.377C53.5316 100.671 53.5966 100.884 53.7266 101.014C53.8133 101.092 53.9173 101.148 54.0386 101.183C54.16 101.209 54.3203 101.222 54.5196 101.222C54.693 101.222 54.8966 101.2 55.1306 101.157C55.3646 101.105 55.5596 101.048 55.7156 100.988V96.2555H57.5746V102.353C57.5746 103.141 57.488 103.778 57.3146 104.264C57.1413 104.749 56.838 105.113 56.4046 105.356C55.9713 105.607 55.3776 105.733 54.6236 105.733ZM62.0583 96.2555H63.6703L63.7353 96.7755C63.9693 96.5589 64.2683 96.3899 64.6323 96.2685C65.005 96.1472 65.356 96.0865 65.6853 96.0865C65.798 96.0865 65.9063 96.0952 66.0103 96.1125V97.7375C65.733 97.7029 65.46 97.6855 65.1913 97.6855C64.8013 97.6855 64.3767 97.7375 63.9173 97.8415V102.626H62.0583V96.2555ZM70.118 102.808C69.5287 102.808 69.0087 102.738 68.558 102.6C68.116 102.452 67.7563 102.249 67.479 101.989C66.907 101.443 66.621 100.598 66.621 99.4535C66.621 98.3442 66.8897 97.5035 67.427 96.9315C67.9643 96.3595 68.727 96.0735 69.715 96.0735C70.6857 96.0735 71.4137 96.3379 71.899 96.8665C72.393 97.3865 72.64 98.1925 72.64 99.2845V99.8695C72.64 99.9649 72.588 100.013 72.484 100.013H68.571C68.597 100.533 68.766 100.892 69.078 101.092C69.39 101.291 69.8753 101.391 70.534 101.391C71.0453 101.391 71.574 101.339 72.12 101.235L72.263 102.587C71.4917 102.734 70.7767 102.808 70.118 102.808ZM70.82 98.8035C70.82 98.3875 70.7247 98.0625 70.534 97.8285C70.3433 97.5945 70.066 97.4775 69.702 97.4775C68.9913 97.4775 68.6143 97.9195 68.571 98.8035H70.82ZM76.5182 105.733C75.4262 105.733 74.6288 105.594 74.1262 105.317C73.6322 105.048 73.3852 104.628 73.3852 104.056C73.3852 103.804 73.4502 103.579 73.5802 103.38C73.7188 103.18 73.9052 103.02 74.1392 102.899C73.9225 102.717 73.8142 102.439 73.8142 102.067C73.8142 101.798 73.8878 101.529 74.0352 101.261C74.1825 100.983 74.3905 100.736 74.6592 100.52C74.0092 100.095 73.6842 99.4275 73.6842 98.5175C73.6842 97.6942 73.9312 97.0832 74.4252 96.6845C74.9278 96.2772 75.6385 96.0735 76.5572 96.0735C76.7652 96.0735 76.9732 96.0865 77.1812 96.1125L77.8052 94.5265C78.0565 94.5872 78.3122 94.6782 78.5722 94.7995C78.8408 94.9122 79.0662 95.0379 79.2482 95.1765L78.3252 96.4635C79.0532 96.8709 79.4172 97.5555 79.4172 98.5175C79.4172 99.3495 79.1702 99.9692 78.6762 100.377C78.1822 100.775 77.4758 100.975 76.5572 100.975C76.2365 100.975 75.9592 100.957 75.7252 100.923C75.6732 101.018 75.6298 101.113 75.5952 101.209C75.5692 101.304 75.5562 101.378 75.5562 101.43C75.5562 101.542 75.6168 101.599 75.7382 101.599H76.9862C77.5928 101.599 78.0868 101.655 78.4682 101.768C78.8582 101.872 79.1658 102.041 79.3912 102.275C79.7032 102.604 79.8592 103.055 79.8592 103.627C79.8592 105.031 78.7802 105.733 76.6222 105.733H76.5182ZM76.5572 99.6485C76.9732 99.6485 77.2722 99.5575 77.4542 99.3755C77.6448 99.1849 77.7402 98.8989 77.7402 98.5175C77.7402 98.1449 77.6448 97.8675 77.4542 97.6855C77.2722 97.4949 76.9732 97.3995 76.5572 97.3995C76.1412 97.3995 75.8378 97.4949 75.6472 97.6855C75.4565 97.8675 75.3612 98.1449 75.3612 98.5175C75.3612 98.8989 75.4565 99.1849 75.6472 99.3755C75.8378 99.5575 76.1412 99.6485 76.5572 99.6485ZM76.7652 104.329C77.2332 104.329 77.5885 104.272 77.8312 104.16C78.0738 104.056 78.1952 103.904 78.1952 103.705C78.1952 103.497 78.1128 103.349 77.9482 103.263C77.7922 103.185 77.5018 103.146 77.0772 103.146H75.2182C75.0968 103.276 75.0362 103.436 75.0362 103.627C75.0362 103.869 75.1488 104.047 75.3742 104.16C75.5995 104.272 75.9982 104.329 76.5702 104.329H76.7652ZM82.6934 102.808C81.9827 102.808 81.4324 102.617 81.0424 102.236C80.6524 101.854 80.4574 101.347 80.4574 100.715C80.4574 100.429 80.505 100.16 80.6004 99.9085C80.6957 99.6572 80.8344 99.4449 81.0164 99.2715C81.2417 99.0635 81.5364 98.9162 81.9004 98.8295C82.273 98.7342 82.7584 98.6865 83.3564 98.6865H84.3704V98.4785C84.3704 98.1405 84.2924 97.9022 84.1364 97.7635C83.937 97.5902 83.5774 97.5035 83.0574 97.5035C82.7714 97.5035 82.4594 97.5209 82.1214 97.5555C81.7834 97.5902 81.5017 97.6292 81.2764 97.6725L81.1854 96.3075C81.9654 96.1515 82.7194 96.0735 83.4474 96.0735C83.9587 96.0735 84.4137 96.1342 84.8124 96.2555C85.2197 96.3682 85.5274 96.5502 85.7354 96.8015C86.0647 97.1829 86.2294 97.7462 86.2294 98.4915V102.626H84.7604L84.6044 102.236C84.327 102.418 84.0194 102.556 83.6814 102.652C83.352 102.756 83.0227 102.808 82.6934 102.808ZM83.2264 101.391C83.391 101.391 83.5817 101.373 83.7984 101.339C84.015 101.295 84.2057 101.248 84.3704 101.196V99.8825H83.3824C83.1484 99.8825 82.962 99.8999 82.8234 99.9345C82.6847 99.9692 82.5764 100.026 82.4984 100.104C82.377 100.225 82.3164 100.403 82.3164 100.637C82.3164 100.879 82.3857 101.066 82.5244 101.196C82.6717 101.326 82.9057 101.391 83.2264 101.391ZM81.9784 94.5525L84.3574 92.3425L85.2674 93.5775L82.6284 95.3585L81.9784 94.5525ZM87.7926 93.3305H89.6516V102.626H87.7926V93.3305ZM93.0908 102.808C92.3802 102.808 91.8298 102.617 91.4398 102.236C91.0498 101.854 90.8548 101.347 90.8548 100.715C90.8548 100.429 90.9025 100.16 90.9978 99.9085C91.0932 99.6572 91.2318 99.4449 91.4138 99.2715C91.6392 99.0635 91.9338 98.9162 92.2978 98.8295C92.6705 98.7342 93.1558 98.6865 93.7538 98.6865H94.7678V98.4785C94.7678 98.1405 94.6898 97.9022 94.5338 97.7635C94.3345 97.5902 93.9748 97.5035 93.4548 97.5035C93.1688 97.5035 92.8568 97.5209 92.5188 97.5555C92.1808 97.5902 91.8992 97.6292 91.6738 97.6725L91.5828 96.3075C92.3628 96.1515 93.1168 96.0735 93.8448 96.0735C94.3562 96.0735 94.8112 96.1342 95.2098 96.2555C95.6172 96.3682 95.9248 96.5502 96.1328 96.8015C96.4622 97.1829 96.6268 97.7462 96.6268 98.4915V102.626H95.1578L95.0018 102.236C94.7245 102.418 94.4168 102.556 94.0788 102.652C93.7495 102.756 93.4202 102.808 93.0908 102.808ZM93.6238 101.391C93.7885 101.391 93.9792 101.373 94.1958 101.339C94.4125 101.295 94.6032 101.248 94.7678 101.196V99.8825H93.7798C93.5458 99.8825 93.3595 99.8999 93.2208 99.9345C93.0822 99.9692 92.9738 100.026 92.8958 100.104C92.7745 100.225 92.7138 100.403 92.7138 100.637C92.7138 100.879 92.7832 101.066 92.9218 101.196C93.0692 101.326 93.3032 101.391 93.6238 101.391ZM98.1901 93.3305H100.049V102.626H98.1901V93.3305ZM104.814 102.808C104.225 102.808 103.705 102.738 103.254 102.6C102.812 102.452 102.453 102.249 102.175 101.989C101.603 101.443 101.317 100.598 101.317 99.4535C101.317 98.3442 101.586 97.5035 102.123 96.9315C102.661 96.3595 103.423 96.0735 104.411 96.0735C105.382 96.0735 106.11 96.3379 106.595 96.8665C107.089 97.3865 107.336 98.1925 107.336 99.2845V99.8695C107.336 99.9649 107.284 100.013 107.18 100.013H103.267C103.293 100.533 103.462 100.892 103.774 101.092C104.086 101.291 104.572 101.391 105.23 101.391C105.742 101.391 106.27 101.339 106.816 101.235L106.959 102.587C106.188 102.734 105.473 102.808 104.814 102.808ZM105.516 98.8035C105.516 98.3875 105.421 98.0625 105.23 97.8285C105.04 97.5945 104.762 97.4775 104.398 97.4775C103.688 97.4775 103.311 97.9195 103.267 98.8035H105.516ZM114.602 102.808C114.013 102.808 113.493 102.738 113.042 102.6C112.6 102.452 112.241 102.249 111.963 101.989C111.391 101.443 111.105 100.598 111.105 99.4535C111.105 98.3442 111.374 97.5035 111.911 96.9315C112.449 96.3595 113.211 96.0735 114.199 96.0735C115.17 96.0735 115.898 96.3379 116.383 96.8665C116.877 97.3865 117.124 98.1925 117.124 99.2845V99.8695C117.124 99.9649 117.072 100.013 116.968 100.013H113.055C113.081 100.533 113.25 100.892 113.562 101.092C113.874 101.291 114.36 101.391 115.018 101.391C115.53 101.391 116.058 101.339 116.604 101.235L116.747 102.587C115.976 102.734 115.261 102.808 114.602 102.808ZM115.304 98.8035C115.304 98.3875 115.209 98.0625 115.018 97.8285C114.828 97.5945 114.55 97.4775 114.186 97.4775C113.476 97.4775 113.099 97.9195 113.055 98.8035H115.304ZM118.338 93.3305H120.197V102.626H118.338V93.3305ZM127.882 102.808C127.292 102.808 126.772 102.738 126.322 102.6C125.88 102.452 125.52 102.249 125.243 101.989C124.671 101.443 124.385 100.598 124.385 99.4535C124.385 98.3442 124.653 97.5035 125.191 96.9315C125.728 96.3595 126.491 96.0735 127.479 96.0735C128.449 96.0735 129.177 96.3379 129.663 96.8665C130.157 97.3865 130.404 98.1925 130.404 99.2845V99.8695C130.404 99.9649 130.352 100.013 130.248 100.013H126.335C126.361 100.533 126.53 100.892 126.842 101.092C127.154 101.291 127.639 101.391 128.298 101.391C128.809 101.391 129.338 101.339 129.884 101.235L130.027 102.587C129.255 102.734 128.54 102.808 127.882 102.808ZM128.584 98.8035C128.584 98.3875 128.488 98.0625 128.298 97.8285C128.107 97.5945 127.83 97.4775 127.466 97.4775C126.755 97.4775 126.378 97.9195 126.335 98.8035H128.584ZM135.452 102.379C135.227 102.509 134.954 102.613 134.633 102.691C134.321 102.769 134.013 102.808 133.71 102.808C132.939 102.808 132.336 102.548 131.903 102.028C131.47 101.508 131.253 100.654 131.253 99.4665C131.253 98.8945 131.322 98.3832 131.461 97.9325C131.6 97.4732 131.799 97.1005 132.059 96.8145C132.276 96.5805 132.536 96.3985 132.839 96.2685C133.151 96.1385 133.489 96.0735 133.853 96.0735C134.486 96.0735 135.097 96.2685 135.686 96.6585L135.777 96.2555H137.311V105.434L135.452 105.668V102.379ZM134.373 101.352C134.737 101.352 135.097 101.282 135.452 101.144V97.7375C135.305 97.6855 135.136 97.6422 134.945 97.6075C134.754 97.5729 134.594 97.5555 134.464 97.5555C133.996 97.5555 133.667 97.7115 133.476 98.0235C133.294 98.3269 133.203 98.8079 133.203 99.4665C133.203 99.9605 133.246 100.346 133.333 100.624C133.42 100.892 133.545 101.083 133.71 101.196C133.875 101.3 134.096 101.352 134.373 101.352ZM140.906 102.795C140.603 102.795 140.312 102.751 140.035 102.665C139.758 102.587 139.537 102.465 139.372 102.301C139.008 101.945 138.826 101.386 138.826 100.624V96.2555H140.685V100.364C140.685 100.684 140.75 100.91 140.88 101.04C141.027 101.178 141.296 101.248 141.686 101.248C141.851 101.248 142.046 101.23 142.271 101.196C142.496 101.161 142.687 101.118 142.843 101.066V96.2555H144.702V102.626H143.09L143.038 102.197C142.709 102.396 142.358 102.543 141.985 102.639C141.612 102.743 141.253 102.795 140.906 102.795ZM147.189 95.1895C146.86 95.1895 146.613 95.1202 146.448 94.9815C146.292 94.8429 146.214 94.6175 146.214 94.3055V94.1365C146.214 93.8245 146.292 93.5992 146.448 93.4605C146.613 93.3132 146.86 93.2395 147.189 93.2395H147.28C147.61 93.2395 147.852 93.3132 148.008 93.4605C148.173 93.5992 148.255 93.8245 148.255 94.1365V94.3055C148.255 94.6175 148.173 94.8429 148.008 94.9815C147.852 95.1202 147.61 95.1895 147.28 95.1895H147.189ZM146.305 96.2555H148.164V102.626H146.305V96.2555ZM149.758 96.2555H151.37L151.422 96.7235C152.072 96.2902 152.739 96.0735 153.424 96.0735C154.056 96.0735 154.563 96.2555 154.945 96.6195C155.231 96.9055 155.443 97.2869 155.582 97.7635C155.729 98.2402 155.803 98.7862 155.803 99.4015C155.803 100.598 155.582 101.464 155.14 102.002C154.698 102.539 154.091 102.808 153.32 102.808C153.034 102.808 152.735 102.764 152.423 102.678C152.119 102.6 151.851 102.487 151.617 102.34V105.551H149.758V96.2555ZM152.774 101.339C153.042 101.339 153.255 101.282 153.411 101.17C153.567 101.048 153.679 100.849 153.749 100.572C153.818 100.286 153.853 99.8869 153.853 99.3755C153.853 98.9162 153.818 98.5565 153.749 98.2965C153.679 98.0365 153.562 97.8545 153.398 97.7505C153.233 97.6379 153.008 97.5815 152.722 97.5815C152.574 97.5815 152.392 97.5989 152.176 97.6335C151.959 97.6682 151.773 97.7072 151.617 97.7505V101.157C151.894 101.278 152.28 101.339 152.774 101.339ZM159.944 102.808C158.869 102.808 158.059 102.513 157.513 101.924C156.976 101.326 156.707 100.498 156.707 99.4405C156.707 98.3832 156.976 97.5599 157.513 96.9705C158.059 96.3725 158.869 96.0735 159.944 96.0735C161.019 96.0735 161.825 96.3725 162.362 96.9705C162.908 97.5599 163.181 98.3832 163.181 99.4405C163.181 100.498 162.908 101.326 162.362 101.924C161.825 102.513 161.019 102.808 159.944 102.808ZM159.944 101.391C160.403 101.391 160.733 101.235 160.932 100.923C161.14 100.602 161.244 100.108 161.244 99.4405C161.244 98.7732 161.14 98.2835 160.932 97.9715C160.733 97.6509 160.403 97.4905 159.944 97.4905C159.485 97.4905 159.151 97.6509 158.943 97.9715C158.744 98.2835 158.644 98.7732 158.644 99.4405C158.644 100.108 158.744 100.602 158.943 100.923C159.151 101.235 159.485 101.391 159.944 101.391ZM171.215 102.379C170.989 102.509 170.716 102.613 170.396 102.691C170.084 102.769 169.776 102.808 169.473 102.808C168.701 102.808 168.099 102.548 167.666 102.028C167.232 101.508 167.016 100.654 167.016 99.4665C167.016 98.8945 167.085 98.3832 167.224 97.9325C167.362 97.4732 167.562 97.1005 167.822 96.8145C168.038 96.5805 168.298 96.3985 168.602 96.2685C168.914 96.1385 169.252 96.0735 169.616 96.0735C170.248 96.0735 170.859 96.2685 171.449 96.6585L171.54 96.2555H173.074V105.434L171.215 105.668V102.379ZM170.136 101.352C170.5 101.352 170.859 101.282 171.215 101.144V97.7375C171.067 97.6855 170.898 97.6422 170.708 97.6075C170.517 97.5729 170.357 97.5555 170.227 97.5555C169.759 97.5555 169.429 97.7115 169.239 98.0235C169.057 98.3269 168.966 98.8079 168.966 99.4665C168.966 99.9605 169.009 100.346 169.096 100.624C169.182 100.892 169.308 101.083 169.473 101.196C169.637 101.3 169.858 101.352 170.136 101.352ZM176.669 102.795C176.365 102.795 176.075 102.751 175.798 102.665C175.52 102.587 175.299 102.465 175.135 102.301C174.771 101.945 174.589 101.386 174.589 100.624V96.2555H176.448V100.364C176.448 100.684 176.513 100.91 176.643 101.04C176.79 101.178 177.059 101.248 177.449 101.248C177.613 101.248 177.808 101.23 178.034 101.196C178.259 101.161 178.45 101.118 178.606 101.066V96.2555H180.465V102.626H178.853L178.801 102.197C178.471 102.396 178.12 102.543 177.748 102.639C177.375 102.743 177.015 102.795 176.669 102.795ZM185.201 102.808C184.612 102.808 184.092 102.738 183.641 102.6C183.199 102.452 182.839 102.249 182.562 101.989C181.99 101.443 181.704 100.598 181.704 99.4535C181.704 98.3442 181.973 97.5035 182.51 96.9315C183.047 96.3595 183.81 96.0735 184.798 96.0735C185.769 96.0735 186.497 96.3379 186.982 96.8665C187.476 97.3865 187.723 98.1925 187.723 99.2845V99.8695C187.723 99.9649 187.671 100.013 187.567 100.013H183.654C183.68 100.533 183.849 100.892 184.161 101.092C184.473 101.291 184.958 101.391 185.617 101.391C186.128 101.391 186.657 101.339 187.203 101.235L187.346 102.587C186.575 102.734 185.86 102.808 185.201 102.808ZM185.903 98.8035C185.903 98.3875 185.808 98.0625 185.617 97.8285C185.426 97.5945 185.149 97.4775 184.785 97.4775C184.074 97.4775 183.697 97.9195 183.654 98.8035H185.903ZM194.313 102.808C193.542 102.808 193 102.639 192.688 102.301C192.376 101.963 192.22 101.43 192.22 100.702V97.4645H191.141V96.4505L192.22 96.2555V94.8385C192.818 94.6565 193.438 94.5655 194.079 94.5655V96.2555H195.73V97.4645H194.079V100.442C194.079 100.814 194.135 101.07 194.248 101.209C194.369 101.347 194.612 101.417 194.976 101.417C195.132 101.417 195.431 101.391 195.873 101.339L195.938 102.652C195.461 102.756 194.92 102.808 194.313 102.808ZM198.881 102.808C198.17 102.808 197.62 102.617 197.23 102.236C196.84 101.854 196.645 101.347 196.645 100.715C196.645 100.429 196.693 100.16 196.788 99.9085C196.883 99.6572 197.022 99.4449 197.204 99.2715C197.429 99.0635 197.724 98.9162 198.088 98.8295C198.461 98.7342 198.946 98.6865 199.544 98.6865H200.558V98.4785C200.558 98.1405 200.48 97.9022 200.324 97.7635C200.125 97.5902 199.765 97.5035 199.245 97.5035C198.959 97.5035 198.647 97.5209 198.309 97.5555C197.971 97.5902 197.689 97.6292 197.464 97.6725L197.373 96.3075C198.153 96.1515 198.907 96.0735 199.635 96.0735C200.146 96.0735 200.601 96.1342 201 96.2555C201.407 96.3682 201.715 96.5502 201.923 96.8015C202.252 97.1829 202.417 97.7462 202.417 98.4915V102.626H200.948L200.792 102.236C200.515 102.418 200.207 102.556 199.869 102.652C199.54 102.756 199.21 102.808 198.881 102.808ZM199.414 101.391C199.579 101.391 199.769 101.373 199.986 101.339C200.203 101.295 200.393 101.248 200.558 101.196V99.8825H199.57C199.336 99.8825 199.15 99.8999 199.011 99.9345C198.872 99.9692 198.764 100.026 198.686 100.104C198.565 100.225 198.504 100.403 198.504 100.637C198.504 100.879 198.573 101.066 198.712 101.196C198.859 101.326 199.093 101.391 199.414 101.391ZM203.941 96.2555H205.553L205.592 96.7105C205.921 96.4939 206.277 96.3335 206.658 96.2295C207.048 96.1255 207.425 96.0735 207.789 96.0735C208.092 96.0735 208.383 96.1169 208.66 96.2035C208.937 96.2815 209.158 96.4029 209.323 96.5675C209.687 96.9229 209.869 97.4819 209.869 98.2445V102.626H208.01V98.4655C208.01 98.1709 207.945 97.9585 207.815 97.8285C207.668 97.6899 207.399 97.6205 207.009 97.6205C206.827 97.6205 206.615 97.6422 206.372 97.6855C206.138 97.7202 205.947 97.7679 205.8 97.8285V102.626H203.941V96.2555ZM213.889 102.808C213.118 102.808 212.576 102.639 212.264 102.301C211.952 101.963 211.796 101.43 211.796 100.702V97.4645H210.717V96.4505L211.796 96.2555V94.8385C212.394 94.6565 213.014 94.5655 213.655 94.5655V96.2555H215.306V97.4645H213.655V100.442C213.655 100.814 213.712 101.07 213.824 101.209C213.946 101.347 214.188 101.417 214.552 101.417C214.708 101.417 215.007 101.391 215.449 101.339L215.514 102.652C215.038 102.756 214.496 102.808 213.889 102.808ZM219.523 102.808C218.448 102.808 217.638 102.513 217.092 101.924C216.555 101.326 216.286 100.498 216.286 99.4405C216.286 98.3832 216.555 97.5599 217.092 96.9705C217.638 96.3725 218.448 96.0735 219.523 96.0735C220.598 96.0735 221.404 96.3725 221.941 96.9705C222.487 97.5599 222.76 98.3832 222.76 99.4405C222.76 100.498 222.487 101.326 221.941 101.924C221.404 102.513 220.598 102.808 219.523 102.808ZM219.523 101.391C219.982 101.391 220.312 101.235 220.511 100.923C220.719 100.602 220.823 100.108 220.823 99.4405C220.823 98.7732 220.719 98.2835 220.511 97.9715C220.312 97.6509 219.982 97.4905 219.523 97.4905C219.064 97.4905 218.73 97.6509 218.522 97.9715C218.323 98.2835 218.223 98.7732 218.223 99.4405C218.223 100.108 218.323 100.602 218.522 100.923C218.73 101.235 219.064 101.391 219.523 101.391ZM230.794 102.379C230.568 102.509 230.295 102.613 229.975 102.691C229.663 102.769 229.355 102.808 229.052 102.808C228.28 102.808 227.678 102.548 227.245 102.028C226.811 101.508 226.595 100.654 226.595 99.4665C226.595 98.8945 226.664 98.3832 226.803 97.9325C226.941 97.4732 227.141 97.1005 227.401 96.8145C227.617 96.5805 227.877 96.3985 228.181 96.2685C228.493 96.1385 228.831 96.0735 229.195 96.0735C229.827 96.0735 230.438 96.2685 231.028 96.6585L231.119 96.2555H232.653V105.434L230.794 105.668V102.379ZM229.715 101.352C230.079 101.352 230.438 101.282 230.794 101.144V97.7375C230.646 97.6855 230.477 97.6422 230.287 97.6075C230.096 97.5729 229.936 97.5555 229.806 97.5555C229.338 97.5555 229.008 97.7115 228.818 98.0235C228.636 98.3269 228.545 98.8079 228.545 99.4665C228.545 99.9605 228.588 100.346 228.675 100.624C228.761 100.892 228.887 101.083 229.052 101.196C229.216 101.3 229.437 101.352 229.715 101.352ZM236.248 102.795C235.944 102.795 235.654 102.751 235.377 102.665C235.099 102.587 234.878 102.465 234.714 102.301C234.35 101.945 234.168 101.386 234.168 100.624V96.2555H236.027V100.364C236.027 100.684 236.092 100.91 236.222 101.04C236.369 101.178 236.638 101.248 237.028 101.248C237.192 101.248 237.387 101.23 237.613 101.196C237.838 101.161 238.029 101.118 238.185 101.066V96.2555H240.044V102.626H238.432L238.38 102.197C238.05 102.396 237.699 102.543 237.327 102.639C236.954 102.743 236.594 102.795 236.248 102.795ZM242.531 95.1895C242.202 95.1895 241.955 95.1202 241.79 94.9815C241.634 94.8429 241.556 94.6175 241.556 94.3055V94.1365C241.556 93.8245 241.634 93.5992 241.79 93.4605C241.955 93.3132 242.202 93.2395 242.531 93.2395H242.622C242.951 93.2395 243.194 93.3132 243.35 93.4605C243.515 93.5992 243.597 93.8245 243.597 94.1365V94.3055C243.597 94.6175 243.515 94.8429 243.35 94.9815C243.194 95.1202 242.951 95.1895 242.622 95.1895H242.531ZM241.647 96.2555H243.506V102.626H241.647V96.2555ZM248.271 102.808C247.682 102.808 247.162 102.738 246.711 102.6C246.269 102.452 245.91 102.249 245.632 101.989C245.06 101.443 244.774 100.598 244.774 99.4535C244.774 98.3442 245.043 97.5035 245.58 96.9315C246.118 96.3595 246.88 96.0735 247.868 96.0735C248.839 96.0735 249.567 96.3379 250.052 96.8665C250.546 97.3865 250.793 98.1925 250.793 99.2845V99.8695C250.793 99.9649 250.741 100.013 250.637 100.013H246.724C246.75 100.533 246.919 100.892 247.231 101.092C247.543 101.291 248.029 101.391 248.687 101.391C249.199 101.391 249.727 101.339 250.273 101.235L250.416 102.587C249.645 102.734 248.93 102.808 248.271 102.808ZM248.973 98.8035C248.973 98.3875 248.878 98.0625 248.687 97.8285C248.497 97.5945 248.219 97.4775 247.855 97.4775C247.145 97.4775 246.768 97.9195 246.724 98.8035H248.973ZM251.968 96.2555H253.58L253.645 96.7755C253.879 96.5589 254.178 96.3899 254.542 96.2685C254.914 96.1472 255.265 96.0865 255.595 96.0865C255.707 96.0865 255.816 96.0952 255.92 96.1125V97.7375C255.642 97.7029 255.369 97.6855 255.101 97.6855C254.711 97.6855 254.286 97.7375 253.827 97.8415V102.626H251.968V96.2555ZM260.027 102.808C259.438 102.808 258.918 102.738 258.467 102.6C258.025 102.452 257.666 102.249 257.388 101.989C256.816 101.443 256.53 100.598 256.53 99.4535C256.53 98.3442 256.799 97.5035 257.336 96.9315C257.874 96.3595 258.636 96.0735 259.624 96.0735C260.595 96.0735 261.323 96.3379 261.808 96.8665C262.302 97.3865 262.549 98.1925 262.549 99.2845V99.8695C262.549 99.9649 262.497 100.013 262.393 100.013H258.48C258.506 100.533 258.675 100.892 258.987 101.092C259.299 101.291 259.785 101.391 260.443 101.391C260.955 101.391 261.483 101.339 262.029 101.235L262.172 102.587C261.401 102.734 260.686 102.808 260.027 102.808ZM260.729 98.8035C260.729 98.3875 260.634 98.0625 260.443 97.8285C260.253 97.5945 259.975 97.4775 259.611 97.4775C258.901 97.4775 258.524 97.9195 258.48 98.8035H260.729Z" fill="white"/>
<defs>
<filter id="filter0_d_75_2011" x="148.754" y="5.98992" width="95.5878" height="76.8999" filterUnits="userSpaceOnUse" color-interpolation-filters="sRGB">
<feFlood flood-opacity="0" result="BackgroundImageFix"/>
<feColorMatrix in="SourceAlpha" type="matrix" values="0 0 0 0 0 0 0 0 0 0 0 0 0 0 0 0 0 0 127 0" result="hardAlpha"/>
<feOffset dy="1.17261"/>
<feGaussianBlur stdDeviation="1.90549"/>
<feComposite in2="hardAlpha" operator="out"/>
<feColorMatrix type="matrix" values="0 0 0 0 0 0 0 0 0 0.103076 0 0 0 0 0.183333 0 0 0 0.4 0"/>
<feBlend mode="normal" in2="BackgroundImageFix" result="effect1_dropShadow_75_2011"/>
<feBlend mode="normal" in="SourceGraphic" in2="effect1_dropShadow_75_2011" result="shape"/>
</filter>
<filter id="filter1_d_75_2011" x="113.481" y="29.886" width="44.2382" height="57.1659" filterUnits="userSpaceOnUse" color-interpolation-filters="sRGB">
<feFlood flood-opacity="0" result="BackgroundImageFix"/>
<feColorMatrix in="SourceAlpha" type="matrix" values="0 0 0 0 0 0 0 0 0 0 0 0 0 0 0 0 0 0 127 0" result="hardAlpha"/>
<feOffset dy="1.17261"/>
<feGaussianBlur stdDeviation="1.90549"/>
<feComposite in2="hardAlpha" operator="out"/>
<feColorMatrix type="matrix" values="0 0 0 0 0 0 0 0 0 0.103076 0 0 0 0 0.183333 0 0 0 0.4 0"/>
<feBlend mode="normal" in2="BackgroundImageFix" result="effect1_dropShadow_75_2011"/>
<feBlend mode="normal" in="SourceGraphic" in2="effect1_dropShadow_75_2011" result="shape"/>
</filter>
<filter id="filter2_d_75_2011" x="60.2232" y="13.3077" width="66.2201" height="82.4026" filterUnits="userSpaceOnUse" color-interpolation-filters="sRGB">
<feFlood flood-opacity="0" result="BackgroundImageFix"/>
<feColorMatrix in="SourceAlpha" type="matrix" values="0 0 0 0 0 0 0 0 0 0 0 0 0 0 0 0 0 0 127 0" result="hardAlpha"/>
<feOffset dy="1.17261"/>
<feGaussianBlur stdDeviation="1.90549"/>
<feComposite in2="hardAlpha" operator="out"/>
<feColorMatrix type="matrix" values="0 0 0 0 0 0 0 0 0 0.103076 0 0 0 0 0.183333 0 0 0 0.4 0"/>
<feBlend mode="normal" in2="BackgroundImageFix" result="effect1_dropShadow_75_2011"/>
<feBlend mode="normal" in="SourceGraphic" in2="effect1_dropShadow_75_2011" result="shape"/>
</filter>
</defs>
</svg>
