<svg width="325" height="167" viewBox="0 0 325 167" fill="none" xmlns="http://www.w3.org/2000/svg">
<path d="M286.841 95.5311L46.0717 119.466C23.0282 121.755 2.49405 104.911 0.207966 81.8377C-2.07811 58.7646 14.7447 38.2041 37.7882 35.9151L278.553 11.976C301.597 9.68695 322.131 26.5313 324.417 49.6044C326.707 72.6775 309.88 93.238 286.841 95.5311Z" fill="white"/>
<path opacity="0.3" d="M286.841 95.5311L46.0717 119.466C23.0282 121.755 2.49405 104.911 0.207966 81.8377C-2.07811 58.7646 14.7447 38.2041 37.7882 35.9151L278.553 11.976C301.597 9.68695 322.131 26.5313 324.417 49.6044C326.707 72.6775 309.88 93.238 286.841 95.5311Z" fill="url(#paint0_linear_3_885)"/>
<path d="M54.9292 94.119C56.1725 94.0032 57.7509 93.3416 59.7281 92.1284C61.0974 91.2934 62.9189 90.4806 65.1579 89.661C69.6966 87.984 73.3673 86.9989 76.1727 86.7376C78.0885 86.5913 79.9006 86.7119 81.6059 87.0675C82.5861 87.2335 83.2356 87.3016 83.5225 87.2749C84.1282 87.2185 84.3847 86.5193 84.2599 85.1803L84.1219 84.3892C83.7413 82.7203 78.951 82.0411 69.684 82.3255C69.0723 82.3182 68.5215 82.2731 67.9706 82.2279C67.1528 82.079 66.6663 80.9988 66.4851 79.0541C66.1082 71.2107 67.0684 61.1525 69.4008 48.9084C69.5445 48.3805 69.5838 47.7659 69.5155 47.0326L69.3426 46.2126C69.1171 45.1725 68.426 44.658 67.2375 44.6723L65.4144 44.7778C63.119 44.9916 61.4906 49.2594 60.5264 57.5493C59.9585 62.8439 59.8628 68.0301 60.2015 73.0472C60.5084 78.0673 60.3628 81.6825 59.701 83.8987C59.2808 85.2563 58.564 86.1913 57.5565 86.7675C56.5171 87.3467 55.2397 87.7873 53.7302 88.153C52.2208 88.5187 51.4564 88.9436 51.472 89.4567C51.4588 90.0046 51.4566 90.3264 51.4714 90.4858C51.5427 91.2509 51.875 92.0561 52.4334 92.8723C52.9658 93.7552 53.8074 94.1592 54.9292 94.119ZM87.0653 56.2669C88.4332 56.1073 89.2805 55.1922 89.6391 53.5188C90.3334 50.2706 90.6594 48.2465 90.5792 47.3857C90.4633 46.1423 89.3889 45.3099 87.3848 44.8534C86.8599 44.7416 86.4365 44.6845 86.1177 44.7142C85.0019 44.8182 84.3629 45.553 84.1688 46.9217C83.808 48.9169 83.7193 50.7259 83.8707 52.3519C83.9628 53.3402 84.0571 54.0067 84.1883 54.3803C84.4954 55.6059 85.294 56.2389 86.5552 56.3144L87.0653 56.2669ZM87.0564 90.0006C88.3517 89.7513 88.9885 89.3383 88.9669 88.7614C88.8689 87.7094 88.699 86.9213 88.4832 86.3304C88.2703 85.7714 88.1034 85.0152 88.0113 84.0269C87.8361 82.1459 87.977 76.4088 88.4398 66.8793L88.5153 65.6182C88.3379 64.059 87.1797 63.3629 85.0437 63.5619C83.2902 63.7253 82.3732 64.5825 82.3215 66.0987C82.2409 67.6497 82.1573 69.1689 82.01 70.694C81.5143 78.4901 81.3451 83.233 81.4966 84.8589C81.6006 85.9747 81.8401 86.8206 82.2473 87.3937C83.5502 89.2982 85.0161 90.1907 86.7058 90.0333L87.0564 90.0006ZM107.1 108.746C107.926 108.637 108.598 108.253 109.086 107.629C109.407 107.277 109.569 106.94 109.536 106.59C109.512 106.335 109.39 106.057 109.172 105.788C108.588 105.038 108.205 103.691 108.03 101.81C107.543 96.5817 108.592 86.0971 111.209 70.3535C111.653 67.8682 111.826 66.2764 111.761 65.575C111.587 64.4014 110.965 63.5911 109.897 63.176C109.059 62.804 108.273 62.6521 107.54 62.7204C106.43 62.8881 105.521 63.4873 104.752 64.5558L102.374 68.0252C99.9332 71.8542 98.5084 73.8199 98.0332 73.8963L97.9635 73.8385C97.8893 73.0415 99.3546 69.7857 102.322 64.0104C103.055 62.5594 103.615 61.6711 103.939 61.3515C104.263 61.0319 104.599 60.8398 104.982 60.8042C105.463 60.7915 105.912 60.7818 106.358 60.7402C107.471 60.6044 107.969 60.0757 107.877 59.0874C107.802 58.2904 107.386 57.6217 106.628 57.0813C105.528 56.3155 104.275 55.9821 102.904 56.1098C99.8436 56.3949 96.0868 61.6328 91.6686 71.8523C89.9557 75.9029 89.2007 79.189 89.4383 81.7394C89.5838 83.3016 90.2994 84.4247 91.5821 85.077C92.595 85.5936 93.613 85.8204 94.665 85.7223C95.7112 85.5606 96.8254 84.7493 97.941 83.2626C98.8573 82.0518 99.7416 80.8439 100.62 79.5722C102.001 77.482 102.862 76.3727 103.21 76.3082C103.341 76.3282 103.413 76.4179 103.431 76.6092C103.461 76.928 103.413 77.447 103.258 78.201C101.689 87.2547 101.22 95.3377 101.883 102.447C102.264 105.852 103.547 107.887 105.706 108.619C106.167 108.737 106.622 108.791 107.1 108.746ZM129.322 84.9378C130.626 84.7841 131.245 84.1798 131.141 83.064C130.817 79.589 131.17 75.44 132.229 70.582C132.906 67.1425 133.211 64.8952 133.107 63.7794C133.021 62.8549 132.634 62.1513 131.974 61.6339C131.286 61.1513 130.529 60.9646 129.669 61.0448C128.298 61.1725 127.337 61.9052 126.722 63.2487C124.487 68.2484 122.796 71.8467 121.682 74.0407C120.542 76.3014 119.751 77.4685 119.304 77.5101C119.017 77.5368 118.86 77.2299 118.798 76.5604C118.634 74.807 119.125 70.0663 120.245 62.4051L120.252 61.7934C120.172 60.9326 119.825 60.3217 119.181 59.9637C118.537 59.6057 117.817 59.4798 117.02 59.554C115.65 59.6817 114.81 60.3387 114.506 61.5569C113.199 67.2097 112.72 73.107 113.064 79.2169C113.299 81.7355 114.673 83.3761 117.22 84.1357C117.948 84.3573 118.598 84.4254 119.204 84.369C120.766 84.2234 122.068 83.3625 123.05 81.8239C123.55 80.9734 123.929 80.5523 124.184 80.5285C124.375 80.5107 124.57 80.8784 124.804 81.6606C125.038 82.4427 125.431 83.21 126.018 83.9914C126.605 84.7728 127.696 85.0892 129.322 84.9378ZM140.178 51.319C141.546 51.1594 142.393 50.2444 142.752 48.5709C143.446 45.3227 143.772 43.2986 143.692 42.4378C143.576 41.1945 142.502 40.362 140.498 39.9055C139.973 39.7937 139.549 39.7366 139.231 39.7663C138.115 39.8703 137.476 40.6051 137.282 41.9738C136.921 43.969 136.832 45.7781 136.984 47.404C137.076 48.3923 137.17 49.0588 137.301 49.4324C137.608 50.658 138.407 51.291 139.668 51.3665L140.178 51.319ZM140.169 85.0527C141.465 84.8034 142.101 84.3904 142.08 83.8135C141.982 82.7615 141.812 81.9734 141.596 81.3825C141.383 80.8235 141.216 80.0673 141.124 79.079C140.949 77.198 141.09 71.4609 141.553 61.9314L141.628 60.6703C141.451 59.1111 140.293 58.4151 138.157 58.614C136.403 58.7774 135.486 59.6346 135.435 61.1508C135.354 62.7018 135.27 64.221 135.123 65.7461C134.627 73.5422 134.458 78.2851 134.61 79.911C134.714 81.0268 134.953 81.8727 135.36 82.4458C136.663 84.3503 138.129 85.2428 139.819 85.0854L140.169 85.0527ZM153.737 88.13C155.682 87.9488 156.986 86.7661 157.622 84.6167C160.408 74.1312 162.167 68.5006 162.962 67.719C163.026 67.7131 163.157 68.0868 163.324 68.843C163.897 71.2014 164.566 73.5508 165.366 75.9203C166.396 79.04 167.796 81.2893 169.503 82.7059C170.444 83.4865 171.57 83.8319 172.877 83.7101C174.819 83.497 175.75 82.7992 175.635 81.5559C175.582 81.3357 175.256 80.948 174.69 80.3898C172.746 78.5128 171.402 76.1619 170.653 73.3053C169.855 70.2604 169.318 67.2555 169.045 64.3225C168.371 57.0857 169.229 48.0017 171.651 37.0677C171.858 36.1802 171.946 35.4002 171.884 34.7307C171.768 33.4874 170.925 32.7298 169.356 32.4579C168.895 32.34 168.44 32.286 167.962 32.3305C166.336 32.482 165.327 33.7336 164.964 36.0506C163.015 48.6127 160.629 58.9002 157.739 66.8871C156.074 71.4478 154.707 76.1093 153.7 80.8337C153.523 81.6864 153.373 82.1505 153.15 82.1713C152.831 82.201 152.574 81.1638 152.375 79.0278C152.143 76.5411 152.292 73.3115 152.852 69.3041C153.747 62.6927 155.909 58.6324 159.402 57.1172C160.172 56.7561 160.525 56.4016 160.489 56.0191C160.4 55.0626 159.883 54.3391 158.911 53.9151C157.744 53.4771 156.697 53.2852 155.709 53.3773C153.892 53.5466 152.448 54.6137 151.38 56.6104C147.078 64.6324 145.37 73.2168 146.222 82.3665C146.928 85.8058 149.002 87.7028 152.482 88.1183C152.546 88.1124 152.609 88.1064 152.644 88.1353C153.033 88.1635 153.386 88.1627 153.737 88.13ZM194.767 80.1595C196.155 79.8694 196.797 79.1665 196.693 78.0506C196.651 77.6043 196.357 77.2136 195.847 76.9075C195.069 76.4976 194.607 76.0261 194.455 75.4293C194.399 75.1772 194.338 74.8614 194.302 74.4788C193.856 69.6967 194.341 64.8923 195.722 60.0366C195.961 59.1461 196.049 58.3661 195.983 57.6647C195.891 56.6764 195.243 55.9329 194.042 55.4659C193.404 55.1717 192.78 55.0368 192.174 55.0933C191.059 55.1972 190.092 55.8661 189.274 57.0999C183.458 65.7775 180.326 70.1211 179.847 70.1657C179.656 70.1835 179.546 70.033 179.516 69.7142C179.498 69.5229 179.538 69.2619 179.636 68.9313C181.406 63.4282 183.647 58.1387 186.329 53.0974C186.842 52.0527 187.404 51.518 188.009 51.4616C188.328 51.4319 188.561 51.8604 188.673 52.7182C188.785 53.576 189.05 54.0016 189.496 53.96C189.688 53.9422 189.876 53.8925 190.058 53.779C191.257 53.185 191.87 52.5169 191.929 51.7717L191.929 50.389C191.849 49.5282 191.494 48.8217 190.86 48.2375C189.571 47.1679 188.306 46.7069 187.063 46.8227C185.182 46.9979 183.292 48.4602 181.457 51.2037C179.626 53.9791 177.488 58.6481 175.082 65.2715C173.371 70.0294 172.605 73.5416 172.816 75.8051C172.949 77.2397 173.494 78.2502 174.414 78.8076C175.34 79.4288 176.361 79.6874 177.477 79.5835C178.72 79.4677 179.702 78.9582 180.485 78.0491C181.509 76.9569 182.688 75.4642 184.087 73.5653C186.425 70.3568 187.723 68.7567 187.978 68.7329C188.074 68.724 188.115 68.8167 188.13 68.9761C188.147 69.1674 188.142 69.4573 188.082 69.8487C188.011 70.4664 188.019 71.2374 188.105 72.162C188.636 77.8686 190.782 80.5307 194.575 80.1773L194.767 80.1595ZM205.428 77.2369C206.12 77.0759 206.804 76.8193 207.505 76.4003C210.298 74.6287 212.624 71.2927 214.477 66.3287L215.296 64.4194C215.42 64.022 215.471 63.5349 215.417 62.961C215.309 62.4888 215.05 62.127 214.67 61.8409C214.29 61.5547 213.828 61.4369 213.286 61.4874C212.562 61.6513 210.561 63.9923 207.278 68.4464C205.185 71.1818 203.904 72.6195 203.461 72.693C202.983 72.7375 202.7 72.1207 202.579 70.8136C202.668 66.5927 203.276 62.4199 204.438 58.3242C204.742 56.7524 205.589 55.8373 207.012 55.5762L208.185 55.4025C209.666 55.0716 210.606 54.1158 211.002 52.5032C211.074 52.2392 211.073 51.8856 211.032 51.4393C210.906 50.7757 210.063 50.0181 208.473 49.1694C207.14 48.3288 205.916 47.9605 204.737 48.0704C201.007 48.4178 198.532 52.5716 197.277 60.5027C196.378 65.6994 196.026 69.173 196.19 70.9264C196.451 73.7319 197.916 75.6535 200.615 76.6563C202.112 77.1921 203.515 77.4151 204.822 77.2933L205.428 77.2369ZM222.94 43.609C224.308 43.4495 225.155 42.5344 225.514 40.861C226.208 37.6128 226.534 35.5887 226.454 34.7279C226.338 33.4845 225.264 32.6521 223.26 32.1956C222.735 32.0837 222.311 32.0267 221.993 32.0564C220.877 32.1604 220.238 32.8952 220.044 34.2639C219.683 36.2591 219.594 38.0681 219.746 39.694C219.838 40.6823 219.932 41.3489 220.063 41.7225C220.37 42.948 221.169 43.5811 222.43 43.6566L222.94 43.609ZM222.931 77.3428C224.227 77.0935 224.863 76.6804 224.842 76.1036C224.744 75.0516 224.574 74.2635 224.358 73.6726C224.145 73.1136 223.978 72.3574 223.886 71.3691C223.711 69.4881 223.852 63.751 224.315 54.2215L224.39 52.9603C224.213 51.4012 223.055 50.7051 220.919 50.9041C219.165 51.0675 218.248 51.9247 218.196 53.4409C218.116 54.9919 218.032 56.5111 217.885 58.0362C217.389 65.8323 217.22 70.5752 217.372 72.2011C217.475 73.3169 217.715 74.1628 218.122 74.7359C219.425 76.6404 220.891 77.5329 222.581 77.3755L222.931 77.3428ZM236.081 72.484C235.826 72.5078 235.594 72.4329 235.356 72.2943C234.093 71.5115 233.333 69.9102 233.107 67.4873C232.822 64.4267 233.092 60.7678 233.889 56.5453C234.519 53.303 235.074 50.9682 235.584 49.538C236.385 47.4374 237.759 46.3125 239.64 46.1373C240.82 46.0274 241.493 46.3506 241.695 47.1357C241.984 48.1699 242.242 49.2071 242.438 50.2822C243.071 57.0727 241.411 64.109 237.424 71.3621C237.034 72.0094 236.585 72.3727 236.081 72.484ZM237.14 76.598C239.945 76.3366 242.098 74.5925 243.627 71.3308C246.654 64.8104 247.835 57.8187 247.143 50.3905C246.917 47.9676 246.36 46.1223 245.441 44.8894C243.993 42.8055 241.277 41.9651 237.292 42.3363C234.359 42.6096 232.224 44.1913 230.885 47.0815C229.679 49.67 228.782 52.8085 228.161 56.5001C227.476 60.1977 227.263 63.4332 227.524 66.2387C227.605 67.0995 227.746 67.9224 227.921 68.7743C228.778 73.1322 231.14 75.7098 235.006 76.4752C235.76 76.6301 236.47 76.6604 237.14 76.598ZM233.677 42.1908C234.347 42.1284 234.923 41.7532 235.472 41.091C240.305 34.9811 242.8 31.7259 242.952 31.2937C243.073 30.8644 243.142 30.5685 243.124 30.3772C243.095 30.0584 242.934 29.7196 242.676 29.3579C242.161 28.6662 241.427 28.3808 240.439 28.4729C238.143 28.6867 235.806 30.8661 233.397 35.0458C231.879 37.7277 231.184 39.5932 231.288 40.709C231.33 41.1553 231.62 41.5141 232.131 41.8203C232.642 42.1264 233.135 42.2413 233.677 42.1908ZM271.171 74.6176C271.362 74.5998 271.831 74.4596 272.607 74.1622C273.387 73.8966 273.777 73.603 273.808 73.2463C273.734 72.4493 273.541 71.7598 273.227 71.146C272.852 70.57 272.594 69.5328 272.455 68.0344C272.119 64.4319 272.282 58.2425 272.973 49.4314C273.2 46.0016 273.258 43.52 273.118 42.0217C272.913 39.8219 271.716 38.3578 269.5 37.696C269.038 37.5781 268.328 37.5478 267.34 37.6399C264.631 38.246 261.85 41.8815 258.998 48.5465C258.121 50.5255 257.544 51.5762 257.231 51.6696C257.008 51.6904 256.877 51.3167 256.802 50.5197C256.687 49.2764 256.673 47.0588 256.758 43.8351L256.748 43.0322C256.437 41.4211 255.215 40.731 253.143 40.9241C251.645 41.0636 250.893 41.9698 250.952 43.6365C251.006 44.564 250.75 48.0286 250.218 54.0594C249.369 64.2681 248.993 69.8985 249.097 71.0143C249.254 72.7039 250.471 73.6839 252.779 73.9513L253.385 73.8948C255.011 73.7434 255.962 72.9151 256.176 71.4159C256.476 69.4585 257.89 64.9535 260.448 57.8978C263.606 49.3392 265.646 45.0009 266.625 44.8132C266.721 44.8043 266.777 45.0564 266.827 45.5983C266.893 46.2997 266.831 47.3666 266.64 48.7672C265.761 56.2452 265.554 62.3101 265.985 66.9327C266.519 72.3176 268.238 74.8908 271.171 74.6176Z" fill="#019DF4"/>
<path d="M51.4818 138.418C51.5252 137.938 51.5741 137.465 51.6618 136.998C52.0385 134.995 52.9383 133.281 54.5745 132.009C56.1046 130.819 57.8754 130.286 59.7995 130.287C62.4748 130.29 64.6757 131.356 66.4665 133.296C67.8 134.74 68.6053 136.454 68.9823 138.361C69.3351 140.142 69.3239 141.942 69.0835 143.74C68.6904 146.688 67.7082 149.445 66.3233 152.071C64.7019 155.147 62.6143 157.889 60.2387 160.424C59.6256 161.079 58.9812 161.702 58.3588 162.347C58.2525 162.457 58.1592 162.46 58.0226 162.429C55.1159 161.779 52.2851 160.898 49.5665 159.69C46.7318 158.432 44.0918 156.861 41.7736 154.794C39.794 153.029 38.1376 151.011 36.9879 148.614C35.8791 146.302 35.4825 143.884 36.1172 141.362C36.8279 138.542 38.4872 136.47 41.1771 135.259C42.6236 134.608 44.1376 134.346 45.7135 134.577C47.7018 134.869 49.3038 135.852 50.6169 137.332C50.9225 137.675 51.2012 138.039 51.4818 138.418Z" fill="#E63780"/>
<path d="M43.9814 135.547C40.1036 138.417 38.0336 142.298 37.4329 147.072C36.8855 145.676 36.8166 142.265 38.1939 139.862C39.4925 137.595 41.5143 136.28 43.9814 135.547Z" fill="#EC7CA1"/>
<path d="M281.738 113.961C281.694 113.482 281.645 113.009 281.558 112.542C281.181 110.539 280.281 108.825 278.645 107.553C277.115 106.363 275.344 105.83 273.42 105.831C270.745 105.834 268.544 106.9 266.753 108.84C265.419 110.284 264.614 111.998 264.237 113.905C263.884 115.686 263.896 117.486 264.136 119.284C264.529 122.232 265.511 124.989 266.896 127.615C268.518 130.691 270.605 133.433 272.981 135.968C273.594 136.622 274.238 137.246 274.861 137.891C274.967 138.001 275.06 138.003 275.197 137.973C278.104 137.323 280.934 136.442 283.653 135.234C286.488 133.976 289.128 132.405 291.446 130.338C293.425 128.573 295.082 126.555 296.232 124.158C297.34 121.846 297.737 119.428 297.102 116.906C296.392 114.085 294.732 112.014 292.042 110.803C290.596 110.151 289.082 109.89 287.506 110.121C285.518 110.413 283.916 111.396 282.603 112.876C282.297 113.219 282.018 113.582 281.738 113.961Z" fill="#E63780"/>
<path d="M288.686 111.656C292.564 114.527 294.634 118.407 295.235 123.181C295.782 121.785 295.851 118.374 294.474 115.971C293.175 113.704 291.153 112.389 288.686 111.656Z" fill="#EC7CA1"/>
<path d="M229.689 152.801L108.924 164.807C91.9421 166.496 76.8077 154.08 75.1215 137.075C73.4353 120.071 85.8356 104.917 102.819 103.228L223.584 91.2223C240.567 89.534 255.702 101.95 257.388 118.955C259.073 135.958 246.672 151.112 229.689 152.801Z" fill="#EF5EAD"/>
<path d="M229.689 152.801L108.924 164.807C91.9421 166.496 76.8077 154.08 75.1215 137.075C73.4353 120.071 85.8356 104.917 102.819 103.228L223.584 91.2223C240.567 89.534 255.702 101.95 257.388 118.955C259.073 135.958 246.672 151.112 229.689 152.801Z" fill="url(#paint1_linear_3_885)"/>
<path d="M135.163 160.047C134.424 160.047 133.715 159.748 133.061 159.16L133.032 159.134L133.007 159.105C131.962 157.871 131.296 156.139 131.027 153.956C130.789 152.022 130.856 149.684 131.226 147.01C131.988 141.554 133.553 135.645 135.89 129.393C134.395 132.114 132.192 136.211 128.953 142.346C127.726 145.226 125.814 146.88 123.267 147.262L123.252 147.264C122.961 147.301 122.683 147.318 122.423 147.318C121.199 147.318 120.307 146.918 119.773 146.13C119.215 145.308 118.8 144.357 118.536 143.301C118.495 143.147 118.46 142.967 118.436 142.775C118.297 141.648 118.372 139.881 118.665 137.373C118.771 136.341 118.832 135.577 118.866 135.012C118.399 136.031 117.654 137.841 116.474 141.049L116.468 141.066L113.5 148.351L113.491 148.37C112.236 150.9 110.772 152.286 109.14 152.487C108.965 152.508 108.797 152.519 108.641 152.519C107.546 152.519 106.848 151.952 106.725 150.962C106.694 150.708 106.699 150.436 106.739 150.153L106.743 150.123L106.75 150.094C108.339 143.839 110.896 136.261 114.349 127.571C118.944 115.74 121.072 113.995 122.412 113.796L122.425 113.795C122.647 113.767 123.016 113.744 123.557 113.72L124.424 113.675C124.539 113.671 124.642 113.67 124.744 113.67C127.789 113.67 128.623 115.257 128.787 116.589C128.832 116.955 128.835 117.363 128.798 117.802L128.795 117.823C128.722 118.427 128.026 122.707 126.671 130.907C126.415 132.486 126.225 133.731 126.104 134.614C127.106 133.352 129.134 130.523 133.24 124.238C135.515 120.795 137.72 117.532 139.796 114.539C141.867 111.54 143.408 109.654 144.506 108.772C145.526 107.926 146.642 107.421 147.816 107.275L147.837 107.273C147.967 107.262 148.094 107.257 148.217 107.257C149.311 107.257 150.153 107.704 150.653 108.551L150.666 108.574C150.833 108.889 150.942 109.239 150.988 109.615C151.019 109.871 151.029 110.143 151.018 110.426L151.017 110.458L151.012 110.49C150.911 111.132 150.613 112.088 150.104 113.411L150.098 113.427L150.09 113.442C143.563 127.752 139.683 139.134 138.558 147.276C138.152 150.167 138.007 153.053 138.127 155.855L138.128 155.891L138.046 156.828L138.045 156.84C137.871 158.153 137.291 159.772 135.516 160.023C135.392 160.039 135.275 160.047 135.163 160.047Z" fill="#922859"/>
<path d="M148.215 107.821C149.116 107.821 149.766 108.16 150.168 108.84C150.305 109.095 150.391 109.378 150.43 109.687C150.457 109.913 150.466 110.153 150.456 110.404C150.362 111.002 150.07 111.938 149.579 113.211C142.999 127.637 139.14 138.966 138.002 147.2C137.59 150.137 137.445 153.031 137.566 155.881L137.487 156.769C137.27 158.406 136.588 159.305 135.437 159.469C135.345 159.48 135.254 159.487 135.164 159.487C134.563 159.487 133.989 159.239 133.438 158.744C132.46 157.588 131.844 155.971 131.588 153.89C131.354 151.994 131.421 149.728 131.785 147.09C132.718 140.408 134.832 133.142 138.127 125.291C138.446 124.498 138.626 124.005 138.665 123.812L138.595 123.759C138.265 123.799 134.883 129.915 128.445 142.107C127.296 144.82 125.543 146.355 123.185 146.708C122.915 146.741 122.661 146.758 122.424 146.758C121.392 146.758 120.664 146.444 120.239 145.816C119.716 145.044 119.331 144.161 119.083 143.167C119.044 143.026 119.015 142.873 118.995 142.707C118.864 141.636 118.94 139.88 119.224 137.439C119.433 135.406 119.504 134.111 119.435 133.555C119.41 133.356 119.369 133.257 119.311 133.257C119.309 133.257 119.308 133.257 119.305 133.257C118.914 133.306 117.795 135.838 115.948 140.855L112.988 148.121C111.816 150.482 110.511 151.751 109.071 151.929C108.918 151.948 108.775 151.958 108.641 151.958C107.823 151.958 107.371 151.604 107.283 150.895C107.258 150.69 107.262 150.47 107.296 150.234C108.886 143.974 111.411 136.489 114.872 127.781C118.251 119.083 120.791 114.608 122.494 114.355C122.699 114.33 123.062 114.306 123.582 114.284L124.454 114.239C124.552 114.235 124.65 114.234 124.745 114.234C126.869 114.234 128.031 115.043 128.229 116.659C128.271 116.989 128.273 117.354 128.239 117.756C128.166 118.351 127.459 122.704 126.117 130.816C125.844 132.502 125.648 133.791 125.528 134.684C125.395 135.474 125.338 135.942 125.355 136.086C125.358 136.105 125.367 136.114 125.383 136.114C125.385 136.114 125.387 136.114 125.389 136.114C125.945 136.045 128.718 132.189 133.71 124.548C135.982 121.11 138.164 117.882 140.257 114.863C142.278 111.938 143.812 110.054 144.858 109.214C145.804 108.428 146.814 107.968 147.884 107.837C147.996 107.826 148.108 107.821 148.215 107.821ZM148.215 106.695C148.078 106.695 147.934 106.701 147.789 106.714L147.768 106.715L147.747 106.718C146.468 106.875 145.257 107.42 144.147 108.34C143.007 109.258 141.432 111.182 139.333 114.221C137.257 117.215 135.049 120.481 132.773 123.926C129.983 128.2 128.167 130.852 126.988 132.497C127.06 132.037 127.139 131.536 127.226 130.997C128.583 122.793 129.279 118.506 129.353 117.894L129.356 117.873L129.357 117.852C129.397 117.374 129.393 116.926 129.344 116.522C129.186 115.248 128.381 113.11 124.743 113.11C124.637 113.11 124.527 113.111 124.416 113.115H124.406H124.396L123.529 113.16C122.968 113.183 122.595 113.208 122.358 113.238L122.344 113.24L122.33 113.242C120.748 113.476 118.501 115.338 113.827 127.369C110.366 136.08 107.802 143.68 106.207 149.958L106.192 150.016L106.183 150.074C106.135 150.407 106.129 150.728 106.167 151.032C106.325 152.317 107.25 153.083 108.641 153.083C108.82 153.083 109.011 153.071 109.208 153.047C110.173 152.928 111.084 152.459 111.913 151.653C112.665 150.921 113.346 149.93 113.996 148.622L114.014 148.585L114.03 148.546L116.991 141.28L116.998 141.262L117.004 141.245C117.364 140.268 117.683 139.424 117.964 138.695C117.791 140.532 117.765 141.896 117.882 142.843C117.909 143.058 117.947 143.261 117.999 143.448C118.277 144.564 118.719 145.572 119.313 146.446C120.116 147.632 121.45 147.881 122.428 147.881C122.71 147.881 123.012 147.861 123.326 147.822L123.341 147.821L123.356 147.818C126.102 147.407 128.158 145.647 129.466 142.588C130.93 139.815 132.18 137.463 133.248 135.468C132.044 139.465 131.183 143.297 130.676 146.931C130.299 149.655 130.233 152.042 130.476 154.025C130.759 156.317 131.468 158.148 132.585 159.469L132.635 159.528L132.692 159.579C133.453 160.263 134.287 160.61 135.169 160.61C135.305 160.61 135.444 160.601 135.58 160.585L135.59 160.583L135.6 160.582C136.463 160.46 137.194 160.034 137.712 159.351C138.178 158.737 138.47 157.941 138.606 156.916L138.61 156.893L138.613 156.868L138.691 155.98L138.697 155.906L138.694 155.832C138.576 153.065 138.72 150.212 139.12 147.357C140.237 139.268 144.102 127.937 150.607 113.679L150.621 113.647L150.633 113.616C151.158 112.255 151.464 111.262 151.571 110.58L151.581 110.516L151.584 110.452C151.597 110.138 151.586 109.834 151.55 109.549C151.495 109.104 151.366 108.689 151.166 108.312L151.154 108.29L151.141 108.268C150.712 107.549 149.861 106.695 148.215 106.695Z" fill="#922859"/>
<path d="M159.332 151.265C157.646 151.265 155.544 150.526 155.111 147.002C154.966 145.825 155.016 144.375 155.258 142.693C155.346 142.017 155.46 141.401 155.604 140.862C154.928 141.558 153.842 142.722 152.096 144.664C150.352 146.615 148.844 148.172 147.618 149.29C146.604 150.301 145.425 150.896 144.114 151.057C143.893 151.085 143.675 151.099 143.466 151.099C142.507 151.099 141.673 150.812 140.986 150.246C140.384 149.813 140.023 149.141 139.913 148.249C139.859 147.813 139.866 147.313 139.934 146.759C140.275 144.378 141.785 140.836 144.553 135.92C148.345 129.22 151.479 124.39 153.87 121.563C156.369 118.61 158.552 117.054 160.547 116.809C160.718 116.788 160.89 116.778 161.057 116.778C162.233 116.778 163.318 117.291 164.285 118.302L164.3 118.319L164.314 118.336C164.676 118.779 164.896 119.297 164.967 119.876C165.006 120.188 164.999 120.533 164.949 120.901L164.946 120.929L164.606 122.358L164.602 122.371C164.334 123.296 163.515 124.083 162.099 124.776C161.846 124.913 161.589 124.999 161.338 125.031C161.292 125.037 161.245 125.039 161.2 125.039C160.996 125.039 160.324 124.964 160.207 124.006C160.179 123.779 160.181 123.514 160.214 123.197C160.229 122.986 160.233 122.806 160.224 122.658C159.944 122.807 159.521 123.167 158.94 124.008C155.406 128.93 152.177 134.109 149.332 139.422C150.72 137.967 153.681 134.642 159.912 127.267C161.08 125.899 162.284 125.129 163.493 124.981C163.628 124.964 163.765 124.956 163.9 124.956C164.44 124.956 164.968 125.091 165.473 125.358C166.712 125.884 167.064 126.734 167.14 127.357C167.169 127.593 167.161 127.847 167.118 128.112C167.008 128.864 166.733 129.717 166.301 130.647L166.295 130.66C163.908 135.48 162.356 140.308 161.683 145.012C161.651 145.352 161.628 145.641 161.617 145.872L161.631 145.98C161.672 146.315 161.902 146.601 162.333 146.855L162.355 146.869L162.376 146.884C162.821 147.206 163.088 147.631 163.147 148.115C163.162 148.232 163.163 148.36 163.153 148.506L163.152 148.525L163.149 148.542C163.02 149.489 162.441 150.716 160.415 151.181L160.387 151.188L160.173 151.214C159.882 151.248 159.6 151.265 159.332 151.265Z" fill="#922859"/>
<path d="M161.059 117.342C162.08 117.342 163.02 117.792 163.881 118.692C164.176 119.054 164.353 119.47 164.41 119.944C164.443 120.212 164.437 120.506 164.393 120.825L164.062 122.214C163.842 122.973 163.101 123.661 161.84 124.277C161.644 124.384 161.454 124.449 161.269 124.473C161.245 124.475 161.222 124.478 161.199 124.478C160.953 124.478 160.808 124.299 160.764 123.939C160.742 123.754 160.744 123.524 160.773 123.247C160.797 122.931 160.796 122.669 160.771 122.463C160.733 122.155 160.632 122 160.467 122C160.456 122 160.445 122.002 160.432 122.003C159.856 122.074 159.204 122.636 158.478 123.686C154.787 128.826 151.467 134.181 148.518 139.753C148.35 140.087 148.257 140.35 148.239 140.54C148.232 140.646 148.232 140.729 148.239 140.791C148.256 140.924 148.308 140.99 148.395 140.99C148.403 140.99 148.412 140.99 148.42 140.989C148.894 140.93 152.867 136.478 160.342 127.629C161.419 126.368 162.493 125.67 163.562 125.538C163.676 125.525 163.788 125.517 163.901 125.517C164.357 125.517 164.801 125.633 165.232 125.866C166.047 126.205 166.497 126.725 166.584 127.424C166.606 127.609 166.6 127.81 166.564 128.023C166.463 128.726 166.204 129.522 165.792 130.408C163.366 135.308 161.81 140.153 161.125 144.943C161.089 145.325 161.065 145.641 161.054 145.894L161.073 146.049C161.137 146.564 161.46 146.994 162.046 147.341C162.367 147.572 162.548 147.853 162.588 148.183C162.598 148.266 162.599 148.36 162.592 148.465C162.438 149.592 161.67 150.315 160.29 150.631L160.105 150.653C159.835 150.687 159.578 150.704 159.333 150.704C157.2 150.704 155.978 149.447 155.67 146.934C155.53 145.801 155.579 144.415 155.816 142.776C155.933 141.863 156.099 141.089 156.314 140.456C156.454 140.062 156.533 139.771 156.552 139.579L156.567 139.452C156.558 139.377 156.527 139.339 156.474 139.339C156.469 139.339 156.464 139.339 156.459 139.34C156.212 139.37 154.618 141.021 151.679 144.29C149.934 146.241 148.453 147.773 147.231 148.885C146.302 149.816 145.24 150.355 144.046 150.501C143.846 150.526 143.654 150.537 143.467 150.537C142.631 150.537 141.918 150.292 141.328 149.801C140.849 149.462 140.563 148.923 140.472 148.181C140.423 147.79 140.43 147.339 140.493 146.829C140.819 144.552 142.335 141.007 145.044 136.199C148.836 129.499 151.921 124.743 154.301 121.929C156.68 119.115 158.786 117.596 160.617 117.371C160.766 117.351 160.913 117.342 161.059 117.342ZM161.059 116.216C160.868 116.216 160.673 116.229 160.48 116.252C158.338 116.516 156.037 118.135 153.444 121.201C151.03 124.055 147.876 128.915 144.068 135.643C141.263 140.623 139.731 144.229 139.381 146.67L139.38 146.681L139.379 146.693C139.305 147.292 139.298 147.838 139.357 148.32C139.486 149.368 139.92 150.167 140.645 150.695C141.433 151.338 142.383 151.664 143.469 151.664C143.702 151.664 143.943 151.649 144.186 151.619C145.62 151.443 146.907 150.797 148.009 149.701C149.248 148.57 150.765 147.002 152.518 145.041C153.41 144.049 154.127 143.264 154.702 142.642C154.456 144.362 154.406 145.851 154.557 147.072C154.742 148.571 155.231 149.741 156.014 150.546C156.841 151.398 157.959 151.829 159.337 151.829C159.627 151.829 159.933 151.809 160.246 151.77L160.431 151.748L160.488 151.74L160.545 151.728C162.883 151.191 163.556 149.741 163.71 148.617L163.715 148.581L163.717 148.545C163.73 148.362 163.727 148.198 163.708 148.045C163.653 147.597 163.435 146.953 162.708 146.428L162.665 146.398L162.621 146.371C162.353 146.214 162.21 146.059 162.191 145.911L162.183 145.851C162.195 145.64 162.215 145.38 162.243 145.078C162.909 140.438 164.443 135.671 166.8 130.91L166.806 130.897L166.812 130.885C167.267 129.907 167.558 129.004 167.675 128.2C167.728 127.885 167.737 127.578 167.7 127.289C167.605 126.523 167.184 125.481 165.716 124.851C165.136 124.548 164.525 124.394 163.902 124.394C163.867 124.394 163.831 124.394 163.796 124.395C164.498 123.84 164.942 123.222 165.144 122.529L165.151 122.503L165.157 122.477L165.488 121.087L165.501 121.034L165.508 120.98C165.566 120.565 165.572 120.171 165.527 119.809C165.442 119.123 165.181 118.509 164.751 117.982L164.724 117.948L164.694 117.917C163.616 116.788 162.393 116.216 161.059 116.216ZM152.266 135.331C154.464 131.564 156.85 127.885 159.393 124.344L159.399 124.335L159.406 124.327C159.489 124.205 159.569 124.096 159.644 123.998C159.647 124.024 159.649 124.049 159.653 124.075C159.767 125.004 160.32 125.44 160.863 125.563C160.399 125.926 159.94 126.37 159.49 126.898C156.288 130.687 153.959 133.397 152.266 135.331Z" fill="#922859"/>
<path d="M192.224 148.207C189.926 147.821 189.283 146.438 189.149 145.346C189.101 144.949 189.106 144.512 189.163 144.045C189.239 143.521 189.45 142.803 189.813 141.842C191.124 137.948 191.938 134.908 192.232 132.804C192.258 132.618 192.277 132.462 192.288 132.331C192.203 132.423 192.106 132.536 191.993 132.668C185.751 140.501 184.271 142.414 184.13 142.641L184.122 142.653L184.118 142.658C183.22 144.049 182.231 144.819 181.177 144.949C181.097 144.959 181.009 144.964 180.92 144.964C180.741 144.964 180.537 144.944 180.316 144.906C178.419 144.592 177.282 143.361 177.035 141.349C176.989 140.972 176.973 140.565 176.988 140.137L176.989 140.113C176.989 140.113 176.993 140.078 176.994 140.073C176.895 140.104 176.358 140.366 174.937 142.453L173.524 144.553C172.023 146.633 170.566 147.733 169.074 147.918C168.898 147.94 168.723 147.951 168.554 147.951C168.087 147.951 167.646 147.867 167.244 147.699C165.231 146.969 164.106 145.758 163.903 144.099C163.854 143.704 163.86 143.275 163.922 142.823C164.025 142.148 164.737 139.968 169.71 128.755L170.932 125.971C171.727 124.23 172.71 123.278 173.859 123.137C174.021 123.117 174.182 123.107 174.337 123.107C174.619 123.107 174.891 123.141 175.143 123.207C176.72 123.629 177.593 124.448 177.741 125.641C177.772 125.896 177.767 126.169 177.726 126.451C177.618 127.235 177.356 128.007 176.946 128.741C175.311 131.803 174.477 133.55 174.069 134.539C175.084 133.521 177.139 131.391 181.243 127.032C182.065 126.137 182.968 125.622 183.923 125.503C184.073 125.485 184.222 125.476 184.366 125.476C184.959 125.476 185.507 125.632 185.996 125.941C186.794 126.43 187.266 127.197 187.392 128.216C187.446 128.656 187.436 129.14 187.361 129.655C187.337 129.814 187.31 129.974 187.278 130.134C192.72 124.316 193.996 122.848 194.234 122.522L194.243 122.479L194.329 122.372C195.504 120.916 196.554 120.151 197.537 120.029C197.708 120.008 197.881 119.998 198.052 119.998C198.328 119.998 198.608 120.026 198.882 120.082L198.903 120.087L198.924 120.093C200.804 120.631 201.336 121.869 201.452 122.813C201.498 123.188 201.491 123.607 201.43 124.058C201.299 124.949 199.314 132.123 195.361 145.995C194.93 147.628 193.963 148.082 193.227 148.172L193.206 148.175L192.284 148.22L192.224 148.207Z" fill="#922859"/>
<path d="M198.051 120.559C198.291 120.559 198.531 120.583 198.77 120.632C200.046 120.997 200.755 121.746 200.894 122.879C200.934 123.209 200.928 123.576 200.873 123.98C200.748 124.831 198.731 132.118 194.82 145.838C194.535 146.919 193.981 147.51 193.159 147.612L192.318 147.653C190.74 147.388 189.87 146.595 189.708 145.277C189.665 144.927 189.669 144.539 189.722 144.115C189.789 143.646 189.996 142.952 190.342 142.031C191.674 138.082 192.489 135.033 192.788 132.883C192.865 132.33 192.89 131.929 192.859 131.682C192.83 131.45 192.76 131.333 192.649 131.333C192.642 131.333 192.636 131.333 192.628 131.335C192.443 131.357 192.086 131.684 191.558 132.314C186.437 138.738 183.8 142.085 183.645 142.355C182.838 143.605 181.991 144.285 181.107 144.394C181.048 144.401 180.986 144.405 180.918 144.405C180.771 144.405 180.602 144.388 180.413 144.354C178.75 144.077 177.81 143.054 177.591 141.282C177.549 140.932 177.534 140.558 177.547 140.158C177.557 140.073 177.557 139.989 177.547 139.907C177.515 139.638 177.355 139.503 177.07 139.503C177.028 139.503 176.983 139.505 176.935 139.511C176.442 139.573 175.62 140.448 174.47 142.136L173.066 144.224C171.673 146.152 170.319 147.198 169.003 147.36C168.848 147.379 168.698 147.389 168.552 147.389C168.152 147.389 167.784 147.318 167.445 147.176C165.632 146.522 164.635 145.473 164.458 144.031C164.415 143.681 164.42 143.303 164.475 142.899C164.626 141.919 166.541 137.28 170.219 128.985L171.443 126.198C172.15 124.648 172.977 123.813 173.924 123.697C174.065 123.68 174.201 123.671 174.334 123.671C174.568 123.671 174.79 123.698 174.996 123.753C176.335 124.111 177.063 124.764 177.179 125.712C177.204 125.918 177.2 126.138 177.166 126.372C177.068 127.096 176.829 127.794 176.453 128.468C174.432 132.251 173.339 134.573 173.175 135.429C173.163 135.514 173.163 135.588 173.171 135.649C173.191 135.814 173.274 135.898 173.421 135.901C173.605 135.878 176.35 133.051 181.65 127.42C182.387 126.619 183.167 126.167 183.99 126.065C184.117 126.048 184.242 126.041 184.363 126.041C184.852 126.041 185.295 126.167 185.693 126.419C186.348 126.819 186.728 127.442 186.831 128.286C186.88 128.677 186.87 129.107 186.801 129.575C186.72 130.108 186.599 130.646 186.435 131.188C186.43 131.315 186.432 131.409 186.439 131.47C186.449 131.547 186.472 131.586 186.509 131.586C186.512 131.586 186.514 131.586 186.517 131.586C186.701 131.564 187.086 131.213 187.672 130.534C192.361 125.523 194.724 122.921 194.763 122.727C195.832 121.404 196.779 120.689 197.602 120.588C197.754 120.568 197.903 120.559 198.051 120.559ZM198.051 119.434C197.858 119.434 197.66 119.446 197.467 119.47C196.333 119.61 195.164 120.443 193.892 122.018L193.718 122.233L193.708 122.28C193.37 122.703 192.128 124.111 187.983 128.555C187.977 128.416 187.965 128.278 187.949 128.146C187.804 126.968 187.23 126.04 186.288 125.461C185.711 125.097 185.063 124.913 184.365 124.913C184.197 124.913 184.025 124.924 183.854 124.945C182.765 125.079 181.747 125.653 180.829 126.65C178.733 128.876 177.178 130.514 176.024 131.719C176.407 130.962 176.874 130.067 177.44 129.006C177.88 128.214 178.163 127.382 178.281 126.527C178.328 126.197 178.333 125.876 178.296 125.573C178.173 124.58 177.552 123.271 175.287 122.664C174.983 122.584 174.665 122.544 174.334 122.544C174.156 122.544 173.973 122.555 173.787 122.579C172.43 122.747 171.297 123.807 170.42 125.731L170.417 125.738L170.413 125.746L169.189 128.532C164.247 139.678 163.478 141.974 163.362 142.728L163.361 142.739L163.36 142.75C163.292 143.249 163.286 143.727 163.341 144.17C163.629 146.512 165.504 147.668 167.038 148.227C167.505 148.418 168.015 148.516 168.551 148.516C168.742 148.516 168.94 148.503 169.139 148.478C170.795 148.274 172.378 147.099 173.975 144.884L173.986 144.869L173.996 144.854L175.4 142.767C175.847 142.11 176.196 141.651 176.463 141.328C176.467 141.359 176.471 141.39 176.473 141.42C176.75 143.67 178.081 145.105 180.22 145.463C180.475 145.508 180.702 145.529 180.916 145.529C181.03 145.529 181.138 145.523 181.242 145.511C182.469 145.359 183.594 144.504 184.586 142.967L184.602 142.942L184.604 142.938C184.773 142.692 185.916 141.201 191.384 134.334C190.979 136.25 190.274 138.701 189.279 141.654C188.905 142.65 188.685 143.403 188.605 143.955L188.604 143.966L188.602 143.977C188.539 144.49 188.535 144.974 188.589 145.416C188.717 146.466 189.349 148.297 192.128 148.763L192.248 148.783L192.37 148.777L193.21 148.736L193.251 148.733L193.293 148.728C195.016 148.516 195.666 147.019 195.901 146.137C201.173 127.635 201.896 124.724 201.981 124.144L201.982 124.137L201.983 124.131C202.051 123.633 202.058 123.166 202.006 122.743C201.868 121.63 201.249 120.173 199.074 119.55L199.032 119.538L198.988 119.529C198.681 119.465 198.365 119.434 198.051 119.434Z" fill="#922859"/>
<path d="M215.408 144.349C213.722 144.349 211.619 143.61 211.186 140.085C211.041 138.909 211.091 137.459 211.333 135.777C211.421 135.1 211.536 134.485 211.679 133.946C211.004 134.641 209.917 135.806 208.171 137.748C206.427 139.699 204.92 141.256 203.693 142.374C202.679 143.385 201.5 143.98 200.19 144.141C199.969 144.169 199.75 144.182 199.541 144.182C198.582 144.182 197.748 143.896 197.061 143.33C196.459 142.897 196.098 142.225 195.988 141.332C195.934 140.897 195.942 140.396 196.009 139.843C196.35 137.462 197.86 133.92 200.628 129.005C204.42 122.305 207.554 117.475 209.946 114.648C210.57 113.909 211.176 113.257 211.764 112.692C211.679 112.699 211.596 112.703 211.513 112.703C210.994 112.703 210.513 112.553 210.083 112.255C209.519 111.88 209.35 111.409 209.31 111.08C209.293 110.94 209.29 110.797 209.3 110.656L209.301 110.638L209.304 110.621C209.475 109.408 210.592 107.444 212.715 104.62C216.06 100.207 218.851 97.918 221.253 97.6216C221.416 97.6016 221.573 97.5916 221.723 97.5916C222.914 97.5916 223.48 98.2269 223.745 98.7597C223.882 99.0311 223.97 99.3062 224.004 99.5751C224.025 99.7489 224.019 99.9278 223.986 100.108C223.952 100.383 223.811 100.729 223.533 101.225C223.419 101.426 223.159 101.888 215.175 110.289C215.67 110.083 216.152 109.952 216.624 109.894C216.795 109.873 216.968 109.863 217.135 109.863C218.311 109.863 219.396 110.376 220.363 111.387L220.378 111.404L220.391 111.421C220.754 111.864 220.973 112.382 221.045 112.961C221.083 113.274 221.077 113.62 221.027 113.986L221.023 114.014L220.684 115.443L220.68 115.456C220.413 116.381 219.593 117.168 218.177 117.861C217.923 117.998 217.667 118.084 217.416 118.116C217.37 118.122 217.323 118.124 217.278 118.124C217.075 118.124 216.403 118.049 216.285 117.093C216.257 116.864 216.258 116.599 216.292 116.282C216.307 116.071 216.311 115.891 216.302 115.743C216.022 115.892 215.599 116.252 215.018 117.093C211.483 122.015 208.255 127.195 205.409 132.507C206.798 131.052 209.758 127.727 215.99 120.352C217.158 118.984 218.362 118.214 219.571 118.066C219.706 118.049 219.843 118.041 219.978 118.041C220.518 118.041 221.046 118.176 221.55 118.443C222.79 118.969 223.141 119.819 223.218 120.442C223.247 120.678 223.239 120.933 223.195 121.197C223.086 121.949 222.811 122.802 222.379 123.732L222.372 123.745C219.985 128.565 218.434 133.393 217.761 138.097C217.728 138.437 217.706 138.726 217.695 138.957L217.708 139.065C217.75 139.4 217.98 139.686 218.41 139.94L218.433 139.954L218.454 139.969C218.899 140.291 219.166 140.716 219.225 141.2C219.24 141.316 219.241 141.444 219.231 141.59L219.23 141.609L219.227 141.627C219.097 142.574 218.519 143.801 216.493 144.266L216.464 144.273L216.251 144.299C215.957 144.331 215.674 144.349 215.408 144.349Z" fill="#922859"/>
<path d="M221.721 98.1557C222.45 98.1557 222.957 98.4408 223.24 99.0111C223.35 99.2275 223.419 99.4388 223.444 99.6452C223.459 99.769 223.454 99.8953 223.428 100.024C223.409 100.214 223.28 100.523 223.04 100.951C222.801 101.379 219.703 104.719 213.746 110.975C213.079 111.664 212.426 112.048 211.789 112.125C211.696 112.136 211.603 112.143 211.512 112.143C211.107 112.143 210.736 112.026 210.4 111.795C210.082 111.584 209.903 111.324 209.866 111.013C209.853 110.911 209.851 110.806 209.858 110.701C210.014 109.594 211.116 107.68 213.162 104.96C216.378 100.716 219.097 98.4558 221.319 98.1819C221.462 98.1644 221.595 98.1557 221.721 98.1557ZM217.133 110.426C218.153 110.426 219.094 110.876 219.954 111.776C220.249 112.138 220.426 112.554 220.484 113.028C220.516 113.296 220.51 113.59 220.466 113.909L220.136 115.298C219.917 116.057 219.176 116.745 217.914 117.36C217.718 117.468 217.529 117.533 217.344 117.557C217.32 117.559 217.296 117.562 217.274 117.562C217.028 117.562 216.883 117.383 216.839 117.023C216.817 116.838 216.819 116.607 216.848 116.331C216.872 116.015 216.87 115.753 216.845 115.547C216.808 115.239 216.707 115.084 216.542 115.084C216.531 115.084 216.519 115.085 216.507 115.087C215.931 115.158 215.279 115.719 214.552 116.77C210.861 121.91 207.541 127.265 204.592 132.837C204.425 133.171 204.331 133.433 204.313 133.623C204.305 133.73 204.305 133.812 204.313 133.875C204.329 134.007 204.381 134.074 204.469 134.074C204.476 134.074 204.485 134.074 204.494 134.072C204.967 134.014 208.94 129.561 216.416 120.713C217.492 119.451 218.566 118.754 219.636 118.622C219.749 118.608 219.862 118.601 219.974 118.601C220.43 118.601 220.875 118.717 221.306 118.95C222.12 119.289 222.57 119.809 222.657 120.508C222.679 120.693 222.673 120.893 222.637 121.107C222.536 121.81 222.277 122.605 221.865 123.492C219.44 128.392 217.883 133.237 217.199 138.027C217.163 138.408 217.139 138.725 217.128 138.977L217.146 139.132C217.21 139.648 217.534 140.078 218.119 140.424C218.44 140.656 218.621 140.937 218.661 141.267C218.671 141.35 218.673 141.444 218.665 141.549C218.512 142.675 217.743 143.398 216.362 143.715L216.177 143.737C215.907 143.771 215.65 143.787 215.405 143.787C213.272 143.787 212.05 142.53 211.742 140.018C211.602 138.885 211.651 137.499 211.888 135.86C212.005 134.947 212.171 134.172 212.386 133.54C212.526 133.146 212.605 132.854 212.624 132.663L212.639 132.535C212.63 132.46 212.599 132.422 212.546 132.422C212.541 132.422 212.536 132.422 212.531 132.423C212.284 132.453 210.691 134.104 207.751 137.373C206.006 139.324 204.525 140.856 203.303 141.968C202.374 142.898 201.312 143.437 200.118 143.583C199.919 143.608 199.726 143.62 199.539 143.62C198.703 143.62 197.99 143.375 197.401 142.883C196.92 142.545 196.635 142.005 196.544 141.264C196.495 140.872 196.502 140.422 196.565 139.912C196.891 137.634 198.407 134.09 201.116 129.281C204.908 122.582 207.993 117.826 210.373 115.012C212.752 112.198 214.857 110.678 216.689 110.453C216.84 110.434 216.988 110.426 217.133 110.426ZM221.721 97.0301C221.549 97.0301 221.368 97.0414 221.183 97.0651C218.624 97.3803 215.707 99.7402 212.268 104.28C209.357 108.148 208.864 109.708 208.747 110.543L208.742 110.579L208.739 110.616C208.725 110.795 208.729 110.975 208.752 111.152C208.807 111.596 209.028 112.229 209.772 112.728C210.021 112.898 210.282 113.029 210.556 113.119C210.215 113.482 209.868 113.871 209.517 114.288C207.103 117.141 203.949 122.001 200.141 128.73C197.337 133.71 195.804 137.315 195.456 139.757L195.455 139.768L195.453 139.779C195.38 140.378 195.372 140.925 195.432 141.406C195.561 142.454 195.994 143.253 196.72 143.781C197.507 144.424 198.457 144.75 199.544 144.75C199.776 144.75 200.017 144.735 200.261 144.705C201.695 144.529 202.981 143.884 204.084 142.787C205.323 141.656 206.841 140.088 208.593 138.127C209.485 137.135 210.202 136.35 210.776 135.728C210.529 137.448 210.48 138.937 210.631 140.158C210.816 141.657 211.306 142.827 212.089 143.632C212.916 144.484 214.034 144.915 215.411 144.915C215.701 144.915 216.007 144.895 216.321 144.857L216.506 144.834L216.563 144.827L216.619 144.814C218.957 144.278 219.631 142.827 219.784 141.704L219.789 141.667L219.792 141.63C219.804 141.447 219.802 141.284 219.783 141.131C219.728 140.683 219.509 140.039 218.783 139.514L218.74 139.484L218.695 139.458C218.428 139.3 218.284 139.145 218.265 138.997L218.258 138.937C218.269 138.726 218.289 138.466 218.318 138.164C218.984 133.525 220.517 128.757 222.874 123.996L222.881 123.984L222.887 123.971C223.341 122.994 223.632 122.09 223.75 121.285C223.802 120.97 223.811 120.663 223.775 120.374C223.68 119.608 223.258 118.566 221.791 117.936C221.212 117.633 220.601 117.479 219.978 117.479C219.943 117.479 219.907 117.479 219.872 117.48C220.574 116.925 221.018 116.307 221.219 115.614L221.227 115.588L221.233 115.562L221.563 114.172L221.575 114.12L221.583 114.066C221.64 113.651 221.647 113.256 221.602 112.894C221.517 112.209 221.256 111.594 220.826 111.067L220.798 111.033L220.768 111.002C219.692 109.875 218.469 109.304 217.135 109.304C217.051 109.304 216.968 109.306 216.884 109.31C223.642 102.179 223.877 101.762 224.022 101.505C224.332 100.953 224.494 100.547 224.542 100.199C224.583 99.9691 224.59 99.7377 224.562 99.5114C224.521 99.1774 224.414 98.841 224.247 98.5084C223.77 97.5529 222.874 97.0301 221.721 97.0301ZM208.341 128.415C210.539 124.648 212.925 120.968 215.468 117.428L215.474 117.419L215.48 117.41C215.564 117.289 215.644 117.18 215.719 117.081C215.721 117.108 215.724 117.133 215.727 117.158C215.842 118.088 216.394 118.522 216.938 118.646C216.473 119.009 216.015 119.454 215.565 119.98C212.361 123.771 210.032 126.481 208.341 128.415Z" fill="#922859"/>
<path d="M135.437 159.466C134.737 159.553 134.07 159.31 133.437 158.741C132.459 157.585 131.843 155.968 131.587 153.887C131.353 151.991 131.42 149.725 131.784 147.088C132.717 140.406 134.831 133.139 138.126 125.288C138.445 124.495 138.625 124.002 138.664 123.81L138.594 123.756C138.264 123.796 134.882 129.913 128.445 142.104C127.295 144.818 125.542 146.352 123.184 146.705C121.743 146.883 120.762 146.586 120.238 145.813C119.715 145.042 119.33 144.159 119.082 143.164C119.043 143.023 119.014 142.871 118.994 142.704C118.863 141.634 118.939 139.878 119.223 137.437C119.432 135.403 119.503 134.109 119.434 133.552C119.409 133.346 119.365 133.247 119.304 133.255C118.913 133.303 117.794 135.836 115.947 140.852L112.987 148.118C111.815 150.479 110.51 151.749 109.07 151.926C107.979 152.061 107.383 151.716 107.282 150.892C107.257 150.687 107.261 150.467 107.295 150.232C108.885 143.971 111.41 136.486 114.871 127.778C118.25 119.08 120.79 114.605 122.493 114.353C122.698 114.328 123.061 114.304 123.581 114.281L124.453 114.236C126.762 114.161 128.02 114.968 128.228 116.656C128.27 116.986 128.272 117.352 128.238 117.753C128.165 118.348 127.458 122.702 126.116 130.813C125.843 132.499 125.647 133.789 125.527 134.681C125.394 135.472 125.337 135.94 125.354 136.083C125.357 136.105 125.368 136.113 125.389 136.111C125.945 136.042 128.718 132.186 133.71 124.545C135.982 121.107 138.164 117.879 140.258 114.86C142.279 111.934 143.812 110.052 144.858 109.211C145.805 108.426 146.814 107.966 147.884 107.834C148.958 107.744 149.72 108.078 150.17 108.839C150.306 109.094 150.392 109.376 150.431 109.685C150.459 109.912 150.467 110.152 150.457 110.403C150.364 111.001 150.071 111.936 149.58 113.209C143.001 127.635 139.141 138.965 138.003 147.199C137.591 150.135 137.446 153.029 137.567 155.88L137.489 156.768C137.269 158.405 136.586 159.304 135.437 159.466Z" fill="white"/>
<path d="M160.29 150.629L160.105 150.652C157.492 150.975 156.013 149.734 155.668 146.933C155.529 145.799 155.577 144.414 155.815 142.774C155.932 141.861 156.098 141.087 156.313 140.454C156.453 140.06 156.532 139.769 156.55 139.578L156.565 139.45C156.555 139.368 156.519 139.33 156.458 139.337C156.211 139.368 154.617 141.018 151.678 144.287C149.933 146.238 148.452 147.77 147.23 148.882C146.301 149.813 145.239 150.352 144.045 150.498C142.955 150.633 142.049 150.399 141.327 149.798C140.848 149.459 140.562 148.92 140.47 148.178C140.422 147.787 140.429 147.336 140.492 146.826C140.818 144.549 142.334 141.005 145.043 136.196C148.835 129.496 151.92 124.74 154.3 121.926C156.679 119.114 158.785 117.593 160.616 117.368C161.809 117.22 162.897 117.662 163.881 118.691C164.176 119.052 164.353 119.469 164.41 119.943C164.443 120.21 164.437 120.504 164.393 120.823L164.062 122.213C163.842 122.972 163.101 123.66 161.84 124.275C161.644 124.382 161.454 124.448 161.269 124.471C160.981 124.506 160.813 124.329 160.764 123.937C160.742 123.752 160.745 123.522 160.773 123.246C160.797 122.929 160.796 122.668 160.771 122.462C160.731 122.133 160.617 121.979 160.432 122.001C159.856 122.073 159.204 122.634 158.478 123.685C154.787 128.825 151.467 134.18 148.518 139.751C148.35 140.085 148.257 140.348 148.239 140.538C148.232 140.644 148.232 140.727 148.239 140.789C148.257 140.933 148.317 141 148.42 140.987C148.894 140.928 152.867 136.476 160.342 127.628C161.419 126.366 162.493 125.668 163.562 125.537C164.138 125.466 164.695 125.576 165.231 125.864C166.045 126.203 166.496 126.724 166.582 127.423C166.605 127.608 166.599 127.808 166.562 128.022C166.461 128.725 166.203 129.52 165.791 130.407C163.365 135.307 161.809 140.152 161.124 144.942C161.088 145.323 161.064 145.639 161.053 145.892L161.072 146.047C161.135 146.562 161.459 146.993 162.045 147.339C162.366 147.57 162.547 147.852 162.587 148.182C162.597 148.264 162.598 148.358 162.591 148.463C162.439 149.59 161.671 150.313 160.29 150.629Z" fill="white"/>
<path d="M193.159 147.611L192.318 147.652C190.74 147.387 189.87 146.594 189.708 145.276C189.666 144.926 189.669 144.538 189.722 144.114C189.789 143.645 189.997 142.951 190.342 142.031C191.674 138.081 192.49 135.032 192.788 132.882C192.866 132.329 192.89 131.928 192.859 131.682C192.829 131.434 192.752 131.319 192.628 131.334C192.443 131.356 192.086 131.683 191.558 132.313C186.437 138.738 183.8 142.084 183.645 142.354C182.838 143.604 181.992 144.284 181.107 144.393C180.922 144.415 180.69 144.402 180.413 144.353C178.75 144.077 177.81 143.054 177.591 141.281C177.549 140.931 177.534 140.557 177.547 140.157C177.557 140.072 177.557 139.988 177.547 139.906C177.51 139.597 177.305 139.465 176.935 139.511C176.442 139.572 175.62 140.447 174.47 142.136L173.066 144.223C171.673 146.151 170.319 147.197 169.003 147.359C168.427 147.431 167.908 147.369 167.445 147.176C165.632 146.522 164.635 145.472 164.458 144.03C164.415 143.68 164.42 143.302 164.475 142.898C164.626 141.918 166.541 137.279 170.219 128.984L171.444 126.198C172.15 124.647 172.977 123.813 173.924 123.696C174.315 123.648 174.672 123.666 174.996 123.753C176.335 124.11 177.063 124.763 177.179 125.711C177.204 125.917 177.2 126.138 177.167 126.371C177.068 127.094 176.829 127.793 176.453 128.467C174.432 132.251 173.34 134.572 173.175 135.428C173.163 135.514 173.163 135.587 173.171 135.649C173.191 135.814 173.275 135.897 173.421 135.9C173.606 135.877 176.35 133.05 181.651 127.419C182.387 126.618 183.167 126.166 183.99 126.064C184.627 125.985 185.195 126.104 185.694 126.419C186.348 126.819 186.728 127.442 186.831 128.286C186.88 128.678 186.87 129.108 186.802 129.576C186.72 130.108 186.599 130.646 186.436 131.189C186.431 131.315 186.432 131.409 186.439 131.47C186.449 131.553 186.474 131.592 186.517 131.587C186.702 131.564 187.086 131.214 187.672 130.535C192.361 125.523 194.724 122.921 194.763 122.727C195.832 121.403 196.779 120.69 197.602 120.589C197.993 120.54 198.381 120.555 198.766 120.634C200.042 120.999 200.752 121.748 200.89 122.881C200.93 123.211 200.924 123.578 200.869 123.981C200.744 124.833 198.727 132.119 194.816 145.84C194.535 146.918 193.982 147.51 193.159 147.611Z" fill="white"/>
<path d="M216.364 143.714L216.179 143.736C213.567 144.059 212.088 142.818 211.743 140.017C211.603 138.884 211.652 137.498 211.889 135.858C212.006 134.946 212.173 134.171 212.387 133.539C212.527 133.145 212.606 132.853 212.625 132.662L212.64 132.534C212.63 132.452 212.594 132.414 212.532 132.422C212.285 132.452 210.693 134.103 207.752 137.372C206.007 139.323 204.526 140.855 203.305 141.967C202.375 142.897 201.314 143.436 200.12 143.582C199.029 143.717 198.124 143.484 197.402 142.882C196.921 142.544 196.636 142.004 196.545 141.262C196.496 140.871 196.504 140.421 196.566 139.91C196.892 137.633 198.408 134.089 201.118 129.28C204.91 122.581 207.995 117.824 210.374 115.011C212.753 112.198 214.858 110.677 216.69 110.452C217.883 110.304 218.971 110.746 219.955 111.775C220.25 112.137 220.427 112.553 220.485 113.027C220.517 113.295 220.511 113.589 220.467 113.907L220.138 115.297C219.918 116.056 219.177 116.744 217.916 117.359C217.72 117.467 217.53 117.532 217.345 117.556C217.056 117.591 216.889 117.413 216.84 117.022C216.818 116.836 216.82 116.606 216.849 116.33C216.873 116.014 216.871 115.752 216.846 115.546C216.806 115.217 216.693 115.063 216.508 115.086C215.932 115.157 215.28 115.718 214.553 116.769C210.862 121.909 207.542 127.264 204.594 132.836C204.426 133.17 204.332 133.432 204.314 133.622C204.306 133.729 204.306 133.811 204.314 133.874C204.331 134.018 204.391 134.084 204.495 134.071C204.968 134.013 208.941 129.56 216.417 120.712C217.493 119.45 218.568 118.752 219.637 118.621C220.213 118.55 220.77 118.66 221.307 118.949C222.121 119.288 222.571 119.808 222.658 120.507C222.681 120.692 222.674 120.892 222.638 121.106C222.537 121.809 222.278 122.604 221.866 123.491C219.441 128.391 217.884 133.236 217.2 138.026C217.164 138.407 217.14 138.724 217.129 138.976L217.147 139.131C217.211 139.647 217.535 140.077 218.12 140.423C218.441 140.655 218.623 140.936 218.663 141.266C218.673 141.349 218.674 141.443 218.666 141.548C218.513 142.674 217.746 143.397 216.364 143.714ZM211.789 112.124C211.275 112.188 210.812 112.078 210.401 111.794C210.083 111.583 209.904 111.322 209.867 111.012C209.854 110.91 209.852 110.805 209.859 110.7C210.016 109.593 211.117 107.679 213.163 104.959C216.379 100.715 219.098 98.4547 221.32 98.1808C222.266 98.0645 222.907 98.3409 223.24 99.0112C223.35 99.2276 223.419 99.439 223.444 99.6453C223.459 99.7691 223.454 99.8954 223.428 100.024C223.409 100.214 223.28 100.523 223.04 100.951C222.801 101.379 219.703 104.719 213.746 110.975C213.079 111.663 212.426 112.045 211.789 112.124Z" fill="white"/>
<defs>
<linearGradient id="paint0_linear_3_885" x1="157.603" y1="21.8128" x2="168.463" y2="122.784" gradientUnits="userSpaceOnUse">
<stop offset="0.000661376" stop-color="white" stop-opacity="0"/>
<stop offset="0.2259" stop-color="#FCFCFC" stop-opacity="0.2254"/>
<stop offset="0.4096" stop-color="#F2F2F2" stop-opacity="0.4092"/>
<stop offset="0.5785" stop-color="#E1E1E1" stop-opacity="0.5783"/>
<stop offset="0.7388" stop-color="#C9C9C9" stop-opacity="0.7386"/>
<stop offset="0.8913" stop-color="#AAAAAA" stop-opacity="0.8912"/>
<stop offset="1" stop-color="#8F8F8F"/>
</linearGradient>
<linearGradient id="paint1_linear_3_885" x1="163.042" y1="101.409" x2="170.308" y2="161.443" gradientUnits="userSpaceOnUse">
<stop stop-color="#DD3783" stop-opacity="0"/>
<stop offset="1" stop-color="#DD3783"/>
</linearGradient>
</defs>
</svg>
