<svg width="471" height="141" viewBox="0 0 471 141" fill="none" xmlns="http://www.w3.org/2000/svg">
<path d="M0.535031 72H-0.464969V73H0.535031V72ZM11.767 72V73H12.767V72H11.767ZM11.767 54.144V53.144H10.767V54.144H11.767ZM17.959 54.144L18.8506 53.691L18.5726 53.144H17.959V54.144ZM27.031 72L26.1395 72.453L26.4174 73H27.031V72ZM39.703 72V73H41.3946L40.5792 71.518L39.703 72ZM29.047 52.632L28.6235 51.7261L27.6561 52.1784L28.1709 53.114L29.047 52.632ZM33.295 26.712L33.9811 25.9844L33.9774 25.9809L33.295 26.712ZM0.535031 22.752V21.752H-0.464969V22.752H0.535031ZM11.767 46.008H10.767V47.008H11.767V46.008ZM11.767 30.888V29.888H10.767V30.888H11.767ZM24.295 32.688L25.0021 31.9809L24.9931 31.9718L24.9838 31.963L24.295 32.688ZM0.535031 73H11.767V71H0.535031V73ZM12.767 72V54.144H10.767V72H12.767ZM11.767 55.144H17.959V53.144H11.767V55.144ZM17.0675 54.597L26.1395 72.453L27.9226 71.547L18.8506 53.691L17.0675 54.597ZM27.031 73H39.703V71H27.031V73ZM40.5792 71.518L29.9232 52.15L28.1709 53.114L38.8269 72.482L40.5792 71.518ZM29.4706 53.5379C35.4436 50.7453 38.399 45.0069 38.399 38.016H36.399C36.399 44.4171 33.7384 49.3347 28.6235 51.7261L29.4706 53.5379ZM38.399 38.016C38.399 32.6269 36.7474 28.5927 33.981 25.9844L32.609 27.4396C34.8826 29.5833 36.399 33.0371 36.399 38.016H38.399ZM33.9774 25.9809C30.4312 22.6712 25.3904 21.752 17.455 21.752V23.752C25.3597 23.752 29.6789 24.7048 32.6127 27.4431L33.9774 25.9809ZM17.455 21.752H0.535031V23.752H17.455V21.752ZM-0.464969 22.752V72H1.53503V22.752H-0.464969ZM12.767 46.008V30.888H10.767V46.008H12.767ZM11.767 31.888H16.807V29.888H11.767V31.888ZM16.807 31.888C20.4921 31.888 22.483 32.3459 23.6063 33.413L24.9838 31.963C23.227 30.2941 20.466 29.888 16.807 29.888V31.888ZM23.5879 33.3951C24.4739 34.2811 25.023 35.7686 25.023 38.16H27.023C27.023 35.5114 26.4201 33.3989 25.0021 31.9809L23.5879 33.3951ZM25.023 38.16C25.023 40.7904 24.3922 42.5789 23.2874 43.5181L24.5827 45.0419C26.3578 43.5331 27.023 41.0016 27.023 38.16H25.023ZM23.2874 43.5181C22.1327 44.4996 20.4296 45.008 16.735 45.008V47.008C20.5285 47.008 22.8574 46.5084 24.5827 45.0419L23.2874 43.5181ZM16.735 45.008H11.767V47.008H16.735V45.008ZM47.2225 72H46.2225V73H47.2225V72ZM80.8465 72V73H81.8465V72H80.8465ZM80.8465 63.864H81.8465V62.864H80.8465V63.864ZM58.4545 63.864H57.4545V64.864H58.4545V63.864ZM58.4545 51.264V50.264H57.4545V51.264H58.4545ZM75.3745 51.264V52.264H76.3745V51.264H75.3745ZM75.3745 42.84H76.3745V41.84H75.3745V42.84ZM58.4545 42.84H57.4545V43.84H58.4545V42.84ZM58.4545 30.888V29.888H57.4545V30.888H58.4545ZM79.6225 30.888V31.888H80.522L80.6169 30.9936L79.6225 30.888ZM80.4865 22.752L81.4809 22.8576L81.5983 21.752H80.4865V22.752ZM47.2225 22.752V21.752H46.2225V22.752H47.2225ZM47.2225 73H80.8465V71H47.2225V73ZM81.8465 72V63.864H79.8465V72H81.8465ZM80.8465 62.864H58.4545V64.864H80.8465V62.864ZM59.4545 63.864V51.264H57.4545V63.864H59.4545ZM58.4545 52.264H75.3745V50.264H58.4545V52.264ZM76.3745 51.264V42.84H74.3745V51.264H76.3745ZM75.3745 41.84H58.4545V43.84H75.3745V41.84ZM59.4545 42.84V30.888H57.4545V42.84H59.4545ZM58.4545 31.888H79.6225V29.888H58.4545V31.888ZM80.6169 30.9936L81.4809 22.8576L79.4921 22.6464L78.6281 30.7824L80.6169 30.9936ZM80.4865 21.752H47.2225V23.752H80.4865V21.752ZM46.2225 22.752V72H48.2225V22.752H46.2225ZM103.815 17.352L103.037 17.9797L103.613 18.6947L104.374 18.1809L103.815 17.352ZM118.431 7.488L118.99 8.31689L119.854 7.73386L119.236 6.8948L118.431 7.488ZM113.391 0.647996L114.196 0.0547971L113.531 -0.847296L112.71 -0.0846549L113.391 0.647996ZM100.215 12.888L99.5345 12.1553L98.8514 12.7899L99.4367 13.5157L100.215 12.888ZM124.119 68.112L123.434 67.3833L123.428 67.389L124.119 68.112ZM128.943 22.752H129.943V21.752H128.943V22.752ZM119.007 22.752V21.752H118.007V22.752H119.007ZM116.631 62.136L115.924 61.4289L115.916 61.4371L115.908 61.4455L116.631 62.136ZM102.303 62.064L103.026 61.3735L103.018 61.3651L103.01 61.3569L102.303 62.064ZM99.9271 22.752H100.927V21.752H99.9271V22.752ZM88.7671 22.752V21.752H87.7671V22.752H88.7671ZM93.5191 68.256L94.2184 67.5412L94.2182 67.541L93.5191 68.256ZM104.374 18.1809L118.99 8.31689L117.872 6.6591L103.256 16.5231L104.374 18.1809ZM119.236 6.8948L114.196 0.0547971L112.586 1.24119L117.626 8.0812L119.236 6.8948ZM112.71 -0.0846549L99.5345 12.1553L100.896 13.6206L114.072 1.38065L112.71 -0.0846549ZM99.4367 13.5157L103.037 17.9797L104.594 16.7242L100.994 12.2602L99.4367 13.5157ZM108.999 74.008C115.487 74.008 121.319 72.1705 124.81 68.835L123.428 67.389C120.439 70.2455 115.184 72.008 108.999 72.008V74.008ZM124.804 68.8406C128.707 65.1718 129.943 59.7829 129.943 53.424H127.943C127.943 59.5931 126.731 64.2842 123.434 67.3834L124.804 68.8406ZM129.943 53.424V22.752H127.943V53.424H129.943ZM128.943 21.752H119.007V23.752H128.943V21.752ZM118.007 22.752V54H120.007V22.752H118.007ZM118.007 54C118.007 57.7448 117.361 59.9914 115.924 61.4289L117.338 62.8431C119.357 60.8246 120.007 57.8872 120.007 54H118.007ZM115.908 61.4455C114.67 62.7424 112.625 63.44 109.503 63.44V65.44C112.861 65.44 115.568 64.6976 117.354 62.8265L115.908 61.4455ZM109.503 63.44C106.397 63.44 104.272 62.6779 103.026 61.3735L101.58 62.7545C103.359 64.6181 106.129 65.44 109.503 65.44V63.44ZM103.01 61.3569C101.574 59.9207 100.927 57.604 100.927 53.928H98.9271C98.9271 57.74 99.5762 60.7513 101.596 62.7711L103.01 61.3569ZM100.927 53.928V22.752H98.9271V53.928H100.927ZM99.9271 21.752H88.7671V23.752H99.9271V21.752ZM87.7671 22.752V53.928H89.7671V22.752H87.7671ZM87.7671 53.928C87.7671 61.1423 89.3206 65.5494 92.82 68.971L94.2182 67.541C91.2376 64.6266 89.7671 60.8257 89.7671 53.928H87.7671ZM92.8198 68.9708C96.4048 72.4779 102.05 74.008 108.999 74.008V72.008C102.268 72.008 97.2574 70.5141 94.2184 67.5412L92.8198 68.9708ZM139.191 72H138.191V73H139.191V72ZM149.055 72V73H150.055V72H149.055ZM149.055 42.12L149.853 41.5166L148.055 39.141V42.12H149.055ZM171.663 72L170.866 72.6034L171.166 73H171.663V72ZM180.663 72V73H181.663V72H180.663ZM180.663 22.752H181.663V21.752H180.663V22.752ZM170.799 22.752V21.752H169.799V22.752H170.799ZM170.799 54.288L169.995 54.8827L171.799 57.3214V54.288H170.799ZM147.471 22.752L148.275 22.1573L147.975 21.752H147.471V22.752ZM139.191 22.752V21.752H138.191V22.752H139.191ZM139.191 73H149.055V71H139.191V73ZM150.055 72V42.12H148.055V72H150.055ZM148.258 42.7234L170.866 72.6034L172.461 71.3966L149.853 41.5166L148.258 42.7234ZM171.663 73H180.663V71H171.663V73ZM181.663 72V22.752H179.663V72H181.663ZM180.663 21.752H170.799V23.752H180.663V21.752ZM169.799 22.752V54.288H171.799V22.752H169.799ZM171.603 53.6933L148.275 22.1573L146.667 23.3467L169.995 54.8827L171.603 53.6933ZM147.471 21.752H139.191V23.752H147.471V21.752ZM138.191 22.752V72H140.191V22.752H138.191ZM191.293 72H190.293V73H191.293V72ZM224.917 72V73H225.917V72H224.917ZM224.917 63.864H225.917V62.864H224.917V63.864ZM202.525 63.864H201.525V64.864H202.525V63.864ZM202.525 51.264V50.264H201.525V51.264H202.525ZM219.445 51.264V52.264H220.445V51.264H219.445ZM219.445 42.84H220.445V41.84H219.445V42.84ZM202.525 42.84H201.525V43.84H202.525V42.84ZM202.525 30.888V29.888H201.525V30.888H202.525ZM223.693 30.888V31.888H224.592L224.687 30.9936L223.693 30.888ZM224.557 22.752L225.551 22.8576L225.669 21.752H224.557V22.752ZM191.293 22.752V21.752H190.293V22.752H191.293ZM191.293 73H224.917V71H191.293V73ZM225.917 72V63.864H223.917V72H225.917ZM224.917 62.864H202.525V64.864H224.917V62.864ZM203.525 63.864V51.264H201.525V63.864H203.525ZM202.525 52.264H219.445V50.264H202.525V52.264ZM220.445 51.264V42.84H218.445V51.264H220.445ZM219.445 41.84H202.525V43.84H219.445V41.84ZM203.525 42.84V30.888H201.525V42.84H203.525ZM202.525 31.888H223.693V29.888H202.525V31.888ZM224.687 30.9936L225.551 22.8576L223.562 22.6464L222.698 30.7824L224.687 30.9936ZM224.557 21.752H191.293V23.752H224.557V21.752ZM190.293 22.752V72H192.293V22.752H190.293ZM245.479 72H244.479V73H245.479V72ZM256.711 72V73H257.711V72H256.711ZM256.711 30.888V29.888H255.711V30.888H256.711ZM271.615 30.888V31.888H272.514L272.609 30.9936L271.615 30.888ZM272.479 22.752L273.473 22.8576L273.591 21.752H272.479V22.752ZM230.215 22.752V21.752H229.215V22.752H230.215ZM230.215 30.888H229.215V31.888H230.215V30.888ZM245.479 30.888H246.479V29.888H245.479V30.888ZM245.479 73H256.711V71H245.479V73ZM257.711 72V30.888H255.711V72H257.711ZM256.711 31.888H271.615V29.888H256.711V31.888ZM272.609 30.9936L273.473 22.8576L271.485 22.6464L270.621 30.7824L272.609 30.9936ZM272.479 21.752H230.215V23.752H272.479V21.752ZM229.215 22.752V30.888H231.215V22.752H229.215ZM230.215 31.888H245.479V29.888H230.215V31.888ZM244.479 30.888V72H246.479V30.888H244.479ZM278.34 72H277.34V73H278.34V72ZM311.964 72V73H312.964V72H311.964ZM311.964 63.864H312.964V62.864H311.964V63.864ZM289.572 63.864H288.572V64.864H289.572V63.864ZM289.572 51.264V50.264H288.572V51.264H289.572ZM306.492 51.264V52.264H307.492V51.264H306.492ZM306.492 42.84H307.492V41.84H306.492V42.84ZM289.572 42.84H288.572V43.84H289.572V42.84ZM289.572 30.888V29.888H288.572V30.888H289.572ZM310.74 30.888V31.888H311.639L311.734 30.9936L310.74 30.888ZM311.604 22.752L312.598 22.8576L312.716 21.752H311.604V22.752ZM278.34 22.752V21.752H277.34V22.752H278.34ZM278.34 73H311.964V71H278.34V73ZM312.964 72V63.864H310.964V72H312.964ZM311.964 62.864H289.572V64.864H311.964V62.864ZM290.572 63.864V51.264H288.572V63.864H290.572ZM289.572 52.264H306.492V50.264H289.572V52.264ZM307.492 51.264V42.84H305.492V51.264H307.492ZM306.492 41.84H289.572V43.84H306.492V41.84ZM290.572 42.84V30.888H288.572V42.84H290.572ZM289.572 31.888H310.74V29.888H289.572V31.888ZM311.734 30.9936L312.598 22.8576L310.609 22.6464L309.745 30.7824L311.734 30.9936ZM311.604 21.752H278.34V23.752H311.604V21.752ZM277.34 22.752V72H279.34V22.752H277.34ZM370.616 71.496L370.897 72.4557L371.727 72.2129L371.606 71.357L370.616 71.496ZM369.464 63.288L370.454 63.149L370.307 62.0996L369.268 62.3074L369.464 63.288ZM349.592 60.768L350.342 60.1064L350.337 60.1012L349.592 60.768ZM369.68 32.256L369.408 33.2182L370.474 33.5199L370.665 32.4288L369.68 32.256ZM371.12 24.048L372.105 24.2208L372.244 23.4274L371.499 23.1225L371.12 24.048ZM340.376 67.032L339.646 67.7152L339.649 67.7186L340.376 67.032ZM358.232 74.008C362.328 74.008 367.828 73.354 370.897 72.4557L370.335 70.5363C367.5 71.366 362.2 72.008 358.232 72.008V74.008ZM371.606 71.357L370.454 63.149L368.474 63.427L369.626 71.635L371.606 71.357ZM369.268 62.3074C366.435 62.874 362.687 63.296 360.392 63.296V65.296C362.85 65.296 366.733 64.854 369.66 64.2686L369.268 62.3074ZM360.392 63.296C354.966 63.296 352.223 62.2387 350.342 60.1064L348.842 61.4296C351.281 64.1933 354.73 65.296 360.392 65.296V63.296ZM350.337 60.1012C348.149 57.6552 347.064 53.0859 347.064 47.304H345.064C345.064 53.1861 346.139 58.4088 348.847 61.4348L350.337 60.1012ZM347.064 47.304C347.064 42.4455 347.681 38.5032 349.449 35.7899C351.155 33.1719 354.051 31.528 359.096 31.528V29.528C353.557 29.528 349.938 31.3761 347.773 34.6981C345.671 37.9248 345.064 42.3704 345.064 47.304H347.064ZM359.096 31.528C362.067 31.528 365.642 32.1523 369.408 33.2182L369.952 31.2938C366.087 30.1997 362.317 29.528 359.096 29.528V31.528ZM370.665 32.4288L372.105 24.2208L370.135 23.8752L368.695 32.0832L370.665 32.4288ZM371.499 23.1225C368.183 21.766 362.576 20.816 358.232 20.816V22.816C362.384 22.816 367.721 23.738 370.742 24.9735L371.499 23.1225ZM358.232 20.816C349.594 20.816 343.325 23.4825 339.237 28.2772C335.174 33.0433 333.4 39.7564 333.4 47.592H335.4C335.4 40.0196 337.119 33.8447 340.759 29.5748C344.375 25.3334 350.022 22.816 358.232 22.816V20.816ZM333.4 47.592C333.4 56.2809 335.223 62.9876 339.646 67.7152L341.106 66.3488C337.177 62.1484 335.4 56.0391 335.4 47.592H333.4ZM339.649 67.7186C343.578 71.8781 349.362 74.008 358.232 74.008V72.008C349.678 72.008 344.519 69.9619 341.103 66.3454L339.649 67.7186ZM398.615 74.008C406.342 74.008 412.12 71.7069 415.936 67.1031C419.721 62.5362 421.431 55.8733 421.431 47.448H419.431C419.431 55.6547 417.757 61.7718 414.396 65.8269C411.065 69.8451 405.935 72.008 398.615 72.008V74.008ZM421.431 47.448C421.431 39.0225 419.721 32.3428 415.937 27.7584C412.122 23.1366 406.345 20.816 398.615 20.816V22.816C405.932 22.816 411.063 24.9954 414.394 29.0315C417.757 33.1052 419.431 39.2414 419.431 47.448H421.431ZM398.615 20.816C390.884 20.816 385.107 23.1366 381.292 27.7584C377.509 32.3428 375.799 39.0225 375.799 47.448H377.799C377.799 39.2414 379.473 33.1052 382.835 29.0315C386.166 24.9954 391.297 22.816 398.615 22.816V20.816ZM375.799 47.448C375.799 55.8733 377.509 62.5362 381.294 67.1031C385.109 71.7069 390.887 74.008 398.615 74.008V72.008C391.294 72.008 386.164 69.8451 382.834 65.8269C379.473 61.7718 377.799 55.6547 377.799 47.448H375.799ZM398.615 63.224C396.906 63.224 395.525 62.9361 394.407 62.3785C393.299 61.8259 392.394 60.9815 391.669 59.7757C390.188 57.3135 389.463 53.3555 389.463 47.448H387.463C387.463 53.4205 388.177 57.8505 389.955 60.8063C390.858 62.3095 392.037 63.4316 393.514 64.1683C394.981 64.8999 396.687 65.224 398.615 65.224V63.224ZM389.463 47.448C389.463 41.5411 390.188 37.5632 391.67 35.0818C392.396 33.866 393.303 33.0132 394.41 32.4549C395.528 31.8917 396.908 31.6 398.615 31.6V29.6C396.685 29.6 394.978 29.9293 393.51 30.6688C392.033 31.4133 390.856 32.545 389.953 34.0562C388.177 37.0287 387.463 41.4749 387.463 47.448H389.463ZM398.615 31.6C400.321 31.6 401.701 31.8917 402.819 32.4549C403.927 33.0132 404.833 33.866 405.559 35.0818C407.041 37.5632 407.767 41.5411 407.767 47.448H409.767C409.767 41.4749 409.052 37.0287 407.276 34.0562C406.373 32.545 405.196 31.4133 403.719 30.6688C402.251 29.9293 400.544 29.6 398.615 29.6V31.6ZM407.767 47.448C407.767 53.3555 407.041 57.3135 405.561 59.7757C404.835 60.9815 403.93 61.8259 402.822 62.3785C401.704 62.9361 400.323 63.224 398.615 63.224V65.224C400.542 65.224 402.248 64.8999 403.715 64.1683C405.192 63.4316 406.371 62.3095 407.275 60.8063C409.052 57.8505 409.767 53.4205 409.767 47.448H407.767ZM429.019 72H428.019V73H429.019V72ZM438.883 72V73H439.883V72H438.883ZM438.883 42.12L439.681 41.5166L437.883 39.141V42.12H438.883ZM461.491 72L460.694 72.6034L460.994 73H461.491V72ZM470.491 72V73H471.491V72H470.491ZM470.491 22.752H471.491V21.752H470.491V22.752ZM460.627 22.752V21.752H459.627V22.752H460.627ZM460.627 54.288L459.823 54.8827L461.627 57.3214V54.288H460.627ZM437.299 22.752L438.103 22.1573L437.804 21.752H437.299V22.752ZM429.019 22.752V21.752H428.019V22.752H429.019ZM429.019 73H438.883V71H429.019V73ZM439.883 72V42.12H437.883V72H439.883ZM438.086 42.7234L460.694 72.6034L462.289 71.3966L439.681 41.5166L438.086 42.7234ZM461.491 73H470.491V71H461.491V73ZM471.491 72V22.752H469.491V72H471.491ZM470.491 21.752H460.627V23.752H470.491V21.752ZM459.627 22.752V54.288H461.627V22.752H459.627ZM461.431 53.6933L438.103 22.1573L436.495 23.3467L459.823 54.8827L461.431 53.6933ZM437.299 21.752H429.019V23.752H437.299V21.752ZM428.019 22.752V72H430.019V22.752H428.019ZM39.8397 139H38.8397V140H39.8397V139ZM72.8877 139V140H73.8877V139H72.8877ZM72.8877 130.864H73.8877V129.864H72.8877V130.864ZM51.0717 130.864H50.0717V131.864H51.0717V130.864ZM51.0717 89.752H52.0717V88.752H51.0717V89.752ZM39.8397 89.752V88.752H38.8397V89.752H39.8397ZM39.8397 140H72.8877V138H39.8397V140ZM73.8877 139V130.864H71.8877V139H73.8877ZM72.8877 129.864H51.0717V131.864H72.8877V129.864ZM52.0717 130.864V89.752H50.0717V130.864H52.0717ZM51.0717 88.752H39.8397V90.752H51.0717V88.752ZM38.8397 89.752V139H40.8397V89.752H38.8397ZM99.224 141.008C106.952 141.008 112.729 138.707 116.545 134.103C120.33 129.536 122.04 122.873 122.04 114.448H120.04C120.04 122.655 118.366 128.772 115.005 132.827C111.675 136.845 106.544 139.008 99.224 139.008V141.008ZM122.04 114.448C122.04 106.023 120.33 99.3428 116.546 94.7584C112.732 90.1366 106.954 87.816 99.224 87.816V89.816C106.542 89.816 111.672 91.9954 115.004 96.0315C118.366 100.105 120.04 106.241 120.04 114.448H122.04ZM99.224 87.816C91.4936 87.816 85.7164 90.1366 81.9017 94.7584C78.118 99.3428 76.408 106.023 76.408 114.448H78.408C78.408 106.241 80.0819 100.105 83.4442 96.0315C86.7755 91.9954 91.9063 89.816 99.224 89.816V87.816ZM76.408 114.448C76.408 122.873 78.118 129.536 81.903 134.103C85.7187 138.707 91.4961 141.008 99.224 141.008V139.008C91.9038 139.008 86.7732 136.845 83.4429 132.827C80.082 128.772 78.408 122.655 78.408 114.448H76.408ZM99.224 130.224C97.5152 130.224 96.1344 129.936 95.0161 129.378C93.9081 128.826 93.0031 127.982 92.278 126.776C90.7974 124.314 90.072 120.356 90.072 114.448H88.072C88.072 120.42 88.7865 124.85 90.564 127.806C91.4679 129.309 92.6463 130.432 94.1236 131.168C95.5906 131.9 97.2967 132.224 99.224 132.224V130.224ZM90.072 114.448C90.072 108.541 90.7972 104.563 92.2795 102.082C93.0057 100.866 93.9119 100.013 95.0199 99.4549C96.1375 98.8917 97.5172 98.6 99.224 98.6V96.6C97.2948 96.6 95.5874 96.9293 94.1198 97.6688C92.6426 98.4133 91.4652 99.545 90.5625 101.056C88.7868 104.029 88.072 108.475 88.072 114.448H90.072ZM99.224 98.6C100.931 98.6 102.31 98.8917 103.428 99.4549C104.536 100.013 105.442 100.866 106.168 102.082C107.651 104.563 108.376 108.541 108.376 114.448H110.376C110.376 108.475 109.661 104.029 107.885 101.056C106.983 99.545 105.805 98.4133 104.328 97.6688C102.861 96.9293 101.153 96.6 99.224 96.6V98.6ZM108.376 114.448C108.376 120.356 107.651 124.314 106.17 126.776C105.445 127.982 104.54 128.826 103.432 129.378C102.314 129.936 100.933 130.224 99.224 130.224V132.224C101.151 132.224 102.857 131.9 104.324 131.168C105.802 130.432 106.98 129.309 107.884 127.806C109.661 124.85 110.376 120.42 110.376 114.448H108.376ZM159.365 135.328L160.049 136.058L160.051 136.055L159.365 135.328ZM158.141 99.184L157.882 100.15L158.905 100.424L159.12 99.3866L158.141 99.184ZM159.869 90.832L160.848 91.0346L161.027 90.1693L160.19 89.8851L159.869 90.832ZM129.557 128.92L129.887 127.976L128.803 127.597L128.577 128.722L129.557 128.92ZM127.829 137.488L126.849 137.29L126.676 138.146L127.5 138.432L127.829 137.488ZM144.173 141.008C151.36 141.008 156.334 139.54 160.049 136.058L158.681 134.598C155.484 137.596 151.097 139.008 144.173 139.008V141.008ZM160.051 136.055C162.867 133.396 164.469 129.593 164.469 124.96H162.469C162.469 129.111 161.047 132.364 158.678 134.601L160.051 136.055ZM164.469 124.96C164.469 119.905 162.803 116.444 160.23 114.005C157.701 111.607 154.375 110.277 151.202 109.29C149.618 108.798 148.01 108.374 146.566 107.961C145.099 107.541 143.781 107.128 142.67 106.64C141.555 106.149 140.722 105.613 140.171 104.988C139.644 104.39 139.341 103.674 139.341 102.712H137.341C137.341 104.162 137.823 105.349 138.67 106.311C139.494 107.245 140.624 107.925 141.864 108.47C143.109 109.018 144.539 109.462 146.017 109.884C147.517 110.313 149.051 110.716 150.608 111.2C153.717 112.166 156.672 113.388 158.855 115.456C160.993 117.483 162.469 120.403 162.469 124.96H164.469ZM139.341 102.712C139.341 101.392 139.74 100.416 140.667 99.7244C141.655 98.9868 143.395 98.456 146.333 98.456V96.456C143.223 96.456 140.966 97.0052 139.471 98.1216C137.913 99.2841 137.341 100.936 137.341 102.712H139.341ZM146.333 98.456C149.682 98.456 153.913 99.0869 157.882 100.15L158.4 98.218C154.304 97.1211 149.896 96.456 146.333 96.456V98.456ZM159.12 99.3866L160.848 91.0346L158.89 90.6294L157.162 98.9814L159.12 99.3866ZM160.19 89.8851C156.247 88.5457 150.949 87.816 146.117 87.816V89.816C150.788 89.816 155.859 90.5263 159.547 91.7789L160.19 89.8851ZM146.117 87.816C140.743 87.816 135.92 88.9352 132.412 91.4503C128.856 94 126.757 97.9124 126.757 103.216H128.757C128.757 98.5116 130.581 95.224 133.577 93.0757C136.622 90.8928 140.978 89.816 146.117 89.816V87.816ZM126.757 103.216C126.757 108.304 128.42 111.789 130.994 114.236C133.525 116.642 136.854 117.964 140.031 118.924C141.621 119.405 143.223 119.809 144.673 120.201C146.143 120.598 147.463 120.985 148.577 121.444C149.697 121.906 150.528 122.408 151.074 122.994C151.592 123.55 151.885 124.211 151.885 125.104H153.885C153.885 123.693 153.392 122.548 152.536 121.63C151.708 120.742 150.576 120.105 149.34 119.595C148.098 119.083 146.67 118.669 145.195 118.27C143.701 117.866 142.162 117.479 140.61 117.01C137.506 116.071 134.552 114.859 132.372 112.786C130.234 110.753 128.757 107.812 128.757 103.216H126.757ZM151.885 125.104C151.885 127.105 151.228 128.31 149.98 129.088C148.626 129.933 146.435 130.368 143.165 130.368V132.368C146.519 132.368 149.188 131.939 151.038 130.786C152.994 129.566 153.885 127.639 153.885 125.104H151.885ZM143.165 130.368C139.684 130.368 134.108 129.453 129.887 127.976L129.226 129.864C133.646 131.411 139.445 132.368 143.165 132.368V130.368ZM128.577 128.722L126.849 137.29L128.809 137.686L130.537 129.118L128.577 128.722ZM127.5 138.432C132.591 140.203 137.817 141.008 144.173 141.008V139.008C138.001 139.008 133.002 138.229 128.157 136.544L127.5 138.432ZM199.213 139H198.213V140H199.213V139ZM210.445 139V140H211.445V139H210.445ZM210.445 97.888V96.888H209.445V97.888H210.445ZM225.349 97.888V98.888H226.249L226.344 97.9936L225.349 97.888ZM226.213 89.752L227.208 89.8576L227.325 88.752H226.213V89.752ZM183.949 89.752V88.752H182.949V89.752H183.949ZM183.949 97.888H182.949V98.888H183.949V97.888ZM199.213 97.888H200.213V96.888H199.213V97.888ZM199.213 140H210.445V138H199.213V140ZM211.445 139V97.888H209.445V139H211.445ZM210.445 98.888H225.349V96.888H210.445V98.888ZM226.344 97.9936L227.208 89.8576L225.219 89.6464L224.355 97.7824L226.344 97.9936ZM226.213 88.752H183.949V90.752H226.213V88.752ZM182.949 89.752V97.888H184.949V89.752H182.949ZM183.949 98.888H199.213V96.888H183.949V98.888ZM198.213 97.888V139H200.213V97.888H198.213ZM266.994 135.112L266.309 134.383L266.303 134.389L266.994 135.112ZM271.818 89.752H272.818V88.752H271.818V89.752ZM261.882 89.752V88.752H260.882V89.752H261.882ZM259.506 129.136L258.799 128.429L258.791 128.437L258.783 128.446L259.506 129.136ZM245.178 129.064L245.901 128.374L245.893 128.365L245.885 128.357L245.178 129.064ZM242.802 89.752H243.802V88.752H242.802V89.752ZM231.642 89.752V88.752H230.642V89.752H231.642ZM236.394 135.256L237.093 134.541L237.093 134.541L236.394 135.256ZM251.874 141.008C258.362 141.008 264.194 139.17 267.685 135.835L266.303 134.389C263.314 137.246 258.059 139.008 251.874 139.008V141.008ZM267.679 135.841C271.582 132.172 272.818 126.783 272.818 120.424H270.818C270.818 126.593 269.606 131.284 266.309 134.383L267.679 135.841ZM272.818 120.424V89.752H270.818V120.424H272.818ZM271.818 88.752H261.882V90.752H271.818V88.752ZM260.882 89.752V121H262.882V89.752H260.882ZM260.882 121C260.882 124.745 260.236 126.991 258.799 128.429L260.213 129.843C262.232 127.825 262.882 124.887 262.882 121H260.882ZM258.783 128.446C257.545 129.742 255.5 130.44 252.378 130.44V132.44C255.736 132.44 258.443 131.698 260.229 129.826L258.783 128.446ZM252.378 130.44C249.272 130.44 247.147 129.678 245.901 128.374L244.455 129.754C246.234 131.618 249.004 132.44 252.378 132.44V130.44ZM245.885 128.357C244.449 126.921 243.802 124.604 243.802 120.928H241.802C241.802 124.74 242.451 127.751 244.471 129.771L245.885 128.357ZM243.802 120.928V89.752H241.802V120.928H243.802ZM242.802 88.752H231.642V90.752H242.802V88.752ZM230.642 89.752V120.928H232.642V89.752H230.642ZM230.642 120.928C230.642 128.142 232.196 132.549 235.695 135.971L237.093 134.541C234.113 131.627 232.642 127.826 232.642 120.928H230.642ZM235.695 135.971C239.28 139.478 244.925 141.008 251.874 141.008V139.008C245.143 139.008 240.132 137.514 237.093 134.541L235.695 135.971ZM294.594 139H293.594V140H294.594V139ZM305.826 139V140H306.826V139H305.826ZM305.826 118.984L304.971 118.466L304.826 118.705V118.984H305.826ZM323.538 89.752L324.394 90.2702L325.313 88.752H323.538V89.752ZM312.306 89.752V88.752H311.723L311.436 89.2599L312.306 89.752ZM301.074 109.624L300.196 110.102L301.057 111.687L301.945 110.116L301.074 109.624ZM290.274 89.752L291.153 89.2745L290.869 88.752H290.274V89.752ZM277.602 89.752V88.752H275.862L276.738 90.2555L277.602 89.752ZM294.594 118.912H295.594V118.642L295.458 118.409L294.594 118.912ZM294.594 140H305.826V138H294.594V140ZM306.826 139V118.984H304.826V139H306.826ZM306.682 119.502L324.394 90.2702L322.683 89.2338L304.971 118.466L306.682 119.502ZM323.538 88.752H312.306V90.752H323.538V88.752ZM311.436 89.2599L300.204 109.132L301.945 110.116L313.177 90.2441L311.436 89.2599ZM301.953 109.146L291.153 89.2745L289.396 90.2295L300.196 110.102L301.953 109.146ZM290.274 88.752H277.602V90.752H290.274V88.752ZM276.738 90.2555L293.73 119.415L295.458 118.409L278.466 89.2485L276.738 90.2555ZM293.594 118.912V139H295.594V118.912H293.594ZM348.06 141.008C355.788 141.008 361.565 138.707 365.381 134.103C369.166 129.536 370.876 122.873 370.876 114.448H368.876C368.876 122.655 367.202 128.772 363.841 132.827C360.511 136.845 355.38 139.008 348.06 139.008V141.008ZM370.876 114.448C370.876 106.023 369.166 99.3428 365.382 94.7584C361.567 90.1366 355.79 87.816 348.06 87.816V89.816C355.378 89.816 360.508 91.9954 363.84 96.0315C367.202 100.105 368.876 106.241 368.876 114.448H370.876ZM348.06 87.816C340.33 87.816 334.552 90.1366 330.738 94.7584C326.954 99.3428 325.244 106.023 325.244 114.448H327.244C327.244 106.241 328.918 100.105 332.28 96.0315C335.611 91.9954 340.742 89.816 348.06 89.816V87.816ZM325.244 114.448C325.244 122.873 326.954 129.536 330.739 134.103C334.555 138.707 340.332 141.008 348.06 141.008V139.008C340.74 139.008 335.609 136.845 332.279 132.827C328.918 128.772 327.244 122.655 327.244 114.448H325.244ZM348.06 130.224C346.351 130.224 344.97 129.936 343.852 129.378C342.744 128.826 341.839 127.982 341.114 126.776C339.633 124.314 338.908 120.356 338.908 114.448H336.908C336.908 120.42 337.622 124.85 339.4 127.806C340.304 129.309 341.482 130.432 342.96 131.168C344.427 131.9 346.133 132.224 348.06 132.224V130.224ZM338.908 114.448C338.908 108.541 339.633 104.563 341.115 102.082C341.842 100.866 342.748 100.013 343.856 99.4549C344.973 98.8917 346.353 98.6 348.06 98.6V96.6C346.131 96.6 344.423 96.9293 342.956 97.6688C341.479 98.4133 340.301 99.545 339.398 101.056C337.623 104.029 336.908 108.475 336.908 114.448H338.908ZM348.06 98.6C349.767 98.6 351.146 98.8917 352.264 99.4549C353.372 100.013 354.278 100.866 355.004 102.082C356.487 104.563 357.212 108.541 357.212 114.448H359.212C359.212 108.475 358.497 104.029 356.721 101.056C355.819 99.545 354.641 98.4133 353.164 97.6688C351.696 96.9293 349.989 96.6 348.06 96.6V98.6ZM357.212 114.448C357.212 120.356 356.486 124.314 355.006 126.776C354.281 127.982 353.376 128.826 352.268 129.378C351.15 129.936 349.769 130.224 348.06 130.224V132.224C349.987 132.224 351.693 131.9 353.16 131.168C354.638 130.432 355.816 129.309 356.72 127.806C358.497 124.85 359.212 120.42 359.212 114.448H357.212ZM408.201 135.328L408.885 136.058L408.887 136.055L408.201 135.328ZM406.977 99.184L406.718 100.15L407.741 100.424L407.956 99.3866L406.977 99.184ZM408.705 90.832L409.684 91.0346L409.863 90.1693L409.026 89.8851L408.705 90.832ZM378.393 128.92L378.723 127.976L377.639 127.597L377.412 128.722L378.393 128.92ZM376.665 137.488L375.684 137.29L375.512 138.146L376.336 138.432L376.665 137.488ZM393.009 141.008C400.196 141.008 405.17 139.54 408.885 136.058L407.517 134.598C404.319 137.596 399.933 139.008 393.009 139.008V141.008ZM408.887 136.055C411.703 133.396 413.305 129.593 413.305 124.96H411.305C411.305 129.111 409.883 132.364 407.514 134.601L408.887 136.055ZM413.305 124.96C413.305 119.905 411.639 116.444 409.066 114.005C406.537 111.607 403.211 110.277 400.038 109.29C398.454 108.798 396.846 108.374 395.402 107.961C393.935 107.541 392.617 107.128 391.506 106.64C390.39 106.149 389.557 105.613 389.007 104.988C388.48 104.39 388.177 103.674 388.177 102.712H386.177C386.177 104.162 386.659 105.349 387.506 106.311C388.33 107.245 389.46 107.925 390.7 108.47C391.945 109.018 393.375 109.462 394.853 109.884C396.353 110.313 397.887 110.716 399.444 111.2C402.553 112.166 405.508 113.388 407.691 115.456C409.829 117.483 411.305 120.403 411.305 124.96H413.305ZM388.177 102.712C388.177 101.392 388.576 100.416 389.503 99.7244C390.491 98.9868 392.231 98.456 395.169 98.456V96.456C392.059 96.456 389.802 97.0052 388.307 98.1216C386.749 99.2841 386.177 100.936 386.177 102.712H388.177ZM395.169 98.456C398.518 98.456 402.749 99.0869 406.718 100.15L407.235 98.218C403.14 97.1211 398.732 96.456 395.169 96.456V98.456ZM407.956 99.3866L409.684 91.0346L407.725 90.6294L405.997 98.9814L407.956 99.3866ZM409.026 89.8851C405.082 88.5457 399.785 87.816 394.953 87.816V89.816C399.624 89.816 404.695 90.5263 408.383 91.7789L409.026 89.8851ZM394.953 87.816C389.579 87.816 384.756 88.9352 381.248 91.4503C377.692 94 375.593 97.9124 375.593 103.216H377.593C377.593 98.5116 379.417 95.224 382.413 93.0757C385.458 90.8928 389.814 89.816 394.953 89.816V87.816ZM375.593 103.216C375.593 108.304 377.256 111.789 379.83 114.236C382.361 116.642 385.69 117.964 388.867 118.924C390.457 119.405 392.059 119.809 393.509 120.201C394.979 120.598 396.299 120.985 397.413 121.444C398.533 121.906 399.364 122.408 399.91 122.994C400.428 123.55 400.721 124.211 400.721 125.104H402.721C402.721 123.693 402.228 122.548 401.372 121.63C400.544 120.742 399.412 120.105 398.176 119.595C396.934 119.083 395.506 118.669 394.031 118.27C392.536 117.866 390.998 117.479 389.446 117.01C386.342 116.071 383.388 114.859 381.208 112.786C379.07 110.753 377.593 107.812 377.593 103.216H375.593ZM400.721 125.104C400.721 127.105 400.064 128.31 398.816 129.088C397.462 129.933 395.271 130.368 392.001 130.368V132.368C395.355 132.368 398.024 131.939 399.874 130.786C401.83 129.566 402.721 127.639 402.721 125.104H400.721ZM392.001 130.368C388.52 130.368 382.944 129.453 378.723 127.976L378.062 129.864C382.482 131.411 388.281 132.368 392.001 132.368V130.368ZM377.412 128.722L375.684 137.29L377.645 137.686L379.373 129.118L377.412 128.722ZM376.336 138.432C381.427 140.203 386.653 141.008 393.009 141.008V139.008C386.837 139.008 381.838 138.229 376.993 136.544L376.336 138.432ZM422.085 123.592L421.087 123.639L421.131 124.592H422.085V123.592ZM429.717 123.592V124.592H430.672L430.716 123.639L429.717 123.592ZM431.301 89.752L432.3 89.7988L432.349 88.752H431.301V89.752ZM420.501 89.752V88.752H419.454L419.503 89.7988L420.501 89.752ZM422.085 124.592H429.717V122.592H422.085V124.592ZM430.716 123.639L432.3 89.7988L430.303 89.7052L428.719 123.545L430.716 123.639ZM431.301 88.752H420.501V90.752H431.301V88.752ZM419.503 89.7988L421.087 123.639L423.084 123.545L421.5 89.7052L419.503 89.7988ZM425.829 141.008H426.333V139.008H425.829V141.008ZM426.333 141.008C428.163 141.008 429.775 140.651 430.926 139.618C432.1 138.564 432.589 136.993 432.589 135.04H430.589C430.589 136.687 430.179 137.6 429.589 138.13C428.976 138.681 427.96 139.008 426.333 139.008V141.008ZM432.589 135.04V134.176H430.589V135.04H432.589ZM432.589 134.176C432.589 132.223 432.1 130.652 430.926 129.598C429.775 128.565 428.163 128.208 426.333 128.208V130.208C427.96 130.208 428.976 130.535 429.589 131.086C430.179 131.616 430.589 132.529 430.589 134.176H432.589ZM426.333 128.208H425.829V130.208H426.333V128.208ZM425.829 128.208C424 128.208 422.388 128.565 421.237 129.598C420.063 130.652 419.573 132.223 419.573 134.176H421.573C421.573 132.529 421.984 131.616 422.574 131.086C423.187 130.535 424.203 130.208 425.829 130.208V128.208ZM419.573 134.176V135.04H421.573V134.176H419.573ZM419.573 135.04C419.573 136.993 420.063 138.564 421.237 139.618C422.388 140.651 424 141.008 425.829 141.008V139.008C424.203 139.008 423.187 138.681 422.574 138.13C421.984 137.6 421.573 136.687 421.573 135.04H419.573Z" fill="#019DF4"/>
</svg>
