<svg width="456" height="75" viewBox="0 0 456 75" fill="none" xmlns="http://www.w3.org/2000/svg">
<path d="M7 75C3.134 75 -3.1458e-07 71.866 -7.02635e-07 68L-6.8256e-06 7C-7.21365e-06 3.134 3.134 -5.96564e-08 6.99999 -1.33246e-07L149 -2.83624e-06L149 75L7 75Z" fill="#922859"/>
<rect x="149" y="75" width="75" height="146" transform="rotate(-90 149 75)" fill="#E63780"/>
<path d="M449 -6.21955e-08C452.866 -2.78459e-08 456 3.13401 456 7L456 68C456 71.866 452.866 75 449 75L295 75L295 -1.4305e-06L449 -6.21955e-08Z" fill="#FBC7DE"/>
<path d="M23.7587 55.2233H31.6627V53.5593H28.9587V38.4793C28.9587 37.5433 28.5947 37.2573 27.4767 37.2573C26.5407 37.2573 24.8767 37.3873 23.8107 37.5433V38.9993H26.8267V53.5593H23.7587V55.2233ZM41.9524 55.5873C46.3724 55.5873 48.0624 52.1553 48.0624 46.3573C48.0624 40.5593 46.3724 37.1013 41.9524 37.1013C37.5324 37.1013 35.8424 40.5593 35.8424 46.3573C35.8424 52.1553 37.5324 55.5873 41.9524 55.5873ZM41.9524 53.7413C39.0664 53.7413 38.1044 51.3233 38.1044 46.3573C38.1044 41.3913 39.0664 38.9473 41.9524 38.9473C44.8384 38.9473 45.8004 41.3913 45.8004 46.3573C45.8004 51.3233 44.8384 53.7413 41.9524 53.7413ZM56.2981 55.5873C60.7181 55.5873 62.4081 52.1553 62.4081 46.3573C62.4081 40.5593 60.7181 37.1013 56.2981 37.1013C51.8781 37.1013 50.1881 40.5593 50.1881 46.3573C50.1881 52.1553 51.8781 55.5873 56.2981 55.5873ZM56.2981 53.7413C53.4121 53.7413 52.4501 51.3233 52.4501 46.3573C52.4501 41.3913 53.4121 38.9473 56.2981 38.9473C59.1841 38.9473 60.1461 41.3913 60.1461 46.3573C60.1461 51.3233 59.1841 53.7413 56.2981 53.7413ZM70.9324 55.2233H72.9864V41.8853L78.1084 51.4533H80.0324L85.2064 41.9893V55.2233H87.3904V37.4393H85.4144L79.1484 49.1393L72.9604 37.4393H70.9324V55.2233ZM97.1619 55.5873C100.334 55.5873 102.128 53.4293 102.128 48.8013C102.128 44.2253 100.282 42.1193 97.1879 42.1193C95.9399 42.1193 94.5619 42.5613 93.5219 43.1333V36.6333H91.3639V55.2233H93.1059L93.2099 54.3653C94.2239 55.0673 95.7839 55.5873 97.1619 55.5873ZM96.6679 53.7933C95.6279 53.7933 94.3799 53.4033 93.5219 52.8833V44.6933C94.3799 44.2773 95.6279 43.9653 96.6159 43.9653C98.8779 43.9653 99.8659 45.3693 99.8659 48.8013C99.8659 52.4933 98.8259 53.7933 96.6679 53.7933ZM105.1 61.0733H107.258V54.6253C108.194 55.2233 109.572 55.5873 110.898 55.5873C113.94 55.5873 115.864 53.5853 115.864 48.8013C115.864 44.7453 114.278 42.1193 110.976 42.1193C109.806 42.1193 108.324 42.5353 106.998 43.4193L106.894 42.4833H105.1V61.0733ZM110.352 53.7933C109.26 53.7933 108.012 53.4553 107.258 53.0133V44.8233C108.246 44.3033 109.52 43.9653 110.508 43.9653C112.64 43.9653 113.602 45.5253 113.602 48.7753C113.602 52.4153 112.666 53.7933 110.352 53.7933ZM122.191 55.5873C125.259 55.5873 127.339 54.3913 127.339 51.6873C127.339 47.1373 120.241 48.4893 120.241 45.6293C120.241 44.4333 121.203 43.8353 123.023 43.8353C124.063 43.8353 125.233 43.9913 126.377 44.2513L126.559 42.6653C125.545 42.3533 124.115 42.1193 122.841 42.1193C120.137 42.1193 118.213 43.3153 118.213 45.7853C118.213 50.4653 125.311 48.9833 125.311 51.8433C125.311 53.1433 124.193 53.8453 122.113 53.8453C120.995 53.8453 119.591 53.6633 118.551 53.3773L118.447 55.0413C119.409 55.3533 120.969 55.5873 122.191 55.5873Z" fill="#FBC7DE"/>
<path d="M36.4929 19.5723C36.3663 19.5723 36.2408 19.5242 36.1445 19.4291C35.9518 19.2388 35.9518 18.93 36.1445 18.7397L36.1607 18.7237C37.3034 17.6015 38.6312 16.7198 40.1072 16.1021C41.6437 15.4598 43.2777 15.1339 44.9615 15.1339C46.6334 15.1339 48.2576 15.4555 49.7888 16.0914C51.2518 16.6985 52.5666 17.5641 53.6974 18.6649C53.8911 18.8541 53.8932 19.1619 53.7028 19.3543C53.5113 19.5456 53.1996 19.5488 53.0048 19.3596C51.9638 18.3475 50.754 17.5503 49.4068 16.9913C47.9968 16.4067 46.5013 16.1096 44.9615 16.1096C43.4098 16.1096 41.9067 16.4099 40.4913 17.0009C39.1322 17.5695 37.9094 18.3817 36.8576 19.4141L36.8413 19.4301C36.745 19.5253 36.6195 19.5723 36.4929 19.5723Z" fill="#FBC7DE"/>
<path d="M38.739 22.3199C38.6059 22.3199 38.4739 22.2675 38.3765 22.1628C38.1947 21.9683 38.2033 21.6669 38.3949 21.4831C39.2486 20.6441 40.229 19.9911 41.3176 19.5326C42.4701 19.0474 43.694 18.8016 44.9568 18.8016C46.2044 18.8016 47.4153 19.0421 48.558 19.5177C49.638 19.9665 50.6097 20.6046 51.4484 21.4168C51.6431 21.6049 51.6464 21.9137 51.4548 22.1061C51.2633 22.2985 50.9517 22.3017 50.7569 22.1125C50.0081 21.3869 49.1391 20.8162 48.1739 20.4154C47.1535 19.9911 46.0703 19.7752 44.9557 19.7752C43.8271 19.7752 42.732 19.9954 41.7029 20.4282C40.729 20.8386 39.8525 21.4232 39.0972 22.1649L39.0723 22.1895C38.9792 22.2771 38.8591 22.3199 38.739 22.3199Z" fill="#FBC7DE"/>
<path d="M40.9852 25.0684C40.8586 25.0684 40.7331 25.0214 40.6368 24.9262C40.4442 24.736 40.4442 24.4272 40.6368 24.2369C41.1843 23.6951 41.8206 23.2676 42.5283 22.9651C43.2966 22.637 44.1125 22.4714 44.9544 22.4714C45.7779 22.4714 46.5765 22.6317 47.3296 22.9459C48.0243 23.2344 48.6552 23.647 49.2017 24.1707C49.3975 24.3577 49.4019 24.6665 49.2125 24.86C49.0231 25.0534 48.7104 25.0577 48.5145 24.8707C48.0568 24.4314 47.5287 24.0862 46.9466 23.8447C46.3146 23.5807 45.6448 23.4461 44.9544 23.4461C44.2478 23.4461 43.5639 23.585 42.9211 23.8597C42.3292 24.1129 41.7957 24.472 41.3358 24.9262C41.2384 25.0203 41.1118 25.0684 40.9852 25.0684Z" fill="#FBC7DE"/>
<path d="M44.9231 29.7918C43.6744 29.7918 42.958 29.0843 42.958 27.851C42.958 26.6177 43.6744 25.9102 44.9231 25.9102C46.1719 25.9102 46.8882 26.6177 46.8882 27.851C46.8882 29.0843 46.1719 29.7918 44.9231 29.7918ZM44.922 26.8849C44.2273 26.8849 43.9438 27.1649 43.9438 27.851C43.9438 28.5371 44.2273 28.8171 44.922 28.8171C45.6168 28.8171 45.9003 28.5371 45.9003 27.851C45.9003 27.1649 45.6178 26.8849 44.922 26.8849Z" fill="#FBC7DE"/>
<path d="M63.2513 27.948H64.5863V17.688H63.2513V27.948ZM66.9224 27.948H68.1674V21.963C68.7674 21.678 69.5624 21.483 70.2224 21.483C70.7624 21.483 71.1524 21.603 71.4074 21.858C71.6624 22.113 71.7674 22.473 71.7674 23.103V27.948H73.0124V22.953C73.0124 22.038 72.8024 21.438 72.3974 21.033C71.9774 20.598 71.3474 20.388 70.5524 20.388C69.6974 20.388 68.7824 20.673 68.0174 21.138L67.9574 20.598H66.9224V27.948ZM77.6316 28.158C78.1716 28.158 78.7566 28.068 79.1466 27.963L79.0866 27.048C78.7266 27.123 78.2316 27.168 77.9766 27.168C77.4516 27.168 77.1966 27.063 77.0316 26.883C76.8216 26.658 76.7766 26.298 76.7766 25.593V21.513H78.7116V20.598H76.7766V18.648C76.3866 18.648 75.8916 18.753 75.5316 18.873V20.613L74.1966 20.808V21.513H75.5316V25.758C75.5316 26.673 75.6366 27.168 75.9966 27.588C76.3266 27.963 76.9116 28.158 77.6316 28.158ZM83.7551 28.158C84.4301 28.158 85.3001 28.053 85.9301 27.873L85.8101 26.943C85.2401 27.063 84.5201 27.138 83.9951 27.138C83.0651 27.138 82.5101 26.943 82.1201 26.583C81.6851 26.178 81.4751 25.518 81.4751 24.708H86.2151C86.3351 24.708 86.3951 24.663 86.3951 24.543V24.258C86.3951 21.843 85.4051 20.388 83.3501 20.388C81.4751 20.388 80.1701 21.663 80.1701 24.288C80.1701 25.608 80.4701 26.613 81.1301 27.273C81.7301 27.873 82.6151 28.158 83.7551 28.158ZM81.4751 23.793C81.4901 22.308 82.1051 21.393 83.3501 21.393C84.5801 21.393 85.1201 22.383 85.1651 23.793H81.4751ZM88.148 27.948H89.393V22.008C89.918 21.678 90.533 21.513 91.178 21.513C91.388 21.513 91.658 21.528 91.823 21.543V20.433C91.658 20.403 91.478 20.388 91.343 20.388C90.698 20.388 89.963 20.643 89.258 21.228L89.183 20.598H88.148V27.948ZM93.1724 27.948H94.4174V21.963C95.0174 21.678 95.8124 21.483 96.4724 21.483C97.0124 21.483 97.4024 21.603 97.6574 21.858C97.9124 22.113 98.0174 22.473 98.0174 23.103V27.948H99.2624V22.953C99.2624 22.038 99.0524 21.438 98.6474 21.033C98.2274 20.598 97.5974 20.388 96.8024 20.388C95.9474 20.388 95.0324 20.673 94.2674 21.138L94.2074 20.598H93.1724V27.948ZM104.527 28.158C105.202 28.158 106.072 28.053 106.702 27.873L106.582 26.943C106.012 27.063 105.292 27.138 104.767 27.138C103.837 27.138 103.282 26.943 102.892 26.583C102.457 26.178 102.247 25.518 102.247 24.708H106.987C107.107 24.708 107.167 24.663 107.167 24.543V24.258C107.167 21.843 106.177 20.388 104.122 20.388C102.247 20.388 100.942 21.663 100.942 24.288C100.942 25.608 101.242 26.613 101.902 27.273C102.502 27.873 103.387 28.158 104.527 28.158ZM102.247 23.793C102.262 22.308 102.877 21.393 104.122 21.393C105.352 21.393 105.892 22.383 105.937 23.793H102.247ZM111.47 28.158C112.01 28.158 112.595 28.068 112.985 27.963L112.925 27.048C112.565 27.123 112.07 27.168 111.815 27.168C111.29 27.168 111.035 27.063 110.87 26.883C110.66 26.658 110.615 26.298 110.615 25.593V21.513H112.55V20.598H110.615V18.648C110.225 18.648 109.73 18.753 109.37 18.873V20.613L108.035 20.808V21.513H109.37V25.758C109.37 26.673 109.475 27.168 109.835 27.588C110.165 27.963 110.75 28.158 111.47 28.158Z" fill="#FBC7DE"/>
<path fill-rule="evenodd" clip-rule="evenodd" d="M336.802 37.9774C336.802 38.299 336.59 38.5402 336.523 38.5614H324.753V32.9712L336.48 32.967C336.573 33.0008 336.802 33.2632 336.802 33.5552V37.9774ZM334.571 51.7011H324.757V40.4403H334.851V51.1171C334.847 51.4387 334.635 51.6799 334.571 51.7011ZM312.796 51.1171V40.4403H322.818V51.7011H313.097C313.008 51.6757 312.796 51.4387 312.796 51.1171ZM310.934 33.5509C310.934 33.259 311.158 32.9966 311.213 32.967H322.823V38.5572H311.23C311.142 38.5233 310.938 38.2906 310.938 37.9732V33.5509H310.934ZM316.394 26.9536C316.94 26.1368 317.579 25.7306 318.303 25.7306C318.772 25.7306 319.284 25.9041 319.826 26.2469C320.927 26.9409 322.048 29.3445 322.59 30.868C320.948 30.9992 318.209 30.9823 317.122 30.2925C316.432 29.8566 316.017 29.353 315.899 28.8029C315.776 28.2443 315.945 27.6222 316.394 26.9536ZM327.821 26.2426C329.201 25.3709 330.356 25.6079 331.253 26.9494C331.702 27.6222 331.871 28.24 331.749 28.7944C331.63 29.3445 331.215 29.8481 330.525 30.284C329.433 30.9738 326.695 30.9907 325.053 30.8595C325.599 29.3403 326.721 26.9409 327.821 26.2426ZM336.527 31.088H332.54C333.103 30.5252 333.492 29.8862 333.645 29.188C333.873 28.1427 333.607 27.0171 332.879 25.9253C331.393 23.7036 329.053 23.2211 326.767 24.6684C325.519 25.4598 324.511 27.2287 323.826 28.7733C323.144 27.2287 322.133 25.4555 320.884 24.6684C318.599 23.2211 316.258 23.7036 314.773 25.9253C314.045 27.0171 313.778 28.1427 314.007 29.188C314.159 29.8862 314.549 30.5252 315.107 31.088H311.213C310.054 31.088 309 32.2645 309 33.5552V37.9774C309 39.1792 309.825 40.2076 310.862 40.4022V51.1171C310.862 52.4544 311.878 53.5843 313.076 53.5843H334.571C335.769 53.5843 336.785 52.4544 336.785 51.1171V40.4107C337.868 40.2583 338.74 39.2131 338.74 37.9732V33.5509C338.74 32.2603 337.686 31.088 336.527 31.088Z" fill="#922859"/>
<path d="M355.874 57.9156C357.974 57.9156 360.886 57.4956 362.706 56.9356V47.1636H355.678V50.2996H358.366V54.3316C357.694 54.4436 356.742 54.5276 356.042 54.5276C354.194 54.5276 353.046 53.9676 352.346 52.9876C351.506 51.8116 351.226 50.0476 351.226 47.8916C351.226 43.7196 352.822 41.4236 356.686 41.4236C358.198 41.4236 359.85 41.7316 361.222 42.1236L361.782 38.9316C360.55 38.3996 358.282 38.0076 356.378 38.0076C349.854 38.0076 346.69 42.0676 346.69 48.0596C346.69 54.1356 349.014 57.9156 355.874 57.9156ZM366.287 57.5236H370.655V50.5796H373.063L376.591 57.5236H381.519L377.375 49.9916C379.531 48.9836 380.623 46.9116 380.623 44.3076C380.623 42.2916 380.007 40.8356 379.027 39.9116C377.767 38.7356 375.947 38.3716 372.867 38.3716H366.287V57.5236ZM370.655 47.4156V41.5356H372.615C374.043 41.5356 374.967 41.7036 375.527 42.2356C375.975 42.6836 376.199 43.3836 376.199 44.3636C376.199 45.4276 375.947 46.2676 375.387 46.7436C374.827 47.2196 374.043 47.4156 372.587 47.4156H370.655ZM382.511 57.5236H386.683L388.167 52.7076H394.383L395.979 57.5236H400.655L393.739 38.3716H388.923L382.511 57.5236ZM389.175 49.5436L391.163 43.1596H391.219L393.319 49.5436H389.175ZM405.734 57.5236H410.102V41.5356H415.898L416.234 38.3716H399.798V41.5356H405.734V57.5236ZM418.569 57.5236H422.937V38.3716H418.569V57.5236ZM432.783 57.9156C435.527 57.9156 437.347 57.3556 438.691 56.0956C439.699 55.1436 440.287 53.7716 440.287 52.0636C440.287 44.5876 430.515 47.1636 430.515 43.4116C430.515 42.2076 431.271 41.3676 433.623 41.3676C434.967 41.3676 436.647 41.6196 438.215 42.0396L438.887 38.7916C437.403 38.2876 435.387 38.0076 433.539 38.0076C429.451 38.0076 426.399 39.7156 426.399 43.6076C426.399 51.1396 436.171 48.5356 436.171 52.1196C436.171 53.8836 434.967 54.5556 432.391 54.5556C430.991 54.5556 428.779 54.1916 427.099 53.6036L426.427 56.9356C428.359 57.6076 430.347 57.9156 432.783 57.9156Z" fill="#922859"/>
<path d="M353.616 32H355.218V19.688H353.616V32ZM358.022 32H359.516V24.818C360.236 24.476 361.19 24.242 361.982 24.242C362.63 24.242 363.098 24.386 363.404 24.692C363.71 24.998 363.836 25.43 363.836 26.186V32H365.33V26.006C365.33 24.908 365.078 24.188 364.592 23.702C364.088 23.18 363.332 22.928 362.378 22.928C361.352 22.928 360.254 23.27 359.336 23.828L359.264 23.18H358.022V32ZM370.135 32.252C372.259 32.252 373.699 31.424 373.699 29.552C373.699 26.402 368.785 27.338 368.785 25.358C368.785 24.53 369.451 24.116 370.711 24.116C371.431 24.116 372.241 24.224 373.033 24.404L373.159 23.306C372.457 23.09 371.467 22.928 370.585 22.928C368.713 22.928 367.381 23.756 367.381 25.466C367.381 28.706 372.295 27.68 372.295 29.66C372.295 30.56 371.521 31.046 370.081 31.046C369.307 31.046 368.335 30.92 367.615 30.722L367.543 31.874C368.209 32.09 369.289 32.252 370.135 32.252ZM378.871 32.252C379.519 32.252 380.221 32.144 380.689 32.018L380.617 30.92C380.185 31.01 379.591 31.064 379.285 31.064C378.655 31.064 378.349 30.938 378.151 30.722C377.899 30.452 377.845 30.02 377.845 29.174V24.278H380.167V23.18H377.845V20.84C377.377 20.84 376.783 20.966 376.351 21.11V23.198L374.749 23.432V24.278H376.351V29.372C376.351 30.47 376.477 31.064 376.909 31.568C377.305 32.018 378.007 32.252 378.871 32.252ZM384.923 32.252C385.985 32.252 386.921 31.91 387.695 31.406L387.785 32H388.991V26.132C388.991 24.98 388.775 24.278 388.217 23.738C387.659 23.216 386.777 22.928 385.463 22.928C384.617 22.928 383.609 23.036 382.781 23.234L382.835 24.386C383.699 24.242 384.545 24.17 385.211 24.17C386.093 24.17 386.669 24.332 387.047 24.692C387.371 25.016 387.497 25.466 387.497 26.186V26.744H385.661C384.383 26.744 383.339 26.978 382.673 27.59C382.205 28.022 381.917 28.67 381.917 29.498C381.917 30.326 382.187 30.956 382.619 31.406C383.159 31.964 383.969 32.252 384.923 32.252ZM385.247 31.046C384.095 31.046 383.429 30.524 383.429 29.462C383.429 28.922 383.609 28.544 383.915 28.292C384.329 27.968 384.959 27.842 385.877 27.842H387.497V30.47C386.849 30.794 385.967 31.046 385.247 31.046ZM391.491 32H392.985V19.13H391.491V32ZM398.054 32.252C399.116 32.252 400.052 31.91 400.826 31.406L400.916 32H402.122V26.132C402.122 24.98 401.906 24.278 401.348 23.738C400.79 23.216 399.908 22.928 398.594 22.928C397.748 22.928 396.74 23.036 395.912 23.234L395.966 24.386C396.83 24.242 397.676 24.17 398.342 24.17C399.224 24.17 399.8 24.332 400.178 24.692C400.502 25.016 400.628 25.466 400.628 26.186V26.744H398.792C397.514 26.744 396.47 26.978 395.804 27.59C395.336 28.022 395.048 28.67 395.048 29.498C395.048 30.326 395.318 30.956 395.75 31.406C396.29 31.964 397.1 32.252 398.054 32.252ZM398.378 31.046C397.226 31.046 396.56 30.524 396.56 29.462C396.56 28.922 396.74 28.544 397.046 28.292C397.46 27.968 398.09 27.842 399.008 27.842H400.628V30.47C399.98 30.794 399.098 31.046 398.378 31.046ZM408.51 32.252C409.158 32.252 410.148 32.126 410.724 31.964L410.616 30.848C410.166 30.938 409.374 31.028 408.78 31.028C407.7 31.028 406.944 30.776 406.44 30.2C405.954 29.642 405.702 28.796 405.702 27.68C405.702 25.34 406.638 24.134 408.708 24.134C409.266 24.134 409.986 24.242 410.544 24.35L410.634 23.198C410.022 23.036 409.212 22.928 408.528 22.928C407.178 22.928 406.044 23.324 405.288 24.134C404.532 24.944 404.136 26.15 404.136 27.698C404.136 29.246 404.568 30.398 405.306 31.154C406.026 31.892 407.07 32.252 408.51 32.252ZM413.445 21.506H413.535C414.075 21.506 414.417 21.236 414.417 20.552V20.516C414.417 19.832 414.075 19.562 413.535 19.562H413.445C412.905 19.562 412.563 19.832 412.563 20.516V20.552C412.563 21.236 412.905 21.506 413.445 21.506ZM412.743 32H414.237V23.18H412.743V32ZM418.891 21.758L422.329 19.292L421.483 18.158L418.315 20.966L418.891 21.758ZM420.331 32.252C423.067 32.252 424.345 30.524 424.345 27.59C424.345 24.656 423.067 22.928 420.331 22.928C417.595 22.928 416.317 24.656 416.317 27.59C416.317 30.524 417.595 32.252 420.331 32.252ZM420.331 31.028C418.531 31.028 417.883 29.84 417.883 27.59C417.883 25.34 418.531 24.152 420.331 24.152C422.131 24.152 422.779 25.34 422.779 27.59C422.779 29.84 422.131 31.028 420.331 31.028ZM426.401 32H427.895V24.818C428.615 24.476 429.569 24.242 430.361 24.242C431.009 24.242 431.477 24.386 431.783 24.692C432.089 24.998 432.215 25.43 432.215 26.186V32H433.709V26.006C433.709 24.908 433.457 24.188 432.971 23.702C432.467 23.18 431.711 22.928 430.757 22.928C429.731 22.928 428.633 23.27 427.715 23.828L427.643 23.18H426.401V32Z" fill="#922859"/>
<path d="M187.692 53.3739C191.808 53.3739 194.538 52.5339 196.554 50.6439C198.066 49.2159 198.948 47.1579 198.948 44.5959C198.948 33.3819 184.29 37.2459 184.29 31.6179C184.29 29.8119 185.424 28.5519 188.952 28.5519C190.968 28.5519 193.488 28.9299 195.84 29.5599L196.848 24.6879C194.622 23.9319 191.598 23.5119 188.826 23.5119C182.694 23.5119 178.116 26.0739 178.116 31.9119C178.116 43.2099 192.774 39.3039 192.774 44.6799C192.774 47.3259 190.968 48.3339 187.104 48.3339C185.004 48.3339 181.686 47.7879 179.166 46.9059L178.158 51.9039C181.056 52.9119 184.038 53.3739 187.692 53.3739ZM201.125 53.3739H206.459L219.101 23.5119H213.767L201.125 53.3739ZM231.847 53.3739C238.441 53.3739 242.263 50.1819 242.263 44.8899C242.263 41.3619 240.751 39.3459 236.845 37.3719C239.239 35.8599 240.961 33.5079 240.961 30.7779C240.961 26.4099 237.559 23.5119 231.931 23.5119C226.387 23.5119 222.649 26.6619 222.649 31.5759C222.649 34.4739 223.741 36.4899 226.513 38.2539C223.615 39.7659 221.683 42.0759 221.683 45.6039C221.683 49.9719 225.043 53.3739 231.847 53.3739ZM232.813 35.4819L232.183 35.1879C229.327 33.8439 228.277 32.6679 228.277 31.0299C228.277 29.0559 229.915 28.0479 231.889 28.0479C234.241 28.0479 235.501 29.4339 235.501 31.3239C235.501 32.7939 234.409 34.2639 232.813 35.4819ZM231.931 48.7119C229.117 48.7119 227.605 47.2839 227.605 45.0999C227.605 43.3359 228.613 41.6139 230.251 40.1859L232.099 41.0259C235.459 42.5799 236.299 43.6719 236.299 45.3519C236.299 47.2419 234.745 48.7119 231.931 48.7119ZM256.317 53.3739C264.297 53.3739 267.321 48.2919 267.321 38.4639C267.321 28.6359 264.297 23.5119 256.317 23.5119C248.337 23.5119 245.313 28.6359 245.313 38.4639C245.313 48.2919 248.337 53.3739 256.317 53.3739ZM256.317 48.5439C252.915 48.5439 251.571 46.4019 251.571 38.4639C251.571 30.5259 252.915 27.9219 256.317 27.9219C259.719 27.9219 261.063 30.5259 261.063 38.4639C261.063 46.4019 259.719 48.5439 256.317 48.5439Z" fill="white"/>
<path d="M190.322 18H191.479V14.685H193.13C194.196 14.685 194.924 14.425 195.405 13.957C195.899 13.463 196.133 12.748 196.133 11.799C196.133 10.98 195.925 10.304 195.483 9.862C194.976 9.342 194.144 9.108 192.87 9.108H190.322V18ZM191.479 13.749V10.018H192.779C193.637 10.018 194.183 10.161 194.521 10.499C194.807 10.785 194.937 11.214 194.937 11.825C194.937 12.527 194.768 13.008 194.456 13.307C194.105 13.632 193.546 13.749 192.74 13.749H191.479ZM197.129 18H198.208V12.852C198.663 12.566 199.196 12.423 199.755 12.423C199.937 12.423 200.171 12.436 200.314 12.449V11.487C200.171 11.461 200.015 11.448 199.898 11.448C199.339 11.448 198.702 11.669 198.091 12.176L198.026 11.63H197.129V18ZM203.701 18.182C204.286 18.182 205.04 18.091 205.586 17.935L205.482 17.129C204.988 17.233 204.364 17.298 203.909 17.298C203.103 17.298 202.622 17.129 202.284 16.817C201.907 16.466 201.725 15.894 201.725 15.192H205.833C205.937 15.192 205.989 15.153 205.989 15.049V14.802C205.989 12.709 205.131 11.448 203.35 11.448C201.725 11.448 200.594 12.553 200.594 14.828C200.594 15.972 200.854 16.843 201.426 17.415C201.946 17.935 202.713 18.182 203.701 18.182ZM201.725 14.399C201.738 13.112 202.271 12.319 203.35 12.319C204.416 12.319 204.884 13.177 204.923 14.399H201.725ZM210.069 18.182C210.537 18.182 211.252 18.091 211.668 17.974L211.59 17.168C211.265 17.233 210.693 17.298 210.264 17.298C209.484 17.298 208.938 17.116 208.574 16.7C208.223 16.297 208.041 15.686 208.041 14.88C208.041 13.19 208.717 12.319 210.212 12.319C210.615 12.319 211.135 12.397 211.538 12.475L211.603 11.643C211.161 11.526 210.576 11.448 210.082 11.448C209.107 11.448 208.288 11.734 207.742 12.319C207.196 12.904 206.91 13.775 206.91 14.893C206.91 16.011 207.222 16.843 207.755 17.389C208.275 17.922 209.029 18.182 210.069 18.182ZM213.374 10.421H213.439C213.829 10.421 214.076 10.226 214.076 9.732V9.706C214.076 9.212 213.829 9.017 213.439 9.017H213.374C212.984 9.017 212.737 9.212 212.737 9.706V9.732C212.737 10.226 212.984 10.421 213.374 10.421ZM212.867 18H213.946V11.63H212.867V18ZM218.087 18.182C220.063 18.182 220.986 16.934 220.986 14.815C220.986 12.696 220.063 11.448 218.087 11.448C216.111 11.448 215.188 12.696 215.188 14.815C215.188 16.934 216.111 18.182 218.087 18.182ZM218.087 17.298C216.787 17.298 216.319 16.44 216.319 14.815C216.319 13.19 216.787 12.332 218.087 12.332C219.387 12.332 219.855 13.19 219.855 14.815C219.855 16.44 219.387 17.298 218.087 17.298ZM227.165 18.182C229.141 18.182 230.064 16.934 230.064 14.815C230.064 12.696 229.141 11.448 227.165 11.448C225.189 11.448 224.266 12.696 224.266 14.815C224.266 16.934 225.189 18.182 227.165 18.182ZM227.165 17.298C225.865 17.298 225.397 16.44 225.397 14.815C225.397 13.19 225.865 12.332 227.165 12.332C228.465 12.332 228.933 13.19 228.933 14.815C228.933 16.44 228.465 17.298 227.165 17.298ZM231.717 18H232.796V12.423H234.473V11.63H232.796V10.746C232.796 10.161 232.861 9.849 233.056 9.641C233.238 9.446 233.537 9.355 234.005 9.355C234.265 9.355 234.655 9.381 234.915 9.407V8.588C234.603 8.523 234.148 8.484 233.849 8.484C233.095 8.484 232.536 8.679 232.185 9.082C231.873 9.446 231.717 9.979 231.717 10.772V11.643L230.56 11.812V12.423H231.717V18ZM237.872 18.182C238.457 18.182 239.211 18.091 239.757 17.935L239.653 17.129C239.159 17.233 238.535 17.298 238.08 17.298C237.274 17.298 236.793 17.129 236.455 16.817C236.078 16.466 235.896 15.894 235.896 15.192H240.004C240.108 15.192 240.16 15.153 240.16 15.049V14.802C240.16 12.709 239.302 11.448 237.521 11.448C235.896 11.448 234.765 12.553 234.765 14.828C234.765 15.972 235.025 16.843 235.597 17.415C236.117 17.935 236.884 18.182 237.872 18.182ZM235.896 14.399C235.909 13.112 236.442 12.319 237.521 12.319C238.587 12.319 239.055 13.177 239.094 14.399H235.896ZM241.419 18H242.498V12.852C242.953 12.566 243.486 12.423 244.045 12.423C244.227 12.423 244.461 12.436 244.604 12.449V11.487C244.461 11.461 244.305 11.448 244.188 11.448C243.629 11.448 242.992 11.669 242.381 12.176L242.316 11.63H241.419V18ZM247.825 18.182C248.293 18.182 248.8 18.104 249.138 18.013L249.086 17.22C248.774 17.285 248.345 17.324 248.124 17.324C247.669 17.324 247.448 17.233 247.305 17.077C247.123 16.882 247.084 16.57 247.084 15.959V12.423H248.761V11.63H247.084V9.94C246.746 9.94 246.317 10.031 246.005 10.135V11.643L244.848 11.812V12.423H246.005V16.102C246.005 16.895 246.096 17.324 246.408 17.688C246.694 18.013 247.201 18.182 247.825 18.182ZM251.936 18.182C252.703 18.182 253.379 17.935 253.938 17.571L254.003 18H254.874V13.762C254.874 12.93 254.718 12.423 254.315 12.033C253.912 11.656 253.275 11.448 252.326 11.448C251.715 11.448 250.987 11.526 250.389 11.669L250.428 12.501C251.052 12.397 251.663 12.345 252.144 12.345C252.781 12.345 253.197 12.462 253.47 12.722C253.704 12.956 253.795 13.281 253.795 13.801V14.204H252.469C251.546 14.204 250.792 14.373 250.311 14.815C249.973 15.127 249.765 15.595 249.765 16.193C249.765 16.791 249.96 17.246 250.272 17.571C250.662 17.974 251.247 18.182 251.936 18.182ZM252.17 17.311C251.338 17.311 250.857 16.934 250.857 16.167C250.857 15.777 250.987 15.504 251.208 15.322C251.507 15.088 251.962 14.997 252.625 14.997H253.795V16.895C253.327 17.129 252.69 17.311 252.17 17.311Z" fill="white"/>
<path d="M171.452 66.2642H172.52V63.2042H174.044C175.028 63.2042 175.7 62.9642 176.144 62.5322C176.6 62.0762 176.816 61.4162 176.816 60.5402C176.816 59.7842 176.624 59.1602 176.216 58.7522C175.748 58.2722 174.98 58.0562 173.804 58.0562H171.452V66.2642ZM172.52 62.3402V58.8962H173.72C174.512 58.8962 175.016 59.0282 175.328 59.3402C175.592 59.6042 175.712 60.0002 175.712 60.5642C175.712 61.2122 175.556 61.6562 175.268 61.9322C174.944 62.2322 174.428 62.3402 173.684 62.3402H172.52ZM177.735 66.2642H178.731V61.5122C179.151 61.2482 179.643 61.1162 180.159 61.1162C180.327 61.1162 180.543 61.1282 180.675 61.1402V60.2522C180.543 60.2282 180.399 60.2162 180.291 60.2162C179.775 60.2162 179.187 60.4202 178.623 60.8882L178.563 60.3842H177.735V66.2642ZM183.801 66.4322C184.341 66.4322 185.037 66.3482 185.541 66.2042L185.445 65.4602C184.989 65.5562 184.413 65.6162 183.993 65.6162C183.249 65.6162 182.805 65.4602 182.493 65.1722C182.145 64.8482 181.977 64.3202 181.977 63.6722H185.769C185.865 63.6722 185.913 63.6362 185.913 63.5402V63.3122C185.913 61.3802 185.121 60.2162 183.477 60.2162C181.977 60.2162 180.933 61.2362 180.933 63.3362C180.933 64.3922 181.173 65.1962 181.701 65.7242C182.181 66.2042 182.889 66.4322 183.801 66.4322ZM181.977 62.9402C181.989 61.7522 182.481 61.0202 183.477 61.0202C184.461 61.0202 184.893 61.8122 184.929 62.9402H181.977ZM189.68 66.4322C190.112 66.4322 190.772 66.3482 191.156 66.2402L191.084 65.4962C190.784 65.5562 190.256 65.6162 189.86 65.6162C189.14 65.6162 188.636 65.4482 188.3 65.0642C187.976 64.6922 187.808 64.1282 187.808 63.3842C187.808 61.8242 188.432 61.0202 189.812 61.0202C190.184 61.0202 190.664 61.0922 191.036 61.1642L191.096 60.3962C190.688 60.2882 190.148 60.2162 189.692 60.2162C188.792 60.2162 188.036 60.4802 187.532 61.0202C187.028 61.5602 186.764 62.3642 186.764 63.3962C186.764 64.4282 187.052 65.1962 187.544 65.7002C188.024 66.1922 188.72 66.4322 189.68 66.4322ZM192.73 59.2682H192.79C193.15 59.2682 193.378 59.0882 193.378 58.6322V58.6082C193.378 58.1522 193.15 57.9722 192.79 57.9722H192.73C192.37 57.9722 192.142 58.1522 192.142 58.6082V58.6322C192.142 59.0882 192.37 59.2682 192.73 59.2682ZM192.262 66.2642H193.258V60.3842H192.262V66.2642ZM197.081 66.4322C198.905 66.4322 199.757 65.2802 199.757 63.3242C199.757 61.3682 198.905 60.2162 197.081 60.2162C195.257 60.2162 194.405 61.3682 194.405 63.3242C194.405 65.2802 195.257 66.4322 197.081 66.4322ZM197.081 65.6162C195.881 65.6162 195.449 64.8242 195.449 63.3242C195.449 61.8242 195.881 61.0322 197.081 61.0322C198.281 61.0322 198.713 61.8242 198.713 63.3242C198.713 64.8242 198.281 65.6162 197.081 65.6162ZM203.096 66.2642H204.092V61.5122C204.512 61.2482 205.004 61.1162 205.52 61.1162C205.688 61.1162 205.904 61.1282 206.036 61.1402V60.2522C205.904 60.2282 205.76 60.2162 205.652 60.2162C205.136 60.2162 204.548 60.4202 203.984 60.8882L203.924 60.3842H203.096V66.2642ZM209.162 66.4322C209.702 66.4322 210.398 66.3482 210.902 66.2042L210.806 65.4602C210.35 65.5562 209.774 65.6162 209.354 65.6162C208.61 65.6162 208.166 65.4602 207.854 65.1722C207.506 64.8482 207.338 64.3202 207.338 63.6722H211.13C211.226 63.6722 211.274 63.6362 211.274 63.5402V63.3122C211.274 61.3802 210.482 60.2162 208.838 60.2162C207.338 60.2162 206.294 61.2362 206.294 63.3362C206.294 64.3922 206.534 65.1962 207.062 65.7242C207.542 66.2042 208.25 66.4322 209.162 66.4322ZM207.338 62.9402C207.35 61.7522 207.842 61.0202 208.838 61.0202C209.822 61.0202 210.254 61.8122 210.29 62.9402H207.338ZM214.704 69.1322C216.696 69.1322 217.488 68.4722 217.488 67.2842C217.488 66.8042 217.356 66.3962 217.056 66.0962C216.672 65.7122 216.096 65.5442 215.064 65.5442H213.936C213.612 65.5442 213.456 65.4362 213.456 65.1842C213.456 64.9802 213.6 64.6682 213.78 64.4642C214.056 64.5482 214.356 64.5842 214.704 64.5842C216.312 64.5842 217.068 63.6722 217.068 62.4002C217.068 61.5602 216.732 60.8642 216.024 60.5042L216.84 59.1122C216.648 58.9562 216.288 58.7882 216.012 58.7282L215.304 60.2642C215.124 60.2402 214.92 60.2162 214.704 60.2162C213.096 60.2162 212.34 61.1282 212.34 62.4002C212.34 63.1682 212.616 63.7922 213.168 64.1762C212.748 64.5842 212.472 65.0642 212.472 65.5322C212.472 65.7962 212.556 66.0122 212.748 66.1682C212.34 66.4562 212.076 66.9602 212.076 67.4762C212.076 68.5202 212.892 69.1322 214.704 69.1322ZM214.704 63.7922C213.732 63.7922 213.288 63.3002 213.288 62.4002C213.288 61.5002 213.732 61.0082 214.704 61.0082C215.676 61.0082 216.12 61.5002 216.12 62.4002C216.12 63.3002 215.676 63.7922 214.704 63.7922ZM214.8 68.2922C213.492 68.2922 213.012 67.9322 213.012 67.2962C213.012 66.9842 213.144 66.6602 213.36 66.3962C213.48 66.4202 213.624 66.4322 213.792 66.4322H215.064C215.652 66.4322 216.036 66.5042 216.264 66.6722C216.456 66.8162 216.552 67.0322 216.552 67.3202C216.552 67.9322 216.048 68.2922 214.8 68.2922ZM220.269 66.4322C220.953 66.4322 221.661 66.2042 222.273 65.8322L222.321 66.2642H223.149V60.3842H222.153V65.1722C221.673 65.4002 221.061 65.5562 220.533 65.5562C220.101 65.5562 219.789 65.4602 219.585 65.2562C219.381 65.0522 219.297 64.7642 219.297 64.2602V60.3842H218.301V64.3802C218.301 65.1122 218.469 65.5922 218.793 65.9162C219.129 66.2642 219.633 66.4322 220.269 66.4322ZM224.601 66.2642H225.597V57.6842H224.601V66.2642ZM228.736 66.4322C229.444 66.4322 230.068 66.2042 230.584 65.8682L230.644 66.2642H231.448V62.3522C231.448 61.5842 231.304 61.1162 230.932 60.7562C230.56 60.4082 229.972 60.2162 229.096 60.2162C228.532 60.2162 227.86 60.2882 227.308 60.4202L227.344 61.1882C227.92 61.0922 228.484 61.0442 228.928 61.0442C229.516 61.0442 229.9 61.1522 230.152 61.3922C230.368 61.6082 230.452 61.9082 230.452 62.3882V62.7602H229.228C228.376 62.7602 227.68 62.9162 227.236 63.3242C226.924 63.6122 226.732 64.0442 226.732 64.5962C226.732 65.1482 226.912 65.5682 227.2 65.8682C227.56 66.2402 228.1 66.4322 228.736 66.4322ZM228.952 65.6282C228.184 65.6282 227.74 65.2802 227.74 64.5722C227.74 64.2122 227.86 63.9602 228.064 63.7922C228.34 63.5762 228.76 63.4922 229.372 63.4922H230.452V65.2442C230.02 65.4602 229.432 65.6282 228.952 65.6282ZM232.863 66.2642H233.859V61.5122C234.279 61.2482 234.771 61.1162 235.287 61.1162C235.455 61.1162 235.671 61.1282 235.803 61.1402V60.2522C235.671 60.2282 235.527 60.2162 235.419 60.2162C234.903 60.2162 234.315 60.4202 233.751 60.8882L233.691 60.3842H232.863V66.2642ZM237.123 62.7002H237.207C237.567 62.7002 237.807 62.5202 237.807 62.0522V62.0042C237.807 61.5362 237.567 61.3562 237.207 61.3562H237.123C236.763 61.3562 236.523 61.5362 236.523 62.0042V62.0522C236.523 62.5202 236.763 62.7002 237.123 62.7002ZM237.123 66.4322H237.207C237.567 66.4322 237.807 66.2522 237.807 65.7842V65.7362C237.807 65.2682 237.567 65.0882 237.207 65.0882H237.123C236.763 65.0882 236.523 65.2682 236.523 65.7362V65.7842C236.523 66.2522 236.763 66.4322 237.123 66.4322ZM243.539 66.4322C244.487 66.4322 245.219 66.2042 245.711 65.7362C246.119 65.3522 246.359 64.7882 246.359 64.0682C246.359 61.2602 242.135 61.8962 242.135 60.0242C242.135 59.1482 242.819 58.7882 243.935 58.7882C244.475 58.7882 245.111 58.8722 245.711 59.0282L245.867 58.2122C245.303 58.0202 244.559 57.9002 243.851 57.9002C242.219 57.9002 241.127 58.6442 241.127 60.0962C241.127 62.9162 245.339 62.1122 245.339 64.1762C245.339 64.6202 245.183 64.9442 244.895 65.1722C244.571 65.4242 244.115 65.5442 243.443 65.5442C242.783 65.5442 242.015 65.4002 241.391 65.2202L241.211 66.0362C241.835 66.2882 242.783 66.4322 243.539 66.4322ZM247.222 66.4322H248.194L251.734 57.9002H250.762L247.222 66.4322ZM255.697 66.2642H259.345V65.4962H258.097V58.5362C258.097 58.1042 257.929 57.9722 257.413 57.9722C256.981 57.9722 256.213 58.0322 255.721 58.1042V58.7762H257.113V65.4962H255.697V66.2642ZM263.854 66.4322C265.894 66.4322 266.674 64.8482 266.674 62.1722C266.674 59.4962 265.894 57.9002 263.854 57.9002C261.814 57.9002 261.034 59.4962 261.034 62.1722C261.034 64.8482 261.814 66.4322 263.854 66.4322ZM263.854 65.5802C262.522 65.5802 262.078 64.4642 262.078 62.1722C262.078 59.8802 262.522 58.7522 263.854 58.7522C265.186 58.7522 265.63 59.8802 265.63 62.1722C265.63 64.4642 265.186 65.5802 263.854 65.5802ZM270.235 66.4322C272.275 66.4322 273.055 64.8482 273.055 62.1722C273.055 59.4962 272.275 57.9002 270.235 57.9002C268.195 57.9002 267.415 59.4962 267.415 62.1722C267.415 64.8482 268.195 66.4322 270.235 66.4322ZM270.235 65.5802C268.903 65.5802 268.459 64.4642 268.459 62.1722C268.459 59.8802 268.903 58.7522 270.235 58.7522C271.567 58.7522 272.011 59.8802 272.011 62.1722C272.011 64.4642 271.567 65.5802 270.235 65.5802Z" fill="white"/>
<path d="M245.776 65.0943L272.64 58.0863" stroke="white" stroke-width="1.168" stroke-linecap="round"/>
</svg>
