<svg width="108" height="131" viewBox="0 0 108 131" fill="none" xmlns="http://www.w3.org/2000/svg">
<rect x="0.999878" y="40.8479" width="40.8479" height="106.205" rx="4.45614" transform="rotate(-90 0.999878 40.8479)" fill="#922859"/>
<path d="M27.3017 8.47361C27.2227 8.47361 27.1443 8.44359 27.0842 8.38421C26.964 8.26544 26.964 8.07261 27.0842 7.95385L27.0943 7.94384C27.8078 7.24326 28.6367 6.6928 29.5582 6.30714C30.5175 5.90614 31.5376 5.70264 32.5888 5.70264C33.6326 5.70264 34.6466 5.90347 35.6026 6.30047C36.5159 6.67945 37.3368 7.2199 38.0427 7.90714C38.1637 8.02524 38.165 8.2174 38.0461 8.3375C37.9265 8.45693 37.732 8.45894 37.6104 8.34084C36.9605 7.70898 36.2052 7.21123 35.3641 6.86227C34.4838 6.4973 33.5502 6.31181 32.5888 6.31181C31.62 6.31181 30.6817 6.4993 29.798 6.86828C28.9495 7.22324 28.1861 7.73033 27.5294 8.37487L27.5193 8.38487C27.4592 8.44426 27.3808 8.47361 27.3017 8.47361Z" fill="#FBC7DE"/>
<path d="M28.7041 10.1889C28.621 10.1889 28.5386 10.1562 28.4778 10.0908C28.3643 9.96941 28.3697 9.78126 28.4893 9.66649C29.0223 9.14272 29.6344 8.73505 30.314 8.44881C31.0335 8.14589 31.7976 7.99243 32.5859 7.99243C33.3649 7.99243 34.1209 8.14256 34.8343 8.43947C35.5085 8.7197 36.1152 9.11804 36.6387 9.62513C36.7603 9.74256 36.7624 9.93539 36.6428 10.0555C36.5232 10.1756 36.3286 10.1776 36.207 10.0595C35.7395 9.60644 35.197 9.25015 34.5944 8.99994C33.9574 8.73505 33.2811 8.60027 32.5853 8.60027C31.8806 8.60027 31.197 8.73772 30.5545 9.00795C29.9465 9.26416 29.3993 9.62913 28.9277 10.0922L28.9122 10.1075C28.8541 10.1622 28.7791 10.1889 28.7041 10.1889Z" fill="#FBC7DE"/>
<path d="M30.1064 11.905C30.0274 11.905 29.949 11.8757 29.8889 11.8163C29.7686 11.6975 29.7686 11.5047 29.8889 11.3859C30.2307 11.0477 30.628 10.7808 31.0698 10.5919C31.5495 10.3871 32.0588 10.2837 32.5844 10.2837C33.0986 10.2837 33.5971 10.3838 34.0673 10.5799C34.5011 10.7601 34.8949 11.0176 35.2361 11.3446C35.3584 11.4613 35.3611 11.6542 35.2428 11.7749C35.1246 11.8957 34.9294 11.8984 34.8071 11.7816C34.5213 11.5074 34.1916 11.2919 33.8282 11.1411C33.4336 10.9763 33.0155 10.8922 32.5844 10.8922C32.1433 10.8922 31.7163 10.9789 31.315 11.1504C30.9455 11.3085 30.6124 11.5327 30.3253 11.8163C30.2645 11.875 30.1855 11.905 30.1064 11.905Z" fill="#FBC7DE"/>
<path d="M32.5646 14.8538C31.785 14.8538 31.3378 14.4121 31.3378 13.6421C31.3378 12.8721 31.785 12.4304 32.5646 12.4304C33.3442 12.4304 33.7915 12.8721 33.7915 13.6421C33.7915 14.4121 33.3442 14.8538 32.5646 14.8538ZM32.5639 13.0389C32.1302 13.0389 31.9532 13.2137 31.9532 13.6421C31.9532 14.0705 32.1302 14.2453 32.5639 14.2453C32.9977 14.2453 33.1747 14.0705 33.1747 13.6421C33.1747 13.2137 32.9983 13.0389 32.5639 13.0389Z" fill="#FBC7DE"/>
<rect x="1" y="88" width="45" height="106" rx="4.45614" transform="rotate(-90 1 88)" fill="#E63780"/>
<path d="M23.2481 31.6257H28.1121V30.6017H26.4481V21.3217C26.4481 20.7457 26.2241 20.5697 25.5361 20.5697C24.9601 20.5697 23.9361 20.6497 23.2801 20.7457V21.6417H25.1361V30.6017H23.2481V31.6257ZM34.4442 31.8497C37.1642 31.8497 38.2042 29.7377 38.2042 26.1697C38.2042 22.6017 37.1642 20.4737 34.4442 20.4737C31.7242 20.4737 30.6842 22.6017 30.6842 26.1697C30.6842 29.7377 31.7242 31.8497 34.4442 31.8497ZM34.4442 30.7137C32.6682 30.7137 32.0762 29.2257 32.0762 26.1697C32.0762 23.1137 32.6682 21.6097 34.4442 21.6097C36.2202 21.6097 36.8122 23.1137 36.8122 26.1697C36.8122 29.2257 36.2202 30.7137 34.4442 30.7137ZM43.2724 31.8497C45.9924 31.8497 47.0324 29.7377 47.0324 26.1697C47.0324 22.6017 45.9924 20.4737 43.2724 20.4737C40.5524 20.4737 39.5124 22.6017 39.5124 26.1697C39.5124 29.7377 40.5524 31.8497 43.2724 31.8497ZM43.2724 30.7137C41.4964 30.7137 40.9044 29.2257 40.9044 26.1697C40.9044 23.1137 41.4964 21.6097 43.2724 21.6097C45.0484 21.6097 45.6404 23.1137 45.6404 26.1697C45.6404 29.2257 45.0484 30.7137 43.2724 30.7137ZM52.2781 31.6257H53.5421V23.4177L56.6941 29.3057H57.8781L61.0621 23.4817V31.6257H62.4061V20.6817H61.1901L57.3341 27.8817L53.5261 20.6817H52.2781V31.6257ZM68.4194 31.8497C70.3714 31.8497 71.4754 30.5217 71.4754 27.6737C71.4754 24.8577 70.3394 23.5617 68.4354 23.5617C67.6674 23.5617 66.8194 23.8337 66.1794 24.1857V20.1857H64.8514V31.6257H65.9234L65.9874 31.0977C66.6114 31.5297 67.5714 31.8497 68.4194 31.8497ZM68.1154 30.7457C67.4754 30.7457 66.7074 30.5057 66.1794 30.1857V25.1457C66.7074 24.8897 67.4754 24.6977 68.0834 24.6977C69.4754 24.6977 70.0834 25.5617 70.0834 27.6737C70.0834 29.9457 69.4434 30.7457 68.1154 30.7457ZM73.3045 35.2257H74.6325V31.2577C75.2085 31.6257 76.0565 31.8497 76.8725 31.8497C78.7445 31.8497 79.9285 30.6177 79.9285 27.6737C79.9285 25.1777 78.9525 23.5617 76.9205 23.5617C76.2005 23.5617 75.2885 23.8177 74.4725 24.3617L74.4085 23.7857H73.3045V35.2257ZM76.5365 30.7457C75.8645 30.7457 75.0965 30.5377 74.6325 30.2657V25.2257C75.2405 24.9057 76.0245 24.6977 76.6325 24.6977C77.9445 24.6977 78.5365 25.6577 78.5365 27.6577C78.5365 29.8977 77.9605 30.7457 76.5365 30.7457ZM83.8216 31.8497C85.7096 31.8497 86.9896 31.1137 86.9896 29.4497C86.9896 26.6497 82.6216 27.4817 82.6216 25.7217C82.6216 24.9857 83.2136 24.6177 84.3336 24.6177C84.9736 24.6177 85.6936 24.7137 86.3976 24.8737L86.5096 23.8977C85.8856 23.7057 85.0056 23.5617 84.2216 23.5617C82.5576 23.5617 81.3736 24.2977 81.3736 25.8177C81.3736 28.6977 85.7416 27.7857 85.7416 29.5457C85.7416 30.3457 85.0536 30.7777 83.7736 30.7777C83.0856 30.7777 82.2216 30.6657 81.5816 30.4897L81.5176 31.5137C82.1096 31.7057 83.0696 31.8497 83.8216 31.8497Z" fill="#FBC7DE"/>
<path d="M43.4035 14.7134H44.2935V7.87338H43.4035V14.7134ZM45.8509 14.7134H46.6809V10.7234C47.0809 10.5334 47.6109 10.4034 48.0509 10.4034C48.4109 10.4034 48.6709 10.4834 48.8409 10.6534C49.0109 10.8234 49.0809 11.0634 49.0809 11.4834V14.7134H49.9109V11.3834C49.9109 10.7734 49.7709 10.3734 49.5009 10.1034C49.2209 9.81338 48.8009 9.67338 48.2709 9.67338C47.7009 9.67338 47.0909 9.86338 46.5809 10.1734L46.5409 9.81338H45.8509V14.7134ZM52.9904 14.8534C53.3504 14.8534 53.7404 14.7934 54.0004 14.7234L53.9604 14.1134C53.7204 14.1634 53.3904 14.1934 53.2204 14.1934C52.8704 14.1934 52.7004 14.1234 52.5904 14.0034C52.4504 13.8534 52.4204 13.6134 52.4204 13.1434V10.4234H53.7104V9.81338H52.4204V8.51338C52.1604 8.51338 51.8304 8.58338 51.5904 8.66338V9.82338L50.7004 9.95338V10.4234H51.5904V13.2534C51.5904 13.8634 51.6604 14.1934 51.9004 14.4734C52.1204 14.7234 52.5104 14.8534 52.9904 14.8534ZM57.0727 14.8534C57.5227 14.8534 58.1027 14.7834 58.5227 14.6634L58.4427 14.0434C58.0627 14.1234 57.5827 14.1734 57.2327 14.1734C56.6127 14.1734 56.2427 14.0434 55.9827 13.8034C55.6927 13.5334 55.5527 13.0934 55.5527 12.5534H58.7127C58.7927 12.5534 58.8327 12.5234 58.8327 12.4434V12.2534C58.8327 10.6434 58.1727 9.67338 56.8027 9.67338C55.5527 9.67338 54.6827 10.5234 54.6827 12.2734C54.6827 13.1534 54.8827 13.8234 55.3227 14.2634C55.7227 14.6634 56.3127 14.8534 57.0727 14.8534ZM55.5527 11.9434C55.5627 10.9534 55.9727 10.3434 56.8027 10.3434C57.6227 10.3434 57.9827 11.0034 58.0127 11.9434H55.5527ZM60.0013 14.7134H60.8313V10.7534C61.1813 10.5334 61.5913 10.4234 62.0213 10.4234C62.1613 10.4234 62.3413 10.4334 62.4513 10.4434V9.70338C62.3413 9.68338 62.2213 9.67338 62.1313 9.67338C61.7013 9.67338 61.2113 9.84338 60.7413 10.2334L60.6913 9.81338H60.0013V14.7134ZM63.3509 14.7134H64.1809V10.7234C64.5809 10.5334 65.1109 10.4034 65.5509 10.4034C65.9109 10.4034 66.1709 10.4834 66.3409 10.6534C66.5109 10.8234 66.5809 11.0634 66.5809 11.4834V14.7134H67.4109V11.3834C67.4109 10.7734 67.2709 10.3734 67.0009 10.1034C66.7209 9.81338 66.3009 9.67338 65.7709 9.67338C65.2009 9.67338 64.5909 9.86338 64.0809 10.1734L64.0409 9.81338H63.3509V14.7134ZM70.9204 14.8534C71.3704 14.8534 71.9504 14.7834 72.3704 14.6634L72.2904 14.0434C71.9104 14.1234 71.4304 14.1734 71.0804 14.1734C70.4604 14.1734 70.0904 14.0434 69.8304 13.8034C69.5404 13.5334 69.4004 13.0934 69.4004 12.5534H72.5604C72.6404 12.5534 72.6804 12.5234 72.6804 12.4434V12.2534C72.6804 10.6434 72.0204 9.67338 70.6504 9.67338C69.4004 9.67338 68.5304 10.5234 68.5304 12.2734C68.5304 13.1534 68.7304 13.8234 69.1704 14.2634C69.5704 14.6634 70.1604 14.8534 70.9204 14.8534ZM69.4004 11.9434C69.4104 10.9534 69.8204 10.3434 70.6504 10.3434C71.4704 10.3434 71.8304 11.0034 71.8604 11.9434H69.4004ZM75.549 14.8534C75.909 14.8534 76.299 14.7934 76.559 14.7234L76.519 14.1134C76.279 14.1634 75.949 14.1934 75.779 14.1934C75.429 14.1934 75.259 14.1234 75.149 14.0034C75.009 13.8534 74.979 13.6134 74.979 13.1434V10.4234H76.269V9.81338H74.979V8.51338C74.719 8.51338 74.389 8.58338 74.149 8.66338V9.82338L73.259 9.95338V10.4234H74.149V13.2534C74.149 13.8634 74.219 14.1934 74.459 14.4734C74.679 14.7234 75.069 14.8534 75.549 14.8534Z" fill="#FBC7DE"/>
<path d="M33.2979 74.6741C35.8459 74.6741 37.5359 74.1541 38.7839 72.9841C39.7199 72.1001 40.2659 70.8261 40.2659 69.2401C40.2659 62.2981 31.1919 64.6901 31.1919 61.2061C31.1919 60.0881 31.8939 59.3081 34.0779 59.3081C35.3259 59.3081 36.8859 59.5421 38.3419 59.9321L38.9659 56.9161C37.5879 56.4481 35.7159 56.1881 33.9999 56.1881C30.2039 56.1881 27.3699 57.7741 27.3699 61.3881C27.3699 68.3821 36.4439 65.9641 36.4439 69.2921C36.4439 70.9301 35.3259 71.5541 32.9339 71.5541C31.6339 71.5541 29.5799 71.2161 28.0199 70.6701L27.3959 73.7641C29.1899 74.3881 31.0359 74.6741 33.2979 74.6741ZM41.6139 74.6741H44.9159L52.7419 56.1881H49.4399L41.6139 74.6741ZM60.632 74.6741C64.714 74.6741 67.08 72.6981 67.08 69.4221C67.08 67.2381 66.144 65.9901 63.726 64.7681C65.208 63.8321 66.274 62.3761 66.274 60.6861C66.274 57.9821 64.168 56.1881 60.684 56.1881C57.252 56.1881 54.938 58.1381 54.938 61.1801C54.938 62.9741 55.614 64.2221 57.33 65.3141C55.536 66.2501 54.34 67.6801 54.34 69.8641C54.34 72.5681 56.42 74.6741 60.632 74.6741ZM61.23 63.5981L60.84 63.4161C59.072 62.5841 58.422 61.8561 58.422 60.8421C58.422 59.6201 59.436 58.9961 60.658 58.9961C62.114 58.9961 62.894 59.8541 62.894 61.0241C62.894 61.9341 62.218 62.8441 61.23 63.5981ZM60.684 71.7881C58.942 71.7881 58.006 70.9041 58.006 69.5521C58.006 68.4601 58.63 67.3941 59.644 66.5101L60.788 67.0301C62.868 67.9921 63.388 68.6681 63.388 69.7081C63.388 70.8781 62.426 71.7881 60.684 71.7881ZM75.7799 74.6741C80.7199 74.6741 82.5919 71.5281 82.5919 65.4441C82.5919 59.3601 80.7199 56.1881 75.7799 56.1881C70.8399 56.1881 68.9679 59.3601 68.9679 65.4441C68.9679 71.5281 70.8399 74.6741 75.7799 74.6741ZM75.7799 71.6841C73.6739 71.6841 72.8419 70.3581 72.8419 65.4441C72.8419 60.5301 73.6739 58.9181 75.7799 58.9181C77.8859 58.9181 78.7179 60.5301 78.7179 65.4441C78.7179 70.3581 77.8859 71.6841 75.7799 71.6841Z" fill="white"/>
<path d="M31.8838 54H32.6848V51.705H33.8278C34.5658 51.705 35.0698 51.525 35.4028 51.201C35.7448 50.859 35.9068 50.364 35.9068 49.707C35.9068 49.14 35.7628 48.672 35.4568 48.366C35.1058 48.006 34.5298 47.844 33.6478 47.844H31.8838V54ZM32.6848 51.057V48.474H33.5848C34.1788 48.474 34.5568 48.573 34.7908 48.807C34.9888 49.005 35.0788 49.302 35.0788 49.725C35.0788 50.211 34.9618 50.544 34.7458 50.751C34.5028 50.976 34.1158 51.057 33.5578 51.057H32.6848ZM36.5965 54H37.3435V50.436C37.6585 50.238 38.0275 50.139 38.4145 50.139C38.5405 50.139 38.7025 50.148 38.8015 50.157V49.491C38.7025 49.473 38.5945 49.464 38.5135 49.464C38.1265 49.464 37.6855 49.617 37.2625 49.968L37.2175 49.59H36.5965V54ZM41.146 54.126C41.551 54.126 42.073 54.063 42.451 53.955L42.379 53.397C42.037 53.469 41.605 53.514 41.29 53.514C40.732 53.514 40.399 53.397 40.165 53.181C39.904 52.938 39.778 52.542 39.778 52.056H42.622C42.694 52.056 42.73 52.029 42.73 51.957V51.786C42.73 50.337 42.136 49.464 40.903 49.464C39.778 49.464 38.995 50.229 38.995 51.804C38.995 52.596 39.175 53.199 39.571 53.595C39.931 53.955 40.462 54.126 41.146 54.126ZM39.778 51.507C39.787 50.616 40.156 50.067 40.903 50.067C41.641 50.067 41.965 50.661 41.992 51.507H39.778ZM45.5548 54.126C45.8788 54.126 46.3738 54.063 46.6618 53.982L46.6078 53.424C46.3828 53.469 45.9868 53.514 45.6898 53.514C45.1498 53.514 44.7718 53.388 44.5198 53.1C44.2768 52.821 44.1508 52.398 44.1508 51.84C44.1508 50.67 44.6188 50.067 45.6538 50.067C45.9328 50.067 46.2928 50.121 46.5718 50.175L46.6168 49.599C46.3108 49.518 45.9058 49.464 45.5638 49.464C44.8888 49.464 44.3218 49.662 43.9438 50.067C43.5658 50.472 43.3678 51.075 43.3678 51.849C43.3678 52.623 43.5838 53.199 43.9528 53.577C44.3128 53.946 44.8348 54.126 45.5548 54.126ZM47.8425 48.753H47.8875C48.1575 48.753 48.3285 48.618 48.3285 48.276V48.258C48.3285 47.916 48.1575 47.781 47.8875 47.781H47.8425C47.5725 47.781 47.4015 47.916 47.4015 48.258V48.276C47.4015 48.618 47.5725 48.753 47.8425 48.753ZM47.4915 54H48.2385V49.59H47.4915V54ZM51.1056 54.126C52.4736 54.126 53.1126 53.262 53.1126 51.795C53.1126 50.328 52.4736 49.464 51.1056 49.464C49.7376 49.464 49.0986 50.328 49.0986 51.795C49.0986 53.262 49.7376 54.126 51.1056 54.126ZM51.1056 53.514C50.2056 53.514 49.8816 52.92 49.8816 51.795C49.8816 50.67 50.2056 50.076 51.1056 50.076C52.0056 50.076 52.3296 50.67 52.3296 51.795C52.3296 52.92 52.0056 53.514 51.1056 53.514ZM57.3901 54.126C58.7581 54.126 59.3971 53.262 59.3971 51.795C59.3971 50.328 58.7581 49.464 57.3901 49.464C56.0221 49.464 55.3831 50.328 55.3831 51.795C55.3831 53.262 56.0221 54.126 57.3901 54.126ZM57.3901 53.514C56.4901 53.514 56.1661 52.92 56.1661 51.795C56.1661 50.67 56.4901 50.076 57.3901 50.076C58.2901 50.076 58.6141 50.67 58.6141 51.795C58.6141 52.92 58.2901 53.514 57.3901 53.514ZM60.5417 54H61.2887V50.139H62.4497V49.59H61.2887V48.978C61.2887 48.573 61.3337 48.357 61.4687 48.213C61.5947 48.078 61.8017 48.015 62.1257 48.015C62.3057 48.015 62.5757 48.033 62.7557 48.051V47.484C62.5397 47.439 62.2247 47.412 62.0177 47.412C61.4957 47.412 61.1087 47.547 60.8657 47.826C60.6497 48.078 60.5417 48.447 60.5417 48.996V49.599L59.7407 49.716V50.139H60.5417V54ZM64.803 54.126C65.208 54.126 65.73 54.063 66.108 53.955L66.036 53.397C65.694 53.469 65.262 53.514 64.947 53.514C64.389 53.514 64.056 53.397 63.822 53.181C63.561 52.938 63.435 52.542 63.435 52.056H66.279C66.351 52.056 66.387 52.029 66.387 51.957V51.786C66.387 50.337 65.793 49.464 64.56 49.464C63.435 49.464 62.652 50.229 62.652 51.804C62.652 52.596 62.832 53.199 63.228 53.595C63.588 53.955 64.119 54.126 64.803 54.126ZM63.435 51.507C63.444 50.616 63.813 50.067 64.56 50.067C65.298 50.067 65.622 50.661 65.649 51.507H63.435ZM67.2588 54H68.0058V50.436C68.3208 50.238 68.6898 50.139 69.0768 50.139C69.2028 50.139 69.3648 50.148 69.4638 50.157V49.491C69.3648 49.473 69.2568 49.464 69.1758 49.464C68.7888 49.464 68.3478 49.617 67.9248 49.968L67.8798 49.59H67.2588V54ZM71.6937 54.126C72.0177 54.126 72.3687 54.072 72.6027 54.009L72.5667 53.46C72.3507 53.505 72.0537 53.532 71.9007 53.532C71.5857 53.532 71.4327 53.469 71.3337 53.361C71.2077 53.226 71.1807 53.01 71.1807 52.587V50.139H72.3417V49.59H71.1807V48.42C70.9467 48.42 70.6497 48.483 70.4337 48.555V49.599L69.6327 49.716V50.139H70.4337V52.686C70.4337 53.235 70.4967 53.532 70.7127 53.784C70.9107 54.009 71.2617 54.126 71.6937 54.126ZM74.5398 54.126C75.0708 54.126 75.5388 53.955 75.9258 53.703L75.9708 54H76.5738V51.066C76.5738 50.49 76.4658 50.139 76.1868 49.869C75.9078 49.608 75.4668 49.464 74.8098 49.464C74.3868 49.464 73.8828 49.518 73.4688 49.617L73.4958 50.193C73.9278 50.121 74.3508 50.085 74.6838 50.085C75.1248 50.085 75.4128 50.166 75.6018 50.346C75.7638 50.508 75.8268 50.733 75.8268 51.093V51.372H74.9088C74.2698 51.372 73.7478 51.489 73.4148 51.795C73.1808 52.011 73.0368 52.335 73.0368 52.749C73.0368 53.163 73.1718 53.478 73.3878 53.703C73.6578 53.982 74.0628 54.126 74.5398 54.126ZM74.7018 53.523C74.1258 53.523 73.7928 53.262 73.7928 52.731C73.7928 52.461 73.8828 52.272 74.0358 52.146C74.2428 51.984 74.5578 51.921 75.0168 51.921H75.8268V53.235C75.5028 53.397 75.0618 53.523 74.7018 53.523Z" fill="white"/>
<path d="M20.801 83.3083H21.513V81.2683H22.529C23.185 81.2683 23.633 81.1083 23.929 80.8203C24.233 80.5163 24.377 80.0763 24.377 79.4923C24.377 78.9883 24.249 78.5723 23.977 78.3003C23.665 77.9803 23.153 77.8363 22.369 77.8363H20.801V83.3083ZM21.513 80.6923V78.3963H22.313C22.841 78.3963 23.177 78.4843 23.385 78.6923C23.561 78.8683 23.641 79.1323 23.641 79.5083C23.641 79.9403 23.537 80.2363 23.345 80.4203C23.129 80.6203 22.785 80.6923 22.289 80.6923H21.513ZM24.9902 83.3083H25.6542V80.1403C25.9342 79.9643 26.2622 79.8763 26.6062 79.8763C26.7182 79.8763 26.8622 79.8843 26.9502 79.8923V79.3003C26.8622 79.2843 26.7662 79.2763 26.6942 79.2763C26.3502 79.2763 25.9582 79.4123 25.5822 79.7243L25.5422 79.3883H24.9902V83.3083ZM29.0342 83.4203C29.3942 83.4203 29.8582 83.3643 30.1942 83.2683L30.1302 82.7723C29.8262 82.8363 29.4422 82.8763 29.1622 82.8763C28.6662 82.8763 28.3702 82.7723 28.1622 82.5803C27.9302 82.3643 27.8182 82.0123 27.8182 81.5803H30.3462C30.4102 81.5803 30.4422 81.5563 30.4422 81.4923V81.3403C30.4422 80.0523 29.9142 79.2763 28.8182 79.2763C27.8182 79.2763 27.1222 79.9563 27.1222 81.3563C27.1222 82.0603 27.2822 82.5963 27.6342 82.9483C27.9542 83.2683 28.4262 83.4203 29.0342 83.4203ZM27.8182 81.0923C27.8262 80.3003 28.1542 79.8123 28.8182 79.8123C29.4742 79.8123 29.7622 80.3403 29.7862 81.0923H27.8182ZM32.953 83.4203C33.241 83.4203 33.681 83.3643 33.937 83.2923L33.889 82.7963C33.689 82.8363 33.337 82.8763 33.073 82.8763C32.593 82.8763 32.257 82.7643 32.033 82.5083C31.817 82.2603 31.705 81.8843 31.705 81.3883C31.705 80.3483 32.121 79.8123 33.041 79.8123C33.289 79.8123 33.609 79.8603 33.857 79.9083L33.897 79.3963C33.625 79.3243 33.265 79.2763 32.961 79.2763C32.361 79.2763 31.857 79.4523 31.521 79.8123C31.185 80.1723 31.009 80.7083 31.009 81.3963C31.009 82.0843 31.201 82.5963 31.529 82.9323C31.849 83.2603 32.313 83.4203 32.953 83.4203ZM34.9866 78.6443H35.0266C35.2666 78.6443 35.4186 78.5243 35.4186 78.2203V78.2043C35.4186 77.9003 35.2666 77.7803 35.0266 77.7803H34.9866C34.7466 77.7803 34.5946 77.9003 34.5946 78.2043V78.2203C34.5946 78.5243 34.7466 78.6443 34.9866 78.6443ZM34.6746 83.3083H35.3386V79.3883H34.6746V83.3083ZM37.8871 83.4203C39.1031 83.4203 39.6711 82.6523 39.6711 81.3483C39.6711 80.0443 39.1031 79.2763 37.8871 79.2763C36.6711 79.2763 36.1031 80.0443 36.1031 81.3483C36.1031 82.6523 36.6711 83.4203 37.8871 83.4203ZM37.8871 82.8763C37.0871 82.8763 36.7991 82.3483 36.7991 81.3483C36.7991 80.3483 37.0871 79.8203 37.8871 79.8203C38.6871 79.8203 38.9751 80.3483 38.9751 81.3483C38.9751 82.3483 38.6871 82.8763 37.8871 82.8763ZM41.8973 83.3083H42.5613V80.1403C42.8413 79.9643 43.1693 79.8763 43.5133 79.8763C43.6253 79.8763 43.7693 79.8843 43.8573 79.8923V79.3003C43.7693 79.2843 43.6733 79.2763 43.6013 79.2763C43.2573 79.2763 42.8653 79.4123 42.4893 79.7243L42.4493 79.3883H41.8973V83.3083ZM45.9413 83.4203C46.3013 83.4203 46.7653 83.3643 47.1013 83.2683L47.0373 82.7723C46.7333 82.8363 46.3493 82.8763 46.0693 82.8763C45.5733 82.8763 45.2773 82.7723 45.0693 82.5803C44.8373 82.3643 44.7253 82.0123 44.7253 81.5803H47.2533C47.3173 81.5803 47.3493 81.5563 47.3493 81.4923V81.3403C47.3493 80.0523 46.8213 79.2763 45.7253 79.2763C44.7253 79.2763 44.0293 79.9563 44.0293 81.3563C44.0293 82.0603 44.1893 82.5963 44.5413 82.9483C44.8613 83.2683 45.3333 83.4203 45.9413 83.4203ZM44.7253 81.0923C44.7333 80.3003 45.0613 79.8123 45.7253 79.8123C46.3813 79.8123 46.6693 80.3403 46.6933 81.0923H44.7253ZM49.6362 85.2203C50.9642 85.2203 51.4922 84.7803 51.4922 83.9883C51.4922 83.6683 51.4042 83.3963 51.2042 83.1963C50.9482 82.9403 50.5642 82.8283 49.8762 82.8283H49.1242C48.9082 82.8283 48.8042 82.7563 48.8042 82.5883C48.8042 82.4523 48.9002 82.2443 49.0202 82.1083C49.2042 82.1643 49.4042 82.1883 49.6362 82.1883C50.7082 82.1883 51.2122 81.5803 51.2122 80.7323C51.2122 80.1723 50.9882 79.7083 50.5162 79.4683L51.0602 78.5403C50.9322 78.4363 50.6922 78.3243 50.5082 78.2843L50.0362 79.3083C49.9162 79.2923 49.7802 79.2763 49.6362 79.2763C48.5642 79.2763 48.0602 79.8843 48.0602 80.7323C48.0602 81.2443 48.2442 81.6603 48.6122 81.9163C48.3322 82.1883 48.1482 82.5083 48.1482 82.8203C48.1482 82.9963 48.2042 83.1403 48.3322 83.2443C48.0602 83.4363 47.8842 83.7723 47.8842 84.1163C47.8842 84.8123 48.4282 85.2203 49.6362 85.2203ZM49.6362 81.6603C48.9882 81.6603 48.6922 81.3323 48.6922 80.7323C48.6922 80.1323 48.9882 79.8043 49.6362 79.8043C50.2842 79.8043 50.5802 80.1323 50.5802 80.7323C50.5802 81.3323 50.2842 81.6603 49.6362 81.6603ZM49.7002 84.6603C48.8282 84.6603 48.5082 84.4203 48.5082 83.9963C48.5082 83.7883 48.5962 83.5723 48.7402 83.3963C48.8202 83.4123 48.9162 83.4203 49.0282 83.4203H49.8762C50.2682 83.4203 50.5242 83.4683 50.6762 83.5803C50.8042 83.6763 50.8682 83.8203 50.8682 84.0123C50.8682 84.4203 50.5322 84.6603 49.7002 84.6603ZM53.3462 83.4203C53.8022 83.4203 54.2742 83.2683 54.6822 83.0203L54.7142 83.3083H55.2662V79.3883H54.6022V82.5803C54.2822 82.7323 53.8742 82.8363 53.5222 82.8363C53.2342 82.8363 53.0262 82.7723 52.8902 82.6363C52.7542 82.5003 52.6982 82.3083 52.6982 81.9723V79.3883H52.0342V82.0523C52.0342 82.5403 52.1462 82.8603 52.3622 83.0763C52.5862 83.3083 52.9222 83.4203 53.3462 83.4203ZM56.2341 83.3083H56.8981V77.5883H56.2341V83.3083ZM58.991 83.4203C59.463 83.4203 59.879 83.2683 60.223 83.0443L60.263 83.3083H60.799V80.7003C60.799 80.1883 60.703 79.8763 60.455 79.6363C60.207 79.4043 59.815 79.2763 59.231 79.2763C58.855 79.2763 58.407 79.3243 58.039 79.4123L58.063 79.9243C58.447 79.8603 58.823 79.8283 59.119 79.8283C59.511 79.8283 59.767 79.9003 59.935 80.0603C60.079 80.2043 60.135 80.4043 60.135 80.7243V80.9723H59.319C58.751 80.9723 58.287 81.0763 57.991 81.3483C57.783 81.5403 57.655 81.8283 57.655 82.1963C57.655 82.5643 57.775 82.8443 57.967 83.0443C58.207 83.2923 58.567 83.4203 58.991 83.4203ZM59.135 82.8843C58.623 82.8843 58.327 82.6523 58.327 82.1803C58.327 81.9403 58.407 81.7723 58.543 81.6603C58.727 81.5163 59.007 81.4603 59.415 81.4603H60.135V82.6283C59.847 82.7723 59.455 82.8843 59.135 82.8843ZM61.742 83.3083H62.406V80.1403C62.686 79.9643 63.014 79.8763 63.358 79.8763C63.47 79.8763 63.614 79.8843 63.702 79.8923V79.3003C63.614 79.2843 63.518 79.2763 63.446 79.2763C63.102 79.2763 62.71 79.4123 62.334 79.7243L62.294 79.3883H61.742V83.3083ZM64.5817 80.9323H64.6377C64.8777 80.9323 65.0377 80.8123 65.0377 80.5003V80.4683C65.0377 80.1563 64.8777 80.0363 64.6377 80.0363H64.5817C64.3417 80.0363 64.1817 80.1563 64.1817 80.4683V80.5003C64.1817 80.8123 64.3417 80.9323 64.5817 80.9323ZM64.5817 83.4203H64.6377C64.8777 83.4203 65.0377 83.3003 65.0377 82.9883V82.9563C65.0377 82.6443 64.8777 82.5243 64.6377 82.5243H64.5817C64.3417 82.5243 64.1817 82.6443 64.1817 82.9563V82.9883C64.1817 83.3003 64.3417 83.4203 64.5817 83.4203ZM68.859 83.4203C69.491 83.4203 69.979 83.2683 70.307 82.9563C70.579 82.7003 70.739 82.3243 70.739 81.8443C70.739 79.9723 67.923 80.3963 67.923 79.1483C67.923 78.5643 68.379 78.3243 69.123 78.3243C69.483 78.3243 69.907 78.3803 70.307 78.4843L70.411 77.9403C70.035 77.8123 69.539 77.7323 69.067 77.7323C67.979 77.7323 67.251 78.2283 67.251 79.1963C67.251 81.0763 70.059 80.5403 70.059 81.9163C70.059 82.2123 69.955 82.4283 69.763 82.5803C69.547 82.7483 69.243 82.8283 68.795 82.8283C68.355 82.8283 67.843 82.7323 67.427 82.6123L67.307 83.1563C67.723 83.3243 68.355 83.4203 68.859 83.4203ZM71.3148 83.4203H71.9628L74.3228 77.7323H73.6748L71.3148 83.4203ZM76.9648 83.3083H79.3968V82.7963H78.5648V78.1563C78.5648 77.8683 78.4528 77.7803 78.1088 77.7803C77.8208 77.7803 77.3088 77.8203 76.9808 77.8683V78.3163H77.9088V82.7963H76.9648V83.3083ZM82.4028 83.4203C83.7628 83.4203 84.2828 82.3643 84.2828 80.5803C84.2828 78.7963 83.7628 77.7323 82.4028 77.7323C81.0428 77.7323 80.5228 78.7963 80.5228 80.5803C80.5228 82.3643 81.0428 83.4203 82.4028 83.4203ZM82.4028 82.8523C81.5148 82.8523 81.2188 82.1083 81.2188 80.5803C81.2188 79.0523 81.5148 78.3003 82.4028 78.3003C83.2908 78.3003 83.5868 79.0523 83.5868 80.5803C83.5868 82.1083 83.2908 82.8523 82.4028 82.8523ZM86.6569 83.4203C88.0169 83.4203 88.5369 82.3643 88.5369 80.5803C88.5369 78.7963 88.0169 77.7323 86.6569 77.7323C85.2969 77.7323 84.7769 78.7963 84.7769 80.5803C84.7769 82.3643 85.2969 83.4203 86.6569 83.4203ZM86.6569 82.8523C85.7689 82.8523 85.4729 82.1083 85.4729 80.5803C85.4729 79.0523 85.7689 78.3003 86.6569 78.3003C87.5449 78.3003 87.8409 79.0523 87.8409 80.5803C87.8409 82.1083 87.5449 82.8523 86.6569 82.8523Z" fill="white"/>
<path d="M65.5491 83.3331L86.8452 78.364" stroke="white" stroke-width="0.735406" stroke-linecap="round"/>
<rect x="107" y="90" width="40.848" height="106.205" rx="4.45614" transform="rotate(90 107 90)" fill="#FBC7DE"/>
<path fill-rule="evenodd" clip-rule="evenodd" d="M29.5437 110.097C29.5437 110.299 29.4101 110.452 29.3674 110.465H21.9403V106.937L29.3407 106.935C29.3995 106.956 29.5437 107.122 29.5437 107.306V110.097ZM28.1362 118.757H21.9429V111.651H28.3125V118.388C28.3098 118.591 28.1763 118.743 28.1362 118.757ZM14.3956 118.388V111.651H20.7198V118.757H14.5852C14.5291 118.74 14.3956 118.591 14.3956 118.388ZM13.2205 107.303C13.2205 107.119 13.362 106.953 13.3968 106.935H20.7224V110.462H13.4074C13.3514 110.441 13.2232 110.294 13.2232 110.094V107.303H13.2205ZM16.6657 103.14C17.0102 102.625 17.4135 102.368 17.8701 102.368C18.1666 102.368 18.4897 102.478 18.8316 102.694C19.526 103.132 20.2337 104.649 20.5755 105.61C19.5393 105.693 17.8114 105.682 17.125 105.247C16.6897 104.972 16.428 104.654 16.3532 104.307C16.2758 103.955 16.3826 103.562 16.6657 103.14ZM23.8765 102.692C24.7471 102.141 25.4762 102.291 26.0424 103.138C26.3255 103.562 26.4323 103.952 26.3549 104.302C26.2801 104.649 26.0184 104.967 25.5831 105.242C24.894 105.677 23.1661 105.688 22.1299 105.605C22.4744 104.646 23.1821 103.132 23.8765 102.692ZM29.3701 105.749H26.8543C27.2095 105.394 27.4552 104.991 27.5513 104.55C27.6956 103.891 27.5273 103.18 27.068 102.491C26.1305 101.089 24.6537 100.785 23.2115 101.698C22.4236 102.198 21.788 103.314 21.3554 104.288C20.9254 103.314 20.2871 102.195 19.4993 101.698C18.0571 100.785 16.5802 101.089 15.6428 102.491C15.1834 103.18 15.0152 103.891 15.1594 104.55C15.2556 104.991 15.5013 105.394 15.8538 105.749H13.3968C12.665 105.749 12 106.492 12 107.306V110.097C12 110.855 12.5208 111.504 13.1751 111.627V118.388C13.1751 119.232 13.8161 119.945 14.5719 119.945H28.1362C28.892 119.945 29.533 119.232 29.533 118.388V111.632C30.2167 111.536 30.7668 110.876 30.7668 110.094V107.303C30.7668 106.489 30.1018 105.749 29.3701 105.749Z" fill="#922859"/>
<path d="M40.9277 122.538C42.2777 122.538 44.1497 122.268 45.3197 121.908V115.626H40.8017V117.642H42.5297V120.234C42.0977 120.306 41.4857 120.36 41.0357 120.36C39.8477 120.36 39.1097 120 38.6597 119.37C38.1197 118.614 37.9397 117.48 37.9397 116.094C37.9397 113.412 38.9657 111.936 41.4497 111.936C42.4217 111.936 43.4837 112.134 44.3657 112.386L44.7257 110.334C43.9337 109.992 42.4757 109.74 41.2517 109.74C37.0577 109.74 35.0237 112.35 35.0237 116.202C35.0237 120.108 36.5177 122.538 40.9277 122.538ZM47.6219 122.286H50.4299V117.822H51.9779L54.2459 122.286H57.4139L54.7499 117.444C56.1359 116.796 56.8379 115.464 56.8379 113.79C56.8379 112.494 56.4419 111.558 55.8119 110.964C55.0019 110.208 53.8319 109.974 51.8519 109.974H47.6219V122.286ZM50.4299 115.788V112.008H51.6899C52.6079 112.008 53.2019 112.116 53.5619 112.458C53.8499 112.746 53.9939 113.196 53.9939 113.826C53.9939 114.51 53.8319 115.05 53.4719 115.356C53.1119 115.662 52.6079 115.788 51.6719 115.788H50.4299ZM58.0518 122.286H60.7338L61.6878 119.19H65.6838L66.7098 122.286H69.7158L65.2698 109.974H62.1738L58.0518 122.286ZM62.3358 117.156L63.6138 113.052H63.6498L64.9998 117.156H62.3358ZM72.981 122.286H75.789V112.008H79.515L79.731 109.974H69.165V112.008H72.981V122.286ZM81.2321 122.286H84.0401V109.974H81.2321V122.286ZM90.3692 122.538C92.1332 122.538 93.3032 122.178 94.1672 121.368C94.8152 120.756 95.1932 119.874 95.1932 118.776C95.1932 113.97 88.9112 115.626 88.9112 113.214C88.9112 112.44 89.3972 111.9 90.9092 111.9C91.7732 111.9 92.8532 112.062 93.8612 112.332L94.2932 110.244C93.3392 109.92 92.0432 109.74 90.8552 109.74C88.2272 109.74 86.2652 110.838 86.2652 113.34C86.2652 118.182 92.5472 116.508 92.5472 118.812C92.5472 119.946 91.7732 120.378 90.1172 120.378C89.2172 120.378 87.7952 120.144 86.7152 119.766L86.2832 121.908C87.5252 122.34 88.8032 122.538 90.3692 122.538Z" fill="#922859"/>
<path d="M41.4118 105.966H42.3908V98.4421H41.4118V105.966ZM44.104 105.966H45.017V101.577C45.457 101.368 46.04 101.225 46.524 101.225C46.92 101.225 47.206 101.313 47.393 101.5C47.58 101.687 47.657 101.951 47.657 102.413V105.966H48.57V102.303C48.57 101.632 48.416 101.192 48.119 100.895C47.811 100.576 47.349 100.422 46.766 100.422C46.139 100.422 45.468 100.631 44.907 100.972L44.863 100.576H44.104V105.966ZM51.5064 106.12C52.8044 106.12 53.6844 105.614 53.6844 104.47C53.6844 102.545 50.6814 103.117 50.6814 101.907C50.6814 101.401 51.0884 101.148 51.8584 101.148C52.2984 101.148 52.7934 101.214 53.2774 101.324L53.3544 100.653C52.9254 100.521 52.3204 100.422 51.7814 100.422C50.6374 100.422 49.8234 100.928 49.8234 101.973C49.8234 103.953 52.8264 103.326 52.8264 104.536C52.8264 105.086 52.3534 105.383 51.4734 105.383C51.0004 105.383 50.4064 105.306 49.9664 105.185L49.9224 105.889C50.3294 106.021 50.9894 106.12 51.5064 106.12ZM56.8451 106.12C57.2411 106.12 57.6701 106.054 57.9561 105.977L57.9121 105.306C57.6481 105.361 57.2851 105.394 57.0981 105.394C56.7131 105.394 56.5261 105.317 56.4051 105.185C56.2511 105.02 56.2181 104.756 56.2181 104.239V101.247H57.6371V100.576H56.2181V99.1461C55.9321 99.1461 55.5691 99.2231 55.3051 99.3111V100.587L54.3261 100.73V101.247H55.3051V104.36C55.3051 105.031 55.3821 105.394 55.6461 105.702C55.8881 105.977 56.3171 106.12 56.8451 106.12ZM60.5437 106.12C61.1927 106.12 61.7647 105.911 62.2377 105.603L62.2927 105.966H63.0297V102.38C63.0297 101.676 62.8977 101.247 62.5567 100.917C62.2157 100.598 61.6767 100.422 60.8737 100.422C60.3567 100.422 59.7407 100.488 59.2347 100.609L59.2677 101.313C59.7957 101.225 60.3127 101.181 60.7197 101.181C61.2587 101.181 61.6107 101.28 61.8417 101.5C62.0397 101.698 62.1167 101.973 62.1167 102.413V102.754H60.9947C60.2137 102.754 59.5757 102.897 59.1687 103.271C58.8827 103.535 58.7067 103.931 58.7067 104.437C58.7067 104.943 58.8717 105.328 59.1357 105.603C59.4657 105.944 59.9607 106.12 60.5437 106.12ZM60.7417 105.383C60.0377 105.383 59.6307 105.064 59.6307 104.415C59.6307 104.085 59.7407 103.854 59.9277 103.7C60.1807 103.502 60.5657 103.425 61.1267 103.425H62.1167V105.031C61.7207 105.229 61.1817 105.383 60.7417 105.383ZM64.5574 105.966H65.4704V98.1011H64.5574V105.966ZM68.5681 106.12C69.2171 106.12 69.7891 105.911 70.2621 105.603L70.3171 105.966H71.0541V102.38C71.0541 101.676 70.9221 101.247 70.5811 100.917C70.2401 100.598 69.7011 100.422 68.8981 100.422C68.3811 100.422 67.7651 100.488 67.2591 100.609L67.2921 101.313C67.8201 101.225 68.3371 101.181 68.7441 101.181C69.2831 101.181 69.6351 101.28 69.8661 101.5C70.0641 101.698 70.1411 101.973 70.1411 102.413V102.754H69.0191C68.2381 102.754 67.6001 102.897 67.1931 103.271C66.9071 103.535 66.7311 103.931 66.7311 104.437C66.7311 104.943 66.8961 105.328 67.1601 105.603C67.4901 105.944 67.9851 106.12 68.5681 106.12ZM68.7661 105.383C68.0621 105.383 67.6551 105.064 67.6551 104.415C67.6551 104.085 67.7651 103.854 67.9521 103.7C68.2051 103.502 68.5901 103.425 69.1511 103.425H70.1411V105.031C69.7451 105.229 69.2061 105.383 68.7661 105.383ZM74.9578 106.12C75.3538 106.12 75.9588 106.043 76.3108 105.944L76.2448 105.262C75.9698 105.317 75.4858 105.372 75.1228 105.372C74.4628 105.372 74.0008 105.218 73.6928 104.866C73.3958 104.525 73.2418 104.008 73.2418 103.326C73.2418 101.896 73.8138 101.159 75.0788 101.159C75.4198 101.159 75.8598 101.225 76.2008 101.291L76.2558 100.587C75.8818 100.488 75.3868 100.422 74.9688 100.422C74.1438 100.422 73.4508 100.664 72.9888 101.159C72.5268 101.654 72.2848 102.391 72.2848 103.337C72.2848 104.283 72.5488 104.987 72.9998 105.449C73.4398 105.9 74.0778 106.12 74.9578 106.12ZM77.9739 99.5531H78.0289C78.3589 99.5531 78.5679 99.3881 78.5679 98.9701V98.9481C78.5679 98.5301 78.3589 98.3651 78.0289 98.3651H77.9739C77.6439 98.3651 77.4349 98.5301 77.4349 98.9481V98.9701C77.4349 99.3881 77.6439 99.5531 77.9739 99.5531ZM77.5449 105.966H78.4579V100.576H77.5449V105.966ZM81.3021 99.7071L83.4031 98.2001L82.8861 97.5071L80.9501 99.2231L81.3021 99.7071ZM82.1821 106.12C83.8541 106.12 84.6351 105.064 84.6351 103.271C84.6351 101.478 83.8541 100.422 82.1821 100.422C80.5101 100.422 79.7291 101.478 79.7291 103.271C79.7291 105.064 80.5101 106.12 82.1821 106.12ZM82.1821 105.372C81.0821 105.372 80.6861 104.646 80.6861 103.271C80.6861 101.896 81.0821 101.17 82.1821 101.17C83.2821 101.17 83.6781 101.896 83.6781 103.271C83.6781 104.646 83.2821 105.372 82.1821 105.372ZM85.8911 105.966H86.8041V101.577C87.2441 101.368 87.8271 101.225 88.3111 101.225C88.7071 101.225 88.9931 101.313 89.1801 101.5C89.3671 101.687 89.4441 101.951 89.4441 102.413V105.966H90.3571V102.303C90.3571 101.632 90.2031 101.192 89.9061 100.895C89.5981 100.576 89.1361 100.422 88.5531 100.422C87.9261 100.422 87.2551 100.631 86.6941 100.972L86.6501 100.576H85.8911V105.966Z" fill="#922859"/>
</svg>
