<svg width="471" height="124" viewBox="0 0 471 124" fill="none" xmlns="http://www.w3.org/2000/svg">
<path d="M171.217 51.1359C177.489 51.1359 181.649 49.8559 184.721 46.9759C187.025 44.7999 188.369 41.6639 188.369 37.7599C188.369 20.6719 166.033 26.5599 166.033 17.9839C166.033 15.2319 167.761 13.3119 173.137 13.3119C176.209 13.3119 180.049 13.8879 183.633 14.8479L185.169 7.42387C181.777 6.27187 177.169 5.63187 172.945 5.63187C163.601 5.63187 156.625 9.53587 156.625 18.4319C156.625 35.6479 178.961 29.6959 178.961 37.8879C178.961 41.9199 176.209 43.4559 170.321 43.4559C167.121 43.4559 162.065 42.6239 158.225 41.2799L156.689 48.8959C161.105 50.4319 165.649 51.1359 171.217 51.1359ZM193.607 50.2399H203.591V6.46387H193.607V50.2399ZM210.607 50.2399H219.375V23.6799L239.471 50.2399H247.471V6.46387H238.703V34.4959L217.967 6.46387H210.607V50.2399ZM285.502 51.1359C289.086 51.1359 293.886 50.5599 296.51 49.7919L295.486 42.4959C292.926 43.0079 289.534 43.3919 287.422 43.3919C282.494 43.3919 279.742 42.4319 277.822 40.2559C275.646 37.8239 274.686 33.4719 274.686 28.2879C274.686 19.5839 276.862 13.3759 286.27 13.3759C289.022 13.3759 292.286 13.9519 295.678 14.9119L296.958 7.61587C294.142 6.46387 289.278 5.63187 285.502 5.63187C270.526 5.63187 264.318 14.8479 264.318 28.5439C264.318 36.1599 265.918 41.8559 269.63 45.8239C272.894 49.2799 277.758 51.1359 285.502 51.1359ZM318.838 51.1359C332.214 51.1359 338.23 43.1999 338.23 28.4159C338.23 13.6319 332.214 5.63187 318.838 5.63187C305.462 5.63187 299.446 13.6319 299.446 28.4159C299.446 43.1999 305.462 51.1359 318.838 51.1359ZM318.838 43.3279C312.374 43.3279 309.814 38.9759 309.814 28.4159C309.814 17.8559 312.374 13.4399 318.838 13.4399C325.302 13.4399 327.862 17.8559 327.862 28.4159C327.862 38.9759 325.302 43.3279 318.838 43.3279ZM356.232 51.1359C362.504 51.1359 366.664 49.8559 369.736 46.9759C372.04 44.7999 373.384 41.6639 373.384 37.7599C373.384 20.6719 351.048 26.5599 351.048 17.9839C351.048 15.2319 352.776 13.3119 358.152 13.3119C361.224 13.3119 365.064 13.8879 368.648 14.8479L370.184 7.42387C366.792 6.27187 362.184 5.63187 357.96 5.63187C348.616 5.63187 341.64 9.53587 341.64 18.4319C341.64 35.6479 363.976 29.6959 363.976 37.8879C363.976 41.9199 361.224 43.4559 355.336 43.4559C352.136 43.4559 347.08 42.6239 343.24 41.2799L341.704 48.8959C346.12 50.4319 350.664 51.1359 356.232 51.1359ZM387.222 50.2399H397.206V13.6959H410.454L411.222 6.46387H373.654V13.6959H387.222V50.2399ZM431.408 51.1359C444.784 51.1359 450.8 43.1999 450.8 28.4159C450.8 13.6319 444.784 5.63187 431.408 5.63187C418.032 5.63187 412.016 13.6319 412.016 28.4159C412.016 43.1999 418.032 51.1359 431.408 51.1359ZM431.408 43.3279C424.944 43.3279 422.384 38.9759 422.384 28.4159C422.384 17.8559 424.944 13.4399 431.408 13.4399C437.872 13.4399 440.432 17.8559 440.432 28.4159C440.432 38.9759 437.872 43.3279 431.408 43.3279ZM456.898 36.5439H463.682L465.09 6.46387H455.49L456.898 36.5439ZM460.226 51.1359H460.674C463.746 51.1359 465.346 49.9199 465.346 46.7199V45.9519C465.346 42.7519 463.746 41.5359 460.674 41.5359H460.226C457.154 41.5359 455.554 42.7519 455.554 45.9519V46.7199C455.554 49.9199 457.154 51.1359 460.226 51.1359Z" fill="white"/>
<path d="M9.44628 7.83158H8.9995C5.93584 7.83158 4.34018 9.04428 4.34018 12.2356V13.0015C4.34018 16.1928 5.93584 17.4055 8.9995 17.4055H9.44628C12.5099 17.4055 14.1056 16.1928 14.1056 13.0015V12.2356C14.1056 9.04428 12.5099 7.83158 9.44628 7.83158ZM12.7652 22.384H5.99967L4.59549 52.3823H14.1694L12.7652 22.384Z" fill="white"/>
<path d="M41.7837 20.4981H33.0426V2.08374H19.1625V51.5839H33.0426V32.3777H41.7837V51.5839H55.2495V2.08374H41.7837V20.4981Z" fill="white"/>
<path d="M116.963 1.25666C103.09 1.24554 96.0014 11.4436 94.2505 15.5584C94.2661 9.37953 88.1691 2.08852 81.0341 2.07963H58.0498V51.582L79.4793 51.5864C88.1179 51.5864 94.2661 44.1108 94.2772 37.7028C96.2486 41.7376 103.09 51.8355 116.963 51.8289C130.852 51.8244 142.155 40.3007 142.15 26.4304C142.148 12.2688 130.852 1.26778 116.963 1.25666ZM77.6838 40.0538H70.8674V31.6885H77.6838C79.6664 31.6885 81.2279 33.6436 81.2279 35.8723C81.2279 38.0987 79.6664 40.0538 77.6838 40.0538ZM77.7083 21.4682H70.8919V13.1007H77.7083C79.6909 13.1007 81.2524 15.0558 81.2524 17.2822C81.2524 19.5109 79.6909 21.4682 77.7083 21.4682ZM86.7813 26.4416C88.3429 26.2436 90.9447 24.462 91.8625 23.3232C91.5395 24.7334 91.515 28.817 91.8914 30.2294C90.8445 28.6191 88.3674 26.6395 86.7813 26.4416ZM116.972 39.0418C110.002 39.0418 104.353 33.4012 104.353 26.4416C104.353 19.4842 110.002 13.8413 116.972 13.8413C123.942 13.8413 129.591 19.482 129.591 26.4416C129.591 33.4012 123.94 39.0418 116.972 39.0418Z" fill="white"/>
<path d="M116.972 16.5369C111.492 16.5369 107.052 20.972 107.052 26.4414C107.052 31.913 111.494 36.3481 116.972 36.3481C122.45 36.3481 126.891 31.913 126.891 26.4414C126.891 20.972 122.45 16.5369 116.972 16.5369Z" fill="white"/>
<path d="M10.8328 82.2269C12.0288 82.2269 13.4588 81.9929 14.4988 81.7069L14.2908 80.4069C13.3028 80.6149 12.1848 80.7969 11.1448 80.7969C6.54279 80.7969 4.87879 78.4049 4.87879 73.0229C4.87879 67.7449 6.80279 65.1449 10.8848 65.1449C11.9768 65.1449 13.1728 65.3529 14.2648 65.6909L14.5508 64.4169C13.5108 64.0269 12.0548 63.7409 10.6508 63.7409C5.86679 63.7409 3.26679 66.9389 3.26679 73.0749C3.26679 79.4969 5.91879 82.2269 10.8328 82.2269ZM21.7213 82.2269C25.5173 82.2269 27.2073 79.7829 27.2073 75.4929C27.2073 71.2029 25.5173 68.7589 21.7213 68.7589C17.9253 68.7589 16.2353 71.2029 16.2353 75.4929C16.2353 79.7829 17.9253 82.2269 21.7213 82.2269ZM21.7213 80.9269C18.8093 80.9269 17.7953 79.0029 17.7953 75.4929C17.7953 71.9829 18.8093 70.0589 21.7213 70.0589C24.6333 70.0589 25.6473 71.9829 25.6473 75.4929C25.6473 79.0029 24.6333 80.9269 21.7213 80.9269ZM30.4433 81.8629H31.9513V71.1509C33.2513 70.5009 34.7333 70.1369 35.9813 70.1369C36.9953 70.1369 37.7493 70.3969 38.2433 70.8909C38.7633 71.4109 38.9713 72.1129 38.9713 73.4389V81.8629H40.4793V73.0489C40.4793 71.4889 40.1413 70.5529 39.4133 69.8249C38.7113 69.1229 37.5673 68.7589 36.2153 68.7589C34.6813 68.7589 33.1213 69.2529 31.7433 70.0849L31.6393 69.1229H30.4433V81.8629ZM48.4678 82.2269C49.2218 82.2269 50.1318 82.0969 50.7558 81.8889L50.6518 80.6669C50.0798 80.7969 49.2998 80.9009 48.7018 80.9009C47.8698 80.9009 47.3498 80.6929 47.0118 80.3289C46.5958 79.8609 46.5438 79.1849 46.5438 77.9889V70.3189H49.9238V69.1229H46.5438V65.8729C46.0758 65.9249 45.4778 66.0549 45.0358 66.1849V69.1229L42.6958 69.4089V70.3189H45.0358V78.4569C45.0358 79.9129 45.2958 80.8229 45.8938 81.4209C46.4398 81.9669 47.3498 82.2269 48.4678 82.2269ZM53.1933 81.8629H54.7013V71.2289C55.6373 70.5789 56.7293 70.1629 58.0293 70.1629C58.2373 70.1629 58.4973 70.1629 58.9133 70.1889V68.7849C58.6533 68.7589 58.4713 68.7589 58.2893 68.7589C57.0933 68.7589 55.6893 69.2529 54.5193 70.2149L54.3893 69.1229H53.1933V81.8629ZM64.2703 82.2269C65.6483 82.2269 67.1303 81.7589 68.3783 81.0049L68.4563 81.8629H69.6783V73.1789C69.6783 71.6189 69.3143 70.5789 68.6383 69.8769C67.8843 69.0969 66.6623 68.7589 64.9723 68.7589C63.7503 68.7589 62.3723 68.9409 61.1763 69.2529L61.2803 70.5009C62.4243 70.2409 63.6983 70.0849 64.8423 70.0849C66.0123 70.0849 66.8963 70.2929 67.4163 70.8389C67.9103 71.3329 68.1703 72.1389 68.1703 73.3869V74.4269H65.1023C63.1523 74.4269 61.8783 74.7649 60.9943 75.5969C60.3703 76.1949 60.0063 77.1309 60.0063 78.2749C60.0063 80.9009 61.7743 82.2269 64.2703 82.2269ZM64.5303 80.9009C62.6583 80.9009 61.5143 80.0949 61.5143 78.2489C61.5143 77.4169 61.7483 76.7929 62.2423 76.3769C62.8143 75.8829 63.7243 75.6489 65.3363 75.6489H68.1703V79.9649C67.2083 80.5109 65.7003 80.9009 64.5303 80.9009ZM77.667 82.2269C78.421 82.2269 79.331 82.0969 79.955 81.8889L79.851 80.6669C79.279 80.7969 78.499 80.9009 77.901 80.9009C77.069 80.9009 76.549 80.6929 76.211 80.3289C75.795 79.8609 75.743 79.1849 75.743 77.9889V70.3189H79.123V69.1229H75.743V65.8729C75.275 65.9249 74.677 66.0549 74.235 66.1849V69.1229L71.895 69.4089V70.3189H74.235V78.4569C74.235 79.9129 74.495 80.8229 75.093 81.4209C75.639 81.9669 76.549 82.2269 77.667 82.2269ZM85.9285 82.2269C87.3065 82.2269 88.7885 81.7589 90.0365 81.0049L90.1145 81.8629H91.3365V73.1789C91.3365 71.6189 90.9725 70.5789 90.2965 69.8769C89.5425 69.0969 88.3205 68.7589 86.6305 68.7589C85.4085 68.7589 84.0305 68.9409 82.8345 69.2529L82.9385 70.5009C84.0825 70.2409 85.3565 70.0849 86.5005 70.0849C87.6705 70.0849 88.5545 70.2929 89.0745 70.8389C89.5685 71.3329 89.8285 72.1389 89.8285 73.3869V74.4269H86.7605C84.8105 74.4269 83.5365 74.7649 82.6525 75.5969C82.0285 76.1949 81.6645 77.1309 81.6645 78.2749C81.6645 80.9009 83.4325 82.2269 85.9285 82.2269ZM86.1885 80.9009C84.3165 80.9009 83.1725 80.0949 83.1725 78.2489C83.1725 77.4169 83.4065 76.7929 83.9005 76.3769C84.4725 75.8829 85.3825 75.6489 86.9945 75.6489H89.8285V79.9649C88.8665 80.5109 87.3585 80.9009 86.1885 80.9009ZM95.1132 81.8629H96.6212V71.1509C97.9212 70.5009 99.4032 70.1369 100.651 70.1369C101.665 70.1369 102.419 70.3969 102.913 70.8909C103.433 71.4109 103.641 72.1129 103.641 73.4389V81.8629H105.149V73.0489C105.149 71.4889 104.811 70.5529 104.083 69.8249C103.381 69.1229 102.237 68.7589 100.885 68.7589C99.3512 68.7589 97.7912 69.2529 96.4132 70.0849L96.3092 69.1229H95.1132V81.8629ZM113.502 82.2269C114.802 82.2269 116.31 81.7069 117.272 81.0829L117.35 81.8629H118.546V63.2729H117.038V69.6429C115.894 69.0709 114.62 68.7589 113.502 68.7589C109.94 68.7589 108.302 71.4369 108.302 75.5449C108.302 80.0169 110.044 82.2269 113.502 82.2269ZM113.58 80.9009C110.954 80.9009 109.862 79.1589 109.862 75.5189C109.862 72.0349 110.876 70.0849 113.788 70.0849C114.828 70.0849 115.894 70.3709 117.038 70.8909V80.0429C115.998 80.5629 114.672 80.9009 113.58 80.9009ZM127.245 82.2269C131.041 82.2269 132.731 79.7829 132.731 75.4929C132.731 71.2029 131.041 68.7589 127.245 68.7589C123.449 68.7589 121.759 71.2029 121.759 75.4929C121.759 79.7829 123.449 82.2269 127.245 82.2269ZM127.245 80.9269C124.333 80.9269 123.319 79.0029 123.319 75.4929C123.319 71.9829 124.333 70.0589 127.245 70.0589C130.157 70.0589 131.171 71.9829 131.171 75.4929C131.171 79.0029 130.157 80.9269 127.245 80.9269ZM145.384 82.2269C146.138 82.2269 147.048 82.0969 147.672 81.8889L147.568 80.6669C146.996 80.7969 146.216 80.9009 145.618 80.9009C144.786 80.9009 144.266 80.6929 143.928 80.3289C143.512 79.8609 143.46 79.1849 143.46 77.9889V70.3189H146.84V69.1229H143.46V65.8729C142.992 65.9249 142.394 66.0549 141.952 66.1849V69.1229L139.612 69.4089V70.3189H141.952V78.4569C141.952 79.9129 142.212 80.8229 142.81 81.4209C143.356 81.9669 144.266 82.2269 145.384 82.2269ZM154.295 82.2269C155.829 82.2269 157.337 81.7329 158.715 80.9009L158.819 81.8629H160.015V69.1229H158.507V79.8349C157.207 80.4849 155.777 80.8489 154.529 80.8489C153.515 80.8489 152.761 80.5889 152.267 80.0949C151.747 79.5749 151.539 78.8729 151.539 77.5469V69.1229H150.031V77.9369C150.031 79.4969 150.369 80.4329 151.097 81.1609C151.799 81.8629 152.943 82.2269 154.295 82.2269ZM169.44 81.8629H174.25C176.72 81.8629 178.514 81.3429 179.632 80.3029C180.932 79.1069 181.92 76.6109 181.92 72.8929C181.92 69.5129 181.166 67.2769 179.996 66.0029C178.644 64.5729 176.694 64.0789 173.626 64.0789H169.44V81.8629ZM171 80.4849V65.4569H173.6C175.966 65.4569 177.63 65.8209 178.696 66.9129C179.866 68.1089 180.334 70.0589 180.334 72.8929C180.334 75.8829 179.814 77.9369 178.54 79.1589C177.604 80.0689 176.122 80.4849 174.094 80.4849H171ZM188.262 66.9389L193.098 63.4029L192.11 62.1029L187.664 66.1849L188.262 66.9389ZM189.588 82.2269C191.122 82.2269 192.63 81.7329 194.008 80.9009L194.112 81.8629H195.308V69.1229H193.8V79.8349C192.5 80.4849 191.07 80.8489 189.822 80.8489C188.808 80.8489 188.054 80.5889 187.56 80.0949C187.04 79.5749 186.832 78.8729 186.832 77.5469V69.1229H185.324V77.9369C185.324 79.4969 185.662 80.4329 186.39 81.1609C187.092 81.8629 188.236 82.2269 189.588 82.2269ZM204.026 82.2269C207.822 82.2269 209.512 79.7829 209.512 75.4929C209.512 71.2029 207.822 68.7589 204.026 68.7589C200.23 68.7589 198.54 71.2029 198.54 75.4929C198.54 79.7829 200.23 82.2269 204.026 82.2269ZM204.026 80.9269C201.114 80.9269 200.1 79.0029 200.1 75.4929C200.1 71.9829 201.114 70.0589 204.026 70.0589C206.938 70.0589 207.952 71.9829 207.952 75.4929C207.952 79.0029 206.938 80.9269 204.026 80.9269ZM222.425 81.8629H223.985V65.4309H229.601L229.783 64.0789H216.705V65.4309H222.425V81.8629ZM236.876 81.8629H238.722L244.338 64.0789H242.804L237.812 80.0689L232.586 64.0789H231L236.876 81.8629ZM256.262 77.2869H257.536V73.8549H260.968V72.5809H257.536V69.1489H256.262V72.5809H252.83V73.8549H256.262V77.2869ZM271.105 81.8629H272.665V64.0789H271.105V81.8629ZM276.935 81.8629H278.443V71.1509C279.743 70.5009 281.225 70.1369 282.473 70.1369C283.487 70.1369 284.241 70.3969 284.735 70.8909C285.255 71.4109 285.463 72.1129 285.463 73.4389V81.8629H286.971V73.0489C286.971 71.4889 286.633 70.5529 285.905 69.8249C285.203 69.1229 284.059 68.7589 282.707 68.7589C281.173 68.7589 279.613 69.2529 278.235 70.0849L278.131 69.1229H276.935V81.8629ZM294.96 82.2269C295.714 82.2269 296.624 82.0969 297.248 81.8889L297.144 80.6669C296.572 80.7969 295.792 80.9009 295.194 80.9009C294.362 80.9009 293.842 80.6929 293.504 80.3289C293.088 79.8609 293.036 79.1849 293.036 77.9889V70.3189H296.416V69.1229H293.036V65.8729C292.568 65.9249 291.97 66.0549 291.528 66.1849V69.1229L289.188 69.4089V70.3189H291.528V78.4569C291.528 79.9129 291.788 80.8229 292.386 81.4209C292.932 81.9669 293.842 82.2269 294.96 82.2269ZM305.119 82.2529C306.237 82.2529 307.719 82.0449 308.577 81.7849L308.447 80.5629C307.407 80.7969 306.289 80.9529 305.223 80.9529C301.843 80.9529 300.725 79.1069 300.647 76.1169H308.967C309.201 76.1169 309.279 76.0389 309.279 75.8309V75.5969C309.279 71.0989 307.641 68.7849 304.261 68.7849C300.725 68.7849 299.061 71.4889 299.061 75.5189C299.061 79.7309 300.803 82.2529 305.119 82.2529ZM300.621 74.8949C300.647 71.9569 301.791 70.0329 304.261 70.0329C306.757 70.0329 307.797 71.9829 307.797 74.8949H300.621ZM312.559 81.8629H314.067V71.2289C315.003 70.5789 316.095 70.1629 317.395 70.1629C317.603 70.1629 317.863 70.1629 318.279 70.1889V68.7849C318.019 68.7589 317.837 68.7589 317.655 68.7589C316.459 68.7589 315.055 69.2529 313.885 70.2149L313.755 69.1229H312.559V81.8629ZM320.734 81.8629H322.242V71.1509C323.542 70.5009 325.024 70.1369 326.272 70.1369C327.286 70.1369 328.04 70.3969 328.534 70.8909C329.054 71.4109 329.262 72.1129 329.262 73.4389V81.8629H330.77V73.0489C330.77 71.4889 330.432 70.5529 329.704 69.8249C329.002 69.1229 327.858 68.7589 326.506 68.7589C324.972 68.7589 323.412 69.2529 322.034 70.0849L321.93 69.1229H320.734V81.8629ZM339.981 82.2529C341.099 82.2529 342.581 82.0449 343.439 81.7849L343.309 80.5629C342.269 80.7969 341.151 80.9529 340.085 80.9529C336.705 80.9529 335.587 79.1069 335.509 76.1169H343.829C344.063 76.1169 344.141 76.0389 344.141 75.8309V75.5969C344.141 71.0989 342.503 68.7849 339.123 68.7849C335.587 68.7849 333.923 71.4889 333.923 75.5189C333.923 79.7309 335.665 82.2529 339.981 82.2529ZM335.483 74.8949C335.509 71.9569 336.653 70.0329 339.123 70.0329C341.619 70.0329 342.659 71.9829 342.659 74.8949H335.483ZM351.632 82.2269C352.386 82.2269 353.296 82.0969 353.92 81.8889L353.816 80.6669C353.244 80.7969 352.464 80.9009 351.866 80.9009C351.034 80.9009 350.514 80.6929 350.176 80.3289C349.76 79.8609 349.708 79.1849 349.708 77.9889V70.3189H353.088V69.1229H349.708V65.8729C349.24 65.9249 348.642 66.0549 348.2 66.1849V69.1229L345.86 69.4089V70.3189H348.2V78.4569C348.2 79.9129 348.46 80.8229 349.058 81.4209C349.604 81.9669 350.514 82.2269 351.632 82.2269ZM361.926 81.8629H363.33V67.0689L369.024 78.0149H370.402L376.252 67.1469V81.8629H377.708V64.0789H376.408L369.778 76.4549L363.33 64.0789H361.926V81.8629ZM386.788 82.2269C390.584 82.2269 392.274 79.7829 392.274 75.4929C392.274 71.2029 390.584 68.7589 386.788 68.7589C382.992 68.7589 381.302 71.2029 381.302 75.4929C381.302 79.7829 382.992 82.2269 386.788 82.2269ZM386.788 80.9269C383.876 80.9269 382.862 79.0029 382.862 75.4929C382.862 71.9829 383.876 70.0589 386.788 70.0589C389.7 70.0589 390.714 71.9829 390.714 75.4929C390.714 79.0029 389.7 80.9269 386.788 80.9269ZM398.273 81.8629H399.885L404.305 69.1229H402.771L399.105 80.2769L395.361 69.1229H393.775L398.273 81.8629ZM407.486 66.5489H407.59C408.188 66.5489 408.526 66.2629 408.526 65.5349V65.4569C408.526 64.7289 408.188 64.4429 407.59 64.4429H407.486C406.888 64.4429 406.55 64.7289 406.55 65.4569V65.5349C406.55 66.2629 406.888 66.5489 407.486 66.5489ZM406.784 81.8629H408.292V69.1229H406.784V81.8629ZM415.181 82.2269C418.327 82.2269 420.043 80.9269 420.043 78.5609C420.043 73.9329 412.893 75.5709 412.893 72.2429C412.893 70.6829 414.011 70.0069 416.091 70.0069C417.001 70.0069 418.041 70.1369 419.133 70.3709L419.211 69.2009C418.353 68.9409 417.079 68.7589 416.065 68.7589C413.231 68.7589 411.463 69.9289 411.463 72.3209C411.463 76.8969 418.613 75.1029 418.613 78.6389C418.613 80.1469 417.417 80.9789 415.103 80.9789C414.063 80.9789 412.841 80.8229 411.853 80.5629L411.723 81.7589C412.607 82.0449 413.933 82.2269 415.181 82.2269ZM427.22 82.2269C427.974 82.2269 428.884 82.0969 429.508 81.8889L429.404 80.6669C428.832 80.7969 428.052 80.9009 427.454 80.9009C426.622 80.9009 426.102 80.6929 425.764 80.3289C425.348 79.8609 425.296 79.1849 425.296 77.9889V70.3189H428.676V69.1229H425.296V65.8729C424.828 65.9249 424.23 66.0549 423.788 66.1849V69.1229L421.448 69.4089V70.3189H423.788V78.4569C423.788 79.9129 424.048 80.8229 424.646 81.4209C425.192 81.9669 426.102 82.2269 427.22 82.2269ZM435.481 82.2269C436.859 82.2269 438.341 81.7589 439.589 81.0049L439.667 81.8629H440.889V73.1789C440.889 71.6189 440.525 70.5789 439.849 69.8769C439.095 69.0969 437.873 68.7589 436.183 68.7589C434.961 68.7589 433.583 68.9409 432.387 69.2529L432.491 70.5009C433.635 70.2409 434.909 70.0849 436.053 70.0849C437.223 70.0849 438.107 70.2929 438.627 70.8389C439.121 71.3329 439.381 72.1389 439.381 73.3869V74.4269H436.313C434.363 74.4269 433.089 74.7649 432.205 75.5969C431.581 76.1949 431.217 77.1309 431.217 78.2749C431.217 80.9009 432.985 82.2269 435.481 82.2269ZM435.741 80.9009C433.869 80.9009 432.725 80.0949 432.725 78.2489C432.725 77.4169 432.959 76.7929 433.453 76.3769C434.025 75.8829 434.935 75.6489 436.547 75.6489H439.381V79.9649C438.419 80.5109 436.911 80.9009 435.741 80.9009ZM444.666 81.8629H446.174V71.2289C447.11 70.5789 448.202 70.1629 449.502 70.1629C449.71 70.1629 449.97 70.1629 450.386 70.1889V68.7849C450.126 68.7589 449.944 68.7589 449.762 68.7589C448.566 68.7589 447.162 69.2529 445.992 70.2149L445.862 69.1229H444.666V81.8629Z" fill="white"/>
<path d="M4.74159 116.494H6.48159V96.658H4.74159V116.494ZM11.2444 116.494H12.9264V104.546C14.3764 103.821 16.0294 103.415 17.4214 103.415C18.5524 103.415 19.3934 103.705 19.9444 104.256C20.5244 104.836 20.7564 105.619 20.7564 107.098V116.494H22.4384V106.663C22.4384 104.923 22.0614 103.879 21.2494 103.067C20.4664 102.284 19.1904 101.878 17.6824 101.878C15.9714 101.878 14.2314 102.429 12.6944 103.357L12.5784 102.284H11.2444V116.494ZM32.7696 116.9C33.8716 116.9 35.1476 116.755 35.9886 116.552L35.8436 115.16C35.1766 115.305 33.9876 115.45 33.1466 115.45C29.1736 115.45 27.6946 113.623 27.6946 109.476C27.6946 105.3 28.9996 103.328 32.8276 103.328C33.7266 103.328 34.7996 103.502 35.7856 103.763L35.9016 102.371C34.8866 102.023 33.6976 101.878 32.5956 101.878C28.2746 101.878 25.9546 104.43 25.9546 109.534C25.9546 114.58 28.3036 116.9 32.7696 116.9ZM39.3395 116.494H41.0215V95.759H39.3395V116.494ZM50.0394 116.9C51.7504 116.9 53.4324 116.349 54.9694 115.421L55.0854 116.494H56.4194V102.284H54.7374V114.232C53.2874 114.957 51.6924 115.363 50.3004 115.363C49.1694 115.363 48.3284 115.073 47.7774 114.522C47.1974 113.942 46.9654 113.159 46.9654 111.68V102.284H45.2834V112.115C45.2834 113.855 45.6604 114.899 46.4724 115.711C47.2554 116.494 48.5314 116.9 50.0394 116.9ZM66.375 123.425C68.318 123.425 69.739 122.99 70.609 122.091C71.45 121.221 71.769 120.003 71.769 118.089V102.284H70.087V114.232C68.637 114.957 67.042 115.363 65.65 115.363C64.519 115.363 63.678 115.073 63.127 114.522C62.547 113.942 62.315 113.159 62.315 111.68V102.284H60.633V112.115C60.633 113.855 61.01 114.899 61.822 115.711C62.605 116.494 63.881 116.9 65.389 116.9C67.013 116.9 68.608 116.407 70.087 115.566V118.031C70.087 119.829 69.826 120.612 69.217 121.163C68.579 121.714 67.622 121.946 66.085 121.946C65.505 121.946 64.577 121.888 64.055 121.801L64.258 123.222C64.867 123.367 65.795 123.425 66.375 123.425ZM82.1306 116.929C83.3776 116.929 85.0306 116.697 85.9876 116.407L85.8426 115.044C84.6826 115.305 83.4356 115.479 82.2466 115.479C78.4766 115.479 77.2296 113.42 77.1426 110.085H86.4226C86.6836 110.085 86.7706 109.998 86.7706 109.766V109.505C86.7706 104.488 84.9436 101.907 81.1736 101.907C77.2296 101.907 75.3736 104.923 75.3736 109.418C75.3736 114.116 77.3166 116.929 82.1306 116.929ZM77.1136 108.722C77.1426 105.445 78.4186 103.299 81.1736 103.299C83.9576 103.299 85.1176 105.474 85.1176 108.722H77.1136Z" fill="white"/>
<path d="M183.87 104.442C183.872 104.457 183.87 118.375 183.87 118.375C183.87 118.562 183.744 118.751 183.56 118.751H181.665C180.557 118.753 179.638 117.81 179.636 116.689V104.492C179.551 101.853 177.696 100.459 175.419 100.463C173.144 100.466 171.291 101.921 171.215 104.56V118.392C171.215 118.578 171.083 118.75 170.899 118.75H169.005C167.897 118.752 166.977 117.764 166.975 116.644V104.51C166.891 101.871 165.035 100.477 162.759 100.481C160.483 100.484 158.631 101.883 158.554 104.522V118.41C158.554 118.596 158.423 118.75 158.239 118.75H156.344C155.237 118.752 154.322 117.845 154.32 116.724C154.32 116.724 154.319 104.504 154.32 104.492C154.429 99.136 158.161 96.2935 162.754 96.2875C165.274 96.2836 167.538 97.1353 169.087 98.7892C170.633 97.1304 172.894 96.2736 175.414 96.2697C180.002 96.2647 183.741 99.0933 183.87 104.442Z" fill="white"/>
<path d="M227.51 118.484C227.586 118.595 227.503 118.743 227.366 118.743L223.982 118.752C223.189 118.754 222.416 118.658 221.73 117.697L218.268 112.596C217.997 112.197 217.604 111.724 217.046 111.724C216.487 111.724 216.094 112.197 215.823 112.596L212.361 117.697C211.675 118.658 210.902 118.754 210.109 118.752H206.725C206.588 118.752 206.505 118.595 206.581 118.484L213.257 108.643C213.451 108.356 213.546 108.023 213.542 107.69C213.546 107.357 213.451 107.024 213.257 106.737L206.581 96.8967C206.505 96.7854 206.588 96.6343 206.725 96.6343H210.109C210.902 96.6323 211.675 96.7228 212.361 97.6839L215.823 102.784C216.094 103.184 216.488 103.657 217.046 103.657C217.603 103.657 217.997 103.184 218.268 102.784L221.73 97.6839C222.416 96.7228 223.189 96.6323 223.982 96.6343H227.366C227.503 96.6343 227.586 96.7854 227.51 96.8967L220.834 106.737C220.64 107.024 220.545 107.357 220.549 107.69C220.545 108.023 220.64 108.356 220.834 108.643L227.51 118.484Z" fill="white"/>
<path d="M205.251 96.6342H203.918C203.188 96.6352 202.512 97.0228 202.147 97.653L201.654 98.5117C199.737 96.8996 197.251 96.2725 195.198 96.2725C188.986 96.2725 184.853 100.655 184.853 107.594C184.853 114.589 189.056 118.915 195.148 118.915C197.48 118.915 199.792 118.145 201.272 116.949C201.355 117.999 202.235 118.753 203.31 118.753H205.243C205.431 118.753 205.585 118.672 205.585 118.485L205.593 96.9751C205.593 96.7853 205.44 96.6342 205.251 96.6342ZM195.107 114.7C191.575 114.7 188.987 112.075 188.987 107.593C188.987 103.11 191.575 100.486 195.107 100.486C198.639 100.486 201.227 103.11 201.227 107.593C201.227 112.075 198.639 114.7 195.107 114.7Z" fill="white"/>
<path d="M107.746 104.865H103.84V96.6362H97.6379V118.755H103.84V110.173H107.746V118.755H113.763V96.6362H107.746V104.865Z" fill="white"/>
<path d="M141.339 96.2634C135.14 96.2585 131.973 100.815 131.19 102.654C131.197 99.8931 128.473 96.6351 125.285 96.6312H115.014V118.751L124.59 118.753C128.45 118.753 131.197 115.413 131.202 112.549C132.083 114.352 135.14 118.864 141.339 118.861C147.546 118.859 152.596 113.71 152.594 107.512C152.593 101.184 147.546 96.2684 141.339 96.2634ZM123.788 113.6H120.742V109.862H123.788C124.674 109.862 125.371 110.735 125.371 111.731C125.371 112.726 124.674 113.6 123.788 113.6ZM123.799 105.295H120.753V101.556H123.799C124.685 101.556 125.382 102.43 125.382 103.424C125.382 104.42 124.685 105.295 123.799 105.295ZM127.853 107.517C128.551 107.429 129.713 106.633 130.123 106.124C129.979 106.754 129.968 108.579 130.136 109.21C129.668 108.49 128.562 107.606 127.853 107.517ZM141.343 113.148C138.229 113.148 135.705 110.627 135.705 107.517C135.705 104.408 138.229 101.887 141.343 101.887C144.458 101.887 146.982 104.407 146.982 107.517C146.982 110.627 144.457 113.148 141.343 113.148Z" fill="white"/>
<path d="M141.344 103.092C138.895 103.092 136.911 105.073 136.911 107.517C136.911 109.962 138.896 111.944 141.344 111.944C143.792 111.944 145.776 109.962 145.776 107.517C145.776 105.073 143.792 103.092 141.344 103.092Z" fill="white"/>
<path d="M228.078 96.8379H228.383V97.7165H228.631V96.8379H228.946V96.6332H228.078V96.8379Z" fill="white"/>
<path d="M229.933 96.6332L229.639 97.1152L229.345 96.6332H229.098V97.7165H229.345V97.0874L229.625 97.5466H229.653L229.933 97.0874V97.7165H230.181V96.6332H229.933Z" fill="white"/>
</svg>
