<svg width="234" height="96" viewBox="0 0 234 96" fill="none" xmlns="http://www.w3.org/2000/svg">
<path d="M82.941 60.0697C85.979 60.0697 87.994 59.4497 89.482 58.0547C90.598 57.0007 91.249 55.4817 91.249 53.5907C91.249 45.3137 80.43 48.1657 80.43 44.0117C80.43 42.6787 81.267 41.7487 83.871 41.7487C85.359 41.7487 87.219 42.0277 88.955 42.4927L89.699 38.8967C88.056 38.3387 85.824 38.0287 83.778 38.0287C79.252 38.0287 75.873 39.9197 75.873 44.2287C75.873 52.5677 86.692 49.6847 86.692 53.6527C86.692 55.6057 85.359 56.3497 82.507 56.3497C80.957 56.3497 78.508 55.9467 76.648 55.2957L75.904 58.9847C78.043 59.7287 80.244 60.0697 82.941 60.0697ZM94.4062 59.6357H99.2422V38.4317H94.4062V59.6357ZM103.26 59.6357H107.507V46.7707L117.241 59.6357H121.116V38.4317H116.869V52.0097L106.825 38.4317H103.26V59.6357ZM140.778 60.0697C142.514 60.0697 144.839 59.7907 146.11 59.4187L145.614 55.8847C144.374 56.1327 142.731 56.3187 141.708 56.3187C139.321 56.3187 137.988 55.8537 137.058 54.7997C136.004 53.6217 135.539 51.5137 135.539 49.0027C135.539 44.7867 136.593 41.7797 141.15 41.7797C142.483 41.7797 144.064 42.0587 145.707 42.5237L146.327 38.9897C144.963 38.4317 142.607 38.0287 140.778 38.0287C133.524 38.0287 130.517 42.4927 130.517 49.1267C130.517 52.8157 131.292 55.5747 133.09 57.4967C134.671 59.1707 137.027 60.0697 140.778 60.0697ZM157.545 60.0697C164.024 60.0697 166.938 56.2257 166.938 49.0647C166.938 41.9037 164.024 38.0287 157.545 38.0287C151.066 38.0287 148.152 41.9037 148.152 49.0647C148.152 56.2257 151.066 60.0697 157.545 60.0697ZM157.545 56.2877C154.414 56.2877 153.174 54.1797 153.174 49.0647C153.174 43.9497 154.414 41.8107 157.545 41.8107C160.676 41.8107 161.916 43.9497 161.916 49.0647C161.916 54.1797 160.676 56.2877 157.545 56.2877ZM176.278 60.0697C179.316 60.0697 181.331 59.4497 182.819 58.0547C183.935 57.0007 184.586 55.4817 184.586 53.5907C184.586 45.3137 173.767 48.1657 173.767 44.0117C173.767 42.6787 174.604 41.7487 177.208 41.7487C178.696 41.7487 180.556 42.0277 182.292 42.4927L183.036 38.8967C181.393 38.3387 179.161 38.0287 177.115 38.0287C172.589 38.0287 169.21 39.9197 169.21 44.2287C169.21 52.5677 180.029 49.6847 180.029 53.6527C180.029 55.6057 178.696 56.3497 175.844 56.3497C174.294 56.3497 171.845 55.9467 169.985 55.2957L169.241 58.9847C171.38 59.7287 173.581 60.0697 176.278 60.0697ZM191.908 59.6357H196.744V41.9347H203.161L203.533 38.4317H185.336V41.9347H191.908V59.6357ZM213.931 60.0697C220.41 60.0697 223.324 56.2257 223.324 49.0647C223.324 41.9037 220.41 38.0287 213.931 38.0287C207.452 38.0287 204.538 41.9037 204.538 49.0647C204.538 56.2257 207.452 60.0697 213.931 60.0697ZM213.931 56.2877C210.8 56.2877 209.56 54.1797 209.56 49.0647C209.56 43.9497 210.8 41.8107 213.931 41.8107C217.062 41.8107 218.302 43.9497 218.302 49.0647C218.302 54.1797 217.062 56.2877 213.931 56.2877ZM226.898 53.0017H230.184L230.866 38.4317H226.216L226.898 53.0017ZM228.51 60.0697H228.727C230.215 60.0697 230.99 59.4807 230.99 57.9307V57.5587C230.99 56.0087 230.215 55.4197 228.727 55.4197H228.51C227.022 55.4197 226.247 56.0087 226.247 57.5587V57.9307C226.247 59.4807 227.022 60.0697 228.51 60.0697Z" fill="white"/>
<path d="M4.57601 38.243H4.35958C2.87547 38.243 2.10249 38.8305 2.10249 40.3764V40.7474C2.10249 42.2934 2.87547 42.8808 4.35958 42.8808H4.57601C6.06012 42.8808 6.8331 42.2934 6.8331 40.7474V40.3764C6.8331 38.8305 6.06012 38.243 4.57601 38.243ZM6.1838 45.2925H2.90639L2.22617 59.8245H6.86402L6.1838 45.2925Z" fill="white"/>
<path d="M20.241 44.7559H16.0066V35.8356H9.28271V59.8146H16.0066V50.5107H20.241V59.8146H26.7642V35.8356H20.241V44.7559Z" fill="white"/>
<path d="M56.6597 35.4348C49.9391 35.4294 46.5054 40.3696 45.6572 42.3629C45.6648 39.3697 42.7113 35.8378 39.2549 35.8335H28.1207V59.8136L38.5017 59.8158C42.6864 59.8158 45.6648 56.1944 45.6702 53.0902C46.6252 55.0448 49.9391 59.9365 56.6597 59.9332C63.388 59.9311 68.8633 54.3487 68.8612 47.6296C68.8601 40.7694 63.388 35.4402 56.6597 35.4348ZM37.6319 54.2291H34.3299V50.1767H37.6319C38.5923 50.1767 39.3488 51.1238 39.3488 52.2035C39.3488 53.282 38.5923 54.2291 37.6319 54.2291ZM37.6438 45.2258H34.3418V41.1723H37.6438C38.6042 41.1723 39.3607 42.1194 39.3607 43.198C39.3607 44.2776 38.6042 45.2258 37.6438 45.2258ZM42.039 47.635C42.7954 47.5391 44.0558 46.6761 44.5004 46.1244C44.344 46.8075 44.3321 48.7857 44.5144 49.4699C44.0073 48.6898 42.8073 47.7309 42.039 47.635ZM56.6641 53.7389C53.2876 53.7389 50.5509 51.0064 50.5509 47.635C50.5509 44.2647 53.2876 41.5311 56.6641 41.5311C60.0406 41.5311 62.7772 44.2636 62.7772 47.635C62.7772 51.0064 60.0395 53.7389 56.6641 53.7389Z" fill="white"/>
<path d="M56.664 42.837C54.0094 42.837 51.8588 44.9855 51.8588 47.635C51.8588 50.2856 54.0105 52.4341 56.664 52.4341C59.3175 52.4341 61.4692 50.2856 61.4692 47.635C61.4692 44.9855 59.3175 42.837 56.664 42.837Z" fill="white"/>
<path d="M9.76027 75.8434C10.3583 75.8434 11.0733 75.7264 11.5933 75.5834L11.4893 74.9334C10.9953 75.0374 10.4363 75.1284 9.91627 75.1284C7.61527 75.1284 6.78327 73.9324 6.78327 71.2414C6.78327 68.6024 7.74527 67.3024 9.78627 67.3024C10.3323 67.3024 10.9303 67.4064 11.4763 67.5754L11.6193 66.9384C11.0993 66.7434 10.3713 66.6004 9.66927 66.6004C7.27727 66.6004 5.97727 68.1994 5.97727 71.2674C5.97727 74.4784 7.30327 75.8434 9.76027 75.8434ZM15.2045 75.8434C17.1025 75.8434 17.9475 74.6214 17.9475 72.4764C17.9475 70.3314 17.1025 69.1094 15.2045 69.1094C13.3065 69.1094 12.4615 70.3314 12.4615 72.4764C12.4615 74.6214 13.3065 75.8434 15.2045 75.8434ZM15.2045 75.1934C13.7485 75.1934 13.2415 74.2314 13.2415 72.4764C13.2415 70.7214 13.7485 69.7594 15.2045 69.7594C16.6605 69.7594 17.1675 70.7214 17.1675 72.4764C17.1675 74.2314 16.6605 75.1934 15.2045 75.1934ZM19.5655 75.6614H20.3195V70.3054C20.9695 69.9804 21.7105 69.7984 22.3345 69.7984C22.8415 69.7984 23.2185 69.9284 23.4655 70.1754C23.7255 70.4354 23.8295 70.7864 23.8295 71.4494V75.6614H24.5835V71.2544C24.5835 70.4744 24.4145 70.0064 24.0505 69.6424C23.6995 69.2914 23.1275 69.1094 22.4515 69.1094C21.6845 69.1094 20.9045 69.3564 20.2155 69.7724L20.1635 69.2914H19.5655V75.6614ZM28.5778 75.8434C28.9548 75.8434 29.4098 75.7784 29.7218 75.6744L29.6698 75.0634C29.3838 75.1284 28.9938 75.1804 28.6948 75.1804C28.2788 75.1804 28.0188 75.0764 27.8498 74.8944C27.6418 74.6604 27.6158 74.3224 27.6158 73.7244V69.8894H29.3058V69.2914H27.6158V67.6664C27.3818 67.6924 27.0828 67.7574 26.8618 67.8224V69.2914L25.6918 69.4344V69.8894H26.8618V73.9584C26.8618 74.6864 26.9918 75.1414 27.2908 75.4404C27.5638 75.7134 28.0188 75.8434 28.5778 75.8434ZM30.9405 75.6614H31.6945V70.3444C32.1625 70.0194 32.7085 69.8114 33.3585 69.8114C33.4625 69.8114 33.5925 69.8114 33.8005 69.8244V69.1224C33.6705 69.1094 33.5795 69.1094 33.4885 69.1094C32.8905 69.1094 32.1885 69.3564 31.6035 69.8374L31.5385 69.2914H30.9405V75.6614ZM36.479 75.8434C37.168 75.8434 37.909 75.6094 38.533 75.2324L38.572 75.6614H39.183V71.3194C39.183 70.5394 39.001 70.0194 38.663 69.6684C38.286 69.2784 37.675 69.1094 36.83 69.1094C36.219 69.1094 35.53 69.2004 34.932 69.3564L34.984 69.9804C35.556 69.8504 36.193 69.7724 36.765 69.7724C37.35 69.7724 37.792 69.8764 38.052 70.1494C38.299 70.3964 38.429 70.7994 38.429 71.4234V71.9434H36.895C35.92 71.9434 35.283 72.1124 34.841 72.5284C34.529 72.8274 34.347 73.2954 34.347 73.8674C34.347 75.1804 35.231 75.8434 36.479 75.8434ZM36.609 75.1804C35.673 75.1804 35.101 74.7774 35.101 73.8544C35.101 73.4384 35.218 73.1264 35.465 72.9184C35.751 72.6714 36.206 72.5544 37.012 72.5544H38.429V74.7124C37.948 74.9854 37.194 75.1804 36.609 75.1804ZM43.1774 75.8434C43.5544 75.8434 44.0094 75.7784 44.3214 75.6744L44.2694 75.0634C43.9834 75.1284 43.5934 75.1804 43.2944 75.1804C42.8784 75.1804 42.6184 75.0764 42.4494 74.8944C42.2414 74.6604 42.2154 74.3224 42.2154 73.7244V69.8894H43.9054V69.2914H42.2154V67.6664C41.9814 67.6924 41.6824 67.7574 41.4614 67.8224V69.2914L40.2914 69.4344V69.8894H41.4614V73.9584C41.4614 74.6864 41.5914 75.1414 41.8904 75.4404C42.1634 75.7134 42.6184 75.8434 43.1774 75.8434ZM47.3081 75.8434C47.9971 75.8434 48.7381 75.6094 49.3621 75.2324L49.4011 75.6614H50.0121V71.3194C50.0121 70.5394 49.8301 70.0194 49.4921 69.6684C49.1151 69.2784 48.5041 69.1094 47.6591 69.1094C47.0481 69.1094 46.3591 69.2004 45.7611 69.3564L45.8131 69.9804C46.3851 69.8504 47.0221 69.7724 47.5941 69.7724C48.1791 69.7724 48.6211 69.8764 48.8811 70.1494C49.1281 70.3964 49.2581 70.7994 49.2581 71.4234V71.9434H47.7241C46.7491 71.9434 46.1121 72.1124 45.6701 72.5284C45.3581 72.8274 45.1761 73.2954 45.1761 73.8674C45.1761 75.1804 46.0601 75.8434 47.3081 75.8434ZM47.4381 75.1804C46.5021 75.1804 45.9301 74.7774 45.9301 73.8544C45.9301 73.4384 46.0471 73.1264 46.2941 72.9184C46.5801 72.6714 47.0351 72.5544 47.8411 72.5544H49.2581V74.7124C48.7771 74.9854 48.0231 75.1804 47.4381 75.1804ZM51.9005 75.6614H52.6545V70.3054C53.3045 69.9804 54.0455 69.7984 54.6695 69.7984C55.1765 69.7984 55.5535 69.9284 55.8005 70.1754C56.0605 70.4354 56.1645 70.7864 56.1645 71.4494V75.6614H56.9185V71.2544C56.9185 70.4744 56.7495 70.0064 56.3855 69.6424C56.0345 69.2914 55.4625 69.1094 54.7865 69.1094C54.0195 69.1094 53.2395 69.3564 52.5505 69.7724L52.4985 69.2914H51.9005V75.6614ZM61.0947 75.8434C61.7447 75.8434 62.4987 75.5834 62.9797 75.2714L63.0187 75.6614H63.6167V66.3664H62.8627V69.5514C62.2907 69.2654 61.6537 69.1094 61.0947 69.1094C59.3137 69.1094 58.4947 70.4484 58.4947 72.5024C58.4947 74.7384 59.3657 75.8434 61.0947 75.8434ZM61.1337 75.1804C59.8207 75.1804 59.2747 74.3094 59.2747 72.4894C59.2747 70.7474 59.7817 69.7724 61.2377 69.7724C61.7577 69.7724 62.2907 69.9154 62.8627 70.1754V74.7514C62.3427 75.0114 61.6797 75.1804 61.1337 75.1804ZM67.9662 75.8434C69.8642 75.8434 70.7092 74.6214 70.7092 72.4764C70.7092 70.3314 69.8642 69.1094 67.9662 69.1094C66.0682 69.1094 65.2232 70.3314 65.2232 72.4764C65.2232 74.6214 66.0682 75.8434 67.9662 75.8434ZM67.9662 75.1934C66.5102 75.1934 66.0032 74.2314 66.0032 72.4764C66.0032 70.7214 66.5102 69.7594 67.9662 69.7594C69.4222 69.7594 69.9292 70.7214 69.9292 72.4764C69.9292 74.2314 69.4222 75.1934 67.9662 75.1934ZM77.0358 75.8434C77.4128 75.8434 77.8678 75.7784 78.1798 75.6744L78.1278 75.0634C77.8418 75.1284 77.4518 75.1804 77.1528 75.1804C76.7368 75.1804 76.4768 75.0764 76.3078 74.8944C76.0998 74.6604 76.0738 74.3224 76.0738 73.7244V69.8894H77.7638V69.2914H76.0738V67.6664C75.8398 67.6924 75.5408 67.7574 75.3198 67.8224V69.2914L74.1498 69.4344V69.8894H75.3198V73.9584C75.3198 74.6864 75.4498 75.1414 75.7488 75.4404C76.0218 75.7134 76.4768 75.8434 77.0358 75.8434ZM81.4915 75.8434C82.2585 75.8434 83.0125 75.5964 83.7015 75.1804L83.7535 75.6614H84.3515V69.2914H83.5975V74.6474C82.9475 74.9724 82.2325 75.1544 81.6085 75.1544C81.1015 75.1544 80.7245 75.0244 80.4775 74.7774C80.2175 74.5174 80.1135 74.1664 80.1135 73.5034V69.2914H79.3595V73.6984C79.3595 74.4784 79.5285 74.9464 79.8925 75.3104C80.2435 75.6614 80.8155 75.8434 81.4915 75.8434ZM89.0639 75.6614H91.4689C92.7039 75.6614 93.6009 75.4014 94.1599 74.8814C94.8099 74.2834 95.3039 73.0354 95.3039 71.1764C95.3039 69.4864 94.9269 68.3684 94.3419 67.7314C93.6659 67.0164 92.6909 66.7694 91.1569 66.7694H89.0639V75.6614ZM89.8439 74.9724V67.4584H91.1439C92.3269 67.4584 93.1589 67.6404 93.6919 68.1864C94.2769 68.7844 94.5109 69.7594 94.5109 71.1764C94.5109 72.6714 94.2509 73.6984 93.6139 74.3094C93.1459 74.7644 92.4049 74.9724 91.3909 74.9724H89.8439ZM98.475 68.1994L100.893 66.4314L100.399 65.7814L98.176 67.8224L98.475 68.1994ZM99.138 75.8434C99.905 75.8434 100.659 75.5964 101.348 75.1804L101.4 75.6614H101.998V69.2914H101.244V74.6474C100.594 74.9724 99.879 75.1544 99.255 75.1544C98.748 75.1544 98.371 75.0244 98.124 74.7774C97.864 74.5174 97.76 74.1664 97.76 73.5034V69.2914H97.006V73.6984C97.006 74.4784 97.175 74.9464 97.539 75.3104C97.89 75.6614 98.462 75.8434 99.138 75.8434ZM106.357 75.8434C108.255 75.8434 109.1 74.6214 109.1 72.4764C109.1 70.3314 108.255 69.1094 106.357 69.1094C104.459 69.1094 103.614 70.3314 103.614 72.4764C103.614 74.6214 104.459 75.8434 106.357 75.8434ZM106.357 75.1934C104.901 75.1934 104.394 74.2314 104.394 72.4764C104.394 70.7214 104.901 69.7594 106.357 69.7594C107.813 69.7594 108.32 70.7214 108.32 72.4764C108.32 74.2314 107.813 75.1934 106.357 75.1934ZM115.556 75.6614H116.336V67.4454H119.144L119.235 66.7694H112.696V67.4454H115.556V75.6614ZM122.782 75.6614H123.705L126.513 66.7694H125.746L123.25 74.7644L120.637 66.7694H119.844L122.782 75.6614ZM132.475 73.3734H133.112V71.6574H134.828V71.0204H133.112V69.3044H132.475V71.0204H130.759V71.6574H132.475V73.3734ZM139.897 75.6614H140.677V66.7694H139.897V75.6614ZM142.812 75.6614H143.566V70.3054C144.216 69.9804 144.957 69.7984 145.581 69.7984C146.088 69.7984 146.465 69.9284 146.712 70.1754C146.972 70.4354 147.076 70.7864 147.076 71.4494V75.6614H147.83V71.2544C147.83 70.4744 147.661 70.0064 147.297 69.6424C146.946 69.2914 146.374 69.1094 145.698 69.1094C144.931 69.1094 144.151 69.3564 143.462 69.7724L143.41 69.2914H142.812V75.6614ZM151.824 75.8434C152.201 75.8434 152.656 75.7784 152.968 75.6744L152.916 75.0634C152.63 75.1284 152.24 75.1804 151.941 75.1804C151.525 75.1804 151.265 75.0764 151.096 74.8944C150.888 74.6604 150.862 74.3224 150.862 73.7244V69.8894H152.552V69.2914H150.862V67.6664C150.628 67.6924 150.329 67.7574 150.108 67.8224V69.2914L148.938 69.4344V69.8894H150.108V73.9584C150.108 74.6864 150.238 75.1414 150.537 75.4404C150.81 75.7134 151.265 75.8434 151.824 75.8434ZM156.904 75.8564C157.463 75.8564 158.204 75.7524 158.633 75.6224L158.568 75.0114C158.048 75.1284 157.489 75.2064 156.956 75.2064C155.266 75.2064 154.707 74.2834 154.668 72.7884H158.828C158.945 72.7884 158.984 72.7494 158.984 72.6454V72.5284C158.984 70.2794 158.165 69.1224 156.475 69.1224C154.707 69.1224 153.875 70.4744 153.875 72.4894C153.875 74.5954 154.746 75.8564 156.904 75.8564ZM154.655 72.1774C154.668 70.7084 155.24 69.7464 156.475 69.7464C157.723 69.7464 158.243 70.7214 158.243 72.1774H154.655ZM160.623 75.6614H161.377V70.3444C161.845 70.0194 162.391 69.8114 163.041 69.8114C163.145 69.8114 163.275 69.8114 163.483 69.8244V69.1224C163.353 69.1094 163.262 69.1094 163.171 69.1094C162.573 69.1094 161.871 69.3564 161.286 69.8374L161.221 69.2914H160.623V75.6614ZM164.711 75.6614H165.465V70.3054C166.115 69.9804 166.856 69.7984 167.48 69.7984C167.987 69.7984 168.364 69.9284 168.611 70.1754C168.871 70.4354 168.975 70.7864 168.975 71.4494V75.6614H169.729V71.2544C169.729 70.4744 169.56 70.0064 169.196 69.6424C168.845 69.2914 168.273 69.1094 167.597 69.1094C166.83 69.1094 166.05 69.3564 165.361 69.7724L165.309 69.2914H164.711V75.6614ZM174.334 75.8564C174.893 75.8564 175.634 75.7524 176.063 75.6224L175.998 75.0114C175.478 75.1284 174.919 75.2064 174.386 75.2064C172.696 75.2064 172.137 74.2834 172.098 72.7884H176.258C176.375 72.7884 176.414 72.7494 176.414 72.6454V72.5284C176.414 70.2794 175.595 69.1224 173.905 69.1224C172.137 69.1224 171.305 70.4744 171.305 72.4894C171.305 74.5954 172.176 75.8564 174.334 75.8564ZM172.085 72.1774C172.098 70.7084 172.67 69.7464 173.905 69.7464C175.153 69.7464 175.673 70.7214 175.673 72.1774H172.085ZM180.16 75.8434C180.537 75.8434 180.992 75.7784 181.304 75.6744L181.252 75.0634C180.966 75.1284 180.576 75.1804 180.277 75.1804C179.861 75.1804 179.601 75.0764 179.432 74.8944C179.224 74.6604 179.198 74.3224 179.198 73.7244V69.8894H180.888V69.2914H179.198V67.6664C178.964 67.6924 178.665 67.7574 178.444 67.8224V69.2914L177.274 69.4344V69.8894H178.444V73.9584C178.444 74.6864 178.574 75.1414 178.873 75.4404C179.146 75.7134 179.601 75.8434 180.16 75.8434ZM185.307 75.6614H186.009V68.2644L188.856 73.7374H189.545L192.47 68.3034V75.6614H193.198V66.7694H192.548L189.233 72.9574L186.009 66.7694H185.307V75.6614ZM197.738 75.8434C199.636 75.8434 200.481 74.6214 200.481 72.4764C200.481 70.3314 199.636 69.1094 197.738 69.1094C195.84 69.1094 194.995 70.3314 194.995 72.4764C194.995 74.6214 195.84 75.8434 197.738 75.8434ZM197.738 75.1934C196.282 75.1934 195.775 74.2314 195.775 72.4764C195.775 70.7214 196.282 69.7594 197.738 69.7594C199.194 69.7594 199.701 70.7214 199.701 72.4764C199.701 74.2314 199.194 75.1934 197.738 75.1934ZM203.48 75.6614H204.286L206.496 69.2914H205.729L203.896 74.8684L202.024 69.2914H201.231L203.48 75.6614ZM208.087 68.0044H208.139C208.438 68.0044 208.607 67.8614 208.607 67.4974V67.4584C208.607 67.0944 208.438 66.9514 208.139 66.9514H208.087C207.788 66.9514 207.619 67.0944 207.619 67.4584V67.4974C207.619 67.8614 207.788 68.0044 208.087 68.0044ZM207.736 75.6614H208.49V69.2914H207.736V75.6614ZM211.935 75.8434C213.508 75.8434 214.366 75.1934 214.366 74.0104C214.366 71.6964 210.791 72.5154 210.791 70.8514C210.791 70.0714 211.35 69.7334 212.39 69.7334C212.845 69.7334 213.365 69.7984 213.911 69.9154L213.95 69.3304C213.521 69.2004 212.884 69.1094 212.377 69.1094C210.96 69.1094 210.076 69.6944 210.076 70.8904C210.076 73.1784 213.651 72.2814 213.651 74.0494C213.651 74.8034 213.053 75.2194 211.896 75.2194C211.376 75.2194 210.765 75.1414 210.271 75.0114L210.206 75.6094C210.648 75.7524 211.311 75.8434 211.935 75.8434ZM217.954 75.8434C218.331 75.8434 218.786 75.7784 219.098 75.6744L219.046 75.0634C218.76 75.1284 218.37 75.1804 218.071 75.1804C217.655 75.1804 217.395 75.0764 217.226 74.8944C217.018 74.6604 216.992 74.3224 216.992 73.7244V69.8894H218.682V69.2914H216.992V67.6664C216.758 67.6924 216.459 67.7574 216.238 67.8224V69.2914L215.068 69.4344V69.8894H216.238V73.9584C216.238 74.6864 216.368 75.1414 216.667 75.4404C216.94 75.7134 217.395 75.8434 217.954 75.8434ZM222.084 75.8434C222.773 75.8434 223.514 75.6094 224.138 75.2324L224.177 75.6614H224.788V71.3194C224.788 70.5394 224.606 70.0194 224.268 69.6684C223.891 69.2784 223.28 69.1094 222.435 69.1094C221.824 69.1094 221.135 69.2004 220.537 69.3564L220.589 69.9804C221.161 69.8504 221.798 69.7724 222.37 69.7724C222.955 69.7724 223.397 69.8764 223.657 70.1494C223.904 70.3964 224.034 70.7994 224.034 71.4234V71.9434H222.5C221.525 71.9434 220.888 72.1124 220.446 72.5284C220.134 72.8274 219.952 73.2954 219.952 73.8674C219.952 75.1804 220.836 75.8434 222.084 75.8434ZM222.214 75.1804C221.278 75.1804 220.706 74.7774 220.706 73.8544C220.706 73.4384 220.823 73.1264 221.07 72.9184C221.356 72.6714 221.811 72.5544 222.617 72.5544H224.034V74.7124C223.553 74.9854 222.799 75.1804 222.214 75.1804ZM226.677 75.6614H227.431V70.3444C227.899 70.0194 228.445 69.8114 229.095 69.8114C229.199 69.8114 229.329 69.8114 229.537 69.8244V69.1224C229.407 69.1094 229.316 69.1094 229.225 69.1094C228.627 69.1094 227.925 69.3564 227.34 69.8374L227.275 69.2914H226.677V75.6614Z" fill="white"/>
<path d="M63.4651 92.2976H64.3051V82.7216H63.4651V92.2976ZM66.6044 92.2976H67.4164V86.5296C68.1164 86.1796 68.9144 85.9836 69.5864 85.9836C70.1324 85.9836 70.5384 86.1236 70.8044 86.3896C71.0844 86.6696 71.1964 87.0476 71.1964 87.7616V92.2976H72.0084V87.5516C72.0084 86.7116 71.8264 86.2076 71.4344 85.8156C71.0564 85.4376 70.4404 85.2416 69.7124 85.2416C68.8864 85.2416 68.0464 85.5076 67.3044 85.9556L67.2484 85.4376H66.6044V92.2976ZM76.9959 92.4936C77.5279 92.4936 78.1439 92.4236 78.5499 92.3256L78.4799 91.6536C78.1579 91.7236 77.5839 91.7936 77.1779 91.7936C75.2599 91.7936 74.5459 90.9116 74.5459 88.9096C74.5459 86.8936 75.1759 85.9416 77.0239 85.9416C77.4579 85.9416 77.9759 86.0256 78.4519 86.1516L78.5079 85.4796C78.0179 85.3116 77.4439 85.2416 76.9119 85.2416C74.8259 85.2416 73.7059 86.4736 73.7059 88.9376C73.7059 91.3736 74.8399 92.4936 76.9959 92.4936ZM80.1675 92.2976H80.9795V82.2876H80.1675V92.2976ZM85.333 92.4936C86.159 92.4936 86.971 92.2276 87.713 91.7796L87.769 92.2976H88.413V85.4376H87.601V91.2056C86.901 91.5556 86.131 91.7516 85.459 91.7516C84.913 91.7516 84.507 91.6116 84.241 91.3456C83.961 91.0656 83.849 90.6876 83.849 89.9736V85.4376H83.037V90.1836C83.037 91.0236 83.219 91.5276 83.611 91.9196C83.989 92.2976 84.605 92.4936 85.333 92.4936ZM93.2191 95.6436C94.1571 95.6436 94.8431 95.4336 95.2631 94.9996C95.6691 94.5796 95.8231 93.9916 95.8231 93.0676V85.4376H95.0111V91.2056C94.3111 91.5556 93.5411 91.7516 92.8691 91.7516C92.3231 91.7516 91.9171 91.6116 91.6511 91.3456C91.3711 91.0656 91.2591 90.6876 91.2591 89.9736V85.4376H90.4471V90.1836C90.4471 91.0236 90.6291 91.5276 91.0211 91.9196C91.3991 92.2976 92.0151 92.4936 92.7431 92.4936C93.5271 92.4936 94.2971 92.2556 95.0111 91.8496V93.0396C95.0111 93.9076 94.8851 94.2856 94.5911 94.5516C94.2831 94.8176 93.8211 94.9296 93.0791 94.9296C92.7991 94.9296 92.3511 94.9016 92.0991 94.8596L92.1971 95.5456C92.4911 95.6156 92.9391 95.6436 93.2191 95.6436ZM100.825 92.5076C101.427 92.5076 102.225 92.3956 102.687 92.2556L102.617 91.5976C102.057 91.7236 101.455 91.8076 100.881 91.8076C99.0613 91.8076 98.4593 90.8136 98.4173 89.2036H102.897C103.023 89.2036 103.065 89.1616 103.065 89.0496V88.9236C103.065 86.5016 102.183 85.2556 100.363 85.2556C98.4593 85.2556 97.5633 86.7116 97.5633 88.8816C97.5633 91.1496 98.5013 92.5076 100.825 92.5076ZM98.4033 88.5456C98.4173 86.9636 99.0333 85.9276 100.363 85.9276C101.707 85.9276 102.267 86.9776 102.267 88.5456H98.4033Z" fill="white"/>
<path d="M150.29 86.0648C150.291 86.072 150.29 92.741 150.29 92.741C150.29 92.8306 150.23 92.9215 150.142 92.9215H149.234C148.703 92.9225 148.262 92.4705 148.261 91.9333V86.0887C148.221 84.8242 147.332 84.156 146.241 84.1579C145.15 84.1593 144.263 84.8566 144.226 86.121V92.7491C144.226 92.8387 144.163 92.9211 144.075 92.9211H143.167C142.636 92.922 142.196 92.4486 142.195 91.9119V86.0972C142.154 84.8328 141.265 84.1646 140.174 84.1665C139.084 84.1679 138.196 84.8385 138.159 86.1029V92.7577C138.159 92.8472 138.096 92.9211 138.008 92.9211H137.1C136.57 92.922 136.131 92.4872 136.13 91.95C136.13 91.95 136.13 86.0944 136.13 86.0887C136.183 83.5221 137.971 82.16 140.172 82.1571C141.379 82.1552 142.464 82.5634 143.207 83.3559C143.947 82.561 145.031 82.1505 146.238 82.1486C148.437 82.1462 150.228 83.5016 150.29 86.0648Z" fill="white"/>
<path d="M171.202 92.7935C171.238 92.8468 171.199 92.9178 171.133 92.9178L169.512 92.922C169.132 92.923 168.761 92.8768 168.432 92.4163L166.773 89.9721C166.644 89.7806 166.455 89.5539 166.188 89.5539C165.92 89.5539 165.732 89.7806 165.602 89.9721L163.943 92.4163C163.614 92.8768 163.244 92.923 162.864 92.922H161.242C161.177 92.922 161.137 92.8468 161.173 92.7935L164.372 88.078C164.465 87.9404 164.511 87.7808 164.509 87.6213C164.511 87.4617 164.465 87.3022 164.372 87.1646L161.173 82.4491C161.137 82.3958 161.177 82.3234 161.242 82.3234H162.864C163.244 82.3224 163.614 82.3658 163.943 82.8263L165.602 85.2705C165.732 85.4619 165.921 85.6886 166.188 85.6886C166.455 85.6886 166.644 85.4619 166.773 85.2705L168.432 82.8263C168.761 82.3658 169.132 82.3224 169.512 82.3234H171.133C171.199 82.3234 171.238 82.3958 171.202 82.4491L168.003 87.1646C167.91 87.3022 167.865 87.4617 167.867 87.6213C167.865 87.7808 167.91 87.9404 168.003 88.078L171.202 92.7935Z" fill="white"/>
<path d="M160.536 82.3233H159.897C159.547 82.3237 159.223 82.5095 159.048 82.8114L158.812 83.2229C157.894 82.4504 156.703 82.1499 155.718 82.1499C152.742 82.1499 150.761 84.2497 150.761 87.575C150.761 90.9269 152.776 93 155.695 93C156.812 93 157.92 92.6309 158.629 92.058C158.669 92.5609 159.091 92.9224 159.606 92.9224H160.532C160.622 92.9224 160.696 92.8834 160.696 92.7938L160.7 82.4866C160.7 82.3957 160.627 82.3233 160.536 82.3233ZM155.675 90.9802C153.983 90.9802 152.743 89.7224 152.743 87.5745C152.743 85.4266 153.983 84.1688 155.675 84.1688C157.367 84.1688 158.608 85.4266 158.608 87.5745C158.608 89.7224 157.367 90.9802 155.675 90.9802Z" fill="white"/>
<path d="M113.813 86.2657H111.941V82.3228H108.969V92.9219H111.941V88.8094H113.813V92.9219H116.696V82.3228H113.813V86.2657Z" fill="white"/>
<path d="M129.91 82.1456C126.94 82.1433 125.422 84.3269 125.047 85.208C125.05 83.8849 123.745 82.3238 122.217 82.3218H117.296V92.9215L121.884 92.9224C123.734 92.9224 125.05 91.3217 125.053 89.9496C125.475 90.8135 126.94 92.9758 129.91 92.9743C132.884 92.9734 135.304 90.5059 135.303 87.5359C135.303 84.5036 132.884 82.148 129.91 82.1456ZM121.5 90.453H120.04V88.6618H121.5C121.924 88.6618 122.259 89.0804 122.259 89.5577C122.259 90.0344 121.924 90.453 121.5 90.453ZM121.505 86.4734H120.045V84.6817H121.505C121.929 84.6817 122.264 85.1003 122.264 85.5771C122.264 86.0543 121.929 86.4734 121.505 86.4734ZM123.448 87.5383C123.782 87.4959 124.339 87.1144 124.536 86.8706C124.466 87.1725 124.461 88.047 124.542 88.3494C124.318 88.0046 123.787 87.5807 123.448 87.5383ZM129.912 90.2363C128.42 90.2363 127.21 89.0285 127.21 87.5383C127.21 86.0486 128.42 84.8403 129.912 84.8403C131.405 84.8403 132.614 86.0481 132.614 87.5383C132.614 89.0285 131.404 90.2363 129.912 90.2363Z" fill="white"/>
<path d="M129.912 85.4176C128.739 85.4176 127.788 86.3673 127.788 87.5384C127.788 88.71 128.739 89.6596 129.912 89.6596C131.085 89.6596 132.036 88.71 132.036 87.5384C132.036 86.3673 131.085 85.4176 129.912 85.4176Z" fill="white"/>
<path d="M171.474 82.421H171.62V82.842H171.739V82.421H171.89V82.3229H171.474V82.421Z" fill="white"/>
<path d="M172.363 82.3229L172.222 82.5539L172.081 82.3229H171.963V82.842H172.081V82.5405L172.216 82.7606H172.229L172.363 82.5405V82.842H172.482V82.3229H172.363Z" fill="white"/>
<path d="M128.542 0.499268C126.358 0.499268 124.432 1.58555 123.256 3.24297C124.007 4.29565 124.443 5.58351 124.443 6.98335C124.443 8.372 123.995 9.65986 123.256 10.7237C124.432 12.3812 126.358 13.4674 128.542 13.4674C132.115 13.4674 135.015 10.567 135.015 6.99455C135.026 3.39975 132.126 0.499268 128.542 0.499268ZM125.933 5.38193C125.933 4.71 126.482 4.16126 127.154 4.16126C127.825 4.16126 128.374 4.71 128.374 5.38193C128.374 6.05386 127.825 6.60259 127.154 6.60259C126.482 6.60259 125.933 6.05386 125.933 5.38193ZM127.344 9.01033C127.266 9.08872 127.165 9.13352 127.053 9.13352C126.952 9.13352 126.84 9.08872 126.762 9.01033C126.605 8.85355 126.605 8.59597 126.762 8.43919L130.2 5.00117C130.356 4.84439 130.614 4.84439 130.771 5.00117C130.927 5.15795 130.927 5.41552 130.771 5.57231L127.344 9.01033ZM130.401 9.83904C129.729 9.83904 129.18 9.2903 129.18 8.61837C129.18 7.94645 129.729 7.39771 130.401 7.39771C131.073 7.39771 131.622 7.94645 131.622 8.61837C131.611 9.3015 131.073 9.83904 130.401 9.83904Z" fill="white"/>
<path d="M104.532 5.5723C104.353 5.6059 104.23 5.77388 104.263 5.95306C104.297 6.13224 104.465 6.25543 104.644 6.22183C104.823 6.18824 104.946 6.02025 104.913 5.84107C104.879 5.66189 104.711 5.53871 104.532 5.5723Z" fill="white"/>
<path d="M111.475 3.2542C110.299 1.59678 108.373 0.510498 106.201 0.510498C102.628 0.510498 99.7278 3.41098 99.7278 6.98338C99.7278 10.5558 102.628 13.4563 106.201 13.4563C108.384 13.4563 110.311 12.37 111.475 10.7126C110.736 9.65989 110.288 8.37203 110.288 6.98338C110.288 5.58354 110.736 4.30688 111.475 3.2542ZM108.149 10.0406L104.801 10.5782C104.263 10.6678 103.771 10.2982 103.681 9.77188L102.964 5.33716L104.073 5.15799L104.028 4.91161C103.894 4.0717 104.465 3.27659 105.316 3.13101C106.156 2.99662 106.951 3.56776 107.085 4.41887L107.13 4.66524L108.239 4.48606L108.956 8.92077C109.045 9.45831 108.676 9.96225 108.149 10.0406Z" fill="white"/>
<path d="M105.428 3.83653C104.969 3.91492 104.666 4.34048 104.734 4.78843L104.767 5.0348L106.413 4.76603L106.369 4.51966C106.313 4.08291 105.887 3.76934 105.428 3.83653Z" fill="white"/>
<path d="M106.828 5.20267C106.649 5.23627 106.525 5.40425 106.559 5.58343C106.593 5.76261 106.761 5.8858 106.94 5.8522C107.119 5.8186 107.242 5.66182 107.209 5.47144C107.175 5.29226 107.007 5.16908 106.828 5.20267Z" fill="white"/>
<path d="M122.652 3.24297C121.476 1.58555 119.55 0.499268 117.366 0.499268C115.182 0.499268 113.245 1.58555 112.08 3.24297C111.341 4.29565 110.893 5.58351 110.893 6.97215C110.893 8.3608 111.33 9.64866 112.08 10.7013C113.256 12.3588 115.182 13.445 117.366 13.445C119.55 13.445 121.476 12.3588 122.652 10.7013C123.402 9.64866 123.839 8.3608 123.839 6.96095C123.85 5.58351 123.402 4.29565 122.652 3.24297ZM113.939 6.07625C113.939 5.50511 114.253 5.04597 114.645 5.04597C115.036 5.04597 115.35 5.50511 115.35 6.07625C115.35 6.64739 115.036 7.10654 114.645 7.10654C114.253 7.10654 113.939 6.64739 113.939 6.07625ZM119.65 8.48399C119.46 9.12232 118.822 10.7237 117.254 10.7349C115.686 10.7461 115.048 9.15591 114.846 8.52878C114.813 8.40559 114.88 8.27121 114.969 8.27121L119.527 8.23762C119.628 8.22642 119.695 8.3608 119.65 8.48399ZM119.818 7.10654C119.426 7.10654 119.113 6.64739 119.113 6.07625C119.113 5.50511 119.426 5.04597 119.818 5.04597C120.21 5.04597 120.524 5.50511 120.524 6.07625C120.524 6.64739 120.21 7.10654 119.818 7.10654Z" fill="white"/>
<path d="M89.6937 25.7077C88.9434 26.4468 87.9803 26.7828 86.9388 26.7828C84.2399 26.7828 83.0976 24.9238 83.0976 23.0424C83.0864 21.1498 84.3183 19.2124 86.9388 19.2124C87.9243 19.2124 88.8538 19.582 89.6041 20.3211L88.697 21.2058C88.2154 20.7354 87.5771 20.5227 86.95 20.5227C85.203 20.5227 84.4415 21.8329 84.4527 23.0424C84.4639 24.2406 85.1582 25.4949 86.95 25.4949C87.5771 25.4949 88.2938 25.2373 88.7754 24.7558L89.6937 25.7077Z" fill="white"/>
<path d="M95.5171 21.5082L92.3926 28.7538H91.004L91.9559 26.5364L89.9177 21.5082H91.396L92.1687 23.7143L92.6502 25.159L93.1878 23.7479L94.1173 21.5082H95.5171Z" fill="white"/>
<path d="M97.4432 19.3691V22.2024C97.7456 21.6761 98.5855 21.3849 99.123 21.3849C100.612 21.3849 101.721 22.292 101.721 24.0614C101.721 25.7412 100.59 26.7379 99.0894 26.7379C98.4623 26.7379 97.8352 26.5252 97.4432 25.9204L97.3648 26.6259H96.1777V19.3803H97.4432V19.3691ZM97.5328 24.0614C97.5328 24.9797 98.2159 25.5621 99.011 25.5621C99.8173 25.5621 100.467 24.9461 100.467 24.0614C100.467 23.1431 99.8285 22.572 99.011 22.572C98.2159 22.5608 97.5328 23.1655 97.5328 24.0614Z" fill="white"/>
<path d="M103.737 24.5095C103.815 25.1366 104.364 25.5957 105.26 25.5957C105.73 25.5957 106.335 25.4166 106.626 25.1142L107.433 25.9093C106.895 26.4692 106.01 26.738 105.238 26.738C103.479 26.738 102.427 25.6517 102.427 24.0167C102.427 22.4601 103.491 21.3402 105.148 21.3402C106.861 21.3402 107.925 22.3929 107.735 24.4983H103.737V24.5095ZM106.514 23.468C106.436 22.8072 105.91 22.4713 105.193 22.4713C104.51 22.4713 103.95 22.8072 103.759 23.468H106.514Z" fill="white"/>
<path d="M109.874 21.5081L109.963 22.1016C110.355 21.4745 110.882 21.3737 111.408 21.3737C111.934 21.3737 112.449 21.5865 112.729 21.8665L112.158 22.9639C111.901 22.7512 111.666 22.628 111.24 22.628C110.579 22.628 109.963 22.9751 109.963 23.927V26.6259H108.698V21.5193H109.874V21.5081Z" fill="white"/>
<path d="M119.538 22.908C119.583 24.7558 118.396 26.6148 115.854 26.6148H113.401V19.358H115.854C118.318 19.358 119.494 21.1274 119.538 22.908ZM113.961 19.8844V26.0773H115.854C118.015 26.0773 119.001 24.4647 118.978 22.908C118.945 21.3962 117.948 19.8956 115.854 19.8956H113.961V19.8844Z" fill="white"/>
<path d="M125.742 21.4969V26.6147H125.239V25.5285C124.746 26.3236 123.973 26.7043 123.144 26.7043C121.711 26.7043 120.546 25.6293 120.546 24.0614C120.546 22.4936 121.722 21.4409 123.144 21.4409C123.973 21.4409 124.813 21.8217 125.239 22.628V21.5081H125.742V21.4969ZM121.039 24.0614C121.039 25.3493 121.969 26.2116 123.133 26.2116C125.989 26.2116 125.989 21.9337 123.133 21.9337C121.98 21.9225 121.039 22.7736 121.039 24.0614Z" fill="white"/>
<path d="M131.275 21.4969L128.15 28.7537H127.613L128.565 26.5587L126.504 21.4969H127.053L128.251 24.5206L128.845 26.01L129.438 24.5094L130.726 21.4969H131.275Z" fill="white"/>
<path d="M135.777 22.4264C135.262 21.9672 134.746 21.8888 134.175 21.8888C133.38 21.8776 132.607 22.18 132.63 22.8295C132.652 23.5126 133.548 23.647 134.186 23.759C135.105 23.9158 136.359 24.0726 136.303 25.2597C136.269 26.3907 135.105 26.6931 134.198 26.6931C133.291 26.6931 132.406 26.3459 131.958 25.6628L132.327 25.3268C132.753 25.9428 133.526 26.2004 134.209 26.2004C134.836 26.2004 135.777 26.0324 135.81 25.2261C135.833 24.4869 134.982 24.3414 134.142 24.207C133.145 24.039 132.159 23.8598 132.148 22.8295C132.137 21.8216 133.145 21.3849 134.175 21.3961C134.926 21.3961 135.575 21.5977 136.079 22.0792L135.777 22.4264Z" fill="white"/>
<path d="M138.554 26.5252C138.554 27.074 137.725 27.074 137.725 26.5252C137.725 25.9877 138.554 25.9877 138.554 26.5252Z" fill="white"/>
<path d="M140.245 29V21.676H140.749V22.8967C141.152 22.1128 141.981 21.5977 142.989 21.5977C144.388 21.6537 145.497 22.5943 145.497 24.2518C145.497 25.9876 144.321 26.9283 142.877 26.9283C142.003 26.9283 141.186 26.5027 140.738 25.6404V28.9888H140.245V29ZM144.993 24.263C144.993 22.8071 144.052 22.1016 142.877 22.1016C141.678 22.1016 140.782 23.0087 140.782 24.2742C140.782 25.5396 141.69 26.4467 142.877 26.4467C144.041 26.4467 144.993 25.7076 144.993 24.263Z" fill="white"/>
<path d="M146.46 24.263C146.46 22.7175 147.636 21.5977 149.092 21.5977C150.548 21.5977 151.847 22.4824 151.645 24.5093H146.987C147.087 25.7188 148.028 26.4243 149.092 26.4243C149.775 26.4243 150.57 26.1556 150.951 25.6404L151.32 25.9316C150.817 26.5923 149.921 26.9283 149.092 26.9283C147.636 26.9171 146.46 25.898 146.46 24.263ZM151.186 24.0502C151.175 22.7735 150.335 22.0568 149.092 22.0568C148.028 22.0568 147.099 22.7735 146.987 24.0502H151.186Z" fill="white"/>
</svg>
