<svg width="415" height="74" viewBox="0 0 415 74" fill="none" xmlns="http://www.w3.org/2000/svg">
<path d="M286.856 74L149.856 74L149.856 -1.46219e-05L286.856 0L286.856 74Z" fill="#5CB615"/>
<path d="M150 74L7 74C3.134 74 2.24422e-07 70.866 5.01261e-07 67L4.79778e-06 6.99998C5.07462e-06 3.13399 3.13401 -1.56749e-05 7.00001 -1.52623e-05L150 0L150 74Z" fill="#BDE4A4"/>
<path d="M286.856 0H407.856C411.722 0 414.856 3.13401 414.856 7V68C414.856 71.3137 412.17 74 408.856 74H286.856V0Z" fill="#3C7521"/>
<path d="M337.459 26.7434H339.643V23.4394H341.183C342.443 23.4394 343.311 23.1454 343.871 22.5154C344.347 21.9834 344.585 21.2134 344.585 20.1914C344.585 19.1694 344.333 18.4274 343.815 17.9514C343.199 17.3774 342.247 17.1674 340.749 17.1674H337.459V26.7434ZM339.643 21.8014V18.7494H340.665C341.337 18.7494 341.743 18.8474 342.009 19.0854C342.261 19.3234 342.373 19.7014 342.373 20.2194C342.373 20.7794 342.247 21.1854 341.995 21.4374C341.715 21.7034 341.421 21.8014 340.721 21.8014H339.643ZM346.113 26.7434H348.115V16.7334H346.113V26.7434ZM351.959 26.9394C352.687 26.9394 353.429 26.7014 354.017 26.3234L354.185 26.7434H355.767V22.2914C355.767 21.4654 355.585 20.8774 355.235 20.4714C354.759 19.9114 353.821 19.6874 352.771 19.6874C351.945 19.6874 351.035 19.7994 350.335 19.9394L350.433 21.4094C350.909 21.3114 351.707 21.2274 352.351 21.2274C352.897 21.2274 353.275 21.2974 353.513 21.5074C353.681 21.6614 353.765 21.8994 353.765 22.2774V22.5014H352.673C351.399 22.5014 350.643 22.6694 350.153 23.1314C349.761 23.5094 349.551 24.0694 349.551 24.6854C349.551 26.0154 350.391 26.9394 351.959 26.9394ZM352.533 25.4134C351.805 25.4134 351.553 25.1054 351.553 24.6014C351.553 24.3494 351.623 24.1534 351.749 24.0274C351.931 23.8454 352.225 23.7894 352.701 23.7894H353.765V25.2034C353.443 25.3014 352.911 25.4134 352.533 25.4134ZM357.548 26.7434H359.55V21.5774C359.872 21.4514 360.474 21.3534 360.852 21.3534C361.258 21.3534 361.538 21.4094 361.72 21.5774C361.86 21.7174 361.93 21.9134 361.93 22.2634V26.7434H363.932V22.0254C363.932 21.2274 363.764 20.6254 363.344 20.2194C362.966 19.8414 362.294 19.6874 361.692 19.6874C360.964 19.6874 360.082 19.8834 359.326 20.3734L359.284 19.8834H357.548V26.7434Z" fill="#BDE4A4"/>
<path d="M166.423 46.4293H176.823V44.7133H168.789L173.053 39.6953C175.731 36.5493 176.511 35.1193 176.511 32.9873C176.511 31.5053 176.017 30.3613 175.159 29.6073C174.145 28.6973 172.585 28.3073 170.739 28.3073C169.361 28.3073 167.931 28.4893 166.683 28.8013V30.4913C167.931 30.2313 169.361 30.1013 170.427 30.1013C172.845 30.1013 174.249 30.8813 174.249 33.0913C174.249 34.7293 173.495 36.1073 171.441 38.6293L167.359 43.6213C166.501 44.6613 166.319 45.1293 166.319 45.8313C166.319 46.0133 166.371 46.2733 166.423 46.4293ZM186.072 46.7933C190.492 46.7933 192.182 43.3613 192.182 37.5633C192.182 31.7653 190.492 28.3073 186.072 28.3073C181.652 28.3073 179.962 31.7653 179.962 37.5633C179.962 43.3613 181.652 46.7933 186.072 46.7933ZM186.072 44.9473C183.186 44.9473 182.224 42.5293 182.224 37.5633C182.224 32.5973 183.186 30.1533 186.072 30.1533C188.958 30.1533 189.92 32.5973 189.92 37.5633C189.92 42.5293 188.958 44.9473 186.072 44.9473ZM200.418 46.7933C204.838 46.7933 206.528 43.3613 206.528 37.5633C206.528 31.7653 204.838 28.3073 200.418 28.3073C195.998 28.3073 194.308 31.7653 194.308 37.5633C194.308 43.3613 195.998 46.7933 200.418 46.7933ZM200.418 44.9473C197.532 44.9473 196.57 42.5293 196.57 37.5633C196.57 32.5973 197.532 30.1533 200.418 30.1533C203.304 30.1533 204.266 32.5973 204.266 37.5633C204.266 42.5293 203.304 44.9473 200.418 44.9473ZM215.053 46.4293H217.107V33.0913L222.229 42.6593H224.153L229.327 33.1953V46.4293H231.511V28.6453H229.535L223.269 40.3453L217.081 28.6453H215.053V46.4293ZM241.282 46.7933C244.454 46.7933 246.248 44.6353 246.248 40.0073C246.248 35.4313 244.402 33.3253 241.308 33.3253C240.06 33.3253 238.682 33.7673 237.642 34.3393V27.8393H235.484V46.4293H237.226L237.33 45.5713C238.344 46.2733 239.904 46.7933 241.282 46.7933ZM240.788 44.9993C239.748 44.9993 238.5 44.6093 237.642 44.0893V35.8993C238.5 35.4833 239.748 35.1713 240.736 35.1713C242.998 35.1713 243.986 36.5753 243.986 40.0073C243.986 43.6993 242.946 44.9993 240.788 44.9993ZM249.22 52.2793H251.378V45.8313C252.314 46.4293 253.692 46.7933 255.018 46.7933C258.06 46.7933 259.984 44.7913 259.984 40.0073C259.984 35.9513 258.398 33.3253 255.096 33.3253C253.926 33.3253 252.444 33.7413 251.118 34.6253L251.014 33.6893H249.22V52.2793ZM254.472 44.9993C253.38 44.9993 252.132 44.6613 251.378 44.2193V36.0293C252.366 35.5093 253.64 35.1713 254.628 35.1713C256.76 35.1713 257.722 36.7313 257.722 39.9813C257.722 43.6213 256.786 44.9993 254.472 44.9993ZM266.311 46.7933C269.379 46.7933 271.459 45.5973 271.459 42.8933C271.459 38.3433 264.361 39.6953 264.361 36.8353C264.361 35.6393 265.323 35.0413 267.143 35.0413C268.183 35.0413 269.353 35.1973 270.497 35.4573L270.679 33.8713C269.665 33.5593 268.235 33.3253 266.961 33.3253C264.257 33.3253 262.333 34.5213 262.333 36.9913C262.333 41.6713 269.431 40.1893 269.431 43.0493C269.431 44.3493 268.313 45.0513 266.233 45.0513C265.115 45.0513 263.711 44.8693 262.671 44.5833L262.567 46.2473C263.529 46.5593 265.089 46.7933 266.311 46.7933Z" fill="white"/>
<path d="M306.826 52.8006C309.29 52.8006 311.11 52.2126 312.258 51.0366C313.266 50.0286 313.798 48.6006 313.798 46.8086C313.798 45.0726 313.294 43.7286 312.342 42.7486C311.194 41.5726 309.514 41.0686 306.63 41.0686H305.174L305.426 35.1046H312.622V33.2566H303.466L303.102 41.3206C303.074 41.9366 303.074 42.1326 303.074 42.3566C303.074 42.5526 303.102 42.8046 303.158 42.9446H306.294C308.394 42.9446 309.654 43.2246 310.41 43.9806C311.054 44.6246 311.362 45.6606 311.362 46.8646C311.362 48.2366 310.97 49.2166 310.214 49.8606C309.402 50.5326 308.282 50.8406 306.378 50.8406C305.51 50.8406 303.83 50.7006 302.822 50.5326V52.3526C303.83 52.6046 305.51 52.8006 306.826 52.8006ZM323.564 52.8006C328.324 52.8006 330.144 49.1046 330.144 42.8606C330.144 36.6166 328.324 32.8926 323.564 32.8926C318.804 32.8926 316.984 36.6166 316.984 42.8606C316.984 49.1046 318.804 52.8006 323.564 52.8006ZM323.564 50.8126C320.456 50.8126 319.42 48.2086 319.42 42.8606C319.42 37.5126 320.456 34.8806 323.564 34.8806C326.672 34.8806 327.708 37.5126 327.708 42.8606C327.708 48.2086 326.672 50.8126 323.564 50.8126ZM339.324 52.4086H341.536V38.0446L347.052 48.3486H349.124L354.696 38.1566V52.4086H357.048V33.2566H354.92L348.172 45.8566L341.508 33.2566H339.324V52.4086ZM367.571 52.8006C370.987 52.8006 372.919 50.4766 372.919 45.4926C372.919 40.5646 370.931 38.2966 367.599 38.2966C366.255 38.2966 364.771 38.7726 363.651 39.3886V32.3886H361.327V52.4086H363.203L363.315 51.4846C364.407 52.2406 366.087 52.8006 367.571 52.8006ZM367.039 50.8686C365.919 50.8686 364.575 50.4486 363.651 49.8886V41.0686C364.575 40.6206 365.919 40.2846 366.983 40.2846C369.419 40.2846 370.483 41.7966 370.483 45.4926C370.483 49.4686 369.363 50.8686 367.039 50.8686ZM376.12 58.7086H378.444V51.7646C379.452 52.4086 380.936 52.8006 382.364 52.8006C385.64 52.8006 387.712 50.6446 387.712 45.4926C387.712 41.1246 386.004 38.2966 382.448 38.2966C381.188 38.2966 379.592 38.7446 378.164 39.6966L378.052 38.6886H376.12V58.7086ZM381.776 50.8686C380.6 50.8686 379.256 50.5046 378.444 50.0286V41.2086C379.508 40.6486 380.88 40.2846 381.944 40.2846C384.24 40.2846 385.276 41.9646 385.276 45.4646C385.276 49.3846 384.268 50.8686 381.776 50.8686ZM394.525 52.8006C397.829 52.8006 400.069 51.5126 400.069 48.6006C400.069 43.7006 392.425 45.1566 392.425 42.0766C392.425 40.7886 393.461 40.1446 395.421 40.1446C396.541 40.1446 397.801 40.3126 399.033 40.5926L399.229 38.8846C398.137 38.5486 396.597 38.2966 395.225 38.2966C392.313 38.2966 390.241 39.5846 390.241 42.2446C390.241 47.2846 397.885 45.6886 397.885 48.7686C397.885 50.1686 396.681 50.9246 394.441 50.9246C393.237 50.9246 391.725 50.7286 390.605 50.4206L390.493 52.2126C391.529 52.5486 393.209 52.8006 394.525 52.8006Z" fill="#BDE4A4"/>
<path d="M192 63.6545H193.196L194.626 61.2495L196.225 63.6545H197.447L195.315 60.4695L197.421 57.2845H196.238L194.808 59.7155L193.183 57.2845H191.974L194.119 60.5085L192 63.6545ZM203.246 63.8365C204.338 63.8365 205.118 63.6025 205.677 63.1475C206.21 62.7055 206.509 62.0555 206.509 61.2105C206.509 60.0925 205.885 59.3515 204.91 59.0135C205.69 58.7145 206.249 58.0515 206.249 56.9985C206.249 56.2705 206.015 55.6985 205.599 55.2955C205.118 54.8275 204.351 54.5935 203.311 54.5935C202.752 54.5935 202.05 54.6585 201.478 54.7885V55.6335C202.024 55.5425 202.609 55.4905 203.103 55.4905C203.883 55.4905 204.377 55.6075 204.715 55.8935C205.001 56.1405 205.157 56.5435 205.157 57.0505C205.157 58.2205 204.403 58.7145 203.116 58.7145H202.895V59.5205H203.129C203.974 59.5205 204.559 59.6505 204.936 60.0015C205.222 60.2745 205.378 60.7165 205.378 61.1975C205.378 61.7825 205.196 62.2375 204.806 62.5235C204.442 62.7965 203.935 62.9265 203.103 62.9265C202.531 62.9265 201.829 62.8615 201.335 62.7575V63.6155C201.855 63.7455 202.57 63.8365 203.246 63.8365ZM211.096 63.6545H212.175V58.4675C212.695 58.2205 213.293 58.0515 213.839 58.0515C214.281 58.0515 214.619 58.1555 214.84 58.3765C215.061 58.5975 215.152 58.9095 215.152 59.4555V63.6545H216.231V59.3255C216.231 59.0005 216.192 58.7145 216.14 58.4805C216.699 58.2075 217.336 58.0515 217.856 58.0515C218.298 58.0515 218.636 58.1555 218.857 58.3765C219.078 58.5975 219.169 58.9095 219.169 59.4555V63.6545H220.248V59.3255C220.248 58.5325 220.066 58.0125 219.715 57.6615C219.351 57.2845 218.805 57.1025 218.116 57.1025C217.401 57.1025 216.621 57.3365 215.828 57.8175C215.464 57.3365 214.905 57.1025 214.099 57.1025C213.397 57.1025 212.708 57.3365 212.045 57.7525L211.993 57.2845H211.096V63.6545ZM224.808 63.8365C225.393 63.8365 226.147 63.7455 226.693 63.5895L226.589 62.7835C226.095 62.8875 225.471 62.9525 225.016 62.9525C224.21 62.9525 223.729 62.7835 223.391 62.4715C223.014 62.1205 222.832 61.5485 222.832 60.8465H226.94C227.044 60.8465 227.096 60.8075 227.096 60.7035V60.4565C227.096 58.3635 226.238 57.1025 224.457 57.1025C222.832 57.1025 221.701 58.2075 221.701 60.4825C221.701 61.6265 221.961 62.4975 222.533 63.0695C223.053 63.5895 223.82 63.8365 224.808 63.8365ZM222.832 60.0535C222.845 58.7665 223.378 57.9735 224.457 57.9735C225.523 57.9735 225.991 58.8315 226.03 60.0535H222.832ZM230.292 63.8365C231.826 63.8365 232.866 63.2385 232.866 61.8865C232.866 59.6115 229.317 60.2875 229.317 58.8575C229.317 58.2595 229.798 57.9605 230.708 57.9605C231.228 57.9605 231.813 58.0385 232.385 58.1685L232.476 57.3755C231.969 57.2195 231.254 57.1025 230.617 57.1025C229.265 57.1025 228.303 57.7005 228.303 58.9355C228.303 61.2755 231.852 60.5345 231.852 61.9645C231.852 62.6145 231.293 62.9655 230.253 62.9655C229.694 62.9655 228.992 62.8745 228.472 62.7315L228.42 63.5635C228.901 63.7195 229.681 63.8365 230.292 63.8365ZM237.161 63.8365C237.746 63.8365 238.5 63.7455 239.046 63.5895L238.942 62.7835C238.448 62.8875 237.824 62.9525 237.369 62.9525C236.563 62.9525 236.082 62.7835 235.744 62.4715C235.367 62.1205 235.185 61.5485 235.185 60.8465H239.293C239.397 60.8465 239.449 60.8075 239.449 60.7035V60.4565C239.449 58.3635 238.591 57.1025 236.81 57.1025C235.185 57.1025 234.054 58.2075 234.054 60.4825C234.054 61.6265 234.314 62.4975 234.886 63.0695C235.406 63.5895 236.173 63.8365 237.161 63.8365ZM235.185 60.0535C235.198 58.7665 235.731 57.9735 236.81 57.9735C237.876 57.9735 238.344 58.8315 238.383 60.0535H235.185ZM242.645 63.8365C244.179 63.8365 245.219 63.2385 245.219 61.8865C245.219 59.6115 241.67 60.2875 241.67 58.8575C241.67 58.2595 242.151 57.9605 243.061 57.9605C243.581 57.9605 244.166 58.0385 244.738 58.1685L244.829 57.3755C244.322 57.2195 243.607 57.1025 242.97 57.1025C241.618 57.1025 240.656 57.7005 240.656 58.9355C240.656 61.2755 244.205 60.5345 244.205 61.9645C244.205 62.6145 243.646 62.9655 242.606 62.9655C242.047 62.9655 241.345 62.8745 240.825 62.7315L240.773 63.5635C241.254 63.7195 242.034 63.8365 242.645 63.8365Z" fill="white"/>
<path d="M211.457 20.5982H214.616C215.994 20.5982 216.865 20.3772 217.437 19.8702C217.918 19.4412 218.178 18.8172 218.178 17.9592C218.178 16.7892 217.398 15.9832 216.293 15.8272C217.112 15.4112 217.541 14.8002 217.541 13.8902C217.541 13.2402 217.32 12.7202 216.917 12.3692C216.397 11.9142 215.617 11.7062 214.356 11.7062H211.457V20.5982ZM213.485 15.2422V13.1752H214.226C214.772 13.1752 215.084 13.2402 215.279 13.4352C215.448 13.6042 215.526 13.8512 215.526 14.1762C215.526 14.5402 215.435 14.8002 215.266 14.9692C215.045 15.1772 214.733 15.2422 214.174 15.2422H213.485ZM213.485 19.1292V16.7112H214.317C215.045 16.7112 215.461 16.7762 215.734 17.0102C215.968 17.2052 216.072 17.5172 216.072 17.9982C216.072 18.3622 215.968 18.6222 215.786 18.8042C215.539 19.0512 215.071 19.1292 214.317 19.1292H213.485ZM222.388 20.7802C224.598 20.7802 225.625 19.4542 225.625 17.4132C225.625 15.3722 224.598 14.0462 222.388 14.0462C220.178 14.0462 219.151 15.3722 219.151 17.4132C219.151 19.4542 220.178 20.7802 222.388 20.7802ZM222.388 19.3632C221.452 19.3632 221.088 18.7262 221.088 17.4132C221.088 16.1002 221.452 15.4632 222.388 15.4632C223.324 15.4632 223.688 16.1002 223.688 17.4132C223.688 18.7262 223.324 19.3632 222.388 19.3632ZM226.865 20.5982H228.724V15.8012C229.023 15.6842 229.582 15.5932 229.933 15.5932C230.31 15.5932 230.57 15.6452 230.739 15.8012C230.869 15.9312 230.934 16.1132 230.934 16.4382V20.5982H232.793V16.2172C232.793 15.4762 232.637 14.9172 232.247 14.5402C231.896 14.1892 231.272 14.0462 230.713 14.0462C230.037 14.0462 229.218 14.2282 228.516 14.6832L228.477 14.2282H226.865V20.5982ZM237.229 20.7802C239.439 20.7802 240.466 19.4542 240.466 17.4132C240.466 15.3722 239.439 14.0462 237.229 14.0462C235.019 14.0462 233.992 15.3722 233.992 17.4132C233.992 19.4542 235.019 20.7802 237.229 20.7802ZM237.229 19.3632C236.293 19.3632 235.929 18.7262 235.929 17.4132C235.929 16.1002 236.293 15.4632 237.229 15.4632C238.165 15.4632 238.529 16.1002 238.529 17.4132C238.529 18.7262 238.165 19.3632 237.229 19.3632Z" fill="white"/>
<path d="M200.862 20.2593H203.212V16.7593H206.712V14.4093H203.212V10.9093H200.862V14.4093H197.362V16.7593H200.862V20.2593Z" fill="white"/>
<path d="M36.3727 18.8995C38.6717 18.8995 39.7057 17.5355 39.7057 14.9945C39.7057 12.4535 38.6717 11.0785 36.3727 11.0785C34.0737 11.0785 33.0397 12.4535 33.0397 14.9945C33.0397 17.5355 34.0737 18.8995 36.3727 18.8995ZM36.3727 17.5575C35.2617 17.5575 34.8217 16.8095 34.8217 14.9945C34.8217 13.1795 35.2617 12.4205 36.3727 12.4205C37.4837 12.4205 37.9237 13.1795 37.9237 14.9945C37.9237 16.8095 37.4837 17.5575 36.3727 17.5575ZM41.2819 18.7455H42.8549V14.3785H44.1309V13.3555H42.8549V12.7065C42.8549 12.3215 42.9099 12.1675 43.0089 12.0685C43.1519 11.9255 43.3719 11.8705 43.7459 11.8705C43.9769 11.8705 44.2629 11.9035 44.4829 11.9365V10.8145C44.1089 10.7375 43.7459 10.6935 43.3389 10.6935C42.5909 10.6935 42.0299 10.8805 41.7329 11.1885C41.4139 11.5185 41.2819 11.9585 41.2819 12.6185V13.3665L40.3579 13.5315V14.3785H41.2819V18.7455ZM47.501 18.8995C48.172 18.8995 48.799 18.8115 49.316 18.7125L49.195 17.5685C48.788 17.6455 48.238 17.7005 47.853 17.7005C46.797 17.7005 46.236 17.4475 46.192 16.5345H49.503C49.591 16.5345 49.635 16.5015 49.635 16.4135V15.9185C49.635 14.0485 48.777 13.2015 47.16 13.2015C45.51 13.2015 44.542 14.1695 44.542 16.0615C44.542 16.9195 44.729 17.6895 45.268 18.2065C45.73 18.6465 46.489 18.8995 47.501 18.8995ZM46.192 15.5115C46.225 14.8185 46.511 14.3895 47.149 14.3895C47.776 14.3895 48.095 14.8295 48.095 15.5115H46.192ZM50.6285 18.7455H52.2015V14.6975C52.5425 14.6205 52.8615 14.5655 53.2795 14.5655C53.5325 14.5655 53.7965 14.5875 53.9725 14.6095V13.2345C53.9065 13.2235 53.7855 13.2125 53.6975 13.2125C53.1805 13.2125 52.4655 13.4105 52.0475 13.7955L51.9925 13.3555H50.6285V18.7455ZM57.1663 18.8995C57.6393 18.8995 58.1893 18.8445 58.5413 18.7675L58.4863 17.6565C58.2993 17.6785 57.9473 17.7225 57.7273 17.7225C57.0893 17.7225 56.9683 17.5025 56.9683 16.8975V14.3785H58.3653V13.3555H56.9683V11.9255C56.4623 11.9255 55.8683 12.0135 55.3953 12.1565V13.3555L54.4823 13.5205V14.3785H55.3953V17.1175C55.3953 18.3055 55.8243 18.8995 57.1663 18.8995ZM61.0313 18.8995C61.6033 18.8995 62.1863 18.7125 62.6483 18.4155L62.7803 18.7455H64.0233V15.2475C64.0233 14.5985 63.8803 14.1365 63.6053 13.8175C63.2313 13.3775 62.4943 13.2015 61.6693 13.2015C61.0203 13.2015 60.3053 13.2895 59.7553 13.3995L59.8323 14.5545C60.2063 14.4775 60.8333 14.4115 61.3393 14.4115C61.7683 14.4115 62.0653 14.4665 62.2523 14.6315C62.3843 14.7525 62.4503 14.9395 62.4503 15.2365V15.4125H61.5923C60.5913 15.4125 59.9973 15.5445 59.6123 15.9075C59.3043 16.2045 59.1393 16.6445 59.1393 17.1285C59.1393 18.1735 59.7993 18.8995 61.0313 18.8995ZM61.4823 17.7005C60.9103 17.7005 60.7123 17.4585 60.7123 17.0625C60.7123 16.8645 60.7673 16.7105 60.8663 16.6115C61.0093 16.4685 61.2403 16.4245 61.6143 16.4245H62.4503V17.5355C62.1973 17.6125 61.7793 17.7005 61.4823 17.7005ZM67.2668 18.7455H69.0158L69.9068 17.1285L71.0288 18.7455H72.8658L70.9298 16.0175L72.7888 13.3555H71.0728L70.1928 14.9835L69.0268 13.3555H67.2338L69.1808 16.0945L67.2668 18.7455ZM78.232 18.8995C79.376 18.8995 80.179 18.6355 80.674 18.1185C81.026 17.7555 81.202 17.2495 81.202 16.6665C81.202 15.6875 80.729 15.0935 79.937 14.8075C80.597 14.4775 80.938 13.9275 80.938 13.1465C80.938 12.5195 80.74 12.0795 80.421 11.7605C79.959 11.2985 79.156 11.0785 78.21 11.0785C77.627 11.0785 76.989 11.1335 76.483 11.2435V12.4095C76.923 12.3435 77.473 12.2995 77.957 12.2995C78.551 12.2995 78.925 12.3875 79.145 12.5855C79.321 12.7395 79.398 12.9815 79.398 13.2675C79.398 13.6305 79.277 13.8835 79.101 14.0375C78.837 14.2685 78.485 14.3565 77.792 14.3565H77.528V15.4565H77.737C78.507 15.4565 78.925 15.5225 79.2 15.7205C79.431 15.8855 79.574 16.1495 79.574 16.5455C79.574 16.9525 79.431 17.2385 79.167 17.4145C78.903 17.5905 78.54 17.6675 77.924 17.6675C77.374 17.6675 76.857 17.6125 76.417 17.5355V18.7235C76.923 18.8335 77.583 18.8995 78.232 18.8995ZM85.1754 18.7455H86.7484V14.6865C87.0124 14.5875 87.4084 14.5105 87.6834 14.5105C87.9694 14.5105 88.2004 14.5545 88.3434 14.6865C88.4534 14.7965 88.5084 14.9505 88.5084 15.2255V18.7455H90.0814V15.0385C90.0814 14.9065 90.0704 14.7745 90.0594 14.6535C90.3234 14.5765 90.7084 14.5105 90.9724 14.5105C91.2914 14.5105 91.5114 14.5545 91.6544 14.6865C91.7644 14.7965 91.8194 14.9505 91.8194 15.2255V18.7455H93.3924V15.0385C93.3924 14.4115 93.2604 13.9385 92.9304 13.6195C92.6334 13.3225 92.1054 13.2015 91.6324 13.2015C91.0494 13.2015 90.3564 13.3665 89.7514 13.7735C89.4764 13.3885 88.9814 13.2015 88.3214 13.2015C87.7604 13.2015 87.1554 13.3555 86.5724 13.7405L86.5394 13.3555H85.1754V18.7455ZM97.3662 18.8995C98.0372 18.8995 98.6642 18.8115 99.1812 18.7125L99.0602 17.5685C98.6532 17.6455 98.1032 17.7005 97.7182 17.7005C96.6622 17.7005 96.1012 17.4475 96.0572 16.5345H99.3682C99.4562 16.5345 99.5002 16.5015 99.5002 16.4135V15.9185C99.5002 14.0485 98.6422 13.2015 97.0252 13.2015C95.3752 13.2015 94.4072 14.1695 94.4072 16.0615C94.4072 16.9195 94.5942 17.6895 95.1332 18.2065C95.5952 18.6465 96.3542 18.8995 97.3662 18.8995ZM96.0572 15.5115C96.0902 14.8185 96.3762 14.3895 97.0142 14.3895C97.6412 14.3895 97.9602 14.8295 97.9602 15.5115H96.0572ZM102.243 18.8995C103.86 18.8995 104.674 18.2505 104.674 17.1285C104.674 14.8955 101.726 15.7645 101.726 14.8515C101.726 14.5435 102.034 14.4115 102.595 14.4115C103.035 14.4115 103.695 14.4995 104.256 14.6535L104.377 13.4985C103.794 13.3005 103.123 13.2015 102.584 13.2015C100.967 13.2015 100.241 13.9385 100.241 14.9395C100.241 17.1725 103.178 16.2375 103.178 17.1945C103.178 17.5795 102.804 17.6895 102.21 17.6895C101.627 17.6895 100.879 17.5685 100.472 17.4365L100.351 18.6025C100.78 18.7565 101.605 18.8995 102.243 18.8995ZM108.398 18.8995C109.069 18.8995 109.696 18.8115 110.213 18.7125L110.092 17.5685C109.685 17.6455 109.135 17.7005 108.75 17.7005C107.694 17.7005 107.133 17.4475 107.089 16.5345H110.4C110.488 16.5345 110.532 16.5015 110.532 16.4135V15.9185C110.532 14.0485 109.674 13.2015 108.057 13.2015C106.407 13.2015 105.439 14.1695 105.439 16.0615C105.439 16.9195 105.626 17.6895 106.165 18.2065C106.627 18.6465 107.386 18.8995 108.398 18.8995ZM107.089 15.5115C107.122 14.8185 107.408 14.3895 108.046 14.3895C108.673 14.3895 108.992 14.8295 108.992 15.5115H107.089ZM113.275 18.8995C114.892 18.8995 115.706 18.2505 115.706 17.1285C115.706 14.8955 112.758 15.7645 112.758 14.8515C112.758 14.5435 113.066 14.4115 113.627 14.4115C114.067 14.4115 114.727 14.4995 115.288 14.6535L115.409 13.4985C114.826 13.3005 114.155 13.2015 113.616 13.2015C111.999 13.2015 111.273 13.9385 111.273 14.9395C111.273 17.1725 114.21 16.2375 114.21 17.1945C114.21 17.5795 113.836 17.6895 113.242 17.6895C112.659 17.6895 111.911 17.5685 111.504 17.4365L111.383 18.6025C111.812 18.7565 112.637 18.8995 113.275 18.8995Z" fill="#3C7521"/>
<path d="M21.3412 49.2706C24.6732 49.2706 26.8832 48.5906 28.5152 47.0606C29.7392 45.9046 30.4532 44.2386 30.4532 42.1646C30.4532 33.0866 18.5872 36.2146 18.5872 31.6586C18.5872 30.1966 19.5052 29.1766 22.3612 29.1766C23.9932 29.1766 26.0332 29.4826 27.9372 29.9926L28.7532 26.0486C26.9512 25.4366 24.5032 25.0966 22.2592 25.0966C17.2952 25.0966 13.5892 27.1706 13.5892 31.8966C13.5892 41.0426 25.4552 37.8806 25.4552 42.2326C25.4552 44.3746 23.9932 45.1906 20.8652 45.1906C19.1652 45.1906 16.4792 44.7486 14.4392 44.0346L13.6232 48.0806C15.9692 48.8966 18.3832 49.2706 21.3412 49.2706ZM32.2159 49.2706H36.5339L46.7679 25.0966H42.4499L32.2159 49.2706ZM57.5619 49.2706C62.9679 49.2706 65.7899 46.3126 65.7899 41.1446C65.7899 36.4866 63.3759 33.9026 59.2279 33.9026C57.6299 33.9026 55.7259 34.2766 54.1959 35.0926C54.2639 32.7466 54.6379 31.1486 55.6579 30.1286C56.5759 29.2106 57.9699 28.9046 60.2139 28.9046C61.4379 28.9046 62.6959 29.0406 63.8859 29.2446V25.5386C62.3219 25.2666 60.7579 25.0966 59.0919 25.0966C55.9979 25.0966 53.8219 25.7766 52.2579 27.3406C50.2179 29.3806 49.0959 32.8486 49.0959 38.2546C49.0959 45.2926 51.3399 49.2706 57.5619 49.2706ZM57.6639 45.5646C55.0119 45.5646 54.1279 43.6606 54.1279 39.2066V37.9146C55.0799 37.7106 56.5419 37.5746 57.5279 37.5746C60.0099 37.5746 60.9619 38.3566 60.9619 41.3146C60.9619 44.1366 59.8399 45.5646 57.6639 45.5646ZM72.6446 48.7946H77.8466L84.3746 30.2646C84.7826 29.1426 84.9186 28.0206 84.9186 26.9326C84.9186 26.4226 84.8506 25.8106 84.6806 25.5386H69.5166V29.0066H80.3626L72.6446 48.7946ZM90.3453 49.2706H90.5833C92.2153 49.2706 93.0653 48.6246 93.0653 46.9246V46.5166C93.0653 44.8166 92.2153 44.1706 90.5833 44.1706H90.3453C88.7133 44.1706 87.8633 44.8166 87.8633 46.5166V46.9246C87.8633 48.6246 88.7133 49.2706 90.3453 49.2706ZM102.152 49.2706C105.246 49.2706 107.422 48.5906 108.986 47.0266C111.026 44.9866 112.148 41.5186 112.148 36.1126C112.148 29.0746 109.904 25.0966 103.682 25.0966C98.2761 25.0966 95.4541 28.0546 95.4541 33.2226C95.4541 37.8806 97.8681 40.4646 102.016 40.4646C103.614 40.4646 105.518 40.0906 107.048 39.2746C106.98 41.6206 106.606 43.2186 105.586 44.2386C104.668 45.1566 103.274 45.4626 101.03 45.4626C99.8061 45.4626 98.5481 45.3266 97.3581 45.1226V48.8286C98.9221 49.1006 100.486 49.2706 102.152 49.2706ZM103.716 36.7926C101.234 36.7926 100.282 36.0106 100.282 33.0526C100.282 30.2306 101.404 28.8026 103.58 28.8026C106.232 28.8026 107.116 30.7066 107.116 35.1606V36.4526C106.164 36.6566 104.702 36.7926 103.716 36.7926ZM123.763 49.2706C130.223 49.2706 132.671 45.1566 132.671 37.2006C132.671 29.2446 130.223 25.0966 123.763 25.0966C117.303 25.0966 114.855 29.2446 114.855 37.2006C114.855 45.1566 117.303 49.2706 123.763 49.2706ZM123.763 45.3606C121.009 45.3606 119.921 43.6266 119.921 37.2006C119.921 30.7746 121.009 28.6666 123.763 28.6666C126.517 28.6666 127.605 30.7746 127.605 37.2006C127.605 43.6266 126.517 45.3606 123.763 45.3606Z" fill="#3C7521"/>
<path d="M8.63204 63.0682H9.61104V60.2632H11.008C11.91 60.2632 12.526 60.0432 12.933 59.6472C13.351 59.2292 13.549 58.6242 13.549 57.8212C13.549 57.1282 13.373 56.5562 12.999 56.1822C12.57 55.7422 11.866 55.5442 10.788 55.5442H8.63204V63.0682ZM9.61104 59.4712V56.3142H10.711C11.437 56.3142 11.899 56.4352 12.185 56.7212C12.427 56.9632 12.537 57.3262 12.537 57.8432C12.537 58.4372 12.394 58.8442 12.13 59.0972C11.833 59.3722 11.36 59.4712 10.678 59.4712H9.61104ZM14.3921 63.0682H15.3051V58.7122C15.6901 58.4702 16.1411 58.3492 16.6141 58.3492C16.7681 58.3492 16.9661 58.3602 17.0871 58.3712V57.5572C16.9661 57.5352 16.8341 57.5242 16.7351 57.5242C16.2621 57.5242 15.7231 57.7112 15.2061 58.1402L15.1511 57.6782H14.3921V63.0682ZM19.9526 63.2222C20.4476 63.2222 21.0856 63.1452 21.5476 63.0132L21.4596 62.3312C21.0416 62.4192 20.5136 62.4742 20.1286 62.4742C19.4466 62.4742 19.0396 62.3312 18.7536 62.0672C18.4346 61.7702 18.2806 61.2862 18.2806 60.6922H21.7566C21.8446 60.6922 21.8886 60.6592 21.8886 60.5712V60.3622C21.8886 58.5912 21.1626 57.5242 19.6556 57.5242C18.2806 57.5242 17.3236 58.4592 17.3236 60.3842C17.3236 61.3522 17.5436 62.0892 18.0276 62.5732C18.4676 63.0132 19.1166 63.2222 19.9526 63.2222ZM18.2806 60.0212C18.2916 58.9322 18.7426 58.2612 19.6556 58.2612C20.5576 58.2612 20.9536 58.9872 20.9866 60.0212H18.2806ZM25.341 63.2222C25.737 63.2222 26.342 63.1452 26.694 63.0462L26.628 62.3642C26.353 62.4192 25.869 62.4742 25.506 62.4742C24.846 62.4742 24.384 62.3202 24.076 61.9682C23.779 61.6272 23.625 61.1102 23.625 60.4282C23.625 58.9982 24.197 58.2612 25.462 58.2612C25.803 58.2612 26.243 58.3272 26.584 58.3932L26.639 57.6892C26.265 57.5902 25.77 57.5242 25.352 57.5242C24.527 57.5242 23.834 57.7662 23.372 58.2612C22.91 58.7562 22.668 59.4932 22.668 60.4392C22.668 61.3852 22.932 62.0892 23.383 62.5512C23.823 63.0022 24.461 63.2222 25.341 63.2222ZM28.1372 56.6552H28.1922C28.5222 56.6552 28.7312 56.4902 28.7312 56.0722V56.0502C28.7312 55.6322 28.5222 55.4672 28.1922 55.4672H28.1372C27.8072 55.4672 27.5982 55.6322 27.5982 56.0502V56.0722C27.5982 56.4902 27.8072 56.6552 28.1372 56.6552ZM27.7082 63.0682H28.6212V57.6782H27.7082V63.0682ZM32.1254 63.2222C33.7974 63.2222 34.5784 62.1662 34.5784 60.3732C34.5784 58.5802 33.7974 57.5242 32.1254 57.5242C30.4534 57.5242 29.6724 58.5802 29.6724 60.3732C29.6724 62.1662 30.4534 63.2222 32.1254 63.2222ZM32.1254 62.4742C31.0254 62.4742 30.6294 61.7482 30.6294 60.3732C30.6294 58.9982 31.0254 58.2722 32.1254 58.2722C33.2254 58.2722 33.6214 58.9982 33.6214 60.3732C33.6214 61.7482 33.2254 62.4742 32.1254 62.4742ZM37.6395 63.0682H38.5525V58.7122C38.9375 58.4702 39.3885 58.3492 39.8615 58.3492C40.0155 58.3492 40.2135 58.3602 40.3345 58.3712V57.5572C40.2135 57.5352 40.0815 57.5242 39.9825 57.5242C39.5095 57.5242 38.9705 57.7112 38.4535 58.1402L38.3985 57.6782H37.6395V63.0682ZM43.2 63.2222C43.695 63.2222 44.333 63.1452 44.795 63.0132L44.707 62.3312C44.289 62.4192 43.761 62.4742 43.376 62.4742C42.694 62.4742 42.287 62.3312 42.001 62.0672C41.682 61.7702 41.528 61.2862 41.528 60.6922H45.004C45.092 60.6922 45.136 60.6592 45.136 60.5712V60.3622C45.136 58.5912 44.41 57.5242 42.903 57.5242C41.528 57.5242 40.571 58.4592 40.571 60.3842C40.571 61.3522 40.791 62.0892 41.275 62.5732C41.715 63.0132 42.364 63.2222 43.2 63.2222ZM41.528 60.0212C41.539 58.9322 41.99 58.2612 42.903 58.2612C43.805 58.2612 44.201 58.9872 44.234 60.0212H41.528ZM48.2804 65.6972C50.1064 65.6972 50.8324 65.0922 50.8324 64.0032C50.8324 63.5632 50.7114 63.1892 50.4364 62.9142C50.0844 62.5622 49.5564 62.4082 48.6104 62.4082H47.5764C47.2794 62.4082 47.1364 62.3092 47.1364 62.0782C47.1364 61.8912 47.2684 61.6052 47.4334 61.4182C47.6864 61.4952 47.9614 61.5282 48.2804 61.5282C49.7544 61.5282 50.4474 60.6922 50.4474 59.5262C50.4474 58.7562 50.1394 58.1182 49.4904 57.7882L50.2384 56.5122C50.0624 56.3692 49.7324 56.2152 49.4794 56.1602L48.8304 57.5682C48.6654 57.5462 48.4784 57.5242 48.2804 57.5242C46.8064 57.5242 46.1134 58.3602 46.1134 59.5262C46.1134 60.2302 46.3664 60.8022 46.8724 61.1542C46.4874 61.5282 46.2344 61.9682 46.2344 62.3972C46.2344 62.6392 46.3114 62.8372 46.4874 62.9802C46.1134 63.2442 45.8714 63.7062 45.8714 64.1792C45.8714 65.1362 46.6194 65.6972 48.2804 65.6972ZM48.2804 60.8022C47.3894 60.8022 46.9824 60.3512 46.9824 59.5262C46.9824 58.7012 47.3894 58.2502 48.2804 58.2502C49.1714 58.2502 49.5784 58.7012 49.5784 59.5262C49.5784 60.3512 49.1714 60.8022 48.2804 60.8022ZM48.3684 64.9272C47.1694 64.9272 46.7294 64.5972 46.7294 64.0142C46.7294 63.7282 46.8504 63.4312 47.0484 63.1892C47.1584 63.2112 47.2904 63.2222 47.4444 63.2222H48.6104C49.1494 63.2222 49.5014 63.2882 49.7104 63.4422C49.8864 63.5742 49.9744 63.7722 49.9744 64.0362C49.9744 64.5972 49.5124 64.9272 48.3684 64.9272ZM53.3816 63.2222C54.0086 63.2222 54.6576 63.0132 55.2186 62.6722L55.2626 63.0682H56.0216V57.6782H55.1086V62.0672C54.6686 62.2762 54.1076 62.4192 53.6236 62.4192C53.2276 62.4192 52.9416 62.3312 52.7546 62.1442C52.5676 61.9572 52.4906 61.6932 52.4906 61.2312V57.6782H51.5776V61.3412C51.5776 62.0122 51.7316 62.4522 52.0286 62.7492C52.3366 63.0682 52.7986 63.2222 53.3816 63.2222ZM57.3525 63.0682H58.2655V55.2032H57.3525V63.0682ZM61.1432 63.2222C61.7922 63.2222 62.3642 63.0132 62.8372 62.7052L62.8922 63.0682H63.6292V59.4822C63.6292 58.7782 63.4972 58.3492 63.1562 58.0192C62.8152 57.7002 62.2762 57.5242 61.4732 57.5242C60.9562 57.5242 60.3402 57.5902 59.8342 57.7112L59.8672 58.4152C60.3952 58.3272 60.9122 58.2832 61.3192 58.2832C61.8582 58.2832 62.2102 58.3822 62.4412 58.6022C62.6392 58.8002 62.7162 59.0752 62.7162 59.5152V59.8562H61.5942C60.8132 59.8562 60.1752 59.9992 59.7682 60.3732C59.4822 60.6372 59.3062 61.0332 59.3062 61.5392C59.3062 62.0452 59.4712 62.4302 59.7352 62.7052C60.0652 63.0462 60.5602 63.2222 61.1432 63.2222ZM61.3412 62.4852C60.6372 62.4852 60.2302 62.1662 60.2302 61.5172C60.2302 61.1872 60.3402 60.9562 60.5272 60.8022C60.7802 60.6042 61.1652 60.5272 61.7262 60.5272H62.7162V62.1332C62.3202 62.3312 61.7812 62.4852 61.3412 62.4852ZM64.9259 63.0682H65.8389V58.7122C66.2239 58.4702 66.6749 58.3492 67.1479 58.3492C67.3019 58.3492 67.4999 58.3602 67.6209 58.3712V57.5572C67.4999 57.5352 67.3679 57.5242 67.2689 57.5242C66.7959 57.5242 66.2569 57.7112 65.7399 58.1402L65.6849 57.6782H64.9259V63.0682ZM72.2966 63.2222C72.8026 63.2222 73.4516 63.0242 73.8916 62.7382L73.9576 63.0682H74.7056V55.2032H73.7926V57.9092C73.3636 57.6672 72.8246 57.5242 72.3626 57.5242C70.9546 57.5242 70.1296 58.6242 70.1296 60.4062C70.1296 62.2762 70.9216 63.2222 72.2966 63.2222ZM72.5496 62.4742C71.5816 62.4742 71.0866 61.8362 71.0866 60.4172C71.0866 59.1522 71.4496 58.2942 72.5496 58.2942C72.9126 58.2942 73.3966 58.4042 73.7926 58.5582V62.1552C73.4076 62.3422 72.9346 62.4742 72.5496 62.4742ZM78.3716 63.2222C78.8666 63.2222 79.5046 63.1452 79.9666 63.0132L79.8786 62.3312C79.4606 62.4192 78.9326 62.4742 78.5476 62.4742C77.8656 62.4742 77.4586 62.3312 77.1726 62.0672C76.8536 61.7702 76.6996 61.2862 76.6996 60.6922H80.1756C80.2636 60.6922 80.3076 60.6592 80.3076 60.5712V60.3622C80.3076 58.5912 79.5816 57.5242 78.0746 57.5242C76.6996 57.5242 75.7426 58.4592 75.7426 60.3842C75.7426 61.3522 75.9626 62.0892 76.4466 62.5732C76.8866 63.0132 77.5356 63.2222 78.3716 63.2222ZM76.6996 60.0212C76.7106 58.9322 77.1616 58.2612 78.0746 58.2612C78.9766 58.2612 79.3726 58.9872 79.4056 60.0212H76.6996ZM82.7921 63.2222C84.0901 63.2222 84.9701 62.7162 84.9701 61.5722C84.9701 59.6472 81.9671 60.2192 81.9671 59.0092C81.9671 58.5032 82.3741 58.2502 83.1441 58.2502C83.5841 58.2502 84.0791 58.3162 84.5631 58.4262L84.6401 57.7552C84.2111 57.6232 83.6061 57.5242 83.0671 57.5242C81.9231 57.5242 81.1091 58.0302 81.1091 59.0752C81.1091 61.0552 84.1121 60.4282 84.1121 61.6382C84.1121 62.1882 83.6391 62.4852 82.7591 62.4852C82.2861 62.4852 81.6921 62.4082 81.2521 62.2872L81.2081 62.9912C81.6151 63.1232 82.2751 63.2222 82.7921 63.2222ZM87.9218 63.2222C88.4278 63.2222 89.0768 63.0242 89.5168 62.7382L89.5828 63.0682H90.3308V55.2032H89.4178V57.9092C88.9888 57.6672 88.4498 57.5242 87.9878 57.5242C86.5798 57.5242 85.7548 58.6242 85.7548 60.4062C85.7548 62.2762 86.5468 63.2222 87.9218 63.2222ZM88.1748 62.4742C87.2068 62.4742 86.7118 61.8362 86.7118 60.4172C86.7118 59.1522 87.0748 58.2942 88.1748 58.2942C88.5378 58.2942 89.0218 58.4042 89.4178 58.5582V62.1552C89.0328 62.3422 88.5598 62.4742 88.1748 62.4742ZM93.9968 63.2222C94.4918 63.2222 95.1298 63.1452 95.5918 63.0132L95.5038 62.3312C95.0858 62.4192 94.5578 62.4742 94.1728 62.4742C93.4908 62.4742 93.0838 62.3312 92.7978 62.0672C92.4788 61.7702 92.3248 61.2862 92.3248 60.6922H95.8008C95.8888 60.6922 95.9328 60.6592 95.9328 60.5712V60.3622C95.9328 58.5912 95.2068 57.5242 93.6998 57.5242C92.3248 57.5242 91.3678 58.4592 91.3678 60.3842C91.3678 61.3522 91.5878 62.0892 92.0718 62.5732C92.5118 63.0132 93.1608 63.2222 93.9968 63.2222ZM92.3248 60.0212C92.3358 58.9322 92.7868 58.2612 93.6998 58.2612C94.6018 58.2612 94.9978 58.9872 95.0308 60.0212H92.3248ZM101.047 63.2222C101.916 63.2222 102.587 63.0132 103.038 62.5842C103.412 62.2322 103.632 61.7152 103.632 61.0552C103.632 58.4812 99.7603 59.0642 99.7603 57.3482C99.7603 56.5452 100.387 56.2152 101.41 56.2152C101.905 56.2152 102.488 56.2922 103.038 56.4352L103.181 55.6872C102.664 55.5112 101.982 55.4012 101.333 55.4012C99.8373 55.4012 98.8363 56.0832 98.8363 57.4142C98.8363 59.9992 102.697 59.2622 102.697 61.1542C102.697 61.5612 102.554 61.8582 102.29 62.0672C101.993 62.2982 101.575 62.4082 100.959 62.4082C100.354 62.4082 99.6503 62.2762 99.0783 62.1112L98.9133 62.8592C99.4853 63.0902 100.354 63.2222 101.047 63.2222ZM104.424 63.2222H105.315L108.56 55.4012H107.669L104.424 63.2222ZM110.168 63.0682H113.512V62.3642H112.368V55.9842C112.368 55.5882 112.214 55.4672 111.741 55.4672C111.345 55.4672 110.641 55.5222 110.19 55.5882V56.2042H111.466V62.3642H110.168V63.0682ZM118.481 63.0682H119.383V61.2312H120.296V60.4942H119.383V58.5912H118.481V60.4942H115.984L117.733 55.5442H116.842L115.258 60.0872C115.104 60.5272 115.06 60.7032 115.06 60.9452C115.06 61.0332 115.071 61.1542 115.082 61.2312H118.481V63.0682ZM122.427 63.0682H123.428L125.683 56.4462C125.782 56.1602 125.804 55.9952 125.804 55.7862C125.804 55.6982 125.793 55.5992 125.771 55.5442H121.25V56.2702H124.88L122.427 63.0682ZM127.518 63.2222H127.595C127.925 63.2222 128.145 63.0572 128.145 62.6282V62.5842C128.145 62.1552 127.925 61.9902 127.595 61.9902H127.518C127.188 61.9902 126.968 62.1552 126.968 62.5842V62.6282C126.968 63.0572 127.188 63.2222 127.518 63.2222ZM131.055 63.2222C131.935 63.2222 132.628 62.9582 133.09 62.4082C133.684 61.7042 133.97 60.5492 133.97 58.9212C133.97 56.7652 133.321 55.4012 131.484 55.4012C129.922 55.4012 129.097 56.4682 129.097 57.9202C129.097 59.4052 129.911 60.1752 131.209 60.1752C131.836 60.1752 132.496 59.9882 133.024 59.7682C132.947 61.5392 132.463 62.4742 130.978 62.4742C130.626 62.4742 130.153 62.4302 129.823 62.3862V63.0902C130.186 63.1672 130.67 63.2222 131.055 63.2222ZM131.396 59.4382C130.395 59.4382 130.021 58.8882 130.021 57.8652C130.021 56.8202 130.516 56.1492 131.462 56.1492C132.661 56.1492 133.035 57.1392 133.035 58.7122V59.1522C132.529 59.3172 131.88 59.4382 131.396 59.4382ZM137.465 63.2222C139.335 63.2222 140.05 61.7702 140.05 59.3172C140.05 56.8642 139.335 55.4012 137.465 55.4012C135.595 55.4012 134.88 56.8642 134.88 59.3172C134.88 61.7702 135.595 63.2222 137.465 63.2222ZM137.465 62.4412C136.244 62.4412 135.837 61.4182 135.837 59.3172C135.837 57.2162 136.244 56.1822 137.465 56.1822C138.686 56.1822 139.093 57.2162 139.093 59.3172C139.093 61.4182 138.686 62.4412 137.465 62.4412Z" fill="#3C7521"/>
</svg>
