<svg width="101" height="108" viewBox="0 0 101 108" fill="none" xmlns="http://www.w3.org/2000/svg">
<path d="M0 42L-1.41051e-06 4.0671C-1.49403e-06 1.8209 1.8209 3.72113e-06 4.0671 3.60571e-06L96.9329 -1.16611e-06C99.1791 -1.28153e-06 101 1.8209 101 4.0671L101 42L0 42Z" fill="#BDE4A4"/>
<path d="M21.7451 28.0472C23.5091 28.0472 24.6791 27.6872 25.5431 26.8772C26.1911 26.2652 26.5691 25.3832 26.5691 24.2852C26.5691 19.4792 20.2871 21.1352 20.2871 18.7232C20.2871 17.9492 20.7731 17.4092 22.2851 17.4092C23.1491 17.4092 24.2291 17.5712 25.2371 17.8412L25.6691 15.7532C24.7151 15.4292 23.4191 15.2492 22.2311 15.2492C19.6031 15.2492 17.6411 16.3472 17.6411 18.8492C17.6411 23.6912 23.9231 22.0172 23.9231 24.3212C23.9231 25.4552 23.1491 25.8872 21.4931 25.8872C20.5931 25.8872 19.1711 25.6532 18.0911 25.2752L17.6591 27.4172C18.9011 27.8492 20.1791 28.0472 21.7451 28.0472ZM27.8623 28.0472H30.1483L35.5663 15.2492H33.2803L27.8623 28.0472ZM41.6407 28.0472C44.5027 28.0472 45.9967 26.4812 45.9967 23.7452C45.9967 21.2792 44.7187 19.9112 42.5227 19.9112C41.6767 19.9112 40.6687 20.1092 39.8587 20.5412C39.8947 19.2992 40.0927 18.4532 40.6327 17.9132C41.1187 17.4272 41.8567 17.2652 43.0447 17.2652C43.6927 17.2652 44.3587 17.3372 44.9887 17.4452V15.4832C44.1607 15.3392 43.3327 15.2492 42.4507 15.2492C40.8127 15.2492 39.6607 15.6092 38.8327 16.4372C37.7527 17.5172 37.1587 19.3532 37.1587 22.2152C37.1587 25.9412 38.3467 28.0472 41.6407 28.0472ZM41.6947 26.0852C40.2907 26.0852 39.8227 25.0772 39.8227 22.7192V22.0352C40.3267 21.9272 41.1007 21.8552 41.6227 21.8552C42.9367 21.8552 43.4407 22.2692 43.4407 23.8352C43.4407 25.3292 42.8467 26.0852 41.6947 26.0852ZM49.9857 27.7952H52.7397L56.1957 17.9852C56.4117 17.3912 56.4837 16.7972 56.4837 16.2212C56.4837 15.9512 56.4477 15.6272 56.3577 15.4832H48.3297V17.3192H54.0717L49.9857 27.7952ZM59.7167 28.0472H59.8427C60.7067 28.0472 61.1567 27.7052 61.1567 26.8052V26.5892C61.1567 25.6892 60.7067 25.3472 59.8427 25.3472H59.7167C58.8527 25.3472 58.4027 25.6892 58.4027 26.5892V26.8052C58.4027 27.7052 58.8527 28.0472 59.7167 28.0472ZM66.3273 28.0472C67.9653 28.0472 69.1173 27.6872 69.9453 26.8592C71.0253 25.7792 71.6193 23.9432 71.6193 21.0812C71.6193 17.3552 70.4313 15.2492 67.1373 15.2492C64.2753 15.2492 62.7813 16.8152 62.7813 19.5512C62.7813 22.0172 64.0593 23.3852 66.2553 23.3852C67.1013 23.3852 68.1093 23.1872 68.9193 22.7552C68.8833 23.9972 68.6853 24.8432 68.1453 25.3832C67.6593 25.8692 66.9213 26.0312 65.7333 26.0312C65.0853 26.0312 64.4193 25.9592 63.7893 25.8512V27.8132C64.6173 27.9572 65.4453 28.0472 66.3273 28.0472ZM67.1553 21.4412C65.8413 21.4412 65.3373 21.0272 65.3373 19.4612C65.3373 17.9672 65.9313 17.2112 67.0833 17.2112C68.4873 17.2112 68.9553 18.2192 68.9553 20.5772V21.2612C68.4513 21.3692 67.6773 21.4412 67.1553 21.4412ZM78.1283 28.0472C81.5483 28.0472 82.8443 25.8692 82.8443 21.6572C82.8443 17.4452 81.5483 15.2492 78.1283 15.2492C74.7083 15.2492 73.4123 17.4452 73.4123 21.6572C73.4123 25.8692 74.7083 28.0472 78.1283 28.0472ZM78.1283 25.9772C76.6703 25.9772 76.0943 25.0592 76.0943 21.6572C76.0943 18.2552 76.6703 17.1392 78.1283 17.1392C79.5863 17.1392 80.1623 18.2552 80.1623 21.6572C80.1623 25.0592 79.5863 25.9772 78.1283 25.9772Z" fill="#3C7521"/>
<path d="M7.85309 36.4597H8.47609V34.6747H9.36509C9.93909 34.6747 10.3311 34.5347 10.5901 34.2827C10.8561 34.0167 10.9821 33.6317 10.9821 33.1207C10.9821 32.6797 10.8701 32.3157 10.6321 32.0777C10.3591 31.7977 9.91109 31.6717 9.22509 31.6717H7.85309V36.4597ZM8.47609 34.1707V32.1617H9.17609C9.63809 32.1617 9.93209 32.2387 10.1141 32.4207C10.2681 32.5747 10.3381 32.8057 10.3381 33.1347C10.3381 33.5127 10.2471 33.7717 10.0791 33.9327C9.89009 34.1077 9.58909 34.1707 9.15509 34.1707H8.47609ZM11.6586 36.4597H12.2396V33.6877C12.4846 33.5337 12.7716 33.4567 13.0726 33.4567C13.1706 33.4567 13.2966 33.4637 13.3736 33.4707V32.9527C13.2966 32.9387 13.2126 32.9317 13.1496 32.9317C12.8486 32.9317 12.5056 33.0507 12.1766 33.3237L12.1416 33.0297H11.6586V36.4597ZM15.3371 36.5577C15.6521 36.5577 16.0581 36.5087 16.3521 36.4247L16.2961 35.9907C16.0301 36.0467 15.6941 36.0817 15.4491 36.0817C15.0151 36.0817 14.7561 35.9907 14.5741 35.8227C14.3711 35.6337 14.2731 35.3257 14.2731 34.9477H16.4851C16.5411 34.9477 16.5691 34.9267 16.5691 34.8707V34.7377C16.5691 33.6107 16.1071 32.9317 15.1481 32.9317C14.2731 32.9317 13.6641 33.5267 13.6641 34.7517C13.6641 35.3677 13.8041 35.8367 14.1121 36.1447C14.3921 36.4247 14.8051 36.5577 15.3371 36.5577ZM14.2731 34.5207C14.2801 33.8277 14.5671 33.4007 15.1481 33.4007C15.7221 33.4007 15.9741 33.8627 15.9951 34.5207H14.2731ZM18.9061 36.5577C19.1581 36.5577 19.5431 36.5087 19.7671 36.4457L19.7251 36.0117C19.5501 36.0467 19.2421 36.0817 19.0111 36.0817C18.5911 36.0817 18.2971 35.9837 18.1011 35.7597C17.9121 35.5427 17.8141 35.2137 17.8141 34.7797C17.8141 33.8697 18.1781 33.4007 18.9831 33.4007C19.2001 33.4007 19.4801 33.4427 19.6971 33.4847L19.7321 33.0367C19.4941 32.9737 19.1791 32.9317 18.9131 32.9317C18.3881 32.9317 17.9471 33.0857 17.6531 33.4007C17.3591 33.7157 17.2051 34.1847 17.2051 34.7867C17.2051 35.3887 17.3731 35.8367 17.6601 36.1307C17.9401 36.4177 18.3461 36.5577 18.9061 36.5577ZM20.8255 32.3787H20.8605C21.0705 32.3787 21.2035 32.2737 21.2035 32.0077V31.9937C21.2035 31.7277 21.0705 31.6227 20.8605 31.6227H20.8255C20.6155 31.6227 20.4825 31.7277 20.4825 31.9937V32.0077C20.4825 32.2737 20.6155 32.3787 20.8255 32.3787ZM20.5525 36.4597H21.1335V33.0297H20.5525V36.4597ZM23.5034 36.5577C24.5674 36.5577 25.0644 35.8857 25.0644 34.7447C25.0644 33.6037 24.5674 32.9317 23.5034 32.9317C22.4394 32.9317 21.9424 33.6037 21.9424 34.7447C21.9424 35.8857 22.4394 36.5577 23.5034 36.5577ZM23.5034 36.0817C22.8034 36.0817 22.5514 35.6197 22.5514 34.7447C22.5514 33.8697 22.8034 33.4077 23.5034 33.4077C24.2034 33.4077 24.4554 33.8697 24.4554 34.7447C24.4554 35.6197 24.2034 36.0817 23.5034 36.0817ZM27.2924 36.4597H27.8734V33.6877C28.1184 33.5337 28.4054 33.4567 28.7064 33.4567C28.8044 33.4567 28.9304 33.4637 29.0074 33.4707V32.9527C28.9304 32.9387 28.8464 32.9317 28.7834 32.9317C28.4824 32.9317 28.1394 33.0507 27.8104 33.3237L27.7754 33.0297H27.2924V36.4597ZM30.9709 36.5577C31.2859 36.5577 31.6919 36.5087 31.9859 36.4247L31.9299 35.9907C31.6639 36.0467 31.3279 36.0817 31.0829 36.0817C30.6489 36.0817 30.3899 35.9907 30.2079 35.8227C30.0049 35.6337 29.9069 35.3257 29.9069 34.9477H32.1189C32.1749 34.9477 32.2029 34.9267 32.2029 34.8707V34.7377C32.2029 33.6107 31.7409 32.9317 30.7819 32.9317C29.9069 32.9317 29.2979 33.5267 29.2979 34.7517C29.2979 35.3677 29.4379 35.8367 29.7459 36.1447C30.0259 36.4247 30.4389 36.5577 30.9709 36.5577ZM29.9069 34.5207C29.9139 33.8277 30.2009 33.4007 30.7819 33.4007C31.3559 33.4007 31.6079 33.8627 31.6289 34.5207H29.9069ZM34.3439 38.1327C35.5059 38.1327 35.9679 37.7477 35.9679 37.0547C35.9679 36.7747 35.8909 36.5367 35.7159 36.3617C35.4919 36.1377 35.1559 36.0397 34.5539 36.0397H33.8959C33.7069 36.0397 33.6159 35.9767 33.6159 35.8297C33.6159 35.7107 33.6999 35.5287 33.8049 35.4097C33.9659 35.4587 34.1409 35.4797 34.3439 35.4797C35.2819 35.4797 35.7229 34.9477 35.7229 34.2057C35.7229 33.7157 35.5269 33.3097 35.1139 33.0997L35.5899 32.2877C35.4779 32.1967 35.2679 32.0987 35.1069 32.0637L34.6939 32.9597C34.5889 32.9457 34.4699 32.9317 34.3439 32.9317C33.4059 32.9317 32.9649 33.4637 32.9649 34.2057C32.9649 34.6537 33.1259 35.0177 33.4479 35.2417C33.2029 35.4797 33.0419 35.7597 33.0419 36.0327C33.0419 36.1867 33.0909 36.3127 33.2029 36.4037C32.9649 36.5717 32.8109 36.8657 32.8109 37.1667C32.8109 37.7757 33.2869 38.1327 34.3439 38.1327ZM34.3439 35.0177C33.7769 35.0177 33.5179 34.7307 33.5179 34.2057C33.5179 33.6807 33.7769 33.3937 34.3439 33.3937C34.9109 33.3937 35.1699 33.6807 35.1699 34.2057C35.1699 34.7307 34.9109 35.0177 34.3439 35.0177ZM34.3999 37.6427C33.6369 37.6427 33.3569 37.4327 33.3569 37.0617C33.3569 36.8797 33.4339 36.6907 33.5599 36.5367C33.6299 36.5507 33.7139 36.5577 33.8119 36.5577H34.5539C34.8969 36.5577 35.1209 36.5997 35.2539 36.6977C35.3659 36.7817 35.4219 36.9077 35.4219 37.0757C35.4219 37.4327 35.1279 37.6427 34.3999 37.6427ZM37.7301 36.5577C38.1291 36.5577 38.5421 36.4247 38.8991 36.2077L38.9271 36.4597H39.4101V33.0297H38.8291V35.8227C38.5491 35.9557 38.1921 36.0467 37.8841 36.0467C37.6321 36.0467 37.4501 35.9907 37.3311 35.8717C37.2121 35.7527 37.1631 35.5847 37.1631 35.2907V33.0297H36.5821V35.3607C36.5821 35.7877 36.6801 36.0677 36.8691 36.2567C37.0651 36.4597 37.3591 36.5577 37.7301 36.5577ZM40.397 36.4597H40.978V31.4547H40.397V36.4597ZM42.9493 36.5577C43.3623 36.5577 43.7263 36.4247 44.0273 36.2287L44.0623 36.4597H44.5313V34.1777C44.5313 33.7297 44.4473 33.4567 44.2303 33.2467C44.0133 33.0437 43.6703 32.9317 43.1593 32.9317C42.8303 32.9317 42.4383 32.9737 42.1163 33.0507L42.1373 33.4987C42.4733 33.4427 42.8023 33.4147 43.0613 33.4147C43.4043 33.4147 43.6283 33.4777 43.7753 33.6177C43.9013 33.7437 43.9503 33.9187 43.9503 34.1987V34.4157H43.2363C42.7393 34.4157 42.3333 34.5067 42.0743 34.7447C41.8923 34.9127 41.7803 35.1647 41.7803 35.4867C41.7803 35.8087 41.8853 36.0537 42.0533 36.2287C42.2633 36.4457 42.5783 36.5577 42.9493 36.5577ZM43.0753 36.0887C42.6273 36.0887 42.3683 35.8857 42.3683 35.4727C42.3683 35.2627 42.4383 35.1157 42.5573 35.0177C42.7183 34.8917 42.9633 34.8427 43.3203 34.8427H43.9503V35.8647C43.6983 35.9907 43.3553 36.0887 43.0753 36.0887ZM45.4965 36.4597H46.0775V33.6877C46.3225 33.5337 46.6095 33.4567 46.9105 33.4567C47.0085 33.4567 47.1345 33.4637 47.2115 33.4707V32.9527C47.1345 32.9387 47.0505 32.9317 46.9875 32.9317C46.6865 32.9317 46.3435 33.0507 46.0145 33.3237L45.9795 33.0297H45.4965V36.4597ZM50.4669 36.5577C50.7889 36.5577 51.2019 36.4317 51.4819 36.2497L51.5239 36.4597H51.9999V31.4547H51.4189V33.1767C51.1459 33.0227 50.8029 32.9317 50.5089 32.9317C49.6129 32.9317 49.0879 33.6317 49.0879 34.7657C49.0879 35.9557 49.5919 36.5577 50.4669 36.5577ZM50.6279 36.0817C50.0119 36.0817 49.6969 35.6757 49.6969 34.7727C49.6969 33.9677 49.9279 33.4217 50.6279 33.4217C50.8589 33.4217 51.1669 33.4917 51.4189 33.5897V35.8787C51.1739 35.9977 50.8729 36.0817 50.6279 36.0817ZM54.4728 36.5577C54.7878 36.5577 55.1938 36.5087 55.4878 36.4247L55.4318 35.9907C55.1658 36.0467 54.8298 36.0817 54.5848 36.0817C54.1508 36.0817 53.8918 35.9907 53.7098 35.8227C53.5068 35.6337 53.4088 35.3257 53.4088 34.9477H55.6208C55.6768 34.9477 55.7048 34.9267 55.7048 34.8707V34.7377C55.7048 33.6107 55.2428 32.9317 54.2838 32.9317C53.4088 32.9317 52.7998 33.5267 52.7998 34.7517C52.7998 35.3677 52.9398 35.8367 53.2478 36.1447C53.5278 36.4247 53.9408 36.5577 54.4728 36.5577ZM53.4088 34.5207C53.4158 33.8277 53.7028 33.4007 54.2838 33.4007C54.8578 33.4007 55.1098 33.8627 55.1308 34.5207H53.4088ZM57.4258 36.5577C58.2518 36.5577 58.8118 36.2357 58.8118 35.5077C58.8118 34.2827 56.9008 34.6467 56.9008 33.8767C56.9008 33.5547 57.1598 33.3937 57.6498 33.3937C57.9298 33.3937 58.2448 33.4357 58.5528 33.5057L58.6018 33.0787C58.3288 32.9947 57.9438 32.9317 57.6008 32.9317C56.8728 32.9317 56.3548 33.2537 56.3548 33.9187C56.3548 35.1787 58.2658 34.7797 58.2658 35.5497C58.2658 35.8997 57.9648 36.0887 57.4048 36.0887C57.1038 36.0887 56.7258 36.0397 56.4458 35.9627L56.4178 36.4107C56.6768 36.4947 57.0968 36.5577 57.4258 36.5577ZM60.8302 36.5577C61.1522 36.5577 61.5652 36.4317 61.8452 36.2497L61.8872 36.4597H62.3632V31.4547H61.7822V33.1767C61.5092 33.0227 61.1662 32.9317 60.8722 32.9317C59.9762 32.9317 59.4512 33.6317 59.4512 34.7657C59.4512 35.9557 59.9552 36.5577 60.8302 36.5577ZM60.9912 36.0817C60.3752 36.0817 60.0602 35.6757 60.0602 34.7727C60.0602 33.9677 60.2912 33.4217 60.9912 33.4217C61.2222 33.4217 61.5302 33.4917 61.7822 33.5897V35.8787C61.5372 35.9977 61.2362 36.0817 60.9912 36.0817ZM64.8361 36.5577C65.1511 36.5577 65.5571 36.5087 65.8511 36.4247L65.7951 35.9907C65.5291 36.0467 65.1931 36.0817 64.9481 36.0817C64.5141 36.0817 64.2551 35.9907 64.0731 35.8227C63.8701 35.6337 63.7721 35.3257 63.7721 34.9477H65.9841C66.0401 34.9477 66.0681 34.9267 66.0681 34.8707V34.7377C66.0681 33.6107 65.6061 32.9317 64.6471 32.9317C63.7721 32.9317 63.1631 33.5267 63.1631 34.7517C63.1631 35.3677 63.3031 35.8367 63.6111 36.1447C63.8911 36.4247 64.3041 36.5577 64.8361 36.5577ZM63.7721 34.5207C63.7791 33.8277 64.0661 33.4007 64.6471 33.4007C65.2211 33.4007 65.4731 33.8627 65.4941 34.5207H63.7721ZM69.6028 36.5577C70.1558 36.5577 70.5828 36.4247 70.8698 36.1517C71.1078 35.9277 71.2478 35.5987 71.2478 35.1787C71.2478 33.5407 68.7838 33.9117 68.7838 32.8197C68.7838 32.3087 69.1828 32.0987 69.8338 32.0987C70.1488 32.0987 70.5198 32.1477 70.8698 32.2387L70.9608 31.7627C70.6318 31.6507 70.1978 31.5807 69.7848 31.5807C68.8328 31.5807 68.1958 32.0147 68.1958 32.8617C68.1958 34.5067 70.6528 34.0377 70.6528 35.2417C70.6528 35.5007 70.5618 35.6897 70.3938 35.8227C70.2048 35.9697 69.9388 36.0397 69.5468 36.0397C69.1618 36.0397 68.7138 35.9557 68.3498 35.8507L68.2448 36.3267C68.6088 36.4737 69.1618 36.5577 69.6028 36.5577ZM71.8916 36.5577H72.4586L74.5236 31.5807H73.9566L71.8916 36.5577ZM75.6866 36.4597H77.8146V36.0117H77.0866V31.9517C77.0866 31.6997 76.9886 31.6227 76.6876 31.6227C76.4356 31.6227 75.9876 31.6577 75.7006 31.6997V32.0917H76.5126V36.0117H75.6866V36.4597ZM81.117 36.4597H81.691V35.2907H82.272V34.8217H81.691V33.6107H81.117V34.8217H79.528L80.641 31.6717H80.074L79.066 34.5627C78.968 34.8427 78.94 34.9547 78.94 35.1087C78.94 35.1647 78.947 35.2417 78.954 35.2907H81.117V36.4597ZM83.7683 36.4597H84.4053L85.8403 32.2457C85.9033 32.0637 85.9173 31.9587 85.9173 31.8257C85.9173 31.7697 85.9103 31.7067 85.8963 31.6717H83.0193V32.1337H85.3293L83.7683 36.4597ZM87.1476 36.5577H87.1966C87.4066 36.5577 87.5466 36.4527 87.5466 36.1797V36.1517C87.5466 35.8787 87.4066 35.7737 87.1966 35.7737H87.1476C86.9376 35.7737 86.7976 35.8787 86.7976 36.1517V36.1797C86.7976 36.4527 86.9376 36.5577 87.1476 36.5577ZM89.5385 36.5577C90.0985 36.5577 90.5395 36.3897 90.8335 36.0397C91.2115 35.5917 91.3935 34.8567 91.3935 33.8207C91.3935 32.4487 90.9805 31.5807 89.8115 31.5807C88.8175 31.5807 88.2925 32.2597 88.2925 33.1837C88.2925 34.1287 88.8105 34.6187 89.6365 34.6187C90.0355 34.6187 90.4555 34.4997 90.7915 34.3597C90.7425 35.4867 90.4345 36.0817 89.4895 36.0817C89.2655 36.0817 88.9645 36.0537 88.7545 36.0257V36.4737C88.9855 36.5227 89.2935 36.5577 89.5385 36.5577ZM89.7555 34.1497C89.1185 34.1497 88.8805 33.7997 88.8805 33.1487C88.8805 32.4837 89.1955 32.0567 89.7975 32.0567C90.5605 32.0567 90.7985 32.6867 90.7985 33.6877V33.9677C90.4765 34.0727 90.0635 34.1497 89.7555 34.1497ZM93.7578 36.5577C94.9478 36.5577 95.4028 35.6337 95.4028 34.0727C95.4028 32.5117 94.9478 31.5807 93.7578 31.5807C92.5678 31.5807 92.1128 32.5117 92.1128 34.0727C92.1128 35.6337 92.5678 36.5577 93.7578 36.5577ZM93.7578 36.0607C92.9808 36.0607 92.7218 35.4097 92.7218 34.0727C92.7218 32.7357 92.9808 32.0777 93.7578 32.0777C94.5348 32.0777 94.7938 32.7357 94.7938 34.0727C94.7938 35.4097 94.5348 36.0607 93.7578 36.0607Z" fill="#3C7521"/>
<path d="M24.0399 11.5357C25.7119 11.5357 26.4639 10.5437 26.4639 8.69571C26.4639 6.84771 25.7119 5.84771 24.0399 5.84771C22.3679 5.84771 21.6159 6.84771 21.6159 8.69571C21.6159 10.5437 22.3679 11.5357 24.0399 11.5357ZM24.0399 10.5597C23.2319 10.5597 22.9119 10.0157 22.9119 8.69571C22.9119 7.37571 23.2319 6.82371 24.0399 6.82371C24.8479 6.82371 25.1679 7.37571 25.1679 8.69571C25.1679 10.0157 24.8479 10.5597 24.0399 10.5597ZM27.6102 11.4237H28.7542V8.24771H29.6822V7.50371H28.7542V7.03171C28.7542 6.75171 28.7942 6.63971 28.8662 6.56771C28.9702 6.46371 29.1302 6.42371 29.4022 6.42371C29.5702 6.42371 29.7782 6.44771 29.9382 6.47171V5.65571C29.6662 5.59971 29.4022 5.56771 29.1062 5.56771C28.5622 5.56771 28.1542 5.70371 27.9382 5.92771C27.7062 6.16771 27.6102 6.48771 27.6102 6.96771V7.51171L26.9382 7.63171V8.24771H27.6102V11.4237ZM32.1332 11.5357C32.6212 11.5357 33.0772 11.4717 33.4532 11.3997L33.3652 10.5677C33.0692 10.6237 32.6692 10.6637 32.3892 10.6637C31.6212 10.6637 31.2132 10.4797 31.1812 9.81571H33.5892C33.6532 9.81571 33.6852 9.79171 33.6852 9.72771V9.36771C33.6852 8.00771 33.0612 7.39171 31.8852 7.39171C30.6852 7.39171 29.9812 8.09571 29.9812 9.47171C29.9812 10.0957 30.1172 10.6557 30.5092 11.0317C30.8452 11.3517 31.3972 11.5357 32.1332 11.5357ZM31.1812 9.07171C31.2052 8.56771 31.4132 8.25571 31.8772 8.25571C32.3332 8.25571 32.5652 8.57571 32.5652 9.07171H31.1812ZM34.4077 11.4237H35.5517V8.47971C35.7997 8.42371 36.0317 8.38371 36.3357 8.38371C36.5197 8.38371 36.7117 8.39971 36.8397 8.41571V7.41571C36.7917 7.40771 36.7037 7.39971 36.6397 7.39971C36.2637 7.39971 35.7437 7.54371 35.4397 7.82371L35.3997 7.50371H34.4077V11.4237ZM39.1625 11.5357C39.5065 11.5357 39.9065 11.4957 40.1625 11.4397L40.1225 10.6317C39.9865 10.6477 39.7305 10.6797 39.5705 10.6797C39.1065 10.6797 39.0185 10.5197 39.0185 10.0797V8.24771H40.0345V7.50371H39.0185V6.46371C38.6505 6.46371 38.2185 6.52771 37.8745 6.63171V7.50371L37.2105 7.62371V8.24771H37.8745V10.2397C37.8745 11.1037 38.1865 11.5357 39.1625 11.5357ZM41.9734 11.5357C42.3894 11.5357 42.8134 11.3997 43.1494 11.1837L43.2454 11.4237H44.1494V8.87971C44.1494 8.40771 44.0454 8.07171 43.8454 7.83971C43.5734 7.51971 43.0374 7.39171 42.4374 7.39171C41.9654 7.39171 41.4454 7.45571 41.0454 7.53571L41.1014 8.37571C41.3734 8.31971 41.8294 8.27171 42.1974 8.27171C42.5094 8.27171 42.7254 8.31171 42.8614 8.43171C42.9574 8.51971 43.0054 8.65571 43.0054 8.87171V8.99971H42.3814C41.6534 8.99971 41.2214 9.09571 40.9414 9.35971C40.7174 9.57571 40.5974 9.89571 40.5974 10.2477C40.5974 11.0077 41.0774 11.5357 41.9734 11.5357ZM42.3014 10.6637C41.8854 10.6637 41.7414 10.4877 41.7414 10.1997C41.7414 10.0557 41.7814 9.94371 41.8534 9.87171C41.9574 9.76771 42.1254 9.73571 42.3974 9.73571H43.0054V10.5437C42.8214 10.5997 42.5174 10.6637 42.3014 10.6637ZM46.5083 11.4237H47.7803L48.4283 10.2477L49.2443 11.4237H50.5803L49.1723 9.43971L50.5243 7.50371H49.2763L48.6363 8.68771L47.7883 7.50371H46.4843L47.9003 9.49571L46.5083 11.4237ZM54.483 11.5357C55.315 11.5357 55.899 11.3437 56.259 10.9677C56.515 10.7037 56.643 10.3357 56.643 9.91171C56.643 9.19971 56.299 8.76771 55.723 8.55971C56.203 8.31971 56.451 7.91971 56.451 7.35171C56.451 6.89571 56.307 6.57571 56.075 6.34371C55.739 6.00771 55.155 5.84771 54.467 5.84771C54.043 5.84771 53.579 5.88771 53.211 5.96771V6.81571C53.531 6.76771 53.931 6.73571 54.283 6.73571C54.715 6.73571 54.987 6.79971 55.147 6.94371C55.275 7.05571 55.331 7.23171 55.331 7.43971C55.331 7.70371 55.243 7.88771 55.115 7.99971C54.923 8.16771 54.667 8.23171 54.163 8.23171H53.971V9.03171H54.123C54.683 9.03171 54.987 9.07971 55.187 9.22371C55.355 9.34371 55.459 9.53571 55.459 9.82371C55.459 10.1197 55.355 10.3277 55.163 10.4557C54.971 10.5837 54.707 10.6397 54.259 10.6397C53.859 10.6397 53.483 10.5997 53.163 10.5437V11.4077C53.531 11.4877 54.011 11.5357 54.483 11.5357ZM59.5327 11.4237H60.6767V8.47171C60.8687 8.39971 61.1567 8.34371 61.3567 8.34371C61.5647 8.34371 61.7327 8.37571 61.8367 8.47171C61.9167 8.55171 61.9567 8.66371 61.9567 8.86371V11.4237H63.1007V8.72771C63.1007 8.63171 63.0927 8.53571 63.0847 8.44771C63.2767 8.39171 63.5567 8.34371 63.7487 8.34371C63.9807 8.34371 64.1407 8.37571 64.2447 8.47171C64.3247 8.55171 64.3647 8.66371 64.3647 8.86371V11.4237H65.5087V8.72771C65.5087 8.27171 65.4127 7.92771 65.1727 7.69571C64.9567 7.47971 64.5727 7.39171 64.2287 7.39171C63.8047 7.39171 63.3007 7.51171 62.8607 7.80771C62.6607 7.52771 62.3007 7.39171 61.8207 7.39171C61.4127 7.39171 60.9727 7.50371 60.5487 7.78371L60.5247 7.50371H59.5327V11.4237ZM68.3988 11.5357C68.8868 11.5357 69.3428 11.4717 69.7188 11.3997L69.6308 10.5677C69.3348 10.6237 68.9348 10.6637 68.6548 10.6637C67.8868 10.6637 67.4788 10.4797 67.4468 9.81571H69.8548C69.9188 9.81571 69.9508 9.79171 69.9508 9.72771V9.36771C69.9508 8.00771 69.3268 7.39171 68.1508 7.39171C66.9508 7.39171 66.2468 8.09571 66.2468 9.47171C66.2468 10.0957 66.3828 10.6557 66.7748 11.0317C67.1108 11.3517 67.6628 11.5357 68.3988 11.5357ZM67.4468 9.07171C67.4708 8.56771 67.6788 8.25571 68.1428 8.25571C68.5988 8.25571 68.8308 8.57571 68.8308 9.07171H67.4468ZM71.9454 11.5357C73.1214 11.5357 73.7134 11.0637 73.7134 10.2477C73.7134 8.62371 71.5694 9.25571 71.5694 8.59171C71.5694 8.36771 71.7934 8.27171 72.2014 8.27171C72.5214 8.27171 73.0014 8.33571 73.4094 8.44771L73.4974 7.60771C73.0734 7.46371 72.5854 7.39171 72.1934 7.39171C71.0174 7.39171 70.4894 7.92771 70.4894 8.65571C70.4894 10.2797 72.6254 9.59971 72.6254 10.2957C72.6254 10.5757 72.3534 10.6557 71.9214 10.6557C71.4974 10.6557 70.9534 10.5677 70.6574 10.4717L70.5694 11.3197C70.8814 11.4317 71.4814 11.5357 71.9454 11.5357ZM76.4222 11.5357C76.9102 11.5357 77.3662 11.4717 77.7422 11.3997L77.6542 10.5677C77.3582 10.6237 76.9582 10.6637 76.6782 10.6637C75.9102 10.6637 75.5022 10.4797 75.4702 9.81571H77.8782C77.9422 9.81571 77.9742 9.79171 77.9742 9.72771V9.36771C77.9742 8.00771 77.3502 7.39171 76.1742 7.39171C74.9742 7.39171 74.2702 8.09571 74.2702 9.47171C74.2702 10.0957 74.4062 10.6557 74.7982 11.0317C75.1342 11.3517 75.6862 11.5357 76.4222 11.5357ZM75.4702 9.07171C75.4942 8.56771 75.7022 8.25571 76.1662 8.25571C76.6222 8.25571 76.8542 8.57571 76.8542 9.07171H75.4702ZM79.9688 11.5357C81.1448 11.5357 81.7368 11.0637 81.7368 10.2477C81.7368 8.62371 79.5928 9.25571 79.5928 8.59171C79.5928 8.36771 79.8168 8.27171 80.2248 8.27171C80.5448 8.27171 81.0248 8.33571 81.4328 8.44771L81.5208 7.60771C81.0968 7.46371 80.6088 7.39171 80.2168 7.39171C79.0408 7.39171 78.5128 7.92771 78.5128 8.65571C78.5128 10.2797 80.6488 9.59971 80.6488 10.2957C80.6488 10.5757 80.3768 10.6557 79.9448 10.6557C79.5208 10.6557 78.9768 10.5677 78.6808 10.4717L78.5928 11.3197C78.9048 11.4317 79.5048 11.5357 79.9688 11.5357Z" fill="#3C7521"/>
<path d="M101 77L101 103.933C101 106.179 99.1791 108 96.9329 108L4.0671 108C1.8209 108 4.13711e-07 106.179 3.81863e-07 103.933L0 77L101 77Z" fill="#3C7521"/>
<path d="M27.933 101.343C29.165 101.343 30.075 101.049 30.649 100.461C31.153 99.9569 31.419 99.2429 31.419 98.3469C31.419 97.4789 31.167 96.8069 30.691 96.3169C30.117 95.7289 29.277 95.4769 27.835 95.4769H27.107L27.233 92.4949H30.831V91.5709H26.253L26.071 95.6029C26.057 95.9109 26.057 96.0089 26.057 96.1209C26.057 96.2189 26.071 96.3449 26.099 96.4149H27.667C28.717 96.4149 29.347 96.5549 29.725 96.9329C30.047 97.2549 30.201 97.7729 30.201 98.3749C30.201 99.0609 30.005 99.5509 29.627 99.8729C29.221 100.209 28.661 100.363 27.709 100.363C27.275 100.363 26.435 100.293 25.931 100.209V101.119C26.435 101.245 27.275 101.343 27.933 101.343ZM36.3016 101.343C38.6816 101.343 39.5916 99.4949 39.5916 96.3729C39.5916 93.2509 38.6816 91.3889 36.3016 91.3889C33.9216 91.3889 33.0116 93.2509 33.0116 96.3729C33.0116 99.4949 33.9216 101.343 36.3016 101.343ZM36.3016 100.349C34.7476 100.349 34.2296 99.0469 34.2296 96.3729C34.2296 93.6989 34.7476 92.3828 36.3016 92.3828C37.8556 92.3828 38.3736 93.6989 38.3736 96.3729C38.3736 99.0469 37.8556 100.349 36.3016 100.349ZM44.1817 101.147H45.2877V93.9649L48.0457 99.1169H49.0817L51.8677 94.0209V101.147H53.0437V91.5709H51.9797L48.6057 97.8709L45.2737 91.5709H44.1817V101.147ZM58.3052 101.343C60.0132 101.343 60.9792 100.181 60.9792 97.6889C60.9792 95.2249 59.9852 94.0909 58.3192 94.0909C57.6472 94.0909 56.9052 94.3289 56.3452 94.6369V91.1369H55.1832V101.147H56.1212L56.1772 100.685C56.7232 101.063 57.5632 101.343 58.3052 101.343ZM58.0392 100.377C57.4792 100.377 56.8072 100.167 56.3452 99.8869V95.4769C56.8072 95.2529 57.4792 95.0849 58.0112 95.0849C59.2292 95.0849 59.7612 95.8409 59.7612 97.6889C59.7612 99.6769 59.2012 100.377 58.0392 100.377ZM62.5797 104.297H63.7417V100.825C64.2457 101.147 64.9877 101.343 65.7017 101.343C67.3397 101.343 68.3757 100.265 68.3757 97.6889C68.3757 95.5049 67.5217 94.0909 65.7437 94.0909C65.1137 94.0909 64.3157 94.3149 63.6017 94.7909L63.5457 94.2869H62.5797V104.297ZM65.4077 100.377C64.8197 100.377 64.1477 100.195 63.7417 99.9569V95.5469C64.2737 95.2669 64.9597 95.0849 65.4917 95.0849C66.6397 95.0849 67.1577 95.9249 67.1577 97.6749C67.1577 99.6349 66.6537 100.377 65.4077 100.377ZM71.7822 101.343C73.4342 101.343 74.5542 100.699 74.5542 99.2429C74.5542 96.7929 70.7322 97.5209 70.7322 95.9809C70.7322 95.3369 71.2502 95.0149 72.2302 95.0149C72.7902 95.0149 73.4202 95.0989 74.0362 95.2389L74.1342 94.3849C73.5882 94.2169 72.8182 94.0909 72.1322 94.0909C70.6762 94.0909 69.6402 94.7349 69.6402 96.0649C69.6402 98.5849 73.4622 97.7869 73.4622 99.3269C73.4622 100.027 72.8602 100.405 71.7402 100.405C71.1382 100.405 70.3822 100.307 69.8222 100.153L69.7662 101.049C70.2842 101.217 71.1242 101.343 71.7822 101.343Z" fill="#BDE4A4"/>
<path d="M43.7073 88.0193H44.7993V86.3673H45.5693C46.1993 86.3673 46.6333 86.2203 46.9133 85.9053C47.1513 85.6393 47.2703 85.2543 47.2703 84.7433C47.2703 84.2323 47.1443 83.8613 46.8853 83.6233C46.5773 83.3363 46.1013 83.2313 45.3523 83.2313H43.7073V88.0193ZM44.7993 85.5483V84.0223H45.3103C45.6463 84.0223 45.8493 84.0713 45.9823 84.1903C46.1083 84.3093 46.1643 84.4983 46.1643 84.7573C46.1643 85.0373 46.1013 85.2403 45.9753 85.3663C45.8353 85.4993 45.6883 85.5483 45.3383 85.5483H44.7993ZM48.0343 88.0193H49.0353V83.0143H48.0343V88.0193ZM50.9572 88.1173C51.3212 88.1173 51.6922 87.9983 51.9862 87.8093L52.0702 88.0193H52.8612V85.7933C52.8612 85.3803 52.7702 85.0863 52.5952 84.8833C52.3572 84.6033 51.8882 84.4913 51.3632 84.4913C50.9502 84.4913 50.4952 84.5473 50.1452 84.6173L50.1942 85.3523C50.4322 85.3033 50.8312 85.2613 51.1532 85.2613C51.4262 85.2613 51.6152 85.2963 51.7342 85.4013C51.8182 85.4783 51.8602 85.5973 51.8602 85.7863V85.8983H51.3142C50.6772 85.8983 50.2992 85.9823 50.0542 86.2133C49.8582 86.4023 49.7532 86.6823 49.7532 86.9903C49.7532 87.6553 50.1732 88.1173 50.9572 88.1173ZM51.2442 87.3543C50.8802 87.3543 50.7542 87.2003 50.7542 86.9483C50.7542 86.8223 50.7892 86.7243 50.8522 86.6613C50.9432 86.5703 51.0902 86.5423 51.3282 86.5423H51.8602V87.2493C51.6992 87.2983 51.4332 87.3543 51.2442 87.3543ZM53.7519 88.0193H54.7529V85.4363C54.9139 85.3733 55.2149 85.3243 55.4039 85.3243C55.6069 85.3243 55.7469 85.3523 55.8379 85.4363C55.9079 85.5063 55.9429 85.6043 55.9429 85.7793V88.0193H56.9439V85.6603C56.9439 85.2613 56.8599 84.9603 56.6499 84.7573C56.4609 84.5683 56.1249 84.4913 55.8239 84.4913C55.4599 84.4913 55.0189 84.5893 54.6409 84.8343L54.6199 84.5893H53.7519V88.0193Z" fill="#BDE4A4"/>
<path d="M101 42L101 77L4.96241e-07 77L0 42L101 42Z" fill="#5CB615"/>
<path d="M18.8058 64.5892H24.8058V63.5992H20.1708L22.6308 60.7042C24.1758 58.8892 24.6258 58.0642 24.6258 56.8342C24.6258 55.9792 24.3408 55.3192 23.8458 54.8842C23.2608 54.3592 22.3608 54.1342 21.2958 54.1342C20.5008 54.1342 19.6758 54.2392 18.9558 54.4192V55.3942C19.6758 55.2442 20.5008 55.1692 21.1158 55.1692C22.5108 55.1692 23.3208 55.6192 23.3208 56.8942C23.3208 57.8392 22.8858 58.6342 21.7008 60.0892L19.3458 62.9692C18.8508 63.5692 18.7458 63.8392 18.7458 64.2442C18.7458 64.3492 18.7758 64.4992 18.8058 64.5892ZM30.1422 64.7992C32.6922 64.7992 33.6672 62.8192 33.6672 59.4742C33.6672 56.1292 32.6922 54.1342 30.1422 54.1342C27.5922 54.1342 26.6172 56.1292 26.6172 59.4742C26.6172 62.8192 27.5922 64.7992 30.1422 64.7992ZM30.1422 63.7342C28.4772 63.7342 27.9222 62.3392 27.9222 59.4742C27.9222 56.6092 28.4772 55.1992 30.1422 55.1992C31.8072 55.1992 32.3622 56.6092 32.3622 59.4742C32.3622 62.3392 31.8072 63.7342 30.1422 63.7342ZM38.4186 64.7992C40.9686 64.7992 41.9436 62.8192 41.9436 59.4742C41.9436 56.1292 40.9686 54.1342 38.4186 54.1342C35.8686 54.1342 34.8936 56.1292 34.8936 59.4742C34.8936 62.8192 35.8686 64.7992 38.4186 64.7992ZM38.4186 63.7342C36.7536 63.7342 36.1986 62.3392 36.1986 59.4742C36.1986 56.6092 36.7536 55.1992 38.4186 55.1992C40.0836 55.1992 40.6386 56.6092 40.6386 59.4742C40.6386 62.3392 40.0836 63.7342 38.4186 63.7342ZM46.8615 64.5892H48.0465V56.8942L51.0015 62.4142H52.1115L55.0965 56.9542V64.5892H56.3565V54.3292H55.2165L51.6015 61.0792L48.0315 54.3292H46.8615V64.5892ZM61.9939 64.7992C63.8239 64.7992 64.8589 63.5542 64.8589 60.8842C64.8589 58.2442 63.7939 57.0292 62.0089 57.0292C61.2889 57.0292 60.4939 57.2842 59.8939 57.6142V53.8642H58.6489V64.5892H59.6539L59.7139 64.0942C60.2989 64.4992 61.1989 64.7992 61.9939 64.7992ZM61.7089 63.7642C61.1089 63.7642 60.3889 63.5392 59.8939 63.2392V58.5142C60.3889 58.2742 61.1089 58.0942 61.6789 58.0942C62.9839 58.0942 63.5539 58.9042 63.5539 60.8842C63.5539 63.0142 62.9539 63.7642 61.7089 63.7642ZM66.5737 67.9642H67.8187V64.2442C68.3587 64.5892 69.1537 64.7992 69.9187 64.7992C71.6737 64.7992 72.7837 63.6442 72.7837 60.8842C72.7837 58.5442 71.8687 57.0292 69.9637 57.0292C69.2887 57.0292 68.4337 57.2692 67.6687 57.7792L67.6087 57.2392H66.5737V67.9642ZM69.6037 63.7642C68.9737 63.7642 68.2537 63.5692 67.8187 63.3142V58.5892C68.3887 58.2892 69.1237 58.0942 69.6937 58.0942C70.9237 58.0942 71.4787 58.9942 71.4787 60.8692C71.4787 62.9692 70.9387 63.7642 69.6037 63.7642ZM76.4335 64.7992C78.2035 64.7992 79.4035 64.1092 79.4035 62.5492C79.4035 59.9242 75.3085 60.7042 75.3085 59.0542C75.3085 58.3642 75.8635 58.0192 76.9135 58.0192C77.5135 58.0192 78.1885 58.1092 78.8485 58.2592L78.9535 57.3442C78.3685 57.1642 77.5435 57.0292 76.8085 57.0292C75.2485 57.0292 74.1385 57.7192 74.1385 59.1442C74.1385 61.8442 78.2335 60.9892 78.2335 62.6392C78.2335 63.3892 77.5885 63.7942 76.3885 63.7942C75.7435 63.7942 74.9335 63.6892 74.3335 63.5242L74.2735 64.4842C74.8285 64.6642 75.7285 64.7992 76.4335 64.7992Z" fill="white"/>
<path d="M32.7208 74H33.4568L34.3368 72.52L35.3208 74H36.0728L34.7608 72.04L36.0568 70.08H35.3288L34.4488 71.576L33.4488 70.08H32.7048L34.0248 72.064L32.7208 74ZM39.6411 74.112C40.3131 74.112 40.7931 73.968 41.1371 73.688C41.4651 73.416 41.6491 73.016 41.6491 72.496C41.6491 71.808 41.2651 71.352 40.6651 71.144C41.1451 70.96 41.4891 70.552 41.4891 69.904C41.4891 69.456 41.3451 69.104 41.0891 68.856C40.7931 68.568 40.3211 68.424 39.6811 68.424C39.3371 68.424 38.9051 68.464 38.5531 68.544V69.064C38.8891 69.008 39.2491 68.976 39.5531 68.976C40.0331 68.976 40.3371 69.048 40.5451 69.224C40.7211 69.376 40.8171 69.624 40.8171 69.936C40.8171 70.656 40.3531 70.96 39.5611 70.96H39.4251V71.456H39.5691C40.0891 71.456 40.4491 71.536 40.6811 71.752C40.8571 71.92 40.9531 72.192 40.9531 72.488C40.9531 72.848 40.8411 73.128 40.6011 73.304C40.3771 73.472 40.0651 73.552 39.5531 73.552C39.2011 73.552 38.7691 73.512 38.4651 73.448V73.976C38.7851 74.056 39.2251 74.112 39.6411 74.112ZM44.472 74H45.136V70.808C45.456 70.656 45.824 70.552 46.16 70.552C46.432 70.552 46.64 70.616 46.776 70.752C46.912 70.888 46.968 71.08 46.968 71.416V74H47.632V71.336C47.632 71.136 47.608 70.96 47.576 70.816C47.92 70.648 48.312 70.552 48.632 70.552C48.904 70.552 49.112 70.616 49.248 70.752C49.384 70.888 49.44 71.08 49.44 71.416V74H50.104V71.336C50.104 70.848 49.992 70.528 49.776 70.312C49.552 70.08 49.216 69.968 48.792 69.968C48.352 69.968 47.872 70.112 47.384 70.408C47.16 70.112 46.816 69.968 46.32 69.968C45.888 69.968 45.464 70.112 45.056 70.368L45.024 70.08H44.472V74ZM52.9104 74.112C53.2704 74.112 53.7344 74.056 54.0704 73.96L54.0064 73.464C53.7024 73.528 53.3184 73.568 53.0384 73.568C52.5424 73.568 52.2464 73.464 52.0384 73.272C51.8064 73.056 51.6944 72.704 51.6944 72.272H54.2224C54.2864 72.272 54.3184 72.248 54.3184 72.184V72.032C54.3184 70.744 53.7904 69.968 52.6944 69.968C51.6944 69.968 50.9984 70.648 50.9984 72.048C50.9984 72.752 51.1584 73.288 51.5104 73.64C51.8304 73.96 52.3024 74.112 52.9104 74.112ZM51.6944 71.784C51.7024 70.992 52.0304 70.504 52.6944 70.504C53.3504 70.504 53.6384 71.032 53.6624 71.784H51.6944ZM56.2852 74.112C57.2292 74.112 57.8692 73.744 57.8692 72.912C57.8692 71.512 55.6852 71.928 55.6852 71.048C55.6852 70.68 55.9812 70.496 56.5412 70.496C56.8612 70.496 57.2212 70.544 57.5732 70.624L57.6292 70.136C57.3172 70.04 56.8772 69.968 56.4852 69.968C55.6532 69.968 55.0612 70.336 55.0612 71.096C55.0612 72.536 57.2452 72.08 57.2452 72.96C57.2452 73.36 56.9012 73.576 56.2612 73.576C55.9172 73.576 55.4852 73.52 55.1652 73.432L55.1332 73.944C55.4292 74.04 55.9092 74.112 56.2852 74.112ZM60.5119 74.112C60.8719 74.112 61.3359 74.056 61.6719 73.96L61.6079 73.464C61.3039 73.528 60.9199 73.568 60.6399 73.568C60.1439 73.568 59.8479 73.464 59.6399 73.272C59.4079 73.056 59.2959 72.704 59.2959 72.272H61.8239C61.8879 72.272 61.9199 72.248 61.9199 72.184V72.032C61.9199 70.744 61.3919 69.968 60.2959 69.968C59.2959 69.968 58.5999 70.648 58.5999 72.048C58.5999 72.752 58.7599 73.288 59.1119 73.64C59.4319 73.96 59.9039 74.112 60.5119 74.112ZM59.2959 71.784C59.3039 70.992 59.6319 70.504 60.2959 70.504C60.9519 70.504 61.2399 71.032 61.2639 71.784H59.2959ZM63.8868 74.112C64.8308 74.112 65.4708 73.744 65.4708 72.912C65.4708 71.512 63.2868 71.928 63.2868 71.048C63.2868 70.68 63.5828 70.496 64.1428 70.496C64.4628 70.496 64.8228 70.544 65.1748 70.624L65.2308 70.136C64.9188 70.04 64.4788 69.968 64.0868 69.968C63.2548 69.968 62.6628 70.336 62.6628 71.096C62.6628 72.536 64.8468 72.08 64.8468 72.96C64.8468 73.36 64.5028 73.576 63.8628 73.576C63.5188 73.576 63.0868 73.52 62.7668 73.432L62.7348 73.944C63.0308 74.04 63.5108 74.112 63.8868 74.112Z" fill="white"/>
<path d="M45.7548 50.9999H47.6988C48.5468 50.9999 49.0828 50.8639 49.4348 50.5519C49.7308 50.2879 49.8908 49.9039 49.8908 49.3759C49.8908 48.6559 49.4108 48.1599 48.7308 48.0639C49.2348 47.8079 49.4988 47.4319 49.4988 46.8719C49.4988 46.4719 49.3628 46.1519 49.1148 45.9359C48.7948 45.6559 48.3148 45.5279 47.5388 45.5279H45.7548V50.9999ZM47.0028 47.7039V46.4319H47.4588C47.7948 46.4319 47.9868 46.4719 48.1068 46.5919C48.2108 46.6959 48.2588 46.8479 48.2588 47.0479C48.2588 47.2719 48.2028 47.4319 48.0988 47.5359C47.9628 47.6639 47.7708 47.7039 47.4268 47.7039H47.0028ZM47.0028 50.0959V48.6079H47.5148C47.9628 48.6079 48.2188 48.6479 48.3868 48.7919C48.5308 48.9119 48.5948 49.1039 48.5948 49.3999C48.5948 49.6239 48.5308 49.7839 48.4188 49.8959C48.2668 50.0479 47.9788 50.0959 47.5148 50.0959H47.0028ZM52.4817 51.1119C53.8417 51.1119 54.4737 50.2959 54.4737 49.0399C54.4737 47.7839 53.8417 46.9679 52.4817 46.9679C51.1217 46.9679 50.4897 47.7839 50.4897 49.0399C50.4897 50.2959 51.1217 51.1119 52.4817 51.1119ZM52.4817 50.2399C51.9057 50.2399 51.6817 49.8479 51.6817 49.0399C51.6817 48.2319 51.9057 47.8399 52.4817 47.8399C53.0577 47.8399 53.2817 48.2319 53.2817 49.0399C53.2817 49.8479 53.0577 50.2399 52.4817 50.2399ZM55.2366 50.9999H56.3806V48.0479C56.5646 47.9759 56.9086 47.9199 57.1246 47.9199C57.3566 47.9199 57.5166 47.9519 57.6206 48.0479C57.7006 48.1279 57.7406 48.2399 57.7406 48.4399V50.9999H58.8846V48.3039C58.8846 47.8479 58.7886 47.5039 58.5486 47.2719C58.3326 47.0559 57.9486 46.9679 57.6046 46.9679C57.1886 46.9679 56.6846 47.0799 56.2526 47.3599L56.2286 47.0799H55.2366V50.9999ZM61.6145 51.1119C62.9745 51.1119 63.6065 50.2959 63.6065 49.0399C63.6065 47.7839 62.9745 46.9679 61.6145 46.9679C60.2545 46.9679 59.6225 47.7839 59.6225 49.0399C59.6225 50.2959 60.2545 51.1119 61.6145 51.1119ZM61.6145 50.2399C61.0385 50.2399 60.8145 49.8479 60.8145 49.0399C60.8145 48.2319 61.0385 47.8399 61.6145 47.8399C62.1905 47.8399 62.4145 48.2319 62.4145 49.0399C62.4145 49.8479 62.1905 50.2399 61.6145 50.2399Z" fill="white"/>
<path d="M39.4955 51.0819H40.8115V49.1219H42.7715V47.8059H40.8115V45.8459H39.4955V47.8059H37.5355V49.1219H39.4955V51.0819Z" fill="white"/>
</svg>
