<svg width="382" height="126" viewBox="0 0 382 126" fill="none" xmlns="http://www.w3.org/2000/svg">
<path d="M13.7374 36.504C15.7534 36.504 18.4534 36.18 19.9294 35.748L19.3534 31.644C17.9134 31.932 16.0054 32.148 14.8174 32.148C12.0454 32.148 10.4974 31.608 9.4174 30.384C8.1934 29.016 7.6534 26.568 7.6534 23.652C7.6534 18.756 8.8774 15.264 14.1694 15.264C15.7174 15.264 17.5534 15.588 19.4614 16.128L20.1814 12.024C18.5974 11.376 15.8614 10.908 13.7374 10.908C5.3134 10.908 1.8214 16.092 1.8214 23.796C1.8214 28.08 2.7214 31.284 4.8094 33.516C6.6454 35.46 9.3814 36.504 13.7374 36.504ZM32.8486 36.504C40.3726 36.504 43.7566 32.04 43.7566 23.724C43.7566 15.408 40.3726 10.908 32.8486 10.908C25.3246 10.908 21.9406 15.408 21.9406 23.724C21.9406 32.04 25.3246 36.504 32.8486 36.504ZM32.8486 32.112C29.2126 32.112 27.7726 29.664 27.7726 23.724C27.7726 17.784 29.2126 15.3 32.8486 15.3C36.4846 15.3 37.9246 17.784 37.9246 23.724C37.9246 29.664 36.4846 32.112 32.8486 32.112ZM46.971 36H51.903V21.06L63.207 36H67.707V11.376H62.775V27.144L51.111 11.376H46.971V36ZM84.4197 36H90.0357V15.444H97.4877L97.9197 11.376H76.7877V15.444H84.4197V36ZM109.67 36.504C112.838 36.504 115.61 35.604 117.23 34.056C119.03 32.364 119.642 29.844 119.642 26.712V11.376H114.674V27C114.674 28.908 114.35 30.204 113.486 31.068C112.73 31.86 111.542 32.22 109.922 32.22C108.302 32.22 107.078 31.824 106.322 31.032C105.458 30.168 105.134 28.836 105.134 26.964V11.376H99.5541V26.964C99.5541 30.492 100.31 32.544 101.93 34.128C103.586 35.748 106.25 36.504 109.67 36.504ZM136.164 36H141.78V15.444H149.232L149.664 11.376H128.532V15.444H136.164V36ZM151.514 36H157.13V27.072H160.226L164.762 36H171.098L165.77 26.316C168.542 25.02 169.946 22.356 169.946 19.008C169.946 16.416 169.154 14.544 167.894 13.356C166.274 11.844 163.934 11.376 159.974 11.376H151.514V36ZM157.13 23.004V15.444H159.65C161.486 15.444 162.674 15.66 163.394 16.344C163.97 16.92 164.258 17.82 164.258 19.08C164.258 20.448 163.934 21.528 163.214 22.14C162.494 22.752 161.486 23.004 159.614 23.004H157.13ZM173.886 8.676L181.194 3.744L178.674 0.323998L172.086 6.444L173.886 8.676ZM173.85 36H179.466V11.376H173.85V36ZM193.636 36.504C201.16 36.504 204.544 32.04 204.544 23.724C204.544 15.408 201.16 10.908 193.636 10.908C186.112 10.908 182.728 15.408 182.728 23.724C182.728 32.04 186.112 36.504 193.636 36.504ZM193.636 32.112C190 32.112 188.56 29.664 188.56 23.724C188.56 17.784 190 15.3 193.636 15.3C197.272 15.3 198.712 17.784 198.712 23.724C198.712 29.664 197.272 32.112 193.636 32.112ZM214.765 36H219.481V21.672L224.737 30.384H229.057L234.169 21.816V36H239.317V11.376H234.997L226.969 25.128L219.193 11.376H214.765V36ZM253.432 36.504C260.956 36.504 264.34 32.04 264.34 23.724C264.34 15.408 260.956 10.908 253.432 10.908C245.908 10.908 242.524 15.408 242.524 23.724C242.524 32.04 245.908 36.504 253.432 36.504ZM253.432 32.112C249.796 32.112 248.356 29.664 248.356 23.724C248.356 17.784 249.796 15.3 253.432 15.3C257.068 15.3 258.508 17.784 258.508 23.724C258.508 29.664 257.068 32.112 253.432 32.112ZM273.538 36H279.406L287.578 11.376H282.106L276.742 29.232L270.982 11.376H264.97L273.538 36ZM289.679 36H295.295V11.376H289.679V36ZM306.873 36.504C310.401 36.504 312.741 35.784 314.469 34.164C315.765 32.94 316.521 31.176 316.521 28.98C316.521 19.368 303.957 22.68 303.957 17.856C303.957 16.308 304.929 15.228 307.953 15.228C309.681 15.228 311.841 15.552 313.857 16.092L314.721 11.916C312.813 11.268 310.221 10.908 307.845 10.908C302.589 10.908 298.665 13.104 298.665 18.108C298.665 27.792 311.229 24.444 311.229 29.052C311.229 31.32 309.681 32.184 306.369 32.184C304.569 32.184 301.725 31.716 299.565 30.96L298.701 35.244C301.185 36.108 303.741 36.504 306.873 36.504ZM324.665 36H330.281V15.444H337.733L338.165 11.376H317.033V15.444H324.665V36ZM336.02 36H341.384L343.292 29.808H351.284L353.336 36H359.348L350.456 11.376H344.264L336.02 36ZM344.588 25.74L347.144 17.532H347.216L349.916 25.74H344.588ZM361.119 36H366.735V27.072H369.831L374.367 36H380.703L375.375 26.316C378.147 25.02 379.551 22.356 379.551 19.008C379.551 16.416 378.759 14.544 377.499 13.356C375.879 11.844 373.539 11.376 369.579 11.376H361.119V36ZM366.735 23.004V15.444H369.255C371.091 15.444 372.279 15.66 372.999 16.344C373.575 16.92 373.863 17.82 373.863 19.08C373.863 20.448 373.539 21.528 372.819 22.14C372.099 22.752 371.091 23.004 369.219 23.004H366.735Z" fill="#019DF4"/>
<path d="M73.5371 63.0753C74.5031 63.0753 75.7421 62.6972 76.5821 62.1512L76.7081 62.7812H78.1361V47.7662H76.3931V52.9322C75.5741 52.4702 74.5451 52.1972 73.6631 52.1972C70.9751 52.1972 69.4001 54.2972 69.4001 57.6992C69.4001 61.2692 70.9121 63.0753 73.5371 63.0753ZM74.0201 61.6472C72.1721 61.6472 71.2271 60.4292 71.2271 57.7202C71.2271 55.3052 71.9201 53.6672 74.0201 53.6672C74.7131 53.6672 75.6371 53.8772 76.3931 54.1712V61.0382C75.6581 61.3953 74.7551 61.6472 74.0201 61.6472ZM81.9428 50.5382H82.0478C82.6778 50.5382 83.0768 50.2232 83.0768 49.4252V49.3832C83.0768 48.5852 82.6778 48.2702 82.0478 48.2702H81.9428C81.3128 48.2702 80.9138 48.5852 80.9138 49.3832V49.4252C80.9138 50.2232 81.3128 50.5382 81.9428 50.5382ZM81.1238 62.7812H82.8668V52.4912H81.1238V62.7812ZM88.5486 63.0753C91.0266 63.0753 92.7066 62.1092 92.7066 59.9252C92.7066 56.2502 86.9736 57.3422 86.9736 55.0322C86.9736 54.0662 87.7506 53.5832 89.2206 53.5832C90.0606 53.5832 91.0056 53.7092 91.9296 53.9192L92.0766 52.6382C91.2576 52.3862 90.1026 52.1972 89.0736 52.1972C86.8896 52.1972 85.3356 53.1632 85.3356 55.1582C85.3356 58.9382 91.0686 57.7412 91.0686 60.0512C91.0686 61.1012 90.1656 61.6682 88.4856 61.6682C87.5826 61.6682 86.4486 61.5212 85.6086 61.2902L85.5246 62.6342C86.3016 62.8863 87.5616 63.0753 88.5486 63.0753ZM95.8637 62.7812H97.6067V53.7722H100.316V52.4912H97.6067V51.0632C97.6067 50.1182 97.7117 49.6142 98.0267 49.2782C98.3207 48.9632 98.8037 48.8162 99.5597 48.8162C99.9797 48.8162 100.61 48.8582 101.03 48.9002V47.5772C100.526 47.4722 99.7907 47.4092 99.3077 47.4092C98.0897 47.4092 97.1867 47.7242 96.6197 48.3752C96.1157 48.9632 95.8637 49.8242 95.8637 51.1052V52.5122L93.9947 52.7852V53.7722H95.8637V62.7812ZM101.877 62.7812H103.62V54.4652C104.355 54.0032 105.216 53.7722 106.119 53.7722C106.413 53.7722 106.791 53.7932 107.022 53.8142V52.2602C106.791 52.2182 106.539 52.1972 106.35 52.1972C105.447 52.1972 104.418 52.5542 103.431 53.3732L103.326 52.4912H101.877V62.7812ZM112.149 63.0753C113.346 63.0753 114.585 62.6762 115.656 62.0252L115.74 62.7812H117.189V52.4912H115.446V60.8702C114.606 61.2692 113.535 61.5422 112.611 61.5422C111.855 61.5422 111.309 61.3742 110.952 61.0172C110.595 60.6602 110.448 60.1562 110.448 59.2742V52.4912H108.705V59.4842C108.705 60.7652 108.999 61.6052 109.566 62.1722C110.154 62.7812 111.036 63.0753 112.149 63.0753ZM123.699 63.0753C124.455 63.0753 125.274 62.9493 125.82 62.8023L125.736 61.5212C125.232 61.6262 124.539 61.6892 124.182 61.6892C123.447 61.6892 123.09 61.5422 122.859 61.2902C122.565 60.9752 122.502 60.4712 122.502 59.4842V53.7722H125.211V52.4912H122.502V49.7612C121.956 49.7612 121.263 49.9082 120.759 50.0762V52.5122L118.89 52.7852V53.7722H120.759V59.7152C120.759 60.9962 120.906 61.6892 121.41 62.2772C121.872 62.8023 122.691 63.0753 123.699 63.0753ZM130.76 63.0753C131.999 63.0753 133.091 62.6762 133.994 62.0883L134.099 62.7812H135.506V55.9352C135.506 54.5912 135.254 53.7722 134.603 53.1422C133.952 52.5332 132.923 52.1972 131.39 52.1972C130.403 52.1972 129.227 52.3232 128.261 52.5542L128.324 53.8982C129.332 53.7302 130.319 53.6462 131.096 53.6462C132.125 53.6462 132.797 53.8352 133.238 54.2552C133.616 54.6332 133.763 55.1582 133.763 55.9982V56.6492H131.621C130.13 56.6492 128.912 56.9222 128.135 57.6362C127.589 58.1402 127.253 58.8962 127.253 59.8622C127.253 60.8282 127.568 61.5632 128.072 62.0883C128.702 62.7392 129.647 63.0753 130.76 63.0753ZM131.138 61.6682C129.794 61.6682 129.017 61.0592 129.017 59.8202C129.017 59.1902 129.227 58.7492 129.584 58.4552C130.067 58.0772 130.802 57.9302 131.873 57.9302H133.763V60.9962C133.007 61.3742 131.978 61.6682 131.138 61.6682ZM142.54 62.7812H145.543V47.7662H142.54V62.7812ZM152.821 63.0753C156.391 63.0753 158.05 60.9332 158.05 57.6362C158.05 54.3392 156.391 52.1972 152.821 52.1972C149.251 52.1972 147.592 54.3392 147.592 57.6362C147.592 60.9332 149.251 63.0753 152.821 63.0753ZM152.821 60.7862C151.309 60.7862 150.721 59.7572 150.721 57.6362C150.721 55.5152 151.309 54.4862 152.821 54.4862C154.333 54.4862 154.921 55.5152 154.921 57.6362C154.921 59.7572 154.333 60.7862 152.821 60.7862ZM164.769 62.7812H167.772V55.0322C168.276 54.8432 169.032 54.6962 169.557 54.6962C170.103 54.6962 170.544 54.7802 170.817 55.0322C171.027 55.2422 171.132 55.5362 171.132 56.0612V62.7812H174.135V55.7042C174.135 55.4522 174.114 55.2002 174.093 54.9692C174.597 54.8222 175.332 54.6962 175.836 54.6962C176.445 54.6962 176.865 54.7802 177.138 55.0322C177.348 55.2422 177.453 55.5362 177.453 56.0612V62.7812H180.456V55.7042C180.456 54.5072 180.204 53.6042 179.574 52.9952C179.007 52.4282 177.999 52.1972 177.096 52.1972C175.983 52.1972 174.66 52.5122 173.505 53.2892C172.98 52.5542 172.035 52.1972 170.775 52.1972C169.704 52.1972 168.549 52.4912 167.436 53.2262L167.373 52.4912H164.769V62.7812ZM188.043 63.0753C189.324 63.0753 190.521 62.9073 191.508 62.7182L191.277 60.5342C190.5 60.6812 189.45 60.7862 188.715 60.7862C186.699 60.7862 185.628 60.3032 185.544 58.5602H191.865C192.033 58.5602 192.117 58.4972 192.117 58.3292V57.3843C192.117 53.8142 190.479 52.1972 187.392 52.1972C184.242 52.1972 182.394 54.0452 182.394 57.6572C182.394 59.2952 182.751 60.7652 183.78 61.7522C184.662 62.5922 186.111 63.0753 188.043 63.0753ZM185.544 56.6073C185.607 55.2842 186.153 54.4652 187.371 54.4652C188.568 54.4652 189.177 55.3052 189.177 56.6073H185.544ZM195.504 50.7692H195.651C196.68 50.7692 197.226 50.3702 197.226 49.3412V49.0682C197.226 48.0392 196.68 47.6192 195.651 47.6192H195.504C194.475 47.6192 193.929 48.0392 193.929 49.0682V49.3412C193.929 50.3702 194.475 50.7692 195.504 50.7692ZM192.312 67.7583C196.05 67.7583 197.079 65.9313 197.079 62.2982V52.4912H194.076V63.3693C194.076 64.1043 193.971 64.6713 193.593 65.0283C193.278 65.3433 192.585 65.5113 191.85 65.5113C191.514 65.5113 191.157 65.4903 190.884 65.4693L191.178 67.7163C191.535 67.7373 191.913 67.7583 192.312 67.7583ZM204.357 63.0753C207.927 63.0753 209.586 60.9332 209.586 57.6362C209.586 54.3392 207.927 52.1972 204.357 52.1972C200.787 52.1972 199.128 54.3392 199.128 57.6362C199.128 60.9332 200.787 63.0753 204.357 63.0753ZM204.357 60.7862C202.845 60.7862 202.257 59.7572 202.257 57.6362C202.257 55.5152 202.845 54.4862 204.357 54.4862C205.869 54.4862 206.457 55.5152 206.457 57.6362C206.457 59.7572 205.869 60.7862 204.357 60.7862ZM211.589 62.7812H214.592V55.0532C215.243 54.9062 215.852 54.8012 216.65 54.8012C217.133 54.8012 217.637 54.8432 217.973 54.8852V52.2602C217.847 52.2392 217.616 52.2182 217.448 52.2182C216.461 52.2182 215.096 52.5962 214.298 53.3312L214.193 52.4912H211.589V62.7812ZM227.643 63.0753C228.903 63.0753 230.016 62.6342 230.898 62.0462L230.961 62.7812H233.565V47.7662H230.562V52.9532C229.764 52.4702 228.735 52.1972 227.832 52.1972C225.375 52.1972 223.758 54.2342 223.758 57.6572C223.758 59.6732 224.22 61.2482 225.186 62.1932C225.774 62.7602 226.635 63.0753 227.643 63.0753ZM228.777 60.7232C227.412 60.7232 226.908 60.0302 226.908 57.7412C226.908 55.2632 227.727 54.5702 229.134 54.5702C229.512 54.5702 230.1 54.6542 230.562 54.8012V60.3662C230.037 60.5762 229.26 60.7232 228.777 60.7232ZM241.199 63.0753C242.48 63.0753 243.677 62.9073 244.664 62.7182L244.433 60.5342C243.656 60.6812 242.606 60.7862 241.871 60.7862C239.855 60.7862 238.784 60.3032 238.7 58.5602H245.021C245.189 58.5602 245.273 58.4972 245.273 58.3292V57.3843C245.273 53.8142 243.635 52.1972 240.548 52.1972C237.398 52.1972 235.55 54.0452 235.55 57.6572C235.55 59.2952 235.907 60.7652 236.936 61.7522C237.818 62.5922 239.267 63.0753 241.199 63.0753ZM238.7 56.6073C238.763 55.2842 239.309 54.4652 240.527 54.4652C241.724 54.4652 242.333 55.3052 242.333 56.6073H238.7ZM247.233 62.7812H250.236V47.7662H247.233V62.7812ZM258.324 62.7812H261.327V54.4442H263.763V52.4912H261.327V51.2522C261.327 50.5172 261.432 50.2232 261.621 50.0342C261.894 49.7612 262.314 49.6562 263.028 49.6562C263.469 49.6562 264.015 49.7192 264.435 49.7822V47.6402C263.721 47.4932 263.028 47.4092 262.251 47.4092C260.823 47.4092 259.752 47.7662 259.185 48.3542C258.576 48.9842 258.324 49.8242 258.324 51.0842V52.5122L256.56 52.8272V54.4442H258.324V62.7812ZM268.307 51.0422L272.57 48.1652L271.1 46.1702L267.257 49.7402L268.307 51.0422ZM268.37 63.0543C269.42 63.0543 270.701 62.7812 271.814 62.0883L271.898 62.7812H274.502V52.4912H271.499V60.2612C270.995 60.4292 270.155 60.5552 269.63 60.5552C269.021 60.5552 268.601 60.4712 268.328 60.2192C268.118 60.0093 268.013 59.6522 268.013 59.1272V52.4912H265.01V59.5472C265.01 60.7442 265.262 61.6472 265.892 62.2562C266.459 62.8233 267.467 63.0543 268.37 63.0543ZM281.061 63.0753C281.964 63.0753 283.014 62.9703 283.686 62.8233L283.581 60.7022C283.224 60.7442 282.552 60.8282 282.132 60.8282C280.914 60.8282 280.683 60.4082 280.683 59.2532V54.4442H283.35V52.4912H280.683V49.7612C279.717 49.7612 278.583 49.9292 277.68 50.2022V52.4912L275.937 52.8062V54.4442H277.68V59.6732C277.68 61.9412 278.499 63.0753 281.061 63.0753ZM291.149 63.0753C292.43 63.0753 293.354 62.6972 294.068 61.8782C294.824 61.0172 295.223 59.4422 295.223 57.5942C295.223 53.6042 293.627 52.1972 291.296 52.1972C290.309 52.1972 289.175 52.4702 288.461 52.8902V47.7662H285.458V62.7812H287.936L288.083 62.1302C288.944 62.6972 290.078 63.0753 291.149 63.0753ZM290.246 60.7232C289.658 60.7232 288.944 60.4922 288.461 60.2192V54.8852C288.944 54.6962 289.595 54.6122 290.246 54.6122C291.506 54.6122 292.073 55.1792 292.073 57.6362C292.073 59.9462 291.611 60.7232 290.246 60.7232ZM301.913 63.0753C305.483 63.0753 307.142 60.9332 307.142 57.6362C307.142 54.3392 305.483 52.1972 301.913 52.1972C298.343 52.1972 296.684 54.3392 296.684 57.6362C296.684 60.9332 298.343 63.0753 301.913 63.0753ZM301.913 60.7862C300.401 60.7862 299.813 59.7572 299.813 57.6362C299.813 55.5152 300.401 54.4862 301.913 54.4862C303.425 54.4862 304.013 55.5152 304.013 57.6362C304.013 59.7572 303.425 60.7862 301.913 60.7862ZM309.207 62.7812H312.21V47.7662H309.207V62.7812Z" fill="#0B2739"/>
<path d="M185.904 125.967L83.7474 125.967C81.6777 125.967 79.9998 124.289 79.9998 122.219L79.9998 80.7476C79.9998 78.6778 81.6777 77 83.7474 77L185.904 77L185.904 125.967Z" fill="#E63780"/>
<path d="M185.904 77H297.741C299.81 77 301.488 78.6779 301.488 80.7476V122.219C301.488 124.289 299.81 125.967 297.741 125.967H185.904V77Z" fill="#FBC7DE"/>
<path fill-rule="evenodd" clip-rule="evenodd" d="M216.138 100.953C216.138 101.177 215.99 101.346 215.943 101.36H207.723V97.4565L215.913 97.4535C215.979 97.4772 216.138 97.6604 216.138 97.8643V100.953V100.953ZM214.58 110.537H207.726V102.673H214.776V110.129C214.773 110.353 214.625 110.522 214.58 110.537ZM199.374 110.129V102.673H206.373V110.537H199.584C199.522 110.519 199.374 110.353 199.374 110.129V110.129ZM198.073 97.8614C198.073 97.6575 198.23 97.4742 198.268 97.4535H206.376V101.357H198.28C198.218 101.334 198.076 101.171 198.076 100.95V97.8614H198.073ZM201.886 93.2541C202.267 92.6837 202.714 92.4 203.219 92.4C203.547 92.4 203.905 92.5212 204.283 92.7606C205.052 93.2452 205.835 94.9238 206.213 95.9877C205.066 96.0793 203.154 96.0675 202.394 95.5858C201.913 95.2814 201.623 94.9297 201.54 94.5456C201.455 94.1555 201.573 93.721 201.886 93.2541V93.2541ZM209.866 92.7576C210.83 92.1488 211.637 92.3143 212.263 93.2511C212.577 93.721 212.695 94.1525 212.609 94.5396C212.526 94.9238 212.237 95.2755 211.755 95.5799C210.992 96.0616 209.08 96.0734 207.933 95.9818C208.315 94.9209 209.098 93.2452 209.866 92.7576V92.7576ZM215.946 96.1414H213.162C213.555 95.7484 213.827 95.3021 213.933 94.8145C214.093 94.0845 213.907 93.2984 213.398 92.536C212.361 90.9845 210.726 90.6476 209.13 91.6583C208.258 92.2109 207.555 93.4462 207.076 94.5249C206.6 93.4462 205.894 92.2079 205.022 91.6583C203.426 90.6476 201.792 90.9845 200.754 92.536C200.246 93.2984 200.06 94.0845 200.219 94.8145C200.326 95.3021 200.597 95.7484 200.988 96.1414H198.268C197.459 96.1414 196.723 96.963 196.723 97.8643V100.953C196.723 101.792 197.299 102.51 198.023 102.646V110.129C198.023 111.063 198.732 111.852 199.569 111.852H214.58C215.417 111.852 216.126 111.063 216.126 110.129V102.652C216.883 102.545 217.492 101.816 217.492 100.95V97.8614C217.492 96.96 216.756 96.1414 215.946 96.1414Z" fill="#922859"/>
<path d="M229.711 114.021C231.163 114.021 233.176 113.731 234.435 113.343V106.587H229.576V108.755H231.434V111.543C230.97 111.621 230.311 111.679 229.827 111.679C228.55 111.679 227.756 111.291 227.272 110.614C226.691 109.801 226.498 108.581 226.498 107.091C226.498 104.206 227.601 102.619 230.273 102.619C231.318 102.619 232.46 102.832 233.409 103.103L233.796 100.896C232.944 100.528 231.376 100.257 230.06 100.257C225.549 100.257 223.361 103.064 223.361 107.207C223.361 111.408 224.968 114.021 229.711 114.021ZM236.911 113.75H239.931V108.949H241.596L244.035 113.75H247.442L244.577 108.542C246.067 107.846 246.822 106.413 246.822 104.613C246.822 103.219 246.397 102.212 245.719 101.573C244.848 100.76 243.59 100.509 241.46 100.509H236.911V113.75ZM239.931 106.761V102.696H241.286C242.273 102.696 242.912 102.812 243.299 103.18C243.609 103.49 243.764 103.974 243.764 104.651C243.764 105.387 243.59 105.968 243.202 106.297C242.815 106.626 242.273 106.761 241.266 106.761H239.931ZM248.128 113.75H251.012L252.038 110.42H256.336L257.44 113.75H260.673L255.891 100.509H252.561L248.128 113.75ZM252.735 108.233L254.11 103.819H254.149L255.601 108.233H252.735ZM264.184 113.75H267.204V102.696H271.211L271.444 100.509H260.08V102.696H264.184V113.75ZM273.058 113.75H276.078V100.509H273.058V113.75ZM282.885 114.021C284.782 114.021 286.041 113.634 286.97 112.763C287.667 112.104 288.073 111.156 288.073 109.975C288.073 104.806 281.317 106.587 281.317 103.993C281.317 103.161 281.84 102.58 283.466 102.58C284.395 102.58 285.557 102.754 286.641 103.045L287.105 100.799C286.079 100.45 284.686 100.257 283.408 100.257C280.581 100.257 278.471 101.438 278.471 104.129C278.471 109.336 285.228 107.536 285.228 110.014C285.228 111.233 284.395 111.698 282.614 111.698C281.646 111.698 280.117 111.446 278.955 111.04L278.491 113.343C279.826 113.808 281.201 114.021 282.885 114.021Z" fill="#922859"/>
<path d="M227.842 97.3015H228.957V88.7335H227.842V97.3015ZM230.908 97.3015H231.948V92.3035C232.449 92.0655 233.113 91.9027 233.664 91.9027C234.115 91.9027 234.44 92.0029 234.653 92.2158C234.866 92.4288 234.954 92.7294 234.954 93.2555V97.3015H235.994V93.1302C235.994 92.3661 235.818 91.8651 235.48 91.5269C235.129 91.1636 234.603 90.9882 233.939 90.9882C233.225 90.9882 232.461 91.2262 231.822 91.6146L231.772 91.1636H230.908V97.3015ZM239.338 97.4769C240.816 97.4769 241.818 96.9007 241.818 95.5979C241.818 93.4058 238.398 94.0572 238.398 92.6793C238.398 92.1031 238.862 91.815 239.738 91.815C240.239 91.815 240.803 91.8901 241.354 92.0154L241.442 91.2513C240.953 91.101 240.265 90.9882 239.651 90.9882C238.348 90.9882 237.421 91.5645 237.421 92.7545C237.421 95.0092 240.841 94.2952 240.841 95.6731C240.841 96.2994 240.302 96.6376 239.3 96.6376C238.761 96.6376 238.085 96.5499 237.584 96.4121L237.534 97.2138C237.997 97.3641 238.749 97.4769 239.338 97.4769ZM245.417 97.4769C245.868 97.4769 246.357 97.4017 246.682 97.314L246.632 96.5499C246.331 96.6126 245.918 96.6501 245.705 96.6501C245.267 96.6501 245.054 96.5625 244.916 96.4121C244.741 96.2242 244.703 95.9236 244.703 95.3349V91.9277H246.319V91.1636H244.703V89.5352C244.377 89.5352 243.964 89.6229 243.663 89.7231V91.1761L242.549 91.339V91.9277H243.663V95.4727C243.663 96.2368 243.751 96.6501 244.052 97.0009C244.327 97.314 244.816 97.4769 245.417 97.4769ZM249.629 97.4769C250.368 97.4769 251.019 97.2389 251.558 96.8881L251.621 97.3015H252.46V93.2179C252.46 92.4162 252.309 91.9277 251.921 91.5519C251.533 91.1887 250.919 90.9882 250.005 90.9882C249.416 90.9882 248.714 91.0634 248.138 91.2012L248.176 92.0029C248.777 91.9027 249.366 91.8526 249.829 91.8526C250.443 91.8526 250.844 91.9653 251.107 92.2158C251.332 92.4413 251.42 92.7545 251.42 93.2555V93.6438H250.142C249.253 93.6438 248.527 93.8067 248.063 94.2326C247.737 94.5332 247.537 94.9841 247.537 95.5604C247.537 96.1366 247.725 96.575 248.025 96.8881C248.401 97.2765 248.965 97.4769 249.629 97.4769ZM249.854 96.6376C249.053 96.6376 248.589 96.2744 248.589 95.5353C248.589 95.1595 248.714 94.8965 248.927 94.7211C249.215 94.4956 249.654 94.4079 250.293 94.4079H251.42V96.2368C250.969 96.4622 250.355 96.6376 249.854 96.6376ZM254.2 97.3015H255.239V88.3452H254.2V97.3015ZM258.767 97.4769C259.506 97.4769 260.157 97.2389 260.696 96.8881L260.758 97.3015H261.598V93.2179C261.598 92.4162 261.447 91.9277 261.059 91.5519C260.671 91.1887 260.057 90.9882 259.143 90.9882C258.554 90.9882 257.852 91.0634 257.276 91.2012L257.314 92.0029C257.915 91.9027 258.504 91.8526 258.967 91.8526C259.581 91.8526 259.982 91.9653 260.245 92.2158C260.47 92.4413 260.558 92.7545 260.558 93.2555V93.6438H259.28C258.391 93.6438 257.664 93.8067 257.201 94.2326C256.875 94.5332 256.675 94.9841 256.675 95.5604C256.675 96.1366 256.863 96.575 257.163 96.8881C257.539 97.2765 258.103 97.4769 258.767 97.4769ZM258.992 96.6376C258.191 96.6376 257.727 96.2744 257.727 95.5353C257.727 95.1595 257.852 94.8965 258.065 94.7211C258.353 94.4956 258.792 94.4079 259.431 94.4079H260.558V96.2368C260.107 96.4622 259.493 96.6376 258.992 96.6376ZM266.043 97.4769C266.494 97.4769 267.183 97.3892 267.584 97.2765L267.509 96.4998C267.195 96.5625 266.644 96.6251 266.231 96.6251C265.479 96.6251 264.953 96.4497 264.603 96.0489C264.264 95.6606 264.089 95.0718 264.089 94.2952C264.089 92.6668 264.74 91.8275 266.181 91.8275C266.569 91.8275 267.07 91.9027 267.459 91.9778L267.521 91.1761C267.095 91.0634 266.532 90.9882 266.056 90.9882C265.116 90.9882 264.327 91.2638 263.801 91.8275C263.275 92.3912 262.999 93.2305 262.999 94.3077C262.999 95.385 263.3 96.1867 263.813 96.7128C264.314 97.2264 265.041 97.4769 266.043 97.4769ZM269.478 89.9987H269.54C269.916 89.9987 270.154 89.8108 270.154 89.3348V89.3097C270.154 88.8337 269.916 88.6458 269.54 88.6458H269.478C269.102 88.6458 268.864 88.8337 268.864 89.3097V89.3348C268.864 89.8108 269.102 89.9987 269.478 89.9987ZM268.989 97.3015H270.029V91.1636H268.989V97.3015ZM273.268 90.174L275.66 88.4579L275.072 87.6688L272.867 89.6229L273.268 90.174ZM274.27 97.4769C276.174 97.4769 277.063 96.2744 277.063 94.2326C277.063 92.1908 276.174 90.9882 274.27 90.9882C272.366 90.9882 271.476 92.1908 271.476 94.2326C271.476 96.2744 272.366 97.4769 274.27 97.4769ZM274.27 96.6251C273.017 96.6251 272.566 95.7984 272.566 94.2326C272.566 92.6668 273.017 91.84 274.27 91.84C275.522 91.84 275.973 92.6668 275.973 94.2326C275.973 95.7984 275.522 96.6251 274.27 96.6251ZM278.493 97.3015H279.533V92.3035C280.034 92.0655 280.698 91.9027 281.249 91.9027C281.7 91.9027 282.026 92.0029 282.239 92.2158C282.452 92.4288 282.539 92.7294 282.539 93.2555V97.3015H283.579V93.1302C283.579 92.3661 283.404 91.8651 283.066 91.5269C282.715 91.1636 282.189 90.9882 281.525 90.9882C280.811 90.9882 280.047 91.2262 279.408 91.6146L279.358 91.1636H278.493V97.3015Z" fill="#922859"/>
<path d="M106.591 110.221C108.823 110.221 110.303 109.765 111.396 108.74C112.216 107.966 112.695 106.85 112.695 105.461C112.695 99.3797 104.746 101.475 104.746 98.4232C104.746 97.4438 105.361 96.7606 107.274 96.7606C108.367 96.7606 109.734 96.9656 111.009 97.3072L111.556 94.6653C110.349 94.2553 108.709 94.0276 107.206 94.0276C103.881 94.0276 101.398 95.4169 101.398 98.5826C101.398 104.709 109.347 102.591 109.347 105.506C109.347 106.941 108.367 107.488 106.272 107.488C105.133 107.488 103.334 107.192 101.967 106.713L101.421 109.424C102.992 109.97 104.609 110.221 106.591 110.221ZM113.875 110.221H116.768L123.623 94.0276H120.731L113.875 110.221ZM126.594 109.902H134.725V107.579H132.493V95.6446C132.493 94.4831 131.947 94.0959 130.33 94.0959C129.214 94.0959 127.642 94.2325 126.708 94.3692V96.5784H129.236V107.579H126.594V109.902ZM144.828 109.902H148.085V106.326H149.907V103.889H148.085V100.177H144.828V103.889H141.23L144.737 94.3236H141.594L138.36 103.16C137.996 104.163 137.882 104.891 137.882 105.529C137.882 105.825 137.928 106.167 137.973 106.326H144.828V109.902ZM154.157 109.902H157.642L162.015 97.4894C162.288 96.7378 162.379 95.9862 162.379 95.2574C162.379 94.9158 162.334 94.5058 162.22 94.3236H152.062V96.6467H159.327L154.157 109.902Z" fill="white"/>
<path d="M100.124 118.909H100.783V117.022H101.723C102.33 117.022 102.745 116.874 103.018 116.607C103.3 116.326 103.433 115.919 103.433 115.379C103.433 114.912 103.315 114.527 103.063 114.276C102.774 113.98 102.301 113.847 101.575 113.847H100.124V118.909ZM100.783 116.489V114.365H101.523C102.012 114.365 102.323 114.446 102.515 114.639C102.678 114.801 102.752 115.046 102.752 115.394C102.752 115.793 102.656 116.067 102.478 116.237C102.278 116.422 101.96 116.489 101.501 116.489H100.783ZM104.148 118.909H104.763V115.978C105.022 115.815 105.325 115.734 105.644 115.734C105.747 115.734 105.88 115.741 105.962 115.749V115.201C105.88 115.186 105.792 115.179 105.725 115.179C105.407 115.179 105.044 115.305 104.696 115.593L104.659 115.282H104.148V118.909ZM108.038 119.013C108.371 119.013 108.8 118.961 109.111 118.872L109.052 118.413C108.771 118.473 108.416 118.51 108.156 118.51C107.698 118.51 107.424 118.413 107.231 118.236C107.017 118.036 106.913 117.71 106.913 117.311H109.252C109.311 117.311 109.341 117.288 109.341 117.229V117.089C109.341 115.897 108.852 115.179 107.838 115.179C106.913 115.179 106.269 115.808 106.269 117.103C106.269 117.755 106.417 118.251 106.743 118.576C107.039 118.872 107.475 119.013 108.038 119.013ZM106.913 116.859C106.92 116.126 107.224 115.675 107.838 115.675C108.445 115.675 108.712 116.163 108.734 116.859H106.913ZM111.812 119.013C112.078 119.013 112.486 118.961 112.722 118.895L112.678 118.436C112.493 118.473 112.167 118.51 111.923 118.51C111.479 118.51 111.168 118.406 110.961 118.169C110.761 117.94 110.657 117.592 110.657 117.133C110.657 116.171 111.042 115.675 111.893 115.675C112.123 115.675 112.419 115.719 112.648 115.764L112.685 115.29C112.434 115.223 112.101 115.179 111.819 115.179C111.264 115.179 110.798 115.342 110.487 115.675C110.176 116.008 110.013 116.504 110.013 117.14C110.013 117.777 110.191 118.251 110.494 118.562C110.791 118.865 111.22 119.013 111.812 119.013ZM113.842 114.594H113.879C114.101 114.594 114.241 114.483 114.241 114.202V114.187C114.241 113.906 114.101 113.795 113.879 113.795H113.842C113.619 113.795 113.479 113.906 113.479 114.187V114.202C113.479 114.483 113.619 114.594 113.842 114.594ZM113.553 118.909H114.167V115.282H113.553V118.909ZM116.673 119.013C117.798 119.013 118.324 118.302 118.324 117.096C118.324 115.889 117.798 115.179 116.673 115.179C115.548 115.179 115.023 115.889 115.023 117.096C115.023 118.302 115.548 119.013 116.673 119.013ZM116.673 118.51C115.933 118.51 115.667 118.021 115.667 117.096C115.667 116.171 115.933 115.682 116.673 115.682C117.413 115.682 117.68 116.171 117.68 117.096C117.68 118.021 117.413 118.51 116.673 118.51ZM120.68 118.909H121.294V115.978C121.553 115.815 121.857 115.734 122.175 115.734C122.279 115.734 122.412 115.741 122.493 115.749V115.201C122.412 115.186 122.323 115.179 122.256 115.179C121.938 115.179 121.575 115.305 121.228 115.593L121.191 115.282H120.68V118.909ZM124.569 119.013C124.903 119.013 125.332 118.961 125.643 118.872L125.584 118.413C125.302 118.473 124.947 118.51 124.688 118.51C124.229 118.51 123.955 118.413 123.763 118.236C123.548 118.036 123.444 117.71 123.444 117.311H125.783C125.843 117.311 125.872 117.288 125.872 117.229V117.089C125.872 115.897 125.384 115.179 124.37 115.179C123.444 115.179 122.8 115.808 122.8 117.103C122.8 117.755 122.948 118.251 123.274 118.576C123.57 118.872 124.007 119.013 124.569 119.013ZM123.444 116.859C123.452 116.126 123.755 115.675 124.37 115.675C124.977 115.675 125.243 116.163 125.265 116.859H123.444ZM128.136 120.678C129.365 120.678 129.853 120.271 129.853 119.539C129.853 119.243 129.772 118.991 129.587 118.806C129.35 118.569 128.995 118.465 128.358 118.465H127.662C127.463 118.465 127.366 118.399 127.366 118.243C127.366 118.117 127.455 117.925 127.566 117.799C127.736 117.851 127.922 117.873 128.136 117.873C129.128 117.873 129.594 117.311 129.594 116.526C129.594 116.008 129.387 115.579 128.95 115.356L129.454 114.498C129.335 114.402 129.113 114.298 128.943 114.261L128.506 115.208C128.395 115.194 128.269 115.179 128.136 115.179C127.144 115.179 126.678 115.741 126.678 116.526C126.678 117 126.848 117.385 127.189 117.621C126.93 117.873 126.759 118.169 126.759 118.458C126.759 118.621 126.811 118.754 126.93 118.85C126.678 119.028 126.515 119.339 126.515 119.657C126.515 120.301 127.018 120.678 128.136 120.678ZM128.136 117.385C127.537 117.385 127.263 117.081 127.263 116.526C127.263 115.971 127.537 115.667 128.136 115.667C128.736 115.667 129.01 115.971 129.01 116.526C129.01 117.081 128.736 117.385 128.136 117.385ZM128.195 120.16C127.389 120.16 127.093 119.938 127.093 119.546C127.093 119.354 127.174 119.154 127.307 118.991C127.381 119.006 127.47 119.013 127.574 119.013H128.358C128.721 119.013 128.958 119.057 129.098 119.161C129.217 119.25 129.276 119.383 129.276 119.561C129.276 119.938 128.965 120.16 128.195 120.16ZM131.717 119.013C132.139 119.013 132.575 118.872 132.953 118.643L132.983 118.909H133.493V115.282H132.879V118.236C132.583 118.376 132.205 118.473 131.88 118.473C131.613 118.473 131.421 118.413 131.295 118.288C131.169 118.162 131.117 117.984 131.117 117.673V115.282H130.503V117.747C130.503 118.199 130.607 118.495 130.806 118.695C131.014 118.909 131.324 119.013 131.717 119.013ZM134.537 118.909H135.151V113.617H134.537V118.909ZM137.236 119.013C137.672 119.013 138.057 118.872 138.376 118.665L138.413 118.909H138.909V116.496C138.909 116.023 138.82 115.734 138.59 115.512C138.361 115.297 137.998 115.179 137.458 115.179C137.11 115.179 136.695 115.223 136.355 115.305L136.377 115.778C136.732 115.719 137.08 115.69 137.354 115.69C137.717 115.69 137.954 115.756 138.109 115.904C138.242 116.037 138.294 116.223 138.294 116.519V116.748H137.539C137.014 116.748 136.584 116.844 136.31 117.096C136.118 117.274 136 117.54 136 117.881C136 118.221 136.111 118.48 136.288 118.665C136.51 118.895 136.843 119.013 137.236 119.013ZM137.369 118.517C136.895 118.517 136.621 118.302 136.621 117.866C136.621 117.644 136.695 117.488 136.821 117.385C136.991 117.251 137.25 117.2 137.628 117.2H138.294V118.28C138.028 118.413 137.665 118.517 137.369 118.517ZM139.929 118.909H140.543V115.978C140.803 115.815 141.106 115.734 141.424 115.734C141.528 115.734 141.661 115.741 141.743 115.749V115.201C141.661 115.186 141.572 115.179 141.506 115.179C141.187 115.179 140.825 115.305 140.477 115.593L140.44 115.282H139.929V118.909ZM142.705 116.711H142.756C142.978 116.711 143.126 116.6 143.126 116.311V116.282C143.126 115.993 142.978 115.882 142.756 115.882H142.705C142.482 115.882 142.334 115.993 142.334 116.282V116.311C142.334 116.6 142.482 116.711 142.705 116.711ZM142.705 119.013H142.756C142.978 119.013 143.126 118.902 143.126 118.613V118.584C143.126 118.295 142.978 118.184 142.756 118.184H142.705C142.482 118.184 142.334 118.295 142.334 118.584V118.613C142.334 118.902 142.482 119.013 142.705 119.013ZM146.958 119.013C147.543 119.013 147.994 118.872 148.298 118.584C148.55 118.347 148.698 117.999 148.698 117.555C148.698 115.823 146.092 116.215 146.092 115.06C146.092 114.52 146.514 114.298 147.202 114.298C147.536 114.298 147.928 114.35 148.298 114.446L148.394 113.943C148.046 113.824 147.587 113.75 147.151 113.75C146.144 113.75 145.47 114.209 145.47 115.105C145.47 116.844 148.068 116.348 148.068 117.621C148.068 117.895 147.972 118.095 147.795 118.236C147.595 118.391 147.313 118.465 146.899 118.465C146.492 118.465 146.018 118.376 145.633 118.265L145.522 118.769C145.907 118.924 146.492 119.013 146.958 119.013ZM149.378 119.013H149.978L152.161 113.75H151.562L149.378 119.013ZM154.902 118.909H157.152V118.436H156.382V114.143C156.382 113.876 156.279 113.795 155.961 113.795C155.694 113.795 155.22 113.832 154.917 113.876V114.291H155.775V118.436H154.902V118.909ZM160.17 119.013C161.222 119.013 161.777 118.295 161.777 117.318C161.777 116.319 161.229 115.801 160.355 115.801C159.934 115.801 159.489 115.926 159.134 116.074C159.186 114.883 159.512 114.254 160.511 114.254C160.748 114.254 161.066 114.283 161.288 114.313V113.839C161.044 113.787 160.718 113.75 160.459 113.75C159.867 113.75 159.401 113.928 159.09 114.298C158.69 114.772 158.498 115.549 158.498 116.644C158.498 118.095 158.934 119.013 160.17 119.013ZM160.185 118.51C159.378 118.51 159.127 117.844 159.127 116.785V116.489C159.467 116.378 159.904 116.297 160.23 116.297C160.903 116.297 161.155 116.667 161.155 117.355C161.155 118.058 160.822 118.51 160.185 118.51ZM163.448 118.909H164.121L165.639 114.453C165.705 114.261 165.72 114.15 165.72 114.009C165.72 113.95 165.713 113.884 165.698 113.847H162.656V114.335H165.098L163.448 118.909Z" fill="white"/>
<path d="M144.607 119.641L166.944 114.2" stroke="#FBC7DE" stroke-width="0.572726"/>
<path d="M110.314 89.5549H111.023V87.5222H112.036C112.689 87.5222 113.136 87.3628 113.431 87.0759C113.734 86.7729 113.877 86.3345 113.877 85.7526C113.877 85.2504 113.75 84.8359 113.479 84.5649C113.168 84.246 112.658 84.1026 111.876 84.1026H110.314V89.5549ZM111.023 86.9483V84.6606H111.821C112.347 84.6606 112.681 84.7482 112.889 84.9555C113.064 85.1309 113.144 85.3939 113.144 85.7686C113.144 86.199 113.04 86.494 112.849 86.6773C112.634 86.8766 112.291 86.9483 111.797 86.9483H111.023ZM114.733 89.5549H115.395V83.8554H114.733V89.5549ZM117.64 89.6665C118.11 89.6665 118.525 89.5151 118.867 89.2919L118.907 89.5549H119.441V86.9563C119.441 86.4461 119.346 86.1352 119.098 85.8961C118.851 85.6649 118.461 85.5374 117.879 85.5374C117.504 85.5374 117.058 85.5852 116.691 85.6729L116.715 86.1831C117.098 86.1193 117.472 86.0874 117.767 86.0874C118.158 86.0874 118.413 86.1592 118.58 86.3186C118.724 86.4621 118.78 86.6613 118.78 86.9802V87.2273H117.967C117.401 87.2273 116.938 87.3309 116.643 87.602C116.436 87.7933 116.309 88.0802 116.309 88.4469C116.309 88.8136 116.428 89.0926 116.619 89.2919C116.859 89.539 117.217 89.6665 117.64 89.6665ZM117.783 89.1325C117.273 89.1325 116.978 88.9013 116.978 88.431C116.978 88.1918 117.058 88.0244 117.193 87.9128C117.377 87.7694 117.656 87.7136 118.062 87.7136H118.78V88.8774C118.493 89.0209 118.102 89.1325 117.783 89.1325ZM120.54 89.5549H121.202V86.3744C121.521 86.2229 121.943 86.1193 122.294 86.1193C122.581 86.1193 122.788 86.1831 122.924 86.3186C123.059 86.4541 123.115 86.6454 123.115 86.9802V89.5549H123.777V86.9005C123.777 86.4142 123.665 86.0954 123.45 85.8802C123.227 85.649 122.892 85.5374 122.469 85.5374C122.015 85.5374 121.529 85.6888 121.122 85.936L121.09 85.649H120.54V89.5549ZM127.372 89.5549H128.098L129.732 84.7562C129.803 84.549 129.819 84.4294 129.819 84.2779C129.819 84.2142 129.811 84.1424 129.795 84.1026H126.519V84.6287H129.15L127.372 89.5549ZM132.544 89.6665C133.899 89.6665 134.417 88.6143 134.417 86.8367C134.417 85.0591 133.899 83.9989 132.544 83.9989C131.188 83.9989 130.67 85.0591 130.67 86.8367C130.67 88.6143 131.188 89.6665 132.544 89.6665ZM132.544 89.1006C131.659 89.1006 131.364 88.3592 131.364 86.8367C131.364 85.3142 131.659 84.5649 132.544 84.5649C133.428 84.5649 133.723 85.3142 133.723 86.8367C133.723 88.3592 133.428 89.1006 132.544 89.1006ZM137.03 89.5549H137.66V85.4657L139.23 88.3991H139.82L141.407 85.4975V89.5549H142.076V84.1026H141.47L139.549 87.6896L137.652 84.1026H137.03V89.5549ZM145.072 89.6665C146.044 89.6665 146.595 89.0049 146.595 87.586C146.595 86.1831 146.029 85.5374 145.08 85.5374C144.697 85.5374 144.275 85.6729 143.956 85.8483V83.8554H143.294V89.5549H143.828L143.86 89.2919C144.171 89.5071 144.65 89.6665 145.072 89.6665ZM144.921 89.1165C144.602 89.1165 144.219 88.9969 143.956 88.8375V86.3266C144.219 86.199 144.602 86.1034 144.905 86.1034C145.598 86.1034 145.901 86.5338 145.901 87.586C145.901 88.7179 145.582 89.1165 144.921 89.1165ZM147.506 91.3485H148.167V89.3716C148.454 89.5549 148.877 89.6665 149.283 89.6665C150.216 89.6665 150.806 89.0527 150.806 87.586C150.806 86.3425 150.32 85.5374 149.307 85.5374C148.949 85.5374 148.494 85.6649 148.088 85.936L148.056 85.649H147.506V91.3485ZM149.116 89.1165C148.781 89.1165 148.399 89.0129 148.167 88.8774V86.3664C148.47 86.207 148.861 86.1034 149.164 86.1034C149.817 86.1034 150.112 86.5816 150.112 87.578C150.112 88.694 149.825 89.1165 149.116 89.1165ZM152.745 89.6665C153.686 89.6665 154.324 89.2998 154.324 88.4708C154.324 87.0759 152.148 87.4904 152.148 86.6135C152.148 86.2468 152.443 86.0635 153.001 86.0635C153.319 86.0635 153.678 86.1113 154.029 86.191L154.085 85.7048C153.774 85.6091 153.335 85.5374 152.945 85.5374C152.116 85.5374 151.526 85.9041 151.526 86.6613C151.526 88.0962 153.702 87.6418 153.702 88.5187C153.702 88.9172 153.359 89.1325 152.722 89.1325C152.379 89.1325 151.948 89.0767 151.63 88.989L151.598 89.4991C151.893 89.5948 152.371 89.6665 152.745 89.6665Z" fill="white"/>
</svg>
