<svg width="276" height="112" viewBox="0 0 276 112" fill="none" xmlns="http://www.w3.org/2000/svg">
<path d="M9.97702 26.364C11.433 26.364 13.383 26.13 14.449 25.818L14.033 22.854C12.993 23.062 11.615 23.218 10.757 23.218C8.75502 23.218 7.63702 22.828 6.85702 21.944C5.97302 20.956 5.58302 19.188 5.58302 17.082C5.58302 13.546 6.46702 11.024 10.289 11.024C11.407 11.024 12.733 11.258 14.111 11.648L14.631 8.684C13.487 8.216 11.511 7.878 9.97702 7.878C3.89302 7.878 1.37102 11.622 1.37102 17.186C1.37102 20.28 2.02102 22.594 3.52902 24.206C4.85502 25.61 6.83102 26.364 9.97702 26.364ZM23.7796 26.364C29.2136 26.364 31.6576 23.14 31.6576 17.134C31.6576 11.128 29.2136 7.878 23.7796 7.878C18.3456 7.878 15.9016 11.128 15.9016 17.134C15.9016 23.14 18.3456 26.364 23.7796 26.364ZM23.7796 23.192C21.1536 23.192 20.1136 21.424 20.1136 17.134C20.1136 12.844 21.1536 11.05 23.7796 11.05C26.4056 11.05 27.4456 12.844 27.4456 17.134C27.4456 21.424 26.4056 23.192 23.7796 23.192ZM33.9791 26H37.5411V15.21L45.7051 26H48.9551V8.216H45.3931V19.604L36.9691 8.216H33.9791V26ZM61.0254 26H65.0814V11.154H70.4634L70.7754 8.216H55.5134V11.154H61.0254V26ZM79.2617 26.364C81.5497 26.364 83.5517 25.714 84.7217 24.596C86.0217 23.374 86.4637 21.554 86.4637 19.292V8.216H82.8757V19.5C82.8757 20.878 82.6417 21.814 82.0177 22.438C81.4717 23.01 80.6137 23.27 79.4437 23.27C78.2737 23.27 77.3897 22.984 76.8437 22.412C76.2197 21.788 75.9857 20.826 75.9857 19.474V8.216H71.9557V19.474C71.9557 22.022 72.5017 23.504 73.6717 24.648C74.8677 25.818 76.7917 26.364 79.2617 26.364ZM98.3963 26H102.452V11.154H107.834L108.146 8.216H92.8843V11.154H98.3963V26ZM109.483 26H113.539V19.552H115.775L119.051 26H123.627L119.779 19.006C121.781 18.07 122.795 16.146 122.795 13.728C122.795 11.856 122.223 10.504 121.313 9.646C120.143 8.554 118.453 8.216 115.593 8.216H109.483V26ZM113.539 16.614V11.154H115.359C116.685 11.154 117.543 11.31 118.063 11.804C118.479 12.22 118.687 12.87 118.687 13.78C118.687 14.768 118.453 15.548 117.933 15.99C117.413 16.432 116.685 16.614 115.333 16.614H113.539ZM125.64 6.266L130.918 2.704L129.098 0.233999L124.34 4.654L125.64 6.266ZM125.614 26H129.67V8.216H125.614V26ZM139.904 26.364C145.338 26.364 147.782 23.14 147.782 17.134C147.782 11.128 145.338 7.878 139.904 7.878C134.47 7.878 132.026 11.128 132.026 17.134C132.026 23.14 134.47 26.364 139.904 26.364ZM139.904 23.192C137.278 23.192 136.238 21.424 136.238 17.134C136.238 12.844 137.278 11.05 139.904 11.05C142.53 11.05 143.57 12.844 143.57 17.134C143.57 21.424 142.53 23.192 139.904 23.192ZM155.163 26H158.569V15.652L162.365 21.944H165.485L169.177 15.756V26H172.895V8.216H169.775L163.977 18.148L158.361 8.216H155.163V26ZM183.089 26.364C188.523 26.364 190.967 23.14 190.967 17.134C190.967 11.128 188.523 7.878 183.089 7.878C177.655 7.878 175.211 11.128 175.211 17.134C175.211 23.14 177.655 26.364 183.089 26.364ZM183.089 23.192C180.463 23.192 179.423 21.424 179.423 17.134C179.423 12.844 180.463 11.05 183.089 11.05C185.715 11.05 186.755 12.844 186.755 17.134C186.755 21.424 185.715 23.192 183.089 23.192ZM197.611 26H201.849L207.751 8.216H203.799L199.925 21.112L195.765 8.216H191.423L197.611 26ZM209.268 26H213.324V8.216H209.268V26ZM221.686 26.364C224.234 26.364 225.924 25.844 227.172 24.674C228.108 23.79 228.654 22.516 228.654 20.93C228.654 13.988 219.58 16.38 219.58 12.896C219.58 11.778 220.282 10.998 222.466 10.998C223.714 10.998 225.274 11.232 226.73 11.622L227.354 8.606C225.976 8.138 224.104 7.878 222.388 7.878C218.592 7.878 215.758 9.464 215.758 13.078C215.758 20.072 224.832 17.654 224.832 20.982C224.832 22.62 223.714 23.244 221.322 23.244C220.022 23.244 217.968 22.906 216.408 22.36L215.784 25.454C217.578 26.078 219.424 26.364 221.686 26.364ZM234.536 26H238.592V11.154H243.974L244.286 8.216H229.024V11.154H234.536V26ZM242.736 26H246.61L247.988 21.528H253.76L255.242 26H259.584L253.162 8.216H248.69L242.736 26ZM248.924 18.59L250.77 12.662H250.822L252.772 18.59H248.924ZM260.864 26H264.92V19.552H267.156L270.432 26H275.008L271.16 19.006C273.162 18.07 274.176 16.146 274.176 13.728C274.176 11.856 273.604 10.504 272.694 9.646C271.524 8.554 269.834 8.216 266.974 8.216H260.864V26ZM264.92 16.614V11.154H266.74C268.066 11.154 268.924 11.31 269.444 11.804C269.86 12.22 270.068 12.87 270.068 13.78C270.068 14.768 269.834 15.548 269.314 15.99C268.794 16.432 268.066 16.614 266.714 16.614H264.92Z" fill="#019DF4"/>
<path d="M44.411 48.238C45.193 48.238 46.196 47.932 46.876 47.49L46.978 48H48.134V35.845H46.723V40.027C46.06 39.653 45.227 39.432 44.513 39.432C42.337 39.432 41.062 41.132 41.062 43.886C41.062 46.776 42.286 48.238 44.411 48.238ZM44.802 47.082C43.306 47.082 42.541 46.096 42.541 43.903C42.541 41.948 43.102 40.622 44.802 40.622C45.363 40.622 46.111 40.792 46.723 41.03V46.589C46.128 46.878 45.397 47.082 44.802 47.082ZM51.2156 38.089H51.3006C51.8106 38.089 52.1336 37.834 52.1336 37.188V37.154C52.1336 36.508 51.8106 36.253 51.3006 36.253H51.2156C50.7056 36.253 50.3826 36.508 50.3826 37.154V37.188C50.3826 37.834 50.7056 38.089 51.2156 38.089ZM50.5526 48H51.9636V39.67H50.5526V48ZM56.5632 48.238C58.5692 48.238 59.9292 47.456 59.9292 45.688C59.9292 42.713 55.2882 43.597 55.2882 41.727C55.2882 40.945 55.9172 40.554 57.1072 40.554C57.7872 40.554 58.5522 40.656 59.3002 40.826L59.4192 39.789C58.7562 39.585 57.8212 39.432 56.9882 39.432C55.2202 39.432 53.9622 40.214 53.9622 41.829C53.9622 44.889 58.6032 43.92 58.6032 45.79C58.6032 46.64 57.8722 47.099 56.5122 47.099C55.7812 47.099 54.8632 46.98 54.1832 46.793L54.1152 47.881C54.7442 48.085 55.7642 48.238 56.5632 48.238ZM62.4849 48H63.8959V40.707H66.0889V39.67H63.8959V38.514C63.8959 37.749 63.9809 37.341 64.2359 37.069C64.4739 36.814 64.8649 36.695 65.4769 36.695C65.8169 36.695 66.3269 36.729 66.6669 36.763V35.692C66.2589 35.607 65.6639 35.556 65.2729 35.556C64.2869 35.556 63.5559 35.811 63.0969 36.338C62.6889 36.814 62.4849 37.511 62.4849 38.548V39.687L60.9719 39.908V40.707H62.4849V48ZM67.3526 48H68.7636V41.268C69.3586 40.894 70.0556 40.707 70.7866 40.707C71.0246 40.707 71.3306 40.724 71.5176 40.741V39.483C71.3306 39.449 71.1266 39.432 70.9736 39.432C70.2426 39.432 69.4096 39.721 68.6106 40.384L68.5256 39.67H67.3526V48ZM75.6681 48.238C76.6371 48.238 77.6401 47.915 78.5071 47.388L78.5751 48H79.7481V39.67H78.3371V46.453C77.6571 46.776 76.7901 46.997 76.0421 46.997C75.4301 46.997 74.9881 46.861 74.6991 46.572C74.4101 46.283 74.2911 45.875 74.2911 45.161V39.67H72.8801V45.331C72.8801 46.368 73.1181 47.048 73.5771 47.507C74.0531 48 74.7671 48.238 75.6681 48.238ZM85.018 48.238C85.63 48.238 86.293 48.136 86.735 48.017L86.667 46.98C86.259 47.065 85.698 47.116 85.409 47.116C84.814 47.116 84.525 46.997 84.338 46.793C84.1 46.538 84.049 46.13 84.049 45.331V40.707H86.242V39.67H84.049V37.46C83.607 37.46 83.046 37.579 82.638 37.715V39.687L81.125 39.908V40.707H82.638V45.518C82.638 46.555 82.757 47.116 83.165 47.592C83.539 48.017 84.202 48.238 85.018 48.238ZM90.734 48.238C91.737 48.238 92.621 47.915 93.352 47.439L93.437 48H94.576V42.458C94.576 41.37 94.372 40.707 93.845 40.197C93.318 39.704 92.485 39.432 91.244 39.432C90.445 39.432 89.493 39.534 88.711 39.721L88.762 40.809C89.578 40.673 90.377 40.605 91.006 40.605C91.839 40.605 92.383 40.758 92.74 41.098C93.046 41.404 93.165 41.829 93.165 42.509V43.036H91.431C90.224 43.036 89.238 43.257 88.609 43.835C88.167 44.243 87.895 44.855 87.895 45.637C87.895 46.419 88.15 47.014 88.558 47.439C89.068 47.966 89.833 48.238 90.734 48.238ZM91.04 47.099C89.952 47.099 89.323 46.606 89.323 45.603C89.323 45.093 89.493 44.736 89.782 44.498C90.173 44.192 90.768 44.073 91.635 44.073H93.165V46.555C92.553 46.861 91.72 47.099 91.04 47.099ZM100.271 48H102.702V35.845H100.271V48ZM108.593 48.238C111.483 48.238 112.826 46.504 112.826 43.835C112.826 41.166 111.483 39.432 108.593 39.432C105.703 39.432 104.36 41.166 104.36 43.835C104.36 46.504 105.703 48.238 108.593 48.238ZM108.593 46.385C107.369 46.385 106.893 45.552 106.893 43.835C106.893 42.118 107.369 41.285 108.593 41.285C109.817 41.285 110.293 42.118 110.293 43.835C110.293 45.552 109.817 46.385 108.593 46.385ZM118.266 48H120.697V41.727C121.105 41.574 121.717 41.455 122.142 41.455C122.584 41.455 122.941 41.523 123.162 41.727C123.332 41.897 123.417 42.135 123.417 42.56V48H125.848V42.271C125.848 42.067 125.831 41.863 125.814 41.676C126.222 41.557 126.817 41.455 127.225 41.455C127.718 41.455 128.058 41.523 128.279 41.727C128.449 41.897 128.534 42.135 128.534 42.56V48H130.965V42.271C130.965 41.302 130.761 40.571 130.251 40.078C129.792 39.619 128.976 39.432 128.245 39.432C127.344 39.432 126.273 39.687 125.338 40.316C124.913 39.721 124.148 39.432 123.128 39.432C122.261 39.432 121.326 39.67 120.425 40.265L120.374 39.67H118.266V48ZM137.106 48.238C138.143 48.238 139.112 48.102 139.911 47.949L139.724 46.181C139.095 46.3 138.245 46.385 137.65 46.385C136.018 46.385 135.151 45.994 135.083 44.583H140.2C140.336 44.583 140.404 44.532 140.404 44.396V43.631C140.404 40.741 139.078 39.432 136.579 39.432C134.029 39.432 132.533 40.928 132.533 43.852C132.533 45.178 132.822 46.368 133.655 47.167C134.369 47.847 135.542 48.238 137.106 48.238ZM135.083 43.002C135.134 41.931 135.576 41.268 136.562 41.268C137.531 41.268 138.024 41.948 138.024 43.002H135.083ZM143.146 38.276H143.265C144.098 38.276 144.54 37.953 144.54 37.12V36.899C144.54 36.066 144.098 35.726 143.265 35.726H143.146C142.313 35.726 141.871 36.066 141.871 36.899V37.12C141.871 37.953 142.313 38.276 143.146 38.276ZM140.562 52.029C143.588 52.029 144.421 50.55 144.421 47.609V39.67H141.99V48.476C141.99 49.071 141.905 49.53 141.599 49.819C141.344 50.074 140.783 50.21 140.188 50.21C139.916 50.21 139.627 50.193 139.406 50.176L139.644 51.995C139.933 52.012 140.239 52.029 140.562 52.029ZM150.313 48.238C153.203 48.238 154.546 46.504 154.546 43.835C154.546 41.166 153.203 39.432 150.313 39.432C147.423 39.432 146.08 41.166 146.08 43.835C146.08 46.504 147.423 48.238 150.313 48.238ZM150.313 46.385C149.089 46.385 148.613 45.552 148.613 43.835C148.613 42.118 149.089 41.285 150.313 41.285C151.537 41.285 152.013 42.118 152.013 43.835C152.013 45.552 151.537 46.385 150.313 46.385ZM156.167 48H158.598V41.744C159.125 41.625 159.618 41.54 160.264 41.54C160.655 41.54 161.063 41.574 161.335 41.608V39.483C161.233 39.466 161.046 39.449 160.91 39.449C160.111 39.449 159.006 39.755 158.36 40.35L158.275 39.67H156.167V48ZM169.163 48.238C170.183 48.238 171.084 47.881 171.798 47.405L171.849 48H173.957V35.845H171.526V40.044C170.88 39.653 170.047 39.432 169.316 39.432C167.327 39.432 166.018 41.081 166.018 43.852C166.018 45.484 166.392 46.759 167.174 47.524C167.65 47.983 168.347 48.238 169.163 48.238ZM170.081 46.334C168.976 46.334 168.568 45.773 168.568 43.92C168.568 41.914 169.231 41.353 170.37 41.353C170.676 41.353 171.152 41.421 171.526 41.54V46.045C171.101 46.215 170.472 46.334 170.081 46.334ZM180.137 48.238C181.174 48.238 182.143 48.102 182.942 47.949L182.755 46.181C182.126 46.3 181.276 46.385 180.681 46.385C179.049 46.385 178.182 45.994 178.114 44.583H183.231C183.367 44.583 183.435 44.532 183.435 44.396V43.631C183.435 40.741 182.109 39.432 179.61 39.432C177.06 39.432 175.564 40.928 175.564 43.852C175.564 45.178 175.853 46.368 176.686 47.167C177.4 47.847 178.573 48.238 180.137 48.238ZM178.114 43.002C178.165 41.931 178.607 41.268 179.593 41.268C180.562 41.268 181.055 41.948 181.055 43.002H178.114ZM185.022 48H187.453V35.845H185.022V48ZM194 48H196.431V41.251H198.403V39.67H196.431V38.667C196.431 38.072 196.516 37.834 196.669 37.681C196.89 37.46 197.23 37.375 197.808 37.375C198.165 37.375 198.607 37.426 198.947 37.477V35.743C198.369 35.624 197.808 35.556 197.179 35.556C196.023 35.556 195.156 35.845 194.697 36.321C194.204 36.831 194 37.511 194 38.531V39.687L192.572 39.942V41.251H194V48ZM202.082 38.497L205.533 36.168L204.343 34.553L201.232 37.443L202.082 38.497ZM202.133 48.221C202.983 48.221 204.02 48 204.921 47.439L204.989 48H207.097V39.67H204.666V45.96C204.258 46.096 203.578 46.198 203.153 46.198C202.66 46.198 202.32 46.13 202.099 45.926C201.929 45.756 201.844 45.467 201.844 45.042V39.67H199.413V45.382C199.413 46.351 199.617 47.082 200.127 47.575C200.586 48.034 201.402 48.221 202.133 48.221ZM212.407 48.238C213.138 48.238 213.988 48.153 214.532 48.034L214.447 46.317C214.158 46.351 213.614 46.419 213.274 46.419C212.288 46.419 212.101 46.079 212.101 45.144V41.251H214.26V39.67H212.101V37.46C211.319 37.46 210.401 37.596 209.67 37.817V39.67L208.259 39.925V41.251H209.67V45.484C209.67 47.32 210.333 48.238 212.407 48.238ZM220.573 48.238C221.61 48.238 222.358 47.932 222.936 47.269C223.548 46.572 223.871 45.297 223.871 43.801C223.871 40.571 222.579 39.432 220.692 39.432C219.893 39.432 218.975 39.653 218.397 39.993V35.845H215.966V48H217.972L218.091 47.473C218.788 47.932 219.706 48.238 220.573 48.238ZM219.842 46.334C219.366 46.334 218.788 46.147 218.397 45.926V41.608C218.788 41.455 219.315 41.387 219.842 41.387C220.862 41.387 221.321 41.846 221.321 43.835C221.321 45.705 220.947 46.334 219.842 46.334ZM229.286 48.238C232.176 48.238 233.519 46.504 233.519 43.835C233.519 41.166 232.176 39.432 229.286 39.432C226.396 39.432 225.053 41.166 225.053 43.835C225.053 46.504 226.396 48.238 229.286 48.238ZM229.286 46.385C228.062 46.385 227.586 45.552 227.586 43.835C227.586 42.118 228.062 41.285 229.286 41.285C230.51 41.285 230.986 42.118 230.986 43.835C230.986 45.552 230.51 46.385 229.286 46.385ZM235.192 48H237.623V35.845H235.192V48Z" fill="#0B2739"/>
<path d="M132.904 111.967L30.7474 111.967C28.6777 111.967 26.9998 110.289 26.9998 108.219L26.9998 66.7476C26.9998 64.6778 28.6777 63 30.7474 63L132.904 63L132.904 111.967Z" fill="#E63780"/>
<path d="M132.904 63H244.741C246.81 63 248.488 64.6779 248.488 66.7476V108.219C248.488 110.289 246.81 111.967 244.741 111.967H132.904V63Z" fill="#FBC7DE"/>
<path fill-rule="evenodd" clip-rule="evenodd" d="M163.138 86.9526C163.138 87.1772 162.99 87.3456 162.943 87.3604H154.723V83.4565L162.913 83.4535C162.979 83.4772 163.138 83.6604 163.138 83.8643V86.9526V86.9526ZM161.58 96.5365H154.726V88.6726H161.776V96.1287C161.773 96.3533 161.625 96.5218 161.58 96.5365ZM146.374 96.1287V88.6726H153.373V96.5365H146.584C146.522 96.5188 146.374 96.3533 146.374 96.1287V96.1287ZM145.073 83.8614C145.073 83.6575 145.23 83.4742 145.268 83.4535H153.376V87.3575H145.28C145.218 87.3338 145.076 87.1713 145.076 86.9496V83.8614H145.073ZM148.886 79.2541C149.267 78.6837 149.714 78.4 150.219 78.4C150.547 78.4 150.905 78.5212 151.283 78.7606C152.052 79.2452 152.835 80.9238 153.213 81.9877C152.066 82.0793 150.154 82.0675 149.394 81.5858C148.913 81.2814 148.623 80.9297 148.54 80.5456C148.455 80.1555 148.573 79.721 148.886 79.2541V79.2541ZM156.866 78.7576C157.83 78.1488 158.637 78.3143 159.263 79.2511C159.577 79.721 159.695 80.1525 159.609 80.5396C159.526 80.9238 159.237 81.2755 158.755 81.5799C157.992 82.0616 156.08 82.0734 154.933 81.9818C155.315 80.9209 156.098 79.2452 156.866 78.7576V78.7576ZM162.946 82.1414H160.162C160.555 81.7484 160.827 81.3021 160.933 80.8145C161.093 80.0845 160.907 79.2984 160.398 78.536C159.361 76.9845 157.726 76.6476 156.13 77.6583C155.258 78.2109 154.555 79.4462 154.076 80.5249C153.6 79.4462 152.894 78.2079 152.022 77.6583C150.426 76.6476 148.792 76.9845 147.754 78.536C147.246 79.2984 147.06 80.0845 147.219 80.8145C147.326 81.3021 147.597 81.7484 147.988 82.1414H145.268C144.459 82.1414 143.723 82.963 143.723 83.8643V86.9526C143.723 87.7919 144.299 88.51 145.023 88.646V96.1287C145.023 97.0626 145.732 97.8516 146.569 97.8516H161.58C162.417 97.8516 163.126 97.0626 163.126 96.1287V88.6519C163.883 88.5455 164.492 87.8155 164.492 86.9496V83.8614C164.492 82.96 163.756 82.1414 162.946 82.1414Z" fill="#922859"/>
<path d="M176.711 100.021C178.163 100.021 180.176 99.7306 181.434 99.3435V92.5872H176.575V94.7554H178.434V97.5431C177.969 97.6205 177.311 97.6786 176.827 97.6786C175.549 97.6786 174.755 97.2914 174.271 96.6139C173.691 95.8008 173.497 94.5812 173.497 93.0905C173.497 90.2061 174.601 88.6186 177.272 88.6186C178.317 88.6186 179.46 88.8316 180.408 89.1026L180.795 86.8957C179.944 86.5279 178.376 86.2569 177.059 86.2569C172.549 86.2569 170.361 89.0639 170.361 93.2067C170.361 97.4076 171.968 100.021 176.711 100.021ZM183.91 99.75H186.93V94.949H188.595L191.034 99.75H194.441L191.576 94.5425C193.067 93.8455 193.822 92.413 193.822 90.6126C193.822 89.2188 193.396 88.2121 192.719 87.5733C191.847 86.7602 190.589 86.5085 188.46 86.5085H183.91V99.75ZM186.93 92.7614V88.6961H188.285C189.273 88.6961 189.911 88.8122 190.299 89.18C190.608 89.4898 190.763 89.9738 190.763 90.6513C190.763 91.387 190.589 91.9677 190.202 92.2968C189.815 92.6259 189.273 92.7614 188.266 92.7614H186.93ZM195.127 99.75H198.012L199.038 96.4203H203.336L204.439 99.75H207.672L202.89 86.5085H199.561L195.127 99.75ZM199.735 94.2327L201.109 89.8189H201.148L202.6 94.2327H199.735ZM211.184 99.75H214.204V88.6961H218.211L218.443 86.5085H207.08V88.6961H211.184V99.75ZM220.058 99.75H223.078V86.5085H220.058V99.75ZM229.885 100.021C231.782 100.021 233.04 99.6338 233.969 98.7627C234.666 98.1045 235.073 97.1559 235.073 95.975C235.073 90.8062 228.317 92.5872 228.317 89.9931C228.317 89.1607 228.839 88.5799 230.465 88.5799C231.395 88.5799 232.556 88.7542 233.64 89.0445L234.105 86.7989C233.079 86.4504 231.685 86.2569 230.407 86.2569C227.581 86.2569 225.471 87.4377 225.471 90.1286C225.471 95.3362 232.227 93.5358 232.227 96.0137C232.227 97.2333 231.395 97.698 229.614 97.698C228.646 97.698 227.116 97.4463 225.955 97.0398L225.49 99.3435C226.826 99.8081 228.2 100.021 229.885 100.021Z" fill="#922859"/>
<path d="M174.842 83.3015H175.957V74.7335H174.842V83.3015ZM177.908 83.3015H178.947V78.3035C179.448 78.0655 180.112 77.9027 180.663 77.9027C181.114 77.9027 181.44 78.0029 181.653 78.2158C181.866 78.4288 181.954 78.7294 181.954 79.2555V83.3015H182.993V79.1302C182.993 78.3661 182.818 77.8651 182.48 77.5269C182.129 77.1636 181.603 76.9882 180.939 76.9882C180.225 76.9882 179.461 77.2262 178.822 77.6146L178.772 77.1636H177.908V83.3015ZM186.337 83.4769C187.815 83.4769 188.817 82.9007 188.817 81.5979C188.817 79.4058 185.398 80.0572 185.398 78.6793C185.398 78.1031 185.861 77.815 186.738 77.815C187.239 77.815 187.803 77.8901 188.354 78.0154L188.442 77.2513C187.953 77.101 187.264 76.9882 186.65 76.9882C185.348 76.9882 184.421 77.5645 184.421 78.7545C184.421 81.0092 187.84 80.2952 187.84 81.6731C187.84 82.2994 187.302 82.6376 186.3 82.6376C185.761 82.6376 185.084 82.5499 184.583 82.4121L184.533 83.2138C184.997 83.3641 185.748 83.4769 186.337 83.4769ZM192.417 83.4769C192.868 83.4769 193.356 83.4017 193.682 83.314L193.632 82.5499C193.331 82.6126 192.918 82.6501 192.705 82.6501C192.266 82.6501 192.053 82.5625 191.916 82.4121C191.74 82.2242 191.703 81.9236 191.703 81.3349V77.9277H193.318V77.1636H191.703V75.5352C191.377 75.5352 190.964 75.6229 190.663 75.7231V77.1761L189.548 77.339V77.9277H190.663V81.4727C190.663 82.2368 190.751 82.6501 191.051 83.0009C191.327 83.314 191.815 83.4769 192.417 83.4769ZM196.628 83.4769C197.367 83.4769 198.019 83.2389 198.557 82.8881L198.62 83.3015H199.459V79.2179C199.459 78.4162 199.309 77.9277 198.921 77.5519C198.532 77.1887 197.919 76.9882 197.004 76.9882C196.415 76.9882 195.714 77.0634 195.138 77.2012L195.175 78.0029C195.777 77.9027 196.365 77.8526 196.829 77.8526C197.443 77.8526 197.843 77.9653 198.106 78.2158C198.332 78.4413 198.42 78.7545 198.42 79.2555V79.6438H197.142C196.253 79.6438 195.526 79.8067 195.063 80.2326C194.737 80.5332 194.536 80.9841 194.536 81.5604C194.536 82.1366 194.724 82.575 195.025 82.8881C195.401 83.2765 195.964 83.4769 196.628 83.4769ZM196.854 82.6376C196.052 82.6376 195.589 82.2744 195.589 81.5353C195.589 81.1595 195.714 80.8965 195.927 80.7211C196.215 80.4956 196.653 80.4079 197.292 80.4079H198.42V82.2368C197.969 82.4622 197.355 82.6376 196.854 82.6376ZM201.199 83.3015H202.239V74.3452H201.199V83.3015ZM205.766 83.4769C206.505 83.4769 207.157 83.2389 207.695 82.8881L207.758 83.3015H208.597V79.2179C208.597 78.4162 208.447 77.9277 208.059 77.5519C207.67 77.1887 207.056 76.9882 206.142 76.9882C205.553 76.9882 204.852 77.0634 204.276 77.2012L204.313 78.0029C204.914 77.9027 205.503 77.8526 205.967 77.8526C206.58 77.8526 206.981 77.9653 207.244 78.2158C207.47 78.4413 207.557 78.7545 207.557 79.2555V79.6438H206.28C205.39 79.6438 204.664 79.8067 204.2 80.2326C203.875 80.5332 203.674 80.9841 203.674 81.5604C203.674 82.1366 203.862 82.575 204.163 82.8881C204.539 83.2765 205.102 83.4769 205.766 83.4769ZM205.992 82.6376C205.19 82.6376 204.727 82.2744 204.727 81.5353C204.727 81.1595 204.852 80.8965 205.065 80.7211C205.353 80.4956 205.791 80.4079 206.43 80.4079H207.557V82.2368C207.107 82.4622 206.493 82.6376 205.992 82.6376ZM213.043 83.4769C213.494 83.4769 214.182 83.3892 214.583 83.2765L214.508 82.4998C214.195 82.5625 213.644 82.6251 213.23 82.6251C212.479 82.6251 211.953 82.4497 211.602 82.0489C211.264 81.6606 211.088 81.0718 211.088 80.2952C211.088 78.6668 211.74 77.8275 213.18 77.8275C213.569 77.8275 214.07 77.9027 214.458 77.9778L214.521 77.1761C214.095 77.0634 213.531 76.9882 213.055 76.9882C212.116 76.9882 211.326 77.2638 210.8 77.8275C210.274 78.3912 209.999 79.2305 209.999 80.3077C209.999 81.385 210.299 82.1867 210.813 82.7128C211.314 83.2264 212.04 83.4769 213.043 83.4769ZM216.477 75.9987H216.54C216.916 75.9987 217.154 75.8108 217.154 75.3348V75.3097C217.154 74.8337 216.916 74.6458 216.54 74.6458H216.477C216.101 74.6458 215.863 74.8337 215.863 75.3097V75.3348C215.863 75.8108 216.101 75.9987 216.477 75.9987ZM215.989 83.3015H217.028V77.1636H215.989V83.3015ZM220.267 76.174L222.66 74.4579L222.071 73.6688L219.866 75.6229L220.267 76.174ZM221.269 83.4769C223.173 83.4769 224.063 82.2744 224.063 80.2326C224.063 78.1908 223.173 76.9882 221.269 76.9882C219.365 76.9882 218.476 78.1908 218.476 80.2326C218.476 82.2744 219.365 83.4769 221.269 83.4769ZM221.269 82.6251C220.017 82.6251 219.566 81.7984 219.566 80.2326C219.566 78.6668 220.017 77.84 221.269 77.84C222.522 77.84 222.973 78.6668 222.973 80.2326C222.973 81.7984 222.522 82.6251 221.269 82.6251ZM225.493 83.3015H226.533V78.3035C227.034 78.0655 227.698 77.9027 228.249 77.9027C228.7 77.9027 229.025 78.0029 229.238 78.2158C229.451 78.4288 229.539 78.7294 229.539 79.2555V83.3015H230.579V79.1302C230.579 78.3661 230.403 77.8651 230.065 77.5269C229.714 77.1636 229.188 76.9882 228.524 76.9882C227.81 76.9882 227.046 77.2262 226.407 77.6146L226.357 77.1636H225.493V83.3015Z" fill="#922859"/>
<path d="M53.5913 96.221C55.8232 96.221 57.3036 95.7654 58.3968 94.7406C59.2167 93.9662 59.695 92.8502 59.695 91.4609C59.695 85.38 51.7465 87.4753 51.7465 84.4234C51.7465 83.4441 52.3614 82.7608 54.2745 82.7608C55.3677 82.7608 56.7343 82.9658 58.0097 83.3074L58.5563 80.6655C57.3492 80.2556 55.7094 80.0278 54.2062 80.0278C50.881 80.0278 48.3985 81.4171 48.3985 84.5828C48.3985 90.7094 56.3471 88.5913 56.3471 91.5065C56.3471 92.9413 55.3677 93.4879 53.2724 93.4879C52.1337 93.4879 50.3344 93.1919 48.9679 92.7136L48.4213 95.4238C49.9928 95.9704 51.6098 96.221 53.5913 96.221ZM60.8758 96.221H63.7682L70.6235 80.0278H67.7311L60.8758 96.221ZM73.595 95.9021H81.7257V93.579H79.4938V81.6449C79.4938 80.4833 78.9471 80.0961 77.3301 80.0961C76.2141 80.0961 74.6426 80.2328 73.7089 80.3694V82.5786H76.2369V93.579H73.595V95.9021ZM91.829 95.9021H95.0858V92.3264H96.9078V89.8895H95.0858V86.1771H91.829V89.8895H88.2305L91.7379 80.3239H88.5949L85.3608 89.1607C84.9964 90.1628 84.8826 90.8916 84.8826 91.5293C84.8826 91.8253 84.9281 92.167 84.9737 92.3264H91.829V95.9021ZM101.158 95.9021H104.643L109.015 83.4896C109.289 82.7381 109.38 81.9865 109.38 81.2577C109.38 80.916 109.334 80.5061 109.22 80.3239H99.0626V82.647H106.328L101.158 95.9021Z" fill="white"/>
<path d="M47.1248 104.909H47.7836V103.022H48.7236C49.3306 103.022 49.7451 102.874 50.019 102.607C50.3003 102.326 50.4335 101.919 50.4335 101.379C50.4335 100.912 50.3151 100.527 50.0634 100.276C49.7747 99.9797 49.301 99.8465 48.5756 99.8465H47.1248V104.909ZM47.7836 102.489V100.365H48.5238C49.0123 100.365 49.3232 100.446 49.5156 100.639C49.6785 100.801 49.7525 101.046 49.7525 101.394C49.7525 101.793 49.6563 102.067 49.4786 102.237C49.2788 102.422 48.9605 102.489 48.5016 102.489H47.7836ZM51.1488 104.909H51.7632V101.978C52.0222 101.815 52.3257 101.734 52.644 101.734C52.7476 101.734 52.8809 101.741 52.9623 101.749V101.201C52.8809 101.186 52.792 101.179 52.7254 101.179C52.4071 101.179 52.0444 101.305 51.6966 101.593L51.6595 101.282H51.1488V104.909ZM55.0385 105.013C55.3716 105.013 55.8009 104.961 56.1118 104.872L56.0526 104.413C55.7713 104.473 55.416 104.51 55.157 104.51C54.698 104.51 54.4242 104.413 54.2317 104.236C54.0171 104.036 53.9134 103.71 53.9134 103.311H56.2524C56.3117 103.311 56.3413 103.288 56.3413 103.229V103.089C56.3413 101.897 55.8527 101.179 54.8387 101.179C53.9134 101.179 53.2695 101.808 53.2695 103.103C53.2695 103.755 53.4175 104.251 53.7432 104.576C54.0393 104.872 54.476 105.013 55.0385 105.013ZM53.9134 102.859C53.9208 102.126 54.2243 101.675 54.8387 101.675C55.4456 101.675 55.7121 102.163 55.7343 102.859H53.9134ZM58.8125 105.013C59.0789 105.013 59.486 104.961 59.7229 104.895L59.6785 104.436C59.4934 104.473 59.1678 104.51 58.9235 104.51C58.4794 104.51 58.1685 104.406 57.9612 104.169C57.7614 103.94 57.6578 103.592 57.6578 103.133C57.6578 102.171 58.0427 101.675 58.8939 101.675C59.1233 101.675 59.4194 101.719 59.6489 101.764L59.6859 101.29C59.4342 101.223 59.1011 101.179 58.8199 101.179C58.2647 101.179 57.7984 101.342 57.4875 101.675C57.1766 102.008 57.0138 102.504 57.0138 103.14C57.0138 103.777 57.1914 104.251 57.4949 104.562C57.791 104.865 58.2203 105.013 58.8125 105.013ZM60.842 100.594H60.879C61.1011 100.594 61.2417 100.483 61.2417 100.202V100.187C61.2417 99.9057 61.1011 99.7947 60.879 99.7947H60.842C60.62 99.7947 60.4793 99.9057 60.4793 100.187V100.202C60.4793 100.483 60.62 100.594 60.842 100.594ZM60.5534 104.909H61.1677V101.282H60.5534V104.909ZM63.6737 105.013C64.7988 105.013 65.3244 104.302 65.3244 103.096C65.3244 101.889 64.7988 101.179 63.6737 101.179C62.5486 101.179 62.0231 101.889 62.0231 103.096C62.0231 104.302 62.5486 105.013 63.6737 105.013ZM63.6737 104.51C62.9335 104.51 62.6671 104.021 62.6671 103.096C62.6671 102.171 62.9335 101.682 63.6737 101.682C64.4139 101.682 64.6804 102.171 64.6804 103.096C64.6804 104.021 64.4139 104.51 63.6737 104.51ZM67.6803 104.909H68.2946V101.978C68.5537 101.815 68.8572 101.734 69.1755 101.734C69.2791 101.734 69.4123 101.741 69.4937 101.749V101.201C69.4123 101.186 69.3235 101.179 69.2569 101.179C68.9386 101.179 68.5759 101.305 68.228 101.593L68.191 101.282H67.6803V104.909ZM71.57 105.013C71.9031 105.013 72.3324 104.961 72.6433 104.872L72.584 104.413C72.3028 104.473 71.9475 104.51 71.6884 104.51C71.2295 104.51 70.9556 104.413 70.7632 104.236C70.5485 104.036 70.4449 103.71 70.4449 103.311H72.7839C72.8431 103.311 72.8727 103.288 72.8727 103.229V103.089C72.8727 101.897 72.3842 101.179 71.3701 101.179C70.4449 101.179 69.8009 101.808 69.8009 103.103C69.8009 103.755 69.949 104.251 70.2746 104.576C70.5707 104.872 71.0074 105.013 71.57 105.013ZM70.4449 102.859C70.4523 102.126 70.7558 101.675 71.3701 101.675C71.9771 101.675 72.2435 102.163 72.2658 102.859H70.4449ZM75.1367 106.678C76.3654 106.678 76.8539 106.271 76.8539 105.539C76.8539 105.243 76.7725 104.991 76.5874 104.806C76.3506 104.569 75.9953 104.465 75.3587 104.465H74.6629C74.4631 104.465 74.3669 104.399 74.3669 104.243C74.3669 104.117 74.4557 103.925 74.5667 103.799C74.737 103.851 74.922 103.873 75.1367 103.873C76.1285 103.873 76.5948 103.311 76.5948 102.526C76.5948 102.008 76.3876 101.579 75.9509 101.356L76.4542 100.498C76.3358 100.402 76.1137 100.298 75.9435 100.261L75.5068 101.208C75.3957 101.194 75.2699 101.179 75.1367 101.179C74.1448 101.179 73.6785 101.741 73.6785 102.526C73.6785 103 73.8487 103.385 74.1892 103.621C73.9301 103.873 73.7599 104.169 73.7599 104.458C73.7599 104.621 73.8117 104.754 73.9301 104.85C73.6785 105.028 73.5156 105.339 73.5156 105.657C73.5156 106.301 74.019 106.678 75.1367 106.678ZM75.1367 103.385C74.5371 103.385 74.2632 103.081 74.2632 102.526C74.2632 101.971 74.5371 101.667 75.1367 101.667C75.7362 101.667 76.0101 101.971 76.0101 102.526C76.0101 103.081 75.7362 103.385 75.1367 103.385ZM75.1959 106.16C74.3891 106.16 74.093 105.938 74.093 105.546C74.093 105.354 74.1744 105.154 74.3076 104.991C74.3817 105.006 74.4705 105.013 74.5741 105.013H75.3587C75.7214 105.013 75.9583 105.057 76.0989 105.161C76.2173 105.25 76.2766 105.383 76.2766 105.561C76.2766 105.938 75.9657 106.16 75.1959 106.16ZM78.7173 105.013C79.1392 105.013 79.5759 104.872 79.9534 104.643L79.983 104.909H80.4937V101.282H79.8794V104.236C79.5833 104.376 79.2058 104.473 78.8801 104.473C78.6137 104.473 78.4212 104.413 78.2954 104.288C78.1695 104.162 78.1177 103.984 78.1177 103.673V101.282H77.5034V103.747C77.5034 104.199 77.607 104.495 77.8068 104.695C78.0141 104.909 78.325 105.013 78.7173 105.013ZM81.5374 104.909H82.1517V99.617H81.5374V104.909ZM84.2362 105.013C84.6729 105.013 85.0578 104.872 85.3761 104.665L85.4131 104.909H85.909V102.496C85.909 102.023 85.8202 101.734 85.5907 101.512C85.3613 101.297 84.9986 101.179 84.4582 101.179C84.1103 101.179 83.6958 101.223 83.3553 101.305L83.3775 101.778C83.7328 101.719 84.0807 101.69 84.3546 101.69C84.7173 101.69 84.9542 101.756 85.1096 101.904C85.2428 102.037 85.2946 102.223 85.2946 102.519V102.748H84.5397C84.0141 102.748 83.5848 102.844 83.3109 103.096C83.1185 103.274 83.0001 103.54 83.0001 103.881C83.0001 104.221 83.1111 104.48 83.2887 104.665C83.5108 104.895 83.8439 105.013 84.2362 105.013ZM84.3694 104.517C83.8957 104.517 83.6218 104.302 83.6218 103.866C83.6218 103.644 83.6958 103.488 83.8217 103.385C83.9919 103.251 84.251 103.2 84.6285 103.2H85.2946V104.28C85.0282 104.413 84.6655 104.517 84.3694 104.517ZM86.9296 104.909H87.544V101.978C87.803 101.815 88.1065 101.734 88.4248 101.734C88.5284 101.734 88.6617 101.741 88.7431 101.749V101.201C88.6617 101.186 88.5728 101.179 88.5062 101.179C88.1879 101.179 87.8252 101.305 87.4773 101.593L87.4403 101.282H86.9296V104.909ZM89.705 102.711H89.7569C89.9789 102.711 90.1269 102.6 90.1269 102.311V102.282C90.1269 101.993 89.9789 101.882 89.7569 101.882H89.705C89.483 101.882 89.3349 101.993 89.3349 102.282V102.311C89.3349 102.6 89.483 102.711 89.705 102.711ZM89.705 105.013H89.7569C89.9789 105.013 90.1269 104.902 90.1269 104.613V104.584C90.1269 104.295 89.9789 104.184 89.7569 104.184H89.705C89.483 104.184 89.3349 104.295 89.3349 104.584V104.613C89.3349 104.902 89.483 105.013 89.705 105.013ZM93.9587 105.013C94.5434 105.013 94.9949 104.872 95.2984 104.584C95.5501 104.347 95.6981 103.999 95.6981 103.555C95.6981 101.823 93.0926 102.215 93.0926 101.06C93.0926 100.52 93.5145 100.298 94.2029 100.298C94.536 100.298 94.9283 100.35 95.2984 100.446L95.3946 99.9427C95.0467 99.8243 94.5878 99.7503 94.1511 99.7503C93.1444 99.7503 92.4709 100.209 92.4709 101.105C92.4709 102.844 95.0689 102.348 95.0689 103.621C95.0689 103.895 94.9727 104.095 94.7951 104.236C94.5952 104.391 94.314 104.465 93.8994 104.465C93.4923 104.465 93.0186 104.376 92.6337 104.265L92.5227 104.769C92.9076 104.924 93.4923 105.013 93.9587 105.013ZM96.3789 105.013H96.9784L99.162 99.7503H98.5624L96.3789 105.013ZM101.903 104.909H104.153V104.436H103.383V100.143C103.383 99.8761 103.279 99.7947 102.961 99.7947C102.695 99.7947 102.221 99.8317 101.917 99.8761V100.291H102.776V104.436H101.903V104.909ZM107.171 105.013C108.222 105.013 108.777 104.295 108.777 103.318C108.777 102.319 108.229 101.801 107.356 101.801C106.934 101.801 106.49 101.926 106.135 102.074C106.186 100.883 106.512 100.254 107.511 100.254C107.748 100.254 108.067 100.283 108.289 100.313V99.8391C108.044 99.7873 107.719 99.7503 107.46 99.7503C106.867 99.7503 106.401 99.9279 106.09 100.298C105.691 100.772 105.498 101.549 105.498 102.644C105.498 104.095 105.935 105.013 107.171 105.013ZM107.186 104.51C106.379 104.51 106.127 103.844 106.127 102.785V102.489C106.468 102.378 106.904 102.297 107.23 102.297C107.904 102.297 108.155 102.667 108.155 103.355C108.155 104.058 107.822 104.51 107.186 104.51ZM110.448 104.909H111.122L112.639 100.453C112.706 100.261 112.721 100.15 112.721 100.009C112.721 99.9501 112.713 99.8835 112.698 99.8465H109.656V100.335H112.099L110.448 104.909Z" fill="white"/>
<path d="M91.6079 105.641L113.944 100.2" stroke="#FBC7DE" stroke-width="0.572726"/>
<path d="M57.3145 75.5549H58.0239V73.5222H59.0363C59.6899 73.5222 60.1363 73.3628 60.4313 73.0759C60.7342 72.7729 60.8777 72.3345 60.8777 71.7526C60.8777 71.2504 60.7501 70.8359 60.4791 70.5649C60.1682 70.246 59.658 70.1026 58.8769 70.1026H57.3145V75.5549ZM58.0239 72.9483V70.6606H58.8211C59.3472 70.6606 59.682 70.7482 59.8892 70.9555C60.0646 71.1309 60.1443 71.3939 60.1443 71.7686C60.1443 72.199 60.0407 72.494 59.8494 72.6773C59.6341 72.8766 59.2914 72.9483 58.7971 72.9483H58.0239ZM61.7338 75.5549H62.3954V69.8554H61.7338V75.5549ZM64.6402 75.6665C65.1105 75.6665 65.525 75.5151 65.8678 75.2919L65.9077 75.5549H66.4417V72.9563C66.4417 72.4461 66.3461 72.1352 66.099 71.8961C65.8519 71.6649 65.4613 71.5374 64.8794 71.5374C64.5047 71.5374 64.0583 71.5852 63.6916 71.6729L63.7156 72.1831C64.0982 72.1193 64.4728 72.0874 64.7678 72.0874C65.1584 72.0874 65.4134 72.1592 65.5808 72.3186C65.7243 72.4621 65.7801 72.6613 65.7801 72.9802V73.2273H64.9671C64.4011 73.2273 63.9388 73.3309 63.6438 73.602C63.4366 73.7933 63.309 74.0802 63.309 74.4469C63.309 74.8136 63.4286 75.0926 63.6199 75.2919C63.859 75.539 64.2178 75.6665 64.6402 75.6665ZM64.7837 75.1325C64.2736 75.1325 63.9786 74.9013 63.9786 74.431C63.9786 74.1918 64.0583 74.0244 64.1938 73.9128C64.3772 73.7694 64.6562 73.7136 65.0627 73.7136H65.7801V74.8774C65.4932 75.0209 65.1026 75.1325 64.7837 75.1325ZM67.5409 75.5549H68.2025V72.3744C68.5213 72.2229 68.9438 72.1193 69.2945 72.1193C69.5815 72.1193 69.7888 72.1831 69.9243 72.3186C70.0598 72.4541 70.1156 72.6454 70.1156 72.9802V75.5549H70.7772V72.9005C70.7772 72.4142 70.6656 72.0954 70.4504 71.8802C70.2272 71.649 69.8924 71.5374 69.4699 71.5374C69.0155 71.5374 68.5293 71.6888 68.1228 71.936L68.0909 71.649H67.5409V75.5549ZM74.3726 75.5549H75.098L76.7321 70.7562C76.8039 70.549 76.8198 70.4294 76.8198 70.2779C76.8198 70.2142 76.8119 70.1424 76.7959 70.1026H73.5197V70.6287H76.1502L74.3726 75.5549ZM79.5441 75.6665C80.8992 75.6665 81.4173 74.6143 81.4173 72.8367C81.4173 71.0591 80.8992 69.9989 79.5441 69.9989C78.189 69.9989 77.6708 71.0591 77.6708 72.8367C77.6708 74.6143 78.189 75.6665 79.5441 75.6665ZM79.5441 75.1006C78.6593 75.1006 78.3643 74.3592 78.3643 72.8367C78.3643 71.3142 78.6593 70.5649 79.5441 70.5649C80.4289 70.5649 80.7238 71.3142 80.7238 72.8367C80.7238 74.3592 80.4289 75.1006 79.5441 75.1006ZM84.0308 75.5549H84.6605V71.4657L86.2309 74.3991H86.8208L88.4071 71.4975V75.5549H89.0766V70.1026H88.4708L86.5497 73.6896L84.6526 70.1026H84.0308V75.5549ZM92.0725 75.6665C93.045 75.6665 93.595 75.0049 93.595 73.586C93.595 72.1831 93.029 71.5374 92.0805 71.5374C91.6978 71.5374 91.2754 71.6729 90.9565 71.8483V69.8554H90.2949V75.5549H90.829L90.8608 75.2919C91.1717 75.5071 91.65 75.6665 92.0725 75.6665ZM91.921 75.1165C91.6022 75.1165 91.2196 74.9969 90.9565 74.8375V72.3266C91.2196 72.199 91.6022 72.1034 91.9051 72.1034C92.5986 72.1034 92.9015 72.5338 92.9015 73.586C92.9015 74.7179 92.5826 75.1165 91.921 75.1165ZM94.5063 77.3485H95.1679V75.3716C95.4549 75.5549 95.8773 75.6665 96.2839 75.6665C97.2165 75.6665 97.8064 75.0527 97.8064 73.586C97.8064 72.3425 97.3201 71.5374 96.3078 71.5374C95.9491 71.5374 95.4947 71.6649 95.0882 71.936L95.0563 71.649H94.5063V77.3485ZM96.1165 75.1165C95.7817 75.1165 95.3991 75.0129 95.1679 74.8774V72.3664C95.4708 72.207 95.8614 72.1034 96.1643 72.1034C96.818 72.1034 97.1129 72.5816 97.1129 73.578C97.1129 74.694 96.8259 75.1165 96.1165 75.1165ZM99.746 75.6665C100.687 75.6665 101.324 75.2998 101.324 74.4708C101.324 73.0759 99.1481 73.4904 99.1481 72.6135C99.1481 72.2468 99.4431 72.0635 100.001 72.0635C100.32 72.0635 100.679 72.1113 101.029 72.191L101.085 71.7048C100.774 71.6091 100.336 71.5374 99.9453 71.5374C99.1162 71.5374 98.5264 71.9041 98.5264 72.6613C98.5264 74.0962 100.703 73.6418 100.703 74.5187C100.703 74.9172 100.36 75.1325 99.7221 75.1325C99.3793 75.1325 98.9489 75.0767 98.63 74.989L98.5981 75.4991C98.8931 75.5948 99.3713 75.6665 99.746 75.6665Z" fill="white"/>
</svg>
