<svg width="422" height="298" viewBox="0 0 422 298" fill="none" xmlns="http://www.w3.org/2000/svg">
<path d="M202 298L22.5819 298C18.9468 298 16 295.053 16 291.418L16 218.582C16 214.947 18.9468 212 22.5819 212L202 212L202 298Z" fill="#E63780"/>
<path d="M202 212H398.418C402.053 212 405 214.947 405 218.582V291.418C405 295.053 402.053 298 398.418 298H202V212Z" fill="#FBC7DE"/>
<path fill-rule="evenodd" clip-rule="evenodd" d="M255.099 254.068C255.099 254.462 254.84 254.758 254.757 254.784H240.321V247.927L254.705 247.922C254.819 247.964 255.099 248.286 255.099 248.644V254.068ZM252.364 270.9H240.326V257.088H252.706V270.184C252.701 270.578 252.442 270.874 252.364 270.9ZM225.656 270.184V257.088H237.948V270.9H226.025C225.916 270.869 225.656 270.578 225.656 270.184ZM223.372 248.638C223.372 248.28 223.647 247.959 223.715 247.922H237.954V254.779H223.736C223.627 254.737 223.377 254.452 223.377 254.062V248.638H223.372ZM230.069 240.547C230.738 239.545 231.522 239.047 232.41 239.047C232.986 239.047 233.614 239.26 234.278 239.68C235.628 240.531 237.004 243.479 237.668 245.348C235.654 245.509 232.296 245.488 230.961 244.642C230.115 244.107 229.607 243.49 229.461 242.815C229.311 242.13 229.518 241.367 230.069 240.547ZM244.084 239.675C245.776 238.606 247.194 238.896 248.294 240.542C248.844 241.367 249.052 242.125 248.901 242.805C248.756 243.479 248.247 244.097 247.401 244.632C246.062 245.478 242.703 245.498 240.689 245.337C241.359 243.474 242.735 240.531 244.084 239.675ZM254.762 245.618H249.872C250.562 244.927 251.04 244.144 251.227 243.287C251.507 242.005 251.18 240.625 250.287 239.285C248.465 236.561 245.595 235.969 242.792 237.744C241.26 238.715 240.025 240.884 239.184 242.779C238.348 240.884 237.108 238.709 235.576 237.744C232.773 235.969 229.902 236.561 228.08 239.285C227.188 240.625 226.861 242.005 227.141 243.287C227.328 244.144 227.805 244.927 228.491 245.618H223.715C222.293 245.618 221 247.061 221 248.644V254.068C221 255.542 222.012 256.803 223.284 257.042V270.184C223.284 271.824 224.53 273.21 225.999 273.21H252.364C253.833 273.21 255.079 271.824 255.079 270.184V257.052C256.407 256.865 257.477 255.583 257.477 254.062V248.638C257.477 247.055 256.184 245.618 254.762 245.618Z" fill="#922859"/>
<path d="M278.601 277.919C281.151 277.919 284.687 277.409 286.897 276.729V264.863H278.363V268.671H281.627V273.567C280.811 273.703 279.655 273.805 278.805 273.805C276.561 273.805 275.167 273.125 274.317 271.935C273.297 270.507 272.957 268.365 272.957 265.747C272.957 260.681 274.895 257.893 279.587 257.893C281.423 257.893 283.429 258.267 285.095 258.743L285.775 254.867C284.279 254.221 281.525 253.745 279.213 253.745C271.291 253.745 267.449 258.675 267.449 265.951C267.449 273.329 270.271 277.919 278.601 277.919ZM291.245 277.443H296.549V269.011H299.473L303.757 277.443H309.741L304.709 268.297C307.327 267.073 308.653 264.557 308.653 261.395C308.653 258.947 307.905 257.179 306.715 256.057C305.185 254.629 302.975 254.187 299.235 254.187H291.245V277.443ZM296.549 265.169V258.029H298.929C300.663 258.029 301.785 258.233 302.465 258.879C303.009 259.423 303.281 260.273 303.281 261.463C303.281 262.755 302.975 263.775 302.295 264.353C301.615 264.931 300.663 265.169 298.895 265.169H296.549ZM310.946 277.443H316.012L317.814 271.595H325.362L327.3 277.443H332.978L324.58 254.187H318.732L310.946 277.443ZM319.038 267.753L321.452 260.001H321.52L324.07 267.753H319.038ZM339.146 277.443H344.45V258.029H351.488L351.896 254.187H331.938V258.029H339.146V277.443ZM354.731 277.443H360.035V254.187H354.731V277.443ZM371.99 277.919C375.322 277.919 377.532 277.239 379.164 275.709C380.388 274.553 381.102 272.887 381.102 270.813C381.102 261.735 369.236 264.863 369.236 260.307C369.236 258.845 370.154 257.825 373.01 257.825C374.642 257.825 376.682 258.131 378.586 258.641L379.402 254.697C377.6 254.085 375.152 253.745 372.908 253.745C367.944 253.745 364.238 255.819 364.238 260.545C364.238 269.691 376.104 266.529 376.104 270.881C376.104 273.023 374.642 273.839 371.514 273.839C369.814 273.839 367.128 273.397 365.088 272.683L364.272 276.729C366.618 277.545 369.032 277.919 371.99 277.919Z" fill="#922859"/>
<path d="M275.722 246.824H277.68V231.776H275.722V246.824ZM281.106 246.824H282.932V238.046C283.812 237.628 284.978 237.342 285.946 237.342C286.738 237.342 287.31 237.518 287.684 237.892C288.058 238.266 288.212 238.794 288.212 239.718V246.824H290.038V239.498C290.038 238.156 289.73 237.276 289.136 236.682C288.52 236.044 287.596 235.736 286.43 235.736C285.176 235.736 283.834 236.154 282.712 236.836L282.624 236.044H281.106V246.824ZM295.911 247.132C298.507 247.132 300.267 246.12 300.267 243.832C300.267 239.982 294.261 241.126 294.261 238.706C294.261 237.694 295.075 237.188 296.615 237.188C297.495 237.188 298.485 237.32 299.453 237.54L299.607 236.198C298.749 235.934 297.539 235.736 296.461 235.736C294.173 235.736 292.545 236.748 292.545 238.838C292.545 242.798 298.551 241.544 298.551 243.964C298.551 245.064 297.605 245.658 295.845 245.658C294.899 245.658 293.711 245.504 292.831 245.262L292.743 246.67C293.557 246.934 294.877 247.132 295.911 247.132ZM306.589 247.132C307.381 247.132 308.239 247 308.811 246.846L308.723 245.504C308.195 245.614 307.469 245.68 307.095 245.68C306.325 245.68 305.951 245.526 305.709 245.262C305.401 244.932 305.335 244.404 305.335 243.37V237.386H308.173V236.044H305.335V233.184C304.763 233.184 304.037 233.338 303.509 233.514V236.066L301.551 236.352V237.386H303.509V243.612C303.509 244.954 303.663 245.68 304.191 246.296C304.675 246.846 305.533 247.132 306.589 247.132ZM313.986 247.132C315.284 247.132 316.428 246.714 317.374 246.098L317.484 246.824H318.958V239.652C318.958 238.244 318.694 237.386 318.012 236.726C317.33 236.088 316.252 235.736 314.646 235.736C313.612 235.736 312.38 235.868 311.368 236.11L311.434 237.518C312.49 237.342 313.524 237.254 314.338 237.254C315.416 237.254 316.12 237.452 316.582 237.892C316.978 238.288 317.132 238.838 317.132 239.718V240.4H314.888C313.326 240.4 312.05 240.686 311.236 241.434C310.664 241.962 310.312 242.754 310.312 243.766C310.312 244.778 310.642 245.548 311.17 246.098C311.83 246.78 312.82 247.132 313.986 247.132ZM314.382 245.658C312.974 245.658 312.16 245.02 312.16 243.722C312.16 243.062 312.38 242.6 312.754 242.292C313.26 241.896 314.03 241.742 315.152 241.742H317.132V244.954C316.34 245.35 315.262 245.658 314.382 245.658ZM322.013 246.824H323.839V231.094H322.013V246.824ZM330.035 247.132C331.333 247.132 332.477 246.714 333.423 246.098L333.533 246.824H335.007V239.652C335.007 238.244 334.743 237.386 334.061 236.726C333.379 236.088 332.301 235.736 330.695 235.736C329.661 235.736 328.429 235.868 327.417 236.11L327.483 237.518C328.539 237.342 329.573 237.254 330.387 237.254C331.465 237.254 332.169 237.452 332.631 237.892C333.027 238.288 333.181 238.838 333.181 239.718V240.4H330.937C329.375 240.4 328.099 240.686 327.285 241.434C326.713 241.962 326.361 242.754 326.361 243.766C326.361 244.778 326.691 245.548 327.219 246.098C327.879 246.78 328.869 247.132 330.035 247.132ZM330.431 245.658C329.023 245.658 328.209 245.02 328.209 243.722C328.209 243.062 328.429 242.6 328.803 242.292C329.309 241.896 330.079 241.742 331.201 241.742H333.181V244.954C332.389 245.35 331.311 245.658 330.431 245.658ZM342.814 247.132C343.606 247.132 344.816 246.978 345.52 246.78L345.388 245.416C344.838 245.526 343.87 245.636 343.144 245.636C341.824 245.636 340.9 245.328 340.284 244.624C339.69 243.942 339.382 242.908 339.382 241.544C339.382 238.684 340.526 237.21 343.056 237.21C343.738 237.21 344.618 237.342 345.3 237.474L345.41 236.066C344.662 235.868 343.672 235.736 342.836 235.736C341.186 235.736 339.8 236.22 338.876 237.21C337.952 238.2 337.468 239.674 337.468 241.566C337.468 243.458 337.996 244.866 338.898 245.79C339.778 246.692 341.054 247.132 342.814 247.132ZM348.846 233.998H348.956C349.616 233.998 350.034 233.668 350.034 232.832V232.788C350.034 231.952 349.616 231.622 348.956 231.622H348.846C348.186 231.622 347.768 231.952 347.768 232.788V232.832C347.768 233.668 348.186 233.998 348.846 233.998ZM347.988 246.824H349.814V236.044H347.988V246.824ZM355.503 234.306L359.705 231.292L358.671 229.906L354.799 233.338L355.503 234.306ZM357.263 247.132C360.607 247.132 362.169 245.02 362.169 241.434C362.169 237.848 360.607 235.736 357.263 235.736C353.919 235.736 352.357 237.848 352.357 241.434C352.357 245.02 353.919 247.132 357.263 247.132ZM357.263 245.636C355.063 245.636 354.271 244.184 354.271 241.434C354.271 238.684 355.063 237.232 357.263 237.232C359.463 237.232 360.255 238.684 360.255 241.434C360.255 244.184 359.463 245.636 357.263 245.636ZM364.681 246.824H366.507V238.046C367.387 237.628 368.553 237.342 369.521 237.342C370.313 237.342 370.885 237.518 371.259 237.892C371.633 238.266 371.787 238.794 371.787 239.718V246.824H373.613V239.498C373.613 238.156 373.305 237.276 372.711 236.682C372.095 236.044 371.171 235.736 370.005 235.736C368.751 235.736 367.409 236.154 366.287 236.836L366.199 236.044H364.681V246.824Z" fill="#922859"/>
<path d="M64.2572 269.951C68.1772 269.951 70.7772 269.151 72.6972 267.351C74.1372 265.991 74.9772 264.031 74.9772 261.591C74.9772 250.911 61.0172 254.591 61.0172 249.231C61.0172 247.511 62.0972 246.311 65.4572 246.311C67.3772 246.311 69.7772 246.671 72.0172 247.271L72.9772 242.631C70.8572 241.911 67.9772 241.511 65.3372 241.511C59.4972 241.511 55.1372 243.951 55.1372 249.511C55.1372 260.271 69.0972 256.551 69.0972 261.671C69.0972 264.191 67.3772 265.151 63.6972 265.151C61.6972 265.151 58.5372 264.631 56.1372 263.791L55.1772 268.551C57.9372 269.511 60.7772 269.951 64.2572 269.951ZM77.0509 269.951H82.1309L94.1709 241.511H89.0909L77.0509 269.951ZM99.3897 269.391H113.67V265.311H109.75V244.351C109.75 242.311 108.79 241.631 105.95 241.631C103.99 241.631 101.23 241.871 99.5897 242.111V245.991H104.03V265.311H99.3897V269.391ZM131.414 269.391H137.134V263.111H140.334V258.831H137.134V252.311H131.414V258.831H125.094L131.254 242.031H125.734L120.054 257.551C119.414 259.311 119.214 260.591 119.214 261.711C119.214 262.231 119.294 262.831 119.374 263.111H131.414V269.391ZM147.798 269.391H153.918L161.598 247.591C162.078 246.271 162.238 244.951 162.238 243.671C162.238 243.071 162.158 242.351 161.958 242.031H144.118V246.111H156.878L147.798 269.391Z" fill="white"/>
<path d="M51.5092 286.312H52.6662V282.997H54.3172C55.3832 282.997 56.1112 282.737 56.5922 282.269C57.0862 281.775 57.3202 281.06 57.3202 280.111C57.3202 279.292 57.1122 278.616 56.6702 278.174C56.1632 277.654 55.3312 277.42 54.0572 277.42H51.5092V286.312ZM52.6662 282.061V278.33H53.9662C54.8242 278.33 55.3702 278.473 55.7082 278.811C55.9942 279.097 56.1242 279.526 56.1242 280.137C56.1242 280.839 55.9552 281.32 55.6432 281.619C55.2922 281.944 54.7332 282.061 53.9272 282.061H52.6662ZM58.5765 286.312H59.6555V281.164C60.1105 280.878 60.6435 280.735 61.2025 280.735C61.3845 280.735 61.6185 280.748 61.7615 280.761V279.799C61.6185 279.773 61.4625 279.76 61.3455 279.76C60.7865 279.76 60.1495 279.981 59.5385 280.488L59.4735 279.942H58.5765V286.312ZM65.408 286.494C65.993 286.494 66.747 286.403 67.293 286.247L67.189 285.441C66.695 285.545 66.071 285.61 65.616 285.61C64.81 285.61 64.329 285.441 63.991 285.129C63.614 284.778 63.432 284.206 63.432 283.504H67.54C67.644 283.504 67.696 283.465 67.696 283.361V283.114C67.696 281.021 66.838 279.76 65.057 279.76C63.432 279.76 62.301 280.865 62.301 283.14C62.301 284.284 62.561 285.155 63.133 285.727C63.653 286.247 64.42 286.494 65.408 286.494ZM63.432 282.711C63.445 281.424 63.978 280.631 65.057 280.631C66.123 280.631 66.591 281.489 66.63 282.711H63.432ZM72.0362 286.494C72.5042 286.494 73.2192 286.403 73.6352 286.286L73.5572 285.48C73.2322 285.545 72.6602 285.61 72.2312 285.61C71.4512 285.61 70.9052 285.428 70.5412 285.012C70.1902 284.609 70.0082 283.998 70.0082 283.192C70.0082 281.502 70.6842 280.631 72.1792 280.631C72.5822 280.631 73.1022 280.709 73.5052 280.787L73.5702 279.955C73.1282 279.838 72.5432 279.76 72.0492 279.76C71.0742 279.76 70.2552 280.046 69.7092 280.631C69.1632 281.216 68.8772 282.087 68.8772 283.205C68.8772 284.323 69.1892 285.155 69.7222 285.701C70.2422 286.234 70.9962 286.494 72.0362 286.494ZM75.6007 278.733H75.6657C76.0557 278.733 76.3027 278.538 76.3027 278.044V278.018C76.3027 277.524 76.0557 277.329 75.6657 277.329H75.6007C75.2107 277.329 74.9637 277.524 74.9637 278.018V278.044C74.9637 278.538 75.2107 278.733 75.6007 278.733ZM75.0937 286.312H76.1727V279.942H75.0937V286.312ZM80.574 286.494C82.55 286.494 83.473 285.246 83.473 283.127C83.473 281.008 82.55 279.76 80.574 279.76C78.598 279.76 77.675 281.008 77.675 283.127C77.675 285.246 78.598 286.494 80.574 286.494ZM80.574 285.61C79.274 285.61 78.806 284.752 78.806 283.127C78.806 281.502 79.274 280.644 80.574 280.644C81.874 280.644 82.342 281.502 82.342 283.127C82.342 284.752 81.874 285.61 80.574 285.61ZM87.6107 286.312H88.6897V281.164C89.1447 280.878 89.6777 280.735 90.2367 280.735C90.4187 280.735 90.6527 280.748 90.7957 280.761V279.799C90.6527 279.773 90.4967 279.76 90.3797 279.76C89.8207 279.76 89.1837 279.981 88.5727 280.488L88.5077 279.942H87.6107V286.312ZM94.4422 286.494C95.0272 286.494 95.7812 286.403 96.3272 286.247L96.2232 285.441C95.7292 285.545 95.1052 285.61 94.6502 285.61C93.8442 285.61 93.3632 285.441 93.0252 285.129C92.6482 284.778 92.4662 284.206 92.4662 283.504H96.5742C96.6782 283.504 96.7302 283.465 96.7302 283.361V283.114C96.7302 281.021 95.8722 279.76 94.0912 279.76C92.4662 279.76 91.3352 280.865 91.3352 283.14C91.3352 284.284 91.5952 285.155 92.1672 285.727C92.6872 286.247 93.4542 286.494 94.4422 286.494ZM92.4662 282.711C92.4792 281.424 93.0122 280.631 94.0912 280.631C95.1572 280.631 95.6252 281.489 95.6642 282.711H92.4662ZM100.706 289.419C102.864 289.419 103.722 288.704 103.722 287.417C103.722 286.897 103.579 286.455 103.254 286.13C102.838 285.714 102.214 285.532 101.096 285.532H99.8744C99.5234 285.532 99.3544 285.415 99.3544 285.142C99.3544 284.921 99.5104 284.583 99.7054 284.362C100.004 284.453 100.329 284.492 100.706 284.492C102.448 284.492 103.267 283.504 103.267 282.126C103.267 281.216 102.903 280.462 102.136 280.072L103.02 278.564C102.812 278.395 102.422 278.213 102.123 278.148L101.356 279.812C101.161 279.786 100.94 279.76 100.706 279.76C98.9644 279.76 98.1454 280.748 98.1454 282.126C98.1454 282.958 98.4444 283.634 99.0424 284.05C98.5874 284.492 98.2884 285.012 98.2884 285.519C98.2884 285.805 98.3794 286.039 98.5874 286.208C98.1454 286.52 97.8594 287.066 97.8594 287.625C97.8594 288.756 98.7434 289.419 100.706 289.419ZM100.706 283.634C99.6534 283.634 99.1724 283.101 99.1724 282.126C99.1724 281.151 99.6534 280.618 100.706 280.618C101.759 280.618 102.24 281.151 102.24 282.126C102.24 283.101 101.759 283.634 100.706 283.634ZM100.81 288.509C99.3934 288.509 98.8734 288.119 98.8734 287.43C98.8734 287.092 99.0164 286.741 99.2504 286.455C99.3804 286.481 99.5364 286.494 99.7184 286.494H101.096C101.733 286.494 102.149 286.572 102.396 286.754C102.604 286.91 102.708 287.144 102.708 287.456C102.708 288.119 102.162 288.509 100.81 288.509ZM106.995 286.494C107.736 286.494 108.503 286.247 109.166 285.844L109.218 286.312H110.115V279.942H109.036V285.129C108.516 285.376 107.853 285.545 107.281 285.545C106.813 285.545 106.475 285.441 106.254 285.22C106.033 284.999 105.942 284.687 105.942 284.141V279.942H104.863V284.271C104.863 285.064 105.045 285.584 105.396 285.935C105.76 286.312 106.306 286.494 106.995 286.494ZM111.948 286.312H113.027V277.017H111.948V286.312ZM116.688 286.494C117.455 286.494 118.131 286.247 118.69 285.883L118.755 286.312H119.626V282.074C119.626 281.242 119.47 280.735 119.067 280.345C118.664 279.968 118.027 279.76 117.078 279.76C116.467 279.76 115.739 279.838 115.141 279.981L115.18 280.813C115.804 280.709 116.415 280.657 116.896 280.657C117.533 280.657 117.949 280.774 118.222 281.034C118.456 281.268 118.547 281.593 118.547 282.113V282.516H117.221C116.298 282.516 115.544 282.685 115.063 283.127C114.725 283.439 114.517 283.907 114.517 284.505C114.517 285.103 114.712 285.558 115.024 285.883C115.414 286.286 115.999 286.494 116.688 286.494ZM116.922 285.623C116.09 285.623 115.609 285.246 115.609 284.479C115.609 284.089 115.739 283.816 115.96 283.634C116.259 283.4 116.714 283.309 117.377 283.309H118.547V285.207C118.079 285.441 117.442 285.623 116.922 285.623ZM121.418 286.312H122.497V281.164C122.952 280.878 123.485 280.735 124.044 280.735C124.226 280.735 124.46 280.748 124.603 280.761V279.799C124.46 279.773 124.304 279.76 124.187 279.76C123.628 279.76 122.991 279.981 122.38 280.488L122.315 279.942H121.418V286.312ZM126.293 282.451H126.384C126.774 282.451 127.034 282.256 127.034 281.749V281.697C127.034 281.19 126.774 280.995 126.384 280.995H126.293C125.903 280.995 125.643 281.19 125.643 281.697V281.749C125.643 282.256 125.903 282.451 126.293 282.451ZM126.293 286.494H126.384C126.774 286.494 127.034 286.299 127.034 285.792V285.74C127.034 285.233 126.774 285.038 126.384 285.038H126.293C125.903 285.038 125.643 285.233 125.643 285.74V285.792C125.643 286.299 125.903 286.494 126.293 286.494ZM133.763 286.494C134.79 286.494 135.583 286.247 136.116 285.74C136.558 285.324 136.818 284.713 136.818 283.933C136.818 280.891 132.242 281.58 132.242 279.552C132.242 278.603 132.983 278.213 134.192 278.213C134.777 278.213 135.466 278.304 136.116 278.473L136.285 277.589C135.674 277.381 134.868 277.251 134.101 277.251C132.333 277.251 131.15 278.057 131.15 279.63C131.15 282.685 135.713 281.814 135.713 284.05C135.713 284.531 135.544 284.882 135.232 285.129C134.881 285.402 134.387 285.532 133.659 285.532C132.944 285.532 132.112 285.376 131.436 285.181L131.241 286.065C131.917 286.338 132.944 286.494 133.763 286.494ZM138.014 286.494H139.067L142.902 277.251H141.849L138.014 286.494ZM147.715 286.312H151.667V285.48H150.315V277.94C150.315 277.472 150.133 277.329 149.574 277.329C149.106 277.329 148.274 277.394 147.741 277.472V278.2H149.249V285.48H147.715V286.312ZM156.968 286.494C158.814 286.494 159.789 285.233 159.789 283.517C159.789 281.762 158.827 280.852 157.293 280.852C156.552 280.852 155.772 281.073 155.148 281.333C155.239 279.24 155.811 278.135 157.566 278.135C157.982 278.135 158.541 278.187 158.931 278.239V277.407C158.502 277.316 157.93 277.251 157.475 277.251C156.435 277.251 155.616 277.563 155.07 278.213C154.368 279.045 154.03 280.41 154.03 282.334C154.03 284.882 154.797 286.494 156.968 286.494ZM156.994 285.61C155.577 285.61 155.135 284.44 155.135 282.581V282.061C155.733 281.866 156.5 281.723 157.072 281.723C158.255 281.723 158.697 282.373 158.697 283.582C158.697 284.817 158.112 285.61 156.994 285.61ZM162.724 286.312H163.907L166.572 278.486C166.689 278.148 166.715 277.953 166.715 277.706C166.715 277.602 166.702 277.485 166.676 277.42H161.333V278.278H165.623L162.724 286.312Z" fill="white"/>
<path d="M129.471 286.891L168.7 277.335" stroke="#FBC7DE" stroke-width="1.00588"/>
<path d="M70.6024 234H71.8484V230.43H73.6264C74.7744 230.43 75.5584 230.15 76.0764 229.646C76.6084 229.114 76.8604 228.344 76.8604 227.322C76.8604 226.44 76.6364 225.712 76.1604 225.236C75.6144 224.676 74.7184 224.424 73.3464 224.424H70.6024V234ZM71.8484 229.422V225.404H73.2484C74.1724 225.404 74.7604 225.558 75.1244 225.922C75.4324 226.23 75.5724 226.692 75.5724 227.35C75.5724 228.106 75.3904 228.624 75.0544 228.946C74.6764 229.296 74.0744 229.422 73.2064 229.422H71.8484ZM78.3641 234H79.5261V223.99H78.3641V234ZM83.4686 234.196C84.2946 234.196 85.0226 233.93 85.6246 233.538L85.6946 234H86.6326V229.436C86.6326 228.54 86.4646 227.994 86.0306 227.574C85.5966 227.168 84.9106 226.944 83.8886 226.944C83.2306 226.944 82.4466 227.028 81.8026 227.182L81.8446 228.078C82.5166 227.966 83.1746 227.91 83.6926 227.91C84.3786 227.91 84.8266 228.036 85.1206 228.316C85.3726 228.568 85.4706 228.918 85.4706 229.478V229.912H84.0426C83.0486 229.912 82.2366 230.094 81.7186 230.57C81.3546 230.906 81.1306 231.41 81.1306 232.054C81.1306 232.698 81.3406 233.188 81.6766 233.538C82.0966 233.972 82.7266 234.196 83.4686 234.196ZM83.7206 233.258C82.8246 233.258 82.3066 232.852 82.3066 232.026C82.3066 231.606 82.4466 231.312 82.6846 231.116C83.0066 230.864 83.4966 230.766 84.2106 230.766H85.4706V232.81C84.9666 233.062 84.2806 233.258 83.7206 233.258ZM88.563 234H89.725V228.414C90.285 228.148 91.027 227.966 91.643 227.966C92.147 227.966 92.511 228.078 92.749 228.316C92.987 228.554 93.085 228.89 93.085 229.478V234H94.247V229.338C94.247 228.484 94.051 227.924 93.673 227.546C93.281 227.14 92.693 226.944 91.951 226.944C91.153 226.944 90.299 227.21 89.585 227.644L89.529 227.14H88.563V234ZM100.562 234H101.836L104.706 225.572C104.832 225.208 104.86 224.998 104.86 224.732C104.86 224.62 104.846 224.494 104.818 224.424H99.0637V225.348H103.684L100.562 234ZM109.644 234.196C112.024 234.196 112.934 232.348 112.934 229.226C112.934 226.104 112.024 224.242 109.644 224.242C107.264 224.242 106.354 226.104 106.354 229.226C106.354 232.348 107.264 234.196 109.644 234.196ZM109.644 233.202C108.09 233.202 107.572 231.9 107.572 229.226C107.572 226.552 108.09 225.236 109.644 225.236C111.198 225.236 111.716 226.552 111.716 229.226C111.716 231.9 111.198 233.202 109.644 233.202ZM117.524 234H118.63V226.818L121.388 231.97H122.424L125.21 226.874V234H126.386V224.424H125.322L121.948 230.724L118.616 224.424H117.524V234ZM131.648 234.196C133.356 234.196 134.322 233.034 134.322 230.542C134.322 228.078 133.328 226.944 131.662 226.944C130.99 226.944 130.248 227.182 129.688 227.49V223.99H128.526V234H129.464L129.52 233.538C130.066 233.916 130.906 234.196 131.648 234.196ZM131.382 233.23C130.822 233.23 130.15 233.02 129.688 232.74V228.33C130.15 228.106 130.822 227.938 131.354 227.938C132.572 227.938 133.104 228.694 133.104 230.542C133.104 232.53 132.544 233.23 131.382 233.23ZM135.922 237.15H137.084V233.678C137.588 234 138.33 234.196 139.044 234.196C140.682 234.196 141.718 233.118 141.718 230.542C141.718 228.358 140.864 226.944 139.086 226.944C138.456 226.944 137.658 227.168 136.944 227.644L136.888 227.14H135.922V237.15ZM138.75 233.23C138.162 233.23 137.49 233.048 137.084 232.81V228.4C137.616 228.12 138.302 227.938 138.834 227.938C139.982 227.938 140.5 228.778 140.5 230.528C140.5 232.488 139.996 233.23 138.75 233.23ZM145.125 234.196C146.777 234.196 147.897 233.552 147.897 232.096C147.897 229.646 144.075 230.374 144.075 228.834C144.075 228.19 144.593 227.868 145.573 227.868C146.133 227.868 146.763 227.952 147.379 228.092L147.477 227.238C146.931 227.07 146.161 226.944 145.475 226.944C144.019 226.944 142.983 227.588 142.983 228.918C142.983 231.438 146.805 230.64 146.805 232.18C146.805 232.88 146.203 233.258 145.083 233.258C144.481 233.258 143.725 233.16 143.165 233.006L143.109 233.902C143.627 234.07 144.467 234.196 145.125 234.196Z" fill="white"/>
<path d="M27.662 73.3242C31.7125 73.3242 37.1372 72.6732 40.1028 71.8052L38.9455 63.5596C36.0523 64.1383 32.2188 64.5722 29.8319 64.5722C24.2625 64.5722 21.1523 63.4873 18.9824 61.0281C16.5232 58.2795 15.4382 53.3611 15.4382 47.5023C15.4382 37.6655 17.8974 30.6494 28.53 30.6494C31.6401 30.6494 35.329 31.3004 39.1625 32.3854L40.6091 24.1397C37.4265 22.8378 31.9295 21.8975 27.662 21.8975C10.7368 21.8975 3.72075 32.313 3.72075 47.7917C3.72075 56.3989 5.529 62.8363 9.72414 67.3208C13.413 71.2266 18.9101 73.3242 27.662 73.3242ZM66.7829 73.3242C81.8999 73.3242 88.6989 64.3552 88.6989 47.647C88.6989 30.9388 81.8999 21.8975 66.7829 21.8975C51.666 21.8975 44.8669 30.9388 44.8669 47.647C44.8669 64.3552 51.666 73.3242 66.7829 73.3242ZM66.7829 64.4999C59.4776 64.4999 56.5844 59.5815 56.5844 47.647C56.5844 35.7126 59.4776 30.7218 66.7829 30.7218C74.0883 30.7218 76.9815 35.7126 76.9815 47.647C76.9815 59.5815 74.0883 64.4999 66.7829 64.4999ZM95.8805 72.3116H105.79V42.2946L128.501 72.3116H137.543V22.8378H127.633V54.5184L104.198 22.8378H95.8805V72.3116ZM172.568 72.3116H183.851V31.0111H198.824L199.692 22.8378H157.234V31.0111H172.568V72.3116ZM224.023 73.3242C230.388 73.3242 235.958 71.5159 239.213 68.4057C242.829 65.0062 244.059 59.9431 244.059 53.6504V22.8378H234.077V54.229C234.077 58.0625 233.426 60.6664 231.69 62.4023C230.171 63.9936 227.785 64.7169 224.53 64.7169C221.275 64.7169 218.816 63.9213 217.297 62.33C215.561 60.5941 214.91 57.9179 214.91 54.1567V22.8378H203.699V54.1567C203.699 61.2451 205.218 65.3679 208.472 68.5504C211.8 71.8052 217.152 73.3242 224.023 73.3242ZM278.701 72.3116H289.984V31.0111H304.957L305.825 22.8378H263.367V31.0111H278.701V72.3116ZM310.266 72.3116H321.549V54.3737H327.77L336.883 72.3116H349.613L338.908 52.8548C344.478 50.2509 347.299 44.8985 347.299 38.1718C347.299 32.964 345.707 29.2028 343.176 26.816C339.921 23.7781 335.219 22.8378 327.263 22.8378H310.266V72.3116ZM321.549 46.2004V31.0111H326.612C330.301 31.0111 332.688 31.4451 334.135 32.8194C335.292 33.9766 335.87 35.7849 335.87 38.3164C335.87 41.065 335.219 43.2349 333.773 44.4645C332.326 45.6941 330.301 46.2004 326.54 46.2004H321.549ZM355.938 17.413L370.621 7.50384L365.557 0.63248L352.321 12.9286L355.938 17.413ZM355.865 72.3116H367.149V22.8378H355.865V72.3116ZM396.342 73.3242C411.459 73.3242 418.258 64.3552 418.258 47.647C418.258 30.9388 411.459 21.8975 396.342 21.8975C381.225 21.8975 374.426 30.9388 374.426 47.647C374.426 64.3552 381.225 73.3242 396.342 73.3242ZM396.342 64.4999C389.037 64.4999 386.144 59.5815 386.144 47.647C386.144 35.7126 389.037 30.7218 396.342 30.7218C403.648 30.7218 406.541 35.7126 406.541 47.647C406.541 59.5815 403.648 64.4999 396.342 64.4999ZM43.3452 145.312H52.8204V116.524L63.3806 134.028H72.0602L82.3311 116.814V145.312H92.6743V95.8378H83.9947L67.8651 123.468L52.2418 95.8378H43.3452V145.312ZM121.757 146.324C136.874 146.324 143.673 137.355 143.673 120.647C143.673 103.939 136.874 94.8975 121.757 94.8975C106.64 94.8975 99.8406 103.939 99.8406 120.647C99.8406 137.355 106.64 146.324 121.757 146.324ZM121.757 137.5C114.451 137.5 111.558 132.581 111.558 120.647C111.558 108.713 114.451 103.722 121.757 103.722C129.062 103.722 131.955 108.713 131.955 120.647C131.955 132.581 129.062 137.5 121.757 137.5ZM162.878 145.312H174.668L191.087 95.8378H180.092L169.315 131.714L157.742 95.8378H145.663L162.878 145.312ZM196.03 145.312H207.313V95.8378H196.03V145.312ZM231.299 146.324C238.388 146.324 243.089 144.878 246.561 141.623C249.165 139.164 250.684 135.619 250.684 131.207C250.684 111.895 225.441 118.549 225.441 108.857C225.441 105.747 227.393 103.577 233.469 103.577C236.941 103.577 241.281 104.228 245.331 105.313L247.067 96.9228C243.234 95.6208 238.026 94.8975 233.252 94.8975C222.692 94.8975 214.808 99.3096 214.808 109.364C214.808 128.82 240.051 122.094 240.051 131.352C240.051 135.909 236.941 137.645 230.287 137.645C226.67 137.645 220.956 136.704 216.616 135.185L214.88 143.793C219.871 145.529 225.007 146.324 231.299 146.324ZM267.769 145.312H279.053V104.011H294.025L294.893 95.8378H252.436V104.011H267.769V145.312ZM291.306 145.312H302.083L305.917 132.871H321.974L326.097 145.312H338.176L320.31 95.8378H307.87L291.306 145.312ZM308.521 124.697L313.656 108.206H313.801L319.226 124.697H308.521ZM342.458 145.312H353.742V127.374H359.962L369.076 145.312H381.806L371.101 125.855C376.67 123.251 379.491 117.898 379.491 111.172C379.491 105.964 377.9 102.203 375.368 99.816C372.113 96.7781 367.412 95.8378 359.456 95.8378H342.458V145.312ZM353.742 119.2V104.011H358.805C362.494 104.011 364.88 104.445 366.327 105.819C367.484 106.977 368.063 108.785 368.063 111.316C368.063 114.065 367.412 116.235 365.965 117.464C364.519 118.694 362.494 119.2 358.732 119.2H353.742Z" fill="#019DF4"/>
<path d="M76.0106 186.336C77.1146 186.336 78.5306 185.904 79.4906 185.28L79.6346 186H81.2666V168.84H79.2746V174.744C78.3386 174.216 77.1626 173.904 76.1546 173.904C73.0826 173.904 71.2826 176.304 71.2826 180.192C71.2826 184.272 73.0106 186.336 76.0106 186.336ZM76.5626 184.704C74.4506 184.704 73.3706 183.312 73.3706 180.216C73.3706 177.456 74.1626 175.584 76.5626 175.584C77.3546 175.584 78.4106 175.824 79.2746 176.16V184.008C78.4346 184.416 77.4026 184.704 76.5626 184.704ZM85.6171 172.008H85.7371C86.4571 172.008 86.9131 171.648 86.9131 170.736V170.688C86.9131 169.776 86.4571 169.416 85.7371 169.416H85.6171C84.8971 169.416 84.4411 169.776 84.4411 170.688V170.736C84.4411 171.648 84.8971 172.008 85.6171 172.008ZM84.6811 186H86.6731V174.24H84.6811V186ZM93.1666 186.336C95.9986 186.336 97.9186 185.232 97.9186 182.736C97.9186 178.536 91.3666 179.784 91.3666 177.144C91.3666 176.04 92.2546 175.488 93.9346 175.488C94.8946 175.488 95.9746 175.632 97.0306 175.872L97.1986 174.408C96.2626 174.12 94.9426 173.904 93.7666 173.904C91.2706 173.904 89.4946 175.008 89.4946 177.288C89.4946 181.608 96.0466 180.24 96.0466 182.88C96.0466 184.08 95.0146 184.728 93.0946 184.728C92.0626 184.728 90.7666 184.56 89.8066 184.296L89.7106 185.832C90.5986 186.12 92.0386 186.336 93.1666 186.336ZM101.527 186H103.519V175.704H106.615V174.24H103.519V172.608C103.519 171.528 103.639 170.952 103.999 170.568C104.335 170.208 104.887 170.04 105.751 170.04C106.231 170.04 106.951 170.088 107.431 170.136V168.624C106.855 168.504 106.015 168.432 105.463 168.432C104.071 168.432 103.039 168.792 102.391 169.536C101.815 170.208 101.527 171.192 101.527 172.656V174.264L99.3907 174.576V175.704H101.527V186ZM108.399 186H110.391V176.496C111.231 175.968 112.215 175.704 113.247 175.704C113.583 175.704 114.015 175.728 114.279 175.752V173.976C114.015 173.928 113.727 173.904 113.511 173.904C112.479 173.904 111.303 174.312 110.175 175.248L110.055 174.24H108.399V186ZM120.138 186.336C121.506 186.336 122.922 185.88 124.146 185.136L124.242 186H125.898V174.24H123.906V183.816C122.946 184.272 121.722 184.584 120.666 184.584C119.802 184.584 119.178 184.392 118.77 183.984C118.362 183.576 118.194 183 118.194 181.992V174.24H116.202V182.232C116.202 183.696 116.538 184.656 117.186 185.304C117.858 186 118.866 186.336 120.138 186.336ZM133.338 186.336C134.202 186.336 135.138 186.192 135.762 186.024L135.666 184.56C135.09 184.68 134.298 184.752 133.89 184.752C133.05 184.752 132.642 184.584 132.378 184.296C132.042 183.936 131.97 183.36 131.97 182.232V175.704H135.066V174.24H131.97V171.12C131.346 171.12 130.554 171.288 129.978 171.48V174.264L127.842 174.576V175.704H129.978V182.496C129.978 183.96 130.146 184.752 130.722 185.424C131.25 186.024 132.186 186.336 133.338 186.336ZM141.408 186.336C142.824 186.336 144.072 185.88 145.104 185.208L145.224 186H146.832V178.176C146.832 176.64 146.544 175.704 145.8 174.984C145.056 174.288 143.88 173.904 142.128 173.904C141 173.904 139.656 174.048 138.552 174.312L138.624 175.848C139.776 175.656 140.904 175.56 141.792 175.56C142.968 175.56 143.736 175.776 144.24 176.256C144.672 176.688 144.84 177.288 144.84 178.248V178.992H142.392C140.688 178.992 139.296 179.304 138.408 180.12C137.784 180.696 137.4 181.56 137.4 182.664C137.4 183.768 137.76 184.608 138.336 185.208C139.056 185.952 140.136 186.336 141.408 186.336ZM141.84 184.728C140.304 184.728 139.416 184.032 139.416 182.616C139.416 181.896 139.656 181.392 140.064 181.056C140.616 180.624 141.456 180.456 142.68 180.456H144.84V183.96C143.976 184.392 142.8 184.728 141.84 184.728ZM155.364 186H158.796V168.84H155.364V186ZM167.113 186.336C171.193 186.336 173.089 183.888 173.089 180.12C173.089 176.352 171.193 173.904 167.113 173.904C163.033 173.904 161.137 176.352 161.137 180.12C161.137 183.888 163.033 186.336 167.113 186.336ZM167.113 183.72C165.385 183.72 164.713 182.544 164.713 180.12C164.713 177.696 165.385 176.52 167.113 176.52C168.841 176.52 169.513 177.696 169.513 180.12C169.513 182.544 168.841 183.72 167.113 183.72ZM180.768 186H184.2V177.144C184.776 176.928 185.64 176.76 186.24 176.76C186.864 176.76 187.368 176.856 187.68 177.144C187.92 177.384 188.04 177.72 188.04 178.32V186H191.472V177.912C191.472 177.624 191.448 177.336 191.424 177.072C192 176.904 192.84 176.76 193.416 176.76C194.112 176.76 194.592 176.856 194.904 177.144C195.144 177.384 195.264 177.72 195.264 178.32V186H198.696V177.912C198.696 176.544 198.408 175.512 197.688 174.816C197.04 174.168 195.888 173.904 194.856 173.904C193.584 173.904 192.072 174.264 190.752 175.152C190.152 174.312 189.072 173.904 187.632 173.904C186.408 173.904 185.088 174.24 183.816 175.08L183.744 174.24H180.768V186ZM207.366 186.336C208.83 186.336 210.198 186.144 211.326 185.928L211.062 183.432C210.174 183.6 208.974 183.72 208.134 183.72C205.83 183.72 204.606 183.168 204.51 181.176H211.734C211.926 181.176 212.022 181.104 212.022 180.912V179.832C212.022 175.752 210.15 173.904 206.622 173.904C203.022 173.904 200.91 176.016 200.91 180.144C200.91 182.016 201.318 183.696 202.494 184.824C203.502 185.784 205.158 186.336 207.366 186.336ZM204.51 178.944C204.582 177.432 205.206 176.496 206.598 176.496C207.966 176.496 208.662 177.456 208.662 178.944H204.51ZM215.894 172.272H216.062C217.238 172.272 217.862 171.816 217.862 170.64V170.328C217.862 169.152 217.238 168.672 216.062 168.672H215.894C214.718 168.672 214.094 169.152 214.094 170.328V170.64C214.094 171.816 214.718 172.272 215.894 172.272ZM212.246 191.688C216.518 191.688 217.694 189.6 217.694 185.448V174.24H214.262V186.672C214.262 187.512 214.142 188.16 213.71 188.568C213.35 188.928 212.558 189.12 211.718 189.12C211.334 189.12 210.926 189.096 210.614 189.072L210.95 191.64C211.358 191.664 211.79 191.688 212.246 191.688ZM226.011 186.336C230.091 186.336 231.987 183.888 231.987 180.12C231.987 176.352 230.091 173.904 226.011 173.904C221.931 173.904 220.035 176.352 220.035 180.12C220.035 183.888 221.931 186.336 226.011 186.336ZM226.011 183.72C224.283 183.72 223.611 182.544 223.611 180.12C223.611 177.696 224.283 176.52 226.011 176.52C227.739 176.52 228.411 177.696 228.411 180.12C228.411 182.544 227.739 183.72 226.011 183.72ZM234.276 186H237.708V177.168C238.452 177 239.148 176.88 240.06 176.88C240.612 176.88 241.188 176.928 241.572 176.976V173.976C241.428 173.952 241.164 173.928 240.972 173.928C239.844 173.928 238.284 174.36 237.372 175.2L237.252 174.24H234.276V186ZM252.624 186.336C254.064 186.336 255.336 185.832 256.344 185.16L256.416 186H259.392V168.84H255.96V174.768C255.048 174.216 253.872 173.904 252.84 173.904C250.032 173.904 248.184 176.232 248.184 180.144C248.184 182.448 248.712 184.248 249.816 185.328C250.488 185.976 251.472 186.336 252.624 186.336ZM253.92 183.648C252.36 183.648 251.784 182.856 251.784 180.24C251.784 177.408 252.72 176.616 254.328 176.616C254.76 176.616 255.432 176.712 255.96 176.88V183.24C255.36 183.48 254.472 183.648 253.92 183.648ZM268.116 186.336C269.58 186.336 270.948 186.144 272.076 185.928L271.812 183.432C270.924 183.6 269.724 183.72 268.884 183.72C266.58 183.72 265.356 183.168 265.26 181.176H272.484C272.676 181.176 272.772 181.104 272.772 180.912V179.832C272.772 175.752 270.9 173.904 267.372 173.904C263.772 173.904 261.66 176.016 261.66 180.144C261.66 182.016 262.068 183.696 263.244 184.824C264.252 185.784 265.908 186.336 268.116 186.336ZM265.26 178.944C265.332 177.432 265.956 176.496 267.348 176.496C268.716 176.496 269.412 177.456 269.412 178.944H265.26ZM275.012 186H278.444V168.84H275.012V186ZM287.688 186H291.12V176.472H293.904V174.24H291.12V172.824C291.12 171.984 291.24 171.648 291.456 171.432C291.768 171.12 292.248 171 293.064 171C293.568 171 294.192 171.072 294.672 171.144V168.696C293.856 168.528 293.064 168.432 292.176 168.432C290.544 168.432 289.32 168.84 288.672 169.512C287.976 170.232 287.688 171.192 287.688 172.632V174.264L285.672 174.624V176.472H287.688V186ZM299.097 172.584L303.969 169.296L302.289 167.016L297.897 171.096L299.097 172.584ZM299.169 186.312C300.369 186.312 301.833 186 303.105 185.208L303.201 186H306.177V174.24H302.745V183.12C302.169 183.312 301.209 183.456 300.609 183.456C299.913 183.456 299.433 183.36 299.121 183.072C298.881 182.832 298.761 182.424 298.761 181.824V174.24H295.329V182.304C295.329 183.672 295.617 184.704 296.337 185.4C296.985 186.048 298.137 186.312 299.169 186.312ZM313.673 186.336C314.705 186.336 315.905 186.216 316.673 186.048L316.553 183.624C316.145 183.672 315.377 183.768 314.897 183.768C313.505 183.768 313.241 183.288 313.241 181.968V176.472H316.289V174.24H313.241V171.12C312.137 171.12 310.841 171.312 309.809 171.624V174.24L307.817 174.6V176.472H309.809V182.448C309.809 185.04 310.745 186.336 313.673 186.336ZM325.202 186.336C326.666 186.336 327.722 185.904 328.538 184.968C329.402 183.984 329.858 182.184 329.858 180.072C329.858 175.512 328.034 173.904 325.37 173.904C324.242 173.904 322.946 174.216 322.13 174.696V168.84H318.698V186H321.53L321.698 185.256C322.682 185.904 323.978 186.336 325.202 186.336ZM324.17 183.648C323.498 183.648 322.682 183.384 322.13 183.072V176.976C322.682 176.76 323.426 176.664 324.17 176.664C325.61 176.664 326.258 177.312 326.258 180.12C326.258 182.76 325.73 183.648 324.17 183.648ZM337.504 186.336C341.584 186.336 343.48 183.888 343.48 180.12C343.48 176.352 341.584 173.904 337.504 173.904C333.424 173.904 331.528 176.352 331.528 180.12C331.528 183.888 333.424 186.336 337.504 186.336ZM337.504 183.72C335.776 183.72 335.104 182.544 335.104 180.12C335.104 177.696 335.776 176.52 337.504 176.52C339.232 176.52 339.904 177.696 339.904 180.12C339.904 182.544 339.232 183.72 337.504 183.72ZM345.84 186H349.272V168.84H345.84V186Z" fill="#0B2739"/>
</svg>
