<svg width="179" height="65" viewBox="0 0 179 65" fill="none" xmlns="http://www.w3.org/2000/svg">
<path d="M33.9661 51.6804C38.3761 51.6804 41.3011 50.7804 43.4611 48.7554C45.0811 47.2254 46.0261 45.0204 46.0261 42.2754C46.0261 30.2604 30.3211 34.4004 30.3211 28.3704C30.3211 26.4354 31.5361 25.0854 35.3161 25.0854C37.4761 25.0854 40.1761 25.4904 42.6961 26.1654L43.7761 20.9454C41.3911 20.1354 38.1511 19.6854 35.1811 19.6854C28.6111 19.6854 23.7061 22.4304 23.7061 28.6854C23.7061 40.7904 39.4111 36.6054 39.4111 42.3654C39.4111 45.2004 37.4761 46.2804 33.3361 46.2804C31.0861 46.2804 27.5311 45.6954 24.8311 44.7504L23.7511 50.1054C26.8561 51.1854 30.0511 51.6804 33.9661 51.6804ZM44.7591 51.6804H50.4741L64.0191 19.6854H58.3041L44.7591 51.6804ZM76.2352 51.0504H82.6702V43.9854H86.2702V39.1704H82.6702V31.8354H76.2352V39.1704H69.1252L76.0552 20.2704H69.8452L63.4552 37.7304C62.7352 39.7104 62.5102 41.1504 62.5102 42.4104C62.5102 42.9954 62.6002 43.6704 62.6902 43.9854H76.2352V51.0504ZM100.068 51.0504H106.503V43.9854H110.103V39.1704H106.503V31.8354H100.068V39.1704H92.9576L99.8876 20.2704H93.6776L87.2876 37.7304C86.5676 39.7104 86.3426 41.1504 86.3426 42.4104C86.3426 42.9954 86.4326 43.6704 86.5226 43.9854H100.068V51.0504Z" fill="#019DF4"/>
<path d="M41.9148 50.302L42.2849 50.6969L42.2864 50.6955L41.9148 50.302ZM41.1498 27.712L41.0097 28.2348L41.5636 28.3832L41.6798 27.8217L41.1498 27.712ZM42.2298 22.492L42.7598 22.6017L42.8567 22.1334L42.4038 21.9796L42.2298 22.492ZM23.2848 46.297L23.4636 45.7862L22.8771 45.5809L22.7542 46.19L23.2848 46.297ZM22.2048 51.652L21.6742 51.545L21.5808 52.0081L22.027 52.1632L22.2048 51.652ZM32.4198 53.7683C36.901 53.7683 39.9849 52.8531 42.2849 50.6969L41.5446 49.9072C39.5246 51.801 36.7585 52.6858 32.4198 52.6858V53.7683ZM42.2864 50.6955C44.0274 49.0513 45.021 46.6975 45.021 43.822H43.9385C43.9385 46.4366 43.0421 48.4928 41.5431 49.9086L42.2864 50.6955ZM45.021 43.822C45.021 40.6836 43.988 38.5428 42.3982 37.0357C40.8319 35.5509 38.7685 34.7241 36.7879 34.1083C35.7991 33.8009 34.7976 33.5369 33.8927 33.2782C32.9752 33.0159 32.1466 32.7565 31.4466 32.4486C30.7444 32.1397 30.2113 31.7988 29.8557 31.3952C29.5129 31.0062 29.316 30.5385 29.316 29.917H28.2335C28.2335 30.8031 28.5274 31.525 29.0435 32.1108C29.5467 32.6819 30.2406 33.1007 31.0108 33.4394C31.783 33.7791 32.6722 34.0551 33.5952 34.3189C34.5306 34.5864 35.4923 34.8391 36.4666 35.142C38.4123 35.7469 40.2751 36.5147 41.6535 37.8213C43.0084 39.1057 43.9385 40.953 43.9385 43.822H45.021ZM29.316 29.917C29.316 29.0731 29.573 28.4346 30.1785 27.9827C30.8174 27.5058 31.9262 27.1733 33.7698 27.1733V26.0908C31.8333 26.0908 30.4447 26.4333 29.531 27.1152C28.584 27.822 28.2335 28.826 28.2335 29.917H29.316ZM33.7698 27.1733C35.8719 27.1733 38.5239 27.569 41.0097 28.2348L41.2898 27.1892C38.7356 26.5051 35.9876 26.0908 33.7698 26.0908V27.1733ZM41.6798 27.8217L42.7598 22.6017L41.6998 22.3824L40.6198 27.6024L41.6798 27.8217ZM42.4038 21.9796C39.9496 21.1461 36.6483 20.6908 33.6348 20.6908V21.7733C36.5612 21.7733 39.7399 22.218 42.0557 23.0045L42.4038 21.9796ZM33.6348 20.6908C30.2862 20.6908 27.291 21.3886 25.1181 22.9466C22.9192 24.5233 21.6185 26.9424 21.6185 30.232H22.701C22.701 27.2667 23.8529 25.1858 25.7489 23.8263C27.671 22.448 30.4133 21.7733 33.6348 21.7733V20.6908ZM21.6185 30.232C21.6185 33.3915 22.6504 35.5465 24.2407 37.0586C25.8081 38.5489 27.8728 39.3701 29.8556 39.9695C30.8474 40.2693 31.8462 40.521 32.7543 40.7666C33.6733 41.015 34.503 41.2581 35.2046 41.5472C35.9092 41.8376 36.441 42.1575 36.7941 42.5361C37.1322 42.8986 37.3235 43.332 37.3235 43.912H38.406C38.406 43.052 38.1066 42.3563 37.5857 41.7978C37.08 41.2555 36.3848 40.8628 35.6171 40.5464C34.8463 40.2288 33.9584 39.9708 33.0369 39.7216C32.1046 39.4696 31.1403 39.227 30.1689 38.9333C28.2255 38.3459 26.3639 37.5837 24.9866 36.2741C23.6322 34.9863 22.701 33.1251 22.701 30.232H21.6185ZM37.3235 43.912C37.3235 45.1851 36.9032 45.9684 36.0934 46.4734C35.2265 47.014 33.837 47.2858 31.7898 47.2858V48.3683C33.8825 48.3683 35.5305 48.1001 36.6661 47.3919C37.8588 46.6482 38.406 45.474 38.406 43.912H37.3235ZM31.7898 47.2858C29.6044 47.2858 26.1098 46.7124 23.4636 45.7862L23.106 46.8079C25.8597 47.7717 29.4751 48.3683 31.7898 48.3683V47.2858ZM22.7542 46.19L21.6742 51.545L22.7353 51.759L23.8153 46.404L22.7542 46.19ZM22.027 52.1632C25.1985 53.2664 28.4551 53.7683 32.4198 53.7683V52.6858C28.5544 52.6858 25.421 52.1977 22.3826 51.1409L22.027 52.1632ZM43.2127 53.227L42.7143 53.016L42.3959 53.7683H43.2127V53.227ZM48.9277 53.227V53.7683H49.2863L49.4261 53.438L48.9277 53.227ZM62.4727 21.232L62.9711 21.443L63.2896 20.6908H62.4727V21.232ZM56.7577 21.232V20.6908H56.3991L56.2593 21.021L56.7577 21.232ZM43.2127 53.7683H48.9277V52.6858H43.2127V53.7683ZM49.4261 53.438L62.9711 21.443L61.9743 21.021L48.4293 53.016L49.4261 53.438ZM62.4727 20.6908H56.7577V21.7733H62.4727V20.6908ZM56.2593 21.021L42.7143 53.016L43.7111 53.438L57.2561 21.443L56.2593 21.021ZM74.6888 52.597H74.1476V53.1383H74.6888V52.597ZM81.1238 52.597V53.1383H81.665V52.597H81.1238ZM81.1238 45.532V44.9908H80.5826V45.532H81.1238ZM84.7238 45.532V46.0733H85.265V45.532H84.7238ZM84.7238 40.717H85.265V40.1758H84.7238V40.717ZM81.1238 40.717H80.5826V41.2583H81.1238V40.717ZM81.1238 33.382H81.665V32.8408H81.1238V33.382ZM74.6888 33.382V32.8408H74.1476V33.382H74.6888ZM74.6888 40.717V41.2583H75.23V40.717H74.6888ZM67.5788 40.717L67.0707 40.5307L66.8039 41.2583H67.5788V40.717ZM74.5088 21.817L75.017 22.0034L75.2837 21.2758H74.5088V21.817ZM68.2988 21.817V21.2758H67.9206L67.7906 21.631L68.2988 21.817ZM61.9088 39.277L61.4006 39.091L61.4002 39.0921L61.9088 39.277ZM61.1438 45.532L60.6234 45.6807L60.7356 46.0733H61.1438V45.532ZM74.6888 45.532H75.23V44.9908H74.6888V45.532ZM74.6888 53.1383H81.1238V52.0558H74.6888V53.1383ZM81.665 52.597V45.532H80.5826V52.597H81.665ZM81.1238 46.0733H84.7238V44.9908H81.1238V46.0733ZM85.265 45.532V40.717H84.1826V45.532H85.265ZM84.7238 40.1758H81.1238V41.2583H84.7238V40.1758ZM81.665 40.717V33.382H80.5826V40.717H81.665ZM81.1238 32.8408H74.6888V33.9233H81.1238V32.8408ZM74.1476 33.382V40.717H75.23V33.382H74.1476ZM74.6888 40.1758H67.5788V41.2583H74.6888V40.1758ZM68.087 40.9034L75.017 22.0034L74.0007 21.6307L67.0707 40.5307L68.087 40.9034ZM74.5088 21.2758H68.2988V22.3583H74.5088V21.2758ZM67.7906 21.631L61.4006 39.091L62.4171 39.4631L68.8071 22.0031L67.7906 21.631ZM61.4002 39.0921C60.6624 41.121 60.4226 42.6238 60.4226 43.957H61.505C61.505 42.7703 61.7152 41.3931 62.4175 39.462L61.4002 39.0921ZM60.4226 43.957C60.4226 44.577 60.5159 45.3045 60.6234 45.6807L61.6642 45.3834C61.5917 45.1296 61.505 44.5071 61.505 43.957H60.4226ZM61.1438 46.0733H74.6888V44.9908H61.1438V46.0733ZM74.1476 45.532V52.597H75.23V45.532H74.1476ZM98.5212 52.597H97.98V53.1383H98.5212V52.597ZM104.956 52.597V53.1383H105.497V52.597H104.956ZM104.956 45.532V44.9908H104.415V45.532H104.956ZM108.556 45.532V46.0733H109.097V45.532H108.556ZM108.556 40.717H109.097V40.1758H108.556V40.717ZM104.956 40.717H104.415V41.2583H104.956V40.717ZM104.956 33.382H105.497V32.8408H104.956V33.382ZM98.5212 33.382V32.8408H97.98V33.382H98.5212ZM98.5212 40.717V41.2583H99.0625V40.717H98.5212ZM91.4112 40.717L90.9031 40.5307L90.6363 41.2583H91.4112V40.717ZM98.3412 21.817L98.8494 22.0034L99.1161 21.2758H98.3412V21.817ZM92.1312 21.817V21.2758H91.753L91.623 21.631L92.1312 21.817ZM85.7412 39.277L85.233 39.091L85.2326 39.0921L85.7412 39.277ZM84.9762 45.532L84.4558 45.6807L84.568 46.0733H84.9762V45.532ZM98.5212 45.532H99.0625V44.9908H98.5212V45.532ZM98.5212 53.1383H104.956V52.0558H98.5212V53.1383ZM105.497 52.597V45.532H104.415V52.597H105.497ZM104.956 46.0733H108.556V44.9908H104.956V46.0733ZM109.097 45.532V40.717H108.015V45.532H109.097ZM108.556 40.1758H104.956V41.2583H108.556V40.1758ZM105.497 40.717V33.382H104.415V40.717H105.497ZM104.956 32.8408H98.5212V33.9233H104.956V32.8408ZM97.98 33.382V40.717H99.0625V33.382H97.98ZM98.5212 40.1758H91.4112V41.2583H98.5212V40.1758ZM91.9194 40.9034L98.8494 22.0034L97.8331 21.6307L90.9031 40.5307L91.9194 40.9034ZM98.3412 21.2758H92.1312V22.3583H98.3412V21.2758ZM91.623 21.631L85.233 39.091L86.2495 39.4631L92.6395 22.0031L91.623 21.631ZM85.2326 39.0921C84.4948 41.121 84.255 42.6238 84.255 43.957H85.3375C85.3375 42.7703 85.5477 41.3931 86.2499 39.462L85.2326 39.0921ZM84.255 43.957C84.255 44.577 84.3484 45.3045 84.4558 45.6807L85.4966 45.3834C85.4241 45.1296 85.3375 44.5071 85.3375 43.957H84.255ZM84.9762 46.0733H98.5212V44.9908H84.9762V46.0733ZM97.98 45.532V52.597H99.0625V45.532H97.98Z" fill="#019DF4"/>
<path d="M117.552 37.3081H117.706C118.762 37.3081 119.312 36.8901 119.312 35.7901V35.5261C119.312 34.4261 118.762 34.0081 117.706 34.0081H117.552C116.496 34.0081 115.946 34.4261 115.946 35.5261V35.7901C115.946 36.8901 116.496 37.3081 117.552 37.3081ZM123.014 37.0001H126.38L130.604 25.0101C130.868 24.2841 130.956 23.5581 130.956 22.8541C130.956 22.5241 130.912 22.1281 130.802 21.9521H120.99V24.1961H128.008L123.014 37.0001ZM132.927 37.0001H142.519V34.7561H136.447L139.065 31.8961C141.441 29.3001 142.277 27.8701 142.277 26.0001C142.277 24.7461 141.903 23.7781 141.199 23.0741C140.275 22.1501 138.845 21.6661 136.689 21.6661C135.457 21.6661 134.071 21.8641 133.191 22.0841V24.4161C134.137 24.2401 135.281 24.1301 136.139 24.1301C137.217 24.1301 137.965 24.3061 138.427 24.7021C138.823 25.0321 139.021 25.5161 139.021 26.1541C139.021 27.4081 138.317 28.3981 136.645 30.4221L133.719 33.9861C133.081 34.7561 132.839 35.3721 132.839 36.2961C132.839 36.5381 132.861 36.8241 132.927 37.0001Z" fill="#019DF4"/>
<path d="M116.552 38.7264H116.706V37.8899H116.552V38.7264ZM116.706 38.7264C117.276 38.7264 117.803 38.6158 118.184 38.2728C118.576 37.9212 118.73 37.4043 118.73 36.7901H117.894C117.894 37.276 117.773 37.5181 117.626 37.6504C117.468 37.7915 117.192 37.8899 116.706 37.8899V38.7264ZM118.73 36.7901V36.5261H117.894V36.7901H118.73ZM118.73 36.5261C118.73 35.912 118.576 35.3951 118.184 35.0434C117.803 34.7005 117.276 34.5899 116.706 34.5899V35.4264C117.192 35.4264 117.468 35.5248 117.626 35.6658C117.773 35.7982 117.894 36.0403 117.894 36.5261H118.73ZM116.706 34.5899H116.552V35.4264H116.706V34.5899ZM116.552 34.5899C115.982 34.5899 115.455 34.7005 115.074 35.0434C114.682 35.3951 114.528 35.912 114.528 36.5261H115.364C115.364 36.0403 115.485 35.7982 115.632 35.6658C115.79 35.5248 116.066 35.4264 116.552 35.4264V34.5899ZM114.528 36.5261V36.7901H115.364V36.5261H114.528ZM114.528 36.7901C114.528 37.4043 114.682 37.9212 115.074 38.2728C115.455 38.6158 115.982 38.7264 116.552 38.7264V37.8899C116.066 37.8899 115.79 37.7915 115.632 37.6504C115.485 37.5181 115.364 37.276 115.364 36.7901H114.528ZM122.014 38.0001L121.624 37.8481L121.402 38.4184H122.014V38.0001ZM125.38 38.0001V38.4184H125.676L125.774 38.1391L125.38 38.0001ZM129.604 26.0101L129.211 25.8672L129.209 25.8711L129.604 26.0101ZM129.802 22.9521L130.156 22.7304L130.033 22.5339H129.802V22.9521ZM119.99 22.9521V22.5339H119.571V22.9521H119.99ZM119.99 25.1961H119.571V25.6144H119.99V25.1961ZM127.008 25.1961L127.397 25.3481L127.62 24.7779H127.008V25.1961ZM122.014 38.4184H125.38V37.5819H122.014V38.4184ZM125.774 38.1391L129.998 26.1491L129.209 25.8711L124.985 37.8611L125.774 38.1391ZM129.997 26.1531C130.282 25.3699 130.374 24.5931 130.374 23.8541H129.537C129.537 24.5232 129.454 25.1984 129.211 25.8672L129.997 26.1531ZM130.374 23.8541C130.374 23.6728 130.362 23.4696 130.333 23.2823C130.307 23.1102 130.259 22.895 130.156 22.7304L129.447 23.1738C129.447 23.173 129.457 23.1908 129.471 23.2383C129.484 23.2827 129.496 23.34 129.506 23.4084C129.527 23.5456 129.537 23.7055 129.537 23.8541H130.374ZM129.802 22.5339H119.99V23.3704H129.802V22.5339ZM119.571 22.9521V25.1961H120.408V22.9521H119.571ZM119.99 25.6144H127.008V24.7779H119.99V25.6144ZM126.618 25.0441L121.624 37.8481L122.403 38.1521L127.397 25.3481L126.618 25.0441ZM131.927 38.0001L131.535 38.147L131.637 38.4184H131.927V38.0001ZM141.519 38.0001V38.4184H141.937V38.0001H141.519ZM141.519 35.7561H141.937V35.3379H141.519V35.7561ZM135.447 35.7561L135.139 35.4737L134.497 36.1744H135.447V35.7561ZM138.065 32.8961L138.374 33.1785L138.374 33.1785L138.065 32.8961ZM132.191 23.0841L132.09 22.6783L131.773 22.7576V23.0841H132.191ZM132.191 25.4161H131.773V25.9194L132.268 25.8273L132.191 25.4161ZM137.427 25.7021L137.155 26.0197L137.159 26.0234L137.427 25.7021ZM135.645 31.4221L135.323 31.1557L135.322 31.1567L135.645 31.4221ZM132.719 34.9861L133.041 35.253L133.042 35.2515L132.719 34.9861ZM131.927 38.4184H141.519V37.5819H131.927V38.4184ZM141.937 38.0001V35.7561H141.101V38.0001H141.937ZM141.519 35.3379H135.447V36.1744H141.519V35.3379ZM135.756 36.0385L138.374 33.1785L137.757 32.6137L135.139 35.4737L135.756 36.0385ZM138.374 33.1785C140.757 30.5747 141.695 29.0409 141.695 27.0001H140.859C140.859 28.6994 140.125 30.0256 137.757 32.6137L138.374 33.1785ZM141.695 27.0001C141.695 25.6577 141.292 24.5754 140.495 23.7784L139.903 24.3699C140.514 24.9808 140.859 25.8345 140.859 27.0001H141.695ZM140.495 23.7784C139.46 22.7436 137.9 22.2479 135.689 22.2479V23.0844C137.79 23.0844 139.09 23.5566 139.903 24.3699L140.495 23.7784ZM135.689 22.2479C134.421 22.2479 133.001 22.4505 132.09 22.6783L132.293 23.4899C133.141 23.2778 134.493 23.0844 135.689 23.0844V22.2479ZM131.773 23.0841V25.4161H132.609V23.0841H131.773ZM132.268 25.8273C133.191 25.6555 134.309 25.5484 135.139 25.5484V24.7119C134.253 24.7119 133.083 24.8247 132.115 25.0049L132.268 25.8273ZM135.139 25.5484C136.194 25.5484 136.812 25.7256 137.155 26.0197L137.699 25.3846C137.118 24.8867 136.24 24.7119 135.139 24.7119V25.5484ZM137.159 26.0234C137.438 26.2554 137.603 26.608 137.603 27.1541H138.439C138.439 26.4242 138.208 25.8088 137.695 25.3808L137.159 26.0234ZM137.603 27.1541C137.603 28.2301 137.02 29.1012 135.323 31.1557L135.968 31.6885C137.614 29.695 138.439 28.5862 138.439 27.1541H137.603ZM135.322 31.1567L132.396 34.7207L133.042 35.2515L135.968 31.6875L135.322 31.1567ZM132.397 34.7193C132.06 35.1261 131.811 35.5118 131.649 35.9336C131.487 36.3577 131.421 36.7955 131.421 37.2961H132.257C132.257 36.8727 132.312 36.5406 132.43 36.2331C132.549 35.9234 132.74 35.6162 133.041 35.253L132.397 34.7193ZM131.421 37.2961C131.421 37.542 131.441 37.8945 131.535 38.147L132.319 37.8533C132.281 37.7538 132.257 37.5343 132.257 37.2961H131.421Z" fill="#019DF4"/>
<path d="M37.5806 10.0001H38.8906V6.02012L40.3506 8.44012H41.5506L42.9706 6.06012V10.0001H44.4006V3.16012H43.2006L40.9706 6.98012L38.8106 3.16012H37.5806V10.0001ZM46.4514 4.28012H46.5214C47.0114 4.28012 47.2714 4.09012 47.2714 3.60012V3.47012C47.2714 2.98012 47.0114 2.78012 46.5214 2.78012H46.4514C45.9614 2.78012 45.7014 2.98012 45.7014 3.47012V3.60012C45.7014 4.09012 45.9614 4.28012 46.4514 4.28012ZM45.7714 10.0001H47.2014V5.10012H45.7714V10.0001ZM50.5069 12.3901H50.5869C52.3469 12.3901 53.0769 11.7901 53.0769 10.7701C53.0769 10.3001 52.9569 9.98012 52.7169 9.73012C52.3669 9.37012 51.8069 9.21012 50.8669 9.21012H49.9069C49.8069 9.21012 49.7669 9.17012 49.7669 9.08012C49.7669 9.01012 49.8069 8.85012 49.8969 8.69012C50.0969 8.72012 50.3069 8.73012 50.5369 8.73012C51.9169 8.73012 52.7369 8.15012 52.7369 6.84012C52.7369 6.06012 52.4169 5.55012 51.8969 5.26012L52.6069 4.27012C52.3169 4.05012 51.8769 3.86012 51.4969 3.77012L51.0169 4.99012C50.8569 4.97012 50.6969 4.96012 50.5369 4.96012C49.1569 4.96012 48.3269 5.54012 48.3269 6.84012C48.3269 7.58012 48.6169 8.08012 49.0769 8.38012C48.6669 8.72012 48.4269 9.16012 48.4269 9.57012C48.4269 9.85012 48.5069 10.0701 48.6769 10.2101C48.3269 10.3901 48.0969 10.7001 48.0969 11.1001C48.0969 11.9801 48.8169 12.3901 50.5069 12.3901ZM50.5369 7.71012C49.8769 7.71012 49.6169 7.41012 49.6169 6.84012C49.6169 6.28012 49.8769 5.98012 50.5369 5.98012C51.1869 5.98012 51.4469 6.28012 51.4469 6.84012C51.4469 7.41012 51.1869 7.71012 50.5369 7.71012ZM50.5469 11.3101C49.6369 11.3101 49.3669 11.1301 49.3669 10.7701C49.3669 10.6501 49.3969 10.5201 49.5069 10.4001H50.9369C51.5969 10.4001 51.7969 10.5101 51.7969 10.8301C51.7969 11.1401 51.4169 11.3101 50.6969 11.3101H50.5469ZM53.8371 10.0001H55.2671V6.32012C55.5771 6.25012 55.8671 6.20012 56.2471 6.20012C56.4771 6.20012 56.7171 6.22012 56.8771 6.24012V4.99012C56.8171 4.98012 56.7071 4.97012 56.6271 4.97012C56.1571 4.97012 55.5071 5.15012 55.1271 5.50012L55.0771 5.10012H53.8371V10.0001ZM58.9778 10.1401C59.4978 10.1401 60.0278 9.97012 60.4478 9.70012L60.5678 10.0001H61.6978V6.82012C61.6978 6.23012 61.5678 5.81012 61.3178 5.52012C60.9778 5.12012 60.3078 4.96012 59.5578 4.96012C58.9678 4.96012 58.3178 5.04012 57.8178 5.14012L57.8878 6.19012C58.2278 6.12012 58.7978 6.06012 59.2578 6.06012C59.6478 6.06012 59.9178 6.11012 60.0878 6.26012C60.2078 6.37012 60.2678 6.54012 60.2678 6.81012V6.97012H59.4878C58.5778 6.97012 58.0378 7.09012 57.6878 7.42012C57.4078 7.69012 57.2578 8.09012 57.2578 8.53012C57.2578 9.48012 57.8578 10.1401 58.9778 10.1401ZM59.3878 9.05012C58.8678 9.05012 58.6878 8.83012 58.6878 8.47012C58.6878 8.29012 58.7378 8.15012 58.8278 8.06012C58.9578 7.93012 59.1678 7.89012 59.5078 7.89012H60.2678V8.90012C60.0378 8.97012 59.6578 9.05012 59.3878 9.05012ZM66.5364 10.1401C67.0564 10.1401 67.5864 9.97012 68.0064 9.70012L68.1264 10.0001H69.2564V6.82012C69.2564 6.23012 69.1264 5.81012 68.8764 5.52012C68.5364 5.12012 67.8664 4.96012 67.1164 4.96012C66.5264 4.96012 65.8764 5.04012 65.3764 5.14012L65.4464 6.19012C65.7864 6.12012 66.3564 6.06012 66.8164 6.06012C67.2064 6.06012 67.4764 6.11012 67.6464 6.26012C67.7664 6.37012 67.8264 6.54012 67.8264 6.81012V6.97012H67.0464C66.1364 6.97012 65.5964 7.09012 65.2464 7.42012C64.9664 7.69012 64.8164 8.09012 64.8164 8.53012C64.8164 9.48012 65.4164 10.1401 66.5364 10.1401ZM66.9464 9.05012C66.4264 9.05012 66.2464 8.83012 66.2464 8.47012C66.2464 8.29012 66.2964 8.15012 66.3864 8.06012C66.5164 7.93012 66.7264 7.89012 67.0664 7.89012H67.8264V8.90012C67.5964 8.97012 67.2164 9.05012 66.9464 9.05012ZM70.4289 10.0001H71.8589V6.31012C72.0889 6.22012 72.5189 6.15012 72.7889 6.15012C73.0789 6.15012 73.2789 6.19012 73.4089 6.31012C73.5089 6.41012 73.5589 6.55012 73.5589 6.80012V10.0001H74.9889V6.63012C74.9889 6.06012 74.8689 5.63012 74.5689 5.34012C74.2989 5.07012 73.8189 4.96012 73.3889 4.96012C72.9189 4.96012 72.3589 5.08012 71.8589 5.36012V2.85012H70.4289V10.0001ZM78.4013 10.1401C80.1013 10.1401 80.8913 9.12012 80.8913 7.55012C80.8913 5.98012 80.1013 4.96012 78.4013 4.96012C76.7013 4.96012 75.9113 5.98012 75.9113 7.55012C75.9113 9.12012 76.7013 10.1401 78.4013 10.1401ZM78.4013 9.05012C77.6813 9.05012 77.4013 8.56012 77.4013 7.55012C77.4013 6.54012 77.6813 6.05012 78.4013 6.05012C79.1213 6.05012 79.4013 6.54012 79.4013 7.55012C79.4013 8.56012 79.1213 9.05012 78.4013 9.05012ZM81.8449 10.0001H83.2749V6.32012C83.5849 6.25012 83.8749 6.20012 84.2549 6.20012C84.4849 6.20012 84.7249 6.22012 84.8849 6.24012V4.99012C84.8249 4.98012 84.7149 4.97012 84.6349 4.97012C84.1649 4.97012 83.5149 5.15012 83.1349 5.50012L83.0849 5.10012H81.8449V10.0001ZM86.9856 10.1401C87.5056 10.1401 88.0356 9.97012 88.4556 9.70012L88.5756 10.0001H89.7056V6.82012C89.7056 6.23012 89.5756 5.81012 89.3256 5.52012C88.9856 5.12012 88.3156 4.96012 87.5656 4.96012C86.9756 4.96012 86.3256 5.04012 85.8256 5.14012L85.8956 6.19012C86.2356 6.12012 86.8056 6.06012 87.2656 6.06012C87.6556 6.06012 87.9256 6.11012 88.0956 6.26012C88.2156 6.37012 88.2756 6.54012 88.2756 6.81012V6.97012H87.4956C86.5856 6.97012 86.0456 7.09012 85.6956 7.42012C85.4156 7.69012 85.2656 8.09012 85.2656 8.53012C85.2656 9.48012 85.8656 10.1401 86.9856 10.1401ZM87.3956 9.05012C86.8756 9.05012 86.6956 8.83012 86.6956 8.47012C86.6956 8.29012 86.7456 8.15012 86.8356 8.06012C86.9656 7.93012 87.1756 7.89012 87.5156 7.89012H88.2756V8.90012C88.0456 8.97012 87.6656 9.05012 87.3956 9.05012ZM95.3642 12.3901C97.1442 12.3901 97.6342 11.5201 97.6342 9.79012V5.10012H96.2042V8.74012C95.9742 8.83012 95.5542 8.92012 95.2842 8.92012C94.9842 8.92012 94.8042 8.88012 94.6742 8.76012C94.5742 8.66012 94.5242 8.52012 94.5242 8.27012V5.10012H93.0942V8.47012C93.0942 9.04012 93.2342 9.42012 93.5242 9.71012C93.7942 9.98012 94.2342 10.0901 94.6642 10.0901C95.1542 10.0901 95.7242 9.96012 96.2042 9.69012V10.2901C96.2042 10.6401 96.1442 10.9101 95.9642 11.0801C95.8142 11.2301 95.4842 11.3101 95.1342 11.3101C94.6542 11.3101 94.3442 11.2601 94.0142 11.2001L94.1142 12.2601C94.4842 12.3401 94.8842 12.3901 95.3642 12.3901ZM101.083 12.2501H102.513V9.78012C102.883 10.0101 103.383 10.1401 103.823 10.1401C104.933 10.1401 105.733 9.45012 105.733 7.52012C105.733 6.61012 105.533 5.83012 105.073 5.38012C104.793 5.11012 104.393 4.96012 103.903 4.96012C103.303 4.96012 102.783 5.18012 102.363 5.46012L102.323 5.10012H101.083V12.2501ZM103.403 9.01012C103.093 9.01012 102.743 8.97012 102.513 8.87012V6.25012C102.753 6.18012 103.133 6.12012 103.363 6.12012C104.013 6.12012 104.233 6.45012 104.233 7.50012C104.233 8.68012 104.003 9.01012 103.403 9.01012ZM108.099 10.1401C108.619 10.1401 109.149 9.97012 109.569 9.70012L109.689 10.0001H110.819V6.82012C110.819 6.23012 110.689 5.81012 110.439 5.52012C110.099 5.12012 109.429 4.96012 108.679 4.96012C108.089 4.96012 107.439 5.04012 106.939 5.14012L107.009 6.19012C107.349 6.12012 107.919 6.06012 108.379 6.06012C108.769 6.06012 109.039 6.11012 109.209 6.26012C109.329 6.37012 109.389 6.54012 109.389 6.81012V6.97012H108.609C107.699 6.97012 107.159 7.09012 106.809 7.42012C106.529 7.69012 106.379 8.09012 106.379 8.53012C106.379 9.48012 106.979 10.1401 108.099 10.1401ZM108.509 9.05012C107.989 9.05012 107.809 8.83012 107.809 8.47012C107.809 8.29012 107.859 8.15012 107.949 8.06012C108.079 7.93012 108.289 7.89012 108.629 7.89012H109.389V8.90012C109.159 8.97012 108.779 9.05012 108.509 9.05012ZM114.071 12.3901H114.151C115.911 12.3901 116.641 11.7901 116.641 10.7701C116.641 10.3001 116.521 9.98012 116.281 9.73012C115.931 9.37012 115.371 9.21012 114.431 9.21012H113.471C113.371 9.21012 113.331 9.17012 113.331 9.08012C113.331 9.01012 113.371 8.85012 113.461 8.69012C113.661 8.72012 113.871 8.73012 114.101 8.73012C115.481 8.73012 116.301 8.15012 116.301 6.84012C116.301 6.06012 115.981 5.55012 115.461 5.26012L116.171 4.27012C115.881 4.05012 115.441 3.86012 115.061 3.77012L114.581 4.99012C114.421 4.97012 114.261 4.96012 114.101 4.96012C112.721 4.96012 111.891 5.54012 111.891 6.84012C111.891 7.58012 112.181 8.08012 112.641 8.38012C112.231 8.72012 111.991 9.16012 111.991 9.57012C111.991 9.85012 112.071 10.0701 112.241 10.2101C111.891 10.3901 111.661 10.7001 111.661 11.1001C111.661 11.9801 112.381 12.3901 114.071 12.3901ZM114.101 7.71012C113.441 7.71012 113.181 7.41012 113.181 6.84012C113.181 6.28012 113.441 5.98012 114.101 5.98012C114.751 5.98012 115.011 6.28012 115.011 6.84012C115.011 7.41012 114.751 7.71012 114.101 7.71012ZM114.111 11.3101C113.201 11.3101 112.931 11.1301 112.931 10.7701C112.931 10.6501 112.961 10.5201 113.071 10.4001H114.501C115.161 10.4001 115.361 10.5101 115.361 10.8301C115.361 11.1401 114.981 11.3101 114.261 11.3101H114.111ZM118.822 10.1401C119.342 10.1401 119.872 9.97012 120.292 9.70012L120.412 10.0001H121.542V6.82012C121.542 6.23012 121.412 5.81012 121.162 5.52012C120.822 5.12012 120.152 4.96012 119.402 4.96012C118.812 4.96012 118.162 5.04012 117.662 5.14012L117.732 6.19012C118.072 6.12012 118.642 6.06012 119.102 6.06012C119.492 6.06012 119.762 6.11012 119.932 6.26012C120.052 6.37012 120.112 6.54012 120.112 6.81012V6.97012H119.332C118.422 6.97012 117.882 7.09012 117.532 7.42012C117.252 7.69012 117.102 8.09012 117.102 8.53012C117.102 9.48012 117.702 10.1401 118.822 10.1401ZM119.232 9.05012C118.712 9.05012 118.532 8.83012 118.532 8.47012C118.532 8.29012 118.582 8.15012 118.672 8.06012C118.802 7.93012 119.012 7.89012 119.352 7.89012H120.112V8.90012C119.882 8.97012 119.502 9.05012 119.232 9.05012ZM126.55 10.1401C128.02 10.1401 128.76 9.55012 128.76 8.53012C128.76 6.50012 126.08 7.29012 126.08 6.46012C126.08 6.18012 126.36 6.06012 126.87 6.06012C127.27 6.06012 127.87 6.14012 128.38 6.28012L128.49 5.23012C127.96 5.05012 127.35 4.96012 126.86 4.96012C125.39 4.96012 124.73 5.63012 124.73 6.54012C124.73 8.57012 127.4 7.72012 127.4 8.59012C127.4 8.94012 127.06 9.04012 126.52 9.04012C125.99 9.04012 125.31 8.93012 124.94 8.81012L124.83 9.87012C125.22 10.0101 125.97 10.1401 126.55 10.1401ZM131.946 10.1401C133.646 10.1401 134.436 9.12012 134.436 7.55012C134.436 5.98012 133.646 4.96012 131.946 4.96012C130.246 4.96012 129.456 5.98012 129.456 7.55012C129.456 9.12012 130.246 10.1401 131.946 10.1401ZM131.946 9.05012C131.226 9.05012 130.946 8.56012 130.946 7.55012C130.946 6.54012 131.226 6.05012 131.946 6.05012C132.666 6.05012 132.946 6.54012 132.946 7.55012C132.946 8.56012 132.666 9.05012 131.946 9.05012ZM135.42 10.0001H136.85V2.85012H135.42V10.0001ZM140.315 10.1401C142.015 10.1401 142.805 9.12012 142.805 7.55012C142.805 5.98012 142.015 4.96012 140.315 4.96012C138.615 4.96012 137.825 5.98012 137.825 7.55012C137.825 9.12012 138.615 10.1401 140.315 10.1401ZM140.315 9.05012C139.595 9.05012 139.315 8.56012 139.315 7.55012C139.315 6.54012 139.595 6.05012 140.315 6.05012C141.035 6.05012 141.315 6.54012 141.315 7.55012C141.315 8.56012 141.035 9.05012 140.315 9.05012Z" fill="#0B2739"/>
<mask id="mask0_1_426" style="mask-type:alpha" maskUnits="userSpaceOnUse" x="-1" y="0" width="177" height="66">
<path d="M147.5 17.5128V0L175.5 3.5V65.0001H-0.000244141L2.99976 3.5H31.4998V17.2728L13.9998 12.5V59.0001H164V34.5001L147.5 17.5128Z" fill="#C4C4C4"/>
</mask>
<g mask="url(#mask0_1_426)">
<path d="M11.9374 7.57042C9.80152 7.57042 8.07005 9.30189 8.07005 11.4378V58.5625C8.07005 60.6984 9.80153 62.4298 11.9374 62.4298H167.062C169.198 62.4298 170.929 60.6984 170.929 58.5625V11.4378C170.929 9.30189 169.198 7.57042 167.062 7.57042H11.9374Z" stroke="#019DF4" stroke-width="0.859412"/>
</g>
<path d="M116.154 52.0001H118.013L119.366 49.4481L120.862 52.0001H122.765L120.367 48.1611L122.831 44.4761H121.005L119.641 46.9621L118.145 44.4761H116.352L118.651 48.2491L116.154 52.0001ZM127.774 52.1541C129.523 52.1541 130.436 51.1971 130.436 49.5251C130.436 48.0181 129.655 47.1821 128.313 47.1821C127.796 47.1821 127.18 47.3031 126.685 47.5671C126.707 46.8081 126.828 46.2911 127.158 45.9611C127.455 45.6641 127.906 45.5651 128.632 45.5651C129.028 45.5651 129.435 45.6091 129.82 45.6751V44.4761C129.314 44.3881 128.808 44.3331 128.269 44.3331C127.268 44.3331 126.564 44.5531 126.058 45.0591C125.398 45.7191 125.035 46.8411 125.035 48.5901C125.035 50.8671 125.761 52.1541 127.774 52.1541ZM127.807 50.9551C126.949 50.9551 126.663 50.3391 126.663 48.8981V48.4801C126.971 48.4141 127.444 48.3701 127.763 48.3701C128.566 48.3701 128.874 48.6231 128.874 49.5801C128.874 50.4931 128.511 50.9551 127.807 50.9551ZM132.98 52.0001H134.553V47.9411C134.817 47.8421 135.213 47.7651 135.488 47.7651C135.774 47.7651 136.005 47.8091 136.148 47.9411C136.258 48.0511 136.313 48.2051 136.313 48.4801V52.0001H137.886V48.2931C137.886 48.1611 137.875 48.0291 137.864 47.9081C138.128 47.8311 138.513 47.7651 138.777 47.7651C139.096 47.7651 139.316 47.8091 139.459 47.9411C139.569 48.0511 139.624 48.2051 139.624 48.4801V52.0001H141.197V48.2931C141.197 47.6661 141.065 47.1931 140.735 46.8741C140.438 46.5771 139.91 46.4561 139.437 46.4561C138.854 46.4561 138.161 46.6211 137.556 47.0281C137.281 46.6431 136.786 46.4561 136.126 46.4561C135.565 46.4561 134.96 46.6101 134.377 46.9951L134.344 46.6101H132.98V52.0001ZM144.62 52.1541C145.291 52.1541 145.918 52.0661 146.435 51.9671L146.314 50.8231C145.907 50.9001 145.357 50.9551 144.972 50.9551C143.916 50.9551 143.355 50.7021 143.311 49.7891H146.622C146.71 49.7891 146.754 49.7561 146.754 49.6681V49.1731C146.754 47.3031 145.896 46.4561 144.279 46.4561C142.629 46.4561 141.661 47.4241 141.661 49.3161C141.661 50.1741 141.848 50.9441 142.387 51.4611C142.849 51.9011 143.608 52.1541 144.62 52.1541ZM143.311 48.7661C143.344 48.0731 143.63 47.6441 144.268 47.6441C144.895 47.6441 145.214 48.0841 145.214 48.7661H143.311ZM148.947 52.1541C150.564 52.1541 151.378 51.5051 151.378 50.3831C151.378 48.1501 148.43 49.0191 148.43 48.1061C148.43 47.7981 148.738 47.6661 149.299 47.6661C149.739 47.6661 150.399 47.7541 150.96 47.9081L151.081 46.7531C150.498 46.5551 149.827 46.4561 149.288 46.4561C147.671 46.4561 146.945 47.1931 146.945 48.1941C146.945 50.4271 149.882 49.4921 149.882 50.4491C149.882 50.8341 149.508 50.9441 148.914 50.9441C148.331 50.9441 147.583 50.8231 147.176 50.6911L147.055 51.8571C147.484 52.0111 148.309 52.1541 148.947 52.1541ZM154.553 52.1541C155.224 52.1541 155.851 52.0661 156.368 51.9671L156.247 50.8231C155.84 50.9001 155.29 50.9551 154.905 50.9551C153.849 50.9551 153.288 50.7021 153.244 49.7891H156.555C156.643 49.7891 156.687 49.7561 156.687 49.6681V49.1731C156.687 47.3031 155.829 46.4561 154.212 46.4561C152.562 46.4561 151.594 47.4241 151.594 49.3161C151.594 50.1741 151.781 50.9441 152.32 51.4611C152.782 51.9011 153.541 52.1541 154.553 52.1541ZM153.244 48.7661C153.277 48.0731 153.563 47.6441 154.201 47.6441C154.828 47.6441 155.147 48.0841 155.147 48.7661H153.244ZM158.879 52.1541C160.496 52.1541 161.31 51.5051 161.31 50.3831C161.31 48.1501 158.362 49.0191 158.362 48.1061C158.362 47.7981 158.67 47.6661 159.231 47.6661C159.671 47.6661 160.331 47.7541 160.892 47.9081L161.013 46.7531C160.43 46.5551 159.759 46.4561 159.22 46.4561C157.603 46.4561 156.877 47.1931 156.877 48.1941C156.877 50.4271 159.814 49.4921 159.814 50.4491C159.814 50.8341 159.44 50.9441 158.846 50.9441C158.263 50.9441 157.515 50.8231 157.108 50.6911L156.987 51.8571C157.416 52.0111 158.241 52.1541 158.879 52.1541Z" fill="#0B2739"/>
</svg>
