<svg width="496" height="196" viewBox="0 0 496 196" fill="none" xmlns="http://www.w3.org/2000/svg">
<path d="M135.988 104.765C144.808 104.765 150.658 102.965 154.978 98.9146C158.218 95.8546 160.108 91.4446 160.108 85.9546C160.108 61.9246 128.698 70.2046 128.698 58.1446C128.698 54.2746 131.128 51.5746 138.688 51.5746C143.008 51.5746 148.408 52.3846 153.448 53.7346L155.608 43.2946C150.838 41.6746 144.358 40.7746 138.418 40.7746C125.278 40.7746 115.468 46.2646 115.468 58.7746C115.468 82.9846 146.878 74.6146 146.878 86.1346C146.878 91.8046 143.008 93.9646 134.728 93.9646C130.228 93.9646 123.118 92.7946 117.718 90.9046L115.558 101.615C121.768 103.775 128.158 104.765 135.988 104.765ZM157.574 104.765H169.004L196.094 40.7746H184.664L157.574 104.765ZM220.527 103.505H233.397V89.3746H240.597V79.7446H233.397V65.0746H220.527V79.7446H206.307L220.167 41.9446H207.747L194.967 76.8646C193.527 80.8246 193.077 83.7046 193.077 86.2246C193.077 87.3946 193.257 88.7446 193.437 89.3746H220.527V103.505ZM268.191 103.505H281.061V89.3746H288.261V79.7446H281.061V65.0746H268.191V79.7446H253.971L267.831 41.9446H255.411L242.631 76.8646C241.191 80.8246 240.741 83.7046 240.741 86.2246C240.741 87.3946 240.921 88.7446 241.101 89.3746H268.191V103.505Z" fill="#019DF4"/>
<path d="M153.484 100.41L154.087 101.053L154.09 101.051L153.484 100.41ZM151.954 55.23L151.726 56.0815L152.628 56.3231L152.817 55.4086L151.954 55.23ZM154.114 44.79L154.977 44.9686L155.135 44.2058L154.398 43.9553L154.114 44.79ZM116.224 92.4L116.515 91.568L115.56 91.2337L115.36 92.2257L116.224 92.4ZM114.064 103.11L113.2 102.936L113.048 103.69L113.775 103.943L114.064 103.11ZM134.494 107.141C143.43 107.141 149.539 105.317 154.087 101.053L152.881 99.7669C148.789 103.603 143.198 105.379 134.494 105.379V107.141ZM154.09 101.051C157.527 97.8047 159.496 93.1524 159.496 87.45H157.733C157.733 92.7276 155.922 96.8953 152.879 99.7692L154.09 101.051ZM159.496 87.45C159.496 81.2231 157.449 76.996 154.313 74.0232C151.215 71.0867 147.126 69.444 143.171 68.2145C141.196 67.6005 139.201 67.0745 137.385 66.5555C135.549 66.0307 133.881 65.5088 132.467 64.887C131.05 64.2638 129.954 63.5674 129.215 62.7291C128.498 61.9147 128.086 60.932 128.086 59.64H126.323C126.323 61.363 126.892 62.7597 127.893 63.8946C128.872 65.0058 130.23 65.8289 131.757 66.5008C133.288 67.1742 135.055 67.7232 136.9 68.2505C138.766 68.7838 140.696 69.2913 142.648 69.898C146.545 71.1098 150.308 72.6564 153.1 75.3027C155.853 77.9127 157.733 81.6619 157.733 87.45H159.496ZM128.086 59.64C128.086 57.9063 128.617 56.5613 129.892 55.6102C131.22 54.6184 133.49 53.9515 137.194 53.9515V52.1885C133.339 52.1885 130.613 52.8716 128.837 54.1973C127.006 55.5637 126.323 57.5037 126.323 59.64H128.086ZM137.194 53.9515C141.42 53.9515 146.742 54.7464 151.726 56.0815L152.182 54.3785C147.087 53.0136 141.609 52.1885 137.194 52.1885V53.9515ZM152.817 55.4086L154.977 44.9686L153.251 44.6114L151.091 55.0514L152.817 55.4086ZM154.398 43.9553C149.515 42.2971 142.935 41.3885 136.924 41.3885V43.1515C142.793 43.1515 149.174 44.0429 153.831 45.6246L154.398 43.9553ZM136.924 41.3885C130.251 41.3885 124.307 42.7797 120.008 45.8624C115.666 48.9755 113.093 53.7509 113.093 60.27H114.856C114.856 54.2791 117.187 50.0545 121.035 47.2951C124.926 44.5052 130.458 43.1515 136.924 43.1515V41.3885ZM113.093 60.27C113.093 66.5394 115.138 70.7949 118.275 73.7774C121.374 76.7244 125.466 78.3559 129.424 79.5525C131.404 80.1509 133.395 80.6527 135.216 81.145C137.054 81.6421 138.725 82.1309 140.141 82.7145C141.562 83.3001 142.655 83.9535 143.39 84.7411C144.1 85.5024 144.503 86.418 144.503 87.63H146.266C146.266 85.962 145.687 84.6192 144.679 83.5387C143.696 82.4844 142.336 81.7126 140.812 81.0846C139.284 80.4546 137.519 79.9414 135.676 79.4432C133.816 78.9403 131.881 78.4534 129.934 77.865C126.04 76.6878 122.279 75.1524 119.489 72.4998C116.737 69.8826 114.856 66.1056 114.856 60.27H113.093ZM144.503 87.63C144.503 90.2297 143.639 91.8689 141.948 92.9233C140.164 94.0356 137.337 94.5785 133.234 94.5785V96.3415C137.411 96.3415 140.659 95.8044 142.881 94.4192C145.195 92.9761 146.266 90.7003 146.266 87.63H144.503ZM133.234 94.5785C128.84 94.5785 121.828 93.4274 116.515 91.568L115.933 93.232C121.421 95.1526 128.629 96.3415 133.234 96.3415V94.5785ZM115.36 92.2257L113.2 102.936L114.928 103.284L117.088 92.5743L115.36 92.2257ZM113.775 103.943C120.093 106.14 126.583 107.141 134.494 107.141V105.379C126.745 105.379 120.455 104.4 114.354 102.277L113.775 103.943ZM156.08 106.26L155.269 105.916L154.75 107.141H156.08V106.26ZM167.51 106.26V107.141H168.094L168.322 106.604L167.51 106.26ZM194.6 42.27L195.412 42.6136L195.931 41.3885H194.6V42.27ZM183.17 42.27V41.3885H182.586L182.359 41.9264L183.17 42.27ZM156.08 107.141H167.51V105.379H156.08V107.141ZM168.322 106.604L195.412 42.6136L193.789 41.9264L166.699 105.916L168.322 106.604ZM194.6 41.3885H183.17V43.1515H194.6V41.3885ZM182.359 41.9264L155.269 105.916L156.892 106.604L183.982 42.6136L182.359 41.9264ZM219.032 105H218.151V105.881H219.032V105ZM231.902 105V105.881H232.784V105H231.902ZM231.902 90.87V89.9885H231.021V90.87H231.902ZM239.102 90.87V91.7515H239.984V90.87H239.102ZM239.102 81.24H239.984V80.3585H239.102V81.24ZM231.902 81.24H231.021V82.1215H231.902V81.24ZM231.902 66.57H232.784V65.6885H231.902V66.57ZM219.032 66.57V65.6885H218.151V66.57H219.032ZM219.032 81.24V82.1215H219.914V81.24H219.032ZM204.812 81.24L203.985 80.9365L203.55 82.1215H204.812V81.24ZM218.672 43.44L219.5 43.7435L219.934 42.5585H218.672V43.44ZM206.252 43.44V42.5585H205.636L205.425 43.137L206.252 43.44ZM193.472 78.36L192.645 78.057L192.644 78.0588L193.472 78.36ZM191.942 90.87L191.095 91.1122L191.278 91.7515H191.942V90.87ZM219.032 90.87H219.914V89.9885H219.032V90.87ZM219.032 105.881H231.902V104.119H219.032V105.881ZM232.784 105V90.87H231.021V105H232.784ZM231.902 91.7515H239.102V89.9885H231.902V91.7515ZM239.984 90.87V81.24H238.221V90.87H239.984ZM239.102 80.3585H231.902V82.1215H239.102V80.3585ZM232.784 81.24V66.57H231.021V81.24H232.784ZM231.902 65.6885H219.032V67.4515H231.902V65.6885ZM218.151 66.57V81.24H219.914V66.57H218.151ZM219.032 80.3585H204.812V82.1215H219.032V80.3585ZM205.64 81.5434L219.5 43.7435L217.845 43.1365L203.985 80.9365L205.64 81.5434ZM218.672 42.5585H206.252V44.3215H218.672V42.5585ZM205.425 43.137L192.645 78.057L194.3 78.6629L207.08 43.7429L205.425 43.137ZM192.644 78.0588C191.175 82.0984 190.701 85.0807 190.701 87.72H192.464C192.464 85.3193 192.89 82.5416 194.301 78.6612L192.644 78.0588ZM190.701 87.72C190.701 88.9469 190.886 90.3825 191.095 91.1122L192.79 90.6278C192.638 90.0975 192.464 88.8331 192.464 87.72H190.701ZM191.942 91.7515H219.032V89.9885H191.942V91.7515ZM218.151 90.87V105H219.914V90.87H218.151ZM266.697 105H265.816V105.881H266.697V105ZM279.567 105V105.881H280.449V105H279.567ZM279.567 90.87V89.9885H278.686V90.87H279.567ZM286.767 90.87V91.7515H287.649V90.87H286.767ZM286.767 81.24H287.649V80.3585H286.767V81.24ZM279.567 81.24H278.686V82.1215H279.567V81.24ZM279.567 66.57H280.449V65.6885H279.567V66.57ZM266.697 66.57V65.6885H265.816V66.57H266.697ZM266.697 81.24V82.1215H267.579V81.24H266.697ZM252.477 81.24L251.65 80.9365L251.215 82.1215H252.477V81.24ZM266.337 43.44L267.165 43.7435L267.599 42.5585H266.337V43.44ZM253.917 43.44V42.5585H253.301L253.089 43.137L253.917 43.44ZM241.137 78.36L240.309 78.057L240.309 78.0588L241.137 78.36ZM239.607 90.87L238.76 91.1122L238.942 91.7515H239.607V90.87ZM266.697 90.87H267.579V89.9885H266.697V90.87ZM266.697 105.881H279.567V104.119H266.697V105.881ZM280.449 105V90.87H278.686V105H280.449ZM279.567 91.7515H286.767V89.9885H279.567V91.7515ZM287.649 90.87V81.24H285.886V90.87H287.649ZM286.767 80.3585H279.567V82.1215H286.767V80.3585ZM280.449 81.24V66.57H278.686V81.24H280.449ZM279.567 65.6885H266.697V67.4515H279.567V65.6885ZM265.816 66.57V81.24H267.579V66.57H265.816ZM266.697 80.3585H252.477V82.1215H266.697V80.3585ZM253.305 81.5434L267.165 43.7435L265.51 43.1365L251.65 80.9365L253.305 81.5434ZM266.337 42.5585H253.917V44.3215H266.337V42.5585ZM253.089 43.137L240.309 78.057L241.965 78.6629L254.745 43.7429L253.089 43.137ZM240.309 78.0588C238.84 82.0984 238.366 85.0807 238.366 87.72H240.129C240.129 85.3193 240.555 82.5416 241.966 78.6612L240.309 78.0588ZM238.366 87.72C238.366 88.9469 238.551 90.3825 238.76 91.1122L240.455 90.6278C240.303 90.0975 240.129 88.8331 240.129 87.72H238.366ZM239.607 91.7515H266.697V89.9885H239.607V91.7515ZM265.816 90.87V105H267.579V90.87H265.816Z" fill="#019DF4"/>
<path d="M301.294 74.56H301.574C303.494 74.56 304.494 73.8 304.494 71.8V71.32C304.494 69.32 303.494 68.56 301.574 68.56H301.294C299.374 68.56 298.374 69.32 298.374 71.32V71.8C298.374 73.8 299.374 74.56 301.294 74.56ZM311.225 74H317.345L325.025 52.2C325.505 50.88 325.665 49.56 325.665 48.28C325.665 47.68 325.585 46.96 325.385 46.64H307.545V50.72H320.305L311.225 74ZM329.249 74H346.689V69.92H335.649L340.409 64.72C344.729 60 346.249 57.4 346.249 54C346.249 51.72 345.569 49.96 344.289 48.68C342.609 47 340.009 46.12 336.089 46.12C333.849 46.12 331.329 46.48 329.729 46.88V51.12C331.449 50.8 333.529 50.6 335.089 50.6C337.049 50.6 338.409 50.92 339.249 51.64C339.969 52.24 340.329 53.12 340.329 54.28C340.329 56.56 339.049 58.36 336.009 62.04L330.689 68.52C329.529 69.92 329.089 71.04 329.089 72.72C329.089 73.16 329.129 73.68 329.249 74Z" fill="#019DF4"/>
<path d="M300.294 76.2412H300.574V74.8788H300.294V76.2412ZM300.574 76.2412C301.603 76.2412 302.536 76.0412 303.209 75.4368C303.898 74.8183 304.175 73.9045 304.175 72.8H302.813C302.813 73.6955 302.59 74.1617 302.299 74.4232C301.992 74.6988 301.465 74.8788 300.574 74.8788V76.2412ZM304.175 72.8V72.32H302.813V72.8H304.175ZM304.175 72.32C304.175 71.2155 303.898 70.3017 303.209 69.6832C302.536 69.0788 301.603 68.8788 300.574 68.8788V70.2412C301.465 70.2412 301.992 70.4212 302.299 70.6968C302.59 70.9583 302.813 71.4245 302.813 72.32H304.175ZM300.574 68.8788H300.294V70.2412H300.574V68.8788ZM300.294 68.8788C299.265 68.8788 298.332 69.0788 297.659 69.6832C296.97 70.3017 296.693 71.2155 296.693 72.32H298.055C298.055 71.4245 298.278 70.9583 298.569 70.6968C298.876 70.4212 299.403 70.2412 300.294 70.2412V68.8788ZM296.693 72.32V72.8H298.055V72.32H296.693ZM296.693 72.8C296.693 73.9045 296.97 74.8183 297.659 75.4368C298.332 76.0412 299.265 76.2412 300.294 76.2412V74.8788C299.403 74.8788 298.876 74.6988 298.569 74.4232C298.278 74.1617 298.055 73.6955 298.055 72.8H296.693ZM310.225 75L309.59 74.7525L309.228 75.6812H310.225V75ZM316.345 75V75.6812H316.827L316.987 75.2263L316.345 75ZM324.025 53.2L323.384 52.9672L323.382 52.9737L324.025 53.2ZM324.385 47.64L324.962 47.279L324.762 46.9588H324.385V47.64ZM306.545 47.64V46.9588H305.863V47.64H306.545ZM306.545 51.72H305.863V52.4012H306.545V51.72ZM319.305 51.72L319.939 51.9675L320.301 51.0388H319.305V51.72ZM310.225 75.6812H316.345V74.3188H310.225V75.6812ZM316.987 75.2263L324.667 53.4263L323.382 52.9737L315.702 74.7737L316.987 75.2263ZM324.665 53.4328C325.179 52.0196 325.346 50.6169 325.346 49.28H323.983C323.983 50.5031 323.831 51.7404 323.384 52.9672L324.665 53.4328ZM325.346 49.28C325.346 48.9533 325.324 48.5881 325.273 48.2523C325.226 47.9413 325.14 47.5636 324.962 47.279L323.807 48.001C323.807 48.001 323.807 48.0012 323.807 48.0017C323.808 48.0021 323.808 48.0027 323.808 48.0035C323.809 48.0052 323.811 48.0075 323.812 48.0108C323.815 48.0173 323.82 48.0264 323.825 48.0384C323.835 48.063 323.847 48.0959 323.859 48.138C323.884 48.2231 323.907 48.3309 323.926 48.4577C323.965 48.7119 323.983 49.0067 323.983 49.28H325.346ZM324.385 46.9588H306.545V48.3212H324.385V46.9588ZM305.863 47.64V51.72H307.226V47.64H305.863ZM306.545 52.4012H319.305V51.0388H306.545V52.4012ZM318.67 51.4725L309.59 74.7525L310.859 75.2475L319.939 51.9675L318.67 51.4725ZM328.249 75L327.611 75.2392L327.777 75.6812H328.249V75ZM345.689 75V75.6812H346.37V75H345.689ZM345.689 70.92H346.37V70.2388H345.689V70.92ZM334.649 70.92L334.147 70.46L333.102 71.6012H334.649V70.92ZM339.409 65.72L339.911 66.18L339.911 66.1799L339.409 65.72ZM328.729 47.88L328.564 47.2191L328.048 47.3481V47.88H328.729ZM328.729 52.12H328.048V52.9396L328.854 52.7897L328.729 52.12ZM338.249 52.64L337.806 53.1573L337.813 53.1633L338.249 52.64ZM335.009 63.04L334.484 62.6062L334.482 62.6078L335.009 63.04ZM329.689 69.52L330.214 69.9546L330.215 69.9522L329.689 69.52ZM328.249 75.6812H345.689V74.3188H328.249V75.6812ZM346.37 75V70.92H345.008V75H346.37ZM345.689 70.2388H334.649V71.6012H345.689V70.2388ZM335.151 71.38L339.911 66.18L338.907 65.26L334.147 70.46L335.151 71.38ZM339.911 66.1799C344.243 61.4471 345.93 58.6781 345.93 55H344.568C344.568 58.1219 343.215 60.5529 338.906 65.2601L339.911 66.1799ZM345.93 55C345.93 52.576 345.202 50.6299 343.771 49.1983L342.807 50.1617C343.936 51.2901 344.568 52.864 344.568 55H345.93ZM343.771 49.1983C341.91 47.338 339.098 46.4388 335.089 46.4388V47.8012C338.92 47.8012 341.308 48.662 342.807 50.1617L343.771 49.1983ZM335.089 46.4388C332.791 46.4388 330.215 46.8063 328.564 47.2191L328.894 48.5409C330.443 48.1537 332.907 47.8012 335.089 47.8012V46.4388ZM328.048 47.88V52.12H329.41V47.88H328.048ZM328.854 52.7897C330.537 52.4766 332.575 52.2812 334.089 52.2812V50.9188C332.483 50.9188 330.361 51.1234 328.604 51.4503L328.854 52.7897ZM334.089 52.2812C336.012 52.2812 337.159 52.6031 337.806 53.1572L338.692 52.1228C337.659 51.2369 336.086 50.9188 334.089 50.9188V52.2812ZM337.813 53.1633C338.341 53.6037 338.648 54.2697 338.648 55.28H340.01C340.01 53.9703 339.597 52.8763 338.685 52.1167L337.813 53.1633ZM338.648 55.28C338.648 57.27 337.565 58.8764 334.484 62.6062L335.534 63.4738C338.533 59.8436 340.01 57.85 340.01 55.28H338.648ZM334.482 62.6078L329.162 69.0878L330.215 69.9522L335.535 63.4722L334.482 62.6078ZM329.164 69.0854C328.555 69.8209 328.108 70.5149 327.818 71.2711C327.527 72.031 327.408 72.8171 327.408 73.72H328.77C328.77 72.9429 328.871 72.329 329.09 71.7589C329.31 71.1851 329.663 70.6191 330.214 69.9546L329.164 69.0854ZM327.408 73.72C327.408 74.1663 327.444 74.7946 327.611 75.2392L328.887 74.7608C328.814 74.5654 328.77 74.1537 328.77 73.72H327.408Z" fill="#019DF4"/>
<path d="M151.24 9.688H153.454L157.342 16.564L161.356 9.688H163.516V22H160.942V14.908L158.386 19.192H156.226L153.598 14.836V22H151.24V9.688ZM166.667 11.704C166.211 11.704 165.869 11.608 165.641 11.416C165.425 11.224 165.317 10.912 165.317 10.48V10.246C165.317 9.814 165.425 9.502 165.641 9.31C165.869 9.106 166.211 9.004 166.667 9.004H166.793C167.249 9.004 167.585 9.106 167.801 9.31C168.029 9.502 168.143 9.814 168.143 10.246V10.48C168.143 10.912 168.029 11.224 167.801 11.416C167.585 11.608 167.249 11.704 166.793 11.704H166.667ZM165.443 13.18H168.017V22H165.443V13.18ZM173.427 26.302C171.915 26.302 170.811 26.11 170.115 25.726C169.431 25.354 169.089 24.772 169.089 23.98C169.089 23.632 169.179 23.32 169.359 23.044C169.551 22.768 169.809 22.546 170.133 22.378C169.833 22.126 169.683 21.742 169.683 21.226C169.683 20.854 169.785 20.482 169.989 20.11C170.193 19.726 170.481 19.384 170.853 19.084C169.953 18.496 169.503 17.572 169.503 16.312C169.503 15.172 169.845 14.326 170.529 13.774C171.225 13.21 172.209 12.928 173.481 12.928C173.769 12.928 174.057 12.946 174.345 12.982L175.209 10.786C175.557 10.87 175.911 10.996 176.271 11.164C176.643 11.32 176.955 11.494 177.207 11.686L175.929 13.468C176.937 14.032 177.441 14.98 177.441 16.312C177.441 17.464 177.099 18.322 176.415 18.886C175.731 19.438 174.753 19.714 173.481 19.714C173.037 19.714 172.653 19.69 172.329 19.642C172.257 19.774 172.197 19.906 172.149 20.038C172.113 20.17 172.095 20.272 172.095 20.344C172.095 20.5 172.179 20.578 172.347 20.578H174.075C174.915 20.578 175.599 20.656 176.127 20.812C176.667 20.956 177.093 21.19 177.405 21.514C177.837 21.97 178.053 22.594 178.053 23.386C178.053 25.33 176.559 26.302 173.571 26.302H173.427ZM173.481 17.878C174.057 17.878 174.471 17.752 174.723 17.5C174.987 17.236 175.119 16.84 175.119 16.312C175.119 15.796 174.987 15.412 174.723 15.16C174.471 14.896 174.057 14.764 173.481 14.764C172.905 14.764 172.485 14.896 172.221 15.16C171.957 15.412 171.825 15.796 171.825 16.312C171.825 16.84 171.957 17.236 172.221 17.5C172.485 17.752 172.905 17.878 173.481 17.878ZM173.769 24.358C174.417 24.358 174.909 24.28 175.245 24.124C175.581 23.98 175.749 23.77 175.749 23.494C175.749 23.206 175.635 23.002 175.407 22.882C175.191 22.774 174.789 22.72 174.201 22.72H171.627C171.459 22.9 171.375 23.122 171.375 23.386C171.375 23.722 171.531 23.968 171.843 24.124C172.155 24.28 172.707 24.358 173.499 24.358H173.769ZM178.881 13.18H181.113L181.203 13.9C181.527 13.6 181.941 13.366 182.445 13.198C182.961 13.03 183.447 12.946 183.903 12.946C184.059 12.946 184.209 12.958 184.353 12.982V15.232C183.969 15.184 183.591 15.16 183.219 15.16C182.679 15.16 182.091 15.232 181.455 15.376V22H178.881V13.18ZM187.595 22.252C186.611 22.252 185.849 21.988 185.309 21.46C184.769 20.932 184.499 20.23 184.499 19.354C184.499 18.958 184.565 18.586 184.697 18.238C184.829 17.89 185.021 17.596 185.273 17.356C185.585 17.068 185.993 16.864 186.497 16.744C187.013 16.612 187.685 16.546 188.513 16.546H189.917V16.258C189.917 15.79 189.809 15.46 189.593 15.268C189.317 15.028 188.819 14.908 188.099 14.908C187.703 14.908 187.271 14.932 186.803 14.98C186.335 15.028 185.945 15.082 185.633 15.142L185.507 13.252C186.587 13.036 187.631 12.928 188.639 12.928C189.347 12.928 189.977 13.012 190.529 13.18C191.093 13.336 191.519 13.588 191.807 13.936C192.263 14.464 192.491 15.244 192.491 16.276V22H190.457L190.241 21.46C189.857 21.712 189.431 21.904 188.963 22.036C188.507 22.18 188.051 22.252 187.595 22.252ZM188.333 20.29C188.561 20.29 188.825 20.266 189.125 20.218C189.425 20.158 189.689 20.092 189.917 20.02V18.202H188.549C188.225 18.202 187.967 18.226 187.775 18.274C187.583 18.322 187.433 18.4 187.325 18.508C187.157 18.676 187.073 18.922 187.073 19.246C187.073 19.582 187.169 19.84 187.361 20.02C187.565 20.2 187.889 20.29 188.333 20.29ZM200.12 22.252C199.136 22.252 198.374 21.988 197.834 21.46C197.294 20.932 197.024 20.23 197.024 19.354C197.024 18.958 197.09 18.586 197.222 18.238C197.354 17.89 197.546 17.596 197.798 17.356C198.11 17.068 198.518 16.864 199.022 16.744C199.538 16.612 200.21 16.546 201.038 16.546H202.442V16.258C202.442 15.79 202.334 15.46 202.118 15.268C201.842 15.028 201.344 14.908 200.624 14.908C200.228 14.908 199.796 14.932 199.328 14.98C198.86 15.028 198.47 15.082 198.158 15.142L198.032 13.252C199.112 13.036 200.156 12.928 201.164 12.928C201.872 12.928 202.502 13.012 203.054 13.18C203.618 13.336 204.044 13.588 204.332 13.936C204.788 14.464 205.016 15.244 205.016 16.276V22H202.982L202.766 21.46C202.382 21.712 201.956 21.904 201.488 22.036C201.032 22.18 200.576 22.252 200.12 22.252ZM200.858 20.29C201.086 20.29 201.35 20.266 201.65 20.218C201.95 20.158 202.214 20.092 202.442 20.02V18.202H201.074C200.75 18.202 200.492 18.226 200.3 18.274C200.108 18.322 199.958 18.4 199.85 18.508C199.682 18.676 199.598 18.922 199.598 19.246C199.598 19.582 199.694 19.84 199.886 20.02C200.09 20.2 200.414 20.29 200.858 20.29ZM206.587 9.13H209.161V13.648C209.593 13.408 210.049 13.228 210.529 13.108C211.009 12.988 211.471 12.928 211.915 12.928C212.335 12.928 212.737 12.988 213.121 13.108C213.505 13.216 213.811 13.384 214.039 13.612C214.543 14.104 214.795 14.878 214.795 15.934V22H212.221V16.24C212.221 15.832 212.131 15.538 211.951 15.358C211.747 15.166 211.375 15.07 210.835 15.07C210.583 15.07 210.289 15.1 209.953 15.16C209.629 15.208 209.365 15.274 209.161 15.358V22H206.587V9.13ZM220.397 22.252C218.909 22.252 217.787 21.844 217.031 21.028C216.287 20.2 215.915 19.054 215.915 17.59C215.915 16.126 216.287 14.986 217.031 14.17C217.787 13.342 218.909 12.928 220.397 12.928C221.885 12.928 223.001 13.342 223.745 14.17C224.501 14.986 224.879 16.126 224.879 17.59C224.879 19.054 224.501 20.2 223.745 21.028C223.001 21.844 221.885 22.252 220.397 22.252ZM220.397 20.29C221.033 20.29 221.489 20.074 221.765 19.642C222.053 19.198 222.197 18.514 222.197 17.59C222.197 16.666 222.053 15.988 221.765 15.556C221.489 15.112 221.033 14.89 220.397 14.89C219.761 14.89 219.299 15.112 219.011 15.556C218.735 15.988 218.597 16.666 218.597 17.59C218.597 18.514 218.735 19.198 219.011 19.642C219.299 20.074 219.761 20.29 220.397 20.29ZM226.056 13.18H228.288L228.378 13.9C228.702 13.6 229.116 13.366 229.62 13.198C230.136 13.03 230.622 12.946 231.078 12.946C231.234 12.946 231.384 12.958 231.528 12.982V15.232C231.144 15.184 230.766 15.16 230.394 15.16C229.854 15.16 229.266 15.232 228.63 15.376V22H226.056V13.18ZM234.769 22.252C233.785 22.252 233.023 21.988 232.483 21.46C231.943 20.932 231.673 20.23 231.673 19.354C231.673 18.958 231.739 18.586 231.871 18.238C232.003 17.89 232.195 17.596 232.447 17.356C232.759 17.068 233.167 16.864 233.671 16.744C234.187 16.612 234.859 16.546 235.687 16.546H237.091V16.258C237.091 15.79 236.983 15.46 236.767 15.268C236.491 15.028 235.993 14.908 235.273 14.908C234.877 14.908 234.445 14.932 233.977 14.98C233.509 15.028 233.119 15.082 232.807 15.142L232.681 13.252C233.761 13.036 234.805 12.928 235.813 12.928C236.521 12.928 237.151 13.012 237.703 13.18C238.267 13.336 238.693 13.588 238.981 13.936C239.437 14.464 239.665 15.244 239.665 16.276V22H237.631L237.415 21.46C237.031 21.712 236.605 21.904 236.137 22.036C235.681 22.18 235.225 22.252 234.769 22.252ZM235.507 20.29C235.735 20.29 235.999 20.266 236.299 20.218C236.599 20.158 236.863 20.092 237.091 20.02V18.202H235.723C235.399 18.202 235.141 18.226 234.949 18.274C234.757 18.322 234.607 18.4 234.499 18.508C234.331 18.676 234.247 18.922 234.247 19.246C234.247 19.582 234.343 19.84 234.535 20.02C234.739 20.2 235.063 20.29 235.507 20.29ZM248.77 26.302C247.99 26.302 247.24 26.224 246.52 26.068L246.34 24.16C247.072 24.292 247.744 24.358 248.356 24.358C248.68 24.358 248.974 24.322 249.238 24.25C249.514 24.178 249.718 24.076 249.85 23.944C250.138 23.668 250.282 23.194 250.282 22.522V21.442C249.862 21.682 249.406 21.862 248.914 21.982C248.434 22.102 247.966 22.162 247.51 22.162C247.102 22.162 246.712 22.108 246.34 22C245.98 21.88 245.686 21.706 245.458 21.478C245.194 21.214 244.996 20.902 244.864 20.542C244.744 20.182 244.684 19.75 244.684 19.246V13.18H247.258V18.886C247.258 19.294 247.348 19.588 247.528 19.768C247.648 19.876 247.792 19.954 247.96 20.002C248.128 20.038 248.35 20.056 248.626 20.056C248.866 20.056 249.148 20.026 249.472 19.966C249.796 19.894 250.066 19.816 250.282 19.732V13.18H252.856V21.622C252.856 22.714 252.736 23.596 252.496 24.268C252.256 24.94 251.836 25.444 251.236 25.78C250.636 26.128 249.814 26.302 248.77 26.302ZM257.984 13.18H260.216L260.288 13.828C261.188 13.228 262.112 12.928 263.06 12.928C263.936 12.928 264.638 13.18 265.166 13.684C265.562 14.08 265.856 14.608 266.048 15.268C266.252 15.928 266.354 16.684 266.354 17.536C266.354 19.192 266.048 20.392 265.436 21.136C264.824 21.88 263.984 22.252 262.916 22.252C262.52 22.252 262.106 22.192 261.674 22.072C261.254 21.964 260.882 21.808 260.558 21.604V26.05H257.984V13.18ZM262.16 20.218C262.532 20.218 262.826 20.14 263.042 19.984C263.258 19.816 263.414 19.54 263.51 19.156C263.606 18.76 263.654 18.208 263.654 17.5C263.654 16.864 263.606 16.366 263.51 16.006C263.414 15.646 263.252 15.394 263.024 15.25C262.796 15.094 262.484 15.016 262.088 15.016C261.884 15.016 261.632 15.04 261.332 15.088C261.032 15.136 260.774 15.19 260.558 15.25V19.966C260.942 20.134 261.476 20.218 262.16 20.218ZM270.073 22.252C269.089 22.252 268.327 21.988 267.787 21.46C267.247 20.932 266.977 20.23 266.977 19.354C266.977 18.958 267.043 18.586 267.175 18.238C267.307 17.89 267.499 17.596 267.751 17.356C268.063 17.068 268.471 16.864 268.975 16.744C269.491 16.612 270.163 16.546 270.991 16.546H272.395V16.258C272.395 15.79 272.287 15.46 272.071 15.268C271.795 15.028 271.297 14.908 270.577 14.908C270.181 14.908 269.749 14.932 269.281 14.98C268.813 15.028 268.423 15.082 268.111 15.142L267.985 13.252C269.065 13.036 270.109 12.928 271.117 12.928C271.825 12.928 272.455 13.012 273.007 13.18C273.571 13.336 273.997 13.588 274.285 13.936C274.741 14.464 274.969 15.244 274.969 16.276V22H272.935L272.719 21.46C272.335 21.712 271.909 21.904 271.441 22.036C270.985 22.18 270.529 22.252 270.073 22.252ZM270.811 20.29C271.039 20.29 271.303 20.266 271.603 20.218C271.903 20.158 272.167 20.092 272.395 20.02V18.202H271.027C270.703 18.202 270.445 18.226 270.253 18.274C270.061 18.322 269.911 18.4 269.803 18.508C269.635 18.676 269.551 18.922 269.551 19.246C269.551 19.582 269.647 19.84 269.839 20.02C270.043 20.2 270.367 20.29 270.811 20.29ZM280.283 26.302C278.771 26.302 277.667 26.11 276.971 25.726C276.287 25.354 275.945 24.772 275.945 23.98C275.945 23.632 276.035 23.32 276.215 23.044C276.407 22.768 276.665 22.546 276.989 22.378C276.689 22.126 276.539 21.742 276.539 21.226C276.539 20.854 276.641 20.482 276.845 20.11C277.049 19.726 277.337 19.384 277.709 19.084C276.809 18.496 276.359 17.572 276.359 16.312C276.359 15.172 276.701 14.326 277.385 13.774C278.081 13.21 279.065 12.928 280.337 12.928C280.625 12.928 280.913 12.946 281.201 12.982L282.065 10.786C282.413 10.87 282.767 10.996 283.127 11.164C283.499 11.32 283.811 11.494 284.063 11.686L282.785 13.468C283.793 14.032 284.297 14.98 284.297 16.312C284.297 17.464 283.955 18.322 283.271 18.886C282.587 19.438 281.609 19.714 280.337 19.714C279.893 19.714 279.509 19.69 279.185 19.642C279.113 19.774 279.053 19.906 279.005 20.038C278.969 20.17 278.951 20.272 278.951 20.344C278.951 20.5 279.035 20.578 279.203 20.578H280.931C281.771 20.578 282.455 20.656 282.983 20.812C283.523 20.956 283.949 21.19 284.261 21.514C284.693 21.97 284.909 22.594 284.909 23.386C284.909 25.33 283.415 26.302 280.427 26.302H280.283ZM280.337 17.878C280.913 17.878 281.327 17.752 281.579 17.5C281.843 17.236 281.975 16.84 281.975 16.312C281.975 15.796 281.843 15.412 281.579 15.16C281.327 14.896 280.913 14.764 280.337 14.764C279.761 14.764 279.341 14.896 279.077 15.16C278.813 15.412 278.681 15.796 278.681 16.312C278.681 16.84 278.813 17.236 279.077 17.5C279.341 17.752 279.761 17.878 280.337 17.878ZM280.625 24.358C281.273 24.358 281.765 24.28 282.101 24.124C282.437 23.98 282.605 23.77 282.605 23.494C282.605 23.206 282.491 23.002 282.263 22.882C282.047 22.774 281.645 22.72 281.057 22.72H278.483C278.315 22.9 278.231 23.122 278.231 23.386C278.231 23.722 278.387 23.968 278.699 24.124C279.011 24.28 279.563 24.358 280.355 24.358H280.625ZM288.293 22.252C287.309 22.252 286.547 21.988 286.007 21.46C285.467 20.932 285.197 20.23 285.197 19.354C285.197 18.958 285.263 18.586 285.395 18.238C285.527 17.89 285.719 17.596 285.971 17.356C286.283 17.068 286.691 16.864 287.195 16.744C287.711 16.612 288.383 16.546 289.211 16.546H290.615V16.258C290.615 15.79 290.507 15.46 290.291 15.268C290.015 15.028 289.517 14.908 288.797 14.908C288.401 14.908 287.969 14.932 287.501 14.98C287.033 15.028 286.643 15.082 286.331 15.142L286.205 13.252C287.285 13.036 288.329 12.928 289.337 12.928C290.045 12.928 290.675 13.012 291.227 13.18C291.791 13.336 292.217 13.588 292.505 13.936C292.961 14.464 293.189 15.244 293.189 16.276V22H291.155L290.939 21.46C290.555 21.712 290.129 21.904 289.661 22.036C289.205 22.18 288.749 22.252 288.293 22.252ZM289.031 20.29C289.259 20.29 289.523 20.266 289.823 20.218C290.123 20.158 290.387 20.092 290.615 20.02V18.202H289.247C288.923 18.202 288.665 18.226 288.473 18.274C288.281 18.322 288.131 18.4 288.023 18.508C287.855 18.676 287.771 18.922 287.771 19.246C287.771 19.582 287.867 19.84 288.059 20.02C288.263 20.2 288.587 20.29 289.031 20.29ZM301.125 22.252C300.621 22.252 300.069 22.204 299.469 22.108C298.869 22.012 298.389 21.898 298.029 21.766L298.227 19.858C298.575 19.966 299.019 20.062 299.559 20.146C300.111 20.23 300.615 20.272 301.071 20.272C301.587 20.272 301.977 20.212 302.241 20.092C302.517 19.972 302.655 19.762 302.655 19.462C302.655 19.186 302.523 18.994 302.259 18.886C301.995 18.766 301.575 18.652 300.999 18.544C300.351 18.424 299.817 18.292 299.397 18.148C298.977 18.004 298.611 17.746 298.299 17.374C297.999 16.99 297.849 16.456 297.849 15.772C297.849 14.908 298.167 14.218 298.803 13.702C299.451 13.186 300.411 12.928 301.683 12.928C302.139 12.928 302.625 12.97 303.141 13.054C303.657 13.138 304.149 13.258 304.617 13.414L304.419 15.304C303.975 15.184 303.501 15.088 302.997 15.016C302.505 14.944 302.073 14.908 301.701 14.908C300.753 14.908 300.279 15.148 300.279 15.628C300.279 15.88 300.405 16.066 300.657 16.186C300.921 16.294 301.341 16.408 301.917 16.528C302.553 16.648 303.087 16.786 303.519 16.942C303.951 17.098 304.323 17.368 304.635 17.752C304.947 18.136 305.103 18.67 305.103 19.354C305.103 20.278 304.767 20.992 304.095 21.496C303.423 22 302.433 22.252 301.125 22.252ZM310.298 22.252C308.81 22.252 307.688 21.844 306.932 21.028C306.188 20.2 305.816 19.054 305.816 17.59C305.816 16.126 306.188 14.986 306.932 14.17C307.688 13.342 308.81 12.928 310.298 12.928C311.786 12.928 312.902 13.342 313.646 14.17C314.402 14.986 314.78 16.126 314.78 17.59C314.78 19.054 314.402 20.2 313.646 21.028C312.902 21.844 311.786 22.252 310.298 22.252ZM310.298 20.29C310.934 20.29 311.39 20.074 311.666 19.642C311.954 19.198 312.098 18.514 312.098 17.59C312.098 16.666 311.954 15.988 311.666 15.556C311.39 15.112 310.934 14.89 310.298 14.89C309.662 14.89 309.2 15.112 308.912 15.556C308.636 15.988 308.498 16.666 308.498 17.59C308.498 18.514 308.636 19.198 308.912 19.642C309.2 20.074 309.662 20.29 310.298 20.29ZM316.01 9.13H318.584V22H316.01V9.13ZM324.282 22.252C322.794 22.252 321.672 21.844 320.916 21.028C320.172 20.2 319.8 19.054 319.8 17.59C319.8 16.126 320.172 14.986 320.916 14.17C321.672 13.342 322.794 12.928 324.282 12.928C325.77 12.928 326.886 13.342 327.63 14.17C328.386 14.986 328.764 16.126 328.764 17.59C328.764 19.054 328.386 20.2 327.63 21.028C326.886 21.844 325.77 22.252 324.282 22.252ZM324.282 20.29C324.918 20.29 325.374 20.074 325.65 19.642C325.938 19.198 326.082 18.514 326.082 17.59C326.082 16.666 325.938 15.988 325.65 15.556C325.374 15.112 324.918 14.89 324.282 14.89C323.646 14.89 323.184 15.112 322.896 15.556C322.62 15.988 322.482 16.666 322.482 17.59C322.482 18.514 322.62 19.198 322.896 19.642C323.184 20.074 323.646 20.29 324.282 20.29Z" fill="#0B2739"/>
<mask id="mask0_1_20" style="mask-type:alpha" maskUnits="userSpaceOnUse" x="89" y="0" width="304" height="131">
<path d="M337.154 27.6387V4.16474L388.545 1.6324L392.626 131H93.8972L89 0L140.654 4.16474V27.3427H113.486L110.629 113.86H372.221L369.773 30.6075L337.154 27.6387Z" fill="#C4C4C4"/>
</mask>
<g mask="url(#mask0_1_20)">
<path d="M106.781 15.3781C103.302 15.3781 100.482 18.1981 100.482 21.6767V117.88C100.482 121.359 103.302 124.179 106.781 124.179H373.272C376.751 124.179 379.571 121.359 379.571 117.88V21.6767C379.571 18.1981 376.751 15.3781 373.272 15.3781H106.781Z" stroke="#019DF4" stroke-width="1.39969"/>
</g>
<path d="M296.252 103H299.294L301.508 98.824L303.956 103H307.07L303.146 96.718L307.178 90.688H304.19L301.958 94.756L299.51 90.688H296.576L300.338 96.862L296.252 103ZM315.267 103.252C318.129 103.252 319.623 101.686 319.623 98.95C319.623 96.484 318.345 95.116 316.149 95.116C315.303 95.116 314.295 95.314 313.485 95.746C313.521 94.504 313.719 93.658 314.259 93.118C314.745 92.632 315.483 92.47 316.671 92.47C317.319 92.47 317.985 92.542 318.615 92.65V90.688C317.787 90.544 316.959 90.454 316.077 90.454C314.439 90.454 313.287 90.814 312.459 91.642C311.379 92.722 310.785 94.558 310.785 97.42C310.785 101.146 311.973 103.252 315.267 103.252ZM315.321 101.29C313.917 101.29 313.449 100.282 313.449 97.924V97.24C313.953 97.132 314.727 97.06 315.249 97.06C316.563 97.06 317.067 97.474 317.067 99.04C317.067 100.534 316.473 101.29 315.321 101.29ZM323.785 103H326.359V96.358C326.791 96.196 327.439 96.07 327.889 96.07C328.357 96.07 328.735 96.142 328.969 96.358C329.149 96.538 329.239 96.79 329.239 97.24V103H331.813V96.934C331.813 96.718 331.795 96.502 331.777 96.304C332.209 96.178 332.839 96.07 333.271 96.07C333.793 96.07 334.153 96.142 334.387 96.358C334.567 96.538 334.657 96.79 334.657 97.24V103H337.231V96.934C337.231 95.908 337.015 95.134 336.475 94.612C335.989 94.126 335.125 93.928 334.351 93.928C333.397 93.928 332.263 94.198 331.273 94.864C330.823 94.234 330.013 93.928 328.933 93.928C328.015 93.928 327.025 94.18 326.071 94.81L326.017 94.18H323.785V103ZM342.833 103.252C343.931 103.252 344.957 103.108 345.803 102.946L345.605 101.074C344.939 101.2 344.039 101.29 343.409 101.29C341.681 101.29 340.763 100.876 340.691 99.382H346.109C346.253 99.382 346.325 99.328 346.325 99.184V98.374C346.325 95.314 344.921 93.928 342.275 93.928C339.575 93.928 337.991 95.512 337.991 98.608C337.991 100.012 338.297 101.272 339.179 102.118C339.935 102.838 341.177 103.252 342.833 103.252ZM340.691 97.708C340.745 96.574 341.213 95.872 342.257 95.872C343.283 95.872 343.805 96.592 343.805 97.708H340.691ZM349.913 103.252C352.559 103.252 353.891 102.19 353.891 100.354C353.891 96.7 349.067 98.122 349.067 96.628C349.067 96.124 349.571 95.908 350.489 95.908C351.209 95.908 352.289 96.052 353.207 96.304L353.405 94.414C352.451 94.09 351.353 93.928 350.471 93.928C347.825 93.928 346.637 95.134 346.637 96.772C346.637 100.426 351.443 98.896 351.443 100.462C351.443 101.092 350.831 101.272 349.859 101.272C348.905 101.272 347.681 101.074 347.015 100.858L346.817 102.766C347.519 103.018 348.869 103.252 349.913 103.252ZM359.086 103.252C360.184 103.252 361.21 103.108 362.056 102.946L361.858 101.074C361.192 101.2 360.292 101.29 359.662 101.29C357.934 101.29 357.016 100.876 356.944 99.382H362.362C362.506 99.382 362.578 99.328 362.578 99.184V98.374C362.578 95.314 361.174 93.928 358.528 93.928C355.828 93.928 354.244 95.512 354.244 98.608C354.244 100.012 354.55 101.272 355.432 102.118C356.188 102.838 357.43 103.252 359.086 103.252ZM356.944 97.708C356.998 96.574 357.466 95.872 358.51 95.872C359.536 95.872 360.058 96.592 360.058 97.708H356.944ZM366.166 103.252C368.812 103.252 370.144 102.19 370.144 100.354C370.144 96.7 365.32 98.122 365.32 96.628C365.32 96.124 365.824 95.908 366.742 95.908C367.462 95.908 368.542 96.052 369.46 96.304L369.658 94.414C368.704 94.09 367.606 93.928 366.724 93.928C364.078 93.928 362.89 95.134 362.89 96.772C362.89 100.426 367.696 98.896 367.696 100.462C367.696 101.092 367.084 101.272 366.112 101.272C365.158 101.272 363.934 101.074 363.268 100.858L363.07 102.766C363.772 103.018 365.122 103.252 366.166 103.252Z" fill="#0B2739"/>
<path d="M62.1747 149.912H62.0647C61.3607 149.912 60.9647 150.22 60.9647 150.99V151.166C60.9647 151.936 61.3607 152.244 62.0647 152.244H62.1747C62.8787 152.244 63.2747 151.936 63.2747 151.166V150.99C63.2747 150.22 62.8787 149.912 62.1747 149.912ZM62.8127 154.246H61.4707L61.1627 165.268H63.1207L62.8127 154.246ZM66.5183 161H75.0323V159.46H68.4763V145.952H66.5183V161ZM76.9002 161H78.7262V145.27H76.9002V161ZM83.8877 148.482L88.0897 145.468L87.0557 144.082L83.1837 147.514L83.8877 148.482ZM86.0657 161.308C87.0557 161.308 88.3317 161.154 89.2557 160.89L89.0797 159.526C88.2437 159.702 87.1877 159.812 86.4177 159.812C85.0537 159.812 84.2397 159.526 83.6677 158.998C83.0297 158.404 82.7217 157.436 82.7217 156.248H89.6737C89.8497 156.248 89.9377 156.182 89.9377 156.006V155.588C89.9377 152.046 88.4857 149.912 85.4717 149.912C82.7217 149.912 80.8077 151.782 80.8077 155.632C80.8077 157.568 81.2477 159.042 82.2157 160.01C83.0957 160.89 84.3937 161.308 86.0657 161.308ZM82.7217 154.906C82.7437 152.728 83.6457 151.386 85.4717 151.386C87.2757 151.386 88.0677 152.838 88.1337 154.906H82.7217ZM94.6017 161H96.6037L100.388 150.22H98.5397L95.6577 159.13L92.6657 150.22H90.7517L94.6017 161ZM104.721 161.308C106.019 161.308 107.163 160.89 108.109 160.274L108.219 161H109.693V153.828C109.693 152.42 109.429 151.562 108.747 150.902C108.065 150.264 106.987 149.912 105.381 149.912C104.347 149.912 103.115 150.044 102.103 150.286L102.169 151.694C103.225 151.518 104.259 151.43 105.073 151.43C106.151 151.43 106.855 151.628 107.317 152.068C107.713 152.464 107.867 153.014 107.867 153.894V154.576H105.623C104.061 154.576 102.785 154.862 101.971 155.61C101.399 156.138 101.047 156.93 101.047 157.942C101.047 158.954 101.377 159.724 101.905 160.274C102.565 160.956 103.555 161.308 104.721 161.308ZM105.117 159.834C103.709 159.834 102.895 159.196 102.895 157.898C102.895 157.238 103.115 156.776 103.489 156.468C103.995 156.072 104.765 155.918 105.887 155.918H107.867V159.13C107.075 159.526 105.997 159.834 105.117 159.834ZM116.026 161.308C116.818 161.308 117.676 161.176 118.248 161.022L118.16 159.68C117.632 159.79 116.906 159.856 116.532 159.856C115.762 159.856 115.388 159.702 115.146 159.438C114.838 159.108 114.772 158.58 114.772 157.546V151.562H117.61V150.22H114.772V147.36C114.2 147.36 113.474 147.514 112.946 147.69V150.242L110.988 150.528V151.562H112.946V157.788C112.946 159.13 113.1 159.856 113.628 160.472C114.112 161.022 114.97 161.308 116.026 161.308ZM124.567 161.308C125.557 161.308 126.833 161.154 127.757 160.89L127.581 159.526C126.745 159.702 125.689 159.812 124.919 159.812C123.555 159.812 122.741 159.526 122.169 158.998C121.531 158.404 121.223 157.436 121.223 156.248H128.175C128.351 156.248 128.439 156.182 128.439 156.006V155.588C128.439 152.046 126.987 149.912 123.973 149.912C121.223 149.912 119.309 151.782 119.309 155.632C119.309 157.568 119.749 159.042 120.717 160.01C121.597 160.89 122.895 161.308 124.567 161.308ZM121.223 154.906C121.245 152.728 122.147 151.386 123.973 151.386C125.777 151.386 126.569 152.838 126.635 154.906H121.223ZM130.592 161H132.418V145.27H130.592V161ZM139.406 161.308C142.75 161.308 144.312 159.196 144.312 155.61C144.312 152.024 142.75 149.912 139.406 149.912C136.062 149.912 134.5 152.024 134.5 155.61C134.5 159.196 136.062 161.308 139.406 161.308ZM139.406 159.812C137.206 159.812 136.414 158.36 136.414 155.61C136.414 152.86 137.206 151.408 139.406 151.408C141.606 151.408 142.398 152.86 142.398 155.61C142.398 158.36 141.606 159.812 139.406 159.812ZM155.208 161.308C156 161.308 157.21 161.154 157.914 160.956L157.782 159.592C157.232 159.702 156.264 159.812 155.538 159.812C154.218 159.812 153.294 159.504 152.678 158.8C152.084 158.118 151.776 157.084 151.776 155.72C151.776 152.86 152.92 151.386 155.45 151.386C156.132 151.386 157.012 151.518 157.694 151.65L157.804 150.242C157.056 150.044 156.066 149.912 155.23 149.912C153.58 149.912 152.194 150.396 151.27 151.386C150.346 152.376 149.862 153.85 149.862 155.742C149.862 157.634 150.39 159.042 151.292 159.966C152.172 160.868 153.448 161.308 155.208 161.308ZM164.103 161.308C167.447 161.308 169.009 159.196 169.009 155.61C169.009 152.024 167.447 149.912 164.103 149.912C160.759 149.912 159.197 152.024 159.197 155.61C159.197 159.196 160.759 161.308 164.103 161.308ZM164.103 159.812C161.903 159.812 161.111 158.36 161.111 155.61C161.111 152.86 161.903 151.408 164.103 151.408C166.303 151.408 167.095 152.86 167.095 155.61C167.095 158.36 166.303 159.812 164.103 159.812ZM171.081 161H172.907V152.222C173.787 151.804 174.953 151.518 175.921 151.518C176.713 151.518 177.285 151.694 177.659 152.068C178.033 152.442 178.187 152.97 178.187 153.894V161H180.013V153.674C180.013 152.332 179.705 151.452 179.111 150.858C178.495 150.22 177.571 149.912 176.405 149.912C175.151 149.912 173.809 150.33 172.687 151.012L172.599 150.22H171.081V161ZM191.344 161.308C192.334 161.308 193.61 161.154 194.534 160.89L194.358 159.526C193.522 159.702 192.466 159.812 191.696 159.812C190.332 159.812 189.518 159.526 188.946 158.998C188.308 158.404 188 157.436 188 156.248H194.952C195.128 156.248 195.216 156.182 195.216 156.006V155.588C195.216 152.046 193.764 149.912 190.75 149.912C188 149.912 186.086 151.782 186.086 155.632C186.086 157.568 186.526 159.042 187.494 160.01C188.374 160.89 189.672 161.308 191.344 161.308ZM188 154.906C188.022 152.728 188.924 151.386 190.75 151.386C192.554 151.386 193.346 152.838 193.412 154.906H188ZM197.369 161H199.195V145.27H197.369V161ZM210.585 161.308C211.575 161.308 212.851 161.154 213.775 160.89L213.599 159.526C212.763 159.702 211.707 159.812 210.937 159.812C209.573 159.812 208.759 159.526 208.187 158.998C207.549 158.404 207.241 157.436 207.241 156.248H214.193C214.369 156.248 214.457 156.182 214.457 156.006V155.588C214.457 152.046 213.005 149.912 209.991 149.912C207.241 149.912 205.327 151.782 205.327 155.632C205.327 157.568 205.767 159.042 206.735 160.01C207.615 160.89 208.913 161.308 210.585 161.308ZM207.241 154.906C207.263 152.728 208.165 151.386 209.991 151.386C211.795 151.386 212.587 152.838 212.653 154.906H207.241ZM223.364 166.148L225.19 165.818V150.22H223.672L223.562 150.946C222.66 150.286 221.582 149.912 220.548 149.912C217.754 149.912 216.016 152.068 216.016 155.676C216.016 159.35 217.644 161.308 220.35 161.308C221.318 161.308 222.528 160.978 223.364 160.494V166.148ZM220.856 159.812C218.942 159.812 217.93 158.492 217.93 155.632C217.93 152.838 218.942 151.452 220.768 151.452C221.67 151.452 222.572 151.738 223.364 152.2V159.174C222.616 159.548 221.648 159.812 220.856 159.812ZM231.399 161.308C232.653 161.308 233.951 160.89 235.073 160.208L235.161 161H236.679V150.22H234.853V158.998C233.973 159.416 232.851 159.702 231.883 159.702C231.091 159.702 230.519 159.526 230.145 159.152C229.771 158.778 229.617 158.25 229.617 157.326V150.22H227.791V157.546C227.791 158.888 228.099 159.768 228.693 160.362C229.309 161 230.233 161.308 231.399 161.308ZM240.221 148.174H240.331C240.991 148.174 241.409 147.844 241.409 147.008V146.964C241.409 146.128 240.991 145.798 240.331 145.798H240.221C239.561 145.798 239.143 146.128 239.143 146.964V147.008C239.143 147.844 239.561 148.174 240.221 148.174ZM239.363 161H241.189V150.22H239.363V161ZM243.863 165.95H245.689V160.494C246.481 161 247.647 161.308 248.769 161.308C251.343 161.308 252.971 159.614 252.971 155.566C252.971 152.134 251.629 149.912 248.835 149.912C247.845 149.912 246.591 150.264 245.469 151.012L245.381 150.22H243.863V165.95ZM248.307 159.79C247.383 159.79 246.327 159.504 245.689 159.13V152.2C246.525 151.76 247.603 151.474 248.439 151.474C250.243 151.474 251.057 152.794 251.057 155.544C251.057 158.624 250.265 159.79 248.307 159.79ZM259.38 161.308C262.724 161.308 264.286 159.196 264.286 155.61C264.286 152.024 262.724 149.912 259.38 149.912C256.036 149.912 254.474 152.024 254.474 155.61C254.474 159.196 256.036 161.308 259.38 161.308ZM259.38 159.812C257.18 159.812 256.388 158.36 256.388 155.61C256.388 152.86 257.18 151.408 259.38 151.408C261.58 151.408 262.372 152.86 262.372 155.61C262.372 158.36 261.58 159.812 259.38 159.812Z" fill="#0B2739"/>
<path d="M277.196 166.148L280.342 165.752V150.22H277.746L277.592 150.902C276.69 150.308 275.612 149.912 274.49 149.912C273.258 149.912 272.18 150.374 271.454 151.166C270.574 152.134 270.09 153.718 270.09 155.654C270.09 159.9 271.806 161.308 274.248 161.308C275.282 161.308 276.448 161 277.196 160.582V166.148ZM275.37 158.844C274.05 158.844 273.39 158.228 273.39 155.654C273.39 153.52 273.896 152.42 275.524 152.42C275.942 152.42 276.69 152.552 277.196 152.728V158.492C276.69 158.69 276.052 158.844 275.37 158.844ZM285.986 161.286C287.086 161.286 288.428 161 289.594 160.274L289.682 161H292.41V150.22H289.264V158.36C288.736 158.536 287.856 158.668 287.306 158.668C286.668 158.668 286.228 158.58 285.942 158.316C285.722 158.096 285.612 157.722 285.612 157.172V150.22H282.466V157.612C282.466 158.866 282.73 159.812 283.39 160.45C283.984 161.044 285.04 161.286 285.986 161.286ZM299.985 161.308C301.327 161.308 302.581 161.132 303.615 160.934L303.373 158.646C302.559 158.8 301.459 158.91 300.689 158.91C298.577 158.91 297.455 158.404 297.367 156.578H303.989C304.165 156.578 304.253 156.512 304.253 156.336V155.346C304.253 151.606 302.537 149.912 299.303 149.912C296.003 149.912 294.067 151.848 294.067 155.632C294.067 157.348 294.441 158.888 295.519 159.922C296.443 160.802 297.961 161.308 299.985 161.308ZM297.367 154.532C297.433 153.146 298.005 152.288 299.281 152.288C300.535 152.288 301.173 153.168 301.173 154.532H297.367ZM310.302 161H313.448V152.882C313.976 152.684 314.768 152.53 315.318 152.53C315.89 152.53 316.352 152.618 316.638 152.882C316.858 153.102 316.968 153.41 316.968 153.96V161H320.114V153.586C320.114 153.322 320.092 153.058 320.07 152.816C320.598 152.662 321.368 152.53 321.896 152.53C322.534 152.53 322.974 152.618 323.26 152.882C323.48 153.102 323.59 153.41 323.59 153.96V161H326.736V153.586C326.736 152.332 326.472 151.386 325.812 150.748C325.218 150.154 324.162 149.912 323.216 149.912C322.05 149.912 320.664 150.242 319.454 151.056C318.904 150.286 317.914 149.912 316.594 149.912C315.472 149.912 314.262 150.22 313.096 150.99L313.03 150.22H310.302V161ZM331.889 148.702L336.355 145.688L334.815 143.598L330.789 147.338L331.889 148.702ZM331.999 161.308C333.143 161.308 334.309 160.934 335.233 160.34L335.497 161H337.983V154.004C337.983 152.706 337.697 151.782 337.147 151.144C336.399 150.264 334.925 149.912 333.275 149.912C331.977 149.912 330.547 150.088 329.447 150.308L329.601 152.618C330.349 152.464 331.603 152.332 332.615 152.332C333.473 152.332 334.067 152.442 334.441 152.772C334.705 153.014 334.837 153.388 334.837 153.982V154.334H333.121C331.119 154.334 329.931 154.598 329.161 155.324C328.545 155.918 328.215 156.798 328.215 157.766C328.215 159.856 329.535 161.308 331.999 161.308ZM332.901 158.91C331.757 158.91 331.361 158.426 331.361 157.634C331.361 157.238 331.471 156.93 331.669 156.732C331.955 156.446 332.417 156.358 333.165 156.358H334.837V158.58C334.331 158.734 333.495 158.91 332.901 158.91ZM343.621 161.308C346.855 161.308 348.483 160.01 348.483 157.766C348.483 153.3 342.587 155.038 342.587 153.212C342.587 152.596 343.203 152.332 344.325 152.332C345.205 152.332 346.525 152.508 347.647 152.816L347.889 150.506C346.723 150.11 345.381 149.912 344.303 149.912C341.069 149.912 339.617 151.386 339.617 153.388C339.617 157.854 345.491 155.984 345.491 157.898C345.491 158.668 344.743 158.888 343.555 158.888C342.389 158.888 340.893 158.646 340.079 158.382L339.837 160.714C340.695 161.022 342.345 161.308 343.621 161.308ZM358.85 161.308C359.796 161.308 360.896 161.198 361.6 161.044L361.49 158.822C361.116 158.866 360.412 158.954 359.972 158.954C358.696 158.954 358.454 158.514 358.454 157.304V152.266H361.248V150.22H358.454V147.36C357.442 147.36 356.254 147.536 355.308 147.822V150.22L353.482 150.55V152.266H355.308V157.744C355.308 160.12 356.166 161.308 358.85 161.308ZM368.384 161.308C369.726 161.308 370.98 161.132 372.014 160.934L371.772 158.646C370.958 158.8 369.858 158.91 369.088 158.91C366.976 158.91 365.854 158.404 365.766 156.578H372.388C372.564 156.578 372.652 156.512 372.652 156.336V155.346C372.652 151.606 370.936 149.912 367.702 149.912C364.402 149.912 362.466 151.848 362.466 155.632C362.466 157.348 362.84 158.888 363.918 159.922C364.842 160.802 366.36 161.308 368.384 161.308ZM365.766 154.532C365.832 153.146 366.404 152.288 367.68 152.288C368.934 152.288 369.572 153.168 369.572 154.532H365.766ZM383.276 166.258H383.452C387.324 166.258 388.93 164.938 388.93 162.694C388.93 161.66 388.666 160.956 388.138 160.406C387.368 159.614 386.136 159.262 384.068 159.262H381.956C381.736 159.262 381.648 159.174 381.648 158.976C381.648 158.822 381.736 158.47 381.934 158.118C382.374 158.184 382.836 158.206 383.342 158.206C386.378 158.206 388.182 156.93 388.182 154.048C388.182 152.332 387.478 151.21 386.334 150.572L387.896 148.394C387.258 147.91 386.29 147.492 385.454 147.294L384.398 149.978C384.046 149.934 383.694 149.912 383.342 149.912C380.306 149.912 378.48 151.188 378.48 154.048C378.48 155.676 379.118 156.776 380.13 157.436C379.228 158.184 378.7 159.152 378.7 160.054C378.7 160.67 378.876 161.154 379.25 161.462C378.48 161.858 377.974 162.54 377.974 163.42C377.974 165.356 379.558 166.258 383.276 166.258ZM383.342 155.962C381.89 155.962 381.318 155.302 381.318 154.048C381.318 152.816 381.89 152.156 383.342 152.156C384.772 152.156 385.344 152.816 385.344 154.048C385.344 155.302 384.772 155.962 383.342 155.962ZM383.364 163.882C381.362 163.882 380.768 163.486 380.768 162.694C380.768 162.43 380.834 162.144 381.076 161.88H384.222C385.674 161.88 386.114 162.122 386.114 162.826C386.114 163.508 385.278 163.882 383.694 163.882H383.364ZM393.617 161.286C394.717 161.286 396.059 161 397.225 160.274L397.313 161H400.041V150.22H396.895V158.36C396.367 158.536 395.487 158.668 394.937 158.668C394.299 158.668 393.859 158.58 393.573 158.316C393.353 158.096 393.243 157.722 393.243 157.172V150.22H390.097V157.612C390.097 158.866 390.361 159.812 391.021 160.45C391.615 161.044 392.671 161.286 393.617 161.286ZM405.746 161.308C408.98 161.308 410.608 160.01 410.608 157.766C410.608 153.3 404.712 155.038 404.712 153.212C404.712 152.596 405.328 152.332 406.45 152.332C407.33 152.332 408.65 152.508 409.772 152.816L410.014 150.506C408.848 150.11 407.506 149.912 406.428 149.912C403.194 149.912 401.742 151.386 401.742 153.388C401.742 157.854 407.616 155.984 407.616 157.898C407.616 158.668 406.868 158.888 405.68 158.888C404.514 158.888 403.018 158.646 402.204 158.382L401.962 160.714C402.82 161.022 404.47 161.308 405.746 161.308ZM416.473 161.308C417.419 161.308 418.519 161.198 419.223 161.044L419.113 158.822C418.739 158.866 418.035 158.954 417.595 158.954C416.319 158.954 416.077 158.514 416.077 157.304V152.266H418.871V150.22H416.077V147.36C415.065 147.36 413.877 147.536 412.931 147.822V150.22L411.105 150.55V152.266H412.931V157.744C412.931 160.12 413.789 161.308 416.473 161.308ZM426.007 161.308C427.349 161.308 428.603 161.132 429.637 160.934L429.395 158.646C428.581 158.8 427.481 158.91 426.711 158.91C424.599 158.91 423.477 158.404 423.389 156.578H430.011C430.187 156.578 430.275 156.512 430.275 156.336V155.346C430.275 151.606 428.559 149.912 425.325 149.912C422.025 149.912 420.089 151.848 420.089 155.632C420.089 157.348 420.463 158.888 421.541 159.922C422.465 160.802 423.983 161.308 426.007 161.308ZM423.389 154.532C423.455 153.146 424.027 152.288 425.303 152.288C426.557 152.288 427.195 153.168 427.195 154.532H423.389ZM432.482 156.292H434.814L435.298 145.952H431.998L432.482 156.292ZM433.626 161.308H433.78C434.836 161.308 435.386 160.89 435.386 159.79V159.526C435.386 158.426 434.836 158.008 433.78 158.008H433.626C432.57 158.008 432.02 158.426 432.02 159.526V159.79C432.02 160.89 432.57 161.308 433.626 161.308Z" fill="#019DF4"/>
</svg>
