<svg width="431" height="206" viewBox="0 0 431 206" fill="none" xmlns="http://www.w3.org/2000/svg">
<path d="M55.0145 166.116H54.9195C54.3115 166.116 53.9695 166.382 53.9695 167.047V167.199C53.9695 167.864 54.3115 168.13 54.9195 168.13H55.0145C55.6225 168.13 55.9645 167.864 55.9645 167.199V167.047C55.9645 166.382 55.6225 166.116 55.0145 166.116ZM55.5655 169.859H54.4065L54.1405 179.378H55.8315L55.5655 169.859ZM58.7658 175.692H66.1188V174.362H60.4568V162.696H58.7658V175.692ZM67.732 175.692H69.309V162.107H67.732V175.692ZM73.7666 164.881L77.3956 162.278L76.5026 161.081L73.1586 164.045L73.7666 164.881ZM75.6476 175.958C76.5026 175.958 77.6046 175.825 78.4026 175.597L78.2506 174.419C77.5286 174.571 76.6166 174.666 75.9516 174.666C74.7736 174.666 74.0706 174.419 73.5766 173.963C73.0256 173.45 72.7596 172.614 72.7596 171.588H78.7636C78.9156 171.588 78.9916 171.531 78.9916 171.379V171.018C78.9916 167.959 77.7376 166.116 75.1346 166.116C72.7596 166.116 71.1066 167.731 71.1066 171.056C71.1066 172.728 71.4866 174.001 72.3226 174.837C73.0826 175.597 74.2036 175.958 75.6476 175.958ZM72.7596 170.429C72.7786 168.548 73.5576 167.389 75.1346 167.389C76.6926 167.389 77.3766 168.643 77.4336 170.429H72.7596ZM83.0196 175.692H84.7486L88.0166 166.382H86.4206L83.9316 174.077L81.3476 166.382H79.6946L83.0196 175.692ZM91.7589 175.958C92.8799 175.958 93.8679 175.597 94.6849 175.065L94.7799 175.692H96.0529V169.498C96.0529 168.282 95.8249 167.541 95.2359 166.971C94.6469 166.42 93.7159 166.116 92.3289 166.116C91.4359 166.116 90.3719 166.23 89.4979 166.439L89.5549 167.655C90.4669 167.503 91.3599 167.427 92.0629 167.427C92.9939 167.427 93.6019 167.598 94.0009 167.978C94.3429 168.32 94.4759 168.795 94.4759 169.555V170.144H92.5379C91.1889 170.144 90.0869 170.391 89.3839 171.037C88.8899 171.493 88.5859 172.177 88.5859 173.051C88.5859 173.925 88.8709 174.59 89.3269 175.065C89.8969 175.654 90.7519 175.958 91.7589 175.958ZM92.1009 174.685C90.8849 174.685 90.1819 174.134 90.1819 173.013C90.1819 172.443 90.3719 172.044 90.6949 171.778C91.1319 171.436 91.7969 171.303 92.7659 171.303H94.4759V174.077C93.7919 174.419 92.8609 174.685 92.1009 174.685ZM101.523 175.958C102.207 175.958 102.948 175.844 103.442 175.711L103.366 174.552C102.91 174.647 102.283 174.704 101.96 174.704C101.295 174.704 100.972 174.571 100.763 174.343C100.497 174.058 100.44 173.602 100.44 172.709V167.541H102.891V166.382H100.44V163.912C99.9456 163.912 99.3186 164.045 98.8626 164.197V166.401L97.1716 166.648V167.541H98.8626V172.918C98.8626 174.077 98.9956 174.704 99.4516 175.236C99.8696 175.711 100.611 175.958 101.523 175.958ZM108.899 175.958C109.754 175.958 110.856 175.825 111.654 175.597L111.502 174.419C110.78 174.571 109.868 174.666 109.203 174.666C108.025 174.666 107.322 174.419 106.828 173.963C106.277 173.45 106.011 172.614 106.011 171.588H112.015C112.167 171.588 112.243 171.531 112.243 171.379V171.018C112.243 167.959 110.989 166.116 108.386 166.116C106.011 166.116 104.358 167.731 104.358 171.056C104.358 172.728 104.738 174.001 105.574 174.837C106.334 175.597 107.455 175.958 108.899 175.958ZM106.011 170.429C106.03 168.548 106.809 167.389 108.386 167.389C109.944 167.389 110.628 168.643 110.685 170.429H106.011ZM114.102 175.692H115.679V162.107H114.102V175.692ZM121.714 175.958C124.602 175.958 125.951 174.134 125.951 171.037C125.951 167.94 124.602 166.116 121.714 166.116C118.826 166.116 117.477 167.94 117.477 171.037C117.477 174.134 118.826 175.958 121.714 175.958ZM121.714 174.666C119.814 174.666 119.13 173.412 119.13 171.037C119.13 168.662 119.814 167.408 121.714 167.408C123.614 167.408 124.298 168.662 124.298 171.037C124.298 173.412 123.614 174.666 121.714 174.666ZM135.361 175.958C136.045 175.958 137.09 175.825 137.698 175.654L137.584 174.476C137.109 174.571 136.273 174.666 135.646 174.666C134.506 174.666 133.708 174.4 133.176 173.792C132.663 173.203 132.397 172.31 132.397 171.132C132.397 168.662 133.385 167.389 135.57 167.389C136.159 167.389 136.919 167.503 137.508 167.617L137.603 166.401C136.957 166.23 136.102 166.116 135.38 166.116C133.955 166.116 132.758 166.534 131.96 167.389C131.162 168.244 130.744 169.517 130.744 171.151C130.744 172.785 131.2 174.001 131.979 174.799C132.739 175.578 133.841 175.958 135.361 175.958ZM143.044 175.958C145.932 175.958 147.281 174.134 147.281 171.037C147.281 167.94 145.932 166.116 143.044 166.116C140.156 166.116 138.807 167.94 138.807 171.037C138.807 174.134 140.156 175.958 143.044 175.958ZM143.044 174.666C141.144 174.666 140.46 173.412 140.46 171.037C140.46 168.662 141.144 167.408 143.044 167.408C144.944 167.408 145.628 168.662 145.628 171.037C145.628 173.412 144.944 174.666 143.044 174.666ZM149.07 175.692H150.647V168.111C151.407 167.75 152.414 167.503 153.25 167.503C153.934 167.503 154.428 167.655 154.751 167.978C155.074 168.301 155.207 168.757 155.207 169.555V175.692H156.784V169.365C156.784 168.206 156.518 167.446 156.005 166.933C155.473 166.382 154.675 166.116 153.668 166.116C152.585 166.116 151.426 166.477 150.457 167.066L150.381 166.382H149.07V175.692ZM166.57 175.958C167.425 175.958 168.527 175.825 169.325 175.597L169.173 174.419C168.451 174.571 167.539 174.666 166.874 174.666C165.696 174.666 164.993 174.419 164.499 173.963C163.948 173.45 163.682 172.614 163.682 171.588H169.686C169.838 171.588 169.914 171.531 169.914 171.379V171.018C169.914 167.959 168.66 166.116 166.057 166.116C163.682 166.116 162.029 167.731 162.029 171.056C162.029 172.728 162.409 174.001 163.245 174.837C164.005 175.597 165.126 175.958 166.57 175.958ZM163.682 170.429C163.701 168.548 164.48 167.389 166.057 167.389C167.615 167.389 168.299 168.643 168.356 170.429H163.682ZM171.773 175.692H173.35V162.107H171.773V175.692ZM183.187 175.958C184.042 175.958 185.144 175.825 185.942 175.597L185.79 174.419C185.068 174.571 184.156 174.666 183.491 174.666C182.313 174.666 181.61 174.419 181.116 173.963C180.565 173.45 180.299 172.614 180.299 171.588H186.303C186.455 171.588 186.531 171.531 186.531 171.379V171.018C186.531 167.959 185.277 166.116 182.674 166.116C180.299 166.116 178.646 167.731 178.646 171.056C178.646 172.728 179.026 174.001 179.862 174.837C180.622 175.597 181.743 175.958 183.187 175.958ZM180.299 170.429C180.318 168.548 181.097 167.389 182.674 167.389C184.232 167.389 184.916 168.643 184.973 170.429H180.299ZM194.223 180.138L195.8 179.853V166.382H194.489L194.394 167.009C193.615 166.439 192.684 166.116 191.791 166.116C189.378 166.116 187.877 167.978 187.877 171.094C187.877 174.267 189.283 175.958 191.62 175.958C192.456 175.958 193.501 175.673 194.223 175.255V180.138ZM192.057 174.666C190.404 174.666 189.53 173.526 189.53 171.056C189.53 168.643 190.404 167.446 191.981 167.446C192.76 167.446 193.539 167.693 194.223 168.092V174.115C193.577 174.438 192.741 174.666 192.057 174.666ZM201.163 175.958C202.246 175.958 203.367 175.597 204.336 175.008L204.412 175.692H205.723V166.382H204.146V173.963C203.386 174.324 202.417 174.571 201.581 174.571C200.897 174.571 200.403 174.419 200.08 174.096C199.757 173.773 199.624 173.317 199.624 172.519V166.382H198.047V172.709C198.047 173.868 198.313 174.628 198.826 175.141C199.358 175.692 200.156 175.958 201.163 175.958ZM208.782 164.615H208.877C209.447 164.615 209.808 164.33 209.808 163.608V163.57C209.808 162.848 209.447 162.563 208.877 162.563H208.782C208.212 162.563 207.851 162.848 207.851 163.57V163.608C207.851 164.33 208.212 164.615 208.782 164.615ZM208.041 175.692H209.618V166.382H208.041V175.692ZM211.927 179.967H213.504V175.255C214.188 175.692 215.195 175.958 216.164 175.958C218.387 175.958 219.793 174.495 219.793 170.999C219.793 168.035 218.634 166.116 216.221 166.116C215.366 166.116 214.283 166.42 213.314 167.066L213.238 166.382H211.927V179.967ZM215.765 174.647C214.967 174.647 214.055 174.4 213.504 174.077V168.092C214.226 167.712 215.157 167.465 215.879 167.465C217.437 167.465 218.14 168.605 218.14 170.98C218.14 173.64 217.456 174.647 215.765 174.647ZM225.329 175.958C228.217 175.958 229.566 174.134 229.566 171.037C229.566 167.94 228.217 166.116 225.329 166.116C222.441 166.116 221.092 167.94 221.092 171.037C221.092 174.134 222.441 175.958 225.329 175.958ZM225.329 174.666C223.429 174.666 222.745 173.412 222.745 171.037C222.745 168.662 223.429 167.408 225.329 167.408C227.229 167.408 227.913 168.662 227.913 171.037C227.913 173.412 227.229 174.666 225.329 174.666Z" fill="#0B2739"/>
<path d="M240.715 180.138L243.432 179.796V166.382H241.19L241.057 166.971C240.278 166.458 239.347 166.116 238.378 166.116C237.314 166.116 236.383 166.515 235.756 167.199C234.996 168.035 234.578 169.403 234.578 171.075C234.578 174.742 236.06 175.958 238.169 175.958C239.062 175.958 240.069 175.692 240.715 175.331V180.138ZM239.138 173.83C237.998 173.83 237.428 173.298 237.428 171.075C237.428 169.232 237.865 168.282 239.271 168.282C239.632 168.282 240.278 168.396 240.715 168.548V173.526C240.278 173.697 239.727 173.83 239.138 173.83ZM248.306 175.939C249.256 175.939 250.415 175.692 251.422 175.065L251.498 175.692H253.854V166.382H251.137V173.412C250.681 173.564 249.921 173.678 249.446 173.678C248.895 173.678 248.515 173.602 248.268 173.374C248.078 173.184 247.983 172.861 247.983 172.386V166.382H245.266V172.766C245.266 173.849 245.494 174.666 246.064 175.217C246.577 175.73 247.489 175.939 248.306 175.939ZM260.396 175.958C261.555 175.958 262.638 175.806 263.531 175.635L263.322 173.659C262.619 173.792 261.669 173.887 261.004 173.887C259.18 173.887 258.211 173.45 258.135 171.873H263.854C264.006 171.873 264.082 171.816 264.082 171.664V170.809C264.082 167.579 262.6 166.116 259.807 166.116C256.957 166.116 255.285 167.788 255.285 171.056C255.285 172.538 255.608 173.868 256.539 174.761C257.337 175.521 258.648 175.958 260.396 175.958ZM258.135 170.106C258.192 168.909 258.686 168.168 259.788 168.168C260.871 168.168 261.422 168.928 261.422 170.106H258.135ZM269.306 175.692H272.023V168.681C272.479 168.51 273.163 168.377 273.638 168.377C274.132 168.377 274.531 168.453 274.778 168.681C274.968 168.871 275.063 169.137 275.063 169.612V175.692H277.78V169.289C277.78 169.061 277.761 168.833 277.742 168.624C278.198 168.491 278.863 168.377 279.319 168.377C279.87 168.377 280.25 168.453 280.497 168.681C280.687 168.871 280.782 169.137 280.782 169.612V175.692H283.499V169.289C283.499 168.206 283.271 167.389 282.701 166.838C282.188 166.325 281.276 166.116 280.459 166.116C279.452 166.116 278.255 166.401 277.21 167.104C276.735 166.439 275.88 166.116 274.74 166.116C273.771 166.116 272.726 166.382 271.719 167.047L271.662 166.382H269.306V175.692ZM287.95 165.071L291.807 162.468L290.477 160.663L287 163.893L287.95 165.071ZM288.045 175.958C289.033 175.958 290.04 175.635 290.838 175.122L291.066 175.692H293.213V169.65C293.213 168.529 292.966 167.731 292.491 167.18C291.845 166.42 290.572 166.116 289.147 166.116C288.026 166.116 286.791 166.268 285.841 166.458L285.974 168.453C286.62 168.32 287.703 168.206 288.577 168.206C289.318 168.206 289.831 168.301 290.154 168.586C290.382 168.795 290.496 169.118 290.496 169.631V169.935H289.014C287.285 169.935 286.259 170.163 285.594 170.79C285.062 171.303 284.777 172.063 284.777 172.899C284.777 174.704 285.917 175.958 288.045 175.958ZM288.824 173.887C287.836 173.887 287.494 173.469 287.494 172.785C287.494 172.443 287.589 172.177 287.76 172.006C288.007 171.759 288.406 171.683 289.052 171.683H290.496V173.602C290.059 173.735 289.337 173.887 288.824 173.887ZM298.082 175.958C300.875 175.958 302.281 174.837 302.281 172.899C302.281 169.042 297.189 170.543 297.189 168.966C297.189 168.434 297.721 168.206 298.69 168.206C299.45 168.206 300.59 168.358 301.559 168.624L301.768 166.629C300.761 166.287 299.602 166.116 298.671 166.116C295.878 166.116 294.624 167.389 294.624 169.118C294.624 172.975 299.697 171.36 299.697 173.013C299.697 173.678 299.051 173.868 298.025 173.868C297.018 173.868 295.726 173.659 295.023 173.431L294.814 175.445C295.555 175.711 296.98 175.958 298.082 175.958ZM311.234 175.958C312.051 175.958 313.001 175.863 313.609 175.73L313.514 173.811C313.191 173.849 312.583 173.925 312.203 173.925C311.101 173.925 310.892 173.545 310.892 172.5V168.149H313.305V166.382H310.892V163.912C310.018 163.912 308.992 164.064 308.175 164.311V166.382L306.598 166.667V168.149H308.175V172.88C308.175 174.932 308.916 175.958 311.234 175.958ZM319.468 175.958C320.627 175.958 321.71 175.806 322.603 175.635L322.394 173.659C321.691 173.792 320.741 173.887 320.076 173.887C318.252 173.887 317.283 173.45 317.207 171.873H322.926C323.078 171.873 323.154 171.816 323.154 171.664V170.809C323.154 167.579 321.672 166.116 318.879 166.116C316.029 166.116 314.357 167.788 314.357 171.056C314.357 172.538 314.68 173.868 315.611 174.761C316.409 175.521 317.72 175.958 319.468 175.958ZM317.207 170.106C317.264 168.909 317.758 168.168 318.86 168.168C319.943 168.168 320.494 168.928 320.494 170.106H317.207ZM332.329 180.233H332.481C335.825 180.233 337.212 179.093 337.212 177.155C337.212 176.262 336.984 175.654 336.528 175.179C335.863 174.495 334.799 174.191 333.013 174.191H331.189C330.999 174.191 330.923 174.115 330.923 173.944C330.923 173.811 330.999 173.507 331.17 173.203C331.55 173.26 331.949 173.279 332.386 173.279C335.008 173.279 336.566 172.177 336.566 169.688C336.566 168.206 335.958 167.237 334.97 166.686L336.319 164.805C335.768 164.387 334.932 164.026 334.21 163.855L333.298 166.173C332.994 166.135 332.69 166.116 332.386 166.116C329.764 166.116 328.187 167.218 328.187 169.688C328.187 171.094 328.738 172.044 329.612 172.614C328.833 173.26 328.377 174.096 328.377 174.875C328.377 175.407 328.529 175.825 328.852 176.091C328.187 176.433 327.75 177.022 327.75 177.782C327.75 179.454 329.118 180.233 332.329 180.233ZM332.386 171.341C331.132 171.341 330.638 170.771 330.638 169.688C330.638 168.624 331.132 168.054 332.386 168.054C333.621 168.054 334.115 168.624 334.115 169.688C334.115 170.771 333.621 171.341 332.386 171.341ZM332.405 178.181C330.676 178.181 330.163 177.839 330.163 177.155C330.163 176.927 330.22 176.68 330.429 176.452H333.146C334.4 176.452 334.78 176.661 334.78 177.269C334.78 177.858 334.058 178.181 332.69 178.181H332.405ZM341.26 175.939C342.21 175.939 343.369 175.692 344.376 175.065L344.452 175.692H346.808V166.382H344.091V173.412C343.635 173.564 342.875 173.678 342.4 173.678C341.849 173.678 341.469 173.602 341.222 173.374C341.032 173.184 340.937 172.861 340.937 172.386V166.382H338.22V172.766C338.22 173.849 338.448 174.666 339.018 175.217C339.531 175.73 340.443 175.939 341.26 175.939ZM351.735 175.958C354.528 175.958 355.934 174.837 355.934 172.899C355.934 169.042 350.842 170.543 350.842 168.966C350.842 168.434 351.374 168.206 352.343 168.206C353.103 168.206 354.243 168.358 355.212 168.624L355.421 166.629C354.414 166.287 353.255 166.116 352.324 166.116C349.531 166.116 348.277 167.389 348.277 169.118C348.277 172.975 353.35 171.36 353.35 173.013C353.35 173.678 352.704 173.868 351.678 173.868C350.671 173.868 349.379 173.659 348.676 173.431L348.467 175.445C349.208 175.711 350.633 175.958 351.735 175.958ZM361 175.958C361.817 175.958 362.767 175.863 363.375 175.73L363.28 173.811C362.957 173.849 362.349 173.925 361.969 173.925C360.867 173.925 360.658 173.545 360.658 172.5V168.149H363.071V166.382H360.658V163.912C359.784 163.912 358.758 164.064 357.941 164.311V166.382L356.364 166.667V168.149H357.941V172.88C357.941 174.932 358.682 175.958 361 175.958ZM369.234 175.958C370.393 175.958 371.476 175.806 372.369 175.635L372.16 173.659C371.457 173.792 370.507 173.887 369.842 173.887C368.018 173.887 367.049 173.45 366.973 171.873H372.692C372.844 171.873 372.92 171.816 372.92 171.664V170.809C372.92 167.579 371.438 166.116 368.645 166.116C365.795 166.116 364.123 167.788 364.123 171.056C364.123 172.538 364.446 173.868 365.377 174.761C366.175 175.521 367.486 175.958 369.234 175.958ZM366.973 170.106C367.03 168.909 367.524 168.168 368.626 168.168C369.709 168.168 370.26 168.928 370.26 170.106H366.973ZM374.826 171.626H376.84L377.258 162.696H374.408L374.826 171.626ZM375.814 175.958H375.947C376.859 175.958 377.334 175.597 377.334 174.647V174.419C377.334 173.469 376.859 173.108 375.947 173.108H375.814C374.902 173.108 374.427 173.469 374.427 174.419V174.647C374.427 175.597 374.902 175.958 375.814 175.958Z" fill="#019DF4"/>
<path d="M96.1683 122.379C106.458 122.379 113.283 120.279 118.323 115.554C122.103 111.984 124.308 106.839 124.308 100.434C124.308 72.3986 87.6633 82.0586 87.6633 67.9886C87.6633 63.4736 90.4983 60.3236 99.3183 60.3236C104.358 60.3236 110.658 61.2686 116.538 62.8436L119.058 50.6636C113.493 48.7736 105.933 47.7236 99.0033 47.7236C83.6733 47.7236 72.2283 54.1286 72.2283 68.7236C72.2283 96.9686 108.873 87.2036 108.873 100.644C108.873 107.259 104.358 109.779 94.6983 109.779C89.4483 109.779 81.1533 108.414 74.8533 106.209L72.3333 118.704C79.5783 121.224 87.0333 122.379 96.1683 122.379ZM121.352 122.379H134.687L166.292 47.7236H152.957L121.352 122.379ZM194.796 120.909H209.811V104.424H218.211V93.1886H209.811V76.0736H194.796V93.1886H178.206L194.376 49.0886H179.886L164.976 89.8286C163.296 94.4486 162.771 97.8086 162.771 100.749C162.771 102.114 162.981 103.689 163.191 104.424H194.796V120.909ZM249.355 120.909H264.37V104.424H272.77V93.1886H264.37V76.0736H249.355V93.1886H232.765L248.935 49.0886H234.445L219.535 89.8286C217.855 94.4486 217.33 97.8086 217.33 100.749C217.33 102.114 217.54 103.689 217.75 104.424H249.355V120.909Z" fill="#019DF4"/>
<path d="M116.135 117.742L116.659 118.301L116.661 118.299L116.135 117.742ZM114.35 65.0321L114.152 65.772L114.936 65.9819L115.1 65.1873L114.35 65.0321ZM116.87 52.8521L117.62 53.0073L117.757 52.3445L117.116 52.1268L116.87 52.8521ZM72.665 108.397L72.918 107.674L72.088 107.384L71.9142 108.246L72.665 108.397ZM70.145 120.892L69.3942 120.741L69.262 121.396L69.8934 121.616L70.145 120.892ZM93.98 125.333C104.371 125.333 111.421 123.212 116.659 118.301L115.611 117.183C110.769 121.723 104.169 123.801 93.98 123.801V125.333ZM116.661 118.299C120.612 114.567 122.886 109.212 122.886 102.622H121.354C121.354 108.843 119.218 113.777 115.609 117.185L116.661 118.299ZM122.886 102.622C122.886 95.4227 120.523 90.5623 116.921 87.148C113.353 83.7653 108.63 81.863 104.025 80.4313C101.724 79.7161 99.4058 79.1051 97.2802 78.4975C95.1369 77.8848 93.1758 77.2719 91.5092 76.5389C89.8395 75.8045 88.5218 74.9732 87.6243 73.9546C86.745 72.9567 86.241 71.7486 86.241 70.1771H84.709C84.709 72.1231 85.3502 73.6909 86.4749 74.9674C87.5814 76.2231 89.1266 77.1645 90.8924 77.9411C92.6612 78.7191 94.7082 79.3555 96.8592 79.9704C99.0279 80.5904 101.29 81.1853 103.57 81.8942C108.126 83.3106 112.565 85.1292 115.867 88.2598C119.136 91.3588 121.354 95.804 121.354 102.622H122.886ZM86.241 70.1771C86.241 68.0945 86.8836 66.4368 88.4532 65.2653C90.07 64.0585 92.7857 63.2781 97.13 63.2781V61.7461C92.6543 61.7461 89.5425 62.5407 87.5369 64.0376C85.4839 65.5699 84.709 67.7447 84.709 70.1771H86.241ZM97.13 63.2781C102.088 63.2781 108.32 64.2099 114.152 65.772L114.548 64.2922C108.62 62.7043 102.252 61.7461 97.13 61.7461V63.2781ZM115.1 65.1873L117.62 53.0073L116.12 52.6969L113.6 64.8769L115.1 65.1873ZM117.116 52.1268C111.453 50.2036 103.807 49.1461 96.815 49.1461V50.6781C103.683 50.6781 111.157 51.7206 116.624 53.5774L117.116 52.1268ZM96.815 49.1461C89.06 49.1461 82.1873 50.7637 77.2324 54.3165C72.2406 57.8958 69.274 63.3851 69.274 70.9121H70.806C70.806 63.8441 73.5619 58.8334 78.1251 55.5615C82.7252 52.263 89.24 50.6781 96.815 50.6781V49.1461ZM69.274 70.9121C69.274 78.1618 71.6356 83.0554 75.238 86.4806C78.808 89.875 83.5323 91.764 88.1409 93.1572C90.4455 93.8539 92.7603 94.437 94.8904 95.013C97.0357 95.5931 98.9985 96.167 100.667 96.8547C102.34 97.5442 103.656 98.3242 104.55 99.2827C105.423 100.218 105.919 101.35 105.919 102.832H107.451C107.451 100.954 106.802 99.451 105.671 98.2379C104.561 97.0476 103.014 96.1647 101.251 95.4384C99.4844 94.7103 97.4392 94.1152 95.2902 93.5342C93.126 92.949 90.8601 92.3788 88.5841 91.6908C84.0314 90.3145 79.5945 88.5089 76.2936 85.3704C73.025 82.2626 70.806 77.7849 70.806 70.9121H69.274ZM105.919 102.832C105.919 105.935 104.88 107.942 102.815 109.23C100.669 110.569 97.3078 111.201 92.51 111.201V112.733C97.3722 112.733 101.099 112.106 103.625 110.53C106.232 108.904 107.451 106.344 107.451 102.832H105.919ZM92.51 111.201C87.3515 111.201 79.1419 109.853 72.918 107.674L72.412 109.12C78.7881 111.352 87.1685 112.733 92.51 112.733V111.201ZM71.9142 108.246L69.3942 120.741L70.8958 121.044L73.4158 108.549L71.9142 108.246ZM69.8934 121.616C77.2326 124.168 84.7747 125.333 93.98 125.333V123.801C84.9153 123.801 77.5474 122.656 70.3966 120.169L69.8934 121.616ZM119.164 124.567L118.458 124.269L118.008 125.333H119.164V124.567ZM132.499 124.567V125.333H133.006L133.204 124.866L132.499 124.567ZM164.104 49.9121L164.809 50.2107L165.26 49.1461H164.104V49.9121ZM150.769 49.9121V49.1461H150.261L150.063 49.6135L150.769 49.9121ZM119.164 125.333H132.499V123.801H119.164V125.333ZM133.204 124.866L164.809 50.2107L163.398 49.6135L131.793 124.269L133.204 124.866ZM164.104 49.1461H150.769V50.6781H164.104V49.1461ZM150.063 49.6135L118.458 124.269L119.869 124.866L151.474 50.2107L150.063 49.6135ZM192.608 123.097H191.842V123.863H192.608V123.097ZM207.623 123.097V123.863H208.389V123.097H207.623ZM207.623 106.612V105.846H206.857V106.612H207.623ZM216.023 106.612V107.378H216.789V106.612H216.023ZM216.023 95.3771H216.789V94.6112H216.023V95.3771ZM207.623 95.3771H206.857V96.1431H207.623V95.3771ZM207.623 78.2621H208.389V77.4961H207.623V78.2621ZM192.608 78.2621V77.4961H191.842V78.2621H192.608ZM192.608 95.3771V96.1431H193.374V95.3771H192.608ZM176.018 95.3771L175.299 95.1134L174.921 96.1431H176.018V95.3771ZM192.188 51.2771L192.907 51.5408L193.284 50.5111H192.188V51.2771ZM177.698 51.2771V50.5111H177.162L176.979 51.0139L177.698 51.2771ZM162.788 92.0171L162.069 91.7539L162.068 91.7553L162.788 92.0171ZM161.003 106.612L160.266 106.823L160.425 107.378H161.003V106.612ZM192.608 106.612H193.374V105.846H192.608V106.612ZM192.608 123.863H207.623V122.331H192.608V123.863ZM208.389 123.097V106.612H206.857V123.097H208.389ZM207.623 107.378H216.023V105.846H207.623V107.378ZM216.789 106.612V95.3771H215.257V106.612H216.789ZM216.023 94.6112H207.623V96.1431H216.023V94.6112ZM208.389 95.3771V78.2621H206.857V95.3771H208.389ZM207.623 77.4961H192.608V79.0281H207.623V77.4961ZM191.842 78.2621V95.3771H193.374V78.2621H191.842ZM192.608 94.6112H176.018V96.1431H192.608V94.6112ZM176.737 95.6408L192.907 51.5408L191.469 51.0134L175.299 95.1134L176.737 95.6408ZM192.188 50.5111H177.698V52.0431H192.188V50.5111ZM176.979 51.0139L162.069 91.7539L163.507 92.2804L178.417 51.5404L176.979 51.0139ZM162.068 91.7553C160.363 96.4445 159.817 99.8934 159.817 102.937H161.349C161.349 100.101 161.853 96.8297 163.508 92.2789L162.068 91.7553ZM159.817 102.937C159.817 104.352 160.032 106.001 160.266 106.823L161.739 106.402C161.554 105.753 161.349 104.253 161.349 102.937H159.817ZM161.003 107.378H192.608V105.846H161.003V107.378ZM191.842 106.612V123.097H193.374V106.612H191.842ZM247.167 123.097H246.401V123.863H247.167V123.097ZM262.182 123.097V123.863H262.948V123.097H262.182ZM262.182 106.612V105.846H261.416V106.612H262.182ZM270.582 106.612V107.378H271.348V106.612H270.582ZM270.582 95.3771H271.348V94.6112H270.582V95.3771ZM262.182 95.3771H261.416V96.1431H262.182V95.3771ZM262.182 78.2621H262.948V77.4961H262.182V78.2621ZM247.167 78.2621V77.4961H246.401V78.2621H247.167ZM247.167 95.3771V96.1431H247.933V95.3771H247.167ZM230.577 95.3771L229.858 95.1134L229.48 96.1431H230.577V95.3771ZM246.747 51.2771L247.466 51.5408L247.843 50.5111H246.747V51.2771ZM232.257 51.2771V50.5111H231.721L231.538 51.0139L232.257 51.2771ZM217.347 92.0171L216.628 91.7539L216.627 91.7553L217.347 92.0171ZM215.562 106.612L214.825 106.823L214.984 107.378H215.562V106.612ZM247.167 106.612H247.933V105.846H247.167V106.612ZM247.167 123.863H262.182V122.331H247.167V123.863ZM262.948 123.097V106.612H261.416V123.097H262.948ZM262.182 107.378H270.582V105.846H262.182V107.378ZM271.348 106.612V95.3771H269.816V106.612H271.348ZM270.582 94.6112H262.182V96.1431H270.582V94.6112ZM262.948 95.3771V78.2621H261.416V95.3771H262.948ZM262.182 77.4961H247.167V79.0281H262.182V77.4961ZM246.401 78.2621V95.3771H247.933V78.2621H246.401ZM247.167 94.6112H230.577V96.1431H247.167V94.6112ZM231.296 95.6408L247.466 51.5408L246.028 51.0134L229.858 95.1134L231.296 95.6408ZM246.747 50.5111H232.257V52.0431H246.747V50.5111ZM231.538 51.0139L216.628 91.7539L218.066 92.2804L232.976 51.5404L231.538 51.0139ZM216.627 91.7553C214.922 96.4445 214.376 99.8934 214.376 102.937H215.908C215.908 100.101 216.412 96.8297 218.067 92.2789L216.627 91.7553ZM214.376 102.937C214.376 104.352 214.591 106.001 214.825 106.823L216.298 106.402C216.113 105.753 215.908 104.253 215.908 102.937H214.376ZM215.562 107.378H247.167V105.846H215.562V107.378ZM246.401 106.612V123.097H247.933V106.612H246.401Z" fill="#019DF4"/>
<path d="M290.248 85.4356H290.619C293.163 85.4356 294.488 84.4286 294.488 81.7786V81.1426C294.488 78.4926 293.163 77.4856 290.619 77.4856H290.248C287.704 77.4856 286.379 78.4926 286.379 81.1426V81.7786C286.379 84.4286 287.704 85.4356 290.248 85.4356ZM303.406 84.6936H311.515L321.691 55.8086C322.327 54.0596 322.539 52.3106 322.539 50.6146C322.539 49.8196 322.433 48.8656 322.168 48.4416H298.53V53.8476H315.437L303.406 84.6936ZM327.288 84.6936H350.396V79.2876H335.768L342.075 72.3976C347.799 66.1436 349.813 62.6986 349.813 58.1936C349.813 55.1726 348.912 52.8406 347.216 51.1446C344.99 48.9186 341.545 47.7526 336.351 47.7526C333.383 47.7526 330.044 48.2296 327.924 48.7596V54.3776C330.203 53.9536 332.959 53.6886 335.026 53.6886C337.623 53.6886 339.425 54.1126 340.538 55.0666C341.492 55.8616 341.969 57.0276 341.969 58.5646C341.969 61.5856 340.273 63.9706 336.245 68.8466L329.196 77.4326C327.659 79.2876 327.076 80.7716 327.076 82.9976C327.076 83.5806 327.129 84.2696 327.288 84.6936Z" fill="#019DF4"/>
<path d="M288.557 87.7187H288.928V86.5348H288.557V87.7187ZM288.928 87.7187C290.26 87.7187 291.404 87.4583 292.212 86.7324C293.034 85.9943 293.389 84.8856 293.389 83.4698H292.205C292.205 84.704 291.898 85.4238 291.421 85.8516C290.931 86.2917 290.14 86.5348 288.928 86.5348V87.7187ZM293.389 83.4698V82.8338H292.205V83.4698H293.389ZM293.389 82.8338C293.389 81.418 293.034 80.3093 292.212 79.5711C291.404 78.8452 290.26 78.5848 288.928 78.5848V79.7687C290.14 79.7687 290.931 80.0118 291.421 80.4519C291.898 80.8798 292.205 81.5996 292.205 82.8338H293.389ZM288.928 78.5848H288.557V79.7687H288.928V78.5848ZM288.557 78.5848C287.225 78.5848 286.082 78.8452 285.273 79.5711C284.451 80.3093 284.096 81.418 284.096 82.8338H285.28C285.28 81.5996 285.588 80.8798 286.064 80.4519C286.554 80.0118 287.345 79.7687 288.557 79.7687V78.5848ZM284.096 82.8338V83.4698H285.28V82.8338H284.096ZM284.096 83.4698C284.096 84.8856 284.451 85.9943 285.273 86.7324C286.082 87.4583 287.225 87.7187 288.557 87.7187V86.5348C287.345 86.5348 286.554 86.2917 286.064 85.8516C285.588 85.4238 285.28 84.704 285.28 83.4698H284.096ZM301.715 86.3848L301.163 86.1697L300.849 86.9767H301.715V86.3848ZM309.824 86.3848V86.9767H310.243L310.382 86.5815L309.824 86.3848ZM320 57.4998L319.444 57.2975L319.442 57.3031L320 57.4998ZM320.477 50.1328L320.979 49.819L320.805 49.5408H320.477V50.1328ZM296.839 50.1328V49.5408H296.247V50.1328H296.839ZM296.839 55.5388H296.247V56.1307H296.839V55.5388ZM313.746 55.5388L314.297 55.7539L314.612 54.9468H313.746V55.5388ZM301.715 86.9767H309.824V85.7928H301.715V86.9767ZM310.382 86.5815L320.558 57.6964L319.442 57.3031L309.266 86.1881L310.382 86.5815ZM320.556 57.7021C321.222 55.8721 321.44 54.0512 321.44 52.3058H320.256C320.256 53.9523 320.05 55.6294 319.444 57.2975L320.556 57.7021ZM321.44 52.3058C321.44 51.8851 321.412 51.4173 321.347 50.9909C321.285 50.5861 321.179 50.1394 320.979 49.819L319.975 50.4465C320.04 50.5502 320.119 50.7924 320.177 51.1694C320.231 51.5248 320.256 51.9314 320.256 52.3058H321.44ZM320.477 49.5408H296.839V50.7247H320.477V49.5408ZM296.247 50.1328V55.5388H297.431V50.1328H296.247ZM296.839 56.1307H313.746V54.9468H296.839V56.1307ZM313.194 55.3237L301.163 86.1697L302.266 86.5999L314.297 55.7539L313.194 55.3237ZM325.597 86.3848L325.043 86.5926L325.187 86.9767H325.597V86.3848ZM348.705 86.3848V86.9767H349.297V86.3848H348.705ZM348.705 80.9788H349.297V80.3868H348.705V80.9788ZM334.077 80.9788L333.641 80.5791L332.733 81.5707H334.077V80.9788ZM340.384 74.0888L340.821 74.4884L340.821 74.4884L340.384 74.0888ZM326.233 50.4508L326.09 49.8765L325.641 49.9886V50.4508H326.233ZM326.233 56.0688H325.641V56.781L326.342 56.6507L326.233 56.0688ZM338.847 56.7578L338.462 57.2072L338.468 57.2125L338.847 56.7578ZM334.554 70.5378L334.098 70.1608L334.097 70.1622L334.554 70.5378ZM327.505 79.1238L327.961 79.5014L327.963 79.4994L327.505 79.1238ZM325.597 86.9767H348.705V85.7928H325.597V86.9767ZM349.297 86.3848V80.9788H348.113V86.3848H349.297ZM348.705 80.3868H334.077V81.5707H348.705V80.3868ZM334.514 81.3784L340.821 74.4884L339.948 73.6891L333.641 80.5791L334.514 81.3784ZM340.821 74.4884C346.555 68.2233 348.714 64.6314 348.714 59.8848H347.53C347.53 64.1481 345.661 67.4462 339.948 73.6891L340.821 74.4884ZM348.714 59.8848C348.714 56.7387 347.771 54.2449 345.944 52.4172L345.107 53.2543C346.671 54.8186 347.53 56.9889 347.53 59.8848H348.714ZM345.944 52.4172C343.561 50.0345 339.932 48.8518 334.66 48.8518V50.0357C339.777 50.0357 343.037 51.185 345.107 53.2543L345.944 52.4172ZM334.66 48.8518C331.641 48.8518 328.254 49.3353 326.09 49.8765L326.377 51.025C328.452 50.5062 331.743 50.0357 334.66 50.0357V48.8518ZM325.641 50.4508V56.0688H326.825V50.4508H325.641ZM326.342 56.6507C328.588 56.2327 331.308 55.9717 333.335 55.9717V54.7878C331.228 54.7878 328.436 55.0568 326.125 55.4868L326.342 56.6507ZM333.335 55.9717C335.9 55.9717 337.517 56.3974 338.462 57.2072L339.232 56.3083C337.951 55.2102 335.964 54.7878 333.335 54.7878V55.9717ZM338.468 57.2125C339.256 57.8688 339.686 58.8488 339.686 60.2558H340.87C340.87 58.5887 340.347 57.2367 339.226 56.303L338.468 57.2125ZM339.686 60.2558C339.686 63.0248 338.162 65.2416 334.098 70.1608L335.011 70.9148C339.003 66.082 340.87 63.5287 340.87 60.2558H339.686ZM334.097 70.1622L327.048 78.7482L327.963 79.4994L335.012 70.9134L334.097 70.1622ZM327.049 78.7461C326.255 79.7045 325.684 80.5948 325.316 81.5552C324.947 82.5188 324.793 83.5211 324.793 84.6888H325.977C325.977 83.6304 326.115 82.7777 326.422 81.9791C326.729 81.1772 327.218 80.398 327.961 79.5014L327.049 78.7461ZM324.793 84.6888C324.793 85.2772 324.843 86.0603 325.043 86.5926L326.151 86.1769C326.033 85.8612 325.977 85.2663 325.977 84.6888H324.793Z" fill="#019DF4"/>
<path d="M111.915 26.7561H114.666V18.3981L117.732 23.4801H120.252L123.234 18.4821V26.7561H126.237V12.3921H123.717L119.034 20.4141L114.498 12.3921H111.915V26.7561ZM129.914 14.7441H130.061C131.09 14.7441 131.636 14.3451 131.636 13.3161V13.0431C131.636 12.0141 131.09 11.5941 130.061 11.5941H129.914C128.885 11.5941 128.339 12.0141 128.339 13.0431V13.3161C128.339 14.3451 128.885 14.7441 129.914 14.7441ZM128.486 26.7561H131.489V16.4661H128.486V26.7561ZM137.801 31.7751H137.969C141.665 31.7751 143.198 30.5151 143.198 28.3731C143.198 27.3861 142.946 26.7141 142.442 26.1891C141.707 25.4331 140.531 25.0971 138.557 25.0971H136.541C136.331 25.0971 136.247 25.0131 136.247 24.8241C136.247 24.6771 136.331 24.3411 136.52 24.0051C136.94 24.0681 137.381 24.0891 137.864 24.0891C140.762 24.0891 142.484 22.8711 142.484 20.1201C142.484 18.4821 141.812 17.4111 140.72 16.8021L142.211 14.7231C141.602 14.2611 140.678 13.8621 139.88 13.6731L138.872 16.2351C138.536 16.1931 138.2 16.1721 137.864 16.1721C134.966 16.1721 133.223 17.3901 133.223 20.1201C133.223 21.6741 133.832 22.7241 134.798 23.3541C133.937 24.0681 133.433 24.9921 133.433 25.8531C133.433 26.4411 133.601 26.9031 133.958 27.1971C133.223 27.5751 132.74 28.2261 132.74 29.0661C132.74 30.9141 134.252 31.7751 137.801 31.7751ZM137.864 21.9471C136.478 21.9471 135.932 21.3171 135.932 20.1201C135.932 18.9441 136.478 18.3141 137.864 18.3141C139.229 18.3141 139.775 18.9441 139.775 20.1201C139.775 21.3171 139.229 21.9471 137.864 21.9471ZM137.885 29.5071C135.974 29.5071 135.407 29.1291 135.407 28.3731C135.407 28.1211 135.47 27.8481 135.701 27.5961H138.704C140.09 27.5961 140.51 27.8271 140.51 28.4991C140.51 29.1501 139.712 29.5071 138.2 29.5071H137.885ZM144.164 26.7561H147.167V19.0281C147.818 18.8811 148.427 18.7761 149.225 18.7761C149.708 18.7761 150.212 18.8181 150.548 18.8601V16.2351C150.422 16.2141 150.191 16.1931 150.023 16.1931C149.036 16.1931 147.671 16.5711 146.873 17.3061L146.768 16.4661H144.164V26.7561ZM154.329 27.0501C155.421 27.0501 156.534 26.6931 157.416 26.1261L157.668 26.7561H160.041V20.0781C160.041 18.8391 159.768 17.9571 159.243 17.3481C158.529 16.5081 157.122 16.1721 155.547 16.1721C154.308 16.1721 152.943 16.3401 151.893 16.5501L152.04 18.7551C152.754 18.6081 153.951 18.4821 154.917 18.4821C155.736 18.4821 156.303 18.5871 156.66 18.9021C156.912 19.1331 157.038 19.4901 157.038 20.0571V20.3931H155.4C153.489 20.3931 152.355 20.6451 151.62 21.3381C151.032 21.9051 150.717 22.7451 150.717 23.6691C150.717 25.6641 151.977 27.0501 154.329 27.0501ZM155.19 24.7611C154.098 24.7611 153.72 24.2991 153.72 23.5431C153.72 23.1651 153.825 22.8711 154.014 22.6821C154.287 22.4091 154.728 22.3251 155.442 22.3251H157.038V24.4461C156.555 24.5931 155.757 24.7611 155.19 24.7611ZM168.942 27.0501C170.034 27.0501 171.147 26.6931 172.029 26.1261L172.281 26.7561H174.654V20.0781C174.654 18.8391 174.381 17.9571 173.856 17.3481C173.142 16.5081 171.735 16.1721 170.16 16.1721C168.921 16.1721 167.556 16.3401 166.506 16.5501L166.653 18.7551C167.367 18.6081 168.564 18.4821 169.53 18.4821C170.349 18.4821 170.916 18.5871 171.273 18.9021C171.525 19.1331 171.651 19.4901 171.651 20.0571V20.3931H170.013C168.102 20.3931 166.968 20.6451 166.233 21.3381C165.645 21.9051 165.33 22.7451 165.33 23.6691C165.33 25.6641 166.59 27.0501 168.942 27.0501ZM169.803 24.7611C168.711 24.7611 168.333 24.2991 168.333 23.5431C168.333 23.1651 168.438 22.8711 168.627 22.6821C168.9 22.4091 169.341 22.3251 170.055 22.3251H171.651V24.4461C171.168 24.5931 170.37 24.7611 169.803 24.7611ZM176.487 26.7561H179.49V19.0071C179.973 18.8181 180.876 18.6711 181.443 18.6711C182.052 18.6711 182.472 18.7551 182.745 19.0071C182.955 19.2171 183.06 19.5111 183.06 20.0361V26.7561H186.063V19.6791C186.063 18.4821 185.811 17.5791 185.181 16.9701C184.614 16.4031 183.606 16.1721 182.703 16.1721C181.716 16.1721 180.54 16.4241 179.49 17.0121V11.7411H176.487V26.7561ZM192.599 27.0501C196.169 27.0501 197.828 24.9081 197.828 21.6111C197.828 18.3141 196.169 16.1721 192.599 16.1721C189.029 16.1721 187.37 18.3141 187.37 21.6111C187.37 24.9081 189.029 27.0501 192.599 27.0501ZM192.599 24.7611C191.087 24.7611 190.499 23.7321 190.499 21.6111C190.499 19.4901 191.087 18.4611 192.599 18.4611C194.111 18.4611 194.699 19.4901 194.699 21.6111C194.699 23.7321 194.111 24.7611 192.599 24.7611ZM199.2 26.7561H202.203V19.0281C202.854 18.8811 203.463 18.7761 204.261 18.7761C204.744 18.7761 205.248 18.8181 205.584 18.8601V16.2351C205.458 16.2141 205.227 16.1931 205.059 16.1931C204.072 16.1931 202.707 16.5711 201.909 17.3061L201.804 16.4661H199.2V26.7561ZM209.366 27.0501C210.458 27.0501 211.571 26.6931 212.453 26.1261L212.705 26.7561H215.078V20.0781C215.078 18.8391 214.805 17.9571 214.28 17.3481C213.566 16.5081 212.159 16.1721 210.584 16.1721C209.345 16.1721 207.98 16.3401 206.93 16.5501L207.077 18.7551C207.791 18.6081 208.988 18.4821 209.954 18.4821C210.773 18.4821 211.34 18.5871 211.697 18.9021C211.949 19.1331 212.075 19.4901 212.075 20.0571V20.3931H210.437C208.526 20.3931 207.392 20.6451 206.657 21.3381C206.069 21.9051 205.754 22.7451 205.754 23.6691C205.754 25.6641 207.014 27.0501 209.366 27.0501ZM210.227 24.7611C209.135 24.7611 208.757 24.2991 208.757 23.5431C208.757 23.1651 208.862 22.8711 209.051 22.6821C209.324 22.4091 209.765 22.3251 210.479 22.3251H212.075V24.4461C211.592 24.5931 210.794 24.7611 210.227 24.7611ZM225.701 31.7751C229.439 31.7751 230.468 29.9481 230.468 26.3151V16.4661H227.465V24.1101C226.982 24.2991 226.1 24.4881 225.533 24.4881C224.903 24.4881 224.525 24.4041 224.252 24.1521C224.042 23.9421 223.937 23.6481 223.937 23.1231V16.4661H220.934V23.5431C220.934 24.7401 221.228 25.5381 221.837 26.1471C222.404 26.7141 223.328 26.9451 224.231 26.9451C225.26 26.9451 226.457 26.6721 227.465 26.1051V27.3651C227.465 28.1001 227.339 28.6671 226.961 29.0241C226.646 29.3391 225.953 29.5071 225.218 29.5071C224.21 29.5071 223.559 29.4021 222.866 29.2761L223.076 31.5021C223.853 31.6701 224.693 31.7751 225.701 31.7751ZM236.451 31.4811H239.454V26.2941C240.231 26.7771 241.281 27.0501 242.205 27.0501C244.536 27.0501 246.216 25.6011 246.216 21.5481C246.216 19.6371 245.796 17.9991 244.83 17.0541C244.242 16.4871 243.402 16.1721 242.373 16.1721C241.113 16.1721 240.021 16.6341 239.139 17.2221L239.055 16.4661H236.451V31.4811ZM241.323 24.6771C240.672 24.6771 239.937 24.5931 239.454 24.3831V18.8811C239.958 18.7341 240.756 18.6081 241.239 18.6081C242.604 18.6081 243.066 19.3011 243.066 21.5061C243.066 23.9841 242.583 24.6771 241.323 24.6771ZM250.554 27.0501C251.646 27.0501 252.759 26.6931 253.641 26.1261L253.893 26.7561H256.266V20.0781C256.266 18.8391 255.993 17.9571 255.468 17.3481C254.754 16.5081 253.347 16.1721 251.772 16.1721C250.533 16.1721 249.168 16.3401 248.118 16.5501L248.265 18.7551C248.979 18.6081 250.176 18.4821 251.142 18.4821C251.961 18.4821 252.528 18.5871 252.885 18.9021C253.137 19.1331 253.263 19.4901 253.263 20.0571V20.3931H251.625C249.714 20.3931 248.58 20.6451 247.845 21.3381C247.257 21.9051 246.942 22.7451 246.942 23.6691C246.942 25.6641 248.202 27.0501 250.554 27.0501ZM251.415 24.7611C250.323 24.7611 249.945 24.2991 249.945 23.5431C249.945 23.1651 250.05 22.8711 250.239 22.6821C250.512 22.4091 250.953 22.3251 251.667 22.3251H253.263V24.4461C252.78 24.5931 251.982 24.7611 251.415 24.7611ZM262.466 31.7751H262.634C266.33 31.7751 267.863 30.5151 267.863 28.3731C267.863 27.3861 267.611 26.7141 267.107 26.1891C266.372 25.4331 265.196 25.0971 263.222 25.0971H261.206C260.996 25.0971 260.912 25.0131 260.912 24.8241C260.912 24.6771 260.996 24.3411 261.185 24.0051C261.605 24.0681 262.046 24.0891 262.529 24.0891C265.427 24.0891 267.149 22.8711 267.149 20.1201C267.149 18.4821 266.477 17.4111 265.385 16.8021L266.876 14.7231C266.267 14.2611 265.343 13.8621 264.545 13.6731L263.537 16.2351C263.201 16.1931 262.865 16.1721 262.529 16.1721C259.631 16.1721 257.888 17.3901 257.888 20.1201C257.888 21.6741 258.497 22.7241 259.463 23.3541C258.602 24.0681 258.098 24.9921 258.098 25.8531C258.098 26.4411 258.266 26.9031 258.623 27.1971C257.888 27.5751 257.405 28.2261 257.405 29.0661C257.405 30.9141 258.917 31.7751 262.466 31.7751ZM262.529 21.9471C261.143 21.9471 260.597 21.3171 260.597 20.1201C260.597 18.9441 261.143 18.3141 262.529 18.3141C263.894 18.3141 264.44 18.9441 264.44 20.1201C264.44 21.3171 263.894 21.9471 262.529 21.9471ZM262.55 29.5071C260.639 29.5071 260.072 29.1291 260.072 28.3731C260.072 28.1211 260.135 27.8481 260.366 27.5961H263.369C264.755 27.5961 265.175 27.8271 265.175 28.4991C265.175 29.1501 264.377 29.5071 262.865 29.5071H262.55ZM271.811 27.0501C272.903 27.0501 274.016 26.6931 274.898 26.1261L275.15 26.7561H277.523V20.0781C277.523 18.8391 277.25 17.9571 276.725 17.3481C276.011 16.5081 274.604 16.1721 273.029 16.1721C271.79 16.1721 270.425 16.3401 269.375 16.5501L269.522 18.7551C270.236 18.6081 271.433 18.4821 272.399 18.4821C273.218 18.4821 273.785 18.5871 274.142 18.9021C274.394 19.1331 274.52 19.4901 274.52 20.0571V20.3931H272.882C270.971 20.3931 269.837 20.6451 269.102 21.3381C268.514 21.9051 268.199 22.7451 268.199 23.6691C268.199 25.6641 269.459 27.0501 271.811 27.0501ZM272.672 24.7611C271.58 24.7611 271.202 24.2991 271.202 23.5431C271.202 23.1651 271.307 22.8711 271.496 22.6821C271.769 22.4091 272.21 22.3251 272.924 22.3251H274.52V24.4461C274.037 24.5931 273.239 24.7611 272.672 24.7611ZM286.781 27.0501C289.868 27.0501 291.422 25.8111 291.422 23.6691C291.422 19.4061 285.794 21.0651 285.794 19.3221C285.794 18.7341 286.382 18.4821 287.453 18.4821C288.293 18.4821 289.553 18.6501 290.624 18.9441L290.855 16.7391C289.742 16.3611 288.461 16.1721 287.432 16.1721C284.345 16.1721 282.959 17.5791 282.959 19.4901C282.959 23.7531 288.566 21.9681 288.566 23.7951C288.566 24.5301 287.852 24.7401 286.718 24.7401C285.605 24.7401 284.177 24.5091 283.4 24.2571L283.169 26.4831C283.988 26.7771 285.563 27.0501 286.781 27.0501ZM297.483 27.0501C301.053 27.0501 302.712 24.9081 302.712 21.6111C302.712 18.3141 301.053 16.1721 297.483 16.1721C293.913 16.1721 292.254 18.3141 292.254 21.6111C292.254 24.9081 293.913 27.0501 297.483 27.0501ZM297.483 24.7611C295.971 24.7611 295.383 23.7321 295.383 21.6111C295.383 19.4901 295.971 18.4611 297.483 18.4611C298.995 18.4611 299.583 19.4901 299.583 21.6111C299.583 23.7321 298.995 24.7611 297.483 24.7611ZM304.148 26.7561H307.151V11.7411H304.148V26.7561ZM313.798 27.0501C317.368 27.0501 319.027 24.9081 319.027 21.6111C319.027 18.3141 317.368 16.1721 313.798 16.1721C310.228 16.1721 308.569 18.3141 308.569 21.6111C308.569 24.9081 310.228 27.0501 313.798 27.0501ZM313.798 24.7611C312.286 24.7611 311.698 23.7321 311.698 21.6111C311.698 19.4901 312.286 18.4611 313.798 18.4611C315.31 18.4611 315.898 19.4901 315.898 21.6111C315.898 23.7321 315.31 24.7611 313.798 24.7611Z" fill="#0B2739"/>
<mask id="mask0_1_108" style="mask-type:alpha" maskUnits="userSpaceOnUse" x="41" y="0" width="350" height="151">
<path d="M334.546 32.128V5.19049L385.452 2.28451L390.135 150.74H47.3294L41.7097 0.411255L96.0191 5.19049V31.7883H69.8085L66.5303 131.071H366.719L363.909 35.5348L334.546 32.128Z" fill="#C4C4C4"/>
</mask>
<g mask="url(#mask0_1_108)">
<path d="M60.5544 18.2533C57.5316 18.2533 55.0812 20.7037 55.0812 23.7265V137.244C55.0812 140.267 57.5316 142.717 60.5544 142.717H369.485C372.508 142.717 374.958 140.267 374.958 137.244V23.7265C374.958 20.7037 372.508 18.2533 369.485 18.2533H60.5544Z" stroke="#019DF4" stroke-width="1.21626"/>
</g>
<path d="M278.49 118.734H282.039L284.622 113.862L287.478 118.734H291.111L286.533 111.405L291.237 104.37H287.751L285.147 109.116L282.291 104.37H278.868L283.257 111.573L278.49 118.734ZM300.673 119.028C304.012 119.028 305.755 117.201 305.755 114.009C305.755 111.132 304.264 109.536 301.702 109.536C300.715 109.536 299.539 109.767 298.594 110.271C298.636 108.822 298.867 107.835 299.497 107.205C300.064 106.638 300.925 106.449 302.311 106.449C303.067 106.449 303.844 106.533 304.579 106.659V104.37C303.613 104.202 302.647 104.097 301.618 104.097C299.707 104.097 298.363 104.517 297.397 105.483C296.137 106.743 295.444 108.885 295.444 112.224C295.444 116.571 296.83 119.028 300.673 119.028ZM300.736 116.739C299.098 116.739 298.552 115.563 298.552 112.812V112.014C299.14 111.888 300.043 111.804 300.652 111.804C302.185 111.804 302.773 112.287 302.773 114.114C302.773 115.857 302.08 116.739 300.736 116.739ZM310.611 118.734H313.614V110.985C314.118 110.796 314.874 110.649 315.399 110.649C315.945 110.649 316.386 110.733 316.659 110.985C316.869 111.195 316.974 111.489 316.974 112.014V118.734H319.977V111.657C319.977 111.405 319.956 111.153 319.935 110.922C320.439 110.775 321.174 110.649 321.678 110.649C322.287 110.649 322.707 110.733 322.98 110.985C323.19 111.195 323.295 111.489 323.295 112.014V118.734H326.298V111.657C326.298 110.46 326.046 109.557 325.416 108.948C324.849 108.381 323.841 108.15 322.938 108.15C321.825 108.15 320.502 108.465 319.347 109.242C318.822 108.507 317.877 108.15 316.617 108.15C315.546 108.15 314.391 108.444 313.278 109.179L313.215 108.444H310.611V118.734ZM332.834 119.028C334.115 119.028 335.312 118.86 336.299 118.671L336.068 116.487C335.291 116.634 334.241 116.739 333.506 116.739C331.49 116.739 330.419 116.256 330.335 114.513H336.656C336.824 114.513 336.908 114.45 336.908 114.282V113.337C336.908 109.767 335.27 108.15 332.183 108.15C329.033 108.15 327.185 109.998 327.185 113.61C327.185 115.248 327.542 116.718 328.571 117.705C329.453 118.545 330.902 119.028 332.834 119.028ZM330.335 112.56C330.398 111.237 330.944 110.418 332.162 110.418C333.359 110.418 333.968 111.258 333.968 112.56H330.335ZM341.094 119.028C344.181 119.028 345.735 117.789 345.735 115.647C345.735 111.384 340.107 113.043 340.107 111.3C340.107 110.712 340.695 110.46 341.766 110.46C342.606 110.46 343.866 110.628 344.937 110.922L345.168 108.717C344.055 108.339 342.774 108.15 341.745 108.15C338.658 108.15 337.272 109.557 337.272 111.468C337.272 115.731 342.879 113.946 342.879 115.773C342.879 116.508 342.165 116.718 341.031 116.718C339.918 116.718 338.49 116.487 337.713 116.235L337.482 118.461C338.301 118.755 339.876 119.028 341.094 119.028ZM351.796 119.028C353.077 119.028 354.274 118.86 355.261 118.671L355.03 116.487C354.253 116.634 353.203 116.739 352.468 116.739C350.452 116.739 349.381 116.256 349.297 114.513H355.618C355.786 114.513 355.87 114.45 355.87 114.282V113.337C355.87 109.767 354.232 108.15 351.145 108.15C347.995 108.15 346.147 109.998 346.147 113.61C346.147 115.248 346.504 116.718 347.533 117.705C348.415 118.545 349.864 119.028 351.796 119.028ZM349.297 112.56C349.36 111.237 349.906 110.418 351.124 110.418C352.321 110.418 352.93 111.258 352.93 112.56H349.297ZM360.056 119.028C363.143 119.028 364.697 117.789 364.697 115.647C364.697 111.384 359.069 113.043 359.069 111.3C359.069 110.712 359.657 110.46 360.728 110.46C361.568 110.46 362.828 110.628 363.899 110.922L364.13 108.717C363.017 108.339 361.736 108.15 360.707 108.15C357.62 108.15 356.234 109.557 356.234 111.468C356.234 115.731 361.841 113.946 361.841 115.773C361.841 116.508 361.127 116.718 359.993 116.718C358.88 116.718 357.452 116.487 356.675 116.235L356.444 118.461C357.263 118.755 358.838 119.028 360.056 119.028Z" fill="#0B2739"/>
</svg>
