<svg width="250" height="84" viewBox="0 0 250 84" fill="none" xmlns="http://www.w3.org/2000/svg">
<path d="M133.502 34.6239H136.921C138.95 34.6239 140.603 32.9329 140.603 30.8662V26.4699C140.603 25.042 139.702 23.8395 138.349 23.3135L133.577 21.4722C132.863 21.2092 132.487 20.4953 132.487 19.8565V16.8504C132.487 15.8358 133.238 14.9716 134.215 14.9716H136.282C137.259 14.9716 137.973 15.8358 137.973 16.8504V19.105H140.528V16.3619C140.528 14.2952 138.912 12.6043 136.846 12.6043H133.614C131.585 12.6043 129.932 14.2952 129.932 16.3619V20.3074C129.932 21.7353 130.834 22.9753 132.186 23.5013L136.959 25.305C137.635 25.6056 138.048 26.2444 138.048 26.9208V30.3778C138.048 31.3923 137.297 32.2566 136.32 32.2566H134.065C133.088 32.2566 132.412 31.3923 132.412 30.3778V28.0105H129.857V30.8662C129.857 32.9329 131.472 34.6239 133.502 34.6239ZM144 34.3232H146.555V12.9801H144V34.3232ZM159.583 12.9801V24.2904L152.557 12.9801H150.678V34.3232H153.195V18.0152L159.583 28.2359V34.3232H162.101V12.9801H159.583ZM176.006 34.6239H179.388C181.53 34.6239 183.108 32.9329 183.108 30.8662V27.7474H180.553V30.3402C180.553 31.3547 179.876 32.2566 178.824 32.2566H176.607C175.555 32.2566 174.841 31.3547 174.841 30.3402V16.888C174.841 15.8734 175.555 15.0092 176.607 15.0092H178.824C179.876 15.0092 180.553 15.8734 180.553 16.888V19.5934H183.108V16.3995C183.108 14.2952 181.53 12.6043 179.388 12.6043H176.006C173.902 12.6043 172.286 14.2952 172.286 16.3995V30.8662C172.286 32.9329 173.902 34.6239 176.006 34.6239ZM189.694 34.6239H193.903C196.045 34.6239 197.661 32.9329 197.661 30.9038V16.3995C197.661 14.3328 196.045 12.6419 193.903 12.6419H189.694C187.59 12.6419 185.937 14.3328 185.937 16.3995V30.9038C185.937 32.9329 187.59 34.6239 189.694 34.6239ZM190.296 32.2941C189.243 32.2941 188.492 31.3923 188.492 30.4153V16.8504C188.492 15.8734 189.243 15.0092 190.296 15.0092H193.302C194.391 15.0092 195.105 15.8734 195.105 16.8504V30.4153C195.105 31.3923 194.391 32.2941 193.302 32.2941H190.296ZM204.617 34.6239H208.037C210.066 34.6239 211.719 32.9329 211.719 30.8662V26.4699C211.719 25.042 210.817 23.8395 209.464 23.3135L204.692 21.4722C203.978 21.2092 203.603 20.4953 203.603 19.8565V16.8504C203.603 15.8358 204.354 14.9716 205.331 14.9716H207.398C208.375 14.9716 209.089 15.8358 209.089 16.8504V19.105H211.644V16.3619C211.644 14.2952 210.028 12.6043 207.961 12.6043H204.73C202.701 12.6043 201.047 14.2952 201.047 16.3619V20.3074C201.047 21.7353 201.949 22.9753 203.302 23.5013L208.074 25.305C208.75 25.6056 209.164 26.2444 209.164 26.9208V30.3778C209.164 31.3923 208.412 32.2566 207.435 32.2566H205.181C204.204 32.2566 203.527 31.3923 203.527 30.3778V28.0105H200.972V30.8662C200.972 32.9329 202.588 34.6239 204.617 34.6239ZM224.247 12.9801H213.162V15.3473H217.408V34.3232H220.001V15.3473H224.247V12.9801ZM229.986 34.6239H234.194C236.336 34.6239 237.952 32.9329 237.952 30.9038V16.3995C237.952 14.3328 236.336 12.6419 234.194 12.6419H229.986C227.882 12.6419 226.228 14.3328 226.228 16.3995V30.9038C226.228 32.9329 227.882 34.6239 229.986 34.6239ZM230.587 32.2941C229.535 32.2941 228.783 31.3923 228.783 30.4153V16.8504C228.783 15.8734 229.535 15.0092 230.587 15.0092H233.593C234.683 15.0092 235.397 15.8734 235.397 16.8504V30.4153C235.397 31.3923 234.683 32.2941 233.593 32.2941H230.587ZM242.015 28.6117H244.345L244.495 12.9801H241.865L242.015 28.6117ZM241.865 34.3232H244.533V30.7535H241.865V34.3232Z" fill="white"/>
<path d="M2.18489 13.6351V17.2048H4.85279V13.6351H2.18489ZM2.3352 19.3467L2.18489 34.9783H4.81522L4.66491 19.3467H2.3352Z" fill="white"/>
<path d="M84.2124 21.6193C84.2141 21.6324 84.2124 33.8608 84.2124 33.8608C84.2124 34.0249 84.1013 34.1917 83.9395 34.1917H82.2752C81.3017 34.1935 80.4936 33.3648 80.4919 32.3797V21.663C80.4175 19.3445 78.7873 18.1193 76.7871 18.1228C74.7878 18.1254 73.1602 19.4039 73.0928 21.7224V33.8756C73.0928 34.0398 72.9774 34.1909 72.8156 34.1909H71.1512C70.1778 34.1926 69.3697 33.3246 69.368 32.3404V21.6787C69.2936 19.3602 67.6634 18.135 65.6632 18.1385C63.6639 18.1411 62.0363 19.3707 61.9689 21.6892V33.8913C61.9689 34.0555 61.8535 34.1909 61.6917 34.1909H60.0274C59.0539 34.1926 58.2502 33.3953 58.2484 32.4103C58.2484 32.4103 58.2476 21.6735 58.2484 21.663C58.3446 16.957 61.6235 14.4594 65.6588 14.4542C67.8733 14.4507 69.8621 15.1991 71.2238 16.6522C72.5821 15.1947 74.5683 14.442 76.7827 14.4385C80.8137 14.4341 84.0987 16.9194 84.2124 21.6193Z" fill="white"/>
<path d="M122.556 33.9567C122.622 34.0545 122.55 34.1846 122.429 34.1846L119.456 34.1925C118.759 34.1942 118.08 34.1095 117.477 33.265L114.435 28.7835C114.198 28.4324 113.852 28.0167 113.361 28.0167C112.871 28.0167 112.525 28.4324 112.287 28.7835L109.246 33.265C108.643 34.1095 107.963 34.1942 107.266 34.1925H104.294C104.173 34.1925 104.1 34.0545 104.167 33.9567L110.033 25.3105C110.203 25.0581 110.286 24.7656 110.283 24.473C110.286 24.1805 110.203 23.8879 110.033 23.6356L104.167 14.9894C104.1 14.8916 104.173 14.7588 104.294 14.7588H107.266C107.963 14.7571 108.643 14.8365 109.246 15.681L112.287 20.1626C112.525 20.5136 112.872 20.9293 113.361 20.9293C113.851 20.9293 114.198 20.5136 114.435 20.1626L117.477 15.681C118.08 14.8365 118.759 14.7571 119.456 14.7588H122.429C122.55 14.7588 122.622 14.8916 122.556 14.9894L116.69 23.6356C116.52 23.8879 116.436 24.1805 116.44 24.473C116.436 24.7656 116.52 25.0581 116.69 25.3105L122.556 33.9567Z" fill="white"/>
<path d="M102.998 14.7593H101.827C101.185 14.7601 100.591 15.1007 100.27 15.6544L99.8374 16.4089C98.1529 14.9924 95.9691 14.4414 94.1648 14.4414C88.7074 14.4414 85.0752 18.2916 85.0752 24.3888C85.0752 30.5348 88.7686 34.3361 94.1211 34.3361C96.1702 34.3361 98.2019 33.6593 99.5015 32.6088C99.575 33.531 100.348 34.1938 101.293 34.1938H102.991C103.156 34.1938 103.291 34.1222 103.291 33.958L103.298 15.0588C103.298 14.892 103.164 14.7593 102.998 14.7593ZM94.0852 30.6326C90.9822 30.6326 88.7082 28.3263 88.7082 24.3879C88.7082 20.4495 90.9822 18.1432 94.0852 18.1432C97.1882 18.1432 99.4622 20.4495 99.4622 24.3879C99.4622 28.3263 97.1882 30.6326 94.0852 30.6326Z" fill="white"/>
<path d="M17.3277 21.9886H13.8959V14.7588H8.44629V34.1933H13.8959V26.6527H17.3277V34.1933H22.6146V14.7588H17.3277V21.9886Z" fill="white"/>
<path d="M46.8441 14.4336C41.3972 14.4292 38.6142 18.4332 37.9268 20.0487C37.9329 17.6228 35.5392 14.7602 32.7379 14.7567H23.7139V34.1921L32.1274 34.1938C35.5191 34.1938 37.9329 31.2588 37.9373 28.7429C38.7113 30.327 41.3972 34.2916 46.8441 34.289C52.2972 34.2873 56.7348 29.7629 56.7331 24.3172C56.7322 18.7571 52.2972 14.438 46.8441 14.4336ZM31.4225 29.666H28.7463V26.3816H31.4225C32.2009 26.3816 32.814 27.1492 32.814 28.0242C32.814 28.8984 32.2009 29.666 31.4225 29.666ZM31.4321 22.369H28.7559V19.0837H31.4321C32.2105 19.0837 32.8236 19.8513 32.8236 20.7255C32.8236 21.6005 32.2105 22.369 31.4321 22.369ZM34.9943 24.3216C35.6074 24.2439 36.6289 23.5444 36.9892 23.0973C36.8624 23.6509 36.8528 25.2542 37.0006 25.8087C36.5896 25.1765 35.617 24.3993 34.9943 24.3216ZM46.8476 29.2686C44.111 29.2686 41.8931 27.054 41.8931 24.3216C41.8931 21.59 44.111 19.3745 46.8476 19.3745C49.5842 19.3745 51.8022 21.5891 51.8022 24.3216C51.8022 27.054 49.5833 29.2686 46.8476 29.2686Z" fill="white"/>
<path d="M46.8477 20.4326C44.6962 20.4326 42.9531 22.1739 42.9531 24.3213C42.9531 26.4695 44.6971 28.2108 46.8477 28.2108C48.9983 28.2108 50.7422 26.4695 50.7422 24.3213C50.7422 22.1739 48.9983 20.4326 46.8477 20.4326Z" fill="white"/>
<path d="M123.055 14.9387H123.323V15.7106H123.541V14.9387H123.817V14.7588H123.055V14.9387Z" fill="white"/>
<path d="M124.685 14.7588L124.427 15.1823L124.168 14.7588H123.951V15.7106H124.168V15.1579L124.415 15.5613H124.439L124.685 15.1579V15.7106H124.903V14.7588H124.685Z" fill="white"/>
<path d="M19.3981 60.3407H21.8242C23.3608 60.3407 24.493 59.1276 24.493 57.645V55.4076H22.6599V57.2676C22.6599 57.9954 22.1747 58.6424 21.4199 58.6424H19.8294C19.0747 58.6424 18.5625 57.9954 18.5625 57.2676V47.6171C18.5625 46.8893 19.0747 46.2692 19.8294 46.2692H21.4199C22.1747 46.2692 22.6599 46.8893 22.6599 47.6171V49.558H24.493V47.2666C24.493 45.7571 23.3608 44.544 21.8242 44.544H19.3981C17.8886 44.544 16.7294 45.7571 16.7294 47.2666V57.645C16.7294 59.1276 17.8886 60.3407 19.3981 60.3407ZM28.598 60.3407H30.8623C32.1832 60.3407 33.2345 59.2624 33.2345 57.9954V50.8788C33.2345 49.5849 32.1832 48.5336 30.8623 48.5336H28.598C27.304 48.5336 26.2527 49.5849 26.2527 50.8788V57.9954C26.2527 59.2624 27.304 60.3407 28.598 60.3407ZM28.9753 58.7502C28.3823 58.7502 27.951 58.265 27.951 57.6719V51.2023C27.951 50.6093 28.3823 50.0971 28.9753 50.0971H30.4849C31.1049 50.0971 31.5362 50.6093 31.5362 51.2023V57.6719C31.5362 58.265 31.1049 58.7502 30.4849 58.7502H28.9753ZM40.2949 48.5336H39.1088C38.1922 48.5336 37.5992 48.9919 37.3296 49.531L37.1679 48.7493H35.5774V60.125H37.3296V51.4989C37.3296 50.771 37.9227 50.151 38.6235 50.151H39.6748C40.2949 50.151 40.7262 50.6093 40.7262 51.2562V60.125H42.5053V50.9058C42.5053 49.5849 41.5618 48.5336 40.2949 48.5336ZM47.4824 60.125H48.965V58.5076H47.9137C47.3746 58.5076 46.9163 57.9685 46.9163 57.4293V50.2049H48.9381V48.7493H46.9163L46.9433 45.6223H45.3798L45.1641 48.7493H43.8432V50.2049H45.1641V57.7798C45.1641 59.0467 46.1885 60.125 47.4824 60.125ZM53.9554 48.5606C53.0658 48.5606 52.4728 49.0458 52.2032 49.6658L52.0415 48.6954H50.451V60.125H52.2032V51.7145C52.2032 50.9597 52.7154 50.2588 53.4702 50.2588H54.5754V48.5606H53.9554ZM60.0208 48.5336H58.2417C56.9208 48.5336 55.8426 49.6119 55.8426 50.9058V52.4693H57.5139V51.0945C57.5139 50.5554 57.9991 50.0162 58.5652 50.0162H59.6704C60.2365 50.0162 60.6948 50.5554 60.6948 51.0945V51.7415C60.6948 52.1997 60.533 52.5232 60.1287 52.7658L56.9747 54.5989C56.166 55.0302 55.6539 55.785 55.6539 56.6206V58.0763C55.6539 59.3433 56.7321 60.3407 57.9991 60.3407H59.1313C59.94 60.3407 60.56 59.9093 60.9104 59.3163L61.0722 60.125H62.42V50.9058C62.42 49.6119 61.3417 48.5336 60.0208 48.5336ZM60.6948 57.5372C60.6948 58.2111 60.1017 58.8311 59.4008 58.8311H58.4034C57.8104 58.8311 57.3521 58.3189 57.3521 57.7798V56.6206C57.3521 56.1624 57.5139 55.8389 57.8913 55.5963L60.1826 54.1406C60.4252 54.0058 60.5869 53.871 60.6948 53.6823V57.5372ZM67.4104 60.125H68.893V58.5076H67.8417C67.3025 58.5076 66.8443 57.9685 66.8443 57.4293V50.2049H68.866V48.7493H66.8443L66.8712 45.6223H65.3077L65.0921 48.7493H63.7712V50.2049H65.0921V57.7798C65.0921 59.0467 66.1164 60.125 67.4104 60.125ZM74.3416 48.5336H72.5625C71.2416 48.5336 70.1633 49.6119 70.1633 50.9058V52.4693H71.8346V51.0945C71.8346 50.5554 72.3199 50.0162 72.8859 50.0162H73.9912C74.5573 50.0162 75.0155 50.5554 75.0155 51.0945V51.7415C75.0155 52.1997 74.8538 52.5232 74.4494 52.7658L71.2955 54.5989C70.4868 55.0302 69.9746 55.785 69.9746 56.6206V58.0763C69.9746 59.3433 71.0529 60.3407 72.3199 60.3407H73.452C74.2607 60.3407 74.8807 59.9093 75.2312 59.3163L75.3929 60.125H76.7408V50.9058C76.7408 49.6119 75.6625 48.5336 74.3416 48.5336ZM75.0155 57.5372C75.0155 58.2111 74.4225 58.8311 73.7216 58.8311H72.7242C72.1312 58.8311 71.6729 58.3189 71.6729 57.7798V56.6206C71.6729 56.1624 71.8346 55.8389 72.212 55.5963L74.5033 54.1406C74.746 54.0058 74.9077 53.871 75.0155 53.6823V57.5372ZM83.9416 48.5336H82.7555C81.8389 48.5336 81.2459 48.9919 80.9763 49.531L80.8146 48.7493H79.2241V60.125H80.9763V51.4989C80.9763 50.771 81.5694 50.151 82.2702 50.151H83.3216C83.9416 50.151 84.3729 50.6093 84.3729 51.2562V60.125H86.152V50.9058C86.152 49.5849 85.2085 48.5336 83.9416 48.5336ZM93.6361 42.9266V49.3154C93.3396 48.8571 92.8274 48.5336 92.0456 48.5336H90.7248C89.3769 48.5336 88.3795 49.5849 88.3795 50.8788V57.9415C88.3795 59.2624 89.3769 60.3137 90.7248 60.3137H92.0995C92.8543 60.3137 93.3665 59.9902 93.717 59.5589L93.8517 60.125H95.4152V42.9266H93.6361ZM92.45 58.7502H91.183C90.6169 58.7502 90.1317 58.238 90.1317 57.6719V51.2023C90.1317 50.6362 90.6169 50.0971 91.183 50.0971H92.45C93.2048 50.0971 93.6361 50.7171 93.6361 51.4719V57.4024C93.6361 58.1032 93.1509 58.7502 92.45 58.7502ZM100.07 60.3407H102.334C103.655 60.3407 104.707 59.2624 104.707 57.9954V50.8788C104.707 49.5849 103.655 48.5336 102.334 48.5336H100.07C98.7762 48.5336 97.7249 49.5849 97.7249 50.8788V57.9954C97.7249 59.2624 98.7762 60.3407 100.07 60.3407ZM100.447 58.7502C99.8544 58.7502 99.4231 58.265 99.4231 57.6719V51.2023C99.4231 50.6093 99.8544 50.0971 100.447 50.0971H101.957C102.577 50.0971 103.008 50.6093 103.008 51.2023V57.6719C103.008 58.265 102.577 58.7502 101.957 58.7502H100.447ZM111.767 60.125H113.6V44.8136H111.767V60.125ZM121.086 48.5336H119.9C118.983 48.5336 118.39 48.9919 118.121 49.531L117.959 48.7493H116.369V60.125H118.121V51.4989C118.121 50.771 118.714 50.151 119.415 50.151H120.466C121.086 50.151 121.517 50.6093 121.517 51.2562V60.125H123.296V50.9058C123.296 49.5849 122.353 48.5336 121.086 48.5336ZM128.274 60.125H129.756V58.5076H128.705C128.166 58.5076 127.707 57.9685 127.707 57.4293V50.2049H129.729V48.7493H127.707L127.734 45.6223H126.171L125.955 48.7493H124.634V50.2049H125.955V57.7798C125.955 59.0467 126.98 60.125 128.274 60.125ZM133.345 60.3407H135.447C136.768 60.3407 137.766 59.2624 137.766 57.9954V56.2432H136.094V57.6989C136.094 58.238 135.636 58.7772 135.043 58.7772H133.695C133.156 58.7772 132.671 58.238 132.671 57.6989V54.518H137.766V50.8788C137.766 49.5849 136.687 48.5336 135.394 48.5336H133.345C132.051 48.5336 131 49.5849 131 50.8788V57.9954C131 59.2624 132.051 60.3407 133.345 60.3407ZM132.671 53.3858V51.1484C132.671 50.6093 133.156 50.0701 133.695 50.0701H135.043C135.636 50.0701 136.121 50.6093 136.121 51.1484V53.3858H132.671ZM143.434 48.5606C142.544 48.5606 141.951 49.0458 141.682 49.6658L141.52 48.6954H139.929V60.125H141.682V51.7145C141.682 50.9597 142.194 50.2588 142.949 50.2588H144.054V48.5606H143.434ZM150.254 48.5336H149.068C148.151 48.5336 147.558 48.9919 147.289 49.531L147.127 48.7493H145.537V60.125H147.289V51.4989C147.289 50.771 147.882 50.151 148.583 50.151H149.634C150.254 50.151 150.685 50.6093 150.685 51.2562V60.125H152.464V50.9058C152.464 49.5849 151.521 48.5336 150.254 48.5336ZM157.037 60.3407H159.14C160.461 60.3407 161.458 59.2624 161.458 57.9954V56.2432H159.787V57.6989C159.787 58.238 159.329 58.7772 158.735 58.7772H157.388C156.849 58.7772 156.363 58.238 156.363 57.6989V54.518H161.458V50.8788C161.458 49.5849 160.38 48.5336 159.086 48.5336H157.037C155.743 48.5336 154.692 49.5849 154.692 50.8788V57.9954C154.692 59.2624 155.743 60.3407 157.037 60.3407ZM156.363 53.3858V51.1484C156.363 50.6093 156.849 50.0701 157.388 50.0701H158.735C159.329 50.0701 159.814 50.6093 159.814 51.1484V53.3858H156.363ZM166.129 60.125H167.611V58.5076H166.56C166.021 58.5076 165.563 57.9685 165.563 57.4293V50.2049H167.584V48.7493H165.563L165.59 45.6223H164.026L163.811 48.7493H162.49V50.2049H163.811V57.7798C163.811 59.0467 164.835 60.125 166.129 60.125ZM182.009 44.8136L178.667 56.8902L175.324 44.8136H173.788V60.125H175.486V50.1241L178.182 60.125H179.125L181.821 50.2049V60.125H183.519V44.8136H182.009ZM188.39 60.3407H190.655C191.975 60.3407 193.027 59.2624 193.027 57.9954V50.8788C193.027 49.5849 191.975 48.5336 190.655 48.5336H188.39C187.096 48.5336 186.045 49.5849 186.045 50.8788V57.9954C186.045 59.2624 187.096 60.3407 188.39 60.3407ZM188.768 58.7502C188.175 58.7502 187.743 58.265 187.743 57.6719V51.2023C187.743 50.6093 188.175 50.0971 188.768 50.0971H190.277C190.897 50.0971 191.328 50.6093 191.328 51.2023V57.6719C191.328 58.265 190.897 58.7502 190.277 58.7502H188.768ZM199.791 48.7493L197.931 57.3215L196.071 48.7493H194.264L197.23 60.125H198.631L201.57 48.7493H199.791ZM203.083 46.9162H204.836V44.8136H203.083V46.9162ZM203.083 60.125H204.836V48.7493H203.083V60.125ZM209.34 60.3407H210.984C212.305 60.3407 213.383 59.2354 213.383 57.9415V56.2432C213.383 55.3537 212.844 54.491 211.982 54.1945L209.232 53.2241C208.855 53.0893 208.639 52.6849 208.639 52.3076V51.0945C208.639 50.5554 209.097 50.0162 209.663 50.0162H210.688C211.254 50.0162 211.739 50.5554 211.739 51.0945V52.3615H213.383V50.9058C213.383 49.6119 212.305 48.5336 210.984 48.5336H209.34C208.019 48.5336 206.941 49.6119 206.941 50.9058V52.4423C206.941 53.3589 207.453 54.1945 208.342 54.491L211.092 55.4615C211.442 55.5963 211.685 56.0006 211.685 56.378V57.7528C211.685 58.2919 211.227 58.8311 210.661 58.8311H209.636C209.07 58.8311 208.585 58.2919 208.585 57.7528V56.5398H206.941V57.9415C206.941 59.2354 208.019 60.3407 209.34 60.3407ZM217.963 60.125H219.445V58.5076H218.394C217.855 58.5076 217.396 57.9685 217.396 57.4293V50.2049H219.418V48.7493H217.396L217.423 45.6223H215.86L215.644 48.7493H214.323V50.2049H215.644V57.7798C215.644 59.0467 216.669 60.125 217.963 60.125ZM224.894 48.5336H223.115C221.794 48.5336 220.716 49.6119 220.716 50.9058V52.4693H222.387V51.0945C222.387 50.5554 222.872 50.0162 223.438 50.0162H224.543C225.109 50.0162 225.568 50.5554 225.568 51.0945V51.7415C225.568 52.1997 225.406 52.5232 225.002 52.7658L221.848 54.5989C221.039 55.0302 220.527 55.785 220.527 56.6206V58.0763C220.527 59.3433 221.605 60.3407 222.872 60.3407H224.004C224.813 60.3407 225.433 59.9093 225.783 59.3163L225.945 60.125H227.293V50.9058C227.293 49.6119 226.215 48.5336 224.894 48.5336ZM225.568 57.5372C225.568 58.2111 224.975 58.8311 224.274 58.8311H223.276C222.683 58.8311 222.225 58.3189 222.225 57.7798V56.6206C222.225 56.1624 222.387 55.8389 222.764 55.5963L225.056 54.1406C225.298 54.0058 225.46 53.871 225.568 53.6823V57.5372ZM233.281 48.5606C232.391 48.5606 231.798 49.0458 231.529 49.6658L231.367 48.6954H229.776V60.125H231.529V51.7145C231.529 50.9597 232.041 50.2588 232.795 50.2588H233.901V48.5606H233.281Z" fill="white"/>
<path d="M159.311 72.9796C159.312 72.9873 159.311 80.1001 159.311 80.1001C159.311 80.1956 159.246 80.2927 159.152 80.2927H158.184C157.618 80.2937 157.148 79.8116 157.147 79.2387V73.005C157.103 71.6564 156.155 70.9438 154.992 70.9458C153.829 70.9473 152.882 71.691 152.843 73.0396V80.1088C152.843 80.2043 152.776 80.2922 152.682 80.2922H151.713C151.147 80.2932 150.677 79.7883 150.676 79.2158V73.0142C150.633 71.6656 149.685 70.9529 148.521 70.9549C147.358 70.9565 146.412 71.6717 146.372 73.0203V80.1179C146.372 80.2134 146.305 80.2922 146.211 80.2922H145.243C144.677 80.2932 144.209 79.8294 144.208 79.2564C144.208 79.2564 144.208 73.0111 144.208 73.005C144.264 70.2677 146.171 68.8149 148.519 68.8119C149.807 68.8098 150.964 69.2452 151.756 70.0904C152.546 69.2426 153.701 68.8048 154.989 68.8027C157.334 68.8002 159.245 70.2458 159.311 72.9796Z" fill="white"/>
<path d="M181.613 80.1571C181.652 80.214 181.61 80.2897 181.54 80.2897L179.811 80.2943C179.405 80.2953 179.01 80.246 178.659 79.7548L176.89 77.148C176.752 76.9438 176.551 76.702 176.265 76.702C175.98 76.702 175.779 76.9438 175.641 77.148L173.871 79.7548C173.521 80.246 173.125 80.2953 172.72 80.2943H170.991C170.921 80.2943 170.878 80.214 170.917 80.1571L174.329 75.1279C174.428 74.9811 174.477 74.8109 174.475 74.6407C174.477 74.4706 174.428 74.3004 174.329 74.1536L170.917 69.1244C170.878 69.0675 170.921 68.9903 170.991 68.9903H172.72C173.125 68.9892 173.521 69.0355 173.871 69.5266L175.641 72.1335C175.779 72.3377 175.98 72.5795 176.265 72.5795C176.55 72.5795 176.752 72.3377 176.89 72.1335L178.659 69.5266C179.01 69.0355 179.405 68.9892 179.811 68.9903H181.54C181.61 68.9903 181.652 69.0675 181.613 69.1244L178.201 74.1536C178.102 74.3004 178.054 74.4706 178.056 74.6407C178.054 74.8109 178.102 74.9811 178.201 75.1279L181.613 80.1571Z" fill="white"/>
<path d="M170.238 68.9896H169.557C169.183 68.9901 168.838 69.1882 168.651 69.5102L168.399 69.9491C167.419 69.1252 166.149 68.8047 165.1 68.8047C161.925 68.8047 159.812 71.0443 159.812 74.5908C159.812 78.1658 161.961 80.3769 165.074 80.3769C166.266 80.3769 167.448 79.9832 168.204 79.3722C168.247 79.9086 168.696 80.2941 169.246 80.2941H170.234C170.33 80.2941 170.408 80.2524 170.408 80.157L170.412 69.1638C170.412 69.0668 170.334 68.9896 170.238 68.9896ZM165.053 78.2227C163.248 78.2227 161.926 76.8812 161.926 74.5903C161.926 72.2994 163.248 70.9579 165.053 70.9579C166.858 70.9579 168.181 72.2994 168.181 74.5903C168.181 76.8812 166.858 78.2227 165.053 78.2227Z" fill="white"/>
<path d="M120.405 73.1946H118.409V68.9893H115.239V80.2938H118.409V75.9076H120.405V80.2938H123.481V68.9893H120.405V73.1946Z" fill="white"/>
<path d="M137.574 68.7998C134.406 68.7973 132.787 71.1262 132.387 72.066C132.391 70.6549 130.999 68.9898 129.369 68.9877H124.12V80.2928L129.014 80.2938C130.987 80.2938 132.391 78.5866 132.393 77.1231C132.844 78.0446 134.406 80.3507 137.574 80.3492C140.746 80.3481 143.327 77.7164 143.326 74.5488C143.326 71.3147 140.746 68.8023 137.574 68.7998ZM128.604 77.66H127.047V75.7496H128.604C129.057 75.7496 129.413 76.1961 129.413 76.7051C129.413 77.2136 129.057 77.66 128.604 77.66ZM128.61 73.4156H127.053V71.5047H128.61C129.062 71.5047 129.419 71.9512 129.419 72.4596C129.419 72.9686 129.062 73.4156 128.61 73.4156ZM130.682 74.5514C131.038 74.5062 131.632 74.0993 131.842 73.8392C131.768 74.1613 131.763 75.0939 131.849 75.4164C131.61 75.0487 131.044 74.5966 130.682 74.5514ZM137.576 77.4289C135.985 77.4289 134.694 76.1408 134.694 74.5514C134.694 72.9625 135.985 71.6738 137.576 71.6738C139.168 71.6738 140.458 72.962 140.458 74.5514C140.458 76.1408 139.168 77.4289 137.576 77.4289Z" fill="white"/>
<path d="M137.577 72.2891C136.325 72.2891 135.312 73.3019 135.312 74.551C135.312 75.8005 136.326 76.8134 137.577 76.8134C138.828 76.8134 139.842 75.8005 139.842 74.551C139.842 73.3019 138.828 72.2891 137.577 72.2891Z" fill="white"/>
<path d="M181.904 69.0929H182.06V69.542H182.187V69.0929H182.348V68.9883H181.904V69.0929Z" fill="white"/>
<path d="M182.853 68.9883L182.703 69.2346L182.552 68.9883H182.426V69.542H182.552V69.2204L182.695 69.4551H182.71L182.853 69.2204V69.542H182.979V68.9883H182.853Z" fill="white"/>
<path d="M67.2639 80.4053H68.597V69.2697H67.2639V80.4053ZM75.3942 69.2697V75.1708L71.7281 69.2697H70.7479V80.4053H72.0614V71.8968L75.3942 77.2293V80.4053H76.7078V69.2697H75.3942ZM80.6888 80.5621H82.4532C83.5707 80.5621 84.3941 79.6799 84.3941 78.6016V76.9744H83.061V78.3272C83.061 78.8565 82.7081 79.327 82.1592 79.327H81.0025C80.4535 79.327 80.081 78.8565 80.081 78.3272V71.3086C80.081 70.7793 80.4535 70.3284 81.0025 70.3284H82.1592C82.7081 70.3284 83.061 70.7793 83.061 71.3086V72.7202H84.3941V71.0537C84.3941 69.9559 83.5707 69.0737 82.4532 69.0737H80.6888C79.5909 69.0737 78.7479 69.9559 78.7479 71.0537V78.6016C78.7479 79.6799 79.5909 80.5621 80.6888 80.5621ZM87.3208 79.1702V69.2697H85.9876V80.4053H90.6928V79.1702H87.3208ZM93.6894 80.5621H95.6303C96.7282 80.5621 97.5712 79.7191 97.5712 78.6016V69.2697H96.2185V78.3468C96.2185 78.8957 95.846 79.327 95.3166 79.327H94.0031C93.4738 79.327 93.0817 78.8957 93.0817 78.3468V69.2697H91.7486V78.6016C91.7486 79.7191 92.6112 80.5621 93.6894 80.5621ZM104.931 69.2697H103.578L101.814 74.5238L100.069 69.2697H98.638L101.108 75.8962V80.4053H102.441V75.9158L104.931 69.2697ZM107.404 79.1898V75.3668H109.973V74.2101H107.404V70.4852H110.816V69.2697H106.071V80.4053H110.914V79.1898H107.404Z" fill="white"/>
</svg>
