<svg xmlns="http://www.w3.org/2000/svg" width="211" height="37" viewBox="0 0 211 37" fill="none">
<path d="M206.178 3.31717e-08C208.157 1.48515e-08 209.762 1.60458 209.762 3.58392L209.762 32.7331C209.762 34.7125 208.157 36.317 206.178 36.317L147 36.317L147 5.80907e-07L206.178 3.31717e-08Z" fill="#922859"/>
<path d="M147.522 0L147.522 36.317L69.9996 36.317L69.9996 8.44406e-07L147.522 0Z" fill="#E63780"/>
<path d="M163.645 24.1721H164.446V30.3281H163.645V24.1721ZM165.848 25.9181H166.469L166.505 26.2421C166.739 26.0981 166.988 25.9871 167.252 25.9091C167.516 25.8311 167.774 25.7921 168.026 25.7921C168.512 25.7921 168.881 25.9211 169.133 26.1791C169.379 26.4251 169.502 26.8091 169.502 27.3311V30.3281H168.755V27.4211C168.755 27.2351 168.737 27.0851 168.701 26.9711C168.671 26.8511 168.617 26.7521 168.539 26.6741C168.389 26.5241 168.152 26.4491 167.828 26.4491C167.63 26.4491 167.42 26.4761 167.198 26.5301C166.976 26.5841 166.775 26.6531 166.595 26.7371V30.3281H165.848V25.9181ZM172.273 30.4541C172.057 30.4541 171.862 30.4241 171.688 30.3641C171.52 30.3101 171.388 30.2261 171.292 30.1121C171.184 29.9861 171.109 29.8421 171.067 29.6801C171.031 29.5181 171.013 29.2961 171.013 29.0141V26.4671H170.212V26.0441L171.013 25.9271V24.8831C171.283 24.7931 171.532 24.7481 171.76 24.7481V25.9181H172.921V26.4671H171.76V28.9151C171.76 29.1371 171.769 29.3051 171.787 29.4191C171.811 29.5331 171.853 29.6231 171.913 29.6891C172.015 29.8031 172.204 29.8601 172.48 29.8601C172.696 29.8601 172.918 29.8361 173.146 29.7881L173.182 30.3371C172.894 30.4151 172.591 30.4541 172.273 30.4541ZM175.947 30.4541C175.251 30.4541 174.726 30.2771 174.372 29.9231C173.988 29.5391 173.796 28.9421 173.796 28.1321C173.796 27.3701 173.967 26.7911 174.309 26.3951C174.657 25.9931 175.122 25.7921 175.704 25.7921C176.31 25.7921 176.766 25.9961 177.072 26.4041C177.378 26.8061 177.531 27.3761 177.531 28.1141V28.2851C177.531 28.3511 177.495 28.3841 177.423 28.3841H174.579C174.579 28.8941 174.708 29.2691 174.966 29.5091C175.086 29.6231 175.236 29.7071 175.416 29.7611C175.596 29.8151 175.821 29.8421 176.091 29.8421C176.445 29.8421 176.808 29.8031 177.18 29.7251L177.252 30.2831C177.066 30.3371 176.853 30.3791 176.613 30.4091C176.379 30.4391 176.157 30.4541 175.947 30.4541ZM176.793 27.8351C176.781 27.3911 176.685 27.0401 176.505 26.7821C176.325 26.5241 176.058 26.3951 175.704 26.3951C175.338 26.3951 175.059 26.5211 174.867 26.7731C174.681 27.0251 174.585 27.3791 174.579 27.8351H176.793ZM178.583 25.9181H179.204L179.249 26.2961C179.651 25.9601 180.068 25.7921 180.5 25.7921C180.59 25.7921 180.686 25.8011 180.788 25.8191V26.4851C180.656 26.4731 180.527 26.4671 180.401 26.4671C180.005 26.4671 179.648 26.5661 179.33 26.7641V30.3281H178.583V25.9181ZM181.598 25.9181H182.219L182.255 26.2421C182.489 26.0981 182.738 25.9871 183.002 25.9091C183.266 25.8311 183.524 25.7921 183.776 25.7921C184.262 25.7921 184.631 25.9211 184.883 26.1791C185.129 26.4251 185.252 26.8091 185.252 27.3311V30.3281H184.505V27.4211C184.505 27.2351 184.487 27.0851 184.451 26.9711C184.421 26.8511 184.367 26.7521 184.289 26.6741C184.139 26.5241 183.902 26.4491 183.578 26.4491C183.38 26.4491 183.17 26.4761 182.948 26.5301C182.726 26.5841 182.525 26.6531 182.345 26.7371V30.3281H181.598V25.9181ZM188.41 30.4541C187.714 30.4541 187.189 30.2771 186.835 29.9231C186.451 29.5391 186.259 28.9421 186.259 28.1321C186.259 27.3701 186.43 26.7911 186.772 26.3951C187.12 25.9931 187.585 25.7921 188.167 25.7921C188.773 25.7921 189.229 25.9961 189.535 26.4041C189.841 26.8061 189.994 27.3761 189.994 28.1141V28.2851C189.994 28.3511 189.958 28.3841 189.886 28.3841H187.042C187.042 28.8941 187.171 29.2691 187.429 29.5091C187.549 29.6231 187.699 29.7071 187.879 29.7611C188.059 29.8151 188.284 29.8421 188.554 29.8421C188.908 29.8421 189.271 29.8031 189.643 29.7251L189.715 30.2831C189.529 30.3371 189.316 30.3791 189.076 30.4091C188.842 30.4391 188.62 30.4541 188.41 30.4541ZM189.256 27.8351C189.244 27.3911 189.148 27.0401 188.968 26.7821C188.788 26.5241 188.521 26.3951 188.167 26.3951C187.801 26.3951 187.522 26.5211 187.33 26.7731C187.144 27.0251 187.048 27.3791 187.042 27.8351H189.256ZM192.576 30.4541C192.36 30.4541 192.165 30.4241 191.991 30.3641C191.823 30.3101 191.691 30.2261 191.595 30.1121C191.487 29.9861 191.412 29.8421 191.37 29.6801C191.334 29.5181 191.316 29.2961 191.316 29.0141V26.4671H190.515V26.0441L191.316 25.9271V24.8831C191.586 24.7931 191.835 24.7481 192.063 24.7481V25.9181H193.224V26.4671H192.063V28.9151C192.063 29.1371 192.072 29.3051 192.09 29.4191C192.114 29.5331 192.156 29.6231 192.216 29.6891C192.318 29.8031 192.507 29.8601 192.783 29.8601C192.999 29.8601 193.221 29.8361 193.449 29.7881L193.485 30.3371C193.197 30.4151 192.894 30.4541 192.576 30.4541Z" fill="white"/>
<path d="M3.58391 36.3174C1.60457 36.3174 1.18852e-06 34.7128 1.12075e-06 32.7335L1.2271e-07 3.58428C5.49393e-08 1.60494 1.60458 0.000361926 3.58392 0.000361815L70.3376 0.00035809L70.3376 36.3174L3.58391 36.3174Z" fill="#FBC7DE"/>
<path d="M16.6418 8.01083H18.0138C18.3591 8.01083 18.6461 8.04349 18.8748 8.10883C19.1034 8.17416 19.2854 8.27683 19.4208 8.41683C19.6541 8.65016 19.7708 8.99783 19.7708 9.45983C19.7708 9.97316 19.6401 10.3605 19.3788 10.6218C19.1081 10.8832 18.6998 11.0138 18.1538 11.0138H17.2648V12.7988H16.6418V8.01083ZM17.9438 10.5098C18.1678 10.5098 18.3544 10.4912 18.5038 10.4538C18.6531 10.4165 18.7744 10.3558 18.8678 10.2718C19.0404 10.1085 19.1268 9.84249 19.1268 9.47383C19.1268 9.14716 19.0521 8.90916 18.9028 8.75983C18.8141 8.67116 18.6928 8.60583 18.5388 8.56383C18.3894 8.52183 18.1981 8.50083 17.9648 8.50083H17.2648V10.5098H17.9438ZM20.4213 7.79383H21.0023V12.7988H20.4213V7.79383ZM22.8723 12.8968C22.485 12.8968 22.1863 12.7872 21.9763 12.5678C21.7943 12.3765 21.7033 12.1292 21.7033 11.8258C21.7033 11.5132 21.8013 11.2658 21.9973 11.0838C22.2353 10.8645 22.6226 10.7548 23.1593 10.7548H23.8733V10.5378C23.8733 10.3978 23.8593 10.2812 23.8313 10.1878C23.8033 10.0945 23.759 10.0175 23.6983 9.95683C23.5583 9.82149 23.3203 9.75383 22.9843 9.75383C22.7043 9.75383 22.3963 9.78183 22.0603 9.83783L22.0393 9.38983C22.3706 9.31049 22.7183 9.27083 23.0823 9.27083C23.5723 9.27083 23.9293 9.37583 24.1533 9.58583C24.2606 9.68849 24.3376 9.81449 24.3843 9.96383C24.431 10.1085 24.4543 10.2928 24.4543 10.5168V12.7988H23.9853L23.9503 12.5678C23.6143 12.7872 23.255 12.8968 22.8723 12.8968ZM22.9983 12.4278C23.1336 12.4278 23.2806 12.4068 23.4393 12.3648C23.598 12.3228 23.7426 12.2692 23.8733 12.2038V11.1818H23.2433C22.884 11.1818 22.6296 11.2402 22.4803 11.3568C22.3543 11.4595 22.2913 11.6112 22.2913 11.8118C22.2913 12.0172 22.352 12.1712 22.4733 12.2738C22.5946 12.3765 22.7696 12.4278 22.9983 12.4278ZM25.3182 9.36883H25.8012L25.8292 9.62083C26.0112 9.50883 26.2049 9.42249 26.4102 9.36183C26.6155 9.30116 26.8162 9.27083 27.0122 9.27083C27.3902 9.27083 27.6772 9.37116 27.8732 9.57183C28.0645 9.76316 28.1602 10.0618 28.1602 10.4678V12.7988H27.5792V10.5378C27.5792 10.3932 27.5652 10.2765 27.5372 10.1878C27.5139 10.0945 27.4719 10.0175 27.4112 9.95683C27.2945 9.84016 27.1102 9.78183 26.8582 9.78183C26.7042 9.78183 26.5409 9.80283 26.3682 9.84483C26.1955 9.88683 26.0392 9.94049 25.8992 10.0058V12.7988H25.3182V9.36883ZM31.4719 12.8968C31.3086 12.8968 31.1313 12.8852 30.9399 12.8618C30.7533 12.8432 30.5969 12.8175 30.4709 12.7848V12.3298C30.5969 12.3485 30.7486 12.3672 30.9259 12.3858C31.1033 12.3998 31.2479 12.4068 31.3599 12.4068C31.5933 12.4068 31.7846 12.3882 31.9339 12.3508C32.0879 12.3088 32.2163 12.2458 32.3189 12.1618C32.5103 11.9985 32.6059 11.7488 32.6059 11.4128C32.6059 11.0908 32.5266 10.8505 32.3679 10.6918C32.2746 10.5985 32.1463 10.5332 31.9829 10.4958C31.8196 10.4538 31.6049 10.4328 31.3389 10.4328H30.5549C30.5409 10.3955 30.5339 10.3465 30.5339 10.2858L30.5409 10.0268L30.6319 8.01083H32.9209V8.47283H31.1219L31.0589 9.96383H31.4229C31.7823 9.96383 32.0739 9.99649 32.2979 10.0618C32.5219 10.1272 32.7063 10.2345 32.8509 10.3838C33.0936 10.6358 33.2149 10.9742 33.2149 11.3988C33.2149 11.8468 33.0866 12.1992 32.8299 12.4558C32.5453 12.7498 32.0926 12.8968 31.4719 12.8968ZM35.555 12.8968C34.981 12.8968 34.5633 12.6868 34.302 12.2668C34.0406 11.8422 33.91 11.2238 33.91 10.4118C33.91 9.59983 34.0406 8.98149 34.302 8.55683C34.5633 8.13216 34.981 7.91983 35.555 7.91983C36.129 7.91983 36.5466 8.13216 36.808 8.55683C37.0693 8.98149 37.2 9.59983 37.2 10.4118C37.2 11.2238 37.0693 11.8422 36.808 12.2668C36.5466 12.6868 36.129 12.8968 35.555 12.8968ZM35.555 12.3998C35.933 12.3998 36.199 12.2412 36.353 11.9238C36.5116 11.6065 36.591 11.1025 36.591 10.4118C36.591 9.72116 36.5116 9.21716 36.353 8.89983C36.199 8.57783 35.933 8.41683 35.555 8.41683C35.177 8.41683 34.9086 8.57783 34.75 8.89983C34.596 9.21716 34.519 9.72116 34.519 10.4118C34.519 11.1025 34.596 11.6065 34.75 11.9238C34.9086 12.2412 35.177 12.3998 35.555 12.3998ZM39.2924 8.01083H39.8384L41.5044 11.1608L43.1914 8.01083H43.7234V12.7988H43.1354V9.23583L41.7424 11.7838H41.2244L39.8454 9.20783V12.7988H39.2924V8.01083ZM46.2529 12.8968C46.0709 12.8968 45.8819 12.8665 45.6859 12.8058C45.4946 12.7452 45.3289 12.6658 45.1889 12.5678L45.1609 12.7988H44.6919V7.79383H45.2729V9.54383C45.4222 9.46449 45.5832 9.39916 45.7559 9.34783C45.9286 9.29649 46.0966 9.27083 46.2599 9.27083C46.6846 9.27083 47.0112 9.42016 47.2399 9.71883C47.4732 10.0175 47.5899 10.4678 47.5899 11.0698C47.5899 11.6812 47.4756 12.1385 47.2469 12.4418C47.0182 12.7452 46.6869 12.8968 46.2529 12.8968ZM46.1199 12.4138C46.4186 12.4138 46.6356 12.3112 46.7709 12.1058C46.9109 11.9005 46.9809 11.5552 46.9809 11.0698C46.9809 10.6078 46.9109 10.2765 46.7709 10.0758C46.6356 9.87049 46.4139 9.76783 46.1059 9.76783C45.9752 9.76783 45.8329 9.78649 45.6789 9.82383C45.5249 9.86116 45.3896 9.90783 45.2729 9.96383V12.1688C45.3896 12.2388 45.5249 12.2972 45.6789 12.3438C45.8376 12.3905 45.9846 12.4138 46.1199 12.4138ZM48.2889 9.36883H48.7719L48.7999 9.62083C48.9725 9.50416 49.1522 9.41783 49.3389 9.36183C49.5302 9.30116 49.7075 9.27083 49.8709 9.27083C50.3049 9.27083 50.6315 9.43183 50.8509 9.75383C51.0749 10.0712 51.1869 10.5098 51.1869 11.0698C51.1869 11.6952 51.0702 12.1572 50.8369 12.4558C50.6035 12.7498 50.2745 12.8968 49.8499 12.8968C49.6725 12.8968 49.4952 12.8735 49.3179 12.8268C49.1452 12.7802 48.9959 12.7172 48.8699 12.6378V14.3738H48.2889V9.36883ZM49.7029 12.4138C50.0155 12.4138 50.2395 12.3112 50.3749 12.1058C50.5102 11.8958 50.5779 11.5482 50.5779 11.0628C50.5779 10.6242 50.5102 10.2998 50.3749 10.0898C50.2395 9.87516 50.0295 9.76783 49.7449 9.76783C49.6142 9.76783 49.4695 9.78883 49.3109 9.83083C49.1522 9.87283 49.0052 9.92883 48.8699 9.99883V12.2038C48.9725 12.2645 49.1009 12.3158 49.2549 12.3578C49.4089 12.3952 49.5582 12.4138 49.7029 12.4138ZM52.7888 12.8968C52.6255 12.8968 52.4481 12.8828 52.2568 12.8548C52.0701 12.8268 51.9115 12.7918 51.7808 12.7498L51.8088 12.3018C51.9488 12.3392 52.1051 12.3695 52.2778 12.3928C52.4551 12.4162 52.6185 12.4278 52.7678 12.4278C53.0478 12.4278 53.2601 12.3835 53.4048 12.2948C53.5541 12.2015 53.6288 12.0662 53.6288 11.8888C53.6288 11.7395 53.5658 11.6275 53.4398 11.5528C53.3138 11.4782 53.1155 11.3988 52.8448 11.3148C52.6021 11.2355 52.4061 11.1632 52.2568 11.0978C52.1121 11.0278 51.9861 10.9252 51.8788 10.7898C51.7715 10.6545 51.7178 10.4772 51.7178 10.2578C51.7178 9.93583 51.8298 9.69083 52.0538 9.52283C52.2825 9.35483 52.5858 9.27083 52.9638 9.27083C53.1318 9.27083 53.3045 9.28483 53.4818 9.31283C53.6638 9.34083 53.8248 9.37583 53.9648 9.41783L53.9158 9.84483C53.5891 9.77016 53.2881 9.73283 53.0128 9.73283C52.5135 9.73283 52.2638 9.89383 52.2638 10.2158C52.2638 10.3698 52.3268 10.4865 52.4528 10.5658C52.5835 10.6452 52.7841 10.7268 53.0548 10.8108C53.2881 10.8808 53.4795 10.9508 53.6288 11.0208C53.7828 11.0908 53.9111 11.1935 54.0138 11.3288C54.1211 11.4595 54.1748 11.6322 54.1748 11.8468C54.1748 12.1968 54.0511 12.4605 53.8038 12.6378C53.5565 12.8105 53.2181 12.8968 52.7888 12.8968Z" fill="#922859"/>
<path d="M102.302 5.11141H103.583C103.9 5.11141 104.162 5.13941 104.367 5.19541C104.572 5.25141 104.738 5.34241 104.864 5.46841C105.065 5.66908 105.165 5.94675 105.165 6.30141C105.165 6.55341 105.109 6.76808 104.997 6.94541C104.89 7.12275 104.733 7.25808 104.528 7.35141C104.827 7.42141 105.058 7.55908 105.221 7.76441C105.389 7.96975 105.473 8.23108 105.473 8.54841C105.473 8.97308 105.352 9.29741 105.109 9.52141C104.969 9.64741 104.787 9.74308 104.563 9.80841C104.344 9.86908 104.073 9.89941 103.751 9.89941H102.302V5.11141ZM103.541 7.18341C103.751 7.18341 103.919 7.16475 104.045 7.12741C104.171 7.09008 104.274 7.03175 104.353 6.95241C104.479 6.81708 104.542 6.62575 104.542 6.37841C104.542 6.12175 104.477 5.93041 104.346 5.80441C104.271 5.72975 104.169 5.67841 104.038 5.65041C103.912 5.61775 103.744 5.60141 103.534 5.60141H102.925V7.18341H103.541ZM103.562 9.40941C103.847 9.40941 104.066 9.39308 104.22 9.36041C104.374 9.32775 104.498 9.26941 104.591 9.18541C104.75 9.04075 104.829 8.82608 104.829 8.54141C104.829 8.26608 104.759 8.05841 104.619 7.91841C104.526 7.82975 104.404 7.76675 104.255 7.72941C104.106 7.69208 103.903 7.67341 103.646 7.67341H102.925V9.40941H103.562ZM107.631 9.99741C107.109 9.99741 106.717 9.84108 106.455 9.52841C106.199 9.21575 106.07 8.76775 106.07 8.18441C106.07 7.60108 106.199 7.15308 106.455 6.84041C106.717 6.52775 107.109 6.37141 107.631 6.37141C108.154 6.37141 108.544 6.52775 108.8 6.84041C109.062 7.15308 109.192 7.60108 109.192 8.18441C109.192 8.76775 109.062 9.21575 108.8 9.52841C108.544 9.84108 108.154 9.99741 107.631 9.99741ZM107.631 9.52141C107.972 9.52141 108.215 9.41175 108.359 9.19241C108.509 8.97308 108.583 8.63708 108.583 8.18441C108.583 7.73175 108.509 7.39575 108.359 7.17641C108.215 6.95708 107.972 6.84741 107.631 6.84741C107.291 6.84741 107.046 6.95708 106.896 7.17641C106.752 7.39575 106.679 7.73175 106.679 8.18441C106.679 8.63708 106.752 8.97308 106.896 9.19241C107.046 9.41175 107.291 9.52141 107.631 9.52141ZM109.89 6.46941H110.373L110.401 6.72141C110.583 6.60941 110.777 6.52308 110.982 6.46241C111.188 6.40175 111.388 6.37141 111.584 6.37141C111.962 6.37141 112.249 6.47175 112.445 6.67241C112.637 6.86375 112.732 7.16241 112.732 7.56841V9.89941H112.151V7.63841C112.151 7.49375 112.137 7.37708 112.109 7.28841C112.086 7.19508 112.044 7.11808 111.983 7.05741C111.867 6.94075 111.682 6.88241 111.43 6.88241C111.276 6.88241 111.113 6.90341 110.94 6.94541C110.768 6.98741 110.611 7.04108 110.471 7.10641V9.89941H109.89V6.46941ZM114.976 9.99741C114.453 9.99741 114.061 9.84108 113.8 9.52841C113.543 9.21575 113.415 8.76775 113.415 8.18441C113.415 7.60108 113.543 7.15308 113.8 6.84041C114.061 6.52775 114.453 6.37141 114.976 6.37141C115.498 6.37141 115.888 6.52775 116.145 6.84041C116.406 7.15308 116.537 7.60108 116.537 8.18441C116.537 8.76775 116.406 9.21575 116.145 9.52841C115.888 9.84108 115.498 9.99741 114.976 9.99741ZM114.976 9.52141C115.316 9.52141 115.559 9.41175 115.704 9.19241C115.853 8.97308 115.928 8.63708 115.928 8.18441C115.928 7.73175 115.853 7.39575 115.704 7.17641C115.559 6.95708 115.316 6.84741 114.976 6.84741C114.635 6.84741 114.39 6.95708 114.241 7.17641C114.096 7.39575 114.024 7.73175 114.024 8.18441C114.024 8.63708 114.096 8.97308 114.241 9.19241C114.39 9.41175 114.635 9.52141 114.976 9.52141Z" fill="white"/>
<path d="M96.4128 29.9515L95.2578 28.2155H95.9088L96.7838 29.5245L97.5538 28.2155H98.1908L97.0568 29.9305L98.2048 31.6455H97.5468L96.6858 30.3505L95.9158 31.6455H95.2718L96.4128 29.9515ZM101.125 31.7435C100.756 31.7435 100.413 31.7038 100.096 31.6245V31.1625C100.385 31.2232 100.702 31.2535 101.048 31.2535C101.267 31.2535 101.449 31.2372 101.594 31.2045C101.743 31.1672 101.867 31.1112 101.965 31.0365C102.17 30.8872 102.273 30.6492 102.273 30.3225C102.273 30.1918 102.252 30.0705 102.21 29.9585C102.168 29.8465 102.109 29.7532 102.035 29.6785C101.937 29.5852 101.808 29.5198 101.65 29.4825C101.491 29.4405 101.295 29.4195 101.062 29.4195H100.936V28.9855H101.055C101.787 28.9855 102.154 28.6868 102.154 28.0895C102.154 27.8095 102.074 27.6018 101.916 27.4665C101.827 27.3918 101.713 27.3382 101.573 27.3055C101.433 27.2682 101.258 27.2495 101.048 27.2495C100.772 27.2495 100.481 27.2752 100.173 27.3265V26.8715C100.481 26.8015 100.81 26.7665 101.16 26.7665C101.724 26.7665 102.135 26.8925 102.392 27.1445C102.625 27.3685 102.742 27.6742 102.742 28.0615C102.742 28.3322 102.676 28.5608 102.546 28.7475C102.415 28.9295 102.24 29.0625 102.021 29.1465C102.291 29.2398 102.501 29.3868 102.651 29.5875C102.805 29.7882 102.882 30.0355 102.882 30.3295C102.882 30.7775 102.732 31.1252 102.434 31.3725C102.13 31.6198 101.694 31.7435 101.125 31.7435ZM105.149 28.2155H105.632L105.66 28.4675C106.033 28.2342 106.402 28.1175 106.766 28.1175C107.191 28.1175 107.501 28.2458 107.697 28.5025C108.122 28.2458 108.532 28.1175 108.929 28.1175C109.307 28.1175 109.594 28.2178 109.79 28.4185C109.981 28.6098 110.077 28.9085 110.077 29.3145V31.6455H109.496V29.3845C109.496 29.2398 109.482 29.1232 109.454 29.0345C109.431 28.9412 109.389 28.8642 109.328 28.8035C109.211 28.6868 109.032 28.6285 108.789 28.6285C108.649 28.6285 108.497 28.6495 108.334 28.6915C108.171 28.7288 108.014 28.7848 107.865 28.8595C107.898 29.0042 107.914 29.1558 107.914 29.3145V31.6455H107.333V29.3845C107.333 29.2398 107.319 29.1232 107.291 29.0345C107.268 28.9412 107.226 28.8642 107.165 28.8035C107.048 28.6868 106.869 28.6285 106.626 28.6285C106.341 28.6285 106.043 28.7032 105.73 28.8525V31.6455H105.149V28.2155ZM112.431 31.7435C111.89 31.7435 111.482 31.6058 111.206 31.3305C110.908 31.0318 110.758 30.5675 110.758 29.9375C110.758 29.3448 110.891 28.8945 111.157 28.5865C111.428 28.2738 111.79 28.1175 112.242 28.1175C112.714 28.1175 113.068 28.2762 113.306 28.5935C113.544 28.9062 113.663 29.3495 113.663 29.9235V30.0565C113.663 30.1078 113.635 30.1335 113.579 30.1335H111.367C111.367 30.5302 111.468 30.8218 111.668 31.0085C111.762 31.0972 111.878 31.1625 112.018 31.2045C112.158 31.2465 112.333 31.2675 112.543 31.2675C112.819 31.2675 113.101 31.2372 113.39 31.1765L113.446 31.6105C113.302 31.6525 113.136 31.6852 112.949 31.7085C112.767 31.7318 112.595 31.7435 112.431 31.7435ZM113.089 29.7065C113.08 29.3612 113.005 29.0882 112.865 28.8875C112.725 28.6868 112.518 28.5865 112.242 28.5865C111.958 28.5865 111.741 28.6845 111.591 28.8805C111.447 29.0765 111.372 29.3518 111.367 29.7065H113.089ZM115.283 31.7435C115.12 31.7435 114.942 31.7295 114.751 31.7015C114.564 31.6735 114.406 31.6385 114.275 31.5965L114.303 31.1485C114.443 31.1858 114.599 31.2162 114.772 31.2395C114.949 31.2628 115.113 31.2745 115.262 31.2745C115.542 31.2745 115.754 31.2302 115.899 31.1415C116.048 31.0482 116.123 30.9128 116.123 30.7355C116.123 30.5862 116.06 30.4742 115.934 30.3995C115.808 30.3248 115.61 30.2455 115.339 30.1615C115.096 30.0822 114.9 30.0098 114.751 29.9445C114.606 29.8745 114.48 29.7718 114.373 29.6365C114.266 29.5012 114.212 29.3238 114.212 29.1045C114.212 28.7825 114.324 28.5375 114.548 28.3695C114.777 28.2015 115.08 28.1175 115.458 28.1175C115.626 28.1175 115.799 28.1315 115.976 28.1595C116.158 28.1875 116.319 28.2225 116.459 28.2645L116.41 28.6915C116.083 28.6168 115.782 28.5795 115.507 28.5795C115.008 28.5795 114.758 28.7405 114.758 29.0625C114.758 29.2165 114.821 29.3332 114.947 29.4125C115.078 29.4918 115.278 29.5735 115.549 29.6575C115.782 29.7275 115.974 29.7975 116.123 29.8675C116.277 29.9375 116.405 30.0402 116.508 30.1755C116.615 30.3062 116.669 30.4788 116.669 30.6935C116.669 31.0435 116.545 31.3072 116.298 31.4845C116.051 31.6572 115.712 31.7435 115.283 31.7435ZM118.88 31.7435C118.339 31.7435 117.93 31.6058 117.655 31.3305C117.356 31.0318 117.207 30.5675 117.207 29.9375C117.207 29.3448 117.34 28.8945 117.606 28.5865C117.877 28.2738 118.238 28.1175 118.691 28.1175C119.162 28.1175 119.517 28.2762 119.755 28.5935C119.993 28.9062 120.112 29.3495 120.112 29.9235V30.0565C120.112 30.1078 120.084 30.1335 120.028 30.1335H117.816C117.816 30.5302 117.916 30.8218 118.117 31.0085C118.21 31.0972 118.327 31.1625 118.467 31.2045C118.607 31.2465 118.782 31.2675 118.992 31.2675C119.267 31.2675 119.55 31.2372 119.839 31.1765L119.895 31.6105C119.75 31.6525 119.585 31.6852 119.398 31.7085C119.216 31.7318 119.043 31.7435 118.88 31.7435ZM119.538 29.7065C119.529 29.3612 119.454 29.0882 119.314 28.8875C119.174 28.6868 118.966 28.5865 118.691 28.5865C118.406 28.5865 118.189 28.6845 118.04 28.8805C117.895 29.0765 117.821 29.3518 117.816 29.7065H119.538ZM121.732 31.7435C121.568 31.7435 121.391 31.7295 121.2 31.7015C121.013 31.6735 120.854 31.6385 120.724 31.5965L120.752 31.1485C120.892 31.1858 121.048 31.2162 121.221 31.2395C121.398 31.2628 121.561 31.2745 121.711 31.2745C121.991 31.2745 122.203 31.2302 122.348 31.1415C122.497 31.0482 122.572 30.9128 122.572 30.7355C122.572 30.5862 122.509 30.4742 122.383 30.3995C122.257 30.3248 122.058 30.2455 121.788 30.1615C121.545 30.0822 121.349 30.0098 121.2 29.9445C121.055 29.8745 120.929 29.7718 120.822 29.6365C120.714 29.5012 120.661 29.3238 120.661 29.1045C120.661 28.7825 120.773 28.5375 120.997 28.3695C121.225 28.2015 121.529 28.1175 121.907 28.1175C122.075 28.1175 122.247 28.1315 122.425 28.1595C122.607 28.1875 122.768 28.2225 122.908 28.2645L122.859 28.6915C122.532 28.6168 122.231 28.5795 121.956 28.5795C121.456 28.5795 121.207 28.7405 121.207 29.0625C121.207 29.2165 121.27 29.3332 121.396 29.4125C121.526 29.4918 121.727 29.5735 121.998 29.6575C122.231 29.7275 122.422 29.7975 122.572 29.8675C122.726 29.9375 122.854 30.0402 122.957 30.1755C123.064 30.3062 123.118 30.4788 123.118 30.6935C123.118 31.0435 122.994 31.3072 122.747 31.4845C122.499 31.6572 122.161 31.7435 121.732 31.7435Z" fill="white"/>
<path d="M11.3783 29.1843C10.823 29.1843 10.2393 29.1333 9.6273 29.0313C9.02664 28.9293 8.51097 28.7933 8.0803 28.6233L8.3353 27.4673C9.40064 27.7733 10.3696 27.9263 11.2423 27.9263C12.1603 27.9263 12.846 27.7506 13.2993 27.3993C13.7186 27.0706 13.9283 26.6003 13.9283 25.9883C13.9283 25.569 13.8093 25.2176 13.5713 24.9343C13.3446 24.651 13.0556 24.4186 12.7043 24.2373C12.3643 24.056 11.894 23.852 11.2933 23.6253C10.5793 23.3646 10.0013 23.1153 9.5593 22.8773C9.1173 22.628 8.73764 22.288 8.4203 21.8573C8.1143 21.4266 7.9613 20.877 7.9613 20.2083C7.9613 19.1996 8.30697 18.429 8.9983 17.8963C9.68964 17.3636 10.6303 17.0973 11.8203 17.0973C12.319 17.0973 12.8176 17.137 13.3163 17.2163C13.815 17.2956 14.2683 17.4033 14.6763 17.5393L14.4553 18.6953C13.5826 18.4686 12.744 18.3553 11.9393 18.3553C10.2393 18.3553 9.3893 18.939 9.3893 20.1063C9.3893 20.4803 9.49697 20.7976 9.7123 21.0583C9.93897 21.319 10.2166 21.5343 10.5453 21.7043C10.8853 21.8743 11.3443 22.0726 11.9223 22.2993C12.659 22.5826 13.254 22.849 13.7073 23.0983C14.172 23.3476 14.563 23.699 14.8803 24.1523C15.209 24.5943 15.3733 25.1553 15.3733 25.8353C15.3733 26.8326 15.0673 27.6203 14.4553 28.1983C13.764 28.8556 12.7383 29.1843 11.3783 29.1843ZM21.6825 17.0973H23.0595L18.0445 29.1843H16.6675L21.6825 17.0973ZM30.2727 18.4403H24.6627V17.3183H31.6497C31.6837 17.3976 31.7007 17.5223 31.7007 17.6923C31.7007 18.0096 31.6384 18.3496 31.5137 18.7123L28.0287 28.9463H26.4817L30.2727 18.4403ZM36.4593 29.1843C36.0627 29.1843 35.632 29.156 35.1673 29.0993C34.714 29.054 34.3343 28.9916 34.0283 28.9123V27.8073C34.3343 27.8526 34.7027 27.898 35.1333 27.9433C35.564 27.9773 35.9153 27.9943 36.1873 27.9943C36.754 27.9943 37.2187 27.949 37.5813 27.8583C37.9553 27.7563 38.267 27.6033 38.5163 27.3993C38.981 27.0026 39.2133 26.3963 39.2133 25.5803C39.2133 24.7983 39.0207 24.2146 38.6353 23.8293C38.4087 23.6026 38.097 23.444 37.7003 23.3533C37.3037 23.2513 36.7823 23.2003 36.1363 23.2003H34.2323C34.1983 23.1096 34.1813 22.9906 34.1813 22.8433L34.1983 22.2143L34.4193 17.3183H39.9783V18.4403H35.6093L35.4563 22.0613H36.3403C37.213 22.0613 37.9213 22.1406 38.4653 22.2993C39.0093 22.458 39.457 22.7186 39.8083 23.0813C40.3977 23.6933 40.6923 24.515 40.6923 25.5463C40.6923 26.6343 40.3807 27.49 39.7573 28.1133C39.066 28.8273 37.9667 29.1843 36.4593 29.1843ZM43.5299 29.1843C42.9633 29.1843 42.6799 28.8783 42.6799 28.2663V28.1983C42.6799 27.5863 42.9633 27.2803 43.5299 27.2803H43.6489C44.2156 27.2803 44.4989 27.5863 44.4989 28.1983V28.2663C44.4989 28.8783 44.2156 29.1843 43.6489 29.1843H43.5299ZM49.0672 29.1843C48.4439 29.1843 47.8092 29.1163 47.1632 28.9803V27.8923C47.8432 27.983 48.4382 28.0283 48.9482 28.0283C50.0476 28.0283 50.8296 27.694 51.2942 27.0253C51.7702 26.3453 52.0422 25.2856 52.1102 23.8463C51.1016 24.2656 50.1666 24.4753 49.3052 24.4753C48.2852 24.4753 47.4862 24.1806 46.9082 23.5913C46.3302 22.9906 46.0412 22.1236 46.0412 20.9903C46.0412 19.8343 46.3586 18.8993 46.9932 18.1853C47.6392 17.46 48.5516 17.0973 49.7302 17.0973C51.0902 17.0973 52.0706 17.5676 52.6712 18.5083C53.2719 19.4376 53.5722 20.7806 53.5722 22.5373C53.5722 25.0533 53.1189 26.8496 52.2122 27.9263C51.5096 28.765 50.4612 29.1843 49.0672 29.1843ZM49.5942 23.3363C49.9569 23.3363 50.3706 23.2966 50.8352 23.2173C51.2999 23.138 51.7306 23.0303 52.1272 22.8943V22.2143C52.1272 20.9223 51.9402 19.942 51.5662 19.2733C51.2036 18.5933 50.5802 18.2533 49.6962 18.2533C48.9822 18.2533 48.4326 18.4913 48.0472 18.9673C47.6619 19.432 47.4692 20.078 47.4692 20.9053C47.4692 21.7213 47.6336 22.3333 47.9622 22.7413C48.3022 23.138 48.8462 23.3363 49.5942 23.3363ZM59.0448 29.1843C57.6508 29.1843 56.6365 28.6743 56.0018 27.6543C55.3672 26.623 55.0498 25.1213 55.0498 23.1493C55.0498 21.1773 55.3672 19.6756 56.0018 18.6443C56.6365 17.613 57.6508 17.0973 59.0448 17.0973C60.4388 17.0973 61.4532 17.613 62.0878 18.6443C62.7225 19.6756 63.0398 21.1773 63.0398 23.1493C63.0398 25.1213 62.7225 26.623 62.0878 27.6543C61.4532 28.6743 60.4388 29.1843 59.0448 29.1843ZM59.0448 27.9773C59.9628 27.9773 60.6088 27.592 60.9828 26.8213C61.3682 26.0506 61.5608 24.8266 61.5608 23.1493C61.5608 21.472 61.3682 20.248 60.9828 19.4773C60.6088 18.6953 59.9628 18.3043 59.0448 18.3043C58.1268 18.3043 57.4752 18.6953 57.0898 19.4773C56.7158 20.248 56.5288 21.472 56.5288 23.1493C56.5288 24.8266 56.7158 26.0506 57.0898 26.8213C57.4752 27.592 58.1268 27.9773 59.0448 27.9773Z" fill="#922859"/>
<path d="M79.8992 22.9736C79.8592 22.8536 79.8392 22.7386 79.8392 22.6286C79.8392 22.4186 79.8792 22.2286 79.9592 22.0586C80.0392 21.8786 80.1992 21.6436 80.4392 21.3536L82.7942 18.4736C83.3942 17.7336 83.8142 17.1336 84.0542 16.6736C84.2942 16.2036 84.4142 15.7386 84.4142 15.2786C84.4142 14.6586 84.2292 14.2186 83.8592 13.9586C83.4892 13.6886 82.9392 13.5536 82.2092 13.5536C81.4892 13.5536 80.7692 13.6286 80.0492 13.7786V12.8036C80.8092 12.6136 81.5892 12.5186 82.3892 12.5186C83.5292 12.5186 84.3792 12.7686 84.9392 13.2686C85.4592 13.7286 85.7192 14.3786 85.7192 15.2186C85.7192 15.6386 85.6592 16.0286 85.5392 16.3886C85.4192 16.7386 85.2192 17.1186 84.9392 17.5286C84.6592 17.9386 84.2542 18.4586 83.7242 19.0886L81.2642 21.9836H85.8992V22.9736H79.8992ZM90.9947 23.1836C89.7647 23.1836 88.8697 22.7336 88.3097 21.8336C87.7497 20.9236 87.4697 19.5986 87.4697 17.8586C87.4697 16.1186 87.7497 14.7936 88.3097 13.8836C88.8697 12.9736 89.7647 12.5186 90.9947 12.5186C92.2247 12.5186 93.1197 12.9736 93.6797 13.8836C94.2397 14.7936 94.5197 16.1186 94.5197 17.8586C94.5197 19.5986 94.2397 20.9236 93.6797 21.8336C93.1197 22.7336 92.2247 23.1836 90.9947 23.1836ZM90.9947 22.1186C91.8047 22.1186 92.3747 21.7786 92.7047 21.0986C93.0447 20.4186 93.2147 19.3386 93.2147 17.8586C93.2147 16.3786 93.0447 15.2986 92.7047 14.6186C92.3747 13.9286 91.8047 13.5836 90.9947 13.5836C90.1847 13.5836 89.6097 13.9286 89.2697 14.6186C88.9397 15.2986 88.7747 16.3786 88.7747 17.8586C88.7747 19.3386 88.9397 20.4186 89.2697 21.0986C89.6097 21.7786 90.1847 22.1186 90.9947 22.1186ZM99.0301 23.1836C97.8001 23.1836 96.9051 22.7336 96.3451 21.8336C95.7851 20.9236 95.5051 19.5986 95.5051 17.8586C95.5051 16.1186 95.7851 14.7936 96.3451 13.8836C96.9051 12.9736 97.8001 12.5186 99.0301 12.5186C100.26 12.5186 101.155 12.9736 101.715 13.8836C102.275 14.7936 102.555 16.1186 102.555 17.8586C102.555 19.5986 102.275 20.9236 101.715 21.8336C101.155 22.7336 100.26 23.1836 99.0301 23.1836ZM99.0301 22.1186C99.8401 22.1186 100.41 21.7786 100.74 21.0986C101.08 20.4186 101.25 19.3386 101.25 17.8586C101.25 16.3786 101.08 15.2986 100.74 14.6186C100.41 13.9286 99.8401 13.5836 99.0301 13.5836C98.2201 13.5836 97.6451 13.9286 97.3051 14.6186C96.9751 15.2986 96.8101 16.3786 96.8101 17.8586C96.8101 19.3386 96.9751 20.4186 97.3051 21.0986C97.6451 21.7786 98.2201 22.1186 99.0301 22.1186ZM106.991 12.7136H108.161L111.731 19.4636L115.346 12.7136H116.486V22.9736H115.226V15.3386L112.241 20.7986H111.131L108.176 15.2786V22.9736H106.991V12.7136ZM121.883 23.1836C121.493 23.1836 121.088 23.1186 120.668 22.9886C120.258 22.8586 119.903 22.6886 119.603 22.4786L119.543 22.9736H118.538V12.2486H119.783V15.9986C120.103 15.8286 120.448 15.6886 120.818 15.5786C121.188 15.4686 121.548 15.4136 121.898 15.4136C122.808 15.4136 123.508 15.7336 123.998 16.3736C124.498 17.0136 124.748 17.9786 124.748 19.2686C124.748 20.5786 124.503 21.5586 124.013 22.2086C123.523 22.8586 122.813 23.1836 121.883 23.1836ZM121.598 22.1486C122.238 22.1486 122.703 21.9286 122.993 21.4886C123.293 21.0486 123.443 20.3086 123.443 19.2686C123.443 18.2786 123.293 17.5686 122.993 17.1386C122.703 16.6986 122.228 16.4786 121.568 16.4786C121.288 16.4786 120.983 16.5186 120.653 16.5986C120.323 16.6786 120.033 16.7786 119.783 16.8986V21.6236C120.033 21.7736 120.323 21.8986 120.653 21.9986C120.993 22.0986 121.308 22.1486 121.598 22.1486ZM126.221 15.6236H127.256L127.316 16.1636C127.686 15.9136 128.071 15.7286 128.471 15.6086C128.881 15.4786 129.261 15.4136 129.611 15.4136C130.541 15.4136 131.241 15.7586 131.711 16.4486C132.191 17.1286 132.431 18.0686 132.431 19.2686C132.431 20.6086 132.181 21.5986 131.681 22.2386C131.181 22.8686 130.476 23.1836 129.566 23.1836C129.186 23.1836 128.806 23.1336 128.426 23.0336C128.056 22.9336 127.736 22.7986 127.466 22.6286V26.3486H126.221V15.6236ZM129.251 22.1486C129.921 22.1486 130.401 21.9286 130.691 21.4886C130.981 21.0386 131.126 20.2936 131.126 19.2536C131.126 18.3136 130.981 17.6186 130.691 17.1686C130.401 16.7086 129.951 16.4786 129.341 16.4786C129.061 16.4786 128.751 16.5236 128.411 16.6136C128.071 16.7036 127.756 16.8236 127.466 16.9736V21.6986C127.686 21.8286 127.961 21.9386 128.291 22.0286C128.621 22.1086 128.941 22.1486 129.251 22.1486ZM135.84 23.1836C135.49 23.1836 135.11 23.1536 134.7 23.0936C134.3 23.0336 133.96 22.9586 133.68 22.8686L133.74 21.9086C134.04 21.9886 134.375 22.0536 134.745 22.1036C135.125 22.1536 135.475 22.1786 135.795 22.1786C136.395 22.1786 136.85 22.0836 137.16 21.8936C137.48 21.6936 137.64 21.4036 137.64 21.0236C137.64 20.7036 137.505 20.4636 137.235 20.3036C136.965 20.1436 136.54 19.9736 135.96 19.7936C135.44 19.6236 135.02 19.4686 134.7 19.3286C134.39 19.1786 134.12 18.9586 133.89 18.6686C133.66 18.3786 133.545 17.9986 133.545 17.5286C133.545 16.8386 133.785 16.3136 134.265 15.9536C134.755 15.5936 135.405 15.4136 136.215 15.4136C136.575 15.4136 136.945 15.4436 137.325 15.5036C137.715 15.5636 138.06 15.6386 138.36 15.7286L138.255 16.6436C137.555 16.4836 136.91 16.4036 136.32 16.4036C135.25 16.4036 134.715 16.7486 134.715 17.4386C134.715 17.7686 134.85 18.0186 135.12 18.1886C135.4 18.3586 135.83 18.5336 136.41 18.7136C136.91 18.8636 137.32 19.0136 137.64 19.1636C137.97 19.3136 138.245 19.5336 138.465 19.8236C138.695 20.1036 138.81 20.4736 138.81 20.9336C138.81 21.6836 138.545 22.2486 138.015 22.6286C137.485 22.9986 136.76 23.1836 135.84 23.1836Z" fill="white"/>
<path d="M182.778 17.2212C182.673 17.2212 182.57 17.1763 182.498 17.0893C181.638 16.0451 180.37 15.4464 179.018 15.4464C177.71 15.4464 176.469 16.0137 175.612 17.0031C175.481 17.1541 175.253 17.1707 175.102 17.0395C174.95 16.9085 174.934 16.6801 175.065 16.5287C176.06 15.3809 177.501 14.7227 179.018 14.7227C180.587 14.7227 182.059 15.4175 183.057 16.6292C183.184 16.7838 183.162 17.0116 183.008 17.1387C182.94 17.1942 182.859 17.2212 182.778 17.2212Z" fill="white"/>
<path d="M185.359 14.1942C185.259 14.1942 185.16 14.1534 185.089 14.0736C183.545 12.349 181.332 11.3599 179.018 11.3599C176.75 11.3599 174.566 12.3173 173.028 13.9864C172.892 14.1332 172.663 14.1428 172.516 14.007C172.369 13.8715 172.36 13.6425 172.495 13.4956C174.171 11.6781 176.548 10.6357 179.018 10.6357C181.537 10.6357 183.947 11.7128 185.628 13.5904C185.761 13.7393 185.749 13.9681 185.6 14.1015C185.531 14.1636 185.445 14.1942 185.359 14.1942Z" fill="white"/>
<path d="M187.76 11.3474C187.663 11.3474 187.566 11.3083 187.494 11.231C185.316 8.8738 182.226 7.52181 179.018 7.52181C175.809 7.52181 172.828 8.80792 170.625 11.1432C170.488 11.2889 170.259 11.2952 170.114 11.1582C169.968 11.0209 169.961 10.7919 170.099 10.6466C172.44 8.16468 175.607 6.79785 179.018 6.79785C182.428 6.79785 185.711 8.23454 188.026 10.7398C188.162 10.8868 188.152 11.1157 188.006 11.2514C187.936 11.3155 187.848 11.3474 187.76 11.3474Z" fill="white"/>
<path d="M179.058 21.1614C178.224 21.1614 177.546 20.4827 177.546 19.6485C177.546 18.8151 178.224 18.1367 179.058 18.1367C179.892 18.1367 180.57 18.8149 180.57 19.6485C180.57 20.4827 179.892 21.1614 179.058 21.1614ZM179.058 18.8607C178.624 18.8607 178.27 19.2141 178.27 19.6485C178.27 20.0836 178.624 20.4375 179.058 20.4375C179.493 20.4375 179.846 20.0836 179.846 19.6485C179.846 19.2141 179.493 18.8607 179.058 18.8607Z" fill="white"/>
</svg>