<svg width="419" height="162" viewBox="0 0 419 162" fill="none" xmlns="http://www.w3.org/2000/svg">
<path d="M163.87 63.4644H170.642C174.66 63.4644 177.934 60.1159 177.934 56.0232V47.3169C177.934 44.4892 176.149 42.108 173.47 41.0662L164.019 37.42C162.605 36.8991 161.861 35.4852 161.861 34.2202V28.2672C161.861 26.258 163.35 24.5465 165.284 24.5465H169.377C171.312 24.5465 172.726 26.258 172.726 28.2672V32.7319H177.786V27.2998C177.786 23.2071 174.586 19.8585 170.493 19.8585H164.094C160.075 19.8585 156.801 23.2071 156.801 27.2998V35.1132C156.801 37.9408 158.587 40.3965 161.266 41.4382L170.716 45.0101C172.056 45.6054 172.874 46.8704 172.874 48.2098V55.0558C172.874 57.0649 171.386 58.7764 169.451 58.7764H164.987C163.052 58.7764 161.712 57.0649 161.712 55.0558V50.3678H156.652V56.0232C156.652 60.1159 159.852 63.4644 163.87 63.4644ZM184.661 62.8691H189.721V20.6026H184.661V62.8691ZM215.521 20.6026V43.0009L201.606 20.6026H197.885V62.8691H202.871V30.574L215.521 50.8143V62.8691H220.507V20.6026H215.521ZM248.044 63.4644H254.741C258.982 63.4644 262.108 60.1159 262.108 56.0232V49.8469H257.047V54.9814C257.047 56.9905 255.708 58.7764 253.624 58.7764H249.234C247.151 58.7764 245.737 56.9905 245.737 54.9814V28.3416C245.737 26.3324 247.151 24.6209 249.234 24.6209H253.624C255.708 24.6209 257.047 26.3324 257.047 28.3416V33.6993H262.108V27.3742C262.108 23.2071 258.982 19.8585 254.741 19.8585H248.044C243.876 19.8585 240.677 23.2071 240.677 27.3742V56.0232C240.677 60.1159 243.876 63.4644 248.044 63.4644ZM275.151 63.4644H283.485C287.726 63.4644 290.926 60.1159 290.926 56.0976V27.3742C290.926 23.2815 287.726 19.9329 283.485 19.9329H275.151C270.984 19.9329 267.709 23.2815 267.709 27.3742V56.0976C267.709 60.1159 270.984 63.4644 275.151 63.4644ZM276.341 58.8508C274.258 58.8508 272.77 57.0649 272.77 55.1302V28.2672C272.77 26.3324 274.258 24.6209 276.341 24.6209H282.294C284.452 24.6209 285.866 26.3324 285.866 28.2672V55.1302C285.866 57.0649 284.452 58.8508 282.294 58.8508H276.341ZM304.703 63.4644H311.474C315.492 63.4644 318.767 60.1159 318.767 56.0232V47.3169C318.767 44.4892 316.981 42.108 314.302 41.0662L304.851 37.42C303.437 36.8991 302.693 35.4852 302.693 34.2202V28.2672C302.693 26.258 304.182 24.5465 306.116 24.5465H310.209C312.144 24.5465 313.558 26.258 313.558 28.2672V32.7319H318.618V27.2998C318.618 23.2071 315.418 19.8585 311.325 19.8585H304.926C300.907 19.8585 297.633 23.2071 297.633 27.2998V35.1132C297.633 37.9408 299.419 40.3965 302.098 41.4382L311.548 45.0101C312.888 45.6054 313.706 46.8704 313.706 48.2098V55.0558C313.706 57.0649 312.218 58.7764 310.283 58.7764H305.819C303.884 58.7764 302.545 57.0649 302.545 55.0558V50.3678H297.484V56.0232C297.484 60.1159 300.684 63.4644 304.703 63.4644ZM343.576 20.6026H321.624V25.2907H330.033V62.8691H335.167V25.2907H343.576V20.6026ZM354.941 63.4644H363.275C367.517 63.4644 370.717 60.1159 370.717 56.0976V27.3742C370.717 23.2815 367.517 19.9329 363.275 19.9329H354.941C350.774 19.9329 347.5 23.2815 347.5 27.3742V56.0976C347.5 60.1159 350.774 63.4644 354.941 63.4644ZM356.132 58.8508C354.048 58.8508 352.56 57.0649 352.56 55.1302V28.2672C352.56 26.3324 354.048 24.6209 356.132 24.6209H362.085C364.243 24.6209 365.657 26.3324 365.657 28.2672V55.1302C365.657 57.0649 364.243 58.8508 362.085 58.8508H356.132ZM378.763 51.5584H383.377L383.674 20.6026H378.465L378.763 51.5584ZM378.465 62.8691H383.749V55.7999H378.465V62.8691Z" fill="white"/>
<path d="M30.0331 22.5978V29.667H35.3164V22.5978H30.0331ZM30.3308 33.9085L30.0331 64.8643H35.242L34.9443 33.9085H30.3308Z" fill="white"/>
<path d="M61.3494 36.1878H54.0111V20.7285H42.3584V62.285H54.0111V46.1609H61.3494V62.285H72.6543V20.7285H61.3494V36.1878Z" fill="white"/>
<path d="M124.464 20.0342C112.817 20.0249 106.866 28.5864 105.396 32.0408C105.409 26.8535 100.291 20.7326 94.3007 20.7251H75.0049V62.2834L92.9954 62.2871C100.248 62.2871 105.409 56.0112 105.419 50.6315C107.074 54.0188 112.817 62.4963 124.464 62.4907C136.124 62.4869 145.613 52.8125 145.609 41.1681C145.607 29.2791 136.124 20.0435 124.464 20.0342ZM91.4881 52.6052H85.7655V45.5824H91.4881C93.1525 45.5824 94.4634 47.2237 94.4634 49.0947C94.4634 50.9639 93.1525 52.6052 91.4881 52.6052ZM91.5087 37.0022H85.7861V29.9775H91.5087C93.1731 29.9775 94.484 31.6188 94.484 33.488C94.484 35.359 93.1731 37.0022 91.5087 37.0022ZM99.1256 41.1775C100.437 41.0113 102.621 39.5156 103.391 38.5595C103.12 39.7434 103.1 43.1717 103.416 44.3574C102.537 43.0055 100.457 41.3436 99.1256 41.1775ZM124.471 51.7556C118.62 51.7556 113.877 47.0202 113.877 41.1775C113.877 35.3366 118.62 30.5993 124.471 30.5993C130.323 30.5993 135.066 35.3347 135.066 41.1775C135.066 47.0202 130.321 51.7556 124.471 51.7556Z" fill="white"/>
<path d="M124.471 32.8623C119.871 32.8623 116.144 36.5857 116.144 41.1773C116.144 45.7708 119.873 49.4942 124.471 49.4942C129.07 49.4942 132.799 45.7708 132.799 41.1773C132.799 36.5857 129.07 32.8623 124.471 32.8623Z" fill="white"/>
<path d="M7.8799 107.805H12.5164C15.4528 107.805 17.6165 105.486 17.6165 102.653V98.3772H14.1134V101.932C14.1134 103.323 13.1861 104.559 11.7436 104.559H8.70417C7.2617 104.559 6.28289 103.323 6.28289 101.932V83.4889C6.28289 82.0979 7.2617 80.9131 8.70417 80.9131H11.7436C13.1861 80.9131 14.1134 82.0979 14.1134 83.4889V87.1981H17.6165V82.8192C17.6165 79.9342 15.4528 77.616 12.5164 77.616H7.8799C4.99497 77.616 2.77976 79.9342 2.77976 82.8192V102.653C2.77976 105.486 4.99497 107.805 7.8799 107.805ZM25.4615 107.805H29.7889C32.3132 107.805 34.3224 105.744 34.3224 103.323V89.7224C34.3224 87.2496 32.3132 85.2404 29.7889 85.2404H25.4615C22.9887 85.2404 20.9796 87.2496 20.9796 89.7224V103.323C20.9796 105.744 22.9887 107.805 25.4615 107.805ZM26.1828 104.765C25.0494 104.765 24.2251 103.838 24.2251 102.705V90.3406C24.2251 89.2072 25.0494 88.2284 26.1828 88.2284H29.0677C30.2526 88.2284 31.0769 89.2072 31.0769 90.3406V102.705C31.0769 103.838 30.2526 104.765 29.0677 104.765H26.1828ZM47.8153 85.2404H45.5486C43.797 85.2404 42.6637 86.1162 42.1485 87.1466L41.8394 85.6526H38.7999V107.393H42.1485V90.9073C42.1485 89.5163 43.2819 88.3314 44.6213 88.3314H46.6304C47.8153 88.3314 48.6396 89.2072 48.6396 90.4436V107.393H52.0397V89.7739C52.0397 87.2496 50.2366 85.2404 47.8153 85.2404ZM61.5513 107.393H64.3847V104.302H62.3756C61.3453 104.302 60.4695 103.271 60.4695 102.241V88.4345H64.3332V85.6526H60.4695L60.521 79.6767H57.533L57.1209 85.6526H54.5966V88.4345H57.1209V102.911C57.1209 105.332 59.0785 107.393 61.5513 107.393ZM73.9217 85.292C72.2217 85.292 71.0883 86.2193 70.5732 87.4041L70.2641 85.5495H67.2246V107.393H70.5732V91.3194C70.5732 89.8769 71.552 88.5375 72.9944 88.5375H75.1066V85.292H73.9217ZM85.5134 85.2404H82.1133C79.589 85.2404 77.5283 87.3011 77.5283 89.7739V92.7619H80.7223V90.1345C80.7223 89.1042 81.6496 88.0739 82.7315 88.0739H84.8437C85.9255 88.0739 86.8013 89.1042 86.8013 90.1345V91.3709C86.8013 92.2467 86.4922 92.8649 85.7194 93.3286L79.692 96.8317C78.1465 97.6559 77.1677 99.0984 77.1677 100.695V103.477C77.1677 105.899 79.2283 107.805 81.6496 107.805H83.8133C85.3588 107.805 86.5437 106.98 87.2134 105.847L87.5225 107.393H90.0983V89.7739C90.0983 87.3011 88.0377 85.2404 85.5134 85.2404ZM86.8013 102.447C86.8013 103.735 85.6679 104.92 84.3285 104.92H82.4224C81.289 104.92 80.4132 103.941 80.4132 102.911V100.695C80.4132 99.8196 80.7223 99.2014 81.4436 98.7378L85.8225 95.9559C86.2861 95.6983 86.5952 95.4407 86.8013 95.0801V102.447ZM99.6354 107.393H102.469V104.302H100.46C99.4293 104.302 98.5535 103.271 98.5535 102.241V88.4345H102.417V85.6526H98.5535L98.605 79.6767H95.6171L95.2049 85.6526H92.6806V88.4345H95.2049V102.911C95.2049 105.332 97.1626 107.393 99.6354 107.393ZM112.882 85.2404H109.481C106.957 85.2404 104.896 87.3011 104.896 89.7739V92.7619H108.091V90.1345C108.091 89.1042 109.018 88.0739 110.1 88.0739H112.212C113.294 88.0739 114.169 89.1042 114.169 90.1345V91.3709C114.169 92.2467 113.86 92.8649 113.088 93.3286L107.06 96.8317C105.515 97.6559 104.536 99.0984 104.536 100.695V103.477C104.536 105.899 106.597 107.805 109.018 107.805H111.182C112.727 107.805 113.912 106.98 114.582 105.847L114.891 107.393H117.467V89.7739C117.467 87.3011 115.406 85.2404 112.882 85.2404ZM114.169 102.447C114.169 103.735 113.036 104.92 111.697 104.92H109.791C108.657 104.92 107.781 103.941 107.781 102.911V100.695C107.781 99.8196 108.091 99.2014 108.812 98.7378L113.191 95.9559C113.654 95.6983 113.963 95.4407 114.169 95.0801V102.447ZM131.228 85.2404H128.961C127.21 85.2404 126.076 86.1162 125.561 87.1466L125.252 85.6526H122.212V107.393H125.561V90.9073C125.561 89.5163 126.694 88.3314 128.034 88.3314H130.043C131.228 88.3314 132.052 89.2072 132.052 90.4436V107.393H135.452V89.7739C135.452 87.2496 133.649 85.2404 131.228 85.2404ZM149.755 74.525V86.7344C149.188 85.8586 148.209 85.2404 146.715 85.2404H144.191C141.615 85.2404 139.709 87.2496 139.709 89.7224V103.22C139.709 105.744 141.615 107.753 144.191 107.753H146.819C148.261 107.753 149.24 107.135 149.91 106.311L150.167 107.393H153.155V74.525H149.755ZM147.488 104.765H145.067C143.985 104.765 143.058 103.786 143.058 102.705V90.3406C143.058 89.2587 143.985 88.2284 145.067 88.2284H147.488C148.931 88.2284 149.755 89.4133 149.755 90.8558V102.189C149.755 103.529 148.828 104.765 147.488 104.765ZM162.051 107.805H166.378C168.903 107.805 170.912 105.744 170.912 103.323V89.7224C170.912 87.2496 168.903 85.2404 166.378 85.2404H162.051C159.578 85.2404 157.569 87.2496 157.569 89.7224V103.323C157.569 105.744 159.578 107.805 162.051 107.805ZM162.772 104.765C161.639 104.765 160.815 103.838 160.815 102.705V90.3406C160.815 89.2072 161.639 88.2284 162.772 88.2284H165.657C166.842 88.2284 167.666 89.2072 167.666 90.3406V102.705C167.666 103.838 166.842 104.765 165.657 104.765H162.772ZM184.404 107.393H187.907V78.1312H184.404V107.393ZM202.214 85.2404H199.947C198.196 85.2404 197.062 86.1162 196.547 87.1466L196.238 85.6526H193.199V107.393H196.547V90.9073C196.547 89.5163 197.681 88.3314 199.02 88.3314H201.029C202.214 88.3314 203.038 89.2072 203.038 90.4436V107.393H206.438V89.7739C206.438 87.2496 204.635 85.2404 202.214 85.2404ZM215.95 107.393H218.784V104.302H216.774C215.744 104.302 214.868 103.271 214.868 102.241V88.4345H218.732V85.6526H214.868L214.92 79.6767H211.932L211.52 85.6526H208.995V88.4345H211.52V102.911C211.52 105.332 213.477 107.393 215.95 107.393ZM225.642 107.805H229.66C232.184 107.805 234.09 105.744 234.09 103.323V99.9742H230.896V102.756C230.896 103.786 230.021 104.817 228.887 104.817H226.311C225.281 104.817 224.354 103.786 224.354 102.756V96.6771H234.09V89.7224C234.09 87.2496 232.03 85.2404 229.557 85.2404H225.642C223.169 85.2404 221.16 87.2496 221.16 89.7224V103.323C221.16 105.744 223.169 107.805 225.642 107.805ZM224.354 94.5134V90.2376C224.354 89.2072 225.281 88.1769 226.311 88.1769H228.887C230.021 88.1769 230.948 89.2072 230.948 90.2376V94.5134H224.354ZM244.923 85.292C243.223 85.292 242.089 86.2193 241.574 87.4041L241.265 85.5495H238.225V107.393H241.574V91.3194C241.574 89.8769 242.553 88.5375 243.995 88.5375H246.107V85.292H244.923ZM257.957 85.2404H255.69C253.938 85.2404 252.805 86.1162 252.29 87.1466L251.981 85.6526H248.941V107.393H252.29V90.9073C252.29 89.5163 253.423 88.3314 254.763 88.3314H256.772C257.957 88.3314 258.781 89.2072 258.781 90.4436V107.393H262.181V89.7739C262.181 87.2496 260.378 85.2404 257.957 85.2404ZM270.92 107.805H274.938C277.463 107.805 279.369 105.744 279.369 103.323V99.9742H276.175V102.756C276.175 103.786 275.299 104.817 274.165 104.817H271.59C270.559 104.817 269.632 103.786 269.632 102.756V96.6771H279.369V89.7224C279.369 87.2496 277.308 85.2404 274.835 85.2404H270.92C268.447 85.2404 266.438 87.2496 266.438 89.7224V103.323C266.438 105.744 268.447 107.805 270.92 107.805ZM269.632 94.5134V90.2376C269.632 89.2072 270.559 88.1769 271.59 88.1769H274.165C275.299 88.1769 276.226 89.2072 276.226 90.2376V94.5134H269.632ZM288.295 107.393H291.128V104.302H289.119C288.089 104.302 287.213 103.271 287.213 102.241V88.4345H291.077V85.6526H287.213L287.264 79.6767H284.276L283.864 85.6526H281.34V88.4345H283.864V102.911C283.864 105.332 285.822 107.393 288.295 107.393ZM318.644 78.1312L312.256 101.211L305.868 78.1312H302.931V107.393H306.177V88.2799L311.329 107.393H313.132L318.283 88.4345V107.393H321.529V78.1312H318.644ZM330.838 107.805H335.166C337.69 107.805 339.699 105.744 339.699 103.323V89.7224C339.699 87.2496 337.69 85.2404 335.166 85.2404H330.838C328.365 85.2404 326.356 87.2496 326.356 89.7224V103.323C326.356 105.744 328.365 107.805 330.838 107.805ZM331.559 104.765C330.426 104.765 329.602 103.838 329.602 102.705V90.3406C329.602 89.2072 330.426 88.2284 331.559 88.2284H334.444C335.629 88.2284 336.453 89.2072 336.453 90.3406V102.705C336.453 103.838 335.629 104.765 334.444 104.765H331.559ZM352.625 85.6526L349.071 102.035L345.516 85.6526H342.064L347.731 107.393H350.41L356.025 85.6526H352.625ZM358.918 82.1495H362.267V78.1312H358.918V82.1495ZM358.918 107.393H362.267V85.6526H358.918V107.393ZM370.875 107.805H374.017C376.541 107.805 378.602 105.693 378.602 103.22V99.9742C378.602 98.2741 377.572 96.6256 375.923 96.0589L370.668 94.2043C369.947 93.9468 369.535 93.174 369.535 92.4528V90.1345C369.535 89.1042 370.411 88.0739 371.493 88.0739H373.45C374.532 88.0739 375.46 89.1042 375.46 90.1345V92.5558H378.602V89.7739C378.602 87.3011 376.541 85.2404 374.017 85.2404H370.875C368.35 85.2404 366.29 87.3011 366.29 89.7739V92.7104C366.29 94.4619 367.268 96.0589 368.968 96.6256L374.223 98.4802C374.893 98.7378 375.356 99.5105 375.356 100.232V102.859C375.356 103.889 374.481 104.92 373.399 104.92H371.441C370.359 104.92 369.432 103.889 369.432 102.859V100.541H366.29V103.22C366.29 105.693 368.35 107.805 370.875 107.805ZM387.353 107.393H390.187V104.302H388.178C387.147 104.302 386.272 103.271 386.272 102.241V88.4345H390.135V85.6526H386.272L386.323 79.6767H383.335L382.923 85.6526H380.399V88.4345H382.923V102.911C382.923 105.332 384.881 107.393 387.353 107.393ZM400.6 85.2404H397.2C394.675 85.2404 392.615 87.3011 392.615 89.7739V92.7619H395.809V90.1345C395.809 89.1042 396.736 88.0739 397.818 88.0739H399.93C401.012 88.0739 401.888 89.1042 401.888 90.1345V91.3709C401.888 92.2467 401.578 92.8649 400.806 93.3286L394.778 96.8317C393.233 97.6559 392.254 99.0984 392.254 100.695V103.477C392.254 105.899 394.315 107.805 396.736 107.805H398.9C400.445 107.805 401.63 106.98 402.3 105.847L402.609 107.393H405.185V89.7739C405.185 87.3011 403.124 85.2404 400.6 85.2404ZM401.888 102.447C401.888 103.735 400.754 104.92 399.415 104.92H397.509C396.375 104.92 395.499 103.941 395.499 102.911V100.695C395.499 99.8196 395.809 99.2014 396.53 98.7378L400.909 95.9559C401.372 95.6983 401.681 95.4407 401.888 95.0801V102.447ZM416.628 85.292C414.928 85.292 413.794 86.2193 413.279 87.4041L412.97 85.5495H409.931V107.393H413.279V91.3194C413.279 89.8769 414.258 88.5375 415.7 88.5375H417.813V85.292H416.628Z" fill="white"/>
<path d="M60.8544 154.902H64.3575V125.641H60.8544V154.902ZM82.2188 125.641V141.147L72.5852 125.641H70.0094V154.902H73.461V132.544L82.2188 146.557V154.902H85.6705V125.641H82.2188ZM96.1315 155.314H100.768C103.704 155.314 105.868 152.996 105.868 150.163V145.887H102.365V149.442C102.365 150.833 101.438 152.069 99.9953 152.069H96.9558C95.5133 152.069 94.5345 150.833 94.5345 149.442V130.999C94.5345 129.608 95.5133 128.423 96.9558 128.423H99.9953C101.438 128.423 102.365 129.608 102.365 130.999V134.708H105.868V130.329C105.868 127.444 103.704 125.126 100.768 125.126H96.1315C93.2466 125.126 91.0314 127.444 91.0314 130.329V150.163C91.0314 152.996 93.2466 155.314 96.1315 155.314ZM113.559 151.657V125.641H110.056V154.902H122.419V151.657H113.559ZM130.294 155.314H135.394C138.279 155.314 140.494 153.099 140.494 150.163V125.641H136.94V149.493C136.94 150.936 135.961 152.069 134.57 152.069H131.118C129.727 152.069 128.697 150.936 128.697 149.493V125.641H125.194V150.163C125.194 153.099 127.46 155.314 130.294 155.314ZM159.834 125.641H156.28L151.643 139.447L147.058 125.641H143.297L149.788 143.054V154.902H153.292V143.105L159.834 125.641ZM166.333 151.708V141.663H173.082V138.623H166.333V128.835H175.297V125.641H162.83V154.902H175.554V151.708H166.333Z" fill="white"/>
<path d="M298.354 136.173C298.357 136.193 298.354 154.599 298.354 154.599C298.354 154.846 298.187 155.097 297.944 155.097H295.439C293.973 155.099 292.757 153.852 292.755 152.369V136.239C292.643 132.749 290.189 130.905 287.178 130.911C284.169 130.915 281.719 132.839 281.618 136.329V154.621C281.618 154.868 281.444 155.095 281.201 155.095H278.696C277.23 155.098 276.014 153.791 276.011 152.31V136.263C275.9 132.773 273.446 130.929 270.435 130.934C267.426 130.938 264.976 132.789 264.875 136.279V154.645C264.875 154.892 264.701 155.095 264.458 155.095H261.953C260.487 155.098 259.278 153.898 259.275 152.415C259.275 152.415 259.274 136.255 259.275 136.239C259.42 129.156 264.355 125.397 270.429 125.389C273.762 125.384 276.755 126.51 278.805 128.697C280.849 126.504 283.839 125.371 287.172 125.365C293.239 125.359 298.183 129.099 298.354 136.173Z" fill="white"/>
<path d="M356.067 154.743C356.167 154.89 356.058 155.086 355.876 155.086L351.402 155.098C350.352 155.101 349.33 154.973 348.423 153.702L343.844 146.957C343.486 146.428 342.966 145.803 342.228 145.803C341.489 145.803 340.969 146.428 340.611 146.957L336.033 153.702C335.126 154.973 334.103 155.101 333.054 155.098H328.579C328.398 155.098 328.289 154.89 328.389 154.743L337.218 141.729C337.474 141.35 337.599 140.909 337.594 140.469C337.599 140.029 337.474 139.588 337.218 139.208L328.389 126.195C328.289 126.047 328.398 125.848 328.579 125.848H333.054C334.103 125.845 335.126 125.965 336.033 127.236L340.611 133.981C340.969 134.51 341.491 135.135 342.228 135.135C342.965 135.135 343.486 134.51 343.844 133.981L348.423 127.236C349.33 125.965 350.352 125.845 351.402 125.848H355.876C356.058 125.848 356.167 126.047 356.067 126.195L347.238 139.208C346.981 139.588 346.856 140.029 346.861 140.469C346.856 140.909 346.981 141.35 347.238 141.729L356.067 154.743Z" fill="white"/>
<path d="M326.631 125.848H324.868C323.902 125.849 323.008 126.362 322.525 127.195L321.873 128.33C319.338 126.199 316.051 125.369 313.335 125.369C305.121 125.369 299.654 131.164 299.654 140.341C299.654 149.592 305.213 155.314 313.27 155.314C316.354 155.314 319.412 154.295 321.368 152.714C321.479 154.102 322.642 155.099 324.064 155.099H326.62C326.869 155.099 327.072 154.991 327.072 154.744L327.082 126.298C327.082 126.047 326.881 125.848 326.631 125.848ZM313.216 149.739C308.545 149.739 305.123 146.268 305.123 140.34C305.123 134.412 308.545 130.941 313.216 130.941C317.886 130.941 321.309 134.412 321.309 140.34C321.309 146.268 317.886 149.739 313.216 149.739Z" fill="white"/>
<path d="M197.683 136.728H192.518V125.847H184.315V155.098H192.518V143.749H197.683V155.098H205.641V125.847H197.683V136.728Z" fill="white"/>
<path d="M242.11 125.357C233.912 125.351 229.723 131.377 228.688 133.809C228.698 130.158 225.095 125.849 220.878 125.844H207.296V155.097L219.959 155.099C225.064 155.099 228.698 150.682 228.704 146.895C229.869 149.279 233.912 155.247 242.11 155.243C250.318 155.24 256.997 148.43 256.994 140.234C256.993 131.865 250.318 125.364 242.11 125.357ZM218.898 148.284H214.87V143.341H218.898C220.07 143.341 220.993 144.496 220.993 145.813C220.993 147.129 220.07 148.284 218.898 148.284ZM218.913 137.301H214.885V132.357H218.913C220.085 132.357 221.007 133.512 221.007 134.828C221.007 136.145 220.085 137.301 218.913 137.301ZM224.275 140.24C225.197 140.123 226.735 139.07 227.277 138.397C227.086 139.231 227.072 141.644 227.294 142.479C226.676 141.527 225.212 140.357 224.275 140.24ZM242.115 147.686C237.997 147.686 234.658 144.353 234.658 140.24C234.658 136.129 237.997 132.794 242.115 132.794C246.234 132.794 249.573 136.128 249.573 140.24C249.573 144.353 246.233 147.686 242.115 147.686Z" fill="white"/>
<path d="M242.116 134.388C238.877 134.388 236.254 137.009 236.254 140.241C236.254 143.474 238.879 146.095 242.116 146.095C245.353 146.095 247.978 143.474 247.978 140.241C247.978 137.009 245.353 134.388 242.116 134.388Z" fill="white"/>
<path d="M356.818 126.117H357.222V127.279H357.55V126.117H357.966V125.847H356.818V126.117Z" fill="white"/>
<path d="M359.271 125.847L358.883 126.484L358.493 125.847H358.167V127.279H358.493V126.447L358.865 127.055H358.902L359.271 126.447V127.279H359.599V125.847H359.271Z" fill="white"/>
</svg>
