<svg width="641" height="92" viewBox="0 0 641 92" fill="none" xmlns="http://www.w3.org/2000/svg">
<path d="M404 92L201 92L201 -2.39986e-06L404 1.52588e-05L404 92Z" fill="#E63780"/>
<path d="M202 92L7 92C3.13401 92 2.75352e-07 88.866 6.15015e-07 85L7.46804e-06 6.99998C7.80771e-06 3.13399 3.13402 -1.7299e-05 7.00001 -1.69627e-05L202 0L202 92Z" fill="#922859"/>
<path d="M404 0H634C637.866 0 641 3.13401 641 7V85C641 88.866 637.866 92 634 92H404V0Z" fill="#FBC7DE"/>
<path d="M437.975 47.5871C435.669 47.5871 433.902 46.9688 432.706 45.7506C431.559 44.5752 430.977 42.8673 430.977 40.6819V26.9632C430.977 24.7778 431.559 23.0821 432.706 21.9251C433.89 20.7252 435.663 20.1192 437.969 20.1192L467.523 20.1008C469.829 20.1008 471.602 20.7069 472.786 21.9067C473.933 23.0698 474.515 24.7655 474.515 26.9448V40.6635C474.515 42.8489 473.933 44.5569 472.786 45.7322C471.596 46.9504 469.823 47.5687 467.517 47.5687L437.975 47.5871ZM467.529 21.3252L437.975 21.3435C434.101 21.3435 432.216 23.18 432.216 26.9632V40.6819C432.216 42.5428 432.681 43.9569 433.599 44.8997C434.547 45.873 436.016 46.3628 437.975 46.3628L467.529 46.3444C469.482 46.3444 470.957 45.8547 471.906 44.8813C472.823 43.9447 473.288 42.5245 473.288 40.6635V26.9448C473.282 23.1617 471.404 21.3252 467.529 21.3252ZM458.789 51.1621H446.696C446.355 51.1621 446.076 50.8867 446.076 50.55C446.076 50.2133 446.355 49.9378 446.696 49.9378H458.789C459.13 49.9378 459.409 50.2133 459.409 50.55C459.409 50.8867 459.13 51.1621 458.789 51.1621Z" fill="#922859" stroke="#922859" stroke-width="0.258317"/>
<path d="M440.978 73.21C441.698 73.21 442.643 73.09 443.243 72.91L443.123 71.89C442.538 72.01 441.743 72.1 441.308 72.1C440.093 72.1 439.283 71.83 438.728 71.26C438.053 70.57 437.783 69.46 437.783 67.9C437.783 66.295 438.053 65.185 438.683 64.495C439.178 63.94 439.928 63.67 440.978 63.67C441.623 63.67 442.358 63.775 443.033 63.955L443.213 62.935C442.553 62.695 441.713 62.545 440.828 62.545C439.553 62.545 438.443 62.935 437.723 63.685C436.823 64.6 436.388 66.055 436.388 67.93C436.388 71.455 437.888 73.21 440.978 73.21ZM446.74 73.21C447.625 73.21 448.405 72.925 449.05 72.505L449.125 73H450.13V68.11C450.13 67.15 449.95 66.565 449.485 66.115C449.02 65.68 448.285 65.44 447.19 65.44C446.485 65.44 445.645 65.53 444.955 65.695L445 66.655C445.72 66.535 446.425 66.475 446.98 66.475C447.715 66.475 448.195 66.61 448.51 66.91C448.78 67.18 448.885 67.555 448.885 68.155V68.62H447.355C446.29 68.62 445.42 68.815 444.865 69.325C444.475 69.685 444.235 70.225 444.235 70.915C444.235 71.605 444.46 72.13 444.82 72.505C445.27 72.97 445.945 73.21 446.74 73.21ZM447.01 72.205C446.05 72.205 445.495 71.77 445.495 70.885C445.495 70.435 445.645 70.12 445.9 69.91C446.245 69.64 446.77 69.535 447.535 69.535H448.885V71.725C448.345 71.995 447.61 72.205 447.01 72.205ZM455.544 73.21C457.374 73.21 458.409 71.965 458.409 69.295C458.409 66.655 457.344 65.44 455.559 65.44C454.839 65.44 454.044 65.695 453.444 66.025V62.275H452.199V73H453.204L453.264 72.505C453.849 72.91 454.749 73.21 455.544 73.21ZM455.259 72.175C454.659 72.175 453.939 71.95 453.444 71.65V66.925C453.939 66.685 454.659 66.505 455.229 66.505C456.534 66.505 457.104 67.315 457.104 69.295C457.104 71.425 456.504 72.175 455.259 72.175ZM460.138 73H461.383V62.275H460.138V73ZM466.688 73.21C467.363 73.21 468.233 73.105 468.863 72.925L468.743 71.995C468.173 72.115 467.453 72.19 466.928 72.19C465.998 72.19 465.443 71.995 465.053 71.635C464.618 71.23 464.408 70.57 464.408 69.76H469.148C469.268 69.76 469.328 69.715 469.328 69.595V69.31C469.328 66.895 468.338 65.44 466.283 65.44C464.408 65.44 463.103 66.715 463.103 69.34C463.103 70.66 463.403 71.665 464.063 72.325C464.663 72.925 465.548 73.21 466.688 73.21ZM464.408 68.845C464.423 67.36 465.038 66.445 466.283 66.445C467.513 66.445 468.053 67.435 468.098 68.845H464.408Z" fill="#922859"/>
<path d="M505.573 73H506.908V62.74H505.573V73ZM509.244 73H510.489V67.015C511.089 66.73 511.884 66.535 512.544 66.535C513.084 66.535 513.474 66.655 513.729 66.91C513.984 67.165 514.089 67.525 514.089 68.155V73H515.334V68.005C515.334 67.09 515.124 66.49 514.719 66.085C514.299 65.65 513.669 65.44 512.874 65.44C512.019 65.44 511.104 65.725 510.339 66.19L510.279 65.65H509.244V73ZM519.954 73.21C520.494 73.21 521.079 73.12 521.469 73.015L521.409 72.1C521.049 72.175 520.554 72.22 520.299 72.22C519.774 72.22 519.519 72.115 519.354 71.935C519.144 71.71 519.099 71.35 519.099 70.645V66.565H521.034V65.65H519.099V63.7C518.709 63.7 518.214 63.805 517.854 63.925V65.665L516.519 65.86V66.565H517.854V70.81C517.854 71.725 517.959 72.22 518.319 72.64C518.649 73.015 519.234 73.21 519.954 73.21ZM526.077 73.21C526.752 73.21 527.622 73.105 528.252 72.925L528.132 71.995C527.562 72.115 526.842 72.19 526.317 72.19C525.387 72.19 524.832 71.995 524.442 71.635C524.007 71.23 523.797 70.57 523.797 69.76H528.537C528.657 69.76 528.717 69.715 528.717 69.595V69.31C528.717 66.895 527.727 65.44 525.672 65.44C523.797 65.44 522.492 66.715 522.492 69.34C522.492 70.66 522.792 71.665 523.452 72.325C524.052 72.925 524.937 73.21 526.077 73.21ZM523.797 68.845C523.812 67.36 524.427 66.445 525.672 66.445C526.902 66.445 527.442 67.435 527.487 68.845H523.797ZM530.47 73H531.715V67.06C532.24 66.73 532.855 66.565 533.5 66.565C533.71 66.565 533.98 66.58 534.145 66.595V65.485C533.98 65.455 533.8 65.44 533.665 65.44C533.02 65.44 532.285 65.695 531.58 66.28L531.505 65.65H530.47V73ZM535.494 73H536.739V67.015C537.339 66.73 538.134 66.535 538.794 66.535C539.334 66.535 539.724 66.655 539.979 66.91C540.234 67.165 540.339 67.525 540.339 68.155V73H541.584V68.005C541.584 67.09 541.374 66.49 540.969 66.085C540.549 65.65 539.919 65.44 539.124 65.44C538.269 65.44 537.354 65.725 536.589 66.19L536.529 65.65H535.494V73ZM546.849 73.21C547.524 73.21 548.394 73.105 549.024 72.925L548.904 71.995C548.334 72.115 547.614 72.19 547.089 72.19C546.159 72.19 545.604 71.995 545.214 71.635C544.779 71.23 544.569 70.57 544.569 69.76H549.309C549.429 69.76 549.489 69.715 549.489 69.595V69.31C549.489 66.895 548.499 65.44 546.444 65.44C544.569 65.44 543.264 66.715 543.264 69.34C543.264 70.66 543.564 71.665 544.224 72.325C544.824 72.925 545.709 73.21 546.849 73.21ZM544.569 68.845C544.584 67.36 545.199 66.445 546.444 66.445C547.674 66.445 548.214 67.435 548.259 68.845H544.569ZM553.791 73.21C554.331 73.21 554.916 73.12 555.306 73.015L555.246 72.1C554.886 72.175 554.391 72.22 554.136 72.22C553.611 72.22 553.356 72.115 553.191 71.935C552.981 71.71 552.936 71.35 552.936 70.645V66.565H554.871V65.65H552.936V63.7C552.546 63.7 552.051 63.805 551.691 63.925V65.665L550.356 65.86V66.565H551.691V70.81C551.691 71.725 551.796 72.22 552.156 72.64C552.486 73.015 553.071 73.21 553.791 73.21Z" fill="#922859"/>
<path d="M530.849 44.2619C528.8 44.2619 527.133 45.9204 527.133 47.9598C527.133 49.9992 528.8 51.6577 530.849 51.6577C532.899 51.6577 534.566 49.9992 534.566 47.9598C534.566 45.9204 532.899 44.2619 530.849 44.2619ZM530.849 50.1057C529.66 50.1057 528.693 49.143 528.693 47.9598C528.693 46.7767 529.66 45.8139 530.849 45.8139C532.038 45.8139 533.006 46.7767 533.006 47.9598C533.006 49.143 532.038 50.1057 530.849 50.1057Z" fill="#922859" stroke="#922859" stroke-width="0.408386"/>
<path d="M530.207 35.8235C526.851 35.8235 523.718 37.2551 521.612 39.7537C521.382 40.0253 521.427 40.4255 521.713 40.6445C521.999 40.8623 522.418 40.8219 522.648 40.5478C524.501 38.3515 527.256 37.0912 530.207 37.0912C533.159 37.0912 535.913 38.3515 537.765 40.5515C537.896 40.7069 538.089 40.7889 538.283 40.7889C538.429 40.7889 538.577 40.7436 538.699 40.6494C538.985 40.4303 539.032 40.0315 538.802 39.7586C536.698 37.2576 533.564 35.8235 530.207 35.8235Z" fill="#922859" stroke="#922859" stroke-width="0.408386"/>
<path d="M530.209 27.5486C524.249 27.5486 518.69 30.1663 514.956 34.7298C514.719 35.0196 514.765 35.4433 515.062 35.676C515.188 35.7748 515.339 35.8242 515.492 35.8242C515.693 35.8242 515.891 35.7384 516.026 35.572C519.497 31.3283 524.667 28.8939 530.209 28.8939C535.745 28.8939 540.913 31.3257 544.388 35.5655C544.626 35.8554 545.057 35.9008 545.353 35.6682C545.647 35.4355 545.695 35.0118 545.457 34.722C541.721 30.1637 536.164 27.5486 530.209 27.5486Z" fill="#922859" stroke="#922859" stroke-width="0.408386"/>
<path d="M551.286 30.5437C546.126 23.908 538.442 20.1008 530.206 20.1008C521.969 20.1008 514.286 23.9066 509.127 30.5424C508.891 30.845 508.937 31.2875 509.232 31.5305C509.523 31.7721 509.954 31.7259 510.188 31.4219C515.087 25.12 522.383 21.5056 530.206 21.5056C538.028 21.5056 545.324 25.12 550.224 31.4232C550.358 31.5956 550.556 31.6866 550.754 31.6866C550.904 31.6866 551.056 31.6363 551.181 31.5318C551.474 31.2889 551.521 30.8464 551.286 30.5437Z" fill="#922859" stroke="#922859" stroke-width="0.408386"/>
<path d="M589.699 73H591.034V68.35H594.514V67.27H591.034V63.79H595.354L595.474 62.74H589.699V73ZM597.355 64.255H597.43C597.88 64.255 598.165 64.03 598.165 63.46V63.43C598.165 62.86 597.88 62.635 597.43 62.635H597.355C596.905 62.635 596.62 62.86 596.62 63.43V63.46C596.62 64.03 596.905 64.255 597.355 64.255ZM596.77 73H598.015V65.65H596.77V73ZM600.753 64.255H600.828C601.278 64.255 601.563 64.03 601.563 63.46V63.43C601.563 62.86 601.278 62.635 600.828 62.635H600.753C600.303 62.635 600.018 62.86 600.018 63.43V63.46C600.018 64.03 600.303 64.255 600.753 64.255ZM598.173 76.54C599.313 76.54 600.138 76.3 600.648 75.775C601.203 75.205 601.413 74.47 601.413 73.045V65.65H600.168V73.24C600.168 74.125 600.063 74.65 599.748 75.01C599.418 75.385 598.878 75.52 598.038 75.535L598.173 76.54ZM606.492 73.21C608.772 73.21 609.837 71.77 609.837 69.325C609.837 66.88 608.772 65.44 606.492 65.44C604.212 65.44 603.147 66.88 603.147 69.325C603.147 71.77 604.212 73.21 606.492 73.21ZM606.492 72.19C604.992 72.19 604.452 71.2 604.452 69.325C604.452 67.45 604.992 66.46 606.492 66.46C607.992 66.46 608.532 67.45 608.532 69.325C608.532 71.2 607.992 72.19 606.492 72.19Z" fill="#922859"/>
<path d="M613.11 42.2167C612.609 41.7181 612.092 41.3129 611.575 41.0143C608.937 39.3826 606.698 40.7156 605.283 42.1234C604.999 42.406 604.841 42.5846 604.563 42.9339C604 43.4032 602.83 42.7846 601.941 42.1767C600.481 41.1796 598.769 39.5292 597.612 38.3774L597.475 38.2414C596.316 37.087 594.66 35.386 593.659 33.9329C593.048 33.0477 592.426 31.8826 592.898 31.3227C593.251 31.0454 593.431 30.8854 593.712 30.6055C595.126 29.1977 596.466 26.9688 594.826 24.3426C594.526 23.8281 594.119 23.3135 593.618 22.8149C591.133 20.3407 588.553 20.338 585.955 22.8096C585.647 23.1029 585.288 23.5321 584.886 24.0867C584.876 24.1027 584.865 24.116 584.86 24.1213C584.854 24.1293 584.846 24.1373 584.841 24.1453C583.641 25.8757 583.692 28.6085 584.985 31.8346C586.376 35.306 589.094 39.1133 592.842 42.8459L592.844 42.8486L592.973 42.9766L592.976 42.9792C596.725 46.7119 600.55 49.4154 604.038 50.7991C605.723 51.4684 607.271 51.8016 608.615 51.8016C609.858 51.8016 610.927 51.5137 611.763 50.9404C611.771 50.9351 611.779 50.9298 611.787 50.9218C611.795 50.9165 611.806 50.9085 611.822 50.8951C612.379 50.4952 612.813 50.1353 613.105 49.8313C615.598 47.2558 615.596 44.6909 613.11 42.2167ZM612.478 49.2368C612.221 49.5034 611.83 49.826 611.315 50.1966C611.291 50.2126 611.275 50.2259 611.259 50.2366C610.549 50.7218 609.612 50.9564 608.476 50.9325C607.263 50.9085 605.881 50.5938 604.373 49.994C600.995 48.6529 597.275 46.016 593.61 42.3687L593.546 42.302C593.543 42.2994 593.541 42.2967 593.538 42.294L593.471 42.23C589.807 38.5827 587.158 34.8767 585.81 31.5173C585.208 30.0136 584.892 28.6405 584.868 27.4327C584.846 26.3023 585.082 25.3691 585.567 24.6626C585.577 24.6492 585.591 24.6306 585.607 24.6066C585.977 24.0947 586.301 23.7054 586.571 23.4495C587.731 22.3457 588.818 21.8178 589.89 21.8391C590.918 21.8578 591.936 22.383 593 23.4415C593.447 23.8867 593.809 24.3426 594.071 24.7932C594.074 24.7985 594.076 24.8012 594.079 24.8065C594.604 25.6464 594.8 26.4969 594.658 27.3288C594.508 28.2086 593.98 29.1044 593.093 29.9896C592.847 30.2349 592.694 30.3735 592.325 30.6641C592.306 30.6775 592.29 30.6935 592.274 30.7121C590.75 32.3572 593.576 35.6046 596.857 38.8706L596.993 39.0066C600.272 42.2727 603.537 45.0828 605.19 43.5685C605.206 43.5525 605.222 43.5365 605.238 43.5178C605.53 43.1499 605.669 42.9979 605.915 42.7526C606.805 41.8674 607.702 41.3449 608.589 41.1956C609.427 41.0543 610.279 41.2489 611.123 41.7715C611.128 41.7741 611.131 41.7768 611.136 41.7795C611.589 42.0407 612.044 42.398 612.494 42.8459C613.557 43.9044 614.085 44.9175 614.104 45.9414C614.114 46.9998 613.587 48.0796 612.478 49.2368Z" fill="#922859" stroke="#922859" stroke-width="0.57174"/>
<path d="M491.531 37.3911V41.6647H487.328V42.6221C487.328 42.8712 487.398 43.058 487.538 43.1826C487.678 43.3227 487.873 43.3928 488.122 43.3928H491.531V47.6663H493.423V43.3928H497.603V41.6647H493.423V37.3911H491.531Z" fill="#922859"/>
<path d="M568.313 37.3911V41.6647H564.109V42.6221C564.109 42.8712 564.179 43.058 564.319 43.1826C564.459 43.3227 564.654 43.3928 564.903 43.3928H568.313V47.6663H570.204V43.3928H574.384V41.6647H570.204V37.3911H568.313Z" fill="#922859"/>
<path d="M47.7058 63.644C52.2138 63.644 55.2038 62.724 57.4118 60.654C59.0678 59.09 60.0338 56.836 60.0338 54.03C60.0338 41.748 43.9798 45.98 43.9798 39.816C43.9798 37.838 45.2218 36.458 49.0858 36.458C51.2938 36.458 54.0538 36.872 56.6298 37.562L57.7338 32.226C55.2958 31.398 51.9838 30.938 48.9478 30.938C42.2318 30.938 37.2178 33.744 37.2178 40.138C37.2178 52.512 53.2718 48.234 53.2718 54.122C53.2718 57.02 51.2938 58.124 47.0618 58.124C44.7618 58.124 41.1278 57.526 38.3678 56.56L37.2638 62.034C40.4378 63.138 43.7038 63.644 47.7058 63.644ZM63.3386 63.644H69.1806L83.0266 30.938H77.1846L63.3386 63.644ZM89.9481 63H106.37V58.308H101.862V34.204C101.862 31.858 100.758 31.076 97.4921 31.076C95.2381 31.076 92.0641 31.352 90.1781 31.628V36.09H95.2841V58.308H89.9481V63ZM126.132 63.644C133.446 63.644 137.264 59.642 137.264 52.65C137.264 46.348 133.998 42.852 128.386 42.852C126.224 42.852 123.648 43.358 121.578 44.462C121.67 41.288 122.176 39.126 123.556 37.746C124.798 36.504 126.684 36.09 129.72 36.09C131.376 36.09 133.078 36.274 134.688 36.55V31.536C132.572 31.168 130.456 30.938 128.202 30.938C124.016 30.938 121.072 31.858 118.956 33.974C116.196 36.734 114.678 41.426 114.678 48.74C114.678 58.262 117.714 63.644 126.132 63.644ZM126.27 58.63C122.682 58.63 121.486 56.054 121.486 50.028V48.28C122.774 48.004 124.752 47.82 126.086 47.82C129.444 47.82 130.732 48.878 130.732 52.88C130.732 56.698 129.214 58.63 126.27 58.63ZM147.458 63H154.496L163.328 37.93C163.88 36.412 164.064 34.894 164.064 33.422C164.064 32.732 163.972 31.904 163.742 31.536H143.226V36.228H157.9L147.458 63Z" fill="#FBC7DE"/>
<path d="M62.089 19.3615H63.335V15.7914H65.113C66.261 15.7914 67.045 15.5115 67.563 15.0074C68.095 14.4755 68.347 13.7054 68.347 12.6834C68.347 11.8014 68.123 11.0735 67.647 10.5974C67.101 10.0375 66.205 9.78545 64.833 9.78545H62.089V19.3615ZM63.335 14.7834V10.7654H64.735C65.659 10.7654 66.247 10.9194 66.611 11.2834C66.919 11.5915 67.059 12.0534 67.059 12.7114C67.059 13.4674 66.877 13.9855 66.541 14.3074C66.163 14.6574 65.561 14.7834 64.693 14.7834H63.335ZM69.6999 19.3615H70.8619V13.8174C71.3519 13.5095 71.9259 13.3554 72.5279 13.3554C72.7239 13.3554 72.9759 13.3694 73.1299 13.3834V12.3474C72.9759 12.3194 72.8079 12.3055 72.6819 12.3055C72.0799 12.3055 71.3939 12.5434 70.7359 13.0895L70.6659 12.5015H69.6999V19.3615ZM77.0569 19.5575C77.6869 19.5575 78.4989 19.4595 79.0869 19.2915L78.9749 18.4235C78.4429 18.5355 77.7709 18.6055 77.2809 18.6055C76.4129 18.6055 75.8949 18.4235 75.5309 18.0875C75.1249 17.7095 74.9289 17.0935 74.9289 16.3375H79.3529C79.4649 16.3375 79.5209 16.2955 79.5209 16.1835V15.9175C79.5209 13.6635 78.5969 12.3055 76.6789 12.3055C74.9289 12.3055 73.7109 13.4954 73.7109 15.9454C73.7109 17.1775 73.9909 18.1155 74.6069 18.7315C75.1669 19.2915 75.9929 19.5575 77.0569 19.5575ZM74.9289 15.4835C74.9429 14.0974 75.5169 13.2435 76.6789 13.2435C77.8269 13.2435 78.3309 14.1674 78.3729 15.4835H74.9289ZM84.195 19.5575C84.699 19.5575 85.469 19.4595 85.917 19.3335L85.833 18.4655C85.483 18.5355 84.867 18.6055 84.405 18.6055C83.565 18.6055 82.977 18.4095 82.585 17.9615C82.207 17.5275 82.011 16.8695 82.011 16.0015C82.011 14.1815 82.739 13.2435 84.349 13.2435C84.783 13.2435 85.343 13.3274 85.777 13.4115L85.847 12.5154C85.371 12.3894 84.741 12.3055 84.209 12.3055C83.159 12.3055 82.277 12.6134 81.689 13.2435C81.101 13.8734 80.793 14.8114 80.793 16.0155C80.793 17.2195 81.129 18.1155 81.703 18.7035C82.263 19.2775 83.075 19.5575 84.195 19.5575ZM88.0337 11.1995H88.1037C88.5237 11.1995 88.7897 10.9894 88.7897 10.4574V10.4295C88.7897 9.89745 88.5237 9.68745 88.1037 9.68745H88.0337C87.6137 9.68745 87.3477 9.89745 87.3477 10.4295V10.4574C87.3477 10.9894 87.6137 11.1995 88.0337 11.1995ZM87.4877 19.3615H88.6497V12.5015H87.4877V19.3615ZM93.3896 19.5575C95.5176 19.5575 96.5116 18.2135 96.5116 15.9315C96.5116 13.6494 95.5176 12.3055 93.3896 12.3055C91.2616 12.3055 90.2676 13.6494 90.2676 15.9315C90.2676 18.2135 91.2616 19.5575 93.3896 19.5575ZM93.3896 18.6055C91.9896 18.6055 91.4856 17.6815 91.4856 15.9315C91.4856 14.1815 91.9896 13.2574 93.3896 13.2574C94.7896 13.2574 95.2936 14.1815 95.2936 15.9315C95.2936 17.6815 94.7896 18.6055 93.3896 18.6055ZM100.968 19.3615H102.13V13.8174C102.62 13.5095 103.194 13.3554 103.796 13.3554C103.992 13.3554 104.244 13.3694 104.398 13.3834V12.3474C104.244 12.3194 104.076 12.3055 103.95 12.3055C103.348 12.3055 102.662 12.5434 102.004 13.0895L101.934 12.5015H100.968V19.3615ZM108.325 19.5575C108.955 19.5575 109.767 19.4595 110.355 19.2915L110.243 18.4235C109.711 18.5355 109.039 18.6055 108.549 18.6055C107.681 18.6055 107.163 18.4235 106.799 18.0875C106.393 17.7095 106.197 17.0935 106.197 16.3375H110.621C110.733 16.3375 110.789 16.2955 110.789 16.1835V15.9175C110.789 13.6635 109.865 12.3055 107.947 12.3055C106.197 12.3055 104.979 13.4954 104.979 15.9454C104.979 17.1775 105.259 18.1155 105.875 18.7315C106.435 19.2915 107.261 19.5575 108.325 19.5575ZM106.197 15.4835C106.211 14.0974 106.785 13.2435 107.947 13.2435C109.095 13.2435 109.599 14.1674 109.641 15.4835H106.197ZM115.071 22.7075C117.395 22.7075 118.319 21.9375 118.319 20.5515C118.319 19.9915 118.165 19.5155 117.815 19.1655C117.367 18.7175 116.695 18.5215 115.491 18.5215H114.175C113.797 18.5215 113.615 18.3955 113.615 18.1015C113.615 17.8635 113.783 17.4995 113.993 17.2615C114.315 17.3595 114.665 17.4015 115.071 17.4015C116.947 17.4015 117.829 16.3375 117.829 14.8534C117.829 13.8734 117.437 13.0614 116.611 12.6414L117.563 11.0174C117.339 10.8354 116.919 10.6394 116.597 10.5694L115.771 12.3615C115.561 12.3334 115.323 12.3055 115.071 12.3055C113.195 12.3055 112.313 13.3694 112.313 14.8534C112.313 15.7494 112.635 16.4774 113.279 16.9255C112.789 17.4015 112.467 17.9615 112.467 18.5075C112.467 18.8155 112.565 19.0675 112.789 19.2495C112.313 19.5855 112.005 20.1735 112.005 20.7755C112.005 21.9935 112.957 22.7075 115.071 22.7075ZM115.071 16.4774C113.937 16.4774 113.419 15.9035 113.419 14.8534C113.419 13.8034 113.937 13.2294 115.071 13.2294C116.205 13.2294 116.723 13.8034 116.723 14.8534C116.723 15.9035 116.205 16.4774 115.071 16.4774ZM115.183 21.7275C113.657 21.7275 113.097 21.3075 113.097 20.5655C113.097 20.2015 113.251 19.8235 113.503 19.5155C113.643 19.5435 113.811 19.5575 114.007 19.5575H115.491C116.177 19.5575 116.625 19.6415 116.891 19.8375C117.115 20.0055 117.227 20.2575 117.227 20.5935C117.227 21.3075 116.639 21.7275 115.183 21.7275ZM121.843 19.5575C122.641 19.5575 123.467 19.2915 124.181 18.8575L124.237 19.3615H125.203V12.5015H124.041V18.0875C123.481 18.3535 122.767 18.5355 122.151 18.5355C121.647 18.5355 121.283 18.4235 121.045 18.1855C120.807 17.9475 120.709 17.6115 120.709 17.0235V12.5015H119.547V17.1635C119.547 18.0175 119.743 18.5775 120.121 18.9555C120.513 19.3615 121.101 19.5575 121.843 19.5575ZM127.177 19.3615H128.339V9.35145H127.177V19.3615ZM132.281 19.5575C133.107 19.5575 133.835 19.2915 134.437 18.8995L134.507 19.3615H135.445V14.7975C135.445 13.9014 135.277 13.3554 134.843 12.9354C134.409 12.5294 133.723 12.3055 132.701 12.3055C132.043 12.3055 131.259 12.3894 130.615 12.5434L130.657 13.4395C131.329 13.3274 131.987 13.2714 132.505 13.2714C133.191 13.2714 133.639 13.3974 133.933 13.6774C134.185 13.9295 134.283 14.2795 134.283 14.8395V15.2734H132.855C131.861 15.2734 131.049 15.4554 130.531 15.9315C130.167 16.2674 129.943 16.7715 129.943 17.4155C129.943 18.0595 130.153 18.5495 130.489 18.8995C130.909 19.3335 131.539 19.5575 132.281 19.5575ZM132.533 18.6195C131.637 18.6195 131.119 18.2135 131.119 17.3875C131.119 16.9675 131.259 16.6735 131.497 16.4774C131.819 16.2255 132.309 16.1275 133.023 16.1275H134.283V18.1715C133.779 18.4235 133.093 18.6195 132.533 18.6195ZM137.376 19.3615H138.538V13.8174C139.028 13.5095 139.602 13.3554 140.204 13.3554C140.4 13.3554 140.652 13.3694 140.806 13.3834V12.3474C140.652 12.3194 140.484 12.3055 140.358 12.3055C139.756 12.3055 139.07 12.5434 138.412 13.0895L138.342 12.5015H137.376V19.3615Z" fill="#FBC7DE"/>
<path d="M43.3692 82.5295H45.5532V79.2255H47.0932C48.3532 79.2255 49.2212 78.9315 49.7812 78.3015C50.2572 77.7695 50.4952 76.9995 50.4952 75.9775C50.4952 74.9555 50.2432 74.2135 49.7252 73.7375C49.1092 73.1635 48.1572 72.9535 46.6592 72.9535H43.3692V82.5295ZM45.5532 77.5875V74.5355H46.5752C47.2472 74.5355 47.6532 74.6335 47.9192 74.8715C48.1712 75.1095 48.2832 75.4875 48.2832 76.0055C48.2832 76.5655 48.1572 76.9715 47.9052 77.2235C47.6252 77.4895 47.3312 77.5875 46.6312 77.5875H45.5532ZM51.8832 82.5295H53.8852V72.5195H51.8832V82.5295ZM57.5889 82.7255C58.3169 82.7255 59.0589 82.4875 59.6469 82.1095L59.8149 82.5295H61.3969V78.0775C61.3969 77.2515 61.2149 76.6635 60.8649 76.2575C60.3889 75.6975 59.4509 75.4735 58.4009 75.4735C57.5749 75.4735 56.6649 75.5855 55.9649 75.7255L56.0629 77.1955C56.5389 77.0975 57.3369 77.0135 57.9809 77.0135C58.5269 77.0135 58.9049 77.0835 59.1429 77.2935C59.3109 77.4475 59.3949 77.6855 59.3949 78.0635V78.2875H58.3029C57.0289 78.2875 56.2729 78.4555 55.7829 78.9175C55.3909 79.2955 55.1809 79.8555 55.1809 80.4715C55.1809 81.8015 56.0209 82.7255 57.5889 82.7255ZM58.1629 81.1995C57.4349 81.1995 57.1829 80.8915 57.1829 80.3875C57.1829 80.1355 57.2529 79.9395 57.3789 79.8135C57.5609 79.6315 57.8549 79.5755 58.3309 79.5755H59.3949V80.9895C59.0729 81.0875 58.5409 81.1995 58.1629 81.1995ZM63.0384 82.5295H65.0404V77.3635C65.3624 77.2375 65.9644 77.1395 66.3424 77.1395C66.7484 77.1395 67.0284 77.1955 67.2104 77.3635C67.3504 77.5035 67.4204 77.6995 67.4204 78.0495V82.5295H69.4224V77.8115C69.4224 77.0135 69.2544 76.4115 68.8344 76.0055C68.4564 75.6275 67.7844 75.4735 67.1824 75.4735C66.4544 75.4735 65.5724 75.6695 64.8164 76.1595L64.7744 75.6695H63.0384V82.5295ZM74.4798 82.7255C75.3338 82.7255 76.1318 82.6135 76.7898 82.4875L76.6358 81.0315C76.1178 81.1295 75.4178 81.1995 74.9278 81.1995C73.5838 81.1995 72.8698 80.8775 72.8138 79.7155H77.0278C77.1398 79.7155 77.1958 79.6735 77.1958 79.5615V78.9315C77.1958 76.5515 76.1038 75.4735 74.0458 75.4735C71.9458 75.4735 70.7138 76.7055 70.7138 79.1135C70.7138 80.2055 70.9518 81.1855 71.6378 81.8435C72.2258 82.4035 73.1918 82.7255 74.4798 82.7255ZM72.8138 78.4135C72.8558 77.5315 73.2198 76.9855 74.0318 76.9855C74.8298 76.9855 75.2358 77.5455 75.2358 78.4135H72.8138ZM80.6863 82.7255C82.7443 82.7255 83.7803 81.8995 83.7803 80.4715C83.7803 77.6295 80.0283 78.7355 80.0283 77.5735C80.0283 77.1815 80.4203 77.0135 81.1343 77.0135C81.6943 77.0135 82.5343 77.1255 83.2483 77.3215L83.4023 75.8515C82.6603 75.5995 81.8063 75.4735 81.1203 75.4735C79.0623 75.4735 78.1383 76.4115 78.1383 77.6855C78.1383 80.5275 81.8763 79.3375 81.8763 80.5555C81.8763 81.0455 81.4003 81.1855 80.6443 81.1855C79.9023 81.1855 78.9503 81.0315 78.4323 80.8635L78.2783 82.3475C78.8243 82.5435 79.8743 82.7255 80.6863 82.7255ZM90.4894 82.7255C91.3294 82.7255 92.0714 82.4315 92.6594 82.0395L92.7014 82.5295H94.4374V72.5195H92.4354V75.9775C91.9034 75.6555 91.2174 75.4735 90.6154 75.4735C88.9774 75.4735 87.8994 76.8315 87.8994 79.1135C87.8994 80.4575 88.2074 81.5075 88.8514 82.1375C89.2434 82.5155 89.8174 82.7255 90.4894 82.7255ZM91.2454 81.1575C90.3354 81.1575 89.9994 80.6955 89.9994 79.1695C89.9994 77.5175 90.5454 77.0555 91.4834 77.0555C91.7354 77.0555 92.1274 77.1115 92.4354 77.2095V80.9195C92.0854 81.0595 91.5674 81.1575 91.2454 81.1575ZM99.5267 82.7255C100.381 82.7255 101.179 82.6135 101.837 82.4875L101.683 81.0315C101.165 81.1295 100.465 81.1995 99.9747 81.1995C98.6307 81.1995 97.9167 80.8775 97.8607 79.7155H102.075C102.187 79.7155 102.243 79.6735 102.243 79.5615V78.9315C102.243 76.5515 101.151 75.4735 99.0927 75.4735C96.9927 75.4735 95.7607 76.7055 95.7607 79.1135C95.7607 80.2055 95.9987 81.1855 96.6847 81.8435C97.2727 82.4035 98.2387 82.7255 99.5267 82.7255ZM97.8607 78.4135C97.9027 77.5315 98.2667 76.9855 99.0787 76.9855C99.8767 76.9855 100.283 77.5455 100.283 78.4135H97.8607ZM108.262 82.5295H110.404L113.092 74.8995C113.26 74.4375 113.316 73.9755 113.316 73.5275C113.316 73.3175 113.288 73.0655 113.218 72.9535H106.974V74.3815H111.44L108.262 82.5295ZM118.406 82.7255C121.066 82.7255 122.074 81.0315 122.074 77.7555C122.074 74.4795 121.066 72.7715 118.406 72.7715C115.746 72.7715 114.738 74.4795 114.738 77.7555C114.738 81.0315 115.746 82.7255 118.406 82.7255ZM118.406 81.1155C117.272 81.1155 116.824 80.4015 116.824 77.7555C116.824 75.1095 117.272 74.2415 118.406 74.2415C119.54 74.2415 119.988 75.1095 119.988 77.7555C119.988 80.4015 119.54 81.1155 118.406 81.1155ZM126.781 82.5295H128.615V76.9575L130.659 80.3455H132.339L134.327 77.0135V82.5295H136.329V72.9535H134.649L131.527 78.3015L128.503 72.9535H126.781V82.5295ZM142 82.7255C142.854 82.7255 143.47 82.4735 143.946 81.9275C144.45 81.3535 144.716 80.3035 144.716 79.0715C144.716 76.4115 143.652 75.4735 142.098 75.4735C141.44 75.4735 140.684 75.6555 140.208 75.9355V72.5195H138.206V82.5295H139.858L139.956 82.0955C140.53 82.4735 141.286 82.7255 142 82.7255ZM141.398 81.1575C141.006 81.1575 140.53 81.0035 140.208 80.8215V77.2655C140.53 77.1395 140.964 77.0835 141.398 77.0835C142.238 77.0835 142.616 77.4615 142.616 79.0995C142.616 80.6395 142.308 81.1575 141.398 81.1575ZM146.04 85.6795H148.042V82.2215C148.56 82.5435 149.26 82.7255 149.876 82.7255C151.43 82.7255 152.55 81.7595 152.55 79.0575C152.55 77.7835 152.27 76.6915 151.626 76.0615C151.234 75.6835 150.674 75.4735 149.988 75.4735C149.148 75.4735 148.42 75.7815 147.832 76.1735L147.776 75.6695H146.04V85.6795ZM149.288 81.1435C148.854 81.1435 148.364 81.0875 148.042 80.9475V77.2795C148.378 77.1815 148.91 77.0975 149.232 77.0975C150.142 77.0975 150.45 77.5595 150.45 79.0295C150.45 80.6815 150.128 81.1435 149.288 81.1435ZM156.1 82.7255C158.158 82.7255 159.194 81.8995 159.194 80.4715C159.194 77.6295 155.442 78.7355 155.442 77.5735C155.442 77.1815 155.834 77.0135 156.548 77.0135C157.108 77.0135 157.948 77.1255 158.662 77.3215L158.816 75.8515C158.074 75.5995 157.22 75.4735 156.534 75.4735C154.476 75.4735 153.552 76.4115 153.552 77.6855C153.552 80.5275 157.29 79.3375 157.29 80.5555C157.29 81.0455 156.814 81.1855 156.058 81.1855C155.316 81.1855 154.364 81.0315 153.846 80.8635L153.692 82.3475C154.238 82.5435 155.288 82.7255 156.1 82.7255Z" fill="#FBC7DE"/>
<path d="M225.472 58.0084H237.936V55.3844H233.672V31.6044C233.672 30.1284 233.098 29.6774 231.335 29.6774C229.859 29.6774 227.235 29.8824 225.554 30.1284V32.4244H230.31V55.3844H225.472V58.0084ZM253.342 58.5824C260.312 58.5824 262.977 53.1704 262.977 44.0274C262.977 34.8844 260.312 29.4314 253.342 29.4314C246.372 29.4314 243.707 34.8844 243.707 44.0274C243.707 53.1704 246.372 58.5824 253.342 58.5824ZM253.342 55.6714C248.791 55.6714 247.274 51.8584 247.274 44.0274C247.274 36.1964 248.791 32.3424 253.342 32.3424C257.893 32.3424 259.41 36.1964 259.41 44.0274C259.41 51.8584 257.893 55.6714 253.342 55.6714ZM275.145 58.5824C282.115 58.5824 284.78 53.1704 284.78 44.0274C284.78 34.8844 282.115 29.4314 275.145 29.4314C268.175 29.4314 265.51 34.8844 265.51 44.0274C265.51 53.1704 268.175 58.5824 275.145 58.5824ZM275.145 55.6714C270.594 55.6714 269.077 51.8584 269.077 44.0274C269.077 36.1964 270.594 32.3424 275.145 32.3424C279.696 32.3424 281.213 36.1964 281.213 44.0274C281.213 51.8584 279.696 55.6714 275.145 55.6714ZM296.582 58.0084H299.821V36.9754L307.898 52.0634H310.932L319.091 37.1394V58.0084H322.535V29.9644H319.419L309.538 48.4144L299.78 29.9644H296.582V58.0084ZM337.124 58.5824C342.126 58.5824 344.955 55.1794 344.955 47.8814C344.955 40.6654 342.044 37.3444 337.165 37.3444C335.197 37.3444 333.024 38.0414 331.384 38.9434V28.6934H327.981V58.0084H330.728L330.892 56.6554C332.491 57.7624 334.951 58.5824 337.124 58.5824ZM336.345 55.7534C334.705 55.7534 332.737 55.1384 331.384 54.3184V41.4034C332.737 40.7474 334.705 40.2554 336.263 40.2554C339.83 40.2554 341.388 42.4694 341.388 47.8814C341.388 53.7034 339.748 55.7534 336.345 55.7534ZM348.822 67.2334H352.225V57.0654C353.701 58.0084 355.874 58.5824 357.965 58.5824C362.762 58.5824 365.796 55.4254 365.796 47.8814C365.796 41.4854 363.295 37.3444 358.088 37.3444C356.243 37.3444 353.906 38.0004 351.815 39.3944L351.651 37.9184H348.822V67.2334ZM357.104 55.7534C355.382 55.7534 353.414 55.2204 352.225 54.5234V41.6084C353.783 40.7884 355.792 40.2554 357.35 40.2554C360.712 40.2554 362.229 42.7154 362.229 47.8404C362.229 53.5804 360.753 55.7534 357.104 55.7534ZM374.952 58.5824C379.79 58.5824 383.07 56.6964 383.07 52.4324C383.07 45.2574 371.877 47.3894 371.877 42.8794C371.877 40.9934 373.394 40.0504 376.264 40.0504C377.904 40.0504 379.749 40.2964 381.553 40.7064L381.84 38.2054C380.241 37.7134 377.986 37.3444 375.977 37.3444C371.713 37.3444 368.679 39.2304 368.679 43.1254C368.679 50.5054 379.872 48.1684 379.872 52.6784C379.872 54.7284 378.109 55.8354 374.829 55.8354C373.066 55.8354 370.852 55.5484 369.212 55.0974L369.048 57.7214C370.565 58.2134 373.025 58.5824 374.952 58.5824Z" fill="white"/>
<path d="M267.605 80.9412H270.149L271.445 78.5892L273.077 80.9412H275.749L272.933 76.9732L275.637 73.1012H273.141L271.861 75.4692L270.165 73.1012H267.557L270.389 77.0852L267.605 80.9412ZM283.554 81.1652C285.218 81.1652 286.386 80.7812 287.106 80.0292C287.618 79.5012 287.874 78.7652 287.874 77.9172C287.874 76.4932 287.186 75.6292 286.034 75.2132C286.994 74.7332 287.49 73.9332 287.49 72.7972C287.49 71.8852 287.202 71.2452 286.738 70.7812C286.066 70.1092 284.898 69.7892 283.522 69.7892C282.674 69.7892 281.746 69.8692 281.01 70.0292V71.7252C281.65 71.6292 282.45 71.5652 283.154 71.5652C284.018 71.5652 284.562 71.6932 284.882 71.9812C285.138 72.2052 285.25 72.5572 285.25 72.9732C285.25 73.5012 285.074 73.8692 284.818 74.0932C284.434 74.4292 283.922 74.5572 282.914 74.5572H282.53V76.1572H282.834C283.954 76.1572 284.562 76.2532 284.962 76.5412C285.298 76.7812 285.506 77.1652 285.506 77.7412C285.506 78.3332 285.298 78.7492 284.914 79.0052C284.53 79.2612 284.002 79.3732 283.106 79.3732C282.306 79.3732 281.554 79.2932 280.914 79.1812V80.9092C281.65 81.0692 282.61 81.1652 283.554 81.1652ZM293.654 80.9412H295.942V75.0372C296.326 74.8932 296.902 74.7812 297.302 74.7812C297.718 74.7812 298.054 74.8452 298.262 75.0372C298.422 75.1972 298.502 75.4212 298.502 75.8212V80.9412H300.79V75.5492C300.79 75.3572 300.774 75.1652 300.758 74.9892C301.142 74.8772 301.702 74.7812 302.086 74.7812C302.55 74.7812 302.87 74.8452 303.078 75.0372C303.238 75.1972 303.318 75.4212 303.318 75.8212V80.9412H305.606V75.5492C305.606 74.6372 305.414 73.9492 304.934 73.4852C304.502 73.0532 303.734 72.8772 303.046 72.8772C302.198 72.8772 301.19 73.1172 300.31 73.7092C299.91 73.1492 299.19 72.8772 298.23 72.8772C297.414 72.8772 296.534 73.1012 295.686 73.6612L295.638 73.1012H293.654V80.9412ZM311.386 81.1652C312.362 81.1652 313.274 81.0372 314.026 80.8932L313.85 79.2292C313.258 79.3412 312.458 79.4212 311.898 79.4212C310.362 79.4212 309.546 79.0532 309.482 77.7252H314.298C314.426 77.7252 314.49 77.6772 314.49 77.5492V76.8292C314.49 74.1092 313.242 72.8772 310.89 72.8772C308.49 72.8772 307.082 74.2852 307.082 77.0372C307.082 78.2852 307.354 79.4052 308.138 80.1572C308.81 80.7972 309.914 81.1652 311.386 81.1652ZM309.482 76.2372C309.53 75.2292 309.946 74.6052 310.874 74.6052C311.786 74.6052 312.25 75.2452 312.25 76.2372H309.482ZM318.479 81.1652C320.831 81.1652 322.015 80.2212 322.015 78.5892C322.015 75.3412 317.727 76.6052 317.727 75.2772C317.727 74.8292 318.175 74.6372 318.991 74.6372C319.631 74.6372 320.591 74.7652 321.407 74.9892L321.583 73.3092C320.735 73.0212 319.759 72.8772 318.975 72.8772C316.623 72.8772 315.567 73.9492 315.567 75.4052C315.567 78.6532 319.839 77.2932 319.839 78.6852C319.839 79.2452 319.295 79.4052 318.431 79.4052C317.583 79.4052 316.495 79.2292 315.903 79.0372L315.727 80.7332C316.351 80.9572 317.551 81.1652 318.479 81.1652ZM327.433 81.1652C328.409 81.1652 329.321 81.0372 330.073 80.8932L329.897 79.2292C329.305 79.3412 328.505 79.4212 327.945 79.4212C326.409 79.4212 325.593 79.0532 325.529 77.7252H330.345C330.473 77.7252 330.537 77.6772 330.537 77.5492V76.8292C330.537 74.1092 329.289 72.8772 326.937 72.8772C324.537 72.8772 323.129 74.2852 323.129 77.0372C323.129 78.2852 323.401 79.4052 324.185 80.1572C324.857 80.7972 325.961 81.1652 327.433 81.1652ZM325.529 76.2372C325.577 75.2292 325.993 74.6052 326.921 74.6052C327.833 74.6052 328.297 75.2452 328.297 76.2372H325.529ZM334.526 81.1652C336.878 81.1652 338.062 80.2212 338.062 78.5892C338.062 75.3412 333.774 76.6052 333.774 75.2772C333.774 74.8292 334.222 74.6372 335.038 74.6372C335.678 74.6372 336.638 74.7652 337.454 74.9892L337.63 73.3092C336.782 73.0212 335.806 72.8772 335.022 72.8772C332.67 72.8772 331.614 73.9492 331.614 75.4052C331.614 78.6532 335.886 77.2932 335.886 78.6852C335.886 79.2452 335.342 79.4052 334.478 79.4052C333.63 79.4052 332.542 79.2292 331.95 79.0372L331.774 80.7332C332.398 80.9572 333.598 81.1652 334.526 81.1652Z" fill="white"/>
<path d="M285.446 21.0253H289.334C291.03 21.0253 292.102 20.7533 292.806 20.1293C293.398 19.6013 293.718 18.8333 293.718 17.7773C293.718 16.3373 292.758 15.3453 291.398 15.1533C292.406 14.6413 292.934 13.8893 292.934 12.7693C292.934 11.9693 292.662 11.3293 292.166 10.8973C291.526 10.3373 290.566 10.0813 289.014 10.0813H285.446V21.0253ZM287.942 14.4333V11.8893H288.854C289.526 11.8893 289.91 11.9693 290.15 12.2093C290.358 12.4173 290.454 12.7213 290.454 13.1213C290.454 13.5693 290.342 13.8893 290.134 14.0973C289.862 14.3533 289.478 14.4333 288.79 14.4333H287.942ZM287.942 19.2173V16.2413H288.966C289.862 16.2413 290.374 16.3213 290.71 16.6093C290.998 16.8493 291.126 17.2333 291.126 17.8253C291.126 18.2733 290.998 18.5933 290.774 18.8173C290.47 19.1213 289.894 19.2173 288.966 19.2173H287.942ZM298.899 21.2493C301.619 21.2493 302.883 19.6173 302.883 17.1053C302.883 14.5933 301.619 12.9613 298.899 12.9613C296.179 12.9613 294.915 14.5933 294.915 17.1053C294.915 19.6173 296.179 21.2493 298.899 21.2493ZM298.899 19.5053C297.747 19.5053 297.299 18.7213 297.299 17.1053C297.299 15.4893 297.747 14.7053 298.899 14.7053C300.051 14.7053 300.499 15.4893 300.499 17.1053C300.499 18.7213 300.051 19.5053 298.899 19.5053ZM304.409 21.0253H306.697V15.1213C307.065 14.9773 307.753 14.8653 308.185 14.8653C308.649 14.8653 308.969 14.9293 309.177 15.1213C309.337 15.2813 309.417 15.5053 309.417 15.9053V21.0253H311.705V15.6333C311.705 14.7213 311.513 14.0333 311.033 13.5693C310.601 13.1373 309.833 12.9613 309.145 12.9613C308.313 12.9613 307.305 13.1853 306.441 13.7453L306.393 13.1853H304.409V21.0253ZM317.165 21.2493C319.885 21.2493 321.149 19.6173 321.149 17.1053C321.149 14.5933 319.885 12.9613 317.165 12.9613C314.445 12.9613 313.181 14.5933 313.181 17.1053C313.181 19.6173 314.445 21.2493 317.165 21.2493ZM317.165 19.5053C316.013 19.5053 315.565 18.7213 315.565 17.1053C315.565 15.4893 316.013 14.7053 317.165 14.7053C318.317 14.7053 318.765 15.4893 318.765 17.1053C318.765 18.7213 318.317 19.5053 317.165 19.5053Z" fill="white"/>
</svg>
