<svg width="252" height="134" viewBox="0 0 252 134" fill="none" xmlns="http://www.w3.org/2000/svg">
<path d="M30.8632 69.976H27.3752V68.856H35.8392L35.7112 69.976H32.2872V79.8H30.8632V69.976ZM38.4383 80.024C37.5743 80.024 36.9183 79.7947 36.4703 79.336C36.0329 78.8987 35.8143 78.216 35.8143 77.288V71.96H37.1423V77.128C37.1423 77.4587 37.1689 77.7307 37.2223 77.944C37.2863 78.1467 37.3876 78.3174 37.5263 78.456C37.7929 78.7227 38.2143 78.856 38.7903 78.856C39.1316 78.856 39.4943 78.8134 39.8783 78.728C40.2623 78.632 40.6196 78.504 40.9503 78.344V71.96H42.2783V79.8H41.1743L41.1103 79.224C40.6943 79.48 40.2569 79.6774 39.7983 79.816C39.3396 79.9547 38.8863 80.024 38.4383 80.024ZM46.5822 80.024C46.2088 80.024 45.8035 79.992 45.3662 79.928C44.9395 79.864 44.5768 79.784 44.2782 79.688L44.3422 78.664C44.6622 78.7494 45.0195 78.8187 45.4142 78.872C45.8195 78.9254 46.1928 78.952 46.5342 78.952C47.1742 78.952 47.6595 78.8507 47.9902 78.648C48.3315 78.4347 48.5022 78.1254 48.5022 77.72C48.5022 77.3787 48.3582 77.1227 48.0702 76.952C47.7822 76.7814 47.3288 76.6 46.7102 76.408C46.1555 76.2267 45.7075 76.0614 45.3662 75.912C45.0355 75.752 44.7475 75.5174 44.5022 75.208C44.2568 74.8987 44.1342 74.4934 44.1342 73.992C44.1342 73.256 44.3902 72.696 44.9022 72.312C45.4248 71.928 46.1182 71.736 46.9822 71.736C47.3662 71.736 47.7608 71.768 48.1662 71.832C48.5822 71.896 48.9502 71.976 49.2702 72.072L49.1582 73.048C48.4115 72.8774 47.7235 72.792 47.0942 72.792C45.9528 72.792 45.3822 73.16 45.3822 73.896C45.3822 74.248 45.5262 74.5147 45.8142 74.696C46.1128 74.8774 46.5715 75.064 47.1902 75.256C47.7235 75.416 48.1608 75.576 48.5022 75.736C48.8542 75.896 49.1475 76.1307 49.3822 76.44C49.6275 76.7387 49.7502 77.1334 49.7502 77.624C49.7502 78.424 49.4675 79.0267 48.9022 79.432C48.3368 79.8267 47.5635 80.024 46.5822 80.024ZM58.3012 80.024C57.0638 80.024 56.1305 79.7094 55.5012 79.08C54.8185 78.3974 54.4772 77.336 54.4772 75.896C54.4772 74.5414 54.7812 73.512 55.3892 72.808C56.0078 72.0934 56.8345 71.736 57.8692 71.736C58.9465 71.736 59.7572 72.0987 60.3012 72.824C60.8452 73.5387 61.1172 74.552 61.1172 75.864V76.168C61.1172 76.2854 61.0532 76.344 60.9252 76.344H55.8692C55.8692 77.2507 56.0985 77.9174 56.5572 78.344C56.7705 78.5467 57.0372 78.696 57.3572 78.792C57.6772 78.888 58.0772 78.936 58.5572 78.936C59.1865 78.936 59.8318 78.8667 60.4932 78.728L60.6212 79.72C60.2905 79.816 59.9118 79.8907 59.4852 79.944C59.0692 79.9974 58.6745 80.024 58.3012 80.024ZM59.8052 75.368C59.7838 74.5787 59.6132 73.9547 59.2932 73.496C58.9732 73.0374 58.4985 72.808 57.8692 72.808C57.2185 72.808 56.7225 73.032 56.3812 73.48C56.0505 73.928 55.8798 74.5574 55.8692 75.368H59.8052ZM62.9869 71.96H64.0909L64.1549 72.536C65.0082 72.0027 65.8509 71.736 66.6829 71.736C67.6536 71.736 68.3629 72.0294 68.8109 72.616C69.7816 72.0294 70.7202 71.736 71.6269 71.736C72.4909 71.736 73.1469 71.9654 73.5949 72.424C74.0322 72.8614 74.2509 73.544 74.2509 74.472V79.8H72.9229V74.632C72.9229 74.3014 72.8909 74.0347 72.8269 73.832C72.7736 73.6187 72.6776 73.4427 72.5389 73.304C72.2722 73.0374 71.8616 72.904 71.3069 72.904C70.9869 72.904 70.6402 72.952 70.2669 73.048C69.8936 73.1334 69.5362 73.2614 69.1949 73.432C69.2696 73.7627 69.3069 74.1094 69.3069 74.472V79.8H67.9789V74.632C67.9789 74.3014 67.9469 74.0347 67.8829 73.832C67.8296 73.6187 67.7336 73.4427 67.5949 73.304C67.3282 73.0374 66.9176 72.904 66.3629 72.904C65.7122 72.904 65.0296 73.0747 64.3149 73.416V79.8H62.9869V71.96ZM79.6077 80.024C78.413 80.024 77.517 79.6667 76.9197 78.952C76.333 78.2374 76.0397 77.2134 76.0397 75.88C76.0397 74.5467 76.333 73.5227 76.9197 72.808C77.517 72.0934 78.413 71.736 79.6077 71.736C80.8023 71.736 81.693 72.0934 82.2797 72.808C82.877 73.5227 83.1757 74.5467 83.1757 75.88C83.1757 77.2134 82.877 78.2374 82.2797 78.952C81.693 79.6667 80.8023 80.024 79.6077 80.024ZM79.6077 78.936C80.3863 78.936 80.941 78.6854 81.2717 78.184C81.613 77.6827 81.7837 76.9147 81.7837 75.88C81.7837 74.8454 81.613 74.0774 81.2717 73.576C80.941 73.0747 80.3863 72.824 79.6077 72.824C78.829 72.824 78.269 73.0747 77.9277 73.576C77.597 74.0774 77.4317 74.8454 77.4317 75.88C77.4317 76.9147 77.597 77.6827 77.9277 78.184C78.269 78.6854 78.829 78.936 79.6077 78.936ZM88.4745 80.024C87.2159 80.024 86.2665 79.6987 85.6265 79.048C84.9332 78.3334 84.5865 77.3094 84.5865 75.976C84.5865 74.6 84.9279 73.544 85.6105 72.808C86.2825 72.0934 87.2425 71.736 88.4905 71.736C89.1305 71.736 89.7545 71.816 90.3625 71.976L90.2825 73C89.6212 72.872 89.0772 72.808 88.6505 72.808C87.7439 72.808 87.0719 73.0694 86.6345 73.592C86.1972 74.1147 85.9785 74.904 85.9785 75.96C85.9785 76.952 86.1972 77.6987 86.6345 78.2C87.0612 78.6907 87.7545 78.936 88.7145 78.936C88.9705 78.936 89.2532 78.92 89.5625 78.888C89.8719 78.856 90.1332 78.8187 90.3465 78.776L90.4425 79.768C90.1865 79.8427 89.8665 79.9014 89.4825 79.944C89.0985 79.9974 88.7625 80.024 88.4745 80.024ZM92.8617 70.472C92.339 70.472 92.0777 70.1894 92.0777 69.624V69.592C92.0777 69.0267 92.339 68.744 92.8617 68.744H92.9417C93.4643 68.744 93.7257 69.0267 93.7257 69.592V69.624C93.7257 70.1894 93.4643 70.472 92.9417 70.472H92.8617ZM92.2377 71.96H93.5657V79.8H92.2377V71.96ZM98.9827 80.024C97.788 80.024 96.892 79.6667 96.2947 78.952C95.708 78.2374 95.4147 77.2134 95.4147 75.88C95.4147 74.5467 95.708 73.5227 96.2947 72.808C96.892 72.0934 97.788 71.736 98.9827 71.736C100.177 71.736 101.068 72.0934 101.655 72.808C102.252 73.5227 102.551 74.5467 102.551 75.88C102.551 77.2134 102.252 78.2374 101.655 78.952C101.068 79.6667 100.177 80.024 98.9827 80.024ZM98.9827 78.936C99.7613 78.936 100.316 78.6854 100.647 78.184C100.988 77.6827 101.159 76.9147 101.159 75.88C101.159 74.8454 100.988 74.0774 100.647 73.576C100.316 73.0747 99.7613 72.824 98.9827 72.824C98.204 72.824 97.644 73.0747 97.3027 73.576C96.972 74.0774 96.8067 74.8454 96.8067 75.88C96.8067 76.9147 96.972 77.6827 97.3027 78.184C97.644 78.6854 98.204 78.936 98.9827 78.936ZM104.378 71.96H105.482L105.546 72.536C105.962 72.28 106.404 72.0827 106.874 71.944C107.343 71.8054 107.802 71.736 108.25 71.736C109.114 71.736 109.77 71.9654 110.218 72.424C110.655 72.8614 110.874 73.544 110.874 74.472V79.8H109.546V74.632C109.546 74.3014 109.514 74.0347 109.45 73.832C109.396 73.6187 109.3 73.4427 109.162 73.304C108.895 73.0374 108.474 72.904 107.898 72.904C107.546 72.904 107.172 72.952 106.778 73.048C106.383 73.144 106.026 73.2667 105.706 73.416V79.8H104.378V71.96ZM116.489 80.024C115.251 80.024 114.318 79.7094 113.689 79.08C113.006 78.3974 112.665 77.336 112.665 75.896C112.665 74.5414 112.969 73.512 113.577 72.808C114.195 72.0934 115.022 71.736 116.057 71.736C117.134 71.736 117.945 72.0987 118.489 72.824C119.033 73.5387 119.305 74.552 119.305 75.864V76.168C119.305 76.2854 119.241 76.344 119.113 76.344H114.057C114.057 77.2507 114.286 77.9174 114.745 78.344C114.958 78.5467 115.225 78.696 115.545 78.792C115.865 78.888 116.265 78.936 116.745 78.936C117.374 78.936 118.019 78.8667 118.681 78.728L118.809 79.72C118.478 79.816 118.099 79.8907 117.673 79.944C117.257 79.9974 116.862 80.024 116.489 80.024ZM117.993 75.368C117.971 74.5787 117.801 73.9547 117.481 73.496C117.161 73.0374 116.686 72.808 116.057 72.808C115.406 72.808 114.91 73.032 114.569 73.48C114.238 73.928 114.067 74.5574 114.057 75.368H117.993ZM123.238 80.024C122.865 80.024 122.46 79.992 122.022 79.928C121.596 79.864 121.233 79.784 120.934 79.688L120.998 78.664C121.318 78.7494 121.676 78.8187 122.07 78.872C122.476 78.9254 122.849 78.952 123.19 78.952C123.83 78.952 124.316 78.8507 124.646 78.648C124.988 78.4347 125.158 78.1254 125.158 77.72C125.158 77.3787 125.014 77.1227 124.726 76.952C124.438 76.7814 123.985 76.6 123.366 76.408C122.812 76.2267 122.364 76.0614 122.022 75.912C121.692 75.752 121.404 75.5174 121.158 75.208C120.913 74.8987 120.79 74.4934 120.79 73.992C120.79 73.256 121.046 72.696 121.558 72.312C122.081 71.928 122.774 71.736 123.638 71.736C124.022 71.736 124.417 71.768 124.822 71.832C125.238 71.896 125.606 71.976 125.926 72.072L125.814 73.048C125.068 72.8774 124.38 72.792 123.75 72.792C122.609 72.792 122.038 73.16 122.038 73.896C122.038 74.248 122.182 74.5147 122.47 74.696C122.769 74.8774 123.228 75.064 123.846 75.256C124.38 75.416 124.817 75.576 125.158 75.736C125.51 75.896 125.804 76.1307 126.038 76.44C126.284 76.7387 126.406 77.1334 126.406 77.624C126.406 78.424 126.124 79.0267 125.558 79.432C124.993 79.8267 124.22 80.024 123.238 80.024ZM134.285 80.024C133.272 80.024 132.493 79.6774 131.949 78.984C131.405 78.2907 131.133 77.272 131.133 75.928C131.133 74.6267 131.416 73.6027 131.981 72.856C132.557 72.1094 133.357 71.736 134.381 71.736C134.723 71.736 135.075 71.7894 135.437 71.896C135.811 71.992 136.152 72.1254 136.461 72.296V68.36H137.789V79.8H136.701L136.605 79.32C136.285 79.5334 135.907 79.704 135.469 79.832C135.043 79.96 134.648 80.024 134.285 80.024ZM134.653 78.936C134.931 78.936 135.229 78.8934 135.549 78.808C135.869 78.7227 136.173 78.6107 136.461 78.472V73.24C136.163 73.1227 135.848 73.032 135.517 72.968C135.197 72.8934 134.909 72.856 134.653 72.856C133.896 72.856 133.352 73.128 133.021 73.672C132.691 74.2054 132.525 74.9627 132.525 75.944C132.525 76.968 132.701 77.7254 133.053 78.216C133.405 78.696 133.939 78.936 134.653 78.936ZM143.186 80.024C141.991 80.024 141.095 79.6667 140.498 78.952C139.911 78.2374 139.618 77.2134 139.618 75.88C139.618 74.5467 139.911 73.5227 140.498 72.808C141.095 72.0934 141.991 71.736 143.186 71.736C144.38 71.736 145.271 72.0934 145.858 72.808C146.455 73.5227 146.754 74.5467 146.754 75.88C146.754 77.2134 146.455 78.2374 145.858 78.952C145.271 79.6667 144.38 80.024 143.186 80.024ZM143.186 78.936C143.964 78.936 144.519 78.6854 144.85 78.184C145.191 77.6827 145.362 76.9147 145.362 75.88C145.362 74.8454 145.191 74.0774 144.85 73.576C144.519 73.0747 143.964 72.824 143.186 72.824C142.407 72.824 141.847 73.0747 141.506 73.576C141.175 74.0774 141.01 74.8454 141.01 75.88C141.01 76.9147 141.175 77.6827 141.506 78.184C141.847 78.6854 142.407 78.936 143.186 78.936ZM148.581 71.96H149.685L149.749 72.536C150.165 72.28 150.607 72.0827 151.077 71.944C151.546 71.8054 152.005 71.736 152.453 71.736C153.317 71.736 153.973 71.9654 154.421 72.424C154.858 72.8614 155.077 73.544 155.077 74.472V79.8H153.749V74.632C153.749 74.3014 153.717 74.0347 153.653 73.832C153.599 73.6187 153.503 73.4427 153.365 73.304C153.098 73.0374 152.677 72.904 152.101 72.904C151.749 72.904 151.375 72.952 150.981 73.048C150.586 73.144 150.229 73.2667 149.909 73.416V79.8H148.581V71.96ZM160.02 80.024C159.006 80.024 158.228 79.6774 157.684 78.984C157.14 78.2907 156.868 77.272 156.868 75.928C156.868 74.6267 157.15 73.6027 157.716 72.856C158.292 72.1094 159.092 71.736 160.116 71.736C160.457 71.736 160.809 71.7894 161.172 71.896C161.545 71.992 161.886 72.1254 162.196 72.296V68.36H163.524V79.8H162.436L162.34 79.32C162.02 79.5334 161.641 79.704 161.204 79.832C160.777 79.96 160.382 80.024 160.02 80.024ZM160.388 78.936C160.665 78.936 160.964 78.8934 161.284 78.808C161.604 78.7227 161.908 78.6107 162.196 78.472V73.24C161.897 73.1227 161.582 73.032 161.252 72.968C160.932 72.8934 160.644 72.856 160.388 72.856C159.63 72.856 159.086 73.128 158.756 73.672C158.425 74.2054 158.26 74.9627 158.26 75.944C158.26 76.968 158.436 77.7254 158.788 78.216C159.14 78.696 159.673 78.936 160.388 78.936ZM169.176 80.024C167.939 80.024 167.005 79.7094 166.376 79.08C165.693 78.3974 165.352 77.336 165.352 75.896C165.352 74.5414 165.656 73.512 166.264 72.808C166.883 72.0934 167.709 71.736 168.744 71.736C169.821 71.736 170.632 72.0987 171.176 72.824C171.72 73.5387 171.992 74.552 171.992 75.864V76.168C171.992 76.2854 171.928 76.344 171.8 76.344H166.744C166.744 77.2507 166.973 77.9174 167.432 78.344C167.645 78.5467 167.912 78.696 168.232 78.792C168.552 78.888 168.952 78.936 169.432 78.936C170.061 78.936 170.707 78.8667 171.368 78.728L171.496 79.72C171.165 79.816 170.787 79.8907 170.36 79.944C169.944 79.9974 169.549 80.024 169.176 80.024ZM170.68 75.368C170.659 74.5787 170.488 73.9547 170.168 73.496C169.848 73.0374 169.373 72.808 168.744 72.808C168.093 72.808 167.597 73.032 167.256 73.48C166.925 73.928 166.755 74.5574 166.744 75.368H170.68ZM182.056 79.432C181.746 79.6134 181.389 79.7574 180.984 79.864C180.589 79.9707 180.216 80.024 179.864 80.024C178.872 80.024 178.098 79.672 177.544 78.968C176.989 78.264 176.712 77.2507 176.712 75.928C176.712 74.616 177.005 73.592 177.592 72.856C178.178 72.1094 178.984 71.736 180.008 71.736C180.381 71.736 180.754 71.8 181.128 71.928C181.512 72.056 181.869 72.2427 182.2 72.488L182.28 71.96H183.384V83.304L182.056 83.544V79.432ZM180.232 78.936C180.509 78.936 180.813 78.8934 181.144 78.808C181.474 78.7227 181.778 78.6107 182.056 78.472V73.4C181.437 73.0374 180.808 72.856 180.168 72.856C179.496 72.856 178.984 73.112 178.632 73.624C178.28 74.136 178.104 74.8934 178.104 75.896C178.104 77.9227 178.813 78.936 180.232 78.936ZM188.22 80.024C187.356 80.024 186.7 79.7947 186.252 79.336C185.814 78.8987 185.596 78.216 185.596 77.288V71.96H186.924V77.128C186.924 77.4587 186.95 77.7307 187.004 77.944C187.068 78.1467 187.169 78.3174 187.308 78.456C187.574 78.7227 187.996 78.856 188.572 78.856C188.913 78.856 189.276 78.8134 189.66 78.728C190.044 78.632 190.401 78.504 190.732 78.344V71.96H192.06V79.8H190.956L190.892 79.224C190.476 79.48 190.038 79.6774 189.58 79.816C189.121 79.9547 188.668 80.024 188.22 80.024ZM194.955 70.472C194.433 70.472 194.171 70.1894 194.171 69.624V69.592C194.171 69.0267 194.433 68.744 194.955 68.744H195.035C195.558 68.744 195.819 69.0267 195.819 69.592V69.624C195.819 70.1894 195.558 70.472 195.035 70.472H194.955ZM194.331 71.96H195.659V79.8H194.331V71.96ZM201.332 80.024C200.095 80.024 199.162 79.7094 198.532 79.08C197.85 78.3974 197.508 77.336 197.508 75.896C197.508 74.5414 197.812 73.512 198.42 72.808C199.039 72.0934 199.866 71.736 200.9 71.736C201.978 71.736 202.788 72.0987 203.332 72.824C203.876 73.5387 204.148 74.552 204.148 75.864V76.168C204.148 76.2854 204.084 76.344 203.956 76.344H198.9C198.9 77.2507 199.13 77.9174 199.588 78.344C199.802 78.5467 200.068 78.696 200.388 78.792C200.708 78.888 201.108 78.936 201.588 78.936C202.218 78.936 202.863 78.8667 203.524 78.728L203.652 79.72C203.322 79.816 202.943 79.8907 202.516 79.944C202.1 79.9974 201.706 80.024 201.332 80.024ZM202.836 75.368C202.815 74.5787 202.644 73.9547 202.324 73.496C202.004 73.0374 201.53 72.808 200.9 72.808C200.25 72.808 199.754 73.032 199.412 73.48C199.082 73.928 198.911 74.5574 198.9 75.368H202.836ZM206.018 71.96H207.122L207.202 72.632C207.917 72.0347 208.658 71.736 209.426 71.736C209.586 71.736 209.757 71.752 209.938 71.784V72.968C209.703 72.9467 209.474 72.936 209.25 72.936C208.546 72.936 207.911 73.112 207.346 73.464V79.8H206.018V71.96ZM213.212 80.024C212.326 80.024 211.644 79.7734 211.164 79.272C210.748 78.8347 210.54 78.2694 210.54 77.576C210.54 76.8614 210.764 76.296 211.212 75.88C211.756 75.3787 212.641 75.128 213.868 75.128H215.5V74.632C215.5 74.312 215.468 74.0454 215.404 73.832C215.34 73.6187 215.238 73.4427 215.1 73.304C214.78 72.9947 214.236 72.84 213.468 72.84C212.828 72.84 212.124 72.904 211.356 73.032L211.308 72.008C212.065 71.8267 212.86 71.736 213.692 71.736C214.812 71.736 215.628 71.976 216.14 72.456C216.385 72.6907 216.561 72.9787 216.668 73.32C216.774 73.6507 216.828 74.072 216.828 74.584V79.8H215.756L215.676 79.272C214.908 79.7734 214.086 80.024 213.212 80.024ZM213.5 78.952C213.809 78.952 214.145 78.904 214.508 78.808C214.87 78.712 215.201 78.5894 215.5 78.44V76.104H214.06C213.238 76.104 212.657 76.2374 212.316 76.504C212.028 76.7387 211.884 77.0854 211.884 77.544C211.884 78.0134 212.022 78.3654 212.3 78.6C212.577 78.8347 212.977 78.952 213.5 78.952ZM221.098 80.024C220.724 80.024 220.319 79.992 219.882 79.928C219.455 79.864 219.092 79.784 218.794 79.688L218.858 78.664C219.178 78.7494 219.535 78.8187 219.93 78.872C220.335 78.9254 220.708 78.952 221.05 78.952C221.69 78.952 222.175 78.8507 222.506 78.648C222.847 78.4347 223.018 78.1254 223.018 77.72C223.018 77.3787 222.874 77.1227 222.586 76.952C222.298 76.7814 221.844 76.6 221.226 76.408C220.671 76.2267 220.223 76.0614 219.882 75.912C219.551 75.752 219.263 75.5174 219.018 75.208C218.772 74.8987 218.65 74.4934 218.65 73.992C218.65 73.256 218.906 72.696 219.418 72.312C219.94 71.928 220.634 71.736 221.498 71.736C221.882 71.736 222.276 71.768 222.682 71.832C223.098 71.896 223.466 71.976 223.786 72.072L223.674 73.048C222.927 72.8774 222.239 72.792 221.61 72.792C220.468 72.792 219.898 73.16 219.898 73.896C219.898 74.248 220.042 74.5147 220.33 74.696C220.628 74.8774 221.087 75.064 221.706 75.256C222.239 75.416 222.676 75.576 223.018 75.736C223.37 75.896 223.663 76.1307 223.898 76.44C224.143 76.7387 224.266 77.1334 224.266 77.624C224.266 78.424 223.983 79.0267 223.418 79.432C222.852 79.8267 222.079 80.024 221.098 80.024Z" fill="white"/>
<path d="M91.8673 50.1908C91.492 49.8449 91.2845 49.3523 91.2698 48.6542C91.8721 41.3971 92.4759 35.388 93.081 30.6268C93.2067 29.6059 93.7098 29.0903 94.5672 29.0022C96.6236 28.7926 97.6235 29.6311 97.6675 31.5764C97.6527 32.0718 97.5824 32.564 97.4579 33.0437C97.2913 33.7008 97.2075 34.3761 97.2084 35.054C97.221 35.5948 97.2755 35.8464 97.418 35.8317C97.5166 35.8317 97.6109 35.6577 97.7513 35.3831C98.4724 33.6076 99.791 32.157 101.78 31.0523C102.359 30.6993 103.007 30.4748 103.679 30.3941C104.243 30.3375 104.74 30.6037 105.122 31.1969C105.303 31.4218 105.412 31.6969 105.432 31.9851C105.442 32.4211 105.036 32.8739 104.308 33.3099C104.115 33.4567 103.946 33.5783 103.801 33.6956C99.9062 37.32 97.4097 42.1224 96.2924 48.2036C95.9612 49.8805 95.3428 50.7882 94.3869 50.8972C93.9409 50.9637 93.4858 50.9352 93.0515 50.8134C92.6173 50.6917 92.2137 50.4795 91.8673 50.1908Z" fill="white"/>
<path d="M72.0938 56.9491C70.551 57.1293 69.7229 56.3076 69.6831 54.5573C70.3064 43.6472 71.4125 32.7929 73.0014 21.9946C73.1027 21.3321 73.1538 20.6629 73.1545 19.9927C73.0979 19.6343 72.9951 19.4079 72.7352 19.4331C72.6335 19.4423 72.5342 19.4692 72.4417 19.5127C72.2971 19.6049 72.1168 20.3512 71.7814 21.8186C71.62 23.4033 71.0981 24.2124 70.1422 24.3068C69.0396 24.4158 68.4652 23.5542 68.417 21.6718C68.3935 20.6128 68.6502 19.5665 69.1612 18.6386C70.0004 17.2155 70.9464 15.8582 71.9911 14.5782C73.1209 13.4546 73.7582 12.3248 73.9762 11.0754C74.1103 10.4633 74.6428 10.1028 75.6951 10.0064C77.7913 9.81771 79.6087 9.44668 81.118 8.84296C82.6051 8.19234 84.1855 7.77992 85.8009 7.62087C88.4212 7.38819 90.6914 7.9374 92.5843 9.24125C94.6805 10.6813 95.7789 12.8048 95.8397 15.6075C95.8568 16.5953 95.7044 17.5787 95.389 18.5149C94.6763 20.6216 94.1166 22.0198 93.6638 22.6319C90.6795 29.0829 86.9509 35.1627 82.5539 40.7474C81.1012 42.7786 79.4096 44.0301 77.5041 44.4472C76.9654 44.5059 76.3512 44.5206 75.6657 44.5436C74.6616 44.6547 74.0705 47.9332 73.9657 54.4252C73.8504 55.8758 73.4018 56.731 72.5466 56.8883L72.0938 56.9491ZM78.0575 40.0661C83.4638 33.676 87.7079 26.3875 90.5971 18.5317C91.1232 16.8547 91.3873 15.4314 91.3622 14.3204C91.3035 11.6351 89.5343 10.4235 85.9602 10.7568C85.0205 10.885 84.09 11.0733 83.1744 11.3207C81.8636 11.6821 80.6297 12.2796 79.5332 13.0836C78.4453 13.8886 77.8164 15.3895 77.6194 17.5884C77.2798 22.2629 76.8165 26.8977 76.152 31.5303C75.4875 36.163 75.1626 39.0998 75.1899 40.2715C75.2129 41.3909 75.4959 41.9611 75.9361 41.915L76.2799 41.8773C76.5524 41.7871 77.1247 41.1771 78.0575 40.0598V40.0661Z" fill="white"/>
<path d="M104.6 42.6379C104.589 42.1768 104.69 41.1706 104.849 39.5062C104.96 37.8753 105.625 35.7016 106.816 32.987C108.966 28.1531 111.266 25.6188 113.838 25.363C115.894 25.1534 117.51 26.0904 118.611 28.1195C118.965 28.7391 119.158 29.4374 119.173 30.1508C119.192 31.0396 118.944 32.008 118.477 33.0498C115.71 37.7768 113.079 40.8687 110.536 42.399C109.639 42.9838 109.209 43.4911 109.22 43.9774C109.233 44.1816 109.27 44.3836 109.331 44.579C109.65 45.6439 110.276 46.1638 111.182 46.0611C112.528 45.9101 114.272 44.8746 116.487 42.8937C117.907 41.6359 118.94 40.6633 119.59 40.0072C120.378 39.0827 121.007 38.6069 121.476 38.5587C121.719 38.5454 121.96 38.6076 122.166 38.7369C122.35 38.8857 122.499 39.0734 122.601 39.2865C122.704 39.4997 122.758 39.7329 122.759 39.9694C122.772 40.5522 122.422 41.3781 121.81 42.5373C121.124 43.707 120.049 44.971 118.531 46.3357C117.014 47.7003 115.611 48.5262 114.366 48.8511C113.655 48.9811 112.997 49.109 112.408 49.1739C107.335 49.7462 104.709 47.5557 104.6 42.6379ZM112.674 34.8568C113.823 32.4377 114.404 30.9473 114.391 30.3876C114.391 30.1067 114.236 29.9684 113.892 30.004C113.779 30.0124 113.67 30.0473 113.573 30.106C113.476 30.1646 113.395 30.2453 113.335 30.3415C110.937 35.0391 109.717 37.5735 109.725 37.9319C109.726 37.9986 109.741 38.0643 109.769 38.125C109.796 38.1857 109.836 38.2402 109.885 38.2851C109.934 38.33 109.992 38.3644 110.055 38.3863C110.118 38.4081 110.185 38.4168 110.251 38.412C111.094 37.6825 111.926 36.4939 112.674 34.8568Z" fill="white"/>
<path d="M126.476 46.7381C124.646 46.1575 123.715 45.1199 123.631 43.5812C123.624 43.1963 123.648 42.8113 123.704 42.4304C124.56 37.9215 125.417 33.467 126.22 29.0146C126.429 27.6248 127.031 26.9037 127.863 26.7696C128.151 26.7468 128.441 26.7688 128.723 26.8346C130.104 27.1511 130.806 27.8114 130.88 28.8406C130.859 29.3011 130.789 29.7579 130.67 30.2032C130.012 32.5489 129.706 34.1986 129.727 35.1335C129.727 35.4857 129.788 35.6827 129.936 35.668C130.085 35.6534 130.444 35.2593 130.867 34.5319C132.999 31.1004 134.946 28.1741 136.755 25.646C137.684 24.3694 138.575 23.6756 139.529 23.5309C140.028 23.4876 140.53 23.5766 140.984 23.7888C142.101 24.3547 142.688 25.3253 142.769 26.7989C142.775 27.2184 142.727 27.6368 142.627 28.0441C141.231 34.6702 140.566 38.9633 140.61 40.8687C140.648 42.6233 140.77 43.5938 141.044 43.8034C141.1 43.9793 141.137 44.1606 141.155 44.3443C141.154 44.482 141.116 44.6169 141.045 44.7351C140.974 44.8534 140.874 44.9507 140.753 45.0172C140.528 45.2347 140.238 45.373 139.927 45.4112C139.58 45.4512 139.229 45.4171 138.897 45.3112C138.564 45.2053 138.258 45.0301 137.998 44.7971C136.701 43.86 135.98 42.4032 135.888 40.4977C135.829 37.8816 135.841 36.2675 135.875 35.6072C135.909 34.9469 135.948 34.5172 135.942 34.2405C135.942 34.0309 135.888 33.9428 135.837 33.9491C135.691 33.9638 133.902 37.4079 130.546 44.2416C129.725 45.9018 128.836 46.757 127.832 46.8744C127.375 46.9298 126.912 46.8833 126.476 46.7381Z" fill="white"/>
<path d="M163.139 56.1921C161.881 56.341 160.653 54.9009 159.481 51.9326C158.36 49.1279 157.706 45.2247 157.595 40.284C157.458 34.3999 157.498 30.7629 157.616 29.4318C157.616 29.2327 157.559 29.1384 157.511 29.1447C157.389 29.1572 157.156 29.7274 156.838 30.8216C154.926 37.452 153.769 41.5668 153.241 43.1474C152.256 46.2791 150.991 47.9205 149.426 48.1007C147.172 48.3586 145.749 47.2937 145.08 44.8872C144.695 43.4012 144.495 41.8734 144.485 40.3385C144.338 33.8402 146.162 27.4279 149.866 21.0533C151.002 19.2191 152.476 18.2024 154.433 17.9634C156.343 17.779 157.578 16.9866 158.087 15.6576C158.758 13.9149 159.321 12.1326 159.773 10.3206L161.869 2.45772C162.301 0.956832 162.871 0.137211 163.627 0.0240152C163.995 -0.00800506 164.365 -0.00800506 164.732 0.0240152C166.086 0.252503 166.812 0.862501 166.883 1.81838C166.9 2.50803 166.638 3.91459 166.12 5.94373C164.879 10.6644 163.866 14.6745 163.185 17.8922C161.965 23.552 161.403 30.1068 161.575 37.6113C161.575 37.9572 161.636 40.2609 161.785 44.3401C161.881 48.5011 162.814 51.767 164.539 54.142C164.726 54.2312 164.882 54.3721 164.991 54.5479C165.1 54.7237 165.155 54.927 165.151 55.1336C165.163 55.6283 164.534 55.9776 163.265 56.1817L163.139 56.1921ZM150.748 39.4224C151.455 37.0222 152.484 33.6914 153.932 29.4235C155.358 25.1891 156.029 22.6045 156.016 21.7094C156.006 21.2901 155.903 21.0973 155.708 21.1182C155.463 21.1413 155.102 21.4767 154.576 22.1014C150.518 27.1512 148.604 33.6012 148.78 41.3132L148.805 42.4871C148.816 42.9063 148.967 43.0929 149.26 43.0614C149.553 43.03 150.042 41.7911 150.759 39.414L150.748 39.4224Z" fill="white"/>
<path d="M165.241 36.0497C165.23 35.6053 165.331 34.6284 165.49 33.0248C165.601 31.4527 166.264 29.3544 167.457 26.7362C169.607 22.0679 171.907 19.6195 174.479 19.368C176.535 19.1584 178.152 20.0639 179.252 22.0176C179.605 22.6107 179.798 23.2854 179.812 23.9755C179.833 24.8328 179.583 25.7677 179.116 26.7739C176.351 31.3395 173.718 34.3203 171.175 35.8086C170.28 36.3746 169.85 36.8672 169.861 37.3347C169.873 37.5321 169.911 37.7273 169.972 37.9153C170.291 38.9425 170.915 39.4414 171.821 39.3407C173.169 39.194 174.913 38.1899 177.126 36.274C178.548 35.0645 179.581 34.117 180.229 33.4839C181.019 32.5888 181.646 32.1298 182.115 32.0815C182.358 32.0678 182.599 32.1277 182.807 32.2534C182.99 32.3931 183.138 32.5725 183.24 32.7782C183.343 32.9838 183.397 33.2102 183.398 33.4399C183.413 34.0017 183.063 34.7982 182.451 35.9197C181.765 37.0475 180.688 38.2696 179.172 39.5902C177.657 40.9108 176.25 41.7095 175.005 42.0218C174.297 42.1497 173.636 42.2733 173.049 42.3383C167.974 42.9043 165.35 40.7934 165.241 36.0497ZM173.316 28.5243C174.464 26.187 175.045 24.7511 175.032 24.2082C175.032 23.9377 174.875 23.8057 174.531 23.8413C174.42 23.8493 174.312 23.883 174.215 23.9397C174.119 23.9964 174.037 24.0747 173.976 24.1683C171.576 28.7045 170.356 31.1508 170.364 31.5051C170.366 31.5707 170.382 31.6351 170.41 31.6944C170.438 31.7538 170.478 31.8067 170.527 31.8501C170.577 31.8935 170.634 31.9263 170.697 31.9467C170.759 31.967 170.825 31.9744 170.89 31.9683C171.733 31.2535 172.559 30.1174 173.316 28.5243Z" fill="white"/>
<path d="M81.1658 114.388H79.1319V113.431H81.1658V111.397H82.1221V113.431H84.1712V114.388H82.1221V116.437H81.1658V114.388Z" fill="white"/>
<path d="M167.846 112.065H172.886V113.021H167.846V112.065ZM167.846 114.797H172.886V115.754H167.846V114.797Z" fill="white"/>
<rect y="93" width="74.3751" height="40.2232" rx="5.86608" fill="#DEBCE4"/>
<path d="M23.7673 107.694C23.4407 107.694 23.0973 107.664 22.7373 107.604C22.384 107.544 22.0807 107.464 21.8273 107.364L21.9773 106.684C22.604 106.864 23.174 106.954 23.6873 106.954C24.2273 106.954 24.6307 106.85 24.8973 106.644C25.144 106.45 25.2673 106.174 25.2673 105.814C25.2673 105.567 25.1973 105.36 25.0573 105.194C24.924 105.027 24.754 104.89 24.5473 104.784C24.3473 104.677 24.0707 104.557 23.7173 104.424C23.2973 104.27 22.9573 104.124 22.6973 103.984C22.4373 103.837 22.214 103.637 22.0273 103.384C21.8473 103.13 21.7573 102.807 21.7573 102.414C21.7573 101.82 21.9607 101.367 22.3673 101.054C22.774 100.74 23.3273 100.584 24.0273 100.584C24.3207 100.584 24.614 100.607 24.9073 100.654C25.2007 100.7 25.4673 100.764 25.7073 100.844L25.5773 101.524C25.064 101.39 24.5707 101.324 24.0973 101.324C23.0973 101.324 22.5973 101.667 22.5973 102.354C22.5973 102.574 22.6607 102.76 22.7873 102.914C22.9207 103.067 23.084 103.194 23.2773 103.294C23.4773 103.394 23.7473 103.51 24.0873 103.644C24.5207 103.81 24.8707 103.967 25.1373 104.114C25.4107 104.26 25.6407 104.467 25.8273 104.734C26.0207 104.994 26.1173 105.324 26.1173 105.724C26.1173 106.31 25.9373 106.774 25.5773 107.114C25.1707 107.5 24.5673 107.694 23.7673 107.694ZM29.327 107.694C28.5803 107.694 28.0203 107.47 27.647 107.024C27.2803 106.577 27.097 105.937 27.097 105.104C27.097 104.27 27.2803 103.63 27.647 103.184C28.0203 102.737 28.5803 102.514 29.327 102.514C30.0737 102.514 30.6303 102.737 30.997 103.184C31.3703 103.63 31.557 104.27 31.557 105.104C31.557 105.937 31.3703 106.577 30.997 107.024C30.6303 107.47 30.0737 107.694 29.327 107.694ZM29.327 107.014C29.8137 107.014 30.1603 106.857 30.367 106.544C30.5803 106.23 30.687 105.75 30.687 105.104C30.687 104.457 30.5803 103.977 30.367 103.664C30.1603 103.35 29.8137 103.194 29.327 103.194C28.8403 103.194 28.4903 103.35 28.277 103.664C28.0703 103.977 27.967 104.457 27.967 105.104C27.967 105.75 28.0703 106.23 28.277 106.544C28.4903 106.857 28.8403 107.014 29.327 107.014ZM32.7088 100.404H33.5388V107.554H32.7088V100.404ZM36.9149 107.694C36.1682 107.694 35.6082 107.47 35.2349 107.024C34.8682 106.577 34.6849 105.937 34.6849 105.104C34.6849 104.27 34.8682 103.63 35.2349 103.184C35.6082 102.737 36.1682 102.514 36.9149 102.514C37.6616 102.514 38.2182 102.737 38.5849 103.184C38.9582 103.63 39.1449 104.27 39.1449 105.104C39.1449 105.937 38.9582 106.577 38.5849 107.024C38.2182 107.47 37.6616 107.694 36.9149 107.694ZM36.9149 107.014C37.4016 107.014 37.7482 106.857 37.9549 106.544C38.1682 106.23 38.2749 105.75 38.2749 105.104C38.2749 104.457 38.1682 103.977 37.9549 103.664C37.7482 103.35 37.4016 103.194 36.9149 103.194C36.4282 103.194 36.0782 103.35 35.8649 103.664C35.6582 103.977 35.5549 104.457 35.5549 105.104C35.5549 105.75 35.6582 106.23 35.8649 106.544C36.0782 106.857 36.4282 107.014 36.9149 107.014ZM44.0277 101.414H41.8477V100.714H47.1377L47.0577 101.414H44.9177V107.554H44.0277V101.414ZM47.6578 100.714H48.5778L50.4678 106.584H50.4878L52.2578 100.714H53.1378L50.9478 107.554H49.9578L47.6578 100.714Z" fill="#642A72"/>
<path d="M10.5607 124.936C9.28573 124.936 8.13722 124.759 7.1152 124.404L7.47948 122.598C7.92472 122.75 8.41549 122.876 8.9518 122.978C9.48811 123.069 9.95359 123.114 10.3482 123.114C11.0566 123.114 11.5726 123.013 11.8964 122.811C12.2304 122.608 12.3973 122.269 12.3973 121.794C12.3973 121.44 12.2405 121.176 11.9268 121.004C11.6232 120.832 11.1375 120.66 10.4697 120.488C9.78157 120.306 9.20984 120.114 8.75448 119.912C8.29912 119.709 7.90954 119.39 7.58573 118.955C7.26192 118.52 7.10002 117.928 7.10002 117.179C7.10002 116.167 7.45418 115.409 8.16252 114.903C8.87085 114.397 9.80686 114.144 10.9706 114.144C11.4765 114.144 11.9875 114.184 12.5036 114.265C13.0197 114.336 13.475 114.437 13.8697 114.569L13.5054 116.329C12.5947 116.087 11.7649 115.965 11.0161 115.965C10.4089 115.965 9.97383 116.061 9.71073 116.253C9.45776 116.446 9.33127 116.719 9.33127 117.073C9.33127 117.336 9.41222 117.554 9.57413 117.726C9.74615 117.888 9.95865 118.019 10.2116 118.12C10.4646 118.222 10.8289 118.338 11.3045 118.47C11.9926 118.652 12.5592 118.849 13.0045 119.062C13.4497 119.264 13.8292 119.583 14.1429 120.018C14.4667 120.453 14.6286 121.035 14.6286 121.763C14.6286 122.674 14.3402 123.403 13.7634 123.949C13.3991 124.293 12.959 124.546 12.4429 124.708C11.9369 124.86 11.3095 124.936 10.5607 124.936ZM20.2878 114.144H22.2155L17.6468 124.936H15.7191L20.2878 114.144ZM27.9087 123.175H29.6694V115.844H27.9846V114.371C28.3185 114.321 28.7131 114.28 29.1685 114.25C29.634 114.209 30.0438 114.189 30.398 114.189C30.9343 114.189 31.3087 114.265 31.5212 114.417C31.7337 114.569 31.8399 114.837 31.8399 115.221V123.175H33.3274V124.723H27.9087V123.175ZM37.0099 123.175H38.7706V115.844H37.0858V114.371C37.4197 114.321 37.8144 114.28 38.2697 114.25C38.7352 114.209 39.145 114.189 39.4992 114.189C40.0355 114.189 40.4099 114.265 40.6224 114.417C40.8349 114.569 40.9411 114.837 40.9411 115.221V123.175H42.4286V124.723H37.0099V123.175ZM45.3825 124.723C45.3421 124.612 45.3218 124.45 45.3218 124.237C45.3218 123.924 45.3674 123.645 45.4584 123.403C45.5495 123.16 45.7063 122.907 45.929 122.644L47.9477 120.185C48.5751 119.426 49.0052 118.849 49.2379 118.454C49.4706 118.05 49.587 117.645 49.587 117.24C49.587 116.795 49.4504 116.461 49.1772 116.238C48.8736 115.975 48.3474 115.844 47.5986 115.844C46.951 115.844 46.273 115.909 45.5647 116.041V114.432C45.8885 114.351 46.268 114.285 46.7031 114.235C47.1483 114.174 47.5733 114.144 47.9781 114.144C49.4049 114.144 50.4421 114.467 51.0897 115.115C51.5855 115.611 51.8334 116.284 51.8334 117.134C51.8334 117.771 51.6715 118.384 51.3477 118.97C51.0239 119.547 50.4471 120.291 49.6174 121.202L47.8111 123.175H52.0004V124.723H45.3825Z" fill="#642A72"/>
<path d="M55.6902 121.565C55.4656 121.565 55.2986 121.517 55.1893 121.419C55.08 121.322 55.0254 121.161 55.0254 120.937V120.827C55.0254 120.603 55.08 120.442 55.1893 120.345C55.2986 120.248 55.4656 120.199 55.6902 120.199H55.754C55.9786 120.199 56.1456 120.248 56.2549 120.345C56.3641 120.442 56.4188 120.603 56.4188 120.827V120.937C56.4188 121.161 56.3641 121.322 56.2549 121.419C56.1456 121.517 55.9786 121.565 55.754 121.565H55.6902ZM59.0349 121.565C58.6342 121.565 58.2061 121.526 57.7508 121.447V120.454C58.1029 120.515 58.4308 120.545 58.7344 120.545C59.044 120.545 59.2929 120.521 59.4811 120.472C59.6754 120.424 59.8333 120.339 59.9547 120.217C60.0883 120.084 60.1824 119.911 60.237 119.698C60.2977 119.486 60.3342 119.215 60.3463 118.888C60.152 118.991 59.9335 119.07 59.6906 119.124C59.4538 119.179 59.2231 119.206 58.9985 119.206C58.4399 119.206 58.0058 119.039 57.6961 118.705C57.3926 118.365 57.2408 117.886 57.2408 117.267C57.2408 116.568 57.429 116.031 57.8054 115.655C58.1819 115.278 58.7283 115.09 59.4447 115.09C60.2522 115.09 60.832 115.339 61.1842 115.837C61.5363 116.329 61.7124 117.063 61.7124 118.041C61.7124 119.425 61.4301 120.399 60.8654 120.964C60.659 121.17 60.407 121.322 60.1095 121.419C59.812 121.517 59.4538 121.565 59.0349 121.565ZM59.4538 118.223C59.5874 118.223 59.7392 118.214 59.9092 118.195C60.0852 118.177 60.237 118.156 60.3645 118.132V117.786C60.3645 117.179 60.2947 116.744 60.1551 116.483C60.0154 116.216 59.7695 116.083 59.4174 116.083C58.8285 116.083 58.534 116.462 58.534 117.221C58.534 117.61 58.6008 117.874 58.7344 118.013C58.874 118.153 59.1138 118.223 59.4538 118.223ZM65.0056 121.565C64.1617 121.565 63.5515 121.301 63.1751 120.773C62.8047 120.239 62.6196 119.425 62.6196 118.332C62.6196 117.239 62.8047 116.426 63.1751 115.891C63.5515 115.357 64.1617 115.09 65.0056 115.09C65.8496 115.09 66.4567 115.357 66.8271 115.891C67.2035 116.426 67.3917 117.239 67.3917 118.332C67.3917 119.425 67.2035 120.239 66.8271 120.773C66.4567 121.301 65.8496 121.565 65.0056 121.565ZM65.0056 120.518C65.2606 120.518 65.461 120.454 65.6067 120.327C65.7524 120.199 65.8587 119.977 65.9254 119.662C65.9983 119.346 66.0347 118.903 66.0347 118.332C66.0347 117.755 65.9983 117.303 65.9254 116.975C65.8587 116.641 65.7494 116.404 65.5976 116.265C65.4519 116.119 65.2546 116.046 65.0056 116.046C64.7567 116.046 64.5563 116.119 64.4046 116.265C64.2588 116.404 64.1496 116.641 64.0767 116.975C64.0099 117.303 63.9765 117.755 63.9765 118.332C63.9765 118.903 64.0099 119.346 64.0767 119.662C64.1496 119.977 64.2588 120.199 64.4046 120.327C64.5503 120.454 64.7506 120.518 65.0056 120.518Z" fill="#642A72"/>
<rect x="177.589" y="93" width="74.3751" height="40.4107" rx="5.86608" fill="#642A72"/>
<path d="M188.617 124.391C187.342 124.391 186.194 124.214 185.172 123.86L185.536 122.054C185.981 122.205 186.472 122.332 187.008 122.433C187.545 122.524 188.01 122.57 188.405 122.57C189.113 122.57 189.629 122.468 189.953 122.266C190.287 122.064 190.454 121.725 190.454 121.249C190.454 120.895 190.297 120.632 189.983 120.46C189.68 120.288 189.194 120.116 188.526 119.944C187.838 119.762 187.266 119.569 186.811 119.367C186.356 119.165 185.966 118.846 185.642 118.411C185.319 117.976 185.157 117.384 185.157 116.635C185.157 115.623 185.511 114.864 186.219 114.358C186.928 113.852 187.864 113.599 189.027 113.599C189.533 113.599 190.044 113.64 190.56 113.721C191.076 113.791 191.532 113.893 191.926 114.024L191.562 115.785C190.651 115.542 189.822 115.421 189.073 115.421C188.466 115.421 188.03 115.517 187.767 115.709C187.514 115.901 187.388 116.174 187.388 116.529C187.388 116.792 187.469 117.009 187.631 117.181C187.803 117.343 188.015 117.475 188.268 117.576C188.521 117.677 188.886 117.793 189.361 117.925C190.049 118.107 190.616 118.304 191.061 118.517C191.506 118.719 191.886 119.038 192.2 119.473C192.523 119.908 192.685 120.49 192.685 121.219C192.685 122.129 192.397 122.858 191.82 123.404C191.456 123.749 191.016 124.002 190.5 124.163C189.994 124.315 189.366 124.391 188.617 124.391ZM198.344 113.599H200.272L195.703 124.391H193.776L198.344 113.599ZM205.965 122.63H207.726V115.299H206.041V113.827C206.375 113.776 206.77 113.736 207.225 113.705C207.691 113.665 208.1 113.645 208.455 113.645C208.991 113.645 209.365 113.721 209.578 113.872C209.79 114.024 209.897 114.292 209.897 114.677V122.63H211.384V124.179H205.965V122.63ZM219.286 115.345H214.444V113.796H221.214C221.285 113.908 221.32 114.115 221.32 114.419C221.32 114.965 221.239 115.461 221.077 115.906L218.163 124.179H215.841L219.286 115.345ZM226.293 124.391C225.392 124.391 224.578 124.31 223.849 124.148V122.524C224.426 122.635 225.063 122.691 225.762 122.691C226.612 122.691 227.209 122.549 227.553 122.266C227.907 121.983 228.084 121.568 228.084 121.021C228.084 120.637 228.028 120.328 227.917 120.096C227.806 119.853 227.603 119.671 227.31 119.549C227.016 119.428 226.596 119.367 226.05 119.367H223.94C223.869 119.094 223.844 118.704 223.864 118.198L224.046 113.796H229.723V115.345H225.913L225.822 117.682H226.369C227.725 117.682 228.721 117.95 229.359 118.487C230.006 119.013 230.33 119.827 230.33 120.93C230.33 122.064 230.006 122.924 229.359 123.511C228.721 124.098 227.699 124.391 226.293 124.391Z" fill="white"/>
<path d="M233.868 120.535C233.644 120.535 233.477 120.487 233.367 120.389C233.258 120.292 233.203 120.131 233.203 119.907V119.797C233.203 119.573 233.258 119.412 233.367 119.315C233.477 119.218 233.644 119.169 233.868 119.169H233.932C234.157 119.169 234.324 119.218 234.433 119.315C234.542 119.412 234.597 119.573 234.597 119.797V119.907C234.597 120.131 234.542 120.292 234.433 120.389C234.324 120.487 234.157 120.535 233.932 120.535H233.868ZM237.696 120.535C237.216 120.535 236.812 120.462 236.484 120.317C236.157 120.171 235.908 119.97 235.738 119.715C235.574 119.46 235.492 119.172 235.492 118.85C235.492 118.152 235.841 117.621 236.539 117.257C236.242 117.068 236.026 116.859 235.892 116.628C235.765 116.397 235.701 116.124 235.701 115.808C235.701 115.456 235.783 115.15 235.947 114.889C236.117 114.622 236.354 114.418 236.657 114.278C236.961 114.133 237.313 114.06 237.714 114.06C238.321 114.06 238.798 114.203 239.144 114.488C239.496 114.773 239.672 115.156 239.672 115.635C239.672 115.921 239.59 116.188 239.426 116.437C239.268 116.686 239.053 116.895 238.779 117.065C239.204 117.278 239.505 117.508 239.681 117.757C239.863 118 239.954 118.313 239.954 118.695C239.954 119.272 239.754 119.725 239.353 120.052C238.959 120.374 238.406 120.535 237.696 120.535ZM237.905 116.655C238.087 116.516 238.23 116.37 238.333 116.218C238.436 116.06 238.488 115.906 238.488 115.754C238.488 115.541 238.418 115.371 238.279 115.244C238.145 115.11 237.954 115.043 237.705 115.043C237.48 115.043 237.292 115.101 237.14 115.217C236.994 115.326 236.922 115.484 236.922 115.69C236.922 115.872 236.985 116.033 237.113 116.173C237.24 116.306 237.459 116.446 237.769 116.592L237.905 116.655ZM237.714 119.524C238.011 119.524 238.242 119.457 238.406 119.324C238.576 119.184 238.661 119.008 238.661 118.796C238.661 118.607 238.597 118.447 238.47 118.313C238.342 118.173 238.102 118.022 237.75 117.858L237.35 117.675C237.167 117.833 237.025 118.003 236.922 118.185C236.824 118.368 236.776 118.553 236.776 118.741C236.776 118.984 236.858 119.175 237.022 119.315C237.186 119.454 237.416 119.524 237.714 119.524ZM243.184 120.535C242.34 120.535 241.73 120.271 241.353 119.743C240.983 119.208 240.798 118.395 240.798 117.302C240.798 116.209 240.983 115.396 241.353 114.861C241.73 114.327 242.34 114.06 243.184 114.06C244.028 114.06 244.635 114.327 245.005 114.861C245.382 115.396 245.57 116.209 245.57 117.302C245.57 118.395 245.382 119.208 245.005 119.743C244.635 120.271 244.028 120.535 243.184 120.535ZM243.184 119.488C243.439 119.488 243.639 119.424 243.785 119.297C243.931 119.169 244.037 118.947 244.104 118.632C244.176 118.316 244.213 117.873 244.213 117.302C244.213 116.725 244.176 116.273 244.104 115.945C244.037 115.611 243.927 115.374 243.776 115.235C243.63 115.089 243.433 115.016 243.184 115.016C242.935 115.016 242.734 115.089 242.583 115.235C242.437 115.374 242.328 115.611 242.255 115.945C242.188 116.273 242.155 116.725 242.155 117.302C242.155 117.873 242.188 118.316 242.255 118.632C242.328 118.947 242.437 119.169 242.583 119.297C242.728 119.424 242.929 119.488 243.184 119.488Z" fill="white"/>
<line opacity="0.5" x1="0.651786" y1="-0.651786" x2="54.9256" y2="-0.651786" transform="matrix(-0.960496 0.278294 -0.153551 -0.988141 241.865 112.167)" stroke="white" stroke-width="1.30357" stroke-linecap="round"/>
<line opacity="0.5" x1="0.651786" y1="-0.651786" x2="54.9256" y2="-0.651786" transform="matrix(0.960496 0.278294 0.153551 -0.988141 188.484 112.167)" stroke="white" stroke-width="1.30357" stroke-linecap="round"/>
<path d="M186.537 99.8657H188.497C188.99 99.8657 189.4 99.9124 189.727 100.006C190.053 100.099 190.313 100.246 190.507 100.446C190.84 100.779 191.007 101.276 191.007 101.936C191.007 102.669 190.82 103.222 190.447 103.596C190.06 103.969 189.477 104.156 188.697 104.156H187.427V106.706H186.537V99.8657ZM188.397 103.436C188.717 103.436 188.983 103.409 189.197 103.356C189.41 103.302 189.583 103.216 189.717 103.096C189.963 102.862 190.087 102.482 190.087 101.956C190.087 101.489 189.98 101.149 189.767 100.936C189.64 100.809 189.467 100.716 189.247 100.656C189.033 100.596 188.76 100.566 188.427 100.566H187.427V103.436H188.397ZM193.139 106.846C192.586 106.846 192.159 106.689 191.859 106.376C191.599 106.102 191.469 105.749 191.469 105.316C191.469 104.869 191.609 104.516 191.889 104.256C192.229 103.942 192.782 103.786 193.549 103.786H194.569V103.476C194.569 103.276 194.549 103.109 194.509 102.976C194.469 102.842 194.406 102.732 194.319 102.646C194.119 102.452 193.779 102.356 193.299 102.356C192.899 102.356 192.459 102.396 191.979 102.476L191.949 101.836C192.422 101.722 192.919 101.666 193.439 101.666C194.139 101.666 194.649 101.816 194.969 102.116C195.122 102.262 195.232 102.442 195.299 102.656C195.366 102.862 195.399 103.126 195.399 103.446V106.706H194.729L194.679 106.376C194.199 106.689 193.686 106.846 193.139 106.846ZM193.319 106.176C193.512 106.176 193.722 106.146 193.949 106.086C194.176 106.026 194.382 105.949 194.569 105.856V104.396H193.669C193.156 104.396 192.792 104.479 192.579 104.646C192.399 104.792 192.309 105.009 192.309 105.296C192.309 105.589 192.396 105.809 192.569 105.956C192.742 106.102 192.992 106.176 193.319 106.176ZM198.668 109.096C197.928 109.096 197.378 108.976 197.018 108.736C196.658 108.502 196.478 108.162 196.478 107.716C196.478 107.502 196.528 107.296 196.628 107.096C196.728 106.902 196.864 106.746 197.038 106.626C196.884 106.499 196.808 106.322 196.808 106.096C196.808 105.909 196.858 105.719 196.958 105.526C197.064 105.326 197.208 105.139 197.388 104.966C197.161 104.806 196.988 104.599 196.868 104.346C196.754 104.092 196.698 103.806 196.698 103.486C196.698 102.932 196.864 102.492 197.198 102.166C197.531 101.832 198.021 101.666 198.668 101.666C198.801 101.666 198.968 101.679 199.168 101.706L199.758 100.426C199.871 100.452 199.994 100.496 200.128 100.556C200.261 100.616 200.368 100.679 200.448 100.746L199.768 101.906C200.054 102.052 200.271 102.262 200.418 102.536C200.564 102.809 200.638 103.126 200.638 103.486C200.638 104.039 200.471 104.482 200.138 104.816C199.804 105.142 199.314 105.306 198.668 105.306C198.374 105.306 198.118 105.272 197.898 105.206C197.824 105.292 197.761 105.392 197.708 105.506C197.654 105.619 197.628 105.719 197.628 105.806C197.628 106.006 197.761 106.106 198.028 106.106H198.968C199.394 106.106 199.738 106.142 199.998 106.216C200.258 106.289 200.468 106.406 200.628 106.566C200.868 106.806 200.988 107.136 200.988 107.556C200.988 108.062 200.801 108.446 200.428 108.706C200.061 108.966 199.474 109.096 198.668 109.096ZM198.668 104.646C199.454 104.646 199.848 104.259 199.848 103.486C199.848 102.712 199.454 102.326 198.668 102.326C197.881 102.326 197.488 102.712 197.488 103.486C197.488 104.259 197.881 104.646 198.668 104.646ZM198.748 108.396C199.721 108.396 200.208 108.126 200.208 107.586C200.208 107.346 200.128 107.166 199.968 107.046C199.788 106.912 199.454 106.846 198.968 106.846H197.908C197.768 106.846 197.648 106.836 197.548 106.816C197.354 107.049 197.258 107.299 197.258 107.566C197.258 107.839 197.374 108.046 197.608 108.186C197.841 108.326 198.221 108.396 198.748 108.396ZM203.855 106.846C203.108 106.846 202.548 106.622 202.175 106.176C201.808 105.729 201.625 105.089 201.625 104.256C201.625 103.422 201.808 102.782 202.175 102.336C202.548 101.889 203.108 101.666 203.855 101.666C204.602 101.666 205.158 101.889 205.525 102.336C205.898 102.782 206.085 103.422 206.085 104.256C206.085 105.089 205.898 105.729 205.525 106.176C205.158 106.622 204.602 106.846 203.855 106.846ZM203.855 106.166C204.342 106.166 204.688 106.009 204.895 105.696C205.108 105.382 205.215 104.902 205.215 104.256C205.215 103.609 205.108 103.129 204.895 102.816C204.688 102.502 204.342 102.346 203.855 102.346C203.368 102.346 203.018 102.502 202.805 102.816C202.598 103.129 202.495 103.609 202.495 104.256C202.495 104.902 202.598 105.382 202.805 105.696C203.018 106.009 203.368 106.166 203.855 106.166ZM209.268 101.806H209.958L209.998 102.166C210.531 101.832 211.058 101.666 211.578 101.666C212.185 101.666 212.628 101.849 212.908 102.216C213.515 101.849 214.101 101.666 214.668 101.666C215.208 101.666 215.618 101.809 215.898 102.096C216.171 102.369 216.308 102.796 216.308 103.376V106.706H215.478V103.476C215.478 103.269 215.458 103.102 215.418 102.976C215.385 102.842 215.325 102.732 215.238 102.646C215.071 102.479 214.815 102.396 214.468 102.396C214.268 102.396 214.051 102.426 213.818 102.486C213.585 102.539 213.361 102.619 213.148 102.726C213.195 102.932 213.218 103.149 213.218 103.376V106.706H212.388V103.476C212.388 103.269 212.368 103.102 212.328 102.976C212.295 102.842 212.235 102.732 212.148 102.646C211.981 102.479 211.725 102.396 211.378 102.396C210.971 102.396 210.545 102.502 210.098 102.716V106.706H209.268V101.806ZM219.816 106.846C219.043 106.846 218.459 106.649 218.066 106.256C217.639 105.829 217.426 105.166 217.426 104.266C217.426 103.419 217.616 102.776 217.996 102.336C218.383 101.889 218.899 101.666 219.546 101.666C220.219 101.666 220.726 101.892 221.066 102.346C221.406 102.792 221.576 103.426 221.576 104.246V104.436C221.576 104.509 221.536 104.546 221.456 104.546H218.296C218.296 105.112 218.439 105.529 218.726 105.796C218.859 105.922 219.026 106.016 219.226 106.076C219.426 106.136 219.676 106.166 219.976 106.166C220.369 106.166 220.773 106.122 221.186 106.036L221.266 106.656C221.059 106.716 220.823 106.762 220.556 106.796C220.296 106.829 220.049 106.846 219.816 106.846ZM220.756 103.936C220.743 103.442 220.636 103.052 220.436 102.766C220.236 102.479 219.939 102.336 219.546 102.336C219.139 102.336 218.829 102.476 218.616 102.756C218.409 103.036 218.303 103.429 218.296 103.936H220.756ZM222.744 101.806H223.434L223.474 102.166C223.734 102.006 224.011 101.882 224.304 101.796C224.598 101.709 224.884 101.666 225.164 101.666C225.704 101.666 226.114 101.809 226.394 102.096C226.668 102.369 226.804 102.796 226.804 103.376V106.706H225.974V103.476C225.974 103.269 225.954 103.102 225.914 102.976C225.881 102.842 225.821 102.732 225.734 102.646C225.568 102.479 225.304 102.396 224.944 102.396C224.724 102.396 224.491 102.426 224.244 102.486C223.998 102.546 223.774 102.622 223.574 102.716V106.706H222.744V101.806ZM229.474 106.846C229.241 106.846 228.987 106.826 228.714 106.786C228.447 106.746 228.221 106.696 228.034 106.636L228.074 105.996C228.274 106.049 228.497 106.092 228.744 106.126C228.997 106.159 229.231 106.176 229.444 106.176C229.844 106.176 230.147 106.112 230.354 105.986C230.567 105.852 230.674 105.659 230.674 105.406C230.674 105.192 230.584 105.032 230.404 104.926C230.224 104.819 229.941 104.706 229.554 104.586C229.207 104.472 228.927 104.369 228.714 104.276C228.507 104.176 228.327 104.029 228.174 103.836C228.021 103.642 227.944 103.389 227.944 103.076C227.944 102.616 228.104 102.266 228.424 102.026C228.751 101.786 229.184 101.666 229.724 101.666C229.964 101.666 230.211 101.686 230.464 101.726C230.724 101.766 230.954 101.816 231.154 101.876L231.084 102.486C230.617 102.379 230.187 102.326 229.794 102.326C229.081 102.326 228.724 102.556 228.724 103.016C228.724 103.236 228.814 103.402 228.994 103.516C229.181 103.629 229.467 103.746 229.854 103.866C230.187 103.966 230.461 104.066 230.674 104.166C230.894 104.266 231.077 104.412 231.224 104.606C231.377 104.792 231.454 105.039 231.454 105.346C231.454 105.846 231.277 106.222 230.924 106.476C230.571 106.722 230.087 106.846 229.474 106.846ZM234.247 106.846C233.707 106.846 233.297 106.702 233.017 106.416C232.744 106.142 232.607 105.716 232.607 105.136V101.806H233.437V105.036C233.437 105.242 233.454 105.412 233.487 105.546C233.527 105.672 233.591 105.779 233.677 105.866C233.844 106.032 234.107 106.116 234.467 106.116C234.681 106.116 234.907 106.089 235.147 106.036C235.387 105.976 235.611 105.896 235.817 105.796V101.806H236.647V106.706H235.957L235.917 106.346C235.657 106.506 235.384 106.629 235.097 106.716C234.811 106.802 234.527 106.846 234.247 106.846ZM239.457 106.846C238.904 106.846 238.477 106.689 238.177 106.376C237.917 106.102 237.787 105.749 237.787 105.316C237.787 104.869 237.927 104.516 238.207 104.256C238.547 103.942 239.101 103.786 239.867 103.786H240.887V103.476C240.887 103.276 240.867 103.109 240.827 102.976C240.787 102.842 240.724 102.732 240.637 102.646C240.437 102.452 240.097 102.356 239.617 102.356C239.217 102.356 238.777 102.396 238.297 102.476L238.267 101.836C238.741 101.722 239.237 101.666 239.757 101.666C240.457 101.666 240.967 101.816 241.287 102.116C241.441 102.262 241.551 102.442 241.617 102.656C241.684 102.862 241.717 103.126 241.717 103.446V106.706H241.047L240.997 106.376C240.517 106.689 240.004 106.846 239.457 106.846ZM239.637 106.176C239.831 106.176 240.041 106.146 240.267 106.086C240.494 106.026 240.701 105.949 240.887 105.856V104.396H239.987C239.474 104.396 239.111 104.479 238.897 104.646C238.717 104.792 238.627 105.009 238.627 105.296C238.627 105.589 238.714 105.809 238.887 105.956C239.061 106.102 239.311 106.176 239.637 106.176ZM243.106 99.5557H243.936V106.706H243.106V99.5557Z" fill="white"/>
<rect x="88.7947" y="93" width="74.3751" height="40.4107" rx="5.86608" fill="#A13EA1"/>
<path d="M102.698 125.811C101.423 125.811 100.274 125.634 99.2522 125.28L99.6165 123.473C100.062 123.625 100.553 123.752 101.089 123.853C101.625 123.944 102.091 123.989 102.485 123.989C103.194 123.989 103.71 123.888 104.034 123.686C104.367 123.483 104.534 123.144 104.534 122.669C104.534 122.315 104.378 122.052 104.064 121.88C103.76 121.707 103.275 121.535 102.607 121.363C101.919 121.181 101.347 120.989 100.892 120.787C100.436 120.584 100.047 120.266 99.7228 119.83C99.399 119.395 99.2371 118.803 99.2371 118.055C99.2371 117.043 99.5912 116.284 100.3 115.778C101.008 115.272 101.944 115.019 103.108 115.019C103.614 115.019 104.125 115.059 104.641 115.14C105.157 115.211 105.612 115.312 106.007 115.444L105.642 117.205C104.732 116.962 103.902 116.84 103.153 116.84C102.546 116.84 102.111 116.936 101.848 117.129C101.595 117.321 101.468 117.594 101.468 117.948C101.468 118.211 101.549 118.429 101.711 118.601C101.883 118.763 102.096 118.894 102.349 118.996C102.602 119.097 102.966 119.213 103.442 119.345C104.13 119.527 104.696 119.724 105.142 119.937C105.587 120.139 105.966 120.458 106.28 120.893C106.604 121.328 106.766 121.91 106.766 122.638C106.766 123.549 106.477 124.278 105.9 124.824C105.536 125.168 105.096 125.421 104.58 125.583C104.074 125.735 103.447 125.811 102.698 125.811ZM112.425 115.019H114.353L109.784 125.811H107.856L112.425 115.019ZM122.884 125.811C121.538 125.811 120.572 125.401 119.985 124.581C119.398 123.752 119.105 122.522 119.105 120.893C119.105 118.586 119.575 116.962 120.516 116.021C120.86 115.677 121.28 115.424 121.776 115.262C122.272 115.1 122.869 115.019 123.567 115.019C124.235 115.019 124.948 115.085 125.707 115.216V116.871C125.12 116.769 124.574 116.719 124.068 116.719C123.552 116.719 123.132 116.759 122.808 116.84C122.495 116.921 122.236 117.063 122.034 117.265C121.811 117.488 121.65 117.776 121.548 118.13C121.457 118.485 121.402 118.935 121.381 119.481C121.705 119.309 122.064 119.178 122.459 119.087C122.864 118.996 123.253 118.95 123.628 118.95C124.559 118.95 125.277 119.233 125.783 119.8C126.299 120.357 126.557 121.151 126.557 122.183C126.557 123.347 126.244 124.242 125.616 124.87C124.989 125.497 124.078 125.811 122.884 125.811ZM122.93 124.156C123.911 124.156 124.402 123.524 124.402 122.259C124.402 121.611 124.286 121.171 124.053 120.938C123.83 120.706 123.436 120.589 122.869 120.589C122.646 120.589 122.388 120.605 122.095 120.635C121.811 120.665 121.564 120.701 121.351 120.741V121.318C121.351 122.33 121.467 123.058 121.7 123.504C121.933 123.939 122.343 124.156 122.93 124.156ZM128.418 125.598C128.378 125.487 128.358 125.325 128.358 125.113C128.358 124.799 128.403 124.521 128.494 124.278C128.585 124.035 128.742 123.782 128.965 123.519L130.984 121.06C131.611 120.301 132.041 119.724 132.274 119.33C132.506 118.925 132.623 118.52 132.623 118.115C132.623 117.67 132.486 117.336 132.213 117.113C131.909 116.85 131.383 116.719 130.634 116.719C129.987 116.719 129.309 116.785 128.601 116.916V115.307C128.924 115.226 129.304 115.16 129.739 115.11C130.184 115.049 130.609 115.019 131.014 115.019C132.441 115.019 133.478 115.343 134.126 115.99C134.621 116.486 134.869 117.159 134.869 118.009C134.869 118.646 134.707 119.259 134.384 119.846C134.06 120.422 133.483 121.166 132.653 122.077L130.847 124.05H135.036V125.598H128.418Z" fill="white"/>
<path d="M138.726 122.226C138.501 122.226 138.334 122.177 138.225 122.08C138.116 121.983 138.061 121.822 138.061 121.597V121.488C138.061 121.263 138.116 121.103 138.225 121.005C138.334 120.908 138.501 120.86 138.726 120.86H138.79C139.014 120.86 139.181 120.908 139.291 121.005C139.4 121.103 139.455 121.263 139.455 121.488V121.597C139.455 121.822 139.4 121.983 139.291 122.08C139.181 122.177 139.014 122.226 138.79 122.226H138.726ZM142.071 122.226C141.67 122.226 141.242 122.186 140.787 122.107V121.115C141.139 121.175 141.467 121.206 141.77 121.206C142.08 121.206 142.329 121.181 142.517 121.133C142.711 121.084 142.869 120.999 142.991 120.878C143.124 120.744 143.218 120.571 143.273 120.359C143.334 120.146 143.37 119.876 143.382 119.548C143.188 119.651 142.969 119.73 142.726 119.785C142.49 119.84 142.259 119.867 142.034 119.867C141.476 119.867 141.042 119.7 140.732 119.366C140.428 119.026 140.277 118.546 140.277 117.927C140.277 117.229 140.465 116.692 140.841 116.315C141.218 115.939 141.764 115.751 142.481 115.751C143.288 115.751 143.868 116 144.22 116.497C144.572 116.989 144.748 117.724 144.748 118.701C144.748 120.086 144.466 121.06 143.901 121.625C143.695 121.831 143.443 121.983 143.145 122.08C142.848 122.177 142.49 122.226 142.071 122.226ZM142.49 118.883C142.623 118.883 142.775 118.874 142.945 118.856C143.121 118.838 143.273 118.817 143.4 118.792V118.446C143.4 117.839 143.331 117.405 143.191 117.144C143.051 116.877 142.805 116.743 142.453 116.743C141.864 116.743 141.57 117.123 141.57 117.882C141.57 118.27 141.637 118.534 141.77 118.674C141.91 118.814 142.15 118.883 142.49 118.883ZM148.041 122.226C147.198 122.226 146.587 121.962 146.211 121.433C145.841 120.899 145.655 120.086 145.655 118.993C145.655 117.9 145.841 117.086 146.211 116.552C146.587 116.018 147.198 115.751 148.041 115.751C148.885 115.751 149.493 116.018 149.863 116.552C150.239 117.086 150.428 117.9 150.428 118.993C150.428 120.086 150.239 120.899 149.863 121.433C149.493 121.962 148.885 122.226 148.041 122.226ZM148.041 121.178C148.296 121.178 148.497 121.115 148.643 120.987C148.788 120.86 148.894 120.638 148.961 120.322C149.034 120.007 149.071 119.563 149.071 118.993C149.071 118.416 149.034 117.964 148.961 117.636C148.894 117.302 148.785 117.065 148.633 116.925C148.488 116.78 148.29 116.707 148.041 116.707C147.793 116.707 147.592 116.78 147.44 116.925C147.295 117.065 147.185 117.302 147.113 117.636C147.046 117.964 147.012 118.416 147.012 118.993C147.012 119.563 147.046 120.007 147.113 120.322C147.185 120.638 147.295 120.86 147.44 120.987C147.586 121.115 147.786 121.178 148.041 121.178Z" fill="white"/>
<path d="M100.823 107.81C100.496 107.81 100.153 107.78 99.7926 107.72C99.4392 107.66 99.1359 107.58 98.8826 107.48L99.0326 106.8C99.6592 106.98 100.229 107.07 100.743 107.07C101.283 107.07 101.686 106.966 101.953 106.76C102.199 106.566 102.323 106.29 102.323 105.93C102.323 105.683 102.253 105.476 102.113 105.31C101.979 105.143 101.809 105.006 101.603 104.9C101.403 104.793 101.126 104.673 100.773 104.54C100.353 104.386 100.013 104.24 99.7526 104.1C99.4926 103.953 99.2692 103.753 99.0826 103.5C98.9026 103.246 98.8126 102.923 98.8126 102.53C98.8126 101.936 99.0159 101.483 99.4226 101.17C99.8292 100.856 100.383 100.7 101.083 100.7C101.376 100.7 101.669 100.723 101.963 100.77C102.256 100.816 102.523 100.88 102.763 100.96L102.633 101.64C102.119 101.506 101.626 101.44 101.153 101.44C100.153 101.44 99.6526 101.783 99.6526 102.47C99.6526 102.69 99.7159 102.876 99.8426 103.03C99.9759 103.183 100.139 103.31 100.333 103.41C100.533 103.51 100.803 103.626 101.143 103.76C101.576 103.926 101.926 104.083 102.193 104.23C102.466 104.376 102.696 104.583 102.883 104.85C103.076 105.11 103.173 105.44 103.173 105.84C103.173 106.426 102.993 106.89 102.633 107.23C102.226 107.616 101.623 107.81 100.823 107.81ZM106.382 107.81C105.636 107.81 105.076 107.586 104.702 107.14C104.336 106.693 104.152 106.053 104.152 105.22C104.152 104.386 104.336 103.746 104.702 103.3C105.076 102.853 105.636 102.63 106.382 102.63C107.129 102.63 107.686 102.853 108.052 103.3C108.426 103.746 108.612 104.386 108.612 105.22C108.612 106.053 108.426 106.693 108.052 107.14C107.686 107.586 107.129 107.81 106.382 107.81ZM106.382 107.13C106.869 107.13 107.216 106.973 107.422 106.66C107.636 106.346 107.742 105.866 107.742 105.22C107.742 104.573 107.636 104.093 107.422 103.78C107.216 103.466 106.869 103.31 106.382 103.31C105.896 103.31 105.546 103.466 105.332 103.78C105.126 104.093 105.022 104.573 105.022 105.22C105.022 105.866 105.126 106.346 105.332 106.66C105.546 106.973 105.896 107.13 106.382 107.13ZM109.764 100.52H110.594V107.67H109.764V100.52ZM113.97 107.81C113.223 107.81 112.663 107.586 112.29 107.14C111.923 106.693 111.74 106.053 111.74 105.22C111.74 104.386 111.923 103.746 112.29 103.3C112.663 102.853 113.223 102.63 113.97 102.63C114.717 102.63 115.273 102.853 115.64 103.3C116.013 103.746 116.2 104.386 116.2 105.22C116.2 106.053 116.013 106.693 115.64 107.14C115.273 107.586 114.717 107.81 113.97 107.81ZM113.97 107.13C114.457 107.13 114.803 106.973 115.01 106.66C115.223 106.346 115.33 105.866 115.33 105.22C115.33 104.573 115.223 104.093 115.01 103.78C114.803 103.466 114.457 103.31 113.97 103.31C113.483 103.31 113.133 103.466 112.92 103.78C112.713 104.093 112.61 104.573 112.61 105.22C112.61 105.866 112.713 106.346 112.92 106.66C113.133 106.973 113.483 107.13 113.97 107.13ZM119.543 100.83H120.433V107.67H119.543V100.83ZM121.99 102.77H122.68L122.72 103.13C122.98 102.97 123.257 102.846 123.55 102.76C123.844 102.673 124.13 102.63 124.41 102.63C124.95 102.63 125.36 102.773 125.64 103.06C125.914 103.333 126.05 103.76 126.05 104.34V107.67H125.22V104.44C125.22 104.233 125.2 104.066 125.16 103.94C125.127 103.806 125.067 103.696 124.98 103.61C124.814 103.443 124.55 103.36 124.19 103.36C123.97 103.36 123.737 103.39 123.49 103.45C123.244 103.51 123.02 103.586 122.82 103.68V107.67H121.99V102.77ZM129.13 107.81C128.89 107.81 128.673 107.776 128.48 107.71C128.293 107.65 128.147 107.556 128.04 107.43C127.92 107.29 127.837 107.13 127.79 106.95C127.75 106.77 127.73 106.523 127.73 106.21V103.38H126.84V102.91L127.73 102.78V101.62C128.03 101.52 128.307 101.47 128.56 101.47V102.77H129.85V103.38H128.56V106.1C128.56 106.346 128.57 106.533 128.59 106.66C128.617 106.786 128.663 106.886 128.73 106.96C128.843 107.086 129.053 107.15 129.36 107.15C129.6 107.15 129.847 107.123 130.1 107.07L130.14 107.68C129.82 107.766 129.483 107.81 129.13 107.81ZM133.212 107.81C132.439 107.81 131.856 107.613 131.462 107.22C131.036 106.793 130.822 106.13 130.822 105.23C130.822 104.383 131.012 103.74 131.392 103.3C131.779 102.853 132.296 102.63 132.942 102.63C133.616 102.63 134.122 102.856 134.462 103.31C134.802 103.756 134.972 104.39 134.972 105.21V105.4C134.972 105.473 134.932 105.51 134.852 105.51H131.692C131.692 106.076 131.836 106.493 132.122 106.76C132.256 106.886 132.422 106.98 132.622 107.04C132.822 107.1 133.072 107.13 133.372 107.13C133.766 107.13 134.169 107.086 134.582 107L134.662 107.62C134.456 107.68 134.219 107.726 133.952 107.76C133.692 107.793 133.446 107.81 133.212 107.81ZM134.152 104.9C134.139 104.406 134.032 104.016 133.832 103.73C133.632 103.443 133.336 103.3 132.942 103.3C132.536 103.3 132.226 103.44 132.012 103.72C131.806 104 131.699 104.393 131.692 104.9H134.152ZM136.141 102.77H136.831L136.881 103.19C137.327 102.816 137.791 102.63 138.271 102.63C138.371 102.63 138.477 102.64 138.591 102.66V103.4C138.444 103.386 138.301 103.38 138.161 103.38C137.721 103.38 137.324 103.49 136.971 103.71V107.67H136.141V102.77ZM139.49 102.77H140.18L140.22 103.13C140.48 102.97 140.757 102.846 141.05 102.76C141.344 102.673 141.63 102.63 141.91 102.63C142.45 102.63 142.86 102.773 143.14 103.06C143.414 103.333 143.55 103.76 143.55 104.34V107.67H142.72V104.44C142.72 104.233 142.7 104.066 142.66 103.94C142.627 103.806 142.567 103.696 142.48 103.61C142.314 103.443 142.05 103.36 141.69 103.36C141.47 103.36 141.237 103.39 140.99 103.45C140.744 103.51 140.52 103.586 140.32 103.68V107.67H139.49V102.77ZM147.06 107.81C146.287 107.81 145.703 107.613 145.31 107.22C144.883 106.793 144.67 106.13 144.67 105.23C144.67 104.383 144.86 103.74 145.24 103.3C145.627 102.853 146.143 102.63 146.79 102.63C147.463 102.63 147.97 102.856 148.31 103.31C148.65 103.756 148.82 104.39 148.82 105.21V105.4C148.82 105.473 148.78 105.51 148.7 105.51H145.54C145.54 106.076 145.683 106.493 145.97 106.76C146.103 106.886 146.27 106.98 146.47 107.04C146.67 107.1 146.92 107.13 147.22 107.13C147.613 107.13 148.017 107.086 148.43 107L148.51 107.62C148.303 107.68 148.067 107.726 147.8 107.76C147.54 107.793 147.293 107.81 147.06 107.81ZM148 104.9C147.987 104.406 147.88 104.016 147.68 103.73C147.48 103.443 147.183 103.3 146.79 103.3C146.383 103.3 146.073 103.44 145.86 103.72C145.653 104 145.547 104.393 145.54 104.9H148ZM151.688 107.81C151.448 107.81 151.232 107.776 151.038 107.71C150.852 107.65 150.705 107.556 150.598 107.43C150.478 107.29 150.395 107.13 150.348 106.95C150.308 106.77 150.288 106.523 150.288 106.21V103.38H149.398V102.91L150.288 102.78V101.62C150.588 101.52 150.865 101.47 151.118 101.47V102.77H152.408V103.38H151.118V106.1C151.118 106.346 151.128 106.533 151.148 106.66C151.175 106.786 151.222 106.886 151.288 106.96C151.402 107.086 151.612 107.15 151.918 107.15C152.158 107.15 152.405 107.123 152.658 107.07L152.698 107.68C152.378 107.766 152.042 107.81 151.688 107.81Z" fill="white"/>
</svg>
