<svg width="135" height="115" viewBox="0 0 135 115" fill="none" xmlns="http://www.w3.org/2000/svg">
<path opacity="0.3" d="M5 23C5 19.134 8.13401 16 12 16H123C126.314 16 129 18.6863 129 22V106C129 107.657 127.657 109 126 109H11C7.68629 109 5 106.314 5 103V23Z" fill="black"/>
<path d="M30.2187 73.3716H32.0907V81.5796H30.2187V73.3716ZM33.8861 73.3716H35.2661L39.1541 78.6276V73.3716H40.7981V81.5796H39.2981L35.5301 76.5996V81.5796H33.8861V73.3716ZM44.9937 81.7476C43.9857 81.7476 43.0777 81.6076 42.2697 81.3276L42.5577 79.8996C42.9097 80.0196 43.2977 80.1196 43.7217 80.1996C44.1457 80.2716 44.5137 80.3076 44.8257 80.3076C45.3857 80.3076 45.7937 80.2276 46.0497 80.0676C46.3137 79.9076 46.4457 79.6396 46.4457 79.2636C46.4457 78.9836 46.3217 78.7756 46.0737 78.6396C45.8337 78.5036 45.4497 78.3676 44.9217 78.2316C44.3777 78.0876 43.9257 77.9356 43.5657 77.7756C43.2057 77.6156 42.8977 77.3636 42.6417 77.0196C42.3857 76.6756 42.2577 76.2076 42.2577 75.6156C42.2577 74.8156 42.5377 74.2156 43.0977 73.8156C43.6577 73.4156 44.3977 73.2156 45.3177 73.2156C45.7177 73.2156 46.1217 73.2476 46.5297 73.3116C46.9377 73.3676 47.2977 73.4476 47.6097 73.5516L47.3217 74.9436C46.6017 74.7516 45.9457 74.6556 45.3537 74.6556C44.8737 74.6556 44.5297 74.7316 44.3217 74.8836C44.1217 75.0356 44.0217 75.2516 44.0217 75.5316C44.0217 75.7396 44.0857 75.9116 44.2137 76.0476C44.3497 76.1756 44.5177 76.2796 44.7177 76.3596C44.9177 76.4396 45.2057 76.5316 45.5817 76.6356C46.1257 76.7796 46.5737 76.9356 46.9257 77.1036C47.2777 77.2636 47.5777 77.5156 47.8257 77.8596C48.0817 78.2036 48.2097 78.6636 48.2097 79.2396C48.2097 79.9596 47.9817 80.5356 47.5257 80.9676C47.2377 81.2396 46.8897 81.4396 46.4817 81.5676C46.0817 81.6876 45.5857 81.7476 44.9937 81.7476ZM51.2844 74.7276H48.7404V73.3716H55.7844L55.6404 74.7276H53.1564V81.5796H51.2844V74.7276ZM58.1772 73.3716H60.2412L63.2052 81.5796H61.2012L60.5172 79.5156H57.8532L57.2172 81.5796H55.4292L58.1772 73.3716ZM60.0612 78.1596L59.1612 75.4236H59.1372L58.2852 78.1596H60.0612ZM64.1557 73.3716H66.0277V80.2236H69.6637V81.5796H64.1557V73.3716ZM73.0483 73.3716H75.1123L78.0763 81.5796H76.0723L75.3883 79.5156H72.7243L72.0883 81.5796H70.3003L73.0483 73.3716ZM74.9323 78.1596L74.0323 75.4236H74.0083L73.1563 78.1596H74.9323ZM82.5804 81.7476C81.8684 81.7476 81.2724 81.6676 80.7924 81.5076C80.3124 81.3396 79.9164 81.0876 79.6044 80.7516C79.2604 80.3836 79.0084 79.9356 78.8484 79.4076C78.6884 78.8716 78.6084 78.2396 78.6084 77.5116C78.6084 76.1676 78.9324 75.1156 79.5804 74.3556C80.2284 73.5956 81.2284 73.2156 82.5804 73.2156C82.9324 73.2156 83.3124 73.2516 83.7204 73.3236C84.1284 73.3956 84.4644 73.4836 84.7284 73.5876L84.4884 74.9556C83.8084 74.7636 83.2204 74.6676 82.7244 74.6676C81.9004 74.6676 81.3324 74.9076 81.0204 75.3876C80.7084 75.8676 80.5524 76.5596 80.5524 77.4636C80.5524 78.5196 80.7484 79.2676 81.1404 79.7076C81.3244 79.9156 81.5564 80.0676 81.8364 80.1636C82.1164 80.2516 82.4844 80.2956 82.9404 80.2956C83.1404 80.2956 83.3804 80.2796 83.6604 80.2476C83.9484 80.2156 84.2124 80.1756 84.4524 80.1276L84.6444 81.4956C84.3964 81.5676 84.0724 81.6276 83.6724 81.6756C83.2804 81.7236 82.9164 81.7476 82.5804 81.7476ZM86.0469 73.3716H87.9189V81.5796H86.0469V73.3716ZM93.0023 81.7476C91.7623 81.7476 90.8463 81.3916 90.2543 80.6796C89.6623 79.9596 89.3663 78.8956 89.3663 77.4876C89.3663 76.0796 89.6623 75.0156 90.2543 74.2956C90.8543 73.5756 91.7703 73.2156 93.0023 73.2156C94.2343 73.2156 95.1463 73.5756 95.7383 74.2956C96.3383 75.0156 96.6383 76.0796 96.6383 77.4876C96.6383 78.8956 96.3423 79.9596 95.7503 80.6796C95.1583 81.3916 94.2423 81.7476 93.0023 81.7476ZM93.0023 80.2836C93.6103 80.2836 94.0423 80.0676 94.2983 79.6356C94.5623 79.1956 94.6943 78.4796 94.6943 77.4876C94.6943 76.4956 94.5623 75.7796 94.2983 75.3396C94.0343 74.8996 93.6023 74.6796 93.0023 74.6796C92.4023 74.6796 91.9703 74.8996 91.7063 75.3396C91.4423 75.7796 91.3103 76.4956 91.3103 77.4876C91.3103 78.4796 91.4383 79.1956 91.6943 79.6356C91.9583 80.0676 92.3943 80.2836 93.0023 80.2836ZM91.4783 71.7276L93.6743 69.6876L94.5143 70.8276L92.0783 72.4716L91.4783 71.7276ZM98.0697 73.3716H99.4497L103.338 78.6276V73.3716H104.982V81.5796H103.482L99.7137 76.5996V81.5796H98.0697V73.3716ZM52.8081 91.7476C51.4001 91.7476 50.3921 91.3876 49.7841 90.6676C49.1761 89.9476 48.8721 88.8996 48.8721 87.5236C48.8721 86.1956 49.2241 85.1476 49.9281 84.3796C50.6321 83.6036 51.6641 83.2156 53.0241 83.2156C53.4321 83.2156 53.8521 83.2556 54.2841 83.3356C54.7241 83.4076 55.0761 83.4996 55.3401 83.6116L55.1001 84.9796C54.3961 84.7796 53.7481 84.6796 53.1561 84.6796C52.3481 84.6796 51.7561 84.9116 51.3801 85.3756C51.0041 85.8396 50.8161 86.5316 50.8161 87.4516C50.8161 88.4596 50.9761 89.1876 51.2961 89.6356C51.6081 90.0756 52.1361 90.2956 52.8801 90.2956C53.2081 90.2956 53.5401 90.2676 53.8761 90.2116V88.4836H52.7241V87.1396H55.7361V91.3276C55.3441 91.4476 54.8681 91.5476 54.3081 91.6276C53.7561 91.7076 53.2561 91.7476 52.8081 91.7476ZM57.2709 83.3716H60.0909C60.7709 83.3716 61.3149 83.4196 61.7229 83.5156C62.1309 83.6116 62.4669 83.7836 62.7309 84.0316C63.1869 84.4636 63.4149 85.0916 63.4149 85.9156C63.4149 86.4836 63.2949 86.9796 63.0549 87.4036C62.8229 87.8196 62.4789 88.1356 62.0229 88.3516L63.7989 91.5796H61.6869L60.1749 88.6036H59.1429V91.5796H57.2709V83.3716ZM59.9709 87.2476C60.2829 87.2476 60.5309 87.2276 60.7149 87.1876C60.8989 87.1396 61.0509 87.0636 61.1709 86.9596C61.4029 86.7596 61.5189 86.4196 61.5189 85.9396C61.5189 85.5236 61.4229 85.2196 61.2309 85.0276C61.1189 84.9156 60.9629 84.8396 60.7629 84.7996C60.5629 84.7516 60.3029 84.7276 59.9829 84.7276H59.1429V87.2476H59.9709ZM66.9722 83.3716H69.0362L72.0002 91.5796H69.9962L69.3122 89.5156H66.6482L66.0122 91.5796H64.2242L66.9722 83.3716ZM68.8562 88.1596L67.9562 85.4236H67.9322L67.0802 88.1596H68.8562ZM74.1769 84.7276H71.6329V83.3716H78.6769L78.5329 84.7276H76.0489V91.5796H74.1769V84.7276ZM79.6777 83.3716H81.5497V91.5796H79.6777V83.3716ZM85.7691 91.7476C84.7611 91.7476 83.8531 91.6076 83.0451 91.3276L83.3331 89.8996C83.6851 90.0196 84.0731 90.1196 84.4971 90.1996C84.9211 90.2716 85.2891 90.3076 85.6011 90.3076C86.1611 90.3076 86.5691 90.2276 86.8251 90.0676C87.0891 89.9076 87.2211 89.6396 87.2211 89.2636C87.2211 88.9836 87.0971 88.7756 86.8491 88.6396C86.6091 88.5036 86.2251 88.3676 85.6971 88.2316C85.1531 88.0876 84.7011 87.9356 84.3411 87.7756C83.9811 87.6156 83.6731 87.3636 83.4171 87.0196C83.1611 86.6756 83.0331 86.2076 83.0331 85.6156C83.0331 84.8156 83.3131 84.2156 83.8731 83.8156C84.4331 83.4156 85.1731 83.2156 86.0931 83.2156C86.4931 83.2156 86.8971 83.2476 87.3051 83.3116C87.7131 83.3676 88.0731 83.4476 88.3851 83.5516L88.0971 84.9436C87.3771 84.7516 86.7211 84.6556 86.1291 84.6556C85.6491 84.6556 85.3051 84.7316 85.0971 84.8836C84.8971 85.0356 84.7971 85.2516 84.7971 85.5316C84.7971 85.7396 84.8611 85.9116 84.9891 86.0476C85.1251 86.1756 85.2931 86.2796 85.4931 86.3596C85.6931 86.4396 85.9811 86.5316 86.3571 86.6356C86.9011 86.7796 87.3491 86.9356 87.7011 87.1036C88.0531 87.2636 88.3531 87.5156 88.6011 87.8596C88.8571 88.2036 88.9851 88.6636 88.9851 89.2396C88.9851 89.9596 88.7571 90.5356 88.3011 90.9676C88.0131 91.2396 87.6651 91.4396 87.2571 91.5676C86.8571 91.6876 86.3611 91.7476 85.7691 91.7476Z" fill="white"/>
<path d="M35.1524 44.309C33.3044 44.309 31.6397 44.0523 30.1584 43.539L30.6864 40.921C31.3317 41.141 32.0431 41.3243 32.8204 41.471C33.5977 41.603 34.2724 41.669 34.8444 41.669C35.8711 41.669 36.6191 41.5223 37.0884 41.229C37.5724 40.9356 37.8144 40.4443 37.8144 39.755C37.8144 39.2416 37.5871 38.8603 37.1324 38.611C36.6924 38.3616 35.9884 38.1123 35.0204 37.863C34.0231 37.599 33.1944 37.3203 32.5344 37.027C31.8744 36.7336 31.3097 36.2716 30.8404 35.641C30.3711 35.0103 30.1364 34.1523 30.1364 33.067C30.1364 31.6003 30.6497 30.5003 31.6764 29.767C32.7031 29.0336 34.0597 28.667 35.7464 28.667C36.4797 28.667 37.2204 28.7256 37.9684 28.843C38.7164 28.9456 39.3764 29.0923 39.9484 29.283L39.4204 31.835C38.1004 31.483 36.8977 31.307 35.8124 31.307C34.9324 31.307 34.3017 31.4463 33.9204 31.725C33.5537 32.0036 33.3704 32.3996 33.3704 32.913C33.3704 33.2943 33.4877 33.6096 33.7224 33.859C33.9717 34.0936 34.2797 34.2843 34.6464 34.431C35.0131 34.5776 35.5411 34.7463 36.2304 34.937C37.2277 35.201 38.0491 35.487 38.6944 35.795C39.3397 36.0883 39.8897 36.5503 40.3444 37.181C40.8137 37.8116 41.0484 38.655 41.0484 39.711C41.0484 41.031 40.6304 42.087 39.7944 42.879C39.2664 43.3776 38.6284 43.7443 37.8804 43.979C37.1471 44.199 36.2377 44.309 35.1524 44.309ZM48.3709 28.667H51.1649L44.5429 44.309H41.7489L48.3709 28.667Z" fill="white"/>
<path d="M63.5895 56.0095C70.1085 56.0095 73.5116 52.4425 73.5116 46.2105C73.5116 40.5935 70.6005 37.4775 65.5985 37.4775C63.6715 37.4775 61.3755 37.9285 59.5305 38.9125C59.6125 36.0835 60.0635 34.1565 61.2935 32.9265C62.4005 31.8195 64.0815 31.4505 66.7875 31.4505C68.2635 31.4505 69.7805 31.6145 71.2155 31.8605V27.3915C69.3296 27.0635 67.4435 26.8585 65.4345 26.8585C61.7035 26.8585 59.0795 27.6785 57.1935 29.5645C54.7335 32.0245 53.3805 36.2065 53.3805 42.7255C53.3805 51.2125 56.0865 56.0095 63.5895 56.0095ZM63.7125 51.5405C60.5145 51.5405 59.4485 49.2445 59.4485 43.8735V42.3155C60.5965 42.0695 62.3595 41.9055 63.5485 41.9055C66.5415 41.9055 67.6895 42.8485 67.6895 46.4155C67.6895 49.8185 66.3365 51.5405 63.7125 51.5405ZM84.4835 56.0095C91.0025 56.0095 94.4055 52.4425 94.4055 46.2105C94.4055 40.5935 91.4945 37.4775 86.4925 37.4775C84.5655 37.4775 82.2695 37.9285 80.4245 38.9125C80.5065 36.0835 80.9575 34.1565 82.1875 32.9265C83.2945 31.8195 84.9755 31.4505 87.6815 31.4505C89.1575 31.4505 90.6745 31.6145 92.1095 31.8605V27.3915C90.2235 27.0635 88.3375 26.8585 86.3285 26.8585C82.5975 26.8585 79.9735 27.6785 78.0875 29.5645C75.6275 32.0245 74.2745 36.2065 74.2745 42.7255C74.2745 51.2125 76.9805 56.0095 84.4835 56.0095ZM84.6065 51.5405C81.4085 51.5405 80.3425 49.2445 80.3425 43.8735V42.3155C81.4905 42.0695 83.2535 41.9055 84.4425 41.9055C87.4355 41.9055 88.5835 42.8485 88.5835 46.4155C88.5835 49.8185 87.2305 51.5405 84.6065 51.5405Z" fill="white"/>
<path d="M35.2675 95.4175H37.3315L40.2955 103.625H38.2915L37.6075 101.561H34.9435L34.3075 103.625H32.5195L35.2675 95.4175ZM37.1515 100.205L36.2515 97.4695H36.2275L35.3755 100.205H37.1515ZM40.8379 95.0455H42.5539V98.0575C42.8419 97.8975 43.1459 97.7775 43.4659 97.6975C43.7859 97.6175 44.0939 97.5775 44.3899 97.5775C44.6699 97.5775 44.9379 97.6175 45.1939 97.6975C45.4499 97.7695 45.6539 97.8815 45.8059 98.0335C46.1419 98.3615 46.3099 98.8775 46.3099 99.5815V103.625H44.5939V99.7855C44.5939 99.5135 44.5339 99.3175 44.4139 99.1975C44.2779 99.0695 44.0299 99.0055 43.6699 99.0055C43.5019 99.0055 43.3059 99.0255 43.0819 99.0655C42.8659 99.0975 42.6899 99.1415 42.5539 99.1975V103.625H40.8379V95.0455ZM50.1648 103.793C49.1728 103.793 48.4248 103.521 47.9208 102.977C47.4248 102.425 47.1768 101.661 47.1768 100.685C47.1768 99.7095 47.4248 98.9495 47.9208 98.4055C48.4248 97.8535 49.1728 97.5775 50.1648 97.5775C51.1568 97.5775 51.9008 97.8535 52.3968 98.4055C52.9008 98.9495 53.1528 99.7095 53.1528 100.685C53.1528 101.661 52.9008 102.425 52.3968 102.977C51.9008 103.521 51.1568 103.793 50.1648 103.793ZM50.1648 102.485C50.5888 102.485 50.8928 102.341 51.0768 102.053C51.2688 101.757 51.3648 101.301 51.3648 100.685C51.3648 100.069 51.2688 99.6175 51.0768 99.3295C50.8928 99.0335 50.5888 98.8855 50.1648 98.8855C49.7408 98.8855 49.4328 99.0335 49.2408 99.3295C49.0568 99.6175 48.9648 100.069 48.9648 100.685C48.9648 101.301 49.0568 101.757 49.2408 102.053C49.4328 102.341 49.7408 102.485 50.1648 102.485ZM54.0571 97.7455H55.5451L55.6051 98.2255C55.8211 98.0255 56.0971 97.8695 56.4331 97.7575C56.7771 97.6455 57.1011 97.5895 57.4051 97.5895C57.5091 97.5895 57.6091 97.5975 57.7051 97.6135V99.1135C57.4491 99.0815 57.1971 99.0655 56.9491 99.0655C56.5891 99.0655 56.1971 99.1135 55.7731 99.2095V103.625H54.0571V97.7455ZM58.3757 97.7455H59.8637L59.9237 98.2255C60.1397 98.0255 60.4157 97.8695 60.7517 97.7575C61.0957 97.6455 61.4197 97.5895 61.7237 97.5895C61.8277 97.5895 61.9277 97.5975 62.0237 97.6135V99.1135C61.7677 99.0815 61.5157 99.0655 61.2677 99.0655C60.9077 99.0655 60.5157 99.1135 60.0917 99.2095V103.625H58.3757V97.7455ZM64.3045 103.793C63.6485 103.793 63.1405 103.617 62.7805 103.265C62.4205 102.913 62.2405 102.445 62.2405 101.861C62.2405 101.597 62.2845 101.349 62.3725 101.117C62.4605 100.885 62.5885 100.689 62.7565 100.529C62.9645 100.337 63.2365 100.201 63.5725 100.121C63.9165 100.033 64.3645 99.9895 64.9165 99.9895H65.8525V99.7975C65.8525 99.4855 65.7805 99.2655 65.6365 99.1375C65.4525 98.9775 65.1205 98.8975 64.6405 98.8975C64.3765 98.8975 64.0885 98.9135 63.7765 98.9455C63.4645 98.9775 63.2045 99.0135 62.9965 99.0535L62.9125 97.7935C63.6325 97.6495 64.3285 97.5775 65.0005 97.5775C65.4725 97.5775 65.8925 97.6335 66.2605 97.7455C66.6365 97.8495 66.9205 98.0175 67.1125 98.2495C67.4165 98.6015 67.5685 99.1215 67.5685 99.8095V103.625H66.2125L66.0685 103.265C65.8125 103.433 65.5285 103.561 65.2165 103.649C64.9125 103.745 64.6085 103.793 64.3045 103.793ZM64.7965 102.485C64.9485 102.485 65.1245 102.469 65.3245 102.437C65.5245 102.397 65.7005 102.353 65.8525 102.305V101.093H64.9405C64.7245 101.093 64.5525 101.109 64.4245 101.141C64.2965 101.173 64.1965 101.225 64.1245 101.297C64.0125 101.409 63.9565 101.573 63.9565 101.789C63.9565 102.013 64.0205 102.185 64.1485 102.305C64.2845 102.425 64.5005 102.485 64.7965 102.485ZM73.7829 103.793C72.7749 103.793 71.8669 103.653 71.0589 103.373L71.3469 101.945C71.6989 102.065 72.0869 102.165 72.5109 102.245C72.9349 102.317 73.3029 102.353 73.6149 102.353C74.1749 102.353 74.5829 102.273 74.8389 102.113C75.1029 101.953 75.2349 101.685 75.2349 101.309C75.2349 101.029 75.1109 100.821 74.8629 100.685C74.6229 100.549 74.2389 100.413 73.7109 100.277C73.1669 100.133 72.7149 99.9815 72.3549 99.8215C71.9949 99.6615 71.6869 99.4095 71.4309 99.0655C71.1749 98.7215 71.0469 98.2535 71.0469 97.6615C71.0469 96.8615 71.3269 96.2615 71.8869 95.8615C72.4469 95.4615 73.1869 95.2615 74.1069 95.2615C74.5069 95.2615 74.9109 95.2935 75.3189 95.3575C75.7269 95.4135 76.0869 95.4935 76.3989 95.5975L76.1109 96.9895C75.3909 96.7975 74.7349 96.7015 74.1429 96.7015C73.6629 96.7015 73.3189 96.7775 73.1109 96.9295C72.9109 97.0815 72.8109 97.2975 72.8109 97.5775C72.8109 97.7855 72.8749 97.9575 73.0029 98.0935C73.1389 98.2215 73.3069 98.3255 73.5069 98.4055C73.7069 98.4855 73.9949 98.5775 74.3709 98.6815C74.9149 98.8255 75.3629 98.9815 75.7149 99.1495C76.0669 99.3095 76.3669 99.5615 76.6149 99.9055C76.8709 100.249 76.9989 100.709 76.9989 101.285C76.9989 102.005 76.7709 102.581 76.3149 103.013C76.0269 103.285 75.6789 103.485 75.2709 103.613C74.8709 103.733 74.3749 103.793 73.7829 103.793ZM80.633 95.2615H82.157L78.545 103.793H77.021L80.633 95.2615ZM83.1226 102.401H84.5146V96.6055H83.1826V95.4415C83.4466 95.4015 83.7586 95.3695 84.1186 95.3455C84.4866 95.3135 84.8106 95.2975 85.0906 95.2975C85.5146 95.2975 85.8106 95.3575 85.9786 95.4775C86.1466 95.5975 86.2306 95.8095 86.2306 96.1135V102.401H87.4066V103.625H83.1226V102.401ZM88.9019 103.625C88.8699 103.537 88.8539 103.409 88.8539 103.241C88.8539 102.993 88.8899 102.773 88.9619 102.581C89.0339 102.389 89.1579 102.189 89.3339 101.981L90.9299 100.037C91.4259 99.4375 91.7659 98.9815 91.9499 98.6695C92.1339 98.3495 92.2259 98.0295 92.2259 97.7095C92.2259 97.3575 92.1179 97.0935 91.9019 96.9175C91.6619 96.7095 91.2459 96.6055 90.6539 96.6055C90.1419 96.6055 89.6059 96.6575 89.0459 96.7615V95.4895C89.3019 95.4255 89.6019 95.3735 89.9459 95.3335C90.2979 95.2855 90.6339 95.2615 90.9539 95.2615C92.0819 95.2615 92.9019 95.5175 93.4139 96.0295C93.8059 96.4215 94.0019 96.9535 94.0019 97.6255C94.0019 98.1295 93.8739 98.6135 93.6179 99.0775C93.3619 99.5335 92.9059 100.121 92.2499 100.841L90.8219 102.401H94.1339V103.625H88.9019ZM97.9452 103.793C96.8332 103.793 96.0292 103.445 95.5332 102.749C95.0452 102.045 94.8012 100.973 94.8012 99.5335C94.8012 98.0935 95.0452 97.0215 95.5332 96.3175C96.0292 95.6135 96.8332 95.2615 97.9452 95.2615C99.0572 95.2615 99.8572 95.6135 100.345 96.3175C100.841 97.0215 101.089 98.0935 101.089 99.5335C101.089 100.973 100.841 102.045 100.345 102.749C99.8572 103.445 99.0572 103.793 97.9452 103.793ZM97.9452 102.413C98.2812 102.413 98.5452 102.329 98.7372 102.161C98.9292 101.993 99.0692 101.701 99.1572 101.285C99.2532 100.869 99.3012 100.285 99.3012 99.5335C99.3012 98.7735 99.2532 98.1775 99.1572 97.7455C99.0692 97.3055 98.9252 96.9935 98.7252 96.8095C98.5332 96.6175 98.2732 96.5215 97.9452 96.5215C97.6172 96.5215 97.3532 96.6175 97.1532 96.8095C96.9612 96.9935 96.8172 97.3055 96.7212 97.7455C96.6332 98.1775 96.5892 98.7735 96.5892 99.5335C96.5892 100.285 96.6332 100.869 96.7212 101.285C96.8172 101.701 96.9612 101.993 97.1532 102.161C97.3452 102.329 97.6092 102.413 97.9452 102.413Z" fill="white"/>
<g filter="url(#filter0_di_2_5396)">
<path d="M130 104.553L130 67.3062L128.886 67.3062L128.886 104.553C128.886 106.969 126.902 108.936 124.462 108.936L10.5377 108.936C8.10035 108.936 6.11423 106.969 6.11423 104.553L6.11423 67.3061L5 67.3061L5 104.553C5 107.58 7.48473 110.04 10.5377 110.04L124.462 110.04C127.515 110.04 130 107.58 130 104.553Z" fill="#019DF4"/>
</g>
<g filter="url(#filter1_dd_2_5396)">
<path d="M129.998 21.5407C129.998 18.5013 127.513 16.0254 124.46 16.0254L10.5384 16.0254C7.4855 16.0254 5.00082 18.5013 5.00082 21.5407L5.00081 67.3063L129.998 67.3063L129.998 21.5407ZM6.1178 66.196L6.1178 21.5407C6.1178 19.112 8.10109 17.1357 10.5412 17.1357L124.46 17.1357C126.901 17.1357 128.884 19.112 128.884 21.5407L128.884 66.196L6.1178 66.196Z" fill="#E63780"/>
</g>
<path d="M6.58682 9H7.65482V5.94H9.17882C10.1628 5.94 10.8348 5.7 11.2788 5.268C11.7348 4.812 11.9508 4.152 11.9508 3.276C11.9508 2.52 11.7588 1.896 11.3508 1.488C10.8828 1.008 10.1148 0.792 8.93882 0.792H6.58682V9ZM7.65482 5.076V1.632H8.85482C9.64682 1.632 10.1508 1.764 10.4628 2.076C10.7268 2.34 10.8468 2.736 10.8468 3.3C10.8468 3.948 10.6908 4.392 10.4028 4.668C10.0788 4.968 9.56282 5.076 8.81882 5.076H7.65482ZM13.2397 9H14.2357V0.42H13.2397V9ZM17.615 9.168C18.323 9.168 18.947 8.94 19.463 8.604L19.523 9H20.327V5.088C20.327 4.32 20.183 3.852 19.811 3.492C19.439 3.144 18.851 2.952 17.975 2.952C17.411 2.952 16.739 3.024 16.187 3.156L16.223 3.924C16.799 3.828 17.363 3.78 17.807 3.78C18.395 3.78 18.779 3.888 19.031 4.128C19.247 4.344 19.331 4.644 19.331 5.124V5.496H18.107C17.255 5.496 16.559 5.652 16.115 6.06C15.803 6.348 15.611 6.78 15.611 7.332C15.611 7.884 15.791 8.304 16.079 8.604C16.439 8.976 16.979 9.168 17.615 9.168ZM17.831 8.364C17.063 8.364 16.619 8.016 16.619 7.308C16.619 6.948 16.739 6.696 16.943 6.528C17.219 6.312 17.639 6.228 18.251 6.228H19.331V7.98C18.899 8.196 18.311 8.364 17.831 8.364ZM21.9816 9H22.9776V4.212C23.4576 3.984 24.0936 3.828 24.6216 3.828C25.0536 3.828 25.3656 3.924 25.5696 4.128C25.7736 4.332 25.8576 4.62 25.8576 5.124V9H26.8536V5.004C26.8536 4.272 26.6856 3.792 26.3616 3.468C26.0256 3.12 25.5216 2.952 24.8856 2.952C24.2016 2.952 23.4696 3.18 22.8576 3.552L22.8096 3.12H21.9816V9ZM31.0649 9.168C31.6049 9.168 32.3009 9.084 32.8049 8.94L32.7089 8.196C32.2529 8.292 31.6769 8.352 31.2569 8.352C30.5129 8.352 30.0689 8.196 29.7569 7.908C29.4089 7.584 29.2409 7.056 29.2409 6.408H33.0329C33.1289 6.408 33.1769 6.372 33.1769 6.276V6.048C33.1769 4.116 32.3849 2.952 30.7409 2.952C29.2409 2.952 28.1969 3.972 28.1969 6.072C28.1969 7.128 28.4369 7.932 28.9649 8.46C29.4449 8.94 30.1529 9.168 31.0649 9.168ZM29.2409 5.676C29.2529 4.488 29.7449 3.756 30.7409 3.756C31.7249 3.756 32.1569 4.548 32.1929 5.676H29.2409ZM36.1273 9.168C37.5433 9.168 38.5033 8.616 38.5033 7.368C38.5033 5.268 35.2273 5.892 35.2273 4.572C35.2273 4.02 35.6713 3.744 36.5113 3.744C36.9913 3.744 37.5313 3.816 38.0593 3.936L38.1433 3.204C37.6753 3.06 37.0153 2.952 36.4273 2.952C35.1793 2.952 34.2913 3.504 34.2913 4.644C34.2913 6.804 37.5673 6.12 37.5673 7.44C37.5673 8.04 37.0513 8.364 36.0913 8.364C35.5753 8.364 34.9273 8.28 34.4473 8.148L34.3993 8.916C34.8433 9.06 35.5633 9.168 36.1273 9.168ZM44.4125 9.168C44.9645 9.168 45.6725 8.952 46.1525 8.64L46.2245 9H47.0405V0.42H46.0445V3.372C45.5765 3.108 44.9885 2.952 44.4845 2.952C42.9485 2.952 42.0485 4.152 42.0485 6.096C42.0485 8.136 42.9125 9.168 44.4125 9.168ZM44.6885 8.352C43.6325 8.352 43.0925 7.656 43.0925 6.108C43.0925 4.728 43.4885 3.792 44.6885 3.792C45.0845 3.792 45.6125 3.912 46.0445 4.08V8.004C45.6245 8.208 45.1085 8.352 44.6885 8.352ZM51.2798 9.168C51.8198 9.168 52.5158 9.084 53.0198 8.94L52.9238 8.196C52.4678 8.292 51.8918 8.352 51.4718 8.352C50.7278 8.352 50.2838 8.196 49.9718 7.908C49.6238 7.584 49.4558 7.056 49.4558 6.408H53.2478C53.3438 6.408 53.3918 6.372 53.3918 6.276V6.048C53.3918 4.116 52.5998 2.952 50.9558 2.952C49.4558 2.952 48.4118 3.972 48.4118 6.072C48.4118 7.128 48.6518 7.932 49.1798 8.46C49.6598 8.94 50.3678 9.168 51.2798 9.168ZM49.4558 5.676C49.4678 4.488 49.9598 3.756 50.9558 3.756C51.9398 3.756 52.3718 4.548 52.4078 5.676H49.4558ZM56.3421 9.168C57.7581 9.168 58.7181 8.616 58.7181 7.368C58.7181 5.268 55.4421 5.892 55.4421 4.572C55.4421 4.02 55.8861 3.744 56.7261 3.744C57.2061 3.744 57.7461 3.816 58.2741 3.936L58.3581 3.204C57.8901 3.06 57.2301 2.952 56.6421 2.952C55.3941 2.952 54.5061 3.504 54.5061 4.644C54.5061 6.804 57.7821 6.12 57.7821 7.44C57.7821 8.04 57.2661 8.364 56.3061 8.364C55.7901 8.364 55.1421 8.28 54.6621 8.148L54.6141 8.916C55.0581 9.06 55.7781 9.168 56.3421 9.168ZM62.1781 9.168C62.7301 9.168 63.4381 8.952 63.9181 8.64L63.9901 9H64.8061V0.42H63.8101V3.372C63.3421 3.108 62.7541 2.952 62.2501 2.952C60.7141 2.952 59.8141 4.152 59.8141 6.096C59.8141 8.136 60.6781 9.168 62.1781 9.168ZM62.4541 8.352C61.3981 8.352 60.8581 7.656 60.8581 6.108C60.8581 4.728 61.2541 3.792 62.4541 3.792C62.8501 3.792 63.3781 3.912 63.8101 4.08V8.004C63.3901 8.208 62.8741 8.352 62.4541 8.352ZM69.0454 9.168C69.5854 9.168 70.2814 9.084 70.7854 8.94L70.6894 8.196C70.2334 8.292 69.6574 8.352 69.2374 8.352C68.4934 8.352 68.0494 8.196 67.7374 7.908C67.3894 7.584 67.2214 7.056 67.2214 6.408H71.0134C71.1094 6.408 71.1574 6.372 71.1574 6.276V6.048C71.1574 4.116 70.3654 2.952 68.7214 2.952C67.2214 2.952 66.1774 3.972 66.1774 6.072C66.1774 7.128 66.4174 7.932 66.9454 8.46C67.4254 8.94 68.1334 9.168 69.0454 9.168ZM67.2214 5.676C67.2334 4.488 67.7254 3.756 68.7214 3.756C69.7054 3.756 70.1374 4.548 70.1734 5.676H67.2214ZM78.3929 9H79.3769V6.996H80.3729V6.192H79.3769V4.116H78.3929V6.192H75.6689L77.5769 0.792H76.6049L74.8769 5.748C74.7089 6.228 74.6609 6.42 74.6609 6.684C74.6609 6.78 74.6729 6.912 74.6849 6.996H78.3929V9ZM84.102 9.168C86.142 9.168 86.922 7.584 86.922 4.908C86.922 2.232 86.142 0.636 84.102 0.636C82.062 0.636 81.282 2.232 81.282 4.908C81.282 7.584 82.062 9.168 84.102 9.168ZM84.102 8.316C82.77 8.316 82.326 7.2 82.326 4.908C82.326 2.616 82.77 1.488 84.102 1.488C85.434 1.488 85.878 2.616 85.878 4.908C85.878 7.2 85.434 8.316 84.102 8.316ZM90.8564 9H91.8044V2.844L94.1684 7.26H95.0564L97.4444 2.892V9H98.4524V0.792H97.5404L94.6484 6.192L91.7924 0.792H90.8564V9ZM102.962 9.168C104.426 9.168 105.254 8.172 105.254 6.036C105.254 3.924 104.402 2.952 102.974 2.952C102.398 2.952 101.762 3.156 101.282 3.42V0.42H100.286V9H101.09L101.138 8.604C101.606 8.928 102.326 9.168 102.962 9.168ZM102.734 8.34C102.254 8.34 101.678 8.16 101.282 7.92V4.14C101.678 3.948 102.254 3.804 102.71 3.804C103.754 3.804 104.21 4.452 104.21 6.036C104.21 7.74 103.73 8.34 102.734 8.34ZM106.626 11.7H107.622V8.724C108.054 9 108.69 9.168 109.302 9.168C110.706 9.168 111.594 8.244 111.594 6.036C111.594 4.164 110.862 2.952 109.338 2.952C108.798 2.952 108.114 3.144 107.502 3.552L107.454 3.12H106.626V11.7ZM109.05 8.34C108.546 8.34 107.97 8.184 107.622 7.98V4.2C108.078 3.96 108.666 3.804 109.122 3.804C110.106 3.804 110.55 4.524 110.55 6.024C110.55 7.704 110.118 8.34 109.05 8.34ZM114.514 9.168C115.93 9.168 116.89 8.616 116.89 7.368C116.89 5.268 113.614 5.892 113.614 4.572C113.614 4.02 114.058 3.744 114.898 3.744C115.378 3.744 115.918 3.816 116.446 3.936L116.53 3.204C116.062 3.06 115.402 2.952 114.814 2.952C113.566 2.952 112.678 3.504 112.678 4.644C112.678 6.804 115.954 6.12 115.954 7.44C115.954 8.04 115.438 8.364 114.478 8.364C113.962 8.364 113.314 8.28 112.834 8.148L112.786 8.916C113.23 9.06 113.95 9.168 114.514 9.168ZM122.439 9.168C123.147 9.168 123.771 8.94 124.287 8.604L124.347 9H125.151V5.088C125.151 4.32 125.007 3.852 124.635 3.492C124.263 3.144 123.675 2.952 122.799 2.952C122.235 2.952 121.563 3.024 121.011 3.156L121.047 3.924C121.623 3.828 122.187 3.78 122.631 3.78C123.219 3.78 123.603 3.888 123.855 4.128C124.071 4.344 124.155 4.644 124.155 5.124V5.496H122.931C122.079 5.496 121.383 5.652 120.939 6.06C120.627 6.348 120.435 6.78 120.435 7.332C120.435 7.884 120.615 8.304 120.903 8.604C121.263 8.976 121.803 9.168 122.439 9.168ZM122.655 8.364C121.887 8.364 121.443 8.016 121.443 7.308C121.443 6.948 121.563 6.696 121.767 6.528C122.043 6.312 122.463 6.228 123.075 6.228H124.155V7.98C123.723 8.196 123.135 8.364 122.655 8.364ZM127.286 5.436H127.37C127.73 5.436 127.97 5.256 127.97 4.788V4.74C127.97 4.272 127.73 4.092 127.37 4.092H127.286C126.926 4.092 126.686 4.272 126.686 4.74V4.788C126.686 5.256 126.926 5.436 127.286 5.436ZM127.286 9.168H127.37C127.73 9.168 127.97 8.988 127.97 8.52V8.472C127.97 8.004 127.73 7.824 127.37 7.824H127.286C126.926 7.824 126.686 8.004 126.686 8.472V8.52C126.686 8.988 126.926 9.168 127.286 9.168Z" fill="white"/>
<defs>
<filter id="filter0_di_2_5396" x="0.72659" y="63.0327" width="133.547" height="51.2807" filterUnits="userSpaceOnUse" color-interpolation-filters="sRGB">
<feFlood flood-opacity="0" result="BackgroundImageFix"/>
<feColorMatrix in="SourceAlpha" type="matrix" values="0 0 0 0 0 0 0 0 0 0 0 0 0 0 0 0 0 0 127 0" result="hardAlpha"/>
<feOffset/>
<feGaussianBlur stdDeviation="2.1367"/>
<feComposite in2="hardAlpha" operator="out"/>
<feColorMatrix type="matrix" values="0 0 0 0 0.00392157 0 0 0 0 0.615686 0 0 0 0 0.956863 0 0 0 1 0"/>
<feBlend mode="normal" in2="BackgroundImageFix" result="effect1_dropShadow_2_5396"/>
<feBlend mode="normal" in="SourceGraphic" in2="effect1_dropShadow_2_5396" result="shape"/>
<feColorMatrix in="SourceAlpha" type="matrix" values="0 0 0 0 0 0 0 0 0 0 0 0 0 0 0 0 0 0 127 0" result="hardAlpha"/>
<feOffset/>
<feGaussianBlur stdDeviation="0.534176"/>
<feComposite in2="hardAlpha" operator="arithmetic" k2="-1" k3="1"/>
<feColorMatrix type="matrix" values="0 0 0 0 1 0 0 0 0 1 0 0 0 0 1 0 0 0 1 0"/>
<feBlend mode="normal" in2="shape" result="effect2_innerShadow_2_5396"/>
</filter>
<filter id="filter1_dd_2_5396" x="0.727567" y="11.752" width="133.544" height="59.8276" filterUnits="userSpaceOnUse" color-interpolation-filters="sRGB">
<feFlood flood-opacity="0" result="BackgroundImageFix"/>
<feColorMatrix in="SourceAlpha" type="matrix" values="0 0 0 0 0 0 0 0 0 0 0 0 0 0 0 0 0 0 127 0" result="hardAlpha"/>
<feOffset/>
<feGaussianBlur stdDeviation="2.1367"/>
<feComposite in2="hardAlpha" operator="out"/>
<feColorMatrix type="matrix" values="0 0 0 0 0.901961 0 0 0 0 0.215686 0 0 0 0 0.501961 0 0 0 1 0"/>
<feBlend mode="normal" in2="BackgroundImageFix" result="effect1_dropShadow_2_5396"/>
<feColorMatrix in="SourceAlpha" type="matrix" values="0 0 0 0 0 0 0 0 0 0 0 0 0 0 0 0 0 0 127 0" result="hardAlpha"/>
<feOffset/>
<feGaussianBlur stdDeviation="0.534176"/>
<feComposite in2="hardAlpha" operator="out"/>
<feColorMatrix type="matrix" values="0 0 0 0 1 0 0 0 0 1 0 0 0 0 1 0 0 0 1 0"/>
<feBlend mode="normal" in2="effect1_dropShadow_2_5396" result="effect2_dropShadow_2_5396"/>
<feBlend mode="normal" in="SourceGraphic" in2="effect2_dropShadow_2_5396" result="shape"/>
</filter>
</defs>
</svg>
