<svg width="468" height="86" viewBox="0 0 468 86" fill="none" xmlns="http://www.w3.org/2000/svg">
<path d="M468 80.1194C468 83.3665 465.368 85.9988 462.121 85.9988L293.545 85.9988L293.545 5.34458e-05L462.121 6.81517e-05C465.368 6.84349e-05 468 2.63236 468 5.87946L468 80.1194Z" fill="#3C7521"/>
<path d="M359.124 20.6214C360.356 20.6214 361.266 20.3274 361.84 19.7394C362.344 19.2354 362.61 18.5214 362.61 17.6254C362.61 16.7574 362.358 16.0854 361.882 15.5954C361.308 15.0074 360.468 14.7554 359.026 14.7554H358.298L358.424 11.7734H362.022V10.8494H357.444L357.262 14.8814C357.248 15.1894 357.248 15.2874 357.248 15.3994C357.248 15.4974 357.262 15.6234 357.29 15.6934H358.858C359.908 15.6934 360.538 15.8334 360.916 16.2114C361.238 16.5334 361.392 17.0514 361.392 17.6534C361.392 18.3394 361.196 18.8294 360.818 19.1514C360.412 19.4874 359.852 19.6414 358.9 19.6414C358.466 19.6414 357.626 19.5714 357.122 19.4874V20.3974C357.626 20.5234 358.466 20.6214 359.124 20.6214ZM367.493 20.6214C369.873 20.6214 370.783 18.7734 370.783 15.6514C370.783 12.5294 369.873 10.6674 367.493 10.6674C365.113 10.6674 364.203 12.5294 364.203 15.6514C364.203 18.7734 365.113 20.6214 367.493 20.6214ZM367.493 19.6274C365.939 19.6274 365.421 18.3254 365.421 15.6514C365.421 12.9774 365.939 11.6614 367.493 11.6614C369.047 11.6614 369.565 12.9774 369.565 15.6514C369.565 18.3254 369.047 19.6274 367.493 19.6274ZM375.373 20.4254H376.479V13.2434L379.237 18.3954H380.273L383.059 13.2994V20.4254H384.235V10.8494H383.171L379.797 17.1494L376.465 10.8494H375.373V20.4254ZM389.497 20.6214C391.205 20.6214 392.171 19.4594 392.171 16.9674C392.171 14.5034 391.177 13.3694 389.511 13.3694C388.839 13.3694 388.097 13.6074 387.537 13.9154V10.4154H386.375V20.4254H387.313L387.369 19.9634C387.915 20.3414 388.755 20.6214 389.497 20.6214ZM389.231 19.6554C388.671 19.6554 387.999 19.4454 387.537 19.1654V14.7554C387.999 14.5314 388.671 14.3634 389.203 14.3634C390.421 14.3634 390.953 15.1194 390.953 16.9674C390.953 18.9554 390.393 19.6554 389.231 19.6554ZM393.771 23.5754H394.933V20.1034C395.437 20.4254 396.179 20.6214 396.893 20.6214C398.531 20.6214 399.567 19.5434 399.567 16.9674C399.567 14.7834 398.713 13.3694 396.935 13.3694C396.305 13.3694 395.507 13.5934 394.793 14.0694L394.737 13.5654H393.771V23.5754ZM396.599 19.6554C396.011 19.6554 395.339 19.4734 394.933 19.2354V14.8254C395.465 14.5454 396.151 14.3634 396.683 14.3634C397.831 14.3634 398.349 15.2034 398.349 16.9534C398.349 18.9134 397.845 19.6554 396.599 19.6554ZM402.974 20.6214C404.626 20.6214 405.746 19.9774 405.746 18.5214C405.746 16.0714 401.924 16.7994 401.924 15.2594C401.924 14.6154 402.442 14.2934 403.422 14.2934C403.982 14.2934 404.612 14.3774 405.228 14.5174L405.326 13.6634C404.78 13.4954 404.01 13.3694 403.324 13.3694C401.868 13.3694 400.832 14.0134 400.832 15.3434C400.832 17.8634 404.654 17.0654 404.654 18.6054C404.654 19.3054 404.052 19.6834 402.932 19.6834C402.33 19.6834 401.574 19.5854 401.014 19.4314L400.958 20.3274C401.476 20.4954 402.316 20.6214 402.974 20.6214Z" fill="#BDE4A4"/>
<path d="M323.146 75.3217H324.136L326.326 68.4817H325.446L323.676 74.3517H323.656L321.766 68.4817H320.846L323.146 75.3217ZM328.954 75.4617C329.404 75.4617 329.984 75.3917 330.404 75.2717L330.324 74.6517C329.944 74.7317 329.464 74.7817 329.114 74.7817C328.494 74.7817 328.124 74.6517 327.864 74.4117C327.574 74.1417 327.434 73.7017 327.434 73.1617H330.594C330.674 73.1617 330.714 73.1317 330.714 73.0517V72.8617C330.714 71.2517 330.054 70.2817 328.684 70.2817C327.434 70.2817 326.564 71.1317 326.564 72.8817C326.564 73.7617 326.764 74.4317 327.204 74.8717C327.604 75.2717 328.194 75.4617 328.954 75.4617ZM327.434 72.5517C327.444 71.5617 327.854 70.9517 328.684 70.9517C329.504 70.9517 329.864 71.6117 329.894 72.5517H327.434ZM331.893 75.3217H332.723V68.1717H331.893V75.3217ZM336.099 75.4617C337.619 75.4617 338.329 74.5017 338.329 72.8717C338.329 71.2417 337.619 70.2817 336.099 70.2817C334.579 70.2817 333.869 71.2417 333.869 72.8717C333.869 74.5017 334.579 75.4617 336.099 75.4617ZM336.099 74.7817C335.099 74.7817 334.739 74.1217 334.739 72.8717C334.739 71.6217 335.099 70.9617 336.099 70.9617C337.099 70.9617 337.459 71.6217 337.459 72.8717C337.459 74.1217 337.099 74.7817 336.099 74.7817ZM341.641 75.4617C342.001 75.4617 342.551 75.3917 342.871 75.3017L342.811 74.6817C342.561 74.7317 342.121 74.7817 341.791 74.7817C341.191 74.7817 340.771 74.6417 340.491 74.3217C340.221 74.0117 340.081 73.5417 340.081 72.9217C340.081 71.6217 340.601 70.9517 341.751 70.9517C342.061 70.9517 342.461 71.0117 342.771 71.0717L342.821 70.4317C342.481 70.3417 342.031 70.2817 341.651 70.2817C340.901 70.2817 340.271 70.5017 339.851 70.9517C339.431 71.4017 339.211 72.0717 339.211 72.9317C339.211 73.7917 339.451 74.4317 339.861 74.8517C340.261 75.2617 340.841 75.4617 341.641 75.4617ZM344.383 69.4917H344.433C344.733 69.4917 344.923 69.3417 344.923 68.9617V68.9417C344.923 68.5617 344.733 68.4117 344.433 68.4117H344.383C344.083 68.4117 343.893 68.5617 343.893 68.9417V68.9617C343.893 69.3417 344.083 69.4917 344.383 69.4917ZM343.993 75.3217H344.823V70.4217H343.993V75.3217ZM347.948 75.4617C348.408 75.4617 348.998 75.2817 349.398 75.0217L349.458 75.3217H350.138V68.1717H349.308V70.6317C348.918 70.4117 348.428 70.2817 348.008 70.2817C346.728 70.2817 345.978 71.2817 345.978 72.9017C345.978 74.6017 346.698 75.4617 347.948 75.4617ZM348.178 74.7817C347.298 74.7817 346.848 74.2017 346.848 72.9117C346.848 71.7617 347.178 70.9817 348.178 70.9817C348.508 70.9817 348.948 71.0817 349.308 71.2217V74.4917C348.958 74.6617 348.528 74.7817 348.178 74.7817ZM352.951 75.4617C353.541 75.4617 354.061 75.2717 354.491 74.9917L354.541 75.3217H355.211V72.0617C355.211 71.4217 355.091 71.0317 354.781 70.7317C354.471 70.4417 353.981 70.2817 353.251 70.2817C352.781 70.2817 352.221 70.3417 351.761 70.4517L351.791 71.0917C352.271 71.0117 352.741 70.9717 353.111 70.9717C353.601 70.9717 353.921 71.0617 354.131 71.2617C354.311 71.4417 354.381 71.6917 354.381 72.0917V72.4017H353.361C352.651 72.4017 352.071 72.5317 351.701 72.8717C351.441 73.1117 351.281 73.4717 351.281 73.9317C351.281 74.3917 351.431 74.7417 351.671 74.9917C351.971 75.3017 352.421 75.4617 352.951 75.4617ZM353.131 74.7917C352.491 74.7917 352.121 74.5017 352.121 73.9117C352.121 73.6117 352.221 73.4017 352.391 73.2617C352.621 73.0817 352.971 73.0117 353.481 73.0117H354.381V74.4717C354.021 74.6517 353.531 74.7917 353.131 74.7917ZM358.3 75.4617C358.76 75.4617 359.35 75.2817 359.75 75.0217L359.81 75.3217H360.49V68.1717H359.66V70.6317C359.27 70.4117 358.78 70.2817 358.36 70.2817C357.08 70.2817 356.33 71.2817 356.33 72.9017C356.33 74.6017 357.05 75.4617 358.3 75.4617ZM358.53 74.7817C357.65 74.7817 357.2 74.2017 357.2 72.9117C357.2 71.7617 357.53 70.9817 358.53 70.9817C358.86 70.9817 359.3 71.0817 359.66 71.2217V74.4917C359.31 74.6617 358.88 74.7817 358.53 74.7817ZM365.644 75.4617C366.104 75.4617 366.694 75.2817 367.094 75.0217L367.154 75.3217H367.834V68.1717H367.004V70.6317C366.614 70.4117 366.124 70.2817 365.704 70.2817C364.424 70.2817 363.674 71.2817 363.674 72.9017C363.674 74.6017 364.394 75.4617 365.644 75.4617ZM365.874 74.7817C364.994 74.7817 364.544 74.2017 364.544 72.9117C364.544 71.7617 364.874 70.9817 365.874 70.9817C366.204 70.9817 366.644 71.0817 367.004 71.2217V74.4917C366.654 74.6617 366.224 74.7817 365.874 74.7817ZM371.366 75.4617C371.816 75.4617 372.396 75.3917 372.816 75.2717L372.736 74.6517C372.356 74.7317 371.876 74.7817 371.526 74.7817C370.906 74.7817 370.536 74.6517 370.276 74.4117C369.986 74.1417 369.846 73.7017 369.846 73.1617H373.006C373.086 73.1617 373.126 73.1317 373.126 73.0517V72.8617C373.126 71.2517 372.466 70.2817 371.096 70.2817C369.846 70.2817 368.976 71.1317 368.976 72.8817C368.976 73.7617 369.176 74.4317 369.616 74.8717C370.016 75.2717 370.606 75.4617 371.366 75.4617ZM369.846 72.5517C369.856 71.5617 370.266 70.9517 371.096 70.9517C371.916 70.9517 372.276 71.6117 372.306 72.5517H369.846ZM377.626 75.4617C378.806 75.4617 379.606 75.0017 379.606 73.9617C379.606 72.2117 376.876 72.7317 376.876 71.6317C376.876 71.1717 377.246 70.9417 377.946 70.9417C378.346 70.9417 378.796 71.0017 379.236 71.1017L379.306 70.4917C378.916 70.3717 378.366 70.2817 377.876 70.2817C376.836 70.2817 376.096 70.7417 376.096 71.6917C376.096 73.4917 378.826 72.9217 378.826 74.0217C378.826 74.5217 378.396 74.7917 377.596 74.7917C377.166 74.7917 376.626 74.7217 376.226 74.6117L376.186 75.2517C376.556 75.3717 377.156 75.4617 377.626 75.4617ZM382.399 75.4617C382.969 75.4617 383.559 75.2717 384.069 74.9617L384.109 75.3217H384.799V70.4217H383.969V74.4117C383.569 74.6017 383.059 74.7317 382.619 74.7317C382.259 74.7317 381.999 74.6517 381.829 74.4817C381.659 74.3117 381.589 74.0717 381.589 73.6517V70.4217H380.759V73.7517C380.759 74.3617 380.899 74.7617 381.169 75.0317C381.449 75.3217 381.869 75.4617 382.399 75.4617ZM388.429 75.4617C389.649 75.4617 390.339 74.6317 390.339 72.8517C390.339 71.0917 389.629 70.2817 388.439 70.2817C387.959 70.2817 387.429 70.4517 387.029 70.6717V68.1717H386.199V75.3217H386.869L386.909 74.9917C387.299 75.2617 387.899 75.4617 388.429 75.4617ZM388.239 74.7717C387.839 74.7717 387.359 74.6217 387.029 74.4217V71.2717C387.359 71.1117 387.839 70.9917 388.219 70.9917C389.089 70.9917 389.469 71.5317 389.469 72.8517C389.469 74.2717 389.069 74.7717 388.239 74.7717ZM391.893 69.4917H391.943C392.243 69.4917 392.433 69.3417 392.433 68.9617V68.9417C392.433 68.5617 392.243 68.4117 391.943 68.4117H391.893C391.593 68.4117 391.403 68.5617 391.403 68.9417V68.9617C391.403 69.3417 391.593 69.4917 391.893 69.4917ZM391.503 75.3217H392.333V70.4217H391.503V75.3217ZM395.458 75.4617C395.918 75.4617 396.508 75.2817 396.908 75.0217L396.968 75.3217H397.648V68.1717H396.818V70.6317C396.428 70.4117 395.938 70.2817 395.518 70.2817C394.238 70.2817 393.488 71.2817 393.488 72.9017C393.488 74.6017 394.208 75.4617 395.458 75.4617ZM395.688 74.7817C394.808 74.7817 394.358 74.2017 394.358 72.9117C394.358 71.7617 394.688 70.9817 395.688 70.9817C396.018 70.9817 396.458 71.0817 396.818 71.2217V74.4917C396.468 74.6617 396.038 74.7817 395.688 74.7817ZM400.461 75.4617C401.051 75.4617 401.571 75.2717 402.001 74.9917L402.051 75.3217H402.721V72.0617C402.721 71.4217 402.601 71.0317 402.291 70.7317C401.981 70.4417 401.491 70.2817 400.761 70.2817C400.291 70.2817 399.731 70.3417 399.271 70.4517L399.301 71.0917C399.781 71.0117 400.251 70.9717 400.621 70.9717C401.111 70.9717 401.431 71.0617 401.641 71.2617C401.821 71.4417 401.891 71.6917 401.891 72.0917V72.4017H400.871C400.161 72.4017 399.581 72.5317 399.211 72.8717C398.951 73.1117 398.791 73.4717 398.791 73.9317C398.791 74.3917 398.941 74.7417 399.181 74.9917C399.481 75.3017 399.931 75.4617 400.461 75.4617ZM400.641 74.7917C400.001 74.7917 399.631 74.5017 399.631 73.9117C399.631 73.6117 399.731 73.4017 399.901 73.2617C400.131 73.0817 400.481 73.0117 400.991 73.0117H401.891V74.4717C401.531 74.6517 401.041 74.7917 400.641 74.7917ZM406.721 75.3217H409.761V74.6817H408.721V68.8817C408.721 68.5217 408.581 68.4117 408.151 68.4117C407.791 68.4117 407.151 68.4617 406.741 68.5217V69.0817H407.901V74.6817H406.721V75.3217ZM413.258 75.4617C414.138 75.4617 414.788 75.2517 415.198 74.8317C415.558 74.4717 415.748 73.9617 415.748 73.3217C415.748 72.7017 415.568 72.2217 415.228 71.8717C414.818 71.4517 414.218 71.2717 413.188 71.2717H412.668L412.758 69.1417H415.328V68.4817H412.058L411.928 71.3617C411.918 71.5817 411.918 71.6517 411.918 71.7317C411.918 71.8017 411.928 71.8917 411.948 71.9417H413.068C413.818 71.9417 414.268 72.0417 414.538 72.3117C414.768 72.5417 414.878 72.9117 414.878 73.3417C414.878 73.8317 414.738 74.1817 414.468 74.4117C414.178 74.6517 413.778 74.7617 413.098 74.7617C412.788 74.7617 412.188 74.7117 411.828 74.6517V75.3017C412.188 75.3917 412.788 75.4617 413.258 75.4617ZM419.347 75.3217H420.137V70.1917L422.107 73.8717H422.847L424.837 70.2317V75.3217H425.677V68.4817H424.917L422.507 72.9817L420.127 68.4817H419.347V75.3217ZM429.435 75.4617C430.655 75.4617 431.345 74.6317 431.345 72.8517C431.345 71.0917 430.635 70.2817 429.445 70.2817C428.965 70.2817 428.435 70.4517 428.035 70.6717V68.1717H427.205V75.3217H427.875L427.915 74.9917C428.305 75.2617 428.905 75.4617 429.435 75.4617ZM429.245 74.7717C428.845 74.7717 428.365 74.6217 428.035 74.4217V71.2717C428.365 71.1117 428.845 70.9917 429.225 70.9917C430.095 70.9917 430.475 71.5317 430.475 72.8517C430.475 74.2717 430.075 74.7717 429.245 74.7717ZM432.488 77.5717H433.318V75.0917C433.678 75.3217 434.208 75.4617 434.718 75.4617C435.888 75.4617 436.628 74.6917 436.628 72.8517C436.628 71.2917 436.018 70.2817 434.748 70.2817C434.298 70.2817 433.728 70.4417 433.218 70.7817L433.178 70.4217H432.488V77.5717ZM434.508 74.7717C434.088 74.7717 433.608 74.6417 433.318 74.4717V71.3217C433.698 71.1217 434.188 70.9917 434.568 70.9917C435.388 70.9917 435.758 71.5917 435.758 72.8417C435.758 74.2417 435.398 74.7717 434.508 74.7717ZM439.062 75.4617C440.242 75.4617 441.042 75.0017 441.042 73.9617C441.042 72.2117 438.312 72.7317 438.312 71.6317C438.312 71.1717 438.682 70.9417 439.382 70.9417C439.782 70.9417 440.232 71.0017 440.672 71.1017L440.742 70.4917C440.352 70.3717 439.802 70.2817 439.312 70.2817C438.272 70.2817 437.532 70.7417 437.532 71.6917C437.532 73.4917 440.262 72.9217 440.262 74.0217C440.262 74.5217 439.832 74.7917 439.032 74.7917C438.602 74.7917 438.062 74.7217 437.662 74.6117L437.622 75.2517C437.992 75.3717 438.592 75.4617 439.062 75.4617Z" fill="#BDE4A4"/>
<path d="M328.029 60.0803C331.554 60.0803 334.275 59.2326 336.105 57.4925C337.622 56.0647 338.514 53.9676 338.514 51.2905C338.514 40.8497 322.808 43.2145 322.808 36.254C322.808 32.9968 325.352 31.6583 329.501 31.6583C331.509 31.6583 333.874 31.9706 336.105 32.5506L336.685 29.5166C334.588 28.8027 331.821 28.3565 329.189 28.3565C323.121 28.3565 319.06 31.1228 319.06 36.5217C319.06 47.0071 334.721 44.0176 334.721 51.692C334.721 53.3429 334.141 54.5476 333.071 55.3954C331.866 56.3324 330.17 56.7786 327.672 56.7786C325.218 56.7786 322.362 56.2431 320.042 55.5739L319.373 58.6079C321.693 59.5449 325.218 60.0803 328.029 60.0803ZM341.279 60.0803H344.893L358.056 28.3565H354.442L341.279 60.0803ZM366.406 59.4557H370.466L379.613 32.5953C380.015 31.4352 380.104 30.7659 380.104 29.9181C380.104 29.5612 380.059 29.1596 379.97 28.9365H361.632V31.8814H376.356L366.406 59.4557ZM391.069 60.0803C394.996 60.0803 397.896 59.1434 399.725 57.2694C401.332 55.6631 402.179 53.3876 402.179 50.532C402.179 47.7656 401.376 45.6239 399.859 44.0623C398.03 42.1883 395.353 41.3851 390.757 41.3851H388.437L388.838 31.8814H400.305V28.9365H385.715L385.135 41.7867C385.09 42.7683 385.09 43.0806 385.09 43.4376C385.09 43.7499 385.135 44.1515 385.224 44.3746H390.221C393.568 44.3746 395.576 44.8208 396.78 46.0255C397.807 47.0517 398.297 48.7026 398.297 50.6212C398.297 52.8075 397.673 54.3692 396.468 55.3954C395.174 56.4662 393.389 56.957 390.355 56.957C388.972 56.957 386.295 56.734 384.689 56.4662V59.3665C386.295 59.768 388.972 60.0803 391.069 60.0803ZM406.876 59.9242H407.11C408.114 59.9242 408.783 59.4222 408.783 58.1171V57.9833C408.783 56.6782 408.114 56.1762 407.11 56.1762H406.876C405.872 56.1762 405.203 56.6782 405.203 57.9833V58.1171C405.203 59.4222 405.872 59.9242 406.876 59.9242ZM416.633 59.9242C419.31 59.9242 421.418 59.121 422.823 57.4478C424.63 55.3062 425.501 51.7924 425.501 46.8398C425.501 40.2808 423.526 36.1313 417.938 36.1313C413.186 36.1313 410.676 39.3773 410.676 43.7945C410.676 48.3122 413.152 50.6547 417.101 50.6547C419.009 50.6547 421.016 50.0858 422.623 49.4165C422.388 54.8042 420.916 57.6486 416.398 57.6486C415.328 57.6486 413.889 57.5148 412.885 57.3809V59.5226C413.989 59.7569 415.461 59.9242 416.633 59.9242ZM417.67 48.4126C414.625 48.4126 413.487 46.7394 413.487 43.6272C413.487 40.4481 414.993 38.4068 417.871 38.4068C421.518 38.4068 422.656 41.4186 422.656 46.2039V47.5425C421.117 48.0445 419.142 48.4126 417.67 48.4126ZM435.13 59.9242C440.819 59.9242 442.994 55.5069 442.994 48.0445C442.994 40.582 440.819 36.1313 435.13 36.1313C429.441 36.1313 427.266 40.582 427.266 48.0445C427.266 55.5069 429.441 59.9242 435.13 59.9242ZM435.13 57.5482C431.416 57.5482 430.177 54.4361 430.177 48.0445C430.177 41.6528 431.416 38.5072 435.13 38.5072C438.845 38.5072 440.083 41.6528 440.083 48.0445C440.083 54.4361 438.845 57.5482 435.13 57.5482Z" fill="#BDE4A4"/>
<path d="M107 0.00128174H293.469V86H107V0.00128174Z" fill="#5CB615"/>
<path d="M167.204 69.8902H168.676L170.436 66.9302L172.404 69.8902H173.908L171.284 65.9702L173.876 62.0502H172.42L170.66 65.0422L168.66 62.0502H167.172L169.812 66.0182L167.204 69.8902ZM181.044 70.1142C182.388 70.1142 183.348 69.8262 184.036 69.2662C184.692 68.7222 185.06 67.9222 185.06 66.8822C185.06 65.5062 184.292 64.5942 183.092 64.1782C184.052 63.8102 184.74 62.9942 184.74 61.6982C184.74 60.8022 184.452 60.0982 183.94 59.6022C183.348 59.0262 182.404 58.7382 181.124 58.7382C180.436 58.7382 179.572 58.8182 178.868 58.9782V60.0182C179.54 59.9062 180.26 59.8422 180.868 59.8422C181.828 59.8422 182.436 59.9862 182.852 60.3382C183.204 60.6422 183.396 61.1382 183.396 61.7622C183.396 63.2022 182.468 63.8102 180.884 63.8102H180.612V64.8022H180.9C181.94 64.8022 182.66 64.9622 183.124 65.3942C183.476 65.7302 183.668 66.2742 183.668 66.8662C183.668 67.5862 183.444 68.1462 182.964 68.4982C182.516 68.8342 181.892 68.9942 180.868 68.9942C180.164 68.9942 179.3 68.9142 178.692 68.7862V69.8422C179.332 70.0022 180.212 70.1142 181.044 70.1142ZM190.706 69.8902H192.034V63.5062C192.674 63.2022 193.41 62.9942 194.082 62.9942C194.626 62.9942 195.042 63.1222 195.314 63.3942C195.586 63.6662 195.698 64.0502 195.698 64.7222V69.8902H197.026V64.5622C197.026 64.1622 196.978 63.8102 196.914 63.5222C197.602 63.1862 198.386 62.9942 199.026 62.9942C199.57 62.9942 199.986 63.1222 200.258 63.3942C200.53 63.6662 200.642 64.0502 200.642 64.7222V69.8902H201.97V64.5622C201.97 63.5862 201.746 62.9462 201.314 62.5142C200.866 62.0502 200.194 61.8262 199.346 61.8262C198.466 61.8262 197.506 62.1142 196.53 62.7062C196.082 62.1142 195.394 61.8262 194.402 61.8262C193.538 61.8262 192.69 62.1142 191.874 62.6262L191.81 62.0502H190.706V69.8902ZM207.583 70.1142C208.303 70.1142 209.231 70.0022 209.903 69.8102L209.775 68.8182C209.167 68.9462 208.399 69.0262 207.839 69.0262C206.847 69.0262 206.255 68.8182 205.839 68.4342C205.375 68.0022 205.151 67.2982 205.151 66.4342H210.207C210.335 66.4342 210.399 66.3862 210.399 66.2582V65.9542C210.399 63.3782 209.343 61.8262 207.151 61.8262C205.151 61.8262 203.759 63.1862 203.759 65.9862C203.759 67.3942 204.079 68.4662 204.783 69.1702C205.423 69.8102 206.367 70.1142 207.583 70.1142ZM205.151 65.4582C205.167 63.8742 205.823 62.8982 207.151 62.8982C208.463 62.8982 209.039 63.9542 209.087 65.4582H205.151ZM214.332 70.1142C216.22 70.1142 217.5 69.3782 217.5 67.7142C217.5 64.9142 213.132 65.7462 213.132 63.9862C213.132 63.2502 213.724 62.8822 214.844 62.8822C215.484 62.8822 216.204 62.9782 216.908 63.1382L217.02 62.1622C216.396 61.9702 215.516 61.8262 214.732 61.8262C213.068 61.8262 211.884 62.5622 211.884 64.0822C211.884 66.9622 216.252 66.0502 216.252 67.8102C216.252 68.6102 215.564 69.0422 214.284 69.0422C213.596 69.0422 212.732 68.9302 212.092 68.7542L212.028 69.7782C212.62 69.9702 213.58 70.1142 214.332 70.1142ZM222.786 70.1142C223.506 70.1142 224.434 70.0022 225.106 69.8102L224.978 68.8182C224.37 68.9462 223.602 69.0262 223.042 69.0262C222.05 69.0262 221.458 68.8182 221.042 68.4342C220.578 68.0022 220.354 67.2982 220.354 66.4342H225.41C225.538 66.4342 225.602 66.3862 225.602 66.2582V65.9542C225.602 63.3782 224.546 61.8262 222.354 61.8262C220.354 61.8262 218.962 63.1862 218.962 65.9862C218.962 67.3942 219.282 68.4662 219.986 69.1702C220.626 69.8102 221.57 70.1142 222.786 70.1142ZM220.354 65.4582C220.37 63.8742 221.026 62.8982 222.354 62.8982C223.666 62.8982 224.242 63.9542 224.29 65.4582H220.354ZM229.536 70.1142C231.424 70.1142 232.704 69.3782 232.704 67.7142C232.704 64.9142 228.336 65.7462 228.336 63.9862C228.336 63.2502 228.928 62.8822 230.048 62.8822C230.688 62.8822 231.408 62.9782 232.112 63.1382L232.224 62.1622C231.6 61.9702 230.72 61.8262 229.936 61.8262C228.272 61.8262 227.088 62.5622 227.088 64.0822C227.088 66.9622 231.456 66.0502 231.456 67.8102C231.456 68.6102 230.768 69.0422 229.488 69.0422C228.8 69.0422 227.936 68.9302 227.296 68.7542L227.232 69.7782C227.824 69.9702 228.784 70.1142 229.536 70.1142Z" fill="white"/>
<path d="M127.727 47.6375H142.127V45.2615H131.003L136.907 38.3135C140.615 33.9575 141.695 31.9775 141.695 29.0255C141.695 26.9735 141.011 25.3895 139.823 24.3455C138.419 23.0855 136.259 22.5455 133.703 22.5455C131.795 22.5455 129.815 22.7975 128.087 23.2295V25.5695C129.815 25.2095 131.795 25.0295 133.271 25.0295C136.619 25.0295 138.563 26.1095 138.563 29.1695C138.563 31.4375 137.519 33.3455 134.675 36.8375L129.023 43.7495C127.835 45.1895 127.583 45.8375 127.583 46.8095C127.583 47.0615 127.655 47.4215 127.727 47.6375ZM154.934 48.1415C161.054 48.1415 163.394 43.3895 163.394 35.3615C163.394 27.3335 161.054 22.5455 154.934 22.5455C148.814 22.5455 146.474 27.3335 146.474 35.3615C146.474 43.3895 148.814 48.1415 154.934 48.1415ZM154.934 45.5855C150.938 45.5855 149.606 42.2375 149.606 35.3615C149.606 28.4855 150.938 25.1015 154.934 25.1015C158.93 25.1015 160.262 28.4855 160.262 35.3615C160.262 42.2375 158.93 45.5855 154.934 45.5855ZM174.797 48.1415C180.917 48.1415 183.257 43.3895 183.257 35.3615C183.257 27.3335 180.917 22.5455 174.797 22.5455C168.677 22.5455 166.337 27.3335 166.337 35.3615C166.337 43.3895 168.677 48.1415 174.797 48.1415ZM174.797 45.5855C170.801 45.5855 169.469 42.2375 169.469 35.3615C169.469 28.4855 170.801 25.1015 174.797 25.1015C178.793 25.1015 180.125 28.4855 180.125 35.3615C180.125 42.2375 178.793 45.5855 174.797 45.5855ZM195.06 47.6375H197.904V29.1695L204.996 42.4175H207.66L214.824 29.3135V47.6375H217.848V23.0135H215.112L206.436 39.2135L197.868 23.0135H195.06V47.6375ZM231.378 48.1415C235.77 48.1415 238.254 45.1535 238.254 38.7455C238.254 32.4095 235.698 29.4935 231.414 29.4935C229.686 29.4935 227.778 30.1055 226.338 30.8975V21.8975H223.35V47.6375H225.762L225.906 46.4495C227.31 47.4215 229.47 48.1415 231.378 48.1415ZM230.694 45.6575C229.254 45.6575 227.526 45.1175 226.338 44.3975V33.0575C227.526 32.4815 229.254 32.0495 230.622 32.0495C233.754 32.0495 235.122 33.9935 235.122 38.7455C235.122 43.8575 233.682 45.6575 230.694 45.6575ZM242.37 55.7375H245.358V46.8095C246.654 47.6375 248.562 48.1415 250.398 48.1415C254.61 48.1415 257.274 45.3695 257.274 38.7455C257.274 33.1295 255.078 29.4935 250.506 29.4935C248.886 29.4935 246.834 30.0695 244.998 31.2935L244.854 29.9975H242.37V55.7375ZM249.642 45.6575C248.13 45.6575 246.402 45.1895 245.358 44.5775V33.2375C246.726 32.5175 248.49 32.0495 249.858 32.0495C252.81 32.0495 254.142 34.2095 254.142 38.7095C254.142 43.7495 252.846 45.6575 249.642 45.6575ZM266.033 48.1415C270.281 48.1415 273.161 46.4855 273.161 42.7415C273.161 36.4415 263.333 38.3135 263.333 34.3535C263.333 32.6975 264.665 31.8695 267.185 31.8695C268.625 31.8695 270.245 32.0855 271.829 32.4455L272.081 30.2495C270.677 29.8175 268.697 29.4935 266.933 29.4935C263.189 29.4935 260.525 31.1495 260.525 34.5695C260.525 41.0495 270.353 38.9975 270.353 42.9575C270.353 44.7575 268.805 45.7295 265.925 45.7295C264.377 45.7295 262.433 45.4775 260.993 45.0815L260.849 47.3855C262.181 47.8175 264.341 48.1415 266.033 48.1415Z" fill="white"/>
<path d="M107.076 86L5.87967 86C2.63256 86 0.000274889 83.3677 0.000275173 80.1206L0.000281677 5.88066C0.000281962 2.63356 2.63258 0.001265 5.87968 0.00126528L107.076 0.00127411L107.076 86Z" fill="#BDE4A4"/>
<path d="M30.1963 71.5197H31.5313V61.2597H30.1963V71.5197ZM33.8674 71.5197H35.1124V65.5347C35.7124 65.2497 36.5074 65.0547 37.1674 65.0547C37.7074 65.0547 38.0974 65.1747 38.3524 65.4297C38.6074 65.6847 38.7124 66.0447 38.7124 66.6747V71.5197H39.9574V66.5247C39.9574 65.6097 39.7474 65.0097 39.3424 64.6047C38.9224 64.1697 38.2924 63.9597 37.4974 63.9597C36.6424 63.9597 35.7274 64.2447 34.9624 64.7097L34.9024 64.1697H33.8674V71.5197ZM44.5766 71.7297C45.1166 71.7297 45.7016 71.6397 46.0916 71.5347L46.0316 70.6197C45.6716 70.6947 45.1766 70.7397 44.9216 70.7397C44.3966 70.7397 44.1416 70.6347 43.9766 70.4547C43.7666 70.2297 43.7216 69.8697 43.7216 69.1647V65.0847H45.6566V64.1697H43.7216V62.2197C43.3316 62.2197 42.8366 62.3247 42.4766 62.4447V64.1847L41.1416 64.3797V65.0847H42.4766V69.3297C42.4766 70.2447 42.5816 70.7397 42.9416 71.1597C43.2716 71.5347 43.8566 71.7297 44.5766 71.7297ZM50.7001 71.7297C51.3751 71.7297 52.2451 71.6247 52.8751 71.4447L52.7551 70.5147C52.1851 70.6347 51.4651 70.7097 50.9401 70.7097C50.0101 70.7097 49.4551 70.5147 49.0651 70.1547C48.6301 69.7497 48.4201 69.0897 48.4201 68.2797H53.1601C53.2801 68.2797 53.3401 68.2347 53.3401 68.1147V67.8297C53.3401 65.4147 52.3501 63.9597 50.2951 63.9597C48.4201 63.9597 47.1151 65.2347 47.1151 67.8597C47.1151 69.1797 47.4151 70.1847 48.0751 70.8447C48.6751 71.4447 49.5601 71.7297 50.7001 71.7297ZM48.4201 67.3647C48.4351 65.8797 49.0501 64.9647 50.2951 64.9647C51.5251 64.9647 52.0651 65.9547 52.1101 67.3647H48.4201ZM55.093 71.5197H56.338V65.5797C56.863 65.2497 57.478 65.0847 58.123 65.0847C58.333 65.0847 58.603 65.0997 58.768 65.1147V64.0047C58.603 63.9747 58.423 63.9597 58.288 63.9597C57.643 63.9597 56.908 64.2147 56.203 64.7997L56.128 64.1697H55.093V71.5197ZM60.1174 71.5197H61.3624V65.5347C61.9624 65.2497 62.7574 65.0547 63.4174 65.0547C63.9574 65.0547 64.3474 65.1747 64.6024 65.4297C64.8574 65.6847 64.9624 66.0447 64.9624 66.6747V71.5197H66.2074V66.5247C66.2074 65.6097 65.9974 65.0097 65.5924 64.6047C65.1724 64.1697 64.5424 63.9597 63.7474 63.9597C62.8924 63.9597 61.9774 64.2447 61.2124 64.7097L61.1524 64.1697H60.1174V71.5197ZM71.4716 71.7297C72.1466 71.7297 73.0166 71.6247 73.6466 71.4447L73.5266 70.5147C72.9566 70.6347 72.2366 70.7097 71.7116 70.7097C70.7816 70.7097 70.2266 70.5147 69.8366 70.1547C69.4016 69.7497 69.1916 69.0897 69.1916 68.2797H73.9316C74.0516 68.2797 74.1116 68.2347 74.1116 68.1147V67.8297C74.1116 65.4147 73.1216 63.9597 71.0666 63.9597C69.1916 63.9597 67.8866 65.2347 67.8866 67.8597C67.8866 69.1797 68.1866 70.1847 68.8466 70.8447C69.4466 71.4447 70.3316 71.7297 71.4716 71.7297ZM69.1916 67.3647C69.2066 65.8797 69.8216 64.9647 71.0666 64.9647C72.2966 64.9647 72.8366 65.9547 72.8816 67.3647H69.1916ZM78.4145 71.7297C78.9545 71.7297 79.5395 71.6397 79.9295 71.5347L79.8695 70.6197C79.5095 70.6947 79.0145 70.7397 78.7595 70.7397C78.2345 70.7397 77.9795 70.6347 77.8145 70.4547C77.6045 70.2297 77.5595 69.8697 77.5595 69.1647V65.0847H79.4945V64.1697H77.5595V62.2197C77.1695 62.2197 76.6745 62.3247 76.3145 62.4447V64.1847L74.9795 64.3797V65.0847H76.3145V69.3297C76.3145 70.2447 76.4195 70.7397 76.7795 71.1597C77.1095 71.5347 77.6945 71.7297 78.4145 71.7297Z" fill="#3C7521"/>
<path d="M54.1668 42.4326C52.2528 42.4326 50.6963 43.9857 50.6963 45.8956C50.6963 47.8055 52.2528 49.3587 54.1668 49.3587C56.0807 49.3587 57.6373 47.8055 57.6373 45.8956C57.6373 43.9857 56.0807 42.4326 54.1668 42.4326ZM54.1668 47.9052C53.0564 47.9052 52.1529 47.0036 52.1529 45.8956C52.1529 44.7876 53.0564 43.886 54.1668 43.886C55.2772 43.886 56.1807 44.7876 56.1807 45.8956C56.1807 47.0036 55.2772 47.9052 54.1668 47.9052Z" fill="#3C7521" stroke="#3C7521" stroke-width="0.382424"/>
<path d="M53.5648 34.5308C50.4308 34.5308 47.5054 35.8715 45.5384 38.2114C45.3237 38.4658 45.3657 38.8405 45.6332 39.0456C45.9006 39.2496 46.2916 39.2118 46.5063 38.9551C48.2371 36.8982 50.8098 35.718 53.5648 35.718C56.3222 35.718 58.8937 36.8982 60.6232 38.9585C60.7456 39.1041 60.9255 39.1808 61.1066 39.1808C61.2433 39.1808 61.3813 39.1384 61.4952 39.0502C61.7627 38.8451 61.8058 38.4715 61.5912 38.216C59.6265 35.8738 56.7 34.5308 53.5648 34.5308Z" fill="#3C7521" stroke="#3C7521" stroke-width="0.382424"/>
<path d="M53.5664 26.7816C48.0012 26.7816 42.8099 29.233 39.323 33.5066C39.1014 33.7781 39.1447 34.1749 39.422 34.3928C39.5396 34.4853 39.6807 34.5315 39.8231 34.5315C40.0112 34.5315 40.1956 34.4512 40.3219 34.2954C43.5637 30.3212 48.3911 28.0414 53.5664 28.0414C58.7367 28.0414 63.5629 30.3188 66.8072 34.2893C67.03 34.5607 67.4323 34.6033 67.7083 34.3854C67.9831 34.1676 68.0277 33.7708 67.8061 33.4993C64.3167 29.2306 59.1278 26.7816 53.5664 26.7816Z" fill="#3C7521" stroke="#3C7521" stroke-width="0.382424"/>
<path d="M73.2491 29.586C68.4309 23.3716 61.2553 19.8062 53.5637 19.8062C45.8721 19.8062 38.6977 23.3703 33.8795 29.5847C33.6596 29.8682 33.7026 30.2825 33.9778 30.5101C34.2493 30.7363 34.6523 30.6931 34.8709 30.4084C39.4459 24.5067 46.2591 21.1218 53.5637 21.1218C60.8683 21.1218 67.6816 24.5067 72.2577 30.4096C72.383 30.5711 72.5673 30.6562 72.7528 30.6562C72.8928 30.6562 73.0341 30.6092 73.1508 30.5113C73.4248 30.2838 73.469 29.8694 73.2491 29.586Z" fill="#3C7521" stroke="#3C7521" stroke-width="0.382424"/>
</svg>
