<svg width="768" height="120" viewBox="0 0 768 120" fill="none" xmlns="http://www.w3.org/2000/svg">
<path d="M193.038 90.3638L191.761 90.1062L191.536 91.2219L192.612 91.5946L193.038 90.3638ZM195.085 80.2143L195.506 78.9813L194.102 78.5027L193.808 79.9568L195.085 80.2143ZM203.358 82.3465L203.117 83.6266L203.129 83.6288L203.14 83.6308L203.358 82.3465ZM219.905 81.4084L219.229 80.2943L219.222 80.299L219.214 80.3037L219.905 81.4084ZM220.075 71.2589L219.433 72.3923L219.441 72.3967L219.449 72.4011L220.075 71.2589ZM211.887 68.3591L211.554 69.6184L211.562 69.6206L211.887 68.3591ZM202.25 65.1181L201.721 66.3085H201.721L202.25 65.1181ZM195.682 59.7448L196.727 58.9671H196.727L195.682 59.7448ZM198.923 36.9725L199.681 38.0325L198.923 36.9725ZM223.316 33.3904L223.114 34.6773L223.127 34.6792L223.139 34.6809L223.316 33.3904ZM230.992 35.0961L232.268 35.3601L232.502 34.2264L231.404 33.8603L230.992 35.0961ZM228.945 44.9897L228.61 46.2484L229.942 46.6036L230.221 45.2537L228.945 44.9897ZM207.623 44.5633L206.854 43.5115L206.844 43.5187L206.835 43.5262L207.623 44.5633ZM206.855 52.8364L205.907 53.7292L205.934 53.7579L205.963 53.785L206.855 52.8364ZM210.437 55.0539L210.921 53.8444L210.437 55.0539ZM216.578 57.0156L216.231 58.2711L216.238 58.273L216.245 58.2749L216.578 57.0156ZM226.131 60.3419L225.57 61.5175L225.581 61.5227L225.592 61.5278L226.131 60.3419ZM232.527 65.7151L231.471 66.4769L231.477 66.4849L231.482 66.4928L232.527 65.7151ZM230.395 87.8051L231.29 88.7521L231.291 88.7508L230.395 87.8051ZM222.975 92.0696L223.349 93.3173L223.357 93.3149L223.365 93.3125L222.975 92.0696ZM212.399 92.0462C205.355 92.0462 199.049 91.0678 193.465 89.1329L192.612 91.5946C198.514 93.6399 205.115 94.6516 212.399 94.6516V92.0462ZM194.315 90.6213L196.362 80.4718L193.808 79.9568L191.761 90.1062L194.315 90.6213ZM194.665 81.4473C197.234 82.323 200.052 83.0484 203.117 83.6266L203.6 81.0665C200.638 80.5076 197.941 79.8115 195.506 78.9813L194.665 81.4473ZM203.14 83.6308C206.201 84.1506 208.893 84.4168 211.205 84.4168V81.8115C209.082 81.8115 206.543 81.566 203.577 81.0623L203.14 83.6308ZM211.205 84.4168C215.252 84.4168 218.457 83.8493 220.595 82.513L219.214 80.3037C217.713 81.2418 215.119 81.8115 211.205 81.8115V84.4168ZM220.58 82.5224C222.935 81.0948 224.022 78.7063 224.022 75.694H221.417C221.417 78.0265 220.627 79.4475 219.229 80.2943L220.58 82.5224ZM224.022 75.694C224.022 74.5013 223.756 73.3963 223.177 72.4256C222.599 71.4556 221.752 70.6927 220.702 70.1167L219.449 72.4011C220.161 72.7917 220.636 73.2513 220.939 73.7597C221.242 74.2674 221.417 74.8965 221.417 75.694H224.022ZM220.717 70.1256C218.857 69.0711 215.99 68.0707 212.212 67.0976L211.562 69.6206C215.29 70.5807 217.882 71.5135 219.433 72.3923L220.717 70.1256ZM212.221 67.0998C208.395 66.0872 205.254 65.0276 202.779 63.9277L201.721 66.3085C204.363 67.4829 207.646 68.584 211.554 69.6184L212.221 67.0998ZM202.779 63.9277C200.442 62.8893 198.425 61.2488 196.727 58.9671L194.637 60.5225C196.578 63.1308 198.939 65.0724 201.721 66.3085L202.779 63.9277ZM196.727 58.9671C195.128 56.8184 194.256 53.7979 194.256 49.7659H191.65C191.65 54.1493 192.597 57.7814 194.637 60.5225L196.727 58.9671ZM194.256 49.7659C194.256 44.4224 196.102 40.5888 199.681 38.0325L198.166 35.9125C193.785 39.0422 191.65 43.7376 191.65 49.7659H194.256ZM199.681 38.0325C203.376 35.3928 208.344 34.0107 214.702 34.0107V31.4054C207.982 31.4054 202.431 32.8663 198.166 35.9125L199.681 38.0325ZM214.702 34.0107C217.475 34.0107 220.279 34.2325 223.114 34.6773L223.518 32.1034C220.554 31.6384 217.615 31.4054 214.702 31.4054V34.0107ZM223.139 34.6809C225.978 35.0706 228.455 35.6237 230.58 36.332L231.404 33.8603C229.094 33.0903 226.454 32.5062 223.493 32.0998L223.139 34.6809ZM229.717 34.8322L227.67 44.7258L230.221 45.2537L232.268 35.3601L229.717 34.8322ZM229.281 43.7311C224.081 42.3444 219.304 41.6401 214.958 41.6401V44.2455C219.027 44.2455 223.575 44.9058 228.61 46.2484L229.281 43.7311ZM214.958 41.6401C211.476 41.6401 208.679 42.1784 206.854 43.5115L208.392 45.615C209.524 44.7875 211.617 44.2455 214.958 44.2455V41.6401ZM206.835 43.5262C205.049 44.8835 204.188 46.8253 204.188 49.1689H206.793C206.793 47.5324 207.354 46.4037 208.411 45.6004L206.835 43.5262ZM204.188 49.1689C204.188 50.9382 204.743 52.4927 205.907 53.7292L207.804 51.9436C207.148 51.2468 206.793 50.3564 206.793 49.1689H204.188ZM205.963 53.785C207.065 54.8223 208.404 55.6434 209.954 56.2634L210.921 53.8444C209.628 53.3272 208.579 52.6699 207.748 51.8878L205.963 53.785ZM209.954 56.2634C211.442 56.8587 213.543 57.5276 216.231 58.2711L216.926 55.76C214.269 55.0252 212.276 54.3863 210.921 53.8444L209.954 56.2634ZM216.245 58.2749C220.064 59.2858 223.165 60.3699 225.57 61.5175L226.692 59.1662C224.093 57.9257 220.825 56.7922 216.912 55.7563L216.245 58.2749ZM225.592 61.5278C227.867 62.5622 229.828 64.1977 231.471 66.4769L233.584 64.9533C231.702 62.3426 229.398 60.3959 226.67 59.1559L225.592 61.5278ZM231.482 66.4928C233.086 68.647 233.954 71.6145 233.954 75.5234H236.559C236.559 71.2445 235.608 67.6731 233.573 64.9374L231.482 66.4928ZM233.954 75.5234C233.954 80.3403 232.442 84.0718 229.499 86.8594L231.291 88.7508C234.831 85.3975 236.559 80.9412 236.559 75.5234H233.954ZM229.501 86.858C227.609 88.6451 225.312 89.9712 222.585 90.8266L223.365 93.3125C226.438 92.3484 229.088 90.8315 231.29 88.7521L229.501 86.858ZM222.601 90.8218C219.918 91.6266 216.528 92.0462 212.399 92.0462V94.6516C216.685 94.6516 220.346 94.2183 223.349 93.3173L222.601 90.8218ZM265.351 32.708V31.4054H264.487L264.151 32.2002L265.351 32.708ZM276.182 32.708L277.382 33.2159L278.148 31.4054H276.182V32.708ZM250.51 93.3489V94.6516H251.373L251.71 93.8567L250.51 93.3489ZM239.678 93.3489L238.479 92.8411L237.712 94.6516H239.678V93.3489ZM265.351 34.0107H276.182V31.4054H265.351V34.0107ZM274.983 32.2002L249.311 92.8411L251.71 93.8567L277.382 33.2159L274.983 32.2002ZM250.51 92.0462H239.678V94.6516H250.51V92.0462ZM240.878 93.8567L266.55 33.2159L264.151 32.2002L238.479 92.8411L240.878 93.8567ZM285.656 86.4404L284.593 87.1927L284.597 87.1988L285.656 86.4404ZM288.641 38.3372L287.72 37.416L288.641 38.3372ZM295.72 34.0727L295.316 32.8344H295.316L295.72 34.0727ZM317.81 33.8168H319.113V32.7205L318.033 32.5333L317.81 33.8168ZM317.81 43.1134L317.589 44.3971L319.113 44.6598V43.1134H317.81ZM301.52 42.9428L301.204 41.679L301.195 41.6814L301.52 42.9428ZM294.441 50.1924L293.188 49.8345L293.184 49.8512L293.179 49.868L294.441 50.1924ZM293.503 57.7832L292.201 57.735L292.117 59.9943L294.114 58.9336L293.503 57.7832ZM299.558 55.5656L299.272 54.2947L299.265 54.2963L299.558 55.5656ZM318.237 59.5742L317.265 60.4418L317.273 60.451L317.282 60.46L318.237 59.5742ZM317.299 88.061L318.22 88.9821L317.299 88.061ZM308.514 65.971L307.572 66.8714L307.582 66.8819L307.593 66.8921L308.514 65.971ZM297.511 64.2652L297.377 62.9694L297.373 62.9699L297.511 64.2652ZM293.332 64.8622L293.088 63.5825L292.03 63.7842V64.8622H293.332ZM295.294 80.3849L294.139 80.9884L294.145 80.9993L295.294 80.3849ZM301.946 92.0462C294.65 92.0462 289.691 89.8377 286.715 85.6821L284.597 87.1988C288.217 92.2545 294.118 94.6516 301.946 94.6516V92.0462ZM286.72 85.6882C283.646 81.3423 282.012 74.7494 282.012 65.7151H279.407C279.407 74.9896 281.071 82.2136 284.593 87.1927L286.72 85.6882ZM282.012 65.7151C282.012 52.8611 284.646 44.1747 289.562 39.2583L287.72 37.416C282.061 43.0755 279.407 52.6411 279.407 65.7151H282.012ZM289.562 39.2583C291.34 37.4803 293.519 36.1618 296.125 35.311L295.316 32.8344C292.349 33.803 289.809 35.3276 287.72 37.416L289.562 39.2583ZM296.125 35.311C298.745 34.4555 301.955 34.0107 305.785 34.0107V31.4054C301.767 31.4054 298.268 31.8703 295.316 32.8344L296.125 35.311ZM305.785 34.0107C309.452 34.0107 313.386 34.372 317.588 35.1003L318.033 32.5333C313.706 31.7833 309.622 31.4054 305.785 31.4054V34.0107ZM316.508 33.8168V43.1134H319.113V33.8168H316.508ZM318.032 41.8296C314.673 41.2506 311.528 40.9578 308.599 40.9578V43.5631C311.356 43.5631 314.352 43.839 317.589 44.3971L318.032 41.8296ZM308.599 40.9578C305.644 40.9578 303.167 41.1883 301.204 41.679L301.836 44.2066C303.512 43.7875 305.755 43.5631 308.599 43.5631V40.9578ZM301.195 41.6814C299.237 42.1867 297.572 43.0872 296.249 44.4098L298.091 46.252C299.043 45.3002 300.278 44.6087 301.846 44.2041L301.195 41.6814ZM296.249 44.4098C294.817 45.842 293.807 47.668 293.188 49.8345L295.694 50.5503C296.212 48.7367 297.022 47.3217 298.091 46.252L296.249 44.4098ZM293.179 49.868C292.636 51.981 292.317 54.6123 292.201 57.735L294.805 57.8314C294.916 54.8132 295.222 52.384 295.703 50.5168L293.179 49.868ZM294.114 58.9336C295.823 58.0255 297.733 57.3237 299.851 56.8349L299.265 54.2963C296.949 54.831 294.821 55.6076 292.892 56.6328L294.114 58.9336ZM299.844 56.8365C302.035 56.3437 304.128 56.1007 306.126 56.1007V53.4954C303.916 53.4954 301.631 53.7641 299.272 54.2947L299.844 56.8365ZM306.126 56.1007C311.076 56.1007 314.724 57.5956 317.265 60.4418L319.208 58.7066C316.064 55.1846 311.637 53.4954 306.126 53.4954V56.1007ZM317.282 60.46C319.888 63.2709 321.284 67.3736 321.284 72.9647H323.889C323.889 66.9564 322.385 62.1321 319.192 58.6885L317.282 60.46ZM321.284 72.9647C321.284 79.2699 319.589 83.9279 316.377 87.1398L318.22 88.9821C322.058 85.1434 323.889 79.7372 323.889 72.9647H321.284ZM316.377 87.1398C313.172 90.3458 308.433 92.0462 301.946 92.0462V94.6516C308.878 94.6516 314.375 92.8267 318.22 88.9821L316.377 87.1398ZM302.202 85.355C305.262 85.355 307.755 84.3526 309.436 82.1857C311.069 80.0815 311.778 77.0773 311.778 73.3912H309.173C309.173 76.8125 308.503 79.1389 307.378 80.5884C306.302 81.9752 304.659 82.7497 302.202 82.7497V85.355ZM311.778 73.3912C311.778 69.6991 311.136 66.751 309.435 65.0498L307.593 66.8921C308.507 67.8065 309.173 69.8052 309.173 73.3912H311.778ZM309.455 65.0705C307.827 63.3683 305.15 62.7066 301.861 62.7066V65.312C304.941 65.312 306.699 65.9581 307.572 66.8714L309.455 65.0705ZM301.861 62.7066C300.554 62.7066 299.057 62.7956 297.377 62.9694L297.645 65.5609C299.263 65.3936 300.667 65.312 301.861 65.312V62.7066ZM297.373 62.9699C295.756 63.1432 294.326 63.3468 293.088 63.5825L293.576 66.1419C294.726 65.9227 296.083 65.7283 297.65 65.5604L297.373 62.9699ZM292.03 64.8622V68.1032H294.635V64.8622H292.03ZM292.03 68.1032C292.03 73.8273 292.678 78.1917 294.139 80.9884L296.448 79.7814C295.295 77.5745 294.635 73.751 294.635 68.1032H292.03ZM294.145 80.9993C295.727 83.9564 298.533 85.355 302.202 85.355V82.7497C299.276 82.7497 297.476 81.7033 296.443 79.7705L294.145 80.9993ZM349.761 42.5163L350.974 42.9897L351.667 41.2137H349.761V42.5163ZM322.553 42.5163H321.251V43.819H322.553V42.5163ZM322.553 33.8168V32.5141H321.251V33.8168H322.553ZM360.592 33.8168L361.691 33.1174L361.307 32.5141H360.592V33.8168ZM359.825 45.6721L358.6 45.2269L358.596 45.2392L359.825 45.6721ZM343.449 92.1548V93.4575H344.371L344.678 92.5877L343.449 92.1548ZM330.4 92.1548L329.186 91.6815L328.494 93.4575H330.4V92.1548ZM349.761 41.2137H322.553V43.819H349.761V41.2137ZM323.856 42.5163V33.8168H321.251V42.5163H323.856ZM322.553 35.1195H360.592V32.5141H322.553V35.1195ZM359.493 34.5162C359.56 34.6217 359.67 34.8775 359.756 35.3793C359.839 35.8657 359.887 36.5051 359.887 37.3137H362.492C362.492 36.4165 362.44 35.6201 362.324 34.9409C362.211 34.2771 362.022 33.6374 361.691 33.1174L359.493 34.5162ZM359.887 37.3137C359.887 40.2552 359.451 42.8878 358.601 45.2269L361.049 46.1172C362.018 43.4527 362.492 40.513 362.492 37.3137H359.887ZM358.596 45.2392L342.221 91.722L344.678 92.5877L361.053 46.1049L358.596 45.2392ZM343.449 90.8522H330.4V93.4575H343.449V90.8522ZM331.613 92.6282L350.974 42.9897L348.547 42.043L329.186 91.6815L331.613 92.6282ZM370.111 91.9843L370.977 91.0106L370.111 91.9843ZM370.111 81.9201L370.977 82.8937L370.111 81.9201ZM380.09 81.9201L379.225 82.8937L380.09 81.9201ZM380.09 91.9843L379.225 91.0106L380.09 91.9843ZM374.802 92.0462C372.853 92.0462 371.662 91.6199 370.977 91.0106L369.246 92.9579C370.607 94.1681 372.544 94.6516 374.802 94.6516V92.0462ZM370.977 91.0106C370.352 90.4551 369.879 89.3946 369.879 87.4639H367.274C367.274 89.7408 367.824 91.694 369.246 92.9579L370.977 91.0106ZM369.879 87.4639V86.4404H367.274V87.4639H369.879ZM369.879 86.4404C369.879 84.5098 370.352 83.4493 370.977 82.8937L369.246 80.9465C367.824 82.2104 367.274 84.1635 367.274 86.4404H369.879ZM370.977 82.8937C371.662 82.2844 372.853 81.8581 374.802 81.8581V79.2528C372.544 79.2528 370.607 79.7363 369.246 80.9465L370.977 82.8937ZM374.802 81.8581H375.399V79.2528H374.802V81.8581ZM375.399 81.8581C377.349 81.8581 378.539 82.2844 379.225 82.8937L380.956 80.9465C379.594 79.7363 377.658 79.2528 375.399 79.2528V81.8581ZM379.225 82.8937C379.85 83.4493 380.323 84.5098 380.323 86.4404H382.928C382.928 84.1635 382.378 82.2104 380.956 80.9465L379.225 82.8937ZM380.323 86.4404V87.4639H382.928V86.4404H380.323ZM380.323 87.4639C380.323 89.3946 379.85 90.4551 379.225 91.0106L380.956 92.9579C382.378 91.694 382.928 89.7408 382.928 87.4639H380.323ZM379.225 91.0106C378.539 91.6199 377.349 92.0462 375.399 92.0462V94.6516C377.658 94.6516 379.594 94.1681 380.956 92.9579L379.225 91.0106ZM375.399 92.0462H374.802V94.6516H375.399V92.0462ZM392.394 92.2401H391.091V93.3364L392.172 93.5237L392.394 92.2401ZM392.394 82.9436L392.615 81.6599L391.091 81.3971V82.9436H392.394ZM408.599 83.1142L408.283 81.8503L408.274 81.8528L408.599 83.1142ZM413.034 80.7261L413.955 81.6472L413.034 80.7261ZM415.678 75.8645L414.426 75.5067L414.421 75.5233L414.416 75.5401L415.678 75.8645ZM416.702 68.2738L418.003 68.322L418.087 66.0627L416.09 67.1234L416.702 68.2738ZM410.561 70.4913L410.275 69.2204L410.268 69.222L410.561 70.4913ZM391.882 66.568L390.911 67.4356L390.919 67.4447L390.927 67.4537L391.882 66.568ZM392.906 37.996L391.985 37.0749L392.906 37.996ZM424.548 39.7018L423.485 40.454L423.489 40.4602L424.548 39.7018ZM421.563 87.7198L422.484 88.6409L421.563 87.7198ZM414.484 91.9843L414.888 93.2226L414.484 91.9843ZM412.608 61.7918L412.474 60.496L412.469 60.4965L412.608 61.7918ZM416.872 61.1947L417.116 62.4744L418.175 62.2727V61.1947H416.872ZM414.91 45.7573L413.756 46.3608L413.762 46.3717L414.91 45.7573ZM401.605 60.086L400.664 60.9864L400.674 60.9969L400.684 61.0071L401.605 60.086ZM404.42 92.0462C400.752 92.0462 396.818 91.6849 392.616 90.9566L392.172 93.5237C396.499 94.2737 400.582 94.6516 404.42 94.6516V92.0462ZM393.697 92.2401V82.9436H391.091V92.2401H393.697ZM392.173 84.2273C395.531 84.8064 398.676 85.0991 401.605 85.0991V82.4938C398.848 82.4938 395.853 82.218 392.615 81.6599L392.173 84.2273ZM401.605 85.0991C404.558 85.0991 407.012 84.8691 408.925 84.3755L408.274 81.8528C406.661 82.269 404.452 82.4938 401.605 82.4938V85.0991ZM408.915 84.3779C410.925 83.8754 412.625 82.9773 413.955 81.6472L412.113 79.8049C411.169 80.7491 409.912 81.4431 408.283 81.8504L408.915 84.3779ZM413.955 81.6472C415.396 80.2064 416.379 78.3679 416.94 76.189L414.416 75.5401C413.953 77.3414 413.174 78.7439 412.113 79.8049L413.955 81.6472ZM416.931 76.2224C417.538 74.0956 417.887 71.4519 418.003 68.322L415.4 68.2256C415.288 71.2365 414.955 73.6533 414.426 75.5067L416.931 76.2224ZM416.09 67.1234C414.386 68.0289 412.45 68.7309 410.275 69.2204L410.847 71.7622C413.22 71.2283 415.378 70.4519 417.313 69.4242L416.09 67.1234ZM410.268 69.222C408.139 69.7134 406.076 69.9562 404.079 69.9562V72.5616C406.289 72.5616 408.548 72.2927 410.854 71.7606L410.268 69.222ZM404.079 69.9562C399.122 69.9562 395.437 68.4852 392.837 65.6823L390.927 67.4537C394.128 70.9054 398.573 72.5616 404.079 72.5616V69.9562ZM392.854 65.7004C390.29 62.8292 388.92 58.6877 388.92 53.0922H386.315C386.315 59.0961 387.788 63.9385 390.911 67.4356L392.854 65.7004ZM388.92 53.0922C388.92 46.787 390.615 42.129 393.827 38.9171L391.985 37.0749C388.146 40.9136 386.315 46.3197 386.315 53.0922H388.92ZM393.827 38.9171C397.033 35.7112 401.771 34.0107 408.258 34.0107V31.4054C401.326 31.4054 395.829 33.2302 391.985 37.0749L393.827 38.9171ZM408.258 34.0107C415.548 34.0107 420.507 36.2437 423.485 40.454L425.612 38.9495C421.994 33.8349 416.092 31.4054 408.258 31.4054V34.0107ZM423.489 40.4602C426.558 44.746 428.192 51.3057 428.192 60.3419H430.798C430.798 51.0691 429.134 43.8689 425.607 38.9434L423.489 40.4602ZM428.192 60.3419C428.192 73.1958 425.558 81.8822 420.642 86.7987L422.484 88.6409C428.144 82.9815 430.798 73.4159 430.798 60.3419H428.192ZM420.642 86.7987C418.864 88.5767 416.685 89.8951 414.08 90.7459L414.888 93.2226C417.855 92.2539 420.396 90.7294 422.484 88.6409L420.642 86.7987ZM414.08 90.7459C411.46 91.6014 408.249 92.0462 404.42 92.0462V94.6516C408.437 94.6516 411.936 94.1866 414.888 93.2226L414.08 90.7459ZM408.343 63.3503C409.651 63.3503 411.12 63.2613 412.746 63.087L412.469 60.4965C410.911 60.6635 409.537 60.745 408.343 60.745V63.3503ZM412.742 63.0875C414.415 62.9144 415.875 62.7107 417.116 62.4744L416.628 59.9151C415.481 60.1336 414.098 60.328 412.474 60.496L412.742 63.0875ZM418.175 61.1947V57.9537H415.569V61.1947H418.175ZM418.175 57.9537C418.175 52.2339 417.528 47.8894 416.059 45.1429L413.762 46.3717C414.908 48.5152 415.569 52.3017 415.569 57.9537H418.175ZM416.065 45.1539C415.301 43.6922 414.221 42.5567 412.824 41.7981C411.439 41.0455 409.813 40.7019 408.002 40.7019V43.3073C409.489 43.3073 410.663 43.5891 411.581 44.0875C412.487 44.5798 413.212 45.3206 413.756 46.3608L416.065 45.1539ZM408.002 40.7019C404.943 40.7019 402.45 41.7044 400.768 43.8713C399.135 45.9755 398.426 48.9796 398.426 52.6658H401.032C401.032 49.2445 401.701 46.9181 402.826 45.4685C403.902 44.0817 405.546 43.3073 408.002 43.3073V40.7019ZM398.426 52.6658C398.426 56.3487 399.037 59.2858 400.664 60.9864L402.547 59.1856C401.671 58.2706 401.032 56.261 401.032 52.6658H398.426ZM400.684 61.0071C402.362 62.6851 405.046 63.3503 408.343 63.3503V60.745C405.272 60.745 403.464 60.1024 402.526 59.1649L400.684 61.0071ZM441.487 85.9287L440.417 86.6708L440.422 86.6778L440.427 86.6847L441.487 85.9287ZM441.487 40.2135L440.423 39.4632L440.417 39.4714L441.487 40.2135ZM475.689 40.2135L474.618 40.9557L474.624 40.9638L475.689 40.2135ZM475.689 85.9287L474.624 85.1784L474.622 85.1809L475.689 85.9287ZM464.26 81.7495L465.118 82.7299L464.26 81.7495ZM467.245 75.5234L465.976 75.2305L465.973 75.2421L465.97 75.2538L467.245 75.5234ZM467.245 50.363L465.968 50.6185L465.97 50.632L465.973 50.6456L467.245 50.363ZM464.174 43.7104L463.253 44.6315L463.273 44.6507L463.293 44.6691L464.174 43.7104ZM453.002 43.7104L453.903 44.6509L453.904 44.6501L453.002 43.7104ZM449.931 50.363L448.658 50.0853L448.656 50.0941L448.655 50.103L449.931 50.363ZM449.931 75.5234L448.657 75.793L448.659 75.8047L448.662 75.8163L449.931 75.5234ZM453.002 81.7495L453.859 80.7692L453.002 81.7495ZM458.631 92.0462C451.008 92.0462 445.758 89.6764 442.548 85.1727L440.427 86.6847C444.268 92.0746 450.446 94.6516 458.631 94.6516V92.0462ZM442.558 85.1866C439.312 80.5043 437.587 73.203 437.587 63.0711H434.982C434.982 73.4087 436.726 81.3458 440.417 86.6708L442.558 85.1866ZM437.587 63.0711C437.587 52.9392 439.312 45.6379 442.558 40.9556L440.417 39.4714C436.726 44.7964 434.982 52.7335 434.982 63.0711H437.587ZM442.552 40.9638C445.764 36.405 451.014 34.0107 458.631 34.0107V31.4054C450.44 31.4054 444.261 34.0147 440.423 39.4632L442.552 40.9638ZM458.631 34.0107C466.248 34.0107 471.464 36.4052 474.618 40.9556L476.759 39.4714C472.977 34.0145 466.82 31.4054 458.631 31.4054V34.0107ZM474.624 40.9638C477.921 45.6444 479.674 52.942 479.674 63.0711H482.279C482.279 52.7307 480.506 44.79 476.753 39.4632L474.624 40.9638ZM479.674 63.0711C479.674 73.2002 477.921 80.4979 474.624 85.1784L476.753 86.679C480.506 81.3522 482.279 73.4115 482.279 63.0711H479.674ZM474.622 85.1809C471.47 89.6762 466.254 92.0462 458.631 92.0462V94.6516C466.814 94.6516 472.97 92.0748 476.755 86.6766L474.622 85.1809ZM458.631 84.8433C461.233 84.8433 463.449 84.1902 465.118 82.7299L463.402 80.7692C462.342 81.697 460.805 82.2379 458.631 82.2379V84.8433ZM465.118 82.7299C466.794 81.2626 467.871 78.8581 468.519 75.793L465.97 75.2538C465.368 78.1021 464.454 79.8484 463.402 80.7692L465.118 82.7299ZM468.514 75.8163C469.229 72.7174 469.571 68.4521 469.571 63.0711H466.966C466.966 68.3798 466.625 72.4159 465.976 75.2305L468.514 75.8163ZM469.571 63.0711C469.571 57.6317 469.229 53.2865 468.517 50.0804L465.973 50.6456C466.625 53.5803 466.966 57.7072 466.966 63.0711H469.571ZM468.522 50.1075C467.875 46.8702 466.775 44.3327 465.056 42.7517L463.293 44.6691C464.417 45.7037 465.364 47.6012 465.968 50.6185L468.522 50.1075ZM465.096 42.7893C463.437 41.131 461.231 40.3608 458.631 40.3608V42.9661C460.693 42.9661 462.182 43.5606 463.253 44.6315L465.096 42.7893ZM458.631 40.3608C456.029 40.3608 453.807 41.1313 452.099 42.7707L453.904 44.6501C455.039 43.5603 456.57 42.9661 458.631 42.9661V40.3608ZM452.1 42.7699C450.459 44.3425 449.362 46.8617 448.658 50.0853L451.204 50.6407C451.865 47.6096 452.815 45.6939 453.903 44.6509L452.1 42.7699ZM448.655 50.103C448.004 53.2987 447.69 57.6351 447.69 63.0711H450.296C450.296 57.7038 450.608 53.5681 451.208 50.623L448.655 50.103ZM447.69 63.0711C447.69 68.4488 448.003 72.7049 448.657 75.793L451.206 75.2538C450.608 72.4284 450.296 68.3831 450.296 63.0711H447.69ZM448.662 75.8163C449.368 78.8772 450.476 81.2703 452.144 82.7299L453.859 80.7692C452.798 79.8406 451.859 78.083 451.2 75.2305L448.662 75.8163ZM452.144 82.7299C453.813 84.1902 456.029 84.8433 458.631 84.8433V82.2379C456.456 82.2379 454.92 81.697 453.859 80.7692L452.144 82.7299Z" fill="white"/>
<path d="M5.76124 67.5186H9.35659L9.56502 69.3944C10.8503 68.5259 12.1877 67.8833 13.5772 67.4664C15.0015 67.0149 16.3215 66.7891 17.5373 66.7891C20.7679 66.7891 23.1996 67.9875 24.8323 70.3844C26.4997 72.7466 27.3334 76.0119 27.3334 80.1805C27.3334 84.8353 26.4649 88.2743 24.728 90.4976C22.9912 92.686 20.5421 93.7803 17.381 93.7803C16.061 93.7803 14.7409 93.6066 13.4209 93.2592C12.1356 92.9118 11.024 92.4429 10.0861 91.8523V104.775H5.76124V67.5186ZM16.2868 90.1849C18.6142 90.1849 20.2816 89.4207 21.289 87.8922C22.2964 86.329 22.8001 83.7411 22.8001 80.1283C22.8001 76.863 22.2964 74.4487 21.289 72.8855C20.2816 71.2876 18.7184 70.4886 16.5994 70.4886C15.6268 70.4886 14.5499 70.6449 13.3688 70.9576C12.1877 71.2702 11.0935 71.6871 10.0861 72.2081V88.6217C10.8503 89.0733 11.8056 89.4554 12.9519 89.7681C14.0983 90.046 15.2099 90.1849 16.2868 90.1849ZM43.0341 93.7803C39.1435 93.7803 36.2255 92.6166 34.2802 90.2891C32.3697 87.9617 31.4144 84.6269 31.4144 80.2847C31.4144 75.9425 32.3697 72.6076 34.2802 70.2802C36.2255 67.9528 39.1435 66.7891 43.0341 66.7891C46.9248 66.7891 49.8254 67.9528 51.7359 70.2802C53.6813 72.6076 54.6539 75.9425 54.6539 80.2847C54.6539 84.6269 53.6813 87.9617 51.7359 90.2891C49.8254 92.6166 46.9248 93.7803 43.0341 93.7803ZM43.0341 90.237C45.57 90.237 47.3764 89.4207 48.4532 87.788C49.5648 86.1553 50.1206 83.6542 50.1206 80.2847C50.1206 76.9151 49.5648 74.414 48.4532 72.7813C47.3764 71.1486 45.57 70.3323 43.0341 70.3323C40.4983 70.3323 38.6746 71.1486 37.5629 72.7813C36.4861 74.414 35.9476 76.9151 35.9476 80.2847C35.9476 83.6542 36.4861 86.1553 37.5629 87.788C38.6746 89.4207 40.4983 90.237 43.0341 90.237ZM60.0824 67.5186H63.6777L63.9382 69.707C66.2657 67.7617 68.6799 66.7891 71.1811 66.7891C71.7021 66.7891 72.2579 66.8412 72.8485 66.9454V70.8013C72.0842 70.7318 71.3374 70.6971 70.6079 70.6971C68.3152 70.6971 66.2483 71.2702 64.4072 72.4166V93.0508H60.0824V67.5186ZM93.8507 93.7803C92.6349 93.7803 91.3148 93.6761 89.8906 93.4676C88.5011 93.2592 87.32 92.9987 86.3473 92.686L86.5558 89.3512C87.5979 89.6291 88.7616 89.8549 90.0469 90.0286C91.3669 90.2023 92.5828 90.2891 93.6944 90.2891C95.7786 90.2891 97.3592 89.9591 98.4361 89.2991C99.5477 88.6044 100.103 87.597 100.103 86.2769C100.103 85.1653 99.6345 84.3316 98.6966 83.7758C97.7587 83.22 96.2823 82.6295 94.2675 82.0042C92.4612 81.4136 91.0022 80.8752 89.8906 80.3889C88.8137 79.8678 87.8758 79.1036 87.0768 78.0962C86.2779 77.0888 85.8784 75.7688 85.8784 74.1361C85.8784 71.7392 86.7121 69.9155 88.3795 68.6649C90.0816 67.4143 92.3396 66.7891 95.1534 66.7891C96.4039 66.7891 97.6892 66.8933 99.0092 67.1017C100.364 67.3101 101.562 67.5707 102.605 67.8833L102.24 71.0618C99.8082 70.506 97.5676 70.2281 95.5181 70.2281C91.8012 70.2281 89.9427 71.4265 89.9427 73.8234C89.9427 74.9698 90.4117 75.8382 91.3496 76.4288C92.3222 77.0193 93.816 77.6272 95.8307 78.2525C97.5676 78.7736 98.9919 79.2946 100.103 79.8157C101.25 80.3368 102.205 81.101 102.969 82.1084C103.768 83.0811 104.168 84.3663 104.168 85.9643C104.168 88.5696 103.247 90.5323 101.406 91.8523C99.565 93.1376 97.0466 93.7803 93.8507 93.7803ZM120.026 93.7803C116.135 93.7803 113.217 92.6166 111.272 90.2891C109.361 87.9617 108.406 84.6269 108.406 80.2847C108.406 75.9425 109.361 72.6076 111.272 70.2802C113.217 67.9528 116.135 66.7891 120.026 66.7891C123.916 66.7891 126.817 67.9528 128.728 70.2802C130.673 72.6076 131.645 75.9425 131.645 80.2847C131.645 84.6269 130.673 87.9617 128.728 90.2891C126.817 92.6166 123.916 93.7803 120.026 93.7803ZM120.026 90.237C122.562 90.237 124.368 89.4207 125.445 87.788C126.556 86.1553 127.112 83.6542 127.112 80.2847C127.112 76.9151 126.556 74.414 125.445 72.7813C124.368 71.1486 122.562 70.3323 120.026 70.3323C117.49 70.3323 115.666 71.1486 114.555 72.7813C113.478 74.414 112.939 76.9151 112.939 80.2847C112.939 83.6542 113.478 86.1553 114.555 87.788C115.666 89.4207 117.49 90.237 120.026 90.237ZM137.126 55.7946H141.451V93.0508H137.126V55.7946ZM158.521 93.7803C154.631 93.7803 151.713 92.6166 149.768 90.2891C147.857 87.9617 146.902 84.6269 146.902 80.2847C146.902 75.9425 147.857 72.6076 149.768 70.2802C151.713 67.9528 154.631 66.7891 158.521 66.7891C162.412 66.7891 165.313 67.9528 167.223 70.2802C169.169 72.6076 170.141 75.9425 170.141 80.2847C170.141 84.6269 169.169 87.9617 167.223 90.2891C165.313 92.6166 162.412 93.7803 158.521 93.7803ZM158.521 90.237C161.057 90.237 162.864 89.4207 163.941 87.788C165.052 86.1553 165.608 83.6542 165.608 80.2847C165.608 76.9151 165.052 74.414 163.941 72.7813C162.864 71.1486 161.057 70.3323 158.521 70.3323C155.986 70.3323 154.162 71.1486 153.05 72.7813C151.973 74.414 151.435 76.9151 151.435 80.2847C151.435 83.6542 151.973 86.1553 153.05 87.788C154.162 89.4207 155.986 90.237 158.521 90.237Z" fill="white"/>
<path d="M509.96 67.571H513.556L513.764 69.4468C515.049 68.5784 516.387 67.9357 517.776 67.5189C519.2 67.0673 520.52 66.8415 521.736 66.8415C524.967 66.8415 527.398 68.0399 529.031 70.4368C530.699 72.799 531.532 76.0644 531.532 80.2329C531.532 84.8877 530.664 88.3268 528.927 90.55C527.19 92.7385 524.741 93.8327 521.58 93.8327C520.26 93.8327 518.94 93.659 517.62 93.3116C516.335 92.9643 515.223 92.4953 514.285 91.9048V104.827H509.96V67.571ZM520.486 90.2373C522.813 90.2373 524.481 89.4731 525.488 87.9447C526.495 86.3815 526.999 83.7935 526.999 80.1808C526.999 76.9154 526.495 74.5012 525.488 72.938C524.481 71.34 522.917 70.5411 520.798 70.5411C519.826 70.5411 518.749 70.6974 517.568 71.01C516.387 71.3227 515.292 71.7395 514.285 72.2606V88.6742C515.049 89.1257 516.005 89.5079 517.151 89.8205C518.297 90.0984 519.409 90.2373 520.486 90.2373ZM547.233 93.8327C543.342 93.8327 540.424 92.669 538.479 90.3416C536.569 88.0141 535.613 84.6793 535.613 80.3371C535.613 75.9949 536.569 72.6601 538.479 70.3326C540.424 68.0052 543.342 66.8415 547.233 66.8415C551.124 66.8415 554.024 68.0052 555.935 70.3326C557.88 72.6601 558.853 75.9949 558.853 80.3371C558.853 84.6793 557.88 88.0141 555.935 90.3416C554.024 92.669 551.124 93.8327 547.233 93.8327ZM547.233 90.2895C549.769 90.2895 551.575 89.4731 552.652 87.8404C553.764 86.2078 554.32 83.7067 554.32 80.3371C554.32 76.9675 553.764 74.4664 552.652 72.8337C551.575 71.2011 549.769 70.3847 547.233 70.3847C544.697 70.3847 542.873 71.2011 541.762 72.8337C540.685 74.4664 540.147 76.9675 540.147 80.3371C540.147 83.7067 540.685 86.2078 541.762 87.8404C542.873 89.4731 544.697 90.2895 547.233 90.2895ZM564.281 67.571H567.877L568.137 69.7595C570.465 67.8141 572.879 66.8415 575.38 66.8415C575.901 66.8415 576.457 66.8936 577.047 66.9978V70.8537C576.283 70.7842 575.536 70.7495 574.807 70.7495C572.514 70.7495 570.447 71.3227 568.606 72.469V93.1032H564.281V67.571ZM599.248 93.8327C596.504 93.8327 593.951 93.5374 591.588 92.9469V89.5079C593.742 89.9594 596.104 90.1852 598.675 90.1852C600.308 90.1852 601.662 90.0637 602.739 89.8205C603.851 89.5426 604.771 89.1257 605.501 88.5699C607.029 87.4583 607.794 85.6867 607.794 83.2551C607.794 82.2824 607.637 81.3792 607.325 80.5455C607.012 79.7118 606.578 79.0171 606.022 78.4613C605.292 77.7665 604.337 77.2802 603.156 77.0023C601.975 76.6896 600.516 76.5333 598.779 76.5333H597.841V73.3027H598.727C604.181 73.3027 606.908 71.0795 606.908 66.6331C606.908 64.5488 606.317 63.003 605.136 61.9956C604.476 61.4398 603.625 61.0403 602.583 60.7971C601.541 60.5192 600.238 60.3803 598.675 60.3803C596.625 60.3803 594.454 60.5713 592.162 60.9534V57.5665C594.454 57.0454 596.903 56.7849 599.509 56.7849C603.712 56.7849 606.769 57.7228 608.679 59.5987C610.416 61.2661 611.285 63.5414 611.285 66.4246C611.285 68.4394 610.798 70.1416 609.826 71.5311C608.853 72.8859 607.55 73.8759 605.918 74.5012C607.932 75.1959 609.496 76.2902 610.607 77.7839C611.754 79.2776 612.327 81.1187 612.327 83.3072C612.327 86.642 611.215 89.23 608.992 91.0711C606.734 92.9122 603.486 93.8327 599.248 93.8327ZM629.671 67.571H633.266L633.475 69.4468C636.254 67.7099 638.998 66.8415 641.708 66.8415C644.869 66.8415 647.179 67.7968 648.638 69.7073C651.799 67.7968 654.856 66.8415 657.809 66.8415C660.622 66.8415 662.759 67.5883 664.218 69.0821C665.642 70.5063 666.354 72.7295 666.354 75.7517V93.1032H662.029V76.2728C662.029 75.1959 661.925 74.3275 661.717 73.6675C661.543 72.9727 661.23 72.3995 660.779 71.9479C659.91 71.0795 658.573 70.6453 656.766 70.6453C655.724 70.6453 654.595 70.8016 653.379 71.1142C652.164 71.3921 651 71.809 649.888 72.3648C650.132 73.4417 650.253 74.5706 650.253 75.7517V93.1032H645.928V76.2728C645.928 75.1959 645.824 74.3275 645.616 73.6675C645.442 72.9727 645.129 72.3995 644.678 71.9479C643.809 71.0795 642.472 70.6453 640.665 70.6453C638.546 70.6453 636.323 71.2011 633.996 72.3127V93.1032H629.671V67.571ZM684.112 93.8327C680.082 93.8327 677.043 92.8079 674.993 90.7584C672.77 88.5352 671.658 85.0788 671.658 80.3892C671.658 75.9775 672.648 72.6253 674.628 70.3326C676.643 68.0052 679.335 66.8415 682.705 66.8415C686.213 66.8415 688.853 68.0226 690.625 70.3847C692.397 72.7122 693.283 76.0122 693.283 80.285V81.275C693.283 81.6571 693.074 81.8482 692.657 81.8482H676.192C676.192 84.8009 676.938 86.972 678.432 88.3615C679.127 89.0215 679.995 89.5079 681.037 89.8205C682.08 90.1331 683.382 90.2895 684.945 90.2895C686.995 90.2895 689.097 90.0637 691.25 89.6121L691.667 92.8427C690.59 93.1553 689.357 93.3985 687.968 93.5722C686.613 93.7459 685.328 93.8327 684.112 93.8327ZM689.01 78.6697C688.94 76.0991 688.385 74.0669 687.342 72.5732C686.3 71.0795 684.754 70.3326 682.705 70.3326C680.586 70.3326 678.971 71.0621 677.859 72.5211C676.782 73.9801 676.226 76.0296 676.192 78.6697H689.01ZM705.572 93.8327C704.357 93.8327 703.037 93.7285 701.612 93.5201C700.223 93.3116 699.042 93.0511 698.069 92.7385L698.277 89.4036C699.32 89.6815 700.483 89.9073 701.769 90.081C703.089 90.2547 704.304 90.3416 705.416 90.3416C707.5 90.3416 709.081 90.0116 710.158 89.3515C711.269 88.6568 711.825 87.6494 711.825 86.3294C711.825 85.2177 711.356 84.384 710.418 83.8282C709.48 83.2724 708.004 82.6819 705.989 82.0566C704.183 81.4661 702.724 80.9276 701.612 80.4413C700.535 79.9202 699.597 79.156 698.799 78.1486C698 77.1412 697.6 75.8212 697.6 74.1885C697.6 71.7916 698.434 69.9679 700.101 68.7173C701.803 67.4668 704.061 66.8415 706.875 66.8415C708.126 66.8415 709.411 66.9457 710.731 67.1541C712.086 67.3626 713.284 67.6231 714.326 67.9357L713.962 71.1142C711.53 70.5584 709.289 70.2805 707.24 70.2805C703.523 70.2805 701.664 71.479 701.664 73.8759C701.664 75.0222 702.133 75.8907 703.071 76.4812C704.044 77.0717 705.538 77.6797 707.552 78.3049C709.289 78.826 710.714 79.3471 711.825 79.8681C712.972 80.3892 713.927 81.1534 714.691 82.1608C715.49 83.1335 715.889 84.4188 715.889 86.0167C715.889 88.622 714.969 90.5847 713.128 91.9048C711.287 93.1901 708.768 93.8327 705.572 93.8327ZM732.581 93.8327C728.552 93.8327 725.512 92.8079 723.462 90.7584C721.239 88.5352 720.128 85.0788 720.128 80.3892C720.128 75.9775 721.118 72.6253 723.098 70.3326C725.112 68.0052 727.805 66.8415 731.174 66.8415C734.683 66.8415 737.323 68.0226 739.094 70.3847C740.866 72.7122 741.752 76.0122 741.752 80.285V81.275C741.752 81.6571 741.543 81.8482 741.127 81.8482H724.661C724.661 84.8009 725.408 86.972 726.901 88.3615C727.596 89.0215 728.465 89.5079 729.507 89.8205C730.549 90.1331 731.852 90.2895 733.415 90.2895C735.464 90.2895 737.566 90.0637 739.72 89.6121L740.137 92.8427C739.06 93.1553 737.826 93.3985 736.437 93.5722C735.082 93.7459 733.797 93.8327 732.581 93.8327ZM737.479 78.6697C737.41 76.0991 736.854 74.0669 735.812 72.5732C734.77 71.0795 733.224 70.3326 731.174 70.3326C729.055 70.3326 727.44 71.0621 726.328 72.5211C725.251 73.9801 724.696 76.0296 724.661 78.6697H737.479ZM754.042 93.8327C752.826 93.8327 751.506 93.7285 750.082 93.5201C748.692 93.3116 747.511 93.0511 746.538 92.7385L746.747 89.4036C747.789 89.6815 748.953 89.9073 750.238 90.081C751.558 90.2547 752.774 90.3416 753.885 90.3416C755.97 90.3416 757.55 90.0116 758.627 89.3515C759.739 88.6568 760.294 87.6494 760.294 86.3294C760.294 85.2177 759.825 84.384 758.888 83.8282C757.95 83.2724 756.473 82.6819 754.459 82.0566C752.652 81.4661 751.193 80.9276 750.082 80.4413C749.005 79.9202 748.067 79.156 747.268 78.1486C746.469 77.1412 746.069 75.8212 746.069 74.1885C746.069 71.7916 746.903 69.9679 748.57 68.7173C750.273 67.4668 752.531 66.8415 755.344 66.8415C756.595 66.8415 757.88 66.9457 759.2 67.1541C760.555 67.3626 761.753 67.6231 762.796 67.9357L762.431 71.1142C759.999 70.5584 757.759 70.2805 755.709 70.2805C751.992 70.2805 750.134 71.479 750.134 73.8759C750.134 75.0222 750.603 75.8907 751.541 76.4812C752.513 77.0717 754.007 77.6797 756.022 78.3049C757.759 78.826 759.183 79.3471 760.294 79.8681C761.441 80.3892 762.396 81.1534 763.16 82.1608C763.959 83.1335 764.359 84.4188 764.359 86.0167C764.359 88.622 763.438 90.5847 761.597 91.9048C759.756 93.1901 757.238 93.8327 754.042 93.8327Z" fill="white"/>
<path d="M215.873 93.3489C208.709 93.3489 202.255 92.3539 196.512 90.3638L198.559 80.2143C201.061 81.0672 203.819 81.778 206.832 82.3466C209.846 82.8583 212.461 83.1142 214.679 83.1142C218.659 83.1142 221.559 82.5456 223.378 81.4084C225.255 80.2712 226.193 78.3664 226.193 75.694C226.193 73.7039 225.312 72.2255 223.549 71.2589C221.843 70.2923 219.114 69.3257 215.361 68.3591C211.495 67.3356 208.282 66.2553 205.724 65.1181C203.165 63.9809 200.976 62.1898 199.156 59.7448C197.337 57.2999 196.427 53.9736 196.427 49.766C196.427 44.08 198.417 39.8155 202.397 36.9725C206.377 34.1295 211.637 32.708 218.176 32.708C221.019 32.708 223.89 32.9355 226.79 33.3904C229.69 33.7884 232.249 34.357 234.466 35.0961L232.419 44.9897C227.302 43.6251 222.639 42.9428 218.432 42.9428C215.02 42.9428 212.575 43.483 211.097 44.5633C209.675 45.6436 208.965 47.1788 208.965 49.1689C208.965 50.6473 209.419 51.8698 210.329 52.8364C211.296 53.7461 212.49 54.4853 213.911 55.0539C215.333 55.6225 217.38 56.2764 220.052 57.0156C223.919 58.039 227.103 59.1478 229.605 60.3419C232.106 61.479 234.239 63.2701 236.001 65.7151C237.821 68.1601 238.731 71.4295 238.731 75.5234C238.731 80.6408 237.11 84.7347 233.869 87.8051C231.822 89.7383 229.349 91.1598 226.449 92.0696C223.606 92.9225 220.081 93.3489 215.873 93.3489ZM268.824 32.708H279.656L253.984 93.3489H243.152L268.824 32.708ZM305.42 93.3489C297.858 93.3489 292.428 91.0461 289.13 86.4404C285.832 81.778 284.183 74.8695 284.183 65.7151C284.183 52.7511 286.827 43.6251 292.115 38.3372C294.048 36.4039 296.408 34.9824 299.194 34.0727C301.98 33.1629 305.335 32.708 309.258 32.708C313.011 32.708 317.02 33.0776 321.284 33.8168V43.1134C317.986 42.5448 314.916 42.2605 312.073 42.2605C309.173 42.2605 306.813 42.4879 304.994 42.9428C303.231 43.3977 301.781 44.1937 300.644 45.3309C299.393 46.5818 298.483 48.2023 297.915 50.1924C297.403 52.1825 297.09 54.7127 296.977 57.7832C298.796 56.8166 300.815 56.0774 303.032 55.5656C305.307 55.0539 307.496 54.798 309.6 54.798C314.831 54.798 318.868 56.3901 321.711 59.5742C324.61 62.7015 326.06 67.165 326.06 72.9647C326.06 79.5036 324.298 84.5356 320.772 88.0609C317.247 91.5862 312.13 93.3489 305.42 93.3489ZM305.676 84.0523C311.192 84.0523 313.949 80.4986 313.949 73.3911C313.949 69.7521 313.295 67.2787 311.988 65.971C310.737 64.6632 308.519 64.0093 305.335 64.0093C304.084 64.0093 302.634 64.0946 300.985 64.2652C299.393 64.4357 298 64.6348 296.806 64.8622V68.1032C296.806 73.7892 297.46 77.8831 298.768 80.3849C300.076 82.8299 302.378 84.0523 305.676 84.0523ZM353.234 42.5163H326.027V33.8168H364.066C364.464 34.4423 364.663 35.6079 364.663 37.3137C364.663 40.3841 364.208 43.1702 363.299 45.6721L346.923 92.1548H333.874L353.234 42.5163ZM378.276 93.3489C376.172 93.3489 374.609 92.894 373.585 91.9843C372.562 91.0745 372.05 89.5677 372.05 87.4639V86.4404C372.05 84.3366 372.562 82.8299 373.585 81.9201C374.609 81.0103 376.172 80.5555 378.276 80.5555H378.873C380.977 80.5555 382.541 81.0103 383.564 81.9201C384.588 82.8299 385.099 84.3366 385.099 86.4404V87.4639C385.099 89.5677 384.588 91.0745 383.564 91.9843C382.541 92.894 380.977 93.3489 378.873 93.3489H378.276ZM407.894 93.3489C404.141 93.3489 400.132 92.9793 395.868 92.2401V82.9436C399.166 83.5122 402.236 83.7965 405.079 83.7965C407.979 83.7965 410.31 83.569 412.073 83.1142C413.892 82.6593 415.371 81.8632 416.508 80.726C417.759 79.4751 418.64 77.8546 419.152 75.8645C419.721 73.8745 420.062 71.3442 420.175 68.2738C418.356 69.2404 416.309 69.9796 414.035 70.4913C411.817 71.003 409.656 71.2589 407.553 71.2589C402.321 71.2589 398.256 69.6953 395.356 66.568C392.513 63.3838 391.092 58.8919 391.092 53.0922C391.092 46.5534 392.854 41.5213 396.38 37.996C399.905 34.4707 405.022 32.708 411.732 32.708C419.294 32.708 424.724 35.0393 428.022 39.7018C431.32 44.3074 432.969 51.1874 432.969 60.3419C432.969 73.3059 430.325 82.4318 425.037 87.7198C423.104 89.653 420.744 91.0745 417.958 91.9843C415.172 92.894 411.817 93.3489 407.894 93.3489ZM411.817 62.0476C413.068 62.0476 414.489 61.9624 416.082 61.7918C417.73 61.6212 419.152 61.4222 420.346 61.1947V57.9537C420.346 52.2678 419.692 48.2023 418.384 45.7573C417.077 43.2555 414.774 42.0046 411.476 42.0046C405.96 42.0046 403.203 45.5583 403.203 52.6658C403.203 56.3048 403.828 58.7782 405.079 60.086C406.387 61.3938 408.633 62.0476 411.817 62.0476ZM462.105 93.3489C454.201 93.3489 448.487 90.8755 444.961 85.9287C441.493 80.9251 439.759 73.3059 439.759 63.0711C439.759 52.8364 441.493 45.2172 444.961 40.2135C448.487 35.2099 454.201 32.708 462.105 32.708C470.008 32.708 475.694 35.2099 479.162 40.2135C482.688 45.2172 484.45 52.8364 484.45 63.0711C484.45 73.3059 482.688 80.9251 479.162 85.9287C475.694 90.8755 470.008 93.3489 462.105 93.3489ZM462.105 83.5406C464.493 83.5406 466.369 82.9436 467.734 81.7495C469.098 80.5555 470.093 78.4801 470.719 75.5234C471.401 72.5667 471.742 68.4159 471.742 63.0711C471.742 57.6694 471.401 53.4334 470.719 50.363C470.093 47.2357 469.07 45.0182 467.648 43.7104C466.284 42.3458 464.436 41.6634 462.105 41.6634C459.773 41.6634 457.897 42.3458 456.475 43.7104C455.111 45.0182 454.087 47.2357 453.405 50.363C452.78 53.4334 452.467 57.6694 452.467 63.0711C452.467 68.4159 452.78 72.5667 453.405 75.5234C454.087 78.4801 455.111 80.5555 456.475 81.7495C457.84 82.9436 459.716 83.5406 462.105 83.5406Z" fill="white"/>
</svg>
