<svg width="374" height="118" viewBox="0 0 374 118" fill="none" xmlns="http://www.w3.org/2000/svg">
<path d="M364.5 17.476C369.278 17.476 373.15 21.3487 373.15 26.1259L373.15 108.549C373.15 113.326 369.278 117.199 364.5 117.199L185.952 117.199L183.7 17.476L364.5 17.476Z" fill="#5CB615"/>
<path d="M8.64992 117.199C3.87271 117.199 -1.16553e-07 113.326 -2.60329e-07 108.549L-2.74094e-06 26.1259C-2.88471e-06 21.3487 3.8727 17.476 8.64991 17.476L187.199 17.4759L187.199 117.199L8.64992 117.199Z" fill="#BDE4A4"/>
<path d="M51.3836 39.5483H54.5681C55.3697 39.5483 56.0358 39.6241 56.5666 39.7758C57.0973 39.9274 57.5198 40.1657 57.8339 40.4907C58.3755 41.0323 58.6463 41.8392 58.6463 42.9116C58.6463 44.1031 58.343 45.0021 57.7364 45.6087C57.1082 46.2153 56.1604 46.5186 54.8931 46.5186H52.8296V50.6617H51.3836V39.5483ZM54.4056 45.3487C54.9256 45.3487 55.3588 45.3054 55.7054 45.2188C56.0521 45.1321 56.3337 44.9913 56.5503 44.7963C56.9511 44.4172 57.1515 43.7998 57.1515 42.9441C57.1515 42.1859 56.9782 41.6334 56.6316 41.2868C56.4258 41.081 56.1441 40.9294 55.7867 40.8319C55.4401 40.7344 54.996 40.6857 54.4544 40.6857H52.8296V45.3487H54.4056ZM59.8915 42.7004H61.0126L61.0938 43.3828C61.8196 42.7762 62.5724 42.4729 63.3523 42.4729C63.5148 42.4729 63.6881 42.4891 63.8722 42.5216V43.724C63.6339 43.7023 63.401 43.6915 63.1736 43.6915C62.4587 43.6915 61.8142 43.8702 61.2401 44.2277V50.6617H59.8915V42.7004ZM68.1047 50.8892C66.8482 50.8892 65.9005 50.5697 65.2614 49.9306C64.5682 49.2374 64.2215 48.1596 64.2215 46.6973C64.2215 45.3217 64.5302 44.2764 65.1477 43.5615C65.7759 42.8358 66.6154 42.4729 67.666 42.4729C68.7601 42.4729 69.5833 42.8412 70.1357 43.5777C70.6881 44.3035 70.9643 45.3325 70.9643 46.6648V46.9735C70.9643 47.0927 70.8993 47.1522 70.7694 47.1522H65.6351C65.6351 48.0729 65.868 48.7499 66.3337 49.1832C66.5504 49.389 66.8212 49.5407 67.1461 49.6381C67.4711 49.7356 67.8773 49.7844 68.3647 49.7844C69.0038 49.7844 69.6591 49.714 70.3307 49.5731L70.4607 50.5805C70.1249 50.678 69.7403 50.7538 69.3071 50.808C68.8846 50.8621 68.4838 50.8892 68.1047 50.8892ZM69.632 46.1611C69.6104 45.3596 69.437 44.7259 69.1121 44.2601C68.7871 43.7944 68.3051 43.5615 67.666 43.5615C67.0053 43.5615 66.5016 43.789 66.155 44.2439C65.8192 44.6988 65.6459 45.3379 65.6351 46.1611H69.632ZM76.0638 50.8892C74.7857 50.8892 73.8216 50.5588 73.1717 49.8981C72.4677 49.1724 72.1156 48.1325 72.1156 46.7785C72.1156 45.3812 72.4623 44.3089 73.1555 43.5615C73.8379 42.8358 74.8128 42.4729 76.0801 42.4729C76.73 42.4729 77.3636 42.5541 77.9811 42.7166L77.8998 43.7565C77.2282 43.6265 76.6758 43.5615 76.2426 43.5615C75.3218 43.5615 74.6394 43.8269 74.1953 44.3576C73.7512 44.8884 73.5292 45.6899 73.5292 46.7623C73.5292 47.7697 73.7512 48.5279 74.1953 49.037C74.6286 49.5352 75.3327 49.7844 76.3075 49.7844C76.5675 49.7844 76.8545 49.7681 77.1687 49.7356C77.4828 49.7031 77.7482 49.6652 77.9648 49.6219L78.0623 50.6292C77.8023 50.7051 77.4774 50.7646 77.0874 50.808C76.6975 50.8621 76.3563 50.8892 76.0638 50.8892ZM80.1939 41.1893C79.6632 41.1893 79.3978 40.9023 79.3978 40.3282V40.2957C79.3978 39.7216 79.6632 39.4346 80.1939 39.4346H80.2752C80.8059 39.4346 81.0713 39.7216 81.0713 40.2957V40.3282C81.0713 40.9023 80.8059 41.1893 80.2752 41.1893H80.1939ZM79.5603 42.7004H80.9088V50.6617H79.5603V42.7004ZM86.0847 50.8892C84.8716 50.8892 83.9617 50.5263 83.3551 49.8006C82.7594 49.0749 82.4615 48.035 82.4615 46.6811C82.4615 45.3271 82.7594 44.2872 83.3551 43.5615C83.9617 42.8358 84.8716 42.4729 86.0847 42.4729C87.2979 42.4729 88.2023 42.8358 88.7981 43.5615C89.4047 44.2872 89.708 45.3271 89.708 46.6811C89.708 48.035 89.4047 49.0749 88.7981 49.8006C88.2023 50.5263 87.2979 50.8892 86.0847 50.8892ZM86.0847 49.7844C86.8754 49.7844 87.4387 49.5298 87.7745 49.0207C88.1211 48.5116 88.2944 47.7317 88.2944 46.6811C88.2944 45.6304 88.1211 44.8505 87.7745 44.3414C87.4387 43.8323 86.8754 43.5777 86.0847 43.5777C85.294 43.5777 84.7253 43.8323 84.3787 44.3414C84.0429 44.8505 83.875 45.6304 83.875 46.6811C83.875 47.7317 84.0429 48.5116 84.3787 49.0207C84.7253 49.5298 85.294 49.7844 86.0847 49.7844ZM94.2294 42.7004H95.3505L95.4317 43.3828C96.1575 42.7762 96.9103 42.4729 97.6902 42.4729C97.8526 42.4729 98.0259 42.4891 98.2101 42.5216V43.724C97.9718 43.7023 97.7389 43.6915 97.5114 43.6915C96.7965 43.6915 96.152 43.8702 95.578 44.2277V50.6617H94.2294V42.7004ZM102.443 50.8892C101.186 50.8892 100.238 50.5697 99.5993 49.9306C98.906 49.2374 98.5594 48.1596 98.5594 46.6973C98.5594 45.3217 98.8681 44.2764 99.4855 43.5615C100.114 42.8358 100.953 42.4729 102.004 42.4729C103.098 42.4729 103.921 42.8412 104.474 43.5777C105.026 44.3035 105.302 45.3325 105.302 46.6648V46.9735C105.302 47.0927 105.237 47.1522 105.107 47.1522H99.973C99.973 48.0729 100.206 48.7499 100.672 49.1832C100.888 49.389 101.159 49.5407 101.484 49.6381C101.809 49.7356 102.215 49.7844 102.703 49.7844C103.342 49.7844 103.997 49.714 104.669 49.5731L104.799 50.5805C104.463 50.678 104.078 50.7538 103.645 50.808C103.223 50.8621 102.822 50.8892 102.443 50.8892ZM103.97 46.1611C103.948 45.3596 103.775 44.7259 103.45 44.2601C103.125 43.7944 102.643 43.5615 102.004 43.5615C101.343 43.5615 100.84 43.789 100.493 44.2439C100.157 44.6988 99.9838 45.3379 99.973 46.1611H103.97ZM109.947 54.5449C108.744 54.5449 107.851 54.35 107.266 53.96C106.681 53.5809 106.389 53.0285 106.389 52.3028C106.389 51.9561 106.47 51.6204 106.632 51.2954C106.795 50.9813 107.017 50.7267 107.298 50.5318C107.049 50.326 106.925 50.0389 106.925 49.6706C106.925 49.3673 107.006 49.0586 107.168 48.7445C107.342 48.4196 107.575 48.1163 107.867 47.8346C107.499 47.5747 107.217 47.2389 107.022 46.8273C106.838 46.4157 106.746 45.9499 106.746 45.43C106.746 44.5309 107.017 43.816 107.558 43.2853C108.1 42.7437 108.896 42.4729 109.947 42.4729C110.163 42.4729 110.434 42.4946 110.759 42.5379L111.718 40.4582C111.902 40.5015 112.102 40.5719 112.319 40.6694C112.536 40.7669 112.709 40.8698 112.839 40.9781L111.734 42.8628C112.2 43.1011 112.552 43.4423 112.79 43.8864C113.028 44.3306 113.148 44.8451 113.148 45.43C113.148 46.329 112.877 47.0493 112.335 47.5909C111.794 48.1217 110.997 48.3871 109.947 48.3871C109.47 48.3871 109.053 48.3329 108.696 48.2246C108.577 48.3654 108.474 48.5279 108.387 48.712C108.3 48.8962 108.257 49.0586 108.257 49.1994C108.257 49.5244 108.474 49.6869 108.907 49.6869H110.434C111.127 49.6869 111.685 49.7465 112.108 49.8656C112.53 49.9848 112.871 50.1743 113.131 50.4343C113.521 50.8242 113.716 51.3604 113.716 52.0428C113.716 52.866 113.413 53.4888 112.806 53.9113C112.211 54.3337 111.257 54.5449 109.947 54.5449ZM109.947 47.3147C111.225 47.3147 111.864 46.6865 111.864 45.43C111.864 44.1735 111.225 43.5452 109.947 43.5452C108.669 43.5452 108.03 44.1735 108.03 45.43C108.03 46.6865 108.669 47.3147 109.947 47.3147ZM110.077 53.4076C111.658 53.4076 112.449 52.9689 112.449 52.0915C112.449 51.7016 112.319 51.4091 112.059 51.2142C111.767 50.9975 111.225 50.8892 110.434 50.8892H108.712C108.484 50.8892 108.289 50.873 108.127 50.8405C107.813 51.2196 107.656 51.6258 107.656 52.059C107.656 52.5031 107.845 52.8389 108.225 53.0664C108.604 53.2939 109.221 53.4076 110.077 53.4076ZM117.482 50.8892C116.604 50.8892 115.938 50.6563 115.483 50.1906C115.039 49.7465 114.817 49.0532 114.817 48.1109V42.7004H116.165V47.9484C116.165 48.2842 116.193 48.5604 116.247 48.777C116.312 48.9828 116.415 49.1561 116.555 49.2969C116.826 49.5677 117.254 49.7031 117.839 49.7031C118.186 49.7031 118.554 49.6598 118.944 49.5731C119.334 49.4757 119.697 49.3457 120.032 49.1832V42.7004H121.381V50.6617H120.26L120.195 50.0768C119.772 50.3368 119.328 50.5372 118.863 50.678C118.397 50.8188 117.936 50.8892 117.482 50.8892ZM123.347 39.0446H124.695V50.6617H123.347V39.0446ZM128.946 50.8892C128.047 50.8892 127.354 50.6347 126.866 50.1256C126.444 49.6815 126.233 49.1074 126.233 48.4033C126.233 47.6776 126.46 47.1035 126.915 46.6811C127.467 46.172 128.366 45.9174 129.612 45.9174H131.269V45.4137C131.269 45.0888 131.237 44.818 131.172 44.6013C131.107 44.3847 131.004 44.206 130.863 44.0652C130.538 43.7511 129.986 43.594 129.206 43.594C128.556 43.594 127.841 43.659 127.061 43.789L127.012 42.7491C127.782 42.565 128.588 42.4729 129.433 42.4729C130.571 42.4729 131.399 42.7166 131.919 43.204C132.168 43.4423 132.347 43.7348 132.455 44.0814C132.564 44.4172 132.618 44.8451 132.618 45.365V50.6617H131.529L131.448 50.1256C130.668 50.6347 129.834 50.8892 128.946 50.8892ZM129.238 49.8006C129.553 49.8006 129.894 49.7519 130.262 49.6544C130.63 49.5569 130.966 49.4323 131.269 49.2807V46.9085H129.807C128.973 46.9085 128.383 47.0439 128.036 47.3147C127.744 47.553 127.597 47.905 127.597 48.3708C127.597 48.8474 127.738 49.2049 128.02 49.4432C128.301 49.6815 128.708 49.8006 129.238 49.8006ZM134.533 42.7004H135.654L135.736 43.3828C136.461 42.7762 137.214 42.4729 137.994 42.4729C138.156 42.4729 138.33 42.4891 138.514 42.5216V43.724C138.276 43.7023 138.043 43.6915 137.815 43.6915C137.1 43.6915 136.456 43.8702 135.882 44.2277V50.6617H134.533V42.7004Z" fill="#3C7521"/>
<path d="M23.7949 92.4177C22.4149 92.4177 20.9646 92.291 19.4438 92.0375C17.9512 91.784 16.6698 91.4461 15.5996 91.0237L16.2332 88.1511C18.8805 88.9115 21.2884 89.2917 23.457 89.2917C25.7381 89.2917 27.442 88.8551 28.5685 87.9821C29.6105 87.1654 30.1315 85.9966 30.1315 84.4758C30.1315 83.4338 29.8358 82.5608 29.2444 81.8567C28.6811 81.1526 27.963 80.5753 27.0899 80.1247C26.2451 79.6741 25.0763 79.1672 23.5837 78.6039C21.8094 77.9562 20.3731 77.3366 19.2748 76.7452C18.1765 76.1256 17.233 75.2807 16.4444 74.2105C15.6841 73.1403 15.3039 71.7745 15.3039 70.1129C15.3039 67.6064 16.1628 65.6913 17.8807 64.3677C19.5987 63.044 21.9362 62.3822 24.8933 62.3822C26.1324 62.3822 27.3716 62.4808 28.6107 62.6779C29.8499 62.875 30.9764 63.1426 31.9903 63.4805L31.4411 66.3531C29.2726 65.7899 27.1885 65.5083 25.189 65.5083C20.9646 65.5083 18.8524 66.9586 18.8524 69.8594C18.8524 70.7888 19.1199 71.5773 19.655 72.2251C20.2182 72.8728 20.9082 73.4079 21.725 73.8303C22.5698 74.2528 23.7104 74.7456 25.1467 75.3089C26.9773 76.0129 28.4558 76.6748 29.5823 77.2943C30.737 77.9139 31.7086 78.787 32.4972 79.9135C33.3139 81.0118 33.7223 82.4059 33.7223 84.0956C33.7223 86.574 32.9619 88.5313 31.4411 89.9676C29.7232 91.601 27.1744 92.4177 23.7949 92.4177ZM49.2245 62.3822H52.6463L40.1843 92.4177H36.7625L49.2245 62.3822ZM58.8202 89.1227H63.805V65.466H58.9047V63.1004C59.7777 62.9595 60.7916 62.8469 61.9462 62.7624C63.1291 62.6779 64.1007 62.6357 64.8611 62.6357C65.7623 62.6357 66.3818 62.7765 66.7198 63.0581C67.0859 63.3397 67.269 63.8607 67.269 64.6211V89.1227H71.6624V91.8263H58.8202V89.1227ZM90.7464 84.7715H77.693C77.6367 84.3773 77.6085 84.0111 77.6085 83.6732C77.6085 83.2226 77.6508 82.7861 77.7353 82.3636C77.8479 81.913 78.0591 81.2512 78.3689 80.3782L84.4521 62.9314H87.8738L81.157 81.9412H90.7464V74.633H94.2104V81.9412H97.7167V84.7715H94.2104V91.8263H90.7464V84.7715ZM115.322 65.7195H101.382V62.9314H118.744C118.828 63.1285 118.871 63.4383 118.871 63.8607C118.871 64.6493 118.716 65.4942 118.406 66.3954L109.746 91.8263H105.902L115.322 65.7195ZM125.451 92.4177C124.042 92.4177 123.338 91.6573 123.338 90.1365V89.9676C123.338 88.4468 124.042 87.6864 125.451 87.6864H125.746C127.154 87.6864 127.858 88.4468 127.858 89.9676V90.1365C127.858 91.6573 127.154 92.4177 125.746 92.4177H125.451ZM139.035 92.4177C137.486 92.4177 135.909 92.2487 134.303 91.9108V89.2072C135.993 89.4325 137.472 89.5451 138.739 89.5451C141.471 89.5451 143.414 88.7143 144.569 87.0527C145.751 85.363 146.427 82.7297 146.596 79.1531C144.09 80.1951 141.766 80.7161 139.626 80.7161C137.091 80.7161 135.106 79.9839 133.67 78.5194C132.233 77.0268 131.515 74.8724 131.515 72.0561C131.515 69.1835 132.304 66.8601 133.881 65.0858C135.486 63.2834 137.753 62.3822 140.682 62.3822C144.062 62.3822 146.498 63.551 147.99 65.8885C149.483 68.1978 150.229 71.5351 150.229 75.9003C150.229 82.1524 149.103 86.6162 146.85 89.2917C145.104 91.3757 142.499 92.4177 139.035 92.4177ZM140.344 77.8858C141.245 77.8858 142.273 77.7872 143.428 77.5901C144.583 77.3929 145.653 77.1254 146.639 76.7874V75.0977C146.639 71.8871 146.174 69.451 145.245 67.7894C144.343 66.0997 142.794 65.2548 140.598 65.2548C138.823 65.2548 137.458 65.8462 136.5 67.029C135.542 68.1837 135.064 69.789 135.064 71.8449C135.064 73.8726 135.472 75.3934 136.289 76.4072C137.134 77.3929 138.485 77.8858 140.344 77.8858ZM163.653 92.4177C160.189 92.4177 157.668 91.1504 156.091 88.6157C154.514 86.0529 153.725 82.3214 153.725 77.4211C153.725 72.5208 154.514 68.7892 156.091 66.2264C157.668 63.6636 160.189 62.3822 163.653 62.3822C167.117 62.3822 169.637 63.6636 171.214 66.2264C172.791 68.7892 173.58 72.5208 173.58 77.4211C173.58 82.3214 172.791 86.0529 171.214 88.6157C169.637 91.1504 167.117 92.4177 163.653 92.4177ZM163.653 89.4184C165.934 89.4184 167.539 88.4609 168.469 86.5458C169.426 84.6307 169.905 81.5892 169.905 77.4211C169.905 73.253 169.426 70.2114 168.469 68.2964C167.539 66.3531 165.934 65.3815 163.653 65.3815C161.372 65.3815 159.752 66.3531 158.795 68.2964C157.865 70.2114 157.401 73.253 157.401 77.4211C157.401 81.5892 157.865 84.6307 158.795 86.5458C159.752 88.4609 161.372 89.4184 163.653 89.4184Z" fill="#3C7521"/>
<path d="M236.593 94.3205H238.013L238.095 95.0614C238.603 94.7184 239.131 94.4646 239.68 94.2999C240.242 94.1216 240.763 94.0324 241.244 94.0324C242.52 94.0324 243.48 94.5057 244.125 95.4524C244.784 96.3854 245.113 97.6751 245.113 99.3215C245.113 101.16 244.77 102.518 244.084 103.396C243.398 104.261 242.43 104.693 241.182 104.693C240.661 104.693 240.139 104.624 239.618 104.487C239.11 104.35 238.671 104.165 238.301 103.932V109.036H236.593V94.3205ZM240.75 103.273C241.669 103.273 242.328 102.971 242.725 102.367C243.123 101.75 243.322 100.728 243.322 99.301C243.322 98.0113 243.123 97.0577 242.725 96.4403C242.328 95.8091 241.71 95.4936 240.873 95.4936C240.489 95.4936 240.064 95.5553 239.597 95.6788C239.131 95.8023 238.699 95.9669 238.301 96.1727V102.656C238.603 102.834 238.98 102.985 239.433 103.108C239.885 103.218 240.324 103.273 240.75 103.273ZM251.275 104.693C249.738 104.693 248.586 104.233 247.817 103.314C247.063 102.395 246.685 101.078 246.685 99.3627C246.685 97.6477 247.063 96.3305 247.817 95.4113C248.586 94.492 249.738 94.0324 251.275 94.0324C252.811 94.0324 253.957 94.492 254.712 95.4113C255.48 96.3305 255.864 97.6477 255.864 99.3627C255.864 101.078 255.48 102.395 254.712 103.314C253.957 104.233 252.811 104.693 251.275 104.693ZM251.275 103.294C252.276 103.294 252.99 102.971 253.415 102.326C253.854 101.681 254.074 100.694 254.074 99.3627C254.074 98.0318 253.854 97.044 253.415 96.3991C252.99 95.7543 252.276 95.4318 251.275 95.4318C250.273 95.4318 249.553 95.7543 249.114 96.3991C248.688 97.044 248.476 98.0318 248.476 99.3627C248.476 100.694 248.688 101.681 249.114 102.326C249.553 102.971 250.273 103.294 251.275 103.294ZM257.969 94.3205H259.389L259.492 95.1849C260.411 94.4165 261.365 94.0324 262.352 94.0324C262.558 94.0324 262.778 94.053 263.011 94.0941V95.6171C262.709 95.5896 262.414 95.5759 262.126 95.5759C261.22 95.5759 260.404 95.8023 259.677 96.2551V104.405H257.969V94.3205ZM271.701 104.693C270.617 104.693 269.608 104.576 268.675 104.343V102.985C269.526 103.163 270.459 103.252 271.474 103.252C272.119 103.252 272.654 103.204 273.08 103.108C273.519 102.999 273.882 102.834 274.17 102.614C274.774 102.175 275.076 101.476 275.076 100.515C275.076 100.131 275.014 99.7743 274.891 99.445C274.767 99.1157 274.596 98.8413 274.376 98.6218C274.088 98.3474 273.711 98.1553 273.244 98.0456C272.778 97.9221 272.201 97.8603 271.515 97.8603H271.145V96.5843H271.495C273.649 96.5843 274.726 95.7062 274.726 93.9501C274.726 93.1268 274.493 92.5163 274.026 92.1184C273.766 91.8989 273.429 91.7411 273.018 91.645C272.606 91.5353 272.092 91.4804 271.474 91.4804C270.665 91.4804 269.807 91.5559 268.902 91.7068V90.3691C269.807 90.1633 270.775 90.0604 271.804 90.0604C273.464 90.0604 274.671 90.4308 275.426 91.1717C276.112 91.8303 276.455 92.7289 276.455 93.8677C276.455 94.6635 276.263 95.3358 275.878 95.8846C275.494 96.4197 274.98 96.8107 274.335 97.0577C275.131 97.3321 275.748 97.7643 276.187 98.3543C276.64 98.9442 276.866 99.6714 276.866 100.536C276.866 101.853 276.427 102.875 275.549 103.602C274.657 104.329 273.375 104.693 271.701 104.693ZM283.905 90.3279H285.511L290.409 99.5891L295.369 90.3279H296.933V104.405H295.204V93.9295L291.109 101.421H289.586L285.531 93.8471V104.405H283.905V90.3279ZM304.217 104.693C302.625 104.693 301.424 104.288 300.615 103.479C299.737 102.601 299.298 101.236 299.298 99.3833C299.298 97.6408 299.689 96.3168 300.471 95.4113C301.267 94.492 302.33 94.0324 303.661 94.0324C305.047 94.0324 306.089 94.4989 306.789 95.4318C307.489 96.3511 307.839 97.6545 307.839 99.3421V99.7332C307.839 99.8841 307.756 99.9595 307.592 99.9595H301.088C301.088 101.126 301.383 101.983 301.973 102.532C302.248 102.793 302.591 102.985 303.002 103.108C303.414 103.232 303.928 103.294 304.546 103.294C305.355 103.294 306.185 103.204 307.036 103.026L307.201 104.302C306.775 104.425 306.288 104.522 305.739 104.59C305.204 104.659 304.697 104.693 304.217 104.693ZM306.151 98.7041C306.124 97.6888 305.904 96.8862 305.493 96.2962C305.081 95.7062 304.47 95.4113 303.661 95.4113C302.824 95.4113 302.186 95.6994 301.747 96.2756C301.322 96.8519 301.102 97.6614 301.088 98.7041H306.151ZM312.653 104.693C312.173 104.693 311.652 104.652 311.089 104.57C310.54 104.487 310.074 104.384 309.69 104.261L309.772 102.944C310.184 103.053 310.643 103.143 311.151 103.211C311.672 103.28 312.153 103.314 312.592 103.314C313.415 103.314 314.039 103.184 314.464 102.923C314.903 102.649 315.123 102.251 315.123 101.729C315.123 101.29 314.938 100.961 314.567 100.742C314.197 100.522 313.614 100.289 312.818 100.042C312.105 99.8086 311.528 99.5959 311.089 99.4039C310.664 99.1981 310.293 98.8962 309.978 98.4983C309.662 98.1004 309.505 97.5791 309.505 96.9342C309.505 95.9875 309.834 95.2672 310.492 94.7733C311.165 94.2793 312.057 94.0324 313.168 94.0324C313.662 94.0324 314.169 94.0735 314.691 94.1559C315.226 94.2382 315.699 94.3411 316.111 94.4646L315.967 95.72C315.006 95.5004 314.121 95.3907 313.312 95.3907C311.844 95.3907 311.11 95.864 311.11 96.8107C311.11 97.2635 311.295 97.6065 311.665 97.8398C312.05 98.073 312.64 98.3131 313.435 98.5601C314.121 98.7659 314.684 98.9717 315.123 99.1775C315.576 99.3833 315.953 99.6851 316.255 100.083C316.57 100.467 316.728 100.975 316.728 101.606C316.728 102.635 316.365 103.41 315.637 103.932C314.91 104.439 313.916 104.693 312.653 104.693ZM323.281 104.693C321.69 104.693 320.489 104.288 319.68 103.479C318.802 102.601 318.363 101.236 318.363 99.3833C318.363 97.6408 318.754 96.3168 319.536 95.4113C320.332 94.492 321.395 94.0324 322.726 94.0324C324.112 94.0324 325.154 94.4989 325.854 95.4318C326.554 96.3511 326.904 97.6545 326.904 99.3421V99.7332C326.904 99.8841 326.821 99.9595 326.657 99.9595H320.153C320.153 101.126 320.448 101.983 321.038 102.532C321.313 102.793 321.656 102.985 322.067 103.108C322.479 103.232 322.993 103.294 323.611 103.294C324.42 103.294 325.25 103.204 326.101 103.026L326.266 104.302C325.84 104.425 325.353 104.522 324.804 104.59C324.269 104.659 323.762 104.693 323.281 104.693ZM325.216 98.7041C325.189 97.6888 324.969 96.8862 324.557 96.2962C324.146 95.7062 323.535 95.4113 322.726 95.4113C321.889 95.4113 321.251 95.6994 320.812 96.2756C320.387 96.8519 320.167 97.6614 320.153 98.7041H325.216ZM331.718 104.693C331.238 104.693 330.717 104.652 330.154 104.57C329.605 104.487 329.139 104.384 328.755 104.261L328.837 102.944C329.249 103.053 329.708 103.143 330.216 103.211C330.737 103.28 331.218 103.314 331.657 103.314C332.48 103.314 333.104 103.184 333.529 102.923C333.968 102.649 334.188 102.251 334.188 101.729C334.188 101.29 334.003 100.961 333.632 100.742C333.262 100.522 332.679 100.289 331.883 100.042C331.169 99.8086 330.593 99.5959 330.154 99.4039C329.729 99.1981 329.358 98.8962 329.043 98.4983C328.727 98.1004 328.57 97.5791 328.57 96.9342C328.57 95.9875 328.899 95.2672 329.557 94.7733C330.23 94.2793 331.121 94.0324 332.233 94.0324C332.727 94.0324 333.234 94.0735 333.756 94.1559C334.291 94.2382 334.764 94.3411 335.176 94.4646L335.032 95.72C334.071 95.5004 333.186 95.3907 332.377 95.3907C330.909 95.3907 330.175 95.864 330.175 96.8107C330.175 97.2635 330.36 97.6065 330.73 97.8398C331.115 98.073 331.705 98.3131 332.5 98.5601C333.186 98.7659 333.749 98.9717 334.188 99.1775C334.641 99.3833 335.018 99.6851 335.32 100.083C335.635 100.467 335.793 100.975 335.793 101.606C335.793 102.635 335.43 103.41 334.702 103.932C333.975 104.439 332.981 104.693 331.718 104.693Z" fill="white"/>
<path d="M217.06 81.4935C216.988 81.3029 216.952 81.0765 216.952 80.8144C216.952 80.4093 217.036 80.028 217.203 79.6705C217.393 79.3131 217.775 78.7888 218.346 78.0978L224.316 70.77C225.77 68.9828 226.794 67.5053 227.39 66.3377C228.01 65.17 228.319 64.0142 228.319 62.8704C228.319 61.5359 227.962 60.5112 227.247 59.7963C226.341 58.8908 224.781 58.438 222.564 58.438C221.063 58.438 219.383 58.6048 217.524 58.9385V57.2585C218.168 57.0678 218.99 56.9129 219.991 56.7938C220.992 56.6508 221.969 56.5793 222.922 56.5793C225.543 56.5793 227.485 57.1631 228.748 58.3308C229.368 58.9027 229.809 59.5819 230.071 60.3683C230.357 61.1308 230.5 61.9172 230.5 62.7274C230.5 63.7283 230.357 64.6457 230.071 65.4798C229.809 66.29 229.356 67.1717 228.713 68.1249C228.069 69.0781 227.128 70.3054 225.889 71.8066L219.312 79.6705H230.929V81.4935H217.06ZM243.09 81.994C240.278 81.994 238.241 80.9216 236.978 78.7769C235.715 76.6084 235.083 73.4509 235.083 69.3045C235.083 65.1343 235.715 61.9768 236.978 59.8321C238.241 57.6636 240.278 56.5793 243.09 56.5793C245.902 56.5793 247.939 57.6636 249.202 59.8321C250.465 61.9768 251.097 65.1343 251.097 69.3045C251.097 73.4509 250.465 76.6084 249.202 78.7769C247.939 80.9216 245.902 81.994 243.09 81.994ZM243.09 80.028C245.259 80.028 246.772 79.1582 247.63 77.4186C248.488 75.6552 248.917 72.9505 248.917 69.3045C248.917 65.6585 248.488 62.9538 247.63 61.1904C246.772 59.427 245.259 58.5453 243.09 58.5453C240.922 58.5453 239.408 59.427 238.55 61.1904C237.693 62.9538 237.264 65.6585 237.264 69.3045C237.264 72.9505 237.693 75.6552 238.55 77.4186C239.408 79.1582 240.922 80.028 243.09 80.028ZM262.115 81.994C259.303 81.994 257.265 80.9216 256.002 78.7769C254.739 76.6084 254.108 73.4509 254.108 69.3045C254.108 65.1343 254.739 61.9768 256.002 59.8321C257.265 57.6636 259.303 56.5793 262.115 56.5793C264.926 56.5793 266.964 57.6636 268.227 59.8321C269.49 61.9768 270.121 65.1343 270.121 69.3045C270.121 73.4509 269.49 76.6084 268.227 78.7769C266.964 80.9216 264.926 81.994 262.115 81.994ZM262.115 80.028C264.283 80.028 265.796 79.1582 266.654 77.4186C267.512 75.6552 267.941 72.9505 267.941 69.3045C267.941 65.6585 267.512 62.9538 266.654 61.1904C265.796 59.427 264.283 58.5453 262.115 58.5453C259.946 58.5453 258.433 59.427 257.575 61.1904C256.717 62.9538 256.288 65.6585 256.288 69.3045C256.288 72.9505 256.717 75.6552 257.575 77.4186C258.433 79.1582 259.946 80.028 262.115 80.028ZM281.932 57.044H283.863L292.727 74.0586L301.842 57.044H303.629V81.4935H301.628V61.2619L293.585 76.2033H291.691L283.863 61.1547V81.4935H281.932V57.044ZM316.684 81.994C315.754 81.994 314.789 81.8271 313.788 81.4935C312.787 81.1599 311.918 80.7548 311.179 80.2782L311.072 81.4935H309.427V55.9359H311.501V64.8721C312.263 64.4432 313.097 64.1096 314.003 63.8713C314.932 63.6091 315.814 63.4781 316.648 63.4781C318.84 63.4781 320.508 64.2525 321.652 65.8015C322.82 67.3266 323.404 69.6143 323.404 72.6645C323.404 76.1437 322.701 78.6578 321.295 80.2067C320.199 81.3982 318.662 81.994 316.684 81.994ZM316.398 80.171C317.208 80.171 317.947 80.0161 318.614 79.7063C319.305 79.3965 319.829 78.9199 320.187 78.2765C320.902 77.0135 321.259 75.1309 321.259 72.6288C321.259 70.0313 320.806 68.113 319.901 66.8738C319.114 65.8253 317.899 65.3011 316.255 65.3011C315.516 65.3011 314.706 65.4202 313.824 65.6585C312.966 65.8968 312.192 66.1947 311.501 66.5521V78.7412C312.192 79.1701 312.978 79.5156 313.86 79.7778C314.741 80.0399 315.587 80.171 316.398 80.171ZM327.824 63.9785H329.468L329.646 65.3011C330.385 64.7768 331.243 64.3479 332.22 64.0142C333.221 63.6568 334.174 63.4781 335.08 63.4781C337.272 63.4781 338.94 64.2406 340.084 65.7658C341.228 67.2909 341.8 69.5905 341.8 72.6645C341.8 76.1199 341.085 78.6339 339.655 80.2067C338.559 81.3982 336.998 81.994 334.972 81.994C334.091 81.994 333.185 81.851 332.256 81.565C331.327 81.3029 330.54 80.9574 329.897 80.5284V89.5361H327.824V63.9785ZM334.615 80.171C335.568 80.171 336.367 80.0161 337.01 79.7063C337.677 79.3965 338.201 78.9199 338.583 78.2765C339.298 77.0612 339.655 75.1786 339.655 72.6288C339.655 69.9598 339.226 68.0415 338.368 66.8738C337.582 65.8253 336.378 65.3011 334.758 65.3011C334.043 65.3011 333.245 65.444 332.363 65.73C331.481 65.9921 330.659 66.3377 329.897 66.7666V78.7412C330.492 79.1701 331.219 79.5156 332.077 79.7778C332.959 80.0399 333.805 80.171 334.615 80.171ZM350.33 81.994C349.472 81.994 348.614 81.9344 347.757 81.8152C346.923 81.6961 346.196 81.5412 345.576 81.3506L345.755 79.7063C347.209 80.0876 348.698 80.2782 350.223 80.2782C351.796 80.2782 352.987 80.0042 353.798 79.4561C354.632 78.908 355.049 78.1097 355.049 77.0612C355.049 76.3463 354.846 75.7624 354.441 75.3097C354.06 74.8569 353.583 74.5114 353.011 74.2731C352.439 74.0109 351.641 73.725 350.616 73.4152C349.425 73.0339 348.472 72.6884 347.757 72.3786C347.066 72.0449 346.47 71.5564 345.969 70.913C345.469 70.2696 345.219 69.4237 345.219 68.3751C345.219 66.7547 345.767 65.5394 346.863 64.7291C347.983 63.8951 349.544 63.4781 351.546 63.4781C352.237 63.4781 352.975 63.5377 353.762 63.6568C354.572 63.7521 355.275 63.8951 355.871 64.0857L355.763 65.6943C354.215 65.3606 352.82 65.1938 351.581 65.1938C350.128 65.1938 349.032 65.444 348.293 65.9445C347.554 66.4449 347.185 67.2194 347.185 68.2679C347.185 68.9351 347.375 69.4832 347.757 69.9122C348.138 70.3173 348.603 70.6509 349.151 70.913C349.723 71.1513 350.509 71.4254 351.51 71.7352C352.701 72.1164 353.655 72.4858 354.369 72.8433C355.108 73.2007 355.728 73.713 356.228 74.3803C356.752 75.0237 357.015 75.8816 357.015 76.9539C357.015 78.5744 356.443 79.8254 355.299 80.7071C354.155 81.565 352.499 81.994 350.33 81.994Z" fill="white"/>
<path d="M264.543 29.6443H269.374C270.414 29.6443 271.274 29.7381 271.952 29.9259C272.646 30.0992 273.209 30.3736 273.642 30.7491C274.335 31.3557 274.682 32.2006 274.682 33.2837C274.682 34.0347 274.509 34.6774 274.162 35.2118C273.815 35.7317 273.296 36.165 272.602 36.5116C273.541 36.6416 274.299 37.0315 274.877 37.6814C275.455 38.3169 275.744 39.1112 275.744 40.0644C275.744 41.4509 275.332 42.5124 274.509 43.249C274.032 43.6678 273.418 43.9783 272.667 44.1805C271.916 44.3683 270.963 44.4622 269.808 44.4622H264.543V29.6443ZM269.071 35.5368C269.548 35.5368 269.923 35.5079 270.198 35.4501C270.486 35.3779 270.718 35.2551 270.891 35.0818C271.18 34.793 271.324 34.3525 271.324 33.7603C271.324 33.2115 271.187 32.7999 270.913 32.5255C270.754 32.3666 270.537 32.2583 270.263 32.2006C269.988 32.1283 269.62 32.0922 269.158 32.0922H267.923V35.5368H269.071ZM269.309 42.0142C269.959 42.0142 270.479 41.9781 270.869 41.9059C271.259 41.8192 271.555 41.6748 271.757 41.4726C272.075 41.1548 272.234 40.7071 272.234 40.1294C272.234 39.3495 272.046 38.8007 271.671 38.483C271.454 38.2953 271.165 38.1653 270.804 38.0931C270.443 38.0208 269.945 37.9847 269.309 37.9847H267.923V42.0142H269.309ZM282.759 44.7654C280.969 44.7654 279.618 44.2744 278.708 43.2923C277.813 42.2958 277.365 40.9165 277.365 39.1546C277.365 37.3926 277.813 36.0206 278.708 35.0385C279.618 34.042 280.969 33.5437 282.759 33.5437C284.55 33.5437 285.893 34.042 286.789 35.0385C287.699 36.0206 288.154 37.3926 288.154 39.1546C288.154 40.9165 287.699 42.2958 286.789 43.2923C285.893 44.2744 284.55 44.7654 282.759 44.7654ZM282.759 42.4041C283.525 42.4041 284.074 42.1442 284.406 41.6242C284.753 41.0899 284.926 40.2666 284.926 39.1546C284.926 38.0425 284.753 37.2265 284.406 36.7066C284.074 36.1722 283.525 35.905 282.759 35.905C281.994 35.905 281.438 36.1722 281.091 36.7066C280.759 37.2265 280.593 38.0425 280.593 39.1546C280.593 40.2666 280.759 41.0899 281.091 41.6242C281.438 42.1442 281.994 42.4041 282.759 42.4041ZM290.22 33.847H292.906L292.971 34.6052C293.52 34.2442 294.112 33.977 294.747 33.8037C295.397 33.6304 296.025 33.5437 296.632 33.5437C297.137 33.5437 297.621 33.6159 298.083 33.7603C298.546 33.8903 298.914 34.0925 299.188 34.3669C299.795 34.9591 300.098 35.8906 300.098 37.1615V44.4622H297V37.5298C297 37.0388 296.892 36.6849 296.675 36.4683C296.43 36.2372 295.982 36.1217 295.332 36.1217C295.029 36.1217 294.675 36.1578 294.271 36.23C293.881 36.2878 293.563 36.3672 293.317 36.4683V44.4622H290.22V33.847ZM307.491 44.7654C305.7 44.7654 304.349 44.2744 303.44 43.2923C302.544 42.2958 302.096 40.9165 302.096 39.1546C302.096 37.3926 302.544 36.0206 303.44 35.0385C304.349 34.042 305.7 33.5437 307.491 33.5437C309.282 33.5437 310.625 34.042 311.52 35.0385C312.43 36.0206 312.885 37.3926 312.885 39.1546C312.885 40.9165 312.43 42.2958 311.52 43.2923C310.625 44.2744 309.282 44.7654 307.491 44.7654ZM307.491 42.4041C308.256 42.4041 308.805 42.1442 309.137 41.6242C309.484 41.0899 309.657 40.2666 309.657 39.1546C309.657 38.0425 309.484 37.2265 309.137 36.7066C308.805 36.1722 308.256 35.905 307.491 35.905C306.725 35.905 306.169 36.1722 305.823 36.7066C305.49 37.2265 305.324 38.0425 305.324 39.1546C305.324 40.2666 305.49 41.0899 305.823 41.6242C306.169 42.1442 306.725 42.4041 307.491 42.4041Z" fill="white"/>
<path d="M242.762 38.9129H235.137V33.7931H242.762V26.1678H247.882V33.7931H255.507V38.9129H247.882V46.5381H242.762V38.9129Z" fill="white"/>
<path d="M22.7468 95.3199L170.059 60.6581M170.059 95.3199L22.7468 60.6581" stroke="#3C7521" stroke-width="2.88848"/>
</svg>
