<svg width="87" height="24" viewBox="0 0 87 24" fill="none" xmlns="http://www.w3.org/2000/svg">
<rect width="87" height="24" rx="1" fill="#E63780"/>
<path d="M17.3177 15.7954C18.7877 15.7954 19.7627 15.4954 20.4827 14.8204C21.0227 14.3104 21.3377 13.5754 21.3377 12.6604C21.3377 8.65545 16.1027 10.0354 16.1027 8.02545C16.1027 7.38045 16.5077 6.93045 17.7677 6.93045C18.4877 6.93045 19.3877 7.06545 20.2277 7.29045L20.5877 5.55045C19.7927 5.28045 18.7127 5.13045 17.7227 5.13045C15.5327 5.13045 13.8977 6.04545 13.8977 8.13045C13.8977 12.1654 19.1327 10.7704 19.1327 12.6904C19.1327 13.6354 18.4877 13.9954 17.1077 13.9954C16.3577 13.9954 15.1727 13.8004 14.2727 13.4854L13.9127 15.2704C14.9477 15.6304 16.0127 15.7954 17.3177 15.7954ZM27.2454 15.7954C30.3804 15.7954 31.7904 13.9354 31.7904 10.4704C31.7904 7.00545 30.3804 5.13045 27.2454 5.13045C24.1104 5.13045 22.7004 7.00545 22.7004 10.4704C22.7004 13.9354 24.1104 15.7954 27.2454 15.7954ZM27.2454 13.9654C25.7304 13.9654 25.1304 12.9454 25.1304 10.4704C25.1304 7.99545 25.7304 6.96045 27.2454 6.96045C28.7604 6.96045 29.3604 7.99545 29.3604 10.4704C29.3604 12.9454 28.7604 13.9654 27.2454 13.9654ZM33.5797 15.5854H40.4647V13.8904H35.9197V5.32545H33.5797V15.5854ZM45.9514 15.7954C49.0864 15.7954 50.4964 13.9354 50.4964 10.4704C50.4964 7.00545 49.0864 5.13045 45.9514 5.13045C42.8164 5.13045 41.4064 7.00545 41.4064 10.4704C41.4064 13.9354 42.8164 15.7954 45.9514 15.7954ZM45.9514 13.9654C44.4364 13.9654 43.8364 12.9454 43.8364 10.4704C43.8364 7.99545 44.4364 6.96045 45.9514 6.96045C47.4664 6.96045 48.0664 7.99545 48.0664 10.4704C48.0664 12.9454 47.4664 13.9654 45.9514 13.9654ZM57.9349 15.5854H60.2749V7.02045H63.3799L63.5599 5.32545H54.7549V7.02045H57.9349V15.5854ZM67.7871 15.5854H70.2321L73.6371 5.32545H71.3571L69.1221 12.7654L66.7221 5.32545H64.2171L67.7871 15.5854Z" fill="white"/>
</svg>
