<svg width="291" height="63" viewBox="0 0 291 63" fill="none" xmlns="http://www.w3.org/2000/svg">
<path d="M3.22641 7.30622C4.26436 7.30622 4.78333 7.81481 4.78333 8.832V9.08111C4.78333 10.0983 4.26436 10.6069 3.22641 10.6069H3.07072C2.03277 10.6069 1.51379 10.0983 1.51379 9.08111V8.832C1.51379 7.81481 2.03277 7.30622 3.07072 7.30622H3.22641ZM4.56536 29.0409H1.79404L2.22998 13.4405H4.12942L4.56536 29.0409ZM14.7301 1.7013H17.9062L25.2549 23H22.359L20.4907 17.3328H12.4259L10.6821 23H7.97308L14.7301 1.7013ZM19.7746 15.1531L16.3493 4.62831H16.3182L13.1109 15.1531H19.7746ZM27.9895 7.74216H30.1381L30.2626 8.86314C31.0307 8.34417 31.8299 7.96012 32.6603 7.71102C33.5114 7.44115 34.3002 7.30622 35.0268 7.30622C36.9574 7.30622 38.4105 8.0224 39.3862 9.45477C40.3826 10.8664 40.8808 12.8177 40.8808 15.3088C40.8808 18.0905 40.3619 20.1456 39.3239 21.4742C38.286 22.782 36.8224 23.4359 34.9334 23.4359C34.1445 23.4359 33.3557 23.3321 32.5669 23.1246C31.7988 22.917 31.1345 22.6367 30.574 22.2838V30.0062H27.9895V7.74216ZM34.2795 21.2874C35.6703 21.2874 36.6668 20.8307 37.2688 19.9173C37.8708 18.9831 38.1718 17.4366 38.1718 15.2777C38.1718 13.3263 37.8708 11.8836 37.2688 10.9494C36.6668 9.9945 35.7326 9.51705 34.4663 9.51705C33.8851 9.51705 33.2415 9.61046 32.5357 9.79729C31.8299 9.98412 31.176 10.2332 30.574 10.5446V20.3532C31.0307 20.6231 31.6016 20.8514 32.2866 21.0383C32.9717 21.2043 33.6359 21.2874 34.2795 21.2874ZM44.4406 7.74216H46.5891L46.7448 9.04997C48.1357 7.88747 49.5784 7.30622 51.0731 7.30622C51.3845 7.30622 51.7166 7.33736 52.0695 7.39963V9.70388C51.6128 9.66236 51.1665 9.6416 50.7306 9.6416C49.3605 9.6416 48.1253 9.98412 47.0251 10.6692V23H44.4406V7.74216ZM60.3056 23.4359C57.9806 23.4359 56.2369 22.7405 55.0744 21.3497C53.9326 19.9588 53.3618 17.9659 53.3618 15.3711C53.3618 12.7762 53.9326 10.7833 55.0744 9.39249C56.2369 8.00164 57.9806 7.30622 60.3056 7.30622C62.6306 7.30622 64.364 8.00164 65.5058 9.39249C66.6683 10.7833 67.2495 12.7762 67.2495 15.3711C67.2495 17.9659 66.6683 19.9588 65.5058 21.3497C64.364 22.7405 62.6306 23.4359 60.3056 23.4359ZM60.3056 21.3185C61.821 21.3185 62.9005 20.8307 63.544 19.855C64.2083 18.8793 64.5405 17.3847 64.5405 15.3711C64.5405 13.3575 64.2083 11.8628 63.544 10.8871C62.9005 9.91147 61.821 9.42363 60.3056 9.42363C58.7902 9.42363 57.7004 9.91147 57.0361 10.8871C56.3926 11.8628 56.0708 13.3575 56.0708 15.3711C56.0708 17.3847 56.3926 18.8793 57.0361 19.855C57.7004 20.8307 58.7902 21.3185 60.3056 21.3185ZM68.941 7.74216H71.65L75.8848 20.3532L79.964 7.74216H82.5796L77.2238 23H74.3902L68.941 7.74216ZM91.699 23.4359C89.291 23.4359 87.4746 22.8235 86.2498 21.5988C84.9212 20.2702 84.2569 18.2047 84.2569 15.4022C84.2569 12.7658 84.8486 10.7626 86.0318 9.39249C87.2359 8.00164 88.8447 7.30622 90.8583 7.30622C92.9549 7.30622 94.5326 8.01202 95.5913 9.42363C96.65 10.8145 97.1794 12.7866 97.1794 15.3399V15.9316C97.1794 16.1599 97.0548 16.2741 96.8057 16.2741H86.966C86.966 18.0386 87.4123 19.336 88.3049 20.1664C88.7201 20.5608 89.2391 20.8514 89.8619 21.0383C90.4846 21.2251 91.2631 21.3185 92.1972 21.3185C93.422 21.3185 94.6779 21.1836 95.965 20.9137L96.2141 22.8443C95.5706 23.0311 94.8336 23.1765 94.0033 23.2802C93.1937 23.384 92.4256 23.4359 91.699 23.4359ZM94.626 14.3746C94.5845 12.8385 94.2524 11.6241 93.6296 10.7314C93.0068 9.83881 92.0831 9.39249 90.8583 9.39249C89.592 9.39249 88.6267 9.82843 87.9624 10.7003C87.3189 11.5722 86.9867 12.797 86.966 14.3746H94.626ZM107.575 23.4359C105.126 23.4359 103.278 22.8028 102.033 21.5365C100.683 20.1456 100.009 18.1528 100.009 15.5579C100.009 12.88 100.673 10.8249 102.001 9.39249C103.309 8.00164 105.178 7.30622 107.606 7.30622C108.852 7.30622 110.066 7.46191 111.25 7.77329L111.094 9.76616C109.807 9.51705 108.748 9.39249 107.918 9.39249C106.153 9.39249 104.845 9.90109 103.994 10.9183C103.143 11.9355 102.718 13.4716 102.718 15.5268C102.718 17.4574 103.143 18.9105 103.994 19.8862C104.825 20.8411 106.174 21.3185 108.042 21.3185C108.541 21.3185 109.091 21.2874 109.693 21.2251C110.295 21.1628 110.803 21.0902 111.218 21.0071L111.405 22.9377C110.907 23.083 110.284 23.1972 109.537 23.2802C108.79 23.384 108.136 23.4359 107.575 23.4359ZM114.837 0.736003H117.421V8.70745C119.123 7.77329 120.774 7.30622 122.372 7.30622C124.054 7.30622 125.33 7.75254 126.202 8.64517C127.053 9.49629 127.479 10.8249 127.479 12.6309V23H124.894V12.9423C124.894 12.2988 124.832 11.7798 124.707 11.3854C124.604 10.9702 124.417 10.6277 124.147 10.3578C123.628 9.83881 122.808 9.57932 121.687 9.57932C121.002 9.57932 120.275 9.67274 119.507 9.85957C118.739 10.0464 118.044 10.2851 117.421 10.5758V23H114.837V0.736003ZM136.165 23.4359C134.442 23.4359 133.113 22.9481 132.179 21.9724C131.369 21.1213 130.965 20.0211 130.965 18.6718C130.965 17.2809 131.401 16.1807 132.272 15.3711C133.331 14.3954 135.054 13.9076 137.441 13.9076H140.618V12.9423C140.618 12.3195 140.555 11.8005 140.431 11.3854C140.306 10.9702 140.109 10.6277 139.839 10.3578C139.216 9.75578 138.158 9.45477 136.663 9.45477C135.417 9.45477 134.047 9.57932 132.553 9.82843L132.459 7.83557C133.933 7.48267 135.48 7.30622 137.099 7.30622C139.279 7.30622 140.867 7.77329 141.863 8.70745C142.341 9.16415 142.683 9.72464 142.891 10.3889C143.098 11.0325 143.202 11.8524 143.202 12.8489V23H141.116L140.96 21.9724C139.465 22.9481 137.867 23.4359 136.165 23.4359ZM136.725 21.3497C137.327 21.3497 137.981 21.2562 138.687 21.0694C139.393 20.8826 140.036 20.6439 140.618 20.3532V15.807H137.815C136.217 15.807 135.085 16.0665 134.421 16.5855C133.86 17.0422 133.58 17.7168 133.58 18.6095C133.58 19.5229 133.85 20.2079 134.39 20.6646C134.93 21.1213 135.708 21.3497 136.725 21.3497ZM160.483 23.4359C158.075 23.4359 156.259 22.8235 155.034 21.5988C153.706 20.2702 153.041 18.2047 153.041 15.4022C153.041 12.7658 153.633 10.7626 154.816 9.39249C156.02 8.00164 157.629 7.30622 159.643 7.30622C161.739 7.30622 163.317 8.01202 164.376 9.42363C165.434 10.8145 165.964 12.7866 165.964 15.3399V15.9316C165.964 16.1599 165.839 16.2741 165.59 16.2741H155.75C155.75 18.0386 156.197 19.336 157.089 20.1664C157.504 20.5608 158.023 20.8514 158.646 21.0383C159.269 21.2251 160.047 21.3185 160.982 21.3185C162.206 21.3185 163.462 21.1836 164.749 20.9137L164.998 22.8443C164.355 23.0311 163.618 23.1765 162.788 23.2802C161.978 23.384 161.21 23.4359 160.483 23.4359ZM163.41 14.3746C163.369 12.8385 163.037 11.6241 162.414 10.7314C161.791 9.83881 160.867 9.39249 159.643 9.39249C158.376 9.39249 157.411 9.82843 156.747 10.7003C156.103 11.5722 155.771 12.797 155.75 14.3746H163.41ZM169.634 0.736003H172.218V23H169.634V0.736003ZM181.271 7.74216H183.98L188.214 20.3532L192.294 7.74216H194.909L189.553 23H186.72L181.271 7.74216ZM204.029 23.4359C201.621 23.4359 199.804 22.8235 198.579 21.5988C197.251 20.2702 196.586 18.2047 196.586 15.4022C196.586 12.7658 197.178 10.7626 198.361 9.39249C199.565 8.00164 201.174 7.30622 203.188 7.30622C205.285 7.30622 206.862 8.01202 207.921 9.42363C208.98 10.8145 209.509 12.7866 209.509 15.3399V15.9316C209.509 16.1599 209.384 16.2741 209.135 16.2741H199.296C199.296 18.0386 199.742 19.336 200.634 20.1664C201.05 20.5608 201.569 20.8514 202.191 21.0383C202.814 21.2251 203.593 21.3185 204.527 21.3185C205.752 21.3185 207.007 21.1836 208.295 20.9137L208.544 22.8443C207.9 23.0311 207.163 23.1765 206.333 23.2802C205.523 23.384 204.755 23.4359 204.029 23.4359ZM206.956 14.3746C206.914 12.8385 206.582 11.6241 205.959 10.7314C205.336 9.83881 204.413 9.39249 203.188 9.39249C201.922 9.39249 200.956 9.82843 200.292 10.7003C199.648 11.5722 199.316 12.797 199.296 14.3746H206.956ZM213.148 7.74216H215.296L215.452 9.04997C216.843 7.88747 218.286 7.30622 219.78 7.30622C220.092 7.30622 220.424 7.33736 220.777 7.39963V9.70388C220.32 9.66236 219.874 9.6416 219.438 9.6416C218.068 9.6416 216.832 9.98412 215.732 10.6692V23H213.148V7.74216ZM227.147 23.4359C225.424 23.4359 224.096 22.9481 223.162 21.9724C222.352 21.1213 221.947 20.0211 221.947 18.6718C221.947 17.2809 222.383 16.1807 223.255 15.3711C224.314 14.3954 226.037 13.9076 228.424 13.9076H231.6V12.9423C231.6 12.3195 231.538 11.8005 231.413 11.3854C231.289 10.9702 231.092 10.6277 230.822 10.3578C230.199 9.75578 229.14 9.45477 227.646 9.45477C226.4 9.45477 225.03 9.57932 223.535 9.82843L223.442 7.83557C224.916 7.48267 226.462 7.30622 228.082 7.30622C230.261 7.30622 231.849 7.77329 232.846 8.70745C233.323 9.16415 233.666 9.72464 233.873 10.3889C234.081 11.0325 234.185 11.8524 234.185 12.8489V23H232.098L231.943 21.9724C230.448 22.9481 228.85 23.4359 227.147 23.4359ZM227.708 21.3497C228.31 21.3497 228.964 21.2562 229.67 21.0694C230.375 20.8826 231.019 20.6439 231.6 20.3532V15.807H228.798C227.199 15.807 226.068 16.0665 225.404 16.5855C224.843 17.0422 224.563 17.7168 224.563 18.6095C224.563 19.5229 224.833 20.2079 225.373 20.6646C225.912 21.1213 226.691 21.3497 227.708 21.3497ZM238.478 7.74216H240.627L240.751 8.86314C241.561 8.36492 242.422 7.98088 243.336 7.71102C244.249 7.44115 245.142 7.30622 246.014 7.30622C247.695 7.30622 248.972 7.75254 249.844 8.64517C250.695 9.49629 251.12 10.8249 251.12 12.6309V23H248.536V12.9423C248.536 12.2988 248.474 11.7798 248.349 11.3854C248.245 10.9702 248.058 10.6277 247.789 10.3578C247.27 9.83881 246.45 9.57932 245.329 9.57932C244.644 9.57932 243.917 9.67274 243.149 9.85957C242.381 10.0464 241.685 10.2851 241.063 10.5758V23H238.478V7.74216ZM261.55 23.4359C259.225 23.4359 257.481 22.7405 256.319 21.3497C255.177 19.9588 254.606 17.9659 254.606 15.3711C254.606 12.7762 255.177 10.7833 256.319 9.39249C257.481 8.00164 259.225 7.30622 261.55 7.30622C263.875 7.30622 265.608 8.00164 266.75 9.39249C267.913 10.7833 268.494 12.7762 268.494 15.3711C268.494 17.9659 267.913 19.9588 266.75 21.3497C265.608 22.7405 263.875 23.4359 261.55 23.4359ZM261.55 21.3185C263.065 21.3185 264.145 20.8307 264.788 19.855C265.453 18.8793 265.785 17.3847 265.785 15.3711C265.785 13.3575 265.453 11.8628 264.788 10.8871C264.145 9.91147 263.065 9.42363 261.55 9.42363C260.035 9.42363 258.945 9.91147 258.281 10.8871C257.637 11.8628 257.315 13.3575 257.315 15.3711C257.315 17.3847 257.637 18.8793 258.281 19.855C258.945 20.8307 260.035 21.3185 261.55 21.3185ZM284.57 30.4421C284.072 30.4421 283.522 30.411 282.92 30.3487C282.318 30.2864 281.84 30.2137 281.487 30.1307L281.269 28.1067C282.266 28.2313 283.242 28.2935 284.196 28.2935C285.691 28.2935 286.75 28.0133 287.373 27.4528C287.705 27.1414 287.943 26.7262 288.089 26.2073C288.255 25.6883 288.338 25.0032 288.338 24.1521V22.0658C286.739 22.9792 285.11 23.4359 283.449 23.4359C281.768 23.4359 280.491 22.9896 279.619 22.097C278.768 21.2459 278.342 19.9173 278.342 18.1113V7.74216H280.927V17.7999C280.927 18.4434 280.979 18.9728 281.083 19.3879C281.207 19.7824 281.404 20.1145 281.674 20.3844C282.193 20.9033 283.013 21.1628 284.134 21.1628C284.798 21.1628 285.504 21.0798 286.252 20.9137C286.999 20.7269 287.694 20.4778 288.338 20.1664V7.74216H290.922V24.1833C290.922 26.2384 290.455 27.7642 289.521 28.7606C288.483 29.8816 286.833 30.4421 284.57 30.4421ZM9.04771 62.4359C5.62248 62.4359 3.25596 61.4187 1.94815 59.3844C1.53297 58.7616 1.22158 58.0454 1.01399 57.2358C0.806403 56.4262 0.702608 55.5855 0.702608 54.7136C0.702608 52.0565 1.35652 50.0117 2.66433 48.5793C3.34938 47.8528 4.22125 47.2923 5.27996 46.8978C6.33867 46.5034 7.50117 46.3062 8.76747 46.3062C10.4074 46.3062 11.9021 46.493 13.2514 46.8667L12.9712 50.1674C11.8709 49.8768 10.6981 49.7314 9.45252 49.7314C8.08242 49.7314 7.05485 50.0947 6.36981 50.8213C5.68476 51.5686 5.34224 52.7519 5.34224 54.3711C5.34224 55.9695 5.69514 57.1528 6.40095 57.9209C7.10675 58.6682 8.24849 59.0418 9.82618 59.0418C10.8641 59.0418 11.9228 58.9381 13.0023 58.7305L13.3448 61.9377C12.556 62.1246 11.8398 62.2491 11.1963 62.3114C10.5735 62.3944 9.85731 62.4359 9.04771 62.4359ZM20.3164 62.4359C18.6142 62.4359 17.296 61.9792 16.3618 61.0658C15.4277 60.1525 14.9606 58.9381 14.9606 57.4226C14.9606 56.7376 15.0748 56.0941 15.3031 55.4921C15.5315 54.8901 15.8636 54.3815 16.2996 53.9663C16.8393 53.4681 17.5451 53.1152 18.417 52.9076C19.3096 52.6792 20.4721 52.565 21.9045 52.565H24.3333V52.0668C24.3333 51.2572 24.1465 50.6864 23.7728 50.3542C23.2953 49.939 22.4338 49.7314 21.1883 49.7314C20.5033 49.7314 19.7559 49.773 18.9463 49.856C18.1367 49.939 17.4621 50.0325 16.9223 50.1362L16.7044 46.8667C18.5727 46.493 20.3787 46.3062 22.1225 46.3062C23.3472 46.3062 24.4371 46.4515 25.392 46.7422C26.3677 47.012 27.1046 47.448 27.6028 48.05C28.3917 48.9634 28.7861 50.3127 28.7861 52.098V62H25.2674L24.8938 61.0658C24.2295 61.5018 23.4926 61.8339 22.683 62.0623C21.8941 62.3114 21.1053 62.4359 20.3164 62.4359ZM21.5931 59.0418C21.9875 59.0418 22.4442 59.0003 22.9632 58.9173C23.4822 58.8135 23.9389 58.6993 24.3333 58.5748V55.4298H21.9668C21.4063 55.4298 20.96 55.4713 20.6278 55.5543C20.2957 55.6374 20.0362 55.7723 19.8494 55.9591C19.5587 56.2498 19.4134 56.6753 19.4134 57.2358C19.4134 57.8171 19.5795 58.2634 19.9116 58.5748C20.2645 58.8862 20.825 59.0418 21.5931 59.0418ZM18.6038 42.663L24.3022 37.3695L26.4818 40.3276L20.1607 44.5936L18.6038 42.663ZM32.4371 46.7422H36.2982L36.3917 47.832C37.9278 46.8148 39.5782 46.3062 41.3427 46.3062C43.2733 46.3062 44.6226 46.846 45.3907 47.9254C46.2003 47.3857 47.0722 46.9809 48.0063 46.711C48.9405 46.4412 49.8435 46.3062 50.7153 46.3062C51.4419 46.3062 52.1373 46.41 52.8016 46.6176C53.4659 46.8044 53.9953 47.0951 54.3897 47.4895C55.2616 48.3406 55.6975 49.6796 55.6975 51.5063V62H51.2447V52.0357C51.2447 51.3299 51.089 50.8213 50.7776 50.5099C50.4247 50.1778 49.7812 50.0117 48.847 50.0117C48.4941 50.0117 48.0686 50.0532 47.5704 50.1362C47.0929 50.2193 46.657 50.3127 46.2625 50.4165C46.3041 50.8732 46.3248 51.2365 46.3248 51.5063V62H41.872V52.0357C41.872 51.3299 41.7163 50.8213 41.405 50.5099C41.052 50.1778 40.4293 50.0117 39.5366 50.0117C39.1422 50.0117 38.6959 50.0636 38.1977 50.1674C37.6995 50.2504 37.2635 50.3646 36.8899 50.5099V62H32.4371V46.7422ZM67.7873 62.4359C67.0192 62.4359 66.2303 62.3114 65.4207 62.0623C64.6111 61.8132 63.8846 61.4706 63.241 61.0347L63.0231 62H59.3487V39.736H63.8015V47.3338C64.3205 47.0224 64.964 46.7733 65.7321 46.5865C66.521 46.3996 67.2787 46.3062 68.0052 46.3062C71.8871 46.3062 73.8281 48.9737 73.8281 54.3088C73.8281 55.6997 73.6828 56.9556 73.3922 58.0766C73.1015 59.1768 72.676 60.0383 72.1155 60.661C71.5965 61.2631 70.9841 61.7094 70.2783 62C69.5725 62.2906 68.7422 62.4359 67.7873 62.4359ZM66.4483 58.9484C67.4655 58.9484 68.1713 58.6163 68.5657 57.952C68.9601 57.267 69.1573 56.0733 69.1573 54.3711C69.1573 53.1671 69.0639 52.2433 68.8771 51.5998C68.6903 50.9562 68.3996 50.5099 68.0052 50.2608C67.6316 50.0117 67.1126 49.8871 66.4483 49.8871C65.3688 49.8871 64.4866 50.0221 63.8015 50.2919V58.2011C64.1752 58.4087 64.6008 58.5851 65.0782 58.7305C65.5764 58.8758 66.0331 58.9484 66.4483 58.9484ZM78.9837 44.1888C78.1949 44.1888 77.6032 44.0227 77.2088 43.6906C76.8352 43.3584 76.6483 42.8187 76.6483 42.0714V41.6666C76.6483 40.9193 76.8352 40.3795 77.2088 40.0474C77.6032 39.6945 78.1949 39.518 78.9837 39.518H79.2017C79.9905 39.518 80.5718 39.6945 80.9454 40.0474C81.3399 40.3795 81.5371 40.9193 81.5371 41.6666V42.0714C81.5371 42.8187 81.3399 43.3584 80.9454 43.6906C80.5718 44.0227 79.9905 44.1888 79.2017 44.1888H78.9837ZM76.8663 46.7422H81.3191V62H76.8663V46.7422ZM89.5569 62.4359C87.8547 62.4359 86.5365 61.9792 85.6023 61.0658C84.6682 60.1525 84.2011 58.9381 84.2011 57.4226C84.2011 56.7376 84.3153 56.0941 84.5436 55.4921C84.772 54.8901 85.1041 54.3815 85.5401 53.9663C86.0798 53.4681 86.7856 53.1152 87.6575 52.9076C88.5501 52.6792 89.7126 52.565 91.145 52.565H93.5738V52.0668C93.5738 51.2572 93.387 50.6864 93.0133 50.3542C92.5358 49.939 91.6743 49.7314 90.4288 49.7314C89.7438 49.7314 88.9964 49.773 88.1868 49.856C87.3772 49.939 86.7026 50.0325 86.1628 50.1362L85.9449 46.8667C87.8132 46.493 89.6192 46.3062 91.363 46.3062C92.5877 46.3062 93.6776 46.4515 94.6325 46.7422C95.6082 47.012 96.3451 47.448 96.8433 48.05C97.6322 48.9634 98.0266 50.3127 98.0266 52.098V62H94.5079L94.1343 61.0658C93.47 61.5018 92.733 61.8339 91.9234 62.0623C91.1346 62.3114 90.3458 62.4359 89.5569 62.4359ZM90.8336 59.0418C91.228 59.0418 91.6847 59.0003 92.2037 58.9173C92.7227 58.8135 93.1794 58.6993 93.5738 58.5748V55.4298H91.2073C90.6468 55.4298 90.2004 55.4713 89.8683 55.5543C89.5362 55.6374 89.2767 55.7723 89.0898 55.9591C88.7992 56.2498 88.6539 56.6753 88.6539 57.2358C88.6539 57.8171 88.82 58.2634 89.1521 58.5748C89.505 58.8862 90.0655 59.0418 90.8336 59.0418ZM107.656 62.4359C105.809 62.4359 104.511 62.0311 103.764 61.2215C103.017 60.4119 102.643 59.1353 102.643 57.3915V49.638H100.058V47.2092L102.643 46.7422V43.3481C104.075 42.9121 105.559 42.6942 107.096 42.6942V46.7422H111.05V49.638H107.096V56.7687C107.096 57.6614 107.231 58.2738 107.5 58.6059C107.791 58.9381 108.372 59.1041 109.244 59.1041C109.618 59.1041 110.334 59.0418 111.393 58.9173L111.548 62.0623C110.407 62.3114 109.109 62.4359 107.656 62.4359ZM121.773 62.4359C120.362 62.4359 119.116 62.2699 118.037 61.9377C116.978 61.5848 116.116 61.097 115.452 60.4742C114.082 59.1664 113.397 57.1424 113.397 54.4022C113.397 51.7451 114.041 49.7314 115.328 48.3614C116.615 46.9913 118.441 46.3062 120.808 46.3062C123.133 46.3062 124.877 46.9394 126.039 48.2057C127.223 49.4512 127.814 51.3818 127.814 53.9974V55.3986C127.814 55.627 127.69 55.7412 127.441 55.7412H118.068C118.13 56.9867 118.535 57.8482 119.282 58.3257C120.03 58.8031 121.192 59.0418 122.77 59.0418C123.995 59.0418 125.261 58.9173 126.569 58.6682L126.911 61.9066C125.064 62.2595 123.351 62.4359 121.773 62.4359ZM123.455 52.8453C123.455 51.8489 123.226 51.0704 122.77 50.5099C122.313 49.9494 121.649 49.6692 120.777 49.6692C119.075 49.6692 118.172 50.7279 118.068 52.8453H123.455ZM142.042 62.4359C140.34 62.4359 139.022 61.9792 138.088 61.0658C137.154 60.1525 136.686 58.9381 136.686 57.4226C136.686 56.7376 136.801 56.0941 137.029 55.4921C137.257 54.8901 137.589 54.3815 138.025 53.9663C138.565 53.4681 139.271 53.1152 140.143 52.9076C141.035 52.6792 142.198 52.565 143.63 52.565H146.059V52.0668C146.059 51.2572 145.872 50.6864 145.499 50.3542C145.021 49.939 144.16 49.7314 142.914 49.7314C142.229 49.7314 141.482 49.773 140.672 49.856C139.863 49.939 139.188 50.0325 138.648 50.1362L138.43 46.8667C140.299 46.493 142.105 46.3062 143.848 46.3062C145.073 46.3062 146.163 46.4515 147.118 46.7422C148.093 47.012 148.83 47.448 149.329 48.05C150.117 48.9634 150.512 50.3127 150.512 52.098V62H146.993L146.62 61.0658C145.955 61.5018 145.218 61.8339 144.409 62.0623C143.62 62.3114 142.831 62.4359 142.042 62.4359ZM143.319 59.0418C143.713 59.0418 144.17 59.0003 144.689 58.9173C145.208 58.8135 145.665 58.6993 146.059 58.5748V55.4298H143.693C143.132 55.4298 142.686 55.4713 142.354 55.5543C142.021 55.6374 141.762 55.7723 141.575 55.9591C141.285 56.2498 141.139 56.6753 141.139 57.2358C141.139 57.8171 141.305 58.2634 141.637 58.5748C141.99 58.8862 142.551 59.0418 143.319 59.0418ZM161.593 40.7013H165.423L172.149 52.5962L179.093 40.7013H182.829V62H178.376V49.7314L173.955 57.1424H170.218L165.672 49.6069V62H161.593V40.7013ZM193.979 62.4359C191.405 62.4359 189.464 61.7301 188.156 60.3185C186.869 58.8862 186.226 56.9037 186.226 54.3711C186.226 51.8385 186.869 49.8664 188.156 48.4548C189.464 47.0224 191.405 46.3062 193.979 46.3062C196.553 46.3062 198.484 47.0224 199.771 48.4548C201.079 49.8664 201.733 51.8385 201.733 54.3711C201.733 56.9037 201.079 58.8862 199.771 60.3185C198.484 61.7301 196.553 62.4359 193.979 62.4359ZM193.979 59.0418C195.079 59.0418 195.868 58.6682 196.346 57.9209C196.844 57.1528 197.093 55.9695 197.093 54.3711C197.093 52.7726 196.844 51.5998 196.346 50.8524C195.868 50.0844 195.079 49.7003 193.979 49.7003C192.879 49.7003 192.08 50.0844 191.582 50.8524C191.104 51.5998 190.865 52.7726 190.865 54.3711C190.865 55.9695 191.104 57.1528 191.582 57.9209C192.08 58.6682 192.879 59.0418 193.979 59.0418ZM203.145 46.7422H207.94L211.335 57.3292L214.573 46.7422H219.026L213.763 62H208.594L203.145 46.7422ZM223.425 44.1888C222.636 44.1888 222.044 44.0227 221.65 43.6906C221.276 43.3584 221.089 42.8187 221.089 42.0714V41.6666C221.089 40.9193 221.276 40.3795 221.65 40.0474C222.044 39.6945 222.636 39.518 223.425 39.518H223.643C224.432 39.518 225.013 39.6945 225.387 40.0474C225.781 40.3795 225.978 40.9193 225.978 41.6666V42.0714C225.978 42.8187 225.781 43.3584 225.387 43.6906C225.013 44.0227 224.432 44.1888 223.643 44.1888H223.425ZM221.307 46.7422H225.76V62H221.307V46.7422ZM234.527 62.4359C233.655 62.4359 232.701 62.3529 231.663 62.1868C230.625 62.0208 229.794 61.8235 229.172 61.5952L229.514 58.2945C230.116 58.4814 230.884 58.6474 231.818 58.7927C232.773 58.9381 233.645 59.0107 234.434 59.0107C235.327 59.0107 236.001 58.9069 236.458 58.6993C236.935 58.4917 237.174 58.1285 237.174 57.6095C237.174 57.132 236.946 56.7999 236.489 56.613C236.032 56.4055 235.306 56.2082 234.309 56.0214C233.188 55.8138 232.265 55.5855 231.538 55.3364C230.812 55.0873 230.178 54.6409 229.639 53.9974C229.12 53.3331 228.86 52.4094 228.86 51.2261C228.86 49.7314 229.41 48.5378 230.51 47.6452C231.631 46.7525 233.292 46.3062 235.493 46.3062C236.281 46.3062 237.122 46.3789 238.015 46.5242C238.908 46.6695 239.759 46.8771 240.568 47.147L240.226 50.4165C239.458 50.2089 238.638 50.0428 237.766 49.9183C236.915 49.7937 236.167 49.7314 235.524 49.7314C233.884 49.7314 233.064 50.1466 233.064 50.977C233.064 51.4129 233.282 51.7347 233.718 51.9423C234.174 52.1291 234.901 52.3263 235.897 52.5339C236.998 52.7415 237.921 52.9802 238.669 53.2501C239.416 53.52 240.06 53.987 240.599 54.6513C241.139 55.3156 241.409 56.2394 241.409 57.4226C241.409 59.0211 240.828 60.2562 239.665 61.1281C238.503 62 236.79 62.4359 234.527 62.4359ZM250.334 62.4359C248.486 62.4359 247.189 62.0311 246.441 61.2215C245.694 60.4119 245.32 59.1353 245.32 57.3915V49.638H242.736V47.2092L245.32 46.7422V43.3481C246.753 42.9121 248.237 42.6942 249.773 42.6942V46.7422H253.728V49.638H249.773V56.7687C249.773 57.6614 249.908 58.2738 250.178 58.6059C250.468 58.9381 251.05 59.1041 251.922 59.1041C252.295 59.1041 253.011 59.0418 254.07 58.9173L254.226 62.0623C253.084 62.3114 251.787 62.4359 250.334 62.4359ZM261.275 62.4359C259.572 62.4359 258.254 61.9792 257.32 61.0658C256.386 60.1525 255.919 58.9381 255.919 57.4226C255.919 56.7376 256.033 56.0941 256.261 55.4921C256.49 54.8901 256.822 54.3815 257.258 53.9663C257.797 53.4681 258.503 53.1152 259.375 52.9076C260.268 52.6792 261.43 52.565 262.863 52.565H265.291V52.0668C265.291 51.2572 265.105 50.6864 264.731 50.3542C264.253 49.939 263.392 49.7314 262.146 49.7314C261.461 49.7314 260.714 49.773 259.904 49.856C259.095 49.939 258.42 50.0325 257.88 50.1362L257.662 46.8667C259.531 46.493 261.337 46.3062 263.081 46.3062C264.305 46.3062 265.395 46.4515 266.35 46.7422C267.326 47.012 268.063 47.448 268.561 48.05C269.35 48.9634 269.744 50.3127 269.744 52.098V62H266.226L265.852 61.0658C265.188 61.5018 264.451 61.8339 263.641 62.0623C262.852 62.3114 262.063 62.4359 261.275 62.4359ZM262.551 59.0418C262.946 59.0418 263.402 59.0003 263.921 58.9173C264.44 58.8135 264.897 58.6993 265.291 58.5748V55.4298H262.925C262.364 55.4298 261.918 55.4713 261.586 55.5543C261.254 55.6374 260.994 55.7723 260.807 55.9591C260.517 56.2498 260.372 56.6753 260.372 57.2358C260.372 57.8171 260.538 58.2634 260.87 58.5748C261.223 58.8862 261.783 59.0418 262.551 59.0418ZM273.395 46.7422H277.256L277.412 47.9877C277.973 47.4687 278.689 47.0639 279.561 46.7733C280.453 46.4827 281.294 46.3374 282.083 46.3374C282.353 46.3374 282.612 46.3581 282.861 46.3996V50.2919C282.197 50.2089 281.543 50.1674 280.9 50.1674C279.965 50.1674 278.948 50.2919 277.848 50.541V62H273.395V46.7422ZM285.473 40.7013H290.144L289.459 55.3364H286.158L285.473 40.7013ZM287.778 62.4359C287.009 62.4359 286.439 62.2699 286.065 61.9377C285.691 61.6056 285.504 61.0555 285.504 60.2874V59.9137C285.504 59.1456 285.691 58.5955 286.065 58.2634C286.439 57.9312 287.009 57.7652 287.778 57.7652H287.995C288.764 57.7652 289.334 57.9312 289.708 58.2634C290.082 58.5955 290.269 59.1456 290.269 59.9137V60.2874C290.269 61.0555 290.082 61.6056 289.708 61.9377C289.334 62.2699 288.764 62.4359 287.995 62.4359H287.778Z" fill="white"/>
</svg>
