<svg width="443" height="156" viewBox="0 0 443 156" fill="none" xmlns="http://www.w3.org/2000/svg">
<path d="M71.8376 12.776C73.7043 12.776 74.6376 13.6907 74.6376 15.52V15.968C74.6376 17.7973 73.7043 18.712 71.8376 18.712H71.5576C69.6909 18.712 68.7576 17.7973 68.7576 15.968V15.52C68.7576 13.6907 69.6909 12.776 71.5576 12.776H71.8376ZM74.2456 51.864H69.2616L70.0456 23.808H73.4616L74.2456 51.864ZM92.5261 2.696H98.2381L111.454 41H106.246L102.886 30.808H88.3821L85.2461 41H80.3741L92.5261 2.696ZM101.598 26.888L95.4381 7.96H95.3821L89.6141 26.888H101.598ZM116.372 13.56H120.236L120.46 15.576C121.841 14.6427 123.279 13.952 124.772 13.504C126.303 13.0187 127.721 12.776 129.028 12.776C132.5 12.776 135.113 14.064 136.868 16.64C138.66 19.1787 139.556 22.688 139.556 27.168C139.556 32.1707 138.623 35.8667 136.756 38.256C134.889 40.608 132.257 41.784 128.86 41.784C127.441 41.784 126.023 41.5973 124.604 41.224C123.223 40.8507 122.028 40.3467 121.02 39.712V53.6H116.372V13.56ZM127.684 37.92C130.185 37.92 131.977 37.0987 133.06 35.456C134.143 33.776 134.684 30.9947 134.684 27.112C134.684 23.6027 134.143 21.008 133.06 19.328C131.977 17.6107 130.297 16.752 128.02 16.752C126.975 16.752 125.817 16.92 124.548 17.256C123.279 17.592 122.103 18.04 121.02 18.6V36.24C121.841 36.7253 122.868 37.136 124.1 37.472C125.332 37.7707 126.527 37.92 127.684 37.92ZM145.958 13.56H149.822L150.102 15.912C152.603 13.8213 155.198 12.776 157.886 12.776C158.446 12.776 159.043 12.832 159.678 12.944V17.088C158.857 17.0133 158.054 16.976 157.27 16.976C154.806 16.976 152.585 17.592 150.606 18.824V41H145.958V13.56ZM174.49 41.784C170.309 41.784 167.173 40.5333 165.082 38.032C163.029 35.5307 162.002 31.9467 162.002 27.28C162.002 22.6133 163.029 19.0293 165.082 16.528C167.173 14.0267 170.309 12.776 174.49 12.776C178.671 12.776 181.789 14.0267 183.842 16.528C185.933 19.0293 186.978 22.6133 186.978 27.28C186.978 31.9467 185.933 35.5307 183.842 38.032C181.789 40.5333 178.671 41.784 174.49 41.784ZM174.49 37.976C177.215 37.976 179.157 37.0987 180.314 35.344C181.509 33.5893 182.106 30.9013 182.106 27.28C182.106 23.6587 181.509 20.9707 180.314 19.216C179.157 17.4613 177.215 16.584 174.49 16.584C171.765 16.584 169.805 17.4613 168.61 19.216C167.453 20.9707 166.874 23.6587 166.874 27.28C166.874 30.9013 167.453 33.5893 168.61 35.344C169.805 37.0987 171.765 37.976 174.49 37.976ZM190.02 13.56H194.892L202.508 36.24L209.844 13.56H214.548L204.916 41H199.82L190.02 13.56ZM230.948 41.784C226.618 41.784 223.351 40.6827 221.148 38.48C218.759 36.0907 217.564 32.376 217.564 27.336C217.564 22.5947 218.628 18.992 220.756 16.528C222.922 14.0267 225.815 12.776 229.436 12.776C233.207 12.776 236.044 14.0453 237.948 16.584C239.852 19.0853 240.804 22.632 240.804 27.224V28.288C240.804 28.6987 240.58 28.904 240.132 28.904H222.436C222.436 32.0773 223.239 34.4107 224.844 35.904C225.591 36.6133 226.524 37.136 227.644 37.472C228.764 37.808 230.164 37.976 231.844 37.976C234.047 37.976 236.306 37.7333 238.62 37.248L239.068 40.72C237.911 41.056 236.586 41.3173 235.092 41.504C233.636 41.6907 232.255 41.784 230.948 41.784ZM236.212 25.488C236.138 22.7253 235.54 20.5413 234.42 18.936C233.3 17.3307 231.639 16.528 229.436 16.528C227.159 16.528 225.423 17.312 224.228 18.88C223.071 20.448 222.474 22.6507 222.436 25.488H236.212ZM259.501 41.784C255.095 41.784 251.773 40.6453 249.533 38.368C247.106 35.8667 245.893 32.2827 245.893 27.616C245.893 22.8 247.087 19.104 249.477 16.528C251.829 14.0267 255.189 12.776 259.557 12.776C261.797 12.776 263.981 13.056 266.109 13.616L265.829 17.2C263.514 16.752 261.61 16.528 260.117 16.528C256.943 16.528 254.591 17.4427 253.061 19.272C251.53 21.1013 250.765 23.864 250.765 27.56C250.765 31.032 251.53 33.6453 253.061 35.4C254.554 37.1173 256.981 37.976 260.341 37.976C261.237 37.976 262.226 37.92 263.309 37.808C264.391 37.696 265.306 37.5653 266.053 37.416L266.389 40.888C265.493 41.1493 264.373 41.3547 263.029 41.504C261.685 41.6907 260.509 41.784 259.501 41.784ZM272.56 0.959998H277.208V15.296C280.269 13.616 283.237 12.776 286.112 12.776C289.136 12.776 291.432 13.5787 293 15.184C294.53 16.7147 295.296 19.104 295.296 22.352V41H290.648V22.912C290.648 21.7547 290.536 20.8213 290.312 20.112C290.125 19.3653 289.789 18.7493 289.304 18.264C288.37 17.3307 286.896 16.864 284.88 16.864C283.648 16.864 282.341 17.032 280.96 17.368C279.578 17.704 278.328 18.1333 277.208 18.656V41H272.56V0.959998ZM310.916 41.784C307.818 41.784 305.428 40.9067 303.748 39.152C302.292 37.6213 301.564 35.6427 301.564 33.216C301.564 30.7147 302.348 28.736 303.916 27.28C305.82 25.5253 308.919 24.648 313.212 24.648H318.924V22.912C318.924 21.792 318.812 20.8587 318.588 20.112C318.364 19.3653 318.01 18.7493 317.524 18.264C316.404 17.1813 314.5 16.64 311.812 16.64C309.572 16.64 307.108 16.864 304.42 17.312L304.252 13.728C306.903 13.0933 309.684 12.776 312.596 12.776C316.516 12.776 319.372 13.616 321.164 15.296C322.023 16.1173 322.639 17.1253 323.012 18.32C323.386 19.4773 323.572 20.952 323.572 22.744V41H319.82L319.54 39.152C316.852 40.9067 313.978 41.784 310.916 41.784ZM311.924 38.032C313.007 38.032 314.183 37.864 315.452 37.528C316.722 37.192 317.879 36.7627 318.924 36.24V28.064H313.884C311.01 28.064 308.975 28.5307 307.78 29.464C306.772 30.2853 306.268 31.4987 306.268 33.104C306.268 34.7467 306.754 35.9787 307.724 36.8C308.695 37.6213 310.095 38.032 311.924 38.032ZM354.652 41.784C350.321 41.784 347.054 40.6827 344.852 38.48C342.462 36.0907 341.268 32.376 341.268 27.336C341.268 22.5947 342.332 18.992 344.46 16.528C346.625 14.0267 349.518 12.776 353.14 12.776C356.91 12.776 359.748 14.0453 361.652 16.584C363.556 19.0853 364.508 22.632 364.508 27.224V28.288C364.508 28.6987 364.284 28.904 363.836 28.904H346.14C346.14 32.0773 346.942 34.4107 348.548 35.904C349.294 36.6133 350.228 37.136 351.348 37.472C352.468 37.808 353.868 37.976 355.548 37.976C357.75 37.976 360.009 37.7333 362.324 37.248L362.772 40.72C361.614 41.056 360.289 41.3173 358.796 41.504C357.34 41.6907 355.958 41.784 354.652 41.784ZM359.916 25.488C359.841 22.7253 359.244 20.5413 358.124 18.936C357.004 17.3307 355.342 16.528 353.14 16.528C350.862 16.528 349.126 17.312 347.932 18.88C346.774 20.448 346.177 22.6507 346.14 25.488H359.916ZM371.108 0.959998H375.756V41H371.108V0.959998ZM0.0355264 70.56H4.90753L12.5235 93.24L19.8595 70.56H24.5635L14.9315 98H9.83553L0.0355264 70.56ZM40.9641 98.784C36.6334 98.784 33.3668 97.6827 31.1641 95.48C28.7748 93.0907 27.5801 89.376 27.5801 84.336C27.5801 79.5947 28.6441 75.992 30.7721 73.528C32.9374 71.0267 35.8308 69.776 39.4521 69.776C43.2228 69.776 46.0601 71.0453 47.9641 73.584C49.8681 76.0853 50.8201 79.632 50.8201 84.224V85.288C50.8201 85.6987 50.5961 85.904 50.1481 85.904H32.4521C32.4521 89.0773 33.2548 91.4107 34.8601 92.904C35.6068 93.6133 36.5401 94.136 37.6601 94.472C38.7801 94.808 40.1801 94.976 41.8601 94.976C44.0628 94.976 46.3214 94.7333 48.6361 94.248L49.0841 97.72C47.9268 98.056 46.6014 98.3173 45.1081 98.504C43.6521 98.6907 42.2708 98.784 40.9641 98.784ZM46.2281 82.488C46.1534 79.7253 45.5561 77.5413 44.4361 75.936C43.3161 74.3307 41.6548 73.528 39.4521 73.528C37.1748 73.528 35.4388 74.312 34.2441 75.88C33.0868 77.448 32.4894 79.6507 32.4521 82.488H46.2281ZM57.3642 70.56H61.2282L61.5082 72.912C64.0095 70.8213 66.6042 69.776 69.2922 69.776C69.8522 69.776 70.4495 69.832 71.0842 69.944V74.088C70.2629 74.0133 69.4602 73.976 68.6762 73.976C66.2122 73.976 63.9909 74.592 62.0122 75.824V98H57.3642V70.56ZM82.5415 98.784C79.4428 98.784 77.0535 97.9067 75.3735 96.152C73.9175 94.6213 73.1895 92.6427 73.1895 90.216C73.1895 87.7147 73.9735 85.736 75.5415 84.28C77.4455 82.5253 80.5441 81.648 84.8375 81.648H90.5495V79.912C90.5495 78.792 90.4375 77.8587 90.2135 77.112C89.9895 76.3653 89.6348 75.7493 89.1495 75.264C88.0295 74.1813 86.1255 73.64 83.4375 73.64C81.1975 73.64 78.7335 73.864 76.0455 74.312L75.8775 70.728C78.5281 70.0933 81.3095 69.776 84.2215 69.776C88.1415 69.776 90.9975 70.616 92.7895 72.296C93.6481 73.1173 94.2641 74.1253 94.6375 75.32C95.0108 76.4773 95.1975 77.952 95.1975 79.744V98H91.4455L91.1655 96.152C88.4775 97.9067 85.6028 98.784 82.5415 98.784ZM83.5495 95.032C84.6321 95.032 85.8081 94.864 87.0775 94.528C88.3468 94.192 89.5041 93.7627 90.5495 93.24V85.064H85.5095C82.6348 85.064 80.6001 85.5307 79.4055 86.464C78.3975 87.2853 77.8935 88.4987 77.8935 90.104C77.8935 91.7467 78.3788 92.9787 79.3495 93.8C80.3201 94.6213 81.7201 95.032 83.5495 95.032ZM102.919 70.56H106.783L107.007 72.576C108.463 71.68 110.012 70.9893 111.655 70.504C113.298 70.0187 114.903 69.776 116.471 69.776C119.495 69.776 121.791 70.5787 123.359 72.184C124.89 73.7147 125.655 76.104 125.655 79.352V98H121.007V79.912C121.007 78.7547 120.895 77.8213 120.671 77.112C120.484 76.3653 120.148 75.7493 119.663 75.264C118.73 74.3307 117.255 73.864 115.239 73.864C114.007 73.864 112.7 74.032 111.319 74.368C109.938 74.704 108.687 75.1333 107.567 75.656V98H102.919V70.56ZM144.412 98.784C140.231 98.784 137.095 97.5333 135.004 95.032C132.951 92.5307 131.924 88.9467 131.924 84.28C131.924 79.6133 132.951 76.0293 135.004 73.528C137.095 71.0267 140.231 69.776 144.412 69.776C148.593 69.776 151.711 71.0267 153.764 73.528C155.855 76.0293 156.9 79.6133 156.9 84.28C156.9 88.9467 155.855 92.5307 153.764 95.032C151.711 97.5333 148.593 98.784 144.412 98.784ZM144.412 94.976C147.137 94.976 149.079 94.0987 150.236 92.344C151.431 90.5893 152.028 87.9013 152.028 84.28C152.028 80.6587 151.431 77.9707 150.236 76.216C149.079 74.4613 147.137 73.584 144.412 73.584C141.687 73.584 139.727 74.4613 138.532 76.216C137.375 77.9707 136.796 80.6587 136.796 84.28C136.796 87.9013 137.375 90.5893 138.532 92.344C139.727 94.0987 141.687 94.976 144.412 94.976ZM185.812 111.384C184.916 111.384 183.926 111.328 182.844 111.216C181.761 111.104 180.902 110.973 180.268 110.824L179.876 107.184C181.668 107.408 183.422 107.52 185.14 107.52C187.828 107.52 189.732 107.016 190.852 106.008C191.449 105.448 191.878 104.701 192.14 103.768C192.438 102.835 192.588 101.603 192.588 100.072V96.32C189.713 97.9627 186.782 98.784 183.796 98.784C180.772 98.784 178.476 97.9813 176.908 96.376C175.377 94.8453 174.612 92.456 174.612 89.208V70.56H179.26V88.648C179.26 89.8053 179.353 90.7573 179.54 91.504C179.764 92.2133 180.118 92.8107 180.604 93.296C181.537 94.2293 183.012 94.696 185.028 94.696C186.222 94.696 187.492 94.5467 188.836 94.248C190.18 93.912 191.43 93.464 192.588 92.904V70.56H197.236V100.128C197.236 103.824 196.396 106.568 194.716 108.36C192.849 110.376 189.881 111.384 185.812 111.384ZM229.334 98.784C223.174 98.784 218.918 96.9547 216.566 93.296C215.819 92.176 215.259 90.888 214.886 89.432C214.513 87.976 214.326 86.464 214.326 84.896C214.326 80.1173 215.502 76.44 217.854 73.864C219.086 72.5573 220.654 71.5493 222.558 70.84C224.462 70.1307 226.553 69.776 228.83 69.776C231.779 69.776 234.467 70.112 236.894 70.784L236.39 76.72C234.411 76.1973 232.302 75.936 230.062 75.936C227.598 75.936 225.75 76.5893 224.518 77.896C223.286 79.24 222.67 81.368 222.67 84.28C222.67 87.1547 223.305 89.2827 224.574 90.664C225.843 92.008 227.897 92.68 230.734 92.68C232.601 92.68 234.505 92.4933 236.446 92.12L237.062 97.888C235.643 98.224 234.355 98.448 233.198 98.56C232.078 98.7093 230.79 98.784 229.334 98.784ZM249.6 98.784C246.539 98.784 244.168 97.9627 242.488 96.32C240.808 94.6773 239.968 92.4933 239.968 89.768C239.968 88.536 240.173 87.3787 240.584 86.296C240.995 85.2133 241.592 84.2987 242.376 83.552C243.347 82.656 244.616 82.0213 246.184 81.648C247.789 81.2373 249.88 81.032 252.456 81.032H256.824V80.136C256.824 78.68 256.488 77.6533 255.816 77.056C254.957 76.3093 253.408 75.936 251.168 75.936C249.936 75.936 248.592 76.0107 247.136 76.16C245.68 76.3093 244.467 76.4773 243.496 76.664L243.104 70.784C246.464 70.112 249.712 69.776 252.848 69.776C255.051 69.776 257.011 70.0373 258.728 70.56C260.483 71.0453 261.808 71.8293 262.704 72.912C264.123 74.5547 264.832 76.9813 264.832 80.192V98H258.504L257.832 96.32C256.637 97.104 255.312 97.7013 253.856 98.112C252.437 98.56 251.019 98.784 249.6 98.784ZM251.896 92.68C252.605 92.68 253.427 92.6053 254.36 92.456C255.293 92.2693 256.115 92.064 256.824 91.84V86.184H252.568C251.56 86.184 250.757 86.2587 250.16 86.408C249.563 86.5573 249.096 86.8 248.76 87.136C248.237 87.6587 247.976 88.424 247.976 89.432C247.976 90.4773 248.275 91.28 248.872 91.84C249.507 92.4 250.515 92.68 251.896 92.68ZM246.52 63.224L256.768 53.704L260.688 59.024L249.32 66.696L246.52 63.224ZM271.398 70.56H278.342L278.51 72.52C281.273 70.6907 284.241 69.776 287.414 69.776C290.886 69.776 293.313 70.7467 294.694 72.688C296.15 71.7173 297.718 70.9893 299.398 70.504C301.078 70.0187 302.702 69.776 304.27 69.776C305.577 69.776 306.827 69.9627 308.022 70.336C309.217 70.672 310.169 71.1947 310.878 71.904C312.446 73.4347 313.23 75.8427 313.23 79.128V98H305.222V80.08C305.222 78.8107 304.942 77.896 304.382 77.336C303.747 76.7387 302.59 76.44 300.91 76.44C300.275 76.44 299.51 76.5147 298.614 76.664C297.755 76.8133 296.971 76.9813 296.262 77.168C296.337 77.9893 296.374 78.6427 296.374 79.128V98H288.366V80.08C288.366 78.8107 288.086 77.896 287.526 77.336C286.891 76.7387 285.771 76.44 284.166 76.44C283.457 76.44 282.654 76.5333 281.758 76.72C280.862 76.8693 280.078 77.0747 279.406 77.336V98H271.398V70.56ZM334.972 98.784C333.591 98.784 332.172 98.56 330.716 98.112C329.26 97.664 327.954 97.048 326.796 96.264L326.404 98H319.796V57.96H327.804V71.624C328.738 71.064 329.895 70.616 331.276 70.28C332.695 69.944 334.058 69.776 335.364 69.776C342.346 69.776 345.836 74.5733 345.836 84.168C345.836 86.6693 345.575 88.928 345.052 90.944C344.53 92.9227 343.764 94.472 342.756 95.592C341.823 96.6747 340.722 97.4773 339.452 98C338.183 98.5227 336.69 98.784 334.972 98.784ZM332.564 92.512C334.394 92.512 335.663 91.9147 336.372 90.72C337.082 89.488 337.436 87.3413 337.436 84.28C337.436 82.1147 337.268 80.4533 336.932 79.296C336.596 78.1387 336.074 77.336 335.364 76.888C334.692 76.44 333.759 76.216 332.564 76.216C330.623 76.216 329.036 76.4587 327.804 76.944V91.168C328.476 91.5413 329.242 91.8587 330.1 92.12C330.996 92.3813 331.818 92.512 332.564 92.512ZM355.108 65.968C353.69 65.968 352.626 65.6693 351.916 65.072C351.244 64.4747 350.908 63.504 350.908 62.16V61.432C350.908 60.088 351.244 59.1173 351.916 58.52C352.626 57.8853 353.69 57.568 355.108 57.568H355.5C356.919 57.568 357.964 57.8853 358.636 58.52C359.346 59.1173 359.7 60.088 359.7 61.432V62.16C359.7 63.504 359.346 64.4747 358.636 65.072C357.964 65.6693 356.919 65.968 355.5 65.968H355.108ZM351.3 70.56H359.308V98H351.3V70.56ZM374.123 98.784C371.062 98.784 368.691 97.9627 367.011 96.32C365.331 94.6773 364.491 92.4933 364.491 89.768C364.491 88.536 364.697 87.3787 365.107 86.296C365.518 85.2133 366.115 84.2987 366.899 83.552C367.87 82.656 369.139 82.0213 370.707 81.648C372.313 81.2373 374.403 81.032 376.979 81.032H381.347V80.136C381.347 78.68 381.011 77.6533 380.339 77.056C379.481 76.3093 377.931 75.936 375.691 75.936C374.459 75.936 373.115 76.0107 371.659 76.16C370.203 76.3093 368.99 76.4773 368.019 76.664L367.627 70.784C370.987 70.112 374.235 69.776 377.371 69.776C379.574 69.776 381.534 70.0373 383.251 70.56C385.006 71.0453 386.331 71.8293 387.227 72.912C388.646 74.5547 389.355 76.9813 389.355 80.192V98H383.027L382.355 96.32C381.161 97.104 379.835 97.7013 378.379 98.112C376.961 98.56 375.542 98.784 374.123 98.784ZM376.419 92.68C377.129 92.68 377.95 92.6053 378.883 92.456C379.817 92.2693 380.638 92.064 381.347 91.84V86.184H377.091C376.083 86.184 375.281 86.2587 374.683 86.408C374.086 86.5573 373.619 86.8 373.283 87.136C372.761 87.6587 372.499 88.424 372.499 89.432C372.499 90.4773 372.798 91.28 373.395 91.84C374.03 92.4 375.038 92.68 376.419 92.68ZM406.673 98.784C403.351 98.784 401.017 98.056 399.673 96.6C398.329 95.144 397.657 92.848 397.657 89.712V75.768H393.009V71.4L397.657 70.56V64.456C400.233 63.672 402.903 63.28 405.665 63.28V70.56H412.777V75.768H405.665V88.592C405.665 90.1973 405.908 91.2987 406.393 91.896C406.916 92.4933 407.961 92.792 409.529 92.792C410.201 92.792 411.489 92.68 413.393 92.456L413.673 98.112C411.62 98.56 409.287 98.784 406.673 98.784ZM432.062 98.784C429.523 98.784 427.283 98.4853 425.342 97.888C423.438 97.2533 421.889 96.376 420.694 95.256C418.23 92.904 416.998 89.264 416.998 84.336C416.998 79.5573 418.155 75.936 420.47 73.472C422.785 71.008 426.07 69.776 430.326 69.776C434.507 69.776 437.643 70.9147 439.734 73.192C441.862 75.432 442.926 78.904 442.926 83.608V86.128C442.926 86.5387 442.702 86.744 442.254 86.744H425.398C425.51 88.984 426.238 90.5333 427.582 91.392C428.926 92.2507 431.017 92.68 433.854 92.68C436.057 92.68 438.334 92.456 440.686 92.008L441.302 97.832C437.979 98.4667 434.899 98.784 432.062 98.784ZM435.086 81.536C435.086 79.744 434.675 78.344 433.854 77.336C433.033 76.328 431.838 75.824 430.27 75.824C427.209 75.824 425.585 77.728 425.398 81.536H435.086ZM92.3461 155.784C89.2847 155.784 86.9141 154.963 85.2341 153.32C83.5541 151.677 82.7141 149.493 82.7141 146.768C82.7141 145.536 82.9194 144.379 83.3301 143.296C83.7407 142.213 84.3381 141.299 85.1221 140.552C86.0927 139.656 87.3621 139.021 88.9301 138.648C90.5354 138.237 92.6261 138.032 95.2021 138.032H99.5701V137.136C99.5701 135.68 99.2341 134.653 98.5621 134.056C97.7034 133.309 96.1541 132.936 93.9141 132.936C92.6821 132.936 91.3381 133.011 89.8821 133.16C88.4261 133.309 87.2127 133.477 86.2421 133.664L85.8501 127.784C89.2101 127.112 92.4581 126.776 95.5941 126.776C97.7967 126.776 99.7567 127.037 101.474 127.56C103.229 128.045 104.554 128.829 105.45 129.912C106.869 131.555 107.578 133.981 107.578 137.192V155H101.25L100.578 153.32C99.3834 154.104 98.0581 154.701 96.6021 155.112C95.1834 155.56 93.7647 155.784 92.3461 155.784ZM94.6421 149.68C95.3514 149.68 96.1727 149.605 97.1061 149.456C98.0394 149.269 98.8607 149.064 99.5701 148.84V143.184H95.3141C94.3061 143.184 93.5034 143.259 92.9061 143.408C92.3087 143.557 91.8421 143.8 91.5061 144.136C90.9834 144.659 90.7221 145.424 90.7221 146.432C90.7221 147.477 91.0207 148.28 91.6181 148.84C92.2527 149.4 93.2607 149.68 94.6421 149.68ZM127.506 116.696H134.394L146.49 138.088L158.978 116.696H165.698V155H157.69V132.936L149.738 146.264H143.018L134.842 132.712V155H127.506V116.696ZM185.751 155.784C181.121 155.784 177.631 154.515 175.279 151.976C172.964 149.4 171.807 145.835 171.807 141.28C171.807 136.725 172.964 133.179 175.279 130.64C177.631 128.064 181.121 126.776 185.751 126.776C190.38 126.776 193.852 128.064 196.167 130.64C198.519 133.179 199.695 136.725 199.695 141.28C199.695 145.835 198.519 149.4 196.167 151.976C193.852 154.515 190.38 155.784 185.751 155.784ZM185.751 149.68C187.729 149.68 189.148 149.008 190.007 147.664C190.903 146.283 191.351 144.155 191.351 141.28C191.351 138.405 190.903 136.296 190.007 134.952C189.148 133.571 187.729 132.88 185.751 132.88C183.772 132.88 182.335 133.571 181.439 134.952C180.58 136.296 180.151 138.405 180.151 141.28C180.151 144.155 180.58 146.283 181.439 147.664C182.335 149.008 183.772 149.68 185.751 149.68ZM202.235 127.56H210.859L216.963 146.6L222.787 127.56H230.795L221.331 155H212.035L202.235 127.56ZM238.706 122.968C237.287 122.968 236.223 122.669 235.514 122.072C234.842 121.475 234.506 120.504 234.506 119.16V118.432C234.506 117.088 234.842 116.117 235.514 115.52C236.223 114.885 237.287 114.568 238.706 114.568H239.098C240.517 114.568 241.562 114.885 242.234 115.52C242.943 116.117 243.298 117.088 243.298 118.432V119.16C243.298 120.504 242.943 121.475 242.234 122.072C241.562 122.669 240.517 122.968 239.098 122.968H238.706ZM234.898 127.56H242.906V155H234.898V127.56ZM258.673 155.784C257.105 155.784 255.388 155.635 253.521 155.336C251.654 155.037 250.161 154.683 249.041 154.272L249.657 148.336C250.74 148.672 252.121 148.971 253.801 149.232C255.518 149.493 257.086 149.624 258.505 149.624C260.11 149.624 261.324 149.437 262.145 149.064C263.004 148.691 263.433 148.037 263.433 147.104C263.433 146.245 263.022 145.648 262.201 145.312C261.38 144.939 260.073 144.584 258.281 144.248C256.265 143.875 254.604 143.464 253.297 143.016C251.99 142.568 250.852 141.765 249.881 140.608C248.948 139.413 248.481 137.752 248.481 135.624C248.481 132.936 249.47 130.789 251.449 129.184C253.465 127.579 256.452 126.776 260.409 126.776C261.828 126.776 263.34 126.907 264.945 127.168C266.55 127.429 268.081 127.803 269.537 128.288L268.921 134.168C267.54 133.795 266.065 133.496 264.497 133.272C262.966 133.048 261.622 132.936 260.465 132.936C257.516 132.936 256.041 133.683 256.041 135.176C256.041 135.96 256.433 136.539 257.217 136.912C258.038 137.248 259.345 137.603 261.137 137.976C263.116 138.349 264.777 138.779 266.121 139.264C267.465 139.749 268.622 140.589 269.593 141.784C270.564 142.979 271.049 144.64 271.049 146.768C271.049 149.643 270.004 151.864 267.913 153.432C265.822 155 262.742 155.784 258.673 155.784ZM287.099 155.784C283.777 155.784 281.443 155.056 280.099 153.6C278.755 152.144 278.083 149.848 278.083 146.712V132.768H273.435V128.4L278.083 127.56V121.456C280.659 120.672 283.329 120.28 286.091 120.28V127.56H293.203V132.768H286.091V145.592C286.091 147.197 286.334 148.299 286.819 148.896C287.342 149.493 288.387 149.792 289.955 149.792C290.627 149.792 291.915 149.68 293.819 149.456L294.099 155.112C292.046 155.56 289.713 155.784 287.099 155.784ZM306.776 155.784C303.714 155.784 301.344 154.963 299.664 153.32C297.984 151.677 297.144 149.493 297.144 146.768C297.144 145.536 297.349 144.379 297.76 143.296C298.17 142.213 298.768 141.299 299.552 140.552C300.522 139.656 301.792 139.021 303.36 138.648C304.965 138.237 307.056 138.032 309.632 138.032H314V137.136C314 135.68 313.664 134.653 312.992 134.056C312.133 133.309 310.584 132.936 308.344 132.936C307.112 132.936 305.768 133.011 304.312 133.16C302.856 133.309 301.642 133.477 300.672 133.664L300.28 127.784C303.64 127.112 306.888 126.776 310.024 126.776C312.226 126.776 314.186 127.037 315.904 127.56C317.658 128.045 318.984 128.829 319.88 129.912C321.298 131.555 322.008 133.981 322.008 137.192V155H315.68L315.008 153.32C313.813 154.104 312.488 154.701 311.032 155.112C309.613 155.56 308.194 155.784 306.776 155.784ZM309.072 149.68C309.781 149.68 310.602 149.605 311.536 149.456C312.469 149.269 313.29 149.064 314 148.84V143.184H309.744C308.736 143.184 307.933 143.259 307.336 143.408C306.738 143.557 306.272 143.8 305.936 144.136C305.413 144.659 305.152 145.424 305.152 146.432C305.152 147.477 305.45 148.28 306.048 148.84C306.682 149.4 307.69 149.68 309.072 149.68ZM328.574 127.56H335.518L335.798 129.8C336.806 128.867 338.094 128.139 339.662 127.616C341.267 127.093 342.779 126.832 344.198 126.832C344.683 126.832 345.15 126.869 345.598 126.944V133.944C344.403 133.795 343.227 133.72 342.07 133.72C340.39 133.72 338.56 133.944 336.582 134.392V155H328.574V127.56ZM350.295 116.696H358.695L357.463 143.016H351.527L350.295 116.696ZM354.439 155.784C353.058 155.784 352.031 155.485 351.359 154.888C350.687 154.291 350.351 153.301 350.351 151.92V151.248C350.351 149.867 350.687 148.877 351.359 148.28C352.031 147.683 353.058 147.384 354.439 147.384H354.831C356.213 147.384 357.239 147.683 357.911 148.28C358.583 148.877 358.919 149.867 358.919 151.248V151.92C358.919 153.301 358.583 154.291 357.911 154.888C357.239 155.485 356.213 155.784 354.831 155.784H354.439Z" fill="white"/>
</svg>
