<svg width="234" height="50" viewBox="0 0 234 50" fill="none" xmlns="http://www.w3.org/2000/svg">
<path d="M2.37197 5.4C3.20531 5.4 3.62197 5.80833 3.62197 6.625V6.825C3.62197 7.64167 3.20531 8.05 2.37197 8.05H2.24697C1.41364 8.05 0.996973 7.64167 0.996973 6.825V6.625C0.996973 5.80833 1.41364 5.4 2.24697 5.4H2.37197ZM3.44697 22.85H1.22197L1.57197 10.325H3.09697L3.44697 22.85ZM11.6079 0.9H14.1579L20.0579 18H17.7329L16.2329 13.45H9.75791L8.35791 18H6.18291L11.6079 0.9ZM15.6579 11.7L12.9079 3.25H12.8829L10.3079 11.7H15.6579ZM22.2534 5.75H23.9784L24.0784 6.65C24.6951 6.23333 25.3368 5.925 26.0034 5.725C26.6868 5.50833 27.3201 5.4 27.9034 5.4C29.4534 5.4 30.6201 5.975 31.4034 7.125C32.2034 8.25833 32.6034 9.825 32.6034 11.825C32.6034 14.0583 32.1868 15.7083 31.3534 16.775C30.5201 17.825 29.3451 18.35 27.8284 18.35C27.1951 18.35 26.5618 18.2667 25.9284 18.1C25.3118 17.9333 24.7784 17.7083 24.3284 17.425V23.625H22.2534V5.75ZM27.3034 16.625C28.4201 16.625 29.2201 16.2583 29.7034 15.525C30.1868 14.775 30.4284 13.5333 30.4284 11.8C30.4284 10.2333 30.1868 9.075 29.7034 8.325C29.2201 7.55833 28.4701 7.175 27.4534 7.175C26.9868 7.175 26.4701 7.25 25.9034 7.4C25.3368 7.55 24.8118 7.75 24.3284 8V15.875C24.6951 16.0917 25.1534 16.275 25.7034 16.425C26.2534 16.5583 26.7868 16.625 27.3034 16.625ZM35.4614 5.75H37.1864L37.3114 6.8C38.4281 5.86667 39.5864 5.4 40.7864 5.4C41.0364 5.4 41.3031 5.425 41.5864 5.475V7.325C41.2198 7.29167 40.8614 7.275 40.5114 7.275C39.4114 7.275 38.4198 7.55 37.5364 8.1V18H35.4614V5.75ZM48.1989 18.35C46.3323 18.35 44.9323 17.7917 43.9989 16.675C43.0823 15.5583 42.6239 13.9583 42.6239 11.875C42.6239 9.79167 43.0823 8.19167 43.9989 7.075C44.9323 5.95833 46.3323 5.4 48.1989 5.4C50.0656 5.4 51.4573 5.95833 52.3739 7.075C53.3073 8.19167 53.7739 9.79167 53.7739 11.875C53.7739 13.9583 53.3073 15.5583 52.3739 16.675C51.4573 17.7917 50.0656 18.35 48.1989 18.35ZM48.1989 16.65C49.4156 16.65 50.2823 16.2583 50.7989 15.475C51.3323 14.6917 51.5989 13.4917 51.5989 11.875C51.5989 10.2583 51.3323 9.05833 50.7989 8.275C50.2823 7.49167 49.4156 7.1 48.1989 7.1C46.9823 7.1 46.1073 7.49167 45.5739 8.275C45.0573 9.05833 44.7989 10.2583 44.7989 11.875C44.7989 13.4917 45.0573 14.6917 45.5739 15.475C46.1073 16.2583 46.9823 16.65 48.1989 16.65ZM55.1319 5.75H57.3069L60.7069 15.875L63.9819 5.75H66.0819L61.7819 18H59.5069L55.1319 5.75ZM73.4036 18.35C71.4703 18.35 70.0119 17.8583 69.0286 16.875C67.9619 15.8083 67.4286 14.15 67.4286 11.9C67.4286 9.78333 67.9036 8.175 68.8536 7.075C69.8203 5.95833 71.1119 5.4 72.7286 5.4C74.4119 5.4 75.6786 5.96667 76.5286 7.1C77.3786 8.21667 77.8036 9.8 77.8036 11.85V12.325C77.8036 12.5083 77.7036 12.6 77.5036 12.6H69.6036C69.6036 14.0167 69.9619 15.0583 70.6786 15.725C71.0119 16.0417 71.4286 16.275 71.9286 16.425C72.4286 16.575 73.0536 16.65 73.8036 16.65C74.7869 16.65 75.7953 16.5417 76.8286 16.325L77.0286 17.875C76.5119 18.025 75.9203 18.1417 75.2536 18.225C74.6036 18.3083 73.9869 18.35 73.4036 18.35ZM75.7536 11.075C75.7203 9.84167 75.4536 8.86667 74.9536 8.15C74.4536 7.43333 73.7119 7.075 72.7286 7.075C71.7119 7.075 70.9369 7.425 70.4036 8.125C69.8869 8.825 69.6203 9.80833 69.6036 11.075H75.7536ZM86.1501 18.35C84.1834 18.35 82.7001 17.8417 81.7001 16.825C80.6168 15.7083 80.0751 14.1083 80.0751 12.025C80.0751 9.875 80.6084 8.225 81.6751 7.075C82.7251 5.95833 84.2251 5.4 86.1751 5.4C87.1751 5.4 88.1501 5.525 89.1001 5.775L88.9751 7.375C87.9418 7.175 87.0918 7.075 86.4251 7.075C85.0084 7.075 83.9584 7.48333 83.2751 8.3C82.5918 9.11667 82.2501 10.35 82.2501 12C82.2501 13.55 82.5918 14.7167 83.2751 15.5C83.9418 16.2667 85.0251 16.65 86.5251 16.65C86.9251 16.65 87.3668 16.625 87.8501 16.575C88.3334 16.525 88.7418 16.4667 89.0751 16.4L89.2251 17.95C88.8251 18.0667 88.3251 18.1583 87.7251 18.225C87.1251 18.3083 86.6001 18.35 86.1501 18.35ZM91.98 0.124999H94.055V6.525C95.4216 5.775 96.7466 5.4 98.03 5.4C99.38 5.4 100.405 5.75833 101.105 6.475C101.788 7.15833 102.13 8.225 102.13 9.675V18H100.055V9.925C100.055 9.40833 100.005 8.99167 99.905 8.675C99.8216 8.34167 99.6716 8.06667 99.455 7.85C99.0383 7.43333 98.38 7.225 97.48 7.225C96.93 7.225 96.3466 7.3 95.73 7.45C95.1133 7.6 94.555 7.79167 94.055 8.025V18H91.98V0.124999ZM109.104 18.35C107.72 18.35 106.654 17.9583 105.904 17.175C105.254 16.4917 104.929 15.6083 104.929 14.525C104.929 13.4083 105.279 12.525 105.979 11.875C106.829 11.0917 108.212 10.7 110.129 10.7H112.679V9.925C112.679 9.425 112.629 9.00833 112.529 8.675C112.429 8.34167 112.27 8.06667 112.054 7.85C111.554 7.36667 110.704 7.125 109.504 7.125C108.504 7.125 107.404 7.225 106.204 7.425L106.129 5.825C107.312 5.54167 108.554 5.4 109.854 5.4C111.604 5.4 112.879 5.775 113.679 6.525C114.062 6.89167 114.337 7.34167 114.504 7.875C114.67 8.39167 114.754 9.05 114.754 9.85V18H113.079L112.954 17.175C111.754 17.9583 110.47 18.35 109.104 18.35ZM109.554 16.675C110.037 16.675 110.562 16.6 111.129 16.45C111.695 16.3 112.212 16.1083 112.679 15.875V12.225H110.429C109.145 12.225 108.237 12.4333 107.704 12.85C107.254 13.2167 107.029 13.7583 107.029 14.475C107.029 15.2083 107.245 15.7583 107.679 16.125C108.112 16.4917 108.737 16.675 109.554 16.675ZM128.628 18.35C126.695 18.35 125.237 17.8583 124.253 16.875C123.187 15.8083 122.653 14.15 122.653 11.9C122.653 9.78333 123.128 8.175 124.078 7.075C125.045 5.95833 126.337 5.4 127.953 5.4C129.637 5.4 130.903 5.96667 131.753 7.1C132.603 8.21667 133.028 9.8 133.028 11.85V12.325C133.028 12.5083 132.928 12.6 132.728 12.6H124.828C124.828 14.0167 125.187 15.0583 125.903 15.725C126.237 16.0417 126.653 16.275 127.153 16.425C127.653 16.575 128.278 16.65 129.028 16.65C130.012 16.65 131.02 16.5417 132.053 16.325L132.253 17.875C131.737 18.025 131.145 18.1417 130.478 18.225C129.828 18.3083 129.212 18.35 128.628 18.35ZM130.978 11.075C130.945 9.84167 130.678 8.86667 130.178 8.15C129.678 7.43333 128.937 7.075 127.953 7.075C126.937 7.075 126.162 7.425 125.628 8.125C125.112 8.825 124.845 9.80833 124.828 11.075H130.978ZM135.975 0.124999H138.05V18H135.975V0.124999ZM145.317 5.75H147.492L150.892 15.875L154.167 5.75H156.267L151.967 18H149.692L145.317 5.75ZM163.589 18.35C161.656 18.35 160.197 17.8583 159.214 16.875C158.147 15.8083 157.614 14.15 157.614 11.9C157.614 9.78333 158.089 8.175 159.039 7.075C160.006 5.95833 161.297 5.4 162.914 5.4C164.597 5.4 165.864 5.96667 166.714 7.1C167.564 8.21667 167.989 9.8 167.989 11.85V12.325C167.989 12.5083 167.889 12.6 167.689 12.6H159.789C159.789 14.0167 160.147 15.0583 160.864 15.725C161.197 16.0417 161.614 16.275 162.114 16.425C162.614 16.575 163.239 16.65 163.989 16.65C164.972 16.65 165.981 16.5417 167.014 16.325L167.214 17.875C166.697 18.025 166.106 18.1417 165.439 18.225C164.789 18.3083 164.172 18.35 163.589 18.35ZM165.939 11.075C165.906 9.84167 165.639 8.86667 165.139 8.15C164.639 7.43333 163.897 7.075 162.914 7.075C161.897 7.075 161.122 7.425 160.589 8.125C160.072 8.825 159.806 9.80833 159.789 11.075H165.939ZM170.911 5.75H172.636L172.761 6.8C173.877 5.86667 175.036 5.4 176.236 5.4C176.486 5.4 176.752 5.425 177.036 5.475V7.325C176.669 7.29167 176.311 7.275 175.961 7.275C174.861 7.275 173.869 7.55 172.986 8.1V18H170.911V5.75ZM182.15 18.35C180.767 18.35 179.7 17.9583 178.95 17.175C178.3 16.4917 177.975 15.6083 177.975 14.525C177.975 13.4083 178.325 12.525 179.025 11.875C179.875 11.0917 181.259 10.7 183.175 10.7H185.725V9.925C185.725 9.425 185.675 9.00833 185.575 8.675C185.475 8.34167 185.317 8.06667 185.1 7.85C184.6 7.36667 183.75 7.125 182.55 7.125C181.55 7.125 180.45 7.225 179.25 7.425L179.175 5.825C180.359 5.54167 181.6 5.4 182.9 5.4C184.65 5.4 185.925 5.775 186.725 6.525C187.109 6.89167 187.384 7.34167 187.55 7.875C187.717 8.39167 187.8 9.05 187.8 9.85V18H186.125L186 17.175C184.8 17.9583 183.517 18.35 182.15 18.35ZM182.6 16.675C183.084 16.675 183.609 16.6 184.175 16.45C184.742 16.3 185.259 16.1083 185.725 15.875V12.225H183.475C182.192 12.225 181.284 12.4333 180.75 12.85C180.3 13.2167 180.075 13.7583 180.075 14.475C180.075 15.2083 180.292 15.7583 180.725 16.125C181.159 16.4917 181.784 16.675 182.6 16.675ZM191.248 5.75H192.973L193.073 6.65C193.723 6.25 194.414 5.94167 195.148 5.725C195.881 5.50833 196.598 5.4 197.298 5.4C198.648 5.4 199.673 5.75833 200.373 6.475C201.056 7.15833 201.398 8.225 201.398 9.675V18H199.323V9.925C199.323 9.40833 199.273 8.99167 199.173 8.675C199.089 8.34167 198.939 8.06667 198.723 7.85C198.306 7.43333 197.648 7.225 196.748 7.225C196.198 7.225 195.614 7.3 194.998 7.45C194.381 7.6 193.823 7.79167 193.323 8.025V18H191.248V5.75ZM209.771 18.35C207.905 18.35 206.505 17.7917 205.571 16.675C204.655 15.5583 204.196 13.9583 204.196 11.875C204.196 9.79167 204.655 8.19167 205.571 7.075C206.505 5.95833 207.905 5.4 209.771 5.4C211.638 5.4 213.03 5.95833 213.946 7.075C214.88 8.19167 215.346 9.79167 215.346 11.875C215.346 13.9583 214.88 15.5583 213.946 16.675C213.03 17.7917 211.638 18.35 209.771 18.35ZM209.771 16.65C210.988 16.65 211.855 16.2583 212.371 15.475C212.905 14.6917 213.171 13.4917 213.171 11.875C213.171 10.2583 212.905 9.05833 212.371 8.275C211.855 7.49167 210.988 7.1 209.771 7.1C208.555 7.1 207.68 7.49167 207.146 8.275C206.63 9.05833 206.371 10.2583 206.371 11.875C206.371 13.4917 206.63 14.6917 207.146 15.475C207.68 16.2583 208.555 16.65 209.771 16.65ZM228.253 23.975C227.853 23.975 227.412 23.95 226.928 23.9C226.445 23.85 226.062 23.7917 225.778 23.725L225.603 22.1C226.403 22.2 227.187 22.25 227.953 22.25C229.153 22.25 230.003 22.025 230.503 21.575C230.77 21.325 230.962 20.9917 231.078 20.575C231.212 20.1583 231.278 19.6083 231.278 18.925V17.25C229.995 17.9833 228.687 18.35 227.353 18.35C226.003 18.35 224.978 17.9917 224.278 17.275C223.595 16.5917 223.253 15.525 223.253 14.075V5.75H225.328V13.825C225.328 14.3417 225.37 14.7667 225.453 15.1C225.553 15.4167 225.712 15.6833 225.928 15.9C226.345 16.3167 227.003 16.525 227.903 16.525C228.437 16.525 229.003 16.4583 229.603 16.325C230.203 16.175 230.762 15.975 231.278 15.725V5.75H233.353V18.95C233.353 20.6 232.978 21.825 232.228 22.625C231.395 23.525 230.07 23.975 228.253 23.975ZM7.0457 49.35C4.2957 49.35 2.3957 48.5333 1.3457 46.9C1.01237 46.4 0.76237 45.825 0.595703 45.175C0.429036 44.525 0.345703 43.85 0.345703 43.15C0.345703 41.0167 0.870703 39.375 1.9207 38.225C2.4707 37.6417 3.1707 37.1917 4.0207 36.875C4.8707 36.5583 5.80404 36.4 6.8207 36.4C8.13737 36.4 9.33737 36.55 10.4207 36.85L10.1957 39.5C9.31237 39.2667 8.3707 39.15 7.3707 39.15C6.2707 39.15 5.4457 39.4417 4.8957 40.025C4.3457 40.625 4.0707 41.575 4.0707 42.875C4.0707 44.1583 4.35404 45.1083 4.9207 45.725C5.48737 46.325 6.40404 46.625 7.6707 46.625C8.50404 46.625 9.35404 46.5417 10.2207 46.375L10.4957 48.95C9.86237 49.1 9.28737 49.2 8.7707 49.25C8.2707 49.3167 7.6957 49.35 7.0457 49.35ZM16.093 49.35C14.7263 49.35 13.668 48.9833 12.918 48.25C12.168 47.5167 11.793 46.5417 11.793 45.325C11.793 44.775 11.8846 44.2583 12.068 43.775C12.2513 43.2917 12.518 42.8833 12.868 42.55C13.3013 42.15 13.868 41.8667 14.568 41.7C15.2846 41.5167 16.218 41.425 17.368 41.425H19.318V41.025C19.318 40.375 19.168 39.9167 18.868 39.65C18.4846 39.3167 17.793 39.15 16.793 39.15C16.243 39.15 15.643 39.1833 14.993 39.25C14.343 39.3167 13.8013 39.3917 13.368 39.475L13.193 36.85C14.693 36.55 16.143 36.4 17.543 36.4C18.5263 36.4 19.4013 36.5167 20.168 36.75C20.9513 36.9667 21.543 37.3167 21.943 37.8C22.5763 38.5333 22.893 39.6167 22.893 41.05V49H20.068L19.768 48.25C19.2346 48.6 18.643 48.8667 17.993 49.05C17.3596 49.25 16.7263 49.35 16.093 49.35ZM17.118 46.625C17.4346 46.625 17.8013 46.5917 18.218 46.525C18.6346 46.4417 19.0013 46.35 19.318 46.25V43.725H17.418C16.968 43.725 16.6096 43.7583 16.343 43.825C16.0763 43.8917 15.868 44 15.718 44.15C15.4846 44.3833 15.368 44.725 15.368 45.175C15.368 45.6417 15.5013 46 15.768 46.25C16.0513 46.5 16.5013 46.625 17.118 46.625ZM14.718 33.475L19.293 29.225L21.043 31.6L15.968 35.025L14.718 33.475ZM25.8242 36.75H28.9242L28.9992 37.625C30.2326 36.8083 31.5576 36.4 32.9742 36.4C34.5242 36.4 35.6076 36.8333 36.2242 37.7C36.8742 37.2667 37.5742 36.9417 38.3242 36.725C39.0742 36.5083 39.7992 36.4 40.4992 36.4C41.0826 36.4 41.6409 36.4833 42.1742 36.65C42.7076 36.8 43.1326 37.0333 43.4492 37.35C44.1492 38.0333 44.4992 39.1083 44.4992 40.575V49H40.9242V41C40.9242 40.4333 40.7992 40.025 40.5492 39.775C40.2659 39.5083 39.7492 39.375 38.9992 39.375C38.7159 39.375 38.3742 39.4083 37.9742 39.475C37.5909 39.5417 37.2409 39.6167 36.9242 39.7C36.9576 40.0667 36.9742 40.3583 36.9742 40.575V49H33.3992V41C33.3992 40.4333 33.2742 40.025 33.0242 39.775C32.7409 39.5083 32.2409 39.375 31.5242 39.375C31.2076 39.375 30.8492 39.4167 30.4492 39.5C30.0492 39.5667 29.6992 39.6583 29.3992 39.775V49H25.8242V36.75ZM54.2057 49.35C53.589 49.35 52.9557 49.25 52.3057 49.05C51.6557 48.85 51.0723 48.575 50.5557 48.225L50.3807 49H47.4307V31.125H51.0057V37.225C51.4223 36.975 51.939 36.775 52.5557 36.625C53.189 36.475 53.7973 36.4 54.3807 36.4C57.4973 36.4 59.0557 38.5417 59.0557 42.825C59.0557 43.9417 58.939 44.95 58.7057 45.85C58.4723 46.7333 58.1307 47.425 57.6807 47.925C57.264 48.4083 56.7723 48.7667 56.2057 49C55.639 49.2333 54.9723 49.35 54.2057 49.35ZM53.1307 46.55C53.9473 46.55 54.514 46.2833 54.8307 45.75C55.1473 45.2 55.3057 44.2417 55.3057 42.875C55.3057 41.9083 55.2307 41.1667 55.0807 40.65C54.9307 40.1333 54.6973 39.775 54.3807 39.575C54.0807 39.375 53.664 39.275 53.1307 39.275C52.264 39.275 51.5557 39.3833 51.0057 39.6V45.95C51.3057 46.1167 51.6473 46.2583 52.0307 46.375C52.4307 46.4917 52.7973 46.55 53.1307 46.55ZM63.1949 34.7C62.5616 34.7 62.0866 34.5667 61.7699 34.3C61.4699 34.0333 61.3199 33.6 61.3199 33V32.675C61.3199 32.075 61.4699 31.6417 61.7699 31.375C62.0866 31.0917 62.5616 30.95 63.1949 30.95H63.3699C64.0033 30.95 64.4699 31.0917 64.7699 31.375C65.0866 31.6417 65.2449 32.075 65.2449 32.675V33C65.2449 33.6 65.0866 34.0333 64.7699 34.3C64.4699 34.5667 64.0033 34.7 63.3699 34.7H63.1949ZM61.4949 36.75H65.0699V49H61.4949V36.75ZM71.6838 49.35C70.3171 49.35 69.2588 48.9833 68.5088 48.25C67.7588 47.5167 67.3838 46.5417 67.3838 45.325C67.3838 44.775 67.4755 44.2583 67.6588 43.775C67.8421 43.2917 68.1088 42.8833 68.4588 42.55C68.8921 42.15 69.4588 41.8667 70.1588 41.7C70.8755 41.5167 71.8088 41.425 72.9588 41.425H74.9088V41.025C74.9088 40.375 74.7588 39.9167 74.4588 39.65C74.0755 39.3167 73.3838 39.15 72.3838 39.15C71.8338 39.15 71.2338 39.1833 70.5838 39.25C69.9338 39.3167 69.3921 39.3917 68.9588 39.475L68.7838 36.85C70.2838 36.55 71.7338 36.4 73.1338 36.4C74.1171 36.4 74.9921 36.5167 75.7588 36.75C76.5421 36.9667 77.1338 37.3167 77.5338 37.8C78.1671 38.5333 78.4838 39.6167 78.4838 41.05V49H75.6588L75.3588 48.25C74.8255 48.6 74.2338 48.8667 73.5838 49.05C72.9505 49.25 72.3171 49.35 71.6838 49.35ZM72.7088 46.625C73.0255 46.625 73.3921 46.5917 73.8088 46.525C74.2255 46.4417 74.5921 46.35 74.9088 46.25V43.725H73.0088C72.5588 43.725 72.2005 43.7583 71.9338 43.825C71.6671 43.8917 71.4588 44 71.3088 44.15C71.0755 44.3833 70.9588 44.725 70.9588 45.175C70.9588 45.6417 71.0921 46 71.3588 46.25C71.6421 46.5 72.0921 46.625 72.7088 46.625ZM86.215 49.35C84.7317 49.35 83.69 49.025 83.09 48.375C82.49 47.725 82.19 46.7 82.19 45.3V39.075H80.115V37.125L82.19 36.75V34.025C83.34 33.675 84.5317 33.5 85.765 33.5V36.75H88.94V39.075H85.765V44.8C85.765 45.5167 85.8734 46.0083 86.09 46.275C86.3234 46.5417 86.79 46.675 87.49 46.675C87.79 46.675 88.365 46.625 89.215 46.525L89.34 49.05C88.4234 49.25 87.3817 49.35 86.215 49.35ZM97.5492 49.35C96.4159 49.35 95.4159 49.2167 94.5492 48.95C93.6992 48.6667 93.0076 48.275 92.4742 47.775C91.3742 46.725 90.8242 45.1 90.8242 42.9C90.8242 40.7667 91.3409 39.15 92.3742 38.05C93.4076 36.95 94.8742 36.4 96.7742 36.4C98.6409 36.4 100.041 36.9083 100.974 37.925C101.924 38.925 102.399 40.475 102.399 42.575V43.7C102.399 43.8833 102.299 43.975 102.099 43.975H94.5742C94.6242 44.975 94.9492 45.6667 95.5492 46.05C96.1492 46.4333 97.0826 46.625 98.3492 46.625C99.3326 46.625 100.349 46.525 101.399 46.325L101.674 48.925C100.191 49.2083 98.8159 49.35 97.5492 49.35ZM98.8992 41.65C98.8992 40.85 98.7159 40.225 98.3492 39.775C97.9826 39.325 97.4492 39.1 96.7492 39.1C95.3826 39.1 94.6576 39.95 94.5742 41.65H98.8992ZM113.822 49.35C112.456 49.35 111.397 48.9833 110.647 48.25C109.897 47.5167 109.522 46.5417 109.522 45.325C109.522 44.775 109.614 44.2583 109.797 43.775C109.981 43.2917 110.247 42.8833 110.597 42.55C111.031 42.15 111.597 41.8667 112.297 41.7C113.014 41.5167 113.947 41.425 115.097 41.425H117.047V41.025C117.047 40.375 116.897 39.9167 116.597 39.65C116.214 39.3167 115.522 39.15 114.522 39.15C113.972 39.15 113.372 39.1833 112.722 39.25C112.072 39.3167 111.531 39.3917 111.097 39.475L110.922 36.85C112.422 36.55 113.872 36.4 115.272 36.4C116.256 36.4 117.131 36.5167 117.897 36.75C118.681 36.9667 119.272 37.3167 119.672 37.8C120.306 38.5333 120.622 39.6167 120.622 41.05V49H117.797L117.497 48.25C116.964 48.6 116.372 48.8667 115.722 49.05C115.089 49.25 114.456 49.35 113.822 49.35ZM114.847 46.625C115.164 46.625 115.531 46.5917 115.947 46.525C116.364 46.4417 116.731 46.35 117.047 46.25V43.725H115.147C114.697 43.725 114.339 43.7583 114.072 43.825C113.806 43.8917 113.597 44 113.447 44.15C113.214 44.3833 113.097 44.725 113.097 45.175C113.097 45.6417 113.231 46 113.497 46.25C113.781 46.5 114.231 46.625 114.847 46.625ZM129.519 31.9H132.594L137.994 41.45L143.569 31.9H146.569V49H142.994V39.15L139.444 45.1H136.444L132.794 39.05V49H129.519V31.9ZM155.521 49.35C153.454 49.35 151.896 48.7833 150.846 47.65C149.813 46.5 149.296 44.9083 149.296 42.875C149.296 40.8417 149.813 39.2583 150.846 38.125C151.896 36.975 153.454 36.4 155.521 36.4C157.588 36.4 159.138 36.975 160.171 38.125C161.221 39.2583 161.746 40.8417 161.746 42.875C161.746 44.9083 161.221 46.5 160.171 47.65C159.138 48.7833 157.588 49.35 155.521 49.35ZM155.521 46.625C156.404 46.625 157.038 46.325 157.421 45.725C157.821 45.1083 158.021 44.1583 158.021 42.875C158.021 41.5917 157.821 40.65 157.421 40.05C157.038 39.4333 156.404 39.125 155.521 39.125C154.638 39.125 153.996 39.4333 153.596 40.05C153.213 40.65 153.021 41.5917 153.021 42.875C153.021 44.1583 153.213 45.1083 153.596 45.725C153.996 46.325 154.638 46.625 155.521 46.625ZM162.88 36.75H166.73L169.455 45.25L172.055 36.75H175.63L171.405 49H167.255L162.88 36.75ZM179.162 34.7C178.528 34.7 178.053 34.5667 177.737 34.3C177.437 34.0333 177.287 33.6 177.287 33V32.675C177.287 32.075 177.437 31.6417 177.737 31.375C178.053 31.0917 178.528 30.95 179.162 30.95H179.337C179.97 30.95 180.437 31.0917 180.737 31.375C181.053 31.6417 181.212 32.075 181.212 32.675V33C181.212 33.6 181.053 34.0333 180.737 34.3C180.437 34.5667 179.97 34.7 179.337 34.7H179.162ZM177.462 36.75H181.037V49H177.462V36.75ZM188.076 49.35C187.376 49.35 186.609 49.2833 185.776 49.15C184.942 49.0167 184.276 48.8583 183.776 48.675L184.051 46.025C184.534 46.175 185.151 46.3083 185.901 46.425C186.667 46.5417 187.367 46.6 188.001 46.6C188.717 46.6 189.259 46.5167 189.626 46.35C190.009 46.1833 190.201 45.8917 190.201 45.475C190.201 45.0917 190.017 44.825 189.651 44.675C189.284 44.5083 188.701 44.35 187.901 44.2C187.001 44.0333 186.259 43.85 185.676 43.65C185.092 43.45 184.584 43.0917 184.151 42.575C183.734 42.0417 183.526 41.3 183.526 40.35C183.526 39.15 183.967 38.1917 184.851 37.475C185.751 36.7583 187.084 36.4 188.851 36.4C189.484 36.4 190.159 36.4583 190.876 36.575C191.592 36.6917 192.276 36.8583 192.926 37.075L192.651 39.7C192.034 39.5333 191.376 39.4 190.676 39.3C189.992 39.2 189.392 39.15 188.876 39.15C187.559 39.15 186.901 39.4833 186.901 40.15C186.901 40.5 187.076 40.7583 187.426 40.925C187.792 41.075 188.376 41.2333 189.176 41.4C190.059 41.5667 190.801 41.7583 191.401 41.975C192.001 42.1917 192.517 42.5667 192.951 43.1C193.384 43.6333 193.601 44.375 193.601 45.325C193.601 46.6083 193.134 47.6 192.201 48.3C191.267 49 189.892 49.35 188.076 49.35ZM200.766 49.35C199.282 49.35 198.241 49.025 197.641 48.375C197.041 47.725 196.741 46.7 196.741 45.3V39.075H194.666V37.125L196.741 36.75V34.025C197.891 33.675 199.082 33.5 200.316 33.5V36.75H203.491V39.075H200.316V44.8C200.316 45.5167 200.424 46.0083 200.641 46.275C200.874 46.5417 201.341 46.675 202.041 46.675C202.341 46.675 202.916 46.625 203.766 46.525L203.891 49.05C202.974 49.25 201.932 49.35 200.766 49.35ZM209.55 49.35C208.183 49.35 207.125 48.9833 206.375 48.25C205.625 47.5167 205.25 46.5417 205.25 45.325C205.25 44.775 205.342 44.2583 205.525 43.775C205.708 43.2917 205.975 42.8833 206.325 42.55C206.758 42.15 207.325 41.8667 208.025 41.7C208.742 41.5167 209.675 41.425 210.825 41.425H212.775V41.025C212.775 40.375 212.625 39.9167 212.325 39.65C211.942 39.3167 211.25 39.15 210.25 39.15C209.7 39.15 209.1 39.1833 208.45 39.25C207.8 39.3167 207.258 39.3917 206.825 39.475L206.65 36.85C208.15 36.55 209.6 36.4 211 36.4C211.983 36.4 212.858 36.5167 213.625 36.75C214.408 36.9667 215 37.3167 215.4 37.8C216.033 38.5333 216.35 39.6167 216.35 41.05V49H213.525L213.225 48.25C212.692 48.6 212.1 48.8667 211.45 49.05C210.817 49.25 210.183 49.35 209.55 49.35ZM210.575 46.625C210.892 46.625 211.258 46.5917 211.675 46.525C212.092 46.4417 212.458 46.35 212.775 46.25V43.725H210.875C210.425 43.725 210.067 43.7583 209.8 43.825C209.533 43.8917 209.325 44 209.175 44.15C208.942 44.3833 208.825 44.725 208.825 45.175C208.825 45.6417 208.958 46 209.225 46.25C209.508 46.5 209.958 46.625 210.575 46.625ZM219.281 36.75H222.381L222.506 37.75C222.956 37.3333 223.531 37.0083 224.231 36.775C224.948 36.5417 225.623 36.425 226.256 36.425C226.473 36.425 226.681 36.4417 226.881 36.475V39.6C226.348 39.5333 225.823 39.5 225.306 39.5C224.556 39.5 223.74 39.6 222.856 39.8V49H219.281V36.75ZM228.978 31.9H232.728L232.178 43.65H229.528L228.978 31.9ZM230.828 49.35C230.212 49.35 229.753 49.2167 229.453 48.95C229.153 48.6833 229.003 48.2417 229.003 47.625V47.325C229.003 46.7083 229.153 46.2667 229.453 46C229.753 45.7333 230.212 45.6 230.828 45.6H231.003C231.62 45.6 232.078 45.7333 232.378 46C232.678 46.2667 232.828 46.7083 232.828 47.325V47.625C232.828 48.2417 232.678 48.6833 232.378 48.95C232.078 49.2167 231.62 49.35 231.003 49.35H230.828Z" fill="white"/>
</svg>
