<svg width="145" height="73" viewBox="0 0 145 73" fill="none" xmlns="http://www.w3.org/2000/svg">
<g filter="url(#filter0_d_103_3)">
<path d="M24.4165 59.5845C28.3181 59.6027 30.9096 58.8185 32.8289 57.0358C34.2685 55.6889 35.1136 53.742 35.1249 51.3134C35.1745 40.6836 21.2629 44.2815 21.2878 38.9467C21.2958 37.2348 22.3763 36.0454 25.7205 36.061C27.6315 36.0699 30.0186 36.4393 32.2453 37.0469L33.2223 32.4332C31.1156 31.7067 28.2509 31.2952 25.6233 31.283C19.8107 31.2559 15.4599 33.6642 15.4341 39.1981C15.3842 49.9076 29.2959 46.2698 29.2722 51.3658C29.2605 53.874 27.5441 54.8215 23.8814 54.8044C21.8907 54.7951 18.748 54.2629 16.3632 53.4157L15.3856 58.1489C18.1282 59.1172 20.9528 59.5683 24.4165 59.5845ZM33.9652 59.629L39.0213 59.6525L51.1368 31.4019L46.0806 31.3783L33.9652 59.629ZM51.1057 59.1515L68.4639 59.2324L68.4828 55.1715L57.4946 55.1203L62.2564 49.9668C66.578 45.289 68.1029 42.7083 68.1187 39.3242C68.1293 37.0549 67.4606 35.3 66.1926 34.0201C64.5283 32.3402 61.9445 31.4523 58.0429 31.4341C55.8135 31.4237 53.3036 31.7703 51.7093 32.161L51.6896 36.3811C53.403 36.0706 55.4742 35.8812 57.0269 35.8884C58.9777 35.8975 60.3298 36.2223 61.1625 36.9428C61.8763 37.5433 62.2306 38.4209 62.2252 39.5754C62.2146 41.8447 60.9323 43.6303 57.8895 47.279L52.5644 53.7039C51.4033 55.0919 50.9602 56.2046 50.9524 57.8767C50.9504 58.3147 50.9878 58.8324 51.1057 59.1515ZM74.9377 59.2626L81.029 59.2909L88.7741 37.6289C89.2579 36.3173 89.4233 35.0043 89.4292 33.7303C89.432 33.1331 89.3557 32.4161 89.1582 32.0967L71.4019 32.0139L71.383 36.0748L84.0831 36.1339L74.9377 59.2626Z" fill="white"/>
<path d="M95.8528 48.676L96.0216 48.6768C97.179 48.6822 97.7839 48.2269 97.7895 47.0213L97.7909 46.732C97.7965 45.5264 97.1958 45.0655 96.0385 45.0601L95.8697 45.0593C94.7123 45.0539 94.1074 45.5092 94.1018 46.7148L94.1004 47.0041C94.0948 48.2097 94.6955 48.6706 95.8528 48.676ZM103.502 48.7117C105.697 48.7219 107.242 48.2469 108.356 47.1429C109.81 45.7029 110.617 43.2473 110.635 39.4135C110.658 34.4224 109.08 31.5939 104.667 31.5734C100.834 31.5555 98.8226 33.6439 98.8055 37.3088C98.7901 40.6121 100.493 42.4526 103.435 42.4663C104.568 42.4716 105.92 42.2127 107.008 41.639C106.952 43.3025 106.681 44.4345 105.954 45.1545C105.3 45.8025 104.311 46.0149 102.719 46.0075C101.851 46.0034 100.96 45.9028 100.116 45.7542L100.104 48.3824C101.212 48.5804 102.321 48.7062 103.502 48.7117ZM104.653 39.8679C102.893 39.8597 102.22 39.302 102.23 37.2042C102.239 35.203 103.04 34.194 104.583 34.2012C106.463 34.21 107.084 35.5631 107.069 38.7217L107.065 39.638C106.389 39.7795 105.352 39.8711 104.653 39.8679ZM117.237 48.7757C121.842 48.7972 123.66 46.7802 123.676 43.3081C123.692 39.8119 121.723 38.139 117.407 38.1189L116.539 38.1149L116.701 34.4023L122.753 34.4305L122.764 31.9712L113.747 31.9291L113.425 38.9202C113.397 39.6675 113.418 40.2945 113.537 40.7773L116.888 40.7929C119.54 40.8053 120.115 41.7242 120.107 43.4362C120.099 45.0758 119.251 46.0845 116.405 46.0712C115.32 46.0662 114.236 45.9647 113.369 45.7919L113.356 48.3718C114.44 48.618 115.79 48.7689 117.237 48.7757Z" fill="white"/>
<path d="M90.1757 60.0577L91.6914 60.0648L92.47 58.6671L93.4358 60.0729L95.0278 60.0803L93.361 57.7085L94.9828 55.4091L93.4957 55.4022L92.7265 56.8094L91.7227 55.3939L90.1689 55.3867L91.8451 57.7681L90.1757 60.0577ZM97.6858 60.0927L101.089 60.1086L101.093 59.1363L100.159 59.1319L100.182 54.1369C100.185 53.6507 99.9567 53.4876 99.2799 53.4844C98.8128 53.4823 98.1548 53.5364 97.7637 53.5918L97.7594 54.5164L98.8175 54.5214L98.7961 59.1256L97.6903 59.1204L97.6858 60.0927ZM102.563 60.1155L106.719 60.1348L106.723 59.1625L104.092 59.1502L105.233 57.9163C106.267 56.7963 106.632 56.1783 106.636 55.3681C106.639 54.8247 106.479 54.4045 106.175 54.0981C105.777 53.6958 105.158 53.4832 104.224 53.4789C103.69 53.4764 103.089 53.5594 102.707 53.6529L102.702 54.6634C103.113 54.589 103.609 54.5437 103.98 54.5454C104.448 54.5476 104.771 54.6254 104.971 54.7979C105.142 54.9417 105.226 55.1518 105.225 55.4282C105.223 55.9716 104.916 56.3991 104.187 57.2727L102.912 58.8111C102.634 59.1434 102.528 59.4099 102.526 59.8102C102.525 59.9151 102.534 60.0391 102.563 60.1155ZM109.504 60.1478L110.868 60.1542L110.884 56.6367C111.113 56.5519 111.457 56.4868 111.695 56.4879C111.943 56.4891 112.143 56.5281 112.266 56.6431C112.361 56.7389 112.408 56.8726 112.407 57.1109L112.393 60.1613L113.756 60.1676L113.771 56.9552C113.771 56.8408 113.762 56.7263 113.753 56.6214C113.982 56.5558 114.316 56.5001 114.545 56.5012C114.822 56.5025 115.012 56.5415 115.135 56.6565C115.23 56.7522 115.277 56.8859 115.276 57.1242L115.262 60.1746L116.625 60.181L116.64 56.9685C116.643 56.4252 116.53 56.0148 116.246 55.737C115.989 55.4784 115.532 55.3714 115.122 55.3695C114.617 55.3671 114.016 55.5073 113.49 55.8576C113.253 55.5228 112.825 55.3588 112.253 55.3561C111.767 55.3539 111.242 55.4849 110.735 55.8162L110.708 55.4824L109.526 55.4769L109.504 60.1478ZM119.687 60.3287C120.268 60.3314 120.812 60.2577 121.261 60.174L121.16 59.1821C120.807 59.2472 120.331 59.2927 119.997 59.2911C119.082 59.2868 118.597 59.0653 118.562 58.2739L121.431 58.2873C121.508 58.2877 121.546 58.2593 121.546 58.183L121.548 57.754C121.556 56.1335 120.816 55.396 119.414 55.3895C117.985 55.3828 117.142 56.2178 117.134 57.8574C117.131 58.6009 117.29 59.269 117.755 59.7192C118.153 60.1023 118.81 60.3246 119.687 60.3287ZM118.566 57.3874C118.598 56.787 118.847 56.4164 119.4 56.419C119.944 56.4215 120.218 56.8041 120.215 57.3951L118.566 57.3874ZM123.532 60.3466C124.933 60.3532 125.641 59.794 125.645 58.8217C125.655 56.8866 123.096 57.6278 123.1 56.8366C123.101 56.5697 123.369 56.4565 123.855 56.4588C124.236 56.4606 124.808 56.5395 125.293 56.6752L125.403 55.6748C124.898 55.5009 124.317 55.4124 123.85 55.4102C122.449 55.4036 121.817 56.0394 121.813 56.9069C121.804 58.842 124.353 58.0436 124.349 58.8729C124.347 59.2065 124.023 59.3003 123.508 59.2979C123.003 59.2956 122.355 59.1877 122.003 59.0717L121.893 60.0816C122.264 60.2168 122.979 60.3441 123.532 60.3466ZM128.485 60.3697C129.066 60.3724 129.61 60.2987 130.058 60.215L129.958 59.2231C129.605 59.2882 129.128 59.3337 128.795 59.3321C127.88 59.3278 127.394 59.1063 127.36 58.315L130.229 58.3283C130.306 58.3287 130.344 58.3003 130.344 58.224L130.346 57.795C130.354 56.1745 129.614 55.437 128.212 55.4305C126.782 55.4238 125.94 56.2588 125.932 57.8984C125.929 58.6419 126.088 59.31 126.553 59.7602C126.951 60.1433 127.608 60.3656 128.485 60.3697ZM127.364 57.4284C127.396 56.828 127.645 56.4574 128.198 56.46C128.741 56.4625 129.016 56.8451 129.013 57.4361L127.364 57.4284ZM132.329 60.3876C133.731 60.3942 134.439 59.835 134.443 58.8627C134.452 56.9276 131.894 57.6688 131.898 56.8776C131.899 56.6107 132.166 56.4975 132.653 56.4998C133.034 56.5016 133.606 56.5805 134.091 56.7162L134.201 55.7158C133.696 55.5419 133.115 55.4534 132.648 55.4512C131.247 55.4447 130.615 56.0804 130.611 56.9479C130.602 58.883 133.15 58.0846 133.147 58.9139C133.145 59.2475 132.821 59.3413 132.306 59.3389C131.801 59.3366 131.153 59.2287 130.801 59.1127L130.691 60.1226C131.062 60.2578 131.777 60.3851 132.329 60.3876Z" fill="white"/>
</g>
<path d="M4.27179 18.767C2.29488 18.767 0.692276 20.3696 0.692276 22.3466V66.1774C0.692276 68.1544 2.29489 69.757 4.2718 69.757H140.791C142.768 69.757 144.371 68.1544 144.371 66.1774V22.3466C144.371 20.3696 142.768 18.767 140.791 18.767H4.27179Z" stroke="#019DF4" stroke-width="0.61557"/>
<rect x="42.6428" y="11.6868" width="57.0909" height="12.7615" fill="#142636"/>
<rect x="46.6728" y="64.076" width="49.031" height="8.73155" fill="#142636"/>
<path d="M47.3379 22H48.1747V19.3859L50.3563 15.5682H49.51L47.808 18.6619L46.1719 15.5682H45.2503L47.3379 19.3671V22ZM53.086 24.1157H53.8665V21.7837C54.205 22 54.7034 22.1316 55.1829 22.1316C56.2831 22.1316 56.9789 21.4076 56.9789 19.6774C56.9789 18.2105 56.4053 17.2608 55.2111 17.2608C54.788 17.2608 54.252 17.4112 53.7724 17.7309L53.7348 17.3924H53.086V24.1157ZM54.9855 21.4828C54.5905 21.4828 54.1392 21.3606 53.8665 21.2007V18.2387C54.2238 18.0507 54.6846 17.9284 55.0419 17.9284C55.8129 17.9284 56.1609 18.4926 56.1609 19.668C56.1609 20.9845 55.8223 21.4828 54.9855 21.4828ZM59.3798 22.1316C59.9346 22.1316 60.4235 21.953 60.8279 21.6897L60.8749 22H61.5049V18.9346C61.5049 18.3327 61.3921 17.966 61.1006 17.6839C60.8091 17.4112 60.3483 17.2608 59.6619 17.2608C59.2199 17.2608 58.6933 17.3172 58.2608 17.4206L58.289 18.0224C58.7404 17.9472 59.1823 17.9096 59.5302 17.9096C59.991 17.9096 60.2919 17.9942 60.4893 18.1823C60.6586 18.3516 60.7244 18.5866 60.7244 18.9628V19.2543H59.7653C59.0977 19.2543 58.5523 19.3765 58.2044 19.6962C57.9599 19.9219 57.8094 20.2604 57.8094 20.693C57.8094 21.1255 57.9505 21.4546 58.1762 21.6897C58.4583 21.9812 58.8814 22.1316 59.3798 22.1316ZM59.549 21.5016C58.9472 21.5016 58.5993 21.2289 58.5993 20.6741C58.5993 20.3921 58.6933 20.1946 58.8532 20.0629C59.0695 19.8937 59.3986 19.8279 59.8781 19.8279H60.7244V21.2007C60.3859 21.37 59.9252 21.5016 59.549 21.5016ZM64.5786 24.2474C66.1396 24.2474 66.7602 23.7302 66.7602 22.7993C66.7602 22.4231 66.6568 22.1034 66.4217 21.8684C66.1208 21.5675 65.6694 21.4358 64.8607 21.4358H63.9768C63.723 21.4358 63.6007 21.3512 63.6007 21.1537C63.6007 20.9939 63.7135 20.7494 63.8546 20.5895C64.0709 20.6553 64.306 20.6835 64.5786 20.6835C65.8387 20.6835 66.4311 19.9689 66.4311 18.9722C66.4311 18.3139 66.1678 17.7686 65.613 17.4865L66.2524 16.3957C66.102 16.2734 65.8199 16.1418 65.6036 16.0948L65.0488 17.2984C64.9078 17.2796 64.7479 17.2608 64.5786 17.2608C63.3186 17.2608 62.7262 17.9754 62.7262 18.9722C62.7262 19.574 62.9425 20.0629 63.375 20.3638C63.0459 20.6835 62.8296 21.0597 62.8296 21.4264C62.8296 21.6333 62.8955 21.8025 63.0459 21.9248C62.7262 22.1505 62.5193 22.5454 62.5193 22.9497C62.5193 23.7678 63.1588 24.2474 64.5786 24.2474ZM64.5786 20.0629C63.817 20.0629 63.4691 19.6774 63.4691 18.9722C63.4691 18.2669 63.817 17.8814 64.5786 17.8814C65.3403 17.8814 65.6882 18.2669 65.6882 18.9722C65.6882 19.6774 65.3403 20.0629 64.5786 20.0629ZM64.6539 23.5891C63.6289 23.5891 63.2528 23.307 63.2528 22.8087C63.2528 22.5642 63.3562 22.3103 63.5255 22.1034C63.6195 22.1222 63.7324 22.1316 63.864 22.1316H64.8607C65.3215 22.1316 65.6224 22.1881 65.8011 22.3197C65.9515 22.4325 66.0267 22.6018 66.0267 22.8275C66.0267 23.307 65.6318 23.5891 64.6539 23.5891ZM68.9299 22.1316C69.4847 22.1316 69.9737 21.953 70.378 21.6897L70.425 22H71.055V18.9346C71.055 18.3327 70.9422 17.966 70.6507 17.6839C70.3592 17.4112 69.8984 17.2608 69.212 17.2608C68.7701 17.2608 68.2435 17.3172 67.8109 17.4206L67.8391 18.0224C68.2905 17.9472 68.7324 17.9096 69.0804 17.9096C69.5411 17.9096 69.842 17.9942 70.0395 18.1823C70.2087 18.3516 70.2746 18.5866 70.2746 18.9628V19.2543H69.3154C68.6478 19.2543 68.1024 19.3765 67.7545 19.6962C67.51 19.9219 67.3596 20.2604 67.3596 20.693C67.3596 21.1255 67.5006 21.4546 67.7263 21.6897C68.0084 21.9812 68.4315 22.1316 68.9299 22.1316ZM69.0992 21.5016C68.4974 21.5016 68.1494 21.2289 68.1494 20.6741C68.1494 20.3921 68.2435 20.1946 68.4033 20.0629C68.6196 19.8937 68.9487 19.8279 69.4283 19.8279H70.2746V21.2007C69.9361 21.37 69.4753 21.5016 69.0992 21.5016ZM75.8787 22.1316C76.3113 22.1316 76.8661 21.9624 77.2422 21.7179L77.2986 22H77.938V15.2767H77.1576V17.5899C76.7908 17.383 76.3301 17.2608 75.9352 17.2608C74.7315 17.2608 74.0263 18.2011 74.0263 19.7244C74.0263 21.323 74.7033 22.1316 75.8787 22.1316ZM76.095 21.4922C75.2675 21.4922 74.8444 20.9468 74.8444 19.7338C74.8444 18.6525 75.1547 17.919 76.095 17.919C76.4053 17.919 76.8191 18.013 77.1576 18.1447V21.2195C76.8285 21.3794 76.4241 21.4922 76.095 21.4922ZM81.2599 22.1316C81.6831 22.1316 82.2285 22.0658 82.6234 21.953L82.5482 21.37C82.1909 21.4452 81.7395 21.4922 81.4104 21.4922C80.8274 21.4922 80.4795 21.37 80.235 21.1443C79.9623 20.8904 79.8307 20.4767 79.8307 19.9689H82.8021C82.8773 19.9689 82.9149 19.9407 82.9149 19.8655V19.6868C82.9149 18.1729 82.2943 17.2608 81.0061 17.2608C79.8307 17.2608 79.0126 18.0601 79.0126 19.7056C79.0126 20.5331 79.2006 21.1631 79.6144 21.5769C79.9905 21.953 80.5453 22.1316 81.2599 22.1316ZM79.8307 19.3953C79.8401 18.4644 80.2256 17.8908 81.0061 17.8908C81.7771 17.8908 82.1156 18.5114 82.1438 19.3953H79.8307ZM85.2268 22.1316C86.3364 22.1316 87.0886 21.6991 87.0886 20.7212C87.0886 19.0756 84.5215 19.5646 84.5215 18.5302C84.5215 18.0977 84.8695 17.8814 85.5277 17.8814C85.9038 17.8814 86.3269 17.9378 86.7407 18.0318L86.8065 17.4582C86.4398 17.3454 85.9226 17.2608 85.4619 17.2608C84.4839 17.2608 83.7881 17.6933 83.7881 18.5866C83.7881 20.2792 86.3552 19.7432 86.3552 20.7776C86.3552 21.2477 85.9508 21.5016 85.1986 21.5016C84.7942 21.5016 84.2865 21.4358 83.9103 21.3324L83.8727 21.9342C84.2206 22.047 84.7848 22.1316 85.2268 22.1316ZM89.7999 22.1316C90.2324 22.1316 90.7872 21.9624 91.1634 21.7179L91.2198 22H91.8592V15.2767H91.0787V17.5899C90.712 17.383 90.2512 17.2608 89.8563 17.2608C88.6527 17.2608 87.9475 18.2011 87.9475 19.7244C87.9475 21.323 88.6245 22.1316 89.7999 22.1316ZM90.0162 21.4922C89.1887 21.4922 88.7655 20.9468 88.7655 19.7338C88.7655 18.6525 89.0758 17.919 90.0162 17.919C90.3265 17.919 90.7402 18.013 91.0787 18.1447V21.2195C90.7496 21.3794 90.3453 21.4922 90.0162 21.4922ZM95.1811 22.1316C95.6042 22.1316 96.1496 22.0658 96.5446 21.953L96.4693 21.37C96.112 21.4452 95.6607 21.4922 95.3316 21.4922C94.7486 21.4922 94.4006 21.37 94.1562 21.1443C93.8835 20.8904 93.7518 20.4767 93.7518 19.9689H96.7232C96.7985 19.9689 96.8361 19.9407 96.8361 19.8655V19.6868C96.8361 18.1729 96.2155 17.2608 94.9272 17.2608C93.7518 17.2608 92.9337 18.0601 92.9337 19.7056C92.9337 20.5331 93.1218 21.1631 93.5355 21.5769C93.9117 21.953 94.4665 22.1316 95.1811 22.1316ZM93.7518 19.3953C93.7612 18.4644 94.1467 17.8908 94.9272 17.8908C95.6983 17.8908 96.0368 18.5114 96.065 19.3953H93.7518Z" fill="white"/>
<path d="M50.8522 72.0668H51.9087V70.2419C52.182 70.4118 52.5515 70.5079 52.8765 70.5079C53.6966 70.5079 54.2877 69.9981 54.2877 68.5721C54.2877 67.8998 54.1399 67.3235 53.8001 66.9911C53.5932 66.7916 53.2977 66.6807 52.9356 66.6807C52.4924 66.6807 52.1082 66.8433 51.7979 67.0502L51.7683 66.7842H50.8522V72.0668ZM52.5662 69.673C52.3372 69.673 52.0786 69.6434 51.9087 69.5695V67.6338C52.086 67.5821 52.3668 67.5378 52.5367 67.5378C53.0169 67.5378 53.1795 67.7816 53.1795 68.5574C53.1795 69.4292 53.0095 69.673 52.5662 69.673ZM56.6414 70.5079C57.8974 70.5079 58.481 69.7543 58.481 68.5943C58.481 67.4343 57.8974 66.6807 56.6414 66.6807C55.3854 66.6807 54.8017 67.4343 54.8017 68.5943C54.8017 69.7543 55.3854 70.5079 56.6414 70.5079ZM56.6414 69.7025C56.1094 69.7025 55.9025 69.3405 55.9025 68.5943C55.9025 67.8481 56.1094 67.4861 56.6414 67.4861C57.1733 67.4861 57.3802 67.8481 57.3802 68.5943C57.3802 69.3405 57.1733 69.7025 56.6414 69.7025ZM59.1856 70.4044H60.2421V67.6855C60.4711 67.6338 60.6854 67.5969 60.9661 67.5969C61.1361 67.5969 61.3134 67.6117 61.4316 67.6264V66.7029C61.3873 66.6955 61.306 66.6881 61.2469 66.6881C60.8996 66.6881 60.4194 66.8211 60.1387 67.0797L60.1017 66.7842H59.1856V70.4044ZM65.4471 70.5079C65.846 70.5079 66.112 70.4709 66.4666 70.3896L66.3854 69.6287C66.1563 69.673 65.8682 69.7025 65.6318 69.7025C64.8708 69.7025 64.5679 69.3405 64.5679 68.5943C64.5679 68.2249 64.6343 67.9441 64.8117 67.752C64.9668 67.5895 65.218 67.4935 65.5431 67.4935C65.846 67.4935 66.1563 67.5378 66.378 67.5969L66.4445 66.8137C66.0972 66.7177 65.713 66.6807 65.3806 66.6807C64.7821 66.6807 64.2575 66.8728 63.9325 67.2201C63.6074 67.5747 63.467 68.0697 63.467 68.6756C63.467 69.0745 63.5631 69.4809 63.7625 69.7838C64.1393 70.3675 64.8264 70.5079 65.4471 70.5079ZM68.1208 70.5079C68.505 70.5079 68.8966 70.3823 69.2069 70.1828L69.2955 70.4044H70.1304V68.055C70.1304 67.6191 70.0343 67.3087 69.8496 67.0945C69.5984 66.799 69.1034 66.6807 68.5493 66.6807C68.1134 66.6807 67.6332 66.7399 67.2638 66.8137L67.3155 67.5895C67.5667 67.5378 67.9878 67.4935 68.3277 67.4935C68.6158 67.4935 68.8153 67.5304 68.9409 67.6412C69.0295 67.7225 69.0739 67.8481 69.0739 68.0476V68.1658H68.4976C67.8253 68.1658 67.4263 68.2544 67.1677 68.4983C66.9608 68.6977 66.85 68.9933 66.85 69.3183C66.85 70.0202 67.2933 70.5079 68.1208 70.5079ZM68.4237 69.7025C68.0395 69.7025 67.9065 69.54 67.9065 69.274C67.9065 69.141 67.9435 69.0376 68.01 68.9711C68.106 68.8751 68.2612 68.8455 68.5124 68.8455H69.0739V69.5917C68.9039 69.6434 68.6232 69.7025 68.4237 69.7025ZM72.1788 70.5079C72.6221 70.5079 73.0136 70.3527 73.324 70.1458L73.3461 70.4044H74.2623V65.1218H73.2057V66.9467C72.925 66.7768 72.563 66.6807 72.2453 66.6807C71.3808 66.6807 70.812 67.3974 70.812 68.6017C70.812 69.311 70.9745 69.8651 71.3144 70.1975C71.5212 70.397 71.8241 70.5079 72.1788 70.5079ZM72.5777 69.6804C72.0975 69.6804 71.9202 69.4366 71.9202 68.6312C71.9202 67.7594 72.2083 67.5156 72.7033 67.5156C72.8363 67.5156 73.0432 67.5452 73.2057 67.5969V69.5548C73.021 69.6287 72.7477 69.6804 72.5777 69.6804ZM76.1945 70.5079C76.5786 70.5079 76.9702 70.3823 77.2805 70.1828L77.3692 70.4044H78.2041V68.055C78.2041 67.6191 78.108 67.3087 77.9233 67.0945C77.6721 66.799 77.1771 66.6807 76.623 66.6807C76.1871 66.6807 75.7068 66.7399 75.3374 66.8137L75.3891 67.5895C75.6403 67.5378 76.0615 67.4935 76.4013 67.4935C76.6895 67.4935 76.8889 67.5304 77.0145 67.6412C77.1032 67.7225 77.1475 67.8481 77.1475 68.0476V68.1658H76.5713C75.8989 68.1658 75.5 68.2544 75.2414 68.4983C75.0345 68.6977 74.9237 68.9933 74.9237 69.3183C74.9237 70.0202 75.367 70.5079 76.1945 70.5079ZM76.4974 69.7025C76.1132 69.7025 75.9802 69.54 75.9802 69.274C75.9802 69.141 76.0171 69.0376 76.0836 68.9711C76.1797 68.8751 76.3348 68.8455 76.586 68.8455H77.1475V69.5917C76.9776 69.6434 76.6969 69.7025 76.4974 69.7025ZM81.8897 70.5005C82.2592 70.5005 82.7098 70.4044 83.1014 70.1606L83.131 70.4044H84.0471V66.7842H82.9906V69.5178C82.8133 69.5769 82.5177 69.6213 82.333 69.6213C82.1188 69.6213 81.971 69.5917 81.875 69.5031C81.8011 69.4292 81.7641 69.3036 81.7641 69.1189V66.7842H80.7076V69.2666C80.7076 69.6878 80.7963 70.0055 81.0179 70.2197C81.2174 70.4192 81.5721 70.5005 81.8897 70.5005ZM84.9362 70.4044H85.9927V67.6782C86.1626 67.6117 86.4803 67.5599 86.6798 67.5599C86.8941 67.5599 87.0418 67.5895 87.1379 67.6782C87.2118 67.752 87.2487 67.8555 87.2487 68.0402V70.4044H88.3052V67.9146C88.3052 67.4935 88.2166 67.1758 87.9949 66.9615C87.7954 66.762 87.4408 66.6807 87.1231 66.6807C86.7389 66.6807 86.2735 66.7842 85.8745 67.0428L85.8523 66.7842H84.9362V70.4044ZM90.2206 70.5079C90.6048 70.5079 90.9963 70.3823 91.3066 70.1828L91.3953 70.4044H92.2302V68.055C92.2302 67.6191 92.1341 67.3087 91.9494 67.0945C91.6982 66.799 91.2032 66.6807 90.6491 66.6807C90.2132 66.6807 89.7329 66.7399 89.3635 66.8137L89.4152 67.5895C89.6664 67.5378 90.0876 67.4935 90.4274 67.4935C90.7156 67.4935 90.9151 67.5304 91.0407 67.6412C91.1293 67.7225 91.1736 67.8481 91.1736 68.0476V68.1658H90.5974C89.925 68.1658 89.5261 68.2544 89.2675 68.4983C89.0606 68.6977 88.9498 68.9933 88.9498 69.3183C88.9498 70.0202 89.3931 70.5079 90.2206 70.5079ZM90.5235 69.7025C90.1393 69.7025 90.0063 69.54 90.0063 69.274C90.0063 69.141 90.0432 69.0376 90.1097 68.9711C90.2058 68.8751 90.3609 68.8455 90.6121 68.8455H91.1736V69.5917C91.0037 69.6434 90.723 69.7025 90.5235 69.7025Z" fill="white"/>
<path d="M7.98639 7H11.3898V6.17648H9.12329V4.90111H10.8359V4.04844H9.12329V2.83866H11.2659L11.3534 2.01514H7.98639V7ZM11.748 7H12.9067L13.497 5.92869L14.2404 7H15.4575L14.1748 5.19262L15.4065 3.42898H14.2696L13.6865 4.50757L12.914 3.42898H11.7261L13.0161 5.24364L11.748 7ZM17.669 7.10203C18.0626 7.10203 18.3249 7.06559 18.6748 6.98542L18.5946 6.23478C18.3687 6.27851 18.0844 6.30766 17.8512 6.30766C17.1006 6.30766 16.8018 5.95056 16.8018 5.21449C16.8018 4.8501 16.8674 4.57316 17.0423 4.38368C17.1953 4.22335 17.4431 4.1286 17.7638 4.1286C18.0626 4.1286 18.3687 4.17233 18.5873 4.23063L18.6529 3.45813C18.3104 3.36338 17.9314 3.32695 17.6034 3.32695C17.0131 3.32695 16.4957 3.51643 16.175 3.85896C15.8544 4.20877 15.7159 4.69705 15.7159 5.29465C15.7159 5.68819 15.8106 6.08902 16.0074 6.38782C16.3791 6.96356 17.0569 7.10203 17.669 7.10203ZM19.2934 7H20.3356V1.78922H19.2934V7ZM22.3729 7.09474C22.7373 7.09474 23.1819 7 23.5681 6.7595L23.5973 7H24.501V3.42898H23.4588V6.12546C23.2839 6.18377 22.9924 6.22749 22.8102 6.22749C22.5988 6.22749 22.4531 6.19834 22.3583 6.11089C22.2855 6.03801 22.249 5.91412 22.249 5.73192V3.42898H21.2069V5.87768C21.2069 6.29308 21.2943 6.60646 21.513 6.8178C21.7097 7.01458 22.0595 7.09474 22.3729 7.09474ZM26.5367 7.10203C27.608 7.10203 28.1473 6.67205 28.1473 5.92869C28.1473 4.44927 26.1942 5.025 26.1942 4.42012C26.1942 4.21606 26.3982 4.1286 26.7699 4.1286C27.0614 4.1286 27.4987 4.18691 27.8704 4.28894L27.9505 3.52372C27.5643 3.39254 27.1197 3.32695 26.7626 3.32695C25.6913 3.32695 25.2103 3.81523 25.2103 4.47842C25.2103 5.95784 27.1562 5.33838 27.1562 5.97242C27.1562 6.22749 26.9084 6.30037 26.5148 6.30037C26.1286 6.30037 25.633 6.2202 25.3634 6.13275L25.2832 6.90526C25.5674 7.00729 26.114 7.10203 26.5367 7.10203ZM29.3542 2.83138H29.4052C29.7623 2.83138 29.9518 2.69291 29.9518 2.3358V2.24106C29.9518 1.88396 29.7623 1.7382 29.4052 1.7382H29.3542C28.9971 1.7382 28.8076 1.88396 28.8076 2.24106V2.3358C28.8076 2.69291 28.9971 2.83138 29.3542 2.83138ZM28.8587 7H29.9008V3.42898H28.8587V7ZM31.7049 7H32.9147L34.1464 3.42898H33.1042L32.3463 5.90683L31.5519 3.42898H30.4296L31.7049 7ZM36.2198 7.10203C37.4587 7.10203 38.0345 6.35867 38.0345 5.21449C38.0345 4.0703 37.4587 3.32695 36.2198 3.32695C34.9809 3.32695 34.4051 4.0703 34.4051 5.21449C34.4051 6.35867 34.9809 7.10203 36.2198 7.10203ZM36.2198 6.30766C35.6951 6.30766 35.491 5.95056 35.491 5.21449C35.491 4.47842 35.6951 4.12132 36.2198 4.12132C36.7445 4.12132 36.9486 4.47842 36.9486 5.21449C36.9486 5.95056 36.7445 6.30766 36.2198 6.30766ZM40.3663 8.63976H41.4085V6.83967C41.6781 7.00729 42.0425 7.10203 42.3632 7.10203C43.1721 7.10203 43.7552 6.59917 43.7552 5.19262C43.7552 4.52943 43.6094 3.96098 43.2742 3.63303C43.0701 3.43626 42.7786 3.32695 42.4215 3.32695C41.9842 3.32695 41.6053 3.48728 41.2992 3.69134L41.27 3.42898H40.3663V8.63976ZM42.0571 6.27851C41.8312 6.27851 41.5761 6.24936 41.4085 6.17648V4.26707C41.5834 4.21606 41.8603 4.17233 42.028 4.17233C42.5017 4.17233 42.662 4.41283 42.662 5.17805C42.662 6.03801 42.4944 6.27851 42.0571 6.27851ZM45.4792 7.10203C45.8582 7.10203 46.2445 6.97814 46.5505 6.78137L46.638 7H47.4615V4.68248C47.4615 4.2525 47.3668 3.94641 47.1846 3.73506C46.9368 3.44355 46.4485 3.32695 45.9019 3.32695C45.4719 3.32695 44.9982 3.38525 44.6339 3.45813L44.6849 4.22335C44.9327 4.17233 45.3481 4.1286 45.6833 4.1286C45.9675 4.1286 46.1643 4.16504 46.2882 4.27436C46.3756 4.35453 46.4194 4.47842 46.4194 4.67519V4.79179H45.8509C45.1877 4.79179 44.7942 4.87925 44.5391 5.11975C44.3351 5.31652 44.2257 5.60803 44.2257 5.92869C44.2257 6.62103 44.663 7.10203 45.4792 7.10203ZM45.778 6.30766C45.3991 6.30766 45.2679 6.14733 45.2679 5.88497C45.2679 5.75378 45.3043 5.65176 45.3699 5.58617C45.4647 5.49142 45.6177 5.46227 45.8655 5.46227H46.4194V6.19834C46.2517 6.24936 45.9748 6.30766 45.778 6.30766ZM48.316 7H49.3582V4.31809C49.5841 4.26707 49.7954 4.23063 50.0724 4.23063C50.24 4.23063 50.4149 4.24521 50.5315 4.25978V3.34881C50.4878 3.34152 50.4076 3.33423 50.3493 3.33423C50.0068 3.33423 49.5331 3.46541 49.2561 3.72049L49.2197 3.42898H48.316V7ZM52.0625 7.10203C52.4414 7.10203 52.8277 6.97814 53.1338 6.78137L53.2212 7H54.0447V4.68248C54.0447 4.2525 53.95 3.94641 53.7678 3.73506C53.52 3.44355 53.0317 3.32695 52.4852 3.32695C52.0552 3.32695 51.5815 3.38525 51.2171 3.45813L51.2681 4.22335C51.5159 4.17233 51.9313 4.1286 52.2665 4.1286C52.5507 4.1286 52.7475 4.16504 52.8714 4.27436C52.9589 4.35453 53.0026 4.47842 53.0026 4.67519V4.79179H52.4341C51.7709 4.79179 51.3774 4.87925 51.1223 5.11975C50.9183 5.31652 50.809 5.60803 50.809 5.92869C50.809 6.62103 51.2462 7.10203 52.0625 7.10203ZM52.3613 6.30766C51.9823 6.30766 51.8511 6.14733 51.8511 5.88497C51.8511 5.75378 51.8876 5.65176 51.9531 5.58617C52.0479 5.49142 52.2009 5.46227 52.4487 5.46227H53.0026V6.19834C52.835 6.24936 52.558 6.30766 52.3613 6.30766ZM58.3071 7.10203C58.7006 7.10203 58.963 7.06559 59.3128 6.98542L59.2326 6.23478C59.0067 6.27851 58.7225 6.30766 58.4893 6.30766C57.7386 6.30766 57.4398 5.95056 57.4398 5.21449C57.4398 4.8501 57.5054 4.57316 57.6803 4.38368C57.8334 4.22335 58.0812 4.1286 58.4018 4.1286C58.7006 4.1286 59.0067 4.17233 59.2253 4.23063L59.2909 3.45813C58.9484 3.36338 58.5694 3.32695 58.2415 3.32695C57.6512 3.32695 57.1337 3.51643 56.8131 3.85896C56.4924 4.20877 56.354 4.69705 56.354 5.29465C56.354 5.68819 56.4487 6.08902 56.6455 6.38782C57.0171 6.96356 57.6949 7.10203 58.3071 7.10203ZM60.9445 7.10203C61.3234 7.10203 61.7097 6.97814 62.0158 6.78137L62.1032 7H62.9268V4.68248C62.9268 4.2525 62.832 3.94641 62.6498 3.73506C62.402 3.44355 61.9138 3.32695 61.3672 3.32695C60.9372 3.32695 60.4635 3.38525 60.0991 3.45813L60.1501 4.22335C60.3979 4.17233 60.8133 4.1286 61.1485 4.1286C61.4328 4.1286 61.6295 4.16504 61.7534 4.27436C61.8409 4.35453 61.8846 4.47842 61.8846 4.67519V4.79179H61.3162C60.653 4.79179 60.2594 4.87925 60.0043 5.11975C59.8003 5.31652 59.691 5.60803 59.691 5.92869C59.691 6.62103 60.1282 7.10203 60.9445 7.10203ZM61.2433 6.30766C60.8643 6.30766 60.7331 6.14733 60.7331 5.88497C60.7331 5.75378 60.7696 5.65176 60.8352 5.58617C60.9299 5.49142 61.0829 5.46227 61.3307 5.46227H61.8846V6.19834C61.717 6.24936 61.44 6.30766 61.2433 6.30766ZM63.7813 7H64.8234V4.3108C64.991 4.24521 65.3044 4.19419 65.5012 4.19419C65.7125 4.19419 65.8583 4.22335 65.953 4.3108C66.0259 4.38368 66.0623 4.48571 66.0623 4.6679V7H67.1045V4.54401C67.1045 4.1286 67.017 3.81523 66.7984 3.60388C66.6016 3.40711 66.2518 3.32695 65.9384 3.32695C65.5595 3.32695 65.1003 3.42898 64.7068 3.68405L64.6849 3.42898H63.7813V7ZM68.9938 7.10203C69.3728 7.10203 69.759 6.97814 70.0651 6.78137L70.1526 7H70.9761V4.68248C70.9761 4.2525 70.8813 3.94641 70.6991 3.73506C70.4514 3.44355 69.9631 3.32695 69.4165 3.32695C68.9865 3.32695 68.5128 3.38525 68.1484 3.45813L68.1994 4.22335C68.4472 4.17233 68.8626 4.1286 69.1979 4.1286C69.4821 4.1286 69.6789 4.16504 69.8027 4.27436C69.8902 4.35453 69.9339 4.47842 69.9339 4.67519V4.79179H69.3655C68.7023 4.79179 68.3087 4.87925 68.0537 5.11975C67.8496 5.31652 67.7403 5.60803 67.7403 5.92869C67.7403 6.62103 68.1776 7.10203 68.9938 7.10203ZM69.2926 6.30766C68.9136 6.30766 68.7825 6.14733 68.7825 5.88497C68.7825 5.75378 68.8189 5.65176 68.8845 5.58617C68.9792 5.49142 69.1323 5.46227 69.3801 5.46227H69.9339V6.19834C69.7663 6.24936 69.4894 6.30766 69.2926 6.30766ZM71.8524 7H72.8946V1.78922H71.8524V7ZM77.0571 7.10203C78.2961 7.10203 78.8718 6.35867 78.8718 5.21449C78.8718 4.0703 78.2961 3.32695 77.0571 3.32695C75.8182 3.32695 75.2425 4.0703 75.2425 5.21449C75.2425 6.35867 75.8182 7.10203 77.0571 7.10203ZM77.0571 6.30766C76.5324 6.30766 76.3283 5.95056 76.3283 5.21449C76.3283 4.47842 76.5324 4.12132 77.0571 4.12132C77.5819 4.12132 77.7859 4.47842 77.7859 5.21449C77.7859 5.95056 77.5819 6.30766 77.0571 6.30766ZM79.5668 7H80.6089V4.3108C80.7765 4.24521 81.0899 4.19419 81.2867 4.19419C81.498 4.19419 81.6438 4.22335 81.7385 4.3108C81.8114 4.38368 81.8478 4.48571 81.8478 4.6679V7H82.89V4.54401C82.89 4.1286 82.8025 3.81523 82.5839 3.60388C82.3871 3.40711 82.0373 3.32695 81.7239 3.32695C81.345 3.32695 80.8858 3.42898 80.4923 3.68405L80.4704 3.42898H79.5668V7ZM83.7663 7H84.8084V1.78922H83.7663V7ZM86.219 2.83138H86.27C86.6272 2.83138 86.8166 2.69291 86.8166 2.3358V2.24106C86.8166 1.88396 86.6272 1.7382 86.27 1.7382H86.219C85.8619 1.7382 85.6724 1.88396 85.6724 2.24106V2.3358C85.6724 2.69291 85.8619 2.83138 86.219 2.83138ZM85.7235 7H86.7656V3.42898H85.7235V7ZM87.6588 7H88.7009V4.3108C88.8686 4.24521 89.1819 4.19419 89.3787 4.19419C89.59 4.19419 89.7358 4.22335 89.8305 4.3108C89.9034 4.38368 89.9399 4.48571 89.9399 4.6679V7H90.982V4.54401C90.982 4.1286 90.8946 3.81523 90.6759 3.60388C90.4792 3.40711 90.1293 3.32695 89.816 3.32695C89.437 3.32695 88.9779 3.42898 88.5843 3.68405L88.5625 3.42898H87.6588V7ZM93.6147 7.10203C94.0592 7.10203 94.4746 7.04373 94.8172 6.97814L94.737 6.2202C94.4673 6.27122 94.103 6.30766 93.8479 6.30766C93.1483 6.30766 92.7766 6.14004 92.7474 5.53515H94.9411C94.9994 5.53515 95.0285 5.51329 95.0285 5.45498V5.12703C95.0285 3.88811 94.4601 3.32695 93.3888 3.32695C92.2956 3.32695 91.6543 3.96827 91.6543 5.22178C91.6543 5.79022 91.7781 6.30037 92.1352 6.6429C92.4413 6.93441 92.9442 7.10203 93.6147 7.10203ZM92.7474 4.85739C92.7693 4.39825 92.9588 4.11403 93.3815 4.11403C93.7969 4.11403 94.0082 4.40554 94.0082 4.85739H92.7474ZM98.9561 7.10203C100.195 7.10203 100.771 6.35867 100.771 5.21449C100.771 4.0703 100.195 3.32695 98.9561 3.32695C97.7172 3.32695 97.1415 4.0703 97.1415 5.21449C97.1415 6.35867 97.7172 7.10203 98.9561 7.10203ZM98.9561 6.30766C98.4314 6.30766 98.2273 5.95056 98.2273 5.21449C98.2273 4.47842 98.4314 4.12132 98.9561 4.12132C99.4808 4.12132 99.6849 4.47842 99.6849 5.21449C99.6849 5.95056 99.4808 6.30766 98.9561 6.30766ZM104.874 7.10203C105.267 7.10203 105.529 7.06559 105.879 6.98542L105.799 6.23478C105.573 6.27851 105.289 6.30766 105.056 6.30766C104.305 6.30766 104.006 5.95056 104.006 5.21449C104.006 4.8501 104.072 4.57316 104.247 4.38368C104.4 4.22335 104.648 4.1286 104.968 4.1286C105.267 4.1286 105.573 4.17233 105.792 4.23063L105.857 3.45813C105.515 3.36338 105.136 3.32695 104.808 3.32695C104.218 3.32695 103.7 3.51643 103.38 3.85896C103.059 4.20877 102.92 4.69705 102.92 5.29465C102.92 5.68819 103.015 6.08902 103.212 6.38782C103.584 6.96356 104.261 7.10203 104.874 7.10203ZM107.511 7.10203C107.89 7.10203 108.276 6.97814 108.582 6.78137L108.67 7H109.493V4.68248C109.493 4.2525 109.399 3.94641 109.216 3.73506C108.969 3.44355 108.48 3.32695 107.934 3.32695C107.504 3.32695 107.03 3.38525 106.666 3.45813L106.717 4.22335C106.964 4.17233 107.38 4.1286 107.715 4.1286C107.999 4.1286 108.196 4.16504 108.32 4.27436C108.407 4.35453 108.451 4.47842 108.451 4.67519V4.79179H107.883C107.219 4.79179 106.826 4.87925 106.571 5.11975C106.367 5.31652 106.257 5.60803 106.257 5.92869C106.257 6.62103 106.695 7.10203 107.511 7.10203ZM107.81 6.30766C107.431 6.30766 107.3 6.14733 107.3 5.88497C107.3 5.75378 107.336 5.65176 107.402 5.58617C107.496 5.49142 107.649 5.46227 107.897 5.46227H108.451V6.19834C108.283 6.24936 108.007 6.30766 107.81 6.30766ZM110.37 7H111.412V1.78922H110.37V7ZM112.327 7H113.369V1.78922H112.327V7ZM117.67 7.10203C118.063 7.10203 118.326 7.06559 118.676 6.98542L118.596 6.23478C118.37 6.27851 118.085 6.30766 117.852 6.30766C117.102 6.30766 116.803 5.95056 116.803 5.21449C116.803 4.8501 116.868 4.57316 117.043 4.38368C117.196 4.22335 117.444 4.1286 117.765 4.1286C118.063 4.1286 118.37 4.17233 118.588 4.23063L118.654 3.45813C118.311 3.36338 117.932 3.32695 117.604 3.32695C117.014 3.32695 116.497 3.51643 116.176 3.85896C115.855 4.20877 115.717 4.69705 115.717 5.29465C115.717 5.68819 115.812 6.08902 116.008 6.38782C116.38 6.96356 117.058 7.10203 117.67 7.10203ZM121.051 7.10203C121.495 7.10203 121.911 7.04373 122.253 6.97814L122.173 6.2202C121.903 6.27122 121.539 6.30766 121.284 6.30766C120.584 6.30766 120.213 6.14004 120.183 5.53515H122.377C122.435 5.53515 122.465 5.51329 122.465 5.45498V5.12703C122.465 3.88811 121.896 3.32695 120.825 3.32695C119.732 3.32695 119.09 3.96827 119.09 5.22178C119.09 5.79022 119.214 6.30037 119.571 6.6429C119.877 6.93441 120.38 7.10203 121.051 7.10203ZM120.183 4.85739C120.205 4.39825 120.395 4.11403 120.817 4.11403C121.233 4.11403 121.444 4.40554 121.444 4.85739H120.183ZM123.123 7H124.165V4.3108C124.333 4.24521 124.646 4.19419 124.843 4.19419C125.054 4.19419 125.2 4.22335 125.295 4.3108C125.367 4.38368 125.404 4.48571 125.404 4.6679V7H126.446V4.54401C126.446 4.1286 126.359 3.81523 126.14 3.60388C125.943 3.40711 125.593 3.32695 125.28 3.32695C124.901 3.32695 124.442 3.42898 124.048 3.68405L124.026 3.42898H123.123V7ZM128.7 7.10203C129.013 7.10203 129.377 7.06559 129.611 7.01458L129.574 6.27851C129.45 6.29308 129.217 6.32223 129.071 6.32223C128.649 6.32223 128.569 6.17648 128.569 5.77565V4.10674H129.494V3.42898H128.569V2.48156C128.233 2.48156 127.84 2.53986 127.526 2.6346V3.42898L126.921 3.53829V4.10674H127.526V5.9214C127.526 6.70849 127.811 7.10203 128.7 7.10203ZM132.004 7.10203C132.448 7.10203 132.864 7.04373 133.206 6.97814L133.126 6.2202C132.856 6.27122 132.492 6.30766 132.237 6.30766C131.537 6.30766 131.166 6.14004 131.137 5.53515H133.33C133.388 5.53515 133.418 5.51329 133.418 5.45498V5.12703C133.418 3.88811 132.849 3.32695 131.778 3.32695C130.685 3.32695 130.043 3.96827 130.043 5.22178C130.043 5.79022 130.167 6.30037 130.524 6.6429C130.83 6.93441 131.333 7.10203 132.004 7.10203ZM131.137 4.85739C131.158 4.39825 131.348 4.11403 131.771 4.11403C132.186 4.11403 132.397 4.40554 132.397 4.85739H131.137ZM134.076 7H135.118V4.31809C135.344 4.26707 135.555 4.23063 135.832 4.23063C136 4.23063 136.175 4.24521 136.291 4.25978V3.34881C136.248 3.34152 136.167 3.33423 136.109 3.33423C135.767 3.33423 135.293 3.46541 135.016 3.72049L134.98 3.42898H134.076V7ZM136.655 7.10203H136.706C137.055 7.10203 137.238 6.96356 137.238 6.59917V6.51172C137.238 6.14733 137.055 6.00886 136.706 6.00886H136.655C136.305 6.00886 136.123 6.14733 136.123 6.51172V6.59917C136.123 6.96356 136.305 7.10203 136.655 7.10203Z" fill="#019DF4"/>
<defs>
<filter id="filter0_d_103_3" x="10.9972" y="28.3742" width="127.813" height="37.846" filterUnits="userSpaceOnUse" color-interpolation-filters="sRGB">
<feFlood flood-opacity="0" result="BackgroundImageFix"/>
<feColorMatrix in="SourceAlpha" type="matrix" values="0 0 0 0 0 0 0 0 0 0 0 0 0 0 0 0 0 0 127 0" result="hardAlpha"/>
<feOffset dy="1.48068"/>
<feGaussianBlur stdDeviation="2.17104"/>
<feComposite in2="hardAlpha" operator="out"/>
<feColorMatrix type="matrix" values="0 0 0 0 0.00392157 0 0 0 0 0.615686 0 0 0 0 0.956863 0 0 0 1 0"/>
<feBlend mode="normal" in2="BackgroundImageFix" result="effect1_dropShadow_103_3"/>
<feBlend mode="normal" in="SourceGraphic" in2="effect1_dropShadow_103_3" result="shape"/>
</filter>
</defs>
</svg>
