<svg width="399" height="101" viewBox="0 0 399 101" fill="none" xmlns="http://www.w3.org/2000/svg">
<path d="M71.0089 22.4781H77.1322V21.4012H72.3782V17.7087H76.0553V16.6009H72.3782V13.0315H76.9169L77.0399 11.9546H71.0089V22.4781ZM78.9823 22.4781H80.2593V16.3855C80.7978 16.0471 81.4286 15.8778 82.0902 15.8778C82.3056 15.8778 82.5825 15.8932 82.7518 15.9086V14.7701C82.5825 14.7393 82.3979 14.7239 82.2594 14.7239C81.5979 14.7239 80.844 14.9855 80.1209 15.5855L80.0439 14.9393H78.9823V22.4781ZM87.0673 22.6935C87.7597 22.6935 88.652 22.5858 89.2982 22.4012L89.1751 21.4473C88.5905 21.5704 87.852 21.6473 87.3135 21.6473C86.3596 21.6473 85.7904 21.4473 85.3903 21.0781C84.9442 20.6627 84.7288 19.9857 84.7288 19.1549H89.5905C89.7136 19.1549 89.7752 19.1088 89.7752 18.9857V18.6933C89.7752 16.2163 88.7597 14.7239 86.6519 14.7239C84.7288 14.7239 83.3902 16.0317 83.3902 18.7241C83.3902 20.078 83.698 21.1089 84.3749 21.7858C84.9903 22.4012 85.8981 22.6935 87.0673 22.6935ZM84.7288 18.2164C84.7442 16.6933 85.375 15.7547 86.6519 15.7547C87.9135 15.7547 88.4674 16.7702 88.5136 18.2164H84.7288ZM93.5578 22.6935C95.3733 22.6935 96.6041 21.9858 96.6041 20.3857C96.6041 17.6933 92.4039 18.4933 92.4039 16.8009C92.4039 16.0932 92.9732 15.7394 94.0501 15.7394C94.6656 15.7394 95.3579 15.8317 96.0349 15.9855L96.1425 15.047C95.5425 14.8624 94.6963 14.7239 93.9424 14.7239C92.3424 14.7239 91.2038 15.4317 91.2038 16.8933C91.2038 19.6626 95.4041 18.7857 95.4041 20.4781C95.4041 21.2473 94.7425 21.6627 93.5117 21.6627C92.8501 21.6627 92.0193 21.555 91.4039 21.3858L91.3423 22.3705C91.9116 22.5551 92.8347 22.6935 93.5578 22.6935ZM104.888 22.6935C105.442 22.6935 106.288 22.5858 106.781 22.4474L106.688 21.4935C106.304 21.5704 105.627 21.6473 105.119 21.6473C104.196 21.6473 103.55 21.4319 103.119 20.9396C102.703 20.4627 102.488 19.7396 102.488 18.7857C102.488 16.7856 103.288 15.7547 105.057 15.7547C105.534 15.7547 106.15 15.8471 106.627 15.9394L106.704 14.9547C106.181 14.8162 105.488 14.7239 104.904 14.7239C103.75 14.7239 102.78 15.0624 102.134 15.7547C101.488 16.4471 101.15 17.4779 101.15 18.801C101.15 20.1242 101.519 21.1089 102.15 21.755C102.765 22.3858 103.657 22.6935 104.888 22.6935ZM108.491 22.4781H109.768V11.4776H108.491V22.4781ZM112.562 13.5085H112.639C113.101 13.5085 113.393 13.2777 113.393 12.6931V12.6623C113.393 12.0776 113.101 11.8469 112.639 11.8469H112.562C112.101 11.8469 111.809 12.0776 111.809 12.6623V12.6931C111.809 13.2777 112.101 13.5085 112.562 13.5085ZM111.962 22.4781H113.239V14.9393H111.962V22.4781ZM118.694 22.6935C119.387 22.6935 120.279 22.5858 120.925 22.4012L120.802 21.4473C120.218 21.5704 119.479 21.6473 118.941 21.6473C117.987 21.6473 117.418 21.4473 117.017 21.0781C116.571 20.6627 116.356 19.9857 116.356 19.1549H121.218C121.341 19.1549 121.402 19.1088 121.402 18.9857V18.6933C121.402 16.2163 120.387 14.7239 118.279 14.7239C116.356 14.7239 115.017 16.0317 115.017 18.7241C115.017 20.078 115.325 21.1089 116.002 21.7858C116.617 22.4012 117.525 22.6935 118.694 22.6935ZM116.356 18.2164C116.371 16.6933 117.002 15.7547 118.279 15.7547C119.541 15.7547 120.095 16.7702 120.141 18.2164H116.356ZM123.2 22.4781H124.477V16.3394C125.093 16.0471 125.908 15.8471 126.585 15.8471C127.139 15.8471 127.539 15.9701 127.8 16.2317C128.062 16.4932 128.17 16.8625 128.17 17.5087V22.4781H129.447V17.3548C129.447 16.4163 129.231 15.8009 128.816 15.3855C128.385 14.9393 127.739 14.7239 126.923 14.7239C126.047 14.7239 125.108 15.0162 124.323 15.4932L124.262 14.9393H123.2V22.4781ZM134.185 22.6935C134.738 22.6935 135.338 22.6012 135.738 22.4935L135.677 21.555C135.308 21.632 134.8 21.6781 134.538 21.6781C134 21.6781 133.738 21.5704 133.569 21.3858C133.354 21.155 133.308 20.7858 133.308 20.0626V15.8778H135.292V14.9393H133.308V12.9392C132.908 12.9392 132.4 13.0469 132.031 13.17V14.9547L130.661 15.1547V15.8778H132.031V20.2319C132.031 21.1704 132.138 21.6781 132.508 22.1089C132.846 22.4935 133.446 22.6935 134.185 22.6935ZM140.465 22.6935C141.158 22.6935 142.05 22.5858 142.696 22.4012L142.573 21.4473C141.989 21.5704 141.25 21.6473 140.712 21.6473C139.758 21.6473 139.188 21.4473 138.788 21.0781C138.342 20.6627 138.127 19.9857 138.127 19.1549H142.989C143.112 19.1549 143.173 19.1088 143.173 18.9857V18.6933C143.173 16.2163 142.158 14.7239 140.05 14.7239C138.127 14.7239 136.788 16.0317 136.788 18.7241C136.788 20.078 137.096 21.1089 137.773 21.7858C138.388 22.4012 139.296 22.6935 140.465 22.6935ZM138.127 18.2164C138.142 16.6933 138.773 15.7547 140.05 15.7547C141.312 15.7547 141.865 16.7702 141.912 18.2164H138.127ZM212.553 22.4781H213.83V16.3394C214.445 16.0471 215.153 15.8471 215.799 15.8471C216.322 15.8471 216.722 15.9701 216.984 16.2317C217.245 16.4932 217.353 16.8625 217.353 17.5087V22.4781H218.63V17.3548C218.63 16.9702 218.584 16.6317 218.522 16.3548C219.184 16.0317 219.938 15.8471 220.553 15.8471C221.076 15.8471 221.476 15.9701 221.738 16.2317C221.999 16.4932 222.107 16.8625 222.107 17.5087V22.4781H223.384V17.3548C223.384 16.4163 223.168 15.8009 222.753 15.3855C222.322 14.9393 221.676 14.7239 220.861 14.7239C220.014 14.7239 219.091 15.0009 218.153 15.5701C217.722 15.0009 217.06 14.7239 216.107 14.7239C215.276 14.7239 214.46 15.0009 213.676 15.4932L213.614 14.9393H212.553V22.4781ZM227.304 13.7239L230.243 11.6161L229.519 10.6468L226.812 13.0469L227.304 13.7239ZM228.535 22.6935C230.873 22.6935 231.966 21.2165 231.966 18.7087C231.966 16.2009 230.873 14.7239 228.535 14.7239C226.196 14.7239 225.104 16.2009 225.104 18.7087C225.104 21.2165 226.196 22.6935 228.535 22.6935ZM228.535 21.6473C226.996 21.6473 226.442 20.6319 226.442 18.7087C226.442 16.7856 226.996 15.7701 228.535 15.7701C230.073 15.7701 230.627 16.7856 230.627 18.7087C230.627 20.6319 230.073 21.6473 228.535 21.6473ZM235.494 22.4781H236.894L239.54 14.9393H238.248L236.232 21.1704L234.14 14.9393H232.801L235.494 22.4781ZM241.49 13.5085H241.567C242.029 13.5085 242.321 13.2777 242.321 12.6931V12.6623C242.321 12.0776 242.029 11.8469 241.567 11.8469H241.49C241.028 11.8469 240.736 12.0776 240.736 12.6623V12.6931C240.736 13.2777 241.028 13.5085 241.49 13.5085ZM240.89 22.4781H242.167V14.9393H240.89V22.4781ZM244.36 22.4781H245.637V11.4776H244.36V22.4781ZM253.987 26.1553C255.126 26.1553 255.926 25.8783 256.433 25.3244C256.91 24.8167 257.126 24.0782 257.126 23.0628V14.9393H255.849V21.0781C255.233 21.3704 254.449 21.5704 253.772 21.5704C253.218 21.5704 252.818 21.4473 252.556 21.1858C252.295 20.9242 252.187 20.555 252.187 19.9088V14.9393H250.91V20.0626C250.91 21.0012 251.125 21.6166 251.541 22.032C251.972 22.4781 252.618 22.6935 253.433 22.6935C254.249 22.6935 255.095 22.4474 255.849 22.0166V23.0474C255.849 23.8936 255.695 24.3705 255.372 24.6783C255.033 24.986 254.495 25.0937 253.803 25.0937C253.433 25.0937 252.726 25.0475 252.356 25.0013L252.464 26.0014C252.802 26.0783 253.479 26.1553 253.987 26.1553ZM265.035 22.6935C265.589 22.6935 266.189 22.6012 266.589 22.4935L266.528 21.555C266.158 21.632 265.651 21.6781 265.389 21.6781C264.851 21.6781 264.589 21.5704 264.42 21.3858C264.204 21.155 264.158 20.7858 264.158 20.0626V15.8778H266.143V14.9393H264.158V12.9392C263.758 12.9392 263.251 13.0469 262.881 13.17V14.9547L261.512 15.1547V15.8778H262.881V20.2319C262.881 21.1704 262.989 21.6781 263.358 22.1089C263.697 22.4935 264.297 22.6935 265.035 22.6935ZM268.67 13.5085H268.747C269.208 13.5085 269.501 13.2777 269.501 12.6931V12.6623C269.501 12.0776 269.208 11.8469 268.747 11.8469H268.67C268.208 11.8469 267.916 12.0776 267.916 12.6623V12.6931C267.916 13.2777 268.208 13.5085 268.67 13.5085ZM268.07 22.4781H269.347V14.9393H268.07V22.4781ZM274.802 22.6935C275.494 22.6935 276.387 22.5858 277.033 22.4012L276.91 21.4473C276.325 21.5704 275.587 21.6473 275.048 21.6473C274.094 21.6473 273.525 21.4473 273.125 21.0781C272.679 20.6627 272.463 19.9857 272.463 19.1549H277.325C277.448 19.1549 277.51 19.1088 277.51 18.9857V18.6933C277.51 16.2163 276.494 14.7239 274.386 14.7239C272.463 14.7239 271.125 16.0317 271.125 18.7241C271.125 20.078 271.432 21.1089 272.109 21.7858C272.725 22.4012 273.633 22.6935 274.802 22.6935ZM272.463 18.2164C272.479 16.6933 273.109 15.7547 274.386 15.7547C275.648 15.7547 276.202 16.7702 276.248 18.2164H272.463ZM279.308 22.4781H280.585V16.3394C281.2 16.0471 282.015 15.8471 282.692 15.8471C283.246 15.8471 283.646 15.9701 283.908 16.2317C284.169 16.4932 284.277 16.8625 284.277 17.5087V22.4781H285.554V17.3548C285.554 16.4163 285.339 15.8009 284.923 15.3855C284.492 14.9393 283.846 14.7239 283.031 14.7239C282.154 14.7239 281.215 15.0162 280.431 15.4932L280.369 14.9393H279.308V22.4781ZM290.953 22.6935C291.646 22.6935 292.538 22.5858 293.184 22.4012L293.061 21.4473C292.477 21.5704 291.738 21.6473 291.2 21.6473C290.246 21.6473 289.676 21.4473 289.276 21.0781C288.83 20.6627 288.615 19.9857 288.615 19.1549H293.477C293.6 19.1549 293.661 19.1088 293.661 18.9857V18.6933C293.661 16.2163 292.646 14.7239 290.538 14.7239C288.615 14.7239 287.276 16.0317 287.276 18.7241C287.276 20.078 287.584 21.1089 288.261 21.7858C288.876 22.4012 289.784 22.6935 290.953 22.6935ZM288.615 18.2164C288.63 16.6933 289.261 15.7547 290.538 15.7547C291.8 15.7547 292.354 16.7702 292.4 18.2164H288.615ZM297.444 22.6935C299.259 22.6935 300.49 21.9858 300.49 20.3857C300.49 17.6933 296.29 18.4933 296.29 16.8009C296.29 16.0932 296.859 15.7394 297.936 15.7394C298.552 15.7394 299.244 15.8317 299.921 15.9855L300.029 15.047C299.429 14.8624 298.582 14.7239 297.829 14.7239C296.229 14.7239 295.09 15.4317 295.09 16.8933C295.09 19.6626 299.29 18.7857 299.29 20.4781C299.29 21.2473 298.629 21.6627 297.398 21.6627C296.736 21.6627 295.905 21.555 295.29 21.3858L295.228 22.3705C295.798 22.5551 296.721 22.6935 297.444 22.6935ZM307.928 22.6935C308.805 22.6935 309.713 22.4012 310.497 21.9243L310.559 22.4781H311.621V14.9393H310.344V21.0781C309.728 21.3704 308.944 21.5704 308.267 21.5704C307.713 21.5704 307.313 21.4473 307.051 21.1858C306.79 20.9242 306.682 20.555 306.682 19.9088V14.9393H305.405V20.0626C305.405 21.0012 305.62 21.6166 306.036 22.032C306.466 22.4781 307.113 22.6935 307.928 22.6935ZM313.774 22.4781H315.051V16.3394C315.667 16.0471 316.482 15.8471 317.159 15.8471C317.713 15.8471 318.113 15.9701 318.375 16.2317C318.636 16.4932 318.744 16.8625 318.744 17.5087V22.4781H320.021V17.3548C320.021 16.4163 319.806 15.8009 319.39 15.3855C318.959 14.9393 318.313 14.7239 317.498 14.7239C316.621 14.7239 315.682 15.0162 314.898 15.4932L314.836 14.9393H313.774V22.4781ZM324.313 22.6935C325.22 22.6935 326.02 22.4012 326.682 21.9704L326.759 22.4781H327.79V17.4625C327.79 16.4779 327.605 15.8778 327.128 15.4163C326.651 14.9701 325.897 14.7239 324.774 14.7239C324.051 14.7239 323.189 14.8162 322.482 14.9855L322.528 15.9701C323.266 15.8471 323.989 15.7855 324.559 15.7855C325.313 15.7855 325.805 15.924 326.128 16.2317C326.405 16.5086 326.513 16.8933 326.513 17.5087V17.9856H324.943C323.851 17.9856 322.959 18.1856 322.389 18.7087C321.989 19.078 321.743 19.6319 321.743 20.3396C321.743 21.0473 321.974 21.5858 322.343 21.9704C322.805 22.4474 323.497 22.6935 324.313 22.6935ZM324.59 21.6627C323.605 21.6627 323.036 21.2165 323.036 20.3088C323.036 19.8473 323.189 19.5242 323.451 19.3088C323.805 19.0318 324.343 18.9241 325.128 18.9241H326.513V21.1704C325.959 21.4473 325.205 21.6627 324.59 21.6627ZM73.9688 46.4781H75.2458V35.4776H73.9688V46.4781ZM76.8552 37.7239L79.7938 35.6161L79.0707 34.6468L76.3629 37.0469L76.8552 37.7239ZM77.4399 46.4781H78.7168V38.9393H77.4399V46.4781ZM80.8948 46.4781H82.1718V40.3394C82.7872 40.0471 83.6027 39.8471 84.2796 39.8471C84.8335 39.8471 85.2335 39.9701 85.4951 40.2317C85.7566 40.4932 85.8643 40.8625 85.8643 41.5087V46.4781H87.1413V41.3548C87.1413 40.4163 86.9259 39.8009 86.5105 39.3855C86.0797 38.9393 85.4335 38.7239 84.6181 38.7239C83.7411 38.7239 82.8026 39.0162 82.018 39.4932L81.9564 38.9393H80.8948V46.4781ZM92.5407 46.6935C93.2331 46.6935 94.1254 46.5858 94.7716 46.4012L94.6485 45.4473C94.0639 45.5704 93.3254 45.6473 92.7869 45.6473C91.833 45.6473 91.2637 45.4473 90.8637 45.0781C90.4175 44.6627 90.2021 43.9857 90.2021 43.1549H95.0639C95.187 43.1549 95.2485 43.1088 95.2485 42.9857V42.6933C95.2485 40.2163 94.2331 38.7239 92.1253 38.7239C90.2021 38.7239 88.8636 40.0317 88.8636 42.7241C88.8636 44.078 89.1713 45.1089 89.8483 45.7858C90.4637 46.4012 91.3714 46.6935 92.5407 46.6935ZM90.2021 42.2164C90.2175 40.6933 90.8483 39.7547 92.1253 39.7547C93.3869 39.7547 93.9408 40.7702 93.9869 42.2164H90.2021ZM99.2158 46.6935C100.124 46.6935 100.924 46.4012 101.585 45.9704L101.662 46.4781H102.693V41.4625C102.693 40.4779 102.508 39.8778 102.031 39.4163C101.554 38.9701 100.8 38.7239 99.6774 38.7239C98.9542 38.7239 98.0927 38.8162 97.3849 38.9855L97.4311 39.9701C98.1696 39.8471 98.8927 39.7855 99.462 39.7855C100.216 39.7855 100.708 39.924 101.031 40.2317C101.308 40.5086 101.416 40.8933 101.416 41.5087V41.9856H99.8466C98.7542 41.9856 97.8619 42.1856 97.2926 42.7087C96.8926 43.078 96.6464 43.6319 96.6464 44.3396C96.6464 45.0473 96.8772 45.5858 97.2465 45.9704C97.708 46.4474 98.4004 46.6935 99.2158 46.6935ZM99.4927 45.6627C98.5081 45.6627 97.9388 45.2165 97.9388 44.3088C97.9388 43.8473 98.0927 43.5242 98.3542 43.3088C98.7081 43.0318 99.2466 42.9241 100.031 42.9241H101.416V45.1704C100.862 45.4473 100.108 45.6627 99.4927 45.6627ZM110.985 46.6935C113.324 46.6935 114.416 45.2165 114.416 42.7087C114.416 40.2009 113.324 38.7239 110.985 38.7239C108.647 38.7239 107.554 40.2009 107.554 42.7087C107.554 45.2165 108.647 46.6935 110.985 46.6935ZM110.985 45.6473C109.447 45.6473 108.893 44.6319 108.893 42.7087C108.893 40.7856 109.447 39.7701 110.985 39.7701C112.524 39.7701 113.078 40.7856 113.078 42.7087C113.078 44.6319 112.524 45.6473 110.985 45.6473ZM119.313 46.4781H120.59V40.3394C121.206 40.0471 121.913 39.8471 122.559 39.8471C123.083 39.8471 123.483 39.9701 123.744 40.2317C124.006 40.4932 124.113 40.8625 124.113 41.5087V46.4781H125.39V41.3548C125.39 40.9702 125.344 40.6317 125.283 40.3548C125.944 40.0317 126.698 39.8471 127.314 39.8471C127.837 39.8471 128.237 39.9701 128.498 40.2317C128.76 40.4932 128.867 40.8625 128.867 41.5087V46.4781H130.144V41.3548C130.144 40.4163 129.929 39.8009 129.514 39.3855C129.083 38.9393 128.437 38.7239 127.621 38.7239C126.775 38.7239 125.852 39.0009 124.913 39.5701C124.483 39.0009 123.821 38.7239 122.867 38.7239C122.036 38.7239 121.221 39.0009 120.436 39.4932L120.375 38.9393H119.313V46.4781ZM133.942 37.7239L136.88 35.6161L136.157 34.6468L133.449 37.0469L133.942 37.7239ZM134.434 46.6935C135.342 46.6935 136.142 46.4012 136.803 45.9704L136.88 46.4781H137.911V41.4625C137.911 40.4779 137.726 39.8778 137.249 39.4163C136.772 38.9701 136.019 38.7239 134.895 38.7239C134.172 38.7239 133.311 38.8162 132.603 38.9855L132.649 39.9701C133.388 39.8471 134.111 39.7855 134.68 39.7855C135.434 39.7855 135.926 39.924 136.249 40.2317C136.526 40.5086 136.634 40.8933 136.634 41.5087V41.9856H135.065C133.972 41.9856 133.08 42.1856 132.511 42.7087C132.111 43.078 131.865 43.6319 131.865 44.3396C131.865 45.0473 132.095 45.5858 132.465 45.9704C132.926 46.4474 133.618 46.6935 134.434 46.6935ZM134.711 45.6627C133.726 45.6627 133.157 45.2165 133.157 44.3088C133.157 43.8473 133.311 43.5242 133.572 43.3088C133.926 43.0318 134.465 42.9241 135.249 42.9241H136.634V45.1704C136.08 45.4473 135.326 45.6627 134.711 45.6627ZM142.017 46.6935C143.833 46.6935 145.063 45.9858 145.063 44.3857C145.063 41.6933 140.863 42.4933 140.863 40.8009C140.863 40.0932 141.432 39.7394 142.509 39.7394C143.125 39.7394 143.817 39.8317 144.494 39.9855L144.602 39.047C144.002 38.8624 143.156 38.7239 142.402 38.7239C140.802 38.7239 139.663 39.4317 139.663 40.8933C139.663 43.6626 143.863 42.7857 143.863 44.4781C143.863 45.2473 143.202 45.6627 141.971 45.6627C141.309 45.6627 140.479 45.555 139.863 45.3858L139.802 46.3705C140.371 46.5551 141.294 46.6935 142.017 46.6935ZM153.347 46.6935C153.901 46.6935 154.747 46.5858 155.24 46.4474L155.147 45.4935C154.763 45.5704 154.086 45.6473 153.578 45.6473C152.655 45.6473 152.009 45.4319 151.578 44.9396C151.163 44.4627 150.947 43.7396 150.947 42.7857C150.947 40.7856 151.747 39.7547 153.517 39.7547C153.994 39.7547 154.609 39.8471 155.086 39.9394L155.163 38.9547C154.64 38.8162 153.947 38.7239 153.363 38.7239C152.209 38.7239 151.24 39.0624 150.593 39.7547C149.947 40.4471 149.609 41.4779 149.609 42.801C149.609 44.1242 149.978 45.1089 150.609 45.755C151.224 46.3858 152.117 46.6935 153.347 46.6935ZM159.876 46.6935C162.215 46.6935 163.307 45.2165 163.307 42.7087C163.307 40.2009 162.215 38.7239 159.876 38.7239C157.537 38.7239 156.445 40.2009 156.445 42.7087C156.445 45.2165 157.537 46.6935 159.876 46.6935ZM159.876 45.6473C158.337 45.6473 157.784 44.6319 157.784 42.7087C157.784 40.7856 158.337 39.7701 159.876 39.7701C161.415 39.7701 161.968 40.7856 161.968 42.7087C161.968 44.6319 161.415 45.6473 159.876 45.6473ZM165.064 46.4781H166.341V40.3394C166.956 40.0471 167.771 39.8471 168.448 39.8471C169.002 39.8471 169.402 39.9701 169.664 40.2317C169.925 40.4932 170.033 40.8625 170.033 41.5087V46.4781H171.31V41.3548C171.31 40.4163 171.095 39.8009 170.679 39.3855C170.248 38.9393 169.602 38.7239 168.787 38.7239C167.91 38.7239 166.971 39.0162 166.187 39.4932L166.125 38.9393H165.064V46.4781ZM179.603 46.6935C181.942 46.6935 183.034 45.2165 183.034 42.7087C183.034 40.2009 181.942 38.7239 179.603 38.7239C177.265 38.7239 176.173 40.2009 176.173 42.7087C176.173 45.2165 177.265 46.6935 179.603 46.6935ZM179.603 45.6473C178.065 45.6473 177.511 44.6319 177.511 42.7087C177.511 40.7856 178.065 39.7701 179.603 39.7701C181.142 39.7701 181.696 40.7856 181.696 42.7087C181.696 44.6319 181.142 45.6473 179.603 45.6473ZM187.407 46.6935C187.961 46.6935 188.561 46.6012 188.961 46.4935L188.899 45.555C188.53 45.632 188.022 45.6781 187.761 45.6781C187.222 45.6781 186.96 45.5704 186.791 45.3858C186.576 45.155 186.53 44.7858 186.53 44.0626V39.8778H188.514V38.9393H186.53V36.9392C186.13 36.9392 185.622 37.0469 185.253 37.17V38.9547L183.883 39.1547V39.8778H185.253V44.2319C185.253 45.1704 185.36 45.6781 185.73 46.1089C186.068 46.4935 186.668 46.6935 187.407 46.6935ZM190.41 46.4781H191.687V40.3855C192.226 40.0471 192.857 39.8778 193.518 39.8778C193.734 39.8778 194.011 39.8932 194.18 39.9086V38.7701C194.011 38.7393 193.826 38.7239 193.687 38.7239C193.026 38.7239 192.272 38.9855 191.549 39.5855L191.472 38.9393H190.41V46.4781ZM198.249 46.6935C200.588 46.6935 201.68 45.2165 201.68 42.7087C201.68 40.2009 200.588 38.7239 198.249 38.7239C195.911 38.7239 194.818 40.2009 194.818 42.7087C194.818 45.2165 195.911 46.6935 198.249 46.6935ZM198.249 45.6473C196.711 45.6473 196.157 44.6319 196.157 42.7087C196.157 40.7856 196.711 39.7701 198.249 39.7701C199.788 39.7701 200.342 40.7856 200.342 42.7087C200.342 44.6319 199.788 45.6473 198.249 45.6473Z" fill="#019DF4"/>
<path d="M148.173 22.4781H150.188V16.3548L152.435 20.078H154.281L156.466 16.4163V22.4781H158.666V11.9546H156.819L153.388 17.8318L150.065 11.9546H148.173V22.4781ZM164.175 22.6935C166.79 22.6935 168.006 21.1242 168.006 18.7087C168.006 16.2932 166.79 14.7239 164.175 14.7239C161.559 14.7239 160.344 16.2932 160.344 18.7087C160.344 21.1242 161.559 22.6935 164.175 22.6935ZM164.175 21.0165C163.067 21.0165 162.636 20.2627 162.636 18.7087C162.636 17.1548 163.067 16.4009 164.175 16.4009C165.283 16.4009 165.713 17.1548 165.713 18.7087C165.713 20.2627 165.283 21.0165 164.175 21.0165ZM171.396 22.4781H173.95L176.55 14.9393H174.35L172.75 20.1703L171.073 14.9393H168.704L171.396 22.4781ZM178.724 13.6777H178.831C179.585 13.6777 179.985 13.3854 179.985 12.6315V12.4315C179.985 11.6776 179.585 11.3699 178.831 11.3699H178.724C177.97 11.3699 177.57 11.6776 177.57 12.4315V12.6315C177.57 13.3854 177.97 13.6777 178.724 13.6777ZM177.678 22.4781H179.878V14.9393H177.678V22.4781ZM184.209 22.6935C186.471 22.6935 187.61 21.7858 187.61 20.2165C187.61 17.0933 183.486 18.3087 183.486 17.0317C183.486 16.6009 183.917 16.4163 184.702 16.4163C185.317 16.4163 186.24 16.5394 187.025 16.7548L187.194 15.1393C186.379 14.8624 185.44 14.7239 184.686 14.7239C182.425 14.7239 181.409 15.7547 181.409 17.1548C181.409 20.278 185.517 18.9703 185.517 20.3088C185.517 20.8473 184.994 21.0012 184.163 21.0012C183.348 21.0012 182.302 20.8319 181.732 20.6473L181.563 22.2781C182.163 22.4935 183.317 22.6935 184.209 22.6935ZM192.019 22.6935C192.681 22.6935 193.45 22.6166 193.942 22.5089L193.865 20.955C193.604 20.9858 193.112 21.0473 192.804 21.0473C191.912 21.0473 191.742 20.7396 191.742 19.8934V16.3702H193.696V14.9393H191.742V12.9392C191.035 12.9392 190.204 13.0623 189.542 13.2623V14.9393L188.265 15.1701V16.3702H189.542V20.2011C189.542 21.8627 190.142 22.6935 192.019 22.6935ZM197.425 22.6935C198.225 22.6935 199.041 22.432 199.687 22.0166L199.871 22.4781H201.61V17.5856C201.61 16.6779 201.41 16.0317 201.025 15.5855C200.502 14.9701 199.471 14.7239 198.317 14.7239C197.41 14.7239 196.41 14.847 195.64 15.0009L195.748 16.6163C196.271 16.5086 197.148 16.4163 197.856 16.4163C198.456 16.4163 198.871 16.4932 199.133 16.724C199.318 16.8933 199.41 17.1548 199.41 17.5702V17.8164H198.21C196.81 17.8164 195.979 18.001 195.44 18.5087C195.01 18.9241 194.779 19.5395 194.779 20.2165C194.779 21.6781 195.702 22.6935 197.425 22.6935ZM198.056 21.0165C197.256 21.0165 196.979 20.6781 196.979 20.1242C196.979 19.8473 197.056 19.6319 197.194 19.4934C197.394 19.2934 197.717 19.2318 198.241 19.2318H199.41V20.7858C199.056 20.8935 198.471 21.0165 198.056 21.0165ZM203.414 22.4781H205.614V16.8163C206.091 16.7086 206.537 16.6317 207.122 16.6317C207.476 16.6317 207.845 16.6625 208.091 16.6933V14.7701C207.999 14.7547 207.829 14.7393 207.706 14.7393C206.983 14.7393 205.983 15.0162 205.399 15.5547L205.322 14.9393H203.414V22.4781ZM214.878 46.7956C219.616 46.7956 221.748 43.9841 221.748 38.7466C221.748 33.5091 219.616 30.6749 214.878 30.6749C210.139 30.6749 208.008 33.5091 208.008 38.7466C208.008 43.9841 210.139 46.7956 214.878 46.7956ZM214.878 44.0294C212.588 44.0294 211.681 42.4877 211.681 38.7466C211.681 35.0055 212.588 33.4411 214.878 33.4411C217.168 33.4411 218.075 35.0055 218.075 38.7466C218.075 42.4877 217.168 44.0294 214.878 44.0294ZM224.452 46.4781H227.989V41.1273H230.483C232.524 41.1273 233.93 40.6511 234.837 39.6309C235.608 38.7693 235.993 37.5222 235.993 35.8671C235.993 34.212 235.585 33.0103 234.746 32.2394C233.748 31.3098 232.207 30.9697 229.781 30.9697H224.452V46.4781ZM227.989 38.4745V33.5318H229.645C230.733 33.5318 231.39 33.6905 231.821 34.0759C232.229 34.4614 232.411 35.0735 232.411 35.9125C232.411 36.8194 232.207 37.4769 231.799 37.885C231.345 38.3158 230.869 38.4745 229.735 38.4745H227.989ZM238.49 46.4781H249.079V43.9161H242.027V39.9483H247.355V37.2955H242.027V33.5318H248.693L248.965 30.9697H238.49V46.4781ZM251.709 46.4781H255.246V40.8552H257.196L260.053 46.4781H264.043L260.688 40.3791C262.433 39.5628 263.318 37.885 263.318 35.7764C263.318 34.1439 262.819 32.9649 262.025 32.2167C261.005 31.2645 259.531 30.9697 257.037 30.9697H251.709V46.4781ZM255.246 38.2931V33.5318H256.833C257.989 33.5318 258.738 33.6678 259.191 34.0986C259.554 34.4614 259.735 35.0282 259.735 35.8218C259.735 36.6833 259.531 37.3635 259.078 37.749C258.624 38.1344 257.989 38.2931 256.81 38.2931H255.246ZM264.847 46.4781H268.225L269.427 42.5784H274.46L275.752 46.4781H279.539L273.939 30.9697H270.039L264.847 46.4781ZM270.243 40.0163L271.853 34.8468H271.898L273.598 40.0163H270.243ZM281.335 46.4781H286.595C289.361 46.4781 291.152 45.9113 292.308 44.7323C293.578 43.4173 294.19 41.4674 294.19 38.6559C294.19 35.8671 293.555 33.9399 292.308 32.7155C291.016 31.4232 289.066 30.9697 286.119 30.9697H281.335V46.4781ZM284.872 43.8934V33.5544H285.96C287.683 33.5544 288.726 33.8265 289.429 34.5747C290.177 35.391 290.517 36.4339 290.517 38.6559C290.517 40.5605 290.313 41.6034 289.701 42.5103C289.089 43.4173 287.955 43.8934 286.368 43.8934H284.872ZM303.091 46.7956C307.829 46.7956 309.961 43.9841 309.961 38.7466C309.961 33.5091 307.829 30.6749 303.091 30.6749C298.352 30.6749 296.221 33.5091 296.221 38.7466C296.221 43.9841 298.352 46.7956 303.091 46.7956ZM303.091 44.0294C300.801 44.0294 299.894 42.4877 299.894 38.7466C299.894 35.0055 300.801 33.4411 303.091 33.4411C305.381 33.4411 306.287 35.0055 306.287 38.7466C306.287 42.4877 305.381 44.0294 303.091 44.0294ZM312.665 46.4781H316.202V40.8552H318.152L321.009 46.4781H324.999L321.644 40.3791C323.39 39.5628 324.274 37.885 324.274 35.7764C324.274 34.1439 323.775 32.9649 322.982 32.2167C321.961 31.2645 320.487 30.9697 317.993 30.9697H312.665V46.4781ZM316.202 38.2931V33.5318H317.789C318.946 33.5318 319.694 33.6678 320.147 34.0986C320.51 34.4614 320.692 35.0282 320.692 35.8218C320.692 36.6833 320.487 37.3635 320.034 37.749C319.581 38.1344 318.946 38.2931 317.767 38.2931H316.202Z" fill="white"/>
<path d="M337.056 36.986L335.893 37.1973L336.07 38.1673H337.056V36.986ZM341.721 36.986V38.1673H342.698L342.881 37.207L341.721 36.986ZM331.872 15.6868L331.446 14.5849L330.534 14.9373L330.71 15.8992L331.872 15.6868ZM332.767 20.5875L331.605 20.7998L331.845 22.1134L333.12 21.7151L332.767 20.5875ZM341.344 20.776L342.179 19.9407L342.165 19.9263L342.15 19.9124L341.344 20.776ZM339.977 29.0224L339.019 28.3307L339.01 28.3433L339.002 28.3561L339.977 29.0224ZM337.056 38.1673H341.721V35.8046H337.056V38.1673ZM342.881 37.207C343.37 34.6403 345.005 33.0934 346.88 31.0453C348.722 29.0332 350.63 26.6534 350.63 22.6609H348.267C348.267 25.7367 346.876 27.5507 345.137 29.4497C343.432 31.3128 341.202 33.3943 340.56 36.7649L342.881 37.207ZM350.63 22.6609C350.63 19.7403 349.702 17.2784 347.7 15.5713C345.729 13.891 342.891 13.0918 339.365 13.0918V15.4546C342.576 15.4546 344.78 16.1868 346.167 17.3692C347.522 18.5248 348.267 20.2567 348.267 22.6609H350.63ZM339.365 13.0918C336.806 13.0918 333.646 13.7349 331.446 14.5849L332.298 16.7888C334.245 16.0366 337.117 15.4546 339.365 15.4546V13.0918ZM330.71 15.8992L331.605 20.7998L333.93 20.3752L333.034 15.4745L330.71 15.8992ZM333.12 21.7151C334.559 21.2655 336.319 20.9207 337.668 20.9207V18.558C336.001 18.558 333.992 18.9671 332.415 19.4599L333.12 21.7151ZM337.668 20.9207C339.375 20.9207 340.148 21.2756 340.538 21.6397L342.15 19.9124C341.126 18.957 339.637 18.558 337.668 18.558V20.9207ZM340.508 21.6114C340.837 21.9401 341.105 22.4964 341.105 23.5091H343.467C343.467 22.0714 343.076 20.8371 342.179 19.9407L340.508 21.6114ZM341.105 23.5091C341.105 25.2573 340.25 26.6273 339.019 28.3307L340.935 29.714C342.155 28.0246 343.467 26.0961 343.467 23.5091H341.105ZM339.002 28.3561C338.372 29.2784 337.552 30.4022 336.915 31.5644C336.274 32.733 335.733 34.0822 335.733 35.5252H338.096C338.096 34.6592 338.426 33.723 338.987 32.7004C339.551 31.6714 340.263 30.6984 340.953 29.6886L339.002 28.3561ZM335.733 35.5252C335.733 36.1796 335.79 36.6296 335.893 37.1973L338.218 36.7746C338.133 36.3056 338.096 36.0017 338.096 35.5252H335.733ZM339.27 48.9583H339.6V46.5955H339.27V48.9583ZM339.6 48.9583C340.851 48.9583 342.063 48.7171 342.958 47.9137C343.88 47.0857 344.221 45.8848 344.221 44.5255H341.859C341.859 45.5223 341.611 45.9471 341.379 46.1557C341.119 46.389 340.612 46.5955 339.6 46.5955V48.9583ZM344.221 44.5255V43.96H341.859V44.5255H344.221ZM344.221 43.96C344.221 42.6007 343.88 41.3998 342.958 40.5718C342.063 39.7684 340.851 39.5272 339.6 39.5272V41.89C340.612 41.89 341.119 42.0965 341.379 42.3298C341.611 42.5384 341.859 42.9632 341.859 43.96H344.221ZM339.6 39.5272H339.27V41.89H339.6V39.5272ZM339.27 39.5272C338.02 39.5272 336.808 39.7684 335.913 40.5718C334.991 41.3998 334.649 42.6007 334.649 43.96H337.012C337.012 42.9632 337.259 42.5384 337.491 42.3298C337.751 42.0965 338.259 41.89 339.27 41.89V39.5272ZM334.649 43.96V44.5255H337.012V43.96H334.649ZM334.649 44.5255C334.649 45.8848 334.991 47.0857 335.913 47.9137C336.808 48.7171 338.02 48.9583 339.27 48.9583V46.5955C338.259 46.5955 337.751 46.389 337.491 46.1557C337.259 45.9471 337.012 45.5223 337.012 44.5255H334.649Z" fill="white"/>
<path d="M61.165 22.0415L62.3273 21.8301L62.1509 20.8601H61.165V22.0415ZM56.4999 22.0415V20.8601H55.5223L55.3394 21.8204L56.4999 22.0415ZM66.3484 43.3406L66.7742 44.4426L67.6863 44.0902L67.5105 43.1283L66.3484 43.3406ZM65.4531 38.4399L66.6152 38.2276L66.3752 36.914L65.1007 37.3123L65.4531 38.4399ZM56.8769 38.2514L56.0415 39.0868L56.0559 39.1012L56.0708 39.1151L56.8769 38.2514ZM58.2434 30.0051L59.2011 30.6968L59.2102 30.6842L59.219 30.6713L58.2434 30.0051ZM58.9503 10.0692H58.6204V12.4319H58.9503V10.0692ZM58.6204 10.0692C57.37 10.0692 56.1577 10.3103 55.263 11.1137C54.3408 11.9418 53.9991 13.1427 53.9991 14.5019H56.3619C56.3619 13.5051 56.6092 13.0803 56.8416 12.8717C57.1013 12.6384 57.609 12.4319 58.6204 12.4319V10.0692ZM53.9991 14.5019V15.0674H56.3619V14.5019H53.9991ZM53.9991 15.0674C53.9991 16.4267 54.3408 17.6276 55.263 18.4557C56.1577 19.2591 57.37 19.5002 58.6204 19.5002V17.1375C57.609 17.1375 57.1013 16.9309 56.8416 16.6977C56.6092 16.489 56.3619 16.0642 56.3619 15.0674H53.9991ZM58.6204 19.5002H58.9503V17.1375H58.6204V19.5002ZM58.9503 19.5002C60.2007 19.5002 61.413 19.2591 62.3077 18.4557C63.2299 17.6276 63.5715 16.4267 63.5715 15.0674H61.2088C61.2088 16.0642 60.9614 16.489 60.7291 16.6977C60.4693 16.9309 59.9617 17.1375 58.9503 17.1375V19.5002ZM63.5715 15.0674V14.5019H61.2088V15.0674H63.5715ZM63.5715 14.5019C63.5715 13.1427 63.2299 11.9418 62.3077 11.1137C61.413 10.3103 60.2007 10.0692 58.9503 10.0692V12.4319C59.9617 12.4319 60.4693 12.6384 60.7291 12.8717C60.9614 13.0803 61.2088 13.5051 61.2088 14.5019H63.5715ZM61.165 20.8601H56.4999V23.2228H61.165V20.8601ZM55.3394 21.8204C54.8505 24.3872 53.2159 25.934 51.3405 27.9821C49.4981 29.9942 47.5905 32.374 47.5905 36.3665H49.9533C49.9533 33.2908 51.3442 31.4767 53.0831 29.5777C54.789 27.7147 57.0184 25.6331 57.6604 22.2625L55.3394 21.8204ZM47.5905 36.3665C47.5905 39.2871 48.5184 41.7491 50.5206 43.4561C52.4912 45.1364 55.3292 45.9356 58.856 45.9356V43.5729C55.6443 43.5729 53.4403 42.8406 52.0535 41.6582C50.6982 40.5026 49.9533 38.7707 49.9533 36.3665H47.5905ZM58.856 45.9356C61.4145 45.9356 64.5743 45.2925 66.7742 44.4426L65.9226 42.2386C63.9758 42.9908 61.104 43.5729 58.856 43.5729V45.9356ZM67.5105 43.1283L66.6152 38.2276L64.291 38.6522L65.1863 43.5529L67.5105 43.1283ZM65.1007 37.3123C63.6618 37.762 61.9013 38.1067 60.5524 38.1067V40.4695C62.2193 40.4695 64.2285 40.0603 65.8055 39.5675L65.1007 37.3123ZM60.5524 38.1067C58.8455 38.1067 58.0731 37.7519 57.683 37.3878L56.0708 39.1151C57.0944 40.0704 58.5838 40.4695 60.5524 40.4695V38.1067ZM57.7122 37.4161C57.3835 37.0874 57.1158 36.531 57.1158 35.5183H54.7531C54.7531 36.956 55.1451 38.1903 56.0415 39.0868L57.7122 37.4161ZM57.1158 35.5183C57.1158 33.7701 57.9709 32.4001 59.2011 30.6968L57.2857 29.3134C56.0656 31.0028 54.7531 32.9314 54.7531 35.5183H57.1158ZM59.219 30.6713C59.8488 29.7491 60.6682 28.6252 61.3055 27.4631C61.9464 26.2944 62.4877 24.9452 62.4877 23.5022H60.125C60.125 24.3682 59.7946 25.3045 59.2338 26.327C58.6695 27.356 57.9574 28.3291 57.2678 29.3388L59.219 30.6713ZM62.4877 23.5022C62.4877 22.8478 62.4305 22.3978 62.3273 21.8301L60.0027 22.2528C60.0879 22.7218 60.125 23.0257 60.125 23.5022H62.4877Z" fill="white"/>
<path d="M8.46376 78.5477L8.88027 78.5282L8.86166 78.1307H8.46376V78.5477ZM3.9781 78.5477V78.1307H3.5802L3.5616 78.5282L3.9781 78.5477ZM3.04712 98.4369L2.63061 98.4174L2.61018 98.8539H3.04712V98.4369ZM9.39475 98.4369V98.8539H9.83168L9.81125 98.4174L9.39475 98.4369ZM6.26325 68.4823H5.96703V69.3162H6.26325V68.4823ZM5.96703 68.4823C4.90923 68.4823 4.01258 68.6894 3.38214 69.2555C2.74202 69.8303 2.46089 70.6973 2.46089 71.8192H3.29481C3.29481 70.8252 3.54265 70.2322 3.93931 69.876C4.34564 69.5111 4.99359 69.3162 5.96703 69.3162V68.4823ZM2.46089 71.8192V72.327H3.29481V71.8192H2.46089ZM2.46089 72.327C2.46089 73.4489 2.74202 74.3158 3.38214 74.8906C4.01258 75.4567 4.90922 75.6639 5.96703 75.6639V74.8299C4.99359 74.8299 4.34564 74.635 3.93931 74.2702C3.54265 73.914 3.29481 73.321 3.29481 72.327H2.46089ZM5.96703 75.6639H6.26325V74.8299H5.96703V75.6639ZM6.26325 75.6639C7.32105 75.6639 8.2177 75.4567 8.84814 74.8906C9.48826 74.3158 9.76939 73.4489 9.76939 72.327H8.93546C8.93546 73.321 8.68763 73.914 8.29097 74.2702C7.88463 74.635 7.23669 74.8299 6.26325 74.8299V75.6639ZM9.76939 72.327V71.8192H8.93546V72.327H9.76939ZM9.76939 71.8192C9.76939 70.6973 9.48826 69.8303 8.84814 69.2555C8.2177 68.6894 7.32105 68.4823 6.26325 68.4823V69.3162C7.23669 69.3162 7.88463 69.5111 8.29097 69.876C8.68763 70.2322 8.93546 70.8252 8.93546 71.8192H9.76939ZM8.46376 78.1307H3.9781V78.9646H8.46376V78.1307ZM3.5616 78.5282L2.63061 98.4174L3.46363 98.4564L4.39461 78.5672L3.5616 78.5282ZM3.04712 98.8539H9.39475V98.0199H3.04712V98.8539ZM9.81125 98.4174L8.88027 78.5282L8.04725 78.5672L8.97824 98.4564L9.81125 98.4174ZM15.4055 90.2273H14.9885V90.6443H15.4055V90.2273ZM20.9491 90.2273V90.6443H21.366V90.2273H20.9491ZM20.9491 73.3849L21.3061 73.1695L20.5321 71.8866V73.3849H20.9491ZM27.1274 83.6258L26.7704 83.8412L26.892 84.0427H27.1274V83.6258ZM32.2055 83.6258V84.0427H32.4423L32.5636 83.8394L32.2055 83.6258ZM38.2146 73.5542H38.6316V72.0416L37.8565 73.3406L38.2146 73.5542ZM38.2146 90.2273H37.7977V90.6443H38.2146V90.2273ZM44.266 90.2273V90.6443H44.683V90.2273H44.266ZM44.266 61.2821H44.683V60.8652H44.266V61.2821ZM39.1879 61.2821V60.8652H38.9485L38.8278 61.0719L39.1879 61.2821ZM29.7511 77.4474L29.3882 77.6526L29.7454 78.2843L30.1112 77.6576L29.7511 77.4474ZM20.6105 61.2821L20.9735 61.0769L20.8538 60.8652H20.6105V61.2821ZM15.4055 61.2821V60.8652H14.9885V61.2821H15.4055ZM15.4055 90.6443H20.9491V89.8103H15.4055V90.6443ZM21.366 90.2273V73.3849H20.5321V90.2273H21.366ZM20.5921 73.6003L26.7704 83.8412L27.4845 83.4104L21.3061 73.1695L20.5921 73.6003ZM27.1274 84.0427H32.2055V83.2088H27.1274V84.0427ZM32.5636 83.8394L38.5727 73.7678L37.8565 73.3406L31.8475 83.4121L32.5636 83.8394ZM37.7977 73.5542V90.2273H38.6316V73.5542H37.7977ZM38.2146 90.6443H44.266V89.8103H38.2146V90.6443ZM44.683 90.2273V61.2821H43.8491V90.2273H44.683ZM44.266 60.8652H39.1879V61.6991H44.266V60.8652ZM38.8278 61.0719L29.391 77.2372L30.1112 77.6576L39.548 61.4923L38.8278 61.0719ZM30.1141 77.2422L20.9735 61.0769L20.2476 61.4874L29.3882 77.6526L30.1141 77.2422ZM20.6105 60.8652H15.4055V61.6991H20.6105V60.8652ZM14.9885 61.2821V90.2273H15.8224V61.2821H14.9885ZM49.8552 66.5718L49.5307 66.8336L49.7711 67.1317L50.0885 66.9174L49.8552 66.5718ZM58.4457 60.7743L58.6789 61.1199L59.0392 60.8768L58.7814 60.527L58.4457 60.7743ZM55.4835 56.7542L55.8191 56.5068L55.542 56.1307L55.1997 56.4487L55.4835 56.7542ZM47.7394 63.9481L47.4556 63.6426L47.1707 63.9072L47.4148 64.2099L47.7394 63.9481ZM50.0668 90.2273H49.6499V90.6443H50.0668V90.2273ZM56.1182 90.2273V90.6443H56.5352V90.2273H56.1182ZM56.1182 69.4917H56.5352V69.0748H56.1182V69.4917ZM50.0668 69.4917V69.0748H49.6499V69.4917H50.0668ZM50.0885 66.9174L58.6789 61.1199L58.2124 60.4287L49.622 66.2262L50.0885 66.9174ZM58.7814 60.527L55.8191 56.5068L55.1478 57.0015L58.11 61.0217L58.7814 60.527ZM55.1997 56.4487L47.4556 63.6426L48.0231 64.2536L55.7672 57.0596L55.1997 56.4487ZM47.4148 64.2099L49.5307 66.8336L50.1798 66.3101L48.0639 63.6864L47.4148 64.2099ZM50.0668 90.6443H56.1182V89.8103H50.0668V90.6443ZM56.5352 90.2273V69.4917H55.7013V90.2273H56.5352ZM56.1182 69.0748H50.0668V69.9087H56.1182V69.0748ZM49.6499 69.4917V90.2273H50.4838V69.4917H49.6499ZM79.4586 89.0847L79.7594 88.796L79.7576 88.7941L79.4586 89.0847ZM67.5251 84.6837L67.587 84.2714L67.3026 84.2287L67.1617 84.4793L67.5251 84.6837ZM75.9886 70.1688L75.6498 69.9258L75.3775 70.3054L75.7855 70.533L75.9886 70.1688ZM78.9931 65.9794L79.332 66.2224L79.5686 65.8925L79.2452 65.6472L78.9931 65.9794ZM74.2959 63.8635L74.392 63.4578L74.0402 63.3744L73.9079 63.7108L74.2959 63.8635ZM72.2647 69.0262L72.2129 69.44L72.5342 69.4801L72.6527 69.1789L72.2647 69.0262ZM64.0551 83.3719L64.3212 83.6928L64.7567 83.3317L64.2828 83.0226L64.0551 83.3719ZM62.3624 91.116L62.5531 91.4868L63.1166 91.1969L62.6274 90.7941L62.3624 91.116ZM65.8747 91.92V91.503H65.6913L65.5674 91.6382L65.8747 91.92ZM70.1065 100.758H70.445V99.9242H70.1065V100.758ZM70.445 100.758C74.203 100.758 76.9379 100.12 78.7432 98.8754C80.5772 97.611 81.399 95.7579 81.399 93.4857H80.5651C80.5651 95.53 79.8424 97.1046 78.2698 98.1888C76.6685 99.2928 74.1349 99.9242 70.445 99.9242V100.758ZM81.399 93.4857C81.399 91.4165 80.8666 89.9492 79.7594 88.796L79.1578 89.3735C80.082 90.3361 80.5651 91.5772 80.5651 93.4857H81.399ZM79.7576 88.7941C78.1534 87.144 75.6342 86.4673 71.6299 86.4673V87.3012C75.5813 87.3012 77.8017 87.9786 79.1597 89.3754L79.7576 88.7941ZM71.6299 86.4673H67.5674V87.3012H71.6299V86.4673ZM67.5674 86.4673C67.3975 86.4673 67.3798 86.4308 67.3988 86.4488C67.4237 86.4724 67.3919 86.4727 67.3919 86.3341H66.558C66.558 86.5763 66.6108 86.8517 66.8262 87.0551C67.0357 87.253 67.3141 87.3012 67.5674 87.3012V86.4673ZM67.3919 86.3341C67.3919 86.1324 67.5295 85.5264 67.8885 84.8881L67.1617 84.4793C66.759 85.1951 66.558 85.9433 66.558 86.3341H67.3919ZM67.4632 85.0961C68.3378 85.2272 69.2491 85.2699 70.2334 85.2699V84.436C69.2712 84.436 68.4051 84.3941 67.587 84.2714L67.4632 85.0961ZM70.2334 85.2699C73.2019 85.2699 75.6403 84.6476 77.3423 83.2556C79.0597 81.8509 79.9602 79.7186 79.9602 76.855H79.1263C79.1263 79.5349 78.2919 81.4016 76.8143 82.6101C75.3213 83.8311 73.1047 84.436 70.2334 84.436V85.2699ZM79.9602 76.855C79.9602 73.419 78.5377 71.113 76.1917 69.8046L75.7855 70.533C77.8406 71.679 79.1263 73.6894 79.1263 76.855H79.9602ZM76.3274 70.4118L79.332 66.2224L78.6543 65.7364L75.6498 69.9258L76.3274 70.4118ZM79.2452 65.6472C77.9622 64.6739 76.0438 63.849 74.392 63.4578L74.1998 64.2692C75.7641 64.6397 77.5696 65.4228 78.7411 66.3116L79.2452 65.6472ZM73.9079 63.7108L71.8767 68.8736L72.6527 69.1789L74.6839 64.0162L73.9079 63.7108ZM72.3164 68.6125C71.6223 68.5257 70.9279 68.4823 70.2334 68.4823V69.3162C70.8931 69.3162 71.5529 69.3575 72.2129 69.44L72.3164 68.6125ZM70.2334 68.4823C67.2648 68.4823 64.8171 69.1047 63.1051 70.49C61.3772 71.8883 60.4643 74.0098 60.4643 76.855H61.2982C61.2982 74.1988 62.1415 72.3425 63.6297 71.1383C65.1339 69.9211 67.3622 69.3162 70.2334 69.3162V68.4823ZM60.4643 76.855C60.4643 80.1112 61.7497 82.3662 63.8273 83.7211L64.2828 83.0226C62.4672 81.8385 61.2982 79.8617 61.2982 76.855H60.4643ZM63.7889 83.0509C61.9888 84.5437 60.8875 86.5138 60.8875 88.4076H61.7214C61.7214 86.8315 62.6513 85.0777 64.3212 83.6928L63.7889 83.0509ZM60.8875 88.4076C60.8875 89.6677 61.2492 90.7394 62.0973 91.4378L62.6274 90.7941C62.0368 90.3077 61.7214 89.5173 61.7214 88.4076H60.8875ZM62.1717 90.7452C60.5792 91.5642 59.491 93.0046 59.491 94.8822H60.3249C60.3249 93.3745 61.1833 92.1912 62.5531 91.4868L62.1717 90.7452ZM59.491 94.8822C59.491 95.8709 59.6936 96.753 60.1349 97.5151C60.5768 98.2783 61.2425 98.8945 62.1263 99.3746C63.8768 100.325 66.5137 100.758 70.1065 100.758V99.9242C66.5475 99.9242 64.0852 99.4895 62.5243 98.6418C61.7525 98.2226 61.2095 97.7068 60.8566 97.0973C60.5031 96.4868 60.3249 95.7555 60.3249 94.8822H59.491ZM70.2334 80.1196C68.891 80.1196 68.0468 79.8136 67.533 79.3042C67.0204 78.7959 66.7572 78.006 66.7572 76.855H65.9232C65.9232 78.116 66.2102 79.1669 66.9459 79.8964C67.6805 80.6248 68.7829 80.9536 70.2334 80.9536V80.1196ZM66.7572 76.855C66.7572 75.7269 67.0195 74.9476 67.5318 74.444C68.0459 73.9386 68.891 73.6326 70.2334 73.6326V72.7987C68.7829 72.7987 67.6814 73.1275 66.9472 73.8493C66.2111 74.5729 65.9232 75.6133 65.9232 76.855H66.7572ZM70.2334 73.6326C71.5531 73.6326 72.3876 73.9379 72.8968 74.4427C73.405 74.9466 73.6674 75.7269 73.6674 76.855H74.5013C74.5013 75.6133 74.2135 74.5739 73.4839 73.8505C72.7554 73.1282 71.6644 72.7987 70.2334 72.7987V73.6326ZM73.6674 76.855C73.6674 78.006 73.4041 78.7969 72.8955 79.3055C72.3866 79.8144 71.5532 80.1196 70.2334 80.1196V80.9536C71.6643 80.9536 72.7563 80.624 73.4852 79.8951C74.2144 79.166 74.5013 78.116 74.5013 76.855H73.6674ZM70.2757 95.3539C68.3576 95.3539 67.1943 95.1608 66.5204 94.8261C66.1949 94.6645 65.9995 94.4774 65.8808 94.2748C65.7608 94.0699 65.6992 93.8149 65.6992 93.4857H64.8653C64.8653 93.9183 64.9466 94.3298 65.1612 94.6962C65.3771 95.0648 65.7079 95.3538 66.1495 95.5731C67.0096 96.0001 68.343 96.1879 70.2757 96.1879V95.3539ZM65.6992 93.4857C65.6992 93.055 65.8035 92.6147 66.1821 92.2017L65.5674 91.6382C65.0149 92.2409 64.8653 92.9008 64.8653 93.4857H65.6992ZM65.8747 92.337H71.9261V91.503H65.8747V92.337ZM71.9261 92.337C73.3251 92.337 74.1418 92.4581 74.6039 92.6935C74.8187 92.803 74.9431 92.9309 75.0204 93.078C75.1014 93.2321 75.1485 93.4415 75.1485 93.7396H75.9824C75.9824 93.3607 75.9237 93.0041 75.7587 92.6901C75.59 92.3691 75.3282 92.1267 74.9824 91.9505C74.3231 91.6146 73.3201 91.503 71.9261 91.503V92.337ZM75.1485 93.7396C75.1485 94.1754 74.9017 94.5629 74.2129 94.8654C73.5082 95.1749 72.4124 95.3539 70.9105 95.3539V96.1879C72.4555 96.1879 73.6872 96.0071 74.5482 95.629C75.4252 95.2438 75.9824 94.6157 75.9824 93.7396H75.1485ZM70.9105 95.3539H70.2757V96.1879H70.9105V95.3539ZM84.1989 90.2273H83.7819V90.6443H84.1989V90.2273ZM90.2503 90.2273V90.6443H90.6672V90.2273H90.2503ZM90.2503 74.6545L90.1584 74.2477L89.8333 74.3211V74.6545H90.2503ZM97.0634 74.3159L97.0117 74.7297L97.4803 74.7882V74.3159H97.0634ZM97.0634 69.0262H97.4803V68.673L97.1319 68.6149L97.0634 69.0262ZM89.6578 71.1844L89.2441 71.2361L89.3445 72.0398L89.9403 71.4911L89.6578 71.1844ZM89.4462 69.4917L89.86 69.44L89.8143 69.0748H89.4462V69.4917ZM84.1989 69.4917V69.0748H83.7819V69.4917H84.1989ZM84.1989 90.6443H90.2503V89.8103H84.1989V90.6443ZM90.6672 90.2273V74.6545H89.8333V90.2273H90.6672ZM90.3421 75.0612C91.637 74.7688 92.8313 74.5636 94.3974 74.5636V73.7297C92.7473 73.7297 91.4872 73.9477 90.1584 74.2477L90.3421 75.0612ZM94.3974 74.5636C95.3499 74.5636 96.3479 74.6467 97.0117 74.7297L97.1151 73.9022C96.4248 73.8159 95.3915 73.7297 94.3974 73.7297V74.5636ZM97.4803 74.3159V69.0262H96.6464V74.3159H97.4803ZM97.1319 68.6149C96.8557 68.5689 96.3673 68.5246 96.0054 68.5246V69.3586C96.3207 69.3586 96.7633 69.3989 96.9948 69.4375L97.1319 68.6149ZM96.0054 68.5246C93.9458 68.5246 91.0821 69.3057 89.3753 70.8777L89.9403 71.4911C91.4496 70.1009 94.0873 69.3586 96.0054 69.3586V68.5246ZM90.0716 71.1327L89.86 69.44L89.0325 69.5434L89.2441 71.2361L90.0716 71.1327ZM89.4462 69.0748H84.1989V69.9087H89.4462V69.0748ZM83.7819 69.4917V90.2273H84.6158V69.4917H83.7819ZM112.174 88.9578L112.561 88.8029L112.373 88.3338L111.948 88.607L112.174 88.9578ZM112.682 90.2273L112.294 90.3822L112.399 90.6443H112.682V90.2273ZM117.463 90.2273V90.6443H117.88V90.2273H117.463ZM115.855 71.2691L115.538 71.5391L115.54 71.5413L115.855 71.2691ZM101.044 69.661L100.962 69.2521L100.604 69.3238L100.628 69.6887L101.044 69.661ZM101.34 74.1043L100.924 74.1321L100.956 74.6091L101.425 74.5127L101.34 74.1043ZM110.65 74.4005L110.932 74.0931L110.926 74.0879L110.65 74.4005ZM111.412 77.4051V77.8221H111.829V77.4051H111.412ZM100.494 79.3094L100.208 79.006L100.205 79.0092L100.494 79.3094ZM105.318 82.0177L105.613 82.3125L105.318 82.0177ZM111.412 81.2983H111.829V80.8813H111.412V81.2983ZM111.412 85.5724L111.533 85.9713L111.829 85.8813V85.5724H111.412ZM105.953 91.2367C108.239 91.2367 110.56 90.491 112.399 89.3085L111.948 88.607C110.233 89.7097 108.068 90.4028 105.953 90.4028V91.2367ZM111.787 89.1126L112.294 90.3822L113.069 90.0724L112.561 88.8029L111.787 89.1126ZM112.682 90.6443H117.463V89.8103H112.682V90.6443ZM117.88 90.2273V76.7703H117.046V90.2273H117.88ZM117.88 76.7703C117.88 74.2173 117.318 72.3272 116.171 70.9968L115.54 71.5413C116.508 72.6653 117.046 74.3299 117.046 76.7703H117.88ZM116.173 70.999C115.384 70.0708 114.233 69.4446 112.9 69.0496C111.566 68.6541 110.021 68.4823 108.407 68.4823V69.3162C109.968 69.3162 111.428 69.483 112.664 69.8492C113.901 70.2159 114.888 70.7746 115.538 71.5391L116.173 70.999ZM108.407 68.4823C105.878 68.4823 103.1 68.8247 100.962 69.2521L101.126 70.0699C103.22 69.651 105.943 69.3162 108.407 69.3162V68.4823ZM100.628 69.6887L100.924 74.1321L101.756 74.0766L101.46 69.6333L100.628 69.6887ZM101.425 74.5127C102.834 74.2226 105.217 73.9712 107.138 73.9712V73.1372C105.165 73.1372 102.725 73.3936 101.256 73.6959L101.425 74.5127ZM107.138 73.9712C108.783 73.9712 109.781 74.1899 110.374 74.7132L110.926 74.0879C110.08 73.3417 108.793 73.1372 107.138 73.1372V73.9712ZM110.369 74.7079C110.753 75.0605 110.995 75.6402 110.995 76.728H111.829C111.829 75.5307 111.563 74.6716 110.932 74.0932L110.369 74.7079ZM110.995 76.728V77.4051H111.829V76.728H110.995ZM111.412 76.9881H108.111V77.8221H111.412V76.9881ZM108.111 76.9881C104.251 76.9881 101.816 77.4897 100.208 79.006L100.78 79.6128C102.134 78.3361 104.269 77.8221 108.111 77.8221V76.9881ZM100.205 79.0092C98.9237 80.2445 98.2575 82.0535 98.2575 84.0066H99.0914C99.0914 82.2358 99.6947 80.6594 100.784 79.6095L100.205 79.0092ZM98.2575 84.0066C98.2575 86.1053 98.922 87.9245 100.245 89.2188C101.567 90.5127 103.501 91.2367 105.953 91.2367V90.4028C103.665 90.4028 101.96 89.7303 100.828 88.6227C99.6964 87.5154 99.0914 85.9281 99.0914 84.0066H98.2575ZM107.688 85.7902C106.635 85.7902 106.018 85.5658 105.662 85.2427C105.316 84.9279 105.143 84.4492 105.143 83.7527H104.309C104.309 84.5796 104.517 85.3281 105.101 85.8597C105.677 86.383 106.54 86.6241 107.688 86.6241V85.7902ZM105.143 83.7527C105.143 83.0628 105.334 82.5915 105.613 82.3125L105.023 81.7229C104.541 82.2056 104.309 82.9192 104.309 83.7527H105.143ZM105.613 82.3125C106.03 81.8955 106.752 81.7153 108.196 81.7153V80.8813C106.762 80.8813 105.707 81.0396 105.023 81.7229L105.613 82.3125ZM108.196 81.7153H111.412V80.8813H108.196V81.7153ZM110.995 81.2983V85.5724H111.829V81.2983H110.995ZM111.291 85.1735C110.337 85.4637 108.773 85.7902 107.688 85.7902V86.6241C108.888 86.6241 110.54 86.2735 111.533 85.9713L111.291 85.1735ZM122.552 90.2273H122.135V90.6443H122.552V90.2273ZM128.603 90.2273V90.6443H129.02V90.2273H128.603ZM128.603 59.9703H129.02V59.5533H128.603V59.9703ZM122.552 59.9703V59.5533H122.135V59.9703H122.552ZM122.552 90.6443H128.603V89.8103H122.552V90.6443ZM129.02 90.2273V59.9703H128.187V90.2273H129.02ZM128.603 59.5533H122.552V60.3872H128.603V59.5533ZM122.135 59.9703V90.2273H122.969V59.9703H122.135ZM146.019 88.9578L146.407 88.8029L146.219 88.3338L145.794 88.607L146.019 88.9578ZM146.527 90.2273L146.14 90.3822L146.245 90.6443H146.527V90.2273ZM151.309 90.2273V90.6443H151.726V90.2273H151.309ZM149.701 71.2691L149.383 71.5391L149.385 71.5413L149.701 71.2691ZM134.89 69.661L134.808 69.2521L134.45 69.3238L134.474 69.6887L134.89 69.661ZM135.186 74.1043L134.77 74.1321L134.802 74.6091L135.27 74.5127L135.186 74.1043ZM144.496 74.4005L144.778 74.0931L144.772 74.0879L144.496 74.4005ZM145.258 77.4051V77.8221H145.675V77.4051H145.258ZM134.34 79.3094L134.054 79.006L134.05 79.0092L134.34 79.3094ZM139.164 82.0177L139.459 82.3125L139.164 82.0177ZM145.258 81.2983H145.675V80.8813H145.258V81.2983ZM145.258 85.5724L145.379 85.9713L145.675 85.8813V85.5724H145.258ZM139.799 91.2367C142.085 91.2367 144.405 90.491 146.245 89.3085L145.794 88.607C144.079 89.7097 141.913 90.4028 139.799 90.4028V91.2367ZM145.632 89.1126L146.14 90.3822L146.914 90.0724L146.407 88.8029L145.632 89.1126ZM146.527 90.6443H151.309V89.8103H146.527V90.6443ZM151.726 90.2273V76.7703H150.892V90.2273H151.726ZM151.726 76.7703C151.726 74.2173 151.164 72.3272 150.017 70.9968L149.385 71.5413C150.354 72.6653 150.892 74.3299 150.892 76.7703H151.726ZM150.019 70.999C149.23 70.0708 148.079 69.4446 146.746 69.0496C145.411 68.6541 143.867 68.4823 142.253 68.4823V69.3162C143.813 69.3162 145.273 69.483 146.509 69.8492C147.747 70.2159 148.734 70.7746 149.383 71.5391L150.019 70.999ZM142.253 68.4823C139.724 68.4823 136.945 68.8247 134.808 69.2521L134.972 70.0699C137.066 69.651 139.789 69.3162 142.253 69.3162V68.4823ZM134.474 69.6887L134.77 74.1321L135.602 74.0766L135.306 69.6333L134.474 69.6887ZM135.27 74.5127C136.679 74.2226 139.063 73.9712 140.984 73.9712V73.1372C139.011 73.1372 136.571 73.3936 135.102 73.6959L135.27 74.5127ZM140.984 73.9712C142.629 73.9712 143.627 74.1899 144.22 74.7132L144.772 74.0879C143.926 73.3417 142.639 73.1372 140.984 73.1372V73.9712ZM144.214 74.7079C144.599 75.0605 144.841 75.6402 144.841 76.728H145.675C145.675 75.5307 145.409 74.6716 144.778 74.0932L144.214 74.7079ZM144.841 76.728V77.4051H145.675V76.728H144.841ZM145.258 76.9881H141.957V77.8221H145.258V76.9881ZM141.957 76.9881C138.097 76.9881 135.662 77.4897 134.054 79.006L134.626 79.6128C135.98 78.3361 138.115 77.8221 141.957 77.8221V76.9881ZM134.05 79.0092C132.769 80.2445 132.103 82.0535 132.103 84.0066H132.937C132.937 82.2358 133.54 80.6594 134.629 79.6095L134.05 79.0092ZM132.103 84.0066C132.103 86.1053 132.768 87.9245 134.091 89.2188C135.413 90.5127 137.347 91.2367 139.799 91.2367V90.4028C137.511 90.4028 135.806 89.7303 134.674 88.6227C133.542 87.5154 132.937 85.9281 132.937 84.0066H132.103ZM141.534 85.7902C140.481 85.7902 139.863 85.5658 139.508 85.2427C139.162 84.9279 138.989 84.4492 138.989 83.7527H138.155C138.155 84.5796 138.362 85.3281 138.947 85.8597C139.523 86.383 140.386 86.6241 141.534 86.6241V85.7902ZM138.989 83.7527C138.989 83.0628 139.18 82.5915 139.459 82.3125L138.869 81.7229C138.386 82.2056 138.155 82.9192 138.155 83.7527H138.989ZM139.459 82.3125C139.876 81.8955 140.598 81.7153 142.042 81.7153V80.8813C140.607 80.8813 139.552 81.0396 138.869 81.7229L139.459 82.3125ZM142.042 81.7153H145.258V80.8813H142.042V81.7153ZM144.841 81.2983V85.5724H145.675V81.2983H144.841ZM145.136 85.1735C144.183 85.4637 142.619 85.7902 141.534 85.7902V86.6241C142.734 86.6241 144.386 86.2735 145.379 85.9713L145.136 85.1735ZM170.743 74.4852L170.633 74.8873L171.107 75.0174L171.158 74.5286L170.743 74.4852ZM171.209 70.0418L171.624 70.0853L171.658 69.7541L171.343 69.647L171.209 70.0418ZM156.186 85.1915L156.315 84.7949L155.825 84.6359L155.771 85.1485L156.186 85.1915ZM155.721 89.6772L155.306 89.6341L155.272 89.9592L155.58 90.0696L155.721 89.6772ZM162.999 91.2367C166.156 91.2367 168.596 90.6048 170.257 89.3661C171.938 88.1128 172.768 86.2772 172.768 84.0066H171.935C171.935 86.0524 171.199 87.6234 169.759 88.6976C168.299 89.7863 166.064 90.4028 162.999 90.4028V91.2367ZM172.768 84.0066C172.768 81.7546 172.019 80.2344 170.857 79.1967C169.715 78.1766 168.214 77.6598 166.778 77.3169C166.057 77.1448 165.337 77.0131 164.677 76.8874C164.01 76.7604 163.41 76.6402 162.901 76.4895C162.387 76.3374 162.01 76.1662 161.767 75.9606C161.542 75.771 161.427 75.5522 161.427 75.2469H160.593C160.593 75.8197 160.834 76.2647 161.229 76.5981C161.605 76.9156 162.115 77.1265 162.664 77.2892C163.219 77.4533 163.858 77.5804 164.521 77.7066C165.19 77.8341 165.887 77.9616 166.584 78.128C167.983 78.4622 169.318 78.9399 170.302 79.8187C171.266 80.6801 171.935 81.9635 171.935 84.0066H172.768ZM161.427 75.2469C161.427 75.0237 161.482 74.8533 161.575 74.716C161.669 74.576 161.821 74.4447 162.055 74.3312C162.534 74.0982 163.293 73.9712 164.354 73.9712V73.1372C163.256 73.1372 162.343 73.2641 161.69 73.5812C161.358 73.7428 161.079 73.9606 160.884 74.249C160.687 74.5402 160.593 74.8777 160.593 75.2469H161.427ZM164.354 73.9712C166.005 73.9712 168.507 74.3036 170.633 74.8873L170.854 74.0831C168.664 73.4819 166.087 73.1372 164.354 73.1372V73.9712ZM171.158 74.5286L171.624 70.0853L170.794 69.9984L170.329 74.4417L171.158 74.5286ZM171.343 69.647C169.055 68.8699 166.428 68.4823 164.311 68.4823V69.3162C166.342 69.3162 168.878 69.6904 171.075 70.4367L171.343 69.647ZM164.311 68.4823C161.144 68.4823 158.785 69.2034 157.21 70.4737C155.623 71.7534 154.881 73.5514 154.881 75.5854H155.715C155.715 73.7686 156.369 72.2235 157.733 71.1228C159.11 70.0128 161.258 69.3162 164.311 69.3162V68.4823ZM154.881 75.5854C154.881 77.837 155.627 79.3433 156.788 80.3609C157.928 81.3602 159.426 81.8494 160.856 82.1706C161.573 82.3318 162.291 82.4542 162.947 82.5731C163.61 82.6934 164.207 82.8096 164.712 82.9596C165.222 83.111 165.595 83.285 165.836 83.4967C166.059 83.6922 166.179 83.9263 166.179 84.2605H167.013C167.013 83.6744 166.78 83.2155 166.386 82.8695C166.009 82.5396 165.499 82.3235 164.95 82.1602C164.395 81.9955 163.756 81.8723 163.096 81.7526C162.428 81.6315 161.734 81.5132 161.038 81.357C159.643 81.0435 158.316 80.591 157.338 79.7337C156.38 78.8946 155.715 77.6291 155.715 75.5854H154.881ZM166.179 84.2605C166.179 84.5603 166.108 84.7788 165.992 84.9466C165.875 85.1169 165.692 85.2654 165.42 85.388C164.861 85.6402 164.006 85.7479 162.872 85.7479V86.5818C164.024 86.5818 165.031 86.4779 165.763 86.1482C166.136 85.9798 166.455 85.7448 166.679 85.4193C166.905 85.0911 167.013 84.7013 167.013 84.2605H166.179ZM162.872 85.7479C160.669 85.7479 157.835 85.288 156.315 84.7949L156.058 85.5881C157.669 86.1107 160.59 86.5818 162.872 86.5818V85.7479ZM155.771 85.1485L155.306 89.6341L156.135 89.7202L156.601 85.2346L155.771 85.1485ZM155.58 90.0696C157.281 90.6805 160.504 91.2367 162.999 91.2367V90.4028C160.586 90.4028 157.461 89.8588 155.862 89.2847L155.58 90.0696ZM204.945 69.4917H205.362V69.0748H204.945V69.4917ZM198.894 69.4917V69.0748H198.477V69.4917H198.894ZM198.894 84.8953L199.046 85.2836L199.311 85.1799V84.8953H198.894ZM192.419 84.9799L192.124 85.2748L192.13 85.2807L192.136 85.2863L192.419 84.9799ZM191.785 69.4917H192.201V69.0748H191.785V69.4917ZM185.733 69.4917V69.0748H185.316V69.4917H185.733ZM187.553 89.0001L187.258 89.2949L187.553 89.0001ZM198.894 88.9155H199.311V88.2025L198.689 88.552L198.894 88.9155ZM197.878 94.7976L197.592 94.4943L197.583 94.5027L197.878 94.7976ZM189.626 95.3054L189.701 94.8952L189.16 94.7967L189.211 95.3446L189.626 95.3054ZM190.049 99.791L189.634 99.8302L189.663 100.134L189.961 100.199L190.049 99.791ZM195.339 100.758C199.166 100.758 201.72 99.8223 203.293 97.8448C204.846 95.892 205.362 93.0164 205.362 89.3386H204.528C204.528 92.9817 204.007 95.6074 202.641 97.3257C201.294 99.0193 199.045 99.9242 195.339 99.9242V100.758ZM205.362 89.3386V69.4917H204.528V89.3386H205.362ZM204.945 69.0748H198.894V69.9087H204.945V69.0748ZM198.477 69.4917V84.8953H199.311V69.4917H198.477ZM198.742 84.507C197.81 84.8715 196.084 85.24 195.001 85.24V86.074C196.202 86.074 198.031 85.6808 199.046 85.2836L198.742 84.507ZM195.001 85.24C193.75 85.24 193.129 85.0679 192.702 84.6735L192.136 85.2863C192.809 85.9076 193.712 86.074 195.001 86.074V85.24ZM192.714 84.6851C192.402 84.3726 192.201 83.9103 192.201 82.9064H191.368C191.368 84.0183 191.591 84.7409 192.124 85.2748L192.714 84.6851ZM192.201 82.9064V69.4917H191.368V82.9064H192.201ZM191.785 69.0748H185.733V69.9087H191.785V69.0748ZM185.316 69.4917V83.7527H186.15V69.4917H185.316ZM185.316 83.7527C185.316 86.2405 185.931 87.9679 187.258 89.2949L187.848 88.7052C186.72 87.5778 186.15 86.0891 186.15 83.7527H185.316ZM187.258 89.2949C188.513 90.5504 190.508 91.0251 192.377 91.0251V90.1912C190.606 90.1912 188.877 89.7349 187.848 88.7052L187.258 89.2949ZM192.377 91.0251C194.516 91.0251 197 90.4593 199.098 89.2789L198.689 88.552C196.726 89.6567 194.385 90.1912 192.377 90.1912V91.0251ZM198.477 88.9155V91.4545H199.311V88.9155H198.477ZM198.477 91.4545C198.477 92.9121 198.221 93.8999 197.592 94.4944L198.165 95.1007C199.058 94.2565 199.311 92.9591 199.311 91.4545H198.477ZM197.583 94.5027C197.34 94.7461 196.913 94.9641 196.332 95.1194C195.759 95.2724 195.077 95.3539 194.366 95.3539V96.1879C195.136 96.1879 195.892 96.1001 196.547 95.9251C197.193 95.7524 197.782 95.4839 198.173 95.0924L197.583 94.5027ZM194.366 95.3539C192.37 95.3539 191.086 95.147 189.701 94.8952L189.552 95.7156C190.96 95.9716 192.299 96.1879 194.366 96.1879V95.3539ZM189.211 95.3446L189.634 99.8302L190.465 99.7519L190.041 95.2662L189.211 95.3446ZM189.961 100.199C191.555 100.543 193.277 100.758 195.339 100.758V99.9242C193.339 99.9242 191.676 99.716 190.138 99.3835L189.961 100.199ZM217.213 90.2273L216.818 90.0949L216.634 90.6443H217.213V90.2273ZM223.518 90.2273V90.6443H223.826L223.917 90.3501L223.518 90.2273ZM225.761 82.9487V82.5317H225.453L225.363 82.8259L225.761 82.9487ZM235.156 82.9487L235.551 82.8175L235.457 82.5317H235.156V82.9487ZM237.568 90.2273L237.172 90.3585L237.267 90.6443H237.568V90.2273ZM244.635 90.2273V90.6443H245.229L245.027 90.0857L244.635 90.2273ZM234.182 61.2821L234.575 61.1405L234.475 60.8652H234.182V61.2821ZM226.904 61.2821V60.8652H226.604L226.508 61.1497L226.904 61.2821ZM227.285 78.1668L226.886 78.0428L226.718 78.5838H227.285V78.1668ZM230.289 68.5184V68.1015H229.982L229.891 68.3944L230.289 68.5184ZM230.374 68.5184L230.77 68.3881L230.676 68.1015H230.374V68.5184ZM233.548 78.1668V78.5838H234.124L233.944 78.0365L233.548 78.1668ZM217.213 90.6443H223.518V89.8103H217.213V90.6443ZM223.917 90.3501L226.16 83.0715L225.363 82.8259L223.12 90.1045L223.917 90.3501ZM225.761 83.3656H235.156V82.5317H225.761V83.3656ZM234.76 83.0798L237.172 90.3585L237.964 90.0961L235.551 82.8175L234.76 83.0798ZM237.568 90.6443H244.635V89.8103H237.568V90.6443ZM245.027 90.0857L234.575 61.1405L233.79 61.4237L244.243 90.3689L245.027 90.0857ZM234.182 60.8652H226.904V61.6991H234.182V60.8652ZM226.508 61.1497L216.818 90.0949L217.608 90.3597L227.299 61.4145L226.508 61.1497ZM227.683 78.2908L230.687 68.6424L229.891 68.3944L226.886 78.0428L227.683 78.2908ZM230.289 68.9354H230.374V68.1015H230.289V68.9354ZM229.978 68.6487L233.151 78.2971L233.944 78.0365L230.77 68.3881L229.978 68.6487ZM233.548 77.7498H227.285V78.5838H233.548V77.7498ZM247.986 90.2273H247.569V90.6443H247.986V90.2273ZM254.588 90.2273V90.6443H255.005V90.2273H254.588ZM254.588 78.0399V77.6229H254.171V78.0399H254.588ZM264.786 78.0399H265.203V77.6229H264.786V78.0399ZM264.786 90.2273H264.37V90.6443H264.786V90.2273ZM271.388 90.2273V90.6443H271.805V90.2273H271.388ZM271.388 61.2821H271.805V60.8652H271.388V61.2821ZM264.786 61.2821V60.8652H264.37V61.2821H264.786ZM264.786 73.0887V73.5057H265.203V73.0887H264.786ZM254.588 73.0887H254.171V73.5057H254.588V73.0887ZM254.588 61.2821H255.005V60.8652H254.588V61.2821ZM247.986 61.2821V60.8652H247.569V61.2821H247.986ZM247.986 90.6443H254.588V89.8103H247.986V90.6443ZM255.005 90.2273V78.0399H254.171V90.2273H255.005ZM254.588 78.4568H264.786V77.6229H254.588V78.4568ZM264.37 78.0399V90.2273H265.203V78.0399H264.37ZM264.786 90.6443H271.388V89.8103H264.786V90.6443ZM271.805 90.2273V61.2821H270.971V90.2273H271.805ZM271.388 60.8652H264.786V61.6991H271.388V60.8652ZM264.37 61.2821V73.0887H265.203V61.2821H264.37ZM264.786 72.6717H254.588V73.5057H264.786V72.6717ZM255.005 73.0887V61.2821H254.171V73.0887H255.005ZM254.588 60.8652H247.986V61.6991H254.588V60.8652ZM247.569 61.2821V90.2273H248.403V61.2821H247.569ZM289.253 91.2367C293.76 91.2367 297.101 89.8961 299.302 87.2402C301.49 84.5998 302.492 80.7303 302.492 75.797H301.659C301.659 80.6391 300.672 84.281 298.66 86.7081C296.661 89.1197 293.59 90.4028 289.253 90.4028V91.2367ZM302.492 75.797C302.492 70.8637 301.49 66.9841 299.303 64.3333C297.102 61.6669 293.762 60.315 289.253 60.315V61.149C293.589 61.149 296.66 62.4419 298.659 64.8642C300.672 67.3021 301.659 70.955 301.659 75.797H302.492ZM289.253 60.315C284.745 60.315 281.405 61.6669 279.204 64.3333C277.016 66.9841 276.014 70.8637 276.014 75.797H276.848C276.848 70.955 277.835 67.3021 279.847 64.8642C281.846 62.4419 284.917 61.149 289.253 61.149V60.315ZM276.014 75.797C276.014 80.7303 277.016 84.5998 279.205 87.2402C281.406 89.8961 284.746 91.2367 289.253 91.2367V90.4028C284.916 90.4028 281.845 89.1197 279.847 86.7081C277.835 84.281 276.848 80.6391 276.848 75.797H276.014ZM289.253 85.24C288.23 85.24 287.391 85.0678 286.704 84.7251C286.021 84.3847 285.466 83.8647 285.024 83.1305C284.129 81.6413 283.703 79.2747 283.703 75.797H282.87C282.87 79.3018 283.29 81.8652 284.31 83.5603C284.826 84.4184 285.495 85.0542 286.332 85.4714C287.164 85.8866 288.139 86.074 289.253 86.074V85.24ZM283.703 75.797C283.703 72.3196 284.129 69.9417 285.025 68.4413C285.467 67.7015 286.023 67.1765 286.706 66.8324C287.392 66.4863 288.231 66.3117 289.253 66.3117V65.4778C288.138 65.4778 287.163 65.6681 286.33 66.0877C285.493 66.5093 284.825 67.1507 284.309 68.0137C283.291 69.7188 282.87 72.292 282.87 75.797H283.703ZM289.253 66.3117C290.275 66.3117 291.114 66.4863 291.801 66.8324C292.484 67.1765 293.04 67.7015 293.481 68.4413C294.378 69.9417 294.803 72.3196 294.803 75.797H295.637C295.637 72.292 295.216 69.7188 294.197 68.0137C293.682 67.1507 293.013 66.5093 292.176 66.0877C291.344 65.6681 290.368 65.4778 289.253 65.4778V66.3117ZM294.803 75.797C294.803 79.2747 294.378 81.6413 293.482 83.1305C293.041 83.8647 292.485 84.3847 291.803 84.7251C291.116 85.0678 290.276 85.24 289.253 85.24V86.074C290.367 86.074 291.342 85.8866 292.175 85.4714C293.012 85.0542 293.681 84.4184 294.197 83.5603C295.216 81.8652 295.637 79.3018 295.637 75.797H294.803ZM307.124 90.2273H306.707V90.6443H307.124V90.2273ZM313.725 90.2273V90.6443H314.142V90.2273H313.725ZM313.725 79.7326V79.3156H313.308V79.7326H313.725ZM317.364 79.7326L317.736 79.5437L317.62 79.3156H317.364V79.7326ZM322.696 90.2273L322.325 90.4162L322.44 90.6443H322.696V90.2273ZM330.144 90.2273V90.6443H330.85L330.51 90.0263L330.144 90.2273ZM323.881 78.8439L323.705 78.4662L323.301 78.6548L323.516 79.0449L323.881 78.8439ZM326.378 63.6096L326.664 63.3062L326.662 63.3048L326.378 63.6096ZM307.124 61.2821V60.8652H306.707V61.2821H307.124ZM313.725 74.9507H313.308V75.3676H313.725V74.9507ZM313.725 66.064V65.647H313.308V66.064H313.725ZM321.088 67.1219L321.383 66.827L321.375 66.8196L321.088 67.1219ZM307.124 90.6443H313.725V89.8103H307.124V90.6443ZM314.142 90.2273V79.7326H313.308V90.2273H314.142ZM313.725 80.1495H317.364V79.3156H313.725V80.1495ZM316.993 79.9214L322.325 90.4162L323.068 90.0384L317.736 79.5437L316.993 79.9214ZM322.696 90.6443H330.144V89.8103H322.696V90.6443ZM330.51 90.0263L324.247 78.6429L323.516 79.0449L329.779 90.4283L330.51 90.0263ZM324.058 79.2216C327.495 77.6145 329.207 74.3119 329.207 70.2534H328.373C328.373 74.066 326.784 77.0264 323.705 78.4662L324.058 79.2216ZM329.207 70.2534C329.207 67.1211 328.248 64.7996 326.664 63.3062L326.092 63.913C327.47 65.2126 328.373 67.2921 328.373 70.2534H329.207ZM326.662 63.3048C324.63 61.4083 321.729 60.8652 317.068 60.8652V61.6991C321.717 61.6991 324.317 62.2562 326.093 63.9144L326.662 63.3048ZM317.068 60.8652H307.124V61.6991H317.068V60.8652ZM306.707 61.2821V90.2273H307.54V61.2821H306.707ZM314.142 74.9507V66.064H313.308V74.9507H314.142ZM313.725 66.481H316.687V65.647H313.725V66.481ZM316.687 66.481C318.851 66.481 320.087 66.7457 320.801 67.4242L321.375 66.8196C320.397 65.8901 318.84 65.647 316.687 65.647V66.481ZM320.793 67.4168C321.36 67.983 321.687 68.9106 321.687 70.3381H322.521C322.521 68.8033 322.171 67.6151 321.383 66.8271L320.793 67.4168ZM321.687 70.3381C321.687 71.9021 321.313 73.0167 320.607 73.6174L321.147 74.2528C322.133 73.4146 322.521 71.9902 322.521 70.3381H321.687ZM320.607 73.6174C319.879 74.2356 318.825 74.5337 316.645 74.5337V75.3676C318.866 75.3676 320.181 75.0733 321.147 74.2528L320.607 73.6174ZM316.645 74.5337H313.725V75.3676H316.645V74.5337ZM334.564 90.2273H334.147V90.6443H334.564V90.2273ZM341.165 90.2273V90.6443H341.582V90.2273H341.165ZM341.165 79.7326V79.3156H340.748V79.7326H341.165ZM344.805 79.7326L345.176 79.5437L345.06 79.3156H344.805V79.7326ZM350.137 90.2273L349.765 90.4162L349.881 90.6443H350.137V90.2273ZM357.584 90.2273V90.6443H358.29L357.95 90.0263L357.584 90.2273ZM351.321 78.8439L351.145 78.4662L350.742 78.6548L350.956 79.0449L351.321 78.8439ZM353.818 63.6096L354.104 63.3062L354.103 63.3048L353.818 63.6096ZM334.564 61.2821V60.8652H334.147V61.2821H334.564ZM341.165 74.9507H340.748V75.3676H341.165V74.9507ZM341.165 66.064V65.647H340.748V66.064H341.165ZM348.529 67.1219L348.823 66.827L348.816 66.8196L348.529 67.1219ZM334.564 90.6443H341.165V89.8103H334.564V90.6443ZM341.582 90.2273V79.7326H340.748V90.2273H341.582ZM341.165 80.1495H344.805V79.3156H341.165V80.1495ZM344.433 79.9214L349.765 90.4162L350.508 90.0384L345.176 79.5437L344.433 79.9214ZM350.137 90.6443H357.584V89.8103H350.137V90.6443ZM357.95 90.0263L351.687 78.6429L350.956 79.0449L357.219 90.4283L357.95 90.0263ZM351.498 79.2216C354.935 77.6145 356.647 74.3119 356.647 70.2534H355.813C355.813 74.066 354.224 77.0264 351.145 78.4662L351.498 79.2216ZM356.647 70.2534C356.647 67.1211 355.688 64.7996 354.104 63.3062L353.532 63.913C354.911 65.2126 355.813 67.2921 355.813 70.2534H356.647ZM354.103 63.3048C352.071 61.4083 349.17 60.8652 344.508 60.8652V61.6991C349.157 61.6991 351.757 62.2562 353.534 63.9144L354.103 63.3048ZM344.508 60.8652H334.564V61.6991H344.508V60.8652ZM334.147 61.2821V90.2273H334.981V61.2821H334.147ZM341.582 74.9507V66.064H340.748V74.9507H341.582ZM341.165 66.481H344.128V65.647H341.165V66.481ZM344.128 66.481C346.291 66.481 347.527 66.7457 348.241 67.4242L348.816 66.8196C347.837 65.8901 346.28 65.647 344.128 65.647V66.481ZM348.234 67.4168C348.8 67.983 349.127 68.9106 349.127 70.3381H349.961C349.961 68.8033 349.611 67.6151 348.823 66.8271L348.234 67.4168ZM349.127 70.3381C349.127 71.9021 348.754 73.0167 348.047 73.6174L348.587 74.2528C349.573 73.4146 349.961 71.9902 349.961 70.3381H349.127ZM348.047 73.6174C347.319 74.2356 346.265 74.5337 344.085 74.5337V75.3676C346.306 75.3676 347.622 75.0733 348.587 74.2528L348.047 73.6174ZM344.085 74.5337H341.165V75.3676H344.085V74.5337ZM359.084 90.2273L358.689 90.0949L358.505 90.6443H359.084V90.2273ZM365.389 90.2273V90.6443H365.697L365.788 90.3501L365.389 90.2273ZM367.632 82.9487V82.5317H367.324L367.234 82.8259L367.632 82.9487ZM377.027 82.9487L377.423 82.8175L377.328 82.5317H377.027V82.9487ZM379.439 90.2273L379.043 90.3585L379.138 90.6443H379.439V90.2273ZM386.506 90.2273V90.6443H387.1L386.898 90.0857L386.506 90.2273ZM376.053 61.2821L376.446 61.1405L376.346 60.8652H376.053V61.2821ZM368.775 61.2821V60.8652H368.475L368.379 61.1497L368.775 61.2821ZM369.156 78.1668L368.758 78.0428L368.589 78.5838H369.156V78.1668ZM372.16 68.5184V68.1015H371.853L371.762 68.3944L372.16 68.5184ZM372.245 68.5184L372.641 68.3881L372.547 68.1015H372.245V68.5184ZM375.419 78.1668V78.5838H375.995L375.815 78.0365L375.419 78.1668ZM359.084 90.6443H365.389V89.8103H359.084V90.6443ZM365.788 90.3501L368.031 83.0715L367.234 82.8259L364.991 90.1045L365.788 90.3501ZM367.632 83.3656H377.027V82.5317H367.632V83.3656ZM376.631 83.0798L379.043 90.3585L379.835 90.0961L377.423 82.8175L376.631 83.0798ZM379.439 90.6443H386.506V89.8103H379.439V90.6443ZM386.898 90.0857L376.446 61.1405L375.661 61.4237L386.114 90.3689L386.898 90.0857ZM376.053 60.8652H368.775V61.6991H376.053V60.8652ZM368.379 61.1497L358.689 90.0949L359.479 90.3597L369.17 61.4145L368.379 61.1497ZM369.554 78.2908L372.558 68.6424L371.762 68.3944L368.758 78.0428L369.554 78.2908ZM372.16 68.9354H372.245V68.1015H372.16V68.9354ZM371.849 68.6487L375.023 78.2971L375.815 78.0365L372.641 68.3881L371.849 68.6487ZM375.419 77.7498H369.156V78.5838H375.419V77.7498ZM390.535 81.1713L390.118 81.1908L390.137 81.5883H390.535V81.1713ZM395.02 81.1713V81.5883H395.418L395.437 81.1908L395.02 81.1713ZM395.951 61.2821L396.368 61.3016L396.388 60.8652H395.951V61.2821ZM389.604 61.2821V60.8652H389.167L389.187 61.3016L389.604 61.2821ZM390.535 81.5883H395.02V80.7544H390.535V81.5883ZM395.437 81.1908L396.368 61.3016L395.535 61.2626L394.604 81.1519L395.437 81.1908ZM395.951 60.8652H389.604V61.6991H395.951V60.8652ZM389.187 61.3016L390.118 81.1908L390.951 81.1519L390.02 61.2626L389.187 61.3016ZM392.735 91.2367H393.031V90.4028H392.735V91.2367ZM393.031 91.2367C394.089 91.2367 394.986 91.0296 395.616 90.4635C396.256 89.8887 396.537 89.0217 396.537 87.8998H395.704C395.704 88.8938 395.456 89.4868 395.059 89.843C394.653 90.2079 394.005 90.4028 393.031 90.4028V91.2367ZM396.537 87.8998V87.392H395.704V87.8998H396.537ZM396.537 87.392C396.537 86.2701 396.256 85.4032 395.616 84.8284C394.986 84.2623 394.089 84.0552 393.031 84.0552V84.8891C394.005 84.8891 394.653 85.084 395.059 85.4489C395.456 85.805 395.704 86.3981 395.704 87.392H396.537ZM393.031 84.0552H392.735V84.8891H393.031V84.0552ZM392.735 84.0552C391.677 84.0552 390.781 84.2623 390.15 84.8284C389.51 85.4032 389.229 86.2701 389.229 87.392H390.063C390.063 86.3981 390.311 85.805 390.707 85.4489C391.114 85.084 391.762 84.8891 392.735 84.8891V84.0552ZM389.229 87.392V87.8998H390.063V87.392H389.229ZM389.229 87.8998C389.229 89.0217 389.51 89.8887 390.15 90.4635C390.781 91.0296 391.677 91.2367 392.735 91.2367V90.4028C391.762 90.4028 391.114 90.2079 390.707 89.843C390.311 89.4868 390.063 88.8938 390.063 87.8998H389.229Z" fill="#019DF4"/>
<path d="M6.26325 66.672H5.96703C3.93579 66.672 2.87785 67.476 2.87785 69.5919V70.0997C2.87785 72.2156 3.93579 73.0196 5.96703 73.0196H6.26325C8.29449 73.0196 9.35243 72.2156 9.35243 70.0997V69.5919C9.35243 67.476 8.29449 66.672 6.26325 66.672ZM8.46376 76.3204H3.9781L3.04712 96.2096H9.39475L8.46376 76.3204ZM15.4055 88H20.9491V71.1576L27.1274 81.3985H32.2055L38.2146 71.3269V88H44.266V59.0548H39.1879L29.7511 75.2201L20.6105 59.0548H15.4055V88ZM49.8552 64.3445L58.4457 58.547L55.4835 54.5269L47.7394 61.7208L49.8552 64.3445ZM50.0668 88H56.1182V67.2644H50.0668V88ZM70.1065 98.1139H70.445C77.8929 98.1139 80.9821 95.5748 80.9821 91.2584C80.9821 89.2695 80.4743 87.9154 79.4586 86.8574C77.9775 85.334 75.6077 84.6569 71.6299 84.6569H67.5674C67.1442 84.6569 66.975 84.4876 66.975 84.1068C66.975 83.8106 67.1442 83.1335 67.5251 82.4564C68.3715 82.5834 69.2601 82.6257 70.2334 82.6257C76.0732 82.6257 79.5433 80.1713 79.5433 74.6277C79.5433 71.3269 78.1891 69.1687 75.9886 67.9415L78.9931 63.7521C77.7659 62.8211 75.904 62.0171 74.2959 61.6362L72.2647 66.7989C71.5876 66.7143 70.9105 66.672 70.2334 66.672C64.3936 66.672 60.8813 69.1264 60.8813 74.6277C60.8813 77.7592 62.1085 79.875 64.0551 81.1446C62.3201 82.5834 61.3044 84.4453 61.3044 86.1803C61.3044 87.3652 61.643 88.2962 62.3624 88.8887C60.8813 89.6504 59.908 90.9622 59.908 92.6549C59.908 96.3789 62.9548 98.1139 70.1065 98.1139ZM70.2334 78.3093C67.4405 78.3093 66.3402 77.0398 66.3402 74.6277C66.3402 72.2579 67.4405 70.9884 70.2334 70.9884C72.9841 70.9884 74.0843 72.2579 74.0843 74.6277C74.0843 77.0398 72.9841 78.3093 70.2334 78.3093ZM70.2757 93.5436C66.4248 93.5436 65.2823 92.7819 65.2823 91.2584C65.2823 90.7506 65.4092 90.2005 65.8747 89.6927H71.9261C74.7191 89.6927 75.5654 90.1582 75.5654 91.5124C75.5654 92.8242 73.9574 93.5436 70.9105 93.5436H70.2757ZM84.1989 88H90.2503V72.4272C91.5621 72.1309 92.7893 71.9193 94.3974 71.9193C95.3707 71.9193 96.3863 72.004 97.0634 72.0886V66.7989C96.8095 66.7566 96.344 66.7143 96.0054 66.7143C94.0165 66.7143 91.2659 67.476 89.6578 68.9571L89.4462 67.2644H84.1989V88ZM105.953 88.5924C108.154 88.5924 110.396 87.873 112.174 86.7305L112.682 88H117.463V74.543C117.463 72.0463 116.913 70.269 115.855 69.0418C114.417 67.3491 111.581 66.672 108.407 66.672C105.911 66.672 103.16 67.0105 101.044 67.4337L101.34 71.877C102.779 71.5808 105.191 71.3269 107.138 71.3269C108.788 71.3269 109.931 71.5385 110.65 72.1733C111.158 72.6387 111.412 73.3581 111.412 74.5007V75.1778H108.111C104.26 75.1778 101.975 75.6856 100.494 77.0821C99.3092 78.2247 98.6744 79.9174 98.6744 81.7793C98.6744 85.7995 101.213 88.5924 105.953 88.5924ZM107.688 83.9798C105.488 83.9798 104.726 83.0489 104.726 81.5254C104.726 80.7637 104.937 80.1713 105.318 79.7904C105.868 79.2403 106.757 79.071 108.196 79.071H111.412V83.3451C110.439 83.6413 108.831 83.9798 107.688 83.9798ZM122.552 88H128.603V57.743H122.552V88ZM139.799 88.5924C141.999 88.5924 144.242 87.873 146.019 86.7305L146.527 88H151.309V74.543C151.309 72.0463 150.759 70.269 149.701 69.0418C148.262 67.3491 145.427 66.672 142.253 66.672C139.756 66.672 137.006 67.0105 134.89 67.4337L135.186 71.877C136.625 71.5808 139.037 71.3269 140.984 71.3269C142.634 71.3269 143.777 71.5385 144.496 72.1733C145.004 72.6387 145.258 73.3581 145.258 74.5007V75.1778H141.957C138.106 75.1778 135.821 75.6856 134.34 77.0821C133.155 78.2247 132.52 79.9174 132.52 81.7793C132.52 85.7995 135.059 88.5924 139.799 88.5924ZM141.534 83.9798C139.333 83.9798 138.572 83.0489 138.572 81.5254C138.572 80.7637 138.783 80.1713 139.164 79.7904C139.714 79.2403 140.603 79.071 142.042 79.071H145.258V83.3451C144.284 83.6413 142.676 83.9798 141.534 83.9798ZM162.999 88.5924C169.22 88.5924 172.352 86.0957 172.352 81.7793C172.352 73.1889 161.01 76.532 161.01 73.0196C161.01 71.8347 162.195 71.3269 164.354 71.3269C166.046 71.3269 168.585 71.6654 170.743 72.2579L171.209 67.8146C168.966 67.0528 166.385 66.672 164.311 66.672C158.091 66.672 155.298 69.5073 155.298 73.3581C155.298 81.9486 166.596 78.3516 166.596 82.0332C166.596 83.5143 165.158 83.9375 162.872 83.9375C160.63 83.9375 157.752 83.472 156.186 82.9642L155.721 87.4499C157.371 88.0423 160.545 88.5924 162.999 88.5924ZM195.339 98.1139C202.872 98.1139 204.945 94.4323 204.945 87.1113V67.2644H198.894V82.668C197.921 83.0489 196.143 83.4297 195.001 83.4297C193.731 83.4297 192.969 83.2604 192.419 82.7526C191.996 82.3295 191.784 81.737 191.784 80.6791V67.2644H185.733V81.5254C185.733 83.9375 186.326 85.5456 187.553 86.7728C188.695 87.9154 190.557 88.3809 192.377 88.3809C194.451 88.3809 196.863 87.8307 198.894 86.6882V89.2272C198.894 90.7083 198.64 91.8509 197.878 92.5703C197.243 93.2051 195.847 93.5436 194.366 93.5436C192.335 93.5436 191.023 93.332 189.626 93.0781L190.049 97.5638C191.615 97.9023 193.308 98.1139 195.339 98.1139ZM217.213 88H223.518L225.761 80.7214H235.156L237.568 88H244.635L234.182 59.0548H226.904L217.213 88ZM227.285 75.9395L230.289 66.2911H230.374L233.548 75.9395H227.285ZM247.986 88H254.588V75.8126H264.786V88H271.388V59.0548H264.786V70.8614H254.588V59.0548H247.986V88ZM289.253 88.5924C298.098 88.5924 302.075 83.3451 302.075 73.5697C302.075 63.7944 298.098 58.5047 289.253 58.5047C280.409 58.5047 276.431 63.7944 276.431 73.5697C276.431 83.3451 280.409 88.5924 289.253 88.5924ZM289.253 83.4297C284.979 83.4297 283.287 80.5521 283.287 73.5697C283.287 66.5873 284.979 63.6674 289.253 63.6674C293.527 63.6674 295.22 66.5873 295.22 73.5697C295.22 80.5521 293.527 83.4297 289.253 83.4297ZM307.123 88H313.725V77.5053H317.364L322.696 88H330.144L323.881 76.6166C327.14 75.0932 328.79 71.9617 328.79 68.0261C328.79 64.9793 327.859 62.7788 326.378 61.3823C324.474 59.605 321.723 59.0548 317.068 59.0548H307.123V88ZM313.725 72.7234V63.8367H316.687C318.845 63.8367 320.242 64.0906 321.088 64.8946C321.765 65.5717 322.104 66.6297 322.104 68.1108C322.104 69.7188 321.723 70.9884 320.877 71.7078C320.03 72.4272 318.845 72.7234 316.645 72.7234H313.725ZM334.564 88H341.165V77.5053H344.805L350.137 88H357.584L351.321 76.6166C354.58 75.0932 356.23 71.9617 356.23 68.0261C356.23 64.9793 355.299 62.7788 353.818 61.3823C351.914 59.605 349.163 59.0548 344.508 59.0548H334.564V88ZM341.165 72.7234V63.8367H344.128C346.286 63.8367 347.682 64.0906 348.529 64.8946C349.206 65.5717 349.544 66.6297 349.544 68.1108C349.544 69.7188 349.163 70.9884 348.317 71.7078C347.471 72.4272 346.286 72.7234 344.085 72.7234H341.165ZM359.084 88H365.389L367.632 80.7214H377.027L379.439 88H386.506L376.053 59.0548H368.775L359.084 88ZM369.156 75.9395L372.16 66.2911H372.245L375.419 75.9395H369.156ZM390.535 78.9441H395.02L395.951 59.0548H389.604L390.535 78.9441ZM392.735 88.5924H393.031C395.063 88.5924 396.12 87.7884 396.12 85.6725V85.1647C396.12 83.0489 395.063 82.2448 393.031 82.2448H392.735C390.704 82.2448 389.646 83.0489 389.646 85.1647V85.6725C389.646 87.7884 390.704 88.5924 392.735 88.5924Z" fill="#019DF4"/>
</svg>
