<svg width="254" height="74" viewBox="0 0 254 74" fill="none" xmlns="http://www.w3.org/2000/svg">
<path d="M8.14508 23.4825L7.98266 23.4883C6.86894 23.528 6.30459 23.9895 6.34597 25.1496L6.3559 25.4281C6.39727 26.5882 6.99306 27.0084 8.10679 26.9686L8.26921 26.9629C9.38293 26.9231 9.94727 26.4616 9.9059 25.3015L9.89597 25.023C9.85459 23.8629 9.25881 23.4427 8.14508 23.4825ZM9.54029 28.7296L7.08081 28.8173L6.95927 39.7408L10.4397 39.6167L9.54029 28.7296ZM20.3616 35.081C21.6609 35.0347 23.3937 34.7638 24.335 34.4514L23.8695 31.8196C22.948 32.0383 21.7232 32.2214 20.9575 32.2487C19.1709 32.3124 18.1608 31.9999 17.4366 31.2359C16.6162 30.3823 16.2119 28.8169 16.1449 26.9375C16.0324 23.782 16.741 21.5032 20.1518 21.3815C21.1495 21.346 22.3403 21.5126 23.5824 21.8168L23.9521 19.1551C22.9163 18.7739 21.1422 18.5351 19.7732 18.584C14.3438 18.7776 12.2123 22.199 12.3894 27.1644C12.4879 29.9255 13.1416 31.9699 14.5386 33.3604C15.7666 34.5712 17.554 35.1811 20.3616 35.081ZM30.6801 16.7546L35.2768 13.4078L33.574 11.2615L29.4686 15.3574L30.6801 16.7546ZM25.7395 34.564L29.1967 34.4407L30.2841 30.406L35.4351 30.2223L36.9 34.1659L40.7748 34.0278L34.4778 18.3616L30.4869 18.5039L25.7395 34.564ZM31.0259 27.7543L32.4846 22.4053L32.531 22.4037L34.4599 27.6318L31.0259 27.7543ZM42.3805 33.9705L45.42 33.8621L45.0907 24.6274L48.6785 30.1217L51.4628 30.0224L54.5607 24.3826L54.8867 33.5245L58.2047 33.4061L57.6387 17.5355L54.8544 17.6348L49.9963 26.6828L44.6684 17.9981L41.8145 18.0999L42.3805 33.9705ZM61.4085 33.2919L67.0467 33.0908C69.5062 33.0031 71.0467 32.5532 72.0353 31.6119C72.8665 30.8156 73.2908 29.6853 73.2362 28.1539C73.1618 26.0657 71.7183 24.6768 69.7361 24.4687C71.1714 23.6741 71.8982 22.5562 71.8403 20.9321C71.7989 19.7719 71.3714 18.8579 70.6297 18.2571C69.6727 17.4781 68.2673 17.1565 66.0166 17.2368L60.8424 17.4213L61.4085 33.2919ZM64.6871 23.6033L64.5556 19.9141L65.8781 19.8669C66.8526 19.8322 67.4136 19.9283 67.7741 20.264C68.0865 20.5548 68.2414 20.9907 68.2621 21.5708C68.2853 22.2205 68.1394 22.6903 67.8485 23.0027C67.4673 23.388 66.9146 23.5239 65.9169 23.5595L64.6871 23.6033ZM64.9346 30.5409L64.7806 26.2252L66.2656 26.1722C67.565 26.1259 68.3116 26.2154 68.8137 26.6157C69.2438 26.9489 69.4493 27.4991 69.4799 28.3576C69.5031 29.0073 69.334 29.4779 69.0207 29.8144C68.5956 30.2709 67.7653 30.4399 66.4195 30.4879L64.9346 30.5409ZM75.8604 32.7765L79.48 32.6474L78.914 16.7768L75.2944 16.9059L75.8604 32.7765ZM81.1185 32.5889L84.5757 32.4656L85.6631 28.4309L90.8141 28.2472L92.279 32.1909L96.1538 32.0527L89.8568 16.3865L85.8659 16.5289L81.1185 32.5889ZM86.4049 25.7793L87.8636 20.4303L87.91 20.4287L89.8389 25.6568L86.4049 25.7793ZM100.131 31.9109L103.75 31.7818L103.278 18.5331L108.081 18.3618L108.266 15.73L94.6458 16.2157L94.7393 18.8376L99.6582 18.6622L100.131 31.9109ZM110.488 31.5415L121.324 31.1551L121.23 28.5332L114.014 28.7905L113.87 24.7301L119.322 24.5356L119.225 21.8209L113.773 22.0154L113.635 18.1637L120.457 17.9204L120.642 15.2886L109.922 15.6709L110.488 31.5415ZM134.216 31.0206C138.972 30.8509 140.422 27.1982 140.256 22.5577C140.091 17.9172 138.384 14.3539 133.627 14.5235C128.871 14.6931 127.422 18.369 127.587 23.0095C127.753 27.6501 129.459 31.1902 134.216 31.0206ZM134.152 29.234C130.88 29.3506 129.884 26.8306 129.745 22.9326C129.606 19.0345 130.419 16.4268 133.691 16.3101C136.962 16.1934 137.959 18.7366 138.098 22.6347C138.237 26.5327 137.423 29.1173 134.152 29.234ZM147.831 30.2097L151.451 30.0806L151.245 24.3264L153.241 24.2552L156.37 29.9052L160.453 29.7596L156.797 23.6405C158.553 22.7415 159.397 20.9923 159.32 18.8344C159.261 17.1638 158.707 15.9755 157.868 15.2388C156.789 14.3015 155.27 14.0536 152.718 14.1447L147.265 14.3391L147.831 30.2097ZM151.152 21.7045L150.978 16.8319L152.602 16.774C153.786 16.7318 154.556 16.8437 155.036 17.268C155.42 17.626 155.627 18.1995 155.656 19.0116C155.687 19.8933 155.503 20.5968 155.053 21.0078C154.603 21.4188 153.959 21.6044 152.753 21.6474L151.152 21.7045ZM162.644 29.6814L173.48 29.295L173.386 26.6731L166.17 26.9304L166.026 22.87L171.478 22.6755L171.381 19.9608L165.929 20.1553L165.791 16.3036L172.613 16.0604L172.798 13.4285L162.078 13.8108L162.644 29.6814ZM175.94 29.2073L179.118 29.0939L178.775 19.4648L186.404 28.8341L189.304 28.7306L188.738 12.86L185.56 12.9734L185.922 23.1361L178.042 13.2415L175.374 13.3367L175.94 29.2073ZM198.89 28.714C200.932 28.6412 202.698 27.9974 203.706 26.9625C204.828 25.8306 205.164 24.1923 205.092 22.1737L204.74 12.2894L201.538 12.4036L201.897 22.4735C201.941 23.7032 201.762 24.546 201.225 25.1227C200.756 25.6505 199.998 25.9099 198.954 25.9471C197.91 25.9843 197.112 25.7573 196.606 25.2642C196.03 24.7272 195.79 23.8761 195.747 22.6696L195.389 12.6228L191.793 12.7511L192.151 22.7978C192.232 25.0717 192.766 26.3769 193.847 27.3606C194.951 28.3666 196.686 28.7926 198.89 28.714ZM208.376 28.0505L219.212 27.664L219.118 25.0421L211.902 25.2995L211.757 21.239L217.21 21.0445L217.113 18.3298L211.661 18.5243L211.523 14.6727L218.345 14.4294L218.53 11.7976L207.81 12.1799L208.376 28.0505ZM225.755 27.4307L229.537 27.2958L234.238 11.2373L230.711 11.3631L227.665 22.9949L223.542 11.6188L219.667 11.757L225.755 27.4307ZM234 27.1366L237.457 27.0133L238.545 22.9786L243.696 22.7949L245.161 26.7386L249.035 26.6004L242.738 10.9342L238.748 11.0765L234 27.1366ZM239.287 20.3269L240.745 14.978L240.792 14.9763L242.721 20.2044L239.287 20.3269ZM18.9283 63.8253L22.5479 63.6962L22.0754 50.4475L26.8783 50.2762L27.0632 47.6444L13.4433 48.1302L13.5368 50.7521L18.4558 50.5766L18.9283 63.8253ZM35.6782 63.5532C37.72 63.4804 39.4859 62.8366 40.4945 61.8017C41.6157 60.6698 41.9522 59.0315 41.8802 57.0129L41.5277 47.1286L38.3258 47.2428L38.6849 57.3127C38.7287 58.5424 38.5497 59.3852 38.0127 59.9619C37.5437 60.4897 36.7862 60.7491 35.7421 60.7863C34.698 60.8235 33.9 60.5964 33.3946 60.1034C32.8178 59.5664 32.5784 58.7153 32.5354 57.5088L32.1771 47.462L28.5807 47.5903L28.939 57.637C29.0201 59.9109 29.5545 61.2161 30.635 62.1997C31.7396 63.2058 33.4739 63.6318 35.6782 63.5532ZM57.1625 62.787C58.4619 62.7407 60.1946 62.4698 61.136 62.1574L60.6704 59.5256C59.7489 59.7443 58.5242 59.9273 57.7585 59.9547C55.9719 60.0184 54.9618 59.7059 54.2375 58.9418C53.4172 58.0883 53.0129 56.5229 52.9459 54.6435C52.8333 51.4879 53.542 49.2092 56.9527 49.0875C57.9505 49.0519 59.1412 49.2186 60.3834 49.5227L60.7531 46.8611C59.7173 46.4799 57.9431 46.2411 56.5742 46.2899C51.1448 46.4836 49.0133 49.905 49.1904 54.8704C49.2888 57.6315 49.9425 59.6758 51.3396 61.0664C52.5676 62.2771 54.355 62.8871 57.1625 62.787ZM63.575 62.2331L74.4106 61.8466L74.3171 59.2247L67.1011 59.4821L66.9563 55.4216L72.4089 55.2271L72.3121 52.5124L66.8595 52.7069L66.7221 48.8553L73.5437 48.612L73.7286 45.9802L63.009 46.3625L63.575 62.2331ZM76.8703 61.7589L87.5203 61.3791L87.4268 58.7572L80.3964 59.0079L79.9239 45.7592L76.3043 45.8883L76.8703 61.7589ZM94.1303 61.1433L103.365 60.814L103.307 59.1898L96.1374 59.4455L95.9388 53.8769L101.484 53.6791L101.425 52.0085L95.8792 52.2063L95.6873 46.8233L102.532 46.5792L102.66 44.9484L93.5643 45.2727L94.1303 61.1433ZM110.204 60.8953C112.037 60.83 113.437 60.3386 114.356 59.3998C115.118 58.6292 115.543 57.5221 115.493 56.13C115.3 50.7005 107.176 52.2216 107.047 48.602C106.987 46.9082 108.285 46.1649 110.442 46.088C111.487 46.0507 112.722 46.1693 113.893 46.4295L114.138 44.841C113.035 44.5087 111.588 44.3279 110.219 44.3768C107.063 44.4893 105.003 46.0032 105.103 48.8107C105.298 54.2633 113.386 52.4183 113.529 56.4091C113.559 57.2676 113.28 57.9048 112.739 58.3656C112.13 58.8752 111.256 59.1386 109.957 59.185C108.681 59.2305 107.186 59.005 105.967 58.7L105.675 60.2902C106.899 60.7344 108.742 60.9475 110.204 60.8953ZM121.395 60.171L123.46 60.0973L122.952 45.8509L127.918 45.6738L128.045 44.043L115.771 44.4808L115.829 46.1049L120.887 45.9245L121.395 60.171ZM130.731 59.838L139.965 59.5087L139.907 57.8845L132.738 58.1402L132.539 52.5716L138.085 52.3738L138.025 50.7032L132.48 50.901L132.288 45.518L139.132 45.2739L139.26 43.6431L130.165 43.9674L130.731 59.838ZM151.203 59.1079L154.986 58.973L159.686 42.9146L156.16 43.0404L153.113 54.6721L148.99 43.296L145.115 43.4342L151.203 59.1079ZM162.024 58.722L172.86 58.3355L172.766 55.7137L165.55 55.971L165.405 51.9105L170.858 51.7161L170.761 49.0014L165.308 49.1958L165.171 45.3442L171.993 45.1009L172.177 42.4691L161.458 42.8514L162.024 58.722ZM175.319 58.2478L178.939 58.1187L178.734 52.3645L180.729 52.2933L183.858 57.9433L187.941 57.7977L184.285 51.6786C186.042 50.7796 186.885 49.0304 186.808 46.8725C186.749 45.2019 186.195 44.0136 185.356 43.2769C184.277 42.3396 182.758 42.0918 180.206 42.1828L174.753 42.3772L175.319 58.2478ZM178.64 49.7426L178.466 44.87L180.09 44.8121C181.274 44.7699 182.044 44.8818 182.524 45.3061C182.909 45.6641 183.115 46.2376 183.144 47.0497C183.175 47.9314 182.991 48.6349 182.541 49.0459C182.091 49.4569 181.448 49.6425 180.241 49.6855L178.64 49.7426ZM188.532 57.7766L191.989 57.6533L193.076 53.6186L198.227 53.4349L199.692 57.3786L203.567 57.2404L197.27 41.5742L193.279 41.7165L188.532 57.7766ZM193.818 50.9669L195.277 45.618L195.323 45.6163L197.252 50.8445L193.818 50.9669ZM205.173 57.1831L208.351 57.0698L208.008 47.4407L215.637 56.8099L218.537 56.7065L217.971 40.8359L214.793 40.9493L215.155 51.112L207.275 41.2174L204.607 41.3126L205.173 57.1831ZM228.1 56.6907C232.949 56.5178 235.028 53.5629 234.836 48.2031C234.645 42.8433 232.361 40.0207 227.511 40.1937C222.662 40.3666 220.585 43.3447 220.776 48.7045C220.967 54.0643 223.25 56.8637 228.1 56.6907ZM227.999 53.86C225.655 53.9436 224.671 52.3989 224.535 48.5705C224.398 44.742 225.269 43.108 227.612 43.0244C229.956 42.9408 230.941 44.5087 231.078 48.3371C231.214 52.1655 230.342 53.7764 227.999 53.86ZM237.849 51.0461L240.308 50.9584L240.43 40.035L236.949 40.1591L237.849 51.0461ZM239.244 56.2933L239.406 56.2875C240.52 56.2478 241.084 55.7862 241.043 54.6261L241.033 54.3477C240.992 53.1875 240.396 52.7674 239.282 52.8071L239.12 52.8129C238.006 52.8526 237.442 53.3141 237.483 54.4743L237.493 54.7527C237.534 55.9128 238.13 56.333 239.244 56.2933Z" fill="white"/>
<path d="M8.14508 23.4825L7.98266 23.4883C6.86894 23.528 6.30459 23.9895 6.34597 25.1496L6.3559 25.4281C6.39727 26.5882 6.99306 27.0084 8.10679 26.9686L8.26921 26.9629C9.38293 26.9231 9.94727 26.4616 9.9059 25.3015L9.89597 25.023C9.85459 23.8629 9.25881 23.4427 8.14508 23.4825ZM9.54029 28.7296L7.08081 28.8173L6.95927 39.7408L10.4397 39.6167L9.54029 28.7296ZM20.3616 35.081C21.6609 35.0347 23.3937 34.7638 24.335 34.4514L23.8695 31.8196C22.948 32.0383 21.7232 32.2214 20.9575 32.2487C19.1709 32.3124 18.1608 31.9999 17.4366 31.2359C16.6162 30.3823 16.2119 28.8169 16.1449 26.9375C16.0324 23.782 16.741 21.5032 20.1518 21.3815C21.1495 21.346 22.3403 21.5126 23.5824 21.8168L23.9521 19.1551C22.9163 18.7739 21.1422 18.5351 19.7732 18.584C14.3438 18.7776 12.2123 22.199 12.3894 27.1644C12.4879 29.9255 13.1416 31.9699 14.5386 33.3604C15.7666 34.5712 17.554 35.1811 20.3616 35.081ZM30.6801 16.7546L35.2768 13.4078L33.574 11.2615L29.4686 15.3574L30.6801 16.7546ZM25.7395 34.564L29.1967 34.4407L30.2841 30.406L35.4351 30.2223L36.9 34.1659L40.7748 34.0278L34.4778 18.3616L30.4869 18.5039L25.7395 34.564ZM31.0259 27.7543L32.4846 22.4053L32.531 22.4037L34.4599 27.6318L31.0259 27.7543ZM42.3805 33.9705L45.42 33.8621L45.0907 24.6274L48.6785 30.1217L51.4628 30.0224L54.5607 24.3826L54.8867 33.5245L58.2047 33.4061L57.6387 17.5355L54.8544 17.6348L49.9963 26.6828L44.6684 17.9981L41.8145 18.0999L42.3805 33.9705ZM61.4085 33.2919L67.0467 33.0908C69.5062 33.0031 71.0467 32.5532 72.0353 31.6119C72.8665 30.8156 73.2908 29.6853 73.2362 28.1539C73.1618 26.0657 71.7183 24.6768 69.7361 24.4687C71.1714 23.6741 71.8982 22.5562 71.8403 20.9321C71.7989 19.7719 71.3714 18.8579 70.6297 18.2571C69.6727 17.4781 68.2673 17.1565 66.0166 17.2368L60.8424 17.4213L61.4085 33.2919ZM64.6871 23.6033L64.5556 19.9141L65.8781 19.8669C66.8526 19.8322 67.4136 19.9283 67.7741 20.264C68.0865 20.5548 68.2414 20.9907 68.2621 21.5708C68.2853 22.2205 68.1394 22.6903 67.8485 23.0027C67.4673 23.388 66.9146 23.5239 65.9169 23.5595L64.6871 23.6033ZM64.9346 30.5409L64.7806 26.2252L66.2656 26.1722C67.565 26.1259 68.3116 26.2154 68.8137 26.6157C69.2438 26.9489 69.4493 27.4991 69.4799 28.3576C69.5031 29.0073 69.334 29.4779 69.0207 29.8144C68.5956 30.2709 67.7653 30.4399 66.4195 30.4879L64.9346 30.5409ZM75.8604 32.7765L79.48 32.6474L78.914 16.7768L75.2944 16.9059L75.8604 32.7765ZM81.1185 32.5889L84.5757 32.4656L85.6631 28.4309L90.8141 28.2472L92.279 32.1909L96.1538 32.0527L89.8568 16.3865L85.8659 16.5289L81.1185 32.5889ZM86.4049 25.7793L87.8636 20.4303L87.91 20.4287L89.8389 25.6568L86.4049 25.7793ZM100.131 31.9109L103.75 31.7818L103.278 18.5331L108.081 18.3618L108.266 15.73L94.6458 16.2157L94.7393 18.8376L99.6582 18.6622L100.131 31.9109ZM110.488 31.5415L121.324 31.1551L121.23 28.5332L114.014 28.7905L113.87 24.7301L119.322 24.5356L119.225 21.8209L113.773 22.0154L113.635 18.1637L120.457 17.9204L120.642 15.2886L109.922 15.6709L110.488 31.5415ZM134.216 31.0206C138.972 30.8509 140.422 27.1982 140.256 22.5577C140.091 17.9172 138.384 14.3539 133.627 14.5235C128.871 14.6931 127.422 18.369 127.587 23.0095C127.753 27.6501 129.459 31.1902 134.216 31.0206ZM134.152 29.234C130.88 29.3506 129.884 26.8306 129.745 22.9326C129.606 19.0345 130.419 16.4268 133.691 16.3101C136.962 16.1934 137.959 18.7366 138.098 22.6347C138.237 26.5327 137.423 29.1173 134.152 29.234ZM147.831 30.2097L151.451 30.0806L151.245 24.3264L153.241 24.2552L156.37 29.9052L160.453 29.7596L156.797 23.6405C158.553 22.7415 159.397 20.9923 159.32 18.8344C159.261 17.1638 158.707 15.9755 157.868 15.2388C156.789 14.3015 155.27 14.0536 152.718 14.1447L147.265 14.3391L147.831 30.2097ZM151.152 21.7045L150.978 16.8319L152.602 16.774C153.786 16.7318 154.556 16.8437 155.036 17.268C155.42 17.626 155.627 18.1995 155.656 19.0116C155.687 19.8933 155.503 20.5968 155.053 21.0078C154.603 21.4188 153.959 21.6044 152.753 21.6474L151.152 21.7045ZM162.644 29.6814L173.48 29.295L173.386 26.6731L166.17 26.9304L166.026 22.87L171.478 22.6755L171.381 19.9608L165.929 20.1553L165.791 16.3036L172.613 16.0604L172.798 13.4285L162.078 13.8108L162.644 29.6814ZM175.94 29.2073L179.118 29.0939L178.775 19.4648L186.404 28.8341L189.304 28.7306L188.738 12.86L185.56 12.9734L185.922 23.1361L178.042 13.2415L175.374 13.3367L175.94 29.2073ZM198.89 28.714C200.932 28.6412 202.698 27.9974 203.706 26.9625C204.828 25.8306 205.164 24.1923 205.092 22.1737L204.74 12.2894L201.538 12.4036L201.897 22.4735C201.941 23.7032 201.762 24.546 201.225 25.1227C200.756 25.6505 199.998 25.9099 198.954 25.9471C197.91 25.9843 197.112 25.7573 196.606 25.2642C196.03 24.7272 195.79 23.8761 195.747 22.6696L195.389 12.6228L191.793 12.7511L192.151 22.7978C192.232 25.0717 192.766 26.3769 193.847 27.3606C194.951 28.3666 196.686 28.7926 198.89 28.714ZM208.376 28.0505L219.212 27.664L219.118 25.0421L211.902 25.2995L211.757 21.239L217.21 21.0445L217.113 18.3298L211.661 18.5243L211.523 14.6727L218.345 14.4294L218.53 11.7976L207.81 12.1799L208.376 28.0505ZM225.755 27.4307L229.537 27.2958L234.238 11.2373L230.711 11.3631L227.665 22.9949L223.542 11.6188L219.667 11.757L225.755 27.4307ZM234 27.1366L237.457 27.0133L238.545 22.9786L243.696 22.7949L245.161 26.7386L249.035 26.6004L242.738 10.9342L238.748 11.0765L234 27.1366ZM239.287 20.3269L240.745 14.978L240.792 14.9763L242.721 20.2044L239.287 20.3269ZM18.9283 63.8253L22.5479 63.6962L22.0754 50.4475L26.8783 50.2762L27.0632 47.6444L13.4433 48.1302L13.5368 50.7521L18.4558 50.5766L18.9283 63.8253ZM35.6782 63.5532C37.72 63.4804 39.4859 62.8366 40.4945 61.8017C41.6157 60.6698 41.9522 59.0315 41.8802 57.0129L41.5277 47.1286L38.3258 47.2428L38.6849 57.3127C38.7287 58.5424 38.5497 59.3852 38.0127 59.9619C37.5437 60.4897 36.7862 60.7491 35.7421 60.7863C34.698 60.8235 33.9 60.5964 33.3946 60.1034C32.8178 59.5664 32.5784 58.7153 32.5354 57.5088L32.1771 47.462L28.5807 47.5903L28.939 57.637C29.0201 59.9109 29.5545 61.2161 30.635 62.1997C31.7396 63.2058 33.4739 63.6318 35.6782 63.5532ZM57.1625 62.787C58.4619 62.7407 60.1946 62.4698 61.136 62.1574L60.6704 59.5256C59.7489 59.7443 58.5242 59.9273 57.7585 59.9547C55.9719 60.0184 54.9618 59.7059 54.2375 58.9418C53.4172 58.0883 53.0129 56.5229 52.9459 54.6435C52.8333 51.4879 53.542 49.2092 56.9527 49.0875C57.9505 49.0519 59.1412 49.2186 60.3834 49.5227L60.7531 46.8611C59.7173 46.4799 57.9431 46.2411 56.5742 46.2899C51.1448 46.4836 49.0133 49.905 49.1904 54.8704C49.2888 57.6315 49.9425 59.6758 51.3396 61.0664C52.5676 62.2771 54.355 62.8871 57.1625 62.787ZM63.575 62.2331L74.4106 61.8466L74.3171 59.2247L67.1011 59.4821L66.9563 55.4216L72.4089 55.2271L72.3121 52.5124L66.8595 52.7069L66.7221 48.8553L73.5437 48.612L73.7286 45.9802L63.009 46.3625L63.575 62.2331ZM76.8703 61.7589L87.5203 61.3791L87.4268 58.7572L80.3964 59.0079L79.9239 45.7592L76.3043 45.8883L76.8703 61.7589ZM94.1303 61.1433L103.365 60.814L103.307 59.1898L96.1374 59.4455L95.9388 53.8769L101.484 53.6791L101.425 52.0085L95.8792 52.2063L95.6873 46.8233L102.532 46.5792L102.66 44.9484L93.5643 45.2727L94.1303 61.1433ZM110.204 60.8953C112.037 60.83 113.437 60.3386 114.356 59.3998C115.118 58.6292 115.543 57.5221 115.493 56.13C115.3 50.7005 107.176 52.2216 107.047 48.602C106.987 46.9082 108.285 46.1649 110.442 46.088C111.487 46.0507 112.722 46.1693 113.893 46.4295L114.138 44.841C113.035 44.5087 111.588 44.3279 110.219 44.3768C107.063 44.4893 105.003 46.0032 105.103 48.8107C105.298 54.2633 113.386 52.4183 113.529 56.4091C113.559 57.2676 113.28 57.9048 112.739 58.3656C112.13 58.8752 111.256 59.1386 109.957 59.185C108.681 59.2305 107.186 59.005 105.967 58.7L105.675 60.2902C106.899 60.7344 108.742 60.9475 110.204 60.8953ZM121.395 60.171L123.46 60.0973L122.952 45.8509L127.918 45.6738L128.045 44.043L115.771 44.4808L115.829 46.1049L120.887 45.9245L121.395 60.171ZM130.731 59.838L139.965 59.5087L139.907 57.8845L132.738 58.1402L132.539 52.5716L138.085 52.3738L138.025 50.7032L132.48 50.901L132.288 45.518L139.132 45.2739L139.26 43.6431L130.165 43.9674L130.731 59.838ZM151.203 59.1079L154.986 58.973L159.686 42.9146L156.16 43.0404L153.113 54.6721L148.99 43.296L145.115 43.4342L151.203 59.1079ZM162.024 58.722L172.86 58.3355L172.766 55.7137L165.55 55.971L165.405 51.9105L170.858 51.7161L170.761 49.0014L165.308 49.1958L165.171 45.3442L171.993 45.1009L172.177 42.4691L161.458 42.8514L162.024 58.722ZM175.319 58.2478L178.939 58.1187L178.734 52.3645L180.729 52.2933L183.858 57.9433L187.941 57.7977L184.285 51.6786C186.042 50.7796 186.885 49.0304 186.808 46.8725C186.749 45.2019 186.195 44.0136 185.356 43.2769C184.277 42.3396 182.758 42.0918 180.206 42.1828L174.753 42.3772L175.319 58.2478ZM178.64 49.7426L178.466 44.87L180.09 44.8121C181.274 44.7699 182.044 44.8818 182.524 45.3061C182.909 45.6641 183.115 46.2376 183.144 47.0497C183.175 47.9314 182.991 48.6349 182.541 49.0459C182.091 49.4569 181.448 49.6425 180.241 49.6855L178.64 49.7426ZM188.532 57.7766L191.989 57.6533L193.076 53.6186L198.227 53.4349L199.692 57.3786L203.567 57.2404L197.27 41.5742L193.279 41.7165L188.532 57.7766ZM193.818 50.9669L195.277 45.618L195.323 45.6163L197.252 50.8445L193.818 50.9669ZM205.173 57.1831L208.351 57.0698L208.008 47.4407L215.637 56.8099L218.537 56.7065L217.971 40.8359L214.793 40.9493L215.155 51.112L207.275 41.2174L204.607 41.3126L205.173 57.1831ZM228.1 56.6907C232.949 56.5178 235.028 53.5629 234.836 48.2031C234.645 42.8433 232.361 40.0207 227.511 40.1937C222.662 40.3666 220.585 43.3447 220.776 48.7045C220.967 54.0643 223.25 56.8637 228.1 56.6907ZM227.999 53.86C225.655 53.9436 224.671 52.3989 224.535 48.5705C224.398 44.742 225.269 43.108 227.612 43.0244C229.956 42.9408 230.941 44.5087 231.078 48.3371C231.214 52.1655 230.342 53.7764 227.999 53.86ZM237.849 51.0461L240.308 50.9584L240.43 40.035L236.949 40.1591L237.849 51.0461ZM239.244 56.2933L239.406 56.2875C240.52 56.2478 241.084 55.7862 241.043 54.6261L241.033 54.3477C240.992 53.1875 240.396 52.7674 239.282 52.8071L239.12 52.8129C238.006 52.8526 237.442 53.3141 237.483 54.4743L237.493 54.7527C237.534 55.9128 238.13 56.333 239.244 56.2933Z" fill="white"/>
<path d="M8.14508 23.4825L7.98266 23.4883C6.86894 23.528 6.30459 23.9895 6.34597 25.1496L6.3559 25.4281C6.39727 26.5882 6.99306 27.0084 8.10679 26.9686L8.26921 26.9629C9.38293 26.9231 9.94727 26.4616 9.9059 25.3015L9.89597 25.023C9.85459 23.8629 9.25881 23.4427 8.14508 23.4825ZM9.54029 28.7296L7.08081 28.8173L6.95927 39.7408L10.4397 39.6167L9.54029 28.7296ZM20.3616 35.081C21.6609 35.0347 23.3937 34.7638 24.335 34.4514L23.8695 31.8196C22.948 32.0383 21.7232 32.2214 20.9575 32.2487C19.1709 32.3124 18.1608 31.9999 17.4366 31.2359C16.6162 30.3823 16.2119 28.8169 16.1449 26.9375C16.0324 23.782 16.741 21.5032 20.1518 21.3815C21.1495 21.346 22.3403 21.5126 23.5824 21.8168L23.9521 19.1551C22.9163 18.7739 21.1422 18.5351 19.7732 18.584C14.3438 18.7776 12.2123 22.199 12.3894 27.1644C12.4879 29.9255 13.1416 31.9699 14.5386 33.3604C15.7666 34.5712 17.554 35.1811 20.3616 35.081ZM30.6801 16.7546L35.2768 13.4078L33.574 11.2615L29.4686 15.3574L30.6801 16.7546ZM25.7395 34.564L29.1967 34.4407L30.2841 30.406L35.4351 30.2223L36.9 34.1659L40.7748 34.0278L34.4778 18.3616L30.4869 18.5039L25.7395 34.564ZM31.0259 27.7543L32.4846 22.4053L32.531 22.4037L34.4599 27.6318L31.0259 27.7543ZM42.3805 33.9705L45.42 33.8621L45.0907 24.6274L48.6785 30.1217L51.4628 30.0224L54.5607 24.3826L54.8867 33.5245L58.2047 33.4061L57.6387 17.5355L54.8544 17.6348L49.9963 26.6828L44.6684 17.9981L41.8145 18.0999L42.3805 33.9705ZM61.4085 33.2919L67.0467 33.0908C69.5062 33.0031 71.0467 32.5532 72.0353 31.6119C72.8665 30.8156 73.2908 29.6853 73.2362 28.1539C73.1618 26.0657 71.7183 24.6768 69.7361 24.4687C71.1714 23.6741 71.8982 22.5562 71.8403 20.9321C71.7989 19.7719 71.3714 18.8579 70.6297 18.2571C69.6727 17.4781 68.2673 17.1565 66.0166 17.2368L60.8424 17.4213L61.4085 33.2919ZM64.6871 23.6033L64.5556 19.9141L65.8781 19.8669C66.8526 19.8322 67.4136 19.9283 67.7741 20.264C68.0865 20.5548 68.2414 20.9907 68.2621 21.5708C68.2853 22.2205 68.1394 22.6903 67.8485 23.0027C67.4673 23.388 66.9146 23.5239 65.9169 23.5595L64.6871 23.6033ZM64.9346 30.5409L64.7806 26.2252L66.2656 26.1722C67.565 26.1259 68.3116 26.2154 68.8137 26.6157C69.2438 26.9489 69.4493 27.4991 69.4799 28.3576C69.5031 29.0073 69.334 29.4779 69.0207 29.8144C68.5956 30.2709 67.7653 30.4399 66.4195 30.4879L64.9346 30.5409ZM75.8604 32.7765L79.48 32.6474L78.914 16.7768L75.2944 16.9059L75.8604 32.7765ZM81.1185 32.5889L84.5757 32.4656L85.6631 28.4309L90.8141 28.2472L92.279 32.1909L96.1538 32.0527L89.8568 16.3865L85.8659 16.5289L81.1185 32.5889ZM86.4049 25.7793L87.8636 20.4303L87.91 20.4287L89.8389 25.6568L86.4049 25.7793ZM100.131 31.9109L103.75 31.7818L103.278 18.5331L108.081 18.3618L108.266 15.73L94.6458 16.2157L94.7393 18.8376L99.6582 18.6622L100.131 31.9109ZM110.488 31.5415L121.324 31.1551L121.23 28.5332L114.014 28.7905L113.87 24.7301L119.322 24.5356L119.225 21.8209L113.773 22.0154L113.635 18.1637L120.457 17.9204L120.642 15.2886L109.922 15.6709L110.488 31.5415ZM134.216 31.0206C138.972 30.8509 140.422 27.1982 140.256 22.5577C140.091 17.9172 138.384 14.3539 133.627 14.5235C128.871 14.6931 127.422 18.369 127.587 23.0095C127.753 27.6501 129.459 31.1902 134.216 31.0206ZM134.152 29.234C130.88 29.3506 129.884 26.8306 129.745 22.9326C129.606 19.0345 130.419 16.4268 133.691 16.3101C136.962 16.1934 137.959 18.7366 138.098 22.6347C138.237 26.5327 137.423 29.1173 134.152 29.234ZM147.831 30.2097L151.451 30.0806L151.245 24.3264L153.241 24.2552L156.37 29.9052L160.453 29.7596L156.797 23.6405C158.553 22.7415 159.397 20.9923 159.32 18.8344C159.261 17.1638 158.707 15.9755 157.868 15.2388C156.789 14.3015 155.27 14.0536 152.718 14.1447L147.265 14.3391L147.831 30.2097ZM151.152 21.7045L150.978 16.8319L152.602 16.774C153.786 16.7318 154.556 16.8437 155.036 17.268C155.42 17.626 155.627 18.1995 155.656 19.0116C155.687 19.8933 155.503 20.5968 155.053 21.0078C154.603 21.4188 153.959 21.6044 152.753 21.6474L151.152 21.7045ZM162.644 29.6814L173.48 29.295L173.386 26.6731L166.17 26.9304L166.026 22.87L171.478 22.6755L171.381 19.9608L165.929 20.1553L165.791 16.3036L172.613 16.0604L172.798 13.4285L162.078 13.8108L162.644 29.6814ZM175.94 29.2073L179.118 29.0939L178.775 19.4648L186.404 28.8341L189.304 28.7306L188.738 12.86L185.56 12.9734L185.922 23.1361L178.042 13.2415L175.374 13.3367L175.94 29.2073ZM198.89 28.714C200.932 28.6412 202.698 27.9974 203.706 26.9625C204.828 25.8306 205.164 24.1923 205.092 22.1737L204.74 12.2894L201.538 12.4036L201.897 22.4735C201.941 23.7032 201.762 24.546 201.225 25.1227C200.756 25.6505 199.998 25.9099 198.954 25.9471C197.91 25.9843 197.112 25.7573 196.606 25.2642C196.03 24.7272 195.79 23.8761 195.747 22.6696L195.389 12.6228L191.793 12.7511L192.151 22.7978C192.232 25.0717 192.766 26.3769 193.847 27.3606C194.951 28.3666 196.686 28.7926 198.89 28.714ZM208.376 28.0505L219.212 27.664L219.118 25.0421L211.902 25.2995L211.757 21.239L217.21 21.0445L217.113 18.3298L211.661 18.5243L211.523 14.6727L218.345 14.4294L218.53 11.7976L207.81 12.1799L208.376 28.0505ZM225.755 27.4307L229.537 27.2958L234.238 11.2373L230.711 11.3631L227.665 22.9949L223.542 11.6188L219.667 11.757L225.755 27.4307ZM234 27.1366L237.457 27.0133L238.545 22.9786L243.696 22.7949L245.161 26.7386L249.035 26.6004L242.738 10.9342L238.748 11.0765L234 27.1366ZM239.287 20.3269L240.745 14.978L240.792 14.9763L242.721 20.2044L239.287 20.3269ZM18.9283 63.8253L22.5479 63.6962L22.0754 50.4475L26.8783 50.2762L27.0632 47.6444L13.4433 48.1302L13.5368 50.7521L18.4558 50.5766L18.9283 63.8253ZM35.6782 63.5532C37.72 63.4804 39.4859 62.8366 40.4945 61.8017C41.6157 60.6698 41.9522 59.0315 41.8802 57.0129L41.5277 47.1286L38.3258 47.2428L38.6849 57.3127C38.7287 58.5424 38.5497 59.3852 38.0127 59.9619C37.5437 60.4897 36.7862 60.7491 35.7421 60.7863C34.698 60.8235 33.9 60.5964 33.3946 60.1034C32.8178 59.5664 32.5784 58.7153 32.5354 57.5088L32.1771 47.462L28.5807 47.5903L28.939 57.637C29.0201 59.9109 29.5545 61.2161 30.635 62.1997C31.7396 63.2058 33.4739 63.6318 35.6782 63.5532ZM57.1625 62.787C58.4619 62.7407 60.1946 62.4698 61.136 62.1574L60.6704 59.5256C59.7489 59.7443 58.5242 59.9273 57.7585 59.9547C55.9719 60.0184 54.9618 59.7059 54.2375 58.9418C53.4172 58.0883 53.0129 56.5229 52.9459 54.6435C52.8333 51.4879 53.542 49.2092 56.9527 49.0875C57.9505 49.0519 59.1412 49.2186 60.3834 49.5227L60.7531 46.8611C59.7173 46.4799 57.9431 46.2411 56.5742 46.2899C51.1448 46.4836 49.0133 49.905 49.1904 54.8704C49.2888 57.6315 49.9425 59.6758 51.3396 61.0664C52.5676 62.2771 54.355 62.8871 57.1625 62.787ZM63.575 62.2331L74.4106 61.8466L74.3171 59.2247L67.1011 59.4821L66.9563 55.4216L72.4089 55.2271L72.3121 52.5124L66.8595 52.7069L66.7221 48.8553L73.5437 48.612L73.7286 45.9802L63.009 46.3625L63.575 62.2331ZM76.8703 61.7589L87.5203 61.3791L87.4268 58.7572L80.3964 59.0079L79.9239 45.7592L76.3043 45.8883L76.8703 61.7589ZM94.1303 61.1433L103.365 60.814L103.307 59.1898L96.1374 59.4455L95.9388 53.8769L101.484 53.6791L101.425 52.0085L95.8792 52.2063L95.6873 46.8233L102.532 46.5792L102.66 44.9484L93.5643 45.2727L94.1303 61.1433ZM110.204 60.8953C112.037 60.83 113.437 60.3386 114.356 59.3998C115.118 58.6292 115.543 57.5221 115.493 56.13C115.3 50.7005 107.176 52.2216 107.047 48.602C106.987 46.9082 108.285 46.1649 110.442 46.088C111.487 46.0507 112.722 46.1693 113.893 46.4295L114.138 44.841C113.035 44.5087 111.588 44.3279 110.219 44.3768C107.063 44.4893 105.003 46.0032 105.103 48.8107C105.298 54.2633 113.386 52.4183 113.529 56.4091C113.559 57.2676 113.28 57.9048 112.739 58.3656C112.13 58.8752 111.256 59.1386 109.957 59.185C108.681 59.2305 107.186 59.005 105.967 58.7L105.675 60.2902C106.899 60.7344 108.742 60.9475 110.204 60.8953ZM121.395 60.171L123.46 60.0973L122.952 45.8509L127.918 45.6738L128.045 44.043L115.771 44.4808L115.829 46.1049L120.887 45.9245L121.395 60.171ZM130.731 59.838L139.965 59.5087L139.907 57.8845L132.738 58.1402L132.539 52.5716L138.085 52.3738L138.025 50.7032L132.48 50.901L132.288 45.518L139.132 45.2739L139.26 43.6431L130.165 43.9674L130.731 59.838ZM151.203 59.1079L154.986 58.973L159.686 42.9146L156.16 43.0404L153.113 54.6721L148.99 43.296L145.115 43.4342L151.203 59.1079ZM162.024 58.722L172.86 58.3355L172.766 55.7137L165.55 55.971L165.405 51.9105L170.858 51.7161L170.761 49.0014L165.308 49.1958L165.171 45.3442L171.993 45.1009L172.177 42.4691L161.458 42.8514L162.024 58.722ZM175.319 58.2478L178.939 58.1187L178.734 52.3645L180.729 52.2933L183.858 57.9433L187.941 57.7977L184.285 51.6786C186.042 50.7796 186.885 49.0304 186.808 46.8725C186.749 45.2019 186.195 44.0136 185.356 43.2769C184.277 42.3396 182.758 42.0918 180.206 42.1828L174.753 42.3772L175.319 58.2478ZM178.64 49.7426L178.466 44.87L180.09 44.8121C181.274 44.7699 182.044 44.8818 182.524 45.3061C182.909 45.6641 183.115 46.2376 183.144 47.0497C183.175 47.9314 182.991 48.6349 182.541 49.0459C182.091 49.4569 181.448 49.6425 180.241 49.6855L178.64 49.7426ZM188.532 57.7766L191.989 57.6533L193.076 53.6186L198.227 53.4349L199.692 57.3786L203.567 57.2404L197.27 41.5742L193.279 41.7165L188.532 57.7766ZM193.818 50.9669L195.277 45.618L195.323 45.6163L197.252 50.8445L193.818 50.9669ZM205.173 57.1831L208.351 57.0698L208.008 47.4407L215.637 56.8099L218.537 56.7065L217.971 40.8359L214.793 40.9493L215.155 51.112L207.275 41.2174L204.607 41.3126L205.173 57.1831ZM228.1 56.6907C232.949 56.5178 235.028 53.5629 234.836 48.2031C234.645 42.8433 232.361 40.0207 227.511 40.1937C222.662 40.3666 220.585 43.3447 220.776 48.7045C220.967 54.0643 223.25 56.8637 228.1 56.6907ZM227.999 53.86C225.655 53.9436 224.671 52.3989 224.535 48.5705C224.398 44.742 225.269 43.108 227.612 43.0244C229.956 42.9408 230.941 44.5087 231.078 48.3371C231.214 52.1655 230.342 53.7764 227.999 53.86ZM237.849 51.0461L240.308 50.9584L240.43 40.035L236.949 40.1591L237.849 51.0461ZM239.244 56.2933L239.406 56.2875C240.52 56.2478 241.084 55.7862 241.043 54.6261L241.033 54.3477C240.992 53.1875 240.396 52.7674 239.282 52.8071L239.12 52.8129C238.006 52.8526 237.442 53.3141 237.483 54.4743L237.493 54.7527C237.534 55.9128 238.13 56.333 239.244 56.2933Z" fill="#019DF4"/>
<path d="M6.47907 21.9317L6.31665 21.9375C5.20292 21.9772 4.63858 22.4387 4.67995 23.5989L4.68988 23.8773C4.73126 25.0374 5.32705 25.4576 6.44077 25.4179L6.60319 25.4121C7.71692 25.3724 8.28126 24.9108 8.23988 23.7507L8.22995 23.4723C8.18858 22.3121 7.59279 21.892 6.47907 21.9317ZM7.87427 27.1788L5.41479 27.2666L5.29326 38.19L8.77365 38.0659L7.87427 27.1788ZM18.6955 33.5302C19.9949 33.4839 21.7276 33.213 22.669 32.9007L22.2034 30.2688C21.282 30.4875 20.0572 30.6706 19.2915 30.6979C17.5049 30.7616 16.4948 30.4492 15.7706 29.6851C14.9502 28.8315 14.5459 27.2662 14.4789 25.3867C14.3663 22.2312 15.075 19.9524 18.4858 19.8308C19.4835 19.7952 20.6742 19.9618 21.9164 20.266L22.2861 17.6043C21.2503 17.2231 19.4762 16.9844 18.1072 17.0332C12.6778 17.2268 10.5463 20.6483 10.7234 25.6136C10.8218 28.3747 11.4756 30.4191 12.8726 31.8096C14.1006 33.0204 15.888 33.6304 18.6955 33.5302ZM29.0141 15.2038L33.6108 11.8571L31.908 9.71074L27.8026 13.8066L29.0141 15.2038ZM24.0735 33.0132L27.5307 32.8899L28.6181 28.8552L33.7691 28.6715L35.234 32.6152L39.1088 32.477L32.8117 16.8108L28.8209 16.9531L24.0735 33.0132ZM29.3599 26.2035L30.8186 20.8546L30.865 20.8529L32.7939 26.081L29.3599 26.2035ZM40.7145 32.4197L43.754 32.3113L43.4247 23.0767L47.0125 28.5709L49.7968 28.4716L52.8947 22.8319L53.2207 31.9737L56.5387 31.8554L55.9727 15.9848L53.1883 16.0841L48.3303 25.132L43.0024 16.4473L40.1485 16.5491L40.7145 32.4197ZM59.7424 31.7411L65.3807 31.54C67.8402 31.4523 69.3807 31.0024 70.3693 30.0611C71.2005 29.2648 71.6248 28.1345 71.5702 26.6032C71.4957 24.5149 70.0523 23.126 68.0701 22.9179C69.5054 22.1233 70.2322 21.0055 70.1743 19.3813C70.1329 18.2211 69.7054 17.3071 68.9637 16.7063C68.0067 15.9273 66.6013 15.6057 64.3506 15.686L59.1764 15.8705L59.7424 31.7411ZM63.0211 22.0525L62.8895 18.3633L64.2121 18.3161C65.1866 18.2814 65.7476 18.3775 66.1081 18.7132C66.4204 19.004 66.5754 19.4399 66.5961 20.02C66.6192 20.6697 66.4734 21.1395 66.1825 21.4519C65.8013 21.8372 65.2486 21.9731 64.2509 22.0087L63.0211 22.0525ZM63.2685 28.9901L63.1146 24.6744L64.5996 24.6215C65.8989 24.5751 66.6456 24.6647 67.1477 25.0649C67.5778 25.3981 67.7833 25.9483 67.8139 26.8068C67.837 27.4565 67.668 27.9272 67.3547 28.2636C66.9296 28.7202 66.0993 28.8892 64.7535 28.9372L63.2685 28.9901ZM74.1944 31.2257L77.814 31.0966L77.248 15.226L73.6284 15.3551L74.1944 31.2257ZM79.4525 31.0382L82.9097 30.9149L83.9971 26.8802L89.1481 26.6965L90.613 30.6401L94.4878 30.5019L88.1908 14.8357L84.1999 14.9781L79.4525 31.0382ZM84.7389 24.2285L86.1976 18.8795L86.244 18.8779L88.1729 24.106L84.7389 24.2285ZM98.4647 30.3601L102.084 30.231L101.612 16.9823L106.415 16.811L106.6 14.1792L92.9797 14.665L93.0733 17.2868L97.9922 17.1114L98.4647 30.3601ZM108.822 29.9907L119.658 29.6043L119.564 26.9824L112.348 27.2397L112.204 23.1793L117.656 22.9848L117.559 20.2701L112.107 20.4646L111.969 16.6129L118.791 16.3697L118.976 13.7378L108.256 14.1201L108.822 29.9907ZM132.55 29.4698C137.306 29.3001 138.756 25.6475 138.59 21.0069C138.425 16.3664 136.718 12.8031 131.961 12.9727C127.205 13.1423 125.756 16.8182 125.921 21.4587C126.087 26.0993 127.793 29.6394 132.55 29.4698ZM132.486 27.6832C129.214 27.7998 128.218 25.2798 128.079 21.3818C127.94 17.4838 128.753 14.876 132.025 14.7593C135.296 14.6426 136.293 17.1859 136.432 21.0839C136.571 24.9819 135.757 27.5665 132.486 27.6832ZM146.165 28.6589L149.785 28.5299L149.579 22.7756L151.575 22.7044L154.704 28.3544L158.787 28.2088L155.131 22.0898C156.887 21.1907 157.731 19.4415 157.654 17.2836C157.595 15.613 157.041 14.4247 156.202 13.688C155.123 12.7507 153.604 12.5029 151.052 12.5939L145.599 12.7884L146.165 28.6589ZM149.486 20.1537L149.312 15.2812L150.936 15.2232C152.12 15.181 152.89 15.2929 153.37 15.7172C153.754 16.0752 153.961 16.6487 153.99 17.4608C154.021 18.3425 153.837 19.046 153.387 19.457C152.937 19.868 152.293 20.0536 151.087 20.0966L149.486 20.1537ZM160.978 28.1306L171.814 27.7442L171.72 25.1223L164.504 25.3797L164.36 21.3192L169.812 21.1247L169.715 18.41L164.263 18.6045L164.125 14.7529L170.947 14.5096L171.132 11.8777L160.412 12.2601L160.978 28.1306ZM174.274 27.6565L177.452 27.5431L177.109 17.914L184.738 27.2833L187.638 27.1798L187.072 11.3093L183.894 11.4226L184.256 21.5854L176.376 11.6907L173.708 11.7859L174.274 27.6565ZM197.224 27.1632C199.266 27.0904 201.032 26.4466 202.04 25.4117C203.162 24.2798 203.498 22.6415 203.426 20.6229L203.074 10.7386L199.872 10.8528L200.231 20.9227C200.275 22.1525 200.096 22.9952 199.559 23.5719C199.09 24.0998 198.332 24.3591 197.288 24.3963C196.244 24.4336 195.446 24.2065 194.94 23.7134C194.364 23.1764 194.124 22.3253 194.081 21.1188L193.723 11.0721L190.127 11.2003L190.485 21.2471C190.566 23.5209 191.1 24.8261 192.181 25.8098C193.285 26.8158 195.02 27.2418 197.224 27.1632ZM206.71 26.4997L217.546 26.1132L217.452 23.4913L210.236 23.7487L210.091 19.6882L215.544 19.4938L215.447 16.7791L209.995 16.9735L209.857 13.1219L216.679 12.8786L216.864 10.2468L206.144 10.6291L206.71 26.4997ZM224.089 25.8799L227.871 25.745L232.572 9.68656L229.045 9.81234L225.999 21.4441L221.876 10.068L218.001 10.2062L224.089 25.8799ZM232.334 25.5858L235.791 25.4625L236.879 21.4278L242.03 21.2441L243.495 25.1878L247.369 25.0496L241.072 9.38341L237.082 9.52574L232.334 25.5858ZM237.621 18.7761L239.079 13.4272L239.126 13.4255L241.055 18.6537L237.621 18.7761ZM17.2622 62.2745L20.8819 62.1455L20.4094 48.8968L25.2123 48.7255L25.3972 46.0936L11.7773 46.5794L11.8708 49.2013L16.7898 49.0258L17.2622 62.2745ZM34.0122 62.0024C36.054 61.9296 37.8199 61.2858 38.8284 60.2509C39.9497 59.119 40.2862 57.4807 40.2142 55.4621L39.8617 45.5778L36.6597 45.692L37.0189 55.7619C37.0627 56.9917 36.8837 57.8344 36.3467 58.4111C35.8776 58.939 35.1202 59.1983 34.0761 59.2355C33.032 59.2728 32.234 59.0457 31.7285 58.5526C31.1518 58.0156 30.9124 57.1645 30.8693 55.958L30.511 45.9113L26.9146 46.0395L27.2729 56.0863C27.354 58.3601 27.8885 59.6653 28.969 60.649C30.0735 61.655 31.8079 62.081 34.0122 62.0024ZM55.4965 61.2362C56.7959 61.1899 58.5286 60.919 59.47 60.6066L59.0044 57.9748C58.0829 58.1935 56.8582 58.3766 56.0925 58.4039C54.3059 58.4676 53.2957 58.1551 52.5715 57.3911C51.7512 56.5375 51.3469 54.9721 51.2799 53.0927C51.1673 49.9372 51.8759 47.6584 55.2867 47.5367C56.2844 47.5012 57.4752 47.6678 58.7174 47.972L59.0871 45.3103C58.0513 44.9291 56.2771 44.6903 54.9082 44.7392C49.4788 44.9328 47.3473 48.3542 47.5243 53.3196C47.6228 56.0807 48.2765 58.125 49.6736 59.5156C50.9016 60.7264 52.689 61.3363 55.4965 61.2362ZM61.909 60.6823L72.7446 60.2958L72.6511 57.6739L65.4351 57.9313L65.2903 53.8708L70.7429 53.6764L70.6461 50.9617L65.1935 51.1561L65.0561 47.3045L71.8777 47.0612L72.0626 44.4294L61.343 44.8117L61.909 60.6823ZM75.2043 60.2081L85.8543 59.8283L85.7607 57.2064L78.7304 57.4571L78.2579 44.2084L74.6382 44.3375L75.2043 60.2081ZM92.4643 59.5926L101.699 59.2632L101.641 57.639L94.4714 57.8947L94.2728 52.3261L99.8182 52.1283L99.7586 50.4577L94.2132 50.6555L94.0212 45.2725L100.866 45.0284L100.994 43.3976L91.8983 43.722L92.4643 59.5926ZM108.538 59.3446C110.371 59.2792 111.771 58.7879 112.69 57.849C113.452 57.0784 113.877 55.9713 113.827 54.5792C113.634 49.1498 105.51 50.6708 105.381 47.0512C105.321 45.3574 106.619 44.6141 108.776 44.5372C109.821 44.4999 111.056 44.6185 112.227 44.8788L112.472 43.2902C111.369 42.9579 109.922 42.7772 108.553 42.826C105.397 42.9385 103.337 44.4524 103.437 47.2599C103.632 52.7125 111.72 50.8675 111.863 54.8583C111.893 55.7168 111.614 56.3541 111.073 56.8148C110.464 57.3244 109.59 57.5878 108.291 57.6342C107.015 57.6797 105.52 57.4542 104.301 57.1492L104.009 58.7394C105.233 59.1836 107.076 59.3967 108.538 59.3446ZM119.729 58.6202L121.794 58.5465L121.286 44.3001L126.252 44.123L126.379 42.4922L114.105 42.93L114.163 44.5542L119.221 44.3738L119.729 58.6202ZM129.065 58.2872L138.299 57.9579L138.241 56.3337L131.072 56.5894L130.873 51.0208L136.419 50.823L136.359 49.1524L130.814 49.3502L130.622 43.9672L137.466 43.7231L137.594 42.0923L128.499 42.4167L129.065 58.2872ZM149.537 57.5571L153.319 57.4222L158.02 41.3638L154.494 41.4896L151.447 53.1214L147.324 41.7453L143.449 41.8835L149.537 57.5571ZM160.358 57.1712L171.193 56.7848L171.1 54.1629L163.884 54.4202L163.739 50.3598L169.192 50.1653L169.095 47.4506L163.642 47.6451L163.505 43.7934L170.327 43.5501L170.511 40.9183L159.792 41.3006L160.358 57.1712ZM173.653 56.697L177.273 56.568L177.068 50.8137L179.063 50.7425L182.192 56.3925L186.275 56.2469L182.619 50.1279C184.376 49.2288 185.219 47.4796 185.142 45.3217C185.083 43.6511 184.529 42.4628 183.69 41.7261C182.611 40.7888 181.092 40.541 178.54 40.632L173.087 40.8265L173.653 56.697ZM176.974 48.1918L176.8 43.3193L178.424 43.2613C179.608 43.2191 180.378 43.331 180.858 43.7553C181.243 44.1133 181.449 44.6868 181.478 45.4989C181.509 46.3806 181.325 47.0841 180.875 47.4951C180.425 47.9061 179.782 48.0917 178.575 48.1347L176.974 48.1918ZM186.866 56.2258L190.323 56.1025L191.41 52.0678L196.561 51.8841L198.026 55.8278L201.901 55.6896L195.604 40.0234L191.613 40.1658L186.866 56.2258ZM192.152 49.4162L193.611 44.0672L193.657 44.0655L195.586 49.2937L192.152 49.4162ZM203.507 55.6324L206.685 55.519L206.342 45.8899L213.971 55.2592L216.871 55.1557L216.305 39.2851L213.127 39.3985L213.489 49.5612L205.609 39.6666L202.941 39.7618L203.507 55.6324ZM226.434 55.1399C231.283 54.967 233.362 52.0121 233.17 46.6523C232.979 41.2925 230.695 38.4699 225.845 38.6429C220.996 38.8158 218.919 41.7939 219.11 47.1537C219.301 52.5135 221.584 55.3129 226.434 55.1399ZM226.333 52.3092C223.989 52.3928 223.005 50.8481 222.868 47.0197C222.732 43.1913 223.603 41.5572 225.946 41.4736C228.29 41.39 229.275 42.9579 229.412 46.7863C229.548 50.6148 228.676 52.2256 226.333 52.3092ZM236.183 49.4953L238.642 49.4076L238.764 38.4842L235.283 38.6083L236.183 49.4953ZM237.578 54.7425L237.74 54.7367C238.854 54.697 239.418 54.2355 239.377 53.0753L239.367 52.7969C239.326 51.6368 238.73 51.2166 237.616 51.2563L237.454 51.2621C236.34 51.3018 235.776 51.7634 235.817 52.9235L235.827 53.2019C235.868 54.3621 236.464 54.7822 237.578 54.7425Z" fill="white"/>
<path d="M6.47907 21.9317L6.31665 21.9375C5.20292 21.9772 4.63858 22.4387 4.67995 23.5989L4.68988 23.8773C4.73126 25.0374 5.32705 25.4576 6.44077 25.4179L6.60319 25.4121C7.71692 25.3724 8.28126 24.9108 8.23988 23.7507L8.22995 23.4723C8.18858 22.3121 7.59279 21.892 6.47907 21.9317ZM7.87427 27.1788L5.41479 27.2666L5.29326 38.19L8.77365 38.0659L7.87427 27.1788ZM18.6955 33.5302C19.9949 33.4839 21.7276 33.213 22.669 32.9007L22.2034 30.2688C21.282 30.4875 20.0572 30.6706 19.2915 30.6979C17.5049 30.7616 16.4948 30.4492 15.7706 29.6851C14.9502 28.8315 14.5459 27.2662 14.4789 25.3867C14.3663 22.2312 15.075 19.9524 18.4858 19.8308C19.4835 19.7952 20.6742 19.9618 21.9164 20.266L22.2861 17.6043C21.2503 17.2231 19.4762 16.9844 18.1072 17.0332C12.6778 17.2268 10.5463 20.6483 10.7234 25.6136C10.8218 28.3747 11.4756 30.4191 12.8726 31.8096C14.1006 33.0204 15.888 33.6304 18.6955 33.5302ZM29.0141 15.2038L33.6108 11.8571L31.908 9.71074L27.8026 13.8066L29.0141 15.2038ZM24.0735 33.0132L27.5307 32.8899L28.6181 28.8552L33.7691 28.6715L35.234 32.6152L39.1088 32.477L32.8117 16.8108L28.8209 16.9531L24.0735 33.0132ZM29.3599 26.2035L30.8186 20.8546L30.865 20.8529L32.7939 26.081L29.3599 26.2035ZM40.7145 32.4197L43.754 32.3113L43.4247 23.0767L47.0125 28.5709L49.7968 28.4716L52.8947 22.8319L53.2207 31.9737L56.5387 31.8554L55.9727 15.9848L53.1883 16.0841L48.3303 25.132L43.0024 16.4473L40.1485 16.5491L40.7145 32.4197ZM59.7424 31.7411L65.3807 31.54C67.8402 31.4523 69.3807 31.0024 70.3693 30.0611C71.2005 29.2648 71.6248 28.1345 71.5702 26.6032C71.4957 24.5149 70.0523 23.126 68.0701 22.9179C69.5054 22.1233 70.2322 21.0055 70.1743 19.3813C70.1329 18.2211 69.7054 17.3071 68.9637 16.7063C68.0067 15.9273 66.6013 15.6057 64.3506 15.686L59.1764 15.8705L59.7424 31.7411ZM63.0211 22.0525L62.8895 18.3633L64.2121 18.3161C65.1866 18.2814 65.7476 18.3775 66.1081 18.7132C66.4204 19.004 66.5754 19.4399 66.5961 20.02C66.6192 20.6697 66.4734 21.1395 66.1825 21.4519C65.8013 21.8372 65.2486 21.9731 64.2509 22.0087L63.0211 22.0525ZM63.2685 28.9901L63.1146 24.6744L64.5996 24.6215C65.8989 24.5751 66.6456 24.6647 67.1477 25.0649C67.5778 25.3981 67.7833 25.9483 67.8139 26.8068C67.837 27.4565 67.668 27.9272 67.3547 28.2636C66.9296 28.7202 66.0993 28.8892 64.7535 28.9372L63.2685 28.9901ZM74.1944 31.2257L77.814 31.0966L77.248 15.226L73.6284 15.3551L74.1944 31.2257ZM79.4525 31.0382L82.9097 30.9149L83.9971 26.8802L89.1481 26.6965L90.613 30.6401L94.4878 30.5019L88.1908 14.8357L84.1999 14.9781L79.4525 31.0382ZM84.7389 24.2285L86.1976 18.8795L86.244 18.8779L88.1729 24.106L84.7389 24.2285ZM98.4647 30.3601L102.084 30.231L101.612 16.9823L106.415 16.811L106.6 14.1792L92.9797 14.665L93.0733 17.2868L97.9922 17.1114L98.4647 30.3601ZM108.822 29.9907L119.658 29.6043L119.564 26.9824L112.348 27.2397L112.204 23.1793L117.656 22.9848L117.559 20.2701L112.107 20.4646L111.969 16.6129L118.791 16.3697L118.976 13.7378L108.256 14.1201L108.822 29.9907ZM132.55 29.4698C137.306 29.3001 138.756 25.6475 138.59 21.0069C138.425 16.3664 136.718 12.8031 131.961 12.9727C127.205 13.1423 125.756 16.8182 125.921 21.4587C126.087 26.0993 127.793 29.6394 132.55 29.4698ZM132.486 27.6832C129.214 27.7998 128.218 25.2798 128.079 21.3818C127.94 17.4838 128.753 14.876 132.025 14.7593C135.296 14.6426 136.293 17.1859 136.432 21.0839C136.571 24.9819 135.757 27.5665 132.486 27.6832ZM146.165 28.6589L149.785 28.5299L149.579 22.7756L151.575 22.7044L154.704 28.3544L158.787 28.2088L155.131 22.0898C156.887 21.1907 157.731 19.4415 157.654 17.2836C157.595 15.613 157.041 14.4247 156.202 13.688C155.123 12.7507 153.604 12.5029 151.052 12.5939L145.599 12.7884L146.165 28.6589ZM149.486 20.1537L149.312 15.2812L150.936 15.2232C152.12 15.181 152.89 15.2929 153.37 15.7172C153.754 16.0752 153.961 16.6487 153.99 17.4608C154.021 18.3425 153.837 19.046 153.387 19.457C152.937 19.868 152.293 20.0536 151.087 20.0966L149.486 20.1537ZM160.978 28.1306L171.814 27.7442L171.72 25.1223L164.504 25.3797L164.36 21.3192L169.812 21.1247L169.715 18.41L164.263 18.6045L164.125 14.7529L170.947 14.5096L171.132 11.8777L160.412 12.2601L160.978 28.1306ZM174.274 27.6565L177.452 27.5431L177.109 17.914L184.738 27.2833L187.638 27.1798L187.072 11.3093L183.894 11.4226L184.256 21.5854L176.376 11.6907L173.708 11.7859L174.274 27.6565ZM197.224 27.1632C199.266 27.0904 201.032 26.4466 202.04 25.4117C203.162 24.2798 203.498 22.6415 203.426 20.6229L203.074 10.7386L199.872 10.8528L200.231 20.9227C200.275 22.1525 200.096 22.9952 199.559 23.5719C199.09 24.0998 198.332 24.3591 197.288 24.3963C196.244 24.4336 195.446 24.2065 194.94 23.7134C194.364 23.1764 194.124 22.3253 194.081 21.1188L193.723 11.0721L190.127 11.2003L190.485 21.2471C190.566 23.5209 191.1 24.8261 192.181 25.8098C193.285 26.8158 195.02 27.2418 197.224 27.1632ZM206.71 26.4997L217.546 26.1132L217.452 23.4913L210.236 23.7487L210.091 19.6882L215.544 19.4938L215.447 16.7791L209.995 16.9735L209.857 13.1219L216.679 12.8786L216.864 10.2468L206.144 10.6291L206.71 26.4997ZM224.089 25.8799L227.871 25.745L232.572 9.68656L229.045 9.81234L225.999 21.4441L221.876 10.068L218.001 10.2062L224.089 25.8799ZM232.334 25.5858L235.791 25.4625L236.879 21.4278L242.03 21.2441L243.495 25.1878L247.369 25.0496L241.072 9.38341L237.082 9.52574L232.334 25.5858ZM237.621 18.7761L239.079 13.4272L239.126 13.4255L241.055 18.6537L237.621 18.7761ZM17.2622 62.2745L20.8819 62.1455L20.4094 48.8968L25.2123 48.7255L25.3972 46.0936L11.7773 46.5794L11.8708 49.2013L16.7898 49.0258L17.2622 62.2745ZM34.0122 62.0024C36.054 61.9296 37.8199 61.2858 38.8284 60.2509C39.9497 59.119 40.2862 57.4807 40.2142 55.4621L39.8617 45.5778L36.6597 45.692L37.0189 55.7619C37.0627 56.9917 36.8837 57.8344 36.3467 58.4111C35.8776 58.939 35.1202 59.1983 34.0761 59.2355C33.032 59.2728 32.234 59.0457 31.7285 58.5526C31.1518 58.0156 30.9124 57.1645 30.8693 55.958L30.511 45.9113L26.9146 46.0395L27.2729 56.0863C27.354 58.3601 27.8885 59.6653 28.969 60.649C30.0735 61.655 31.8079 62.081 34.0122 62.0024ZM55.4965 61.2362C56.7959 61.1899 58.5286 60.919 59.47 60.6066L59.0044 57.9748C58.0829 58.1935 56.8582 58.3766 56.0925 58.4039C54.3059 58.4676 53.2957 58.1551 52.5715 57.3911C51.7512 56.5375 51.3469 54.9721 51.2799 53.0927C51.1673 49.9372 51.8759 47.6584 55.2867 47.5367C56.2844 47.5012 57.4752 47.6678 58.7174 47.972L59.0871 45.3103C58.0513 44.9291 56.2771 44.6903 54.9082 44.7392C49.4788 44.9328 47.3473 48.3542 47.5243 53.3196C47.6228 56.0807 48.2765 58.125 49.6736 59.5156C50.9016 60.7264 52.689 61.3363 55.4965 61.2362ZM61.909 60.6823L72.7446 60.2958L72.6511 57.6739L65.4351 57.9313L65.2903 53.8708L70.7429 53.6764L70.6461 50.9617L65.1935 51.1561L65.0561 47.3045L71.8777 47.0612L72.0626 44.4294L61.343 44.8117L61.909 60.6823ZM75.2043 60.2081L85.8543 59.8283L85.7607 57.2064L78.7304 57.4571L78.2579 44.2084L74.6382 44.3375L75.2043 60.2081ZM92.4643 59.5926L101.699 59.2632L101.641 57.639L94.4714 57.8947L94.2728 52.3261L99.8182 52.1283L99.7586 50.4577L94.2132 50.6555L94.0212 45.2725L100.866 45.0284L100.994 43.3976L91.8983 43.722L92.4643 59.5926ZM108.538 59.3446C110.371 59.2792 111.771 58.7879 112.69 57.849C113.452 57.0784 113.877 55.9713 113.827 54.5792C113.634 49.1498 105.51 50.6708 105.381 47.0512C105.321 45.3574 106.619 44.6141 108.776 44.5372C109.821 44.4999 111.056 44.6185 112.227 44.8788L112.472 43.2902C111.369 42.9579 109.922 42.7772 108.553 42.826C105.397 42.9385 103.337 44.4524 103.437 47.2599C103.632 52.7125 111.72 50.8675 111.863 54.8583C111.893 55.7168 111.614 56.3541 111.073 56.8148C110.464 57.3244 109.59 57.5878 108.291 57.6342C107.015 57.6797 105.52 57.4542 104.301 57.1492L104.009 58.7394C105.233 59.1836 107.076 59.3967 108.538 59.3446ZM119.729 58.6202L121.794 58.5465L121.286 44.3001L126.252 44.123L126.379 42.4922L114.105 42.93L114.163 44.5542L119.221 44.3738L119.729 58.6202ZM129.065 58.2872L138.299 57.9579L138.241 56.3337L131.072 56.5894L130.873 51.0208L136.419 50.823L136.359 49.1524L130.814 49.3502L130.622 43.9672L137.466 43.7231L137.594 42.0923L128.499 42.4167L129.065 58.2872ZM149.537 57.5571L153.319 57.4222L158.02 41.3638L154.494 41.4896L151.447 53.1214L147.324 41.7453L143.449 41.8835L149.537 57.5571ZM160.358 57.1712L171.193 56.7848L171.1 54.1629L163.884 54.4202L163.739 50.3598L169.192 50.1653L169.095 47.4506L163.642 47.6451L163.505 43.7934L170.327 43.5501L170.511 40.9183L159.792 41.3006L160.358 57.1712ZM173.653 56.697L177.273 56.568L177.068 50.8137L179.063 50.7425L182.192 56.3925L186.275 56.2469L182.619 50.1279C184.376 49.2288 185.219 47.4796 185.142 45.3217C185.083 43.6511 184.529 42.4628 183.69 41.7261C182.611 40.7888 181.092 40.541 178.54 40.632L173.087 40.8265L173.653 56.697ZM176.974 48.1918L176.8 43.3193L178.424 43.2613C179.608 43.2191 180.378 43.331 180.858 43.7553C181.243 44.1133 181.449 44.6868 181.478 45.4989C181.509 46.3806 181.325 47.0841 180.875 47.4951C180.425 47.9061 179.782 48.0917 178.575 48.1347L176.974 48.1918ZM186.866 56.2258L190.323 56.1025L191.41 52.0678L196.561 51.8841L198.026 55.8278L201.901 55.6896L195.604 40.0234L191.613 40.1658L186.866 56.2258ZM192.152 49.4162L193.611 44.0672L193.657 44.0655L195.586 49.2937L192.152 49.4162ZM203.507 55.6324L206.685 55.519L206.342 45.8899L213.971 55.2592L216.871 55.1557L216.305 39.2851L213.127 39.3985L213.489 49.5612L205.609 39.6666L202.941 39.7618L203.507 55.6324ZM226.434 55.1399C231.283 54.967 233.362 52.0121 233.17 46.6523C232.979 41.2925 230.695 38.4699 225.845 38.6429C220.996 38.8158 218.919 41.7939 219.11 47.1537C219.301 52.5135 221.584 55.3129 226.434 55.1399ZM226.333 52.3092C223.989 52.3928 223.005 50.8481 222.868 47.0197C222.732 43.1913 223.603 41.5572 225.946 41.4736C228.29 41.39 229.275 42.9579 229.412 46.7863C229.548 50.6148 228.676 52.2256 226.333 52.3092ZM236.183 49.4953L238.642 49.4076L238.764 38.4842L235.283 38.6083L236.183 49.4953ZM237.578 54.7425L237.74 54.7367C238.854 54.697 239.418 54.2355 239.377 53.0753L239.367 52.7969C239.326 51.6368 238.73 51.2166 237.616 51.2563L237.454 51.2621C236.34 51.3018 235.776 51.7634 235.817 52.9235L235.827 53.2019C235.868 54.3621 236.464 54.7822 237.578 54.7425Z" fill="white"/>
<path d="M6.47907 21.9317L6.31665 21.9375C5.20292 21.9772 4.63858 22.4387 4.67995 23.5989L4.68988 23.8773C4.73126 25.0374 5.32705 25.4576 6.44077 25.4179L6.60319 25.4121C7.71692 25.3724 8.28126 24.9108 8.23988 23.7507L8.22995 23.4723C8.18858 22.3121 7.59279 21.892 6.47907 21.9317ZM7.87427 27.1788L5.41479 27.2666L5.29326 38.19L8.77365 38.0659L7.87427 27.1788ZM18.6955 33.5302C19.9949 33.4839 21.7276 33.213 22.669 32.9007L22.2034 30.2688C21.282 30.4875 20.0572 30.6706 19.2915 30.6979C17.5049 30.7616 16.4948 30.4492 15.7706 29.6851C14.9502 28.8315 14.5459 27.2662 14.4789 25.3867C14.3663 22.2312 15.075 19.9524 18.4858 19.8308C19.4835 19.7952 20.6742 19.9618 21.9164 20.266L22.2861 17.6043C21.2503 17.2231 19.4762 16.9844 18.1072 17.0332C12.6778 17.2268 10.5463 20.6483 10.7234 25.6136C10.8218 28.3747 11.4756 30.4191 12.8726 31.8096C14.1006 33.0204 15.888 33.6304 18.6955 33.5302ZM29.0141 15.2038L33.6108 11.8571L31.908 9.71074L27.8026 13.8066L29.0141 15.2038ZM24.0735 33.0132L27.5307 32.8899L28.6181 28.8552L33.7691 28.6715L35.234 32.6152L39.1088 32.477L32.8117 16.8108L28.8209 16.9531L24.0735 33.0132ZM29.3599 26.2035L30.8186 20.8546L30.865 20.8529L32.7939 26.081L29.3599 26.2035ZM40.7145 32.4197L43.754 32.3113L43.4247 23.0767L47.0125 28.5709L49.7968 28.4716L52.8947 22.8319L53.2207 31.9737L56.5387 31.8554L55.9727 15.9848L53.1883 16.0841L48.3303 25.132L43.0024 16.4473L40.1485 16.5491L40.7145 32.4197ZM59.7424 31.7411L65.3807 31.54C67.8402 31.4523 69.3807 31.0024 70.3693 30.0611C71.2005 29.2648 71.6248 28.1345 71.5702 26.6032C71.4957 24.5149 70.0523 23.126 68.0701 22.9179C69.5054 22.1233 70.2322 21.0055 70.1743 19.3813C70.1329 18.2211 69.7054 17.3071 68.9637 16.7063C68.0067 15.9273 66.6013 15.6057 64.3506 15.686L59.1764 15.8705L59.7424 31.7411ZM63.0211 22.0525L62.8895 18.3633L64.2121 18.3161C65.1866 18.2814 65.7476 18.3775 66.1081 18.7132C66.4204 19.004 66.5754 19.4399 66.5961 20.02C66.6192 20.6697 66.4734 21.1395 66.1825 21.4519C65.8013 21.8372 65.2486 21.9731 64.2509 22.0087L63.0211 22.0525ZM63.2685 28.9901L63.1146 24.6744L64.5996 24.6215C65.8989 24.5751 66.6456 24.6647 67.1477 25.0649C67.5778 25.3981 67.7833 25.9483 67.8139 26.8068C67.837 27.4565 67.668 27.9272 67.3547 28.2636C66.9296 28.7202 66.0993 28.8892 64.7535 28.9372L63.2685 28.9901ZM74.1944 31.2257L77.814 31.0966L77.248 15.226L73.6284 15.3551L74.1944 31.2257ZM79.4525 31.0382L82.9097 30.9149L83.9971 26.8802L89.1481 26.6965L90.613 30.6401L94.4878 30.5019L88.1908 14.8357L84.1999 14.9781L79.4525 31.0382ZM84.7389 24.2285L86.1976 18.8795L86.244 18.8779L88.1729 24.106L84.7389 24.2285ZM98.4647 30.3601L102.084 30.231L101.612 16.9823L106.415 16.811L106.6 14.1792L92.9797 14.665L93.0733 17.2868L97.9922 17.1114L98.4647 30.3601ZM108.822 29.9907L119.658 29.6043L119.564 26.9824L112.348 27.2397L112.204 23.1793L117.656 22.9848L117.559 20.2701L112.107 20.4646L111.969 16.6129L118.791 16.3697L118.976 13.7378L108.256 14.1201L108.822 29.9907ZM132.55 29.4698C137.306 29.3001 138.756 25.6475 138.59 21.0069C138.425 16.3664 136.718 12.8031 131.961 12.9727C127.205 13.1423 125.756 16.8182 125.921 21.4587C126.087 26.0993 127.793 29.6394 132.55 29.4698ZM132.486 27.6832C129.214 27.7998 128.218 25.2798 128.079 21.3818C127.94 17.4838 128.753 14.876 132.025 14.7593C135.296 14.6426 136.293 17.1859 136.432 21.0839C136.571 24.9819 135.757 27.5665 132.486 27.6832ZM146.165 28.6589L149.785 28.5299L149.579 22.7756L151.575 22.7044L154.704 28.3544L158.787 28.2088L155.131 22.0898C156.887 21.1907 157.731 19.4415 157.654 17.2836C157.595 15.613 157.041 14.4247 156.202 13.688C155.123 12.7507 153.604 12.5029 151.052 12.5939L145.599 12.7884L146.165 28.6589ZM149.486 20.1537L149.312 15.2812L150.936 15.2232C152.12 15.181 152.89 15.2929 153.37 15.7172C153.754 16.0752 153.961 16.6487 153.99 17.4608C154.021 18.3425 153.837 19.046 153.387 19.457C152.937 19.868 152.293 20.0536 151.087 20.0966L149.486 20.1537ZM160.978 28.1306L171.814 27.7442L171.72 25.1223L164.504 25.3797L164.36 21.3192L169.812 21.1247L169.715 18.41L164.263 18.6045L164.125 14.7529L170.947 14.5096L171.132 11.8777L160.412 12.2601L160.978 28.1306ZM174.274 27.6565L177.452 27.5431L177.109 17.914L184.738 27.2833L187.638 27.1798L187.072 11.3093L183.894 11.4226L184.256 21.5854L176.376 11.6907L173.708 11.7859L174.274 27.6565ZM197.224 27.1632C199.266 27.0904 201.032 26.4466 202.04 25.4117C203.162 24.2798 203.498 22.6415 203.426 20.6229L203.074 10.7386L199.872 10.8528L200.231 20.9227C200.275 22.1525 200.096 22.9952 199.559 23.5719C199.09 24.0998 198.332 24.3591 197.288 24.3963C196.244 24.4336 195.446 24.2065 194.94 23.7134C194.364 23.1764 194.124 22.3253 194.081 21.1188L193.723 11.0721L190.127 11.2003L190.485 21.2471C190.566 23.5209 191.1 24.8261 192.181 25.8098C193.285 26.8158 195.02 27.2418 197.224 27.1632ZM206.71 26.4997L217.546 26.1132L217.452 23.4913L210.236 23.7487L210.091 19.6882L215.544 19.4938L215.447 16.7791L209.995 16.9735L209.857 13.1219L216.679 12.8786L216.864 10.2468L206.144 10.6291L206.71 26.4997ZM224.089 25.8799L227.871 25.745L232.572 9.68656L229.045 9.81234L225.999 21.4441L221.876 10.068L218.001 10.2062L224.089 25.8799ZM232.334 25.5858L235.791 25.4625L236.879 21.4278L242.03 21.2441L243.495 25.1878L247.369 25.0496L241.072 9.38341L237.082 9.52574L232.334 25.5858ZM237.621 18.7761L239.079 13.4272L239.126 13.4255L241.055 18.6537L237.621 18.7761ZM17.2622 62.2745L20.8819 62.1455L20.4094 48.8968L25.2123 48.7255L25.3972 46.0936L11.7773 46.5794L11.8708 49.2013L16.7898 49.0258L17.2622 62.2745ZM34.0122 62.0024C36.054 61.9296 37.8199 61.2858 38.8284 60.2509C39.9497 59.119 40.2862 57.4807 40.2142 55.4621L39.8617 45.5778L36.6597 45.692L37.0189 55.7619C37.0627 56.9917 36.8837 57.8344 36.3467 58.4111C35.8776 58.939 35.1202 59.1983 34.0761 59.2355C33.032 59.2728 32.234 59.0457 31.7285 58.5526C31.1518 58.0156 30.9124 57.1645 30.8693 55.958L30.511 45.9113L26.9146 46.0395L27.2729 56.0863C27.354 58.3601 27.8885 59.6653 28.969 60.649C30.0735 61.655 31.8079 62.081 34.0122 62.0024ZM55.4965 61.2362C56.7959 61.1899 58.5286 60.919 59.47 60.6066L59.0044 57.9748C58.0829 58.1935 56.8582 58.3766 56.0925 58.4039C54.3059 58.4676 53.2957 58.1551 52.5715 57.3911C51.7512 56.5375 51.3469 54.9721 51.2799 53.0927C51.1673 49.9372 51.8759 47.6584 55.2867 47.5367C56.2844 47.5012 57.4752 47.6678 58.7174 47.972L59.0871 45.3103C58.0513 44.9291 56.2771 44.6903 54.9082 44.7392C49.4788 44.9328 47.3473 48.3542 47.5243 53.3196C47.6228 56.0807 48.2765 58.125 49.6736 59.5156C50.9016 60.7264 52.689 61.3363 55.4965 61.2362ZM61.909 60.6823L72.7446 60.2958L72.6511 57.6739L65.4351 57.9313L65.2903 53.8708L70.7429 53.6764L70.6461 50.9617L65.1935 51.1561L65.0561 47.3045L71.8777 47.0612L72.0626 44.4294L61.343 44.8117L61.909 60.6823ZM75.2043 60.2081L85.8543 59.8283L85.7607 57.2064L78.7304 57.4571L78.2579 44.2084L74.6382 44.3375L75.2043 60.2081ZM92.4643 59.5926L101.699 59.2632L101.641 57.639L94.4714 57.8947L94.2728 52.3261L99.8182 52.1283L99.7586 50.4577L94.2132 50.6555L94.0212 45.2725L100.866 45.0284L100.994 43.3976L91.8983 43.722L92.4643 59.5926ZM108.538 59.3446C110.371 59.2792 111.771 58.7879 112.69 57.849C113.452 57.0784 113.877 55.9713 113.827 54.5792C113.634 49.1498 105.51 50.6708 105.381 47.0512C105.321 45.3574 106.619 44.6141 108.776 44.5372C109.821 44.4999 111.056 44.6185 112.227 44.8788L112.472 43.2902C111.369 42.9579 109.922 42.7772 108.553 42.826C105.397 42.9385 103.337 44.4524 103.437 47.2599C103.632 52.7125 111.72 50.8675 111.863 54.8583C111.893 55.7168 111.614 56.3541 111.073 56.8148C110.464 57.3244 109.59 57.5878 108.291 57.6342C107.015 57.6797 105.52 57.4542 104.301 57.1492L104.009 58.7394C105.233 59.1836 107.076 59.3967 108.538 59.3446ZM119.729 58.6202L121.794 58.5465L121.286 44.3001L126.252 44.123L126.379 42.4922L114.105 42.93L114.163 44.5542L119.221 44.3738L119.729 58.6202ZM129.065 58.2872L138.299 57.9579L138.241 56.3337L131.072 56.5894L130.873 51.0208L136.419 50.823L136.359 49.1524L130.814 49.3502L130.622 43.9672L137.466 43.7231L137.594 42.0923L128.499 42.4167L129.065 58.2872ZM149.537 57.5571L153.319 57.4222L158.02 41.3638L154.494 41.4896L151.447 53.1214L147.324 41.7453L143.449 41.8835L149.537 57.5571ZM160.358 57.1712L171.193 56.7848L171.1 54.1629L163.884 54.4202L163.739 50.3598L169.192 50.1653L169.095 47.4506L163.642 47.6451L163.505 43.7934L170.327 43.5501L170.511 40.9183L159.792 41.3006L160.358 57.1712ZM173.653 56.697L177.273 56.568L177.068 50.8137L179.063 50.7425L182.192 56.3925L186.275 56.2469L182.619 50.1279C184.376 49.2288 185.219 47.4796 185.142 45.3217C185.083 43.6511 184.529 42.4628 183.69 41.7261C182.611 40.7888 181.092 40.541 178.54 40.632L173.087 40.8265L173.653 56.697ZM176.974 48.1918L176.8 43.3193L178.424 43.2613C179.608 43.2191 180.378 43.331 180.858 43.7553C181.243 44.1133 181.449 44.6868 181.478 45.4989C181.509 46.3806 181.325 47.0841 180.875 47.4951C180.425 47.9061 179.782 48.0917 178.575 48.1347L176.974 48.1918ZM186.866 56.2258L190.323 56.1025L191.41 52.0678L196.561 51.8841L198.026 55.8278L201.901 55.6896L195.604 40.0234L191.613 40.1658L186.866 56.2258ZM192.152 49.4162L193.611 44.0672L193.657 44.0655L195.586 49.2937L192.152 49.4162ZM203.507 55.6324L206.685 55.519L206.342 45.8899L213.971 55.2592L216.871 55.1557L216.305 39.2851L213.127 39.3985L213.489 49.5612L205.609 39.6666L202.941 39.7618L203.507 55.6324ZM226.434 55.1399C231.283 54.967 233.362 52.0121 233.17 46.6523C232.979 41.2925 230.695 38.4699 225.845 38.6429C220.996 38.8158 218.919 41.7939 219.11 47.1537C219.301 52.5135 221.584 55.3129 226.434 55.1399ZM226.333 52.3092C223.989 52.3928 223.005 50.8481 222.868 47.0197C222.732 43.1913 223.603 41.5572 225.946 41.4736C228.29 41.39 229.275 42.9579 229.412 46.7863C229.548 50.6148 228.676 52.2256 226.333 52.3092ZM236.183 49.4953L238.642 49.4076L238.764 38.4842L235.283 38.6083L236.183 49.4953ZM237.578 54.7425L237.74 54.7367C238.854 54.697 239.418 54.2355 239.377 53.0753L239.367 52.7969C239.326 51.6368 238.73 51.2166 237.616 51.2563L237.454 51.2621C236.34 51.3018 235.776 51.7634 235.817 52.9235L235.827 53.2019C235.868 54.3621 236.464 54.7822 237.578 54.7425Z" fill="white"/>
</svg>
