<svg width="472" height="137" viewBox="0 0 472 137" fill="none" xmlns="http://www.w3.org/2000/svg">
<path d="M11.4116 44.6597L11.1038 44.6707C8.99318 44.7459 7.92367 45.6206 8.00208 47.8192L8.0209 48.3469C8.09931 50.5455 9.22841 51.3418 11.3391 51.2665L11.6469 51.2555C13.7575 51.1802 14.827 50.3056 14.7486 48.107L14.7298 47.5793C14.6514 45.3807 13.5223 44.5844 11.4116 44.6597ZM14.0557 54.6038L9.3947 54.77L9.16438 75.4714L15.7602 75.2361L14.0557 54.6038ZM34.5635 66.6405C37.0259 66.5527 40.3097 66.0393 42.0938 65.4474L41.2114 60.4596C39.4651 60.8741 37.144 61.2211 35.6929 61.2728C32.3071 61.3936 30.3927 60.8014 29.0203 59.3534C27.4656 57.7358 26.6994 54.7692 26.5724 51.2075C26.3591 45.2273 27.702 40.9087 34.1659 40.6782C36.0567 40.6107 38.3134 40.9265 40.6674 41.503L41.3681 36.4588C39.4051 35.7363 36.0428 35.2839 33.4485 35.3764C23.159 35.7433 19.1196 42.2274 19.4552 51.6374C19.6418 56.8701 20.8807 60.7444 23.5283 63.3797C25.8555 65.6742 29.2429 66.8303 34.5635 66.6405ZM54.1184 31.9095L62.8299 25.567L59.6029 21.4994L51.8226 29.2616L54.1184 31.9095ZM44.7554 65.6606L51.3073 65.427L53.368 57.7807L63.1298 57.4325L65.906 64.9063L73.2493 64.6444L61.3156 34.9549L53.7524 35.2246L44.7554 65.6606ZM54.7738 52.7554L57.5383 42.6184L57.6262 42.6153L61.2817 52.5233L54.7738 52.7554ZM76.2923 64.5359L82.0526 64.3305L81.4285 46.8296L88.2279 57.2419L93.5046 57.0537L99.3754 46.3656L99.9932 63.6906L106.281 63.4664L105.209 33.3895L99.9319 33.5777L90.7252 50.7247L80.6282 34.2661L75.2197 34.459L76.2923 64.5359ZM112.353 63.2498L123.038 62.8688C127.699 62.7025 130.619 61.8499 132.492 60.066C134.067 58.5569 134.872 56.4149 134.768 53.5128C134.627 49.5553 131.891 46.9231 128.135 46.5287C130.855 45.0228 132.232 42.9044 132.123 39.8263C132.044 37.6277 131.234 35.8955 129.828 34.7569C128.015 33.2806 125.351 32.6711 121.086 32.8233L111.28 33.173L112.353 63.2498ZM118.566 44.8887L118.317 37.8972L120.823 37.8078C122.67 37.7419 123.733 37.9241 124.417 38.5602C125.009 39.1114 125.302 39.9375 125.341 41.0368C125.385 42.268 125.109 43.1584 124.558 43.7505C123.835 44.4807 122.788 44.7382 120.897 44.8056L118.566 44.8887ZM119.035 58.0364L118.744 49.8576L121.558 49.7572C124.02 49.6694 125.435 49.8391 126.387 50.5976C127.202 51.229 127.591 52.2718 127.649 53.8987C127.693 55.1299 127.373 56.0219 126.779 56.6595C125.973 57.5248 124.4 57.845 121.849 57.936L119.035 58.0364ZM139.741 62.2731L146.601 62.0284L145.528 31.9516L138.669 32.1962L139.741 62.2731ZM149.706 61.9177L156.258 61.684L158.319 54.0377L168.08 53.6896L170.857 61.1634L178.2 60.9015L166.266 31.212L158.703 31.4817L149.706 61.9177ZM159.724 49.0124L162.489 38.8755L162.577 38.8723L166.232 48.7803L159.724 49.0124ZM185.737 60.6327L192.596 60.3881L191.701 35.28L200.803 34.9554L201.154 29.9677L175.342 30.8883L175.519 35.8571L184.841 35.5247L185.737 60.6327ZM205.366 59.9327L225.901 59.2003L225.723 54.2315L212.048 54.7192L211.774 47.0241L222.107 46.6555L221.924 41.5108L211.59 41.8793L211.33 34.58L224.258 34.1189L224.608 29.1313L204.293 29.8558L205.366 59.9327ZM250.332 58.9454C259.346 58.6239 262.093 51.7016 261.78 42.9072C261.466 34.1128 258.231 27.3598 249.217 27.6813C240.203 28.0027 237.457 34.969 237.771 43.7634C238.084 52.5578 241.318 59.2669 250.332 58.9454ZM250.211 55.5595C244.011 55.7806 242.124 51.0049 241.86 43.6176C241.597 36.2303 243.138 31.2882 249.338 31.0671C255.538 30.846 257.427 35.6657 257.69 43.053C257.954 50.4403 256.411 55.3384 250.211 55.5595ZM276.135 57.4088L282.995 57.1641L282.606 46.259L286.387 46.1242L292.317 56.8317L300.056 56.5556L293.126 44.9593C296.455 43.2555 298.054 39.9404 297.908 35.851C297.796 32.685 296.747 30.433 295.156 29.0368C293.111 27.2605 290.233 26.7908 285.396 26.9633L275.062 27.3319L276.135 57.4088ZM282.428 41.2902L282.099 32.0561L285.177 31.9463C287.42 31.8663 288.88 32.0784 289.789 32.8825C290.518 33.561 290.909 34.6477 290.964 36.1867C291.024 37.8577 290.675 39.191 289.822 39.9698C288.969 40.7487 287.749 41.1005 285.463 41.182L282.428 41.2902ZM304.208 56.4076L324.743 55.6752L324.566 50.7064L310.891 51.1941L310.616 43.499L320.95 43.1304L320.766 37.9857L310.433 38.3542L310.173 31.0549L323.1 30.5938L323.451 25.6062L303.136 26.3307L304.208 56.4076ZM329.405 55.509L335.429 55.2941L334.778 37.0457L349.236 54.8017L354.733 54.6057L353.66 24.5288L347.636 24.7436L348.323 44.0034L333.389 25.2517L328.332 25.4321L329.405 55.509ZM372.899 54.5742C376.768 54.4362 380.115 53.2161 382.026 51.2548C384.151 49.1097 384.789 46.005 384.653 42.1794L383.984 23.4473L377.916 23.6637L378.597 42.7476C378.68 45.0781 378.341 46.6752 377.323 47.7682C376.434 48.7685 374.999 49.26 373.02 49.3305C371.041 49.4011 369.529 48.9707 368.571 48.0363C367.478 47.0186 367.024 45.4057 366.943 43.1192L366.264 24.0793L359.448 24.3224L360.127 43.3623C360.281 47.6715 361.294 50.145 363.341 52.0092C365.435 53.9158 368.721 54.7232 372.899 54.5742ZM390.876 53.3166L411.411 52.5843L411.234 47.6154L397.559 48.1032L397.284 40.4081L407.618 40.0395L407.434 34.8948L397.101 35.2633L396.84 27.964L409.768 27.5029L410.119 22.5153L389.804 23.2398L390.876 53.3166ZM423.812 52.142L430.979 51.8864L439.888 21.4536L433.204 21.6919L427.43 43.7357L419.617 22.1765L412.274 22.4384L423.812 52.142ZM439.437 51.5848L445.989 51.3511L448.05 43.7048L457.812 43.3567L460.588 50.8305L467.931 50.5686L455.997 20.879L448.434 21.1488L439.437 51.5848ZM449.456 38.6795L452.22 28.5425L452.308 28.5394L455.963 38.4474L449.456 38.6795ZM31.8487 121.156L38.7083 120.911L37.8129 95.8032L46.9151 95.4786L47.2655 90.4909L21.4539 91.4115L21.6311 96.3803L30.9532 96.0479L31.8487 121.156ZM63.592 120.64C67.4615 120.502 70.8082 119.282 72.7195 117.321C74.8444 115.176 75.4821 112.071 75.3457 108.245L74.6776 89.5133L68.6095 89.7297L69.2901 108.814C69.3732 111.144 69.0339 112.741 68.0162 113.834C67.1273 114.835 65.6919 115.326 63.7132 115.397C61.7344 115.467 60.2221 115.037 59.2642 114.102C58.1712 113.085 57.7175 111.472 57.6359 109.185L56.9569 90.1453L50.1412 90.3884L50.8203 109.428C50.9739 113.738 51.9867 116.211 54.0345 118.075C56.1278 119.982 59.4146 120.789 63.592 120.64ZM104.308 119.188C106.77 119.1 110.054 118.587 111.838 117.995L110.956 113.007C109.209 113.422 106.888 113.769 105.437 113.82C102.051 113.941 100.137 113.349 98.7645 111.901C97.2098 110.283 96.4436 107.317 96.3166 103.755C96.1033 97.7749 97.4462 93.4563 103.91 93.2258C105.801 93.1584 108.058 93.4741 110.412 94.0506L111.112 89.0064C109.149 88.2839 105.787 87.8315 103.193 87.924C92.9032 88.291 88.8638 94.7751 89.1994 104.185C89.386 109.418 90.6249 113.292 93.2725 115.927C95.5997 118.222 98.9871 119.378 104.308 119.188ZM116.46 118.138L136.995 117.406L136.818 112.437L123.143 112.925L122.868 105.23L133.202 104.861L133.018 99.7165L122.685 100.085L122.424 92.7857L135.352 92.3246L135.703 87.3369L115.387 88.0615L116.46 118.138ZM141.656 117.24L161.84 116.52L161.662 111.551L148.339 112.026L147.443 86.9182L140.584 87.1629L141.656 117.24ZM174.367 116.073L191.867 115.449L191.758 112.371L178.17 112.856L177.794 102.302L188.303 101.927L188.19 98.7615L177.681 99.1363L177.317 88.9348L190.289 88.4721L190.531 85.3816L173.294 85.9963L174.367 116.073ZM204.828 115.603C208.302 115.479 210.954 114.548 212.696 112.769C214.141 111.309 214.947 109.21 214.853 106.572C214.486 96.2827 199.091 99.1652 198.846 92.3056C198.731 89.0956 201.191 87.6871 205.28 87.5412C207.259 87.4707 209.6 87.6954 211.819 88.1886L212.284 85.1781C210.193 84.5483 207.451 84.2058 204.856 84.2983C198.876 84.5116 194.972 87.3805 195.162 92.7012C195.53 103.035 210.859 99.538 211.129 107.101C211.187 108.728 210.658 109.936 209.632 110.809C208.478 111.775 206.823 112.274 204.36 112.362C201.942 112.448 199.109 112.021 196.799 111.443L196.246 114.456C198.565 115.298 202.058 115.702 204.828 115.603ZM226.037 114.23L229.951 114.091L228.988 87.092L238.398 86.7564L238.64 83.6658L215.379 84.4954L215.489 87.5734L225.075 87.2316L226.037 114.23ZM243.729 113.599L261.23 112.975L261.12 109.897L247.533 110.382L247.156 99.8285L257.666 99.4537L257.553 96.2877L247.043 96.6625L246.68 86.461L259.651 85.9984L259.893 82.9078L242.656 83.5226L243.729 113.599ZM282.528 112.216L289.695 111.96L298.604 81.5272L291.92 81.7656L286.146 103.809L278.333 82.2502L270.99 82.5121L282.528 112.216ZM303.034 111.484L323.569 110.752L323.392 105.783L309.716 106.271L309.442 98.5758L319.775 98.2073L319.592 93.0626L309.258 93.4311L308.998 86.1317L321.926 85.6707L322.276 80.683L301.961 81.4075L303.034 111.484ZM328.23 110.586L335.09 110.341L334.701 99.4361L338.483 99.3012L344.412 110.009L352.151 109.733L345.221 98.1363C348.551 96.4326 350.15 93.1175 350.004 89.0281C349.891 85.8621 348.842 83.61 347.251 82.2139C345.206 80.4376 342.328 79.9679 337.491 80.1404L327.158 80.5089L328.23 110.586ZM334.524 94.4673L334.194 85.2331L337.272 85.1234C339.515 85.0434 340.975 85.2555 341.885 86.0596C342.613 86.738 343.004 87.8248 343.059 89.3638C343.119 91.0347 342.77 92.368 341.917 93.1469C341.065 93.9258 339.844 94.2775 337.558 94.3591L334.524 94.4673ZM353.27 109.693L359.821 109.459L361.882 101.813L371.644 101.465L374.42 108.939L381.763 108.677L369.83 78.9871L362.266 79.2568L353.27 109.693ZM363.288 96.7875L366.052 86.6506L366.14 86.6474L369.796 96.5554L363.288 96.7875ZM384.806 108.568L390.831 108.353L390.18 90.1048L404.638 107.861L410.134 107.665L409.062 77.5879L403.037 77.8028L403.724 97.0625L388.791 78.3109L383.734 78.4912L384.806 108.568ZM428.257 107.635C437.447 107.307 441.386 101.707 441.023 91.5496C440.661 81.3921 436.332 76.043 427.142 76.3708C417.951 76.6985 414.014 82.3424 414.376 92.5C414.739 102.658 419.066 107.963 428.257 107.635ZM428.065 102.27C423.624 102.429 421.759 99.5013 421.5 92.2459C421.241 84.9905 422.892 81.8937 427.333 81.7353C431.774 81.577 433.641 84.5483 433.9 91.8037C434.159 99.0591 432.506 102.112 428.065 102.27ZM446.732 96.9376L451.393 96.7714L451.623 76.07L445.027 76.3052L446.732 96.9376ZM449.376 106.882L449.684 106.871C451.794 106.795 452.864 105.921 452.785 103.722L452.767 103.194C452.688 100.996 451.559 100.2 449.448 100.275L449.141 100.286C447.03 100.361 445.96 101.236 446.039 103.434L446.058 103.962C446.136 106.161 447.265 106.957 449.376 106.882Z" fill="white"/>
<path d="M11.4116 44.6597L11.1038 44.6707C8.99318 44.7459 7.92367 45.6206 8.00208 47.8192L8.0209 48.3469C8.09931 50.5455 9.22841 51.3418 11.3391 51.2665L11.6469 51.2555C13.7575 51.1802 14.827 50.3056 14.7486 48.107L14.7298 47.5793C14.6514 45.3807 13.5223 44.5844 11.4116 44.6597ZM14.0557 54.6038L9.3947 54.77L9.16438 75.4714L15.7602 75.2361L14.0557 54.6038ZM34.5635 66.6405C37.0259 66.5527 40.3097 66.0393 42.0938 65.4474L41.2114 60.4596C39.4651 60.8741 37.144 61.2211 35.6929 61.2728C32.3071 61.3936 30.3927 60.8014 29.0203 59.3534C27.4656 57.7358 26.6994 54.7692 26.5724 51.2075C26.3591 45.2273 27.702 40.9087 34.1659 40.6782C36.0567 40.6107 38.3134 40.9265 40.6674 41.503L41.3681 36.4588C39.4051 35.7363 36.0428 35.2839 33.4485 35.3764C23.159 35.7433 19.1196 42.2274 19.4552 51.6374C19.6418 56.8701 20.8807 60.7444 23.5283 63.3797C25.8555 65.6742 29.2429 66.8303 34.5635 66.6405ZM54.1184 31.9095L62.8299 25.567L59.6029 21.4994L51.8226 29.2616L54.1184 31.9095ZM44.7554 65.6606L51.3073 65.427L53.368 57.7807L63.1298 57.4325L65.906 64.9063L73.2493 64.6444L61.3156 34.9549L53.7524 35.2246L44.7554 65.6606ZM54.7738 52.7554L57.5383 42.6184L57.6262 42.6153L61.2817 52.5233L54.7738 52.7554ZM76.2923 64.5359L82.0526 64.3305L81.4285 46.8296L88.2279 57.2419L93.5046 57.0537L99.3754 46.3656L99.9932 63.6906L106.281 63.4664L105.209 33.3895L99.9319 33.5777L90.7252 50.7247L80.6282 34.2661L75.2197 34.459L76.2923 64.5359ZM112.353 63.2498L123.038 62.8688C127.699 62.7025 130.619 61.8499 132.492 60.066C134.067 58.5569 134.872 56.4149 134.768 53.5128C134.627 49.5553 131.891 46.9231 128.135 46.5287C130.855 45.0228 132.232 42.9044 132.123 39.8263C132.044 37.6277 131.234 35.8955 129.828 34.7569C128.015 33.2806 125.351 32.6711 121.086 32.8233L111.28 33.173L112.353 63.2498ZM118.566 44.8887L118.317 37.8972L120.823 37.8078C122.67 37.7419 123.733 37.9241 124.417 38.5602C125.009 39.1114 125.302 39.9375 125.341 41.0368C125.385 42.268 125.109 43.1584 124.558 43.7505C123.835 44.4807 122.788 44.7382 120.897 44.8056L118.566 44.8887ZM119.035 58.0364L118.744 49.8576L121.558 49.7572C124.02 49.6694 125.435 49.8391 126.387 50.5976C127.202 51.229 127.591 52.2718 127.649 53.8987C127.693 55.1299 127.373 56.0219 126.779 56.6595C125.973 57.5248 124.4 57.845 121.849 57.936L119.035 58.0364ZM139.741 62.2731L146.601 62.0284L145.528 31.9516L138.669 32.1962L139.741 62.2731ZM149.706 61.9177L156.258 61.684L158.319 54.0377L168.08 53.6896L170.857 61.1634L178.2 60.9015L166.266 31.212L158.703 31.4817L149.706 61.9177ZM159.724 49.0124L162.489 38.8755L162.577 38.8723L166.232 48.7803L159.724 49.0124ZM185.737 60.6327L192.596 60.3881L191.701 35.28L200.803 34.9554L201.154 29.9677L175.342 30.8883L175.519 35.8571L184.841 35.5247L185.737 60.6327ZM205.366 59.9327L225.901 59.2003L225.723 54.2315L212.048 54.7192L211.774 47.0241L222.107 46.6555L221.924 41.5108L211.59 41.8793L211.33 34.58L224.258 34.1189L224.608 29.1313L204.293 29.8558L205.366 59.9327ZM250.332 58.9454C259.346 58.6239 262.093 51.7016 261.78 42.9072C261.466 34.1128 258.231 27.3598 249.217 27.6813C240.203 28.0027 237.457 34.969 237.771 43.7634C238.084 52.5578 241.318 59.2669 250.332 58.9454ZM250.211 55.5595C244.011 55.7806 242.124 51.0049 241.86 43.6176C241.597 36.2303 243.138 31.2882 249.338 31.0671C255.538 30.846 257.427 35.6657 257.69 43.053C257.954 50.4403 256.411 55.3384 250.211 55.5595ZM276.135 57.4088L282.995 57.1641L282.606 46.259L286.387 46.1242L292.317 56.8317L300.056 56.5556L293.126 44.9593C296.455 43.2555 298.054 39.9404 297.908 35.851C297.796 32.685 296.747 30.433 295.156 29.0368C293.111 27.2605 290.233 26.7908 285.396 26.9633L275.062 27.3319L276.135 57.4088ZM282.428 41.2902L282.099 32.0561L285.177 31.9463C287.42 31.8663 288.88 32.0784 289.789 32.8825C290.518 33.561 290.909 34.6477 290.964 36.1867C291.024 37.8577 290.675 39.191 289.822 39.9698C288.969 40.7487 287.749 41.1005 285.463 41.182L282.428 41.2902ZM304.208 56.4076L324.743 55.6752L324.566 50.7064L310.891 51.1941L310.616 43.499L320.95 43.1304L320.766 37.9857L310.433 38.3542L310.173 31.0549L323.1 30.5938L323.451 25.6062L303.136 26.3307L304.208 56.4076ZM329.405 55.509L335.429 55.2941L334.778 37.0457L349.236 54.8017L354.733 54.6057L353.66 24.5288L347.636 24.7436L348.323 44.0034L333.389 25.2517L328.332 25.4321L329.405 55.509ZM372.899 54.5742C376.768 54.4362 380.115 53.2161 382.026 51.2548C384.151 49.1097 384.789 46.005 384.653 42.1794L383.984 23.4473L377.916 23.6637L378.597 42.7476C378.68 45.0781 378.341 46.6752 377.323 47.7682C376.434 48.7685 374.999 49.26 373.02 49.3305C371.041 49.4011 369.529 48.9707 368.571 48.0363C367.478 47.0186 367.024 45.4057 366.943 43.1192L366.264 24.0793L359.448 24.3224L360.127 43.3623C360.281 47.6715 361.294 50.145 363.341 52.0092C365.435 53.9158 368.721 54.7232 372.899 54.5742ZM390.876 53.3166L411.411 52.5843L411.234 47.6154L397.559 48.1032L397.284 40.4081L407.618 40.0395L407.434 34.8948L397.101 35.2633L396.84 27.964L409.768 27.5029L410.119 22.5153L389.804 23.2398L390.876 53.3166ZM423.812 52.142L430.979 51.8864L439.888 21.4536L433.204 21.6919L427.43 43.7357L419.617 22.1765L412.274 22.4384L423.812 52.142ZM439.437 51.5848L445.989 51.3511L448.05 43.7048L457.812 43.3567L460.588 50.8305L467.931 50.5686L455.997 20.879L448.434 21.1488L439.437 51.5848ZM449.456 38.6795L452.22 28.5425L452.308 28.5394L455.963 38.4474L449.456 38.6795ZM31.8487 121.156L38.7083 120.911L37.8129 95.8032L46.9151 95.4786L47.2655 90.4909L21.4539 91.4115L21.6311 96.3803L30.9532 96.0479L31.8487 121.156ZM63.592 120.64C67.4615 120.502 70.8082 119.282 72.7195 117.321C74.8444 115.176 75.4821 112.071 75.3457 108.245L74.6776 89.5133L68.6095 89.7297L69.2901 108.814C69.3732 111.144 69.0339 112.741 68.0162 113.834C67.1273 114.835 65.6919 115.326 63.7132 115.397C61.7344 115.467 60.2221 115.037 59.2642 114.102C58.1712 113.085 57.7175 111.472 57.6359 109.185L56.9569 90.1453L50.1412 90.3884L50.8203 109.428C50.9739 113.738 51.9867 116.211 54.0345 118.075C56.1278 119.982 59.4146 120.789 63.592 120.64ZM104.308 119.188C106.77 119.1 110.054 118.587 111.838 117.995L110.956 113.007C109.209 113.422 106.888 113.769 105.437 113.82C102.051 113.941 100.137 113.349 98.7645 111.901C97.2098 110.283 96.4436 107.317 96.3166 103.755C96.1033 97.7749 97.4462 93.4563 103.91 93.2258C105.801 93.1584 108.058 93.4741 110.412 94.0506L111.112 89.0064C109.149 88.2839 105.787 87.8315 103.193 87.924C92.9032 88.291 88.8638 94.7751 89.1994 104.185C89.386 109.418 90.6249 113.292 93.2725 115.927C95.5997 118.222 98.9871 119.378 104.308 119.188ZM116.46 118.138L136.995 117.406L136.818 112.437L123.143 112.925L122.868 105.23L133.202 104.861L133.018 99.7165L122.685 100.085L122.424 92.7857L135.352 92.3246L135.703 87.3369L115.387 88.0615L116.46 118.138ZM141.656 117.24L161.84 116.52L161.662 111.551L148.339 112.026L147.443 86.9182L140.584 87.1629L141.656 117.24ZM174.367 116.073L191.867 115.449L191.758 112.371L178.17 112.856L177.794 102.302L188.303 101.927L188.19 98.7615L177.681 99.1363L177.317 88.9348L190.289 88.4721L190.531 85.3816L173.294 85.9963L174.367 116.073ZM204.828 115.603C208.302 115.479 210.954 114.548 212.696 112.769C214.141 111.309 214.947 109.21 214.853 106.572C214.486 96.2827 199.091 99.1652 198.846 92.3056C198.731 89.0956 201.191 87.6871 205.28 87.5412C207.259 87.4707 209.6 87.6954 211.819 88.1886L212.284 85.1781C210.193 84.5483 207.451 84.2058 204.856 84.2983C198.876 84.5116 194.972 87.3805 195.162 92.7012C195.53 103.035 210.859 99.538 211.129 107.101C211.187 108.728 210.658 109.936 209.632 110.809C208.478 111.775 206.823 112.274 204.36 112.362C201.942 112.448 199.109 112.021 196.799 111.443L196.246 114.456C198.565 115.298 202.058 115.702 204.828 115.603ZM226.037 114.23L229.951 114.091L228.988 87.092L238.398 86.7564L238.64 83.6658L215.379 84.4954L215.489 87.5734L225.075 87.2316L226.037 114.23ZM243.729 113.599L261.23 112.975L261.12 109.897L247.533 110.382L247.156 99.8285L257.666 99.4537L257.553 96.2877L247.043 96.6625L246.68 86.461L259.651 85.9984L259.893 82.9078L242.656 83.5226L243.729 113.599ZM282.528 112.216L289.695 111.96L298.604 81.5272L291.92 81.7656L286.146 103.809L278.333 82.2502L270.99 82.5121L282.528 112.216ZM303.034 111.484L323.569 110.752L323.392 105.783L309.716 106.271L309.442 98.5758L319.775 98.2073L319.592 93.0626L309.258 93.4311L308.998 86.1317L321.926 85.6707L322.276 80.683L301.961 81.4075L303.034 111.484ZM328.23 110.586L335.09 110.341L334.701 99.4361L338.483 99.3012L344.412 110.009L352.151 109.733L345.221 98.1363C348.551 96.4326 350.15 93.1175 350.004 89.0281C349.891 85.8621 348.842 83.61 347.251 82.2139C345.206 80.4376 342.328 79.9679 337.491 80.1404L327.158 80.5089L328.23 110.586ZM334.524 94.4673L334.194 85.2331L337.272 85.1234C339.515 85.0434 340.975 85.2555 341.885 86.0596C342.613 86.738 343.004 87.8248 343.059 89.3638C343.119 91.0347 342.77 92.368 341.917 93.1469C341.065 93.9258 339.844 94.2775 337.558 94.3591L334.524 94.4673ZM353.27 109.693L359.821 109.459L361.882 101.813L371.644 101.465L374.42 108.939L381.763 108.677L369.83 78.9871L362.266 79.2568L353.27 109.693ZM363.288 96.7875L366.052 86.6506L366.14 86.6474L369.796 96.5554L363.288 96.7875ZM384.806 108.568L390.831 108.353L390.18 90.1048L404.638 107.861L410.134 107.665L409.062 77.5879L403.037 77.8028L403.724 97.0625L388.791 78.3109L383.734 78.4912L384.806 108.568ZM428.257 107.635C437.447 107.307 441.386 101.707 441.023 91.5496C440.661 81.3921 436.332 76.043 427.142 76.3708C417.951 76.6985 414.014 82.3424 414.376 92.5C414.739 102.658 419.066 107.963 428.257 107.635ZM428.065 102.27C423.624 102.429 421.759 99.5013 421.5 92.2459C421.241 84.9905 422.892 81.8937 427.333 81.7353C431.774 81.577 433.641 84.5483 433.9 91.8037C434.159 99.0591 432.506 102.112 428.065 102.27ZM446.732 96.9376L451.393 96.7714L451.623 76.07L445.027 76.3052L446.732 96.9376ZM449.376 106.882L449.684 106.871C451.794 106.795 452.864 105.921 452.785 103.722L452.767 103.194C452.688 100.996 451.559 100.2 449.448 100.275L449.141 100.286C447.03 100.361 445.96 101.236 446.039 103.434L446.058 103.962C446.136 106.161 447.265 106.957 449.376 106.882Z" fill="white"/>
<path d="M11.4116 44.6597L11.1038 44.6707C8.99318 44.7459 7.92367 45.6206 8.00208 47.8192L8.0209 48.3469C8.09931 50.5455 9.22841 51.3418 11.3391 51.2665L11.6469 51.2555C13.7575 51.1802 14.827 50.3056 14.7486 48.107L14.7298 47.5793C14.6514 45.3807 13.5223 44.5844 11.4116 44.6597ZM14.0557 54.6038L9.3947 54.77L9.16438 75.4714L15.7602 75.2361L14.0557 54.6038ZM34.5635 66.6405C37.0259 66.5527 40.3097 66.0393 42.0938 65.4474L41.2114 60.4596C39.4651 60.8741 37.144 61.2211 35.6929 61.2728C32.3071 61.3936 30.3927 60.8014 29.0203 59.3534C27.4656 57.7358 26.6994 54.7692 26.5724 51.2075C26.3591 45.2273 27.702 40.9087 34.1659 40.6782C36.0567 40.6107 38.3134 40.9265 40.6674 41.503L41.3681 36.4588C39.4051 35.7363 36.0428 35.2839 33.4485 35.3764C23.159 35.7433 19.1196 42.2274 19.4552 51.6374C19.6418 56.8701 20.8807 60.7444 23.5283 63.3797C25.8555 65.6742 29.2429 66.8303 34.5635 66.6405ZM54.1184 31.9095L62.8299 25.567L59.6029 21.4994L51.8226 29.2616L54.1184 31.9095ZM44.7554 65.6606L51.3073 65.427L53.368 57.7807L63.1298 57.4325L65.906 64.9063L73.2493 64.6444L61.3156 34.9549L53.7524 35.2246L44.7554 65.6606ZM54.7738 52.7554L57.5383 42.6184L57.6262 42.6153L61.2817 52.5233L54.7738 52.7554ZM76.2923 64.5359L82.0526 64.3305L81.4285 46.8296L88.2279 57.2419L93.5046 57.0537L99.3754 46.3656L99.9932 63.6906L106.281 63.4664L105.209 33.3895L99.9319 33.5777L90.7252 50.7247L80.6282 34.2661L75.2197 34.459L76.2923 64.5359ZM112.353 63.2498L123.038 62.8688C127.699 62.7025 130.619 61.8499 132.492 60.066C134.067 58.5569 134.872 56.4149 134.768 53.5128C134.627 49.5553 131.891 46.9231 128.135 46.5287C130.855 45.0228 132.232 42.9044 132.123 39.8263C132.044 37.6277 131.234 35.8955 129.828 34.7569C128.015 33.2806 125.351 32.6711 121.086 32.8233L111.28 33.173L112.353 63.2498ZM118.566 44.8887L118.317 37.8972L120.823 37.8078C122.67 37.7419 123.733 37.9241 124.417 38.5602C125.009 39.1114 125.302 39.9375 125.341 41.0368C125.385 42.268 125.109 43.1584 124.558 43.7505C123.835 44.4807 122.788 44.7382 120.897 44.8056L118.566 44.8887ZM119.035 58.0364L118.744 49.8576L121.558 49.7572C124.02 49.6694 125.435 49.8391 126.387 50.5976C127.202 51.229 127.591 52.2718 127.649 53.8987C127.693 55.1299 127.373 56.0219 126.779 56.6595C125.973 57.5248 124.4 57.845 121.849 57.936L119.035 58.0364ZM139.741 62.2731L146.601 62.0284L145.528 31.9516L138.669 32.1962L139.741 62.2731ZM149.706 61.9177L156.258 61.684L158.319 54.0377L168.08 53.6896L170.857 61.1634L178.2 60.9015L166.266 31.212L158.703 31.4817L149.706 61.9177ZM159.724 49.0124L162.489 38.8755L162.577 38.8723L166.232 48.7803L159.724 49.0124ZM185.737 60.6327L192.596 60.3881L191.701 35.28L200.803 34.9554L201.154 29.9677L175.342 30.8883L175.519 35.8571L184.841 35.5247L185.737 60.6327ZM205.366 59.9327L225.901 59.2003L225.723 54.2315L212.048 54.7192L211.774 47.0241L222.107 46.6555L221.924 41.5108L211.59 41.8793L211.33 34.58L224.258 34.1189L224.608 29.1313L204.293 29.8558L205.366 59.9327ZM250.332 58.9454C259.346 58.6239 262.093 51.7016 261.78 42.9072C261.466 34.1128 258.231 27.3598 249.217 27.6813C240.203 28.0027 237.457 34.969 237.771 43.7634C238.084 52.5578 241.318 59.2669 250.332 58.9454ZM250.211 55.5595C244.011 55.7806 242.124 51.0049 241.86 43.6176C241.597 36.2303 243.138 31.2882 249.338 31.0671C255.538 30.846 257.427 35.6657 257.69 43.053C257.954 50.4403 256.411 55.3384 250.211 55.5595ZM276.135 57.4088L282.995 57.1641L282.606 46.259L286.387 46.1242L292.317 56.8317L300.056 56.5556L293.126 44.9593C296.455 43.2555 298.054 39.9404 297.908 35.851C297.796 32.685 296.747 30.433 295.156 29.0368C293.111 27.2605 290.233 26.7908 285.396 26.9633L275.062 27.3319L276.135 57.4088ZM282.428 41.2902L282.099 32.0561L285.177 31.9463C287.42 31.8663 288.88 32.0784 289.789 32.8825C290.518 33.561 290.909 34.6477 290.964 36.1867C291.024 37.8577 290.675 39.191 289.822 39.9698C288.969 40.7487 287.749 41.1005 285.463 41.182L282.428 41.2902ZM304.208 56.4076L324.743 55.6752L324.566 50.7064L310.891 51.1941L310.616 43.499L320.95 43.1304L320.766 37.9857L310.433 38.3542L310.173 31.0549L323.1 30.5938L323.451 25.6062L303.136 26.3307L304.208 56.4076ZM329.405 55.509L335.429 55.2941L334.778 37.0457L349.236 54.8017L354.733 54.6057L353.66 24.5288L347.636 24.7436L348.323 44.0034L333.389 25.2517L328.332 25.4321L329.405 55.509ZM372.899 54.5742C376.768 54.4362 380.115 53.2161 382.026 51.2548C384.151 49.1097 384.789 46.005 384.653 42.1794L383.984 23.4473L377.916 23.6637L378.597 42.7476C378.68 45.0781 378.341 46.6752 377.323 47.7682C376.434 48.7685 374.999 49.26 373.02 49.3305C371.041 49.4011 369.529 48.9707 368.571 48.0363C367.478 47.0186 367.024 45.4057 366.943 43.1192L366.264 24.0793L359.448 24.3224L360.127 43.3623C360.281 47.6715 361.294 50.145 363.341 52.0092C365.435 53.9158 368.721 54.7232 372.899 54.5742ZM390.876 53.3166L411.411 52.5843L411.234 47.6154L397.559 48.1032L397.284 40.4081L407.618 40.0395L407.434 34.8948L397.101 35.2633L396.84 27.964L409.768 27.5029L410.119 22.5153L389.804 23.2398L390.876 53.3166ZM423.812 52.142L430.979 51.8864L439.888 21.4536L433.204 21.6919L427.43 43.7357L419.617 22.1765L412.274 22.4384L423.812 52.142ZM439.437 51.5848L445.989 51.3511L448.05 43.7048L457.812 43.3567L460.588 50.8305L467.931 50.5686L455.997 20.879L448.434 21.1488L439.437 51.5848ZM449.456 38.6795L452.22 28.5425L452.308 28.5394L455.963 38.4474L449.456 38.6795ZM31.8487 121.156L38.7083 120.911L37.8129 95.8032L46.9151 95.4786L47.2655 90.4909L21.4539 91.4115L21.6311 96.3803L30.9532 96.0479L31.8487 121.156ZM63.592 120.64C67.4615 120.502 70.8082 119.282 72.7195 117.321C74.8444 115.176 75.4821 112.071 75.3457 108.245L74.6776 89.5133L68.6095 89.7297L69.2901 108.814C69.3732 111.144 69.0339 112.741 68.0162 113.834C67.1273 114.835 65.6919 115.326 63.7132 115.397C61.7344 115.467 60.2221 115.037 59.2642 114.102C58.1712 113.085 57.7175 111.472 57.6359 109.185L56.9569 90.1453L50.1412 90.3884L50.8203 109.428C50.9739 113.738 51.9867 116.211 54.0345 118.075C56.1278 119.982 59.4146 120.789 63.592 120.64ZM104.308 119.188C106.77 119.1 110.054 118.587 111.838 117.995L110.956 113.007C109.209 113.422 106.888 113.769 105.437 113.82C102.051 113.941 100.137 113.349 98.7645 111.901C97.2098 110.283 96.4436 107.317 96.3166 103.755C96.1033 97.7749 97.4462 93.4563 103.91 93.2258C105.801 93.1584 108.058 93.4741 110.412 94.0506L111.112 89.0064C109.149 88.2839 105.787 87.8315 103.193 87.924C92.9032 88.291 88.8638 94.7751 89.1994 104.185C89.386 109.418 90.6249 113.292 93.2725 115.927C95.5997 118.222 98.9871 119.378 104.308 119.188ZM116.46 118.138L136.995 117.406L136.818 112.437L123.143 112.925L122.868 105.23L133.202 104.861L133.018 99.7165L122.685 100.085L122.424 92.7857L135.352 92.3246L135.703 87.3369L115.387 88.0615L116.46 118.138ZM141.656 117.24L161.84 116.52L161.662 111.551L148.339 112.026L147.443 86.9182L140.584 87.1629L141.656 117.24ZM174.367 116.073L191.867 115.449L191.758 112.371L178.17 112.856L177.794 102.302L188.303 101.927L188.19 98.7615L177.681 99.1363L177.317 88.9348L190.289 88.4721L190.531 85.3816L173.294 85.9963L174.367 116.073ZM204.828 115.603C208.302 115.479 210.954 114.548 212.696 112.769C214.141 111.309 214.947 109.21 214.853 106.572C214.486 96.2827 199.091 99.1652 198.846 92.3056C198.731 89.0956 201.191 87.6871 205.28 87.5412C207.259 87.4707 209.6 87.6954 211.819 88.1886L212.284 85.1781C210.193 84.5483 207.451 84.2058 204.856 84.2983C198.876 84.5116 194.972 87.3805 195.162 92.7012C195.53 103.035 210.859 99.538 211.129 107.101C211.187 108.728 210.658 109.936 209.632 110.809C208.478 111.775 206.823 112.274 204.36 112.362C201.942 112.448 199.109 112.021 196.799 111.443L196.246 114.456C198.565 115.298 202.058 115.702 204.828 115.603ZM226.037 114.23L229.951 114.091L228.988 87.092L238.398 86.7564L238.64 83.6658L215.379 84.4954L215.489 87.5734L225.075 87.2316L226.037 114.23ZM243.729 113.599L261.23 112.975L261.12 109.897L247.533 110.382L247.156 99.8285L257.666 99.4537L257.553 96.2877L247.043 96.6625L246.68 86.461L259.651 85.9984L259.893 82.9078L242.656 83.5226L243.729 113.599ZM282.528 112.216L289.695 111.96L298.604 81.5272L291.92 81.7656L286.146 103.809L278.333 82.2502L270.99 82.5121L282.528 112.216ZM303.034 111.484L323.569 110.752L323.392 105.783L309.716 106.271L309.442 98.5758L319.775 98.2073L319.592 93.0626L309.258 93.4311L308.998 86.1317L321.926 85.6707L322.276 80.683L301.961 81.4075L303.034 111.484ZM328.23 110.586L335.09 110.341L334.701 99.4361L338.483 99.3012L344.412 110.009L352.151 109.733L345.221 98.1363C348.551 96.4326 350.15 93.1175 350.004 89.0281C349.891 85.8621 348.842 83.61 347.251 82.2139C345.206 80.4376 342.328 79.9679 337.491 80.1404L327.158 80.5089L328.23 110.586ZM334.524 94.4673L334.194 85.2331L337.272 85.1234C339.515 85.0434 340.975 85.2555 341.885 86.0596C342.613 86.738 343.004 87.8248 343.059 89.3638C343.119 91.0347 342.77 92.368 341.917 93.1469C341.065 93.9258 339.844 94.2775 337.558 94.3591L334.524 94.4673ZM353.27 109.693L359.821 109.459L361.882 101.813L371.644 101.465L374.42 108.939L381.763 108.677L369.83 78.9871L362.266 79.2568L353.27 109.693ZM363.288 96.7875L366.052 86.6506L366.14 86.6474L369.796 96.5554L363.288 96.7875ZM384.806 108.568L390.831 108.353L390.18 90.1048L404.638 107.861L410.134 107.665L409.062 77.5879L403.037 77.8028L403.724 97.0625L388.791 78.3109L383.734 78.4912L384.806 108.568ZM428.257 107.635C437.447 107.307 441.386 101.707 441.023 91.5496C440.661 81.3921 436.332 76.043 427.142 76.3708C417.951 76.6985 414.014 82.3424 414.376 92.5C414.739 102.658 419.066 107.963 428.257 107.635ZM428.065 102.27C423.624 102.429 421.759 99.5013 421.5 92.2459C421.241 84.9905 422.892 81.8937 427.333 81.7353C431.774 81.577 433.641 84.5483 433.9 91.8037C434.159 99.0591 432.506 102.112 428.065 102.27ZM446.732 96.9376L451.393 96.7714L451.623 76.07L445.027 76.3052L446.732 96.9376ZM449.376 106.882L449.684 106.871C451.794 106.795 452.864 105.921 452.785 103.722L452.767 103.194C452.688 100.996 451.559 100.2 449.448 100.275L449.141 100.286C447.03 100.361 445.96 101.236 446.039 103.434L446.058 103.962C446.136 106.161 447.265 106.957 449.376 106.882Z" fill="#019DF4"/>
<path d="M8.30617 41.7691L7.99837 41.78C5.88771 41.8553 4.8182 42.73 4.89662 44.9286L4.91543 45.4563C4.99384 47.6549 6.12294 48.4511 8.2336 48.3759L8.5414 48.3649C10.6521 48.2896 11.7216 47.4149 11.6432 45.2163L11.6243 44.6887C11.5459 42.4901 10.4168 41.6938 8.30617 41.7691ZM10.9503 51.7131L6.28923 51.8794L6.05891 72.5807L12.6547 72.3455L10.9503 51.7131ZM31.458 63.7499C33.9205 63.6621 37.2042 63.1487 38.9883 62.5567L38.106 57.569C36.3596 57.9835 34.0385 58.3305 32.5874 58.3822C29.2016 58.503 27.2873 57.9108 25.9148 56.4628C24.3601 54.8452 23.5939 51.8786 23.4669 48.3169C23.2536 42.3367 24.5966 38.0181 31.0604 37.7875C32.9512 37.7201 35.2079 38.0359 37.562 38.6124L38.2626 33.5682C36.2996 32.8457 32.9374 32.3932 30.343 32.4858C20.0536 32.8527 16.0141 39.3368 16.3497 48.7468C16.5363 53.9795 17.7752 57.8538 20.4228 60.4891C22.7501 62.7836 26.1374 63.9396 31.458 63.7499ZM51.013 29.0188L59.7244 22.6763L56.4974 18.6088L48.7171 26.371L51.013 29.0188ZM41.6499 62.77L48.2018 62.5363L50.2626 54.89L60.0244 54.5419L62.8005 62.0157L70.1438 61.7538L58.2101 32.0643L50.6469 32.334L41.6499 62.77ZM51.6684 49.8647L54.4328 39.7278L54.5208 39.7246L58.1762 49.6326L51.6684 49.8647ZM73.1868 61.6453L78.9472 61.4398L78.323 43.939L85.1225 54.3512L90.3991 54.1631L96.2699 43.475L96.8878 60.8L103.176 60.5758L102.103 30.4989L96.8265 30.6871L87.6198 47.8341L77.5227 31.3755L72.1142 31.5684L73.1868 61.6453ZM109.247 60.3592L119.933 59.9781C124.594 59.8119 127.513 58.9593 129.387 57.1754C130.962 55.6663 131.766 53.5243 131.663 50.6221C131.521 46.6646 128.786 44.0325 125.029 43.6381C127.749 42.1322 129.127 40.0138 129.017 36.9357C128.939 34.7371 128.128 33.0049 126.723 31.8663C124.909 30.39 122.246 29.7805 117.98 29.9326L108.175 30.2823L109.247 60.3592ZM115.461 41.9981L115.212 35.0065L117.718 34.9172C119.565 34.8513 120.628 35.0335 121.311 35.6696C121.903 36.2208 122.197 37.0469 122.236 38.1462C122.28 39.3774 122.003 40.2678 121.452 40.8598C120.73 41.5901 119.682 41.8475 117.791 41.915L115.461 41.9981ZM115.93 55.1457L115.638 46.9669L118.452 46.8666C120.915 46.7788 122.33 46.9484 123.281 47.707C124.096 48.3383 124.486 49.3811 124.544 51.0081C124.588 52.2393 124.267 53.1313 123.674 53.7689C122.868 54.6341 121.294 54.9544 118.744 55.0454L115.93 55.1457ZM136.636 59.3824L143.495 59.1378L142.423 29.0609L135.563 29.3056L136.636 59.3824ZM146.601 59.0271L153.152 58.7934L155.213 51.1471L164.975 50.799L167.751 58.2728L175.094 58.0109L163.161 28.3213L155.598 28.5911L146.601 59.0271ZM156.619 46.1218L159.383 35.9848L159.471 35.9817L163.127 45.8897L156.619 46.1218ZM182.631 57.7421L189.491 57.4974L188.595 32.3894L197.698 32.0648L198.048 27.0771L172.236 27.9977L172.414 32.9665L181.736 32.634L182.631 57.7421ZM202.26 57.042L222.795 56.3097L222.618 51.3408L208.943 51.8285L208.668 44.1334L219.002 43.7649L218.818 38.6202L208.485 38.9887L208.224 31.6893L221.152 31.2283L221.503 26.2406L201.188 26.9651L202.26 57.042ZM247.226 56.0548C256.241 55.7333 258.988 48.811 258.674 40.0166C258.36 31.2221 255.126 24.4691 246.111 24.7906C237.097 25.1121 234.352 32.0784 234.665 40.8728C234.979 49.6672 238.212 56.3762 247.226 56.0548ZM247.106 52.6689C240.906 52.89 239.018 48.1143 238.755 40.727C238.491 33.3397 240.032 28.3976 246.232 28.1765C252.432 27.9554 254.321 32.7751 254.585 40.1624C254.848 47.5497 253.306 52.4478 247.106 52.6689ZM273.029 54.5181L279.889 54.2735L279.5 43.3684L283.282 43.2336L289.211 53.941L296.95 53.665L290.021 42.0686C293.35 40.3649 294.949 37.0498 294.803 32.9604C294.69 29.7944 293.641 27.5424 292.05 26.1462C290.006 24.3699 287.127 23.9002 282.29 24.0727L271.957 24.4412L273.029 54.5181ZM279.323 38.3996L278.994 29.1654L282.072 29.0557C284.314 28.9757 285.775 29.1878 286.684 29.9919C287.413 30.6703 287.804 31.7571 287.859 33.2961C287.918 34.9671 287.569 36.3003 286.717 37.0792C285.864 37.8581 284.644 38.2098 282.357 38.2914L279.323 38.3996ZM301.103 53.5169L321.638 52.7846L321.461 47.8157L307.785 48.3034L307.511 40.6083L317.844 40.2398L317.661 35.0951L307.327 35.4636L307.067 28.1642L319.995 27.7032L320.345 22.7155L300.03 23.44L301.103 53.5169ZM326.299 52.6183L332.323 52.4035L331.673 34.1551L346.131 51.9111L351.627 51.715L350.554 21.6382L344.53 21.853L345.217 41.1128L330.283 22.3611L325.227 22.5414L326.299 52.6183ZM369.793 51.6836C373.663 51.5456 377.01 50.3255 378.921 48.3641C381.046 46.219 381.683 43.1143 381.547 39.2888L380.879 20.5567L374.811 20.7731L375.491 39.857C375.575 42.1875 375.235 43.7846 374.218 44.8775C373.329 45.8779 371.893 46.3693 369.915 46.4399C367.936 46.5105 366.423 46.0801 365.466 45.1456C364.373 44.128 363.919 42.5151 363.837 40.2286L363.158 21.1887L356.343 21.4317L357.022 40.4716C357.175 44.7809 358.188 47.2544 360.236 49.1186C362.329 51.0252 365.616 51.8325 369.793 51.6836ZM387.771 50.426L408.306 49.6937L408.128 44.7248L394.453 45.2125L394.179 37.5174L404.512 37.1489L404.329 32.0042L393.995 32.3727L393.735 25.0733L406.663 24.6123L407.013 19.6246L386.698 20.3491L387.771 50.426ZM420.706 49.2514L427.874 48.9958L436.783 18.5629L430.099 18.8013L424.325 40.8451L416.511 19.2859L409.168 19.5478L420.706 49.2514ZM436.332 48.6942L442.884 48.4605L444.944 40.8142L454.706 40.466L457.482 47.9398L464.826 47.678L452.892 17.9884L445.329 18.2582L436.332 48.6942ZM446.35 35.7889L449.115 25.6519L449.202 25.6488L452.858 35.5568L446.35 35.7889ZM28.7432 118.265L35.6028 118.021L34.7074 92.9126L43.8096 92.588L44.1601 87.6003L18.3485 88.5209L18.5257 93.4897L27.8477 93.1572L28.7432 118.265ZM60.4865 117.75C64.3561 117.612 67.7027 116.392 69.614 114.43C71.7389 112.285 72.3767 109.18 72.2402 105.355L71.5722 86.6227L65.504 86.8391L66.1846 105.923C66.2677 108.253 65.9284 109.851 64.9107 110.944C64.0218 111.944 62.5864 112.435 60.6077 112.506C58.629 112.576 57.1167 112.146 56.1587 111.212C55.0658 110.194 54.612 108.581 54.5305 106.295L53.8514 87.2547L47.0358 87.4978L47.7148 106.538C47.8685 110.847 48.8813 113.32 50.929 115.185C53.0223 117.091 56.3092 117.899 60.4865 117.75ZM101.202 116.298C103.665 116.21 106.948 115.696 108.732 115.104L107.85 110.117C106.104 110.531 103.783 110.878 102.332 110.93C98.9458 111.051 97.0315 110.458 95.659 109.01C94.1043 107.393 93.3381 104.426 93.2111 100.865C92.9978 94.8843 94.3408 90.5657 100.805 90.3352C102.695 90.2677 104.952 90.5835 107.306 91.16L108.007 86.1158C106.044 85.3933 102.682 84.9409 100.087 85.0334C89.7978 85.4003 85.7583 91.8844 86.0939 101.294C86.2805 106.527 87.5194 110.401 90.167 113.037C92.4943 115.331 95.8816 116.487 101.202 116.298ZM113.355 115.248L133.89 114.515L133.712 109.547L120.037 110.034L119.763 102.339L130.096 101.971L129.913 96.8259L119.579 97.1944L119.319 89.895L132.247 89.434L132.597 84.4463L112.282 85.1708L113.355 115.248ZM138.551 114.349L158.734 113.629L158.557 108.66L145.233 109.136L144.338 84.0276L137.478 84.2722L138.551 114.349ZM171.261 113.183L188.762 112.558L188.652 109.48L175.065 109.965L174.688 99.4116L185.198 99.0368L185.085 95.8708L174.576 96.2457L174.212 86.0441L187.183 85.5815L187.425 82.4909L170.188 83.1057L171.261 113.183ZM201.723 112.713C205.196 112.589 207.849 111.658 209.591 109.878C211.036 108.418 211.841 106.32 211.747 103.682C211.38 93.3921 195.985 96.2746 195.741 89.415C195.626 86.205 198.085 84.7965 202.175 84.6506C204.154 84.58 206.495 84.8047 208.714 85.298L209.179 82.2875C207.087 81.6576 204.345 81.3151 201.751 81.4077C195.771 81.6209 191.867 84.4899 192.056 89.8105C192.425 100.144 207.754 96.6474 208.024 104.211C208.082 105.838 207.552 107.045 206.527 107.918C205.373 108.884 203.717 109.383 201.255 109.471C198.836 109.557 196.003 109.13 193.693 108.552L193.14 111.566C195.46 112.408 198.952 112.811 201.723 112.713ZM222.932 111.34L226.845 111.2L225.883 84.2014L235.293 83.8658L235.535 80.7752L212.273 81.6048L212.383 84.6828L221.969 84.3409L222.932 111.34ZM240.624 110.709L258.124 110.085L258.015 107.007L244.427 107.491L244.051 96.9379L254.56 96.5631L254.447 93.3971L243.938 93.7719L243.574 83.5704L256.546 83.1078L256.788 80.0172L239.551 80.6319L240.624 110.709ZM279.422 109.325L286.59 109.069L295.499 78.6366L288.815 78.875L283.041 100.919L275.228 79.3596L267.884 79.6215L279.422 109.325ZM299.928 108.594L320.463 107.861L320.286 102.893L306.611 103.38L306.336 95.6852L316.67 95.3167L316.486 90.1719L306.153 90.5405L305.893 83.2411L318.82 82.78L319.171 77.7924L298.856 78.5169L299.928 108.594ZM325.125 107.695L331.984 107.451L331.595 96.5455L335.377 96.4106L341.306 107.118L349.046 106.842L342.116 95.2457C345.445 93.5419 347.044 90.2269 346.898 86.1375C346.785 82.9715 345.736 80.7194 344.146 79.3232C342.101 77.547 339.222 77.0773 334.386 77.2498L324.052 77.6183L325.125 107.695ZM331.418 91.5766L331.089 82.3425L334.167 82.2327C336.41 82.1527 337.87 82.3648 338.779 83.1689C339.508 83.8474 339.899 84.9342 339.954 86.4732C340.013 88.1441 339.665 89.4774 338.812 90.2563C337.959 91.0352 336.739 91.3869 334.452 91.4684L331.418 91.5766ZM350.164 106.802L356.716 106.569L358.777 98.9222L368.538 98.5741L371.315 106.048L378.658 105.786L366.724 76.0965L359.161 76.3662L350.164 106.802ZM360.182 93.8969L362.947 83.7599L363.035 83.7568L366.69 93.6648L360.182 93.8969ZM381.701 105.677L387.725 105.463L387.074 87.2142L401.532 104.97L407.029 104.774L405.956 74.6973L399.932 74.9121L400.619 94.1719L385.685 75.4202L380.628 75.6006L381.701 105.677ZM425.151 104.744C434.341 104.416 438.28 98.8166 437.918 88.659C437.556 78.5015 433.226 73.1524 424.036 73.4801C414.846 73.8079 410.909 79.4518 411.271 89.6093C411.633 99.7669 415.961 105.072 425.151 104.744ZM424.96 99.3797C420.519 99.5381 418.653 96.6107 418.394 89.3553C418.136 82.0999 419.786 79.0031 424.227 78.8447C428.669 78.6863 430.536 81.6577 430.794 88.9131C431.053 96.1684 429.401 99.2213 424.96 99.3797ZM443.626 94.047L448.287 93.8807L448.518 73.1794L441.922 73.4146L443.626 94.047ZM446.27 103.991L446.578 103.98C448.689 103.905 449.758 103.03 449.68 100.832L449.661 100.304C449.583 98.1053 448.454 97.309 446.343 97.3843L446.035 97.3953C443.925 97.4705 442.855 98.3452 442.933 100.544L442.952 101.071C443.031 103.27 444.16 104.066 446.27 103.991Z" fill="white"/>
<path d="M8.30617 41.7691L7.99837 41.78C5.88771 41.8553 4.8182 42.73 4.89662 44.9286L4.91543 45.4563C4.99384 47.6549 6.12294 48.4511 8.2336 48.3759L8.5414 48.3649C10.6521 48.2896 11.7216 47.4149 11.6432 45.2163L11.6243 44.6887C11.5459 42.4901 10.4168 41.6938 8.30617 41.7691ZM10.9503 51.7131L6.28923 51.8794L6.05891 72.5807L12.6547 72.3455L10.9503 51.7131ZM31.458 63.7499C33.9205 63.6621 37.2042 63.1487 38.9883 62.5567L38.106 57.569C36.3596 57.9835 34.0385 58.3305 32.5874 58.3822C29.2016 58.503 27.2873 57.9108 25.9148 56.4628C24.3601 54.8452 23.5939 51.8786 23.4669 48.3169C23.2536 42.3367 24.5966 38.0181 31.0604 37.7875C32.9512 37.7201 35.2079 38.0359 37.562 38.6124L38.2626 33.5682C36.2996 32.8457 32.9374 32.3932 30.343 32.4858C20.0536 32.8527 16.0141 39.3368 16.3497 48.7468C16.5363 53.9795 17.7752 57.8538 20.4228 60.4891C22.7501 62.7836 26.1374 63.9396 31.458 63.7499ZM51.013 29.0188L59.7244 22.6763L56.4974 18.6088L48.7171 26.371L51.013 29.0188ZM41.6499 62.77L48.2018 62.5363L50.2626 54.89L60.0244 54.5419L62.8005 62.0157L70.1438 61.7538L58.2101 32.0643L50.6469 32.334L41.6499 62.77ZM51.6684 49.8647L54.4328 39.7278L54.5208 39.7246L58.1762 49.6326L51.6684 49.8647ZM73.1868 61.6453L78.9472 61.4398L78.323 43.939L85.1225 54.3512L90.3991 54.1631L96.2699 43.475L96.8878 60.8L103.176 60.5758L102.103 30.4989L96.8265 30.6871L87.6198 47.8341L77.5227 31.3755L72.1142 31.5684L73.1868 61.6453ZM109.247 60.3592L119.933 59.9781C124.594 59.8119 127.513 58.9593 129.387 57.1754C130.962 55.6663 131.766 53.5243 131.663 50.6221C131.521 46.6646 128.786 44.0325 125.029 43.6381C127.749 42.1322 129.127 40.0138 129.017 36.9357C128.939 34.7371 128.128 33.0049 126.723 31.8663C124.909 30.39 122.246 29.7805 117.98 29.9326L108.175 30.2823L109.247 60.3592ZM115.461 41.9981L115.212 35.0065L117.718 34.9172C119.565 34.8513 120.628 35.0335 121.311 35.6696C121.903 36.2208 122.197 37.0469 122.236 38.1462C122.28 39.3774 122.003 40.2678 121.452 40.8598C120.73 41.5901 119.682 41.8475 117.791 41.915L115.461 41.9981ZM115.93 55.1457L115.638 46.9669L118.452 46.8666C120.915 46.7788 122.33 46.9484 123.281 47.707C124.096 48.3383 124.486 49.3811 124.544 51.0081C124.588 52.2393 124.267 53.1313 123.674 53.7689C122.868 54.6341 121.294 54.9544 118.744 55.0454L115.93 55.1457ZM136.636 59.3824L143.495 59.1378L142.423 29.0609L135.563 29.3056L136.636 59.3824ZM146.601 59.0271L153.152 58.7934L155.213 51.1471L164.975 50.799L167.751 58.2728L175.094 58.0109L163.161 28.3213L155.598 28.5911L146.601 59.0271ZM156.619 46.1218L159.383 35.9848L159.471 35.9817L163.127 45.8897L156.619 46.1218ZM182.631 57.7421L189.491 57.4974L188.595 32.3894L197.698 32.0648L198.048 27.0771L172.236 27.9977L172.414 32.9665L181.736 32.634L182.631 57.7421ZM202.26 57.042L222.795 56.3097L222.618 51.3408L208.943 51.8285L208.668 44.1334L219.002 43.7649L218.818 38.6202L208.485 38.9887L208.224 31.6893L221.152 31.2283L221.503 26.2406L201.188 26.9651L202.26 57.042ZM247.226 56.0548C256.241 55.7333 258.988 48.811 258.674 40.0166C258.36 31.2221 255.126 24.4691 246.111 24.7906C237.097 25.1121 234.352 32.0784 234.665 40.8728C234.979 49.6672 238.212 56.3762 247.226 56.0548ZM247.106 52.6689C240.906 52.89 239.018 48.1143 238.755 40.727C238.491 33.3397 240.032 28.3976 246.232 28.1765C252.432 27.9554 254.321 32.7751 254.585 40.1624C254.848 47.5497 253.306 52.4478 247.106 52.6689ZM273.029 54.5181L279.889 54.2735L279.5 43.3684L283.282 43.2336L289.211 53.941L296.95 53.665L290.021 42.0686C293.35 40.3649 294.949 37.0498 294.803 32.9604C294.69 29.7944 293.641 27.5424 292.05 26.1462C290.006 24.3699 287.127 23.9002 282.29 24.0727L271.957 24.4412L273.029 54.5181ZM279.323 38.3996L278.994 29.1654L282.072 29.0557C284.314 28.9757 285.775 29.1878 286.684 29.9919C287.413 30.6703 287.804 31.7571 287.859 33.2961C287.918 34.9671 287.569 36.3003 286.717 37.0792C285.864 37.8581 284.644 38.2098 282.357 38.2914L279.323 38.3996ZM301.103 53.5169L321.638 52.7846L321.461 47.8157L307.785 48.3034L307.511 40.6083L317.844 40.2398L317.661 35.0951L307.327 35.4636L307.067 28.1642L319.995 27.7032L320.345 22.7155L300.03 23.44L301.103 53.5169ZM326.299 52.6183L332.323 52.4035L331.673 34.1551L346.131 51.9111L351.627 51.715L350.554 21.6382L344.53 21.853L345.217 41.1128L330.283 22.3611L325.227 22.5414L326.299 52.6183ZM369.793 51.6836C373.663 51.5456 377.01 50.3255 378.921 48.3641C381.046 46.219 381.683 43.1143 381.547 39.2888L380.879 20.5567L374.811 20.7731L375.491 39.857C375.575 42.1875 375.235 43.7846 374.218 44.8775C373.329 45.8779 371.893 46.3693 369.915 46.4399C367.936 46.5105 366.423 46.0801 365.466 45.1456C364.373 44.128 363.919 42.5151 363.837 40.2286L363.158 21.1887L356.343 21.4317L357.022 40.4716C357.175 44.7809 358.188 47.2544 360.236 49.1186C362.329 51.0252 365.616 51.8325 369.793 51.6836ZM387.771 50.426L408.306 49.6937L408.128 44.7248L394.453 45.2125L394.179 37.5174L404.512 37.1489L404.329 32.0042L393.995 32.3727L393.735 25.0733L406.663 24.6123L407.013 19.6246L386.698 20.3491L387.771 50.426ZM420.706 49.2514L427.874 48.9958L436.783 18.5629L430.099 18.8013L424.325 40.8451L416.511 19.2859L409.168 19.5478L420.706 49.2514ZM436.332 48.6942L442.884 48.4605L444.944 40.8142L454.706 40.466L457.482 47.9398L464.826 47.678L452.892 17.9884L445.329 18.2582L436.332 48.6942ZM446.35 35.7889L449.115 25.6519L449.202 25.6488L452.858 35.5568L446.35 35.7889ZM28.7432 118.265L35.6028 118.021L34.7074 92.9126L43.8096 92.588L44.1601 87.6003L18.3485 88.5209L18.5257 93.4897L27.8477 93.1572L28.7432 118.265ZM60.4865 117.75C64.3561 117.612 67.7027 116.392 69.614 114.43C71.7389 112.285 72.3767 109.18 72.2402 105.355L71.5722 86.6227L65.504 86.8391L66.1846 105.923C66.2677 108.253 65.9284 109.851 64.9107 110.944C64.0218 111.944 62.5864 112.435 60.6077 112.506C58.629 112.576 57.1167 112.146 56.1587 111.212C55.0658 110.194 54.612 108.581 54.5305 106.295L53.8514 87.2547L47.0358 87.4978L47.7148 106.538C47.8685 110.847 48.8813 113.32 50.929 115.185C53.0223 117.091 56.3092 117.899 60.4865 117.75ZM101.202 116.298C103.665 116.21 106.948 115.696 108.732 115.104L107.85 110.117C106.104 110.531 103.783 110.878 102.332 110.93C98.9458 111.051 97.0315 110.458 95.659 109.01C94.1043 107.393 93.3381 104.426 93.2111 100.865C92.9978 94.8843 94.3408 90.5657 100.805 90.3352C102.695 90.2677 104.952 90.5835 107.306 91.16L108.007 86.1158C106.044 85.3933 102.682 84.9409 100.087 85.0334C89.7978 85.4003 85.7583 91.8844 86.0939 101.294C86.2805 106.527 87.5194 110.401 90.167 113.037C92.4943 115.331 95.8816 116.487 101.202 116.298ZM113.355 115.248L133.89 114.515L133.712 109.547L120.037 110.034L119.763 102.339L130.096 101.971L129.913 96.8259L119.579 97.1944L119.319 89.895L132.247 89.434L132.597 84.4463L112.282 85.1708L113.355 115.248ZM138.551 114.349L158.734 113.629L158.557 108.66L145.233 109.136L144.338 84.0276L137.478 84.2722L138.551 114.349ZM171.261 113.183L188.762 112.558L188.652 109.48L175.065 109.965L174.688 99.4116L185.198 99.0368L185.085 95.8708L174.576 96.2457L174.212 86.0441L187.183 85.5815L187.425 82.4909L170.188 83.1057L171.261 113.183ZM201.723 112.713C205.196 112.589 207.849 111.658 209.591 109.878C211.036 108.418 211.841 106.32 211.747 103.682C211.38 93.3921 195.985 96.2746 195.741 89.415C195.626 86.205 198.085 84.7965 202.175 84.6506C204.154 84.58 206.495 84.8047 208.714 85.298L209.179 82.2875C207.087 81.6576 204.345 81.3151 201.751 81.4077C195.771 81.6209 191.867 84.4899 192.056 89.8105C192.425 100.144 207.754 96.6474 208.024 104.211C208.082 105.838 207.552 107.045 206.527 107.918C205.373 108.884 203.717 109.383 201.255 109.471C198.836 109.557 196.003 109.13 193.693 108.552L193.14 111.566C195.46 112.408 198.952 112.811 201.723 112.713ZM222.932 111.34L226.845 111.2L225.883 84.2014L235.293 83.8658L235.535 80.7752L212.273 81.6048L212.383 84.6828L221.969 84.3409L222.932 111.34ZM240.624 110.709L258.124 110.085L258.015 107.007L244.427 107.491L244.051 96.9379L254.56 96.5631L254.447 93.3971L243.938 93.7719L243.574 83.5704L256.546 83.1078L256.788 80.0172L239.551 80.6319L240.624 110.709ZM279.422 109.325L286.59 109.069L295.499 78.6366L288.815 78.875L283.041 100.919L275.228 79.3596L267.884 79.6215L279.422 109.325ZM299.928 108.594L320.463 107.861L320.286 102.893L306.611 103.38L306.336 95.6852L316.67 95.3167L316.486 90.1719L306.153 90.5405L305.893 83.2411L318.82 82.78L319.171 77.7924L298.856 78.5169L299.928 108.594ZM325.125 107.695L331.984 107.451L331.595 96.5455L335.377 96.4106L341.306 107.118L349.046 106.842L342.116 95.2457C345.445 93.5419 347.044 90.2269 346.898 86.1375C346.785 82.9715 345.736 80.7194 344.146 79.3232C342.101 77.547 339.222 77.0773 334.386 77.2498L324.052 77.6183L325.125 107.695ZM331.418 91.5766L331.089 82.3425L334.167 82.2327C336.41 82.1527 337.87 82.3648 338.779 83.1689C339.508 83.8474 339.899 84.9342 339.954 86.4732C340.013 88.1441 339.665 89.4774 338.812 90.2563C337.959 91.0352 336.739 91.3869 334.452 91.4684L331.418 91.5766ZM350.164 106.802L356.716 106.569L358.777 98.9222L368.538 98.5741L371.315 106.048L378.658 105.786L366.724 76.0965L359.161 76.3662L350.164 106.802ZM360.182 93.8969L362.947 83.7599L363.035 83.7568L366.69 93.6648L360.182 93.8969ZM381.701 105.677L387.725 105.463L387.074 87.2142L401.532 104.97L407.029 104.774L405.956 74.6973L399.932 74.9121L400.619 94.1719L385.685 75.4202L380.628 75.6006L381.701 105.677ZM425.151 104.744C434.341 104.416 438.28 98.8166 437.918 88.659C437.556 78.5015 433.226 73.1524 424.036 73.4801C414.846 73.8079 410.909 79.4518 411.271 89.6093C411.633 99.7669 415.961 105.072 425.151 104.744ZM424.96 99.3797C420.519 99.5381 418.653 96.6107 418.394 89.3553C418.136 82.0999 419.786 79.0031 424.227 78.8447C428.669 78.6863 430.536 81.6577 430.794 88.9131C431.053 96.1684 429.401 99.2213 424.96 99.3797ZM443.626 94.047L448.287 93.8807L448.518 73.1794L441.922 73.4146L443.626 94.047ZM446.27 103.991L446.578 103.98C448.689 103.905 449.758 103.03 449.68 100.832L449.661 100.304C449.583 98.1053 448.454 97.309 446.343 97.3843L446.035 97.3953C443.925 97.4705 442.855 98.3452 442.933 100.544L442.952 101.071C443.031 103.27 444.16 104.066 446.27 103.991Z" fill="white"/>
<path d="M8.30617 41.7691L7.99837 41.78C5.88771 41.8553 4.8182 42.73 4.89662 44.9286L4.91543 45.4563C4.99384 47.6549 6.12294 48.4511 8.2336 48.3759L8.5414 48.3649C10.6521 48.2896 11.7216 47.4149 11.6432 45.2163L11.6243 44.6887C11.5459 42.4901 10.4168 41.6938 8.30617 41.7691ZM10.9503 51.7131L6.28923 51.8794L6.05891 72.5807L12.6547 72.3455L10.9503 51.7131ZM31.458 63.7499C33.9205 63.6621 37.2042 63.1487 38.9883 62.5567L38.106 57.569C36.3596 57.9835 34.0385 58.3305 32.5874 58.3822C29.2016 58.503 27.2873 57.9108 25.9148 56.4628C24.3601 54.8452 23.5939 51.8786 23.4669 48.3169C23.2536 42.3367 24.5966 38.0181 31.0604 37.7875C32.9512 37.7201 35.2079 38.0359 37.562 38.6124L38.2626 33.5682C36.2996 32.8457 32.9374 32.3932 30.343 32.4858C20.0536 32.8527 16.0141 39.3368 16.3497 48.7468C16.5363 53.9795 17.7752 57.8538 20.4228 60.4891C22.7501 62.7836 26.1374 63.9396 31.458 63.7499ZM51.013 29.0188L59.7244 22.6763L56.4974 18.6088L48.7171 26.371L51.013 29.0188ZM41.6499 62.77L48.2018 62.5363L50.2626 54.89L60.0244 54.5419L62.8005 62.0157L70.1438 61.7538L58.2101 32.0643L50.6469 32.334L41.6499 62.77ZM51.6684 49.8647L54.4328 39.7278L54.5208 39.7246L58.1762 49.6326L51.6684 49.8647ZM73.1868 61.6453L78.9472 61.4398L78.323 43.939L85.1225 54.3512L90.3991 54.1631L96.2699 43.475L96.8878 60.8L103.176 60.5758L102.103 30.4989L96.8265 30.6871L87.6198 47.8341L77.5227 31.3755L72.1142 31.5684L73.1868 61.6453ZM109.247 60.3592L119.933 59.9781C124.594 59.8119 127.513 58.9593 129.387 57.1754C130.962 55.6663 131.766 53.5243 131.663 50.6221C131.521 46.6646 128.786 44.0325 125.029 43.6381C127.749 42.1322 129.127 40.0138 129.017 36.9357C128.939 34.7371 128.128 33.0049 126.723 31.8663C124.909 30.39 122.246 29.7805 117.98 29.9326L108.175 30.2823L109.247 60.3592ZM115.461 41.9981L115.212 35.0065L117.718 34.9172C119.565 34.8513 120.628 35.0335 121.311 35.6696C121.903 36.2208 122.197 37.0469 122.236 38.1462C122.28 39.3774 122.003 40.2678 121.452 40.8598C120.73 41.5901 119.682 41.8475 117.791 41.915L115.461 41.9981ZM115.93 55.1457L115.638 46.9669L118.452 46.8666C120.915 46.7788 122.33 46.9484 123.281 47.707C124.096 48.3383 124.486 49.3811 124.544 51.0081C124.588 52.2393 124.267 53.1313 123.674 53.7689C122.868 54.6341 121.294 54.9544 118.744 55.0454L115.93 55.1457ZM136.636 59.3824L143.495 59.1378L142.423 29.0609L135.563 29.3056L136.636 59.3824ZM146.601 59.0271L153.152 58.7934L155.213 51.1471L164.975 50.799L167.751 58.2728L175.094 58.0109L163.161 28.3213L155.598 28.5911L146.601 59.0271ZM156.619 46.1218L159.383 35.9848L159.471 35.9817L163.127 45.8897L156.619 46.1218ZM182.631 57.7421L189.491 57.4974L188.595 32.3894L197.698 32.0648L198.048 27.0771L172.236 27.9977L172.414 32.9665L181.736 32.634L182.631 57.7421ZM202.26 57.042L222.795 56.3097L222.618 51.3408L208.943 51.8285L208.668 44.1334L219.002 43.7649L218.818 38.6202L208.485 38.9887L208.224 31.6893L221.152 31.2283L221.503 26.2406L201.188 26.9651L202.26 57.042ZM247.226 56.0548C256.241 55.7333 258.988 48.811 258.674 40.0166C258.36 31.2221 255.126 24.4691 246.111 24.7906C237.097 25.1121 234.352 32.0784 234.665 40.8728C234.979 49.6672 238.212 56.3762 247.226 56.0548ZM247.106 52.6689C240.906 52.89 239.018 48.1143 238.755 40.727C238.491 33.3397 240.032 28.3976 246.232 28.1765C252.432 27.9554 254.321 32.7751 254.585 40.1624C254.848 47.5497 253.306 52.4478 247.106 52.6689ZM273.029 54.5181L279.889 54.2735L279.5 43.3684L283.282 43.2336L289.211 53.941L296.95 53.665L290.021 42.0686C293.35 40.3649 294.949 37.0498 294.803 32.9604C294.69 29.7944 293.641 27.5424 292.05 26.1462C290.006 24.3699 287.127 23.9002 282.29 24.0727L271.957 24.4412L273.029 54.5181ZM279.323 38.3996L278.994 29.1654L282.072 29.0557C284.314 28.9757 285.775 29.1878 286.684 29.9919C287.413 30.6703 287.804 31.7571 287.859 33.2961C287.918 34.9671 287.569 36.3003 286.717 37.0792C285.864 37.8581 284.644 38.2098 282.357 38.2914L279.323 38.3996ZM301.103 53.5169L321.638 52.7846L321.461 47.8157L307.785 48.3034L307.511 40.6083L317.844 40.2398L317.661 35.0951L307.327 35.4636L307.067 28.1642L319.995 27.7032L320.345 22.7155L300.03 23.44L301.103 53.5169ZM326.299 52.6183L332.323 52.4035L331.673 34.1551L346.131 51.9111L351.627 51.715L350.554 21.6382L344.53 21.853L345.217 41.1128L330.283 22.3611L325.227 22.5414L326.299 52.6183ZM369.793 51.6836C373.663 51.5456 377.01 50.3255 378.921 48.3641C381.046 46.219 381.683 43.1143 381.547 39.2888L380.879 20.5567L374.811 20.7731L375.491 39.857C375.575 42.1875 375.235 43.7846 374.218 44.8775C373.329 45.8779 371.893 46.3693 369.915 46.4399C367.936 46.5105 366.423 46.0801 365.466 45.1456C364.373 44.128 363.919 42.5151 363.837 40.2286L363.158 21.1887L356.343 21.4317L357.022 40.4716C357.175 44.7809 358.188 47.2544 360.236 49.1186C362.329 51.0252 365.616 51.8325 369.793 51.6836ZM387.771 50.426L408.306 49.6937L408.128 44.7248L394.453 45.2125L394.179 37.5174L404.512 37.1489L404.329 32.0042L393.995 32.3727L393.735 25.0733L406.663 24.6123L407.013 19.6246L386.698 20.3491L387.771 50.426ZM420.706 49.2514L427.874 48.9958L436.783 18.5629L430.099 18.8013L424.325 40.8451L416.511 19.2859L409.168 19.5478L420.706 49.2514ZM436.332 48.6942L442.884 48.4605L444.944 40.8142L454.706 40.466L457.482 47.9398L464.826 47.678L452.892 17.9884L445.329 18.2582L436.332 48.6942ZM446.35 35.7889L449.115 25.6519L449.202 25.6488L452.858 35.5568L446.35 35.7889ZM28.7432 118.265L35.6028 118.021L34.7074 92.9126L43.8096 92.588L44.1601 87.6003L18.3485 88.5209L18.5257 93.4897L27.8477 93.1572L28.7432 118.265ZM60.4865 117.75C64.3561 117.612 67.7027 116.392 69.614 114.43C71.7389 112.285 72.3767 109.18 72.2402 105.355L71.5722 86.6227L65.504 86.8391L66.1846 105.923C66.2677 108.253 65.9284 109.851 64.9107 110.944C64.0218 111.944 62.5864 112.435 60.6077 112.506C58.629 112.576 57.1167 112.146 56.1587 111.212C55.0658 110.194 54.612 108.581 54.5305 106.295L53.8514 87.2547L47.0358 87.4978L47.7148 106.538C47.8685 110.847 48.8813 113.32 50.929 115.185C53.0223 117.091 56.3092 117.899 60.4865 117.75ZM101.202 116.298C103.665 116.21 106.948 115.696 108.732 115.104L107.85 110.117C106.104 110.531 103.783 110.878 102.332 110.93C98.9458 111.051 97.0315 110.458 95.659 109.01C94.1043 107.393 93.3381 104.426 93.2111 100.865C92.9978 94.8843 94.3408 90.5657 100.805 90.3352C102.695 90.2677 104.952 90.5835 107.306 91.16L108.007 86.1158C106.044 85.3933 102.682 84.9409 100.087 85.0334C89.7978 85.4003 85.7583 91.8844 86.0939 101.294C86.2805 106.527 87.5194 110.401 90.167 113.037C92.4943 115.331 95.8816 116.487 101.202 116.298ZM113.355 115.248L133.89 114.515L133.712 109.547L120.037 110.034L119.763 102.339L130.096 101.971L129.913 96.8259L119.579 97.1944L119.319 89.895L132.247 89.434L132.597 84.4463L112.282 85.1708L113.355 115.248ZM138.551 114.349L158.734 113.629L158.557 108.66L145.233 109.136L144.338 84.0276L137.478 84.2722L138.551 114.349ZM171.261 113.183L188.762 112.558L188.652 109.48L175.065 109.965L174.688 99.4116L185.198 99.0368L185.085 95.8708L174.576 96.2457L174.212 86.0441L187.183 85.5815L187.425 82.4909L170.188 83.1057L171.261 113.183ZM201.723 112.713C205.196 112.589 207.849 111.658 209.591 109.878C211.036 108.418 211.841 106.32 211.747 103.682C211.38 93.3921 195.985 96.2746 195.741 89.415C195.626 86.205 198.085 84.7965 202.175 84.6506C204.154 84.58 206.495 84.8047 208.714 85.298L209.179 82.2875C207.087 81.6576 204.345 81.3151 201.751 81.4077C195.771 81.6209 191.867 84.4899 192.056 89.8105C192.425 100.144 207.754 96.6474 208.024 104.211C208.082 105.838 207.552 107.045 206.527 107.918C205.373 108.884 203.717 109.383 201.255 109.471C198.836 109.557 196.003 109.13 193.693 108.552L193.14 111.566C195.46 112.408 198.952 112.811 201.723 112.713ZM222.932 111.34L226.845 111.2L225.883 84.2014L235.293 83.8658L235.535 80.7752L212.273 81.6048L212.383 84.6828L221.969 84.3409L222.932 111.34ZM240.624 110.709L258.124 110.085L258.015 107.007L244.427 107.491L244.051 96.9379L254.56 96.5631L254.447 93.3971L243.938 93.7719L243.574 83.5704L256.546 83.1078L256.788 80.0172L239.551 80.6319L240.624 110.709ZM279.422 109.325L286.59 109.069L295.499 78.6366L288.815 78.875L283.041 100.919L275.228 79.3596L267.884 79.6215L279.422 109.325ZM299.928 108.594L320.463 107.861L320.286 102.893L306.611 103.38L306.336 95.6852L316.67 95.3167L316.486 90.1719L306.153 90.5405L305.893 83.2411L318.82 82.78L319.171 77.7924L298.856 78.5169L299.928 108.594ZM325.125 107.695L331.984 107.451L331.595 96.5455L335.377 96.4106L341.306 107.118L349.046 106.842L342.116 95.2457C345.445 93.5419 347.044 90.2269 346.898 86.1375C346.785 82.9715 345.736 80.7194 344.146 79.3232C342.101 77.547 339.222 77.0773 334.386 77.2498L324.052 77.6183L325.125 107.695ZM331.418 91.5766L331.089 82.3425L334.167 82.2327C336.41 82.1527 337.87 82.3648 338.779 83.1689C339.508 83.8474 339.899 84.9342 339.954 86.4732C340.013 88.1441 339.665 89.4774 338.812 90.2563C337.959 91.0352 336.739 91.3869 334.452 91.4684L331.418 91.5766ZM350.164 106.802L356.716 106.569L358.777 98.9222L368.538 98.5741L371.315 106.048L378.658 105.786L366.724 76.0965L359.161 76.3662L350.164 106.802ZM360.182 93.8969L362.947 83.7599L363.035 83.7568L366.69 93.6648L360.182 93.8969ZM381.701 105.677L387.725 105.463L387.074 87.2142L401.532 104.97L407.029 104.774L405.956 74.6973L399.932 74.9121L400.619 94.1719L385.685 75.4202L380.628 75.6006L381.701 105.677ZM425.151 104.744C434.341 104.416 438.28 98.8166 437.918 88.659C437.556 78.5015 433.226 73.1524 424.036 73.4801C414.846 73.8079 410.909 79.4518 411.271 89.6093C411.633 99.7669 415.961 105.072 425.151 104.744ZM424.96 99.3797C420.519 99.5381 418.653 96.6107 418.394 89.3553C418.136 82.0999 419.786 79.0031 424.227 78.8447C428.669 78.6863 430.536 81.6577 430.794 88.9131C431.053 96.1684 429.401 99.2213 424.96 99.3797ZM443.626 94.047L448.287 93.8807L448.518 73.1794L441.922 73.4146L443.626 94.047ZM446.27 103.991L446.578 103.98C448.689 103.905 449.758 103.03 449.68 100.832L449.661 100.304C449.583 98.1053 448.454 97.309 446.343 97.3843L446.035 97.3953C443.925 97.4705 442.855 98.3452 442.933 100.544L442.952 101.071C443.031 103.27 444.16 104.066 446.27 103.991Z" fill="white"/>
</svg>
