<svg width="246" height="62" viewBox="0 0 246 62" fill="none" xmlns="http://www.w3.org/2000/svg">
<path d="M3.12811 19.9408C3.70044 19.9204 4.13023 20.0289 4.41749 20.2665C4.70475 20.5041 4.85858 20.909 4.87899 21.4813L4.88892 21.7598C4.90934 22.3321 4.78474 22.747 4.51513 23.0044C4.24553 23.2618 3.82456 23.4007 3.25223 23.4212L3.08981 23.4269C2.51748 23.4474 2.08769 23.3388 1.80043 23.1012C1.51317 22.8637 1.35934 22.4587 1.33892 21.8864L1.32899 21.6079C1.30858 21.0356 1.43318 20.6207 1.70278 20.3633C1.97239 20.1059 2.39336 19.967 2.96569 19.9466L3.12811 19.9408ZM5.42269 36.075L1.9423 36.1991L2.06383 25.2756L4.52331 25.1879L5.42269 36.075ZM15.3446 31.5393C13.9679 31.5884 12.81 31.4748 11.8708 31.1986C10.9312 30.9068 10.1481 30.4469 9.52165 29.8187C8.83114 29.1309 8.31299 28.282 7.96721 27.2722C7.62088 26.2468 7.42261 25.0303 7.37241 23.6227C7.27973 21.024 7.83366 18.9676 9.03419 17.4534C10.2347 15.9392 12.1421 15.1355 14.7562 15.0423C15.4368 15.018 16.1741 15.0614 16.9679 15.1725C17.7618 15.2836 18.4175 15.4305 18.9352 15.6134L18.5654 18.2751C17.2374 17.9507 16.0938 17.8056 15.1348 17.8398C13.5415 17.8967 12.4598 18.3999 11.8897 19.3495C11.3195 20.2991 11.0656 21.6479 11.1279 23.3958C11.2007 25.4377 11.6313 26.8704 12.4196 27.6942C12.7897 28.0837 13.2488 28.3616 13.7968 28.5279C14.3443 28.6787 15.0588 28.7384 15.9405 28.707C16.3272 28.6932 16.7902 28.6457 17.3294 28.5645C17.884 28.4828 18.3917 28.3872 18.8525 28.2779L19.3181 30.9097C18.8435 31.0661 18.2212 31.2044 17.4511 31.3248C16.6964 31.4446 15.9943 31.5162 15.3446 31.5393ZM25.4699 14.9622L29.4608 14.8199L35.7578 30.4861L31.883 30.6242L30.4181 26.6806L25.2671 26.8643L24.1797 30.899L20.7225 31.0223L25.4699 14.9622ZM29.4429 24.0901L27.514 18.862L27.4676 18.8636L26.0089 24.2126L29.4429 24.0901ZM24.4517 11.8157L28.5571 7.71982L30.2599 9.86615L25.6631 13.2129L24.4517 11.8157ZM36.7975 14.5582L39.6514 14.4564L44.9793 23.1411L49.8374 14.0931L52.6217 13.9939L53.1877 29.8644L49.8697 29.9828L49.5437 20.8409L46.4459 26.4807L43.6616 26.58L40.0737 21.0857L40.4031 30.3204L37.3635 30.4288L36.7975 14.5582ZM55.8255 13.8796L60.9997 13.6951C62.1134 13.6553 63.0373 13.7231 63.7715 13.8982C64.5206 14.0574 65.1344 14.3297 65.6128 14.7154C66.3784 15.3386 66.7819 16.2302 66.8233 17.3904C66.852 18.1947 66.6909 18.8897 66.3401 19.4753C65.9887 20.0454 65.4484 20.5293 64.7192 20.927C65.7296 21.0304 66.5566 21.419 67.2001 22.093C67.8431 22.7516 68.1828 23.5913 68.2192 24.6122C68.2722 26.0972 67.8719 27.2499 67.0183 28.0702C66.5239 28.537 65.8783 28.893 65.0817 29.1382C64.2845 29.368 63.2672 29.505 62.0297 29.5491L56.3915 29.7502L55.8255 13.8796ZM60.8999 20.0178C61.4104 19.9996 61.8114 19.9543 62.1031 19.8819C62.4097 19.7935 62.6525 19.6532 62.8315 19.461C63.1299 19.1406 63.2677 18.6633 63.2451 18.0291C63.2241 17.4413 63.0615 17.0057 62.7571 16.7223C62.5809 16.5582 62.3447 16.4504 62.0486 16.399C61.7519 16.3322 61.3561 16.3076 60.8611 16.3252L59.5386 16.3724L59.6702 20.0616L60.8999 20.0178ZM61.4025 26.9462C62.0986 26.9214 62.6541 26.8629 63.069 26.7706C63.4833 26.6629 63.7949 26.4969 64.0038 26.2727C64.3319 25.9202 64.485 25.4346 64.4629 24.8159C64.4331 23.9806 64.2111 23.4 63.7967 23.074C63.5575 22.8812 63.2432 22.753 62.8537 22.6895C62.4643 22.6259 61.9292 22.6063 61.2486 22.6306L59.7637 22.6835L59.9176 26.9992L61.4025 26.9462ZM70.2774 13.3642L73.8971 13.2351L74.4631 29.1057L70.8434 29.2348L70.2774 13.3642ZM80.849 12.9872L84.8398 12.8448L91.1369 28.511L87.262 28.6492L85.7971 24.7055L80.6462 24.8892L79.5588 28.9239L76.1016 29.0472L80.849 12.9872ZM84.8219 22.1151L82.8931 16.887L82.8467 16.8886L81.3879 22.2376L84.8219 22.1151ZM94.6412 15.1205L89.7223 15.2959L89.6288 12.674L103.249 12.1883L103.064 14.8201L98.2609 14.9914L98.7334 28.2401L95.1137 28.3692L94.6412 15.1205ZM104.905 12.1292L115.625 11.7469L115.44 14.3787L108.618 14.622L108.756 18.4737L114.208 18.2792L114.305 20.9939L108.853 21.1884L108.997 25.2488L116.213 24.9915L116.307 27.6134L105.471 27.9998L104.905 12.1292ZM129.199 27.4789C126.956 27.5588 125.313 26.874 124.27 25.4243C123.227 23.9747 122.66 21.9892 122.57 19.4678C122.481 16.9465 122.904 14.9257 123.841 13.4054C124.778 11.8697 126.367 11.0618 128.61 10.9818C130.853 10.9018 132.496 11.5944 133.54 13.0595C134.583 14.5092 135.149 16.4947 135.239 19.016C135.329 21.5374 134.905 23.5582 133.968 25.0785C133.031 26.5987 131.441 27.3989 129.199 27.4789ZM129.135 25.6923C130.682 25.6371 131.745 25.0493 132.324 23.929C132.904 22.8087 133.156 21.1967 133.081 19.093C133.006 16.9893 132.64 15.3993 131.982 14.3231C131.323 13.2315 130.221 12.7132 128.674 12.7684C127.127 12.8236 126.064 13.419 125.485 14.5548C124.906 15.6752 124.653 17.2872 124.728 19.3909C124.803 21.4946 125.17 23.0845 125.828 24.1607C126.486 25.2369 127.588 25.7474 129.135 25.6923ZM142.248 10.7974L147.701 10.603C149.015 10.5561 150.071 10.6114 150.866 10.7689C151.662 10.9264 152.323 11.2358 152.851 11.6971C153.762 12.5009 154.246 13.6995 154.303 15.2927C154.342 16.391 154.144 17.3583 153.71 18.1947C153.29 19.015 152.646 19.6497 151.78 20.0988L155.436 26.2179L151.353 26.3635L148.224 20.7135L146.228 20.7847L146.434 26.5389L142.814 26.668L142.248 10.7974ZM147.736 18.1057C148.339 18.0842 148.817 18.0284 149.17 17.9384C149.523 17.8329 149.811 17.6754 150.036 17.4661C150.471 17.0634 150.672 16.398 150.639 15.4699C150.61 14.6655 150.404 14.0843 150.019 13.7263C149.795 13.5175 149.488 13.3813 149.098 13.3177C148.708 13.2387 148.204 13.2103 147.585 13.2323L145.961 13.2902L146.135 18.1628L147.736 18.1057ZM157.061 10.2691L167.781 9.88683L167.596 12.5187L160.775 12.7619L160.912 16.6136L166.364 16.4191L166.461 19.1338L161.009 19.3283L161.153 23.3887L168.37 23.1314L168.463 25.7533L157.627 26.1397L157.061 10.2691ZM170.357 9.79497L173.025 9.69981L180.905 19.5945L180.543 9.4317L183.721 9.31834L184.287 25.1889L181.387 25.2924L173.758 15.9231L174.101 25.5522L170.923 25.6656L170.357 9.79497ZM193.873 25.1723C191.584 25.254 189.903 24.8028 188.83 23.8189C188.285 23.3117 187.876 22.7067 187.604 22.004C187.33 21.2858 187.174 20.3699 187.134 19.2561L186.776 9.20941L190.372 9.08115L190.73 19.1279C190.752 19.7466 190.825 20.2706 190.949 20.6999C191.088 21.1131 191.301 21.454 191.59 21.7225C192.103 22.2153 192.885 22.4429 193.937 22.4054C194.989 22.3679 195.746 22.0931 196.208 21.581C196.476 21.2926 196.657 20.9377 196.75 20.5162C196.859 20.0941 196.902 19.566 196.88 18.9318L196.521 8.86187L199.723 8.74767L200.075 18.632C200.113 19.6993 200.023 20.6318 199.803 21.4295C199.599 22.2112 199.228 22.875 198.689 23.4208C198.181 23.9345 197.507 24.3458 196.666 24.6545C195.825 24.9633 194.894 25.1359 193.873 25.1723ZM202.793 8.63816L213.513 8.25586L213.328 10.8877L206.506 11.131L206.644 14.9826L212.096 14.7881L212.193 17.5029L206.741 17.6973L206.885 21.7578L214.101 21.5004L214.195 24.1223L203.359 24.5088L202.793 8.63816ZM214.65 8.21531L218.525 8.07712L222.648 19.4532L225.694 7.82142L229.221 7.69564L224.52 23.7541L220.738 23.889L214.65 8.21531ZM233.731 7.53482L237.721 7.39249L244.019 23.0587L240.144 23.1969L238.679 19.2532L233.528 19.4369L232.44 23.4716L228.983 23.5949L233.731 7.53482ZM237.704 16.6627L235.775 11.4346L235.728 11.4363L234.27 16.7852L237.704 16.6627ZM13.4388 47.0349L8.51984 47.2104L8.42633 44.5885L22.0463 44.1027L21.8613 46.7345L17.0584 46.9058L17.5309 60.1545L13.9113 60.2836L13.4388 47.0349ZM30.6612 60.0115C28.3719 60.0932 26.6908 59.642 25.618 58.658C25.0733 58.1509 24.6646 57.5459 24.3917 56.8432C24.1183 56.125 23.9617 55.2091 23.922 54.0953L23.5637 44.0486L27.1601 43.9203L27.5184 53.9671C27.5405 54.5858 27.6134 55.1098 27.7371 55.5391C27.8757 55.9523 28.0892 56.2932 28.3776 56.5617C28.8908 57.0545 29.6733 57.2821 30.7252 57.2446C31.777 57.2071 32.5339 56.9323 32.9957 56.4202C33.2642 56.1318 33.4452 55.7769 33.5386 55.3554C33.6474 54.9333 33.6905 54.4052 33.6679 53.771L33.3088 43.7011L36.5107 43.5869L36.8633 53.4712C36.9013 54.5385 36.8107 55.471 36.5913 56.2687C36.3869 57.0504 36.0156 57.7142 35.4775 58.26C34.9692 58.7737 34.2947 59.185 33.4538 59.4937C32.613 59.8025 31.6821 59.9751 30.6612 60.0115ZM52.1456 59.2453C50.7689 59.2944 49.611 59.1808 48.6718 58.9045C47.7321 58.6128 46.9491 58.1529 46.3226 57.5247C45.6321 56.8369 45.114 55.988 44.7682 54.9781C44.4219 53.9528 44.2236 52.7363 44.1734 51.3287C44.0807 48.73 44.6346 46.6735 45.8352 45.1594C47.0357 43.6452 48.9431 42.8415 51.5572 42.7482C52.2378 42.724 52.9751 42.7674 53.7689 42.8784C54.5628 42.9895 55.2185 43.1365 55.7361 43.3194L55.3664 45.981C54.0384 45.6567 52.8948 45.5116 51.9358 45.5458C50.3425 45.6026 49.2608 46.1059 48.6907 47.0555C48.1205 48.0051 47.8666 49.3539 47.9289 51.1018C48.0017 53.1436 48.4323 54.5764 49.2206 55.4001C49.5907 55.7896 50.0498 56.0675 50.5978 56.2339C51.1452 56.3847 51.8598 56.4444 52.7415 56.413C53.1282 56.3992 53.5912 56.3517 54.1304 56.2705C54.685 56.1888 55.1927 56.0932 55.6535 55.9839L56.119 58.6157C55.6445 58.772 55.0221 58.9104 54.252 59.0308C53.4974 59.1506 52.7952 59.2221 52.1456 59.2453ZM57.992 42.8208L68.7116 42.4385L68.5267 45.0703L61.7051 45.3136L61.8425 49.1652L67.2951 48.9707L67.3919 51.6854L61.9393 51.8799L62.0841 55.9404L69.3001 55.683L69.3936 58.3049L58.558 58.6914L57.992 42.8208ZM71.2873 42.3466L74.9069 42.2175L75.3794 55.4662L82.4098 55.2155L82.5033 57.8374L71.8533 58.2172L71.2873 42.3466ZM88.5473 41.731L97.6427 41.4067L97.5151 43.0375L90.6703 43.2816L90.8623 48.6646L96.4077 48.4668L96.4673 50.1374L90.9218 50.3352L91.1204 55.9038L98.29 55.6481L98.348 57.2723L89.1133 57.6016L88.5473 41.731ZM105.187 57.3536C104.429 57.3807 103.63 57.3395 102.79 57.23C101.965 57.1201 101.254 56.9595 100.658 56.7485L100.95 55.1583C102.419 55.5241 103.749 55.6857 104.94 55.6433C106.193 55.5986 107.12 55.3254 107.722 54.8239C108.278 54.3549 108.542 53.7027 108.512 52.8674C108.491 52.2951 108.312 51.8214 107.973 51.4462C107.65 51.0706 107.244 50.7675 106.756 50.5371C106.283 50.3062 105.631 50.0506 104.8 49.7705C103.813 49.4495 103.012 49.1373 102.397 48.834C101.782 48.5152 101.247 48.0696 100.793 47.4973C100.354 46.9244 100.119 46.1816 100.086 45.269C100.037 43.8923 100.471 42.8236 101.389 42.0629C102.307 41.3023 103.578 40.893 105.202 40.8351C105.882 40.8108 106.565 40.8407 107.249 40.9247C107.934 41.0087 108.558 41.1336 109.121 41.2993L108.876 42.8878C107.674 42.621 106.524 42.5071 105.425 42.5463C103.105 42.629 101.974 43.467 102.03 45.0603C102.049 45.5707 102.211 45.9986 102.518 46.3439C102.84 46.6886 103.229 46.969 103.686 47.185C104.158 47.4005 104.794 47.6489 105.594 47.9301C106.614 48.281 107.439 48.6155 108.069 48.9337C108.716 49.2514 109.267 49.7119 109.722 50.3152C110.192 50.9025 110.443 51.6602 110.477 52.5883C110.525 53.9495 110.146 55.0394 109.339 55.8581C108.427 56.7889 107.043 57.2874 105.187 57.3536ZM115.87 42.3829L110.812 42.5632L110.754 40.9391L123.028 40.5013L122.901 42.1321L117.935 42.3092L118.443 56.5556L116.378 56.6293L115.87 42.3829ZM125.148 40.4257L134.243 40.1014L134.115 41.7322L127.271 41.9763L127.463 47.3593L133.008 47.1615L133.068 48.8321L127.522 49.0299L127.721 54.5985L134.89 54.3428L134.948 55.967L125.714 56.2963L125.148 40.4257ZM140.098 39.8925L143.973 39.7543L148.096 51.1304L151.143 39.4987L154.67 39.3729L149.969 55.4313L146.187 55.5662L140.098 39.8925ZM156.441 39.3097L167.161 38.9274L166.976 41.5592L160.154 41.8025L160.291 45.6541L165.744 45.4597L165.841 48.1744L160.388 48.3688L160.533 52.4293L167.749 52.172L167.843 54.7939L157.007 55.1803L156.441 39.3097ZM169.736 38.8355L175.189 38.6411C176.504 38.5942 177.559 38.6495 178.354 38.807C179.15 38.9645 179.811 39.2739 180.339 39.7352C181.25 40.539 181.735 41.7376 181.791 43.3308C181.831 44.4291 181.633 45.3964 181.198 46.2328C180.778 47.0531 180.135 47.6878 179.268 48.1369L182.924 54.256L178.841 54.4016L175.712 48.7516L173.717 48.8228L173.922 54.577L170.302 54.7061L169.736 38.8355ZM175.224 46.1438C175.827 46.1223 176.305 46.0665 176.658 45.9765C177.011 45.871 177.3 45.7136 177.524 45.5042C177.959 45.1015 178.16 44.4361 178.127 43.508C178.098 42.7036 177.892 42.1224 177.507 41.7644C177.283 41.5556 176.976 41.4194 176.587 41.3559C176.197 41.2768 175.692 41.2484 175.073 41.2704L173.449 41.3283L173.623 46.2009L175.224 46.1438ZM188.262 38.1748L192.253 38.0325L198.55 53.6987L194.675 53.8369L193.21 49.8932L188.059 50.0769L186.972 54.1116L183.515 54.2349L188.262 38.1748ZM192.235 47.3028L190.306 42.0746L190.26 42.0763L188.801 47.4252L192.235 47.3028ZM199.59 37.7709L202.258 37.6757L210.138 47.5703L209.776 37.4076L212.954 37.2942L213.52 53.1648L210.62 53.2682L202.991 43.899L203.334 53.5281L200.156 53.6414L199.59 37.7709ZM223.083 53.149C220.685 53.2345 218.89 52.6093 217.696 51.2735C216.501 49.9222 215.856 47.8853 215.759 45.1628C215.662 42.4404 216.161 40.3627 217.256 38.9297C218.366 37.4962 220.112 36.7369 222.495 36.652C224.877 36.567 226.665 37.2002 227.859 38.5515C229.069 39.9023 229.722 41.9389 229.819 44.6614C229.917 47.3838 229.418 49.4615 228.323 50.8945C227.227 52.312 225.48 53.0635 223.083 53.149ZM222.982 50.3183C224.158 50.2764 224.978 49.8289 225.443 48.976C225.923 48.107 226.129 46.7135 226.061 44.7954C225.992 42.8773 225.688 41.502 225.147 40.6695C224.606 39.8369 223.756 39.4413 222.595 39.4827C221.435 39.5241 220.615 39.9792 220.135 40.8482C219.655 41.7172 219.449 43.1107 219.518 45.0288C219.586 46.9469 219.883 48.3224 220.408 49.1556C220.948 49.9726 221.806 50.3602 222.982 50.3183ZM231.932 36.6174L235.413 36.4933L235.291 47.4167L232.832 47.5044L231.932 36.6174ZM234.227 52.7516C233.654 52.772 233.225 52.6634 232.937 52.4259C232.65 52.1883 232.496 51.7833 232.476 51.211L232.466 50.9326C232.446 50.3602 232.57 49.9454 232.84 49.6879C233.109 49.4305 233.53 49.2916 234.103 49.2712L234.265 49.2654C234.837 49.245 235.267 49.3536 235.554 49.5911C235.842 49.8287 235.996 50.2336 236.016 50.806L236.026 51.0844C236.046 51.6567 235.922 52.0716 235.652 52.329C235.383 52.5865 234.962 52.7254 234.389 52.7458L234.227 52.7516Z" fill="white"/>
<path d="M3.12811 19.9408C3.70044 19.9204 4.13023 20.0289 4.41749 20.2665C4.70475 20.5041 4.85858 20.909 4.87899 21.4813L4.88892 21.7598C4.90934 22.3321 4.78474 22.747 4.51513 23.0044C4.24553 23.2618 3.82456 23.4007 3.25223 23.4212L3.08981 23.4269C2.51748 23.4474 2.08769 23.3388 1.80043 23.1012C1.51317 22.8637 1.35934 22.4587 1.33892 21.8864L1.32899 21.6079C1.30858 21.0356 1.43318 20.6207 1.70278 20.3633C1.97239 20.1059 2.39336 19.967 2.96569 19.9466L3.12811 19.9408ZM5.42269 36.075L1.9423 36.1991L2.06383 25.2756L4.52331 25.1879L5.42269 36.075ZM15.3446 31.5393C13.9679 31.5884 12.81 31.4748 11.8708 31.1986C10.9312 30.9068 10.1481 30.4469 9.52165 29.8187C8.83114 29.1309 8.31299 28.282 7.96721 27.2722C7.62088 26.2468 7.42261 25.0303 7.37241 23.6227C7.27973 21.024 7.83366 18.9676 9.03419 17.4534C10.2347 15.9392 12.1421 15.1355 14.7562 15.0423C15.4368 15.018 16.1741 15.0614 16.9679 15.1725C17.7618 15.2836 18.4175 15.4305 18.9352 15.6134L18.5654 18.2751C17.2374 17.9507 16.0938 17.8056 15.1348 17.8398C13.5415 17.8967 12.4598 18.3999 11.8897 19.3495C11.3195 20.2991 11.0656 21.6479 11.1279 23.3958C11.2007 25.4377 11.6313 26.8704 12.4196 27.6942C12.7897 28.0837 13.2488 28.3616 13.7968 28.5279C14.3443 28.6787 15.0588 28.7384 15.9405 28.707C16.3272 28.6932 16.7902 28.6457 17.3294 28.5645C17.884 28.4828 18.3917 28.3872 18.8525 28.2779L19.3181 30.9097C18.8435 31.0661 18.2212 31.2044 17.4511 31.3248C16.6964 31.4446 15.9943 31.5162 15.3446 31.5393ZM25.4699 14.9622L29.4608 14.8199L35.7578 30.4861L31.883 30.6242L30.4181 26.6806L25.2671 26.8643L24.1797 30.899L20.7225 31.0223L25.4699 14.9622ZM29.4429 24.0901L27.514 18.862L27.4676 18.8636L26.0089 24.2126L29.4429 24.0901ZM24.4517 11.8157L28.5571 7.71982L30.2599 9.86615L25.6631 13.2129L24.4517 11.8157ZM36.7975 14.5582L39.6514 14.4564L44.9793 23.1411L49.8374 14.0931L52.6217 13.9939L53.1877 29.8644L49.8697 29.9828L49.5437 20.8409L46.4459 26.4807L43.6616 26.58L40.0737 21.0857L40.4031 30.3204L37.3635 30.4288L36.7975 14.5582ZM55.8255 13.8796L60.9997 13.6951C62.1134 13.6553 63.0373 13.7231 63.7715 13.8982C64.5206 14.0574 65.1344 14.3297 65.6128 14.7154C66.3784 15.3386 66.7819 16.2302 66.8233 17.3904C66.852 18.1947 66.6909 18.8897 66.3401 19.4753C65.9887 20.0454 65.4484 20.5293 64.7192 20.927C65.7296 21.0304 66.5566 21.419 67.2001 22.093C67.8431 22.7516 68.1828 23.5913 68.2192 24.6122C68.2722 26.0972 67.8719 27.2499 67.0183 28.0702C66.5239 28.537 65.8783 28.893 65.0817 29.1382C64.2845 29.368 63.2672 29.505 62.0297 29.5491L56.3915 29.7502L55.8255 13.8796ZM60.8999 20.0178C61.4104 19.9996 61.8114 19.9543 62.1031 19.8819C62.4097 19.7935 62.6525 19.6532 62.8315 19.461C63.1299 19.1406 63.2677 18.6633 63.2451 18.0291C63.2241 17.4413 63.0615 17.0057 62.7571 16.7223C62.5809 16.5582 62.3447 16.4504 62.0486 16.399C61.7519 16.3322 61.3561 16.3076 60.8611 16.3252L59.5386 16.3724L59.6702 20.0616L60.8999 20.0178ZM61.4025 26.9462C62.0986 26.9214 62.6541 26.8629 63.069 26.7706C63.4833 26.6629 63.7949 26.4969 64.0038 26.2727C64.3319 25.9202 64.485 25.4346 64.4629 24.8159C64.4331 23.9806 64.2111 23.4 63.7967 23.074C63.5575 22.8812 63.2432 22.753 62.8537 22.6895C62.4643 22.6259 61.9292 22.6063 61.2486 22.6306L59.7637 22.6835L59.9176 26.9992L61.4025 26.9462ZM70.2774 13.3642L73.8971 13.2351L74.4631 29.1057L70.8434 29.2348L70.2774 13.3642ZM80.849 12.9872L84.8398 12.8448L91.1369 28.511L87.262 28.6492L85.7971 24.7055L80.6462 24.8892L79.5588 28.9239L76.1016 29.0472L80.849 12.9872ZM84.8219 22.1151L82.8931 16.887L82.8467 16.8886L81.3879 22.2376L84.8219 22.1151ZM94.6412 15.1205L89.7223 15.2959L89.6288 12.674L103.249 12.1883L103.064 14.8201L98.2609 14.9914L98.7334 28.2401L95.1137 28.3692L94.6412 15.1205ZM104.905 12.1292L115.625 11.7469L115.44 14.3787L108.618 14.622L108.756 18.4737L114.208 18.2792L114.305 20.9939L108.853 21.1884L108.997 25.2488L116.213 24.9915L116.307 27.6134L105.471 27.9998L104.905 12.1292ZM129.199 27.4789C126.956 27.5588 125.313 26.874 124.27 25.4243C123.227 23.9747 122.66 21.9892 122.57 19.4678C122.481 16.9465 122.904 14.9257 123.841 13.4054C124.778 11.8697 126.367 11.0618 128.61 10.9818C130.853 10.9018 132.496 11.5944 133.54 13.0595C134.583 14.5092 135.149 16.4947 135.239 19.016C135.329 21.5374 134.905 23.5582 133.968 25.0785C133.031 26.5987 131.441 27.3989 129.199 27.4789ZM129.135 25.6923C130.682 25.6371 131.745 25.0493 132.324 23.929C132.904 22.8087 133.156 21.1967 133.081 19.093C133.006 16.9893 132.64 15.3993 131.982 14.3231C131.323 13.2315 130.221 12.7132 128.674 12.7684C127.127 12.8236 126.064 13.419 125.485 14.5548C124.906 15.6752 124.653 17.2872 124.728 19.3909C124.803 21.4946 125.17 23.0845 125.828 24.1607C126.486 25.2369 127.588 25.7474 129.135 25.6923ZM142.248 10.7974L147.701 10.603C149.015 10.5561 150.071 10.6114 150.866 10.7689C151.662 10.9264 152.323 11.2358 152.851 11.6971C153.762 12.5009 154.246 13.6995 154.303 15.2927C154.342 16.391 154.144 17.3583 153.71 18.1947C153.29 19.015 152.646 19.6497 151.78 20.0988L155.436 26.2179L151.353 26.3635L148.224 20.7135L146.228 20.7847L146.434 26.5389L142.814 26.668L142.248 10.7974ZM147.736 18.1057C148.339 18.0842 148.817 18.0284 149.17 17.9384C149.523 17.8329 149.811 17.6754 150.036 17.4661C150.471 17.0634 150.672 16.398 150.639 15.4699C150.61 14.6655 150.404 14.0843 150.019 13.7263C149.795 13.5175 149.488 13.3813 149.098 13.3177C148.708 13.2387 148.204 13.2103 147.585 13.2323L145.961 13.2902L146.135 18.1628L147.736 18.1057ZM157.061 10.2691L167.781 9.88683L167.596 12.5187L160.775 12.7619L160.912 16.6136L166.364 16.4191L166.461 19.1338L161.009 19.3283L161.153 23.3887L168.37 23.1314L168.463 25.7533L157.627 26.1397L157.061 10.2691ZM170.357 9.79497L173.025 9.69981L180.905 19.5945L180.543 9.4317L183.721 9.31834L184.287 25.1889L181.387 25.2924L173.758 15.9231L174.101 25.5522L170.923 25.6656L170.357 9.79497ZM193.873 25.1723C191.584 25.254 189.903 24.8028 188.83 23.8189C188.285 23.3117 187.876 22.7067 187.604 22.004C187.33 21.2858 187.174 20.3699 187.134 19.2561L186.776 9.20941L190.372 9.08115L190.73 19.1279C190.752 19.7466 190.825 20.2706 190.949 20.6999C191.088 21.1131 191.301 21.454 191.59 21.7225C192.103 22.2153 192.885 22.4429 193.937 22.4054C194.989 22.3679 195.746 22.0931 196.208 21.581C196.476 21.2926 196.657 20.9377 196.75 20.5162C196.859 20.0941 196.902 19.566 196.88 18.9318L196.521 8.86187L199.723 8.74767L200.075 18.632C200.113 19.6993 200.023 20.6318 199.803 21.4295C199.599 22.2112 199.228 22.875 198.689 23.4208C198.181 23.9345 197.507 24.3458 196.666 24.6545C195.825 24.9633 194.894 25.1359 193.873 25.1723ZM202.793 8.63816L213.513 8.25586L213.328 10.8877L206.506 11.131L206.644 14.9826L212.096 14.7881L212.193 17.5029L206.741 17.6973L206.885 21.7578L214.101 21.5004L214.195 24.1223L203.359 24.5088L202.793 8.63816ZM214.65 8.21531L218.525 8.07712L222.648 19.4532L225.694 7.82142L229.221 7.69564L224.52 23.7541L220.738 23.889L214.65 8.21531ZM233.731 7.53482L237.721 7.39249L244.019 23.0587L240.144 23.1969L238.679 19.2532L233.528 19.4369L232.44 23.4716L228.983 23.5949L233.731 7.53482ZM237.704 16.6627L235.775 11.4346L235.728 11.4363L234.27 16.7852L237.704 16.6627ZM13.4388 47.0349L8.51984 47.2104L8.42633 44.5885L22.0463 44.1027L21.8613 46.7345L17.0584 46.9058L17.5309 60.1545L13.9113 60.2836L13.4388 47.0349ZM30.6612 60.0115C28.3719 60.0932 26.6908 59.642 25.618 58.658C25.0733 58.1509 24.6646 57.5459 24.3917 56.8432C24.1183 56.125 23.9617 55.2091 23.922 54.0953L23.5637 44.0486L27.1601 43.9203L27.5184 53.9671C27.5405 54.5858 27.6134 55.1098 27.7371 55.5391C27.8757 55.9523 28.0892 56.2932 28.3776 56.5617C28.8908 57.0545 29.6733 57.2821 30.7252 57.2446C31.777 57.2071 32.5339 56.9323 32.9957 56.4202C33.2642 56.1318 33.4452 55.7769 33.5386 55.3554C33.6474 54.9333 33.6905 54.4052 33.6679 53.771L33.3088 43.7011L36.5107 43.5869L36.8633 53.4712C36.9013 54.5385 36.8107 55.471 36.5913 56.2687C36.3869 57.0504 36.0156 57.7142 35.4775 58.26C34.9692 58.7737 34.2947 59.185 33.4538 59.4937C32.613 59.8025 31.6821 59.9751 30.6612 60.0115ZM52.1456 59.2453C50.7689 59.2944 49.611 59.1808 48.6718 58.9045C47.7321 58.6128 46.9491 58.1529 46.3226 57.5247C45.6321 56.8369 45.114 55.988 44.7682 54.9781C44.4219 53.9528 44.2236 52.7363 44.1734 51.3287C44.0807 48.73 44.6346 46.6735 45.8352 45.1594C47.0357 43.6452 48.9431 42.8415 51.5572 42.7482C52.2378 42.724 52.9751 42.7674 53.7689 42.8784C54.5628 42.9895 55.2185 43.1365 55.7361 43.3194L55.3664 45.981C54.0384 45.6567 52.8948 45.5116 51.9358 45.5458C50.3425 45.6026 49.2608 46.1059 48.6907 47.0555C48.1205 48.0051 47.8666 49.3539 47.9289 51.1018C48.0017 53.1436 48.4323 54.5764 49.2206 55.4001C49.5907 55.7896 50.0498 56.0675 50.5978 56.2339C51.1452 56.3847 51.8598 56.4444 52.7415 56.413C53.1282 56.3992 53.5912 56.3517 54.1304 56.2705C54.685 56.1888 55.1927 56.0932 55.6535 55.9839L56.119 58.6157C55.6445 58.772 55.0221 58.9104 54.252 59.0308C53.4974 59.1506 52.7952 59.2221 52.1456 59.2453ZM57.992 42.8208L68.7116 42.4385L68.5267 45.0703L61.7051 45.3136L61.8425 49.1652L67.2951 48.9707L67.3919 51.6854L61.9393 51.8799L62.0841 55.9404L69.3001 55.683L69.3936 58.3049L58.558 58.6914L57.992 42.8208ZM71.2873 42.3466L74.9069 42.2175L75.3794 55.4662L82.4098 55.2155L82.5033 57.8374L71.8533 58.2172L71.2873 42.3466ZM88.5473 41.731L97.6427 41.4067L97.5151 43.0375L90.6703 43.2816L90.8623 48.6646L96.4077 48.4668L96.4673 50.1374L90.9218 50.3352L91.1204 55.9038L98.29 55.6481L98.348 57.2723L89.1133 57.6016L88.5473 41.731ZM105.187 57.3536C104.429 57.3807 103.63 57.3395 102.79 57.23C101.965 57.1201 101.254 56.9595 100.658 56.7485L100.95 55.1583C102.419 55.5241 103.749 55.6857 104.94 55.6433C106.193 55.5986 107.12 55.3254 107.722 54.8239C108.278 54.3549 108.542 53.7027 108.512 52.8674C108.491 52.2951 108.312 51.8214 107.973 51.4462C107.65 51.0706 107.244 50.7675 106.756 50.5371C106.283 50.3062 105.631 50.0506 104.8 49.7705C103.813 49.4495 103.012 49.1373 102.397 48.834C101.782 48.5152 101.247 48.0696 100.793 47.4973C100.354 46.9244 100.119 46.1816 100.086 45.269C100.037 43.8923 100.471 42.8236 101.389 42.0629C102.307 41.3023 103.578 40.893 105.202 40.8351C105.882 40.8108 106.565 40.8407 107.249 40.9247C107.934 41.0087 108.558 41.1336 109.121 41.2993L108.876 42.8878C107.674 42.621 106.524 42.5071 105.425 42.5463C103.105 42.629 101.974 43.467 102.03 45.0603C102.049 45.5707 102.211 45.9986 102.518 46.3439C102.84 46.6886 103.229 46.969 103.686 47.185C104.158 47.4005 104.794 47.6489 105.594 47.9301C106.614 48.281 107.439 48.6155 108.069 48.9337C108.716 49.2514 109.267 49.7119 109.722 50.3152C110.192 50.9025 110.443 51.6602 110.477 52.5883C110.525 53.9495 110.146 55.0394 109.339 55.8581C108.427 56.7889 107.043 57.2874 105.187 57.3536ZM115.87 42.3829L110.812 42.5632L110.754 40.9391L123.028 40.5013L122.901 42.1321L117.935 42.3092L118.443 56.5556L116.378 56.6293L115.87 42.3829ZM125.148 40.4257L134.243 40.1014L134.115 41.7322L127.271 41.9763L127.463 47.3593L133.008 47.1615L133.068 48.8321L127.522 49.0299L127.721 54.5985L134.89 54.3428L134.948 55.967L125.714 56.2963L125.148 40.4257ZM140.098 39.8925L143.973 39.7543L148.096 51.1304L151.143 39.4987L154.67 39.3729L149.969 55.4313L146.187 55.5662L140.098 39.8925ZM156.441 39.3097L167.161 38.9274L166.976 41.5592L160.154 41.8025L160.291 45.6541L165.744 45.4597L165.841 48.1744L160.388 48.3688L160.533 52.4293L167.749 52.172L167.843 54.7939L157.007 55.1803L156.441 39.3097ZM169.736 38.8355L175.189 38.6411C176.504 38.5942 177.559 38.6495 178.354 38.807C179.15 38.9645 179.811 39.2739 180.339 39.7352C181.25 40.539 181.735 41.7376 181.791 43.3308C181.831 44.4291 181.633 45.3964 181.198 46.2328C180.778 47.0531 180.135 47.6878 179.268 48.1369L182.924 54.256L178.841 54.4016L175.712 48.7516L173.717 48.8228L173.922 54.577L170.302 54.7061L169.736 38.8355ZM175.224 46.1438C175.827 46.1223 176.305 46.0665 176.658 45.9765C177.011 45.871 177.3 45.7136 177.524 45.5042C177.959 45.1015 178.16 44.4361 178.127 43.508C178.098 42.7036 177.892 42.1224 177.507 41.7644C177.283 41.5556 176.976 41.4194 176.587 41.3559C176.197 41.2768 175.692 41.2484 175.073 41.2704L173.449 41.3283L173.623 46.2009L175.224 46.1438ZM188.262 38.1748L192.253 38.0325L198.55 53.6987L194.675 53.8369L193.21 49.8932L188.059 50.0769L186.972 54.1116L183.515 54.2349L188.262 38.1748ZM192.235 47.3028L190.306 42.0746L190.26 42.0763L188.801 47.4252L192.235 47.3028ZM199.59 37.7709L202.258 37.6757L210.138 47.5703L209.776 37.4076L212.954 37.2942L213.52 53.1648L210.62 53.2682L202.991 43.899L203.334 53.5281L200.156 53.6414L199.59 37.7709ZM223.083 53.149C220.685 53.2345 218.89 52.6093 217.696 51.2735C216.501 49.9222 215.856 47.8853 215.759 45.1628C215.662 42.4404 216.161 40.3627 217.256 38.9297C218.366 37.4962 220.112 36.7369 222.495 36.652C224.877 36.567 226.665 37.2002 227.859 38.5515C229.069 39.9023 229.722 41.9389 229.819 44.6614C229.917 47.3838 229.418 49.4615 228.323 50.8945C227.227 52.312 225.48 53.0635 223.083 53.149ZM222.982 50.3183C224.158 50.2764 224.978 49.8289 225.443 48.976C225.923 48.107 226.129 46.7135 226.061 44.7954C225.992 42.8773 225.688 41.502 225.147 40.6695C224.606 39.8369 223.756 39.4413 222.595 39.4827C221.435 39.5241 220.615 39.9792 220.135 40.8482C219.655 41.7172 219.449 43.1107 219.518 45.0288C219.586 46.9469 219.883 48.3224 220.408 49.1556C220.948 49.9726 221.806 50.3602 222.982 50.3183ZM231.932 36.6174L235.413 36.4933L235.291 47.4167L232.832 47.5044L231.932 36.6174ZM234.227 52.7516C233.654 52.772 233.225 52.6634 232.937 52.4259C232.65 52.1883 232.496 51.7833 232.476 51.211L232.466 50.9326C232.446 50.3602 232.57 49.9454 232.84 49.6879C233.109 49.4305 233.53 49.2916 234.103 49.2712L234.265 49.2654C234.837 49.245 235.267 49.3536 235.554 49.5911C235.842 49.8287 235.996 50.2336 236.016 50.806L236.026 51.0844C236.046 51.6567 235.922 52.0716 235.652 52.329C235.383 52.5865 234.962 52.7254 234.389 52.7458L234.227 52.7516Z" fill="white"/>
<path d="M3.12811 19.9408C3.70044 19.9204 4.13023 20.0289 4.41749 20.2665C4.70475 20.5041 4.85858 20.909 4.87899 21.4813L4.88892 21.7598C4.90934 22.3321 4.78474 22.747 4.51513 23.0044C4.24553 23.2618 3.82456 23.4007 3.25223 23.4212L3.08981 23.4269C2.51748 23.4474 2.08769 23.3388 1.80043 23.1012C1.51317 22.8637 1.35934 22.4587 1.33892 21.8864L1.32899 21.6079C1.30858 21.0356 1.43318 20.6207 1.70278 20.3633C1.97239 20.1059 2.39336 19.967 2.96569 19.9466L3.12811 19.9408ZM5.42269 36.075L1.9423 36.1991L2.06383 25.2756L4.52331 25.1879L5.42269 36.075ZM15.3446 31.5393C13.9679 31.5884 12.81 31.4748 11.8708 31.1986C10.9312 30.9068 10.1481 30.4469 9.52165 29.8187C8.83114 29.1309 8.31299 28.282 7.96721 27.2722C7.62088 26.2468 7.42261 25.0303 7.37241 23.6227C7.27973 21.024 7.83366 18.9676 9.03419 17.4534C10.2347 15.9392 12.1421 15.1355 14.7562 15.0423C15.4368 15.018 16.1741 15.0614 16.9679 15.1725C17.7618 15.2836 18.4175 15.4305 18.9352 15.6134L18.5654 18.2751C17.2374 17.9507 16.0938 17.8056 15.1348 17.8398C13.5415 17.8967 12.4598 18.3999 11.8897 19.3495C11.3195 20.2991 11.0656 21.6479 11.1279 23.3958C11.2007 25.4377 11.6313 26.8704 12.4196 27.6942C12.7897 28.0837 13.2488 28.3616 13.7968 28.5279C14.3443 28.6787 15.0588 28.7384 15.9405 28.707C16.3272 28.6932 16.7902 28.6457 17.3294 28.5645C17.884 28.4828 18.3917 28.3872 18.8525 28.2779L19.3181 30.9097C18.8435 31.0661 18.2212 31.2044 17.4511 31.3248C16.6964 31.4446 15.9943 31.5162 15.3446 31.5393ZM25.4699 14.9622L29.4608 14.8199L35.7578 30.4861L31.883 30.6242L30.4181 26.6806L25.2671 26.8643L24.1797 30.899L20.7225 31.0223L25.4699 14.9622ZM29.4429 24.0901L27.514 18.862L27.4676 18.8636L26.0089 24.2126L29.4429 24.0901ZM24.4517 11.8157L28.5571 7.71982L30.2599 9.86615L25.6631 13.2129L24.4517 11.8157ZM36.7975 14.5582L39.6514 14.4564L44.9793 23.1411L49.8374 14.0931L52.6217 13.9939L53.1877 29.8644L49.8697 29.9828L49.5437 20.8409L46.4459 26.4807L43.6616 26.58L40.0737 21.0857L40.4031 30.3204L37.3635 30.4288L36.7975 14.5582ZM55.8255 13.8796L60.9997 13.6951C62.1134 13.6553 63.0373 13.7231 63.7715 13.8982C64.5206 14.0574 65.1344 14.3297 65.6128 14.7154C66.3784 15.3386 66.7819 16.2302 66.8233 17.3904C66.852 18.1947 66.6909 18.8897 66.3401 19.4753C65.9887 20.0454 65.4484 20.5293 64.7192 20.927C65.7296 21.0304 66.5566 21.419 67.2001 22.093C67.8431 22.7516 68.1828 23.5913 68.2192 24.6122C68.2722 26.0972 67.8719 27.2499 67.0183 28.0702C66.5239 28.537 65.8783 28.893 65.0817 29.1382C64.2845 29.368 63.2672 29.505 62.0297 29.5491L56.3915 29.7502L55.8255 13.8796ZM60.8999 20.0178C61.4104 19.9996 61.8114 19.9543 62.1031 19.8819C62.4097 19.7935 62.6525 19.6532 62.8315 19.461C63.1299 19.1406 63.2677 18.6633 63.2451 18.0291C63.2241 17.4413 63.0615 17.0057 62.7571 16.7223C62.5809 16.5582 62.3447 16.4504 62.0486 16.399C61.7519 16.3322 61.3561 16.3076 60.8611 16.3252L59.5386 16.3724L59.6702 20.0616L60.8999 20.0178ZM61.4025 26.9462C62.0986 26.9214 62.6541 26.8629 63.069 26.7706C63.4833 26.6629 63.7949 26.4969 64.0038 26.2727C64.3319 25.9202 64.485 25.4346 64.4629 24.8159C64.4331 23.9806 64.2111 23.4 63.7967 23.074C63.5575 22.8812 63.2432 22.753 62.8537 22.6895C62.4643 22.6259 61.9292 22.6063 61.2486 22.6306L59.7637 22.6835L59.9176 26.9992L61.4025 26.9462ZM70.2774 13.3642L73.8971 13.2351L74.4631 29.1057L70.8434 29.2348L70.2774 13.3642ZM80.849 12.9872L84.8398 12.8448L91.1369 28.511L87.262 28.6492L85.7971 24.7055L80.6462 24.8892L79.5588 28.9239L76.1016 29.0472L80.849 12.9872ZM84.8219 22.1151L82.8931 16.887L82.8467 16.8886L81.3879 22.2376L84.8219 22.1151ZM94.6412 15.1205L89.7223 15.2959L89.6288 12.674L103.249 12.1883L103.064 14.8201L98.2609 14.9914L98.7334 28.2401L95.1137 28.3692L94.6412 15.1205ZM104.905 12.1292L115.625 11.7469L115.44 14.3787L108.618 14.622L108.756 18.4737L114.208 18.2792L114.305 20.9939L108.853 21.1884L108.997 25.2488L116.213 24.9915L116.307 27.6134L105.471 27.9998L104.905 12.1292ZM129.199 27.4789C126.956 27.5588 125.313 26.874 124.27 25.4243C123.227 23.9747 122.66 21.9892 122.57 19.4678C122.481 16.9465 122.904 14.9257 123.841 13.4054C124.778 11.8697 126.367 11.0618 128.61 10.9818C130.853 10.9018 132.496 11.5944 133.54 13.0595C134.583 14.5092 135.149 16.4947 135.239 19.016C135.329 21.5374 134.905 23.5582 133.968 25.0785C133.031 26.5987 131.441 27.3989 129.199 27.4789ZM129.135 25.6923C130.682 25.6371 131.745 25.0493 132.324 23.929C132.904 22.8087 133.156 21.1967 133.081 19.093C133.006 16.9893 132.64 15.3993 131.982 14.3231C131.323 13.2315 130.221 12.7132 128.674 12.7684C127.127 12.8236 126.064 13.419 125.485 14.5548C124.906 15.6752 124.653 17.2872 124.728 19.3909C124.803 21.4946 125.17 23.0845 125.828 24.1607C126.486 25.2369 127.588 25.7474 129.135 25.6923ZM142.248 10.7974L147.701 10.603C149.015 10.5561 150.071 10.6114 150.866 10.7689C151.662 10.9264 152.323 11.2358 152.851 11.6971C153.762 12.5009 154.246 13.6995 154.303 15.2927C154.342 16.391 154.144 17.3583 153.71 18.1947C153.29 19.015 152.646 19.6497 151.78 20.0988L155.436 26.2179L151.353 26.3635L148.224 20.7135L146.228 20.7847L146.434 26.5389L142.814 26.668L142.248 10.7974ZM147.736 18.1057C148.339 18.0842 148.817 18.0284 149.17 17.9384C149.523 17.8329 149.811 17.6754 150.036 17.4661C150.471 17.0634 150.672 16.398 150.639 15.4699C150.61 14.6655 150.404 14.0843 150.019 13.7263C149.795 13.5175 149.488 13.3813 149.098 13.3177C148.708 13.2387 148.204 13.2103 147.585 13.2323L145.961 13.2902L146.135 18.1628L147.736 18.1057ZM157.061 10.2691L167.781 9.88683L167.596 12.5187L160.775 12.7619L160.912 16.6136L166.364 16.4191L166.461 19.1338L161.009 19.3283L161.153 23.3887L168.37 23.1314L168.463 25.7533L157.627 26.1397L157.061 10.2691ZM170.357 9.79497L173.025 9.69981L180.905 19.5945L180.543 9.4317L183.721 9.31834L184.287 25.1889L181.387 25.2924L173.758 15.9231L174.101 25.5522L170.923 25.6656L170.357 9.79497ZM193.873 25.1723C191.584 25.254 189.903 24.8028 188.83 23.8189C188.285 23.3117 187.876 22.7067 187.604 22.004C187.33 21.2858 187.174 20.3699 187.134 19.2561L186.776 9.20941L190.372 9.08115L190.73 19.1279C190.752 19.7466 190.825 20.2706 190.949 20.6999C191.088 21.1131 191.301 21.454 191.59 21.7225C192.103 22.2153 192.885 22.4429 193.937 22.4054C194.989 22.3679 195.746 22.0931 196.208 21.581C196.476 21.2926 196.657 20.9377 196.75 20.5162C196.859 20.0941 196.902 19.566 196.88 18.9318L196.521 8.86187L199.723 8.74767L200.075 18.632C200.113 19.6993 200.023 20.6318 199.803 21.4295C199.599 22.2112 199.228 22.875 198.689 23.4208C198.181 23.9345 197.507 24.3458 196.666 24.6545C195.825 24.9633 194.894 25.1359 193.873 25.1723ZM202.793 8.63816L213.513 8.25586L213.328 10.8877L206.506 11.131L206.644 14.9826L212.096 14.7881L212.193 17.5029L206.741 17.6973L206.885 21.7578L214.101 21.5004L214.195 24.1223L203.359 24.5088L202.793 8.63816ZM214.65 8.21531L218.525 8.07712L222.648 19.4532L225.694 7.82142L229.221 7.69564L224.52 23.7541L220.738 23.889L214.65 8.21531ZM233.731 7.53482L237.721 7.39249L244.019 23.0587L240.144 23.1969L238.679 19.2532L233.528 19.4369L232.44 23.4716L228.983 23.5949L233.731 7.53482ZM237.704 16.6627L235.775 11.4346L235.728 11.4363L234.27 16.7852L237.704 16.6627ZM13.4388 47.0349L8.51984 47.2104L8.42633 44.5885L22.0463 44.1027L21.8613 46.7345L17.0584 46.9058L17.5309 60.1545L13.9113 60.2836L13.4388 47.0349ZM30.6612 60.0115C28.3719 60.0932 26.6908 59.642 25.618 58.658C25.0733 58.1509 24.6646 57.5459 24.3917 56.8432C24.1183 56.125 23.9617 55.2091 23.922 54.0953L23.5637 44.0486L27.1601 43.9203L27.5184 53.9671C27.5405 54.5858 27.6134 55.1098 27.7371 55.5391C27.8757 55.9523 28.0892 56.2932 28.3776 56.5617C28.8908 57.0545 29.6733 57.2821 30.7252 57.2446C31.777 57.2071 32.5339 56.9323 32.9957 56.4202C33.2642 56.1318 33.4452 55.7769 33.5386 55.3554C33.6474 54.9333 33.6905 54.4052 33.6679 53.771L33.3088 43.7011L36.5107 43.5869L36.8633 53.4712C36.9013 54.5385 36.8107 55.471 36.5913 56.2687C36.3869 57.0504 36.0156 57.7142 35.4775 58.26C34.9692 58.7737 34.2947 59.185 33.4538 59.4937C32.613 59.8025 31.6821 59.9751 30.6612 60.0115ZM52.1456 59.2453C50.7689 59.2944 49.611 59.1808 48.6718 58.9045C47.7321 58.6128 46.9491 58.1529 46.3226 57.5247C45.6321 56.8369 45.114 55.988 44.7682 54.9781C44.4219 53.9528 44.2236 52.7363 44.1734 51.3287C44.0807 48.73 44.6346 46.6735 45.8352 45.1594C47.0357 43.6452 48.9431 42.8415 51.5572 42.7482C52.2378 42.724 52.9751 42.7674 53.7689 42.8784C54.5628 42.9895 55.2185 43.1365 55.7361 43.3194L55.3664 45.981C54.0384 45.6567 52.8948 45.5116 51.9358 45.5458C50.3425 45.6026 49.2608 46.1059 48.6907 47.0555C48.1205 48.0051 47.8666 49.3539 47.9289 51.1018C48.0017 53.1436 48.4323 54.5764 49.2206 55.4001C49.5907 55.7896 50.0498 56.0675 50.5978 56.2339C51.1452 56.3847 51.8598 56.4444 52.7415 56.413C53.1282 56.3992 53.5912 56.3517 54.1304 56.2705C54.685 56.1888 55.1927 56.0932 55.6535 55.9839L56.119 58.6157C55.6445 58.772 55.0221 58.9104 54.252 59.0308C53.4974 59.1506 52.7952 59.2221 52.1456 59.2453ZM57.992 42.8208L68.7116 42.4385L68.5267 45.0703L61.7051 45.3136L61.8425 49.1652L67.2951 48.9707L67.3919 51.6854L61.9393 51.8799L62.0841 55.9404L69.3001 55.683L69.3936 58.3049L58.558 58.6914L57.992 42.8208ZM71.2873 42.3466L74.9069 42.2175L75.3794 55.4662L82.4098 55.2155L82.5033 57.8374L71.8533 58.2172L71.2873 42.3466ZM88.5473 41.731L97.6427 41.4067L97.5151 43.0375L90.6703 43.2816L90.8623 48.6646L96.4077 48.4668L96.4673 50.1374L90.9218 50.3352L91.1204 55.9038L98.29 55.6481L98.348 57.2723L89.1133 57.6016L88.5473 41.731ZM105.187 57.3536C104.429 57.3807 103.63 57.3395 102.79 57.23C101.965 57.1201 101.254 56.9595 100.658 56.7485L100.95 55.1583C102.419 55.5241 103.749 55.6857 104.94 55.6433C106.193 55.5986 107.12 55.3254 107.722 54.8239C108.278 54.3549 108.542 53.7027 108.512 52.8674C108.491 52.2951 108.312 51.8214 107.973 51.4462C107.65 51.0706 107.244 50.7675 106.756 50.5371C106.283 50.3062 105.631 50.0506 104.8 49.7705C103.813 49.4495 103.012 49.1373 102.397 48.834C101.782 48.5152 101.247 48.0696 100.793 47.4973C100.354 46.9244 100.119 46.1816 100.086 45.269C100.037 43.8923 100.471 42.8236 101.389 42.0629C102.307 41.3023 103.578 40.893 105.202 40.8351C105.882 40.8108 106.565 40.8407 107.249 40.9247C107.934 41.0087 108.558 41.1336 109.121 41.2993L108.876 42.8878C107.674 42.621 106.524 42.5071 105.425 42.5463C103.105 42.629 101.974 43.467 102.03 45.0603C102.049 45.5707 102.211 45.9986 102.518 46.3439C102.84 46.6886 103.229 46.969 103.686 47.185C104.158 47.4005 104.794 47.6489 105.594 47.9301C106.614 48.281 107.439 48.6155 108.069 48.9337C108.716 49.2514 109.267 49.7119 109.722 50.3152C110.192 50.9025 110.443 51.6602 110.477 52.5883C110.525 53.9495 110.146 55.0394 109.339 55.8581C108.427 56.7889 107.043 57.2874 105.187 57.3536ZM115.87 42.3829L110.812 42.5632L110.754 40.9391L123.028 40.5013L122.901 42.1321L117.935 42.3092L118.443 56.5556L116.378 56.6293L115.87 42.3829ZM125.148 40.4257L134.243 40.1014L134.115 41.7322L127.271 41.9763L127.463 47.3593L133.008 47.1615L133.068 48.8321L127.522 49.0299L127.721 54.5985L134.89 54.3428L134.948 55.967L125.714 56.2963L125.148 40.4257ZM140.098 39.8925L143.973 39.7543L148.096 51.1304L151.143 39.4987L154.67 39.3729L149.969 55.4313L146.187 55.5662L140.098 39.8925ZM156.441 39.3097L167.161 38.9274L166.976 41.5592L160.154 41.8025L160.291 45.6541L165.744 45.4597L165.841 48.1744L160.388 48.3688L160.533 52.4293L167.749 52.172L167.843 54.7939L157.007 55.1803L156.441 39.3097ZM169.736 38.8355L175.189 38.6411C176.504 38.5942 177.559 38.6495 178.354 38.807C179.15 38.9645 179.811 39.2739 180.339 39.7352C181.25 40.539 181.735 41.7376 181.791 43.3308C181.831 44.4291 181.633 45.3964 181.198 46.2328C180.778 47.0531 180.135 47.6878 179.268 48.1369L182.924 54.256L178.841 54.4016L175.712 48.7516L173.717 48.8228L173.922 54.577L170.302 54.7061L169.736 38.8355ZM175.224 46.1438C175.827 46.1223 176.305 46.0665 176.658 45.9765C177.011 45.871 177.3 45.7136 177.524 45.5042C177.959 45.1015 178.16 44.4361 178.127 43.508C178.098 42.7036 177.892 42.1224 177.507 41.7644C177.283 41.5556 176.976 41.4194 176.587 41.3559C176.197 41.2768 175.692 41.2484 175.073 41.2704L173.449 41.3283L173.623 46.2009L175.224 46.1438ZM188.262 38.1748L192.253 38.0325L198.55 53.6987L194.675 53.8369L193.21 49.8932L188.059 50.0769L186.972 54.1116L183.515 54.2349L188.262 38.1748ZM192.235 47.3028L190.306 42.0746L190.26 42.0763L188.801 47.4252L192.235 47.3028ZM199.59 37.7709L202.258 37.6757L210.138 47.5703L209.776 37.4076L212.954 37.2942L213.52 53.1648L210.62 53.2682L202.991 43.899L203.334 53.5281L200.156 53.6414L199.59 37.7709ZM223.083 53.149C220.685 53.2345 218.89 52.6093 217.696 51.2735C216.501 49.9222 215.856 47.8853 215.759 45.1628C215.662 42.4404 216.161 40.3627 217.256 38.9297C218.366 37.4962 220.112 36.7369 222.495 36.652C224.877 36.567 226.665 37.2002 227.859 38.5515C229.069 39.9023 229.722 41.9389 229.819 44.6614C229.917 47.3838 229.418 49.4615 228.323 50.8945C227.227 52.312 225.48 53.0635 223.083 53.149ZM222.982 50.3183C224.158 50.2764 224.978 49.8289 225.443 48.976C225.923 48.107 226.129 46.7135 226.061 44.7954C225.992 42.8773 225.688 41.502 225.147 40.6695C224.606 39.8369 223.756 39.4413 222.595 39.4827C221.435 39.5241 220.615 39.9792 220.135 40.8482C219.655 41.7172 219.449 43.1107 219.518 45.0288C219.586 46.9469 219.883 48.3224 220.408 49.1556C220.948 49.9726 221.806 50.3602 222.982 50.3183ZM231.932 36.6174L235.413 36.4933L235.291 47.4167L232.832 47.5044L231.932 36.6174ZM234.227 52.7516C233.654 52.772 233.225 52.6634 232.937 52.4259C232.65 52.1883 232.496 51.7833 232.476 51.211L232.466 50.9326C232.446 50.3602 232.57 49.9454 232.84 49.6879C233.109 49.4305 233.53 49.2916 234.103 49.2712L234.265 49.2654C234.837 49.245 235.267 49.3536 235.554 49.5911C235.842 49.8287 235.996 50.2336 236.016 50.806L236.026 51.0844C236.046 51.6567 235.922 52.0716 235.652 52.329C235.383 52.5865 234.962 52.7254 234.389 52.7458L234.227 52.7516Z" fill="white"/>
</svg>
