<svg width="450" height="131" viewBox="0 0 450 131" fill="none" xmlns="http://www.w3.org/2000/svg">
<path d="M15.7001 41.9335L15.4133 41.9437C13.4466 42.0139 12.45 42.8289 12.5231 44.8776L12.5406 45.3693C12.6137 47.418 13.6658 48.1599 15.6325 48.0898L15.9193 48.0796C17.8861 48.0094 18.8827 47.1944 18.8096 45.1457L18.7921 44.654C18.719 42.6053 17.6669 41.8633 15.7001 41.9335ZM18.164 51.1996L13.8207 51.3544L13.6061 70.6444L19.7522 70.4252L18.164 51.1996ZM37.2735 62.4156C39.568 62.3338 42.6279 61.8554 44.2903 61.3038L43.4681 56.6562C41.8409 57.0424 39.678 57.3657 38.3259 57.4139C35.1709 57.5264 33.3871 56.9747 32.1082 55.6254C30.6595 54.1181 29.9455 51.3537 29.8272 48.0349C29.6284 42.4624 30.8798 38.4382 36.903 38.2234C38.6649 38.1606 40.7677 38.4548 42.9612 38.992L43.6141 34.2917C41.785 33.6185 38.6519 33.1969 36.2345 33.2831C26.6466 33.6251 22.8825 39.667 23.1952 48.4355C23.3691 53.3114 24.5235 56.9215 26.9906 59.3772C29.1592 61.5152 32.3156 62.5924 37.2735 62.4156ZM55.4951 30.0526L63.6126 24.1425L60.6056 20.3523L53.3558 27.5853L55.4951 30.0526ZM46.7705 61.5025L52.8756 61.2848L54.7959 54.1598L63.8921 53.8354L66.479 60.7997L73.3216 60.5556L62.2015 32.8904L55.154 33.1417L46.7705 61.5025ZM56.1058 49.4772L58.6818 40.0314L58.7637 40.0284L62.17 49.2609L56.1058 49.4772ZM76.1571 60.4545L81.5247 60.2631L80.9431 43.9554L87.279 53.6578L92.1958 53.4824L97.6663 43.5231L98.2421 59.6669L104.101 59.4579L103.102 31.4317L98.185 31.6071L89.606 47.585L80.1974 32.2486L75.1576 32.4283L76.1571 60.4545ZM109.759 59.2561L119.716 58.901C124.059 58.7461 126.779 57.9517 128.525 56.2894C129.993 54.8832 130.742 52.8872 130.646 50.1829C130.514 46.4953 127.965 44.0426 124.465 43.6751C127 42.2719 128.283 40.2979 128.181 37.4297C128.108 35.381 127.353 33.7669 126.043 32.7059C124.353 31.3302 121.871 30.7623 117.897 30.9041L108.759 31.2299L109.759 59.2561ZM115.549 42.1469L115.317 35.632L117.652 35.5487C119.373 35.4874 120.364 35.6572 121 36.2499C121.552 36.7635 121.825 37.5333 121.862 38.5576C121.903 39.7049 121.645 40.5346 121.132 41.0862C120.458 41.7667 119.482 42.0066 117.72 42.0694L115.549 42.1469ZM115.986 54.3981L115.714 46.7769L118.336 46.6834C120.631 46.6016 121.949 46.7597 122.836 47.4665C123.596 48.0549 123.958 49.0265 124.012 50.5426C124.053 51.6898 123.755 52.521 123.202 53.1151C122.451 53.9214 120.985 54.2198 118.608 54.3046L115.986 54.3981ZM135.28 58.3459L141.672 58.118L140.672 30.0918L134.28 30.3198L135.28 58.3459ZM144.565 58.0148L150.67 57.7971L152.591 50.6721L161.687 50.3477L164.274 57.3119L171.116 57.0679L159.996 29.4026L152.949 29.654L144.565 58.0148ZM153.901 45.9894L156.477 36.5436L156.559 36.5407L159.965 45.7732L153.901 45.9894ZM178.139 56.8174L184.531 56.5895L183.697 33.1933L192.179 32.8908L192.505 28.2433L168.453 29.101L168.619 33.7311L177.305 33.4213L178.139 56.8174ZM196.43 56.1651L215.565 55.4827L215.4 50.8526L202.657 51.3071L202.401 44.1366L212.03 43.7932L211.859 38.9993L202.23 39.3427L201.988 32.541L214.034 32.1114L214.361 27.4638L195.431 28.1389L196.43 56.1651ZM238.33 55.2451C246.73 54.9456 249.29 48.4952 248.998 40.3005C248.705 32.1057 245.691 25.8131 237.291 26.1127C228.892 26.4122 226.333 32.9035 226.626 41.0983C226.918 49.2931 229.931 55.5447 238.33 55.2451ZM238.218 52.0901C232.441 52.2962 230.682 47.846 230.436 40.9624C230.191 34.0788 231.627 29.4737 237.404 29.2677C243.181 29.0616 244.941 33.5527 245.187 40.4364C245.432 47.32 243.995 51.8841 238.218 52.0901ZM262.374 53.8133L268.766 53.5853L268.404 43.4238L271.927 43.2981L277.453 53.2755L284.664 53.0183L278.207 42.2126C281.309 40.625 282.799 37.536 282.663 33.7254C282.558 30.7753 281.58 28.6768 280.098 27.3758C278.193 25.7206 275.511 25.283 271.003 25.4437L261.375 25.7871L262.374 53.8133ZM268.239 38.7937L267.932 30.1892L270.8 30.0869C272.89 30.0124 274.25 30.21 275.098 30.9593C275.777 31.5915 276.141 32.6041 276.192 34.0382C276.248 35.5952 275.923 36.8376 275.128 37.5634C274.333 38.2892 273.196 38.6169 271.066 38.6929L268.239 38.7937ZM288.533 52.8803L307.668 52.1979L307.503 47.5679L294.76 48.0223L294.505 40.8519L304.133 40.5085L303.962 35.7145L294.334 36.0579L294.091 29.2563L306.137 28.8266L306.464 24.179L287.534 24.8542L288.533 52.8803ZM312.012 52.043L317.625 51.8428L317.019 34.8386L330.491 51.384L335.613 51.2013L334.613 23.1751L329 23.3753L329.64 41.3219L315.724 23.8488L311.012 24.0168L312.012 52.043ZM352.54 51.172C356.146 51.0434 359.265 49.9065 361.046 48.0789C363.026 46.08 363.62 43.187 363.493 39.6223L362.87 22.1674L357.216 22.369L357.85 40.1517C357.928 42.3234 357.611 43.8116 356.663 44.83C355.835 45.7621 354.497 46.2201 352.653 46.2858C350.81 46.3516 349.4 45.9506 348.508 45.0798C347.489 44.1315 347.067 42.6286 346.991 40.498L346.358 22.7563L340.007 22.9828L340.64 40.7245C340.783 44.7399 341.727 47.0448 343.635 48.7819C345.585 50.5585 348.648 51.3108 352.54 51.172ZM369.292 50.0002L388.427 49.3178L388.262 44.6877L375.519 45.1422L375.263 37.9717L384.892 37.6283L384.721 32.8344L375.092 33.1778L374.85 26.3761L386.896 25.9465L387.223 21.2989L368.293 21.974L369.292 50.0002ZM399.982 48.9057L406.661 48.6675L414.962 20.3096L408.734 20.5317L403.354 41.0725L396.073 20.9832L389.231 21.2273L399.982 48.9057ZM414.542 48.3864L420.647 48.1687L422.567 41.0437L431.664 40.7193L434.251 47.6835L441.093 47.4395L429.973 19.7742L422.926 20.0256L414.542 48.3864ZM423.877 36.361L426.453 26.9152L426.535 26.9123L429.942 36.1448L423.877 36.361ZM34.7348 112.964L41.1268 112.736L40.2924 89.3401L48.774 89.0376L49.1005 84.39L25.0488 85.2478L25.2139 89.8779L33.9004 89.5681L34.7348 112.964ZM64.3138 112.484C67.9195 112.355 71.038 111.218 72.819 109.391C74.799 107.392 75.3933 104.499 75.2661 100.934L74.6436 83.4791L68.9892 83.6807L69.6234 101.463C69.7009 103.635 69.3847 105.123 68.4364 106.142C67.6081 107.074 66.2706 107.532 64.4267 107.598C62.5829 107.663 61.1737 107.262 60.2811 106.392C59.2627 105.443 58.8399 103.94 58.7639 101.81L58.1311 84.068L51.7802 84.2945L52.4129 102.036C52.5561 106.052 53.4999 108.356 55.408 110.094C57.3585 111.87 60.4213 112.622 64.3138 112.484ZM102.253 111.131C104.548 111.049 107.608 110.57 109.27 110.019L108.448 105.371C106.821 105.757 104.658 106.081 103.306 106.129C100.151 106.241 98.3671 105.69 97.0882 104.34C95.6395 102.833 94.9256 100.069 94.8072 96.7498C94.6085 91.1774 95.8598 87.1532 101.883 86.9384C103.645 86.8756 105.748 87.1698 107.941 87.707L108.594 83.0067C106.765 82.3335 103.632 81.9119 101.214 81.9981C91.6266 82.34 87.8625 88.382 88.1753 97.1505C88.3491 102.026 89.5036 105.637 91.9706 108.092C94.1392 110.23 97.2956 111.307 102.253 111.131ZM113.577 110.152L132.712 109.47L132.547 104.84L119.804 105.294L119.548 98.1239L129.177 97.7805L129.006 92.9866L119.377 93.33L119.135 86.5283L131.181 86.0987L131.508 81.4511L112.578 82.1262L113.577 110.152ZM137.056 109.315L155.863 108.644L155.698 104.014L143.283 104.457L142.448 81.0609L136.056 81.2889L137.056 109.315ZM167.536 108.228L183.843 107.646L183.741 104.778L171.08 105.23L170.729 95.396L180.522 95.0468L180.417 92.0967L170.624 92.4459L170.285 82.94L182.372 82.5089L182.598 79.629L166.536 80.2018L167.536 108.228ZM195.92 107.79C199.157 107.675 201.629 106.807 203.252 105.149C204.598 103.788 205.349 101.833 205.261 99.3748C204.919 89.7869 190.574 92.4729 190.346 86.081C190.239 83.0899 192.531 81.7773 196.342 81.6414C198.185 81.5757 200.367 81.7851 202.435 82.2447L202.868 79.4394C200.919 78.8525 198.364 78.5334 195.947 78.6196C190.374 78.8183 186.736 81.4917 186.913 86.4495C187.256 96.0784 201.54 92.8203 201.792 99.8678C201.846 101.384 201.352 102.509 200.397 103.323C199.321 104.223 197.779 104.688 195.484 104.77C193.231 104.85 190.591 104.452 188.438 103.913L187.923 106.721C190.084 107.506 193.339 107.882 195.92 107.79ZM215.683 106.511L219.33 106.381L218.433 81.2228L227.201 80.9101L227.427 78.0302L205.752 78.8033L205.854 81.6714L214.786 81.3529L215.683 106.511ZM232.169 105.923L248.476 105.341L248.374 102.473L235.713 102.925L235.362 93.091L245.155 92.7417L245.05 89.7916L235.257 90.1408L234.918 80.6349L247.006 80.2038L247.231 77.3239L231.169 77.8968L232.169 105.923ZM268.322 104.634L275.001 104.395L283.303 76.0375L277.074 76.2596L271.694 96.8004L264.414 76.7111L257.571 76.9552L268.322 104.634ZM287.43 103.952L306.565 103.27L306.4 98.6396L293.657 99.0941L293.401 91.9237L303.03 91.5803L302.859 86.7863L293.23 87.1297L292.988 80.328L305.034 79.8984L305.361 75.2508L286.431 75.9259L287.43 103.952ZM310.909 103.115L317.3 102.887L316.938 92.7253L320.462 92.5996L325.987 102.577L333.198 102.32L326.741 91.5141C329.844 89.9265 331.333 86.8375 331.197 83.0269C331.092 80.0768 330.115 77.9783 328.633 76.6773C326.727 75.0221 324.045 74.5845 319.538 74.7452L309.909 75.0886L310.909 103.115ZM316.773 88.0952L316.466 79.4907L319.334 79.3884C321.424 79.3139 322.785 79.5115 323.632 80.2608C324.311 80.893 324.675 81.9056 324.727 83.3397C324.782 84.8967 324.457 86.1391 323.662 86.8649C322.868 87.5907 321.731 87.9184 319.6 87.9944L316.773 88.0952ZM334.241 102.283L340.346 102.065L342.266 94.94L351.362 94.6156L353.949 101.58L360.792 101.336L349.672 73.6705L342.624 73.9219L334.241 102.283ZM343.576 90.2573L346.152 80.8115L346.234 80.8086L349.64 90.041L343.576 90.2573ZM363.627 101.235L369.241 101.034L368.634 84.0303L382.107 100.576L387.228 100.393L386.229 72.3668L380.615 72.5669L381.255 90.5135L367.34 73.0404L362.628 73.2085L363.627 101.235ZM404.115 100.365C412.679 100.06 416.349 94.8415 416.011 85.3765C415.674 75.9116 411.64 70.9272 403.076 71.2326C394.512 71.538 390.844 76.7971 391.181 86.2621C391.519 95.7271 395.551 100.67 404.115 100.365ZM403.937 95.3662C399.798 95.5138 398.06 92.786 397.819 86.0253C397.578 79.2646 399.116 76.379 403.254 76.2314C407.393 76.0838 409.132 78.8526 409.374 85.6133C409.615 92.374 408.075 95.2186 403.937 95.3662ZM421.33 90.3971L425.674 90.2422L425.888 70.9523L419.742 71.1715L421.33 90.3971ZM423.794 99.6632L424.081 99.653C426.048 99.5828 427.044 98.7678 426.971 96.7191L426.954 96.2274C426.881 94.1787 425.829 93.4368 423.862 93.5069L423.575 93.5171C421.608 93.5873 420.612 94.4023 420.685 96.451L420.702 96.9427C420.775 98.9914 421.828 99.7334 423.794 99.6632Z" fill="white"/>
<path d="M15.7001 41.9335L15.4133 41.9437C13.4466 42.0139 12.45 42.8289 12.5231 44.8776L12.5406 45.3693C12.6137 47.418 13.6658 48.1599 15.6325 48.0898L15.9193 48.0796C17.8861 48.0094 18.8827 47.1944 18.8096 45.1457L18.7921 44.654C18.719 42.6053 17.6669 41.8633 15.7001 41.9335ZM18.164 51.1996L13.8207 51.3544L13.6061 70.6444L19.7522 70.4252L18.164 51.1996ZM37.2735 62.4156C39.568 62.3338 42.6279 61.8554 44.2903 61.3038L43.4681 56.6562C41.8409 57.0424 39.678 57.3657 38.3259 57.4139C35.1709 57.5264 33.3871 56.9747 32.1082 55.6254C30.6595 54.1181 29.9455 51.3537 29.8272 48.0349C29.6284 42.4624 30.8798 38.4382 36.903 38.2234C38.6649 38.1606 40.7677 38.4548 42.9612 38.992L43.6141 34.2917C41.785 33.6185 38.6519 33.1969 36.2345 33.2831C26.6466 33.6251 22.8825 39.667 23.1952 48.4355C23.3691 53.3114 24.5235 56.9215 26.9906 59.3772C29.1592 61.5152 32.3156 62.5924 37.2735 62.4156ZM55.4951 30.0526L63.6126 24.1425L60.6056 20.3523L53.3558 27.5853L55.4951 30.0526ZM46.7705 61.5025L52.8756 61.2848L54.7959 54.1598L63.8921 53.8354L66.479 60.7997L73.3216 60.5556L62.2015 32.8904L55.154 33.1417L46.7705 61.5025ZM56.1058 49.4772L58.6818 40.0314L58.7637 40.0284L62.17 49.2609L56.1058 49.4772ZM76.1571 60.4545L81.5247 60.2631L80.9431 43.9554L87.279 53.6578L92.1958 53.4824L97.6663 43.5231L98.2421 59.6669L104.101 59.4579L103.102 31.4317L98.185 31.6071L89.606 47.585L80.1974 32.2486L75.1576 32.4283L76.1571 60.4545ZM109.759 59.2561L119.716 58.901C124.059 58.7461 126.779 57.9517 128.525 56.2894C129.993 54.8832 130.742 52.8872 130.646 50.1829C130.514 46.4953 127.965 44.0426 124.465 43.6751C127 42.2719 128.283 40.2979 128.181 37.4297C128.108 35.381 127.353 33.7669 126.043 32.7059C124.353 31.3302 121.871 30.7623 117.897 30.9041L108.759 31.2299L109.759 59.2561ZM115.549 42.1469L115.317 35.632L117.652 35.5487C119.373 35.4874 120.364 35.6572 121 36.2499C121.552 36.7635 121.825 37.5333 121.862 38.5576C121.903 39.7049 121.645 40.5346 121.132 41.0862C120.458 41.7667 119.482 42.0066 117.72 42.0694L115.549 42.1469ZM115.986 54.3981L115.714 46.7769L118.336 46.6834C120.631 46.6016 121.949 46.7597 122.836 47.4665C123.596 48.0549 123.958 49.0265 124.012 50.5426C124.053 51.6898 123.755 52.521 123.202 53.1151C122.451 53.9214 120.985 54.2198 118.608 54.3046L115.986 54.3981ZM135.28 58.3459L141.672 58.118L140.672 30.0918L134.28 30.3198L135.28 58.3459ZM144.565 58.0148L150.67 57.7971L152.591 50.6721L161.687 50.3477L164.274 57.3119L171.116 57.0679L159.996 29.4026L152.949 29.654L144.565 58.0148ZM153.901 45.9894L156.477 36.5436L156.559 36.5407L159.965 45.7732L153.901 45.9894ZM178.139 56.8174L184.531 56.5895L183.697 33.1933L192.179 32.8908L192.505 28.2433L168.453 29.101L168.619 33.7311L177.305 33.4213L178.139 56.8174ZM196.43 56.1651L215.565 55.4827L215.4 50.8526L202.657 51.3071L202.401 44.1366L212.03 43.7932L211.859 38.9993L202.23 39.3427L201.988 32.541L214.034 32.1114L214.361 27.4638L195.431 28.1389L196.43 56.1651ZM238.33 55.2451C246.73 54.9456 249.29 48.4952 248.998 40.3005C248.705 32.1057 245.691 25.8131 237.291 26.1127C228.892 26.4122 226.333 32.9035 226.626 41.0983C226.918 49.2931 229.931 55.5447 238.33 55.2451ZM238.218 52.0901C232.441 52.2962 230.682 47.846 230.436 40.9624C230.191 34.0788 231.627 29.4737 237.404 29.2677C243.181 29.0616 244.941 33.5527 245.187 40.4364C245.432 47.32 243.995 51.8841 238.218 52.0901ZM262.374 53.8133L268.766 53.5853L268.404 43.4238L271.927 43.2981L277.453 53.2755L284.664 53.0183L278.207 42.2126C281.309 40.625 282.799 37.536 282.663 33.7254C282.558 30.7753 281.58 28.6768 280.098 27.3758C278.193 25.7206 275.511 25.283 271.003 25.4437L261.375 25.7871L262.374 53.8133ZM268.239 38.7937L267.932 30.1892L270.8 30.0869C272.89 30.0124 274.25 30.21 275.098 30.9593C275.777 31.5915 276.141 32.6041 276.192 34.0382C276.248 35.5952 275.923 36.8376 275.128 37.5634C274.333 38.2892 273.196 38.6169 271.066 38.6929L268.239 38.7937ZM288.533 52.8803L307.668 52.1979L307.503 47.5679L294.76 48.0223L294.505 40.8519L304.133 40.5085L303.962 35.7145L294.334 36.0579L294.091 29.2563L306.137 28.8266L306.464 24.179L287.534 24.8542L288.533 52.8803ZM312.012 52.043L317.625 51.8428L317.019 34.8386L330.491 51.384L335.613 51.2013L334.613 23.1751L329 23.3753L329.64 41.3219L315.724 23.8488L311.012 24.0168L312.012 52.043ZM352.54 51.172C356.146 51.0434 359.265 49.9065 361.046 48.0789C363.026 46.08 363.62 43.187 363.493 39.6223L362.87 22.1674L357.216 22.369L357.85 40.1517C357.928 42.3234 357.611 43.8116 356.663 44.83C355.835 45.7621 354.497 46.2201 352.653 46.2858C350.81 46.3516 349.4 45.9506 348.508 45.0798C347.489 44.1315 347.067 42.6286 346.991 40.498L346.358 22.7563L340.007 22.9828L340.64 40.7245C340.783 44.7399 341.727 47.0448 343.635 48.7819C345.585 50.5585 348.648 51.3108 352.54 51.172ZM369.292 50.0002L388.427 49.3178L388.262 44.6877L375.519 45.1422L375.263 37.9717L384.892 37.6283L384.721 32.8344L375.092 33.1778L374.85 26.3761L386.896 25.9465L387.223 21.2989L368.293 21.974L369.292 50.0002ZM399.982 48.9057L406.661 48.6675L414.962 20.3096L408.734 20.5317L403.354 41.0725L396.073 20.9832L389.231 21.2273L399.982 48.9057ZM414.542 48.3864L420.647 48.1687L422.567 41.0437L431.664 40.7193L434.251 47.6835L441.093 47.4395L429.973 19.7742L422.926 20.0256L414.542 48.3864ZM423.877 36.361L426.453 26.9152L426.535 26.9123L429.942 36.1448L423.877 36.361ZM34.7348 112.964L41.1268 112.736L40.2924 89.3401L48.774 89.0376L49.1005 84.39L25.0488 85.2478L25.2139 89.8779L33.9004 89.5681L34.7348 112.964ZM64.3138 112.484C67.9195 112.355 71.038 111.218 72.819 109.391C74.799 107.392 75.3933 104.499 75.2661 100.934L74.6436 83.4791L68.9892 83.6807L69.6234 101.463C69.7009 103.635 69.3847 105.123 68.4364 106.142C67.6081 107.074 66.2706 107.532 64.4267 107.598C62.5829 107.663 61.1737 107.262 60.2811 106.392C59.2627 105.443 58.8399 103.94 58.7639 101.81L58.1311 84.068L51.7802 84.2945L52.4129 102.036C52.5561 106.052 53.4999 108.356 55.408 110.094C57.3585 111.87 60.4213 112.622 64.3138 112.484ZM102.253 111.131C104.548 111.049 107.608 110.57 109.27 110.019L108.448 105.371C106.821 105.757 104.658 106.081 103.306 106.129C100.151 106.241 98.3671 105.69 97.0882 104.34C95.6395 102.833 94.9256 100.069 94.8072 96.7498C94.6085 91.1774 95.8598 87.1532 101.883 86.9384C103.645 86.8756 105.748 87.1698 107.941 87.707L108.594 83.0067C106.765 82.3335 103.632 81.9119 101.214 81.9981C91.6266 82.34 87.8625 88.382 88.1753 97.1505C88.3491 102.026 89.5036 105.637 91.9706 108.092C94.1392 110.23 97.2956 111.307 102.253 111.131ZM113.577 110.152L132.712 109.47L132.547 104.84L119.804 105.294L119.548 98.1239L129.177 97.7805L129.006 92.9866L119.377 93.33L119.135 86.5283L131.181 86.0987L131.508 81.4511L112.578 82.1262L113.577 110.152ZM137.056 109.315L155.863 108.644L155.698 104.014L143.283 104.457L142.448 81.0609L136.056 81.2889L137.056 109.315ZM167.536 108.228L183.843 107.646L183.741 104.778L171.08 105.23L170.729 95.396L180.522 95.0468L180.417 92.0967L170.624 92.4459L170.285 82.94L182.372 82.5089L182.598 79.629L166.536 80.2018L167.536 108.228ZM195.92 107.79C199.157 107.675 201.629 106.807 203.252 105.149C204.598 103.788 205.349 101.833 205.261 99.3748C204.919 89.7869 190.574 92.4729 190.346 86.081C190.239 83.0899 192.531 81.7773 196.342 81.6414C198.185 81.5757 200.367 81.7851 202.435 82.2447L202.868 79.4394C200.919 78.8525 198.364 78.5334 195.947 78.6196C190.374 78.8183 186.736 81.4917 186.913 86.4495C187.256 96.0784 201.54 92.8203 201.792 99.8678C201.846 101.384 201.352 102.509 200.397 103.323C199.321 104.223 197.779 104.688 195.484 104.77C193.231 104.85 190.591 104.452 188.438 103.913L187.923 106.721C190.084 107.506 193.339 107.882 195.92 107.79ZM215.683 106.511L219.33 106.381L218.433 81.2228L227.201 80.9101L227.427 78.0302L205.752 78.8033L205.854 81.6714L214.786 81.3529L215.683 106.511ZM232.169 105.923L248.476 105.341L248.374 102.473L235.713 102.925L235.362 93.091L245.155 92.7417L245.05 89.7916L235.257 90.1408L234.918 80.6349L247.006 80.2038L247.231 77.3239L231.169 77.8968L232.169 105.923ZM268.322 104.634L275.001 104.395L283.303 76.0375L277.074 76.2596L271.694 96.8004L264.414 76.7111L257.571 76.9552L268.322 104.634ZM287.43 103.952L306.565 103.27L306.4 98.6396L293.657 99.0941L293.401 91.9237L303.03 91.5803L302.859 86.7863L293.23 87.1297L292.988 80.328L305.034 79.8984L305.361 75.2508L286.431 75.9259L287.43 103.952ZM310.909 103.115L317.3 102.887L316.938 92.7253L320.462 92.5996L325.987 102.577L333.198 102.32L326.741 91.5141C329.844 89.9265 331.333 86.8375 331.197 83.0269C331.092 80.0768 330.115 77.9783 328.633 76.6773C326.727 75.0221 324.045 74.5845 319.538 74.7452L309.909 75.0886L310.909 103.115ZM316.773 88.0952L316.466 79.4907L319.334 79.3884C321.424 79.3139 322.785 79.5115 323.632 80.2608C324.311 80.893 324.675 81.9056 324.727 83.3397C324.782 84.8967 324.457 86.1391 323.662 86.8649C322.868 87.5907 321.731 87.9184 319.6 87.9944L316.773 88.0952ZM334.241 102.283L340.346 102.065L342.266 94.94L351.362 94.6156L353.949 101.58L360.792 101.336L349.672 73.6705L342.624 73.9219L334.241 102.283ZM343.576 90.2573L346.152 80.8115L346.234 80.8086L349.64 90.041L343.576 90.2573ZM363.627 101.235L369.241 101.034L368.634 84.0303L382.107 100.576L387.228 100.393L386.229 72.3668L380.615 72.5669L381.255 90.5135L367.34 73.0404L362.628 73.2085L363.627 101.235ZM404.115 100.365C412.679 100.06 416.349 94.8415 416.011 85.3765C415.674 75.9116 411.64 70.9272 403.076 71.2326C394.512 71.538 390.844 76.7971 391.181 86.2621C391.519 95.7271 395.551 100.67 404.115 100.365ZM403.937 95.3662C399.798 95.5138 398.06 92.786 397.819 86.0253C397.578 79.2646 399.116 76.379 403.254 76.2314C407.393 76.0838 409.132 78.8526 409.374 85.6133C409.615 92.374 408.075 95.2186 403.937 95.3662ZM421.33 90.3971L425.674 90.2422L425.888 70.9523L419.742 71.1715L421.33 90.3971ZM423.794 99.6632L424.081 99.653C426.048 99.5828 427.044 98.7678 426.971 96.7191L426.954 96.2274C426.881 94.1787 425.829 93.4368 423.862 93.5069L423.575 93.5171C421.608 93.5873 420.612 94.4023 420.685 96.451L420.702 96.9427C420.775 98.9914 421.828 99.7334 423.794 99.6632Z" fill="white"/>
<path d="M15.7001 41.9335L15.4133 41.9437C13.4466 42.0139 12.45 42.8289 12.5231 44.8776L12.5406 45.3693C12.6137 47.418 13.6658 48.1599 15.6325 48.0898L15.9193 48.0796C17.8861 48.0094 18.8827 47.1944 18.8096 45.1457L18.7921 44.654C18.719 42.6053 17.6669 41.8633 15.7001 41.9335ZM18.164 51.1996L13.8207 51.3544L13.6061 70.6444L19.7522 70.4252L18.164 51.1996ZM37.2735 62.4156C39.568 62.3338 42.6279 61.8554 44.2903 61.3038L43.4681 56.6562C41.8409 57.0424 39.678 57.3657 38.3259 57.4139C35.1709 57.5264 33.3871 56.9747 32.1082 55.6254C30.6595 54.1181 29.9455 51.3537 29.8272 48.0349C29.6284 42.4624 30.8798 38.4382 36.903 38.2234C38.6649 38.1606 40.7677 38.4548 42.9612 38.992L43.6141 34.2917C41.785 33.6185 38.6519 33.1969 36.2345 33.2831C26.6466 33.6251 22.8825 39.667 23.1952 48.4355C23.3691 53.3114 24.5235 56.9215 26.9906 59.3772C29.1592 61.5152 32.3156 62.5924 37.2735 62.4156ZM55.4951 30.0526L63.6126 24.1425L60.6056 20.3523L53.3558 27.5853L55.4951 30.0526ZM46.7705 61.5025L52.8756 61.2848L54.7959 54.1598L63.8921 53.8354L66.479 60.7997L73.3216 60.5556L62.2015 32.8904L55.154 33.1417L46.7705 61.5025ZM56.1058 49.4772L58.6818 40.0314L58.7637 40.0284L62.17 49.2609L56.1058 49.4772ZM76.1571 60.4545L81.5247 60.2631L80.9431 43.9554L87.279 53.6578L92.1958 53.4824L97.6663 43.5231L98.2421 59.6669L104.101 59.4579L103.102 31.4317L98.185 31.6071L89.606 47.585L80.1974 32.2486L75.1576 32.4283L76.1571 60.4545ZM109.759 59.2561L119.716 58.901C124.059 58.7461 126.779 57.9517 128.525 56.2894C129.993 54.8832 130.742 52.8872 130.646 50.1829C130.514 46.4953 127.965 44.0426 124.465 43.6751C127 42.2719 128.283 40.2979 128.181 37.4297C128.108 35.381 127.353 33.7669 126.043 32.7059C124.353 31.3302 121.871 30.7623 117.897 30.9041L108.759 31.2299L109.759 59.2561ZM115.549 42.1469L115.317 35.632L117.652 35.5487C119.373 35.4874 120.364 35.6572 121 36.2499C121.552 36.7635 121.825 37.5333 121.862 38.5576C121.903 39.7049 121.645 40.5346 121.132 41.0862C120.458 41.7667 119.482 42.0066 117.72 42.0694L115.549 42.1469ZM115.986 54.3981L115.714 46.7769L118.336 46.6834C120.631 46.6016 121.949 46.7597 122.836 47.4665C123.596 48.0549 123.958 49.0265 124.012 50.5426C124.053 51.6898 123.755 52.521 123.202 53.1151C122.451 53.9214 120.985 54.2198 118.608 54.3046L115.986 54.3981ZM135.28 58.3459L141.672 58.118L140.672 30.0918L134.28 30.3198L135.28 58.3459ZM144.565 58.0148L150.67 57.7971L152.591 50.6721L161.687 50.3477L164.274 57.3119L171.116 57.0679L159.996 29.4026L152.949 29.654L144.565 58.0148ZM153.901 45.9894L156.477 36.5436L156.559 36.5407L159.965 45.7732L153.901 45.9894ZM178.139 56.8174L184.531 56.5895L183.697 33.1933L192.179 32.8908L192.505 28.2433L168.453 29.101L168.619 33.7311L177.305 33.4213L178.139 56.8174ZM196.43 56.1651L215.565 55.4827L215.4 50.8526L202.657 51.3071L202.401 44.1366L212.03 43.7932L211.859 38.9993L202.23 39.3427L201.988 32.541L214.034 32.1114L214.361 27.4638L195.431 28.1389L196.43 56.1651ZM238.33 55.2451C246.73 54.9456 249.29 48.4952 248.998 40.3005C248.705 32.1057 245.691 25.8131 237.291 26.1127C228.892 26.4122 226.333 32.9035 226.626 41.0983C226.918 49.2931 229.931 55.5447 238.33 55.2451ZM238.218 52.0901C232.441 52.2962 230.682 47.846 230.436 40.9624C230.191 34.0788 231.627 29.4737 237.404 29.2677C243.181 29.0616 244.941 33.5527 245.187 40.4364C245.432 47.32 243.995 51.8841 238.218 52.0901ZM262.374 53.8133L268.766 53.5853L268.404 43.4238L271.927 43.2981L277.453 53.2755L284.664 53.0183L278.207 42.2126C281.309 40.625 282.799 37.536 282.663 33.7254C282.558 30.7753 281.58 28.6768 280.098 27.3758C278.193 25.7206 275.511 25.283 271.003 25.4437L261.375 25.7871L262.374 53.8133ZM268.239 38.7937L267.932 30.1892L270.8 30.0869C272.89 30.0124 274.25 30.21 275.098 30.9593C275.777 31.5915 276.141 32.6041 276.192 34.0382C276.248 35.5952 275.923 36.8376 275.128 37.5634C274.333 38.2892 273.196 38.6169 271.066 38.6929L268.239 38.7937ZM288.533 52.8803L307.668 52.1979L307.503 47.5679L294.76 48.0223L294.505 40.8519L304.133 40.5085L303.962 35.7145L294.334 36.0579L294.091 29.2563L306.137 28.8266L306.464 24.179L287.534 24.8542L288.533 52.8803ZM312.012 52.043L317.625 51.8428L317.019 34.8386L330.491 51.384L335.613 51.2013L334.613 23.1751L329 23.3753L329.64 41.3219L315.724 23.8488L311.012 24.0168L312.012 52.043ZM352.54 51.172C356.146 51.0434 359.265 49.9065 361.046 48.0789C363.026 46.08 363.62 43.187 363.493 39.6223L362.87 22.1674L357.216 22.369L357.85 40.1517C357.928 42.3234 357.611 43.8116 356.663 44.83C355.835 45.7621 354.497 46.2201 352.653 46.2858C350.81 46.3516 349.4 45.9506 348.508 45.0798C347.489 44.1315 347.067 42.6286 346.991 40.498L346.358 22.7563L340.007 22.9828L340.64 40.7245C340.783 44.7399 341.727 47.0448 343.635 48.7819C345.585 50.5585 348.648 51.3108 352.54 51.172ZM369.292 50.0002L388.427 49.3178L388.262 44.6877L375.519 45.1422L375.263 37.9717L384.892 37.6283L384.721 32.8344L375.092 33.1778L374.85 26.3761L386.896 25.9465L387.223 21.2989L368.293 21.974L369.292 50.0002ZM399.982 48.9057L406.661 48.6675L414.962 20.3096L408.734 20.5317L403.354 41.0725L396.073 20.9832L389.231 21.2273L399.982 48.9057ZM414.542 48.3864L420.647 48.1687L422.567 41.0437L431.664 40.7193L434.251 47.6835L441.093 47.4395L429.973 19.7742L422.926 20.0256L414.542 48.3864ZM423.877 36.361L426.453 26.9152L426.535 26.9123L429.942 36.1448L423.877 36.361ZM34.7348 112.964L41.1268 112.736L40.2924 89.3401L48.774 89.0376L49.1005 84.39L25.0488 85.2478L25.2139 89.8779L33.9004 89.5681L34.7348 112.964ZM64.3138 112.484C67.9195 112.355 71.038 111.218 72.819 109.391C74.799 107.392 75.3933 104.499 75.2661 100.934L74.6436 83.4791L68.9892 83.6807L69.6234 101.463C69.7009 103.635 69.3847 105.123 68.4364 106.142C67.6081 107.074 66.2706 107.532 64.4267 107.598C62.5829 107.663 61.1737 107.262 60.2811 106.392C59.2627 105.443 58.8399 103.94 58.7639 101.81L58.1311 84.068L51.7802 84.2945L52.4129 102.036C52.5561 106.052 53.4999 108.356 55.408 110.094C57.3585 111.87 60.4213 112.622 64.3138 112.484ZM102.253 111.131C104.548 111.049 107.608 110.57 109.27 110.019L108.448 105.371C106.821 105.757 104.658 106.081 103.306 106.129C100.151 106.241 98.3671 105.69 97.0882 104.34C95.6395 102.833 94.9256 100.069 94.8072 96.7498C94.6085 91.1774 95.8598 87.1532 101.883 86.9384C103.645 86.8756 105.748 87.1698 107.941 87.707L108.594 83.0067C106.765 82.3335 103.632 81.9119 101.214 81.9981C91.6266 82.34 87.8625 88.382 88.1753 97.1505C88.3491 102.026 89.5036 105.637 91.9706 108.092C94.1392 110.23 97.2956 111.307 102.253 111.131ZM113.577 110.152L132.712 109.47L132.547 104.84L119.804 105.294L119.548 98.1239L129.177 97.7805L129.006 92.9866L119.377 93.33L119.135 86.5283L131.181 86.0987L131.508 81.4511L112.578 82.1262L113.577 110.152ZM137.056 109.315L155.863 108.644L155.698 104.014L143.283 104.457L142.448 81.0609L136.056 81.2889L137.056 109.315ZM167.536 108.228L183.843 107.646L183.741 104.778L171.08 105.23L170.729 95.396L180.522 95.0468L180.417 92.0967L170.624 92.4459L170.285 82.94L182.372 82.5089L182.598 79.629L166.536 80.2018L167.536 108.228ZM195.92 107.79C199.157 107.675 201.629 106.807 203.252 105.149C204.598 103.788 205.349 101.833 205.261 99.3748C204.919 89.7869 190.574 92.4729 190.346 86.081C190.239 83.0899 192.531 81.7773 196.342 81.6414C198.185 81.5757 200.367 81.7851 202.435 82.2447L202.868 79.4394C200.919 78.8525 198.364 78.5334 195.947 78.6196C190.374 78.8183 186.736 81.4917 186.913 86.4495C187.256 96.0784 201.54 92.8203 201.792 99.8678C201.846 101.384 201.352 102.509 200.397 103.323C199.321 104.223 197.779 104.688 195.484 104.77C193.231 104.85 190.591 104.452 188.438 103.913L187.923 106.721C190.084 107.506 193.339 107.882 195.92 107.79ZM215.683 106.511L219.33 106.381L218.433 81.2228L227.201 80.9101L227.427 78.0302L205.752 78.8033L205.854 81.6714L214.786 81.3529L215.683 106.511ZM232.169 105.923L248.476 105.341L248.374 102.473L235.713 102.925L235.362 93.091L245.155 92.7417L245.05 89.7916L235.257 90.1408L234.918 80.6349L247.006 80.2038L247.231 77.3239L231.169 77.8968L232.169 105.923ZM268.322 104.634L275.001 104.395L283.303 76.0375L277.074 76.2596L271.694 96.8004L264.414 76.7111L257.571 76.9552L268.322 104.634ZM287.43 103.952L306.565 103.27L306.4 98.6396L293.657 99.0941L293.401 91.9237L303.03 91.5803L302.859 86.7863L293.23 87.1297L292.988 80.328L305.034 79.8984L305.361 75.2508L286.431 75.9259L287.43 103.952ZM310.909 103.115L317.3 102.887L316.938 92.7253L320.462 92.5996L325.987 102.577L333.198 102.32L326.741 91.5141C329.844 89.9265 331.333 86.8375 331.197 83.0269C331.092 80.0768 330.115 77.9783 328.633 76.6773C326.727 75.0221 324.045 74.5845 319.538 74.7452L309.909 75.0886L310.909 103.115ZM316.773 88.0952L316.466 79.4907L319.334 79.3884C321.424 79.3139 322.785 79.5115 323.632 80.2608C324.311 80.893 324.675 81.9056 324.727 83.3397C324.782 84.8967 324.457 86.1391 323.662 86.8649C322.868 87.5907 321.731 87.9184 319.6 87.9944L316.773 88.0952ZM334.241 102.283L340.346 102.065L342.266 94.94L351.362 94.6156L353.949 101.58L360.792 101.336L349.672 73.6705L342.624 73.9219L334.241 102.283ZM343.576 90.2573L346.152 80.8115L346.234 80.8086L349.64 90.041L343.576 90.2573ZM363.627 101.235L369.241 101.034L368.634 84.0303L382.107 100.576L387.228 100.393L386.229 72.3668L380.615 72.5669L381.255 90.5135L367.34 73.0404L362.628 73.2085L363.627 101.235ZM404.115 100.365C412.679 100.06 416.349 94.8415 416.011 85.3765C415.674 75.9116 411.64 70.9272 403.076 71.2326C394.512 71.538 390.844 76.7971 391.181 86.2621C391.519 95.7271 395.551 100.67 404.115 100.365ZM403.937 95.3662C399.798 95.5138 398.06 92.786 397.819 86.0253C397.578 79.2646 399.116 76.379 403.254 76.2314C407.393 76.0838 409.132 78.8526 409.374 85.6133C409.615 92.374 408.075 95.2186 403.937 95.3662ZM421.33 90.3971L425.674 90.2422L425.888 70.9523L419.742 71.1715L421.33 90.3971ZM423.794 99.6632L424.081 99.653C426.048 99.5828 427.044 98.7678 426.971 96.7191L426.954 96.2274C426.881 94.1787 425.829 93.4368 423.862 93.5069L423.575 93.5171C421.608 93.5873 420.612 94.4023 420.685 96.451L420.702 96.9427C420.775 98.9914 421.828 99.7334 423.794 99.6632Z" fill="#019DF4"/>
<path d="M12.7392 39.1796L12.4524 39.1898C10.4856 39.2599 9.48905 40.075 9.56212 42.1237L9.57965 42.6154C9.65272 44.6641 10.7048 45.406 12.6716 45.3359L12.9584 45.3257C14.9251 45.2555 15.9217 44.4405 15.8487 42.3918L15.8311 41.9001C15.7581 39.8514 14.706 39.1094 12.7392 39.1796ZM15.203 48.4456L10.8598 48.6005L10.6452 67.8904L16.7913 67.6713L15.203 48.4456ZM34.3125 59.6617C36.6071 59.5799 39.667 59.1015 41.3294 58.5499L40.5072 53.9022C38.8799 54.2885 36.7171 54.6118 35.3649 54.66C32.2099 54.7725 30.4261 54.2207 29.1472 52.8715C27.6986 51.3641 26.9846 48.5998 26.8662 45.2809C26.6675 39.7085 27.9189 35.6843 33.942 35.4695C35.7039 35.4067 37.8068 35.7009 40.0003 36.2381L40.6532 31.5378C38.824 30.8646 35.691 30.443 33.2735 30.5292C23.6856 30.8711 19.9216 36.9131 20.2343 45.6816C20.4082 50.5575 21.5626 54.1676 24.0297 56.6233C26.1983 58.7613 29.3547 59.8385 34.3125 59.6617ZM52.5342 27.2987L60.6517 21.3886L57.6447 17.5984L50.3949 24.8314L52.5342 27.2987ZM43.8095 58.7486L49.9147 58.5309L51.8349 51.4059L60.9312 51.0815L63.518 58.0457L70.3607 57.8017L59.2406 30.1365L52.1931 30.3878L43.8095 58.7486ZM53.1449 46.7233L55.7209 37.2774L55.8028 37.2745L59.209 46.507L53.1449 46.7233ZM73.1962 57.7006L78.5638 57.5092L77.9822 41.2015L84.318 50.9039L89.2349 50.7285L94.7054 40.7692L95.2812 56.913L101.14 56.704L100.141 28.6778L95.224 28.8532L86.6451 44.8311L77.2365 29.4947L72.1967 29.6744L73.1962 57.7006ZM106.798 56.5022L116.755 56.1471C121.098 55.9922 123.818 55.1978 125.564 53.5355C127.032 52.1293 127.781 50.1333 127.685 47.429C127.553 43.7414 125.004 41.2887 121.504 40.9212C124.039 39.5179 125.322 37.544 125.22 34.6758C125.147 32.6271 124.392 31.013 123.082 29.952C121.392 28.5763 118.91 28.0084 114.936 28.1502L105.799 28.476L106.798 56.5022ZM112.588 39.393L112.356 32.8781L114.691 32.7948C116.412 32.7335 117.403 32.9033 118.039 33.496C118.591 34.0096 118.864 34.7794 118.901 35.8037C118.942 36.951 118.684 37.7807 118.171 38.3323C117.497 39.0128 116.521 39.2527 114.76 39.3155L112.588 39.393ZM113.025 51.6442L112.753 44.023L115.375 43.9295C117.67 43.8477 118.988 44.0058 119.875 44.7126C120.635 45.3009 120.997 46.2726 121.052 47.7887C121.092 48.9359 120.794 49.7671 120.241 50.3612C119.49 51.1675 118.024 51.4659 115.647 51.5507L113.025 51.6442ZM132.319 55.592L138.711 55.3641L137.711 27.3379L131.32 27.5659L132.319 55.592ZM141.604 55.2609L147.71 55.0432L149.63 47.9182L158.726 47.5938L161.313 54.558L168.156 54.314L157.035 26.6487L149.988 26.9001L141.604 55.2609ZM150.94 43.2355L153.516 33.7897L153.598 33.7868L157.004 43.0193L150.94 43.2355ZM175.178 54.0635L181.57 53.8355L180.736 30.4394L189.218 30.1369L189.544 25.4893L165.492 26.3471L165.658 30.9772L174.344 30.6674L175.178 54.0635ZM193.469 53.4112L212.604 52.7288L212.439 48.0987L199.696 48.5532L199.44 41.3827L209.069 41.0393L208.898 36.2454L199.269 36.5888L199.027 29.7871L211.073 29.3575L211.4 24.7099L192.47 25.385L193.469 53.4112ZM235.369 52.4912C243.769 52.1917 246.329 45.7413 246.037 37.5466C245.744 29.3518 242.73 23.0592 234.33 23.3588C225.931 23.6583 223.373 30.1496 223.665 38.3444C223.957 46.5392 226.97 52.7908 235.369 52.4912ZM235.257 49.3362C229.48 49.5423 227.721 45.0921 227.475 38.2085C227.23 31.3249 228.666 26.7198 234.443 26.5137C240.22 26.3077 241.981 30.7988 242.226 37.6825C242.472 44.5661 241.034 49.1302 235.257 49.3362ZM259.413 51.0594L265.805 50.8314L265.443 40.6699L268.966 40.5442L274.492 50.5216L281.703 50.2644L275.246 39.4587C278.348 37.8711 279.838 34.7821 279.702 30.9715C279.597 28.0214 278.62 25.9229 277.137 24.6219C275.232 22.9667 272.55 22.5291 268.043 22.6898L258.414 23.0332L259.413 51.0594ZM265.278 36.0398L264.971 27.4353L267.839 27.333C269.929 27.2585 271.289 27.4561 272.137 28.2054C272.816 28.8376 273.18 29.8502 273.231 31.2843C273.287 32.8413 272.962 34.0837 272.167 34.8095C271.372 35.5353 270.235 35.863 268.105 35.939L265.278 36.0398ZM285.573 50.1264L304.707 49.444L304.542 44.814L291.799 45.2684L291.544 38.098L301.172 37.7546L301.002 32.9606L291.373 33.304L291.13 26.5023L303.176 26.0727L303.503 21.4251L284.573 22.1003L285.573 50.1264ZM309.051 49.2891L314.664 49.0889L314.058 32.0847L327.53 48.6301L332.652 48.4474L331.652 20.4212L326.039 20.6214L326.679 38.568L312.763 21.0949L308.051 21.2629L309.051 49.2891ZM349.58 48.4181C353.185 48.2895 356.304 47.1526 358.085 45.325C360.065 43.3261 360.659 40.4331 360.532 36.8684L359.909 19.4135L354.255 19.6151L354.889 37.3978C354.967 39.5694 354.65 41.0577 353.702 42.0761C352.874 43.0082 351.536 43.4662 349.692 43.5319C347.849 43.5977 346.439 43.1967 345.547 42.3259C344.528 41.3776 344.106 39.8747 344.03 37.7441L343.397 20.0024L337.046 20.2289L337.679 37.9706C337.822 41.986 338.766 44.2909 340.674 46.028C342.624 47.8046 345.687 48.5569 349.58 48.4181ZM366.331 47.2463L385.466 46.5639L385.301 41.9338L372.558 42.3883L372.302 35.2178L381.931 34.8744L381.76 30.0805L372.131 30.4239L371.889 23.6222L383.935 23.1926L384.262 18.545L365.332 19.2201L366.331 47.2463ZM397.021 46.1518L403.7 45.9136L412.001 17.5557L405.773 17.7778L400.393 38.3186L393.112 18.2293L386.27 18.4734L397.021 46.1518ZM411.581 45.6325L417.686 45.4148L419.607 38.2898L428.703 37.9654L431.29 44.9296L438.132 44.6856L427.012 17.0203L419.965 17.2717L411.581 45.6325ZM420.916 33.6071L423.492 24.1613L423.574 24.1584L426.981 33.3909L420.916 33.6071ZM31.7739 110.21L38.1658 109.982L37.3314 86.5862L45.813 86.2837L46.1396 81.6361L22.0879 82.4939L22.253 87.124L30.9395 86.8142L31.7739 110.21ZM61.3529 109.73C64.9586 109.601 68.0771 108.464 69.858 106.637C71.8381 104.638 72.4323 101.745 72.3052 98.1801L71.6827 80.7252L66.0283 80.9268L66.6625 98.7095C66.7399 100.881 66.4238 102.369 65.4755 103.388C64.6472 104.32 63.3096 104.778 61.4658 104.844C59.622 104.909 58.2128 104.508 57.3202 103.638C56.3017 102.689 55.8789 101.186 55.8029 99.0558L55.1702 81.3141L48.8192 81.5406L49.452 99.2823C49.5952 103.298 50.5389 105.603 52.447 107.34C54.3976 109.116 57.4604 109.869 61.3529 109.73ZM99.2925 108.377C101.587 108.295 104.647 107.816 106.309 107.265L105.487 102.617C103.86 103.003 101.697 103.327 100.345 103.375C97.1899 103.488 95.4061 102.936 94.1272 101.586C92.6786 100.079 91.9646 97.3148 91.8463 93.9959C91.6475 88.4235 92.8989 84.3993 98.9221 84.1845C100.684 84.1217 102.787 84.4159 104.98 84.9531L105.633 80.2528C103.804 79.5796 100.671 79.158 98.2536 79.2442C88.6656 79.5861 84.9016 85.6281 85.2143 94.3966C85.3882 99.2725 86.5426 102.883 89.0097 105.338C91.1783 107.476 94.3347 108.553 99.2925 108.377ZM110.616 107.398L129.751 106.716L129.586 102.086L116.843 102.54L116.587 95.37L126.216 95.0266L126.045 90.2326L116.417 90.576L116.174 83.7744L128.22 83.3448L128.547 78.6972L109.617 79.3723L110.616 107.398ZM134.095 106.561L152.902 105.89L152.737 101.26L140.322 101.703L139.487 78.307L133.095 78.535L134.095 106.561ZM164.575 105.474L180.882 104.893L180.78 102.024L168.119 102.476L167.768 92.6421L177.561 92.2929L177.456 89.3428L167.663 89.692L167.324 80.186L179.411 79.755L179.637 76.8751L163.575 77.4479L164.575 105.474ZM192.959 105.036C196.196 104.921 198.668 104.053 200.291 102.395C201.637 101.034 202.388 99.0793 202.3 96.6209C201.958 87.033 187.613 89.719 187.385 83.327C187.278 80.3359 189.57 79.0234 193.381 78.8875C195.224 78.8218 197.406 79.0311 199.474 79.4907L199.907 76.6855C197.958 76.0986 195.403 75.7795 192.986 75.8657C187.413 76.0644 183.775 78.7378 183.952 83.6956C184.295 93.3245 198.579 90.0664 198.831 97.1139C198.885 98.6299 198.392 99.7552 197.436 100.569C196.36 101.469 194.818 101.934 192.523 102.016C190.27 102.096 187.63 101.698 185.477 101.159L184.962 103.968C187.123 104.752 190.378 105.128 192.959 105.036ZM212.723 103.757L216.369 103.627L215.472 78.4689L224.24 78.1562L224.466 75.2763L202.791 76.0493L202.893 78.9175L211.825 78.599L212.723 103.757ZM229.208 103.169L245.515 102.587L245.413 99.7193L232.752 100.171L232.402 90.3371L242.194 89.9878L242.089 87.0377L232.296 87.3869L231.957 77.881L244.045 77.4499L244.27 74.57L228.208 75.1429L229.208 103.169ZM265.361 101.88L272.04 101.641L280.342 73.2836L274.114 73.5057L268.733 94.0465L261.453 73.9572L254.61 74.2013L265.361 101.88ZM284.469 101.198L303.604 100.516L303.439 95.8857L290.696 96.3402L290.44 89.1698L300.069 88.8263L299.898 84.0324L290.269 84.3758L290.027 77.5741L302.073 77.1445L302.4 72.4969L283.47 73.172L284.469 101.198ZM307.948 100.361L314.34 100.133L313.977 89.9714L317.501 89.8457L323.026 99.8231L330.237 99.5659L323.78 88.7602C326.883 87.1726 328.372 84.0836 328.237 80.273C328.131 77.3229 327.154 75.2244 325.672 73.9234C323.766 72.2682 321.084 71.8306 316.577 71.9913L306.948 72.3347L307.948 100.361ZM313.812 85.3413L313.505 76.7368L316.373 76.6345C318.463 76.56 319.824 76.7576 320.671 77.5069C321.35 78.1391 321.714 79.1517 321.766 80.5858C321.821 82.1428 321.496 83.3852 320.702 84.111C319.907 84.8368 318.77 85.1645 316.639 85.2405L313.812 85.3413ZM331.28 99.5288L337.385 99.311L339.305 92.1861L348.401 91.8617L350.988 98.8259L357.831 98.5819L346.711 70.9166L339.663 71.168L331.28 99.5288ZM340.615 87.5034L343.191 78.0576L343.273 78.0547L346.679 87.2871L340.615 87.5034ZM360.666 98.4807L366.28 98.2805L365.673 81.2763L379.146 97.8217L384.267 97.639L383.268 69.6128L377.654 69.813L378.294 87.7596L364.379 70.2865L359.667 70.4545L360.666 98.4807ZM401.154 97.6112C409.718 97.3057 413.388 92.0876 413.05 82.6226C412.713 73.1576 408.679 68.1733 400.115 68.4787C391.551 68.7841 387.883 74.0432 388.22 83.5082C388.558 92.9732 392.59 97.9166 401.154 97.6112ZM400.976 92.6123C396.837 92.7599 395.099 90.0321 394.858 83.2714C394.617 76.5107 396.155 73.6251 400.293 73.4775C404.432 73.3299 406.171 76.0987 406.413 82.8594C406.654 89.6201 405.114 92.4647 400.976 92.6123ZM418.37 87.6432L422.713 87.4883L422.927 68.1984L416.781 68.4176L418.37 87.6432ZM420.833 96.9093L421.12 96.8991C423.087 96.8289 424.084 96.0139 424.01 93.9652L423.993 93.4735C423.92 91.4248 422.868 90.6828 420.901 90.753L420.614 90.7632C418.647 90.8334 417.651 91.6484 417.724 93.6971L417.741 94.1888C417.815 96.2375 418.867 96.9795 420.833 96.9093Z" fill="white"/>
<path d="M12.7392 39.1796L12.4524 39.1898C10.4856 39.2599 9.48905 40.075 9.56212 42.1237L9.57965 42.6154C9.65272 44.6641 10.7048 45.406 12.6716 45.3359L12.9584 45.3257C14.9251 45.2555 15.9217 44.4405 15.8487 42.3918L15.8311 41.9001C15.7581 39.8514 14.706 39.1094 12.7392 39.1796ZM15.203 48.4456L10.8598 48.6005L10.6452 67.8904L16.7913 67.6713L15.203 48.4456ZM34.3125 59.6617C36.6071 59.5799 39.667 59.1015 41.3294 58.5499L40.5072 53.9022C38.8799 54.2885 36.7171 54.6118 35.3649 54.66C32.2099 54.7725 30.4261 54.2207 29.1472 52.8715C27.6986 51.3641 26.9846 48.5998 26.8662 45.2809C26.6675 39.7085 27.9189 35.6843 33.942 35.4695C35.7039 35.4067 37.8068 35.7009 40.0003 36.2381L40.6532 31.5378C38.824 30.8646 35.691 30.443 33.2735 30.5292C23.6856 30.8711 19.9216 36.9131 20.2343 45.6816C20.4082 50.5575 21.5626 54.1676 24.0297 56.6233C26.1983 58.7613 29.3547 59.8385 34.3125 59.6617ZM52.5342 27.2987L60.6517 21.3886L57.6447 17.5984L50.3949 24.8314L52.5342 27.2987ZM43.8095 58.7486L49.9147 58.5309L51.8349 51.4059L60.9312 51.0815L63.518 58.0457L70.3607 57.8017L59.2406 30.1365L52.1931 30.3878L43.8095 58.7486ZM53.1449 46.7233L55.7209 37.2774L55.8028 37.2745L59.209 46.507L53.1449 46.7233ZM73.1962 57.7006L78.5638 57.5092L77.9822 41.2015L84.318 50.9039L89.2349 50.7285L94.7054 40.7692L95.2812 56.913L101.14 56.704L100.141 28.6778L95.224 28.8532L86.6451 44.8311L77.2365 29.4947L72.1967 29.6744L73.1962 57.7006ZM106.798 56.5022L116.755 56.1471C121.098 55.9922 123.818 55.1978 125.564 53.5355C127.032 52.1293 127.781 50.1333 127.685 47.429C127.553 43.7414 125.004 41.2887 121.504 40.9212C124.039 39.5179 125.322 37.544 125.22 34.6758C125.147 32.6271 124.392 31.013 123.082 29.952C121.392 28.5763 118.91 28.0084 114.936 28.1502L105.799 28.476L106.798 56.5022ZM112.588 39.393L112.356 32.8781L114.691 32.7948C116.412 32.7335 117.403 32.9033 118.039 33.496C118.591 34.0096 118.864 34.7794 118.901 35.8037C118.942 36.951 118.684 37.7807 118.171 38.3323C117.497 39.0128 116.521 39.2527 114.76 39.3155L112.588 39.393ZM113.025 51.6442L112.753 44.023L115.375 43.9295C117.67 43.8477 118.988 44.0058 119.875 44.7126C120.635 45.3009 120.997 46.2726 121.052 47.7887C121.092 48.9359 120.794 49.7671 120.241 50.3612C119.49 51.1675 118.024 51.4659 115.647 51.5507L113.025 51.6442ZM132.319 55.592L138.711 55.3641L137.711 27.3379L131.32 27.5659L132.319 55.592ZM141.604 55.2609L147.71 55.0432L149.63 47.9182L158.726 47.5938L161.313 54.558L168.156 54.314L157.035 26.6487L149.988 26.9001L141.604 55.2609ZM150.94 43.2355L153.516 33.7897L153.598 33.7868L157.004 43.0193L150.94 43.2355ZM175.178 54.0635L181.57 53.8355L180.736 30.4394L189.218 30.1369L189.544 25.4893L165.492 26.3471L165.658 30.9772L174.344 30.6674L175.178 54.0635ZM193.469 53.4112L212.604 52.7288L212.439 48.0987L199.696 48.5532L199.44 41.3827L209.069 41.0393L208.898 36.2454L199.269 36.5888L199.027 29.7871L211.073 29.3575L211.4 24.7099L192.47 25.385L193.469 53.4112ZM235.369 52.4912C243.769 52.1917 246.329 45.7413 246.037 37.5466C245.744 29.3518 242.73 23.0592 234.33 23.3588C225.931 23.6583 223.373 30.1496 223.665 38.3444C223.957 46.5392 226.97 52.7908 235.369 52.4912ZM235.257 49.3362C229.48 49.5423 227.721 45.0921 227.475 38.2085C227.23 31.3249 228.666 26.7198 234.443 26.5137C240.22 26.3077 241.981 30.7988 242.226 37.6825C242.472 44.5661 241.034 49.1302 235.257 49.3362ZM259.413 51.0594L265.805 50.8314L265.443 40.6699L268.966 40.5442L274.492 50.5216L281.703 50.2644L275.246 39.4587C278.348 37.8711 279.838 34.7821 279.702 30.9715C279.597 28.0214 278.62 25.9229 277.137 24.6219C275.232 22.9667 272.55 22.5291 268.043 22.6898L258.414 23.0332L259.413 51.0594ZM265.278 36.0398L264.971 27.4353L267.839 27.333C269.929 27.2585 271.289 27.4561 272.137 28.2054C272.816 28.8376 273.18 29.8502 273.231 31.2843C273.287 32.8413 272.962 34.0837 272.167 34.8095C271.372 35.5353 270.235 35.863 268.105 35.939L265.278 36.0398ZM285.573 50.1264L304.707 49.444L304.542 44.814L291.799 45.2684L291.544 38.098L301.172 37.7546L301.002 32.9606L291.373 33.304L291.13 26.5023L303.176 26.0727L303.503 21.4251L284.573 22.1003L285.573 50.1264ZM309.051 49.2891L314.664 49.0889L314.058 32.0847L327.53 48.6301L332.652 48.4474L331.652 20.4212L326.039 20.6214L326.679 38.568L312.763 21.0949L308.051 21.2629L309.051 49.2891ZM349.58 48.4181C353.185 48.2895 356.304 47.1526 358.085 45.325C360.065 43.3261 360.659 40.4331 360.532 36.8684L359.909 19.4135L354.255 19.6151L354.889 37.3978C354.967 39.5694 354.65 41.0577 353.702 42.0761C352.874 43.0082 351.536 43.4662 349.692 43.5319C347.849 43.5977 346.439 43.1967 345.547 42.3259C344.528 41.3776 344.106 39.8747 344.03 37.7441L343.397 20.0024L337.046 20.2289L337.679 37.9706C337.822 41.986 338.766 44.2909 340.674 46.028C342.624 47.8046 345.687 48.5569 349.58 48.4181ZM366.331 47.2463L385.466 46.5639L385.301 41.9338L372.558 42.3883L372.302 35.2178L381.931 34.8744L381.76 30.0805L372.131 30.4239L371.889 23.6222L383.935 23.1926L384.262 18.545L365.332 19.2201L366.331 47.2463ZM397.021 46.1518L403.7 45.9136L412.001 17.5557L405.773 17.7778L400.393 38.3186L393.112 18.2293L386.27 18.4734L397.021 46.1518ZM411.581 45.6325L417.686 45.4148L419.607 38.2898L428.703 37.9654L431.29 44.9296L438.132 44.6856L427.012 17.0203L419.965 17.2717L411.581 45.6325ZM420.916 33.6071L423.492 24.1613L423.574 24.1584L426.981 33.3909L420.916 33.6071ZM31.7739 110.21L38.1658 109.982L37.3314 86.5862L45.813 86.2837L46.1396 81.6361L22.0879 82.4939L22.253 87.124L30.9395 86.8142L31.7739 110.21ZM61.3529 109.73C64.9586 109.601 68.0771 108.464 69.858 106.637C71.8381 104.638 72.4323 101.745 72.3052 98.1801L71.6827 80.7252L66.0283 80.9268L66.6625 98.7095C66.7399 100.881 66.4238 102.369 65.4755 103.388C64.6472 104.32 63.3096 104.778 61.4658 104.844C59.622 104.909 58.2128 104.508 57.3202 103.638C56.3017 102.689 55.8789 101.186 55.8029 99.0558L55.1702 81.3141L48.8192 81.5406L49.452 99.2823C49.5952 103.298 50.5389 105.603 52.447 107.34C54.3976 109.116 57.4604 109.869 61.3529 109.73ZM99.2925 108.377C101.587 108.295 104.647 107.816 106.309 107.265L105.487 102.617C103.86 103.003 101.697 103.327 100.345 103.375C97.1899 103.488 95.4061 102.936 94.1272 101.586C92.6786 100.079 91.9646 97.3148 91.8463 93.9959C91.6475 88.4235 92.8989 84.3993 98.9221 84.1845C100.684 84.1217 102.787 84.4159 104.98 84.9531L105.633 80.2528C103.804 79.5796 100.671 79.158 98.2536 79.2442C88.6656 79.5861 84.9016 85.6281 85.2143 94.3966C85.3882 99.2725 86.5426 102.883 89.0097 105.338C91.1783 107.476 94.3347 108.553 99.2925 108.377ZM110.616 107.398L129.751 106.716L129.586 102.086L116.843 102.54L116.587 95.37L126.216 95.0266L126.045 90.2326L116.417 90.576L116.174 83.7744L128.22 83.3448L128.547 78.6972L109.617 79.3723L110.616 107.398ZM134.095 106.561L152.902 105.89L152.737 101.26L140.322 101.703L139.487 78.307L133.095 78.535L134.095 106.561ZM164.575 105.474L180.882 104.893L180.78 102.024L168.119 102.476L167.768 92.6421L177.561 92.2929L177.456 89.3428L167.663 89.692L167.324 80.186L179.411 79.755L179.637 76.8751L163.575 77.4479L164.575 105.474ZM192.959 105.036C196.196 104.921 198.668 104.053 200.291 102.395C201.637 101.034 202.388 99.0793 202.3 96.6209C201.958 87.033 187.613 89.719 187.385 83.327C187.278 80.3359 189.57 79.0234 193.381 78.8875C195.224 78.8218 197.406 79.0311 199.474 79.4907L199.907 76.6855C197.958 76.0986 195.403 75.7795 192.986 75.8657C187.413 76.0644 183.775 78.7378 183.952 83.6956C184.295 93.3245 198.579 90.0664 198.831 97.1139C198.885 98.6299 198.392 99.7552 197.436 100.569C196.36 101.469 194.818 101.934 192.523 102.016C190.27 102.096 187.63 101.698 185.477 101.159L184.962 103.968C187.123 104.752 190.378 105.128 192.959 105.036ZM212.723 103.757L216.369 103.627L215.472 78.4689L224.24 78.1562L224.466 75.2763L202.791 76.0493L202.893 78.9175L211.825 78.599L212.723 103.757ZM229.208 103.169L245.515 102.587L245.413 99.7193L232.752 100.171L232.402 90.3371L242.194 89.9878L242.089 87.0377L232.296 87.3869L231.957 77.881L244.045 77.4499L244.27 74.57L228.208 75.1429L229.208 103.169ZM265.361 101.88L272.04 101.641L280.342 73.2836L274.114 73.5057L268.733 94.0465L261.453 73.9572L254.61 74.2013L265.361 101.88ZM284.469 101.198L303.604 100.516L303.439 95.8857L290.696 96.3402L290.44 89.1698L300.069 88.8263L299.898 84.0324L290.269 84.3758L290.027 77.5741L302.073 77.1445L302.4 72.4969L283.47 73.172L284.469 101.198ZM307.948 100.361L314.34 100.133L313.977 89.9714L317.501 89.8457L323.026 99.8231L330.237 99.5659L323.78 88.7602C326.883 87.1726 328.372 84.0836 328.237 80.273C328.131 77.3229 327.154 75.2244 325.672 73.9234C323.766 72.2682 321.084 71.8306 316.577 71.9913L306.948 72.3347L307.948 100.361ZM313.812 85.3413L313.505 76.7368L316.373 76.6345C318.463 76.56 319.824 76.7576 320.671 77.5069C321.35 78.1391 321.714 79.1517 321.766 80.5858C321.821 82.1428 321.496 83.3852 320.702 84.111C319.907 84.8368 318.77 85.1645 316.639 85.2405L313.812 85.3413ZM331.28 99.5288L337.385 99.311L339.305 92.1861L348.401 91.8617L350.988 98.8259L357.831 98.5819L346.711 70.9166L339.663 71.168L331.28 99.5288ZM340.615 87.5034L343.191 78.0576L343.273 78.0547L346.679 87.2871L340.615 87.5034ZM360.666 98.4807L366.28 98.2805L365.673 81.2763L379.146 97.8217L384.267 97.639L383.268 69.6128L377.654 69.813L378.294 87.7596L364.379 70.2865L359.667 70.4545L360.666 98.4807ZM401.154 97.6112C409.718 97.3057 413.388 92.0876 413.05 82.6226C412.713 73.1576 408.679 68.1733 400.115 68.4787C391.551 68.7841 387.883 74.0432 388.22 83.5082C388.558 92.9732 392.59 97.9166 401.154 97.6112ZM400.976 92.6123C396.837 92.7599 395.099 90.0321 394.858 83.2714C394.617 76.5107 396.155 73.6251 400.293 73.4775C404.432 73.3299 406.171 76.0987 406.413 82.8594C406.654 89.6201 405.114 92.4647 400.976 92.6123ZM418.37 87.6432L422.713 87.4883L422.927 68.1984L416.781 68.4176L418.37 87.6432ZM420.833 96.9093L421.12 96.8991C423.087 96.8289 424.084 96.0139 424.01 93.9652L423.993 93.4735C423.92 91.4248 422.868 90.6828 420.901 90.753L420.614 90.7632C418.647 90.8334 417.651 91.6484 417.724 93.6971L417.741 94.1888C417.815 96.2375 418.867 96.9795 420.833 96.9093Z" fill="white"/>
<path d="M12.7392 39.1796L12.4524 39.1898C10.4856 39.2599 9.48905 40.075 9.56212 42.1237L9.57965 42.6154C9.65272 44.6641 10.7048 45.406 12.6716 45.3359L12.9584 45.3257C14.9251 45.2555 15.9217 44.4405 15.8487 42.3918L15.8311 41.9001C15.7581 39.8514 14.706 39.1094 12.7392 39.1796ZM15.203 48.4456L10.8598 48.6005L10.6452 67.8904L16.7913 67.6713L15.203 48.4456ZM34.3125 59.6617C36.6071 59.5799 39.667 59.1015 41.3294 58.5499L40.5072 53.9022C38.8799 54.2885 36.7171 54.6118 35.3649 54.66C32.2099 54.7725 30.4261 54.2207 29.1472 52.8715C27.6986 51.3641 26.9846 48.5998 26.8662 45.2809C26.6675 39.7085 27.9189 35.6843 33.942 35.4695C35.7039 35.4067 37.8068 35.7009 40.0003 36.2381L40.6532 31.5378C38.824 30.8646 35.691 30.443 33.2735 30.5292C23.6856 30.8711 19.9216 36.9131 20.2343 45.6816C20.4082 50.5575 21.5626 54.1676 24.0297 56.6233C26.1983 58.7613 29.3547 59.8385 34.3125 59.6617ZM52.5342 27.2987L60.6517 21.3886L57.6447 17.5984L50.3949 24.8314L52.5342 27.2987ZM43.8095 58.7486L49.9147 58.5309L51.8349 51.4059L60.9312 51.0815L63.518 58.0457L70.3607 57.8017L59.2406 30.1365L52.1931 30.3878L43.8095 58.7486ZM53.1449 46.7233L55.7209 37.2774L55.8028 37.2745L59.209 46.507L53.1449 46.7233ZM73.1962 57.7006L78.5638 57.5092L77.9822 41.2015L84.318 50.9039L89.2349 50.7285L94.7054 40.7692L95.2812 56.913L101.14 56.704L100.141 28.6778L95.224 28.8532L86.6451 44.8311L77.2365 29.4947L72.1967 29.6744L73.1962 57.7006ZM106.798 56.5022L116.755 56.1471C121.098 55.9922 123.818 55.1978 125.564 53.5355C127.032 52.1293 127.781 50.1333 127.685 47.429C127.553 43.7414 125.004 41.2887 121.504 40.9212C124.039 39.5179 125.322 37.544 125.22 34.6758C125.147 32.6271 124.392 31.013 123.082 29.952C121.392 28.5763 118.91 28.0084 114.936 28.1502L105.799 28.476L106.798 56.5022ZM112.588 39.393L112.356 32.8781L114.691 32.7948C116.412 32.7335 117.403 32.9033 118.039 33.496C118.591 34.0096 118.864 34.7794 118.901 35.8037C118.942 36.951 118.684 37.7807 118.171 38.3323C117.497 39.0128 116.521 39.2527 114.76 39.3155L112.588 39.393ZM113.025 51.6442L112.753 44.023L115.375 43.9295C117.67 43.8477 118.988 44.0058 119.875 44.7126C120.635 45.3009 120.997 46.2726 121.052 47.7887C121.092 48.9359 120.794 49.7671 120.241 50.3612C119.49 51.1675 118.024 51.4659 115.647 51.5507L113.025 51.6442ZM132.319 55.592L138.711 55.3641L137.711 27.3379L131.32 27.5659L132.319 55.592ZM141.604 55.2609L147.71 55.0432L149.63 47.9182L158.726 47.5938L161.313 54.558L168.156 54.314L157.035 26.6487L149.988 26.9001L141.604 55.2609ZM150.94 43.2355L153.516 33.7897L153.598 33.7868L157.004 43.0193L150.94 43.2355ZM175.178 54.0635L181.57 53.8355L180.736 30.4394L189.218 30.1369L189.544 25.4893L165.492 26.3471L165.658 30.9772L174.344 30.6674L175.178 54.0635ZM193.469 53.4112L212.604 52.7288L212.439 48.0987L199.696 48.5532L199.44 41.3827L209.069 41.0393L208.898 36.2454L199.269 36.5888L199.027 29.7871L211.073 29.3575L211.4 24.7099L192.47 25.385L193.469 53.4112ZM235.369 52.4912C243.769 52.1917 246.329 45.7413 246.037 37.5466C245.744 29.3518 242.73 23.0592 234.33 23.3588C225.931 23.6583 223.373 30.1496 223.665 38.3444C223.957 46.5392 226.97 52.7908 235.369 52.4912ZM235.257 49.3362C229.48 49.5423 227.721 45.0921 227.475 38.2085C227.23 31.3249 228.666 26.7198 234.443 26.5137C240.22 26.3077 241.981 30.7988 242.226 37.6825C242.472 44.5661 241.034 49.1302 235.257 49.3362ZM259.413 51.0594L265.805 50.8314L265.443 40.6699L268.966 40.5442L274.492 50.5216L281.703 50.2644L275.246 39.4587C278.348 37.8711 279.838 34.7821 279.702 30.9715C279.597 28.0214 278.62 25.9229 277.137 24.6219C275.232 22.9667 272.55 22.5291 268.043 22.6898L258.414 23.0332L259.413 51.0594ZM265.278 36.0398L264.971 27.4353L267.839 27.333C269.929 27.2585 271.289 27.4561 272.137 28.2054C272.816 28.8376 273.18 29.8502 273.231 31.2843C273.287 32.8413 272.962 34.0837 272.167 34.8095C271.372 35.5353 270.235 35.863 268.105 35.939L265.278 36.0398ZM285.573 50.1264L304.707 49.444L304.542 44.814L291.799 45.2684L291.544 38.098L301.172 37.7546L301.002 32.9606L291.373 33.304L291.13 26.5023L303.176 26.0727L303.503 21.4251L284.573 22.1003L285.573 50.1264ZM309.051 49.2891L314.664 49.0889L314.058 32.0847L327.53 48.6301L332.652 48.4474L331.652 20.4212L326.039 20.6214L326.679 38.568L312.763 21.0949L308.051 21.2629L309.051 49.2891ZM349.58 48.4181C353.185 48.2895 356.304 47.1526 358.085 45.325C360.065 43.3261 360.659 40.4331 360.532 36.8684L359.909 19.4135L354.255 19.6151L354.889 37.3978C354.967 39.5694 354.65 41.0577 353.702 42.0761C352.874 43.0082 351.536 43.4662 349.692 43.5319C347.849 43.5977 346.439 43.1967 345.547 42.3259C344.528 41.3776 344.106 39.8747 344.03 37.7441L343.397 20.0024L337.046 20.2289L337.679 37.9706C337.822 41.986 338.766 44.2909 340.674 46.028C342.624 47.8046 345.687 48.5569 349.58 48.4181ZM366.331 47.2463L385.466 46.5639L385.301 41.9338L372.558 42.3883L372.302 35.2178L381.931 34.8744L381.76 30.0805L372.131 30.4239L371.889 23.6222L383.935 23.1926L384.262 18.545L365.332 19.2201L366.331 47.2463ZM397.021 46.1518L403.7 45.9136L412.001 17.5557L405.773 17.7778L400.393 38.3186L393.112 18.2293L386.27 18.4734L397.021 46.1518ZM411.581 45.6325L417.686 45.4148L419.607 38.2898L428.703 37.9654L431.29 44.9296L438.132 44.6856L427.012 17.0203L419.965 17.2717L411.581 45.6325ZM420.916 33.6071L423.492 24.1613L423.574 24.1584L426.981 33.3909L420.916 33.6071ZM31.7739 110.21L38.1658 109.982L37.3314 86.5862L45.813 86.2837L46.1396 81.6361L22.0879 82.4939L22.253 87.124L30.9395 86.8142L31.7739 110.21ZM61.3529 109.73C64.9586 109.601 68.0771 108.464 69.858 106.637C71.8381 104.638 72.4323 101.745 72.3052 98.1801L71.6827 80.7252L66.0283 80.9268L66.6625 98.7095C66.7399 100.881 66.4238 102.369 65.4755 103.388C64.6472 104.32 63.3096 104.778 61.4658 104.844C59.622 104.909 58.2128 104.508 57.3202 103.638C56.3017 102.689 55.8789 101.186 55.8029 99.0558L55.1702 81.3141L48.8192 81.5406L49.452 99.2823C49.5952 103.298 50.5389 105.603 52.447 107.34C54.3976 109.116 57.4604 109.869 61.3529 109.73ZM99.2925 108.377C101.587 108.295 104.647 107.816 106.309 107.265L105.487 102.617C103.86 103.003 101.697 103.327 100.345 103.375C97.1899 103.488 95.4061 102.936 94.1272 101.586C92.6786 100.079 91.9646 97.3148 91.8463 93.9959C91.6475 88.4235 92.8989 84.3993 98.9221 84.1845C100.684 84.1217 102.787 84.4159 104.98 84.9531L105.633 80.2528C103.804 79.5796 100.671 79.158 98.2536 79.2442C88.6656 79.5861 84.9016 85.6281 85.2143 94.3966C85.3882 99.2725 86.5426 102.883 89.0097 105.338C91.1783 107.476 94.3347 108.553 99.2925 108.377ZM110.616 107.398L129.751 106.716L129.586 102.086L116.843 102.54L116.587 95.37L126.216 95.0266L126.045 90.2326L116.417 90.576L116.174 83.7744L128.22 83.3448L128.547 78.6972L109.617 79.3723L110.616 107.398ZM134.095 106.561L152.902 105.89L152.737 101.26L140.322 101.703L139.487 78.307L133.095 78.535L134.095 106.561ZM164.575 105.474L180.882 104.893L180.78 102.024L168.119 102.476L167.768 92.6421L177.561 92.2929L177.456 89.3428L167.663 89.692L167.324 80.186L179.411 79.755L179.637 76.8751L163.575 77.4479L164.575 105.474ZM192.959 105.036C196.196 104.921 198.668 104.053 200.291 102.395C201.637 101.034 202.388 99.0793 202.3 96.6209C201.958 87.033 187.613 89.719 187.385 83.327C187.278 80.3359 189.57 79.0234 193.381 78.8875C195.224 78.8218 197.406 79.0311 199.474 79.4907L199.907 76.6855C197.958 76.0986 195.403 75.7795 192.986 75.8657C187.413 76.0644 183.775 78.7378 183.952 83.6956C184.295 93.3245 198.579 90.0664 198.831 97.1139C198.885 98.6299 198.392 99.7552 197.436 100.569C196.36 101.469 194.818 101.934 192.523 102.016C190.27 102.096 187.63 101.698 185.477 101.159L184.962 103.968C187.123 104.752 190.378 105.128 192.959 105.036ZM212.723 103.757L216.369 103.627L215.472 78.4689L224.24 78.1562L224.466 75.2763L202.791 76.0493L202.893 78.9175L211.825 78.599L212.723 103.757ZM229.208 103.169L245.515 102.587L245.413 99.7193L232.752 100.171L232.402 90.3371L242.194 89.9878L242.089 87.0377L232.296 87.3869L231.957 77.881L244.045 77.4499L244.27 74.57L228.208 75.1429L229.208 103.169ZM265.361 101.88L272.04 101.641L280.342 73.2836L274.114 73.5057L268.733 94.0465L261.453 73.9572L254.61 74.2013L265.361 101.88ZM284.469 101.198L303.604 100.516L303.439 95.8857L290.696 96.3402L290.44 89.1698L300.069 88.8263L299.898 84.0324L290.269 84.3758L290.027 77.5741L302.073 77.1445L302.4 72.4969L283.47 73.172L284.469 101.198ZM307.948 100.361L314.34 100.133L313.977 89.9714L317.501 89.8457L323.026 99.8231L330.237 99.5659L323.78 88.7602C326.883 87.1726 328.372 84.0836 328.237 80.273C328.131 77.3229 327.154 75.2244 325.672 73.9234C323.766 72.2682 321.084 71.8306 316.577 71.9913L306.948 72.3347L307.948 100.361ZM313.812 85.3413L313.505 76.7368L316.373 76.6345C318.463 76.56 319.824 76.7576 320.671 77.5069C321.35 78.1391 321.714 79.1517 321.766 80.5858C321.821 82.1428 321.496 83.3852 320.702 84.111C319.907 84.8368 318.77 85.1645 316.639 85.2405L313.812 85.3413ZM331.28 99.5288L337.385 99.311L339.305 92.1861L348.401 91.8617L350.988 98.8259L357.831 98.5819L346.711 70.9166L339.663 71.168L331.28 99.5288ZM340.615 87.5034L343.191 78.0576L343.273 78.0547L346.679 87.2871L340.615 87.5034ZM360.666 98.4807L366.28 98.2805L365.673 81.2763L379.146 97.8217L384.267 97.639L383.268 69.6128L377.654 69.813L378.294 87.7596L364.379 70.2865L359.667 70.4545L360.666 98.4807ZM401.154 97.6112C409.718 97.3057 413.388 92.0876 413.05 82.6226C412.713 73.1576 408.679 68.1733 400.115 68.4787C391.551 68.7841 387.883 74.0432 388.22 83.5082C388.558 92.9732 392.59 97.9166 401.154 97.6112ZM400.976 92.6123C396.837 92.7599 395.099 90.0321 394.858 83.2714C394.617 76.5107 396.155 73.6251 400.293 73.4775C404.432 73.3299 406.171 76.0987 406.413 82.8594C406.654 89.6201 405.114 92.4647 400.976 92.6123ZM418.37 87.6432L422.713 87.4883L422.927 68.1984L416.781 68.4176L418.37 87.6432ZM420.833 96.9093L421.12 96.8991C423.087 96.8289 424.084 96.0139 424.01 93.9652L423.993 93.4735C423.92 91.4248 422.868 90.6828 420.901 90.753L420.614 90.7632C418.647 90.8334 417.651 91.6484 417.724 93.6971L417.741 94.1888C417.815 96.2375 418.867 96.9795 420.833 96.9093Z" fill="white"/>
</svg>
