<svg width="463" height="116" viewBox="0 0 463 116" fill="none" xmlns="http://www.w3.org/2000/svg">
<path d="M4.30617 37.7691L3.99837 37.78C1.88771 37.8553 0.818205 38.73 0.896615 40.9286L0.915434 41.4563C0.993844 43.6549 2.12294 44.4511 4.2336 44.3759L4.5414 44.3649C6.65206 44.2896 7.72157 43.4149 7.64316 41.2163L7.62434 40.6887C7.54593 38.4901 6.41683 37.6938 4.30617 37.7691ZM6.95027 47.7131L2.28923 47.8794L2.05891 68.5807L8.65472 68.3455L6.95027 47.7131ZM27.458 59.7499C29.9205 59.6621 33.2042 59.1487 34.9883 58.5567L34.106 53.569C32.3596 53.9835 30.0385 54.3305 28.5874 54.3822C25.2016 54.503 23.2873 53.9108 21.9148 52.4628C20.3601 50.8452 19.5939 47.8786 19.4669 44.3169C19.2536 38.3367 20.5966 34.0181 27.0604 33.7875C28.9512 33.7201 31.2079 34.0359 33.562 34.6124L34.2626 29.5682C32.2996 28.8457 28.9374 28.3932 26.343 28.4858C16.0536 28.8527 12.0141 35.3368 12.3497 44.7468C12.5363 49.9795 13.7752 53.8538 16.4228 56.4891C18.7501 58.7836 22.1374 59.9396 27.458 59.7499ZM47.013 25.0188L55.7244 18.6763L52.4974 14.6088L44.7171 22.371L47.013 25.0188ZM37.6499 58.77L44.2018 58.5363L46.2626 50.89L56.0244 50.5419L58.8005 58.0157L66.1438 57.7538L54.2101 28.0643L46.6469 28.334L37.6499 58.77ZM47.6684 45.8647L50.4328 35.7278L50.5208 35.7246L54.1762 45.6326L47.6684 45.8647ZM69.1868 57.6453L74.9472 57.4398L74.323 39.939L81.1225 50.3512L86.3991 50.1631L92.2699 39.475L92.8878 56.8L99.1758 56.5758L98.1031 26.4989L92.8265 26.6871L83.6198 43.8341L73.5227 27.3755L68.1142 27.5684L69.1868 57.6453ZM105.247 56.3592L115.933 55.9781C120.594 55.8119 123.513 54.9593 125.387 53.1754C126.962 51.6663 127.766 49.5243 127.663 46.6221C127.521 42.6646 124.786 40.0325 121.029 39.6381C123.749 38.1322 125.127 36.0138 125.017 32.9357C124.939 30.7371 124.128 29.0049 122.723 27.8663C120.909 26.39 118.246 25.7805 113.98 25.9326L104.175 26.2823L105.247 56.3592ZM111.461 37.9981L111.212 31.0065L113.718 30.9172C115.565 30.8513 116.628 31.0335 117.311 31.6696C117.903 32.2208 118.197 33.0469 118.236 34.1462C118.28 35.3774 118.003 36.2678 117.452 36.8598C116.73 37.5901 115.682 37.8475 113.791 37.915L111.461 37.9981ZM111.93 51.1457L111.638 42.9669L114.452 42.8666C116.915 42.7788 118.33 42.9484 119.281 43.707C120.096 44.3383 120.486 45.3811 120.544 47.0081C120.588 48.2393 120.267 49.1313 119.674 49.7689C118.868 50.6341 117.294 50.9544 114.744 51.0454L111.93 51.1457ZM132.636 55.3824L139.495 55.1378L138.423 25.0609L131.563 25.3056L132.636 55.3824ZM142.601 55.0271L149.152 54.7934L151.213 47.1471L160.975 46.799L163.751 54.2728L171.094 54.0109L159.161 24.3213L151.598 24.5911L142.601 55.0271ZM152.619 42.1218L155.383 31.9848L155.471 31.9817L159.127 41.8897L152.619 42.1218ZM178.631 53.7421L185.491 53.4974L184.595 28.3894L193.698 28.0648L194.048 23.0771L168.236 23.9977L168.414 28.9665L177.736 28.634L178.631 53.7421ZM198.26 53.042L218.795 52.3097L218.618 47.3408L204.943 47.8285L204.668 40.1334L215.002 39.7649L214.818 34.6202L204.485 34.9887L204.224 27.6893L217.152 27.2283L217.503 22.2406L197.188 22.9651L198.26 53.042ZM243.226 52.0548C252.241 51.7333 254.988 44.811 254.674 36.0166C254.36 27.2221 251.126 20.4691 242.111 20.7906C233.097 21.1121 230.352 28.0784 230.665 36.8728C230.979 45.6672 234.212 52.3762 243.226 52.0548ZM243.106 48.6689C236.906 48.89 235.018 44.1143 234.755 36.727C234.491 29.3397 236.032 24.3976 242.232 24.1765C248.432 23.9554 250.321 28.7751 250.585 36.1624C250.848 43.5497 249.306 48.4478 243.106 48.6689ZM269.029 50.5181L275.889 50.2735L275.5 39.3684L279.282 39.2336L285.211 49.941L292.95 49.665L286.021 38.0686C289.35 36.3649 290.949 33.0498 290.803 28.9604C290.69 25.7944 289.641 23.5424 288.05 22.1462C286.006 20.3699 283.127 19.9002 278.29 20.0727L267.957 20.4412L269.029 50.5181ZM275.323 34.3996L274.994 25.1654L278.072 25.0557C280.314 24.9757 281.775 25.1878 282.684 25.9919C283.413 26.6703 283.804 27.7571 283.859 29.2961C283.918 30.9671 283.569 32.3003 282.717 33.0792C281.864 33.8581 280.644 34.2098 278.357 34.2914L275.323 34.3996ZM297.103 49.5169L317.638 48.7846L317.461 43.8157L303.785 44.3034L303.511 36.6083L313.844 36.2398L313.661 31.0951L303.327 31.4636L303.067 24.1642L315.995 23.7032L316.345 18.7155L296.03 19.44L297.103 49.5169ZM322.299 48.6183L328.323 48.4035L327.673 30.1551L342.131 47.9111L347.627 47.715L346.554 17.6382L340.53 17.853L341.217 37.1128L326.283 18.3611L321.227 18.5414L322.299 48.6183ZM365.793 47.6836C369.663 47.5456 373.01 46.3255 374.921 44.3641C377.046 42.219 377.683 39.1143 377.547 35.2888L376.879 16.5567L370.811 16.7731L371.491 35.857C371.575 38.1875 371.235 39.7846 370.218 40.8775C369.329 41.8779 367.893 42.3693 365.915 42.4399C363.936 42.5105 362.423 42.0801 361.466 41.1456C360.373 40.128 359.919 38.5151 359.837 36.2286L359.158 17.1887L352.343 17.4317L353.022 36.4716C353.175 40.7809 354.188 43.2544 356.236 45.1186C358.329 47.0252 361.616 47.8325 365.793 47.6836ZM383.771 46.426L404.306 45.6937L404.128 40.7248L390.453 41.2125L390.179 33.5174L400.512 33.1489L400.329 28.0042L389.995 28.3727L389.735 21.0733L402.663 20.6123L403.013 15.6246L382.698 16.3491L383.771 46.426ZM416.706 45.2514L423.874 44.9958L432.783 14.5629L426.099 14.8013L420.325 36.8451L412.511 15.2859L405.168 15.5478L416.706 45.2514ZM432.332 44.6942L438.884 44.4605L440.944 36.8142L450.706 36.466L453.482 43.9398L460.826 43.678L448.892 13.9884L441.329 14.2582L432.332 44.6942ZM442.35 31.7889L445.115 21.6519L445.202 21.6488L448.858 31.5568L442.35 31.7889ZM24.7432 114.265L31.6028 114.021L30.7074 88.9126L39.8096 88.588L40.1601 83.6003L14.3485 84.5209L14.5257 89.4897L23.8477 89.1572L24.7432 114.265ZM56.4865 113.75C60.3561 113.612 63.7027 112.392 65.614 110.43C67.7389 108.285 68.3767 105.18 68.2402 101.355L67.5722 82.6227L61.504 82.8391L62.1846 101.923C62.2677 104.253 61.9284 105.851 60.9107 106.944C60.0218 107.944 58.5864 108.435 56.6077 108.506C54.629 108.576 53.1167 108.146 52.1587 107.212C51.0658 106.194 50.612 104.581 50.5305 102.295L49.8514 83.2547L43.0358 83.4978L43.7148 102.538C43.8685 106.847 44.8813 109.32 46.929 111.185C49.0223 113.091 52.3092 113.899 56.4865 113.75ZM97.2022 112.298C99.6647 112.21 102.948 111.696 104.732 111.104L103.85 106.117C102.104 106.531 99.7827 106.878 98.3316 106.93C94.9458 107.051 93.0315 106.458 91.659 105.01C90.1043 103.393 89.3381 100.426 89.2111 96.8645C88.9978 90.8843 90.3408 86.5657 96.8046 86.3352C98.6954 86.2677 100.952 86.5835 103.306 87.16L104.007 82.1158C102.044 81.3933 98.6816 80.9409 96.0872 81.0334C85.7978 81.4003 81.7583 87.8844 82.0939 97.2944C82.2805 102.527 83.5194 106.401 86.167 109.037C88.4943 111.331 91.8816 112.487 97.2022 112.298ZM109.355 111.248L129.89 110.515L129.712 105.547L116.037 106.034L115.763 98.3391L126.096 97.9706L125.913 92.8259L115.579 93.1944L115.319 85.895L128.247 85.434L128.597 80.4463L108.282 81.1708L109.355 111.248ZM134.551 110.349L154.734 109.629L154.557 104.66L141.233 105.136L140.338 80.0276L133.478 80.2722L134.551 110.349ZM167.261 109.183L184.762 108.558L184.652 105.48L171.065 105.965L170.688 95.4116L181.198 95.0368L181.085 91.8708L170.576 92.2457L170.212 82.0441L183.183 81.5815L183.425 78.4909L166.188 79.1057L167.261 109.183ZM197.723 108.713C201.196 108.589 203.849 107.658 205.591 105.878C207.036 104.418 207.841 102.32 207.747 99.6815C207.38 89.3921 191.985 92.2746 191.741 85.415C191.626 82.205 194.085 80.7965 198.175 80.6506C200.154 80.58 202.495 80.8047 204.714 81.298L205.179 78.2875C203.087 77.6576 200.345 77.3151 197.751 77.4077C191.771 77.6209 187.867 80.4899 188.056 85.8105C188.425 96.144 203.754 92.6474 204.024 100.211C204.082 101.838 203.552 103.045 202.527 103.918C201.373 104.884 199.717 105.383 197.255 105.471C194.836 105.557 192.003 105.13 189.693 104.552L189.14 107.566C191.46 108.408 194.952 108.811 197.723 108.713ZM218.932 107.34L222.845 107.2L221.883 80.2014L231.293 79.8658L231.535 76.7752L208.273 77.6048L208.383 80.6828L217.969 80.3409L218.932 107.34ZM236.624 106.709L254.124 106.085L254.015 103.007L240.427 103.491L240.051 92.9379L250.56 92.5631L250.447 89.3971L239.938 89.7719L239.574 79.5704L252.546 79.1078L252.788 76.0172L235.551 76.6319L236.624 106.709ZM275.422 105.325L282.59 105.069L291.499 74.6366L284.815 74.875L279.041 96.9188L271.228 75.3596L263.884 75.6215L275.422 105.325ZM295.928 104.594L316.463 103.861L316.286 98.8926L302.611 99.3803L302.336 91.6852L312.67 91.3167L312.486 86.1719L302.153 86.5405L301.893 79.2411L314.82 78.78L315.171 73.7924L294.856 74.5169L295.928 104.594ZM321.125 103.695L327.984 103.451L327.595 92.5455L331.377 92.4106L337.306 103.118L345.046 102.842L338.116 91.2457C341.445 89.5419 343.044 86.2269 342.898 82.1375C342.785 78.9715 341.736 76.7194 340.146 75.3232C338.101 73.547 335.222 73.0773 330.386 73.2498L320.052 73.6183L321.125 103.695ZM327.418 87.5766L327.089 78.3425L330.167 78.2327C332.41 78.1527 333.87 78.3648 334.779 79.1689C335.508 79.8474 335.899 80.9342 335.954 82.4732C336.013 84.1441 335.665 85.4774 334.812 86.2563C333.959 87.0352 332.739 87.3869 330.452 87.4684L327.418 87.5766ZM346.164 102.802L352.716 102.569L354.777 94.9222L364.538 94.5741L367.315 102.048L374.658 101.786L362.724 72.0965L355.161 72.3662L346.164 102.802ZM356.182 89.8969L358.947 79.7599L359.035 79.7568L362.69 89.6648L356.182 89.8969ZM377.701 101.677L383.725 101.463L383.074 83.2142L397.532 100.97L403.029 100.774L401.956 70.6973L395.932 70.9121L396.619 90.1719L381.685 71.4202L376.628 71.6006L377.701 101.677ZM421.151 100.744C430.341 100.416 434.28 94.8166 433.918 84.659C433.556 74.5015 429.226 69.1524 420.036 69.4801C410.846 69.8079 406.909 75.4518 407.271 85.6093C407.633 95.7669 411.961 101.072 421.151 100.744ZM420.96 95.3797C416.519 95.5381 414.653 92.6107 414.394 85.3553C414.136 78.0999 415.786 75.0031 420.227 74.8447C424.669 74.6863 426.536 77.6577 426.794 84.9131C427.053 92.1684 425.401 95.2213 420.96 95.3797ZM439.626 90.047L444.287 89.8807L444.518 69.1794L437.922 69.4146L439.626 90.047ZM442.27 99.9911L442.578 99.9801C444.689 99.9048 445.758 99.0301 445.68 96.8315L445.661 96.3039C445.583 94.1053 444.454 93.309 442.343 93.3843L442.035 93.3953C439.925 93.4705 438.855 94.3452 438.933 96.5438L438.952 97.0715C439.031 99.2701 440.16 100.066 442.27 99.9911Z" fill="white"/>
<path d="M4.30617 37.7691L3.99837 37.78C1.88771 37.8553 0.818205 38.73 0.896615 40.9286L0.915434 41.4563C0.993844 43.6549 2.12294 44.4511 4.2336 44.3759L4.5414 44.3649C6.65206 44.2896 7.72157 43.4149 7.64316 41.2163L7.62434 40.6887C7.54593 38.4901 6.41683 37.6938 4.30617 37.7691ZM6.95027 47.7131L2.28923 47.8794L2.05891 68.5807L8.65472 68.3455L6.95027 47.7131ZM27.458 59.7499C29.9205 59.6621 33.2042 59.1487 34.9883 58.5567L34.106 53.569C32.3596 53.9835 30.0385 54.3305 28.5874 54.3822C25.2016 54.503 23.2873 53.9108 21.9148 52.4628C20.3601 50.8452 19.5939 47.8786 19.4669 44.3169C19.2536 38.3367 20.5966 34.0181 27.0604 33.7875C28.9512 33.7201 31.2079 34.0359 33.562 34.6124L34.2626 29.5682C32.2996 28.8457 28.9374 28.3932 26.343 28.4858C16.0536 28.8527 12.0141 35.3368 12.3497 44.7468C12.5363 49.9795 13.7752 53.8538 16.4228 56.4891C18.7501 58.7836 22.1374 59.9396 27.458 59.7499ZM47.013 25.0188L55.7244 18.6763L52.4974 14.6088L44.7171 22.371L47.013 25.0188ZM37.6499 58.77L44.2018 58.5363L46.2626 50.89L56.0244 50.5419L58.8005 58.0157L66.1438 57.7538L54.2101 28.0643L46.6469 28.334L37.6499 58.77ZM47.6684 45.8647L50.4328 35.7278L50.5208 35.7246L54.1762 45.6326L47.6684 45.8647ZM69.1868 57.6453L74.9472 57.4398L74.323 39.939L81.1225 50.3512L86.3991 50.1631L92.2699 39.475L92.8878 56.8L99.1758 56.5758L98.1031 26.4989L92.8265 26.6871L83.6198 43.8341L73.5227 27.3755L68.1142 27.5684L69.1868 57.6453ZM105.247 56.3592L115.933 55.9781C120.594 55.8119 123.513 54.9593 125.387 53.1754C126.962 51.6663 127.766 49.5243 127.663 46.6221C127.521 42.6646 124.786 40.0325 121.029 39.6381C123.749 38.1322 125.127 36.0138 125.017 32.9357C124.939 30.7371 124.128 29.0049 122.723 27.8663C120.909 26.39 118.246 25.7805 113.98 25.9326L104.175 26.2823L105.247 56.3592ZM111.461 37.9981L111.212 31.0065L113.718 30.9172C115.565 30.8513 116.628 31.0335 117.311 31.6696C117.903 32.2208 118.197 33.0469 118.236 34.1462C118.28 35.3774 118.003 36.2678 117.452 36.8598C116.73 37.5901 115.682 37.8475 113.791 37.915L111.461 37.9981ZM111.93 51.1457L111.638 42.9669L114.452 42.8666C116.915 42.7788 118.33 42.9484 119.281 43.707C120.096 44.3383 120.486 45.3811 120.544 47.0081C120.588 48.2393 120.267 49.1313 119.674 49.7689C118.868 50.6341 117.294 50.9544 114.744 51.0454L111.93 51.1457ZM132.636 55.3824L139.495 55.1378L138.423 25.0609L131.563 25.3056L132.636 55.3824ZM142.601 55.0271L149.152 54.7934L151.213 47.1471L160.975 46.799L163.751 54.2728L171.094 54.0109L159.161 24.3213L151.598 24.5911L142.601 55.0271ZM152.619 42.1218L155.383 31.9848L155.471 31.9817L159.127 41.8897L152.619 42.1218ZM178.631 53.7421L185.491 53.4974L184.595 28.3894L193.698 28.0648L194.048 23.0771L168.236 23.9977L168.414 28.9665L177.736 28.634L178.631 53.7421ZM198.26 53.042L218.795 52.3097L218.618 47.3408L204.943 47.8285L204.668 40.1334L215.002 39.7649L214.818 34.6202L204.485 34.9887L204.224 27.6893L217.152 27.2283L217.503 22.2406L197.188 22.9651L198.26 53.042ZM243.226 52.0548C252.241 51.7333 254.988 44.811 254.674 36.0166C254.36 27.2221 251.126 20.4691 242.111 20.7906C233.097 21.1121 230.352 28.0784 230.665 36.8728C230.979 45.6672 234.212 52.3762 243.226 52.0548ZM243.106 48.6689C236.906 48.89 235.018 44.1143 234.755 36.727C234.491 29.3397 236.032 24.3976 242.232 24.1765C248.432 23.9554 250.321 28.7751 250.585 36.1624C250.848 43.5497 249.306 48.4478 243.106 48.6689ZM269.029 50.5181L275.889 50.2735L275.5 39.3684L279.282 39.2336L285.211 49.941L292.95 49.665L286.021 38.0686C289.35 36.3649 290.949 33.0498 290.803 28.9604C290.69 25.7944 289.641 23.5424 288.05 22.1462C286.006 20.3699 283.127 19.9002 278.29 20.0727L267.957 20.4412L269.029 50.5181ZM275.323 34.3996L274.994 25.1654L278.072 25.0557C280.314 24.9757 281.775 25.1878 282.684 25.9919C283.413 26.6703 283.804 27.7571 283.859 29.2961C283.918 30.9671 283.569 32.3003 282.717 33.0792C281.864 33.8581 280.644 34.2098 278.357 34.2914L275.323 34.3996ZM297.103 49.5169L317.638 48.7846L317.461 43.8157L303.785 44.3034L303.511 36.6083L313.844 36.2398L313.661 31.0951L303.327 31.4636L303.067 24.1642L315.995 23.7032L316.345 18.7155L296.03 19.44L297.103 49.5169ZM322.299 48.6183L328.323 48.4035L327.673 30.1551L342.131 47.9111L347.627 47.715L346.554 17.6382L340.53 17.853L341.217 37.1128L326.283 18.3611L321.227 18.5414L322.299 48.6183ZM365.793 47.6836C369.663 47.5456 373.01 46.3255 374.921 44.3641C377.046 42.219 377.683 39.1143 377.547 35.2888L376.879 16.5567L370.811 16.7731L371.491 35.857C371.575 38.1875 371.235 39.7846 370.218 40.8775C369.329 41.8779 367.893 42.3693 365.915 42.4399C363.936 42.5105 362.423 42.0801 361.466 41.1456C360.373 40.128 359.919 38.5151 359.837 36.2286L359.158 17.1887L352.343 17.4317L353.022 36.4716C353.175 40.7809 354.188 43.2544 356.236 45.1186C358.329 47.0252 361.616 47.8325 365.793 47.6836ZM383.771 46.426L404.306 45.6937L404.128 40.7248L390.453 41.2125L390.179 33.5174L400.512 33.1489L400.329 28.0042L389.995 28.3727L389.735 21.0733L402.663 20.6123L403.013 15.6246L382.698 16.3491L383.771 46.426ZM416.706 45.2514L423.874 44.9958L432.783 14.5629L426.099 14.8013L420.325 36.8451L412.511 15.2859L405.168 15.5478L416.706 45.2514ZM432.332 44.6942L438.884 44.4605L440.944 36.8142L450.706 36.466L453.482 43.9398L460.826 43.678L448.892 13.9884L441.329 14.2582L432.332 44.6942ZM442.35 31.7889L445.115 21.6519L445.202 21.6488L448.858 31.5568L442.35 31.7889ZM24.7432 114.265L31.6028 114.021L30.7074 88.9126L39.8096 88.588L40.1601 83.6003L14.3485 84.5209L14.5257 89.4897L23.8477 89.1572L24.7432 114.265ZM56.4865 113.75C60.3561 113.612 63.7027 112.392 65.614 110.43C67.7389 108.285 68.3767 105.18 68.2402 101.355L67.5722 82.6227L61.504 82.8391L62.1846 101.923C62.2677 104.253 61.9284 105.851 60.9107 106.944C60.0218 107.944 58.5864 108.435 56.6077 108.506C54.629 108.576 53.1167 108.146 52.1587 107.212C51.0658 106.194 50.612 104.581 50.5305 102.295L49.8514 83.2547L43.0358 83.4978L43.7148 102.538C43.8685 106.847 44.8813 109.32 46.929 111.185C49.0223 113.091 52.3092 113.899 56.4865 113.75ZM97.2022 112.298C99.6647 112.21 102.948 111.696 104.732 111.104L103.85 106.117C102.104 106.531 99.7827 106.878 98.3316 106.93C94.9458 107.051 93.0315 106.458 91.659 105.01C90.1043 103.393 89.3381 100.426 89.2111 96.8645C88.9978 90.8843 90.3408 86.5657 96.8046 86.3352C98.6954 86.2677 100.952 86.5835 103.306 87.16L104.007 82.1158C102.044 81.3933 98.6816 80.9409 96.0872 81.0334C85.7978 81.4003 81.7583 87.8844 82.0939 97.2944C82.2805 102.527 83.5194 106.401 86.167 109.037C88.4943 111.331 91.8816 112.487 97.2022 112.298ZM109.355 111.248L129.89 110.515L129.712 105.547L116.037 106.034L115.763 98.3391L126.096 97.9706L125.913 92.8259L115.579 93.1944L115.319 85.895L128.247 85.434L128.597 80.4463L108.282 81.1708L109.355 111.248ZM134.551 110.349L154.734 109.629L154.557 104.66L141.233 105.136L140.338 80.0276L133.478 80.2722L134.551 110.349ZM167.261 109.183L184.762 108.558L184.652 105.48L171.065 105.965L170.688 95.4116L181.198 95.0368L181.085 91.8708L170.576 92.2457L170.212 82.0441L183.183 81.5815L183.425 78.4909L166.188 79.1057L167.261 109.183ZM197.723 108.713C201.196 108.589 203.849 107.658 205.591 105.878C207.036 104.418 207.841 102.32 207.747 99.6815C207.38 89.3921 191.985 92.2746 191.741 85.415C191.626 82.205 194.085 80.7965 198.175 80.6506C200.154 80.58 202.495 80.8047 204.714 81.298L205.179 78.2875C203.087 77.6576 200.345 77.3151 197.751 77.4077C191.771 77.6209 187.867 80.4899 188.056 85.8105C188.425 96.144 203.754 92.6474 204.024 100.211C204.082 101.838 203.552 103.045 202.527 103.918C201.373 104.884 199.717 105.383 197.255 105.471C194.836 105.557 192.003 105.13 189.693 104.552L189.14 107.566C191.46 108.408 194.952 108.811 197.723 108.713ZM218.932 107.34L222.845 107.2L221.883 80.2014L231.293 79.8658L231.535 76.7752L208.273 77.6048L208.383 80.6828L217.969 80.3409L218.932 107.34ZM236.624 106.709L254.124 106.085L254.015 103.007L240.427 103.491L240.051 92.9379L250.56 92.5631L250.447 89.3971L239.938 89.7719L239.574 79.5704L252.546 79.1078L252.788 76.0172L235.551 76.6319L236.624 106.709ZM275.422 105.325L282.59 105.069L291.499 74.6366L284.815 74.875L279.041 96.9188L271.228 75.3596L263.884 75.6215L275.422 105.325ZM295.928 104.594L316.463 103.861L316.286 98.8926L302.611 99.3803L302.336 91.6852L312.67 91.3167L312.486 86.1719L302.153 86.5405L301.893 79.2411L314.82 78.78L315.171 73.7924L294.856 74.5169L295.928 104.594ZM321.125 103.695L327.984 103.451L327.595 92.5455L331.377 92.4106L337.306 103.118L345.046 102.842L338.116 91.2457C341.445 89.5419 343.044 86.2269 342.898 82.1375C342.785 78.9715 341.736 76.7194 340.146 75.3232C338.101 73.547 335.222 73.0773 330.386 73.2498L320.052 73.6183L321.125 103.695ZM327.418 87.5766L327.089 78.3425L330.167 78.2327C332.41 78.1527 333.87 78.3648 334.779 79.1689C335.508 79.8474 335.899 80.9342 335.954 82.4732C336.013 84.1441 335.665 85.4774 334.812 86.2563C333.959 87.0352 332.739 87.3869 330.452 87.4684L327.418 87.5766ZM346.164 102.802L352.716 102.569L354.777 94.9222L364.538 94.5741L367.315 102.048L374.658 101.786L362.724 72.0965L355.161 72.3662L346.164 102.802ZM356.182 89.8969L358.947 79.7599L359.035 79.7568L362.69 89.6648L356.182 89.8969ZM377.701 101.677L383.725 101.463L383.074 83.2142L397.532 100.97L403.029 100.774L401.956 70.6973L395.932 70.9121L396.619 90.1719L381.685 71.4202L376.628 71.6006L377.701 101.677ZM421.151 100.744C430.341 100.416 434.28 94.8166 433.918 84.659C433.556 74.5015 429.226 69.1524 420.036 69.4801C410.846 69.8079 406.909 75.4518 407.271 85.6093C407.633 95.7669 411.961 101.072 421.151 100.744ZM420.96 95.3797C416.519 95.5381 414.653 92.6107 414.394 85.3553C414.136 78.0999 415.786 75.0031 420.227 74.8447C424.669 74.6863 426.536 77.6577 426.794 84.9131C427.053 92.1684 425.401 95.2213 420.96 95.3797ZM439.626 90.047L444.287 89.8807L444.518 69.1794L437.922 69.4146L439.626 90.047ZM442.27 99.9911L442.578 99.9801C444.689 99.9048 445.758 99.0301 445.68 96.8315L445.661 96.3039C445.583 94.1053 444.454 93.309 442.343 93.3843L442.035 93.3953C439.925 93.4705 438.855 94.3452 438.933 96.5438L438.952 97.0715C439.031 99.2701 440.16 100.066 442.27 99.9911Z" fill="white"/>
<path d="M4.30617 37.7691L3.99837 37.78C1.88771 37.8553 0.818205 38.73 0.896615 40.9286L0.915434 41.4563C0.993844 43.6549 2.12294 44.4511 4.2336 44.3759L4.5414 44.3649C6.65206 44.2896 7.72157 43.4149 7.64316 41.2163L7.62434 40.6887C7.54593 38.4901 6.41683 37.6938 4.30617 37.7691ZM6.95027 47.7131L2.28923 47.8794L2.05891 68.5807L8.65472 68.3455L6.95027 47.7131ZM27.458 59.7499C29.9205 59.6621 33.2042 59.1487 34.9883 58.5567L34.106 53.569C32.3596 53.9835 30.0385 54.3305 28.5874 54.3822C25.2016 54.503 23.2873 53.9108 21.9148 52.4628C20.3601 50.8452 19.5939 47.8786 19.4669 44.3169C19.2536 38.3367 20.5966 34.0181 27.0604 33.7875C28.9512 33.7201 31.2079 34.0359 33.562 34.6124L34.2626 29.5682C32.2996 28.8457 28.9374 28.3932 26.343 28.4858C16.0536 28.8527 12.0141 35.3368 12.3497 44.7468C12.5363 49.9795 13.7752 53.8538 16.4228 56.4891C18.7501 58.7836 22.1374 59.9396 27.458 59.7499ZM47.013 25.0188L55.7244 18.6763L52.4974 14.6088L44.7171 22.371L47.013 25.0188ZM37.6499 58.77L44.2018 58.5363L46.2626 50.89L56.0244 50.5419L58.8005 58.0157L66.1438 57.7538L54.2101 28.0643L46.6469 28.334L37.6499 58.77ZM47.6684 45.8647L50.4328 35.7278L50.5208 35.7246L54.1762 45.6326L47.6684 45.8647ZM69.1868 57.6453L74.9472 57.4398L74.323 39.939L81.1225 50.3512L86.3991 50.1631L92.2699 39.475L92.8878 56.8L99.1758 56.5758L98.1031 26.4989L92.8265 26.6871L83.6198 43.8341L73.5227 27.3755L68.1142 27.5684L69.1868 57.6453ZM105.247 56.3592L115.933 55.9781C120.594 55.8119 123.513 54.9593 125.387 53.1754C126.962 51.6663 127.766 49.5243 127.663 46.6221C127.521 42.6646 124.786 40.0325 121.029 39.6381C123.749 38.1322 125.127 36.0138 125.017 32.9357C124.939 30.7371 124.128 29.0049 122.723 27.8663C120.909 26.39 118.246 25.7805 113.98 25.9326L104.175 26.2823L105.247 56.3592ZM111.461 37.9981L111.212 31.0065L113.718 30.9172C115.565 30.8513 116.628 31.0335 117.311 31.6696C117.903 32.2208 118.197 33.0469 118.236 34.1462C118.28 35.3774 118.003 36.2678 117.452 36.8598C116.73 37.5901 115.682 37.8475 113.791 37.915L111.461 37.9981ZM111.93 51.1457L111.638 42.9669L114.452 42.8666C116.915 42.7788 118.33 42.9484 119.281 43.707C120.096 44.3383 120.486 45.3811 120.544 47.0081C120.588 48.2393 120.267 49.1313 119.674 49.7689C118.868 50.6341 117.294 50.9544 114.744 51.0454L111.93 51.1457ZM132.636 55.3824L139.495 55.1378L138.423 25.0609L131.563 25.3056L132.636 55.3824ZM142.601 55.0271L149.152 54.7934L151.213 47.1471L160.975 46.799L163.751 54.2728L171.094 54.0109L159.161 24.3213L151.598 24.5911L142.601 55.0271ZM152.619 42.1218L155.383 31.9848L155.471 31.9817L159.127 41.8897L152.619 42.1218ZM178.631 53.7421L185.491 53.4974L184.595 28.3894L193.698 28.0648L194.048 23.0771L168.236 23.9977L168.414 28.9665L177.736 28.634L178.631 53.7421ZM198.26 53.042L218.795 52.3097L218.618 47.3408L204.943 47.8285L204.668 40.1334L215.002 39.7649L214.818 34.6202L204.485 34.9887L204.224 27.6893L217.152 27.2283L217.503 22.2406L197.188 22.9651L198.26 53.042ZM243.226 52.0548C252.241 51.7333 254.988 44.811 254.674 36.0166C254.36 27.2221 251.126 20.4691 242.111 20.7906C233.097 21.1121 230.352 28.0784 230.665 36.8728C230.979 45.6672 234.212 52.3762 243.226 52.0548ZM243.106 48.6689C236.906 48.89 235.018 44.1143 234.755 36.727C234.491 29.3397 236.032 24.3976 242.232 24.1765C248.432 23.9554 250.321 28.7751 250.585 36.1624C250.848 43.5497 249.306 48.4478 243.106 48.6689ZM269.029 50.5181L275.889 50.2735L275.5 39.3684L279.282 39.2336L285.211 49.941L292.95 49.665L286.021 38.0686C289.35 36.3649 290.949 33.0498 290.803 28.9604C290.69 25.7944 289.641 23.5424 288.05 22.1462C286.006 20.3699 283.127 19.9002 278.29 20.0727L267.957 20.4412L269.029 50.5181ZM275.323 34.3996L274.994 25.1654L278.072 25.0557C280.314 24.9757 281.775 25.1878 282.684 25.9919C283.413 26.6703 283.804 27.7571 283.859 29.2961C283.918 30.9671 283.569 32.3003 282.717 33.0792C281.864 33.8581 280.644 34.2098 278.357 34.2914L275.323 34.3996ZM297.103 49.5169L317.638 48.7846L317.461 43.8157L303.785 44.3034L303.511 36.6083L313.844 36.2398L313.661 31.0951L303.327 31.4636L303.067 24.1642L315.995 23.7032L316.345 18.7155L296.03 19.44L297.103 49.5169ZM322.299 48.6183L328.323 48.4035L327.673 30.1551L342.131 47.9111L347.627 47.715L346.554 17.6382L340.53 17.853L341.217 37.1128L326.283 18.3611L321.227 18.5414L322.299 48.6183ZM365.793 47.6836C369.663 47.5456 373.01 46.3255 374.921 44.3641C377.046 42.219 377.683 39.1143 377.547 35.2888L376.879 16.5567L370.811 16.7731L371.491 35.857C371.575 38.1875 371.235 39.7846 370.218 40.8775C369.329 41.8779 367.893 42.3693 365.915 42.4399C363.936 42.5105 362.423 42.0801 361.466 41.1456C360.373 40.128 359.919 38.5151 359.837 36.2286L359.158 17.1887L352.343 17.4317L353.022 36.4716C353.175 40.7809 354.188 43.2544 356.236 45.1186C358.329 47.0252 361.616 47.8325 365.793 47.6836ZM383.771 46.426L404.306 45.6937L404.128 40.7248L390.453 41.2125L390.179 33.5174L400.512 33.1489L400.329 28.0042L389.995 28.3727L389.735 21.0733L402.663 20.6123L403.013 15.6246L382.698 16.3491L383.771 46.426ZM416.706 45.2514L423.874 44.9958L432.783 14.5629L426.099 14.8013L420.325 36.8451L412.511 15.2859L405.168 15.5478L416.706 45.2514ZM432.332 44.6942L438.884 44.4605L440.944 36.8142L450.706 36.466L453.482 43.9398L460.826 43.678L448.892 13.9884L441.329 14.2582L432.332 44.6942ZM442.35 31.7889L445.115 21.6519L445.202 21.6488L448.858 31.5568L442.35 31.7889ZM24.7432 114.265L31.6028 114.021L30.7074 88.9126L39.8096 88.588L40.1601 83.6003L14.3485 84.5209L14.5257 89.4897L23.8477 89.1572L24.7432 114.265ZM56.4865 113.75C60.3561 113.612 63.7027 112.392 65.614 110.43C67.7389 108.285 68.3767 105.18 68.2402 101.355L67.5722 82.6227L61.504 82.8391L62.1846 101.923C62.2677 104.253 61.9284 105.851 60.9107 106.944C60.0218 107.944 58.5864 108.435 56.6077 108.506C54.629 108.576 53.1167 108.146 52.1587 107.212C51.0658 106.194 50.612 104.581 50.5305 102.295L49.8514 83.2547L43.0358 83.4978L43.7148 102.538C43.8685 106.847 44.8813 109.32 46.929 111.185C49.0223 113.091 52.3092 113.899 56.4865 113.75ZM97.2022 112.298C99.6647 112.21 102.948 111.696 104.732 111.104L103.85 106.117C102.104 106.531 99.7827 106.878 98.3316 106.93C94.9458 107.051 93.0315 106.458 91.659 105.01C90.1043 103.393 89.3381 100.426 89.2111 96.8645C88.9978 90.8843 90.3408 86.5657 96.8046 86.3352C98.6954 86.2677 100.952 86.5835 103.306 87.16L104.007 82.1158C102.044 81.3933 98.6816 80.9409 96.0872 81.0334C85.7978 81.4003 81.7583 87.8844 82.0939 97.2944C82.2805 102.527 83.5194 106.401 86.167 109.037C88.4943 111.331 91.8816 112.487 97.2022 112.298ZM109.355 111.248L129.89 110.515L129.712 105.547L116.037 106.034L115.763 98.3391L126.096 97.9706L125.913 92.8259L115.579 93.1944L115.319 85.895L128.247 85.434L128.597 80.4463L108.282 81.1708L109.355 111.248ZM134.551 110.349L154.734 109.629L154.557 104.66L141.233 105.136L140.338 80.0276L133.478 80.2722L134.551 110.349ZM167.261 109.183L184.762 108.558L184.652 105.48L171.065 105.965L170.688 95.4116L181.198 95.0368L181.085 91.8708L170.576 92.2457L170.212 82.0441L183.183 81.5815L183.425 78.4909L166.188 79.1057L167.261 109.183ZM197.723 108.713C201.196 108.589 203.849 107.658 205.591 105.878C207.036 104.418 207.841 102.32 207.747 99.6815C207.38 89.3921 191.985 92.2746 191.741 85.415C191.626 82.205 194.085 80.7965 198.175 80.6506C200.154 80.58 202.495 80.8047 204.714 81.298L205.179 78.2875C203.087 77.6576 200.345 77.3151 197.751 77.4077C191.771 77.6209 187.867 80.4899 188.056 85.8105C188.425 96.144 203.754 92.6474 204.024 100.211C204.082 101.838 203.552 103.045 202.527 103.918C201.373 104.884 199.717 105.383 197.255 105.471C194.836 105.557 192.003 105.13 189.693 104.552L189.14 107.566C191.46 108.408 194.952 108.811 197.723 108.713ZM218.932 107.34L222.845 107.2L221.883 80.2014L231.293 79.8658L231.535 76.7752L208.273 77.6048L208.383 80.6828L217.969 80.3409L218.932 107.34ZM236.624 106.709L254.124 106.085L254.015 103.007L240.427 103.491L240.051 92.9379L250.56 92.5631L250.447 89.3971L239.938 89.7719L239.574 79.5704L252.546 79.1078L252.788 76.0172L235.551 76.6319L236.624 106.709ZM275.422 105.325L282.59 105.069L291.499 74.6366L284.815 74.875L279.041 96.9188L271.228 75.3596L263.884 75.6215L275.422 105.325ZM295.928 104.594L316.463 103.861L316.286 98.8926L302.611 99.3803L302.336 91.6852L312.67 91.3167L312.486 86.1719L302.153 86.5405L301.893 79.2411L314.82 78.78L315.171 73.7924L294.856 74.5169L295.928 104.594ZM321.125 103.695L327.984 103.451L327.595 92.5455L331.377 92.4106L337.306 103.118L345.046 102.842L338.116 91.2457C341.445 89.5419 343.044 86.2269 342.898 82.1375C342.785 78.9715 341.736 76.7194 340.146 75.3232C338.101 73.547 335.222 73.0773 330.386 73.2498L320.052 73.6183L321.125 103.695ZM327.418 87.5766L327.089 78.3425L330.167 78.2327C332.41 78.1527 333.87 78.3648 334.779 79.1689C335.508 79.8474 335.899 80.9342 335.954 82.4732C336.013 84.1441 335.665 85.4774 334.812 86.2563C333.959 87.0352 332.739 87.3869 330.452 87.4684L327.418 87.5766ZM346.164 102.802L352.716 102.569L354.777 94.9222L364.538 94.5741L367.315 102.048L374.658 101.786L362.724 72.0965L355.161 72.3662L346.164 102.802ZM356.182 89.8969L358.947 79.7599L359.035 79.7568L362.69 89.6648L356.182 89.8969ZM377.701 101.677L383.725 101.463L383.074 83.2142L397.532 100.97L403.029 100.774L401.956 70.6973L395.932 70.9121L396.619 90.1719L381.685 71.4202L376.628 71.6006L377.701 101.677ZM421.151 100.744C430.341 100.416 434.28 94.8166 433.918 84.659C433.556 74.5015 429.226 69.1524 420.036 69.4801C410.846 69.8079 406.909 75.4518 407.271 85.6093C407.633 95.7669 411.961 101.072 421.151 100.744ZM420.96 95.3797C416.519 95.5381 414.653 92.6107 414.394 85.3553C414.136 78.0999 415.786 75.0031 420.227 74.8447C424.669 74.6863 426.536 77.6577 426.794 84.9131C427.053 92.1684 425.401 95.2213 420.96 95.3797ZM439.626 90.047L444.287 89.8807L444.518 69.1794L437.922 69.4146L439.626 90.047ZM442.27 99.9911L442.578 99.9801C444.689 99.9048 445.758 99.0301 445.68 96.8315L445.661 96.3039C445.583 94.1053 444.454 93.309 442.343 93.3843L442.035 93.3953C439.925 93.4705 438.855 94.3452 438.933 96.5438L438.952 97.0715C439.031 99.2701 440.16 100.066 442.27 99.9911Z" fill="white"/>
</svg>
