<svg width="349" height="102" viewBox="0 0 349 102" fill="none" xmlns="http://www.w3.org/2000/svg">
<path d="M11.2359 32.6652L11.0121 32.6732C9.47705 32.7279 8.69923 33.364 8.75625 34.963L8.76994 35.3468C8.82696 36.9457 9.64812 37.5248 11.1831 37.4701L11.407 37.4621C12.942 37.4074 13.7199 36.7712 13.6628 35.1723L13.6491 34.7885C13.5921 33.1895 12.771 32.6104 11.2359 32.6652ZM13.1589 39.8972L9.76906 40.0181L9.60155 55.0737L14.3985 54.9026L13.1589 39.8972ZM28.0736 48.6512C29.8645 48.5873 32.2527 48.214 33.5502 47.7835L32.9085 44.156C31.6384 44.4575 29.9504 44.7098 28.895 44.7475C26.4326 44.8353 25.0404 44.4046 24.0422 43.3515C22.9115 42.1751 22.3543 40.0176 22.2619 37.4272C22.1068 33.078 23.0835 29.9372 27.7845 29.7695C29.1596 29.7205 30.8008 29.9501 32.5129 30.3694L33.0224 26.7009C31.5948 26.1754 29.1495 25.8464 27.2627 25.9137C19.7795 26.1805 16.8417 30.8962 17.0858 37.7399C17.2215 41.5455 18.1225 44.3632 20.048 46.2797C21.7406 47.9485 24.2041 48.7892 28.0736 48.6512ZM42.2954 23.3923L48.631 18.7795L46.2841 15.8213L40.6257 21.4666L42.2954 23.3923ZM35.4859 47.9386L40.2509 47.7686L41.7497 42.2077L48.8492 41.9545L50.8682 47.39L56.2088 47.1995L47.5297 25.6071L42.0292 25.8033L35.4859 47.9386ZM42.7721 38.5529L44.7826 31.1806L44.8465 31.1783L47.5051 38.3841L42.7721 38.5529ZM58.4219 47.1206L62.6112 46.9712L62.1573 34.2433L67.1023 41.8158L70.9399 41.679L75.2095 33.9059L75.6589 46.5059L80.232 46.3428L79.4519 24.4687L75.6143 24.6055L68.9185 37.0761L61.5753 25.1062L57.6418 25.2465L58.4219 47.1206ZM84.6477 46.1853L92.4188 45.9081C95.8086 45.7872 97.9319 45.1672 99.2945 43.8698C100.44 42.7723 101.025 41.2144 100.95 39.1038C100.847 36.2256 98.8575 34.3113 96.1256 34.0245C98.1038 32.9293 99.1055 31.3886 99.0257 29.15C98.9687 27.551 98.3794 26.2912 97.3572 25.4631C96.0381 24.3895 94.1011 23.9462 90.999 24.0568L83.8676 24.3112L84.6477 46.1853ZM89.1666 32.8317L88.9853 27.747L90.8081 27.682C92.1513 27.6341 92.9245 27.7666 93.4213 28.2292C93.8519 28.6301 94.0654 29.2308 94.0939 30.0303C94.1259 30.9258 93.9248 31.5733 93.5239 32.0039C92.9985 32.535 92.2367 32.7222 90.8616 32.7713L89.1666 32.8317ZM89.5076 42.3937L89.2955 36.4454L91.3422 36.3724C93.1331 36.3086 94.1621 36.432 94.8542 36.9837C95.447 37.4428 95.7302 38.2012 95.7724 39.3845C95.8043 40.2799 95.5713 40.9286 95.1395 41.3923C94.5536 42.0216 93.4092 42.2545 91.5543 42.3207L89.5076 42.3937ZM104.567 45.4749L109.555 45.297L108.775 23.4229L103.786 23.6008L104.567 45.4749ZM111.814 45.2164L116.579 45.0465L118.077 39.4855L125.177 39.2324L127.196 44.6678L132.537 44.4774L123.857 22.885L118.357 23.0812L111.814 45.2164ZM119.1 35.8308L121.11 28.4584L121.174 28.4562L123.833 35.662L119.1 35.8308ZM138.018 44.2819L143.007 44.104L142.355 25.8436L148.975 25.6075L149.23 21.9801L130.458 22.6496L130.587 26.2633L137.367 26.0215L138.018 44.2819ZM152.293 43.7728L167.228 43.2402L167.099 39.6265L157.153 39.9812L156.954 34.3847L164.469 34.1167L164.336 30.3751L156.82 30.6431L156.631 25.3345L166.033 24.9991L166.288 21.3718L151.513 21.8987L152.293 43.7728ZM184.996 43.0548C191.552 42.821 193.55 37.7865 193.322 31.3906C193.094 24.9947 190.741 20.0834 184.185 20.3172C177.629 20.551 175.633 25.6174 175.861 32.0133C176.089 38.4093 178.44 43.2886 184.996 43.0548ZM184.908 40.5923C180.399 40.7531 179.027 37.2799 178.835 31.9073C178.643 26.5347 179.764 22.9405 184.273 22.7796C188.782 22.6188 190.156 26.1241 190.348 31.4967C190.539 36.8693 189.417 40.4315 184.908 40.5923ZM203.762 41.9372L208.751 41.7593L208.468 33.8283L211.218 33.7302L215.53 41.5175L221.159 41.3168L216.119 32.883C218.541 31.6439 219.703 29.233 219.597 26.2589C219.515 23.9563 218.752 22.3185 217.595 21.3031C216.108 20.0112 214.015 19.6696 210.497 19.7951L202.982 20.0631L203.762 41.9372ZM208.339 30.2146L208.1 23.4989L210.338 23.4191C211.969 23.3609 213.031 23.5151 213.693 24.0999C214.222 24.5934 214.507 25.3837 214.547 26.503C214.59 27.7183 214.336 28.6879 213.716 29.2544C213.096 29.8208 212.209 30.0766 210.546 30.1359L208.339 30.2146ZM224.179 41.2091L239.113 40.6764L238.985 37.0627L229.039 37.4174L228.839 31.821L236.355 31.553L236.221 27.8114L228.706 28.0794L228.517 22.7708L237.919 22.4354L238.173 18.8081L223.399 19.335L224.179 41.2091ZM242.504 40.5555L246.885 40.3993L246.411 27.1277L256.926 40.0412L260.924 39.8986L260.144 18.0245L255.763 18.1808L256.262 32.1879L245.401 18.5503L241.723 18.6814L242.504 40.5555ZM274.136 39.8757C276.95 39.7753 279.384 38.888 280.774 37.4616C282.319 35.9015 282.783 33.6435 282.684 30.8613L282.198 17.238L277.785 17.3954L278.28 31.2745C278.34 32.9695 278.094 34.131 277.353 34.9259C276.707 35.6534 275.663 36.0108 274.224 36.0621C272.785 36.1135 271.685 35.8005 270.988 35.1209C270.193 34.3807 269.863 33.2077 269.804 31.5448L269.31 17.6976L264.353 17.8744L264.847 31.7216C264.959 34.8556 265.696 36.6545 267.185 38.0103C268.707 39.3969 271.098 39.984 274.136 39.8757ZM287.21 38.9611L302.145 38.4285L302.016 34.8148L292.07 35.1695L291.871 29.5731L299.386 29.305L299.252 25.5634L291.737 25.8314L291.548 20.5228L300.95 20.1875L301.205 16.5601L286.43 17.087L287.21 38.9611ZM311.163 38.1069L316.376 37.921L322.855 15.788L317.994 15.9613L313.795 31.9932L308.113 16.3138L302.772 16.5042L311.163 38.1069ZM322.527 37.7016L327.292 37.5317L328.791 31.9707L335.89 31.7175L337.909 37.153L343.25 36.9625L334.571 15.3701L329.07 15.5663L322.527 37.7016ZM329.813 28.3159L331.824 20.9436L331.888 20.9413L334.546 28.1471L329.813 28.3159ZM26.0992 88.2988L31.088 88.1209L30.4368 69.8605L37.0566 69.6244L37.3115 65.997L18.5394 66.6665L18.6683 70.2802L25.448 70.0384L26.0992 88.2988ZM49.1853 87.9237C51.9995 87.8234 54.4334 86.936 55.8234 85.5096C57.3688 83.9495 57.8326 81.6916 57.7334 78.9093L57.2476 65.286L52.8344 65.4434L53.3293 79.3226C53.3898 81.0175 53.143 82.179 52.4029 82.9739C51.7564 83.7014 50.7125 84.0588 49.2734 84.1102C47.8343 84.1615 46.7345 83.8485 46.0378 83.1689C45.2429 82.4287 44.9129 81.2558 44.8536 79.5928L44.3598 65.7456L39.4029 65.9224L39.8967 79.7696C40.0085 82.9036 40.7451 84.7025 42.2344 86.0583C43.7568 87.4449 46.1472 88.0321 49.1853 87.9237ZM78.7967 86.8677C80.5876 86.8038 82.9758 86.4304 84.2732 85.9999L83.6316 82.3725C82.3615 82.6739 80.6734 82.9263 79.6181 82.9639C77.1556 83.0517 75.7634 82.6211 74.7652 81.568C73.6346 80.3915 73.0773 78.234 72.985 75.6437C72.8299 71.2944 73.8065 68.1536 78.5075 67.986C79.8827 67.9369 81.5239 68.1666 83.2359 68.5858L83.7455 64.9173C82.3179 64.3919 79.8726 64.0628 77.9858 64.1301C70.5025 64.397 67.5648 69.1127 67.8088 75.9564C67.9445 79.7619 68.8455 82.5796 70.7711 84.4962C72.4636 86.1649 74.9272 87.0057 78.7967 86.8677ZM87.6348 86.1042L102.569 85.5716L102.44 81.9579L92.4948 82.3126L92.2952 76.7161L99.8104 76.4481L99.677 72.7065L92.1618 72.9745L91.9724 67.6659L101.374 67.3306L101.629 63.7032L86.8547 64.2301L87.6348 86.1042ZM105.959 85.4507L120.638 84.9272L120.509 81.3135L110.819 81.659L110.168 63.3986L105.179 63.5766L105.959 85.4507ZM129.749 84.6022L142.476 84.1483L142.397 81.9097L132.515 82.2622L132.241 74.587L139.884 74.3145L139.802 72.0119L132.159 72.2845L131.894 64.8652L141.328 64.5288L141.504 62.2811L128.968 62.7281L129.749 84.6022ZM151.902 84.2604C154.429 84.1703 156.358 83.4931 157.625 82.1992C158.675 81.1371 159.261 79.6112 159.193 77.6924C158.926 70.2092 147.73 72.3056 147.552 67.3167C147.469 64.9822 149.257 63.9578 152.231 63.8517C153.67 63.8004 155.373 63.9638 156.987 64.3225L157.325 62.1331C155.804 61.675 153.81 61.4259 151.923 61.4932C147.574 61.6483 144.734 63.7349 144.872 67.6044C145.14 75.1196 156.289 72.5767 156.485 78.0772C156.527 79.2604 156.142 80.1387 155.396 80.7737C154.557 81.4761 153.353 81.8392 151.562 81.9031C149.803 81.9658 147.743 81.655 146.063 81.2346L145.661 83.4264C147.348 84.0386 149.888 84.3323 151.902 84.2604ZM167.327 83.262L170.174 83.1605L169.473 63.525L176.317 63.2809L176.493 61.0332L159.576 61.6366L159.656 63.8752L166.627 63.6265L167.327 83.262ZM180.194 82.8032L192.922 82.3492L192.842 80.1107L182.96 80.4631L182.687 72.788L190.33 72.5154L190.248 70.2128L182.605 70.4854L182.34 63.0661L191.774 62.7297L191.95 60.482L179.414 60.9291L180.194 82.8032ZM208.411 81.7968L213.624 81.6109L220.103 59.4779L215.242 59.6513L211.043 75.6831L205.361 60.0037L200.02 60.1942L208.411 81.7968ZM223.325 81.265L238.259 80.7323L238.13 77.1186L228.185 77.4733L227.985 71.8769L235.5 71.6089L235.367 67.8672L227.852 68.1353L227.662 62.8266L237.064 62.4913L237.319 58.8639L222.545 59.3909L223.325 81.265ZM241.649 80.6114L246.638 80.4335L246.355 72.5026L249.106 72.4045L253.418 80.1917L259.046 79.991L254.007 71.5573C256.428 70.3182 257.591 67.9072 257.485 64.9331C257.403 62.6305 256.64 60.9927 255.483 59.9773C253.996 58.6855 251.902 58.3439 248.385 58.4693L240.869 58.7373L241.649 80.6114ZM246.227 68.8888L245.987 62.1731L248.226 62.0933C249.857 62.0351 250.919 62.1894 251.58 62.7742C252.11 63.2676 252.394 64.058 252.434 65.1772C252.478 66.3925 252.224 67.3621 251.604 67.9286C250.984 68.4951 250.096 68.7508 248.433 68.8102L246.227 68.8888ZM259.86 79.962L264.625 79.792L266.124 74.2311L273.223 73.9779L275.242 79.4134L280.583 79.2229L271.904 57.6305L266.403 57.8267L259.86 79.962ZM267.146 70.5763L269.156 63.204L269.22 63.2017L271.879 70.4075L267.146 70.5763ZM282.796 79.144L287.177 78.9877L286.704 65.7162L297.219 78.6296L301.216 78.4871L300.436 56.613L296.055 56.7692L296.554 70.7763L285.693 57.1387L282.016 57.2699L282.796 79.144ZM314.396 78.4653C321.08 78.2269 323.944 74.1542 323.681 66.7669C323.417 59.3796 320.269 55.4894 313.585 55.7278C306.901 55.9661 304.038 60.0708 304.301 67.4581C304.565 74.8454 307.712 78.7037 314.396 78.4653ZM314.257 74.5638C311.027 74.679 309.67 72.55 309.482 67.2733C309.294 61.9967 310.494 59.7445 313.724 59.6293C316.954 59.5141 318.312 61.6751 318.5 66.9517C318.688 72.2283 317.487 74.4486 314.257 74.5638ZM327.832 70.6855L331.222 70.5646L331.39 55.509L326.593 55.6801L327.832 70.6855ZM329.755 77.9175L329.979 77.9095C331.514 77.8548 332.292 77.2187 332.235 75.6197L332.221 75.2359C332.164 73.6369 331.343 73.0578 329.808 73.1126L329.584 73.1206C328.049 73.1753 327.271 73.8114 327.329 75.4104L327.342 75.7942C327.399 77.3932 328.22 77.9723 329.755 77.9175Z" fill="white"/>
<path d="M11.2359 32.6652L11.0121 32.6732C9.47705 32.7279 8.69923 33.364 8.75625 34.963L8.76994 35.3468C8.82696 36.9457 9.64812 37.5248 11.1831 37.4701L11.407 37.4621C12.942 37.4074 13.7199 36.7712 13.6628 35.1723L13.6491 34.7885C13.5921 33.1895 12.771 32.6104 11.2359 32.6652ZM13.1589 39.8972L9.76906 40.0181L9.60155 55.0737L14.3985 54.9026L13.1589 39.8972ZM28.0736 48.6512C29.8645 48.5873 32.2527 48.214 33.5502 47.7835L32.9085 44.156C31.6384 44.4575 29.9504 44.7098 28.895 44.7475C26.4326 44.8353 25.0404 44.4046 24.0422 43.3515C22.9115 42.1751 22.3543 40.0176 22.2619 37.4272C22.1068 33.078 23.0835 29.9372 27.7845 29.7695C29.1596 29.7205 30.8008 29.9501 32.5129 30.3694L33.0224 26.7009C31.5948 26.1754 29.1495 25.8464 27.2627 25.9137C19.7795 26.1805 16.8417 30.8962 17.0858 37.7399C17.2215 41.5455 18.1225 44.3632 20.048 46.2797C21.7406 47.9485 24.2041 48.7892 28.0736 48.6512ZM42.2954 23.3923L48.631 18.7795L46.2841 15.8213L40.6257 21.4666L42.2954 23.3923ZM35.4859 47.9386L40.2509 47.7686L41.7497 42.2077L48.8492 41.9545L50.8682 47.39L56.2088 47.1995L47.5297 25.6071L42.0292 25.8033L35.4859 47.9386ZM42.7721 38.5529L44.7826 31.1806L44.8465 31.1783L47.5051 38.3841L42.7721 38.5529ZM58.4219 47.1206L62.6112 46.9712L62.1573 34.2433L67.1023 41.8158L70.9399 41.679L75.2095 33.9059L75.6589 46.5059L80.232 46.3428L79.4519 24.4687L75.6143 24.6055L68.9185 37.0761L61.5753 25.1062L57.6418 25.2465L58.4219 47.1206ZM84.6477 46.1853L92.4188 45.9081C95.8086 45.7872 97.9319 45.1672 99.2945 43.8698C100.44 42.7723 101.025 41.2144 100.95 39.1038C100.847 36.2256 98.8575 34.3113 96.1256 34.0245C98.1038 32.9293 99.1055 31.3886 99.0257 29.15C98.9687 27.551 98.3794 26.2912 97.3572 25.4631C96.0381 24.3895 94.1011 23.9462 90.999 24.0568L83.8676 24.3112L84.6477 46.1853ZM89.1666 32.8317L88.9853 27.747L90.8081 27.682C92.1513 27.6341 92.9245 27.7666 93.4213 28.2292C93.8519 28.6301 94.0654 29.2308 94.0939 30.0303C94.1259 30.9258 93.9248 31.5733 93.5239 32.0039C92.9985 32.535 92.2367 32.7222 90.8616 32.7713L89.1666 32.8317ZM89.5076 42.3937L89.2955 36.4454L91.3422 36.3724C93.1331 36.3086 94.1621 36.432 94.8542 36.9837C95.447 37.4428 95.7302 38.2012 95.7724 39.3845C95.8043 40.2799 95.5713 40.9286 95.1395 41.3923C94.5536 42.0216 93.4092 42.2545 91.5543 42.3207L89.5076 42.3937ZM104.567 45.4749L109.555 45.297L108.775 23.4229L103.786 23.6008L104.567 45.4749ZM111.814 45.2164L116.579 45.0465L118.077 39.4855L125.177 39.2324L127.196 44.6678L132.537 44.4774L123.857 22.885L118.357 23.0812L111.814 45.2164ZM119.1 35.8308L121.11 28.4584L121.174 28.4562L123.833 35.662L119.1 35.8308ZM138.018 44.2819L143.007 44.104L142.355 25.8436L148.975 25.6075L149.23 21.9801L130.458 22.6496L130.587 26.2633L137.367 26.0215L138.018 44.2819ZM152.293 43.7728L167.228 43.2402L167.099 39.6265L157.153 39.9812L156.954 34.3847L164.469 34.1167L164.336 30.3751L156.82 30.6431L156.631 25.3345L166.033 24.9991L166.288 21.3718L151.513 21.8987L152.293 43.7728ZM184.996 43.0548C191.552 42.821 193.55 37.7865 193.322 31.3906C193.094 24.9947 190.741 20.0834 184.185 20.3172C177.629 20.551 175.633 25.6174 175.861 32.0133C176.089 38.4093 178.44 43.2886 184.996 43.0548ZM184.908 40.5923C180.399 40.7531 179.027 37.2799 178.835 31.9073C178.643 26.5347 179.764 22.9405 184.273 22.7796C188.782 22.6188 190.156 26.1241 190.348 31.4967C190.539 36.8693 189.417 40.4315 184.908 40.5923ZM203.762 41.9372L208.751 41.7593L208.468 33.8283L211.218 33.7302L215.53 41.5175L221.159 41.3168L216.119 32.883C218.541 31.6439 219.703 29.233 219.597 26.2589C219.515 23.9563 218.752 22.3185 217.595 21.3031C216.108 20.0112 214.015 19.6696 210.497 19.7951L202.982 20.0631L203.762 41.9372ZM208.339 30.2146L208.1 23.4989L210.338 23.4191C211.969 23.3609 213.031 23.5151 213.693 24.0999C214.222 24.5934 214.507 25.3837 214.547 26.503C214.59 27.7183 214.336 28.6879 213.716 29.2544C213.096 29.8208 212.209 30.0766 210.546 30.1359L208.339 30.2146ZM224.179 41.2091L239.113 40.6764L238.985 37.0627L229.039 37.4174L228.839 31.821L236.355 31.553L236.221 27.8114L228.706 28.0794L228.517 22.7708L237.919 22.4354L238.173 18.8081L223.399 19.335L224.179 41.2091ZM242.504 40.5555L246.885 40.3993L246.411 27.1277L256.926 40.0412L260.924 39.8986L260.144 18.0245L255.763 18.1808L256.262 32.1879L245.401 18.5503L241.723 18.6814L242.504 40.5555ZM274.136 39.8757C276.95 39.7753 279.384 38.888 280.774 37.4616C282.319 35.9015 282.783 33.6435 282.684 30.8613L282.198 17.238L277.785 17.3954L278.28 31.2745C278.34 32.9695 278.094 34.131 277.353 34.9259C276.707 35.6534 275.663 36.0108 274.224 36.0621C272.785 36.1135 271.685 35.8005 270.988 35.1209C270.193 34.3807 269.863 33.2077 269.804 31.5448L269.31 17.6976L264.353 17.8744L264.847 31.7216C264.959 34.8556 265.696 36.6545 267.185 38.0103C268.707 39.3969 271.098 39.984 274.136 39.8757ZM287.21 38.9611L302.145 38.4285L302.016 34.8148L292.07 35.1695L291.871 29.5731L299.386 29.305L299.252 25.5634L291.737 25.8314L291.548 20.5228L300.95 20.1875L301.205 16.5601L286.43 17.087L287.21 38.9611ZM311.163 38.1069L316.376 37.921L322.855 15.788L317.994 15.9613L313.795 31.9932L308.113 16.3138L302.772 16.5042L311.163 38.1069ZM322.527 37.7016L327.292 37.5317L328.791 31.9707L335.89 31.7175L337.909 37.153L343.25 36.9625L334.571 15.3701L329.07 15.5663L322.527 37.7016ZM329.813 28.3159L331.824 20.9436L331.888 20.9413L334.546 28.1471L329.813 28.3159ZM26.0992 88.2988L31.088 88.1209L30.4368 69.8605L37.0566 69.6244L37.3115 65.997L18.5394 66.6665L18.6683 70.2802L25.448 70.0384L26.0992 88.2988ZM49.1853 87.9237C51.9995 87.8234 54.4334 86.936 55.8234 85.5096C57.3688 83.9495 57.8326 81.6916 57.7334 78.9093L57.2476 65.286L52.8344 65.4434L53.3293 79.3226C53.3898 81.0175 53.143 82.179 52.4029 82.9739C51.7564 83.7014 50.7125 84.0588 49.2734 84.1102C47.8343 84.1615 46.7345 83.8485 46.0378 83.1689C45.2429 82.4287 44.9129 81.2558 44.8536 79.5928L44.3598 65.7456L39.4029 65.9224L39.8967 79.7696C40.0085 82.9036 40.7451 84.7025 42.2344 86.0583C43.7568 87.4449 46.1472 88.0321 49.1853 87.9237ZM78.7967 86.8677C80.5876 86.8038 82.9758 86.4304 84.2732 85.9999L83.6316 82.3725C82.3615 82.6739 80.6734 82.9263 79.6181 82.9639C77.1556 83.0517 75.7634 82.6211 74.7652 81.568C73.6346 80.3915 73.0773 78.234 72.985 75.6437C72.8299 71.2944 73.8065 68.1536 78.5075 67.986C79.8827 67.9369 81.5239 68.1666 83.2359 68.5858L83.7455 64.9173C82.3179 64.3919 79.8726 64.0628 77.9858 64.1301C70.5025 64.397 67.5648 69.1127 67.8088 75.9564C67.9445 79.7619 68.8455 82.5796 70.7711 84.4962C72.4636 86.1649 74.9272 87.0057 78.7967 86.8677ZM87.6348 86.1042L102.569 85.5716L102.44 81.9579L92.4948 82.3126L92.2952 76.7161L99.8104 76.4481L99.677 72.7065L92.1618 72.9745L91.9724 67.6659L101.374 67.3306L101.629 63.7032L86.8547 64.2301L87.6348 86.1042ZM105.959 85.4507L120.638 84.9272L120.509 81.3135L110.819 81.659L110.168 63.3986L105.179 63.5766L105.959 85.4507ZM129.749 84.6022L142.476 84.1483L142.397 81.9097L132.515 82.2622L132.241 74.587L139.884 74.3145L139.802 72.0119L132.159 72.2845L131.894 64.8652L141.328 64.5288L141.504 62.2811L128.968 62.7281L129.749 84.6022ZM151.902 84.2604C154.429 84.1703 156.358 83.4931 157.625 82.1992C158.675 81.1371 159.261 79.6112 159.193 77.6924C158.926 70.2092 147.73 72.3056 147.552 67.3167C147.469 64.9822 149.257 63.9578 152.231 63.8517C153.67 63.8004 155.373 63.9638 156.987 64.3225L157.325 62.1331C155.804 61.675 153.81 61.4259 151.923 61.4932C147.574 61.6483 144.734 63.7349 144.872 67.6044C145.14 75.1196 156.289 72.5767 156.485 78.0772C156.527 79.2604 156.142 80.1387 155.396 80.7737C154.557 81.4761 153.353 81.8392 151.562 81.9031C149.803 81.9658 147.743 81.655 146.063 81.2346L145.661 83.4264C147.348 84.0386 149.888 84.3323 151.902 84.2604ZM167.327 83.262L170.174 83.1605L169.473 63.525L176.317 63.2809L176.493 61.0332L159.576 61.6366L159.656 63.8752L166.627 63.6265L167.327 83.262ZM180.194 82.8032L192.922 82.3492L192.842 80.1107L182.96 80.4631L182.687 72.788L190.33 72.5154L190.248 70.2128L182.605 70.4854L182.34 63.0661L191.774 62.7297L191.95 60.482L179.414 60.9291L180.194 82.8032ZM208.411 81.7968L213.624 81.6109L220.103 59.4779L215.242 59.6513L211.043 75.6831L205.361 60.0037L200.02 60.1942L208.411 81.7968ZM223.325 81.265L238.259 80.7323L238.13 77.1186L228.185 77.4733L227.985 71.8769L235.5 71.6089L235.367 67.8672L227.852 68.1353L227.662 62.8266L237.064 62.4913L237.319 58.8639L222.545 59.3909L223.325 81.265ZM241.649 80.6114L246.638 80.4335L246.355 72.5026L249.106 72.4045L253.418 80.1917L259.046 79.991L254.007 71.5573C256.428 70.3182 257.591 67.9072 257.485 64.9331C257.403 62.6305 256.64 60.9927 255.483 59.9773C253.996 58.6855 251.902 58.3439 248.385 58.4693L240.869 58.7373L241.649 80.6114ZM246.227 68.8888L245.987 62.1731L248.226 62.0933C249.857 62.0351 250.919 62.1894 251.58 62.7742C252.11 63.2676 252.394 64.058 252.434 65.1772C252.478 66.3925 252.224 67.3621 251.604 67.9286C250.984 68.4951 250.096 68.7508 248.433 68.8102L246.227 68.8888ZM259.86 79.962L264.625 79.792L266.124 74.2311L273.223 73.9779L275.242 79.4134L280.583 79.2229L271.904 57.6305L266.403 57.8267L259.86 79.962ZM267.146 70.5763L269.156 63.204L269.22 63.2017L271.879 70.4075L267.146 70.5763ZM282.796 79.144L287.177 78.9877L286.704 65.7162L297.219 78.6296L301.216 78.4871L300.436 56.613L296.055 56.7692L296.554 70.7763L285.693 57.1387L282.016 57.2699L282.796 79.144ZM314.396 78.4653C321.08 78.2269 323.944 74.1542 323.681 66.7669C323.417 59.3796 320.269 55.4894 313.585 55.7278C306.901 55.9661 304.038 60.0708 304.301 67.4581C304.565 74.8454 307.712 78.7037 314.396 78.4653ZM314.257 74.5638C311.027 74.679 309.67 72.55 309.482 67.2733C309.294 61.9967 310.494 59.7445 313.724 59.6293C316.954 59.5141 318.312 61.6751 318.5 66.9517C318.688 72.2283 317.487 74.4486 314.257 74.5638ZM327.832 70.6855L331.222 70.5646L331.39 55.509L326.593 55.6801L327.832 70.6855ZM329.755 77.9175L329.979 77.9095C331.514 77.8548 332.292 77.2187 332.235 75.6197L332.221 75.2359C332.164 73.6369 331.343 73.0578 329.808 73.1126L329.584 73.1206C328.049 73.1753 327.271 73.8114 327.329 75.4104L327.342 75.7942C327.399 77.3932 328.22 77.9723 329.755 77.9175Z" fill="white"/>
<path d="M11.2359 32.6652L11.0121 32.6732C9.47705 32.7279 8.69923 33.364 8.75625 34.963L8.76994 35.3468C8.82696 36.9457 9.64812 37.5248 11.1831 37.4701L11.407 37.4621C12.942 37.4074 13.7199 36.7712 13.6628 35.1723L13.6491 34.7885C13.5921 33.1895 12.771 32.6104 11.2359 32.6652ZM13.1589 39.8972L9.76906 40.0181L9.60155 55.0737L14.3985 54.9026L13.1589 39.8972ZM28.0736 48.6512C29.8645 48.5873 32.2527 48.214 33.5502 47.7835L32.9085 44.156C31.6384 44.4575 29.9504 44.7098 28.895 44.7475C26.4326 44.8353 25.0404 44.4046 24.0422 43.3515C22.9115 42.1751 22.3543 40.0176 22.2619 37.4272C22.1068 33.078 23.0835 29.9372 27.7845 29.7695C29.1596 29.7205 30.8008 29.9501 32.5129 30.3694L33.0224 26.7009C31.5948 26.1754 29.1495 25.8464 27.2627 25.9137C19.7795 26.1805 16.8417 30.8962 17.0858 37.7399C17.2215 41.5455 18.1225 44.3632 20.048 46.2797C21.7406 47.9485 24.2041 48.7892 28.0736 48.6512ZM42.2954 23.3923L48.631 18.7795L46.2841 15.8213L40.6257 21.4666L42.2954 23.3923ZM35.4859 47.9386L40.2509 47.7686L41.7497 42.2077L48.8492 41.9545L50.8682 47.39L56.2088 47.1995L47.5297 25.6071L42.0292 25.8033L35.4859 47.9386ZM42.7721 38.5529L44.7826 31.1806L44.8465 31.1783L47.5051 38.3841L42.7721 38.5529ZM58.4219 47.1206L62.6112 46.9712L62.1573 34.2433L67.1023 41.8158L70.9399 41.679L75.2095 33.9059L75.6589 46.5059L80.232 46.3428L79.4519 24.4687L75.6143 24.6055L68.9185 37.0761L61.5753 25.1062L57.6418 25.2465L58.4219 47.1206ZM84.6477 46.1853L92.4188 45.9081C95.8086 45.7872 97.9319 45.1672 99.2945 43.8698C100.44 42.7723 101.025 41.2144 100.95 39.1038C100.847 36.2256 98.8575 34.3113 96.1256 34.0245C98.1038 32.9293 99.1055 31.3886 99.0257 29.15C98.9687 27.551 98.3794 26.2912 97.3572 25.4631C96.0381 24.3895 94.1011 23.9462 90.999 24.0568L83.8676 24.3112L84.6477 46.1853ZM89.1666 32.8317L88.9853 27.747L90.8081 27.682C92.1513 27.6341 92.9245 27.7666 93.4213 28.2292C93.8519 28.6301 94.0654 29.2308 94.0939 30.0303C94.1259 30.9258 93.9248 31.5733 93.5239 32.0039C92.9985 32.535 92.2367 32.7222 90.8616 32.7713L89.1666 32.8317ZM89.5076 42.3937L89.2955 36.4454L91.3422 36.3724C93.1331 36.3086 94.1621 36.432 94.8542 36.9837C95.447 37.4428 95.7302 38.2012 95.7724 39.3845C95.8043 40.2799 95.5713 40.9286 95.1395 41.3923C94.5536 42.0216 93.4092 42.2545 91.5543 42.3207L89.5076 42.3937ZM104.567 45.4749L109.555 45.297L108.775 23.4229L103.786 23.6008L104.567 45.4749ZM111.814 45.2164L116.579 45.0465L118.077 39.4855L125.177 39.2324L127.196 44.6678L132.537 44.4774L123.857 22.885L118.357 23.0812L111.814 45.2164ZM119.1 35.8308L121.11 28.4584L121.174 28.4562L123.833 35.662L119.1 35.8308ZM138.018 44.2819L143.007 44.104L142.355 25.8436L148.975 25.6075L149.23 21.9801L130.458 22.6496L130.587 26.2633L137.367 26.0215L138.018 44.2819ZM152.293 43.7728L167.228 43.2402L167.099 39.6265L157.153 39.9812L156.954 34.3847L164.469 34.1167L164.336 30.3751L156.82 30.6431L156.631 25.3345L166.033 24.9991L166.288 21.3718L151.513 21.8987L152.293 43.7728ZM184.996 43.0548C191.552 42.821 193.55 37.7865 193.322 31.3906C193.094 24.9947 190.741 20.0834 184.185 20.3172C177.629 20.551 175.633 25.6174 175.861 32.0133C176.089 38.4093 178.44 43.2886 184.996 43.0548ZM184.908 40.5923C180.399 40.7531 179.027 37.2799 178.835 31.9073C178.643 26.5347 179.764 22.9405 184.273 22.7796C188.782 22.6188 190.156 26.1241 190.348 31.4967C190.539 36.8693 189.417 40.4315 184.908 40.5923ZM203.762 41.9372L208.751 41.7593L208.468 33.8283L211.218 33.7302L215.53 41.5175L221.159 41.3168L216.119 32.883C218.541 31.6439 219.703 29.233 219.597 26.2589C219.515 23.9563 218.752 22.3185 217.595 21.3031C216.108 20.0112 214.015 19.6696 210.497 19.7951L202.982 20.0631L203.762 41.9372ZM208.339 30.2146L208.1 23.4989L210.338 23.4191C211.969 23.3609 213.031 23.5151 213.693 24.0999C214.222 24.5934 214.507 25.3837 214.547 26.503C214.59 27.7183 214.336 28.6879 213.716 29.2544C213.096 29.8208 212.209 30.0766 210.546 30.1359L208.339 30.2146ZM224.179 41.2091L239.113 40.6764L238.985 37.0627L229.039 37.4174L228.839 31.821L236.355 31.553L236.221 27.8114L228.706 28.0794L228.517 22.7708L237.919 22.4354L238.173 18.8081L223.399 19.335L224.179 41.2091ZM242.504 40.5555L246.885 40.3993L246.411 27.1277L256.926 40.0412L260.924 39.8986L260.144 18.0245L255.763 18.1808L256.262 32.1879L245.401 18.5503L241.723 18.6814L242.504 40.5555ZM274.136 39.8757C276.95 39.7753 279.384 38.888 280.774 37.4616C282.319 35.9015 282.783 33.6435 282.684 30.8613L282.198 17.238L277.785 17.3954L278.28 31.2745C278.34 32.9695 278.094 34.131 277.353 34.9259C276.707 35.6534 275.663 36.0108 274.224 36.0621C272.785 36.1135 271.685 35.8005 270.988 35.1209C270.193 34.3807 269.863 33.2077 269.804 31.5448L269.31 17.6976L264.353 17.8744L264.847 31.7216C264.959 34.8556 265.696 36.6545 267.185 38.0103C268.707 39.3969 271.098 39.984 274.136 39.8757ZM287.21 38.9611L302.145 38.4285L302.016 34.8148L292.07 35.1695L291.871 29.5731L299.386 29.305L299.252 25.5634L291.737 25.8314L291.548 20.5228L300.95 20.1875L301.205 16.5601L286.43 17.087L287.21 38.9611ZM311.163 38.1069L316.376 37.921L322.855 15.788L317.994 15.9613L313.795 31.9932L308.113 16.3138L302.772 16.5042L311.163 38.1069ZM322.527 37.7016L327.292 37.5317L328.791 31.9707L335.89 31.7175L337.909 37.153L343.25 36.9625L334.571 15.3701L329.07 15.5663L322.527 37.7016ZM329.813 28.3159L331.824 20.9436L331.888 20.9413L334.546 28.1471L329.813 28.3159ZM26.0992 88.2988L31.088 88.1209L30.4368 69.8605L37.0566 69.6244L37.3115 65.997L18.5394 66.6665L18.6683 70.2802L25.448 70.0384L26.0992 88.2988ZM49.1853 87.9237C51.9995 87.8234 54.4334 86.936 55.8234 85.5096C57.3688 83.9495 57.8326 81.6916 57.7334 78.9093L57.2476 65.286L52.8344 65.4434L53.3293 79.3226C53.3898 81.0175 53.143 82.179 52.4029 82.9739C51.7564 83.7014 50.7125 84.0588 49.2734 84.1102C47.8343 84.1615 46.7345 83.8485 46.0378 83.1689C45.2429 82.4287 44.9129 81.2558 44.8536 79.5928L44.3598 65.7456L39.4029 65.9224L39.8967 79.7696C40.0085 82.9036 40.7451 84.7025 42.2344 86.0583C43.7568 87.4449 46.1472 88.0321 49.1853 87.9237ZM78.7967 86.8677C80.5876 86.8038 82.9758 86.4304 84.2732 85.9999L83.6316 82.3725C82.3615 82.6739 80.6734 82.9263 79.6181 82.9639C77.1556 83.0517 75.7634 82.6211 74.7652 81.568C73.6346 80.3915 73.0773 78.234 72.985 75.6437C72.8299 71.2944 73.8065 68.1536 78.5075 67.986C79.8827 67.9369 81.5239 68.1666 83.2359 68.5858L83.7455 64.9173C82.3179 64.3919 79.8726 64.0628 77.9858 64.1301C70.5025 64.397 67.5648 69.1127 67.8088 75.9564C67.9445 79.7619 68.8455 82.5796 70.7711 84.4962C72.4636 86.1649 74.9272 87.0057 78.7967 86.8677ZM87.6348 86.1042L102.569 85.5716L102.44 81.9579L92.4948 82.3126L92.2952 76.7161L99.8104 76.4481L99.677 72.7065L92.1618 72.9745L91.9724 67.6659L101.374 67.3306L101.629 63.7032L86.8547 64.2301L87.6348 86.1042ZM105.959 85.4507L120.638 84.9272L120.509 81.3135L110.819 81.659L110.168 63.3986L105.179 63.5766L105.959 85.4507ZM129.749 84.6022L142.476 84.1483L142.397 81.9097L132.515 82.2622L132.241 74.587L139.884 74.3145L139.802 72.0119L132.159 72.2845L131.894 64.8652L141.328 64.5288L141.504 62.2811L128.968 62.7281L129.749 84.6022ZM151.902 84.2604C154.429 84.1703 156.358 83.4931 157.625 82.1992C158.675 81.1371 159.261 79.6112 159.193 77.6924C158.926 70.2092 147.73 72.3056 147.552 67.3167C147.469 64.9822 149.257 63.9578 152.231 63.8517C153.67 63.8004 155.373 63.9638 156.987 64.3225L157.325 62.1331C155.804 61.675 153.81 61.4259 151.923 61.4932C147.574 61.6483 144.734 63.7349 144.872 67.6044C145.14 75.1196 156.289 72.5767 156.485 78.0772C156.527 79.2604 156.142 80.1387 155.396 80.7737C154.557 81.4761 153.353 81.8392 151.562 81.9031C149.803 81.9658 147.743 81.655 146.063 81.2346L145.661 83.4264C147.348 84.0386 149.888 84.3323 151.902 84.2604ZM167.327 83.262L170.174 83.1605L169.473 63.525L176.317 63.2809L176.493 61.0332L159.576 61.6366L159.656 63.8752L166.627 63.6265L167.327 83.262ZM180.194 82.8032L192.922 82.3492L192.842 80.1107L182.96 80.4631L182.687 72.788L190.33 72.5154L190.248 70.2128L182.605 70.4854L182.34 63.0661L191.774 62.7297L191.95 60.482L179.414 60.9291L180.194 82.8032ZM208.411 81.7968L213.624 81.6109L220.103 59.4779L215.242 59.6513L211.043 75.6831L205.361 60.0037L200.02 60.1942L208.411 81.7968ZM223.325 81.265L238.259 80.7323L238.13 77.1186L228.185 77.4733L227.985 71.8769L235.5 71.6089L235.367 67.8672L227.852 68.1353L227.662 62.8266L237.064 62.4913L237.319 58.8639L222.545 59.3909L223.325 81.265ZM241.649 80.6114L246.638 80.4335L246.355 72.5026L249.106 72.4045L253.418 80.1917L259.046 79.991L254.007 71.5573C256.428 70.3182 257.591 67.9072 257.485 64.9331C257.403 62.6305 256.64 60.9927 255.483 59.9773C253.996 58.6855 251.902 58.3439 248.385 58.4693L240.869 58.7373L241.649 80.6114ZM246.227 68.8888L245.987 62.1731L248.226 62.0933C249.857 62.0351 250.919 62.1894 251.58 62.7742C252.11 63.2676 252.394 64.058 252.434 65.1772C252.478 66.3925 252.224 67.3621 251.604 67.9286C250.984 68.4951 250.096 68.7508 248.433 68.8102L246.227 68.8888ZM259.86 79.962L264.625 79.792L266.124 74.2311L273.223 73.9779L275.242 79.4134L280.583 79.2229L271.904 57.6305L266.403 57.8267L259.86 79.962ZM267.146 70.5763L269.156 63.204L269.22 63.2017L271.879 70.4075L267.146 70.5763ZM282.796 79.144L287.177 78.9877L286.704 65.7162L297.219 78.6296L301.216 78.4871L300.436 56.613L296.055 56.7692L296.554 70.7763L285.693 57.1387L282.016 57.2699L282.796 79.144ZM314.396 78.4653C321.08 78.2269 323.944 74.1542 323.681 66.7669C323.417 59.3796 320.269 55.4894 313.585 55.7278C306.901 55.9661 304.038 60.0708 304.301 67.4581C304.565 74.8454 307.712 78.7037 314.396 78.4653ZM314.257 74.5638C311.027 74.679 309.67 72.55 309.482 67.2733C309.294 61.9967 310.494 59.7445 313.724 59.6293C316.954 59.5141 318.312 61.6751 318.5 66.9517C318.688 72.2283 317.487 74.4486 314.257 74.5638ZM327.832 70.6855L331.222 70.5646L331.39 55.509L326.593 55.6801L327.832 70.6855ZM329.755 77.9175L329.979 77.9095C331.514 77.8548 332.292 77.2187 332.235 75.6197L332.221 75.2359C332.164 73.6369 331.343 73.0578 329.808 73.1126L329.584 73.1206C328.049 73.1753 327.271 73.8114 327.329 75.4104L327.342 75.7942C327.399 77.3932 328.22 77.9723 329.755 77.9175Z" fill="#019DF4"/>
<path d="M8.93905 30.5284L8.7152 30.5364C7.18017 30.5912 6.40235 31.2273 6.45938 32.8263L6.47306 33.21C6.53009 34.809 7.35125 35.3881 8.88627 35.3334L9.11013 35.3254C10.6452 35.2707 11.423 34.6345 11.366 33.0355L11.3523 32.6518C11.2952 31.0528 10.4741 30.4737 8.93905 30.5284ZM10.862 37.7605L7.47219 37.8814L7.30468 52.9369L12.1016 52.7659L10.862 37.7605ZM25.7768 46.5145C27.5676 46.4506 29.9558 46.0773 31.2533 45.6467L30.6116 42.0193C29.3416 42.3208 27.6535 42.5731 26.5982 42.6107C24.1357 42.6986 22.7435 42.2679 21.7453 41.2148C20.6147 40.0384 20.0574 37.8808 19.965 35.2905C19.8099 30.9413 20.7866 27.8005 25.4876 27.6328C26.8627 27.5838 28.504 27.8134 30.216 28.2327L30.7256 24.5642C29.2979 24.0387 26.8527 23.7097 24.9659 23.7769C17.4826 24.0438 14.5448 28.7595 14.7889 35.6032C14.9246 39.4088 15.8256 42.2264 17.7511 44.143C19.4437 45.8118 21.9072 46.6525 25.7768 46.5145ZM39.9985 21.2556L46.3342 16.6428L43.9872 13.6846L38.3288 19.3298L39.9985 21.2556ZM33.1891 45.8019L37.954 45.6319L39.4528 40.071L46.5523 39.8178L48.5713 45.2533L53.9119 45.0628L45.2328 23.4704L39.7323 23.6666L33.1891 45.8019ZM40.4752 36.4162L42.4857 29.0439L42.5497 29.0416L45.2082 36.2474L40.4752 36.4162ZM56.125 44.9839L60.3143 44.8345L59.8604 32.1066L64.8054 39.6791L68.643 39.5423L72.9127 31.7691L73.362 44.3691L77.9351 44.206L77.155 22.3319L73.3175 22.4688L66.6217 34.9394L59.2784 22.9695L55.3449 23.1098L56.125 44.9839ZM82.3508 44.0486L90.1219 43.7714C93.5117 43.6505 95.635 43.0305 96.9976 41.7331C98.1432 40.6355 98.7281 39.0777 98.6528 36.967C98.5501 34.0889 96.5606 32.1746 93.8287 31.8877C95.8069 30.7925 96.8086 29.2519 96.7288 27.0133C96.6718 25.4143 96.0825 24.1545 95.0603 23.3264C93.7412 22.2527 91.8042 21.8095 88.7022 21.9201L81.5707 22.1745L82.3508 44.0486ZM86.8698 30.695L86.6884 25.6102L88.5113 25.5452C89.8544 25.4973 90.6276 25.6299 91.1244 26.0925C91.555 26.4934 91.7685 27.0941 91.797 27.8936C91.829 28.7891 91.6279 29.4366 91.227 29.8672C90.7016 30.3983 89.9398 30.5855 88.5647 30.6346L86.8698 30.695ZM87.2108 40.2569L86.9986 34.3087L89.0453 34.2357C90.8362 34.1719 91.8652 34.2953 92.5574 34.8469C93.1501 35.3061 93.4333 36.0645 93.4755 37.2477C93.5074 38.1432 93.2744 38.7919 92.8427 39.2556C92.2567 39.8849 91.1123 40.1178 89.2575 40.1839L87.2108 40.2569ZM102.27 43.3382L107.258 43.1603L106.478 21.2862L101.49 21.4641L102.27 43.3382ZM109.517 43.0797L114.282 42.9098L115.781 37.3488L122.88 37.0956L124.899 42.5311L130.24 42.3407L121.561 20.7483L116.06 20.9444L109.517 43.0797ZM116.803 33.6941L118.813 26.3217L118.877 26.3194L121.536 33.5253L116.803 33.6941ZM135.721 42.1452L140.71 41.9673L140.058 23.7069L146.678 23.4708L146.933 19.8434L128.161 20.5129L128.29 24.1266L135.07 23.8848L135.721 42.1452ZM149.997 41.6361L164.931 41.1034L164.802 37.4897L154.857 37.8444L154.657 32.248L162.172 31.98L162.039 28.2383L154.523 28.5064L154.334 23.1977L163.736 22.8624L163.991 19.235L149.216 19.762L149.997 41.6361ZM182.699 40.918C189.255 40.6842 191.253 35.6498 191.025 29.2539C190.797 22.858 188.444 17.9467 181.888 18.1805C175.333 18.4143 173.336 23.4807 173.564 29.8766C173.792 36.2726 176.143 41.1518 182.699 40.918ZM182.611 38.4556C178.102 38.6164 176.73 35.1431 176.538 29.7705C176.346 24.398 177.467 20.8037 181.976 20.6429C186.485 20.4821 187.859 23.9874 188.051 29.36C188.242 34.7325 187.121 38.2948 182.611 38.4556ZM201.465 39.8005L206.454 39.6226L206.171 31.6916L208.921 31.5935L213.234 39.3808L218.862 39.1801L213.822 30.7463C216.244 29.5072 217.406 27.0963 217.3 24.1221C217.218 21.8196 216.455 20.1818 215.298 19.1663C213.811 17.8745 211.718 17.5329 208.2 17.6584L200.685 17.9264L201.465 39.8005ZM206.042 28.0779L205.803 21.3622L208.041 21.2823C209.672 21.2242 210.734 21.3784 211.396 21.9632C211.926 22.4566 212.21 23.247 212.25 24.3663C212.293 25.5815 212.04 26.5512 211.419 27.1177C210.799 27.6841 209.912 27.9399 208.249 27.9992L206.042 28.0779ZM221.882 39.0723L236.817 38.5397L236.688 34.926L226.742 35.2807L226.542 29.6843L234.058 29.4163L233.924 25.6746L226.409 25.9427L226.22 20.634L235.622 20.2987L235.877 16.6713L221.102 17.1983L221.882 39.0723ZM240.207 38.4188L244.588 38.2626L244.115 24.991L254.63 37.9044L258.627 37.7619L257.847 15.8878L253.466 16.044L253.965 30.0511L243.104 16.4136L239.427 16.5447L240.207 38.4188ZM271.839 37.739C274.653 37.6386 277.087 36.7513 278.477 35.3249C280.022 33.7648 280.486 31.5068 280.387 28.7246L279.901 15.1012L275.488 15.2586L275.983 29.1378C276.043 30.8327 275.797 31.9943 275.056 32.7892C274.41 33.5167 273.366 33.8741 271.927 33.9254C270.488 33.9767 269.388 33.6637 268.691 32.9841C267.897 32.244 267.566 31.071 267.507 29.4081L267.013 15.5609L262.056 15.7377L262.55 29.5849C262.662 32.7189 263.399 34.5178 264.888 35.8735C266.41 37.2602 268.801 37.8473 271.839 37.739ZM284.913 36.8244L299.848 36.2918L299.719 32.6781L289.773 33.0328L289.574 27.4363L297.089 27.1683L296.955 23.4267L289.44 23.6947L289.251 18.3861L298.653 18.0508L298.908 14.4234L284.133 14.9503L284.913 36.8244ZM308.866 35.9702L314.079 35.7843L320.558 13.6513L315.697 13.8246L311.498 29.8565L305.816 14.177L300.475 14.3675L308.866 35.9702ZM320.23 35.5649L324.995 35.3949L326.494 29.834L333.594 29.5808L335.613 35.0163L340.953 34.8258L332.274 13.2334L326.774 13.4296L320.23 35.5649ZM327.516 26.1792L329.527 18.8069L329.591 18.8046L332.249 26.0104L327.516 26.1792ZM23.8023 86.1621L28.7912 85.9841L28.1399 67.7237L34.7597 67.4877L35.0146 63.8603L16.2425 64.5297L16.3714 68.1434L23.1511 67.9017L23.8023 86.1621ZM46.8884 85.787C49.7026 85.6866 52.1365 84.7993 53.5266 83.3729C55.0719 81.8128 55.5358 79.5548 55.4365 76.7726L54.9507 63.1493L50.5375 63.3067L51.0325 77.1858C51.0929 78.8808 50.8462 80.0423 50.106 80.8372C49.4595 81.5647 48.4156 81.9221 46.9765 81.9734C45.5374 82.0248 44.4376 81.7118 43.7409 81.0322C42.946 80.292 42.616 79.119 42.5567 77.4561L42.0629 63.6089L37.106 63.7857L37.5999 77.6329C37.7116 80.7669 38.4482 82.5658 39.9375 83.9216C41.4599 85.3082 43.8503 85.8954 46.8884 85.787ZM76.4998 84.7309C78.2907 84.6671 80.6789 84.2937 81.9764 83.8632L81.3347 80.2358C80.0646 80.5372 78.3765 80.7896 77.3212 80.8272C74.8588 80.915 73.4665 80.4844 72.4684 79.4313C71.3377 78.2548 70.7805 76.0973 70.6881 73.5069C70.533 69.1577 71.5097 66.0169 76.2107 65.8493C77.5858 65.8002 79.227 66.0299 80.9391 66.4491L81.4486 62.7806C80.021 62.2552 77.5757 61.9261 75.6889 61.9934C68.2057 62.2603 65.2679 66.976 65.5119 73.8196C65.6477 77.6252 66.5487 80.4429 68.4742 82.3595C70.1668 84.0282 72.6303 84.8689 76.4998 84.7309ZM85.338 83.9675L100.272 83.4348L100.144 79.8211L90.1979 80.1758L89.9983 74.5794L97.5136 74.3114L97.3801 70.5697L89.8649 70.8378L89.6756 65.5291L99.0776 65.1938L99.3325 61.5664L84.5579 62.0934L85.338 83.9675ZM103.663 83.3139L118.341 82.7904L118.212 79.1767L108.523 79.5223L107.871 61.2619L102.882 61.4398L103.663 83.3139ZM127.452 82.4655L140.18 82.0116L140.1 79.773L130.218 80.1254L129.944 72.4503L137.587 72.1777L137.505 69.8752L129.862 70.1478L129.598 62.7285L139.032 62.392L139.208 60.1443L126.672 60.5914L127.452 82.4655ZM149.606 82.1237C152.132 82.0336 154.061 81.3564 155.328 80.0625C156.379 79.0003 156.965 77.4745 156.896 75.5557C156.629 68.0725 145.433 70.1688 145.255 65.18C145.172 62.8455 146.96 61.8211 149.934 61.715C151.374 61.6637 153.076 61.8271 154.69 62.1858L155.028 59.9964C153.507 59.5383 151.513 59.2892 149.626 59.3565C145.277 59.5116 142.437 61.5982 142.575 65.4677C142.844 72.9829 153.992 70.44 154.188 75.9405C154.23 77.1237 153.845 78.002 153.1 78.637C152.26 79.3393 151.056 79.7025 149.265 79.7663C147.506 79.8291 145.446 79.5183 143.766 79.0979L143.364 81.2896C145.051 81.9019 147.591 82.1956 149.606 82.1237ZM165.031 81.1253L167.877 81.0238L167.176 61.3883L174.02 61.1442L174.196 58.8965L157.279 59.4999L157.359 61.7384L164.33 61.4898L165.031 81.1253ZM177.897 80.6664L190.625 80.2125L190.545 77.9739L180.663 78.3264L180.39 70.6512L188.033 70.3787L187.951 68.0761L180.308 68.3487L180.043 60.9294L189.477 60.593L189.653 58.3453L177.117 58.7924L177.897 80.6664ZM206.114 79.6601L211.327 79.4742L217.806 57.3412L212.945 57.5146L208.746 73.5464L203.064 57.867L197.723 58.0575L206.114 79.6601ZM221.028 79.1282L235.962 78.5956L235.834 74.9819L225.888 75.3366L225.688 69.7402L233.204 69.4722L233.07 65.7305L225.555 65.9986L225.366 60.6899L234.768 60.3546L235.022 56.7272L220.248 57.2541L221.028 79.1282ZM239.353 78.4747L244.341 78.2968L244.059 70.3658L246.809 70.2677L251.121 78.055L256.75 77.8543L251.71 69.4205C254.131 68.1814 255.294 65.7705 255.188 62.7964C255.106 60.4938 254.343 58.856 253.186 57.8406C251.699 56.5487 249.605 56.2071 246.088 56.3326L238.572 56.6006L239.353 78.4747ZM243.93 66.7521L243.69 60.0364L245.929 59.9566C247.56 59.8984 248.622 60.0526 249.283 60.6374C249.813 61.1309 250.097 61.9212 250.137 63.0405C250.181 64.2558 249.927 65.2254 249.307 65.7919C248.687 66.3583 247.799 66.6141 246.136 66.6734L243.93 66.7521ZM257.563 77.8253L262.328 77.6553L263.827 72.0944L270.926 71.8412L272.945 77.2767L278.286 77.0862L269.607 55.4938L264.106 55.69L257.563 77.8253ZM264.849 68.4396L266.86 61.0673L266.924 61.065L269.582 68.2708L264.849 68.4396ZM280.499 77.0073L284.88 76.851L284.407 63.5795L294.922 76.4929L298.919 76.3503L298.139 54.4762L293.758 54.6325L294.257 68.6396L283.396 55.002L279.719 55.1332L280.499 77.0073ZM312.099 76.3286C318.783 76.0902 321.647 72.0175 321.384 64.6302C321.121 57.2429 317.972 53.3527 311.288 53.591C304.604 53.8294 301.741 57.9341 302.004 65.3214C302.268 72.7087 305.415 76.5669 312.099 76.3286ZM311.96 72.4271C308.73 72.5423 307.373 70.4133 307.185 65.1366C306.997 59.86 308.197 57.6077 311.427 57.4926C314.657 57.3774 316.015 59.5383 316.203 64.815C316.391 70.0916 315.19 72.3119 311.96 72.4271ZM325.536 68.5487L328.925 68.4279L329.093 53.3723L324.296 53.5434L325.536 68.5487ZM327.459 75.7808L327.682 75.7728C329.217 75.7181 329.995 75.0819 329.938 73.483L329.925 73.0992C329.867 71.5002 329.046 70.9211 327.511 70.9759L327.287 70.9839C325.752 71.0386 324.975 71.6747 325.032 73.2737L325.045 73.6575C325.102 75.2564 325.924 75.8355 327.459 75.7808Z" fill="white"/>
<path d="M8.93905 30.5284L8.7152 30.5364C7.18017 30.5912 6.40235 31.2273 6.45938 32.8263L6.47306 33.21C6.53009 34.809 7.35125 35.3881 8.88627 35.3334L9.11013 35.3254C10.6452 35.2707 11.423 34.6345 11.366 33.0355L11.3523 32.6518C11.2952 31.0528 10.4741 30.4737 8.93905 30.5284ZM10.862 37.7605L7.47219 37.8814L7.30468 52.9369L12.1016 52.7659L10.862 37.7605ZM25.7768 46.5145C27.5676 46.4506 29.9558 46.0773 31.2533 45.6467L30.6116 42.0193C29.3416 42.3208 27.6535 42.5731 26.5982 42.6107C24.1357 42.6986 22.7435 42.2679 21.7453 41.2148C20.6147 40.0384 20.0574 37.8808 19.965 35.2905C19.8099 30.9413 20.7866 27.8005 25.4876 27.6328C26.8627 27.5838 28.504 27.8134 30.216 28.2327L30.7256 24.5642C29.2979 24.0387 26.8527 23.7097 24.9659 23.7769C17.4826 24.0438 14.5448 28.7595 14.7889 35.6032C14.9246 39.4088 15.8256 42.2264 17.7511 44.143C19.4437 45.8118 21.9072 46.6525 25.7768 46.5145ZM39.9985 21.2556L46.3342 16.6428L43.9872 13.6846L38.3288 19.3298L39.9985 21.2556ZM33.1891 45.8019L37.954 45.6319L39.4528 40.071L46.5523 39.8178L48.5713 45.2533L53.9119 45.0628L45.2328 23.4704L39.7323 23.6666L33.1891 45.8019ZM40.4752 36.4162L42.4857 29.0439L42.5497 29.0416L45.2082 36.2474L40.4752 36.4162ZM56.125 44.9839L60.3143 44.8345L59.8604 32.1066L64.8054 39.6791L68.643 39.5423L72.9127 31.7691L73.362 44.3691L77.9351 44.206L77.155 22.3319L73.3175 22.4688L66.6217 34.9394L59.2784 22.9695L55.3449 23.1098L56.125 44.9839ZM82.3508 44.0486L90.1219 43.7714C93.5117 43.6505 95.635 43.0305 96.9976 41.7331C98.1432 40.6355 98.7281 39.0777 98.6528 36.967C98.5501 34.0889 96.5606 32.1746 93.8287 31.8877C95.8069 30.7925 96.8086 29.2519 96.7288 27.0133C96.6718 25.4143 96.0825 24.1545 95.0603 23.3264C93.7412 22.2527 91.8042 21.8095 88.7022 21.9201L81.5707 22.1745L82.3508 44.0486ZM86.8698 30.695L86.6884 25.6102L88.5113 25.5452C89.8544 25.4973 90.6276 25.6299 91.1244 26.0925C91.555 26.4934 91.7685 27.0941 91.797 27.8936C91.829 28.7891 91.6279 29.4366 91.227 29.8672C90.7016 30.3983 89.9398 30.5855 88.5647 30.6346L86.8698 30.695ZM87.2108 40.2569L86.9986 34.3087L89.0453 34.2357C90.8362 34.1719 91.8652 34.2953 92.5574 34.8469C93.1501 35.3061 93.4333 36.0645 93.4755 37.2477C93.5074 38.1432 93.2744 38.7919 92.8427 39.2556C92.2567 39.8849 91.1123 40.1178 89.2575 40.1839L87.2108 40.2569ZM102.27 43.3382L107.258 43.1603L106.478 21.2862L101.49 21.4641L102.27 43.3382ZM109.517 43.0797L114.282 42.9098L115.781 37.3488L122.88 37.0956L124.899 42.5311L130.24 42.3407L121.561 20.7483L116.06 20.9444L109.517 43.0797ZM116.803 33.6941L118.813 26.3217L118.877 26.3194L121.536 33.5253L116.803 33.6941ZM135.721 42.1452L140.71 41.9673L140.058 23.7069L146.678 23.4708L146.933 19.8434L128.161 20.5129L128.29 24.1266L135.07 23.8848L135.721 42.1452ZM149.997 41.6361L164.931 41.1034L164.802 37.4897L154.857 37.8444L154.657 32.248L162.172 31.98L162.039 28.2383L154.523 28.5064L154.334 23.1977L163.736 22.8624L163.991 19.235L149.216 19.762L149.997 41.6361ZM182.699 40.918C189.255 40.6842 191.253 35.6498 191.025 29.2539C190.797 22.858 188.444 17.9467 181.888 18.1805C175.333 18.4143 173.336 23.4807 173.564 29.8766C173.792 36.2726 176.143 41.1518 182.699 40.918ZM182.611 38.4556C178.102 38.6164 176.73 35.1431 176.538 29.7705C176.346 24.398 177.467 20.8037 181.976 20.6429C186.485 20.4821 187.859 23.9874 188.051 29.36C188.242 34.7325 187.121 38.2948 182.611 38.4556ZM201.465 39.8005L206.454 39.6226L206.171 31.6916L208.921 31.5935L213.234 39.3808L218.862 39.1801L213.822 30.7463C216.244 29.5072 217.406 27.0963 217.3 24.1221C217.218 21.8196 216.455 20.1818 215.298 19.1663C213.811 17.8745 211.718 17.5329 208.2 17.6584L200.685 17.9264L201.465 39.8005ZM206.042 28.0779L205.803 21.3622L208.041 21.2823C209.672 21.2242 210.734 21.3784 211.396 21.9632C211.926 22.4566 212.21 23.247 212.25 24.3663C212.293 25.5815 212.04 26.5512 211.419 27.1177C210.799 27.6841 209.912 27.9399 208.249 27.9992L206.042 28.0779ZM221.882 39.0723L236.817 38.5397L236.688 34.926L226.742 35.2807L226.542 29.6843L234.058 29.4163L233.924 25.6746L226.409 25.9427L226.22 20.634L235.622 20.2987L235.877 16.6713L221.102 17.1983L221.882 39.0723ZM240.207 38.4188L244.588 38.2626L244.115 24.991L254.63 37.9044L258.627 37.7619L257.847 15.8878L253.466 16.044L253.965 30.0511L243.104 16.4136L239.427 16.5447L240.207 38.4188ZM271.839 37.739C274.653 37.6386 277.087 36.7513 278.477 35.3249C280.022 33.7648 280.486 31.5068 280.387 28.7246L279.901 15.1012L275.488 15.2586L275.983 29.1378C276.043 30.8327 275.797 31.9943 275.056 32.7892C274.41 33.5167 273.366 33.8741 271.927 33.9254C270.488 33.9767 269.388 33.6637 268.691 32.9841C267.897 32.244 267.566 31.071 267.507 29.4081L267.013 15.5609L262.056 15.7377L262.55 29.5849C262.662 32.7189 263.399 34.5178 264.888 35.8735C266.41 37.2602 268.801 37.8473 271.839 37.739ZM284.913 36.8244L299.848 36.2918L299.719 32.6781L289.773 33.0328L289.574 27.4363L297.089 27.1683L296.955 23.4267L289.44 23.6947L289.251 18.3861L298.653 18.0508L298.908 14.4234L284.133 14.9503L284.913 36.8244ZM308.866 35.9702L314.079 35.7843L320.558 13.6513L315.697 13.8246L311.498 29.8565L305.816 14.177L300.475 14.3675L308.866 35.9702ZM320.23 35.5649L324.995 35.3949L326.494 29.834L333.594 29.5808L335.613 35.0163L340.953 34.8258L332.274 13.2334L326.774 13.4296L320.23 35.5649ZM327.516 26.1792L329.527 18.8069L329.591 18.8046L332.249 26.0104L327.516 26.1792ZM23.8023 86.1621L28.7912 85.9841L28.1399 67.7237L34.7597 67.4877L35.0146 63.8603L16.2425 64.5297L16.3714 68.1434L23.1511 67.9017L23.8023 86.1621ZM46.8884 85.787C49.7026 85.6866 52.1365 84.7993 53.5266 83.3729C55.0719 81.8128 55.5358 79.5548 55.4365 76.7726L54.9507 63.1493L50.5375 63.3067L51.0325 77.1858C51.0929 78.8808 50.8462 80.0423 50.106 80.8372C49.4595 81.5647 48.4156 81.9221 46.9765 81.9734C45.5374 82.0248 44.4376 81.7118 43.7409 81.0322C42.946 80.292 42.616 79.119 42.5567 77.4561L42.0629 63.6089L37.106 63.7857L37.5999 77.6329C37.7116 80.7669 38.4482 82.5658 39.9375 83.9216C41.4599 85.3082 43.8503 85.8954 46.8884 85.787ZM76.4998 84.7309C78.2907 84.6671 80.6789 84.2937 81.9764 83.8632L81.3347 80.2358C80.0646 80.5372 78.3765 80.7896 77.3212 80.8272C74.8588 80.915 73.4665 80.4844 72.4684 79.4313C71.3377 78.2548 70.7805 76.0973 70.6881 73.5069C70.533 69.1577 71.5097 66.0169 76.2107 65.8493C77.5858 65.8002 79.227 66.0299 80.9391 66.4491L81.4486 62.7806C80.021 62.2552 77.5757 61.9261 75.6889 61.9934C68.2057 62.2603 65.2679 66.976 65.5119 73.8196C65.6477 77.6252 66.5487 80.4429 68.4742 82.3595C70.1668 84.0282 72.6303 84.8689 76.4998 84.7309ZM85.338 83.9675L100.272 83.4348L100.144 79.8211L90.1979 80.1758L89.9983 74.5794L97.5136 74.3114L97.3801 70.5697L89.8649 70.8378L89.6756 65.5291L99.0776 65.1938L99.3325 61.5664L84.5579 62.0934L85.338 83.9675ZM103.663 83.3139L118.341 82.7904L118.212 79.1767L108.523 79.5223L107.871 61.2619L102.882 61.4398L103.663 83.3139ZM127.452 82.4655L140.18 82.0116L140.1 79.773L130.218 80.1254L129.944 72.4503L137.587 72.1777L137.505 69.8752L129.862 70.1478L129.598 62.7285L139.032 62.392L139.208 60.1443L126.672 60.5914L127.452 82.4655ZM149.606 82.1237C152.132 82.0336 154.061 81.3564 155.328 80.0625C156.379 79.0003 156.965 77.4745 156.896 75.5557C156.629 68.0725 145.433 70.1688 145.255 65.18C145.172 62.8455 146.96 61.8211 149.934 61.715C151.374 61.6637 153.076 61.8271 154.69 62.1858L155.028 59.9964C153.507 59.5383 151.513 59.2892 149.626 59.3565C145.277 59.5116 142.437 61.5982 142.575 65.4677C142.844 72.9829 153.992 70.44 154.188 75.9405C154.23 77.1237 153.845 78.002 153.1 78.637C152.26 79.3393 151.056 79.7025 149.265 79.7663C147.506 79.8291 145.446 79.5183 143.766 79.0979L143.364 81.2896C145.051 81.9019 147.591 82.1956 149.606 82.1237ZM165.031 81.1253L167.877 81.0238L167.176 61.3883L174.02 61.1442L174.196 58.8965L157.279 59.4999L157.359 61.7384L164.33 61.4898L165.031 81.1253ZM177.897 80.6664L190.625 80.2125L190.545 77.9739L180.663 78.3264L180.39 70.6512L188.033 70.3787L187.951 68.0761L180.308 68.3487L180.043 60.9294L189.477 60.593L189.653 58.3453L177.117 58.7924L177.897 80.6664ZM206.114 79.6601L211.327 79.4742L217.806 57.3412L212.945 57.5146L208.746 73.5464L203.064 57.867L197.723 58.0575L206.114 79.6601ZM221.028 79.1282L235.962 78.5956L235.834 74.9819L225.888 75.3366L225.688 69.7402L233.204 69.4722L233.07 65.7305L225.555 65.9986L225.366 60.6899L234.768 60.3546L235.022 56.7272L220.248 57.2541L221.028 79.1282ZM239.353 78.4747L244.341 78.2968L244.059 70.3658L246.809 70.2677L251.121 78.055L256.75 77.8543L251.71 69.4205C254.131 68.1814 255.294 65.7705 255.188 62.7964C255.106 60.4938 254.343 58.856 253.186 57.8406C251.699 56.5487 249.605 56.2071 246.088 56.3326L238.572 56.6006L239.353 78.4747ZM243.93 66.7521L243.69 60.0364L245.929 59.9566C247.56 59.8984 248.622 60.0526 249.283 60.6374C249.813 61.1309 250.097 61.9212 250.137 63.0405C250.181 64.2558 249.927 65.2254 249.307 65.7919C248.687 66.3583 247.799 66.6141 246.136 66.6734L243.93 66.7521ZM257.563 77.8253L262.328 77.6553L263.827 72.0944L270.926 71.8412L272.945 77.2767L278.286 77.0862L269.607 55.4938L264.106 55.69L257.563 77.8253ZM264.849 68.4396L266.86 61.0673L266.924 61.065L269.582 68.2708L264.849 68.4396ZM280.499 77.0073L284.88 76.851L284.407 63.5795L294.922 76.4929L298.919 76.3503L298.139 54.4762L293.758 54.6325L294.257 68.6396L283.396 55.002L279.719 55.1332L280.499 77.0073ZM312.099 76.3286C318.783 76.0902 321.647 72.0175 321.384 64.6302C321.121 57.2429 317.972 53.3527 311.288 53.591C304.604 53.8294 301.741 57.9341 302.004 65.3214C302.268 72.7087 305.415 76.5669 312.099 76.3286ZM311.96 72.4271C308.73 72.5423 307.373 70.4133 307.185 65.1366C306.997 59.86 308.197 57.6077 311.427 57.4926C314.657 57.3774 316.015 59.5383 316.203 64.815C316.391 70.0916 315.19 72.3119 311.96 72.4271ZM325.536 68.5487L328.925 68.4279L329.093 53.3723L324.296 53.5434L325.536 68.5487ZM327.459 75.7808L327.682 75.7728C329.217 75.7181 329.995 75.0819 329.938 73.483L329.925 73.0992C329.867 71.5002 329.046 70.9211 327.511 70.9759L327.287 70.9839C325.752 71.0386 324.975 71.6747 325.032 73.2737L325.045 73.6575C325.102 75.2564 325.924 75.8355 327.459 75.7808Z" fill="white"/>
<path d="M8.93905 30.5284L8.7152 30.5364C7.18017 30.5912 6.40235 31.2273 6.45938 32.8263L6.47306 33.21C6.53009 34.809 7.35125 35.3881 8.88627 35.3334L9.11013 35.3254C10.6452 35.2707 11.423 34.6345 11.366 33.0355L11.3523 32.6518C11.2952 31.0528 10.4741 30.4737 8.93905 30.5284ZM10.862 37.7605L7.47219 37.8814L7.30468 52.9369L12.1016 52.7659L10.862 37.7605ZM25.7768 46.5145C27.5676 46.4506 29.9558 46.0773 31.2533 45.6467L30.6116 42.0193C29.3416 42.3208 27.6535 42.5731 26.5982 42.6107C24.1357 42.6986 22.7435 42.2679 21.7453 41.2148C20.6147 40.0384 20.0574 37.8808 19.965 35.2905C19.8099 30.9413 20.7866 27.8005 25.4876 27.6328C26.8627 27.5838 28.504 27.8134 30.216 28.2327L30.7256 24.5642C29.2979 24.0387 26.8527 23.7097 24.9659 23.7769C17.4826 24.0438 14.5448 28.7595 14.7889 35.6032C14.9246 39.4088 15.8256 42.2264 17.7511 44.143C19.4437 45.8118 21.9072 46.6525 25.7768 46.5145ZM39.9985 21.2556L46.3342 16.6428L43.9872 13.6846L38.3288 19.3298L39.9985 21.2556ZM33.1891 45.8019L37.954 45.6319L39.4528 40.071L46.5523 39.8178L48.5713 45.2533L53.9119 45.0628L45.2328 23.4704L39.7323 23.6666L33.1891 45.8019ZM40.4752 36.4162L42.4857 29.0439L42.5497 29.0416L45.2082 36.2474L40.4752 36.4162ZM56.125 44.9839L60.3143 44.8345L59.8604 32.1066L64.8054 39.6791L68.643 39.5423L72.9127 31.7691L73.362 44.3691L77.9351 44.206L77.155 22.3319L73.3175 22.4688L66.6217 34.9394L59.2784 22.9695L55.3449 23.1098L56.125 44.9839ZM82.3508 44.0486L90.1219 43.7714C93.5117 43.6505 95.635 43.0305 96.9976 41.7331C98.1432 40.6355 98.7281 39.0777 98.6528 36.967C98.5501 34.0889 96.5606 32.1746 93.8287 31.8877C95.8069 30.7925 96.8086 29.2519 96.7288 27.0133C96.6718 25.4143 96.0825 24.1545 95.0603 23.3264C93.7412 22.2527 91.8042 21.8095 88.7022 21.9201L81.5707 22.1745L82.3508 44.0486ZM86.8698 30.695L86.6884 25.6102L88.5113 25.5452C89.8544 25.4973 90.6276 25.6299 91.1244 26.0925C91.555 26.4934 91.7685 27.0941 91.797 27.8936C91.829 28.7891 91.6279 29.4366 91.227 29.8672C90.7016 30.3983 89.9398 30.5855 88.5647 30.6346L86.8698 30.695ZM87.2108 40.2569L86.9986 34.3087L89.0453 34.2357C90.8362 34.1719 91.8652 34.2953 92.5574 34.8469C93.1501 35.3061 93.4333 36.0645 93.4755 37.2477C93.5074 38.1432 93.2744 38.7919 92.8427 39.2556C92.2567 39.8849 91.1123 40.1178 89.2575 40.1839L87.2108 40.2569ZM102.27 43.3382L107.258 43.1603L106.478 21.2862L101.49 21.4641L102.27 43.3382ZM109.517 43.0797L114.282 42.9098L115.781 37.3488L122.88 37.0956L124.899 42.5311L130.24 42.3407L121.561 20.7483L116.06 20.9444L109.517 43.0797ZM116.803 33.6941L118.813 26.3217L118.877 26.3194L121.536 33.5253L116.803 33.6941ZM135.721 42.1452L140.71 41.9673L140.058 23.7069L146.678 23.4708L146.933 19.8434L128.161 20.5129L128.29 24.1266L135.07 23.8848L135.721 42.1452ZM149.997 41.6361L164.931 41.1034L164.802 37.4897L154.857 37.8444L154.657 32.248L162.172 31.98L162.039 28.2383L154.523 28.5064L154.334 23.1977L163.736 22.8624L163.991 19.235L149.216 19.762L149.997 41.6361ZM182.699 40.918C189.255 40.6842 191.253 35.6498 191.025 29.2539C190.797 22.858 188.444 17.9467 181.888 18.1805C175.333 18.4143 173.336 23.4807 173.564 29.8766C173.792 36.2726 176.143 41.1518 182.699 40.918ZM182.611 38.4556C178.102 38.6164 176.73 35.1431 176.538 29.7705C176.346 24.398 177.467 20.8037 181.976 20.6429C186.485 20.4821 187.859 23.9874 188.051 29.36C188.242 34.7325 187.121 38.2948 182.611 38.4556ZM201.465 39.8005L206.454 39.6226L206.171 31.6916L208.921 31.5935L213.234 39.3808L218.862 39.1801L213.822 30.7463C216.244 29.5072 217.406 27.0963 217.3 24.1221C217.218 21.8196 216.455 20.1818 215.298 19.1663C213.811 17.8745 211.718 17.5329 208.2 17.6584L200.685 17.9264L201.465 39.8005ZM206.042 28.0779L205.803 21.3622L208.041 21.2823C209.672 21.2242 210.734 21.3784 211.396 21.9632C211.926 22.4566 212.21 23.247 212.25 24.3663C212.293 25.5815 212.04 26.5512 211.419 27.1177C210.799 27.6841 209.912 27.9399 208.249 27.9992L206.042 28.0779ZM221.882 39.0723L236.817 38.5397L236.688 34.926L226.742 35.2807L226.542 29.6843L234.058 29.4163L233.924 25.6746L226.409 25.9427L226.22 20.634L235.622 20.2987L235.877 16.6713L221.102 17.1983L221.882 39.0723ZM240.207 38.4188L244.588 38.2626L244.115 24.991L254.63 37.9044L258.627 37.7619L257.847 15.8878L253.466 16.044L253.965 30.0511L243.104 16.4136L239.427 16.5447L240.207 38.4188ZM271.839 37.739C274.653 37.6386 277.087 36.7513 278.477 35.3249C280.022 33.7648 280.486 31.5068 280.387 28.7246L279.901 15.1012L275.488 15.2586L275.983 29.1378C276.043 30.8327 275.797 31.9943 275.056 32.7892C274.41 33.5167 273.366 33.8741 271.927 33.9254C270.488 33.9767 269.388 33.6637 268.691 32.9841C267.897 32.244 267.566 31.071 267.507 29.4081L267.013 15.5609L262.056 15.7377L262.55 29.5849C262.662 32.7189 263.399 34.5178 264.888 35.8735C266.41 37.2602 268.801 37.8473 271.839 37.739ZM284.913 36.8244L299.848 36.2918L299.719 32.6781L289.773 33.0328L289.574 27.4363L297.089 27.1683L296.955 23.4267L289.44 23.6947L289.251 18.3861L298.653 18.0508L298.908 14.4234L284.133 14.9503L284.913 36.8244ZM308.866 35.9702L314.079 35.7843L320.558 13.6513L315.697 13.8246L311.498 29.8565L305.816 14.177L300.475 14.3675L308.866 35.9702ZM320.23 35.5649L324.995 35.3949L326.494 29.834L333.594 29.5808L335.613 35.0163L340.953 34.8258L332.274 13.2334L326.774 13.4296L320.23 35.5649ZM327.516 26.1792L329.527 18.8069L329.591 18.8046L332.249 26.0104L327.516 26.1792ZM23.8023 86.1621L28.7912 85.9841L28.1399 67.7237L34.7597 67.4877L35.0146 63.8603L16.2425 64.5297L16.3714 68.1434L23.1511 67.9017L23.8023 86.1621ZM46.8884 85.787C49.7026 85.6866 52.1365 84.7993 53.5266 83.3729C55.0719 81.8128 55.5358 79.5548 55.4365 76.7726L54.9507 63.1493L50.5375 63.3067L51.0325 77.1858C51.0929 78.8808 50.8462 80.0423 50.106 80.8372C49.4595 81.5647 48.4156 81.9221 46.9765 81.9734C45.5374 82.0248 44.4376 81.7118 43.7409 81.0322C42.946 80.292 42.616 79.119 42.5567 77.4561L42.0629 63.6089L37.106 63.7857L37.5999 77.6329C37.7116 80.7669 38.4482 82.5658 39.9375 83.9216C41.4599 85.3082 43.8503 85.8954 46.8884 85.787ZM76.4998 84.7309C78.2907 84.6671 80.6789 84.2937 81.9764 83.8632L81.3347 80.2358C80.0646 80.5372 78.3765 80.7896 77.3212 80.8272C74.8588 80.915 73.4665 80.4844 72.4684 79.4313C71.3377 78.2548 70.7805 76.0973 70.6881 73.5069C70.533 69.1577 71.5097 66.0169 76.2107 65.8493C77.5858 65.8002 79.227 66.0299 80.9391 66.4491L81.4486 62.7806C80.021 62.2552 77.5757 61.9261 75.6889 61.9934C68.2057 62.2603 65.2679 66.976 65.5119 73.8196C65.6477 77.6252 66.5487 80.4429 68.4742 82.3595C70.1668 84.0282 72.6303 84.8689 76.4998 84.7309ZM85.338 83.9675L100.272 83.4348L100.144 79.8211L90.1979 80.1758L89.9983 74.5794L97.5136 74.3114L97.3801 70.5697L89.8649 70.8378L89.6756 65.5291L99.0776 65.1938L99.3325 61.5664L84.5579 62.0934L85.338 83.9675ZM103.663 83.3139L118.341 82.7904L118.212 79.1767L108.523 79.5223L107.871 61.2619L102.882 61.4398L103.663 83.3139ZM127.452 82.4655L140.18 82.0116L140.1 79.773L130.218 80.1254L129.944 72.4503L137.587 72.1777L137.505 69.8752L129.862 70.1478L129.598 62.7285L139.032 62.392L139.208 60.1443L126.672 60.5914L127.452 82.4655ZM149.606 82.1237C152.132 82.0336 154.061 81.3564 155.328 80.0625C156.379 79.0003 156.965 77.4745 156.896 75.5557C156.629 68.0725 145.433 70.1688 145.255 65.18C145.172 62.8455 146.96 61.8211 149.934 61.715C151.374 61.6637 153.076 61.8271 154.69 62.1858L155.028 59.9964C153.507 59.5383 151.513 59.2892 149.626 59.3565C145.277 59.5116 142.437 61.5982 142.575 65.4677C142.844 72.9829 153.992 70.44 154.188 75.9405C154.23 77.1237 153.845 78.002 153.1 78.637C152.26 79.3393 151.056 79.7025 149.265 79.7663C147.506 79.8291 145.446 79.5183 143.766 79.0979L143.364 81.2896C145.051 81.9019 147.591 82.1956 149.606 82.1237ZM165.031 81.1253L167.877 81.0238L167.176 61.3883L174.02 61.1442L174.196 58.8965L157.279 59.4999L157.359 61.7384L164.33 61.4898L165.031 81.1253ZM177.897 80.6664L190.625 80.2125L190.545 77.9739L180.663 78.3264L180.39 70.6512L188.033 70.3787L187.951 68.0761L180.308 68.3487L180.043 60.9294L189.477 60.593L189.653 58.3453L177.117 58.7924L177.897 80.6664ZM206.114 79.6601L211.327 79.4742L217.806 57.3412L212.945 57.5146L208.746 73.5464L203.064 57.867L197.723 58.0575L206.114 79.6601ZM221.028 79.1282L235.962 78.5956L235.834 74.9819L225.888 75.3366L225.688 69.7402L233.204 69.4722L233.07 65.7305L225.555 65.9986L225.366 60.6899L234.768 60.3546L235.022 56.7272L220.248 57.2541L221.028 79.1282ZM239.353 78.4747L244.341 78.2968L244.059 70.3658L246.809 70.2677L251.121 78.055L256.75 77.8543L251.71 69.4205C254.131 68.1814 255.294 65.7705 255.188 62.7964C255.106 60.4938 254.343 58.856 253.186 57.8406C251.699 56.5487 249.605 56.2071 246.088 56.3326L238.572 56.6006L239.353 78.4747ZM243.93 66.7521L243.69 60.0364L245.929 59.9566C247.56 59.8984 248.622 60.0526 249.283 60.6374C249.813 61.1309 250.097 61.9212 250.137 63.0405C250.181 64.2558 249.927 65.2254 249.307 65.7919C248.687 66.3583 247.799 66.6141 246.136 66.6734L243.93 66.7521ZM257.563 77.8253L262.328 77.6553L263.827 72.0944L270.926 71.8412L272.945 77.2767L278.286 77.0862L269.607 55.4938L264.106 55.69L257.563 77.8253ZM264.849 68.4396L266.86 61.0673L266.924 61.065L269.582 68.2708L264.849 68.4396ZM280.499 77.0073L284.88 76.851L284.407 63.5795L294.922 76.4929L298.919 76.3503L298.139 54.4762L293.758 54.6325L294.257 68.6396L283.396 55.002L279.719 55.1332L280.499 77.0073ZM312.099 76.3286C318.783 76.0902 321.647 72.0175 321.384 64.6302C321.121 57.2429 317.972 53.3527 311.288 53.591C304.604 53.8294 301.741 57.9341 302.004 65.3214C302.268 72.7087 305.415 76.5669 312.099 76.3286ZM311.96 72.4271C308.73 72.5423 307.373 70.4133 307.185 65.1366C306.997 59.86 308.197 57.6077 311.427 57.4926C314.657 57.3774 316.015 59.5383 316.203 64.815C316.391 70.0916 315.19 72.3119 311.96 72.4271ZM325.536 68.5487L328.925 68.4279L329.093 53.3723L324.296 53.5434L325.536 68.5487ZM327.459 75.7808L327.682 75.7728C329.217 75.7181 329.995 75.0819 329.938 73.483L329.925 73.0992C329.867 71.5002 329.046 70.9211 327.511 70.9759L327.287 70.9839C325.752 71.0386 324.975 71.6747 325.032 73.2737L325.045 73.6575C325.102 75.2564 325.924 75.8355 327.459 75.7808Z" fill="white"/>
</svg>
