<svg width="430" height="65" viewBox="0 0 430 65" fill="none" xmlns="http://www.w3.org/2000/svg">
<path d="M296 2L296 65L153 65L153 2L296 2Z" fill="#5CB615"/>
<path d="M153 2L153 65L10 65C4.47716 65 5.91009e-06 60.5228 6.79233e-06 55L1.36613e-05 12C1.45436e-05 6.47715 4.47717 2 10 2L153 2Z" fill="#BDE4A4"/>
<path d="M296 65L296 2L420 2C425.523 2 430 6.47715 430 12L430 55C430 60.5228 425.523 65 420 65L296 65Z" fill="#3C7521"/>
<path d="M204.505 48.6166L206.304 50.9176C206.363 50.9996 206.393 51.0703 206.393 51.1299C206.393 51.182 206.371 51.2267 206.326 51.2639C206.281 51.2937 206.218 51.3086 206.136 51.3086H205.399L203.88 49.2756L202.405 51.3086H201.243L203.299 48.6277L201.511 46.3043C201.452 46.2224 201.422 46.1517 201.422 46.0921C201.422 46.04 201.444 45.999 201.489 45.9692C201.534 45.932 201.597 45.9134 201.679 45.9134H202.427L203.924 48.0022L205.421 45.9134H206.572L204.505 48.6166ZM213.474 47.265C213.958 47.399 214.338 47.6261 214.613 47.9464C214.889 48.2666 215.027 48.6799 215.027 49.1863C215.027 49.6256 214.915 50.0128 214.692 50.348C214.476 50.6831 214.155 50.9437 213.731 51.1299C213.306 51.316 212.789 51.4091 212.178 51.4091C211.843 51.4091 211.515 51.3868 211.195 51.3421C210.875 51.2974 210.618 51.2416 210.425 51.1746C210.298 51.1299 210.212 51.0777 210.168 51.0182C210.13 50.9586 210.112 50.8692 210.112 50.7501V50.1804C210.387 50.2772 210.7 50.3591 211.05 50.4261C211.408 50.4932 211.743 50.5267 212.055 50.5267C212.688 50.5267 213.158 50.4075 213.463 50.1692C213.768 49.9309 213.921 49.5884 213.921 49.1416C213.921 48.6724 213.768 48.3224 213.463 48.0916C213.158 47.8533 212.685 47.7341 212.044 47.7341H211.329V46.8964H212.022C212.543 46.8964 212.968 46.7921 213.295 46.5836C213.63 46.3751 213.798 46.0549 213.798 45.623C213.798 45.2208 213.664 44.9192 213.396 44.7182C213.128 44.5097 212.688 44.4054 212.078 44.4054C211.75 44.4054 211.408 44.4389 211.05 44.5059C210.693 44.573 210.387 44.6549 210.134 44.7517V44.182C210.134 44.0628 210.153 43.9735 210.19 43.9139C210.235 43.8543 210.32 43.8022 210.447 43.7575C210.655 43.6905 210.912 43.6347 211.218 43.59C211.523 43.5453 211.847 43.523 212.189 43.523C213.09 43.523 213.761 43.7017 214.2 44.0591C214.647 44.4091 214.87 44.882 214.87 45.4777C214.87 45.9394 214.751 46.3192 214.513 46.6171C214.275 46.915 213.928 47.1309 213.474 47.265ZM227.224 43.6235V51.3086H226.576C226.465 51.3086 226.379 51.2788 226.319 51.2192C226.26 51.1597 226.23 51.074 226.23 50.9623V45.165L223.683 49.2421H223.069C222.979 49.2421 222.909 49.2272 222.857 49.1974C222.812 49.1676 222.767 49.1155 222.723 49.041L220.299 45.2208V51.3086H219.316V43.9921C219.316 43.7464 219.439 43.6235 219.684 43.6235H220.433L223.303 48.1921L225.951 43.8916C226.01 43.7873 226.074 43.7166 226.141 43.6793C226.215 43.6421 226.312 43.6235 226.431 43.6235H227.224ZM233.57 48.5607C233.57 48.6724 233.562 48.7655 233.547 48.84H229.537C229.567 49.4432 229.746 49.8937 230.073 50.1916C230.401 50.482 230.855 50.6272 231.436 50.6272C231.704 50.6272 231.987 50.5974 232.285 50.5378C232.583 50.4783 232.866 50.4001 233.134 50.3033V50.7724C233.134 50.8618 233.112 50.9325 233.067 50.9847C233.03 51.0368 232.948 51.0926 232.821 51.1522C232.657 51.2267 232.43 51.2863 232.14 51.3309C231.849 51.3831 231.574 51.4091 231.313 51.4091C230.777 51.4091 230.297 51.3049 229.872 51.0964C229.448 50.8804 229.113 50.5639 228.867 50.1469C228.621 49.7224 228.498 49.2086 228.498 48.6054C228.498 48.0469 228.606 47.5554 228.822 47.1309C229.046 46.7065 229.351 46.3788 229.738 46.148C230.125 45.9171 230.561 45.8017 231.045 45.8017C231.529 45.8017 231.961 45.9171 232.341 46.148C232.728 46.3788 233.03 46.7027 233.246 47.1198C233.462 47.5368 233.57 48.0171 233.57 48.5607ZM231.034 46.5836C230.632 46.5836 230.297 46.7102 230.029 46.9634C229.761 47.2166 229.6 47.5926 229.548 48.0916H232.531C232.508 47.7639 232.427 47.4884 232.285 47.265C232.151 47.0416 231.976 46.874 231.76 46.7623C231.544 46.6432 231.302 46.5836 231.034 46.5836ZM236.207 51.4091C235.954 51.4091 235.705 51.3942 235.459 51.3644C235.213 51.3347 235.008 51.2937 234.845 51.2416C234.718 51.2043 234.629 51.1559 234.576 51.0964C234.532 51.0368 234.509 50.9586 234.509 50.8618V50.3703C234.785 50.4448 235.068 50.5081 235.358 50.5602C235.656 50.6049 235.932 50.6272 236.185 50.6272C236.602 50.6272 236.915 50.549 237.123 50.3926C237.332 50.2363 237.436 50.0352 237.436 49.7894C237.436 49.6331 237.395 49.5065 237.313 49.4097C237.231 49.3054 237.127 49.2272 237 49.1751C236.881 49.123 236.714 49.0634 236.498 48.9964L235.917 48.8176C235.448 48.6761 235.083 48.4863 234.822 48.248C234.562 48.0022 234.431 47.6783 234.431 47.2761C234.431 46.7921 234.614 46.4272 234.979 46.1815C235.351 45.9357 235.883 45.8128 236.576 45.8128C236.799 45.8128 237.026 45.8277 237.257 45.8575C237.488 45.8799 237.678 45.9134 237.827 45.9581C237.954 45.9953 238.035 46.04 238.073 46.0921C238.11 46.1442 238.129 46.2261 238.129 46.3378V46.7958C237.883 46.7288 237.622 46.6767 237.347 46.6394C237.071 46.6022 236.81 46.5836 236.565 46.5836C236.192 46.5836 235.909 46.6394 235.716 46.7511C235.53 46.8628 235.437 47.023 235.437 47.2315C235.437 47.373 235.478 47.4921 235.559 47.5889C235.641 47.6857 235.746 47.7639 235.872 47.8235C236.006 47.8831 236.178 47.9464 236.386 48.0134L236.978 48.2033C237.261 48.2852 237.503 48.3783 237.704 48.4825C237.913 48.5868 238.088 48.7432 238.229 48.9517C238.371 49.1527 238.441 49.4208 238.441 49.7559C238.441 50.2921 238.244 50.7017 237.849 50.9847C237.462 51.2676 236.915 51.4091 236.207 51.4091ZM244.369 48.5607C244.369 48.6724 244.362 48.7655 244.347 48.84H240.337C240.366 49.4432 240.545 49.8937 240.873 50.1916C241.2 50.482 241.655 50.6272 242.235 50.6272C242.504 50.6272 242.787 50.5974 243.084 50.5378C243.382 50.4783 243.665 50.4001 243.933 50.3033V50.7724C243.933 50.8618 243.911 50.9325 243.866 50.9847C243.829 51.0368 243.747 51.0926 243.621 51.1522C243.457 51.2267 243.23 51.2863 242.939 51.3309C242.649 51.3831 242.373 51.4091 242.113 51.4091C241.576 51.4091 241.096 51.3049 240.672 51.0964C240.247 50.8804 239.912 50.5639 239.666 50.1469C239.421 49.7224 239.298 49.2086 239.298 48.6054C239.298 48.0469 239.406 47.5554 239.622 47.1309C239.845 46.7065 240.15 46.3788 240.538 46.148C240.925 45.9171 241.36 45.8017 241.845 45.8017C242.329 45.8017 242.76 45.9171 243.14 46.148C243.527 46.3788 243.829 46.7027 244.045 47.1198C244.261 47.5368 244.369 48.0171 244.369 48.5607ZM241.833 46.5836C241.431 46.5836 241.096 46.7102 240.828 46.9634C240.56 47.2166 240.4 47.5926 240.348 48.0916H243.33C243.308 47.7639 243.226 47.4884 243.084 47.265C242.95 47.0416 242.775 46.874 242.559 46.7623C242.343 46.6432 242.101 46.5836 241.833 46.5836ZM247.007 51.4091C246.753 51.4091 246.504 51.3942 246.258 51.3644C246.012 51.3347 245.808 51.2937 245.644 51.2416C245.517 51.2043 245.428 51.1559 245.376 51.0964C245.331 51.0368 245.309 50.9586 245.309 50.8618V50.3703C245.584 50.4448 245.867 50.5081 246.158 50.5602C246.456 50.6049 246.731 50.6272 246.984 50.6272C247.401 50.6272 247.714 50.549 247.923 50.3926C248.131 50.2363 248.235 50.0352 248.235 49.7894C248.235 49.6331 248.194 49.5065 248.112 49.4097C248.031 49.3054 247.926 49.2272 247.8 49.1751C247.681 49.123 247.513 49.0634 247.297 48.9964L246.716 48.8176C246.247 48.6761 245.882 48.4863 245.622 48.248C245.361 48.0022 245.231 47.6783 245.231 47.2761C245.231 46.7921 245.413 46.4272 245.778 46.1815C246.15 45.9357 246.683 45.8128 247.375 45.8128C247.599 45.8128 247.826 45.8277 248.057 45.8575C248.287 45.8799 248.477 45.9134 248.626 45.9581C248.753 45.9953 248.835 46.04 248.872 46.0921C248.909 46.1442 248.928 46.2261 248.928 46.3378V46.7958C248.682 46.7288 248.422 46.6767 248.146 46.6394C247.87 46.6022 247.61 46.5836 247.364 46.5836C246.992 46.5836 246.709 46.6394 246.515 46.7511C246.329 46.8628 246.236 47.023 246.236 47.2315C246.236 47.373 246.277 47.4921 246.359 47.5889C246.441 47.6857 246.545 47.7639 246.672 47.8235C246.806 47.8831 246.977 47.9464 247.185 48.0134L247.777 48.2033C248.06 48.2852 248.302 48.3783 248.503 48.4825C248.712 48.5868 248.887 48.7432 249.028 48.9517C249.17 49.1527 249.241 49.4208 249.241 49.7559C249.241 50.2921 249.043 50.7017 248.649 50.9847C248.261 51.2676 247.714 51.4091 247.007 51.4091Z" fill="#BDE4A4"/>
<path d="M177.963 34.844V37H165.811V35.012C167.883 33.22 169.563 31.6427 170.851 30.28C172.158 28.8987 173.147 27.6293 173.819 26.472C174.51 25.296 174.855 24.1947 174.855 23.168C174.855 22.0853 174.501 21.236 173.791 20.62C173.101 20.004 172.018 19.696 170.543 19.696C169.909 19.696 169.209 19.7613 168.443 19.892C167.678 20.0227 166.913 20.2093 166.147 20.452V19.052C166.147 18.8467 166.157 18.6973 166.175 18.604C166.213 18.492 166.287 18.3893 166.399 18.296C166.511 18.2027 166.698 18.1187 166.959 18.044C167.426 17.876 168.023 17.7453 168.751 17.652C169.498 17.54 170.235 17.484 170.963 17.484C172.363 17.484 173.558 17.6987 174.547 18.128C175.555 18.5387 176.321 19.136 176.843 19.92C177.366 20.704 177.627 21.6467 177.627 22.748C177.627 24.708 176.853 26.696 175.303 28.712C173.754 30.7093 171.635 32.7533 168.947 34.844H177.963ZM187.113 37.252C185.545 37.252 184.201 36.8227 183.081 35.964C181.961 35.0867 181.112 33.9013 180.533 32.408C179.973 30.9147 179.693 29.2253 179.693 27.34C179.693 25.492 179.973 23.8213 180.533 22.328C181.112 20.8347 181.961 19.6587 183.081 18.8C184.201 17.9227 185.545 17.484 187.113 17.484C188.681 17.484 190.025 17.9227 191.145 18.8C192.265 19.6587 193.115 20.8347 193.693 22.328C194.272 23.8213 194.561 25.492 194.561 27.34C194.561 29.2067 194.263 30.896 193.665 32.408C193.087 33.9013 192.237 35.0867 191.117 35.964C189.997 36.8227 188.663 37.252 187.113 37.252ZM187.113 35.04C188.121 35.04 188.971 34.7227 189.661 34.088C190.352 33.4347 190.875 32.5387 191.229 31.4C191.584 30.2427 191.761 28.8893 191.761 27.34C191.761 25.7907 191.584 24.4467 191.229 23.308C190.893 22.1693 190.371 21.2827 189.661 20.648C188.971 20.0133 188.121 19.696 187.113 19.696C186.124 19.696 185.275 20.0133 184.565 20.648C183.875 21.264 183.352 22.1507 182.997 23.308C182.643 24.4467 182.465 25.7907 182.465 27.34C182.465 28.8707 182.643 30.2147 182.997 31.372C183.371 32.5293 183.903 33.4347 184.593 34.088C185.303 34.7227 186.143 35.04 187.113 35.04ZM204.101 37.252C202.533 37.252 201.189 36.8227 200.069 35.964C198.949 35.0867 198.1 33.9013 197.521 32.408C196.961 30.9147 196.681 29.2253 196.681 27.34C196.681 25.492 196.961 23.8213 197.521 22.328C198.1 20.8347 198.949 19.6587 200.069 18.8C201.189 17.9227 202.533 17.484 204.101 17.484C205.669 17.484 207.013 17.9227 208.133 18.8C209.253 19.6587 210.103 20.8347 210.681 22.328C211.26 23.8213 211.549 25.492 211.549 27.34C211.549 29.2067 211.251 30.896 210.653 32.408C210.075 33.9013 209.225 35.0867 208.105 35.964C206.985 36.8227 205.651 37.252 204.101 37.252ZM204.101 35.04C205.109 35.04 205.959 34.7227 206.649 34.088C207.34 33.4347 207.863 32.5387 208.217 31.4C208.572 30.2427 208.749 28.8893 208.749 27.34C208.749 25.7907 208.572 24.4467 208.217 23.308C207.881 22.1693 207.359 21.2827 206.649 20.648C205.959 20.0133 205.109 19.696 204.101 19.696C203.112 19.696 202.263 20.0133 201.553 20.648C200.863 21.264 200.34 22.1507 199.985 23.308C199.631 24.4467 199.453 25.7907 199.453 27.34C199.453 28.8707 199.631 30.2147 199.985 31.372C200.359 32.5293 200.891 33.4347 201.581 34.088C202.291 34.7227 203.131 35.04 204.101 35.04ZM240.39 17.736V37H238.766C238.486 37 238.271 36.9253 238.122 36.776C237.972 36.6267 237.898 36.412 237.898 36.132V21.6L231.514 31.82H229.974C229.75 31.82 229.572 31.7827 229.442 31.708C229.33 31.6333 229.218 31.5027 229.106 31.316L223.03 21.74V37H220.566V18.66C220.566 18.044 220.874 17.736 221.49 17.736H223.366L230.562 29.188L237.198 18.408C237.347 18.1467 237.506 17.9693 237.674 17.876C237.86 17.7827 238.103 17.736 238.402 17.736H240.39ZM251.216 23.224C252.355 23.224 253.382 23.5133 254.296 24.092C255.23 24.6707 255.958 25.492 256.48 26.556C257.022 27.6013 257.292 28.824 257.292 30.224C257.292 31.624 257.022 32.856 256.48 33.92C255.958 34.984 255.23 35.8053 254.296 36.384C253.382 36.9627 252.355 37.252 251.216 37.252C250.152 37.252 249.219 37 248.416 36.496C247.632 35.9733 247.035 35.2827 246.624 34.424L246.54 37H244.132V17.988C244.132 17.7267 244.207 17.5213 244.356 17.372C244.506 17.2227 244.711 17.148 244.972 17.148H246.764V25.744C247.194 24.9787 247.791 24.372 248.556 23.924C249.34 23.4573 250.227 23.224 251.216 23.224ZM250.656 35.152C251.478 35.152 252.187 34.956 252.784 34.564C253.382 34.172 253.83 33.6027 254.128 32.856C254.446 32.1093 254.604 31.232 254.604 30.224C254.604 29.216 254.446 28.348 254.128 27.62C253.83 26.8733 253.382 26.304 252.784 25.912C252.187 25.52 251.478 25.324 250.656 25.324C249.424 25.324 248.463 25.7533 247.772 26.612C247.1 27.4707 246.764 28.6747 246.764 30.224C246.764 31.7733 247.1 32.9867 247.772 33.864C248.463 34.7227 249.424 35.152 250.656 35.152ZM266.755 23.224C267.894 23.224 268.921 23.5133 269.835 24.092C270.769 24.6707 271.497 25.492 272.019 26.556C272.561 27.6013 272.831 28.824 272.831 30.224C272.831 31.624 272.561 32.856 272.019 33.92C271.497 34.984 270.769 35.8053 269.835 36.384C268.921 36.9627 267.894 37.252 266.755 37.252C265.766 37.252 264.879 37.028 264.095 36.58C263.33 36.1133 262.733 35.488 262.303 34.704V43.244H259.671V24.344C259.671 24.064 259.746 23.8493 259.895 23.7C260.045 23.5507 260.25 23.476 260.511 23.476H262.079L262.163 26.052C262.593 25.1933 263.199 24.512 263.983 24.008C264.767 23.4853 265.691 23.224 266.755 23.224ZM266.195 35.152C267.017 35.152 267.726 34.956 268.323 34.564C268.921 34.172 269.369 33.6027 269.667 32.856C269.985 32.1093 270.143 31.232 270.143 30.224C270.143 29.216 269.985 28.348 269.667 27.62C269.369 26.8733 268.921 26.304 268.323 25.912C267.726 25.52 267.017 25.324 266.195 25.324C264.963 25.324 264.002 25.7533 263.311 26.612C262.639 27.4707 262.303 28.6747 262.303 30.224C262.303 31.7733 262.639 32.9867 263.311 33.864C264.002 34.7227 264.963 35.152 266.195 35.152ZM278.598 37.252C277.963 37.252 277.338 37.2147 276.722 37.14C276.106 37.0653 275.593 36.9627 275.182 36.832C274.865 36.7387 274.641 36.6173 274.51 36.468C274.398 36.3187 274.342 36.1227 274.342 35.88V34.648C275.033 34.8347 275.742 34.9933 276.47 35.124C277.217 35.236 277.907 35.292 278.542 35.292C279.587 35.292 280.371 35.096 280.894 34.704C281.417 34.312 281.678 33.808 281.678 33.192C281.678 32.8 281.575 32.4827 281.37 32.24C281.165 31.9787 280.903 31.7827 280.586 31.652C280.287 31.5213 279.867 31.372 279.326 31.204L277.87 30.756C276.694 30.4013 275.779 29.9253 275.126 29.328C274.473 28.712 274.146 27.9 274.146 26.892C274.146 25.6787 274.603 24.764 275.518 24.148C276.451 23.532 277.786 23.224 279.522 23.224C280.082 23.224 280.651 23.2613 281.23 23.336C281.809 23.392 282.285 23.476 282.658 23.588C282.975 23.6813 283.181 23.7933 283.274 23.924C283.367 24.0547 283.414 24.26 283.414 24.54V25.688C282.798 25.52 282.145 25.3893 281.454 25.296C280.763 25.2027 280.11 25.156 279.494 25.156C278.561 25.156 277.851 25.296 277.366 25.576C276.899 25.856 276.666 26.2573 276.666 26.78C276.666 27.1347 276.769 27.4333 276.974 27.676C277.179 27.9187 277.441 28.1147 277.758 28.264C278.094 28.4133 278.523 28.572 279.046 28.74L280.53 29.216C281.239 29.4213 281.846 29.6547 282.35 29.916C282.873 30.1773 283.311 30.5693 283.666 31.092C284.021 31.596 284.198 32.268 284.198 33.108C284.198 34.452 283.703 35.4787 282.714 36.188C281.743 36.8973 280.371 37.252 278.598 37.252Z" fill="#BDE4A4"/>
<path d="M320.137 34.3975L320.137 34.3975C318.424 34.3975 317.091 33.9354 316.184 33.0065L316.184 33.0062C315.314 32.1101 314.88 30.8161 314.88 29.1834V19.0626C314.88 17.43 315.314 16.1446 316.184 15.2618C317.083 14.3463 318.42 13.8937 320.133 13.8937L320.133 13.8937M320.137 34.3975L320.133 14.0135V13.8937M320.137 34.3975L341.823 34.3839C343.537 34.3839 344.874 33.9219 345.777 32.9928L345.777 32.9927C346.647 32.0966 347.08 30.8026 347.08 29.1698V19.0491C347.08 17.4208 346.647 16.1355 345.777 15.2483L345.777 15.2483C344.878 14.3327 343.54 13.8802 341.828 13.8802L341.828 13.8802L320.133 13.8937M320.137 34.3975L320.133 13.8937M320.137 15.0366L320.137 15.0366C318.732 15.0366 317.711 15.3714 317.041 16.0287C316.371 16.6855 316.03 17.6853 316.03 19.0626V29.1834C316.03 30.5381 316.367 31.5463 317.011 32.2116C317.676 32.8977 318.717 33.2546 320.137 33.2546L341.832 33.241L341.832 33.241C343.248 33.241 344.294 32.8842 344.959 32.1981L344.959 32.1978C345.603 31.5373 345.94 30.5248 345.94 29.1698L345.94 19.0493L345.94 19.0491M320.137 15.0366L341.832 14.9032C344.676 14.9032 346.055 16.2581 346.06 19.0491H345.94M320.137 15.0366L341.832 15.0231M320.137 15.0366L341.832 15.0231M345.94 19.0491C345.937 17.6718 345.596 16.6719 344.927 16.0151C344.257 15.3578 343.237 15.0231 341.832 15.0231M345.94 19.0491L341.832 15.0231M326.539 37.0349H335.417C335.732 37.0349 335.992 36.7789 335.992 36.4635C335.992 36.148 335.732 35.892 335.417 35.892H326.539C326.224 35.892 325.964 36.148 325.964 36.4635C325.964 36.7789 326.224 37.0349 326.539 37.0349Z" fill="#BDE4A4" stroke="#BDE4A4" stroke-width="0.239676"/>
<path d="M320.941 52.1747C320.223 52.1747 319.574 52.0207 318.994 51.7127C318.422 51.3974 317.968 50.9464 317.63 50.3597C317.3 49.773 317.135 49.0837 317.135 48.2917C317.135 47.4997 317.3 46.8104 317.63 46.2237C317.968 45.637 318.422 45.1897 318.994 44.8817C319.574 44.5663 320.219 44.4087 320.93 44.4087C321.253 44.4087 321.557 44.4343 321.843 44.4857C322.137 44.537 322.393 44.5993 322.613 44.6727C322.716 44.7093 322.789 44.746 322.833 44.7827C322.885 44.8193 322.918 44.8597 322.932 44.9037C322.947 44.9477 322.954 45.0063 322.954 45.0797V45.6517C322.272 45.417 321.645 45.2997 321.073 45.2997C320.479 45.2997 319.97 45.4243 319.544 45.6737C319.119 45.923 318.793 46.275 318.565 46.7297C318.345 47.177 318.235 47.7014 318.235 48.3027C318.235 48.8967 318.345 49.4174 318.565 49.8647C318.793 50.312 319.119 50.6604 319.544 50.9097C319.97 51.159 320.476 51.2837 321.062 51.2837C321.649 51.2837 322.276 51.1664 322.943 50.9317V51.5037C322.943 51.599 322.925 51.676 322.888 51.7347C322.852 51.786 322.767 51.8374 322.635 51.8887C322.423 51.9694 322.17 52.0354 321.876 52.0867C321.583 52.1454 321.271 52.1747 320.941 52.1747ZM328.723 51.3607C328.789 51.3607 328.855 51.357 328.921 51.3497C328.987 51.335 329.046 51.3204 329.097 51.3057V51.7677C329.097 51.8557 329.079 51.9254 329.042 51.9767C329.006 52.028 328.94 52.0684 328.844 52.0977C328.712 52.1344 328.569 52.1527 328.415 52.1527C327.792 52.1527 327.407 51.8447 327.26 51.2287C327.092 51.5294 326.85 51.764 326.534 51.9327C326.219 52.094 325.856 52.1747 325.445 52.1747C325.101 52.1747 324.789 52.105 324.51 51.9657C324.232 51.819 324.015 51.621 323.861 51.3717C323.707 51.1224 323.63 50.84 323.63 50.5247C323.63 49.938 323.872 49.4944 324.356 49.1937C324.848 48.893 325.537 48.7427 326.424 48.7427C326.725 48.7427 326.989 48.7537 327.216 48.7757C327.209 48.3357 327.092 48.013 326.864 47.8077C326.644 47.595 326.27 47.4887 325.742 47.4887C325.478 47.4887 325.192 47.5107 324.884 47.5547C324.584 47.5914 324.301 47.6464 324.037 47.7197V47.2357C324.037 47.1257 324.056 47.045 324.092 46.9937C324.129 46.935 324.206 46.8873 324.323 46.8507C324.492 46.7994 324.712 46.7554 324.983 46.7187C325.262 46.682 325.544 46.6637 325.83 46.6637C326.652 46.6637 327.26 46.8397 327.656 47.1917C328.052 47.5364 328.25 48.0167 328.25 48.6327V50.6787C328.25 50.9207 328.283 51.0967 328.349 51.2067C328.423 51.3094 328.547 51.3607 328.723 51.3607ZM325.764 51.4267C326.036 51.4267 326.281 51.3644 326.501 51.2397C326.729 51.1077 326.905 50.9317 327.029 50.7117C327.154 50.4917 327.216 50.2424 327.216 49.9637V49.4467C327.099 49.4394 326.894 49.4357 326.6 49.4357C325.955 49.4357 325.467 49.5054 325.137 49.6447C324.815 49.784 324.653 50.0407 324.653 50.4147C324.653 50.6127 324.697 50.7887 324.785 50.9427C324.881 51.0967 325.013 51.2177 325.181 51.3057C325.35 51.3864 325.544 51.4267 325.764 51.4267ZM332.815 46.6637C333.262 46.6637 333.665 46.7774 334.025 47.0047C334.391 47.232 334.677 47.5547 334.883 47.9727C335.095 48.3834 335.202 48.8637 335.202 49.4137C335.202 49.9637 335.095 50.4477 334.883 50.8657C334.677 51.2837 334.391 51.6064 334.025 51.8337C333.665 52.061 333.262 52.1747 332.815 52.1747C332.397 52.1747 332.03 52.0757 331.715 51.8777C331.407 51.6724 331.172 51.401 331.011 51.0637L330.978 52.0757H330.032V44.6067C330.032 44.504 330.061 44.4233 330.12 44.3647C330.178 44.306 330.259 44.2767 330.362 44.2767H331.066V47.6537C331.234 47.353 331.469 47.1147 331.77 46.9387C332.078 46.7554 332.426 46.6637 332.815 46.6637ZM332.595 51.3497C332.917 51.3497 333.196 51.2727 333.431 51.1187C333.665 50.9647 333.841 50.741 333.959 50.4477C334.083 50.1544 334.146 49.8097 334.146 49.4137C334.146 49.0177 334.083 48.6767 333.959 48.3907C333.841 48.0974 333.665 47.8737 333.431 47.7197C333.196 47.5657 332.917 47.4887 332.595 47.4887C332.111 47.4887 331.733 47.6573 331.462 47.9947C331.198 48.332 331.066 48.805 331.066 49.4137C331.066 50.0224 331.198 50.499 331.462 50.8437C331.733 51.181 332.111 51.3497 332.595 51.3497ZM337.797 52.1527C337.343 52.1527 337.005 52.0244 336.785 51.7677C336.565 51.5037 336.455 51.1554 336.455 50.7227V44.6067C336.455 44.504 336.485 44.4233 336.543 44.3647C336.602 44.306 336.683 44.2767 336.785 44.2767H337.478V50.6787C337.478 50.9207 337.526 51.0967 337.621 51.2067C337.724 51.3094 337.885 51.3607 338.105 51.3607C338.171 51.3607 338.237 51.357 338.303 51.3497C338.377 51.335 338.439 51.3204 338.49 51.3057V51.7677C338.49 51.863 338.468 51.9364 338.424 51.9877C338.388 52.0317 338.325 52.0684 338.237 52.0977C338.113 52.1344 337.966 52.1527 337.797 52.1527ZM344.041 49.3697C344.041 49.4797 344.033 49.5714 344.019 49.6447H340.07C340.099 50.2387 340.275 50.6824 340.598 50.9757C340.92 51.2617 341.368 51.4047 341.94 51.4047C342.204 51.4047 342.482 51.3754 342.776 51.3167C343.069 51.258 343.348 51.181 343.612 51.0857V51.5477C343.612 51.6357 343.59 51.7054 343.546 51.7567C343.509 51.808 343.428 51.863 343.304 51.9217C343.142 51.995 342.919 52.0537 342.633 52.0977C342.347 52.149 342.075 52.1747 341.819 52.1747C341.291 52.1747 340.818 52.072 340.4 51.8667C339.982 51.654 339.652 51.3424 339.41 50.9317C339.168 50.5137 339.047 50.0077 339.047 49.4137C339.047 48.8637 339.153 48.3797 339.366 47.9617C339.586 47.5437 339.886 47.221 340.268 46.9937C340.649 46.7663 341.078 46.6527 341.555 46.6527C342.031 46.6527 342.457 46.7663 342.831 46.9937C343.212 47.221 343.509 47.54 343.722 47.9507C343.934 48.3614 344.041 48.8344 344.041 49.3697ZM341.544 47.4227C341.148 47.4227 340.818 47.5474 340.554 47.7967C340.29 48.046 340.132 48.4164 340.081 48.9077H343.018C342.996 48.585 342.915 48.3137 342.776 48.0937C342.644 47.8737 342.471 47.7087 342.259 47.5987C342.046 47.4814 341.808 47.4227 341.544 47.4227Z" fill="#BDE4A4"/>
<path d="M373.039 45.5358C373.039 45.4111 373.072 45.3158 373.138 45.2498C373.211 45.1764 373.31 45.1398 373.435 45.1398H374.117V52.7078H373.039V45.5358ZM378.716 47.2848C379.098 47.2848 379.431 47.3728 379.717 47.5488C380.003 47.7174 380.22 47.9558 380.366 48.2638C380.52 48.5718 380.597 48.9238 380.597 49.3198V52.7078H379.904C379.794 52.7078 379.71 52.6784 379.651 52.6198C379.593 52.5611 379.563 52.4768 379.563 52.3668V49.4848C379.563 49.0668 379.468 48.7331 379.277 48.4838C379.087 48.2344 378.79 48.1098 378.386 48.1098C377.939 48.1098 377.594 48.2601 377.352 48.5608C377.118 48.8614 377 49.2758 377 49.8038V52.7078H375.966V47.7358C375.966 47.6258 375.996 47.5414 376.054 47.4828C376.113 47.4241 376.194 47.3948 376.296 47.3948H376.901L376.934 48.3188C377.118 47.9888 377.363 47.7358 377.671 47.5598C377.979 47.3764 378.328 47.2848 378.716 47.2848ZM384.188 52.8068C383.844 52.8068 383.539 52.7481 383.275 52.6308C383.019 52.5061 382.817 52.3264 382.67 52.0918C382.531 51.8498 382.461 51.5601 382.461 51.2228V48.1758H381.328V47.7358C381.328 47.6258 381.358 47.5414 381.416 47.4828C381.475 47.4241 381.556 47.3948 381.658 47.3948H382.461V45.8988C382.461 45.7888 382.491 45.7044 382.549 45.6458C382.608 45.5871 382.692 45.5578 382.802 45.5578H383.484V47.3948H384.98V48.1758H383.484V51.0358C383.484 51.3804 383.561 51.6298 383.715 51.7838C383.877 51.9304 384.122 52.0038 384.452 52.0038C384.643 52.0038 384.918 51.9708 385.277 51.9048V52.3778C385.277 52.4584 385.259 52.5244 385.222 52.5758C385.193 52.6198 385.116 52.6638 384.991 52.7078C384.815 52.7738 384.548 52.8068 384.188 52.8068ZM390.802 50.0018C390.802 50.1118 390.795 50.2034 390.78 50.2768H386.831C386.861 50.8708 387.037 51.3144 387.359 51.6078C387.682 51.8938 388.129 52.0368 388.701 52.0368C388.965 52.0368 389.244 52.0074 389.537 51.9488C389.831 51.8901 390.109 51.8131 390.373 51.7178V52.1798C390.373 52.2678 390.351 52.3374 390.307 52.3888C390.271 52.4401 390.19 52.4951 390.065 52.5538C389.904 52.6271 389.68 52.6858 389.394 52.7298C389.108 52.7811 388.837 52.8068 388.58 52.8068C388.052 52.8068 387.579 52.7041 387.161 52.4988C386.743 52.2861 386.413 51.9744 386.171 51.5638C385.929 51.1458 385.808 50.6398 385.808 50.0458C385.808 49.4958 385.915 49.0118 386.127 48.5938C386.347 48.1758 386.648 47.8531 387.029 47.6258C387.411 47.3984 387.84 47.2848 388.316 47.2848C388.793 47.2848 389.218 47.3984 389.592 47.6258C389.974 47.8531 390.271 48.1721 390.483 48.5828C390.696 48.9934 390.802 49.4664 390.802 50.0018ZM388.305 48.0548C387.909 48.0548 387.579 48.1794 387.315 48.4288C387.051 48.6781 386.894 49.0484 386.842 49.5398H389.779C389.757 49.2171 389.677 48.9458 389.537 48.7258C389.405 48.5058 389.233 48.3408 389.02 48.2308C388.808 48.1134 388.569 48.0548 388.305 48.0548ZM394.775 47.2958C394.907 47.2958 395.002 47.3214 395.061 47.3728C395.12 47.4168 395.149 47.4974 395.149 47.6148V48.2418H394.731C394.181 48.2418 393.77 48.3958 393.499 48.7038C393.235 49.0118 393.103 49.4738 393.103 50.0898V52.7078H392.069V47.7358C392.069 47.6258 392.098 47.5414 392.157 47.4828C392.216 47.4241 392.296 47.3948 392.399 47.3948H393.037L393.048 48.5278C393.195 48.1391 393.422 47.8384 393.73 47.6258C394.045 47.4058 394.394 47.2958 394.775 47.2958ZM398.783 47.2848C399.164 47.2848 399.498 47.3728 399.784 47.5488C400.07 47.7174 400.286 47.9558 400.433 48.2638C400.587 48.5718 400.664 48.9238 400.664 49.3198V52.7078H399.971C399.861 52.7078 399.776 52.6784 399.718 52.6198C399.659 52.5611 399.63 52.4768 399.63 52.3668V49.4848C399.63 49.0668 399.534 48.7331 399.344 48.4838C399.153 48.2344 398.856 48.1098 398.453 48.1098C398.005 48.1098 397.661 48.2601 397.419 48.5608C397.184 48.8614 397.067 49.2758 397.067 49.8038V52.7078H396.033V47.7358C396.033 47.6258 396.062 47.5414 396.121 47.4828C396.179 47.4241 396.26 47.3948 396.363 47.3948H396.968L397.001 48.3188C397.184 47.9888 397.43 47.7358 397.738 47.5598C398.046 47.3764 398.394 47.2848 398.783 47.2848ZM406.883 50.0018C406.883 50.1118 406.876 50.2034 406.861 50.2768H402.912C402.942 50.8708 403.118 51.3144 403.44 51.6078C403.763 51.8938 404.21 52.0368 404.782 52.0368C405.046 52.0368 405.325 52.0074 405.618 51.9488C405.912 51.8901 406.19 51.8131 406.454 51.7178V52.1798C406.454 52.2678 406.432 52.3374 406.388 52.3888C406.352 52.4401 406.271 52.4951 406.146 52.5538C405.985 52.6271 405.761 52.6858 405.475 52.7298C405.189 52.7811 404.918 52.8068 404.661 52.8068C404.133 52.8068 403.66 52.7041 403.242 52.4988C402.824 52.2861 402.494 51.9744 402.252 51.5638C402.01 51.1458 401.889 50.6398 401.889 50.0458C401.889 49.4958 401.996 49.0118 402.208 48.5938C402.428 48.1758 402.729 47.8531 403.11 47.6258C403.492 47.3984 403.921 47.2848 404.397 47.2848C404.874 47.2848 405.299 47.3984 405.673 47.6258C406.055 47.8531 406.352 48.1721 406.564 48.5828C406.777 48.9934 406.883 49.4664 406.883 50.0018ZM404.386 48.0548C403.99 48.0548 403.66 48.1794 403.396 48.4288C403.132 48.6781 402.975 49.0484 402.923 49.5398H405.86C405.838 49.2171 405.758 48.9458 405.618 48.7258C405.486 48.5058 405.314 48.3408 405.101 48.2308C404.889 48.1134 404.65 48.0548 404.386 48.0548ZM410.152 52.8068C409.808 52.8068 409.503 52.7481 409.239 52.6308C408.983 52.5061 408.781 52.3264 408.634 52.0918C408.495 51.8498 408.425 51.5601 408.425 51.2228V48.1758H407.292V47.7358C407.292 47.6258 407.322 47.5414 407.38 47.4828C407.439 47.4241 407.52 47.3948 407.622 47.3948H408.425V45.8988C408.425 45.7888 408.455 45.7044 408.513 45.6458C408.572 45.5871 408.656 45.5578 408.766 45.5578H409.448V47.3948H410.944V48.1758H409.448V51.0358C409.448 51.3804 409.525 51.6298 409.679 51.7838C409.841 51.9304 410.086 52.0038 410.416 52.0038C410.607 52.0038 410.882 51.9708 411.241 51.9048V52.3778C411.241 52.4584 411.223 52.5244 411.186 52.5758C411.157 52.6198 411.08 52.6638 410.955 52.7078C410.779 52.7738 410.512 52.8068 410.152 52.8068Z" fill="#BDE4A4"/>
<path d="M392.998 31.8245C391.494 31.8245 390.27 33.048 390.27 34.5525C390.27 36.0571 391.494 37.2806 392.998 37.2806C394.503 37.2806 395.726 36.0571 395.726 34.5525C395.726 33.048 394.503 31.8245 392.998 31.8245ZM392.998 36.1356C392.125 36.1356 391.415 35.4254 391.415 34.5525C391.415 33.6797 392.125 32.9695 392.998 32.9695C393.871 32.9695 394.581 33.6797 394.581 34.5525C394.581 35.4254 393.871 36.1356 392.998 36.1356Z" fill="#BDE4A4" stroke="#BDE4A4" stroke-width="0.378914"/>
<path d="M392.526 25.5991C390.062 25.5991 387.762 26.6553 386.216 28.4985C386.047 28.6989 386.08 28.9941 386.291 29.1557C386.501 29.3164 386.808 29.2866 386.977 29.0844C388.337 27.4641 390.36 26.5343 392.526 26.5343C394.693 26.5343 396.714 27.4641 398.074 29.0871C398.17 29.2017 398.312 29.2622 398.454 29.2622C398.561 29.2622 398.67 29.2288 398.759 29.1593C398.97 28.9977 399.004 28.7035 398.835 28.5022C397.291 26.6571 394.99 25.5991 392.526 25.5991Z" fill="#BDE4A4" stroke="#BDE4A4" stroke-width="0.378914"/>
<path d="M392.527 19.4946C388.153 19.4946 384.072 21.4258 381.331 24.7924C381.157 25.0062 381.191 25.3188 381.409 25.4905C381.501 25.5633 381.612 25.5998 381.724 25.5998C381.872 25.5998 382.017 25.5365 382.116 25.4138C384.664 22.283 388.459 20.4871 392.527 20.4871C396.592 20.4871 400.385 22.2811 402.936 25.409C403.111 25.6228 403.427 25.6564 403.644 25.4847C403.86 25.3131 403.895 25.0005 403.721 24.7867C400.978 21.4239 396.899 19.4946 392.527 19.4946Z" fill="#BDE4A4" stroke="#BDE4A4" stroke-width="0.378914"/>
<path d="M407.999 21.7041C404.212 16.8087 398.571 14 392.525 14C386.479 14 380.839 16.8077 377.052 21.7031C376.879 21.9264 376.913 22.2528 377.129 22.4321C377.342 22.6103 377.659 22.5763 377.831 22.352C381.427 17.7029 386.783 15.0364 392.525 15.0364C398.267 15.0364 403.623 17.7029 407.22 22.353C407.319 22.4801 407.463 22.5472 407.609 22.5472C407.719 22.5472 407.83 22.5102 407.922 22.4331C408.138 22.2538 408.172 21.9274 407.999 21.7041Z" fill="#BDE4A4" stroke="#BDE4A4" stroke-width="0.378914"/>
<path d="M360.655 28.8046H361.612V30.8538H363.661V31.8101H361.612V33.8442H360.655V31.8101H358.621V30.8538H360.655V28.8046Z" fill="#BDE4A4"/>
<path d="M16.9179 49.2423C16.9179 49.1385 16.9454 49.0592 17.0003 49.0043C17.0552 48.9432 17.1345 48.9127 17.2383 48.9127H19.1058C19.8015 48.9127 20.363 49.0745 20.7902 49.3979C21.2174 49.7214 21.431 50.234 21.431 50.9358C21.431 51.4058 21.3273 51.7933 21.1198 52.0984C20.9123 52.4036 20.6285 52.6294 20.2684 52.7759C19.9083 52.9223 19.4933 52.9956 19.0234 52.9956H17.815V55.2109H16.9179V49.2423ZM19.0326 52.2907C19.5208 52.2907 19.89 52.1808 20.1402 51.9611C20.3966 51.7353 20.5247 51.3997 20.5247 50.9542C20.5247 50.5025 20.3905 50.1669 20.1219 49.9472C19.8595 49.7214 19.4842 49.6085 18.9959 49.6085H17.815V52.2907H19.0326ZM24.5659 50.707C24.6757 50.707 24.7551 50.7283 24.8039 50.7711C24.8527 50.8077 24.8771 50.8748 24.8771 50.9725V51.4943H24.5293C24.0715 51.4943 23.7298 51.6224 23.504 51.8787C23.2843 52.1351 23.1744 52.5195 23.1744 53.0322V55.2109H22.3139V51.0732C22.3139 50.9816 22.3383 50.9114 22.3871 50.8626C22.436 50.8138 22.5031 50.7894 22.5885 50.7894H23.1195L23.1286 51.7323C23.2507 51.4088 23.4399 51.1586 23.6962 50.9816C23.9586 50.7985 24.2485 50.707 24.5659 50.707ZM29.4577 52.959C29.4577 53.0505 29.4516 53.1268 29.4394 53.1878H26.153C26.1774 53.6822 26.3239 54.0514 26.5924 54.2955C26.861 54.5335 27.2332 54.6525 27.7093 54.6525C27.929 54.6525 28.1609 54.6281 28.405 54.5793C28.6491 54.5305 28.881 54.4664 29.1007 54.387V54.7715C29.1007 54.8448 29.0824 54.9027 29.0458 54.9455C29.0153 54.9882 28.9482 55.034 28.8444 55.0828C28.7101 55.1438 28.524 55.1926 28.286 55.2292C28.048 55.272 27.8222 55.2933 27.6086 55.2933C27.1692 55.2933 26.7755 55.2079 26.4276 55.037C26.0798 54.86 25.8052 54.6006 25.6038 54.2589C25.4024 53.911 25.3017 53.4899 25.3017 52.9956C25.3017 52.5379 25.3902 52.1351 25.5671 51.7872C25.7502 51.4393 26.0004 51.1708 26.3178 50.9816C26.6351 50.7924 26.9922 50.6978 27.3889 50.6978C27.7855 50.6978 28.1395 50.7924 28.4508 50.9816C28.7681 51.1708 29.0153 51.4363 29.1923 51.778C29.3693 52.1198 29.4577 52.5134 29.4577 52.959ZM27.3797 51.3386C27.0501 51.3386 26.7755 51.4424 26.5558 51.6499C26.3361 51.8574 26.2049 52.1656 26.1622 52.5745H28.6064C28.5881 52.3059 28.5209 52.0801 28.405 51.8971C28.2951 51.714 28.1517 51.5766 27.9747 51.4851C27.7978 51.3875 27.5994 51.3386 27.3797 51.3386ZM32.5165 55.2933C32.0527 55.2933 31.6469 55.1987 31.299 55.0095C30.9511 54.8204 30.6826 54.5549 30.4934 54.2131C30.3042 53.8652 30.2096 53.4594 30.2096 52.9956C30.2096 52.5379 30.3012 52.1381 30.4843 51.7964C30.6673 51.4485 30.9328 51.18 31.2807 50.9908C31.6347 50.8016 32.0497 50.707 32.5257 50.707C32.7027 50.707 32.8797 50.7192 33.0566 50.7436C33.2397 50.768 33.3923 50.7985 33.5144 50.8351C33.5998 50.8596 33.6608 50.887 33.6974 50.9175C33.7341 50.948 33.7554 50.9816 33.7615 51.0182C33.7737 51.0487 33.7798 51.0915 33.7798 51.1464V51.5766C33.3831 51.4485 33.0139 51.3844 32.6722 51.3844C32.1656 51.3844 31.775 51.5217 31.5004 51.7964C31.2258 52.071 31.0884 52.4646 31.0884 52.9773C31.0884 53.3251 31.1495 53.6211 31.2715 53.8652C31.3997 54.1094 31.5797 54.2955 31.8116 54.4237C32.0497 54.5518 32.3304 54.6159 32.6538 54.6159C32.8369 54.6159 33.0353 54.5976 33.2489 54.561C33.4686 54.5183 33.6517 54.4664 33.7981 54.4054V54.8356C33.7981 54.8844 33.792 54.9272 33.7798 54.9638C33.7737 54.9943 33.7524 55.0248 33.7158 55.0553C33.6852 55.0858 33.6303 55.1163 33.551 55.1469C33.4289 55.1896 33.2733 55.2231 33.0841 55.2476C32.8949 55.2781 32.7057 55.2933 32.5165 55.2933ZM35.2156 49.8373C35.057 49.8373 34.9227 49.7824 34.8128 49.6725C34.703 49.5627 34.6481 49.4284 34.6481 49.2697C34.6481 49.1111 34.703 48.9768 34.8128 48.867C34.9227 48.7571 35.057 48.7022 35.2156 48.7022C35.3133 48.7022 35.4048 48.7266 35.4903 48.7754C35.5757 48.8242 35.6428 48.8944 35.6917 48.986C35.7466 49.0714 35.7741 49.166 35.7741 49.2697C35.7741 49.3735 35.7466 49.4711 35.6917 49.5627C35.6428 49.6481 35.5757 49.7153 35.4903 49.7641C35.4048 49.8129 35.3133 49.8373 35.2156 49.8373ZM34.7854 51.0732C34.7854 50.9816 34.8098 50.9114 34.8586 50.8626C34.9074 50.8138 34.9776 50.7894 35.0692 50.7894H35.6459V55.2109H34.7854V51.0732ZM38.8785 55.2933C38.4391 55.2933 38.0546 55.1957 37.725 55.0004C37.4016 54.8051 37.1513 54.5335 36.9744 54.1856C36.7974 53.8378 36.7089 53.4411 36.7089 52.9956C36.7089 52.5501 36.7974 52.1564 36.9744 51.8147C37.1513 51.4668 37.4016 51.1952 37.725 50.9999C38.0546 50.8046 38.4391 50.707 38.8785 50.707C39.3118 50.707 39.6902 50.8046 40.0136 50.9999C40.3432 51.1952 40.5964 51.4668 40.7734 51.8147C40.9504 52.1564 41.0389 52.5501 41.0389 52.9956C41.0389 53.4411 40.9504 53.8378 40.7734 54.1856C40.5964 54.5335 40.3432 54.8051 40.0136 55.0004C39.6902 55.1957 39.3118 55.2933 38.8785 55.2933ZM38.8785 54.6067C39.147 54.6067 39.3759 54.5427 39.565 54.4145C39.7542 54.2863 39.8977 54.1002 39.9953 53.8561C40.099 53.612 40.1509 53.3251 40.1509 52.9956C40.1509 52.4951 40.038 52.1046 39.8122 51.8238C39.5925 51.537 39.2813 51.3936 38.8785 51.3936C38.6099 51.3936 38.378 51.4576 38.1827 51.5858C37.9874 51.714 37.8379 51.9001 37.7342 52.1442C37.6365 52.3822 37.5877 52.666 37.5877 52.9956C37.5877 53.3251 37.6365 53.612 37.7342 53.8561C37.8379 54.1002 37.9874 54.2863 38.1827 54.4145C38.378 54.5427 38.6099 54.6067 38.8785 54.6067ZM46.5221 50.707C46.6319 50.707 46.7113 50.7283 46.7601 50.7711C46.8089 50.8077 46.8333 50.8748 46.8333 50.9725V51.4943H46.4855C46.0277 51.4943 45.686 51.6224 45.4602 51.8787C45.2405 52.1351 45.1306 52.5195 45.1306 53.0322V55.2109H44.2701V51.0732C44.2701 50.9816 44.2945 50.9114 44.3433 50.8626C44.3922 50.8138 44.4593 50.7894 44.5447 50.7894H45.0757L45.0848 51.7323C45.2069 51.4088 45.3961 51.1586 45.6524 50.9816C45.9148 50.7985 46.2047 50.707 46.5221 50.707ZM51.414 52.959C51.414 53.0505 51.4079 53.1268 51.3956 53.1878H48.1092C48.1336 53.6822 48.2801 54.0514 48.5486 54.2955C48.8172 54.5335 49.1894 54.6525 49.6655 54.6525C49.8852 54.6525 50.1171 54.6281 50.3612 54.5793C50.6053 54.5305 50.8372 54.4664 51.0569 54.387V54.7715C51.0569 54.8448 51.0386 54.9027 51.002 54.9455C50.9715 54.9882 50.9044 55.034 50.8006 55.0828C50.6664 55.1438 50.4802 55.1926 50.2422 55.2292C50.0042 55.272 49.7784 55.2933 49.5648 55.2933C49.1254 55.2933 48.7317 55.2079 48.3839 55.037C48.036 54.86 47.7614 54.6006 47.56 54.2589C47.3586 53.911 47.2579 53.4899 47.2579 52.9956C47.2579 52.5379 47.3464 52.1351 47.5233 51.7872C47.7064 51.4393 47.9567 51.1708 48.274 50.9816C48.5914 50.7924 48.9484 50.6978 49.3451 50.6978C49.7418 50.6978 50.0957 50.7924 50.407 50.9816C50.7243 51.1708 50.9715 51.4363 51.1485 51.778C51.3255 52.1198 51.414 52.5134 51.414 52.959ZM49.3359 51.3386C49.0064 51.3386 48.7317 51.4424 48.512 51.6499C48.2923 51.8574 48.1611 52.1656 48.1184 52.5745H50.5626C50.5443 52.3059 50.4772 52.0801 50.3612 51.8971C50.2514 51.714 50.1079 51.5766 49.9309 51.4851C49.754 51.3875 49.5556 51.3386 49.3359 51.3386ZM56.2121 50.7894C56.2975 50.7894 56.3646 50.8138 56.4135 50.8626C56.4684 50.9114 56.4959 50.9816 56.4959 51.0732V55.0919C56.4959 55.5558 56.4074 55.9555 56.2304 56.2912C56.0595 56.6268 55.8001 56.8831 55.4523 57.0601C55.1044 57.2432 54.6772 57.3348 54.1706 57.3348C53.9692 57.3348 53.7648 57.3195 53.5573 57.289C53.3559 57.2646 53.1942 57.2341 53.0721 57.1974C52.9806 57.1669 52.9134 57.1242 52.8707 57.0693C52.8341 57.0144 52.8158 56.9381 52.8158 56.8404V56.4559C53.0111 56.517 53.2247 56.5658 53.4566 56.6024C53.6946 56.639 53.9082 56.6573 54.0974 56.6573C54.6101 56.6573 54.9945 56.5261 55.2509 56.2637C55.5072 56.0074 55.6353 55.629 55.6353 55.1285V54.3962C55.495 54.6647 55.2966 54.8783 55.0403 55.037C54.784 55.1957 54.488 55.275 54.1523 55.275C53.7862 55.275 53.4505 55.1835 53.1454 55.0004C52.8463 54.8112 52.6083 54.5427 52.4313 54.1948C52.2543 53.8469 52.1658 53.4441 52.1658 52.9864C52.1658 52.5287 52.2543 52.129 52.4313 51.7872C52.6083 51.4393 52.8463 51.1739 53.1454 50.9908C53.4505 50.8016 53.7862 50.707 54.1523 50.707C54.5063 50.707 54.8176 50.7955 55.0861 50.9725C55.3546 51.1494 55.556 51.3844 55.6903 51.6773L55.7177 50.7894H56.2121ZM54.3629 54.5884C54.6253 54.5884 54.8511 54.5274 55.0403 54.4054C55.2295 54.2772 55.376 54.0941 55.4797 53.8561C55.5835 53.612 55.6353 53.3221 55.6353 52.9864C55.6353 52.6508 55.5835 52.3639 55.4797 52.1259C55.376 51.8879 55.2295 51.7079 55.0403 51.5858C54.8511 51.4576 54.6253 51.3936 54.3629 51.3936C53.9479 51.3936 53.6244 51.5339 53.3925 51.8147C53.1667 52.0954 53.0538 52.486 53.0538 52.9864C53.0538 53.316 53.1057 53.6028 53.2094 53.8469C53.3132 54.0849 53.4627 54.268 53.658 54.3962C53.8533 54.5244 54.0883 54.5884 54.3629 54.5884ZM60.7883 50.7894H61.6396V54.9272C61.6396 55.0187 61.6152 55.0889 61.5664 55.1377C61.5176 55.1865 61.4504 55.2109 61.365 55.2109H60.8615L60.834 54.4328C60.6815 54.7074 60.477 54.921 60.2207 55.0736C59.9705 55.2201 59.6867 55.2933 59.3693 55.2933C59.052 55.2933 58.7743 55.2231 58.5363 55.0828C58.3044 54.9363 58.1243 54.738 57.9962 54.4877C57.8741 54.2314 57.8131 53.9385 57.8131 53.6089V51.0732C57.8131 50.9816 57.8375 50.9114 57.8863 50.8626C57.9351 50.8138 58.0023 50.7894 58.0877 50.7894H58.6736V53.4716C58.6736 53.8256 58.7529 54.1063 58.9116 54.3138C59.0703 54.5152 59.3175 54.6159 59.6531 54.6159C60.0193 54.6159 60.3 54.4938 60.4953 54.2497C60.6906 53.9995 60.7883 53.6547 60.7883 53.2153V50.7894ZM64.0978 55.275C63.7194 55.275 63.4387 55.1682 63.2556 54.9546C63.0725 54.7349 62.9809 54.445 62.9809 54.0849V48.9951C62.9809 48.9097 63.0054 48.8425 63.0542 48.7937C63.103 48.7449 63.1701 48.7205 63.2556 48.7205H63.8323V54.0483C63.8323 54.2497 63.872 54.3962 63.9513 54.4877C64.0368 54.5732 64.171 54.6159 64.3541 54.6159C64.409 54.6159 64.464 54.6129 64.5189 54.6067C64.5799 54.5945 64.6318 54.5823 64.6745 54.5701V54.9546C64.6745 55.034 64.6562 55.095 64.6196 55.1377C64.5891 55.1743 64.5372 55.2048 64.464 55.2292C64.3602 55.2598 64.2382 55.275 64.0978 55.275ZM69.4375 54.6159C69.4924 54.6159 69.5474 54.6129 69.6023 54.6067C69.6572 54.5945 69.706 54.5823 69.7488 54.5701V54.9546C69.7488 55.0278 69.7335 55.0858 69.703 55.1285C69.6725 55.1713 69.6175 55.2048 69.5382 55.2292C69.4284 55.2598 69.3093 55.275 69.1812 55.275C68.6624 55.275 68.342 55.0187 68.22 54.5061C68.0796 54.7563 67.8782 54.9516 67.6158 55.0919C67.3534 55.2262 67.0513 55.2933 66.7095 55.2933C66.4227 55.2933 66.1633 55.2353 65.9314 55.1194C65.6995 54.9973 65.5194 54.8326 65.3913 54.6251C65.2631 54.4176 65.199 54.1826 65.199 53.9202C65.199 53.4319 65.4004 53.0627 65.8032 52.8125C66.2121 52.5623 66.7858 52.4372 67.5242 52.4372C67.7745 52.4372 67.9942 52.4463 68.1834 52.4646C68.1773 52.0984 68.0796 51.8299 67.8904 51.659C67.7073 51.4821 67.3961 51.3936 66.9567 51.3936C66.737 51.3936 66.4989 51.4119 66.2426 51.4485C65.9924 51.479 65.7574 51.5248 65.5377 51.5858V51.183C65.5377 51.0915 65.553 51.0243 65.5835 50.9816C65.614 50.9328 65.6781 50.8931 65.7758 50.8626C65.9161 50.8199 66.0992 50.7833 66.325 50.7528C66.5569 50.7222 66.7919 50.707 67.0299 50.707C67.7134 50.707 68.22 50.8535 68.5495 51.1464C68.8791 51.4332 69.0439 51.833 69.0439 52.3456V54.0483C69.0439 54.2497 69.0713 54.3962 69.1263 54.4877C69.1873 54.5732 69.291 54.6159 69.4375 54.6159ZM66.975 54.6708C67.2008 54.6708 67.4052 54.619 67.5883 54.5152C67.7775 54.4054 67.924 54.2589 68.0277 54.0758C68.1315 53.8927 68.1834 53.6852 68.1834 53.4533V53.023C68.0857 53.0169 67.9148 53.0139 67.6707 53.0139C67.1337 53.0139 66.7278 53.0719 66.4532 53.1878C66.1846 53.3038 66.0504 53.5174 66.0504 53.8286C66.0504 53.9934 66.087 54.1399 66.1602 54.268C66.2396 54.3962 66.3494 54.4969 66.4898 54.5701C66.6302 54.6373 66.7919 54.6708 66.975 54.6708ZM72.7784 50.707C72.8882 50.707 72.9675 50.7283 73.0164 50.7711C73.0652 50.8077 73.0896 50.8748 73.0896 50.9725V51.4943H72.7417C72.284 51.4943 71.9423 51.6224 71.7164 51.8787C71.4967 52.1351 71.3869 52.5195 71.3869 53.0322V55.2109H70.5264V51.0732C70.5264 50.9816 70.5508 50.9114 70.5996 50.8626C70.6484 50.8138 70.7156 50.7894 70.801 50.7894H71.332L71.3411 51.7323C71.4632 51.4088 71.6524 51.1586 71.9087 50.9816C72.1711 50.7985 72.461 50.707 72.7784 50.707ZM79.7323 48.7205C79.8178 48.7205 79.8849 48.7449 79.9337 48.7937C79.9825 48.8425 80.007 48.9097 80.007 48.9951V55.2109H79.2105L79.1922 54.387C79.0518 54.6617 78.8535 54.8814 78.5972 55.0462C78.3409 55.2109 78.0418 55.2933 77.7 55.2933C77.3339 55.2933 76.9982 55.1987 76.6931 55.0095C76.3879 54.8204 76.1469 54.5518 75.9699 54.204C75.7929 53.8561 75.7044 53.4533 75.7044 52.9956C75.7044 52.5379 75.7929 52.1381 75.9699 51.7964C76.1469 51.4485 76.3879 51.18 76.6931 50.9908C76.9982 50.8016 77.3339 50.707 77.7 50.707C78.0296 50.707 78.3195 50.7833 78.5697 50.9358C78.8199 51.0823 79.0152 51.2868 79.1556 51.5492V48.7205H79.7323ZM77.8831 54.6067C78.1456 54.6067 78.3714 54.5427 78.5606 54.4145C78.7559 54.2863 78.9023 54.1033 79 53.8652C79.1037 53.6211 79.1556 53.3312 79.1556 52.9956C79.1556 52.489 79.0427 52.0954 78.8169 51.8147C78.5911 51.5339 78.2798 51.3936 77.8831 51.3936C77.4742 51.3936 77.1569 51.537 76.9311 51.8238C76.7053 52.1046 76.5924 52.4951 76.5924 52.9956C76.5924 53.496 76.7053 53.8897 76.9311 54.1765C77.1569 54.4633 77.4742 54.6067 77.8831 54.6067ZM85.2154 52.959C85.2154 53.0505 85.2093 53.1268 85.1971 53.1878H81.9107C81.9351 53.6822 82.0816 54.0514 82.3501 54.2955C82.6186 54.5335 82.9909 54.6525 83.467 54.6525C83.6867 54.6525 83.9186 54.6281 84.1627 54.5793C84.4068 54.5305 84.6387 54.4664 84.8584 54.387V54.7715C84.8584 54.8448 84.8401 54.9027 84.8035 54.9455C84.773 54.9882 84.7058 55.034 84.6021 55.0828C84.4678 55.1438 84.2817 55.1926 84.0437 55.2292C83.8057 55.272 83.5799 55.2933 83.3663 55.2933C82.9268 55.2933 82.5332 55.2079 82.1853 55.037C81.8375 54.86 81.5628 54.6006 81.3614 54.2589C81.16 53.911 81.0594 53.4899 81.0594 52.9956C81.0594 52.5379 81.1478 52.1351 81.3248 51.7872C81.5079 51.4393 81.7581 51.1708 82.0755 50.9816C82.3928 50.7924 82.7499 50.6978 83.1465 50.6978C83.5432 50.6978 83.8972 50.7924 84.2085 50.9816C84.5258 51.1708 84.773 51.4363 84.95 51.778C85.1269 52.1198 85.2154 52.5134 85.2154 52.959ZM83.1374 51.3386C82.8078 51.3386 82.5332 51.4424 82.3135 51.6499C82.0938 51.8574 81.9626 52.1656 81.9199 52.5745H84.3641C84.3458 52.3059 84.2786 52.0801 84.1627 51.8971C84.0528 51.714 83.9094 51.5766 83.7324 51.4851C83.5554 51.3875 83.3571 51.3386 83.1374 51.3386ZM87.3771 55.2933C87.1696 55.2933 86.9651 55.2811 86.7637 55.2567C86.5623 55.2323 86.3945 55.1987 86.2602 55.156C86.1565 55.1255 86.0833 55.0858 86.0405 55.037C86.0039 54.9882 85.9856 54.9241 85.9856 54.8448V54.442C86.2114 54.503 86.4433 54.5549 86.6814 54.5976C86.9255 54.6342 87.1513 54.6525 87.3588 54.6525C87.7005 54.6525 87.9569 54.5884 88.1277 54.4603C88.2986 54.3321 88.3841 54.1673 88.3841 53.9659C88.3841 53.8378 88.3505 53.734 88.2834 53.6547C88.2162 53.5693 88.1308 53.5052 88.027 53.4625C87.9294 53.4197 87.7921 53.3709 87.6151 53.316L87.1391 53.1695C86.7546 53.0536 86.4555 52.8979 86.2419 52.7026C86.0283 52.5012 85.9215 52.2358 85.9215 51.9062C85.9215 51.5095 86.0711 51.2105 86.3701 51.0091C86.6752 50.8077 87.1116 50.707 87.6792 50.707C87.8623 50.707 88.0484 50.7192 88.2376 50.7436C88.4268 50.7619 88.5824 50.7894 88.7045 50.826C88.8082 50.8565 88.8754 50.8931 88.9059 50.9358C88.9364 50.9786 88.9516 51.0457 88.9516 51.1372V51.5126C88.7502 51.4576 88.5366 51.4149 88.3108 51.3844C88.085 51.3539 87.8714 51.3386 87.67 51.3386C87.3649 51.3386 87.133 51.3844 86.9743 51.4759C86.8217 51.5675 86.7454 51.6987 86.7454 51.8696C86.7454 51.9855 86.779 52.0832 86.8461 52.1625C86.9133 52.2419 86.9987 52.3059 87.1025 52.3548C87.2123 52.4036 87.3527 52.4555 87.5236 52.5104L88.0087 52.666C88.2406 52.7332 88.439 52.8094 88.6038 52.8949C88.7747 52.9803 88.9181 53.1085 89.034 53.2794C89.15 53.4441 89.208 53.6638 89.208 53.9385C89.208 54.3779 89.0462 54.7135 88.7228 54.9455C88.4054 55.1774 87.9569 55.2933 87.3771 55.2933ZM93.9377 48.7205C94.0231 48.7205 94.0903 48.7449 94.1391 48.7937C94.1879 48.8425 94.2123 48.9097 94.2123 48.9951V55.2109H93.4159L93.3976 54.387C93.2572 54.6617 93.0589 54.8814 92.8026 55.0462C92.5462 55.2109 92.2472 55.2933 91.9054 55.2933C91.5392 55.2933 91.2036 55.1987 90.8984 55.0095C90.5933 54.8204 90.3522 54.5518 90.1752 54.204C89.9983 53.8561 89.9098 53.4533 89.9098 52.9956C89.9098 52.5379 89.9983 52.1381 90.1752 51.7964C90.3522 51.4485 90.5933 51.18 90.8984 50.9908C91.2036 50.8016 91.5392 50.707 91.9054 50.707C92.235 50.707 92.5249 50.7833 92.7751 50.9358C93.0253 51.0823 93.2206 51.2868 93.361 51.5492V48.7205H93.9377ZM92.0885 54.6067C92.3509 54.6067 92.5767 54.5427 92.7659 54.4145C92.9612 54.2863 93.1077 54.1033 93.2053 53.8652C93.3091 53.6211 93.361 53.3312 93.361 52.9956C93.361 52.489 93.2481 52.0954 93.0223 51.8147C92.7965 51.5339 92.4852 51.3936 92.0885 51.3936C91.6796 51.3936 91.3623 51.537 91.1365 51.8238C90.9106 52.1046 90.7977 52.4951 90.7977 52.9956C90.7977 53.496 90.9106 53.8897 91.1365 54.1765C91.3623 54.4633 91.6796 54.6067 92.0885 54.6067ZM99.4208 52.959C99.4208 53.0505 99.4147 53.1268 99.4025 53.1878H96.1161C96.1405 53.6822 96.287 54.0514 96.5555 54.2955C96.824 54.5335 97.1963 54.6525 97.6723 54.6525C97.892 54.6525 98.124 54.6281 98.3681 54.5793C98.6122 54.5305 98.8441 54.4664 99.0638 54.387V54.7715C99.0638 54.8448 99.0455 54.9027 99.0089 54.9455C98.9784 54.9882 98.9112 55.034 98.8075 55.0828C98.6732 55.1438 98.4871 55.1926 98.2491 55.2292C98.011 55.272 97.7852 55.2933 97.5716 55.2933C97.1322 55.2933 96.7386 55.2079 96.3907 55.037C96.0429 54.86 95.7682 54.6006 95.5668 54.2589C95.3654 53.911 95.2647 53.4899 95.2647 52.9956C95.2647 52.5379 95.3532 52.1351 95.5302 51.7872C95.7133 51.4393 95.9635 51.1708 96.2809 50.9816C96.5982 50.7924 96.9552 50.6978 97.3519 50.6978C97.7486 50.6978 98.1026 50.7924 98.4138 50.9816C98.7312 51.1708 98.9784 51.4363 99.1553 51.778C99.3323 52.1198 99.4208 52.5134 99.4208 52.959ZM97.3428 51.3386C97.0132 51.3386 96.7386 51.4424 96.5189 51.6499C96.2992 51.8574 96.168 52.1656 96.1252 52.5745H98.5695C98.5512 52.3059 98.484 52.0801 98.3681 51.8971C98.2582 51.714 98.1148 51.5766 97.9378 51.4851C97.7608 51.3875 97.5625 51.3386 97.3428 51.3386ZM104.24 55.2933C103.977 55.2933 103.712 55.275 103.443 55.2384C103.181 55.2018 102.964 55.156 102.793 55.1011C102.671 55.0645 102.586 55.0187 102.537 54.9638C102.488 54.9027 102.464 54.8265 102.464 54.7349V54.2955C102.726 54.387 103.013 54.4603 103.324 54.5152C103.642 54.5701 103.935 54.5976 104.203 54.5976C104.545 54.5976 104.826 54.5488 105.045 54.4511C105.271 54.3535 105.436 54.2223 105.54 54.0575C105.643 53.8927 105.695 53.7096 105.695 53.5082C105.695 53.319 105.647 53.1573 105.549 53.023C105.451 52.8827 105.311 52.7576 105.128 52.6477C104.945 52.5379 104.704 52.4219 104.405 52.2998L104.011 52.1442C103.663 52.0039 103.376 51.8604 103.15 51.714C102.925 51.5675 102.748 51.3936 102.619 51.1922C102.497 50.9847 102.436 50.7436 102.436 50.469C102.436 50.1211 102.525 49.8251 102.702 49.581C102.885 49.3369 103.138 49.1507 103.462 49.0226C103.791 48.8944 104.176 48.8303 104.615 48.8303C105.067 48.8303 105.494 48.8822 105.897 48.986C106.019 49.0165 106.101 49.0561 106.144 49.105C106.187 49.1477 106.208 49.2179 106.208 49.3155V49.7458C105.988 49.6786 105.735 49.6237 105.448 49.581C105.167 49.5383 104.914 49.5169 104.688 49.5169C104.273 49.5169 103.941 49.5901 103.691 49.7366C103.44 49.8831 103.315 50.1119 103.315 50.4232C103.315 50.588 103.364 50.7344 103.462 50.8626C103.565 50.9847 103.697 51.0915 103.855 51.183C104.014 51.2746 104.215 51.3691 104.46 51.4668L104.844 51.6316C105.216 51.778 105.524 51.9276 105.769 52.0801C106.013 52.2327 106.208 52.425 106.354 52.6569C106.507 52.8827 106.583 53.1634 106.583 53.4991C106.583 53.8591 106.492 54.1765 106.309 54.4511C106.132 54.7197 105.866 54.9272 105.512 55.0736C105.164 55.2201 104.74 55.2933 104.24 55.2933ZM109.372 49.1599C109.427 48.9951 109.54 48.9127 109.711 48.9127H110.342L107.587 57.1425H106.699L109.372 49.1599ZM114.667 48.9127H115.226V55.2109H114.347V49.7915L112.855 50.3866V49.8648C112.855 49.7732 112.87 49.7061 112.901 49.6634C112.931 49.6146 112.992 49.5718 113.084 49.5352L114.667 48.9127ZM120.626 53.2519H121.414V53.9293H120.626V55.2109H119.793V53.9293H116.781C116.69 53.9293 116.62 53.908 116.571 53.8652C116.522 53.8164 116.498 53.7493 116.498 53.6638V53.2519L119.693 48.9127H120.626V53.2519ZM119.793 49.9655L117.376 53.2519H119.793V49.9655ZM126.125 48.9127V49.5718L123.526 55.2109H122.967C122.882 55.2109 122.815 55.1926 122.766 55.156C122.723 55.1194 122.702 55.0675 122.702 55.0004C122.702 54.9516 122.714 54.9027 122.738 54.8539L125.182 49.6176H121.74V49.1965C121.74 49.0073 121.835 48.9127 122.024 48.9127H126.125ZM126.327 55.2933C126.175 55.2933 126.044 55.2415 125.934 55.1377C125.83 55.0278 125.778 54.8966 125.778 54.7441C125.778 54.6525 125.802 54.564 125.851 54.4786C125.9 54.3931 125.964 54.326 126.044 54.2772C126.129 54.2284 126.224 54.204 126.327 54.204C126.425 54.204 126.513 54.2314 126.593 54.2863C126.678 54.3352 126.745 54.4023 126.794 54.4877C126.849 54.5671 126.877 54.6525 126.877 54.7441C126.877 54.8417 126.849 54.9333 126.794 55.0187C126.745 55.1041 126.678 55.1713 126.593 55.2201C126.513 55.2689 126.425 55.2933 126.327 55.2933ZM129.627 48.8303C130.097 48.8303 130.506 48.9341 130.854 49.1416C131.202 49.343 131.468 49.6451 131.651 50.0479C131.84 50.4507 131.934 50.9419 131.934 51.5217C131.934 52.2846 131.831 52.9468 131.623 53.5082C131.422 54.0697 131.101 54.5091 130.662 54.8265C130.223 55.1377 129.661 55.2933 128.978 55.2933C128.709 55.2933 128.477 55.272 128.282 55.2292C128.184 55.2048 128.117 55.1713 128.08 55.1285C128.05 55.0797 128.035 55.0065 128.035 54.9088V54.4877C128.315 54.5549 128.627 54.5884 128.968 54.5884C129.652 54.5884 130.158 54.3748 130.488 53.9476C130.818 53.5204 130.998 52.9468 131.028 52.2266C130.888 52.4646 130.677 52.6538 130.396 52.7942C130.116 52.9345 129.795 53.0047 129.435 53.0047C129.069 53.0047 128.733 52.9254 128.428 52.7667C128.129 52.6019 127.891 52.37 127.714 52.071C127.537 51.7658 127.449 51.4088 127.449 50.9999C127.449 50.5605 127.54 50.1791 127.723 49.8556C127.913 49.5261 128.172 49.2728 128.501 49.0958C128.837 48.9188 129.212 48.8303 129.627 48.8303ZM129.627 52.3182C129.884 52.3182 130.119 52.2632 130.332 52.1534C130.546 52.0435 130.717 51.8879 130.845 51.6865C130.973 51.479 131.037 51.2379 131.037 50.9633C131.037 50.6887 130.979 50.4446 130.863 50.231C130.747 50.0112 130.583 49.8434 130.369 49.7275C130.161 49.6054 129.92 49.5444 129.646 49.5444C129.389 49.5444 129.161 49.6024 128.959 49.7183C128.758 49.8343 128.599 49.999 128.483 50.2126C128.373 50.4262 128.318 50.6704 128.318 50.945C128.318 51.2257 128.376 51.4698 128.492 51.6773C128.608 51.8848 128.764 52.0435 128.959 52.1534C129.161 52.2632 129.383 52.3182 129.627 52.3182ZM135.366 55.2933C134.853 55.2933 134.414 55.153 134.047 54.8722C133.681 54.5854 133.404 54.1979 133.214 53.7096C133.031 53.2214 132.94 52.6691 132.94 52.0527C132.94 51.4485 133.031 50.9023 133.214 50.414C133.404 49.9258 133.681 49.5413 134.047 49.2606C134.414 48.9738 134.853 48.8303 135.366 48.8303C135.878 48.8303 136.318 48.9738 136.684 49.2606C137.05 49.5413 137.328 49.9258 137.517 50.414C137.706 50.9023 137.801 51.4485 137.801 52.0527C137.801 52.663 137.703 53.2153 137.508 53.7096C137.319 54.1979 137.041 54.5854 136.675 54.8722C136.309 55.153 135.872 55.2933 135.366 55.2933ZM135.366 54.5701C135.695 54.5701 135.973 54.4664 136.199 54.2589C136.424 54.0453 136.595 53.7523 136.711 53.3801C136.827 53.0017 136.885 52.5592 136.885 52.0527C136.885 51.5461 136.827 51.1067 136.711 50.7344C136.601 50.3622 136.431 50.0723 136.199 49.8648C135.973 49.6573 135.695 49.5535 135.366 49.5535C135.042 49.5535 134.764 49.6573 134.533 49.8648C134.307 50.0662 134.136 50.3561 134.02 50.7344C133.904 51.1067 133.846 51.5461 133.846 52.0527C133.846 52.5531 133.904 52.9925 134.02 53.3709C134.142 53.7493 134.316 54.0453 134.542 54.2589C134.774 54.4664 135.048 54.5701 135.366 54.5701Z" fill="#3C7521"/>
<path d="M28.2076 39.3357C27.1383 39.3357 26.0565 39.2611 24.9623 39.1119C23.8929 38.9627 23.0101 38.7762 22.3138 38.5524C21.8164 38.4032 21.4682 38.2166 21.2693 37.9928C21.0703 37.7441 20.9709 37.4333 20.9709 37.0602V35.2697C22.0402 35.6427 23.209 35.9412 24.4773 36.165C25.7705 36.3888 26.9642 36.5007 28.0584 36.5007C29.4511 36.5007 30.595 36.3018 31.4903 35.9039C32.4104 35.506 33.0819 34.9713 33.5047 34.2998C33.9274 33.6284 34.1388 32.8823 34.1388 32.0616C34.1388 31.2907 33.9399 30.6317 33.542 30.0846C33.1441 29.5126 32.5721 29.0028 31.826 28.5552C31.08 28.1075 30.0977 27.635 28.8791 27.1377L27.2751 26.5035C25.8576 25.9315 24.6887 25.3471 23.7686 24.7503C22.8484 24.1534 22.1273 23.4447 21.605 22.624C21.1076 21.7785 20.859 20.7961 20.859 19.6771C20.859 18.2595 21.2195 17.0534 21.9407 16.0587C22.6868 15.0639 23.7188 14.3054 25.0369 13.7832C26.3798 13.2609 27.9465 12.9998 29.7371 12.9998C31.5773 12.9998 33.3181 13.2112 34.9595 13.634C35.4569 13.7583 35.7926 13.92 35.9667 14.1189C36.1407 14.293 36.2278 14.579 36.2278 14.9769V16.7301C35.3325 16.4566 34.3005 16.2327 33.1316 16.0587C31.9877 15.8846 30.9556 15.7975 30.0355 15.7975C28.3444 15.7975 26.9891 16.096 25.9695 16.6928C24.9498 17.2897 24.44 18.2222 24.44 19.4905C24.44 20.162 24.639 20.7588 25.0369 21.2811C25.4597 21.7785 25.9943 22.2137 26.6409 22.5867C27.2875 22.9597 28.1082 23.3452 29.1029 23.7431L30.6696 24.4145C32.1866 25.0114 33.4425 25.6207 34.4372 26.2424C35.432 26.8641 36.2278 27.6475 36.8246 28.5925C37.4463 29.5126 37.7572 30.6566 37.7572 32.0243C37.7572 33.4916 37.3842 34.7848 36.6381 35.9039C35.9169 36.9981 34.8351 37.8436 33.3928 38.4405C31.9752 39.0373 30.2469 39.3357 28.2076 39.3357ZM47.6285 14.3427C47.8523 13.6713 48.3124 13.3356 49.0087 13.3356H51.5826L40.3544 46.8709H36.736L47.6285 14.3427ZM61.1893 39.3357C59.4734 39.3357 57.9191 39.0249 56.5264 38.4032C55.1586 37.7814 54.0769 36.9235 53.2811 35.8292C52.5101 34.7102 52.1247 33.4543 52.1247 32.0616C52.1247 31.0172 52.3485 30.0597 52.7961 29.1893C53.2686 28.294 53.8655 27.548 54.5867 26.9511C55.3327 26.3294 56.1161 25.8942 56.9368 25.6455C56.2404 25.3968 55.5814 25.0238 54.9597 24.5264C54.338 24.0042 53.8157 23.3452 53.393 22.5494C52.9951 21.7536 52.7961 20.8459 52.7961 19.8263C52.7961 18.5082 53.1567 17.327 53.8779 16.2825C54.624 15.238 55.6312 14.4298 56.8995 13.8578C58.1926 13.2858 59.6226 12.9998 61.1893 12.9998C62.756 12.9998 64.1735 13.2858 65.4418 13.8578C66.7101 14.4298 67.7049 15.238 68.4261 16.2825C69.1721 17.327 69.5452 18.5082 69.5452 19.8263C69.5452 20.8459 69.3338 21.7536 68.911 22.5494C68.5131 23.3452 67.9909 24.0042 67.3443 24.5264C66.7226 25.0238 66.076 25.3968 65.4045 25.6455C66.2252 25.8942 66.9961 26.3294 67.7173 26.9511C68.4634 27.548 69.0602 28.294 69.5079 29.1893C69.9555 30.0597 70.1793 31.0172 70.1793 32.0616C70.1793 33.4543 69.7814 34.7102 68.9856 35.8292C68.2147 36.9235 67.1453 37.7814 65.7776 38.4032C64.4098 39.0249 62.8804 39.3357 61.1893 39.3357ZM61.1893 24.2653C62.1094 24.2653 62.9301 24.1037 63.6513 23.7804C64.3725 23.4571 64.9445 22.9846 65.3672 22.3629C65.79 21.7412 66.0014 20.9951 66.0014 20.1247C66.0014 19.2543 65.79 18.5082 65.3672 17.8865C64.9445 17.2399 64.3725 16.7426 63.6513 16.3944C62.9301 16.0462 62.1094 15.8722 61.1893 15.8722C60.2692 15.8722 59.4361 16.0462 58.69 16.3944C57.9688 16.7426 57.3844 17.2399 56.9368 17.8865C56.514 18.5082 56.3026 19.2543 56.3026 20.1247C56.3026 20.9951 56.514 21.7412 56.9368 22.3629C57.3844 22.9846 57.9688 23.4571 58.69 23.7804C59.4361 24.1037 60.2692 24.2653 61.1893 24.2653ZM61.1893 36.4634C62.184 36.4634 63.0917 36.2769 63.9124 35.9039C64.7331 35.5308 65.3797 34.9961 65.8522 34.2998C66.3495 33.5786 66.5982 32.7331 66.5982 31.7632C66.5982 30.8431 66.362 30.0473 65.8895 29.3758C65.4418 28.6795 64.8077 28.1573 63.987 27.8091C63.1664 27.4361 62.2338 27.2496 61.1893 27.2496C60.1448 27.2496 59.2122 27.4361 58.3916 27.8091C57.5709 28.1573 56.9243 28.6795 56.4518 29.3758C55.9793 30.0473 55.7431 30.8431 55.7431 31.7632C55.7431 32.7331 55.9793 33.5786 56.4518 34.2998C56.9492 34.9961 57.6082 35.5308 58.4289 35.9039C59.2495 36.2769 60.1697 36.4634 61.1893 36.4634ZM88.8693 13.3356V16.0214L78.2752 39H75.9997C75.6516 39 75.378 38.9254 75.1791 38.7762C75.005 38.627 74.918 38.4156 74.918 38.142C74.918 37.9431 74.9677 37.7441 75.0672 37.5452L85.0271 16.2079H71.0011V14.4919C71.0011 13.721 71.3866 13.3356 72.1575 13.3356H88.8693Z" fill="#3C7521"/>
<path d="M95.0689 29.7818C94.7649 29.7818 94.5035 29.6785 94.2847 29.4718C94.078 29.2529 93.9747 28.9915 93.9747 28.6876C93.9747 28.5052 94.0233 28.3289 94.1206 28.1587C94.2178 27.9885 94.3455 27.8548 94.5035 27.7575C94.6738 27.6602 94.8622 27.6116 95.0689 27.6116C95.2634 27.6116 95.4397 27.6663 95.5978 27.7757C95.768 27.873 95.9017 28.0067 95.999 28.177C96.1084 28.335 96.1631 28.5052 96.1631 28.6876C96.1631 28.8821 96.1084 29.0645 95.999 29.2347C95.9017 29.4049 95.768 29.5386 95.5978 29.6359C95.4397 29.7332 95.2634 29.7818 95.0689 29.7818ZM100.914 16.9065C101.85 16.9065 102.665 17.1132 103.358 17.5265C104.051 17.9278 104.579 18.5296 104.944 19.332C105.321 20.1344 105.51 21.1132 105.51 22.2682C105.51 23.7879 105.303 25.1071 104.89 26.2256C104.488 27.3441 103.85 28.2195 102.975 28.8517C102.099 29.4718 100.981 29.7818 99.619 29.7818C99.0841 29.7818 98.6221 29.7393 98.233 29.6541C98.0385 29.6055 97.9047 29.5386 97.8318 29.4535C97.771 29.3563 97.7406 29.2104 97.7406 29.0159V28.177C98.2999 28.3107 98.9199 28.3776 99.6008 28.3776C100.962 28.3776 101.972 27.952 102.628 27.101C103.285 26.2499 103.643 25.1071 103.704 23.6724C103.424 24.1466 103.005 24.5235 102.446 24.8031C101.886 25.0827 101.248 25.2226 100.531 25.2226C99.8014 25.2226 99.1327 25.0645 98.5248 24.7484C97.9291 24.4201 97.4549 23.9581 97.1023 23.3624C96.7497 22.7545 96.5734 22.0432 96.5734 21.2287C96.5734 20.3533 96.7558 19.5934 97.1206 18.949C97.4975 18.2925 98.0142 17.7879 98.6707 17.4354C99.3394 17.0828 100.087 16.9065 100.914 16.9065ZM100.914 23.8548C101.424 23.8548 101.893 23.7454 102.318 23.5265C102.744 23.3077 103.084 22.9976 103.339 22.5964C103.595 22.1831 103.722 21.7028 103.722 21.1557C103.722 20.6086 103.607 20.1223 103.376 19.6967C103.145 19.2591 102.817 18.9247 102.391 18.6937C101.978 18.4505 101.497 18.329 100.95 18.329C100.44 18.329 99.9838 18.4445 99.5825 18.6755C99.1813 18.9065 98.8652 19.2347 98.6342 19.6603C98.4154 20.0858 98.306 20.5721 98.306 21.1192C98.306 21.6785 98.4215 22.1648 98.6525 22.5782C98.8835 22.9916 99.1935 23.3077 99.5825 23.5265C99.9838 23.7454 100.428 23.8548 100.914 23.8548ZM111.616 29.7818C110.594 29.7818 109.719 29.5022 108.99 28.9429C108.26 28.3715 107.707 27.5994 107.33 26.6268C106.965 25.6542 106.783 24.5539 106.783 23.3259C106.783 22.1223 106.965 21.0341 107.33 20.0615C107.707 19.0888 108.26 18.3229 108.99 17.7636C109.719 17.1922 110.594 16.9065 111.616 16.9065C112.637 16.9065 113.512 17.1922 114.242 17.7636C114.971 18.3229 115.524 19.0888 115.901 20.0615C116.278 21.0341 116.467 22.1223 116.467 23.3259C116.467 24.5417 116.272 25.642 115.883 26.6268C115.506 27.5994 114.953 28.3715 114.224 28.9429C113.494 29.5022 112.625 29.7818 111.616 29.7818ZM111.616 28.3411C112.272 28.3411 112.825 28.1344 113.275 27.721C113.725 27.2955 114.066 26.7119 114.297 25.9703C114.528 25.2165 114.643 24.335 114.643 23.3259C114.643 22.3168 114.528 21.4414 114.297 20.6998C114.078 19.9581 113.737 19.3806 113.275 18.9673C112.825 18.5539 112.272 18.3472 111.616 18.3472C110.971 18.3472 110.418 18.5539 109.956 18.9673C109.506 19.3685 109.166 19.946 108.935 20.6998C108.704 21.4414 108.588 22.3168 108.588 23.3259C108.588 24.3229 108.704 25.1982 108.935 25.952C109.178 26.7058 109.525 27.2955 109.974 27.721C110.436 28.1344 110.983 28.3411 111.616 28.3411Z" fill="#3C7521"/>
<path d="M95.6562 38.3176L97.1242 40.196C97.1729 40.2629 97.1972 40.3206 97.1972 40.3692C97.1972 40.4118 97.179 40.4483 97.1425 40.4787C97.106 40.503 97.0543 40.5151 96.9875 40.5151H96.3856L95.1455 38.8556L93.9419 40.5151H92.9936L94.6714 38.3267L93.2124 36.43C93.1638 36.3632 93.1395 36.3054 93.1395 36.2568C93.1395 36.2142 93.1577 36.1808 93.1942 36.1565C93.2306 36.1261 93.2823 36.1109 93.3492 36.1109H93.9601L95.182 37.8161L96.4039 36.1109H97.3431L95.6562 38.3176ZM103.972 39.813V40.5151H100.014V39.8677C100.689 39.2841 101.236 38.7705 101.656 38.3267C102.081 37.8768 102.403 37.4635 102.622 37.0866C102.847 36.7036 102.959 36.3449 102.959 36.0106C102.959 35.658 102.844 35.3814 102.613 35.1808C102.388 34.9802 102.035 34.8799 101.555 34.8799C101.349 34.8799 101.121 34.9012 100.871 34.9437C100.622 34.9863 100.373 35.0471 100.124 35.1261V34.6702C100.124 34.6033 100.127 34.5547 100.133 34.5243C100.145 34.4878 100.169 34.4544 100.206 34.424C100.242 34.3936 100.303 34.3662 100.388 34.3419C100.54 34.2872 100.735 34.2446 100.972 34.2142C101.215 34.1778 101.455 34.1595 101.692 34.1595C102.148 34.1595 102.537 34.2294 102.859 34.3693C103.187 34.503 103.437 34.6975 103.607 34.9528C103.777 35.2082 103.862 35.5152 103.862 35.8738C103.862 36.5121 103.61 37.1595 103.105 37.8161C102.601 38.4665 101.911 39.1322 101.035 39.813H103.972ZM113.784 34.2416V40.5151H113.255C113.164 40.5151 113.094 40.4908 113.045 40.4422C112.997 40.3936 112.972 40.3236 112.972 40.2325V35.5L110.893 38.8282H110.392C110.319 38.8282 110.261 38.8161 110.218 38.7917C110.182 38.7674 110.145 38.7249 110.109 38.6641L108.13 35.5456V40.5151H107.328V34.5425C107.328 34.3419 107.428 34.2416 107.629 34.2416H108.24L110.583 37.9711L112.744 34.4604C112.793 34.3753 112.845 34.3176 112.899 34.2872C112.96 34.2568 113.039 34.2416 113.136 34.2416H113.784ZM118.964 38.272C118.964 38.3632 118.958 38.4392 118.945 38.4999H115.672C115.696 38.9923 115.842 39.3601 116.11 39.6033C116.377 39.8404 116.748 39.9589 117.222 39.9589C117.441 39.9589 117.672 39.9346 117.915 39.886C118.158 39.8373 118.389 39.7735 118.608 39.6945V40.0774C118.608 40.1504 118.59 40.2081 118.553 40.2507C118.523 40.2933 118.456 40.3388 118.353 40.3875C118.219 40.4483 118.034 40.4969 117.797 40.5334C117.559 40.5759 117.335 40.5972 117.122 40.5972C116.684 40.5972 116.292 40.5121 115.945 40.3419C115.599 40.1656 115.325 39.9072 115.125 39.5668C114.924 39.2203 114.824 38.8009 114.824 38.3085C114.824 37.8525 114.912 37.4513 115.088 37.1048C115.271 36.7583 115.52 36.4908 115.836 36.3024C116.152 36.1139 116.508 36.0197 116.903 36.0197C117.298 36.0197 117.651 36.1139 117.961 36.3024C118.277 36.4908 118.523 36.7553 118.699 37.0957C118.876 37.4361 118.964 37.8282 118.964 38.272ZM116.894 36.658C116.566 36.658 116.292 36.7614 116.073 36.968C115.854 37.1747 115.724 37.4817 115.681 37.889H118.116C118.097 37.6215 118.031 37.3966 117.915 37.2142C117.806 37.0319 117.663 36.8951 117.487 36.8039C117.31 36.7066 117.113 36.658 116.894 36.658ZM121.117 40.5972C120.91 40.5972 120.707 40.585 120.506 40.5607C120.305 40.5364 120.138 40.503 120.004 40.4604C119.901 40.43 119.828 40.3905 119.786 40.3419C119.749 40.2933 119.731 40.2294 119.731 40.1504V39.7492C119.956 39.81 120.187 39.8616 120.424 39.9042C120.667 39.9407 120.892 39.9589 121.099 39.9589C121.439 39.9589 121.694 39.8951 121.865 39.7674C122.035 39.6398 122.12 39.4756 122.12 39.275C122.12 39.1474 122.086 39.044 122.02 38.965C121.953 38.8799 121.868 38.8161 121.764 38.7735C121.667 38.7309 121.53 38.6823 121.354 38.6276L120.88 38.4817C120.497 38.3662 120.199 38.2112 119.986 38.0167C119.773 37.8161 119.667 37.5516 119.667 37.2234C119.667 36.8282 119.816 36.5304 120.114 36.3297C120.418 36.1291 120.852 36.0288 121.418 36.0288C121.6 36.0288 121.786 36.041 121.974 36.0653C122.162 36.0835 122.317 36.1109 122.439 36.1474C122.542 36.1778 122.609 36.2142 122.64 36.2568C122.67 36.2993 122.685 36.3662 122.685 36.4574V36.8313C122.485 36.7765 122.272 36.734 122.047 36.7036C121.822 36.6732 121.609 36.658 121.409 36.658C121.105 36.658 120.874 36.7036 120.716 36.7948C120.564 36.886 120.488 37.0167 120.488 37.1869C120.488 37.3024 120.521 37.3996 120.588 37.4787C120.655 37.5577 120.74 37.6215 120.843 37.6702C120.953 37.7188 121.093 37.7705 121.263 37.8252L121.746 37.9802C121.977 38.0471 122.175 38.123 122.339 38.2082C122.509 38.2933 122.652 38.4209 122.767 38.5911C122.883 38.7553 122.941 38.9741 122.941 39.2477C122.941 39.6854 122.779 40.0197 122.457 40.2507C122.141 40.4817 121.694 40.5972 121.117 40.5972ZM127.779 38.272C127.779 38.3632 127.773 38.4392 127.761 38.4999H124.488C124.512 38.9923 124.658 39.3601 124.925 39.6033C125.193 39.8404 125.564 39.9589 126.038 39.9589C126.257 39.9589 126.488 39.9346 126.731 39.886C126.974 39.8373 127.205 39.7735 127.424 39.6945V40.0774C127.424 40.1504 127.406 40.2081 127.369 40.2507C127.339 40.2933 127.272 40.3388 127.169 40.3875C127.035 40.4483 126.849 40.4969 126.612 40.5334C126.375 40.5759 126.15 40.5972 125.938 40.5972C125.5 40.5972 125.108 40.5121 124.761 40.3419C124.415 40.1656 124.141 39.9072 123.941 39.5668C123.74 39.2203 123.64 38.8009 123.64 38.3085C123.64 37.8525 123.728 37.4513 123.904 37.1048C124.086 36.7583 124.336 36.4908 124.652 36.3024C124.968 36.1139 125.324 36.0197 125.719 36.0197C126.114 36.0197 126.466 36.1139 126.776 36.3024C127.093 36.4908 127.339 36.7553 127.515 37.0957C127.691 37.4361 127.779 37.8282 127.779 38.272ZM125.71 36.658C125.381 36.658 125.108 36.7614 124.889 36.968C124.67 37.1747 124.539 37.4817 124.497 37.889H126.931C126.913 37.6215 126.846 37.3966 126.731 37.2142C126.621 37.0319 126.479 36.8951 126.302 36.8039C126.126 36.7066 125.928 36.658 125.71 36.658ZM129.933 40.5972C129.726 40.5972 129.522 40.585 129.322 40.5607C129.121 40.5364 128.954 40.503 128.82 40.4604C128.717 40.43 128.644 40.3905 128.601 40.3419C128.565 40.2933 128.547 40.2294 128.547 40.1504V39.7492C128.772 39.81 129.003 39.8616 129.24 39.9042C129.483 39.9407 129.708 39.9589 129.914 39.9589C130.255 39.9589 130.51 39.8951 130.68 39.7674C130.851 39.6398 130.936 39.4756 130.936 39.275C130.936 39.1474 130.902 39.044 130.835 38.965C130.768 38.8799 130.683 38.8161 130.58 38.7735C130.483 38.7309 130.346 38.6823 130.17 38.6276L129.696 38.4817C129.313 38.3662 129.015 38.2112 128.802 38.0167C128.589 37.8161 128.483 37.5516 128.483 37.2234C128.483 36.8282 128.632 36.5304 128.93 36.3297C129.234 36.1291 129.668 36.0288 130.234 36.0288C130.416 36.0288 130.601 36.041 130.79 36.0653C130.978 36.0835 131.133 36.1109 131.255 36.1474C131.358 36.1778 131.425 36.2142 131.455 36.2568C131.486 36.2993 131.501 36.3662 131.501 36.4574V36.8313C131.3 36.7765 131.088 36.734 130.863 36.7036C130.638 36.6732 130.425 36.658 130.224 36.658C129.92 36.658 129.689 36.7036 129.531 36.7948C129.379 36.886 129.303 37.0167 129.303 37.1869C129.303 37.3024 129.337 37.3996 129.404 37.4787C129.471 37.5577 129.556 37.6215 129.659 37.6702C129.768 37.7188 129.908 37.7705 130.079 37.8252L130.562 37.9802C130.793 38.0471 130.99 38.123 131.155 38.2082C131.325 38.2933 131.468 38.4209 131.583 38.5911C131.699 38.7553 131.756 38.9741 131.756 39.2477C131.756 39.6854 131.595 40.0197 131.273 40.2507C130.957 40.4817 130.51 40.5972 129.933 40.5972Z" fill="#3C7521"/>
</svg>
